<?xml version="1.0" encoding="UTF-8" standalone="no"?>
<!DOCTYPE svg PUBLIC "-//W3C//DTD SVG 1.1//EN"
 "http://www.w3.org/Graphics/SVG/1.1/DTD/svg11.dtd">
<!-- Generated by graphviz version 2.43.0 (0)
 -->
<!-- Title: set_alias Pages: 1 -->
<svg width="357pt" height="212pt"
 viewBox="0.00 0.00 357.00 212.00" xmlns="http://www.w3.org/2000/svg" xmlns:xlink="http://www.w3.org/1999/xlink">
<g id="graph0" class="graph" transform="scale(1 1) rotate(0) translate(4 208)">
<title>set_alias</title>
<!-- Node1 -->
<g id="node1" class="node">
<title>Node1</title>
<g id="a_node1"><a xlink:title=" ">
<polygon fill="#999999" stroke="#666666" points="60,-129 0,-129 0,-110 60,-110 60,-129"/>
<text text-anchor="middle" x="30" y="-117" font-family="Helvetica,sans-Serif" font-size="10.00">set_alias</text>
</a>
</g>
</g>
<!-- Node2 -->
<g id="node2" class="node">
<title>Node2</title>
<g id="a_node2"><a xlink:href="alias_8c.html#a4330d7c013188691a57fe23812b975df" target="_top" xlink:title=" ">
<polygon fill="white" stroke="#666666" points="165,-176 104,-176 104,-157 165,-157 165,-176"/>
<text text-anchor="middle" x="134.5" y="-164" font-family="Helvetica,sans-Serif" font-size="10.00">join_args</text>
</a>
</g>
</g>
<!-- Node1&#45;&gt;Node2 -->
<g id="edge1" class="edge">
<title>Node1&#45;&gt;Node2</title>
<path fill="none" stroke="#63b8ff" d="M51.74,-129.01C66.51,-135.78 86.59,-144.99 103.16,-152.59"/>
<polygon fill="#63b8ff" stroke="#63b8ff" points="101.89,-155.86 112.44,-156.84 104.81,-149.49 101.89,-155.86"/>
</g>
<!-- Node4 -->
<g id="node4" class="node">
<title>Node4</title>
<g id="a_node4"><a xlink:href="set__variable_8c.html#a47afbd80fec3464fe83979a24adb4290" target="_top" xlink:title=" ">
<polygon fill="white" stroke="#666666" points="173,-111 96,-111 96,-92 173,-92 173,-111"/>
<text text-anchor="middle" x="134.5" y="-99" font-family="Helvetica,sans-Serif" font-size="10.00">set_variable</text>
</a>
</g>
</g>
<!-- Node1&#45;&gt;Node4 -->
<g id="edge3" class="edge">
<title>Node1&#45;&gt;Node4</title>
<path fill="none" stroke="#63b8ff" d="M60.1,-114.39C68.18,-112.97 77.18,-111.39 86.02,-109.84"/>
<polygon fill="#63b8ff" stroke="#63b8ff" points="86.64,-113.28 95.89,-108.11 85.43,-106.39 86.64,-113.28"/>
</g>
<!-- Node3 -->
<g id="node3" class="node">
<title>Node3</title>
<g id="a_node3"><a xlink:href="strings_8h.html#a5e1589f073ac32d227dbc6020c376dab" target="_top" xlink:title=" ">
<polygon fill="white" stroke="#666666" points="329.5,-204 228.5,-204 228.5,-185 329.5,-185 329.5,-204"/>
<text text-anchor="middle" x="279" y="-192" font-family="Helvetica,sans-Serif" font-size="10.00">append_to_buffer</text>
</a>
</g>
</g>
<!-- Node2&#45;&gt;Node3 -->
<g id="edge2" class="edge">
<title>Node2&#45;&gt;Node3</title>
<path fill="none" stroke="#63b8ff" d="M165.03,-172.3C180.78,-175.4 200.74,-179.32 219.48,-183"/>
<polygon fill="#63b8ff" stroke="#63b8ff" points="218.95,-186.46 229.44,-184.96 220.3,-179.6 218.95,-186.46"/>
</g>
<!-- Node5 -->
<g id="node5" class="node">
<title>Node5</title>
<g id="a_node5"><a xlink:href="set__variable_8c.html#adebd93167a76f58c737bb4ee682da191" target="_top" xlink:title=" ">
<polygon fill="white" stroke="#666666" points="307,-167 251,-167 251,-148 307,-148 307,-167"/>
<text text-anchor="middle" x="279" y="-155" font-family="Helvetica,sans-Serif" font-size="10.00">fill_data</text>
</a>
</g>
</g>
<!-- Node4&#45;&gt;Node5 -->
<g id="edge4" class="edge">
<title>Node4&#45;&gt;Node5</title>
<path fill="none" stroke="#63b8ff" d="M151.37,-111.02C165.94,-119.44 188.34,-131.58 209,-139.5 219.16,-143.4 230.48,-146.74 240.96,-149.45"/>
<polygon fill="#63b8ff" stroke="#63b8ff" points="240.15,-152.85 250.69,-151.85 241.82,-146.06 240.15,-152.85"/>
</g>
<!-- Node6 -->
<g id="node6" class="node">
<title>Node6</title>
<g id="a_node6"><a xlink:href="free__variable_8c.html#a6cfba30b5c98d6fa7663b6bc29fe01cc" target="_top" xlink:title=" ">
<polygon fill="white" stroke="#666666" points="319.5,-130 238.5,-130 238.5,-111 319.5,-111 319.5,-130"/>
<text text-anchor="middle" x="279" y="-118" font-family="Helvetica,sans-Serif" font-size="10.00">free_variable</text>
</a>
</g>
</g>
<!-- Node4&#45;&gt;Node6 -->
<g id="edge5" class="edge">
<title>Node4&#45;&gt;Node6</title>
<path fill="none" stroke="#63b8ff" d="M173.31,-106.54C190.14,-108.79 210.19,-111.46 228.21,-113.86"/>
<polygon fill="#63b8ff" stroke="#63b8ff" points="227.89,-117.35 238.27,-115.2 228.82,-110.41 227.89,-117.35"/>
</g>
<!-- Node7 -->
<g id="node7" class="node">
<title>Node7</title>
<g id="a_node7"><a xlink:href="get__variable_8c.html#a569170390f0edf013bf89c26ef55ea8c" target="_top" xlink:title=" ">
<polygon fill="white" stroke="#666666" points="317.5,-93 240.5,-93 240.5,-74 317.5,-74 317.5,-93"/>
<text text-anchor="middle" x="279" y="-81" font-family="Helvetica,sans-Serif" font-size="10.00">get_variable</text>
</a>
</g>
</g>
<!-- Node4&#45;&gt;Node7 -->
<g id="edge6" class="edge">
<title>Node4&#45;&gt;Node7</title>
<path fill="none" stroke="#63b8ff" d="M173.31,-96.72C190.71,-94.53 211.54,-91.9 230.02,-89.56"/>
<polygon fill="#63b8ff" stroke="#63b8ff" points="230.53,-93.02 240.01,-88.3 229.65,-86.08 230.53,-93.02"/>
</g>
<!-- Node8 -->
<g id="node8" class="node">
<title>Node8</title>
<g id="a_node8"><a xlink:href="list_8h.html#a56c2e407458d3d071ab549938bc5a7c1" target="_top" xlink:title=" ">
<polygon fill="white" stroke="#666666" points="324.5,-56 233.5,-56 233.5,-37 324.5,-37 324.5,-56"/>
<text text-anchor="middle" x="279" y="-44" font-family="Helvetica,sans-Serif" font-size="10.00">my_add_to_list</text>
</a>
</g>
</g>
<!-- Node4&#45;&gt;Node8 -->
<g id="edge7" class="edge">
<title>Node4&#45;&gt;Node8</title>
<path fill="none" stroke="#63b8ff" d="M152.62,-91.98C167.26,-84.11 189.07,-73.05 209,-65.5 215.25,-63.13 221.91,-60.92 228.54,-58.91"/>
<polygon fill="#63b8ff" stroke="#63b8ff" points="229.56,-62.26 238.18,-56.1 227.6,-55.54 229.56,-62.26"/>
</g>
<!-- Node9 -->
<g id="node9" class="node">
<title>Node9</title>
<g id="a_node9"><a xlink:href="set__variable_8c.html#a9423ce83dff6e167d4168b47e91086f6" target="_top" xlink:title=" ">
<polygon fill="white" stroke="#666666" points="349,-19 209,-19 209,0 349,0 349,-19"/>
<text text-anchor="middle" x="279" y="-7" font-family="Helvetica,sans-Serif" font-size="10.00">update_existing_variable</text>
</a>
</g>
</g>
<!-- Node4&#45;&gt;Node9 -->
<g id="edge8" class="edge">
<title>Node4&#45;&gt;Node9</title>
<path fill="none" stroke="#63b8ff" d="M142.49,-91.87C154.37,-76.21 180.06,-45.28 209,-28.5 212.85,-26.27 216.98,-24.29 221.23,-22.53"/>
<polygon fill="#63b8ff" stroke="#63b8ff" points="222.5,-25.79 230.66,-19.04 220.07,-19.23 222.5,-25.79"/>
</g>
</g>
</svg>
