<?xml version="1.0" encoding="UTF-8" standalone="no"?>
<!DOCTYPE svg PUBLIC "-//W3C//DTD SVG 1.1//EN"
 "http://www.w3.org/Graphics/SVG/1.1/DTD/svg11.dtd">
<!-- Generated by graphviz version 2.43.0 (0)
 -->
<!-- Title: src/ast/ast_new_cmd.c Pages: 1 -->
<svg width="135pt" height="137pt"
 viewBox="0.00 0.00 135.00 137.00" xmlns="http://www.w3.org/2000/svg" xmlns:xlink="http://www.w3.org/1999/xlink">
<g id="graph0" class="graph" transform="scale(1 1) rotate(0) translate(4 133)">
<title>src/ast/ast_new_cmd.c</title>
<!-- Node1 -->
<g id="node1" class="node">
<title>Node1</title>
<g id="a_node1"><a xlink:title=" ">
<polygon fill="#999999" stroke="#666666" points="127,-129 0,-129 0,-110 127,-110 127,-129"/>
<text text-anchor="middle" x="63.5" y="-117" font-family="Helvetica,sans-Serif" font-size="10.00">src/ast/ast_new_cmd.c</text>
</a>
</g>
</g>
<!-- Node2 -->
<g id="node2" class="node">
<title>Node2</title>
<g id="a_node2"><a xlink:title=" ">
<polygon fill="#e0e0e0" stroke="#999999" points="58,-74 5,-74 5,-55 58,-55 58,-74"/>
<text text-anchor="middle" x="31.5" y="-62" font-family="Helvetica,sans-Serif" font-size="10.00">stdlib.h</text>
</a>
</g>
</g>
<!-- Node1&#45;&gt;Node2 -->
<g id="edge1" class="edge">
<title>Node1&#45;&gt;Node2</title>
<path fill="none" stroke="#63b8ff" d="M58.22,-109.75C53.79,-102.42 47.34,-91.73 41.88,-82.7"/>
<polygon fill="#63b8ff" stroke="#63b8ff" points="44.85,-80.84 36.69,-74.09 38.86,-84.46 44.85,-80.84"/>
</g>
<!-- Node3 -->
<g id="node3" class="node">
<title>Node3</title>
<g id="a_node3"><a xlink:href="ast_8h.html" target="_top" xlink:title=" ">
<polygon fill="white" stroke="#666666" points="117,-74 76,-74 76,-55 117,-55 117,-74"/>
<text text-anchor="middle" x="96.5" y="-62" font-family="Helvetica,sans-Serif" font-size="10.00">ast.h</text>
</a>
</g>
</g>
<!-- Node1&#45;&gt;Node3 -->
<g id="edge2" class="edge">
<title>Node1&#45;&gt;Node3</title>
<path fill="none" stroke="#63b8ff" d="M68.95,-109.75C73.51,-102.42 80.17,-91.73 85.79,-82.7"/>
<polygon fill="#63b8ff" stroke="#63b8ff" points="88.84,-84.43 91.15,-74.09 82.9,-80.73 88.84,-84.43"/>
</g>
<!-- Node4 -->
<g id="node4" class="node">
<title>Node4</title>
<g id="a_node4"><a xlink:title=" ">
<polygon fill="#e0e0e0" stroke="#999999" points="124.5,-19 68.5,-19 68.5,0 124.5,0 124.5,-19"/>
<text text-anchor="middle" x="96.5" y="-7" font-family="Helvetica,sans-Serif" font-size="10.00">stddef.h</text>
</a>
</g>
</g>
<!-- Node3&#45;&gt;Node4 -->
<g id="edge3" class="edge">
<title>Node3&#45;&gt;Node4</title>
<path fill="none" stroke="#63b8ff" d="M96.5,-54.75C96.5,-47.8 96.5,-37.85 96.5,-29.13"/>
<polygon fill="#63b8ff" stroke="#63b8ff" points="100,-29.09 96.5,-19.09 93,-29.09 100,-29.09"/>
</g>
</g>
</svg>
