<?xml version="1.0" encoding="UTF-8" standalone="no"?>
<!DOCTYPE svg PUBLIC "-//W3C//DTD SVG 1.1//EN"
 "http://www.w3.org/Graphics/SVG/1.1/DTD/svg11.dtd">
<!-- Generated by graphviz version 2.43.0 (0)
 -->
<!-- Title: include/ast.h Pages: 1 -->
<!--zoomable 148 -->
<svg id="main" version="1.1" xmlns="http://www.w3.org/2000/svg" xmlns:xlink="http://www.w3.org/1999/xlink" xml:space="preserve" onload="init(evt)">
<style type="text/css"><![CDATA[
.edge:hover path { stroke: red; }
.edge:hover polygon { stroke: red; fill: red; }
]]></style>
<script type="text/javascript"><![CDATA[
var edges = document.getElementsByTagName('g');
if (edges && edges.length) {
  for (var i=0;i<edges.length;i++) {
    if (edges[i].id.substr(0,4)=='edge') {
      edges[i].setAttribute('class','edge');
    }
  }
}
]]></script>
        <defs>
                <circle id="rim" cx="0" cy="0" r="7"/>
                <circle id="rim2" cx="0" cy="0" r="3.5"/>
                <g id="zoomPlus">
                        <use xlink:href="#rim" fill="#404040">
                                <set attributeName="fill" to="#808080" begin="zoomplus.mouseover" end="zoomplus.mouseout"/>
                        </use>
                        <path d="M-4,0h8M0,-4v8" fill="none" stroke="white" stroke-width="1.5" pointer-events="none"/>
                </g>
                <g id="zoomMin">
                        <use xlink:href="#rim" fill="#404040">
                                <set attributeName="fill" to="#808080" begin="zoomminus.mouseover" end="zoomminus.mouseout"/>
                        </use>
                        <path d="M-4,0h8" fill="none" stroke="white" stroke-width="1.5" pointer-events="none"/>
                </g>
                <g id="dirArrow">
                        <path fill="none" stroke="white" stroke-width="1.5" d="M0,-3.0v7 M-2.5,-0.5L0,-3.0L2.5,-0.5"/>
                </g>
               <g id="resetDef">
                       <use xlink:href="#rim2" fill="#404040">
                               <set attributeName="fill" to="#808080" begin="reset.mouseover" end="reset.mouseout"/>
                       </use>
               </g>
        </defs>

<script type="text/javascript">
var viewWidth = 3697;
var viewHeight = 148;
var sectionId = 'dynsection-1';
</script>
<script xlink:href="svgpan.js"/>
<svg id="graph" class="graph">
<g id="viewport">
<title>include/ast.h</title>
<!-- Node1 -->
<g id="node1" class="node">
<title>Node1</title>
<g id="a_node1"><a xlink:title=" ">
<polygon fill="#999999" stroke="#666666" points="2126,-140 2047,-140 2047,-121 2126,-121 2126,-140"/>
<text text-anchor="middle" x="2086.5" y="-128" font-family="Helvetica,sans-Serif" font-size="10.00">include/ast.h</text>
</a>
</g>
</g>
<!-- Node2 -->
<g id="node2" class="node">
<title>Node2</title>
<g id="a_node2"><a xlink:href="executer_8h.html" target="_top" xlink:title=" ">
<polygon fill="white" stroke="#666666" points="1085,-85 980,-85 980,-66 1085,-66 1085,-85"/>
<text text-anchor="middle" x="1032.5" y="-73" font-family="Helvetica,sans-Serif" font-size="10.00">include/executer.h</text>
</a>
</g>
</g>
<!-- Node1&#45;&gt;Node2 -->
<g id="edge1" class="edge">
<title>Node1&#45;&gt;Node2</title>
<path fill="none" stroke="#63b8ff" d="M2036.76,-127C1860.44,-118.13 1266.24,-88.25 1085.26,-79.15"/>
<polygon fill="#63b8ff" stroke="#63b8ff" points="2036.62,-130.5 2046.79,-127.5 2036.98,-123.51 2036.62,-130.5"/>
</g>
<!-- Node3 -->
<g id="node3" class="node">
<title>Node3</title>
<g id="a_node3"><a xlink:href="execute__ast_8c.html" target="_top" xlink:title=" ">
<polygon fill="white" stroke="#666666" points="117,-30 0,-30 0,0 117,0 117,-30"/>
<text text-anchor="start" x="8" y="-18" font-family="Helvetica,sans-Serif" font-size="10.00">src/executer/execute</text>
<text text-anchor="middle" x="58.5" y="-7" font-family="Helvetica,sans-Serif" font-size="10.00">_ast.c</text>
</a>
</g>
</g>
<!-- Node1&#45;&gt;Node3 -->
<g id="edge36" class="edge">
<title>Node1&#45;&gt;Node3</title>
<path fill="none" stroke="#63b8ff" d="M2036.62,-129.06C1798.44,-126.81 775.23,-115.51 457.5,-85 335.56,-73.29 194.77,-45.55 117.28,-29.03"/>
<polygon fill="#63b8ff" stroke="#63b8ff" points="2036.69,-132.56 2046.72,-129.15 2036.75,-125.56 2036.69,-132.56"/>
</g>
<!-- Node4 -->
<g id="node4" class="node">
<title>Node4</title>
<g id="a_node4"><a xlink:href="execute__cmd_8c.html" target="_top" xlink:title=" ">
<polygon fill="white" stroke="#666666" points="252,-30 135,-30 135,0 252,0 252,-30"/>
<text text-anchor="start" x="143" y="-18" font-family="Helvetica,sans-Serif" font-size="10.00">src/executer/execute</text>
<text text-anchor="middle" x="193.5" y="-7" font-family="Helvetica,sans-Serif" font-size="10.00">_cmd.c</text>
</a>
</g>
</g>
<!-- Node1&#45;&gt;Node4 -->
<g id="edge37" class="edge">
<title>Node1&#45;&gt;Node4</title>
<path fill="none" stroke="#63b8ff" d="M2036.51,-128.91C1810.62,-126.08 883.64,-112.99 594.5,-85 471.8,-73.12 330.06,-45.38 252.24,-28.92"/>
<polygon fill="#63b8ff" stroke="#63b8ff" points="2036.69,-132.41 2046.73,-129.03 2036.78,-125.41 2036.69,-132.41"/>
</g>
<!-- Node6 -->
<g id="node6" class="node">
<title>Node6</title>
<g id="a_node6"><a xlink:href="execute__logical__and_8c.html" target="_top" xlink:title=" ">
<polygon fill="white" stroke="#666666" points="387,-30 270,-30 270,0 387,0 387,-30"/>
<text text-anchor="start" x="278" y="-18" font-family="Helvetica,sans-Serif" font-size="10.00">src/executer/execute</text>
<text text-anchor="middle" x="328.5" y="-7" font-family="Helvetica,sans-Serif" font-size="10.00">_logical_and.c</text>
</a>
</g>
</g>
<!-- Node1&#45;&gt;Node6 -->
<g id="edge38" class="edge">
<title>Node1&#45;&gt;Node6</title>
<path fill="none" stroke="#63b8ff" d="M2036.69,-128.73C1824.15,-125.31 992.24,-110.51 731.5,-85 608.05,-72.92 465.35,-45.18 387.21,-28.79"/>
<polygon fill="#63b8ff" stroke="#63b8ff" points="2036.86,-132.23 2046.91,-128.89 2036.97,-125.23 2036.86,-132.23"/>
</g>
<!-- Node7 -->
<g id="node7" class="node">
<title>Node7</title>
<g id="a_node7"><a xlink:href="execute__logical__or_8c.html" target="_top" xlink:title=" ">
<polygon fill="white" stroke="#666666" points="522,-30 405,-30 405,0 522,0 522,-30"/>
<text text-anchor="start" x="413" y="-18" font-family="Helvetica,sans-Serif" font-size="10.00">src/executer/execute</text>
<text text-anchor="middle" x="463.5" y="-7" font-family="Helvetica,sans-Serif" font-size="10.00">_logical_or.c</text>
</a>
</g>
</g>
<!-- Node1&#45;&gt;Node7 -->
<g id="edge39" class="edge">
<title>Node1&#45;&gt;Node7</title>
<path fill="none" stroke="#63b8ff" d="M2036.3,-129.97C1869.16,-131.04 1316.41,-130.66 862.5,-85 788.09,-77.52 604.01,-43.76 530.5,-30 527.81,-29.5 525.07,-28.97 522.3,-28.43"/>
<polygon fill="#63b8ff" stroke="#63b8ff" points="2036.77,-133.47 2046.75,-129.9 2036.72,-126.47 2036.77,-133.47"/>
</g>
<!-- Node8 -->
<g id="node8" class="node">
<title>Node8</title>
<g id="a_node8"><a xlink:href="execute__pipe_8c.html" target="_top" xlink:title=" ">
<polygon fill="white" stroke="#666666" points="657,-30 540,-30 540,0 657,0 657,-30"/>
<text text-anchor="start" x="548" y="-18" font-family="Helvetica,sans-Serif" font-size="10.00">src/executer/execute</text>
<text text-anchor="middle" x="598.5" y="-7" font-family="Helvetica,sans-Serif" font-size="10.00">_pipe.c</text>
</a>
</g>
</g>
<!-- Node1&#45;&gt;Node8 -->
<g id="edge40" class="edge">
<title>Node1&#45;&gt;Node8</title>
<path fill="none" stroke="#63b8ff" d="M2036.52,-129.98C1879.19,-130.95 1380.3,-130.02 970.5,-85 936.38,-81.25 700.2,-36.52 666.5,-30 663.42,-29.41 660.27,-28.79 657.09,-28.16"/>
<polygon fill="#63b8ff" stroke="#63b8ff" points="2036.84,-133.48 2046.81,-129.91 2036.79,-126.48 2036.84,-133.48"/>
</g>
<!-- Node9 -->
<g id="node9" class="node">
<title>Node9</title>
<g id="a_node9"><a xlink:href="execute__redirect_8c.html" target="_top" xlink:title=" ">
<polygon fill="white" stroke="#666666" points="1251,-30 1134,-30 1134,0 1251,0 1251,-30"/>
<text text-anchor="start" x="1142" y="-18" font-family="Helvetica,sans-Serif" font-size="10.00">src/executer/execute</text>
<text text-anchor="middle" x="1192.5" y="-7" font-family="Helvetica,sans-Serif" font-size="10.00">_redirect.c</text>
</a>
</g>
</g>
<!-- Node1&#45;&gt;Node9 -->
<g id="edge41" class="edge">
<title>Node1&#45;&gt;Node9</title>
<path fill="none" stroke="#63b8ff" d="M2036.62,-126.56C1945.15,-120.85 1744.53,-106.87 1576.5,-85 1434.7,-66.55 1399.95,-56.85 1259.5,-30 1256.82,-29.49 1254.07,-28.95 1251.3,-28.41"/>
<polygon fill="#63b8ff" stroke="#63b8ff" points="2036.5,-130.06 2046.7,-127.18 2036.93,-123.07 2036.5,-130.06"/>
</g>
<!-- Node10 -->
<g id="node10" class="node">
<title>Node10</title>
<g id="a_node10"><a xlink:href="execute__repeat_8c.html" target="_top" xlink:title=" ">
<polygon fill="white" stroke="#666666" points="1386,-30 1269,-30 1269,0 1386,0 1386,-30"/>
<text text-anchor="start" x="1277" y="-18" font-family="Helvetica,sans-Serif" font-size="10.00">src/executer/execute</text>
<text text-anchor="middle" x="1327.5" y="-7" font-family="Helvetica,sans-Serif" font-size="10.00">_repeat.c</text>
</a>
</g>
</g>
<!-- Node1&#45;&gt;Node10 -->
<g id="edge42" class="edge">
<title>Node1&#45;&gt;Node10</title>
<path fill="none" stroke="#63b8ff" d="M2036.84,-124.96C1962.29,-117.9 1817.12,-103.18 1694.5,-85 1560.41,-65.12 1527.52,-56.09 1394.5,-30 1391.82,-29.47 1389.08,-28.93 1386.31,-28.37"/>
<polygon fill="#63b8ff" stroke="#63b8ff" points="2036.59,-128.45 2046.88,-125.9 2037.25,-121.48 2036.59,-128.45"/>
</g>
<!-- Node11 -->
<g id="node11" class="node">
<title>Node11</title>
<g id="a_node11"><a xlink:href="execute__sequence_8c.html" target="_top" xlink:title=" ">
<polygon fill="white" stroke="#666666" points="1521,-30 1404,-30 1404,0 1521,0 1521,-30"/>
<text text-anchor="start" x="1412" y="-18" font-family="Helvetica,sans-Serif" font-size="10.00">src/executer/execute</text>
<text text-anchor="middle" x="1462.5" y="-7" font-family="Helvetica,sans-Serif" font-size="10.00">_sequence.c</text>
</a>
</g>
</g>
<!-- Node1&#45;&gt;Node11 -->
<g id="edge43" class="edge">
<title>Node1&#45;&gt;Node11</title>
<path fill="none" stroke="#63b8ff" d="M2036.47,-123.01C1976.96,-115.07 1874.71,-100.73 1787.5,-85 1693.98,-68.13 1586.23,-44.4 1521.29,-29.62"/>
<polygon fill="#63b8ff" stroke="#63b8ff" points="2036.34,-126.52 2046.71,-124.37 2037.26,-119.59 2036.34,-126.52"/>
</g>
<!-- Node12 -->
<g id="node12" class="node">
<title>Node12</title>
<g id="a_node12"><a xlink:href="execute__subshell_8c.html" target="_top" xlink:title=" ">
<polygon fill="white" stroke="#666666" points="1656,-30 1539,-30 1539,0 1656,0 1656,-30"/>
<text text-anchor="start" x="1547" y="-18" font-family="Helvetica,sans-Serif" font-size="10.00">src/executer/execute</text>
<text text-anchor="middle" x="1597.5" y="-7" font-family="Helvetica,sans-Serif" font-size="10.00">_subshell.c</text>
</a>
</g>
</g>
<!-- Node1&#45;&gt;Node12 -->
<g id="edge44" class="edge">
<title>Node1&#45;&gt;Node12</title>
<path fill="none" stroke="#63b8ff" d="M2036.55,-120.3C1991.45,-111.8 1923.33,-98.49 1864.5,-85 1788.9,-67.67 1702.06,-44.64 1648.48,-30.07"/>
<polygon fill="#63b8ff" stroke="#63b8ff" points="2036.18,-123.79 2046.66,-122.2 2037.47,-116.91 2036.18,-123.79"/>
</g>
<!-- Node15 -->
<g id="node15" class="node">
<title>Node15</title>
<g id="a_node15"><a xlink:href="shell_8c.html" target="_top" xlink:title=" ">
<polygon fill="white" stroke="#666666" points="1739,-24.5 1674,-24.5 1674,-5.5 1739,-5.5 1739,-24.5"/>
<text text-anchor="middle" x="1706.5" y="-12.5" font-family="Helvetica,sans-Serif" font-size="10.00">src/shell.c</text>
</a>
</g>
</g>
<!-- Node1&#45;&gt;Node15 -->
<g id="edge53" class="edge">
<title>Node1&#45;&gt;Node15</title>
<path fill="none" stroke="#63b8ff" d="M2045.83,-118.18C1982.02,-100.29 1854.61,-63.99 1747.5,-30 1742.19,-28.32 1736.53,-26.44 1731.16,-24.61"/>
<polygon fill="#63b8ff" stroke="#63b8ff" points="2044.94,-121.57 2055.51,-120.89 2046.83,-114.83 2044.94,-121.57"/>
</g>
<!-- Node16 -->
<g id="node16" class="node">
<title>Node16</title>
<g id="a_node16"><a xlink:href="parser_8h.html" target="_top" xlink:title=" ">
<polygon fill="white" stroke="#666666" points="2171.5,-85 2077.5,-85 2077.5,-66 2171.5,-66 2171.5,-85"/>
<text text-anchor="middle" x="2124.5" y="-73" font-family="Helvetica,sans-Serif" font-size="10.00">include/parser.h</text>
</a>
</g>
</g>
<!-- Node1&#45;&gt;Node16 -->
<g id="edge15" class="edge">
<title>Node1&#45;&gt;Node16</title>
<path fill="none" stroke="#63b8ff" d="M2098.77,-112.39C2105.31,-103.27 2113.07,-92.45 2118.34,-85.09"/>
<polygon fill="#63b8ff" stroke="#63b8ff" points="2095.76,-110.58 2092.77,-120.75 2101.45,-114.66 2095.76,-110.58"/>
</g>
<!-- Node20 -->
<g id="node20" class="node">
<title>Node20</title>
<g id="a_node20"><a xlink:href="parser__parse_8c.html" target="_top" xlink:title=" ">
<polygon fill="white" stroke="#666666" points="1896,-24.5 1757,-24.5 1757,-5.5 1896,-5.5 1896,-24.5"/>
<text text-anchor="middle" x="1826.5" y="-12.5" font-family="Helvetica,sans-Serif" font-size="10.00">src/parser/parser_parse.c</text>
</a>
</g>
</g>
<!-- Node1&#45;&gt;Node20 -->
<g id="edge45" class="edge">
<title>Node1&#45;&gt;Node20</title>
<path fill="none" stroke="#63b8ff" d="M2057.74,-116.94C2004.49,-93.7 1891.85,-44.53 1846.27,-24.63"/>
<polygon fill="#63b8ff" stroke="#63b8ff" points="2056.39,-120.18 2066.96,-120.97 2059.19,-113.76 2056.39,-120.18"/>
</g>
<!-- Node22 -->
<g id="node22" class="node">
<title>Node22</title>
<g id="a_node22"><a xlink:href="parser__utils_8c.html" target="_top" xlink:title=" ">
<polygon fill="white" stroke="#666666" points="2047,-24.5 1914,-24.5 1914,-5.5 2047,-5.5 2047,-24.5"/>
<text text-anchor="middle" x="1980.5" y="-12.5" font-family="Helvetica,sans-Serif" font-size="10.00">src/parser/parser_utils.c</text>
</a>
</g>
</g>
<!-- Node1&#45;&gt;Node22 -->
<g id="edge46" class="edge">
<title>Node1&#45;&gt;Node22</title>
<path fill="none" stroke="#63b8ff" d="M2071.65,-113.6C2048.93,-89.27 2006.3,-43.62 1988.56,-24.63"/>
<polygon fill="#63b8ff" stroke="#63b8ff" points="2069.15,-116.05 2078.53,-120.97 2074.27,-111.27 2069.15,-116.05"/>
</g>
<!-- Node23 -->
<g id="node23" class="node">
<title>Node23</title>
<g id="a_node23"><a xlink:href="parse__command_8c.html" target="_top" xlink:title=" ">
<polygon fill="white" stroke="#666666" points="2948.5,-30 2818.5,-30 2818.5,0 2948.5,0 2948.5,-30"/>
<text text-anchor="start" x="2826.5" y="-18" font-family="Helvetica,sans-Serif" font-size="10.00">src/parser/tokens/parse</text>
<text text-anchor="middle" x="2883.5" y="-7" font-family="Helvetica,sans-Serif" font-size="10.00">_command.c</text>
</a>
</g>
</g>
<!-- Node1&#45;&gt;Node23 -->
<g id="edge47" class="edge">
<title>Node1&#45;&gt;Node23</title>
<path fill="none" stroke="#63b8ff" d="M2113.6,-116.62C2151.87,-98.49 2217.76,-67.45 2223.5,-66 2476.47,-2.03 2550.57,-62.32 2809.5,-30 2812.35,-29.64 2815.26,-29.25 2818.2,-28.81"/>
<polygon fill="#63b8ff" stroke="#63b8ff" points="2112.06,-113.48 2104.52,-120.93 2115.06,-119.81 2112.06,-113.48"/>
</g>
<!-- Node24 -->
<g id="node24" class="node">
<title>Node24</title>
<g id="a_node24"><a xlink:href="parse__logical__operator_8c.html" target="_top" xlink:title=" ">
<polygon fill="white" stroke="#666666" points="3096.5,-30 2966.5,-30 2966.5,0 3096.5,0 3096.5,-30"/>
<text text-anchor="start" x="2974.5" y="-18" font-family="Helvetica,sans-Serif" font-size="10.00">src/parser/tokens/parse</text>
<text text-anchor="middle" x="3031.5" y="-7" font-family="Helvetica,sans-Serif" font-size="10.00">_logical_operator.c</text>
</a>
</g>
</g>
<!-- Node1&#45;&gt;Node24 -->
<g id="edge48" class="edge">
<title>Node1&#45;&gt;Node24</title>
<path fill="none" stroke="#63b8ff" d="M2123.43,-117.83C2149.83,-109.28 2186.1,-97.09 2217.5,-85 2237.38,-77.35 2240.76,-70.85 2261.5,-66 2563.11,4.51 2649.96,-66.87 2957.5,-30 2960.36,-29.66 2963.27,-29.27 2966.2,-28.85"/>
<polygon fill="#63b8ff" stroke="#63b8ff" points="2122.27,-114.53 2113.82,-120.92 2124.42,-121.19 2122.27,-114.53"/>
</g>
<!-- Node25 -->
<g id="node25" class="node">
<title>Node25</title>
<g id="a_node25"><a xlink:href="parse__repeat_8c.html" target="_top" xlink:title=" ">
<polygon fill="white" stroke="#666666" points="3244.5,-30 3114.5,-30 3114.5,0 3244.5,0 3244.5,-30"/>
<text text-anchor="start" x="3122.5" y="-18" font-family="Helvetica,sans-Serif" font-size="10.00">src/parser/tokens/parse</text>
<text text-anchor="middle" x="3179.5" y="-7" font-family="Helvetica,sans-Serif" font-size="10.00">_repeat.c</text>
</a>
</g>
</g>
<!-- Node1&#45;&gt;Node25 -->
<g id="edge49" class="edge">
<title>Node1&#45;&gt;Node25</title>
<path fill="none" stroke="#63b8ff" d="M2134.1,-118.58C2167.78,-110.43 2213.83,-98.41 2253.5,-85 2274.45,-77.91 2277.9,-70.79 2299.5,-66 2649.58,11.61 2749.32,-71.43 3105.5,-30 3108.36,-29.67 3111.27,-29.29 3114.21,-28.87"/>
<polygon fill="#63b8ff" stroke="#63b8ff" points="2132.97,-115.25 2124.06,-120.99 2134.6,-122.06 2132.97,-115.25"/>
</g>
<!-- Node26 -->
<g id="node26" class="node">
<title>Node26</title>
<g id="a_node26"><a xlink:href="parse__sequence_8c.html" target="_top" xlink:title=" ">
<polygon fill="white" stroke="#666666" points="3392.5,-30 3262.5,-30 3262.5,0 3392.5,0 3392.5,-30"/>
<text text-anchor="start" x="3270.5" y="-18" font-family="Helvetica,sans-Serif" font-size="10.00">src/parser/tokens/parse</text>
<text text-anchor="middle" x="3327.5" y="-7" font-family="Helvetica,sans-Serif" font-size="10.00">_sequence.c</text>
</a>
</g>
</g>
<!-- Node1&#45;&gt;Node26 -->
<g id="edge50" class="edge">
<title>Node1&#45;&gt;Node26</title>
<path fill="none" stroke="#63b8ff" d="M2136.02,-121.13C2177.71,-113.51 2238.66,-101 2290.5,-85 2312.03,-78.35 2315.47,-70.73 2337.5,-66 2536.66,-23.19 3051.09,-53 3253.5,-30 3256.36,-29.68 3259.27,-29.3 3262.21,-28.89"/>
<polygon fill="#63b8ff" stroke="#63b8ff" points="2135.34,-117.7 2126.12,-122.91 2136.58,-124.58 2135.34,-117.7"/>
</g>
<!-- Node27 -->
<g id="node27" class="node">
<title>Node27</title>
<g id="a_node27"><a xlink:href="parse__sequence__start_8c.html" target="_top" xlink:title=" ">
<polygon fill="white" stroke="#666666" points="3540.5,-30 3410.5,-30 3410.5,0 3540.5,0 3540.5,-30"/>
<text text-anchor="start" x="3418.5" y="-18" font-family="Helvetica,sans-Serif" font-size="10.00">src/parser/tokens/parse</text>
<text text-anchor="middle" x="3475.5" y="-7" font-family="Helvetica,sans-Serif" font-size="10.00">_sequence_start.c</text>
</a>
</g>
</g>
<!-- Node1&#45;&gt;Node27 -->
<g id="edge51" class="edge">
<title>Node1&#45;&gt;Node27</title>
<path fill="none" stroke="#63b8ff" d="M2136.15,-123.37C2185.55,-116.57 2263.21,-103.99 2328.5,-85 2350.13,-78.71 2353.46,-70.69 2375.5,-66 2598.65,-18.53 3174.76,-55.28 3401.5,-30 3404.36,-29.68 3407.27,-29.31 3410.21,-28.91"/>
<polygon fill="#63b8ff" stroke="#63b8ff" points="2135.49,-119.92 2126.05,-124.73 2136.43,-126.86 2135.49,-119.92"/>
</g>
<!-- Node28 -->
<g id="node28" class="node">
<title>Node28</title>
<g id="a_node28"><a xlink:href="parse__subshell_8c.html" target="_top" xlink:title=" ">
<polygon fill="white" stroke="#666666" points="3688.5,-30 3558.5,-30 3558.5,0 3688.5,0 3688.5,-30"/>
<text text-anchor="start" x="3566.5" y="-18" font-family="Helvetica,sans-Serif" font-size="10.00">src/parser/tokens/parse</text>
<text text-anchor="middle" x="3623.5" y="-7" font-family="Helvetica,sans-Serif" font-size="10.00">_subshell.c</text>
</a>
</g>
</g>
<!-- Node1&#45;&gt;Node28 -->
<g id="edge52" class="edge">
<title>Node1&#45;&gt;Node28</title>
<path fill="none" stroke="#63b8ff" d="M2136.11,-125.48C2192.57,-120.01 2287.11,-108.15 2365.5,-85 2385.54,-79.08 2388.13,-70.64 2408.5,-66 2655.86,-9.7 3297.33,-57.66 3549.5,-30 3552.36,-29.69 3555.27,-29.32 3558.21,-28.92"/>
<polygon fill="#63b8ff" stroke="#63b8ff" points="2135.65,-122.01 2126.02,-126.43 2136.31,-128.98 2135.65,-122.01"/>
</g>
<!-- Node30 -->
<g id="node30" class="node">
<title>Node30</title>
<g id="a_node30"><a xlink:href="ast__destroy_8c.html" target="_top" xlink:title=" ">
<polygon fill="white" stroke="#666666" points="2533.5,-85 2417.5,-85 2417.5,-66 2533.5,-66 2533.5,-85"/>
<text text-anchor="middle" x="2475.5" y="-73" font-family="Helvetica,sans-Serif" font-size="10.00">src/ast/ast_destroy.c</text>
</a>
</g>
</g>
<!-- Node1&#45;&gt;Node30 -->
<g id="edge30" class="edge">
<title>Node1&#45;&gt;Node30</title>
<path fill="none" stroke="#63b8ff" d="M2136.46,-122.69C2208.4,-112.89 2340.89,-94.84 2417.2,-84.44"/>
<polygon fill="#63b8ff" stroke="#63b8ff" points="2135.74,-119.26 2126.3,-124.08 2136.68,-126.2 2135.74,-119.26"/>
</g>
<!-- Node31 -->
<g id="node31" class="node">
<title>Node31</title>
<g id="a_node31"><a xlink:href="ast__new__binary_8c.html" target="_top" xlink:title=" ">
<polygon fill="white" stroke="#666666" points="2687,-85 2552,-85 2552,-66 2687,-66 2687,-85"/>
<text text-anchor="middle" x="2619.5" y="-73" font-family="Helvetica,sans-Serif" font-size="10.00">src/ast/ast_new_binary.c</text>
</a>
</g>
</g>
<!-- Node1&#45;&gt;Node31 -->
<g id="edge31" class="edge">
<title>Node1&#45;&gt;Node31</title>
<path fill="none" stroke="#63b8ff" d="M2136.17,-124.86C2219.97,-116.99 2394.78,-100.36 2542.5,-85 2545.58,-84.68 2548.72,-84.35 2551.9,-84.01"/>
<polygon fill="#63b8ff" stroke="#63b8ff" points="2135.79,-121.38 2126.16,-125.8 2136.45,-128.35 2135.79,-121.38"/>
</g>
<!-- Node32 -->
<g id="node32" class="node">
<title>Node32</title>
<g id="a_node32"><a xlink:href="ast__new__cmd_8c.html" target="_top" xlink:title=" ">
<polygon fill="white" stroke="#666666" points="2832,-85 2705,-85 2705,-66 2832,-66 2832,-85"/>
<text text-anchor="middle" x="2768.5" y="-73" font-family="Helvetica,sans-Serif" font-size="10.00">src/ast/ast_new_cmd.c</text>
</a>
</g>
</g>
<!-- Node1&#45;&gt;Node32 -->
<g id="edge32" class="edge">
<title>Node1&#45;&gt;Node32</title>
<path fill="none" stroke="#63b8ff" d="M2136.38,-126.62C2240.55,-120.43 2488.79,-104.83 2696.5,-85 2699.26,-84.74 2702.07,-84.46 2704.91,-84.16"/>
<polygon fill="#63b8ff" stroke="#63b8ff" points="2135.94,-123.14 2126.16,-127.22 2136.35,-130.13 2135.94,-123.14"/>
</g>
<!-- Node33 -->
<g id="node33" class="node">
<title>Node33</title>
<g id="a_node33"><a xlink:href="ast__new__redirect_8c.html" target="_top" xlink:title=" ">
<polygon fill="white" stroke="#666666" points="2993,-85 2850,-85 2850,-66 2993,-66 2993,-85"/>
<text text-anchor="middle" x="2921.5" y="-73" font-family="Helvetica,sans-Serif" font-size="10.00">src/ast/ast_new_redirect.c</text>
</a>
</g>
</g>
<!-- Node1&#45;&gt;Node33 -->
<g id="edge33" class="edge">
<title>Node1&#45;&gt;Node33</title>
<path fill="none" stroke="#63b8ff" d="M2136.31,-127.37C2257.27,-122.04 2576.07,-106.91 2841.5,-85 2844.28,-84.77 2847.12,-84.52 2849.99,-84.27"/>
<polygon fill="#63b8ff" stroke="#63b8ff" points="2136.09,-123.88 2126.25,-127.82 2136.39,-130.87 2136.09,-123.88"/>
</g>
<!-- Node34 -->
<g id="node34" class="node">
<title>Node34</title>
<g id="a_node34"><a xlink:href="ast__new__repeat_8c.html" target="_top" xlink:title=" ">
<polygon fill="white" stroke="#666666" points="3148,-85 3011,-85 3011,-66 3148,-66 3148,-85"/>
<text text-anchor="middle" x="3079.5" y="-73" font-family="Helvetica,sans-Serif" font-size="10.00">src/ast/ast_new_repeat.c</text>
</a>
</g>
</g>
<!-- Node1&#45;&gt;Node34 -->
<g id="edge34" class="edge">
<title>Node1&#45;&gt;Node34</title>
<path fill="none" stroke="#63b8ff" d="M2136.54,-128.15C2274.63,-124.19 2672.63,-111.19 3002.5,-85 3005.18,-84.79 3007.91,-84.56 3010.67,-84.31"/>
<polygon fill="#63b8ff" stroke="#63b8ff" points="2136.18,-124.66 2126.29,-128.44 2136.38,-131.65 2136.18,-124.66"/>
</g>
<!-- Node35 -->
<g id="node35" class="node">
<title>Node35</title>
<g id="a_node35"><a xlink:href="ast__new__subshell_8c.html" target="_top" xlink:title=" ">
<polygon fill="white" stroke="#666666" points="3312.5,-85 3166.5,-85 3166.5,-66 3312.5,-66 3312.5,-85"/>
<text text-anchor="middle" x="3239.5" y="-73" font-family="Helvetica,sans-Serif" font-size="10.00">src/ast/ast_new_subshell.c</text>
</a>
</g>
</g>
<!-- Node1&#45;&gt;Node35 -->
<g id="edge35" class="edge">
<title>Node1&#45;&gt;Node35</title>
<path fill="none" stroke="#63b8ff" d="M2136.45,-128.52C2289.38,-125.29 2764.68,-113.49 3157.5,-85 3160.35,-84.79 3163.26,-84.57 3166.2,-84.32"/>
<polygon fill="#63b8ff" stroke="#63b8ff" points="2136.35,-125.02 2126.42,-128.73 2136.5,-132.02 2136.35,-125.02"/>
</g>
<!-- Node2&#45;&gt;Node3 -->
<g id="edge2" class="edge">
<title>Node2&#45;&gt;Node3</title>
<path fill="none" stroke="#63b8ff" d="M969.61,-74.8C821.73,-74.77 440.65,-70.4 125.5,-30 122.79,-29.65 120.02,-29.25 117.24,-28.82"/>
<polygon fill="#63b8ff" stroke="#63b8ff" points="969.85,-78.3 979.85,-74.8 969.85,-71.3 969.85,-78.3"/>
</g>
<!-- Node2&#45;&gt;Node4 -->
<g id="edge3" class="edge">
<title>Node2&#45;&gt;Node4</title>
<path fill="none" stroke="#63b8ff" d="M969.51,-74.03C837.46,-72.35 522.25,-64.7 260.5,-30 257.79,-29.64 255.03,-29.23 252.24,-28.79"/>
<polygon fill="#63b8ff" stroke="#63b8ff" points="969.79,-77.53 979.83,-74.15 969.87,-70.53 969.79,-77.53"/>
</g>
<!-- Node5 -->
<g id="node5" class="node">
<title>Node5</title>
<g id="a_node5"><a xlink:href="execute__command__substitution_8c.html" target="_top" xlink:title=" ">
<polygon fill="white" stroke="#666666" points="817.5,-30 675.5,-30 675.5,0 817.5,0 817.5,-30"/>
<text text-anchor="start" x="683.5" y="-18" font-family="Helvetica,sans-Serif" font-size="10.00">src/executer/execute</text>
<text text-anchor="middle" x="746.5" y="-7" font-family="Helvetica,sans-Serif" font-size="10.00">_command_substitution.c</text>
</a>
</g>
</g>
<!-- Node2&#45;&gt;Node5 -->
<g id="edge4" class="edge">
<title>Node2&#45;&gt;Node5</title>
<path fill="none" stroke="#63b8ff" d="M981.07,-63.98C934.66,-54.49 866.03,-40.45 814.98,-30.01"/>
<polygon fill="#63b8ff" stroke="#63b8ff" points="980.41,-67.42 990.91,-65.99 981.82,-60.56 980.41,-67.42"/>
</g>
<!-- Node2&#45;&gt;Node6 -->
<g id="edge5" class="edge">
<title>Node2&#45;&gt;Node6</title>
<path fill="none" stroke="#63b8ff" d="M969.47,-72.94C854.78,-69.47 604.47,-58.99 395.5,-30 392.79,-29.62 390.03,-29.2 387.25,-28.75"/>
<polygon fill="#63b8ff" stroke="#63b8ff" points="969.72,-76.45 979.81,-73.25 969.92,-69.45 969.72,-76.45"/>
</g>
<!-- Node2&#45;&gt;Node7 -->
<g id="edge6" class="edge">
<title>Node2&#45;&gt;Node7</title>
<path fill="none" stroke="#63b8ff" d="M969.82,-71.32C874.53,-65.94 687.7,-53.31 530.5,-30 527.8,-29.6 525.04,-29.16 522.26,-28.69"/>
<polygon fill="#63b8ff" stroke="#63b8ff" points="969.69,-74.81 979.87,-71.88 970.07,-67.83 969.69,-74.81"/>
</g>
<!-- Node2&#45;&gt;Node8 -->
<g id="edge7" class="edge">
<title>Node2&#45;&gt;Node8</title>
<path fill="none" stroke="#63b8ff" d="M969.92,-68.47C896.87,-61.07 772.54,-47.33 666.5,-30 663.41,-29.49 660.24,-28.95 657.05,-28.37"/>
<polygon fill="#63b8ff" stroke="#63b8ff" points="969.58,-71.95 979.88,-69.47 970.28,-64.99 969.58,-71.95"/>
</g>
<!-- Node2&#45;&gt;Node9 -->
<g id="edge8" class="edge">
<title>Node2&#45;&gt;Node9</title>
<path fill="none" stroke="#63b8ff" d="M1065.44,-62.46C1091.17,-53.05 1126.98,-39.95 1154.03,-30.06"/>
<polygon fill="#63b8ff" stroke="#63b8ff" points="1063.96,-59.27 1055.77,-65.99 1066.36,-65.85 1063.96,-59.27"/>
</g>
<!-- Node2&#45;&gt;Node10 -->
<g id="edge9" class="edge">
<title>Node2&#45;&gt;Node10</title>
<path fill="none" stroke="#63b8ff" d="M1086.94,-63.98C1132.95,-55.05 1200.57,-41.84 1259.5,-30 1262.57,-29.38 1265.72,-28.75 1268.9,-28.1"/>
<polygon fill="#63b8ff" stroke="#63b8ff" points="1086.04,-60.59 1076.89,-65.93 1087.37,-67.46 1086.04,-60.59"/>
</g>
<!-- Node2&#45;&gt;Node11 -->
<g id="edge10" class="edge">
<title>Node2&#45;&gt;Node11</title>
<path fill="none" stroke="#63b8ff" d="M1095.46,-68.32C1167.84,-60.85 1290.13,-47.13 1394.5,-30 1397.59,-29.49 1400.76,-28.94 1403.95,-28.37"/>
<polygon fill="#63b8ff" stroke="#63b8ff" points="1094.74,-64.87 1085.15,-69.38 1095.45,-71.84 1094.74,-64.87"/>
</g>
<!-- Node2&#45;&gt;Node12 -->
<g id="edge11" class="edge">
<title>Node2&#45;&gt;Node12</title>
<path fill="none" stroke="#63b8ff" d="M1095.59,-71.16C1190.23,-65.62 1374.4,-52.83 1529.5,-30 1532.6,-29.54 1535.77,-29.04 1538.97,-28.49"/>
<polygon fill="#63b8ff" stroke="#63b8ff" points="1095.11,-67.68 1085.33,-71.75 1095.51,-74.67 1095.11,-67.68"/>
</g>
<!-- Node13 -->
<g id="node13" class="node">
<title>Node13</title>
<g id="a_node13"><a xlink:href="wait__for__subprocess_8c.html" target="_top" xlink:title=" ">
<polygon fill="white" stroke="#666666" points="955,-30 836,-30 836,0 955,0 955,-30"/>
<text text-anchor="start" x="844" y="-18" font-family="Helvetica,sans-Serif" font-size="10.00">src/executer/wait_for</text>
<text text-anchor="middle" x="895.5" y="-7" font-family="Helvetica,sans-Serif" font-size="10.00">_subprocess.c</text>
</a>
</g>
</g>
<!-- Node2&#45;&gt;Node13 -->
<g id="edge12" class="edge">
<title>Node2&#45;&gt;Node13</title>
<path fill="none" stroke="#63b8ff" d="M1003.12,-61.95C981.18,-52.59 951.19,-39.78 928.44,-30.06"/>
<polygon fill="#63b8ff" stroke="#63b8ff" points="1002.01,-65.29 1012.58,-65.99 1004.76,-58.85 1002.01,-65.29"/>
</g>
<!-- Node14 -->
<g id="node14" class="node">
<title>Node14</title>
<g id="a_node14"><a xlink:href="lexer__expand__command__substitution_8c.html" target="_top" xlink:title=" ">
<polygon fill="white" stroke="#666666" points="1115.5,-30 973.5,-30 973.5,0 1115.5,0 1115.5,-30"/>
<text text-anchor="start" x="981.5" y="-18" font-family="Helvetica,sans-Serif" font-size="10.00">src/lexer/lexer_expand</text>
<text text-anchor="middle" x="1044.5" y="-7" font-family="Helvetica,sans-Serif" font-size="10.00">_command_substitution.c</text>
</a>
</g>
</g>
<!-- Node2&#45;&gt;Node14 -->
<g id="edge13" class="edge">
<title>Node2&#45;&gt;Node14</title>
<path fill="none" stroke="#63b8ff" d="M1036.31,-55.93C1038.02,-47.58 1040.01,-37.87 1041.6,-30.11"/>
<polygon fill="#63b8ff" stroke="#63b8ff" points="1032.85,-55.37 1034.27,-65.87 1039.71,-56.78 1032.85,-55.37"/>
</g>
<!-- Node2&#45;&gt;Node15 -->
<g id="edge14" class="edge">
<title>Node2&#45;&gt;Node15</title>
<path fill="none" stroke="#63b8ff" d="M1095.43,-75.27C1209.86,-75.52 1459.18,-70.77 1664.5,-30 1670.98,-28.71 1677.85,-26.71 1684.11,-24.62"/>
<polygon fill="#63b8ff" stroke="#63b8ff" points="1095.12,-71.77 1085.11,-75.23 1095.1,-78.77 1095.12,-71.77"/>
</g>
<!-- Node16&#45;&gt;Node15 -->
<g id="edge29" class="edge">
<title>Node16&#45;&gt;Node15</title>
<path fill="none" stroke="#63b8ff" d="M2067.13,-71.51C1992.67,-66.77 1859.06,-55.33 1747.5,-30 1741.34,-28.6 1734.81,-26.61 1728.81,-24.57"/>
<polygon fill="#63b8ff" stroke="#63b8ff" points="2067.04,-75.01 2077.23,-72.13 2067.47,-68.02 2067.04,-75.01"/>
</g>
<!-- Node17 -->
<g id="node17" class="node">
<title>Node17</title>
<g id="a_node17"><a xlink:href="parser__destroy_8c.html" target="_top" xlink:title=" ">
<polygon fill="white" stroke="#666666" points="2502,-24.5 2355,-24.5 2355,-5.5 2502,-5.5 2502,-24.5"/>
<text text-anchor="middle" x="2428.5" y="-12.5" font-family="Helvetica,sans-Serif" font-size="10.00">src/parser/parser_destroy.c</text>
</a>
</g>
</g>
<!-- Node16&#45;&gt;Node17 -->
<g id="edge16" class="edge">
<title>Node16&#45;&gt;Node17</title>
<path fill="none" stroke="#63b8ff" d="M2178.53,-64.1C2237.18,-52.82 2329.73,-35.01 2384.24,-24.52"/>
<polygon fill="#63b8ff" stroke="#63b8ff" points="2177.86,-60.67 2168.7,-65.99 2179.19,-67.54 2177.86,-60.67"/>
</g>
<!-- Node18 -->
<g id="node18" class="node">
<title>Node18</title>
<g id="a_node18"><a xlink:href="parser__init_8c.html" target="_top" xlink:title=" ">
<polygon fill="white" stroke="#666666" points="2648.5,-24.5 2520.5,-24.5 2520.5,-5.5 2648.5,-5.5 2648.5,-24.5"/>
<text text-anchor="middle" x="2584.5" y="-12.5" font-family="Helvetica,sans-Serif" font-size="10.00">src/parser/parser_init.c</text>
</a>
</g>
</g>
<!-- Node16&#45;&gt;Node18 -->
<g id="edge17" class="edge">
<title>Node16&#45;&gt;Node18</title>
<path fill="none" stroke="#63b8ff" d="M2181.7,-66.48C2182.98,-66.32 2184.25,-66.16 2185.5,-66 2330.15,-47.94 2367.36,-51.74 2511.5,-30 2521.71,-28.46 2532.67,-26.52 2542.91,-24.57"/>
<polygon fill="#63b8ff" stroke="#63b8ff" points="2181.23,-63.01 2171.77,-67.78 2182.14,-69.95 2181.23,-63.01"/>
</g>
<!-- Node19 -->
<g id="node19" class="node">
<title>Node19</title>
<g id="a_node19"><a xlink:href="parser__next_8c.html" target="_top" xlink:title=" ">
<polygon fill="white" stroke="#666666" points="2800.5,-24.5 2666.5,-24.5 2666.5,-5.5 2800.5,-5.5 2800.5,-24.5"/>
<text text-anchor="middle" x="2733.5" y="-12.5" font-family="Helvetica,sans-Serif" font-size="10.00">src/parser/parser_next.c</text>
</a>
</g>
</g>
<!-- Node16&#45;&gt;Node19 -->
<g id="edge18" class="edge">
<title>Node16&#45;&gt;Node19</title>
<path fill="none" stroke="#63b8ff" d="M2181.69,-66.42C2182.97,-66.28 2184.24,-66.14 2185.5,-66 2394.68,-43.47 2448.86,-57.1 2657.5,-30 2668.68,-28.55 2680.7,-26.54 2691.81,-24.5"/>
<polygon fill="#63b8ff" stroke="#63b8ff" points="2181.26,-62.95 2171.75,-67.62 2182.1,-69.9 2181.26,-62.95"/>
</g>
<!-- Node16&#45;&gt;Node20 -->
<g id="edge19" class="edge">
<title>Node16&#45;&gt;Node20</title>
<path fill="none" stroke="#63b8ff" d="M2071.18,-64.03C2013.67,-52.74 1923.21,-34.98 1869.88,-24.52"/>
<polygon fill="#63b8ff" stroke="#63b8ff" points="2070.68,-67.5 2081.17,-65.99 2072.03,-60.63 2070.68,-67.5"/>
</g>
<!-- Node21 -->
<g id="node21" class="node">
<title>Node21</title>
<g id="a_node21"><a xlink:href="parser__set__error_8c.html" target="_top" xlink:title=" ">
<polygon fill="white" stroke="#666666" points="2184,-30 2065,-30 2065,0 2184,0 2184,-30"/>
<text text-anchor="start" x="2073" y="-18" font-family="Helvetica,sans-Serif" font-size="10.00">src/parser/parser_set</text>
<text text-anchor="middle" x="2124.5" y="-7" font-family="Helvetica,sans-Serif" font-size="10.00">_error.c</text>
</a>
</g>
</g>
<!-- Node16&#45;&gt;Node21 -->
<g id="edge20" class="edge">
<title>Node16&#45;&gt;Node21</title>
<path fill="none" stroke="#63b8ff" d="M2124.5,-55.65C2124.5,-47.36 2124.5,-37.78 2124.5,-30.11"/>
<polygon fill="#63b8ff" stroke="#63b8ff" points="2121,-55.87 2124.5,-65.87 2128,-55.87 2121,-55.87"/>
</g>
<!-- Node16&#45;&gt;Node22 -->
<g id="edge21" class="edge">
<title>Node16&#45;&gt;Node22</title>
<path fill="none" stroke="#63b8ff" d="M2093.93,-62.08C2066.11,-50.78 2025.79,-34.4 2001.46,-24.52"/>
<polygon fill="#63b8ff" stroke="#63b8ff" points="2092.98,-65.47 2103.56,-65.99 2095.61,-58.99 2092.98,-65.47"/>
</g>
<!-- Node16&#45;&gt;Node23 -->
<g id="edge22" class="edge">
<title>Node16&#45;&gt;Node23</title>
<path fill="none" stroke="#63b8ff" d="M2181.69,-66.39C2182.97,-66.25 2184.24,-66.12 2185.5,-66 2461.96,-38.81 2533.78,-63.89 2809.5,-30 2812.36,-29.65 2815.27,-29.26 2818.2,-28.83"/>
<polygon fill="#63b8ff" stroke="#63b8ff" points="2181.28,-62.91 2171.74,-67.53 2182.08,-69.87 2181.28,-62.91"/>
</g>
<!-- Node16&#45;&gt;Node24 -->
<g id="edge23" class="edge">
<title>Node16&#45;&gt;Node24</title>
<path fill="none" stroke="#63b8ff" d="M2181.8,-69.22C2195.46,-68.06 2209.99,-66.91 2223.5,-66 2549.37,-44.03 2633.16,-68.45 2957.5,-30 2960.36,-29.66 2963.27,-29.28 2966.21,-28.86"/>
<polygon fill="#63b8ff" stroke="#63b8ff" points="2181.22,-65.76 2171.56,-70.1 2181.82,-72.73 2181.22,-65.76"/>
</g>
<!-- Node16&#45;&gt;Node25 -->
<g id="edge24" class="edge">
<title>Node16&#45;&gt;Node25</title>
<path fill="none" stroke="#63b8ff" d="M2181.94,-70.69C2206.45,-69.13 2235.37,-67.37 2261.5,-66 2636.44,-46.37 2732.52,-73.01 3105.5,-30 3108.36,-29.67 3111.27,-29.29 3114.21,-28.88"/>
<polygon fill="#63b8ff" stroke="#63b8ff" points="2181.48,-67.21 2171.72,-71.34 2181.93,-74.2 2181.48,-67.21"/>
</g>
<!-- Node16&#45;&gt;Node26 -->
<g id="edge25" class="edge">
<title>Node16&#45;&gt;Node26</title>
<path fill="none" stroke="#63b8ff" d="M2181.92,-71.55C2216.07,-69.84 2260.25,-67.69 2299.5,-66 2723.41,-47.71 2831.87,-77.57 3253.5,-30 3256.36,-29.68 3259.27,-29.31 3262.21,-28.9"/>
<polygon fill="#63b8ff" stroke="#63b8ff" points="2181.47,-68.07 2171.66,-72.07 2181.82,-75.06 2181.47,-68.07"/>
</g>
<!-- Node16&#45;&gt;Node27 -->
<g id="edge26" class="edge">
<title>Node16&#45;&gt;Node27</title>
<path fill="none" stroke="#63b8ff" d="M2182.11,-72.11C2224.96,-70.35 2284.88,-67.94 2337.5,-66 2810.34,-48.57 2931.22,-82.13 3401.5,-30 3404.36,-29.68 3407.27,-29.32 3410.21,-28.91"/>
<polygon fill="#63b8ff" stroke="#63b8ff" points="2181.72,-68.62 2171.87,-72.53 2182.01,-75.61 2181.72,-68.62"/>
</g>
<!-- Node16&#45;&gt;Node28 -->
<g id="edge27" class="edge">
<title>Node16&#45;&gt;Node28</title>
<path fill="none" stroke="#63b8ff" d="M2181.83,-72.51C2232.7,-70.75 2309.05,-68.14 2375.5,-66 2897.25,-49.17 3030.56,-86.69 3549.5,-30 3552.36,-29.69 3555.27,-29.33 3558.21,-28.92"/>
<polygon fill="#63b8ff" stroke="#63b8ff" points="2181.56,-69.01 2171.68,-72.86 2181.8,-76.01 2181.56,-69.01"/>
</g>
<!-- Node29 -->
<g id="node29" class="node">
<title>Node29</title>
<g id="a_node29"><a xlink:href="parser__globbing_8c.html" target="_top" xlink:title=" ">
<polygon fill="white" stroke="#666666" points="2336.5,-30 2202.5,-30 2202.5,0 2336.5,0 2336.5,-30"/>
<text text-anchor="start" x="2210.5" y="-18" font-family="Helvetica,sans-Serif" font-size="10.00">src/parser/tokens/parser</text>
<text text-anchor="middle" x="2269.5" y="-7" font-family="Helvetica,sans-Serif" font-size="10.00">_globbing.c</text>
</a>
</g>
</g>
<!-- Node16&#45;&gt;Node29 -->
<g id="edge28" class="edge">
<title>Node16&#45;&gt;Node29</title>
<path fill="none" stroke="#63b8ff" d="M2154.97,-62.21C2178.24,-52.82 2210.34,-39.87 2234.64,-30.06"/>
<polygon fill="#63b8ff" stroke="#63b8ff" points="2153.55,-59.01 2145.58,-65.99 2156.17,-65.5 2153.55,-59.01"/>
</g>
</g>
</svg>
        <g id="navigator" transform="translate(0 0)" fill="#404254">
                <rect fill="#f2f5e9" fill-opacity="0.5" stroke="#606060" stroke-width=".5" x="0" y="0" width="60" height="60"/>
                <use id="zoomplus" xlink:href="#zoomPlus" x="17" y="9" onmousedown="handleZoom(evt,'in')"/>
                <use id="zoomminus" xlink:href="#zoomMin" x="42" y="9" onmousedown="handleZoom(evt,'out')"/>
                <use id="reset" xlink:href="#resetDef" x="30" y="36" onmousedown="handleReset()"/>
                <g id="arrowUp" xlink:href="#dirArrow" transform="translate(30 24)" onmousedown="handlePan(0,-1)">
                  <use xlink:href="#rim" fill="#404040">
                        <set attributeName="fill" to="#808080" begin="arrowUp.mouseover" end="arrowUp.mouseout"/>
                  </use>
                  <path fill="none" stroke="white" stroke-width="1.5" d="M0,-3.0v7 M-2.5,-0.5L0,-3.0L2.5,-0.5"/>
                </g>
                <g id="arrowRight" xlink:href="#dirArrow" transform="rotate(90) translate(36 -43)" onmousedown="handlePan(1,0)">
                  <use xlink:href="#rim" fill="#404040">
                        <set attributeName="fill" to="#808080" begin="arrowRight.mouseover" end="arrowRight.mouseout"/>
                  </use>
                  <path fill="none" stroke="white" stroke-width="1.5" d="M0,-3.0v7 M-2.5,-0.5L0,-3.0L2.5,-0.5"/>
                </g>
                <g id="arrowDown" xlink:href="#dirArrow" transform="rotate(180) translate(-30 -48)" onmousedown="handlePan(0,1)">
                  <use xlink:href="#rim" fill="#404040">
                        <set attributeName="fill" to="#808080" begin="arrowDown.mouseover" end="arrowDown.mouseout"/>
                  </use>
                  <path fill="none" stroke="white" stroke-width="1.5" d="M0,-3.0v7 M-2.5,-0.5L0,-3.0L2.5,-0.5"/>
                </g>
                <g id="arrowLeft" xlink:href="#dirArrow" transform="rotate(270) translate(-36 17)" onmousedown="handlePan(-1,0)">
                  <use xlink:href="#rim" fill="#404040">
                        <set attributeName="fill" to="#808080" begin="arrowLeft.mouseover" end="arrowLeft.mouseout"/>
                  </use>
                  <path fill="none" stroke="white" stroke-width="1.5" d="M0,-3.0v7 M-2.5,-0.5L0,-3.0L2.5,-0.5"/>
                </g>
        </g>
        <svg viewBox="0 0 15 15" width="100%" height="30px" preserveAspectRatio="xMaxYMin meet">
         <g id="arrow_out" transform="scale(0.3 0.3)">
          <a xlink:href="ast_8h__dep__incl_org.svg" target="_base">
           <rect id="button" ry="5" rx="5" y="6" x="6" height="38" width="38"
                fill="#f2f5e9" fill-opacity="0.5" stroke="#606060" stroke-width="1.0"/>
           <path id="arrow"
             d="M 11.500037,31.436501 C 11.940474,20.09759 22.043105,11.32322 32.158766,21.979434 L 37.068811,17.246167 C 37.068811,17.246167 37.088388,32 37.088388,32 L 22.160133,31.978069 C 22.160133,31.978069 26.997745,27.140456 26.997745,27.140456 C 18.528582,18.264221 13.291696,25.230495 11.500037,31.436501 z"
             style="fill:#404040;"/>
          </a>
         </g>
        </svg>
</svg>
