<?xml version="1.0" encoding="UTF-8" standalone="no"?>
<!DOCTYPE svg PUBLIC "-//W3C//DTD SVG 1.1//EN"
 "http://www.w3.org/Graphics/SVG/1.1/DTD/svg11.dtd">
<!-- Generated by graphviz version 2.43.0 (0)
 -->
<!-- Title: include/ast.h Pages: 1 -->
<svg width="3376pt" height="148pt"
 viewBox="0.00 0.00 3375.50 148.00" xmlns="http://www.w3.org/2000/svg" xmlns:xlink="http://www.w3.org/1999/xlink">
<g id="graph0" class="graph" transform="scale(1 1) rotate(0) translate(4 144)">
<title>include/ast.h</title>
<!-- Node1 -->
<g id="node1" class="node">
<title>Node1</title>
<g id="a_node1"><a xlink:title=" ">
<polygon fill="#999999" stroke="#666666" points="1812,-140 1733,-140 1733,-121 1812,-121 1812,-140"/>
<text text-anchor="middle" x="1772.5" y="-128" font-family="Helvetica,sans-Serif" font-size="10.00">include/ast.h</text>
</a>
</g>
</g>
<!-- Node2 -->
<g id="node2" class="node">
<title>Node2</title>
<g id="a_node2"><a xlink:href="executer_8h.html" target="_top" xlink:title=" ">
<polygon fill="white" stroke="#666666" points="914,-85 809,-85 809,-66 914,-66 914,-85"/>
<text text-anchor="middle" x="861.5" y="-73" font-family="Helvetica,sans-Serif" font-size="10.00">include/executer.h</text>
</a>
</g>
</g>
<!-- Node1&#45;&gt;Node2 -->
<g id="edge1" class="edge">
<title>Node1&#45;&gt;Node2</title>
<path fill="none" stroke="#63b8ff" d="M1722.66,-126.92C1598.05,-120.41 1262.85,-102.61 983.5,-85 960.72,-83.56 935.56,-81.84 914.03,-80.31"/>
<polygon fill="#63b8ff" stroke="#63b8ff" points="1722.5,-130.41 1732.67,-127.44 1722.87,-123.42 1722.5,-130.41"/>
</g>
<!-- Node3 -->
<g id="node3" class="node">
<title>Node3</title>
<g id="a_node3"><a xlink:href="execute__ast_8c.html" target="_top" xlink:title=" ">
<polygon fill="white" stroke="#666666" points="117,-30 0,-30 0,0 117,0 117,-30"/>
<text text-anchor="start" x="8" y="-18" font-family="Helvetica,sans-Serif" font-size="10.00">src/executer/execute</text>
<text text-anchor="middle" x="58.5" y="-7" font-family="Helvetica,sans-Serif" font-size="10.00">_ast.c</text>
</a>
</g>
</g>
<!-- Node1&#45;&gt;Node3 -->
<g id="edge34" class="edge">
<title>Node1&#45;&gt;Node3</title>
<path fill="none" stroke="#63b8ff" d="M1722.56,-128.9C1509.48,-126.2 675.47,-113.93 414.5,-85 307.97,-73.19 185.68,-46.57 115.71,-30.06"/>
<polygon fill="#63b8ff" stroke="#63b8ff" points="1722.77,-132.41 1732.81,-129.03 1722.86,-125.41 1722.77,-132.41"/>
</g>
<!-- Node4 -->
<g id="node4" class="node">
<title>Node4</title>
<g id="a_node4"><a xlink:href="execute__cmd_8c.html" target="_top" xlink:title=" ">
<polygon fill="white" stroke="#666666" points="252,-30 135,-30 135,0 252,0 252,-30"/>
<text text-anchor="start" x="143" y="-18" font-family="Helvetica,sans-Serif" font-size="10.00">src/executer/execute</text>
<text text-anchor="middle" x="193.5" y="-7" font-family="Helvetica,sans-Serif" font-size="10.00">_cmd.c</text>
</a>
</g>
</g>
<!-- Node1&#45;&gt;Node4 -->
<g id="edge35" class="edge">
<title>Node1&#45;&gt;Node4</title>
<path fill="none" stroke="#63b8ff" d="M1722.6,-128.81C1521.15,-125.87 767.3,-113.16 530.5,-85 429.69,-73.01 314.16,-46.52 247.91,-30.07"/>
<polygon fill="#63b8ff" stroke="#63b8ff" points="1722.83,-132.32 1732.88,-128.96 1722.93,-125.32 1722.83,-132.32"/>
</g>
<!-- Node5 -->
<g id="node5" class="node">
<title>Node5</title>
<g id="a_node5"><a xlink:href="execute__logical__and_8c.html" target="_top" xlink:title=" ">
<polygon fill="white" stroke="#666666" points="387,-30 270,-30 270,0 387,0 387,-30"/>
<text text-anchor="start" x="278" y="-18" font-family="Helvetica,sans-Serif" font-size="10.00">src/executer/execute</text>
<text text-anchor="middle" x="328.5" y="-7" font-family="Helvetica,sans-Serif" font-size="10.00">_logical_and.c</text>
</a>
</g>
</g>
<!-- Node1&#45;&gt;Node5 -->
<g id="edge36" class="edge">
<title>Node1&#45;&gt;Node5</title>
<path fill="none" stroke="#63b8ff" d="M1722.52,-128.75C1531.99,-125.69 851.15,-113.01 636.5,-85 544.13,-72.95 438.62,-46.47 378.15,-30.05"/>
<polygon fill="#63b8ff" stroke="#63b8ff" points="1722.74,-132.25 1732.8,-128.91 1722.85,-125.25 1722.74,-132.25"/>
</g>
<!-- Node6 -->
<g id="node6" class="node">
<title>Node6</title>
<g id="a_node6"><a xlink:href="execute__logical__or_8c.html" target="_top" xlink:title=" ">
<polygon fill="white" stroke="#666666" points="522,-30 405,-30 405,0 522,0 522,-30"/>
<text text-anchor="start" x="413" y="-18" font-family="Helvetica,sans-Serif" font-size="10.00">src/executer/execute</text>
<text text-anchor="middle" x="463.5" y="-7" font-family="Helvetica,sans-Serif" font-size="10.00">_logical_or.c</text>
</a>
</g>
</g>
<!-- Node1&#45;&gt;Node6 -->
<g id="edge37" class="edge">
<title>Node1&#45;&gt;Node6</title>
<path fill="none" stroke="#63b8ff" d="M1722.72,-128.78C1542.41,-125.94 923.87,-114.26 728.5,-85 648.57,-73.03 557.94,-46.53 506.06,-30.08"/>
<polygon fill="#63b8ff" stroke="#63b8ff" points="1722.91,-132.28 1732.96,-128.94 1723.02,-125.28 1722.91,-132.28"/>
</g>
<!-- Node7 -->
<g id="node7" class="node">
<title>Node7</title>
<g id="a_node7"><a xlink:href="execute__pipe_8c.html" target="_top" xlink:title=" ">
<polygon fill="white" stroke="#666666" points="657,-30 540,-30 540,0 657,0 657,-30"/>
<text text-anchor="start" x="548" y="-18" font-family="Helvetica,sans-Serif" font-size="10.00">src/executer/execute</text>
<text text-anchor="middle" x="598.5" y="-7" font-family="Helvetica,sans-Serif" font-size="10.00">_pipe.c</text>
</a>
</g>
</g>
<!-- Node1&#45;&gt;Node7 -->
<g id="edge38" class="edge">
<title>Node1&#45;&gt;Node7</title>
<path fill="none" stroke="#63b8ff" d="M1722.89,-129.09C1550.65,-127.39 979.28,-119.24 799.5,-85 737.71,-73.23 669.06,-46.53 630.11,-30.01"/>
<polygon fill="#63b8ff" stroke="#63b8ff" points="1722.9,-132.59 1732.94,-129.19 1722.97,-125.59 1722.9,-132.59"/>
</g>
<!-- Node8 -->
<g id="node8" class="node">
<title>Node8</title>
<g id="a_node8"><a xlink:href="execute__redirect_8c.html" target="_top" xlink:title=" ">
<polygon fill="white" stroke="#666666" points="929,-30 812,-30 812,0 929,0 929,-30"/>
<text text-anchor="start" x="820" y="-18" font-family="Helvetica,sans-Serif" font-size="10.00">src/executer/execute</text>
<text text-anchor="middle" x="870.5" y="-7" font-family="Helvetica,sans-Serif" font-size="10.00">_redirect.c</text>
</a>
</g>
</g>
<!-- Node1&#45;&gt;Node8 -->
<g id="edge39" class="edge">
<title>Node1&#45;&gt;Node8</title>
<path fill="none" stroke="#63b8ff" d="M1722.54,-126.64C1629.96,-121.03 1425.59,-107.15 1254.5,-85 1112.69,-66.64 1077.95,-56.85 937.5,-30 934.82,-29.49 932.07,-28.95 929.3,-28.41"/>
<polygon fill="#63b8ff" stroke="#63b8ff" points="1722.54,-130.15 1732.73,-127.26 1722.96,-123.16 1722.54,-130.15"/>
</g>
<!-- Node9 -->
<g id="node9" class="node">
<title>Node9</title>
<g id="a_node9"><a xlink:href="execute__repeat_8c.html" target="_top" xlink:title=" ">
<polygon fill="white" stroke="#666666" points="1064,-30 947,-30 947,0 1064,0 1064,-30"/>
<text text-anchor="start" x="955" y="-18" font-family="Helvetica,sans-Serif" font-size="10.00">src/executer/execute</text>
<text text-anchor="middle" x="1005.5" y="-7" font-family="Helvetica,sans-Serif" font-size="10.00">_repeat.c</text>
</a>
</g>
</g>
<!-- Node1&#45;&gt;Node9 -->
<g id="edge40" class="edge">
<title>Node1&#45;&gt;Node9</title>
<path fill="none" stroke="#63b8ff" d="M1722.55,-125.06C1646.85,-118.07 1498.64,-103.39 1373.5,-85 1238.95,-65.23 1205.96,-56.13 1072.5,-30 1069.82,-29.47 1067.08,-28.93 1064.31,-28.38"/>
<polygon fill="#63b8ff" stroke="#63b8ff" points="1722.46,-128.56 1732.74,-125.99 1723.1,-121.59 1722.46,-128.56"/>
</g>
<!-- Node10 -->
<g id="node10" class="node">
<title>Node10</title>
<g id="a_node10"><a xlink:href="execute__sequence_8c.html" target="_top" xlink:title=" ">
<polygon fill="white" stroke="#666666" points="1199,-30 1082,-30 1082,0 1199,0 1199,-30"/>
<text text-anchor="start" x="1090" y="-18" font-family="Helvetica,sans-Serif" font-size="10.00">src/executer/execute</text>
<text text-anchor="middle" x="1140.5" y="-7" font-family="Helvetica,sans-Serif" font-size="10.00">_sequence.c</text>
</a>
</g>
</g>
<!-- Node1&#45;&gt;Node10 -->
<g id="edge41" class="edge">
<title>Node1&#45;&gt;Node10</title>
<path fill="none" stroke="#63b8ff" d="M1722.85,-123.24C1662.36,-115.38 1557.14,-100.98 1467.5,-85 1373.11,-68.17 1264.32,-44.32 1199.06,-29.52"/>
<polygon fill="#63b8ff" stroke="#63b8ff" points="1722.52,-126.72 1732.89,-124.53 1723.42,-119.78 1722.52,-126.72"/>
</g>
<!-- Node11 -->
<g id="node11" class="node">
<title>Node11</title>
<g id="a_node11"><a xlink:href="execute__subshell_8c.html" target="_top" xlink:title=" ">
<polygon fill="white" stroke="#666666" points="1334,-30 1217,-30 1217,0 1334,0 1334,-30"/>
<text text-anchor="start" x="1225" y="-18" font-family="Helvetica,sans-Serif" font-size="10.00">src/executer/execute</text>
<text text-anchor="middle" x="1275.5" y="-7" font-family="Helvetica,sans-Serif" font-size="10.00">_subshell.c</text>
</a>
</g>
</g>
<!-- Node1&#45;&gt;Node11 -->
<g id="edge42" class="edge">
<title>Node1&#45;&gt;Node11</title>
<path fill="none" stroke="#63b8ff" d="M1722.96,-120.62C1676.86,-112.17 1606.32,-98.72 1545.5,-85 1469.04,-67.75 1381.23,-44.7 1327.05,-30.1"/>
<polygon fill="#63b8ff" stroke="#63b8ff" points="1722.52,-124.1 1732.99,-122.46 1723.78,-117.22 1722.52,-124.1"/>
</g>
<!-- Node13 -->
<g id="node13" class="node">
<title>Node13</title>
<g id="a_node13"><a xlink:href="shell_8c.html" target="_top" xlink:title=" ">
<polygon fill="white" stroke="#666666" points="1417,-24.5 1352,-24.5 1352,-5.5 1417,-5.5 1417,-24.5"/>
<text text-anchor="middle" x="1384.5" y="-12.5" font-family="Helvetica,sans-Serif" font-size="10.00">src/shell.c</text>
</a>
</g>
</g>
<!-- Node1&#45;&gt;Node13 -->
<g id="edge51" class="edge">
<title>Node1&#45;&gt;Node13</title>
<path fill="none" stroke="#63b8ff" d="M1730.85,-118.28C1665.51,-100.51 1535.04,-64.38 1425.5,-30 1420.19,-28.33 1414.52,-26.46 1409.15,-24.64"/>
<polygon fill="#63b8ff" stroke="#63b8ff" points="1730.2,-121.73 1740.77,-120.97 1732.03,-114.97 1730.2,-121.73"/>
</g>
<!-- Node14 -->
<g id="node14" class="node">
<title>Node14</title>
<g id="a_node14"><a xlink:href="parser_8h.html" target="_top" xlink:title=" ">
<polygon fill="white" stroke="#666666" points="1857.5,-85 1763.5,-85 1763.5,-66 1857.5,-66 1857.5,-85"/>
<text text-anchor="middle" x="1810.5" y="-73" font-family="Helvetica,sans-Serif" font-size="10.00">include/parser.h</text>
</a>
</g>
</g>
<!-- Node1&#45;&gt;Node14 -->
<g id="edge13" class="edge">
<title>Node1&#45;&gt;Node14</title>
<path fill="none" stroke="#63b8ff" d="M1784.77,-112.39C1791.31,-103.27 1799.07,-92.45 1804.34,-85.09"/>
<polygon fill="#63b8ff" stroke="#63b8ff" points="1781.76,-110.58 1778.77,-120.75 1787.45,-114.66 1781.76,-110.58"/>
</g>
<!-- Node18 -->
<g id="node18" class="node">
<title>Node18</title>
<g id="a_node18"><a xlink:href="parser__parse_8c.html" target="_top" xlink:title=" ">
<polygon fill="white" stroke="#666666" points="1574,-24.5 1435,-24.5 1435,-5.5 1574,-5.5 1574,-24.5"/>
<text text-anchor="middle" x="1504.5" y="-12.5" font-family="Helvetica,sans-Serif" font-size="10.00">src/parser/parser_parse.c</text>
</a>
</g>
</g>
<!-- Node1&#45;&gt;Node18 -->
<g id="edge43" class="edge">
<title>Node1&#45;&gt;Node18</title>
<path fill="none" stroke="#63b8ff" d="M1742.85,-116.94C1687.97,-93.7 1571.86,-44.53 1524.88,-24.63"/>
<polygon fill="#63b8ff" stroke="#63b8ff" points="1741.78,-120.29 1752.36,-120.97 1744.51,-113.85 1741.78,-120.29"/>
</g>
<!-- Node20 -->
<g id="node20" class="node">
<title>Node20</title>
<g id="a_node20"><a xlink:href="parser__utils_8c.html" target="_top" xlink:title=" ">
<polygon fill="white" stroke="#666666" points="1725,-24.5 1592,-24.5 1592,-5.5 1725,-5.5 1725,-24.5"/>
<text text-anchor="middle" x="1658.5" y="-12.5" font-family="Helvetica,sans-Serif" font-size="10.00">src/parser/parser_utils.c</text>
</a>
</g>
</g>
<!-- Node1&#45;&gt;Node20 -->
<g id="edge44" class="edge">
<title>Node1&#45;&gt;Node20</title>
<path fill="none" stroke="#63b8ff" d="M1756.53,-113.6C1732.1,-89.27 1686.24,-43.62 1667.17,-24.63"/>
<polygon fill="#63b8ff" stroke="#63b8ff" points="1754.38,-116.39 1763.93,-120.97 1759.31,-111.43 1754.38,-116.39"/>
</g>
<!-- Node21 -->
<g id="node21" class="node">
<title>Node21</title>
<g id="a_node21"><a xlink:href="parse__command_8c.html" target="_top" xlink:title=" ">
<polygon fill="white" stroke="#666666" points="2627.5,-30 2497.5,-30 2497.5,0 2627.5,0 2627.5,-30"/>
<text text-anchor="start" x="2505.5" y="-18" font-family="Helvetica,sans-Serif" font-size="10.00">src/parser/tokens/parse</text>
<text text-anchor="middle" x="2562.5" y="-7" font-family="Helvetica,sans-Serif" font-size="10.00">_command.c</text>
</a>
</g>
</g>
<!-- Node1&#45;&gt;Node21 -->
<g id="edge45" class="edge">
<title>Node1&#45;&gt;Node21</title>
<path fill="none" stroke="#63b8ff" d="M1799.6,-116.62C1837.87,-98.49 1903.76,-67.45 1909.5,-66 2159.44,-2.7 2232.67,-62.03 2488.5,-30 2491.35,-29.64 2494.26,-29.24 2497.2,-28.81"/>
<polygon fill="#63b8ff" stroke="#63b8ff" points="1798.06,-113.48 1790.52,-120.93 1801.06,-119.81 1798.06,-113.48"/>
</g>
<!-- Node22 -->
<g id="node22" class="node">
<title>Node22</title>
<g id="a_node22"><a xlink:href="parse__logical__operator_8c.html" target="_top" xlink:title=" ">
<polygon fill="white" stroke="#666666" points="2775.5,-30 2645.5,-30 2645.5,0 2775.5,0 2775.5,-30"/>
<text text-anchor="start" x="2653.5" y="-18" font-family="Helvetica,sans-Serif" font-size="10.00">src/parser/tokens/parse</text>
<text text-anchor="middle" x="2710.5" y="-7" font-family="Helvetica,sans-Serif" font-size="10.00">_logical_operator.c</text>
</a>
</g>
</g>
<!-- Node1&#45;&gt;Node22 -->
<g id="edge46" class="edge">
<title>Node1&#45;&gt;Node22</title>
<path fill="none" stroke="#63b8ff" d="M1809.43,-117.83C1835.83,-109.28 1872.1,-97.09 1903.5,-85 1923.38,-77.35 1926.76,-70.85 1947.5,-66 2246.07,3.88 2332.05,-66.58 2636.5,-30 2639.36,-29.66 2642.27,-29.27 2645.2,-28.85"/>
<polygon fill="#63b8ff" stroke="#63b8ff" points="1808.27,-114.53 1799.82,-120.92 1810.42,-121.19 1808.27,-114.53"/>
</g>
<!-- Node23 -->
<g id="node23" class="node">
<title>Node23</title>
<g id="a_node23"><a xlink:href="parse__repeat_8c.html" target="_top" xlink:title=" ">
<polygon fill="white" stroke="#666666" points="2923.5,-30 2793.5,-30 2793.5,0 2923.5,0 2923.5,-30"/>
<text text-anchor="start" x="2801.5" y="-18" font-family="Helvetica,sans-Serif" font-size="10.00">src/parser/tokens/parse</text>
<text text-anchor="middle" x="2858.5" y="-7" font-family="Helvetica,sans-Serif" font-size="10.00">_repeat.c</text>
</a>
</g>
</g>
<!-- Node1&#45;&gt;Node23 -->
<g id="edge47" class="edge">
<title>Node1&#45;&gt;Node23</title>
<path fill="none" stroke="#63b8ff" d="M1820.1,-118.58C1853.78,-110.43 1899.83,-98.41 1939.5,-85 1960.45,-77.91 1963.91,-70.79 1985.5,-66 2332.53,11.01 2431.42,-71.14 2784.5,-30 2787.36,-29.67 2790.27,-29.29 2793.21,-28.87"/>
<polygon fill="#63b8ff" stroke="#63b8ff" points="1818.97,-115.25 1810.06,-120.99 1820.6,-122.06 1818.97,-115.25"/>
</g>
<!-- Node24 -->
<g id="node24" class="node">
<title>Node24</title>
<g id="a_node24"><a xlink:href="parse__sequence_8c.html" target="_top" xlink:title=" ">
<polygon fill="white" stroke="#666666" points="3071.5,-30 2941.5,-30 2941.5,0 3071.5,0 3071.5,-30"/>
<text text-anchor="start" x="2949.5" y="-18" font-family="Helvetica,sans-Serif" font-size="10.00">src/parser/tokens/parse</text>
<text text-anchor="middle" x="3006.5" y="-7" font-family="Helvetica,sans-Serif" font-size="10.00">_sequence.c</text>
</a>
</g>
</g>
<!-- Node1&#45;&gt;Node24 -->
<g id="edge48" class="edge">
<title>Node1&#45;&gt;Node24</title>
<path fill="none" stroke="#63b8ff" d="M1822.02,-121.13C1863.71,-113.51 1924.66,-101 1976.5,-85 1998.03,-78.35 2001.47,-70.74 2023.5,-66 2221.14,-23.49 2731.64,-52.85 2932.5,-30 2935.36,-29.67 2938.27,-29.3 2941.21,-28.89"/>
<polygon fill="#63b8ff" stroke="#63b8ff" points="1821.34,-117.7 1812.12,-122.91 1822.58,-124.58 1821.34,-117.7"/>
</g>
<!-- Node25 -->
<g id="node25" class="node">
<title>Node25</title>
<g id="a_node25"><a xlink:href="parse__sequence__start_8c.html" target="_top" xlink:title=" ">
<polygon fill="white" stroke="#666666" points="3219.5,-30 3089.5,-30 3089.5,0 3219.5,0 3219.5,-30"/>
<text text-anchor="start" x="3097.5" y="-18" font-family="Helvetica,sans-Serif" font-size="10.00">src/parser/tokens/parse</text>
<text text-anchor="middle" x="3154.5" y="-7" font-family="Helvetica,sans-Serif" font-size="10.00">_sequence_start.c</text>
</a>
</g>
</g>
<!-- Node1&#45;&gt;Node25 -->
<g id="edge49" class="edge">
<title>Node1&#45;&gt;Node25</title>
<path fill="none" stroke="#63b8ff" d="M1822.15,-123.37C1871.55,-116.57 1949.21,-103.99 2014.5,-85 2036.13,-78.71 2039.46,-70.69 2061.5,-66 2283.12,-18.82 2855.31,-55.13 3080.5,-30 3083.36,-29.68 3086.27,-29.31 3089.21,-28.91"/>
<polygon fill="#63b8ff" stroke="#63b8ff" points="1821.49,-119.92 1812.05,-124.73 1822.43,-126.86 1821.49,-119.92"/>
</g>
<!-- Node26 -->
<g id="node26" class="node">
<title>Node26</title>
<g id="a_node26"><a xlink:href="parse__subshell_8c.html" target="_top" xlink:title=" ">
<polygon fill="white" stroke="#666666" points="3367.5,-30 3237.5,-30 3237.5,0 3367.5,0 3367.5,-30"/>
<text text-anchor="start" x="3245.5" y="-18" font-family="Helvetica,sans-Serif" font-size="10.00">src/parser/tokens/parse</text>
<text text-anchor="middle" x="3302.5" y="-7" font-family="Helvetica,sans-Serif" font-size="10.00">_subshell.c</text>
</a>
</g>
</g>
<!-- Node1&#45;&gt;Node26 -->
<g id="edge50" class="edge">
<title>Node1&#45;&gt;Node26</title>
<path fill="none" stroke="#63b8ff" d="M1822.11,-125.48C1878.57,-120.01 1973.11,-108.15 2051.5,-85 2071.54,-79.08 2074.13,-70.64 2094.5,-66 2340.33,-10.02 2977.88,-57.52 3228.5,-30 3231.36,-29.69 3234.27,-29.32 3237.21,-28.92"/>
<polygon fill="#63b8ff" stroke="#63b8ff" points="1821.65,-122.01 1812.02,-126.43 1822.31,-128.98 1821.65,-122.01"/>
</g>
<!-- Node28 -->
<g id="node28" class="node">
<title>Node28</title>
<g id="a_node28"><a xlink:href="ast__destroy_8c.html" target="_top" xlink:title=" ">
<polygon fill="white" stroke="#666666" points="2219.5,-85 2103.5,-85 2103.5,-66 2219.5,-66 2219.5,-85"/>
<text text-anchor="middle" x="2161.5" y="-73" font-family="Helvetica,sans-Serif" font-size="10.00">src/ast/ast_destroy.c</text>
</a>
</g>
</g>
<!-- Node1&#45;&gt;Node28 -->
<g id="edge28" class="edge">
<title>Node1&#45;&gt;Node28</title>
<path fill="none" stroke="#63b8ff" d="M1822.46,-122.69C1894.4,-112.89 2026.89,-94.84 2103.2,-84.44"/>
<polygon fill="#63b8ff" stroke="#63b8ff" points="1821.74,-119.26 1812.3,-124.08 1822.68,-126.2 1821.74,-119.26"/>
</g>
<!-- Node29 -->
<g id="node29" class="node">
<title>Node29</title>
<g id="a_node29"><a xlink:href="ast__new__binary_8c.html" target="_top" xlink:title=" ">
<polygon fill="white" stroke="#666666" points="2373,-85 2238,-85 2238,-66 2373,-66 2373,-85"/>
<text text-anchor="middle" x="2305.5" y="-73" font-family="Helvetica,sans-Serif" font-size="10.00">src/ast/ast_new_binary.c</text>
</a>
</g>
</g>
<!-- Node1&#45;&gt;Node29 -->
<g id="edge29" class="edge">
<title>Node1&#45;&gt;Node29</title>
<path fill="none" stroke="#63b8ff" d="M1822.17,-124.86C1905.97,-116.99 2080.78,-100.36 2228.5,-85 2231.58,-84.68 2234.72,-84.35 2237.9,-84.01"/>
<polygon fill="#63b8ff" stroke="#63b8ff" points="1821.79,-121.38 1812.16,-125.8 1822.45,-128.35 1821.79,-121.38"/>
</g>
<!-- Node30 -->
<g id="node30" class="node">
<title>Node30</title>
<g id="a_node30"><a xlink:href="ast__new__cmd_8c.html" target="_top" xlink:title=" ">
<polygon fill="white" stroke="#666666" points="2518,-85 2391,-85 2391,-66 2518,-66 2518,-85"/>
<text text-anchor="middle" x="2454.5" y="-73" font-family="Helvetica,sans-Serif" font-size="10.00">src/ast/ast_new_cmd.c</text>
</a>
</g>
</g>
<!-- Node1&#45;&gt;Node30 -->
<g id="edge30" class="edge">
<title>Node1&#45;&gt;Node30</title>
<path fill="none" stroke="#63b8ff" d="M1822.38,-126.62C1926.55,-120.43 2174.79,-104.83 2382.5,-85 2385.26,-84.74 2388.07,-84.46 2390.91,-84.16"/>
<polygon fill="#63b8ff" stroke="#63b8ff" points="1821.94,-123.14 1812.16,-127.22 1822.35,-130.13 1821.94,-123.14"/>
</g>
<!-- Node31 -->
<g id="node31" class="node">
<title>Node31</title>
<g id="a_node31"><a xlink:href="ast__new__redirect_8c.html" target="_top" xlink:title=" ">
<polygon fill="white" stroke="#666666" points="2679,-85 2536,-85 2536,-66 2679,-66 2679,-85"/>
<text text-anchor="middle" x="2607.5" y="-73" font-family="Helvetica,sans-Serif" font-size="10.00">src/ast/ast_new_redirect.c</text>
</a>
</g>
</g>
<!-- Node1&#45;&gt;Node31 -->
<g id="edge31" class="edge">
<title>Node1&#45;&gt;Node31</title>
<path fill="none" stroke="#63b8ff" d="M1822.31,-127.37C1943.27,-122.04 2262.07,-106.91 2527.5,-85 2530.28,-84.77 2533.12,-84.52 2535.99,-84.27"/>
<polygon fill="#63b8ff" stroke="#63b8ff" points="1822.09,-123.88 1812.25,-127.82 1822.39,-130.87 1822.09,-123.88"/>
</g>
<!-- Node32 -->
<g id="node32" class="node">
<title>Node32</title>
<g id="a_node32"><a xlink:href="ast__new__repeat_8c.html" target="_top" xlink:title=" ">
<polygon fill="white" stroke="#666666" points="2834,-85 2697,-85 2697,-66 2834,-66 2834,-85"/>
<text text-anchor="middle" x="2765.5" y="-73" font-family="Helvetica,sans-Serif" font-size="10.00">src/ast/ast_new_repeat.c</text>
</a>
</g>
</g>
<!-- Node1&#45;&gt;Node32 -->
<g id="edge32" class="edge">
<title>Node1&#45;&gt;Node32</title>
<path fill="none" stroke="#63b8ff" d="M1822.54,-128.15C1960.63,-124.19 2358.63,-111.19 2688.5,-85 2691.18,-84.79 2693.91,-84.56 2696.67,-84.31"/>
<polygon fill="#63b8ff" stroke="#63b8ff" points="1822.18,-124.66 1812.29,-128.44 1822.38,-131.65 1822.18,-124.66"/>
</g>
<!-- Node33 -->
<g id="node33" class="node">
<title>Node33</title>
<g id="a_node33"><a xlink:href="ast__new__subshell_8c.html" target="_top" xlink:title=" ">
<polygon fill="white" stroke="#666666" points="2998.5,-85 2852.5,-85 2852.5,-66 2998.5,-66 2998.5,-85"/>
<text text-anchor="middle" x="2925.5" y="-73" font-family="Helvetica,sans-Serif" font-size="10.00">src/ast/ast_new_subshell.c</text>
</a>
</g>
</g>
<!-- Node1&#45;&gt;Node33 -->
<g id="edge33" class="edge">
<title>Node1&#45;&gt;Node33</title>
<path fill="none" stroke="#63b8ff" d="M1822.45,-128.52C1975.38,-125.29 2450.68,-113.49 2843.5,-85 2846.35,-84.79 2849.26,-84.57 2852.2,-84.32"/>
<polygon fill="#63b8ff" stroke="#63b8ff" points="1822.35,-125.02 1812.42,-128.73 1822.5,-132.02 1822.35,-125.02"/>
</g>
<!-- Node2&#45;&gt;Node3 -->
<g id="edge2" class="edge">
<title>Node2&#45;&gt;Node3</title>
<path fill="none" stroke="#63b8ff" d="M798.23,-73.77C670.5,-71.62 372.93,-63.15 125.5,-30 122.79,-29.64 120.03,-29.23 117.24,-28.78"/>
<polygon fill="#63b8ff" stroke="#63b8ff" points="798.54,-77.28 808.59,-73.94 798.65,-70.28 798.54,-77.28"/>
</g>
<!-- Node2&#45;&gt;Node4 -->
<g id="edge3" class="edge">
<title>Node2&#45;&gt;Node4</title>
<path fill="none" stroke="#63b8ff" d="M798.78,-72.58C689.14,-68.63 455.71,-57.5 260.5,-30 257.79,-29.62 255.03,-29.19 252.25,-28.73"/>
<polygon fill="#63b8ff" stroke="#63b8ff" points="798.88,-76.09 809,-72.94 799.13,-69.09 798.88,-76.09"/>
</g>
<!-- Node2&#45;&gt;Node5 -->
<g id="edge4" class="edge">
<title>Node2&#45;&gt;Node5</title>
<path fill="none" stroke="#63b8ff" d="M798.84,-70.73C709.12,-64.83 539.02,-51.78 395.5,-30 392.8,-29.59 390.04,-29.14 387.26,-28.66"/>
<polygon fill="#63b8ff" stroke="#63b8ff" points="798.65,-74.22 808.85,-71.38 799.1,-67.24 798.65,-74.22"/>
</g>
<!-- Node2&#45;&gt;Node6 -->
<g id="edge5" class="edge">
<title>Node2&#45;&gt;Node6</title>
<path fill="none" stroke="#63b8ff" d="M798.93,-67.46C732.22,-59.63 623.59,-45.96 530.5,-30 527.81,-29.54 525.06,-29.05 522.28,-28.53"/>
<polygon fill="#63b8ff" stroke="#63b8ff" points="798.53,-70.93 808.87,-68.62 799.34,-63.98 798.53,-70.93"/>
</g>
<!-- Node2&#45;&gt;Node7 -->
<g id="edge6" class="edge">
<title>Node2&#45;&gt;Node7</title>
<path fill="none" stroke="#63b8ff" d="M813.38,-63.8C769.4,-54.01 704.23,-39.52 657.2,-29.06"/>
<polygon fill="#63b8ff" stroke="#63b8ff" points="812.74,-67.24 823.26,-65.99 814.26,-60.41 812.74,-67.24"/>
</g>
<!-- Node2&#45;&gt;Node8 -->
<g id="edge7" class="edge">
<title>Node2&#45;&gt;Node8</title>
<path fill="none" stroke="#63b8ff" d="M864.36,-55.93C865.64,-47.58 867.14,-37.87 868.33,-30.11"/>
<polygon fill="#63b8ff" stroke="#63b8ff" points="860.89,-55.45 862.83,-65.87 867.81,-56.52 860.89,-55.45"/>
</g>
<!-- Node2&#45;&gt;Node9 -->
<g id="edge8" class="edge">
<title>Node2&#45;&gt;Node9</title>
<path fill="none" stroke="#63b8ff" d="M891.76,-62.21C914.87,-52.82 946.75,-39.87 970.88,-30.06"/>
<polygon fill="#63b8ff" stroke="#63b8ff" points="890.39,-58.99 882.44,-65.99 893.02,-65.47 890.39,-58.99"/>
</g>
<!-- Node2&#45;&gt;Node10 -->
<g id="edge9" class="edge">
<title>Node2&#45;&gt;Node10</title>
<path fill="none" stroke="#63b8ff" d="M911.89,-63.93C959.7,-53.91 1031.53,-38.85 1081.88,-28.29"/>
<polygon fill="#63b8ff" stroke="#63b8ff" points="911.14,-60.52 902.07,-65.99 912.57,-67.37 911.14,-60.52"/>
</g>
<!-- Node2&#45;&gt;Node11 -->
<g id="edge10" class="edge">
<title>Node2&#45;&gt;Node11</title>
<path fill="none" stroke="#63b8ff" d="M924.48,-67.84C993.98,-60.15 1109.06,-46.44 1207.5,-30 1210.59,-29.48 1213.76,-28.93 1216.95,-28.35"/>
<polygon fill="#63b8ff" stroke="#63b8ff" points="923.7,-64.4 914.14,-68.97 924.47,-71.36 923.7,-64.4"/>
</g>
<!-- Node12 -->
<g id="node12" class="node">
<title>Node12</title>
<g id="a_node12"><a xlink:href="wait__for__subprocess_8c.html" target="_top" xlink:title=" ">
<polygon fill="white" stroke="#666666" points="794,-30 675,-30 675,0 794,0 794,-30"/>
<text text-anchor="start" x="683" y="-18" font-family="Helvetica,sans-Serif" font-size="10.00">src/executer/wait_for</text>
<text text-anchor="middle" x="734.5" y="-7" font-family="Helvetica,sans-Serif" font-size="10.00">_subprocess.c</text>
</a>
</g>
</g>
<!-- Node2&#45;&gt;Node12 -->
<g id="edge11" class="edge">
<title>Node2&#45;&gt;Node12</title>
<path fill="none" stroke="#63b8ff" d="M833.75,-61.72C813.54,-52.41 786.16,-39.8 765.28,-30.18"/>
<polygon fill="#63b8ff" stroke="#63b8ff" points="832.49,-64.99 843.03,-65.99 835.41,-58.63 832.49,-64.99"/>
</g>
<!-- Node2&#45;&gt;Node13 -->
<g id="edge12" class="edge">
<title>Node2&#45;&gt;Node13</title>
<path fill="none" stroke="#63b8ff" d="M924.07,-73.28C1016.5,-70.45 1194.57,-61.07 1342.5,-30 1348.97,-28.64 1355.83,-26.62 1362.09,-24.52"/>
<polygon fill="#63b8ff" stroke="#63b8ff" points="923.94,-69.78 914.04,-73.57 924.14,-76.78 923.94,-69.78"/>
</g>
<!-- Node14&#45;&gt;Node13 -->
<g id="edge27" class="edge">
<title>Node14&#45;&gt;Node13</title>
<path fill="none" stroke="#63b8ff" d="M1753.16,-71.71C1677.37,-67.15 1540.06,-55.87 1425.5,-30 1419.34,-28.61 1412.8,-26.62 1406.81,-24.58"/>
<polygon fill="#63b8ff" stroke="#63b8ff" points="1753.25,-75.22 1763.44,-72.31 1753.66,-68.23 1753.25,-75.22"/>
</g>
<!-- Node15 -->
<g id="node15" class="node">
<title>Node15</title>
<g id="a_node15"><a xlink:href="parser__destroy_8c.html" target="_top" xlink:title=" ">
<polygon fill="white" stroke="#666666" points="2333,-24.5 2186,-24.5 2186,-5.5 2333,-5.5 2333,-24.5"/>
<text text-anchor="middle" x="2259.5" y="-12.5" font-family="Helvetica,sans-Serif" font-size="10.00">src/parser/parser_destroy.c</text>
</a>
</g>
</g>
<!-- Node14&#45;&gt;Node15 -->
<g id="edge14" class="edge">
<title>Node14&#45;&gt;Node15</title>
<path fill="none" stroke="#63b8ff" d="M1867.7,-66.49C1868.98,-66.33 1870.25,-66.16 1871.5,-66 2006.88,-48.58 2041.38,-49.36 2176.5,-30 2187.78,-28.38 2199.9,-26.45 2211.29,-24.55"/>
<polygon fill="#63b8ff" stroke="#63b8ff" points="1867.23,-63.03 1857.78,-67.81 1868.15,-69.96 1867.23,-63.03"/>
</g>
<!-- Node16 -->
<g id="node16" class="node">
<title>Node16</title>
<g id="a_node16"><a xlink:href="parser__init_8c.html" target="_top" xlink:title=" ">
<polygon fill="white" stroke="#666666" points="2479.5,-24.5 2351.5,-24.5 2351.5,-5.5 2479.5,-5.5 2479.5,-24.5"/>
<text text-anchor="middle" x="2415.5" y="-12.5" font-family="Helvetica,sans-Serif" font-size="10.00">src/parser/parser_init.c</text>
</a>
</g>
</g>
<!-- Node14&#45;&gt;Node16 -->
<g id="edge15" class="edge">
<title>Node14&#45;&gt;Node16</title>
<path fill="none" stroke="#63b8ff" d="M1867.69,-66.42C1868.97,-66.28 1870.24,-66.14 1871.5,-66 2080.23,-43.5 2134.41,-57.82 2342.5,-30 2353.24,-28.56 2364.8,-26.56 2375.47,-24.52"/>
<polygon fill="#63b8ff" stroke="#63b8ff" points="1867.26,-62.95 1857.75,-67.62 1868.1,-69.9 1867.26,-62.95"/>
</g>
<!-- Node17 -->
<g id="node17" class="node">
<title>Node17</title>
<g id="a_node17"><a xlink:href="parser__next_8c.html" target="_top" xlink:title=" ">
<polygon fill="white" stroke="#666666" points="1877.5,-24.5 1743.5,-24.5 1743.5,-5.5 1877.5,-5.5 1877.5,-24.5"/>
<text text-anchor="middle" x="1810.5" y="-12.5" font-family="Helvetica,sans-Serif" font-size="10.00">src/parser/parser_next.c</text>
</a>
</g>
</g>
<!-- Node14&#45;&gt;Node17 -->
<g id="edge16" class="edge">
<title>Node14&#45;&gt;Node17</title>
<path fill="none" stroke="#63b8ff" d="M1810.5,-55.66C1810.5,-45.24 1810.5,-32.8 1810.5,-24.67"/>
<polygon fill="#63b8ff" stroke="#63b8ff" points="1807,-55.87 1810.5,-65.87 1814,-55.87 1807,-55.87"/>
</g>
<!-- Node14&#45;&gt;Node18 -->
<g id="edge17" class="edge">
<title>Node14&#45;&gt;Node18</title>
<path fill="none" stroke="#63b8ff" d="M1756.12,-64.1C1697.08,-52.82 1603.92,-35.01 1549.05,-24.52"/>
<polygon fill="#63b8ff" stroke="#63b8ff" points="1755.53,-67.55 1766,-65.99 1756.84,-60.68 1755.53,-67.55"/>
</g>
<!-- Node19 -->
<g id="node19" class="node">
<title>Node19</title>
<g id="a_node19"><a xlink:href="parser__set__error_8c.html" target="_top" xlink:title=" ">
<polygon fill="white" stroke="#666666" points="2015,-30 1896,-30 1896,0 2015,0 2015,-30"/>
<text text-anchor="start" x="1904" y="-18" font-family="Helvetica,sans-Serif" font-size="10.00">src/parser/parser_set</text>
<text text-anchor="middle" x="1955.5" y="-7" font-family="Helvetica,sans-Serif" font-size="10.00">_error.c</text>
</a>
</g>
</g>
<!-- Node14&#45;&gt;Node19 -->
<g id="edge18" class="edge">
<title>Node14&#45;&gt;Node19</title>
<path fill="none" stroke="#63b8ff" d="M1840.97,-62.21C1864.24,-52.82 1896.34,-39.87 1920.64,-30.06"/>
<polygon fill="#63b8ff" stroke="#63b8ff" points="1839.55,-59.01 1831.58,-65.99 1842.17,-65.5 1839.55,-59.01"/>
</g>
<!-- Node14&#45;&gt;Node20 -->
<g id="edge19" class="edge">
<title>Node14&#45;&gt;Node20</title>
<path fill="none" stroke="#63b8ff" d="M1779,-62.38C1749.62,-51.07 1706.53,-34.49 1680.63,-24.52"/>
<polygon fill="#63b8ff" stroke="#63b8ff" points="1777.81,-65.67 1788.4,-65.99 1780.32,-59.14 1777.81,-65.67"/>
</g>
<!-- Node14&#45;&gt;Node21 -->
<g id="edge20" class="edge">
<title>Node14&#45;&gt;Node21</title>
<path fill="none" stroke="#63b8ff" d="M1867.69,-66.39C1868.97,-66.25 1870.24,-66.12 1871.5,-66 2144.86,-39.02 2215.87,-63.6 2488.5,-30 2491.35,-29.65 2494.27,-29.25 2497.2,-28.83"/>
<polygon fill="#63b8ff" stroke="#63b8ff" points="1867.28,-62.92 1857.74,-67.54 1868.08,-69.87 1867.28,-62.92"/>
</g>
<!-- Node14&#45;&gt;Node22 -->
<g id="edge21" class="edge">
<title>Node14&#45;&gt;Node22</title>
<path fill="none" stroke="#63b8ff" d="M1867.8,-69.23C1881.46,-68.07 1895.99,-66.91 1909.5,-66 2232.27,-44.16 2315.25,-68.16 2636.5,-30 2639.36,-29.66 2642.27,-29.28 2645.21,-28.86"/>
<polygon fill="#63b8ff" stroke="#63b8ff" points="1867.22,-65.76 1857.56,-70.11 1867.82,-72.74 1867.22,-65.76"/>
</g>
<!-- Node14&#45;&gt;Node23 -->
<g id="edge22" class="edge">
<title>Node14&#45;&gt;Node23</title>
<path fill="none" stroke="#63b8ff" d="M1867.94,-70.69C1892.45,-69.13 1921.37,-67.37 1947.5,-66 2319.33,-46.47 2414.61,-72.72 2784.5,-30 2787.36,-29.67 2790.27,-29.29 2793.21,-28.88"/>
<polygon fill="#63b8ff" stroke="#63b8ff" points="1867.48,-67.22 1857.72,-71.35 1867.93,-74.2 1867.48,-67.22"/>
</g>
<!-- Node14&#45;&gt;Node24 -->
<g id="edge23" class="edge">
<title>Node14&#45;&gt;Node24</title>
<path fill="none" stroke="#63b8ff" d="M1867.92,-71.56C1902.07,-69.85 1946.26,-67.7 1985.5,-66 2406.3,-47.78 2513.97,-77.28 2932.5,-30 2935.36,-29.68 2938.27,-29.31 2941.21,-28.9"/>
<polygon fill="#63b8ff" stroke="#63b8ff" points="1867.47,-68.08 1857.66,-72.07 1867.82,-75.07 1867.47,-68.08"/>
</g>
<!-- Node14&#45;&gt;Node25 -->
<g id="edge24" class="edge">
<title>Node14&#45;&gt;Node25</title>
<path fill="none" stroke="#63b8ff" d="M1868.11,-72.11C1910.97,-70.35 1970.88,-67.95 2023.5,-66 2493.23,-48.63 2613.32,-81.84 3080.5,-30 3083.36,-29.68 3086.27,-29.32 3089.21,-28.91"/>
<polygon fill="#63b8ff" stroke="#63b8ff" points="1867.72,-68.62 1857.87,-72.53 1868.01,-75.62 1867.72,-68.62"/>
</g>
<!-- Node14&#45;&gt;Node26 -->
<g id="edge25" class="edge">
<title>Node14&#45;&gt;Node26</title>
<path fill="none" stroke="#63b8ff" d="M1867.83,-72.51C1918.7,-70.75 1995.05,-68.15 2061.5,-66 2580.14,-49.22 2712.66,-86.4 3228.5,-30 3231.36,-29.69 3234.27,-29.33 3237.21,-28.92"/>
<polygon fill="#63b8ff" stroke="#63b8ff" points="1867.56,-69.02 1857.68,-72.86 1867.8,-76.01 1867.56,-69.02"/>
</g>
<!-- Node27 -->
<g id="node27" class="node">
<title>Node27</title>
<g id="a_node27"><a xlink:href="parser__globbing_8c.html" target="_top" xlink:title=" ">
<polygon fill="white" stroke="#666666" points="2167.5,-30 2033.5,-30 2033.5,0 2167.5,0 2167.5,-30"/>
<text text-anchor="start" x="2041.5" y="-18" font-family="Helvetica,sans-Serif" font-size="10.00">src/parser/tokens/parser</text>
<text text-anchor="middle" x="2100.5" y="-7" font-family="Helvetica,sans-Serif" font-size="10.00">_globbing.c</text>
</a>
</g>
</g>
<!-- Node14&#45;&gt;Node27 -->
<g id="edge26" class="edge">
<title>Node14&#45;&gt;Node27</title>
<path fill="none" stroke="#63b8ff" d="M1862.49,-64.01C1910.23,-54.38 1981.25,-40.05 2033.29,-29.56"/>
<polygon fill="#63b8ff" stroke="#63b8ff" points="1861.78,-60.59 1852.67,-65.99 1863.16,-67.45 1861.78,-60.59"/>
</g>
</g>
</svg>
