<?xml version="1.0" encoding="UTF-8" standalone="no"?>
<!DOCTYPE svg PUBLIC "-//W3C//DTD SVG 1.1//EN"
 "http://www.w3.org/Graphics/SVG/1.1/DTD/svg11.dtd">
<!-- Generated by graphviz version 2.43.0 (0)
 -->
<!-- Title: builtin_unalias Pages: 1 -->
<svg width="355pt" height="64pt"
 viewBox="0.00 0.00 355.00 64.00" xmlns="http://www.w3.org/2000/svg" xmlns:xlink="http://www.w3.org/1999/xlink">
<g id="graph0" class="graph" transform="scale(1 1) rotate(0) translate(4 60)">
<title>builtin_unalias</title>
<!-- Node1 -->
<g id="node1" class="node">
<title>Node1</title>
<g id="a_node1"><a xlink:title=" ">
<polygon fill="#999999" stroke="#666666" points="88,-37 0,-37 0,-18 88,-18 88,-37"/>
<text text-anchor="middle" x="44" y="-25" font-family="Helvetica,sans-Serif" font-size="10.00">builtin_unalias</text>
</a>
</g>
</g>
<!-- Node2 -->
<g id="node2" class="node">
<title>Node2</title>
<g id="a_node2"><a xlink:href="unset__variable_8c.html#a34b0bca9c9d39075ac9572b3403c7afa" target="_top" xlink:title=" ">
<polygon fill="white" stroke="#666666" points="213,-37 124,-37 124,-18 213,-18 213,-37"/>
<text text-anchor="middle" x="168.5" y="-25" font-family="Helvetica,sans-Serif" font-size="10.00">unset_variable</text>
</a>
</g>
</g>
<!-- Node1&#45;&gt;Node2 -->
<g id="edge1" class="edge">
<title>Node1&#45;&gt;Node2</title>
<path fill="none" stroke="#63b8ff" d="M88.19,-27.5C96.42,-27.5 105.12,-27.5 113.63,-27.5"/>
<polygon fill="#63b8ff" stroke="#63b8ff" points="113.87,-31 123.87,-27.5 113.87,-24 113.87,-31"/>
</g>
<!-- Node3 -->
<g id="node3" class="node">
<title>Node3</title>
<g id="a_node3"><a xlink:href="free__variable_8c.html#a6cfba30b5c98d6fa7663b6bc29fe01cc" target="_top" xlink:title=" ">
<polygon fill="white" stroke="#666666" points="338.5,-56 257.5,-56 257.5,-37 338.5,-37 338.5,-56"/>
<text text-anchor="middle" x="298" y="-44" font-family="Helvetica,sans-Serif" font-size="10.00">free_variable</text>
</a>
</g>
</g>
<!-- Node2&#45;&gt;Node3 -->
<g id="edge2" class="edge">
<title>Node2&#45;&gt;Node3</title>
<path fill="none" stroke="#63b8ff" d="M213.02,-33.99C223.96,-35.62 235.78,-37.38 247,-39.05"/>
<polygon fill="#63b8ff" stroke="#63b8ff" points="246.7,-42.54 257.1,-40.55 247.73,-35.62 246.7,-42.54"/>
</g>
<!-- Node4 -->
<g id="node4" class="node">
<title>Node4</title>
<g id="a_node4"><a xlink:href="list_8h.html#a738b87770ea7d20a7e39c7d872b19705" target="_top" xlink:title=" ">
<polygon fill="white" stroke="#666666" points="347,-19 249,-19 249,0 347,0 347,-19"/>
<text text-anchor="middle" x="298" y="-7" font-family="Helvetica,sans-Serif" font-size="10.00">my_delete_node</text>
</a>
</g>
</g>
<!-- Node2&#45;&gt;Node4 -->
<g id="edge3" class="edge">
<title>Node2&#45;&gt;Node4</title>
<path fill="none" stroke="#63b8ff" d="M213.02,-21.36C221.32,-20.18 230.12,-18.94 238.79,-17.72"/>
<polygon fill="#63b8ff" stroke="#63b8ff" points="239.45,-21.16 248.87,-16.3 238.47,-14.23 239.45,-21.16"/>
</g>
</g>
</svg>
