<?xml version="1.0" encoding="UTF-8" standalone="no"?>
<!DOCTYPE svg PUBLIC "-//W3C//DTD SVG 1.1//EN"
 "http://www.w3.org/Graphics/SVG/1.1/DTD/svg11.dtd">
<!-- Generated by graphviz version 2.43.0 (0)
 -->
<!-- Title: include/builtins.h Pages: 1 -->
<svg width="108pt" height="192pt"
 viewBox="0.00 0.00 108.00 192.00" xmlns="http://www.w3.org/2000/svg" xmlns:xlink="http://www.w3.org/1999/xlink">
<g id="graph0" class="graph" transform="scale(1 1) rotate(0) translate(4 188)">
<title>include/builtins.h</title>
<!-- Node1 -->
<g id="node1" class="node">
<title>Node1</title>
<g id="a_node1"><a xlink:title=" ">
<polygon fill="#999999" stroke="#666666" points="100,-184 0,-184 0,-165 100,-165 100,-184"/>
<text text-anchor="middle" x="50" y="-172" font-family="Helvetica,sans-Serif" font-size="10.00">include/builtins.h</text>
</a>
</g>
</g>
<!-- Node2 -->
<g id="node2" class="node">
<title>Node2</title>
<g id="a_node2"><a xlink:href="shell_8h.html" target="_top" xlink:title=" ">
<polygon fill="white" stroke="#666666" points="74.5,-129 25.5,-129 25.5,-110 74.5,-110 74.5,-129"/>
<text text-anchor="middle" x="50" y="-117" font-family="Helvetica,sans-Serif" font-size="10.00">shell.h</text>
</a>
</g>
</g>
<!-- Node1&#45;&gt;Node2 -->
<g id="edge1" class="edge">
<title>Node1&#45;&gt;Node2</title>
<path fill="none" stroke="#63b8ff" d="M50,-164.75C50,-157.8 50,-147.85 50,-139.13"/>
<polygon fill="#63b8ff" stroke="#63b8ff" points="53.5,-139.09 50,-129.09 46.5,-139.09 53.5,-139.09"/>
</g>
<!-- Node3 -->
<g id="node3" class="node">
<title>Node3</title>
<g id="a_node3"><a xlink:href="list_8h.html" target="_top" xlink:title=" ">
<polygon fill="white" stroke="#666666" points="79.5,-74 20.5,-74 20.5,-55 79.5,-55 79.5,-74"/>
<text text-anchor="middle" x="50" y="-62" font-family="Helvetica,sans-Serif" font-size="10.00">my/list.h</text>
</a>
</g>
</g>
<!-- Node2&#45;&gt;Node3 -->
<g id="edge2" class="edge">
<title>Node2&#45;&gt;Node3</title>
<path fill="none" stroke="#63b8ff" d="M50,-109.75C50,-102.8 50,-92.85 50,-84.13"/>
<polygon fill="#63b8ff" stroke="#63b8ff" points="53.5,-84.09 50,-74.09 46.5,-84.09 53.5,-84.09"/>
</g>
<!-- Node4 -->
<g id="node4" class="node">
<title>Node4</title>
<g id="a_node4"><a xlink:title=" ">
<polygon fill="#e0e0e0" stroke="#999999" points="78,-19 22,-19 22,0 78,0 78,-19"/>
<text text-anchor="middle" x="50" y="-7" font-family="Helvetica,sans-Serif" font-size="10.00">stddef.h</text>
</a>
</g>
</g>
<!-- Node3&#45;&gt;Node4 -->
<g id="edge3" class="edge">
<title>Node3&#45;&gt;Node4</title>
<path fill="none" stroke="#63b8ff" d="M50,-54.75C50,-47.8 50,-37.85 50,-29.13"/>
<polygon fill="#63b8ff" stroke="#63b8ff" points="53.5,-29.09 50,-19.09 46.5,-29.09 53.5,-29.09"/>
</g>
</g>
</svg>
