<?xml version="1.0" encoding="UTF-8" standalone="no"?>
<!DOCTYPE svg PUBLIC "-//W3C//DTD SVG 1.1//EN"
 "http://www.w3.org/Graphics/SVG/1.1/DTD/svg11.dtd">
<!-- Generated by graphviz version 2.43.0 (0)
 -->
<!-- Title: builtin_unset Pages: 1 -->
<svg width="347pt" height="64pt"
 viewBox="0.00 0.00 347.00 64.00" xmlns="http://www.w3.org/2000/svg" xmlns:xlink="http://www.w3.org/1999/xlink">
<g id="graph0" class="graph" transform="scale(1 1) rotate(0) translate(4 60)">
<title>builtin_unset</title>
<!-- Node1 -->
<g id="node1" class="node">
<title>Node1</title>
<g id="a_node1"><a xlink:title=" ">
<polygon fill="#999999" stroke="#666666" points="80,-37 0,-37 0,-18 80,-18 80,-37"/>
<text text-anchor="middle" x="40" y="-25" font-family="Helvetica,sans-Serif" font-size="10.00">builtin_unset</text>
</a>
</g>
</g>
<!-- Node2 -->
<g id="node2" class="node">
<title>Node2</title>
<g id="a_node2"><a xlink:href="unset__variable_8c.html#a34b0bca9c9d39075ac9572b3403c7afa" target="_top" xlink:title=" ">
<polygon fill="white" stroke="#666666" points="205,-37 116,-37 116,-18 205,-18 205,-37"/>
<text text-anchor="middle" x="160.5" y="-25" font-family="Helvetica,sans-Serif" font-size="10.00">unset_variable</text>
</a>
</g>
</g>
<!-- Node1&#45;&gt;Node2 -->
<g id="edge1" class="edge">
<title>Node1&#45;&gt;Node2</title>
<path fill="none" stroke="#63b8ff" d="M80.13,-27.5C88.37,-27.5 97.19,-27.5 105.86,-27.5"/>
<polygon fill="#63b8ff" stroke="#63b8ff" points="105.91,-31 115.91,-27.5 105.91,-24 105.91,-31"/>
</g>
<!-- Node3 -->
<g id="node3" class="node">
<title>Node3</title>
<g id="a_node3"><a xlink:href="free__variable_8c.html#a6cfba30b5c98d6fa7663b6bc29fe01cc" target="_top" xlink:title=" ">
<polygon fill="white" stroke="#666666" points="330.5,-56 249.5,-56 249.5,-37 330.5,-37 330.5,-56"/>
<text text-anchor="middle" x="290" y="-44" font-family="Helvetica,sans-Serif" font-size="10.00">free_variable</text>
</a>
</g>
</g>
<!-- Node2&#45;&gt;Node3 -->
<g id="edge2" class="edge">
<title>Node2&#45;&gt;Node3</title>
<path fill="none" stroke="#63b8ff" d="M205.02,-33.99C215.96,-35.62 227.78,-37.38 239,-39.05"/>
<polygon fill="#63b8ff" stroke="#63b8ff" points="238.7,-42.54 249.1,-40.55 239.73,-35.62 238.7,-42.54"/>
</g>
<!-- Node4 -->
<g id="node4" class="node">
<title>Node4</title>
<g id="a_node4"><a xlink:href="list_8h.html#a738b87770ea7d20a7e39c7d872b19705" target="_top" xlink:title=" ">
<polygon fill="white" stroke="#666666" points="339,-19 241,-19 241,0 339,0 339,-19"/>
<text text-anchor="middle" x="290" y="-7" font-family="Helvetica,sans-Serif" font-size="10.00">my_delete_node</text>
</a>
</g>
</g>
<!-- Node2&#45;&gt;Node4 -->
<g id="edge3" class="edge">
<title>Node2&#45;&gt;Node4</title>
<path fill="none" stroke="#63b8ff" d="M205.02,-21.36C213.32,-20.18 222.12,-18.94 230.79,-17.72"/>
<polygon fill="#63b8ff" stroke="#63b8ff" points="231.45,-21.16 240.87,-16.3 230.47,-14.23 231.45,-21.16"/>
</g>
</g>
</svg>
