<?xml version="1.0" encoding="UTF-8" standalone="no"?>
<!DOCTYPE svg PUBLIC "-//W3C//DTD SVG 1.1//EN"
 "http://www.w3.org/Graphics/SVG/1.1/DTD/svg11.dtd">
<!-- Generated by graphviz version 2.43.0 (0)
 -->
<!-- Title: builtin_cd Pages: 1 -->
<!--zoomable 185 -->
<svg id="main" version="1.1" xmlns="http://www.w3.org/2000/svg" xmlns:xlink="http://www.w3.org/1999/xlink" xml:space="preserve" onload="init(evt)">
<style type="text/css"><![CDATA[
.edge:hover path { stroke: red; }
.edge:hover polygon { stroke: red; fill: red; }
]]></style>
<script type="text/javascript"><![CDATA[
var edges = document.getElementsByTagName('g');
if (edges && edges.length) {
  for (var i=0;i<edges.length;i++) {
    if (edges[i].id.substr(0,4)=='edge') {
      edges[i].setAttribute('class','edge');
    }
  }
}
]]></script>
        <defs>
                <circle id="rim" cx="0" cy="0" r="7"/>
                <circle id="rim2" cx="0" cy="0" r="3.5"/>
                <g id="zoomPlus">
                        <use xlink:href="#rim" fill="#404040">
                                <set attributeName="fill" to="#808080" begin="zoomplus.mouseover" end="zoomplus.mouseout"/>
                        </use>
                        <path d="M-4,0h8M0,-4v8" fill="none" stroke="white" stroke-width="1.5" pointer-events="none"/>
                </g>
                <g id="zoomMin">
                        <use xlink:href="#rim" fill="#404040">
                                <set attributeName="fill" to="#808080" begin="zoomminus.mouseover" end="zoomminus.mouseout"/>
                        </use>
                        <path d="M-4,0h8" fill="none" stroke="white" stroke-width="1.5" pointer-events="none"/>
                </g>
                <g id="dirArrow">
                        <path fill="none" stroke="white" stroke-width="1.5" d="M0,-3.0v7 M-2.5,-0.5L0,-3.0L2.5,-0.5"/>
                </g>
               <g id="resetDef">
                       <use xlink:href="#rim2" fill="#404040">
                               <set attributeName="fill" to="#808080" begin="reset.mouseover" end="reset.mouseout"/>
                       </use>
               </g>
        </defs>

<script type="text/javascript">
var viewWidth = 814;
var viewHeight = 185;
var sectionId = 'dynsection-2';
</script>
<script xlink:href="svgpan.js"/>
<svg id="graph" class="graph">
<g id="viewport">
<title>builtin_cd</title>
<!-- Node1 -->
<g id="node1" class="node">
<title>Node1</title>
<g id="a_node1"><a xlink:title=" ">
<polygon fill="#999999" stroke="#666666" points="64,-38 0,-38 0,-19 64,-19 64,-38"/>
<text text-anchor="middle" x="32" y="-26" font-family="Helvetica,sans-Serif" font-size="10.00">builtin_cd</text>
</a>
</g>
</g>
<!-- Node2 -->
<g id="node2" class="node">
<title>Node2</title>
<g id="a_node2"><a xlink:href="cd_8c.html#a3bdfdfd3aa6abcdbdd3ca29f1807868c" target="_top" xlink:title=" ">
<polygon fill="white" stroke="#666666" points="192,-57 100,-57 100,-38 192,-38 192,-57"/>
<text text-anchor="middle" x="146" y="-45" font-family="Helvetica,sans-Serif" font-size="10.00">cd_to_directory</text>
</a>
</g>
</g>
<!-- Node1&#45;&gt;Node2 -->
<g id="edge1" class="edge">
<title>Node1&#45;&gt;Node2</title>
<path fill="none" stroke="#63b8ff" d="M64.2,-33.79C72.19,-35.15 81.03,-36.65 89.84,-38.14"/>
<polygon fill="#63b8ff" stroke="#63b8ff" points="89.29,-41.6 99.74,-39.82 90.46,-34.7 89.29,-41.6"/>
</g>
<!-- Node12 -->
<g id="node12" class="node">
<title>Node12</title>
<g id="a_node12"><a xlink:href="cd_8c.html#a6cfca5f540843cfce2ac9896cc71d598" target="_top" xlink:title=" ">
<polygon fill="white" stroke="#666666" points="325.5,-19 249.5,-19 249.5,0 325.5,0 325.5,-19"/>
<text text-anchor="middle" x="287.5" y="-7" font-family="Helvetica,sans-Serif" font-size="10.00">cd_to_home</text>
</a>
</g>
</g>
<!-- Node1&#45;&gt;Node12 -->
<g id="edge14" class="edge">
<title>Node1&#45;&gt;Node12</title>
<path fill="none" stroke="#63b8ff" d="M64.08,-26.17C107.87,-22.89 188.07,-16.88 239.26,-13.04"/>
<polygon fill="#63b8ff" stroke="#63b8ff" points="239.69,-16.52 249.4,-12.28 239.17,-9.54 239.69,-16.52"/>
</g>
<!-- Node3 -->
<g id="node3" class="node">
<title>Node3</title>
<g id="a_node3"><a xlink:href="cd_8c.html#a41a4ea5d112eaef12746a37b78cdffc2" target="_top" xlink:title=" ">
<polygon fill="white" stroke="#666666" points="347,-56 228,-56 228,-37 347,-37 347,-56"/>
<text text-anchor="middle" x="287.5" y="-44" font-family="Helvetica,sans-Serif" font-size="10.00">cd_to_prev_directory</text>
</a>
</g>
</g>
<!-- Node2&#45;&gt;Node3 -->
<g id="edge2" class="edge">
<title>Node2&#45;&gt;Node3</title>
<path fill="none" stroke="#63b8ff" d="M192.29,-47.18C200.47,-47.12 209.16,-47.05 217.83,-46.99"/>
<polygon fill="#63b8ff" stroke="#63b8ff" points="217.99,-50.49 227.96,-46.92 217.94,-43.49 217.99,-50.49"/>
</g>
<!-- Node6 -->
<g id="node6" class="node">
<title>Node6</title>
<g id="a_node6"><a xlink:href="cd_8c.html#a5f88b27ad31ff3809a0bdadac6e71207" target="_top" xlink:title=" ">
<polygon fill="white" stroke="#666666" points="484,-94 383,-94 383,-75 484,-75 484,-94"/>
<text text-anchor="middle" x="433.5" y="-82" font-family="Helvetica,sans-Serif" font-size="10.00">update_variables</text>
</a>
</g>
</g>
<!-- Node2&#45;&gt;Node6 -->
<g id="edge13" class="edge">
<title>Node2&#45;&gt;Node6</title>
<path fill="none" stroke="#63b8ff" d="M188.05,-57.02C200.8,-59.74 214.93,-62.5 228,-64.5 276.43,-71.93 331.77,-77.14 372.65,-80.38"/>
<polygon fill="#63b8ff" stroke="#63b8ff" points="372.48,-83.88 382.72,-81.16 373.02,-76.9 372.48,-83.88"/>
</g>
<!-- Node4 -->
<g id="node4" class="node">
<title>Node4</title>
<g id="a_node4"><a xlink:href="get__variable__value_8c.html#a2edd9900f19af236aa05385a789be3d6" target="_top" xlink:title=" ">
<polygon fill="white" stroke="#666666" points="630,-38 520,-38 520,-19 630,-19 630,-38"/>
<text text-anchor="middle" x="575" y="-26" font-family="Helvetica,sans-Serif" font-size="10.00">get_variable_value</text>
</a>
</g>
</g>
<!-- Node3&#45;&gt;Node4 -->
<g id="edge3" class="edge">
<title>Node3&#45;&gt;Node4</title>
<path fill="none" stroke="#63b8ff" d="M347.31,-42.79C394.55,-39.81 460.82,-35.64 509.51,-32.57"/>
<polygon fill="#63b8ff" stroke="#63b8ff" points="509.86,-36.05 519.62,-31.93 509.42,-29.07 509.86,-36.05"/>
</g>
<!-- Node3&#45;&gt;Node6 -->
<g id="edge5" class="edge">
<title>Node3&#45;&gt;Node6</title>
<path fill="none" stroke="#63b8ff" d="M324.84,-56.09C343.58,-61.04 366.64,-67.12 386.61,-72.39"/>
<polygon fill="#63b8ff" stroke="#63b8ff" points="385.86,-75.81 396.42,-74.98 387.65,-69.04 385.86,-75.81"/>
</g>
<!-- Node5 -->
<g id="node5" class="node">
<title>Node5</title>
<g id="a_node5"><a xlink:href="get__variable_8c.html#a569170390f0edf013bf89c26ef55ea8c" target="_top" xlink:title=" ">
<polygon fill="white" stroke="#666666" points="774.5,-29 697.5,-29 697.5,-10 774.5,-10 774.5,-29"/>
<text text-anchor="middle" x="736" y="-17" font-family="Helvetica,sans-Serif" font-size="10.00">get_variable</text>
</a>
</g>
</g>
<!-- Node4&#45;&gt;Node5 -->
<g id="edge4" class="edge">
<title>Node4&#45;&gt;Node5</title>
<path fill="none" stroke="#63b8ff" d="M630.27,-25.43C648.77,-24.38 669.31,-23.22 687.26,-22.2"/>
<polygon fill="#63b8ff" stroke="#63b8ff" points="687.7,-25.68 697.49,-21.62 687.31,-18.69 687.7,-25.68"/>
</g>
<!-- Node6&#45;&gt;Node4 -->
<g id="edge6" class="edge">
<title>Node6&#45;&gt;Node4</title>
<path fill="none" stroke="#63b8ff" d="M458.48,-74.87C481.18,-65.76 515.44,-52.01 540.77,-41.84"/>
<polygon fill="#63b8ff" stroke="#63b8ff" points="542.36,-44.97 550.33,-38 539.75,-38.48 542.36,-44.97"/>
</g>
<!-- Node7 -->
<g id="node7" class="node">
<title>Node7</title>
<g id="a_node7"><a xlink:href="set__variable_8c.html#a47afbd80fec3464fe83979a24adb4290" target="_top" xlink:title=" ">
<polygon fill="white" stroke="#666666" points="613.5,-98 536.5,-98 536.5,-79 613.5,-79 613.5,-98"/>
<text text-anchor="middle" x="575" y="-86" font-family="Helvetica,sans-Serif" font-size="10.00">set_variable</text>
</a>
</g>
</g>
<!-- Node6&#45;&gt;Node7 -->
<g id="edge7" class="edge">
<title>Node6&#45;&gt;Node7</title>
<path fill="none" stroke="#63b8ff" d="M484.08,-85.92C497.8,-86.32 512.67,-86.74 526.3,-87.13"/>
<polygon fill="#63b8ff" stroke="#63b8ff" points="526.33,-90.63 536.43,-87.42 526.53,-83.64 526.33,-90.63"/>
</g>
<!-- Node7&#45;&gt;Node5 -->
<g id="edge10" class="edge">
<title>Node7&#45;&gt;Node5</title>
<path fill="none" stroke="#63b8ff" d="M590.07,-78.99C607.3,-67.7 637.71,-48.98 666,-37.5 672.78,-34.75 680.11,-32.31 687.38,-30.18"/>
<polygon fill="#63b8ff" stroke="#63b8ff" points="688.47,-33.51 697.18,-27.48 686.61,-26.76 688.47,-33.51"/>
</g>
<!-- Node8 -->
<g id="node8" class="node">
<title>Node8</title>
<g id="a_node8"><a xlink:href="set__variable_8c.html#adebd93167a76f58c737bb4ee682da191" target="_top" xlink:title=" ">
<polygon fill="white" stroke="#666666" points="764,-66 708,-66 708,-47 764,-47 764,-66"/>
<text text-anchor="middle" x="736" y="-54" font-family="Helvetica,sans-Serif" font-size="10.00">fill_data</text>
</a>
</g>
</g>
<!-- Node7&#45;&gt;Node8 -->
<g id="edge8" class="edge">
<title>Node7&#45;&gt;Node8</title>
<path fill="none" stroke="#63b8ff" d="M613.68,-80.92C639.02,-75.82 672.29,-69.12 697.58,-64.03"/>
<polygon fill="#63b8ff" stroke="#63b8ff" points="698.43,-67.43 707.54,-62.03 697.05,-60.57 698.43,-67.43"/>
</g>
<!-- Node9 -->
<g id="node9" class="node">
<title>Node9</title>
<g id="a_node9"><a xlink:href="free__variable_8c.html#a6cfba30b5c98d6fa7663b6bc29fe01cc" target="_top" xlink:title=" ">
<polygon fill="white" stroke="#666666" points="776.5,-177 695.5,-177 695.5,-158 776.5,-158 776.5,-177"/>
<text text-anchor="middle" x="736" y="-165" font-family="Helvetica,sans-Serif" font-size="10.00">free_variable</text>
</a>
</g>
</g>
<!-- Node7&#45;&gt;Node9 -->
<g id="edge9" class="edge">
<title>Node7&#45;&gt;Node9</title>
<path fill="none" stroke="#63b8ff" d="M587.45,-98.18C603.84,-111.56 635.4,-135.63 666,-149.5 672.14,-152.28 678.78,-154.69 685.44,-156.77"/>
<polygon fill="#63b8ff" stroke="#63b8ff" points="684.58,-160.16 695.16,-159.57 686.52,-153.43 684.58,-160.16"/>
</g>
<!-- Node10 -->
<g id="node10" class="node">
<title>Node10</title>
<g id="a_node10"><a xlink:href="list_8h.html#a56c2e407458d3d071ab549938bc5a7c1" target="_top" xlink:title=" ">
<polygon fill="white" stroke="#666666" points="781.5,-140 690.5,-140 690.5,-121 781.5,-121 781.5,-140"/>
<text text-anchor="middle" x="736" y="-128" font-family="Helvetica,sans-Serif" font-size="10.00">my_add_to_list</text>
</a>
</g>
</g>
<!-- Node7&#45;&gt;Node10 -->
<g id="edge11" class="edge">
<title>Node7&#45;&gt;Node10</title>
<path fill="none" stroke="#63b8ff" d="M611.47,-98.01C628.03,-102.43 648.02,-107.76 666,-112.5 673.24,-114.41 680.91,-116.42 688.41,-118.38"/>
<polygon fill="#63b8ff" stroke="#63b8ff" points="687.55,-121.77 698.11,-120.92 689.32,-115 687.55,-121.77"/>
</g>
<!-- Node11 -->
<g id="node11" class="node">
<title>Node11</title>
<g id="a_node11"><a xlink:href="set__variable_8c.html#a9423ce83dff6e167d4168b47e91086f6" target="_top" xlink:title=" ">
<polygon fill="white" stroke="#666666" points="806,-103 666,-103 666,-84 806,-84 806,-103"/>
<text text-anchor="middle" x="736" y="-91" font-family="Helvetica,sans-Serif" font-size="10.00">update_existing_variable</text>
</a>
</g>
</g>
<!-- Node7&#45;&gt;Node11 -->
<g id="edge12" class="edge">
<title>Node7&#45;&gt;Node11</title>
<path fill="none" stroke="#63b8ff" d="M613.68,-89.68C626.37,-90.08 641.04,-90.55 655.7,-91.01"/>
<polygon fill="#63b8ff" stroke="#63b8ff" points="655.72,-94.51 665.82,-91.32 655.94,-87.51 655.72,-94.51"/>
</g>
<!-- Node12&#45;&gt;Node4 -->
<g id="edge15" class="edge">
<title>Node12&#45;&gt;Node4</title>
<path fill="none" stroke="#63b8ff" d="M325.53,-11.96C372.12,-15.06 452.89,-20.44 509.66,-24.22"/>
<polygon fill="#63b8ff" stroke="#63b8ff" points="509.76,-27.73 519.97,-24.9 510.22,-20.75 509.76,-27.73"/>
</g>
<!-- Node12&#45;&gt;Node6 -->
<g id="edge16" class="edge">
<title>Node12&#45;&gt;Node6</title>
<path fill="none" stroke="#63b8ff" d="M325.32,-19.04C332.65,-21.44 340.18,-24.26 347,-27.5 370.88,-38.84 395.76,-56.15 412.48,-68.72"/>
<polygon fill="#63b8ff" stroke="#63b8ff" points="410.37,-71.5 420.43,-74.8 414.62,-65.94 410.37,-71.5"/>
</g>
</g>
</svg>
        <g id="navigator" transform="translate(0 0)" fill="#404254">
                <rect fill="#f2f5e9" fill-opacity="0.5" stroke="#606060" stroke-width=".5" x="0" y="0" width="60" height="60"/>
                <use id="zoomplus" xlink:href="#zoomPlus" x="17" y="9" onmousedown="handleZoom(evt,'in')"/>
                <use id="zoomminus" xlink:href="#zoomMin" x="42" y="9" onmousedown="handleZoom(evt,'out')"/>
                <use id="reset" xlink:href="#resetDef" x="30" y="36" onmousedown="handleReset()"/>
                <g id="arrowUp" xlink:href="#dirArrow" transform="translate(30 24)" onmousedown="handlePan(0,-1)">
                  <use xlink:href="#rim" fill="#404040">
                        <set attributeName="fill" to="#808080" begin="arrowUp.mouseover" end="arrowUp.mouseout"/>
                  </use>
                  <path fill="none" stroke="white" stroke-width="1.5" d="M0,-3.0v7 M-2.5,-0.5L0,-3.0L2.5,-0.5"/>
                </g>
                <g id="arrowRight" xlink:href="#dirArrow" transform="rotate(90) translate(36 -43)" onmousedown="handlePan(1,0)">
                  <use xlink:href="#rim" fill="#404040">
                        <set attributeName="fill" to="#808080" begin="arrowRight.mouseover" end="arrowRight.mouseout"/>
                  </use>
                  <path fill="none" stroke="white" stroke-width="1.5" d="M0,-3.0v7 M-2.5,-0.5L0,-3.0L2.5,-0.5"/>
                </g>
                <g id="arrowDown" xlink:href="#dirArrow" transform="rotate(180) translate(-30 -48)" onmousedown="handlePan(0,1)">
                  <use xlink:href="#rim" fill="#404040">
                        <set attributeName="fill" to="#808080" begin="arrowDown.mouseover" end="arrowDown.mouseout"/>
                  </use>
                  <path fill="none" stroke="white" stroke-width="1.5" d="M0,-3.0v7 M-2.5,-0.5L0,-3.0L2.5,-0.5"/>
                </g>
                <g id="arrowLeft" xlink:href="#dirArrow" transform="rotate(270) translate(-36 17)" onmousedown="handlePan(-1,0)">
                  <use xlink:href="#rim" fill="#404040">
                        <set attributeName="fill" to="#808080" begin="arrowLeft.mouseover" end="arrowLeft.mouseout"/>
                  </use>
                  <path fill="none" stroke="white" stroke-width="1.5" d="M0,-3.0v7 M-2.5,-0.5L0,-3.0L2.5,-0.5"/>
                </g>
        </g>
        <svg viewBox="0 0 15 15" width="100%" height="30px" preserveAspectRatio="xMaxYMin meet">
         <g id="arrow_out" transform="scale(0.3 0.3)">
          <a xlink:href="builtins_8h_adb32d252d4e54d97bceed0e59c5dcc14_cgraph_org.svg" target="_base">
           <rect id="button" ry="5" rx="5" y="6" x="6" height="38" width="38"
                fill="#f2f5e9" fill-opacity="0.5" stroke="#606060" stroke-width="1.0"/>
           <path id="arrow"
             d="M 11.500037,31.436501 C 11.940474,20.09759 22.043105,11.32322 32.158766,21.979434 L 37.068811,17.246167 C 37.068811,17.246167 37.088388,32 37.088388,32 L 22.160133,31.978069 C 22.160133,31.978069 26.997745,27.140456 26.997745,27.140456 C 18.528582,18.264221 13.291696,25.230495 11.500037,31.436501 z"
             style="fill:#404040;"/>
          </a>
         </g>
        </svg>
</svg>
