<?xml version="1.0" encoding="UTF-8" standalone="no"?>
<!DOCTYPE svg PUBLIC "-//W3C//DTD SVG 1.1//EN"
 "http://www.w3.org/Graphics/SVG/1.1/DTD/svg11.dtd">
<!-- Generated by graphviz version 2.43.0 (0)
 -->
<!-- Title: src/builtins/builtin_where.c Pages: 1 -->
<svg width="529pt" height="203pt"
 viewBox="0.00 0.00 529.00 203.00" xmlns="http://www.w3.org/2000/svg" xmlns:xlink="http://www.w3.org/1999/xlink">
<g id="graph0" class="graph" transform="scale(1 1) rotate(0) translate(4 199)">
<title>src/builtins/builtin_where.c</title>
<!-- Node1 -->
<g id="node1" class="node">
<title>Node1</title>
<g id="a_node1"><a xlink:title=" ">
<polygon fill="#999999" stroke="#666666" points="286,-195 182,-195 182,-165 286,-165 286,-195"/>
<text text-anchor="start" x="190" y="-183" font-family="Helvetica,sans-Serif" font-size="10.00">src/builtins/builtin</text>
<text text-anchor="middle" x="234" y="-172" font-family="Helvetica,sans-Serif" font-size="10.00">_where.c</text>
</a>
</g>
</g>
<!-- Node2 -->
<g id="node2" class="node">
<title>Node2</title>
<g id="a_node2"><a xlink:href="env_8h.html" target="_top" xlink:title=" ">
<polygon fill="white" stroke="#666666" points="70.5,-129 27.5,-129 27.5,-110 70.5,-110 70.5,-129"/>
<text text-anchor="middle" x="49" y="-117" font-family="Helvetica,sans-Serif" font-size="10.00">env.h</text>
</a>
</g>
</g>
<!-- Node1&#45;&gt;Node2 -->
<g id="edge1" class="edge">
<title>Node1&#45;&gt;Node2</title>
<path fill="none" stroke="#63b8ff" d="M189.69,-164.99C155.88,-154.3 110.16,-139.84 80.14,-130.35"/>
<polygon fill="#63b8ff" stroke="#63b8ff" points="81.2,-127.01 70.61,-127.33 79.09,-133.68 81.2,-127.01"/>
</g>
<!-- Node4 -->
<g id="node4" class="node">
<title>Node4</title>
<g id="a_node4"><a xlink:title=" ">
<polygon fill="#e0e0e0" stroke="#999999" points="56,-19 0,-19 0,0 56,0 56,-19"/>
<text text-anchor="middle" x="28" y="-7" font-family="Helvetica,sans-Serif" font-size="10.00">stddef.h</text>
</a>
</g>
</g>
<!-- Node1&#45;&gt;Node4 -->
<g id="edge7" class="edge">
<title>Node1&#45;&gt;Node4</title>
<path fill="none" stroke="#63b8ff" d="M181.84,-174.22C124.84,-167.78 38.96,-154.13 19,-129 -3.9,-100.16 9.51,-53.93 19.73,-28.58"/>
<polygon fill="#63b8ff" stroke="#63b8ff" points="23.07,-29.67 23.8,-19.1 16.63,-26.91 23.07,-29.67"/>
</g>
<!-- Node5 -->
<g id="node5" class="node">
<title>Node5</title>
<g id="a_node5"><a xlink:href="misc_8h.html" target="_top" xlink:title=" ">
<polygon fill="white" stroke="#666666" points="157,-129 89,-129 89,-110 157,-110 157,-129"/>
<text text-anchor="middle" x="123" y="-117" font-family="Helvetica,sans-Serif" font-size="10.00">my/misc.h</text>
</a>
</g>
</g>
<!-- Node1&#45;&gt;Node5 -->
<g id="edge4" class="edge">
<title>Node1&#45;&gt;Node5</title>
<path fill="none" stroke="#63b8ff" d="M207.41,-164.99C189.55,-155.58 166.16,-143.24 148.52,-133.95"/>
<polygon fill="#63b8ff" stroke="#63b8ff" points="149.87,-130.71 139.39,-129.14 146.61,-136.9 149.87,-130.71"/>
</g>
<!-- Node6 -->
<g id="node6" class="node">
<title>Node6</title>
<g id="a_node6"><a xlink:href="shell_8h.html" target="_top" xlink:title=" ">
<polygon fill="white" stroke="#666666" points="224.5,-129 175.5,-129 175.5,-110 224.5,-110 224.5,-129"/>
<text text-anchor="middle" x="200" y="-117" font-family="Helvetica,sans-Serif" font-size="10.00">shell.h</text>
</a>
</g>
</g>
<!-- Node1&#45;&gt;Node6 -->
<g id="edge5" class="edge">
<title>Node1&#45;&gt;Node6</title>
<path fill="none" stroke="#63b8ff" d="M225.77,-164.84C221.09,-156.78 215.18,-146.62 210.2,-138.06"/>
<polygon fill="#63b8ff" stroke="#63b8ff" points="213.15,-136.15 205.09,-129.27 207.09,-139.67 213.15,-136.15"/>
</g>
<!-- Node7 -->
<g id="node7" class="node">
<title>Node7</title>
<g id="a_node7"><a xlink:title=" ">
<polygon fill="#e0e0e0" stroke="#999999" points="293,-129 243,-129 243,-110 293,-110 293,-129"/>
<text text-anchor="middle" x="268" y="-117" font-family="Helvetica,sans-Serif" font-size="10.00">stdio.h</text>
</a>
</g>
</g>
<!-- Node1&#45;&gt;Node7 -->
<g id="edge8" class="edge">
<title>Node1&#45;&gt;Node7</title>
<path fill="none" stroke="#63b8ff" d="M242.23,-164.84C246.91,-156.78 252.82,-146.62 257.8,-138.06"/>
<polygon fill="#63b8ff" stroke="#63b8ff" points="260.91,-139.67 262.91,-129.27 254.85,-136.15 260.91,-139.67"/>
</g>
<!-- Node8 -->
<g id="node8" class="node">
<title>Node8</title>
<g id="a_node8"><a xlink:title=" ">
<polygon fill="#e0e0e0" stroke="#999999" points="364.5,-129 311.5,-129 311.5,-110 364.5,-110 364.5,-129"/>
<text text-anchor="middle" x="338" y="-117" font-family="Helvetica,sans-Serif" font-size="10.00">string.h</text>
</a>
</g>
</g>
<!-- Node1&#45;&gt;Node8 -->
<g id="edge9" class="edge">
<title>Node1&#45;&gt;Node8</title>
<path fill="none" stroke="#63b8ff" d="M258.91,-164.99C275.49,-155.66 297.16,-143.47 313.63,-134.21"/>
<polygon fill="#63b8ff" stroke="#63b8ff" points="315.64,-137.09 322.64,-129.14 312.21,-130.99 315.64,-137.09"/>
</g>
<!-- Node9 -->
<g id="node9" class="node">
<title>Node9</title>
<g id="a_node9"><a xlink:title=" ">
<polygon fill="#e0e0e0" stroke="#999999" points="447,-129 383,-129 383,-110 447,-110 447,-129"/>
<text text-anchor="middle" x="415" y="-117" font-family="Helvetica,sans-Serif" font-size="10.00">sys/stat.h</text>
</a>
</g>
</g>
<!-- Node1&#45;&gt;Node9 -->
<g id="edge10" class="edge">
<title>Node1&#45;&gt;Node9</title>
<path fill="none" stroke="#63b8ff" d="M277.35,-164.99C308.32,-154.98 349.5,-141.67 378.73,-132.22"/>
<polygon fill="#63b8ff" stroke="#63b8ff" points="380.1,-135.46 388.53,-129.05 377.94,-128.8 380.1,-135.46"/>
</g>
<!-- Node10 -->
<g id="node10" class="node">
<title>Node10</title>
<g id="a_node10"><a xlink:title=" ">
<polygon fill="#e0e0e0" stroke="#999999" points="521,-129 465,-129 465,-110 521,-110 521,-129"/>
<text text-anchor="middle" x="493" y="-117" font-family="Helvetica,sans-Serif" font-size="10.00">unistd.h</text>
</a>
</g>
</g>
<!-- Node1&#45;&gt;Node10 -->
<g id="edge11" class="edge">
<title>Node1&#45;&gt;Node10</title>
<path fill="none" stroke="#63b8ff" d="M286.05,-167.34C328.85,-157.74 391.36,-143.69 454.93,-129.24"/>
<polygon fill="#63b8ff" stroke="#63b8ff" points="455.75,-132.64 464.72,-127.01 454.19,-125.81 455.75,-132.64"/>
</g>
<!-- Node3 -->
<g id="node3" class="node">
<title>Node3</title>
<g id="a_node3"><a xlink:href="list_8h.html" target="_top" xlink:title=" ">
<polygon fill="white" stroke="#666666" points="86.5,-74 27.5,-74 27.5,-55 86.5,-55 86.5,-74"/>
<text text-anchor="middle" x="57" y="-62" font-family="Helvetica,sans-Serif" font-size="10.00">my/list.h</text>
</a>
</g>
</g>
<!-- Node2&#45;&gt;Node3 -->
<g id="edge2" class="edge">
<title>Node2&#45;&gt;Node3</title>
<path fill="none" stroke="#63b8ff" d="M50.32,-109.75C51.37,-102.8 52.87,-92.85 54.19,-84.13"/>
<polygon fill="#63b8ff" stroke="#63b8ff" points="57.67,-84.5 55.7,-74.09 50.75,-83.45 57.67,-84.5"/>
</g>
<!-- Node3&#45;&gt;Node4 -->
<g id="edge3" class="edge">
<title>Node3&#45;&gt;Node4</title>
<path fill="none" stroke="#63b8ff" d="M52.21,-54.75C48.24,-47.49 42.47,-36.95 37.57,-27.98"/>
<polygon fill="#63b8ff" stroke="#63b8ff" points="40.57,-26.18 32.7,-19.09 34.43,-29.54 40.57,-26.18"/>
</g>
<!-- Node6&#45;&gt;Node3 -->
<g id="edge6" class="edge">
<title>Node6&#45;&gt;Node3</title>
<path fill="none" stroke="#63b8ff" d="M177.02,-109.98C153.5,-101.27 116.71,-87.63 90.06,-77.75"/>
<polygon fill="#63b8ff" stroke="#63b8ff" points="90.99,-74.36 80.39,-74.17 88.55,-80.93 90.99,-74.36"/>
</g>
</g>
</svg>
