<?xml version="1.0" encoding="UTF-8" standalone="no"?>
<!DOCTYPE svg PUBLIC "-//W3C//DTD SVG 1.1//EN"
 "http://www.w3.org/Graphics/SVG/1.1/DTD/svg11.dtd">
<!-- Generated by graphviz version 2.43.0 (0)
 -->
<!-- Title: builtin_set Pages: 1 -->
<!--zoomable 258 -->
<svg id="main" version="1.1" xmlns="http://www.w3.org/2000/svg" xmlns:xlink="http://www.w3.org/1999/xlink" xml:space="preserve" onload="init(evt)">
<style type="text/css"><![CDATA[
.edge:hover path { stroke: red; }
.edge:hover polygon { stroke: red; fill: red; }
]]></style>
<script type="text/javascript"><![CDATA[
var edges = document.getElementsByTagName('g');
if (edges && edges.length) {
  for (var i=0;i<edges.length;i++) {
    if (edges[i].id.substr(0,4)=='edge') {
      edges[i].setAttribute('class','edge');
    }
  }
}
]]></script>
        <defs>
                <circle id="rim" cx="0" cy="0" r="7"/>
                <circle id="rim2" cx="0" cy="0" r="3.5"/>
                <g id="zoomPlus">
                        <use xlink:href="#rim" fill="#404040">
                                <set attributeName="fill" to="#808080" begin="zoomplus.mouseover" end="zoomplus.mouseout"/>
                        </use>
                        <path d="M-4,0h8M0,-4v8" fill="none" stroke="white" stroke-width="1.5" pointer-events="none"/>
                </g>
                <g id="zoomMin">
                        <use xlink:href="#rim" fill="#404040">
                                <set attributeName="fill" to="#808080" begin="zoomminus.mouseover" end="zoomminus.mouseout"/>
                        </use>
                        <path d="M-4,0h8" fill="none" stroke="white" stroke-width="1.5" pointer-events="none"/>
                </g>
                <g id="dirArrow">
                        <path fill="none" stroke="white" stroke-width="1.5" d="M0,-3.0v7 M-2.5,-0.5L0,-3.0L2.5,-0.5"/>
                </g>
               <g id="resetDef">
                       <use xlink:href="#rim2" fill="#404040">
                               <set attributeName="fill" to="#808080" begin="reset.mouseover" end="reset.mouseout"/>
                       </use>
               </g>
        </defs>

<script type="text/javascript">
var viewWidth = 517;
var viewHeight = 258;
var sectionId = 'dynsection-6';
</script>
<script xlink:href="svgpan.js"/>
<svg id="graph" class="graph">
<g id="viewport">
<title>builtin_set</title>
<!-- Node1 -->
<g id="node1" class="node">
<title>Node1</title>
<g id="a_node1"><a xlink:title=" ">
<polygon fill="#999999" stroke="#666666" points="68,-194 0,-194 0,-175 68,-175 68,-194"/>
<text text-anchor="middle" x="34" y="-182" font-family="Helvetica,sans-Serif" font-size="10.00">builtin_set</text>
</a>
</g>
</g>
<!-- Node2 -->
<g id="node2" class="node">
<title>Node2</title>
<g id="a_node2"><a xlink:href="set_8c.html#a6467a25797589a1f6fb62033cce024fe" target="_top" xlink:title=" ">
<polygon fill="white" stroke="#666666" points="193,-213 104,-213 104,-194 193,-194 193,-213"/>
<text text-anchor="middle" x="148.5" y="-201" font-family="Helvetica,sans-Serif" font-size="10.00">print_variables</text>
</a>
</g>
</g>
<!-- Node1&#45;&gt;Node2 -->
<g id="edge1" class="edge">
<title>Node1&#45;&gt;Node2</title>
<path fill="none" stroke="#63b8ff" d="M68.15,-190.1C76.16,-191.45 84.93,-192.93 93.62,-194.4"/>
<polygon fill="#63b8ff" stroke="#63b8ff" points="93.3,-197.9 103.74,-196.11 94.47,-190.99 93.3,-197.9"/>
</g>
<!-- Node5 -->
<g id="node5" class="node">
<title>Node5</title>
<g id="a_node5"><a xlink:href="set_8c.html#aed9b4599317e67f294424f8aa844d170" target="_top" xlink:title=" ">
<polygon fill="white" stroke="#666666" points="192,-176 105,-176 105,-157 192,-157 192,-176"/>
<text text-anchor="middle" x="148.5" y="-164" font-family="Helvetica,sans-Serif" font-size="10.00">set_single_var</text>
</a>
</g>
</g>
<!-- Node1&#45;&gt;Node5 -->
<g id="edge4" class="edge">
<title>Node1&#45;&gt;Node5</title>
<path fill="none" stroke="#63b8ff" d="M68.15,-179.2C76.53,-177.86 85.74,-176.38 94.82,-174.93"/>
<polygon fill="#63b8ff" stroke="#63b8ff" points="95.66,-178.34 104.98,-173.3 94.55,-171.43 95.66,-178.34"/>
</g>
<!-- Node3 -->
<g id="node3" class="node">
<title>Node3</title>
<g id="a_node3"><a xlink:href="set_8c.html#a770ef0787b2aefb1b2f2382ccf987dfc" target="_top" xlink:title=" ">
<polygon fill="white" stroke="#666666" points="333,-250 229,-250 229,-231 333,-231 333,-250"/>
<text text-anchor="middle" x="281" y="-238" font-family="Helvetica,sans-Serif" font-size="10.00">compare_variable</text>
</a>
</g>
</g>
<!-- Node2&#45;&gt;Node3 -->
<g id="edge2" class="edge">
<title>Node2&#45;&gt;Node3</title>
<path fill="none" stroke="#63b8ff" d="M183.11,-213.03C199.27,-217.61 218.85,-223.16 236.16,-228.07"/>
<polygon fill="#63b8ff" stroke="#63b8ff" points="235.48,-231.51 246.05,-230.88 237.39,-224.78 235.48,-231.51"/>
</g>
<!-- Node4 -->
<g id="node4" class="node">
<title>Node4</title>
<g id="a_node4"><a xlink:href="list_8h.html#af1ee79b1370855f2ed03327c00b80dad" target="_top" xlink:title=" ">
<polygon fill="white" stroke="#666666" points="319.5,-213 242.5,-213 242.5,-194 319.5,-194 319.5,-213"/>
<text text-anchor="middle" x="281" y="-201" font-family="Helvetica,sans-Serif" font-size="10.00">my_sort_list</text>
</a>
</g>
</g>
<!-- Node2&#45;&gt;Node4 -->
<g id="edge3" class="edge">
<title>Node2&#45;&gt;Node4</title>
<path fill="none" stroke="#63b8ff" d="M193.32,-203.5C205.7,-203.5 219.23,-203.5 231.85,-203.5"/>
<polygon fill="#63b8ff" stroke="#63b8ff" points="232.19,-207 242.19,-203.5 232.19,-200 232.19,-207"/>
</g>
<!-- Node6 -->
<g id="node6" class="node">
<title>Node6</title>
<g id="a_node6"><a xlink:href="set_8c.html#a77842871e8edab4e2678cd8292233275" target="_top" xlink:title=" ">
<polygon fill="white" stroke="#666666" points="324.5,-176 237.5,-176 237.5,-157 324.5,-157 324.5,-176"/>
<text text-anchor="middle" x="281" y="-164" font-family="Helvetica,sans-Serif" font-size="10.00">is_valid_name</text>
</a>
</g>
</g>
<!-- Node5&#45;&gt;Node6 -->
<g id="edge5" class="edge">
<title>Node5&#45;&gt;Node6</title>
<path fill="none" stroke="#63b8ff" d="M192.23,-166.5C203.38,-166.5 215.54,-166.5 227.15,-166.5"/>
<polygon fill="#63b8ff" stroke="#63b8ff" points="227.17,-170 237.17,-166.5 227.17,-163 227.17,-170"/>
</g>
<!-- Node8 -->
<g id="node8" class="node">
<title>Node8</title>
<g id="a_node8"><a xlink:href="set__variable_8c.html#a47afbd80fec3464fe83979a24adb4290" target="_top" xlink:title=" ">
<polygon fill="white" stroke="#666666" points="319.5,-111 242.5,-111 242.5,-92 319.5,-92 319.5,-111"/>
<text text-anchor="middle" x="281" y="-99" font-family="Helvetica,sans-Serif" font-size="10.00">set_variable</text>
</a>
</g>
</g>
<!-- Node5&#45;&gt;Node8 -->
<g id="edge7" class="edge">
<title>Node5&#45;&gt;Node8</title>
<path fill="none" stroke="#63b8ff" d="M168.76,-156.91C190.63,-146.01 226.55,-128.12 251.63,-115.63"/>
<polygon fill="#63b8ff" stroke="#63b8ff" points="253.27,-118.72 260.67,-111.13 250.15,-112.46 253.27,-118.72"/>
</g>
<!-- Node7 -->
<g id="node7" class="node">
<title>Node7</title>
<g id="a_node7"><a xlink:href="strings_8h.html#adfd4fc057d3b7ad39c6867928cc44175" target="_top" xlink:title=" ">
<polygon fill="white" stroke="#666666" points="480.5,-204 397.5,-204 397.5,-185 480.5,-185 480.5,-204"/>
<text text-anchor="middle" x="439" y="-192" font-family="Helvetica,sans-Serif" font-size="10.00">my_isnumber</text>
</a>
</g>
</g>
<!-- Node6&#45;&gt;Node7 -->
<g id="edge6" class="edge">
<title>Node6&#45;&gt;Node7</title>
<path fill="none" stroke="#63b8ff" d="M324.63,-174.15C344,-177.63 367.06,-181.77 387.31,-185.4"/>
<polygon fill="#63b8ff" stroke="#63b8ff" points="386.84,-188.87 397.31,-187.2 388.08,-181.98 386.84,-188.87"/>
</g>
<!-- Node9 -->
<g id="node9" class="node">
<title>Node9</title>
<g id="a_node9"><a xlink:href="set__variable_8c.html#adebd93167a76f58c737bb4ee682da191" target="_top" xlink:title=" ">
<polygon fill="white" stroke="#666666" points="467,-167 411,-167 411,-148 467,-148 467,-167"/>
<text text-anchor="middle" x="439" y="-155" font-family="Helvetica,sans-Serif" font-size="10.00">fill_data</text>
</a>
</g>
</g>
<!-- Node8&#45;&gt;Node9 -->
<g id="edge8" class="edge">
<title>Node8&#45;&gt;Node9</title>
<path fill="none" stroke="#63b8ff" d="M301.69,-111.16C319.1,-119.44 345.33,-131.3 369,-139.5 379.28,-143.06 390.64,-146.3 401.12,-149.02"/>
<polygon fill="#63b8ff" stroke="#63b8ff" points="400.29,-152.42 410.84,-151.46 401.99,-145.63 400.29,-152.42"/>
</g>
<!-- Node10 -->
<g id="node10" class="node">
<title>Node10</title>
<g id="a_node10"><a xlink:href="free__variable_8c.html#a6cfba30b5c98d6fa7663b6bc29fe01cc" target="_top" xlink:title=" ">
<polygon fill="white" stroke="#666666" points="479.5,-130 398.5,-130 398.5,-111 479.5,-111 479.5,-130"/>
<text text-anchor="middle" x="439" y="-118" font-family="Helvetica,sans-Serif" font-size="10.00">free_variable</text>
</a>
</g>
</g>
<!-- Node8&#45;&gt;Node10 -->
<g id="edge9" class="edge">
<title>Node8&#45;&gt;Node10</title>
<path fill="none" stroke="#63b8ff" d="M319.76,-106.1C340.41,-108.61 366.23,-111.76 388.47,-114.47"/>
<polygon fill="#63b8ff" stroke="#63b8ff" points="388.06,-117.94 398.41,-115.68 388.9,-110.99 388.06,-117.94"/>
</g>
<!-- Node11 -->
<g id="node11" class="node">
<title>Node11</title>
<g id="a_node11"><a xlink:href="get__variable_8c.html#a569170390f0edf013bf89c26ef55ea8c" target="_top" xlink:title=" ">
<polygon fill="white" stroke="#666666" points="477.5,-93 400.5,-93 400.5,-74 477.5,-74 477.5,-93"/>
<text text-anchor="middle" x="439" y="-81" font-family="Helvetica,sans-Serif" font-size="10.00">get_variable</text>
</a>
</g>
</g>
<!-- Node8&#45;&gt;Node11 -->
<g id="edge10" class="edge">
<title>Node8&#45;&gt;Node11</title>
<path fill="none" stroke="#63b8ff" d="M319.76,-97.14C340.95,-94.7 367.6,-91.62 390.23,-89.01"/>
<polygon fill="#63b8ff" stroke="#63b8ff" points="390.78,-92.47 400.31,-87.85 389.98,-85.52 390.78,-92.47"/>
</g>
<!-- Node12 -->
<g id="node12" class="node">
<title>Node12</title>
<g id="a_node12"><a xlink:href="list_8h.html#a56c2e407458d3d071ab549938bc5a7c1" target="_top" xlink:title=" ">
<polygon fill="white" stroke="#666666" points="484.5,-56 393.5,-56 393.5,-37 484.5,-37 484.5,-56"/>
<text text-anchor="middle" x="439" y="-44" font-family="Helvetica,sans-Serif" font-size="10.00">my_add_to_list</text>
</a>
</g>
</g>
<!-- Node8&#45;&gt;Node12 -->
<g id="edge11" class="edge">
<title>Node8&#45;&gt;Node12</title>
<path fill="none" stroke="#63b8ff" d="M303.17,-91.88C320.61,-84.16 346.12,-73.35 369,-65.5 375.87,-63.14 383.2,-60.87 390.42,-58.77"/>
<polygon fill="#63b8ff" stroke="#63b8ff" points="391.47,-62.11 400.14,-56.02 389.57,-55.37 391.47,-62.11"/>
</g>
<!-- Node13 -->
<g id="node13" class="node">
<title>Node13</title>
<g id="a_node13"><a xlink:href="set__variable_8c.html#a9423ce83dff6e167d4168b47e91086f6" target="_top" xlink:title=" ">
<polygon fill="white" stroke="#666666" points="509,-19 369,-19 369,0 509,0 509,-19"/>
<text text-anchor="middle" x="439" y="-7" font-family="Helvetica,sans-Serif" font-size="10.00">update_existing_variable</text>
</a>
</g>
</g>
<!-- Node8&#45;&gt;Node13 -->
<g id="edge12" class="edge">
<title>Node8&#45;&gt;Node13</title>
<path fill="none" stroke="#63b8ff" d="M290.67,-91.93C305.32,-76.36 336.53,-45.55 369,-28.5 373.31,-26.24 377.92,-24.22 382.63,-22.43"/>
<polygon fill="#63b8ff" stroke="#63b8ff" points="384.08,-25.63 392.39,-19.06 381.8,-19.02 384.08,-25.63"/>
</g>
</g>
</svg>
        <g id="navigator" transform="translate(0 0)" fill="#404254">
                <rect fill="#f2f5e9" fill-opacity="0.5" stroke="#606060" stroke-width=".5" x="0" y="0" width="60" height="60"/>
                <use id="zoomplus" xlink:href="#zoomPlus" x="17" y="9" onmousedown="handleZoom(evt,'in')"/>
                <use id="zoomminus" xlink:href="#zoomMin" x="42" y="9" onmousedown="handleZoom(evt,'out')"/>
                <use id="reset" xlink:href="#resetDef" x="30" y="36" onmousedown="handleReset()"/>
                <g id="arrowUp" xlink:href="#dirArrow" transform="translate(30 24)" onmousedown="handlePan(0,-1)">
                  <use xlink:href="#rim" fill="#404040">
                        <set attributeName="fill" to="#808080" begin="arrowUp.mouseover" end="arrowUp.mouseout"/>
                  </use>
                  <path fill="none" stroke="white" stroke-width="1.5" d="M0,-3.0v7 M-2.5,-0.5L0,-3.0L2.5,-0.5"/>
                </g>
                <g id="arrowRight" xlink:href="#dirArrow" transform="rotate(90) translate(36 -43)" onmousedown="handlePan(1,0)">
                  <use xlink:href="#rim" fill="#404040">
                        <set attributeName="fill" to="#808080" begin="arrowRight.mouseover" end="arrowRight.mouseout"/>
                  </use>
                  <path fill="none" stroke="white" stroke-width="1.5" d="M0,-3.0v7 M-2.5,-0.5L0,-3.0L2.5,-0.5"/>
                </g>
                <g id="arrowDown" xlink:href="#dirArrow" transform="rotate(180) translate(-30 -48)" onmousedown="handlePan(0,1)">
                  <use xlink:href="#rim" fill="#404040">
                        <set attributeName="fill" to="#808080" begin="arrowDown.mouseover" end="arrowDown.mouseout"/>
                  </use>
                  <path fill="none" stroke="white" stroke-width="1.5" d="M0,-3.0v7 M-2.5,-0.5L0,-3.0L2.5,-0.5"/>
                </g>
                <g id="arrowLeft" xlink:href="#dirArrow" transform="rotate(270) translate(-36 17)" onmousedown="handlePan(-1,0)">
                  <use xlink:href="#rim" fill="#404040">
                        <set attributeName="fill" to="#808080" begin="arrowLeft.mouseover" end="arrowLeft.mouseout"/>
                  </use>
                  <path fill="none" stroke="white" stroke-width="1.5" d="M0,-3.0v7 M-2.5,-0.5L0,-3.0L2.5,-0.5"/>
                </g>
        </g>
        <svg viewBox="0 0 15 15" width="100%" height="30px" preserveAspectRatio="xMaxYMin meet">
         <g id="arrow_out" transform="scale(0.3 0.3)">
          <a xlink:href="builtins_8h_a333a59f8b967f76f2ca22188602096d5_cgraph_org.svg" target="_base">
           <rect id="button" ry="5" rx="5" y="6" x="6" height="38" width="38"
                fill="#f2f5e9" fill-opacity="0.5" stroke="#606060" stroke-width="1.0"/>
           <path id="arrow"
             d="M 11.500037,31.436501 C 11.940474,20.09759 22.043105,11.32322 32.158766,21.979434 L 37.068811,17.246167 C 37.068811,17.246167 37.088388,32 37.088388,32 L 22.160133,31.978069 C 22.160133,31.978069 26.997745,27.140456 26.997745,27.140456 C 18.528582,18.264221 13.291696,25.230495 11.500037,31.436501 z"
             style="fill:#404040;"/>
          </a>
         </g>
        </svg>
</svg>
