<?xml version="1.0" encoding="UTF-8" standalone="no"?>
<!DOCTYPE svg PUBLIC "-//W3C//DTD SVG 1.1//EN"
 "http://www.w3.org/Graphics/SVG/1.1/DTD/svg11.dtd">
<!-- Generated by graphviz version 2.43.0 (0)
 -->
<!-- Title: builtin_alias Pages: 1 -->
<svg width="519pt" height="223pt"
 viewBox="0.00 0.00 519.00 223.00" xmlns="http://www.w3.org/2000/svg" xmlns:xlink="http://www.w3.org/1999/xlink">
<g id="graph0" class="graph" transform="scale(1 1) rotate(0) translate(4 219)">
<title>builtin_alias</title>
<!-- Node1 -->
<g id="node1" class="node">
<title>Node1</title>
<g id="a_node1"><a xlink:title=" ">
<polygon fill="#999999" stroke="#666666" points="76,-177 0,-177 0,-158 76,-158 76,-177"/>
<text text-anchor="middle" x="38" y="-165" font-family="Helvetica,sans-Serif" font-size="10.00">builtin_alias</text>
</a>
</g>
</g>
<!-- Node2 -->
<g id="node2" class="node">
<title>Node2</title>
<g id="a_node2"><a xlink:href="alias_8c.html#af48e7d404ddc91fa510d15c617d26d47" target="_top" xlink:title=" ">
<polygon fill="white" stroke="#666666" points="208,-215 112,-215 112,-196 208,-196 208,-215"/>
<text text-anchor="middle" x="160" y="-203" font-family="Helvetica,sans-Serif" font-size="10.00">print_all_aliases</text>
</a>
</g>
</g>
<!-- Node1&#45;&gt;Node2 -->
<g id="edge1" class="edge">
<title>Node1&#45;&gt;Node2</title>
<path fill="none" stroke="#63b8ff" d="M69.28,-177.09C84.35,-181.86 102.75,-187.69 118.97,-192.82"/>
<polygon fill="#63b8ff" stroke="#63b8ff" points="118.14,-196.23 128.73,-195.91 120.25,-189.56 118.14,-196.23"/>
</g>
<!-- Node3 -->
<g id="node3" class="node">
<title>Node3</title>
<g id="a_node3"><a xlink:href="alias_8c.html#a2b2a0434d14e4e66d76ba527839e1659" target="_top" xlink:title=" ">
<polygon fill="white" stroke="#666666" points="335,-195 244,-195 244,-176 335,-176 335,-195"/>
<text text-anchor="middle" x="289.5" y="-183" font-family="Helvetica,sans-Serif" font-size="10.00">print_one_alias</text>
</a>
</g>
</g>
<!-- Node1&#45;&gt;Node3 -->
<g id="edge2" class="edge">
<title>Node1&#45;&gt;Node3</title>
<path fill="none" stroke="#63b8ff" d="M76.08,-170.18C117.69,-173.18 185.61,-178.08 233.42,-181.53"/>
<polygon fill="#63b8ff" stroke="#63b8ff" points="233.38,-185.03 243.61,-182.26 233.88,-178.05 233.38,-185.03"/>
</g>
<!-- Node5 -->
<g id="node5" class="node">
<title>Node5</title>
<g id="a_node5"><a xlink:href="alias_8c.html#a5cfac86cda393d536b4aaf088bffe5a3" target="_top" xlink:title=" ">
<polygon fill="white" stroke="#666666" points="190,-130 130,-130 130,-111 190,-111 190,-130"/>
<text text-anchor="middle" x="160" y="-118" font-family="Helvetica,sans-Serif" font-size="10.00">set_alias</text>
</a>
</g>
</g>
<!-- Node1&#45;&gt;Node5 -->
<g id="edge4" class="edge">
<title>Node1&#45;&gt;Node5</title>
<path fill="none" stroke="#63b8ff" d="M63.28,-157.99C80.98,-151.06 105.19,-141.58 124.83,-133.88"/>
<polygon fill="#63b8ff" stroke="#63b8ff" points="126.31,-137.06 134.34,-130.16 123.75,-130.55 126.31,-137.06"/>
</g>
<!-- Node4 -->
<g id="node4" class="node">
<title>Node4</title>
<g id="a_node4"><a xlink:href="get__variable_8c.html#a569170390f0edf013bf89c26ef55ea8c" target="_top" xlink:title=" ">
<polygon fill="white" stroke="#666666" points="479.5,-204 402.5,-204 402.5,-185 479.5,-185 479.5,-204"/>
<text text-anchor="middle" x="441" y="-192" font-family="Helvetica,sans-Serif" font-size="10.00">get_variable</text>
</a>
</g>
</g>
<!-- Node3&#45;&gt;Node4 -->
<g id="edge3" class="edge">
<title>Node3&#45;&gt;Node4</title>
<path fill="none" stroke="#63b8ff" d="M335.35,-188.2C353.27,-189.28 373.93,-190.52 392.13,-191.62"/>
<polygon fill="#63b8ff" stroke="#63b8ff" points="392.05,-195.12 402.24,-192.23 392.47,-188.13 392.05,-195.12"/>
</g>
<!-- Node6 -->
<g id="node6" class="node">
<title>Node6</title>
<g id="a_node6"><a xlink:href="alias_8c.html#a4330d7c013188691a57fe23812b975df" target="_top" xlink:title=" ">
<polygon fill="white" stroke="#666666" points="320,-56 259,-56 259,-37 320,-37 320,-56"/>
<text text-anchor="middle" x="289.5" y="-44" font-family="Helvetica,sans-Serif" font-size="10.00">join_args</text>
</a>
</g>
</g>
<!-- Node5&#45;&gt;Node6 -->
<g id="edge5" class="edge">
<title>Node5&#45;&gt;Node6</title>
<path fill="none" stroke="#63b8ff" d="M177.41,-110.98C199.09,-98.39 237.52,-76.09 263,-61.3"/>
<polygon fill="#63b8ff" stroke="#63b8ff" points="264.86,-64.27 271.75,-56.22 261.34,-58.21 264.86,-64.27"/>
</g>
<!-- Node8 -->
<g id="node8" class="node">
<title>Node8</title>
<g id="a_node8"><a xlink:href="set__variable_8c.html#a47afbd80fec3464fe83979a24adb4290" target="_top" xlink:title=" ">
<polygon fill="white" stroke="#666666" points="328,-130 251,-130 251,-111 328,-111 328,-130"/>
<text text-anchor="middle" x="289.5" y="-118" font-family="Helvetica,sans-Serif" font-size="10.00">set_variable</text>
</a>
</g>
</g>
<!-- Node5&#45;&gt;Node8 -->
<g id="edge7" class="edge">
<title>Node5&#45;&gt;Node8</title>
<path fill="none" stroke="#63b8ff" d="M190.25,-120.5C205.11,-120.5 223.54,-120.5 240.41,-120.5"/>
<polygon fill="#63b8ff" stroke="#63b8ff" points="240.67,-124 250.67,-120.5 240.67,-117 240.67,-124"/>
</g>
<!-- Node7 -->
<g id="node7" class="node">
<title>Node7</title>
<g id="a_node7"><a xlink:href="strings_8h.html#a5e1589f073ac32d227dbc6020c376dab" target="_top" xlink:title=" ">
<polygon fill="white" stroke="#666666" points="491.5,-19 390.5,-19 390.5,0 491.5,0 491.5,-19"/>
<text text-anchor="middle" x="441" y="-7" font-family="Helvetica,sans-Serif" font-size="10.00">append_to_buffer</text>
</a>
</g>
</g>
<!-- Node6&#45;&gt;Node7 -->
<g id="edge6" class="edge">
<title>Node6&#45;&gt;Node7</title>
<path fill="none" stroke="#63b8ff" d="M320.04,-39.19C340.44,-34.14 368.04,-27.31 391.62,-21.47"/>
<polygon fill="#63b8ff" stroke="#63b8ff" points="392.58,-24.84 401.45,-19.04 390.9,-18.05 392.58,-24.84"/>
</g>
<!-- Node8&#45;&gt;Node4 -->
<g id="edge10" class="edge">
<title>Node8&#45;&gt;Node4</title>
<path fill="none" stroke="#63b8ff" d="M301.45,-130.03C316.26,-142.45 343.94,-164.04 371,-176.5 377.73,-179.6 385.08,-182.23 392.39,-184.45"/>
<polygon fill="#63b8ff" stroke="#63b8ff" points="391.71,-187.89 402.28,-187.21 393.59,-181.15 391.71,-187.89"/>
</g>
<!-- Node9 -->
<g id="node9" class="node">
<title>Node9</title>
<g id="a_node9"><a xlink:href="set__variable_8c.html#adebd93167a76f58c737bb4ee682da191" target="_top" xlink:title=" ">
<polygon fill="white" stroke="#666666" points="469,-93 413,-93 413,-74 469,-74 469,-93"/>
<text text-anchor="middle" x="441" y="-81" font-family="Helvetica,sans-Serif" font-size="10.00">fill_data</text>
</a>
</g>
</g>
<!-- Node8&#45;&gt;Node9 -->
<g id="edge8" class="edge">
<title>Node8&#45;&gt;Node9</title>
<path fill="none" stroke="#63b8ff" d="M328.23,-111.16C351.03,-105.52 379.98,-98.35 402.71,-92.73"/>
<polygon fill="#63b8ff" stroke="#63b8ff" points="403.8,-96.06 412.67,-90.26 402.12,-89.27 403.8,-96.06"/>
</g>
<!-- Node10 -->
<g id="node10" class="node">
<title>Node10</title>
<g id="a_node10"><a xlink:href="free__variable_8c.html#a6cfba30b5c98d6fa7663b6bc29fe01cc" target="_top" xlink:title=" ">
<polygon fill="white" stroke="#666666" points="481.5,-56 400.5,-56 400.5,-37 481.5,-37 481.5,-56"/>
<text text-anchor="middle" x="441" y="-44" font-family="Helvetica,sans-Serif" font-size="10.00">free_variable</text>
</a>
</g>
</g>
<!-- Node8&#45;&gt;Node10 -->
<g id="edge9" class="edge">
<title>Node8&#45;&gt;Node10</title>
<path fill="none" stroke="#63b8ff" d="M301.76,-111C316.69,-98.84 344.28,-77.89 371,-65.5 377.13,-62.66 383.78,-60.16 390.44,-58"/>
<polygon fill="#63b8ff" stroke="#63b8ff" points="391.59,-61.31 400.15,-55.06 389.57,-54.61 391.59,-61.31"/>
</g>
<!-- Node11 -->
<g id="node11" class="node">
<title>Node11</title>
<g id="a_node11"><a xlink:href="list_8h.html#a56c2e407458d3d071ab549938bc5a7c1" target="_top" xlink:title=" ">
<polygon fill="white" stroke="#666666" points="486.5,-167 395.5,-167 395.5,-148 486.5,-148 486.5,-167"/>
<text text-anchor="middle" x="441" y="-155" font-family="Helvetica,sans-Serif" font-size="10.00">my_add_to_list</text>
</a>
</g>
</g>
<!-- Node8&#45;&gt;Node11 -->
<g id="edge11" class="edge">
<title>Node8&#45;&gt;Node11</title>
<path fill="none" stroke="#63b8ff" d="M328.23,-129.84C347.48,-134.6 371.12,-140.45 391.69,-145.54"/>
<polygon fill="#63b8ff" stroke="#63b8ff" points="390.96,-148.97 401.51,-147.97 392.64,-142.17 390.96,-148.97"/>
</g>
<!-- Node12 -->
<g id="node12" class="node">
<title>Node12</title>
<g id="a_node12"><a xlink:href="set__variable_8c.html#a9423ce83dff6e167d4168b47e91086f6" target="_top" xlink:title=" ">
<polygon fill="white" stroke="#666666" points="511,-130 371,-130 371,-111 511,-111 511,-130"/>
<text text-anchor="middle" x="441" y="-118" font-family="Helvetica,sans-Serif" font-size="10.00">update_existing_variable</text>
</a>
</g>
</g>
<!-- Node8&#45;&gt;Node12 -->
<g id="edge12" class="edge">
<title>Node8&#45;&gt;Node12</title>
<path fill="none" stroke="#63b8ff" d="M328.23,-120.5C338.16,-120.5 349.26,-120.5 360.51,-120.5"/>
<polygon fill="#63b8ff" stroke="#63b8ff" points="360.84,-124 370.84,-120.5 360.84,-117 360.84,-124"/>
</g>
</g>
</svg>
