<?xml version="1.0" encoding="UTF-8" standalone="no"?>
<!DOCTYPE svg PUBLIC "-//W3C//DTD SVG 1.1//EN"
 "http://www.w3.org/Graphics/SVG/1.1/DTD/svg11.dtd">
<!-- Generated by graphviz version 2.43.0 (0)
 -->
<!-- Title: include/builtins.h Pages: 1 -->
<svg width="506pt" height="93pt"
 viewBox="0.00 0.00 506.00 93.00" xmlns="http://www.w3.org/2000/svg" xmlns:xlink="http://www.w3.org/1999/xlink">
<g id="graph0" class="graph" transform="scale(1 1) rotate(0) translate(4 89)">
<title>include/builtins.h</title>
<!-- Node1 -->
<g id="node1" class="node">
<title>Node1</title>
<g id="a_node1"><a xlink:title=" ">
<polygon fill="#999999" stroke="#666666" points="294.5,-85 194.5,-85 194.5,-66 294.5,-66 294.5,-85"/>
<text text-anchor="middle" x="244.5" y="-73" font-family="Helvetica,sans-Serif" font-size="10.00">include/builtins.h</text>
</a>
</g>
</g>
<!-- Node2 -->
<g id="node2" class="node">
<title>Node2</title>
<g id="a_node2"><a xlink:href="builtins_8c.html" target="_top" xlink:title=" ">
<polygon fill="white" stroke="#666666" points="117,-24.5 0,-24.5 0,-5.5 117,-5.5 117,-24.5"/>
<text text-anchor="middle" x="58.5" y="-12.5" font-family="Helvetica,sans-Serif" font-size="10.00">src/builtins/builtins.c</text>
</a>
</g>
</g>
<!-- Node1&#45;&gt;Node2 -->
<g id="edge1" class="edge">
<title>Node1&#45;&gt;Node2</title>
<path fill="none" stroke="#63b8ff" d="M207.82,-62.96C171.84,-51.65 117.83,-34.66 85.58,-24.52"/>
<polygon fill="#63b8ff" stroke="#63b8ff" points="206.86,-66.33 217.45,-65.99 208.96,-59.65 206.86,-66.33"/>
</g>
<!-- Node3 -->
<g id="node3" class="node">
<title>Node3</title>
<g id="a_node3"><a xlink:href="set_8c.html" target="_top" xlink:title=" ">
<polygon fill="white" stroke="#666666" points="231.5,-24.5 135.5,-24.5 135.5,-5.5 231.5,-5.5 231.5,-24.5"/>
<text text-anchor="middle" x="183.5" y="-12.5" font-family="Helvetica,sans-Serif" font-size="10.00">src/builtins/set.c</text>
</a>
</g>
</g>
<!-- Node1&#45;&gt;Node3 -->
<g id="edge2" class="edge">
<title>Node1&#45;&gt;Node3</title>
<path fill="none" stroke="#63b8ff" d="M228.24,-58.91C216.8,-47.94 201.92,-33.67 192.54,-24.67"/>
<polygon fill="#63b8ff" stroke="#63b8ff" points="225.86,-61.47 235.5,-65.87 230.7,-56.42 225.86,-61.47"/>
</g>
<!-- Node4 -->
<g id="node4" class="node">
<title>Node4</title>
<g id="a_node4"><a xlink:href="setenv_8c.html" target="_top" xlink:title=" ">
<polygon fill="white" stroke="#666666" points="363,-24.5 250,-24.5 250,-5.5 363,-5.5 363,-24.5"/>
<text text-anchor="middle" x="306.5" y="-12.5" font-family="Helvetica,sans-Serif" font-size="10.00">src/builtins/setenv.c</text>
</a>
</g>
</g>
<!-- Node1&#45;&gt;Node4 -->
<g id="edge3" class="edge">
<title>Node1&#45;&gt;Node4</title>
<path fill="none" stroke="#63b8ff" d="M261.02,-58.91C272.65,-47.94 287.78,-33.67 297.31,-24.67"/>
<polygon fill="#63b8ff" stroke="#63b8ff" points="258.52,-56.46 253.65,-65.87 263.32,-61.55 258.52,-56.46"/>
</g>
<!-- Node5 -->
<g id="node5" class="node">
<title>Node5</title>
<g id="a_node5"><a xlink:href="execute__cmd_8c.html" target="_top" xlink:title=" ">
<polygon fill="white" stroke="#666666" points="498,-30 381,-30 381,0 498,0 498,-30"/>
<text text-anchor="start" x="389" y="-18" font-family="Helvetica,sans-Serif" font-size="10.00">src/executer/execute</text>
<text text-anchor="middle" x="439.5" y="-7" font-family="Helvetica,sans-Serif" font-size="10.00">_cmd.c</text>
</a>
</g>
</g>
<!-- Node1&#45;&gt;Node5 -->
<g id="edge4" class="edge">
<title>Node1&#45;&gt;Node5</title>
<path fill="none" stroke="#63b8ff" d="M282.58,-63.08C314.07,-53.63 358.92,-40.17 392.62,-30.06"/>
<polygon fill="#63b8ff" stroke="#63b8ff" points="281.43,-59.77 272.85,-65.99 283.44,-66.47 281.43,-59.77"/>
</g>
</g>
</svg>
