<?xml version="1.0" encoding="UTF-8" standalone="no"?>
<!DOCTYPE svg PUBLIC "-//W3C//DTD SVG 1.1//EN"
 "http://www.w3.org/Graphics/SVG/1.1/DTD/svg11.dtd">
<!-- Generated by graphviz version 2.43.0 (0)
 -->
<!-- Title: builtin_env Pages: 1 -->
<svg width="210pt" height="45pt"
 viewBox="0.00 0.00 210.00 45.00" xmlns="http://www.w3.org/2000/svg" xmlns:xlink="http://www.w3.org/1999/xlink">
<g id="graph0" class="graph" transform="scale(1 1) rotate(0) translate(4 41)">
<title>builtin_env</title>
<!-- Node1 -->
<g id="node1" class="node">
<title>Node1</title>
<g id="a_node1"><a xlink:title=" ">
<polygon fill="#999999" stroke="#666666" points="71,-19 0,-19 0,0 71,0 71,-19"/>
<text text-anchor="middle" x="35.5" y="-7" font-family="Helvetica,sans-Serif" font-size="10.00">builtin_env</text>
</a>
</g>
</g>
<!-- Node2 -->
<g id="node2" class="node">
<title>Node2</title>
<g id="a_node2"><a xlink:href="env_8c.html#aef91d33d342b49da847717668120e706" target="_top" xlink:title=" ">
<polygon fill="white" stroke="#666666" points="202,-19 107,-19 107,0 202,0 202,-19"/>
<text text-anchor="middle" x="154.5" y="-7" font-family="Helvetica,sans-Serif" font-size="10.00">print_in_reverse</text>
</a>
</g>
</g>
<!-- Node1&#45;&gt;Node2 -->
<g id="edge1" class="edge">
<title>Node1&#45;&gt;Node2</title>
<path fill="none" stroke="#63b8ff" d="M71.29,-9.5C79.32,-9.5 88.08,-9.5 96.78,-9.5"/>
<polygon fill="#63b8ff" stroke="#63b8ff" points="96.93,-13 106.93,-9.5 96.93,-6 96.93,-13"/>
</g>
<!-- Node2&#45;&gt;Node2 -->
<g id="edge2" class="edge">
<title>Node2&#45;&gt;Node2</title>
<path fill="none" stroke="#63b8ff" d="M136.31,-19.08C127.46,-27.73 133.53,-37 154.5,-37 167.61,-37 174.89,-33.38 176.35,-28.55"/>
<polygon fill="#63b8ff" stroke="#63b8ff" points="179.56,-27.15 172.69,-19.08 173.03,-29.67 179.56,-27.15"/>
</g>
</g>
</svg>
