<?xml version="1.0" encoding="UTF-8" standalone="no"?>
<!DOCTYPE svg PUBLIC "-//W3C//DTD SVG 1.1//EN"
 "http://www.w3.org/Graphics/SVG/1.1/DTD/svg11.dtd">
<!-- Generated by graphviz version 2.43.0 (0)
 -->
<!-- Title: include/builtins.h Pages: 1 -->
<!--zoomable 93 -->
<svg id="main" version="1.1" xmlns="http://www.w3.org/2000/svg" xmlns:xlink="http://www.w3.org/1999/xlink" xml:space="preserve" onload="init(evt)">
<style type="text/css"><![CDATA[
.edge:hover path { stroke: red; }
.edge:hover polygon { stroke: red; fill: red; }
]]></style>
<script type="text/javascript"><![CDATA[
var edges = document.getElementsByTagName('g');
if (edges && edges.length) {
  for (var i=0;i<edges.length;i++) {
    if (edges[i].id.substr(0,4)=='edge') {
      edges[i].setAttribute('class','edge');
    }
  }
}
]]></script>
        <defs>
                <circle id="rim" cx="0" cy="0" r="7"/>
                <circle id="rim2" cx="0" cy="0" r="3.5"/>
                <g id="zoomPlus">
                        <use xlink:href="#rim" fill="#404040">
                                <set attributeName="fill" to="#808080" begin="zoomplus.mouseover" end="zoomplus.mouseout"/>
                        </use>
                        <path d="M-4,0h8M0,-4v8" fill="none" stroke="white" stroke-width="1.5" pointer-events="none"/>
                </g>
                <g id="zoomMin">
                        <use xlink:href="#rim" fill="#404040">
                                <set attributeName="fill" to="#808080" begin="zoomminus.mouseover" end="zoomminus.mouseout"/>
                        </use>
                        <path d="M-4,0h8" fill="none" stroke="white" stroke-width="1.5" pointer-events="none"/>
                </g>
                <g id="dirArrow">
                        <path fill="none" stroke="white" stroke-width="1.5" d="M0,-3.0v7 M-2.5,-0.5L0,-3.0L2.5,-0.5"/>
                </g>
               <g id="resetDef">
                       <use xlink:href="#rim2" fill="#404040">
                               <set attributeName="fill" to="#808080" begin="reset.mouseover" end="reset.mouseout"/>
                       </use>
               </g>
        </defs>

<script type="text/javascript">
var viewWidth = 993;
var viewHeight = 93;
var sectionId = 'dynsection-1';
</script>
<script xlink:href="svgpan.js"/>
<svg id="graph" class="graph">
<g id="viewport">
<title>include/builtins.h</title>
<!-- Node1 -->
<g id="node1" class="node">
<title>Node1</title>
<g id="a_node1"><a xlink:title=" ">
<polygon fill="#999999" stroke="#666666" points="523,-85 423,-85 423,-66 523,-66 523,-85"/>
<text text-anchor="middle" x="473" y="-73" font-family="Helvetica,sans-Serif" font-size="10.00">include/builtins.h</text>
</a>
</g>
</g>
<!-- Node2 -->
<g id="node2" class="node">
<title>Node2</title>
<g id="a_node2"><a xlink:href="alias_8c.html" target="_top" xlink:title=" ">
<polygon fill="white" stroke="#666666" points="96,-30 0,-30 0,0 96,0 96,-30"/>
<text text-anchor="start" x="8" y="-18" font-family="Helvetica,sans-Serif" font-size="10.00">src/builtins/alias</text>
<text text-anchor="middle" x="48" y="-7" font-family="Helvetica,sans-Serif" font-size="10.00">/alias.c</text>
</a>
</g>
</g>
<!-- Node1&#45;&gt;Node2 -->
<g id="edge1" class="edge">
<title>Node1&#45;&gt;Node2</title>
<path fill="none" stroke="#63b8ff" d="M412.3,-69.42C339.08,-62.77 212.41,-49.61 105,-30 102.09,-29.47 99.11,-28.88 96.11,-28.25"/>
<polygon fill="#63b8ff" stroke="#63b8ff" points="412.44,-72.95 422.71,-70.35 413.07,-65.97 412.44,-72.95"/>
</g>
<!-- Node3 -->
<g id="node3" class="node">
<title>Node3</title>
<g id="a_node3"><a xlink:href="unalias_8c.html" target="_top" xlink:title=" ">
<polygon fill="white" stroke="#666666" points="210,-30 114,-30 114,0 210,0 210,-30"/>
<text text-anchor="start" x="122" y="-18" font-family="Helvetica,sans-Serif" font-size="10.00">src/builtins/alias</text>
<text text-anchor="middle" x="162" y="-7" font-family="Helvetica,sans-Serif" font-size="10.00">/unalias.c</text>
</a>
</g>
</g>
<!-- Node1&#45;&gt;Node3 -->
<g id="edge2" class="edge">
<title>Node1&#45;&gt;Node3</title>
<path fill="none" stroke="#63b8ff" d="M412.7,-65.11C361.1,-56.8 284.92,-43.85 219,-30 216.11,-29.39 213.14,-28.74 210.15,-28.07"/>
<polygon fill="#63b8ff" stroke="#63b8ff" points="412.26,-68.58 422.69,-66.71 413.37,-61.67 412.26,-68.58"/>
</g>
<!-- Node4 -->
<g id="node4" class="node">
<title>Node4</title>
<g id="a_node4"><a xlink:href="builtins_8c.html" target="_top" xlink:title=" ">
<polygon fill="white" stroke="#666666" points="345.5,-24.5 228.5,-24.5 228.5,-5.5 345.5,-5.5 345.5,-24.5"/>
<text text-anchor="middle" x="287" y="-12.5" font-family="Helvetica,sans-Serif" font-size="10.00">src/builtins/builtins.c</text>
</a>
</g>
</g>
<!-- Node1&#45;&gt;Node4 -->
<g id="edge3" class="edge">
<title>Node1&#45;&gt;Node4</title>
<path fill="none" stroke="#63b8ff" d="M436.32,-62.96C400.34,-51.65 346.33,-34.66 314.08,-24.52"/>
<polygon fill="#63b8ff" stroke="#63b8ff" points="435.36,-66.33 445.95,-65.99 437.46,-59.65 435.36,-66.33"/>
</g>
<!-- Node5 -->
<g id="node5" class="node">
<title>Node5</title>
<g id="a_node5"><a xlink:href="set_8c.html" target="_top" xlink:title=" ">
<polygon fill="white" stroke="#666666" points="460,-24.5 364,-24.5 364,-5.5 460,-5.5 460,-24.5"/>
<text text-anchor="middle" x="412" y="-12.5" font-family="Helvetica,sans-Serif" font-size="10.00">src/builtins/set.c</text>
</a>
</g>
</g>
<!-- Node1&#45;&gt;Node5 -->
<g id="edge4" class="edge">
<title>Node1&#45;&gt;Node5</title>
<path fill="none" stroke="#63b8ff" d="M456.74,-58.91C445.3,-47.94 430.42,-33.67 421.04,-24.67"/>
<polygon fill="#63b8ff" stroke="#63b8ff" points="454.36,-61.47 464,-65.87 459.2,-56.42 454.36,-61.47"/>
</g>
<!-- Node6 -->
<g id="node6" class="node">
<title>Node6</title>
<g id="a_node6"><a xlink:href="setenv_8c.html" target="_top" xlink:title=" ">
<polygon fill="white" stroke="#666666" points="591.5,-24.5 478.5,-24.5 478.5,-5.5 591.5,-5.5 591.5,-24.5"/>
<text text-anchor="middle" x="535" y="-12.5" font-family="Helvetica,sans-Serif" font-size="10.00">src/builtins/setenv.c</text>
</a>
</g>
</g>
<!-- Node1&#45;&gt;Node6 -->
<g id="edge5" class="edge">
<title>Node1&#45;&gt;Node6</title>
<path fill="none" stroke="#63b8ff" d="M489.52,-58.91C501.15,-47.94 516.28,-33.67 525.81,-24.67"/>
<polygon fill="#63b8ff" stroke="#63b8ff" points="487.02,-56.46 482.15,-65.87 491.82,-61.55 487.02,-56.46"/>
</g>
<!-- Node7 -->
<g id="node7" class="node">
<title>Node7</title>
<g id="a_node7"><a xlink:href="where_8c.html" target="_top" xlink:title=" ">
<polygon fill="white" stroke="#666666" points="720.5,-24.5 609.5,-24.5 609.5,-5.5 720.5,-5.5 720.5,-24.5"/>
<text text-anchor="middle" x="665" y="-12.5" font-family="Helvetica,sans-Serif" font-size="10.00">src/builtins/where.c</text>
</a>
</g>
</g>
<!-- Node1&#45;&gt;Node7 -->
<g id="edge6" class="edge">
<title>Node1&#45;&gt;Node7</title>
<path fill="none" stroke="#63b8ff" d="M510.87,-62.96C548,-51.65 603.76,-34.66 637.05,-24.52"/>
<polygon fill="#63b8ff" stroke="#63b8ff" points="509.46,-59.73 500.92,-65.99 511.5,-66.43 509.46,-59.73"/>
</g>
<!-- Node8 -->
<g id="node8" class="node">
<title>Node8</title>
<g id="a_node8"><a xlink:href="which_8c.html" target="_top" xlink:title=" ">
<polygon fill="white" stroke="#666666" points="849,-24.5 739,-24.5 739,-5.5 849,-5.5 849,-24.5"/>
<text text-anchor="middle" x="794" y="-12.5" font-family="Helvetica,sans-Serif" font-size="10.00">src/builtins/which.c</text>
</a>
</g>
</g>
<!-- Node1&#45;&gt;Node8 -->
<g id="edge7" class="edge">
<title>Node1&#45;&gt;Node8</title>
<path fill="none" stroke="#63b8ff" d="M533.44,-64.8C585.61,-56.25 662.93,-43.14 730,-30 738.48,-28.34 747.57,-26.43 756.15,-24.57"/>
<polygon fill="#63b8ff" stroke="#63b8ff" points="532.65,-61.39 523.35,-66.45 533.78,-68.29 532.65,-61.39"/>
</g>
<!-- Node9 -->
<g id="node9" class="node">
<title>Node9</title>
<g id="a_node9"><a xlink:href="execute__cmd_8c.html" target="_top" xlink:title=" ">
<polygon fill="white" stroke="#666666" points="984.5,-30 867.5,-30 867.5,0 984.5,0 984.5,-30"/>
<text text-anchor="start" x="875.5" y="-18" font-family="Helvetica,sans-Serif" font-size="10.00">src/executer/execute</text>
<text text-anchor="middle" x="926" y="-7" font-family="Helvetica,sans-Serif" font-size="10.00">_cmd.c</text>
</a>
</g>
</g>
<!-- Node1&#45;&gt;Node9 -->
<g id="edge8" class="edge">
<title>Node1&#45;&gt;Node9</title>
<path fill="none" stroke="#63b8ff" d="M533.36,-69.18C609.35,-62.1 743.79,-48.32 858,-30 861.09,-29.5 864.26,-28.96 867.45,-28.39"/>
<polygon fill="#63b8ff" stroke="#63b8ff" points="532.67,-65.73 523.03,-70.13 533.31,-72.7 532.67,-65.73"/>
</g>
</g>
</svg>
        <g id="navigator" transform="translate(0 0)" fill="#404254">
                <rect fill="#f2f5e9" fill-opacity="0.5" stroke="#606060" stroke-width=".5" x="0" y="0" width="60" height="60"/>
                <use id="zoomplus" xlink:href="#zoomPlus" x="17" y="9" onmousedown="handleZoom(evt,'in')"/>
                <use id="zoomminus" xlink:href="#zoomMin" x="42" y="9" onmousedown="handleZoom(evt,'out')"/>
                <use id="reset" xlink:href="#resetDef" x="30" y="36" onmousedown="handleReset()"/>
                <g id="arrowUp" xlink:href="#dirArrow" transform="translate(30 24)" onmousedown="handlePan(0,-1)">
                  <use xlink:href="#rim" fill="#404040">
                        <set attributeName="fill" to="#808080" begin="arrowUp.mouseover" end="arrowUp.mouseout"/>
                  </use>
                  <path fill="none" stroke="white" stroke-width="1.5" d="M0,-3.0v7 M-2.5,-0.5L0,-3.0L2.5,-0.5"/>
                </g>
                <g id="arrowRight" xlink:href="#dirArrow" transform="rotate(90) translate(36 -43)" onmousedown="handlePan(1,0)">
                  <use xlink:href="#rim" fill="#404040">
                        <set attributeName="fill" to="#808080" begin="arrowRight.mouseover" end="arrowRight.mouseout"/>
                  </use>
                  <path fill="none" stroke="white" stroke-width="1.5" d="M0,-3.0v7 M-2.5,-0.5L0,-3.0L2.5,-0.5"/>
                </g>
                <g id="arrowDown" xlink:href="#dirArrow" transform="rotate(180) translate(-30 -48)" onmousedown="handlePan(0,1)">
                  <use xlink:href="#rim" fill="#404040">
                        <set attributeName="fill" to="#808080" begin="arrowDown.mouseover" end="arrowDown.mouseout"/>
                  </use>
                  <path fill="none" stroke="white" stroke-width="1.5" d="M0,-3.0v7 M-2.5,-0.5L0,-3.0L2.5,-0.5"/>
                </g>
                <g id="arrowLeft" xlink:href="#dirArrow" transform="rotate(270) translate(-36 17)" onmousedown="handlePan(-1,0)">
                  <use xlink:href="#rim" fill="#404040">
                        <set attributeName="fill" to="#808080" begin="arrowLeft.mouseover" end="arrowLeft.mouseout"/>
                  </use>
                  <path fill="none" stroke="white" stroke-width="1.5" d="M0,-3.0v7 M-2.5,-0.5L0,-3.0L2.5,-0.5"/>
                </g>
        </g>
        <svg viewBox="0 0 15 15" width="100%" height="30px" preserveAspectRatio="xMaxYMin meet">
         <g id="arrow_out" transform="scale(0.3 0.3)">
          <a xlink:href="builtins_8h__dep__incl_org.svg" target="_base">
           <rect id="button" ry="5" rx="5" y="6" x="6" height="38" width="38"
                fill="#f2f5e9" fill-opacity="0.5" stroke="#606060" stroke-width="1.0"/>
           <path id="arrow"
             d="M 11.500037,31.436501 C 11.940474,20.09759 22.043105,11.32322 32.158766,21.979434 L 37.068811,17.246167 C 37.068811,17.246167 37.088388,32 37.088388,32 L 22.160133,31.978069 C 22.160133,31.978069 26.997745,27.140456 26.997745,27.140456 C 18.528582,18.264221 13.291696,25.230495 11.500037,31.436501 z"
             style="fill:#404040;"/>
          </a>
         </g>
        </svg>
</svg>
