<?xml version="1.0" encoding="UTF-8" standalone="no"?>
<!DOCTYPE svg PUBLIC "-//W3C//DTD SVG 1.1//EN"
 "http://www.w3.org/Graphics/SVG/1.1/DTD/svg11.dtd">
<!-- Generated by graphviz version 2.43.0 (0)
 -->
<!-- Title: include/builtins.h Pages: 1 -->
<svg width="735pt" height="93pt"
 viewBox="0.00 0.00 734.50 93.00" xmlns="http://www.w3.org/2000/svg" xmlns:xlink="http://www.w3.org/1999/xlink">
<g id="graph0" class="graph" transform="scale(1 1) rotate(0) translate(4 89)">
<title>include/builtins.h</title>
<!-- Node1 -->
<g id="node1" class="node">
<title>Node1</title>
<g id="a_node1"><a xlink:title=" ">
<polygon fill="#999999" stroke="#666666" points="399,-85 299,-85 299,-66 399,-66 399,-85"/>
<text text-anchor="middle" x="349" y="-73" font-family="Helvetica,sans-Serif" font-size="10.00">include/builtins.h</text>
</a>
</g>
</g>
<!-- Node2 -->
<g id="node2" class="node">
<title>Node2</title>
<g id="a_node2"><a xlink:href="alias_8c.html" target="_top" xlink:title=" ">
<polygon fill="white" stroke="#666666" points="96,-30 0,-30 0,0 96,0 96,-30"/>
<text text-anchor="start" x="8" y="-18" font-family="Helvetica,sans-Serif" font-size="10.00">src/builtins/alias</text>
<text text-anchor="middle" x="48" y="-7" font-family="Helvetica,sans-Serif" font-size="10.00">/alias.c</text>
</a>
</g>
</g>
<!-- Node1&#45;&gt;Node2 -->
<g id="edge1" class="edge">
<title>Node1&#45;&gt;Node2</title>
<path fill="none" stroke="#63b8ff" d="M288.92,-64.58C239.41,-56.16 167.44,-43.35 105,-30 102.11,-29.38 99.14,-28.72 96.15,-28.04"/>
<polygon fill="#63b8ff" stroke="#63b8ff" points="288.38,-68.04 298.82,-66.26 289.55,-61.14 288.38,-68.04"/>
</g>
<!-- Node3 -->
<g id="node3" class="node">
<title>Node3</title>
<g id="a_node3"><a xlink:href="unalias_8c.html" target="_top" xlink:title=" ">
<polygon fill="white" stroke="#666666" points="210,-30 114,-30 114,0 210,0 210,-30"/>
<text text-anchor="start" x="122" y="-18" font-family="Helvetica,sans-Serif" font-size="10.00">src/builtins/alias</text>
<text text-anchor="middle" x="162" y="-7" font-family="Helvetica,sans-Serif" font-size="10.00">/unalias.c</text>
</a>
</g>
</g>
<!-- Node1&#45;&gt;Node3 -->
<g id="edge2" class="edge">
<title>Node1&#45;&gt;Node3</title>
<path fill="none" stroke="#63b8ff" d="M312.09,-62.95C281.91,-53.51 239.13,-40.13 206.96,-30.06"/>
<polygon fill="#63b8ff" stroke="#63b8ff" points="311.22,-66.35 321.81,-65.99 313.31,-59.67 311.22,-66.35"/>
</g>
<!-- Node4 -->
<g id="node4" class="node">
<title>Node4</title>
<g id="a_node4"><a xlink:href="builtins_8c.html" target="_top" xlink:title=" ">
<polygon fill="white" stroke="#666666" points="345.5,-24.5 228.5,-24.5 228.5,-5.5 345.5,-5.5 345.5,-24.5"/>
<text text-anchor="middle" x="287" y="-12.5" font-family="Helvetica,sans-Serif" font-size="10.00">src/builtins/builtins.c</text>
</a>
</g>
</g>
<!-- Node1&#45;&gt;Node4 -->
<g id="edge3" class="edge">
<title>Node1&#45;&gt;Node4</title>
<path fill="none" stroke="#63b8ff" d="M332.48,-58.91C320.85,-47.94 305.72,-33.67 296.19,-24.67"/>
<polygon fill="#63b8ff" stroke="#63b8ff" points="330.18,-61.55 339.85,-65.87 334.98,-56.46 330.18,-61.55"/>
</g>
<!-- Node5 -->
<g id="node5" class="node">
<title>Node5</title>
<g id="a_node5"><a xlink:href="set_8c.html" target="_top" xlink:title=" ">
<polygon fill="white" stroke="#666666" points="460,-24.5 364,-24.5 364,-5.5 460,-5.5 460,-24.5"/>
<text text-anchor="middle" x="412" y="-12.5" font-family="Helvetica,sans-Serif" font-size="10.00">src/builtins/set.c</text>
</a>
</g>
</g>
<!-- Node1&#45;&gt;Node5 -->
<g id="edge4" class="edge">
<title>Node1&#45;&gt;Node5</title>
<path fill="none" stroke="#63b8ff" d="M365.79,-58.91C377.6,-47.94 392.97,-33.67 402.67,-24.67"/>
<polygon fill="#63b8ff" stroke="#63b8ff" points="363.24,-56.5 358.3,-65.87 368.01,-61.63 363.24,-56.5"/>
</g>
<!-- Node6 -->
<g id="node6" class="node">
<title>Node6</title>
<g id="a_node6"><a xlink:href="setenv_8c.html" target="_top" xlink:title=" ">
<polygon fill="white" stroke="#666666" points="591.5,-24.5 478.5,-24.5 478.5,-5.5 591.5,-5.5 591.5,-24.5"/>
<text text-anchor="middle" x="535" y="-12.5" font-family="Helvetica,sans-Serif" font-size="10.00">src/builtins/setenv.c</text>
</a>
</g>
</g>
<!-- Node1&#45;&gt;Node6 -->
<g id="edge5" class="edge">
<title>Node1&#45;&gt;Node6</title>
<path fill="none" stroke="#63b8ff" d="M385.68,-62.96C421.66,-51.65 475.67,-34.66 507.92,-24.52"/>
<polygon fill="#63b8ff" stroke="#63b8ff" points="384.54,-59.65 376.05,-65.99 386.64,-66.33 384.54,-59.65"/>
</g>
<!-- Node7 -->
<g id="node7" class="node">
<title>Node7</title>
<g id="a_node7"><a xlink:href="execute__cmd_8c.html" target="_top" xlink:title=" ">
<polygon fill="white" stroke="#666666" points="726.5,-30 609.5,-30 609.5,0 726.5,0 726.5,-30"/>
<text text-anchor="start" x="617.5" y="-18" font-family="Helvetica,sans-Serif" font-size="10.00">src/executer/execute</text>
<text text-anchor="middle" x="668" y="-7" font-family="Helvetica,sans-Serif" font-size="10.00">_cmd.c</text>
</a>
</g>
</g>
<!-- Node1&#45;&gt;Node7 -->
<g id="edge6" class="edge">
<title>Node1&#45;&gt;Node7</title>
<path fill="none" stroke="#63b8ff" d="M409.18,-64.42C460.29,-55.72 535.56,-42.61 601,-30 603.68,-29.48 606.43,-28.95 609.19,-28.4"/>
<polygon fill="#63b8ff" stroke="#63b8ff" points="408.56,-60.97 399.29,-66.09 409.73,-67.87 408.56,-60.97"/>
</g>
</g>
</svg>
