<?xml version="1.0" encoding="UTF-8" standalone="no"?>
<!DOCTYPE svg PUBLIC "-//W3C//DTD SVG 1.1//EN"
 "http://www.w3.org/Graphics/SVG/1.1/DTD/svg11.dtd">
<!-- Generated by graphviz version 2.43.0 (0)
 -->
<!-- Title: builtin_where Pages: 1 -->
<svg width="392pt" height="64pt"
 viewBox="0.00 0.00 392.00 64.00" xmlns="http://www.w3.org/2000/svg" xmlns:xlink="http://www.w3.org/1999/xlink">
<g id="graph0" class="graph" transform="scale(1 1) rotate(0) translate(4 60)">
<title>builtin_where</title>
<!-- Node1 -->
<g id="node1" class="node">
<title>Node1</title>
<g id="a_node1"><a xlink:title=" ">
<polygon fill="#999999" stroke="#666666" points="83,-37 0,-37 0,-18 83,-18 83,-37"/>
<text text-anchor="middle" x="41.5" y="-25" font-family="Helvetica,sans-Serif" font-size="10.00">builtin_where</text>
</a>
</g>
</g>
<!-- Node2 -->
<g id="node2" class="node">
<title>Node2</title>
<g id="a_node2"><a xlink:href="get__variable__value_8c.html#a2edd9900f19af236aa05385a789be3d6" target="_top" xlink:title=" ">
<polygon fill="white" stroke="#666666" points="229,-56 119,-56 119,-37 229,-37 229,-56"/>
<text text-anchor="middle" x="174" y="-44" font-family="Helvetica,sans-Serif" font-size="10.00">get_variable_value</text>
</a>
</g>
</g>
<!-- Node1&#45;&gt;Node2 -->
<g id="edge1" class="edge">
<title>Node1&#45;&gt;Node2</title>
<path fill="none" stroke="#63b8ff" d="M83.08,-33.41C91.14,-34.58 99.8,-35.84 108.44,-37.1"/>
<polygon fill="#63b8ff" stroke="#63b8ff" points="108.14,-40.59 118.54,-38.57 109.15,-33.67 108.14,-40.59"/>
</g>
<!-- Node4 -->
<g id="node4" class="node">
<title>Node4</title>
<g id="a_node4"><a xlink:href="where_8c.html#a94d4947090d54bad0734496509950909" target="_top" xlink:title=" ">
<polygon fill="white" stroke="#666666" points="220,-19 128,-19 128,0 220,0 220,-19"/>
<text text-anchor="middle" x="174" y="-7" font-family="Helvetica,sans-Serif" font-size="10.00">where_for_loop</text>
</a>
</g>
</g>
<!-- Node1&#45;&gt;Node4 -->
<g id="edge3" class="edge">
<title>Node1&#45;&gt;Node4</title>
<path fill="none" stroke="#63b8ff" d="M83.08,-21.9C94.07,-20.39 106.16,-18.72 117.82,-17.11"/>
<polygon fill="#63b8ff" stroke="#63b8ff" points="118.48,-20.55 127.9,-15.72 117.52,-13.62 118.48,-20.55"/>
</g>
<!-- Node3 -->
<g id="node3" class="node">
<title>Node3</title>
<g id="a_node3"><a xlink:href="get__variable_8c.html#a569170390f0edf013bf89c26ef55ea8c" target="_top" xlink:title=" ">
<polygon fill="white" stroke="#666666" points="363,-56 286,-56 286,-37 363,-37 363,-56"/>
<text text-anchor="middle" x="324.5" y="-44" font-family="Helvetica,sans-Serif" font-size="10.00">get_variable</text>
</a>
</g>
</g>
<!-- Node2&#45;&gt;Node3 -->
<g id="edge2" class="edge">
<title>Node2&#45;&gt;Node3</title>
<path fill="none" stroke="#63b8ff" d="M229.03,-46.5C244.11,-46.5 260.4,-46.5 275.13,-46.5"/>
<polygon fill="#63b8ff" stroke="#63b8ff" points="275.55,-50 285.55,-46.5 275.55,-43 275.55,-50"/>
</g>
<!-- Node5 -->
<g id="node5" class="node">
<title>Node5</title>
<g id="a_node5"><a xlink:href="where_8c.html#afe74be407677adceb5a27ad9171953b3" target="_top" xlink:title=" ">
<polygon fill="white" stroke="#666666" points="384,-19 265,-19 265,0 384,0 384,-19"/>
<text text-anchor="middle" x="324.5" y="-7" font-family="Helvetica,sans-Serif" font-size="10.00">try_command_where</text>
</a>
</g>
</g>
<!-- Node4&#45;&gt;Node5 -->
<g id="edge4" class="edge">
<title>Node4&#45;&gt;Node5</title>
<path fill="none" stroke="#63b8ff" d="M220.36,-9.5C231.25,-9.5 243.11,-9.5 254.8,-9.5"/>
<polygon fill="#63b8ff" stroke="#63b8ff" points="254.99,-13 264.99,-9.5 254.99,-6 254.99,-13"/>
</g>
</g>
</svg>
