<?xml version="1.0" encoding="UTF-8" standalone="no"?>
<!DOCTYPE svg PUBLIC "-//W3C//DTD SVG 1.1//EN"
 "http://www.w3.org/Graphics/SVG/1.1/DTD/svg11.dtd">
<!-- Generated by graphviz version 2.43.0 (0)
 -->
<!-- Title: builtin_which Pages: 1 -->
<svg width="389pt" height="64pt"
 viewBox="0.00 0.00 389.00 64.00" xmlns="http://www.w3.org/2000/svg" xmlns:xlink="http://www.w3.org/1999/xlink">
<g id="graph0" class="graph" transform="scale(1 1) rotate(0) translate(4 60)">
<title>builtin_which</title>
<!-- Node1 -->
<g id="node1" class="node">
<title>Node1</title>
<g id="a_node1"><a xlink:title=" ">
<polygon fill="#999999" stroke="#666666" points="81,-37 0,-37 0,-18 81,-18 81,-37"/>
<text text-anchor="middle" x="40.5" y="-25" font-family="Helvetica,sans-Serif" font-size="10.00">builtin_which</text>
</a>
</g>
</g>
<!-- Node2 -->
<g id="node2" class="node">
<title>Node2</title>
<g id="a_node2"><a xlink:href="get__variable__value_8c.html#a2edd9900f19af236aa05385a789be3d6" target="_top" xlink:title=" ">
<polygon fill="white" stroke="#666666" points="227,-56 117,-56 117,-37 227,-37 227,-56"/>
<text text-anchor="middle" x="172" y="-44" font-family="Helvetica,sans-Serif" font-size="10.00">get_variable_value</text>
</a>
</g>
</g>
<!-- Node1&#45;&gt;Node2 -->
<g id="edge1" class="edge">
<title>Node1&#45;&gt;Node2</title>
<path fill="none" stroke="#63b8ff" d="M81.06,-33.3C89.27,-34.51 98.13,-35.81 106.97,-37.1"/>
<polygon fill="#63b8ff" stroke="#63b8ff" points="106.5,-40.57 116.9,-38.56 107.51,-33.65 106.5,-40.57"/>
</g>
<!-- Node4 -->
<g id="node4" class="node">
<title>Node4</title>
<g id="a_node4"><a xlink:href="builtin__which_8c.html#a8d30718018945490092152fcdf16fd2f" target="_top" xlink:title=" ">
<polygon fill="white" stroke="#666666" points="217,-19 127,-19 127,0 217,0 217,-19"/>
<text text-anchor="middle" x="172" y="-7" font-family="Helvetica,sans-Serif" font-size="10.00">which_for_loop</text>
</a>
</g>
</g>
<!-- Node1&#45;&gt;Node4 -->
<g id="edge3" class="edge">
<title>Node1&#45;&gt;Node4</title>
<path fill="none" stroke="#63b8ff" d="M81.06,-22C92.33,-20.43 104.81,-18.7 116.8,-17.03"/>
<polygon fill="#63b8ff" stroke="#63b8ff" points="117.29,-20.5 126.71,-15.66 116.32,-13.57 117.29,-20.5"/>
</g>
<!-- Node3 -->
<g id="node3" class="node">
<title>Node3</title>
<g id="a_node3"><a xlink:href="get__variable_8c.html#a569170390f0edf013bf89c26ef55ea8c" target="_top" xlink:title=" ">
<polygon fill="white" stroke="#666666" points="360.5,-56 283.5,-56 283.5,-37 360.5,-37 360.5,-56"/>
<text text-anchor="middle" x="322" y="-44" font-family="Helvetica,sans-Serif" font-size="10.00">get_variable</text>
</a>
</g>
</g>
<!-- Node2&#45;&gt;Node3 -->
<g id="edge2" class="edge">
<title>Node2&#45;&gt;Node3</title>
<path fill="none" stroke="#63b8ff" d="M227.27,-46.5C242.27,-46.5 258.44,-46.5 273.06,-46.5"/>
<polygon fill="#63b8ff" stroke="#63b8ff" points="273.39,-50 283.39,-46.5 273.39,-43 273.39,-50"/>
</g>
<!-- Node5 -->
<g id="node5" class="node">
<title>Node5</title>
<g id="a_node5"><a xlink:href="builtin__which_8c.html#acfb494e7005a9ab26c1fd09c49ca8478" target="_top" xlink:title=" ">
<polygon fill="white" stroke="#666666" points="381,-19 263,-19 263,0 381,0 381,-19"/>
<text text-anchor="middle" x="322" y="-7" font-family="Helvetica,sans-Serif" font-size="10.00">try_command_which</text>
</a>
</g>
</g>
<!-- Node4&#45;&gt;Node5 -->
<g id="edge4" class="edge">
<title>Node4&#45;&gt;Node5</title>
<path fill="none" stroke="#63b8ff" d="M217,-9.5C228.25,-9.5 240.62,-9.5 252.77,-9.5"/>
<polygon fill="#63b8ff" stroke="#63b8ff" points="252.9,-13 262.9,-9.5 252.9,-6 252.9,-13"/>
</g>
</g>
</svg>
