<?xml version="1.0" encoding="UTF-8" standalone="no"?>
<!DOCTYPE svg PUBLIC "-//W3C//DTD SVG 1.1//EN"
 "http://www.w3.org/Graphics/SVG/1.1/DTD/svg11.dtd">
<!-- Generated by graphviz version 2.43.0 (0)
 -->
<!-- Title: builtin_unsetenv Pages: 1 -->
<svg width="365pt" height="64pt"
 viewBox="0.00 0.00 365.00 64.00" xmlns="http://www.w3.org/2000/svg" xmlns:xlink="http://www.w3.org/1999/xlink">
<g id="graph0" class="graph" transform="scale(1 1) rotate(0) translate(4 60)">
<title>builtin_unsetenv</title>
<!-- Node1 -->
<g id="node1" class="node">
<title>Node1</title>
<g id="a_node1"><a xlink:title=" ">
<polygon fill="#999999" stroke="#666666" points="98,-37 0,-37 0,-18 98,-18 98,-37"/>
<text text-anchor="middle" x="49" y="-25" font-family="Helvetica,sans-Serif" font-size="10.00">builtin_unsetenv</text>
</a>
</g>
</g>
<!-- Node2 -->
<g id="node2" class="node">
<title>Node2</title>
<g id="a_node2"><a xlink:href="unset__variable_8c.html#a34b0bca9c9d39075ac9572b3403c7afa" target="_top" xlink:title=" ">
<polygon fill="white" stroke="#666666" points="223,-37 134,-37 134,-18 223,-18 223,-37"/>
<text text-anchor="middle" x="178.5" y="-25" font-family="Helvetica,sans-Serif" font-size="10.00">unset_variable</text>
</a>
</g>
</g>
<!-- Node1&#45;&gt;Node2 -->
<g id="edge1" class="edge">
<title>Node1&#45;&gt;Node2</title>
<path fill="none" stroke="#63b8ff" d="M98.2,-27.5C106.52,-27.5 115.22,-27.5 123.68,-27.5"/>
<polygon fill="#63b8ff" stroke="#63b8ff" points="123.84,-31 133.84,-27.5 123.84,-24 123.84,-31"/>
</g>
<!-- Node3 -->
<g id="node3" class="node">
<title>Node3</title>
<g id="a_node3"><a xlink:href="free__variable_8c.html#a6cfba30b5c98d6fa7663b6bc29fe01cc" target="_top" xlink:title=" ">
<polygon fill="white" stroke="#666666" points="348.5,-56 267.5,-56 267.5,-37 348.5,-37 348.5,-56"/>
<text text-anchor="middle" x="308" y="-44" font-family="Helvetica,sans-Serif" font-size="10.00">free_variable</text>
</a>
</g>
</g>
<!-- Node2&#45;&gt;Node3 -->
<g id="edge2" class="edge">
<title>Node2&#45;&gt;Node3</title>
<path fill="none" stroke="#63b8ff" d="M223.02,-33.99C233.96,-35.62 245.78,-37.38 257,-39.05"/>
<polygon fill="#63b8ff" stroke="#63b8ff" points="256.7,-42.54 267.1,-40.55 257.73,-35.62 256.7,-42.54"/>
</g>
<!-- Node4 -->
<g id="node4" class="node">
<title>Node4</title>
<g id="a_node4"><a xlink:href="list_8h.html#a738b87770ea7d20a7e39c7d872b19705" target="_top" xlink:title=" ">
<polygon fill="white" stroke="#666666" points="357,-19 259,-19 259,0 357,0 357,-19"/>
<text text-anchor="middle" x="308" y="-7" font-family="Helvetica,sans-Serif" font-size="10.00">my_delete_node</text>
</a>
</g>
</g>
<!-- Node2&#45;&gt;Node4 -->
<g id="edge3" class="edge">
<title>Node2&#45;&gt;Node4</title>
<path fill="none" stroke="#63b8ff" d="M223.02,-21.36C231.32,-20.18 240.12,-18.94 248.79,-17.72"/>
<polygon fill="#63b8ff" stroke="#63b8ff" points="249.45,-21.16 258.87,-16.3 248.47,-14.23 249.45,-21.16"/>
</g>
</g>
</svg>
