<?xml version="1.0" encoding="UTF-8" standalone="no"?>
<!DOCTYPE svg PUBLIC "-//W3C//DTD SVG 1.1//EN"
 "http://www.w3.org/Graphics/SVG/1.1/DTD/svg11.dtd">
<!-- Generated by graphviz version 2.43.0 (0)
 -->
<!-- Title: cd_to_home Pages: 1 -->
<svg width="543pt" height="175pt"
 viewBox="0.00 0.00 543.00 175.00" xmlns="http://www.w3.org/2000/svg" xmlns:xlink="http://www.w3.org/1999/xlink">
<g id="graph0" class="graph" transform="scale(1 1) rotate(0) translate(4 171)">
<title>cd_to_home</title>
<!-- Node1 -->
<g id="node1" class="node">
<title>Node1</title>
<g id="a_node1"><a xlink:title=" ">
<polygon fill="#999999" stroke="#666666" points="76,-139 0,-139 0,-120 76,-120 76,-139"/>
<text text-anchor="middle" x="38" y="-127" font-family="Helvetica,sans-Serif" font-size="10.00">cd_to_home</text>
</a>
</g>
</g>
<!-- Node2 -->
<g id="node2" class="node">
<title>Node2</title>
<g id="a_node2"><a xlink:href="get__variable__value_8c.html#a2edd9900f19af236aa05385a789be3d6" target="_top" xlink:title=" ">
<polygon fill="white" stroke="#666666" points="359,-158 249,-158 249,-139 359,-139 359,-158"/>
<text text-anchor="middle" x="304" y="-146" font-family="Helvetica,sans-Serif" font-size="10.00">get_variable_value</text>
</a>
</g>
</g>
<!-- Node1&#45;&gt;Node2 -->
<g id="edge1" class="edge">
<title>Node1&#45;&gt;Node2</title>
<path fill="none" stroke="#63b8ff" d="M76.26,-132.18C118.42,-135.22 187.81,-140.21 238.74,-143.88"/>
<polygon fill="#63b8ff" stroke="#63b8ff" points="238.77,-147.39 248.99,-144.61 239.27,-140.4 238.77,-147.39"/>
</g>
<!-- Node4 -->
<g id="node4" class="node">
<title>Node4</title>
<g id="a_node4"><a xlink:href="cd_8c.html#a5f88b27ad31ff3809a0bdadac6e71207" target="_top" xlink:title=" ">
<polygon fill="white" stroke="#666666" points="213,-120 112,-120 112,-101 213,-101 213,-120"/>
<text text-anchor="middle" x="162.5" y="-108" font-family="Helvetica,sans-Serif" font-size="10.00">update_variables</text>
</a>
</g>
</g>
<!-- Node1&#45;&gt;Node4 -->
<g id="edge3" class="edge">
<title>Node1&#45;&gt;Node4</title>
<path fill="none" stroke="#63b8ff" d="M76.09,-123.75C84.27,-122.48 93.14,-121.1 101.97,-119.73"/>
<polygon fill="#63b8ff" stroke="#63b8ff" points="102.53,-123.19 111.87,-118.2 101.45,-116.27 102.53,-123.19"/>
</g>
<!-- Node3 -->
<g id="node3" class="node">
<title>Node3</title>
<g id="a_node3"><a xlink:href="get__variable_8c.html#a569170390f0edf013bf89c26ef55ea8c" target="_top" xlink:title=" ">
<polygon fill="white" stroke="#666666" points="503.5,-167 426.5,-167 426.5,-148 503.5,-148 503.5,-167"/>
<text text-anchor="middle" x="465" y="-155" font-family="Helvetica,sans-Serif" font-size="10.00">get_variable</text>
</a>
</g>
</g>
<!-- Node2&#45;&gt;Node3 -->
<g id="edge2" class="edge">
<title>Node2&#45;&gt;Node3</title>
<path fill="none" stroke="#63b8ff" d="M359.27,-151.57C377.77,-152.62 398.31,-153.78 416.26,-154.8"/>
<polygon fill="#63b8ff" stroke="#63b8ff" points="416.31,-158.31 426.49,-155.38 416.7,-151.32 416.31,-158.31"/>
</g>
<!-- Node4&#45;&gt;Node2 -->
<g id="edge4" class="edge">
<title>Node4&#45;&gt;Node2</title>
<path fill="none" stroke="#63b8ff" d="M198.7,-120.09C216.71,-124.99 238.83,-131.02 258.06,-136.26"/>
<polygon fill="#63b8ff" stroke="#63b8ff" points="257.24,-139.66 267.81,-138.91 259.08,-132.91 257.24,-139.66"/>
</g>
<!-- Node5 -->
<g id="node5" class="node">
<title>Node5</title>
<g id="a_node5"><a xlink:href="set__variable_8c.html#a47afbd80fec3464fe83979a24adb4290" target="_top" xlink:title=" ">
<polygon fill="white" stroke="#666666" points="342.5,-102 265.5,-102 265.5,-83 342.5,-83 342.5,-102"/>
<text text-anchor="middle" x="304" y="-90" font-family="Helvetica,sans-Serif" font-size="10.00">set_variable</text>
</a>
</g>
</g>
<!-- Node4&#45;&gt;Node5 -->
<g id="edge5" class="edge">
<title>Node4&#45;&gt;Node5</title>
<path fill="none" stroke="#63b8ff" d="M213.08,-104.1C226.8,-102.33 241.67,-100.41 255.3,-98.66"/>
<polygon fill="#63b8ff" stroke="#63b8ff" points="255.96,-102.1 265.43,-97.35 255.06,-95.16 255.96,-102.1"/>
</g>
<!-- Node5&#45;&gt;Node3 -->
<g id="edge8" class="edge">
<title>Node5&#45;&gt;Node3</title>
<path fill="none" stroke="#63b8ff" d="M320.75,-102.13C338.32,-112.53 367.86,-129.03 395,-139.5 401.83,-142.13 409.18,-144.51 416.46,-146.61"/>
<polygon fill="#63b8ff" stroke="#63b8ff" points="415.7,-150.03 426.27,-149.3 417.55,-143.28 415.7,-150.03"/>
</g>
<!-- Node6 -->
<g id="node6" class="node">
<title>Node6</title>
<g id="a_node6"><a xlink:href="set__variable_8c.html#adebd93167a76f58c737bb4ee682da191" target="_top" xlink:title=" ">
<polygon fill="white" stroke="#666666" points="493,-130 437,-130 437,-111 493,-111 493,-130"/>
<text text-anchor="middle" x="465" y="-118" font-family="Helvetica,sans-Serif" font-size="10.00">fill_data</text>
</a>
</g>
</g>
<!-- Node5&#45;&gt;Node6 -->
<g id="edge6" class="edge">
<title>Node5&#45;&gt;Node6</title>
<path fill="none" stroke="#63b8ff" d="M342.68,-99.14C368.02,-103.6 401.29,-109.46 426.58,-113.91"/>
<polygon fill="#63b8ff" stroke="#63b8ff" points="426.08,-117.38 436.54,-115.66 427.3,-110.48 426.08,-117.38"/>
</g>
<!-- Node7 -->
<g id="node7" class="node">
<title>Node7</title>
<g id="a_node7"><a xlink:href="free__variable_8c.html#a6cfba30b5c98d6fa7663b6bc29fe01cc" target="_top" xlink:title=" ">
<polygon fill="white" stroke="#666666" points="505.5,-93 424.5,-93 424.5,-74 505.5,-74 505.5,-93"/>
<text text-anchor="middle" x="465" y="-81" font-family="Helvetica,sans-Serif" font-size="10.00">free_variable</text>
</a>
</g>
</g>
<!-- Node5&#45;&gt;Node7 -->
<g id="edge7" class="edge">
<title>Node5&#45;&gt;Node7</title>
<path fill="none" stroke="#63b8ff" d="M342.68,-90.37C364.12,-89.15 391.23,-87.62 414.38,-86.31"/>
<polygon fill="#63b8ff" stroke="#63b8ff" points="414.58,-89.8 424.37,-85.74 414.19,-82.81 414.58,-89.8"/>
</g>
<!-- Node8 -->
<g id="node8" class="node">
<title>Node8</title>
<g id="a_node8"><a xlink:href="list_8h.html#a56c2e407458d3d071ab549938bc5a7c1" target="_top" xlink:title=" ">
<polygon fill="white" stroke="#666666" points="510.5,-56 419.5,-56 419.5,-37 510.5,-37 510.5,-56"/>
<text text-anchor="middle" x="465" y="-44" font-family="Helvetica,sans-Serif" font-size="10.00">my_add_to_list</text>
</a>
</g>
</g>
<!-- Node5&#45;&gt;Node8 -->
<g id="edge9" class="edge">
<title>Node5&#45;&gt;Node8</title>
<path fill="none" stroke="#63b8ff" d="M334.49,-82.95C352.01,-77.37 374.7,-70.3 395,-64.5 401.72,-62.58 408.83,-60.63 415.83,-58.76"/>
<polygon fill="#63b8ff" stroke="#63b8ff" points="417.18,-62.02 425.95,-56.09 415.39,-55.26 417.18,-62.02"/>
</g>
<!-- Node9 -->
<g id="node9" class="node">
<title>Node9</title>
<g id="a_node9"><a xlink:href="set__variable_8c.html#a9423ce83dff6e167d4168b47e91086f6" target="_top" xlink:title=" ">
<polygon fill="white" stroke="#666666" points="535,-19 395,-19 395,0 535,0 535,-19"/>
<text text-anchor="middle" x="465" y="-7" font-family="Helvetica,sans-Serif" font-size="10.00">update_existing_variable</text>
</a>
</g>
</g>
<!-- Node5&#45;&gt;Node9 -->
<g id="edge10" class="edge">
<title>Node5&#45;&gt;Node9</title>
<path fill="none" stroke="#63b8ff" d="M315.52,-82.86C331.52,-68.71 363.44,-42.37 395,-27.5 399.08,-25.58 403.39,-23.84 407.8,-22.27"/>
<polygon fill="#63b8ff" stroke="#63b8ff" points="409.09,-25.53 417.51,-19.1 406.92,-18.87 409.09,-25.53"/>
</g>
</g>
</svg>
