<?xml version="1.0" encoding="UTF-8" standalone="no"?>
<!DOCTYPE svg PUBLIC "-//W3C//DTD SVG 1.1//EN"
 "http://www.w3.org/Graphics/SVG/1.1/DTD/svg11.dtd">
<!-- Generated by graphviz version 2.43.0 (0)
 -->
<!-- Title: cd_to_directory Pages: 1 -->
<!--zoomable 175 -->
<svg id="main" version="1.1" xmlns="http://www.w3.org/2000/svg" xmlns:xlink="http://www.w3.org/1999/xlink" xml:space="preserve" onload="init(evt)">
<style type="text/css"><![CDATA[
.edge:hover path { stroke: red; }
.edge:hover polygon { stroke: red; fill: red; }
]]></style>
<script type="text/javascript"><![CDATA[
var edges = document.getElementsByTagName('g');
if (edges && edges.length) {
  for (var i=0;i<edges.length;i++) {
    if (edges[i].id.substr(0,4)=='edge') {
      edges[i].setAttribute('class','edge');
    }
  }
}
]]></script>
        <defs>
                <circle id="rim" cx="0" cy="0" r="7"/>
                <circle id="rim2" cx="0" cy="0" r="3.5"/>
                <g id="zoomPlus">
                        <use xlink:href="#rim" fill="#404040">
                                <set attributeName="fill" to="#808080" begin="zoomplus.mouseover" end="zoomplus.mouseout"/>
                        </use>
                        <path d="M-4,0h8M0,-4v8" fill="none" stroke="white" stroke-width="1.5" pointer-events="none"/>
                </g>
                <g id="zoomMin">
                        <use xlink:href="#rim" fill="#404040">
                                <set attributeName="fill" to="#808080" begin="zoomminus.mouseover" end="zoomminus.mouseout"/>
                        </use>
                        <path d="M-4,0h8" fill="none" stroke="white" stroke-width="1.5" pointer-events="none"/>
                </g>
                <g id="dirArrow">
                        <path fill="none" stroke="white" stroke-width="1.5" d="M0,-3.0v7 M-2.5,-0.5L0,-3.0L2.5,-0.5"/>
                </g>
               <g id="resetDef">
                       <use xlink:href="#rim2" fill="#404040">
                               <set attributeName="fill" to="#808080" begin="reset.mouseover" end="reset.mouseout"/>
                       </use>
               </g>
        </defs>

<script type="text/javascript">
var viewWidth = 714;
var viewHeight = 175;
var sectionId = 'dynsection-2';
</script>
<script xlink:href="svgpan.js"/>
<svg id="graph" class="graph">
<g id="viewport">
<title>cd_to_directory</title>
<!-- Node1 -->
<g id="node1" class="node">
<title>Node1</title>
<g id="a_node1"><a xlink:title=" ">
<polygon fill="#999999" stroke="#666666" points="92,-139 0,-139 0,-120 92,-120 92,-139"/>
<text text-anchor="middle" x="46" y="-127" font-family="Helvetica,sans-Serif" font-size="10.00">cd_to_directory</text>
</a>
</g>
</g>
<!-- Node2 -->
<g id="node2" class="node">
<title>Node2</title>
<g id="a_node2"><a xlink:href="cd_8c.html#a41a4ea5d112eaef12746a37b78cdffc2" target="_top" xlink:title=" ">
<polygon fill="white" stroke="#666666" points="247,-158 128,-158 128,-139 247,-139 247,-158"/>
<text text-anchor="middle" x="187.5" y="-146" font-family="Helvetica,sans-Serif" font-size="10.00">cd_to_prev_directory</text>
</a>
</g>
</g>
<!-- Node1&#45;&gt;Node2 -->
<g id="edge1" class="edge">
<title>Node1&#45;&gt;Node2</title>
<path fill="none" stroke="#63b8ff" d="M92.29,-135.67C100.47,-136.78 109.16,-137.97 117.83,-139.15"/>
<polygon fill="#63b8ff" stroke="#63b8ff" points="117.58,-142.65 127.96,-140.53 118.52,-135.71 117.58,-142.65"/>
</g>
<!-- Node5 -->
<g id="node5" class="node">
<title>Node5</title>
<g id="a_node5"><a xlink:href="cd_8c.html#a5f88b27ad31ff3809a0bdadac6e71207" target="_top" xlink:title=" ">
<polygon fill="white" stroke="#666666" points="384,-120 283,-120 283,-101 384,-101 384,-120"/>
<text text-anchor="middle" x="333.5" y="-108" font-family="Helvetica,sans-Serif" font-size="10.00">update_variables</text>
</a>
</g>
</g>
<!-- Node1&#45;&gt;Node5 -->
<g id="edge12" class="edge">
<title>Node1&#45;&gt;Node5</title>
<path fill="none" stroke="#63b8ff" d="M92.24,-126.49C140.98,-123.25 218.79,-118.07 272.59,-114.49"/>
<polygon fill="#63b8ff" stroke="#63b8ff" points="272.93,-117.97 282.68,-113.82 272.46,-110.99 272.93,-117.97"/>
</g>
<!-- Node3 -->
<g id="node3" class="node">
<title>Node3</title>
<g id="a_node3"><a xlink:href="get__variable__value_8c.html#a2edd9900f19af236aa05385a789be3d6" target="_top" xlink:title=" ">
<polygon fill="white" stroke="#666666" points="530,-158 420,-158 420,-139 530,-139 530,-158"/>
<text text-anchor="middle" x="475" y="-146" font-family="Helvetica,sans-Serif" font-size="10.00">get_variable_value</text>
</a>
</g>
</g>
<!-- Node2&#45;&gt;Node3 -->
<g id="edge2" class="edge">
<title>Node2&#45;&gt;Node3</title>
<path fill="none" stroke="#63b8ff" d="M247.31,-148.5C294.55,-148.5 360.82,-148.5 409.51,-148.5"/>
<polygon fill="#63b8ff" stroke="#63b8ff" points="409.62,-152 419.62,-148.5 409.62,-145 409.62,-152"/>
</g>
<!-- Node2&#45;&gt;Node5 -->
<g id="edge4" class="edge">
<title>Node2&#45;&gt;Node5</title>
<path fill="none" stroke="#63b8ff" d="M224.84,-138.91C243.58,-133.96 266.64,-127.88 286.61,-122.61"/>
<polygon fill="#63b8ff" stroke="#63b8ff" points="287.65,-125.96 296.42,-120.02 285.86,-119.19 287.65,-125.96"/>
</g>
<!-- Node4 -->
<g id="node4" class="node">
<title>Node4</title>
<g id="a_node4"><a xlink:href="get__variable_8c.html#a569170390f0edf013bf89c26ef55ea8c" target="_top" xlink:title=" ">
<polygon fill="white" stroke="#666666" points="674.5,-167 597.5,-167 597.5,-148 674.5,-148 674.5,-167"/>
<text text-anchor="middle" x="636" y="-155" font-family="Helvetica,sans-Serif" font-size="10.00">get_variable</text>
</a>
</g>
</g>
<!-- Node3&#45;&gt;Node4 -->
<g id="edge3" class="edge">
<title>Node3&#45;&gt;Node4</title>
<path fill="none" stroke="#63b8ff" d="M530.27,-151.57C548.77,-152.62 569.31,-153.78 587.26,-154.8"/>
<polygon fill="#63b8ff" stroke="#63b8ff" points="587.31,-158.31 597.49,-155.38 587.7,-151.32 587.31,-158.31"/>
</g>
<!-- Node5&#45;&gt;Node3 -->
<g id="edge5" class="edge">
<title>Node5&#45;&gt;Node3</title>
<path fill="none" stroke="#63b8ff" d="M369.7,-120.09C387.71,-124.99 409.83,-131.02 429.06,-136.26"/>
<polygon fill="#63b8ff" stroke="#63b8ff" points="428.24,-139.66 438.81,-138.91 430.08,-132.91 428.24,-139.66"/>
</g>
<!-- Node6 -->
<g id="node6" class="node">
<title>Node6</title>
<g id="a_node6"><a xlink:href="set__variable_8c.html#a47afbd80fec3464fe83979a24adb4290" target="_top" xlink:title=" ">
<polygon fill="white" stroke="#666666" points="513.5,-102 436.5,-102 436.5,-83 513.5,-83 513.5,-102"/>
<text text-anchor="middle" x="475" y="-90" font-family="Helvetica,sans-Serif" font-size="10.00">set_variable</text>
</a>
</g>
</g>
<!-- Node5&#45;&gt;Node6 -->
<g id="edge6" class="edge">
<title>Node5&#45;&gt;Node6</title>
<path fill="none" stroke="#63b8ff" d="M384.08,-104.1C397.8,-102.33 412.67,-100.41 426.3,-98.66"/>
<polygon fill="#63b8ff" stroke="#63b8ff" points="426.96,-102.1 436.43,-97.35 426.06,-95.16 426.96,-102.1"/>
</g>
<!-- Node6&#45;&gt;Node4 -->
<g id="edge9" class="edge">
<title>Node6&#45;&gt;Node4</title>
<path fill="none" stroke="#63b8ff" d="M492.12,-102.01C509.78,-112.13 539.18,-128.08 566,-138.5 572.85,-141.16 580.21,-143.61 587.49,-145.79"/>
<polygon fill="#63b8ff" stroke="#63b8ff" points="586.73,-149.22 597.31,-148.61 588.66,-142.49 586.73,-149.22"/>
</g>
<!-- Node7 -->
<g id="node7" class="node">
<title>Node7</title>
<g id="a_node7"><a xlink:href="set__variable_8c.html#adebd93167a76f58c737bb4ee682da191" target="_top" xlink:title=" ">
<polygon fill="white" stroke="#666666" points="664,-130 608,-130 608,-111 664,-111 664,-130"/>
<text text-anchor="middle" x="636" y="-118" font-family="Helvetica,sans-Serif" font-size="10.00">fill_data</text>
</a>
</g>
</g>
<!-- Node6&#45;&gt;Node7 -->
<g id="edge7" class="edge">
<title>Node6&#45;&gt;Node7</title>
<path fill="none" stroke="#63b8ff" d="M513.68,-99.14C539.02,-103.6 572.29,-109.46 597.58,-113.91"/>
<polygon fill="#63b8ff" stroke="#63b8ff" points="597.08,-117.38 607.54,-115.66 598.3,-110.48 597.08,-117.38"/>
</g>
<!-- Node8 -->
<g id="node8" class="node">
<title>Node8</title>
<g id="a_node8"><a xlink:href="free__variable_8c.html#a6cfba30b5c98d6fa7663b6bc29fe01cc" target="_top" xlink:title=" ">
<polygon fill="white" stroke="#666666" points="676.5,-93 595.5,-93 595.5,-74 676.5,-74 676.5,-93"/>
<text text-anchor="middle" x="636" y="-81" font-family="Helvetica,sans-Serif" font-size="10.00">free_variable</text>
</a>
</g>
</g>
<!-- Node6&#45;&gt;Node8 -->
<g id="edge8" class="edge">
<title>Node6&#45;&gt;Node8</title>
<path fill="none" stroke="#63b8ff" d="M513.68,-90.37C535.12,-89.15 562.23,-87.62 585.38,-86.31"/>
<polygon fill="#63b8ff" stroke="#63b8ff" points="585.58,-89.8 595.37,-85.74 585.19,-82.81 585.58,-89.8"/>
</g>
<!-- Node9 -->
<g id="node9" class="node">
<title>Node9</title>
<g id="a_node9"><a xlink:href="list_8h.html#a56c2e407458d3d071ab549938bc5a7c1" target="_top" xlink:title=" ">
<polygon fill="white" stroke="#666666" points="681.5,-56 590.5,-56 590.5,-37 681.5,-37 681.5,-56"/>
<text text-anchor="middle" x="636" y="-44" font-family="Helvetica,sans-Serif" font-size="10.00">my_add_to_list</text>
</a>
</g>
</g>
<!-- Node6&#45;&gt;Node9 -->
<g id="edge10" class="edge">
<title>Node6&#45;&gt;Node9</title>
<path fill="none" stroke="#63b8ff" d="M505.49,-82.95C523.01,-77.37 545.7,-70.3 566,-64.5 572.72,-62.58 579.83,-60.63 586.83,-58.76"/>
<polygon fill="#63b8ff" stroke="#63b8ff" points="588.18,-62.02 596.95,-56.09 586.39,-55.26 588.18,-62.02"/>
</g>
<!-- Node10 -->
<g id="node10" class="node">
<title>Node10</title>
<g id="a_node10"><a xlink:href="set__variable_8c.html#a9423ce83dff6e167d4168b47e91086f6" target="_top" xlink:title=" ">
<polygon fill="white" stroke="#666666" points="706,-19 566,-19 566,0 706,0 706,-19"/>
<text text-anchor="middle" x="636" y="-7" font-family="Helvetica,sans-Serif" font-size="10.00">update_existing_variable</text>
</a>
</g>
</g>
<!-- Node6&#45;&gt;Node10 -->
<g id="edge11" class="edge">
<title>Node6&#45;&gt;Node10</title>
<path fill="none" stroke="#63b8ff" d="M486.52,-82.86C502.52,-68.71 534.44,-42.37 566,-27.5 570.08,-25.58 574.39,-23.84 578.8,-22.27"/>
<polygon fill="#63b8ff" stroke="#63b8ff" points="580.09,-25.53 588.51,-19.1 577.92,-18.87 580.09,-25.53"/>
</g>
</g>
</svg>
        <g id="navigator" transform="translate(0 0)" fill="#404254">
                <rect fill="#f2f5e9" fill-opacity="0.5" stroke="#606060" stroke-width=".5" x="0" y="0" width="60" height="60"/>
                <use id="zoomplus" xlink:href="#zoomPlus" x="17" y="9" onmousedown="handleZoom(evt,'in')"/>
                <use id="zoomminus" xlink:href="#zoomMin" x="42" y="9" onmousedown="handleZoom(evt,'out')"/>
                <use id="reset" xlink:href="#resetDef" x="30" y="36" onmousedown="handleReset()"/>
                <g id="arrowUp" xlink:href="#dirArrow" transform="translate(30 24)" onmousedown="handlePan(0,-1)">
                  <use xlink:href="#rim" fill="#404040">
                        <set attributeName="fill" to="#808080" begin="arrowUp.mouseover" end="arrowUp.mouseout"/>
                  </use>
                  <path fill="none" stroke="white" stroke-width="1.5" d="M0,-3.0v7 M-2.5,-0.5L0,-3.0L2.5,-0.5"/>
                </g>
                <g id="arrowRight" xlink:href="#dirArrow" transform="rotate(90) translate(36 -43)" onmousedown="handlePan(1,0)">
                  <use xlink:href="#rim" fill="#404040">
                        <set attributeName="fill" to="#808080" begin="arrowRight.mouseover" end="arrowRight.mouseout"/>
                  </use>
                  <path fill="none" stroke="white" stroke-width="1.5" d="M0,-3.0v7 M-2.5,-0.5L0,-3.0L2.5,-0.5"/>
                </g>
                <g id="arrowDown" xlink:href="#dirArrow" transform="rotate(180) translate(-30 -48)" onmousedown="handlePan(0,1)">
                  <use xlink:href="#rim" fill="#404040">
                        <set attributeName="fill" to="#808080" begin="arrowDown.mouseover" end="arrowDown.mouseout"/>
                  </use>
                  <path fill="none" stroke="white" stroke-width="1.5" d="M0,-3.0v7 M-2.5,-0.5L0,-3.0L2.5,-0.5"/>
                </g>
                <g id="arrowLeft" xlink:href="#dirArrow" transform="rotate(270) translate(-36 17)" onmousedown="handlePan(-1,0)">
                  <use xlink:href="#rim" fill="#404040">
                        <set attributeName="fill" to="#808080" begin="arrowLeft.mouseover" end="arrowLeft.mouseout"/>
                  </use>
                  <path fill="none" stroke="white" stroke-width="1.5" d="M0,-3.0v7 M-2.5,-0.5L0,-3.0L2.5,-0.5"/>
                </g>
        </g>
        <svg viewBox="0 0 15 15" width="100%" height="30px" preserveAspectRatio="xMaxYMin meet">
         <g id="arrow_out" transform="scale(0.3 0.3)">
          <a xlink:href="cd_8c_a3bdfdfd3aa6abcdbdd3ca29f1807868c_cgraph_org.svg" target="_base">
           <rect id="button" ry="5" rx="5" y="6" x="6" height="38" width="38"
                fill="#f2f5e9" fill-opacity="0.5" stroke="#606060" stroke-width="1.0"/>
           <path id="arrow"
             d="M 11.500037,31.436501 C 11.940474,20.09759 22.043105,11.32322 32.158766,21.979434 L 37.068811,17.246167 C 37.068811,17.246167 37.088388,32 37.088388,32 L 22.160133,31.978069 C 22.160133,31.978069 26.997745,27.140456 26.997745,27.140456 C 18.528582,18.264221 13.291696,25.230495 11.500037,31.436501 z"
             style="fill:#404040;"/>
          </a>
         </g>
        </svg>
</svg>
