<?xml version="1.0" encoding="UTF-8" standalone="no"?>
<!DOCTYPE svg PUBLIC "-//W3C//DTD SVG 1.1//EN"
 "http://www.w3.org/Graphics/SVG/1.1/DTD/svg11.dtd">
<!-- Generated by graphviz version 2.43.0 (0)
 -->
<!-- Title: update_variables Pages: 1 -->
<svg width="431pt" height="175pt"
 viewBox="0.00 0.00 431.00 175.00" xmlns="http://www.w3.org/2000/svg" xmlns:xlink="http://www.w3.org/1999/xlink">
<g id="graph0" class="graph" transform="scale(1 1) rotate(0) translate(4 171)">
<title>update_variables</title>
<!-- Node1 -->
<g id="node1" class="node">
<title>Node1</title>
<g id="a_node1"><a xlink:title=" ">
<polygon fill="#999999" stroke="#666666" points="101,-129 0,-129 0,-110 101,-110 101,-129"/>
<text text-anchor="middle" x="50.5" y="-117" font-family="Helvetica,sans-Serif" font-size="10.00">update_variables</text>
</a>
</g>
</g>
<!-- Node2 -->
<g id="node2" class="node">
<title>Node2</title>
<g id="a_node2"><a xlink:href="get__variable__value_8c.html#a2edd9900f19af236aa05385a789be3d6" target="_top" xlink:title=" ">
<polygon fill="white" stroke="#666666" points="247,-157 137,-157 137,-138 247,-138 247,-157"/>
<text text-anchor="middle" x="192" y="-145" font-family="Helvetica,sans-Serif" font-size="10.00">get_variable_value</text>
</a>
</g>
</g>
<!-- Node1&#45;&gt;Node2 -->
<g id="edge1" class="edge">
<title>Node1&#45;&gt;Node2</title>
<path fill="none" stroke="#63b8ff" d="M99.12,-129.06C110.23,-131.29 122.17,-133.69 133.66,-135.99"/>
<polygon fill="#63b8ff" stroke="#63b8ff" points="133.1,-139.45 143.6,-137.99 134.48,-132.59 133.1,-139.45"/>
</g>
<!-- Node4 -->
<g id="node4" class="node">
<title>Node4</title>
<g id="a_node4"><a xlink:href="set__variable_8c.html#a47afbd80fec3464fe83979a24adb4290" target="_top" xlink:title=" ">
<polygon fill="white" stroke="#666666" points="230.5,-111 153.5,-111 153.5,-92 230.5,-92 230.5,-111"/>
<text text-anchor="middle" x="192" y="-99" font-family="Helvetica,sans-Serif" font-size="10.00">set_variable</text>
</a>
</g>
</g>
<!-- Node1&#45;&gt;Node4 -->
<g id="edge3" class="edge">
<title>Node1&#45;&gt;Node4</title>
<path fill="none" stroke="#63b8ff" d="M101.08,-113.1C114.8,-111.33 129.67,-109.41 143.3,-107.66"/>
<polygon fill="#63b8ff" stroke="#63b8ff" points="143.96,-111.1 153.43,-106.35 143.06,-104.16 143.96,-111.1"/>
</g>
<!-- Node3 -->
<g id="node3" class="node">
<title>Node3</title>
<g id="a_node3"><a xlink:href="get__variable_8c.html#a569170390f0edf013bf89c26ef55ea8c" target="_top" xlink:title=" ">
<polygon fill="white" stroke="#666666" points="391.5,-167 314.5,-167 314.5,-148 391.5,-148 391.5,-167"/>
<text text-anchor="middle" x="353" y="-155" font-family="Helvetica,sans-Serif" font-size="10.00">get_variable</text>
</a>
</g>
</g>
<!-- Node2&#45;&gt;Node3 -->
<g id="edge2" class="edge">
<title>Node2&#45;&gt;Node3</title>
<path fill="none" stroke="#63b8ff" d="M247.27,-150.91C265.86,-152.08 286.5,-153.38 304.51,-154.51"/>
<polygon fill="#63b8ff" stroke="#63b8ff" points="304.29,-158.01 314.49,-155.14 304.73,-151.02 304.29,-158.01"/>
</g>
<!-- Node4&#45;&gt;Node3 -->
<g id="edge6" class="edge">
<title>Node4&#45;&gt;Node3</title>
<path fill="none" stroke="#63b8ff" d="M213.41,-111.11C231.44,-119.37 258.59,-131.21 283,-139.5 289.93,-141.85 297.34,-144.08 304.64,-146.11"/>
<polygon fill="#63b8ff" stroke="#63b8ff" points="303.9,-149.54 314.47,-148.76 305.72,-142.78 303.9,-149.54"/>
</g>
<!-- Node5 -->
<g id="node5" class="node">
<title>Node5</title>
<g id="a_node5"><a xlink:href="set__variable_8c.html#adebd93167a76f58c737bb4ee682da191" target="_top" xlink:title=" ">
<polygon fill="white" stroke="#666666" points="381,-130 325,-130 325,-111 381,-111 381,-130"/>
<text text-anchor="middle" x="353" y="-118" font-family="Helvetica,sans-Serif" font-size="10.00">fill_data</text>
</a>
</g>
</g>
<!-- Node4&#45;&gt;Node5 -->
<g id="edge4" class="edge">
<title>Node4&#45;&gt;Node5</title>
<path fill="none" stroke="#63b8ff" d="M230.68,-106C256.02,-109.03 289.29,-113.01 314.58,-116.03"/>
<polygon fill="#63b8ff" stroke="#63b8ff" points="314.19,-119.51 324.54,-117.22 315.03,-112.56 314.19,-119.51"/>
</g>
<!-- Node6 -->
<g id="node6" class="node">
<title>Node6</title>
<g id="a_node6"><a xlink:href="free__variable_8c.html#a6cfba30b5c98d6fa7663b6bc29fe01cc" target="_top" xlink:title=" ">
<polygon fill="white" stroke="#666666" points="393.5,-93 312.5,-93 312.5,-74 393.5,-74 393.5,-93"/>
<text text-anchor="middle" x="353" y="-81" font-family="Helvetica,sans-Serif" font-size="10.00">free_variable</text>
</a>
</g>
</g>
<!-- Node4&#45;&gt;Node6 -->
<g id="edge5" class="edge">
<title>Node4&#45;&gt;Node6</title>
<path fill="none" stroke="#63b8ff" d="M230.68,-97.23C252.12,-94.81 279.23,-91.74 302.38,-89.12"/>
<polygon fill="#63b8ff" stroke="#63b8ff" points="302.83,-92.59 312.37,-87.99 302.04,-85.63 302.83,-92.59"/>
</g>
<!-- Node7 -->
<g id="node7" class="node">
<title>Node7</title>
<g id="a_node7"><a xlink:href="list_8h.html#a56c2e407458d3d071ab549938bc5a7c1" target="_top" xlink:title=" ">
<polygon fill="white" stroke="#666666" points="398.5,-56 307.5,-56 307.5,-37 398.5,-37 398.5,-56"/>
<text text-anchor="middle" x="353" y="-44" font-family="Helvetica,sans-Serif" font-size="10.00">my_add_to_list</text>
</a>
</g>
</g>
<!-- Node4&#45;&gt;Node7 -->
<g id="edge7" class="edge">
<title>Node4&#45;&gt;Node7</title>
<path fill="none" stroke="#63b8ff" d="M214.94,-91.93C233,-84.23 259.39,-73.44 283,-65.5 289.88,-63.18 297.22,-60.94 304.44,-58.84"/>
<polygon fill="#63b8ff" stroke="#63b8ff" points="305.49,-62.18 314.17,-56.1 303.59,-55.45 305.49,-62.18"/>
</g>
<!-- Node8 -->
<g id="node8" class="node">
<title>Node8</title>
<g id="a_node8"><a xlink:href="set__variable_8c.html#a9423ce83dff6e167d4168b47e91086f6" target="_top" xlink:title=" ">
<polygon fill="white" stroke="#666666" points="423,-19 283,-19 283,0 423,0 423,-19"/>
<text text-anchor="middle" x="353" y="-7" font-family="Helvetica,sans-Serif" font-size="10.00">update_existing_variable</text>
</a>
</g>
</g>
<!-- Node4&#45;&gt;Node8 -->
<g id="edge8" class="edge">
<title>Node4&#45;&gt;Node8</title>
<path fill="none" stroke="#63b8ff" d="M202.04,-91.95C217.29,-76.4 249.72,-45.62 283,-28.5 287.51,-26.18 292.34,-24.12 297.27,-22.29"/>
<polygon fill="#63b8ff" stroke="#63b8ff" points="298.46,-25.58 306.81,-19.05 296.22,-18.95 298.46,-25.58"/>
</g>
</g>
</svg>
