<?xml version="1.0" encoding="UTF-8" standalone="no"?>
<!DOCTYPE svg PUBLIC "-//W3C//DTD SVG 1.1//EN"
 "http://www.w3.org/Graphics/SVG/1.1/DTD/svg11.dtd">
<!-- Generated by graphviz version 2.43.0 (0)
 -->
<!-- Title: builtin_cd Pages: 1 -->
<svg width="1120pt" height="878pt"
 viewBox="0.00 0.00 1120.00 878.35" xmlns="http://www.w3.org/2000/svg" xmlns:xlink="http://www.w3.org/1999/xlink">
<g id="graph0" class="graph" transform="scale(1 1) rotate(0) translate(4 874.35)">
<title>builtin_cd</title>
<!-- Node1 -->
<g id="node1" class="node">
<title>Node1</title>
<g id="a_node1"><a xlink:title=" ">
<polygon fill="#999999" stroke="#666666" points="64,-721.35 0,-721.35 0,-702.35 64,-702.35 64,-721.35"/>
<text text-anchor="middle" x="32" y="-709.35" font-family="Helvetica,sans-Serif" font-size="10.00">builtin_cd</text>
</a>
</g>
</g>
<!-- Node2 -->
<g id="node2" class="node">
<title>Node2</title>
<g id="a_node2"><a xlink:href="cd_8c.html#a3bdfdfd3aa6abcdbdd3ca29f1807868c" target="_top" xlink:title=" ">
<polygon fill="white" stroke="#666666" points="455.5,-759.35 363.5,-759.35 363.5,-740.35 455.5,-740.35 455.5,-759.35"/>
<text text-anchor="middle" x="409.5" y="-747.35" font-family="Helvetica,sans-Serif" font-size="10.00">cd_to_directory</text>
</a>
</g>
</g>
<!-- Node1&#45;&gt;Node2 -->
<g id="edge1" class="edge">
<title>Node1&#45;&gt;Node2</title>
<path fill="none" stroke="#63b8ff" d="M64.21,-719.24C75.44,-721.67 88.24,-724.17 100,-725.85 187.98,-738.41 291.08,-744.76 353.02,-747.68"/>
<polygon fill="#63b8ff" stroke="#63b8ff" points="353.19,-751.19 363.34,-748.16 353.51,-744.2 353.19,-751.19"/>
</g>
<!-- Node12 -->
<g id="node12" class="node">
<title>Node12</title>
<g id="a_node12"><a xlink:href="cd_8c.html#a6cfca5f540843cfce2ac9896cc71d598" target="_top" xlink:title=" ">
<polygon fill="white" stroke="#666666" points="599.5,-721.35 523.5,-721.35 523.5,-702.35 599.5,-702.35 599.5,-721.35"/>
<text text-anchor="middle" x="561.5" y="-709.35" font-family="Helvetica,sans-Serif" font-size="10.00">cd_to_home</text>
</a>
</g>
</g>
<!-- Node1&#45;&gt;Node12 -->
<g id="edge14" class="edge">
<title>Node1&#45;&gt;Node12</title>
<path fill="none" stroke="#63b8ff" d="M64.03,-711.85C152.62,-711.85 407.15,-711.85 513.21,-711.85"/>
<polygon fill="#63b8ff" stroke="#63b8ff" points="513.3,-715.35 523.3,-711.85 513.3,-708.35 513.3,-715.35"/>
</g>
<!-- Node13 -->
<g id="node13" class="node">
<title>Node13</title>
<g id="a_node13"><a xlink:href="cd_8c.html#a07b41a5865a53eb2e19c63142f42eb97" target="_top" xlink:title=" ">
<polygon fill="white" stroke="#666666" points="201,-683.35 100,-683.35 100,-664.35 201,-664.35 201,-683.35"/>
<text text-anchor="middle" x="150.5" y="-671.35" font-family="Helvetica,sans-Serif" font-size="10.00">execute_cwdcmd</text>
</a>
</g>
</g>
<!-- Node1&#45;&gt;Node13 -->
<g id="edge17" class="edge">
<title>Node1&#45;&gt;Node13</title>
<path fill="none" stroke="#63b8ff" d="M62.4,-702.26C76.89,-697.54 94.56,-691.77 110.19,-686.68"/>
<polygon fill="#63b8ff" stroke="#63b8ff" points="111.69,-689.87 120.11,-683.44 109.52,-683.21 111.69,-689.87"/>
</g>
<!-- Node3 -->
<g id="node3" class="node">
<title>Node3</title>
<g id="a_node3"><a xlink:href="cd_8c.html#a41a4ea5d112eaef12746a37b78cdffc2" target="_top" xlink:title=" ">
<polygon fill="white" stroke="#666666" points="621,-759.35 502,-759.35 502,-740.35 621,-740.35 621,-759.35"/>
<text text-anchor="middle" x="561.5" y="-747.35" font-family="Helvetica,sans-Serif" font-size="10.00">cd_to_prev_directory</text>
</a>
</g>
</g>
<!-- Node2&#45;&gt;Node3 -->
<g id="edge2" class="edge">
<title>Node2&#45;&gt;Node3</title>
<path fill="none" stroke="#63b8ff" d="M455.5,-749.85C466.9,-749.85 479.4,-749.85 491.68,-749.85"/>
<polygon fill="#63b8ff" stroke="#63b8ff" points="491.91,-753.35 501.91,-749.85 491.91,-746.35 491.91,-753.35"/>
</g>
<!-- Node6 -->
<g id="node6" class="node">
<title>Node6</title>
<g id="a_node6"><a xlink:href="cd_8c.html#a5f88b27ad31ff3809a0bdadac6e71207" target="_top" xlink:title=" ">
<polygon fill="white" stroke="#666666" points="767.5,-797.35 666.5,-797.35 666.5,-778.35 767.5,-778.35 767.5,-797.35"/>
<text text-anchor="middle" x="717" y="-785.35" font-family="Helvetica,sans-Serif" font-size="10.00">update_variables</text>
</a>
</g>
</g>
<!-- Node2&#45;&gt;Node6 -->
<g id="edge13" class="edge">
<title>Node2&#45;&gt;Node6</title>
<path fill="none" stroke="#63b8ff" d="M451.31,-759.39C467.08,-762.79 485.31,-766.39 502,-768.85 553.75,-776.5 613.03,-781.47 656.06,-784.4"/>
<polygon fill="#63b8ff" stroke="#63b8ff" points="655.87,-787.9 666.08,-785.07 656.33,-780.91 655.87,-787.9"/>
</g>
<!-- Node4 -->
<g id="node4" class="node">
<title>Node4</title>
<g id="a_node4"><a xlink:href="get__variable__value_8c.html#a2edd9900f19af236aa05385a789be3d6" target="_top" xlink:title=" ">
<polygon fill="white" stroke="#666666" points="929.5,-721.35 819.5,-721.35 819.5,-702.35 929.5,-702.35 929.5,-721.35"/>
<text text-anchor="middle" x="874.5" y="-709.35" font-family="Helvetica,sans-Serif" font-size="10.00">get_variable_value</text>
</a>
</g>
</g>
<!-- Node3&#45;&gt;Node4 -->
<g id="edge3" class="edge">
<title>Node3&#45;&gt;Node4</title>
<path fill="none" stroke="#63b8ff" d="M621.28,-743.8C664.42,-739.23 724.41,-732.61 777,-725.85 787.43,-724.51 798.49,-723 809.25,-721.47"/>
<polygon fill="#63b8ff" stroke="#63b8ff" points="810.04,-724.9 819.44,-720.01 809.05,-717.97 810.04,-724.9"/>
</g>
<!-- Node3&#45;&gt;Node6 -->
<g id="edge5" class="edge">
<title>Node3&#45;&gt;Node6</title>
<path fill="none" stroke="#63b8ff" d="M601.23,-759.44C621.4,-764.43 646.25,-770.58 667.66,-775.89"/>
<polygon fill="#63b8ff" stroke="#63b8ff" points="667,-779.33 677.54,-778.33 668.68,-772.53 667,-779.33"/>
</g>
<!-- Node5 -->
<g id="node5" class="node">
<title>Node5</title>
<g id="a_node5"><a xlink:href="get__variable_8c.html#a569170390f0edf013bf89c26ef55ea8c" target="_top" xlink:title=" ">
<polygon fill="white" stroke="#666666" points="1080.5,-721.35 1003.5,-721.35 1003.5,-702.35 1080.5,-702.35 1080.5,-721.35"/>
<text text-anchor="middle" x="1042" y="-709.35" font-family="Helvetica,sans-Serif" font-size="10.00">get_variable</text>
</a>
</g>
</g>
<!-- Node4&#45;&gt;Node5 -->
<g id="edge4" class="edge">
<title>Node4&#45;&gt;Node5</title>
<path fill="none" stroke="#63b8ff" d="M929.69,-711.85C950.24,-711.85 973.47,-711.85 993.37,-711.85"/>
<polygon fill="#63b8ff" stroke="#63b8ff" points="993.45,-715.35 1003.45,-711.85 993.45,-708.35 993.45,-715.35"/>
</g>
<!-- Node6&#45;&gt;Node4 -->
<g id="edge6" class="edge">
<title>Node6&#45;&gt;Node4</title>
<path fill="none" stroke="#63b8ff" d="M743.23,-778.28C753.78,-774.1 766.1,-768.99 777,-763.85 801.71,-752.21 829.04,-737.28 848.29,-726.41"/>
<polygon fill="#63b8ff" stroke="#63b8ff" points="850.08,-729.41 857.04,-721.43 846.62,-723.33 850.08,-729.41"/>
</g>
<!-- Node7 -->
<g id="node7" class="node">
<title>Node7</title>
<g id="a_node7"><a xlink:href="set__variable_8c.html#a47afbd80fec3464fe83979a24adb4290" target="_top" xlink:title=" ">
<polygon fill="white" stroke="#666666" points="913,-797.35 836,-797.35 836,-778.35 913,-778.35 913,-797.35"/>
<text text-anchor="middle" x="874.5" y="-785.35" font-family="Helvetica,sans-Serif" font-size="10.00">set_variable</text>
</a>
</g>
</g>
<!-- Node6&#45;&gt;Node7 -->
<g id="edge7" class="edge">
<title>Node6&#45;&gt;Node7</title>
<path fill="none" stroke="#63b8ff" d="M767.63,-787.85C786.14,-787.85 807.11,-787.85 825.48,-787.85"/>
<polygon fill="#63b8ff" stroke="#63b8ff" points="825.67,-791.35 835.67,-787.85 825.67,-784.35 825.67,-791.35"/>
</g>
<!-- Node7&#45;&gt;Node5 -->
<g id="edge10" class="edge">
<title>Node7&#45;&gt;Node5</title>
<path fill="none" stroke="#63b8ff" d="M889.64,-778.16C907.95,-765.97 941.19,-745.02 972,-731.85 978.78,-728.95 986.11,-726.33 993.37,-724"/>
<polygon fill="#63b8ff" stroke="#63b8ff" points="994.63,-727.28 1003.18,-721.02 992.59,-720.58 994.63,-727.28"/>
</g>
<!-- Node8 -->
<g id="node8" class="node">
<title>Node8</title>
<g id="a_node8"><a xlink:href="set__variable_8c.html#adebd93167a76f58c737bb4ee682da191" target="_top" xlink:title=" ">
<polygon fill="white" stroke="#666666" points="1070,-796.35 1014,-796.35 1014,-777.35 1070,-777.35 1070,-796.35"/>
<text text-anchor="middle" x="1042" y="-784.35" font-family="Helvetica,sans-Serif" font-size="10.00">fill_data</text>
</a>
</g>
</g>
<!-- Node7&#45;&gt;Node8 -->
<g id="edge8" class="edge">
<title>Node7&#45;&gt;Node8</title>
<path fill="none" stroke="#63b8ff" d="M913.05,-787.63C940.16,-787.46 976.61,-787.24 1003.67,-787.08"/>
<polygon fill="#63b8ff" stroke="#63b8ff" points="1003.93,-790.58 1013.91,-787.02 1003.88,-783.58 1003.93,-790.58"/>
</g>
<!-- Node9 -->
<g id="node9" class="node">
<title>Node9</title>
<g id="a_node9"><a xlink:href="free__variable_8c.html#a6cfba30b5c98d6fa7663b6bc29fe01cc" target="_top" xlink:title=" ">
<polygon fill="white" stroke="#666666" points="1082.5,-759.35 1001.5,-759.35 1001.5,-740.35 1082.5,-740.35 1082.5,-759.35"/>
<text text-anchor="middle" x="1042" y="-747.35" font-family="Helvetica,sans-Serif" font-size="10.00">free_variable</text>
</a>
</g>
</g>
<!-- Node7&#45;&gt;Node9 -->
<g id="edge9" class="edge">
<title>Node7&#45;&gt;Node9</title>
<path fill="none" stroke="#63b8ff" d="M913.05,-779.23C936.19,-773.92 966.12,-767.04 991.22,-761.28"/>
<polygon fill="#63b8ff" stroke="#63b8ff" points="992.32,-764.62 1001.29,-758.97 990.76,-757.8 992.32,-764.62"/>
</g>
<!-- Node10 -->
<g id="node10" class="node">
<title>Node10</title>
<g id="a_node10"><a xlink:href="list_8h.html#a56c2e407458d3d071ab549938bc5a7c1" target="_top" xlink:title=" ">
<polygon fill="white" stroke="#666666" points="1087.5,-870.35 996.5,-870.35 996.5,-851.35 1087.5,-851.35 1087.5,-870.35"/>
<text text-anchor="middle" x="1042" y="-858.35" font-family="Helvetica,sans-Serif" font-size="10.00">my_add_to_list</text>
</a>
</g>
</g>
<!-- Node7&#45;&gt;Node10 -->
<g id="edge11" class="edge">
<title>Node7&#45;&gt;Node10</title>
<path fill="none" stroke="#63b8ff" d="M889.61,-797.48C907.89,-809.58 941.1,-830.27 972,-842.85 977.02,-844.89 982.33,-846.76 987.7,-848.46"/>
<polygon fill="#63b8ff" stroke="#63b8ff" points="986.78,-851.84 997.37,-851.33 988.78,-845.13 986.78,-851.84"/>
</g>
<!-- Node11 -->
<g id="node11" class="node">
<title>Node11</title>
<g id="a_node11"><a xlink:href="set__variable_8c.html#a9423ce83dff6e167d4168b47e91086f6" target="_top" xlink:title=" ">
<polygon fill="white" stroke="#666666" points="1112,-833.35 972,-833.35 972,-814.35 1112,-814.35 1112,-833.35"/>
<text text-anchor="middle" x="1042" y="-821.35" font-family="Helvetica,sans-Serif" font-size="10.00">update_existing_variable</text>
</a>
</g>
</g>
<!-- Node7&#45;&gt;Node11 -->
<g id="edge12" class="edge">
<title>Node7&#45;&gt;Node11</title>
<path fill="none" stroke="#63b8ff" d="M913.05,-796.02C935.02,-800.8 963.1,-806.91 987.36,-812.19"/>
<polygon fill="#63b8ff" stroke="#63b8ff" points="986.63,-815.61 997.15,-814.31 988.12,-808.77 986.63,-815.61"/>
</g>
<!-- Node12&#45;&gt;Node4 -->
<g id="edge15" class="edge">
<title>Node12&#45;&gt;Node4</title>
<path fill="none" stroke="#63b8ff" d="M599.7,-711.85C651.4,-711.85 745.73,-711.85 809.02,-711.85"/>
<polygon fill="#63b8ff" stroke="#63b8ff" points="809.29,-715.35 819.29,-711.85 809.29,-708.35 809.29,-715.35"/>
</g>
<!-- Node12&#45;&gt;Node6 -->
<g id="edge16" class="edge">
<title>Node12&#45;&gt;Node6</title>
<path fill="none" stroke="#63b8ff" d="M594.23,-721.39C603.04,-724.39 612.52,-727.95 621,-731.85 646.71,-743.68 674.4,-760.52 693.22,-772.64"/>
<polygon fill="#63b8ff" stroke="#63b8ff" points="691.4,-775.63 701.69,-778.17 695.23,-769.77 691.4,-775.63"/>
</g>
<!-- Node13&#45;&gt;Node4 -->
<g id="edge18" class="edge">
<title>Node13&#45;&gt;Node4</title>
<path fill="none" stroke="#63b8ff" d="M201.25,-673.85C253.02,-673.85 336.44,-673.85 408.5,-673.85 408.5,-673.85 408.5,-673.85 562.5,-673.85 651.25,-673.85 753.21,-689.29 815.48,-700.49"/>
<polygon fill="#63b8ff" stroke="#63b8ff" points="815.04,-703.96 825.51,-702.31 816.3,-697.08 815.04,-703.96"/>
</g>
<!-- Node14 -->
<g id="node14" class="node">
<title>Node14</title>
<g id="a_node14"><a xlink:href="shell_8c.html#afb5215a1775326d8976fd015f7832392" target="_top" xlink:title=" ">
<polygon fill="white" stroke="#666666" points="317,-513.35 237,-513.35 237,-494.35 317,-494.35 317,-513.35"/>
<text text-anchor="middle" x="277" y="-501.35" font-family="Helvetica,sans-Serif" font-size="10.00">handle_input</text>
</a>
</g>
</g>
<!-- Node13&#45;&gt;Node14 -->
<g id="edge19" class="edge">
<title>Node13&#45;&gt;Node14</title>
<path fill="none" stroke="#63b8ff" d="M158.55,-664.23C178.67,-636.76 236.57,-557.69 262.8,-521.87"/>
<polygon fill="#63b8ff" stroke="#63b8ff" points="265.94,-523.51 269.03,-513.37 260.29,-519.37 265.94,-523.51"/>
</g>
<!-- Node15 -->
<g id="node15" class="node">
<title>Node15</title>
<g id="a_node15"><a xlink:href="ast__destroy_8c.html#a04c67d7ab492f6e1e7bc44dc70faa057" target="_top" xlink:title=" ">
<polygon fill="white" stroke="#666666" points="911.5,-560.35 837.5,-560.35 837.5,-541.35 911.5,-541.35 911.5,-560.35"/>
<text text-anchor="middle" x="874.5" y="-548.35" font-family="Helvetica,sans-Serif" font-size="10.00">ast_destroy</text>
</a>
</g>
</g>
<!-- Node14&#45;&gt;Node15 -->
<g id="edge20" class="edge">
<title>Node14&#45;&gt;Node15</title>
<path fill="none" stroke="#63b8ff" d="M317.07,-506.94C422.71,-515.27 713.66,-538.24 827.23,-547.2"/>
<polygon fill="#63b8ff" stroke="#63b8ff" points="827.1,-550.7 837.34,-548 827.65,-543.72 827.1,-550.7"/>
</g>
<!-- Node17 -->
<g id="node17" class="node">
<title>Node17</title>
<g id="a_node17"><a xlink:href="shell_8c.html#a74405478dadd73c0a4d1e5f3e8d2e3ef" target="_top" xlink:title=" ">
<polygon fill="white" stroke="#666666" points="466,-419.85 353,-419.85 353,-389.85 466,-389.85 466,-419.85"/>
<text text-anchor="start" x="361" y="-407.85" font-family="Helvetica,sans-Serif" font-size="10.00">destroy_parser_and</text>
<text text-anchor="middle" x="409.5" y="-396.85" font-family="Helvetica,sans-Serif" font-size="10.00">_lexer</text>
</a>
</g>
</g>
<!-- Node14&#45;&gt;Node17 -->
<g id="edge23" class="edge">
<title>Node14&#45;&gt;Node17</title>
<path fill="none" stroke="#63b8ff" d="M285.87,-494.1C298.64,-478.79 325.24,-448.88 353,-429.85 355.66,-428.03 358.47,-426.29 361.36,-424.63"/>
<polygon fill="#63b8ff" stroke="#63b8ff" points="363.02,-427.71 370.21,-419.93 359.73,-421.53 363.02,-427.71"/>
</g>
<!-- Node21 -->
<g id="node21" class="node">
<title>Node21</title>
<g id="a_node21"><a xlink:href="execute__ast_8c.html#ad26a20a665ab7fdeb714ed53c1afd104" target="_top" xlink:title=" ">
<polygon fill="white" stroke="#666666" points="447,-196.35 372,-196.35 372,-177.35 447,-177.35 447,-196.35"/>
<text text-anchor="middle" x="409.5" y="-184.35" font-family="Helvetica,sans-Serif" font-size="10.00">execute_ast</text>
</a>
</g>
</g>
<!-- Node14&#45;&gt;Node21 -->
<g id="edge27" class="edge">
<title>Node14&#45;&gt;Node21</title>
<path fill="none" stroke="#63b8ff" d="M282.05,-494.02C300.39,-449.46 375.89,-266.08 400.62,-206"/>
<polygon fill="#63b8ff" stroke="#63b8ff" points="403.93,-207.15 404.5,-196.57 397.46,-204.49 403.93,-207.15"/>
</g>
<!-- Node53 -->
<g id="node42" class="node">
<title>Node53</title>
<g id="a_node42"><a xlink:href="shell_8c.html#a6e35892cfa82c5f227b10f37abc529e9" target="_top" xlink:title=" ">
<polygon fill="white" stroke="#666666" points="455,-570.35 364,-570.35 364,-551.35 455,-551.35 455,-570.35"/>
<text text-anchor="middle" x="409.5" y="-558.35" font-family="Helvetica,sans-Serif" font-size="10.00">handle_parsing</text>
</a>
</g>
</g>
<!-- Node14&#45;&gt;Node53 -->
<g id="edge61" class="edge">
<title>Node14&#45;&gt;Node53</title>
<path fill="none" stroke="#63b8ff" d="M299.65,-513.42C314.62,-520.03 335.01,-529 353,-536.85 360.8,-540.25 369.22,-543.91 377.09,-547.31"/>
<polygon fill="#63b8ff" stroke="#63b8ff" points="375.77,-550.55 386.34,-551.31 378.55,-544.13 375.77,-550.55"/>
</g>
<!-- Node149 -->
<g id="node46" class="node">
<title>Node149</title>
<g id="a_node46"><a xlink:href="shell_8c.html#a1ce512725ee0371f8bf608a3ece0c152" target="_top" xlink:title=" ">
<polygon fill="white" stroke="#666666" points="777,-636.35 657,-636.35 657,-617.35 777,-617.35 777,-636.35"/>
<text text-anchor="middle" x="717" y="-624.35" font-family="Helvetica,sans-Serif" font-size="10.00">show_error_message</text>
</a>
</g>
</g>
<!-- Node14&#45;&gt;Node149 -->
<g id="edge72" class="edge">
<title>Node14&#45;&gt;Node149</title>
<path fill="none" stroke="#63b8ff" d="M284.65,-513.44C296.46,-529.7 322.72,-562.61 353,-579.85 444.56,-632 569.79,-636.31 646.67,-632.88"/>
<polygon fill="#63b8ff" stroke="#63b8ff" points="646.91,-636.37 656.72,-632.37 646.56,-629.38 646.91,-636.37"/>
</g>
<!-- Node150 -->
<g id="node47" class="node">
<title>Node150</title>
<g id="a_node47"><a xlink:href="lexer__init_8c.html#aee55447f2c8b083ed2614fa4f439f9cc" target="_top" xlink:title=" ">
<polygon fill="white" stroke="#666666" points="440.5,-457.35 378.5,-457.35 378.5,-438.35 440.5,-438.35 440.5,-457.35"/>
<text text-anchor="middle" x="409.5" y="-445.35" font-family="Helvetica,sans-Serif" font-size="10.00">lexer_init</text>
</a>
</g>
</g>
<!-- Node14&#45;&gt;Node150 -->
<g id="edge67" class="edge">
<title>Node14&#45;&gt;Node150</title>
<path fill="none" stroke="#63b8ff" d="M295.89,-494.22C310.89,-486.33 333.02,-475.16 353,-466.85 358.05,-464.75 363.43,-462.69 368.78,-460.76"/>
<polygon fill="#63b8ff" stroke="#63b8ff" points="370.01,-464.03 378.28,-457.41 367.69,-457.43 370.01,-464.03"/>
</g>
<!-- Node151 -->
<g id="node48" class="node">
<title>Node151</title>
<g id="a_node48"><a xlink:href="parser__init_8c.html#a7a5dc445fa057a393d0b94590acea2f1" target="_top" xlink:title=" ">
<polygon fill="white" stroke="#666666" points="443.5,-494.35 375.5,-494.35 375.5,-475.35 443.5,-475.35 443.5,-494.35"/>
<text text-anchor="middle" x="409.5" y="-482.35" font-family="Helvetica,sans-Serif" font-size="10.00">parser_init</text>
</a>
</g>
</g>
<!-- Node14&#45;&gt;Node151 -->
<g id="edge68" class="edge">
<title>Node14&#45;&gt;Node151</title>
<path fill="none" stroke="#63b8ff" d="M317.15,-498.15C332.16,-495.97 349.37,-493.46 364.78,-491.22"/>
<polygon fill="#63b8ff" stroke="#63b8ff" points="365.72,-494.62 375.11,-489.71 364.71,-487.69 365.72,-494.62"/>
</g>
<!-- Node15&#45;&gt;Node15 -->
<g id="edge21" class="edge">
<title>Node15&#45;&gt;Node15</title>
<path fill="none" stroke="#63b8ff" d="M850.46,-560.44C838.76,-569.09 846.77,-578.35 874.5,-578.35 892.7,-578.35 902.4,-574.36 903.62,-569.17"/>
<polygon fill="#63b8ff" stroke="#63b8ff" points="906.59,-567.32 898.54,-560.44 900.54,-570.84 906.59,-567.32"/>
</g>
<!-- Node16 -->
<g id="node16" class="node">
<title>Node16</title>
<g id="a_node16"><a xlink:href="misc_8h.html#a1180cae2875b1fdcd58c9f9175a82c12" target="_top" xlink:title=" ">
<polygon fill="white" stroke="#666666" points="1100.5,-560.35 983.5,-560.35 983.5,-541.35 1100.5,-541.35 1100.5,-560.35"/>
<text text-anchor="middle" x="1042" y="-548.35" font-family="Helvetica,sans-Serif" font-size="10.00">my_free_word_array</text>
</a>
</g>
</g>
<!-- Node15&#45;&gt;Node16 -->
<g id="edge22" class="edge">
<title>Node15&#45;&gt;Node16</title>
<path fill="none" stroke="#63b8ff" d="M911.82,-550.85C929.81,-550.85 952.13,-550.85 973.12,-550.85"/>
<polygon fill="#63b8ff" stroke="#63b8ff" points="973.3,-554.35 983.3,-550.85 973.3,-547.35 973.3,-554.35"/>
</g>
<!-- Node18 -->
<g id="node18" class="node">
<title>Node18</title>
<g id="a_node18"><a xlink:href="lexer__init_8c.html#a592247dc9c102c884630b41389a1b38b" target="_top" xlink:title=" ">
<polygon fill="white" stroke="#666666" points="603,-420.35 520,-420.35 520,-401.35 603,-401.35 603,-420.35"/>
<text text-anchor="middle" x="561.5" y="-408.35" font-family="Helvetica,sans-Serif" font-size="10.00">lexer_destroy</text>
</a>
</g>
</g>
<!-- Node17&#45;&gt;Node18 -->
<g id="edge24" class="edge">
<title>Node17&#45;&gt;Node18</title>
<path fill="none" stroke="#63b8ff" d="M466.35,-407.09C480.43,-407.65 495.46,-408.25 509.29,-408.8"/>
<polygon fill="#63b8ff" stroke="#63b8ff" points="509.47,-412.31 519.6,-409.22 509.75,-405.32 509.47,-412.31"/>
</g>
<!-- Node19 -->
<g id="node19" class="node">
<title>Node19</title>
<g id="a_node19"><a xlink:href="parser__destroy_8c.html#ae2656460a6fc6b6cd65624312fe0c943" target="_top" xlink:title=" ">
<polygon fill="white" stroke="#666666" points="606,-457.35 517,-457.35 517,-438.35 606,-438.35 606,-457.35"/>
<text text-anchor="middle" x="561.5" y="-445.35" font-family="Helvetica,sans-Serif" font-size="10.00">parser_destroy</text>
</a>
</g>
</g>
<!-- Node17&#45;&gt;Node19 -->
<g id="edge25" class="edge">
<title>Node17&#45;&gt;Node19</title>
<path fill="none" stroke="#63b8ff" d="M462.96,-419.89C480.76,-424.99 500.42,-430.63 517.4,-435.5"/>
<polygon fill="#63b8ff" stroke="#63b8ff" points="516.48,-438.87 527.06,-438.27 518.41,-432.15 516.48,-438.87"/>
</g>
<!-- Node20 -->
<g id="node20" class="node">
<title>Node20</title>
<g id="a_node20"><a xlink:href="destroy__token_8c.html#ad1a471ee7b1ccb035d769be1152a370c" target="_top" xlink:title=" ">
<polygon fill="white" stroke="#666666" points="760,-457.35 674,-457.35 674,-438.35 760,-438.35 760,-457.35"/>
<text text-anchor="middle" x="717" y="-445.35" font-family="Helvetica,sans-Serif" font-size="10.00">token_destroy</text>
</a>
</g>
</g>
<!-- Node19&#45;&gt;Node20 -->
<g id="edge26" class="edge">
<title>Node19&#45;&gt;Node20</title>
<path fill="none" stroke="#63b8ff" d="M606.08,-447.85C624.03,-447.85 644.97,-447.85 663.74,-447.85"/>
<polygon fill="#63b8ff" stroke="#63b8ff" points="663.9,-451.35 673.9,-447.85 663.9,-444.35 663.9,-451.35"/>
</g>
<!-- Node22 -->
<g id="node22" class="node">
<title>Node22</title>
<g id="a_node22"><a xlink:href="execute__cmd_8c.html#a94ea9cc5a046ce96e36764bf0e4fa2c0" target="_top" xlink:title=" ">
<polygon fill="white" stroke="#666666" points="602,-233.35 521,-233.35 521,-214.35 602,-214.35 602,-233.35"/>
<text text-anchor="middle" x="561.5" y="-221.35" font-family="Helvetica,sans-Serif" font-size="10.00">execute_cmd</text>
</a>
</g>
</g>
<!-- Node21&#45;&gt;Node22 -->
<g id="edge28" class="edge">
<title>Node21&#45;&gt;Node22</title>
<path fill="none" stroke="#63b8ff" d="M447.19,-195.9C466.74,-200.72 491.02,-206.71 512.09,-211.91"/>
<polygon fill="#63b8ff" stroke="#63b8ff" points="511.28,-215.32 521.83,-214.31 512.96,-208.52 511.28,-215.32"/>
</g>
<!-- Node35 -->
<g id="node28" class="node">
<title>Node35</title>
<g id="a_node28"><a xlink:href="execute__logical__and_8c.html#a4f940752faf9f9a258c49810b21efe47" target="_top" xlink:title=" ">
<polygon fill="white" stroke="#666666" points="619.5,-196.35 503.5,-196.35 503.5,-177.35 619.5,-177.35 619.5,-196.35"/>
<text text-anchor="middle" x="561.5" y="-184.35" font-family="Helvetica,sans-Serif" font-size="10.00">execute_logical_and</text>
</a>
</g>
</g>
<!-- Node21&#45;&gt;Node35 -->
<g id="edge36" class="edge">
<title>Node21&#45;&gt;Node35</title>
<path fill="none" stroke="#63b8ff" d="M447.19,-180.96C461.07,-180.28 477.33,-180 493.14,-180.13"/>
<polygon fill="#63b8ff" stroke="#63b8ff" points="493.38,-183.64 503.43,-180.28 493.48,-176.64 493.38,-183.64"/>
</g>
<!-- Node36 -->
<g id="node29" class="node">
<title>Node36</title>
<g id="a_node29"><a xlink:href="execute__logical__or_8c.html#a7e732d7c30b07010fa55850051007dcc" target="_top" xlink:title=" ">
<polygon fill="white" stroke="#666666" points="615,-46.35 508,-46.35 508,-27.35 615,-27.35 615,-46.35"/>
<text text-anchor="middle" x="561.5" y="-34.35" font-family="Helvetica,sans-Serif" font-size="10.00">execute_logical_or</text>
</a>
</g>
</g>
<!-- Node21&#45;&gt;Node36 -->
<g id="edge38" class="edge">
<title>Node21&#45;&gt;Node36</title>
<path fill="none" stroke="#63b8ff" d="M413.27,-177.29C422.34,-153.5 452.96,-94.21 501.96,-52.85"/>
<polygon fill="#63b8ff" stroke="#63b8ff" points="504.4,-55.38 509.99,-46.37 500.01,-49.93 504.4,-55.38"/>
</g>
<!-- Node37 -->
<g id="node30" class="node">
<title>Node37</title>
<g id="a_node30"><a xlink:href="execute__pipe_8c.html#a5f3546dc2c7cf06c982afba41e722164" target="_top" xlink:title=" ">
<polygon fill="white" stroke="#666666" points="602,-122.35 521,-122.35 521,-103.35 602,-103.35 602,-122.35"/>
<text text-anchor="middle" x="561.5" y="-110.35" font-family="Helvetica,sans-Serif" font-size="10.00">execute_pipe</text>
</a>
</g>
</g>
<!-- Node21&#45;&gt;Node37 -->
<g id="edge40" class="edge">
<title>Node21&#45;&gt;Node37</title>
<path fill="none" stroke="#63b8ff" d="M423.86,-177.19C441.17,-165.02 472.63,-144.1 502,-130.85 506.09,-129.01 510.42,-127.28 514.8,-125.69"/>
<polygon fill="#63b8ff" stroke="#63b8ff" points="516.07,-128.95 524.4,-122.41 513.8,-122.33 516.07,-128.95"/>
</g>
<!-- Node42 -->
<g id="node37" class="node">
<title>Node42</title>
<g id="a_node37"><a xlink:href="execute__redirect_8c.html#a1004307aba80117ddd99f009e52fb155" target="_top" xlink:title=" ">
<polygon fill="white" stroke="#666666" points="610.5,-270.35 512.5,-270.35 512.5,-251.35 610.5,-251.35 610.5,-270.35"/>
<text text-anchor="middle" x="561.5" y="-258.35" font-family="Helvetica,sans-Serif" font-size="10.00">execute_redirect</text>
</a>
</g>
</g>
<!-- Node21&#45;&gt;Node42 -->
<g id="edge51" class="edge">
<title>Node21&#45;&gt;Node42</title>
<path fill="none" stroke="#63b8ff" d="M424.22,-196.46C441.66,-208.35 472.99,-228.63 502,-241.85 506.74,-244.01 511.79,-246.04 516.87,-247.9"/>
<polygon fill="#63b8ff" stroke="#63b8ff" points="516,-251.3 526.59,-251.28 518.3,-244.69 516,-251.3"/>
</g>
<!-- Node50 -->
<g id="node39" class="node">
<title>Node50</title>
<g id="a_node39"><a xlink:href="execute__repeat_8c.html#a00d48683c54b50130b4a402e6e97fa97" target="_top" xlink:title=" ">
<polygon fill="white" stroke="#666666" points="607.5,-383.35 515.5,-383.35 515.5,-364.35 607.5,-364.35 607.5,-383.35"/>
<text text-anchor="middle" x="561.5" y="-371.35" font-family="Helvetica,sans-Serif" font-size="10.00">execute_repeat</text>
</a>
</g>
</g>
<!-- Node21&#45;&gt;Node50 -->
<g id="edge54" class="edge">
<title>Node21&#45;&gt;Node50</title>
<path fill="none" stroke="#63b8ff" d="M414.17,-196.37C423.31,-224.4 450.13,-304.34 502,-346.85 510.66,-353.95 522.09,-358.25 532.56,-361.49"/>
<polygon fill="#63b8ff" stroke="#63b8ff" points="531.59,-364.85 542.17,-364.32 533.57,-358.13 531.59,-364.85"/>
</g>
<!-- Node51 -->
<g id="node40" class="node">
<title>Node51</title>
<g id="a_node40"><a xlink:href="execute__sequence_8c.html#aad2caa5bf50b0752dd8272da477ec231" target="_top" xlink:title=" ">
<polygon fill="white" stroke="#666666" points="615,-346.35 508,-346.35 508,-327.35 615,-327.35 615,-346.35"/>
<text text-anchor="middle" x="561.5" y="-334.35" font-family="Helvetica,sans-Serif" font-size="10.00">execute_sequence</text>
</a>
</g>
</g>
<!-- Node21&#45;&gt;Node51 -->
<g id="edge56" class="edge">
<title>Node21&#45;&gt;Node51</title>
<path fill="none" stroke="#63b8ff" d="M417.77,-196.36C431.1,-218.65 461.82,-272.28 502,-303.85 512.82,-312.35 527.06,-318.28 538.78,-323.17"/>
<polygon fill="#63b8ff" stroke="#63b8ff" points="537.72,-326.52 548.29,-327.25 540.47,-320.09 537.72,-326.52"/>
</g>
<!-- Node52 -->
<g id="node41" class="node">
<title>Node52</title>
<g id="a_node41"><a xlink:href="execute__subshell_8c.html#a40a27866de012b013a337f794a858d70" target="_top" xlink:title=" ">
<polygon fill="white" stroke="#666666" points="612,-159.35 511,-159.35 511,-140.35 612,-140.35 612,-159.35"/>
<text text-anchor="middle" x="561.5" y="-147.35" font-family="Helvetica,sans-Serif" font-size="10.00">execute_subshell</text>
</a>
</g>
</g>
<!-- Node21&#45;&gt;Node52 -->
<g id="edge58" class="edge">
<title>Node21&#45;&gt;Node52</title>
<path fill="none" stroke="#63b8ff" d="M430.11,-177.28C448.13,-171.15 475.78,-163.7 500.99,-157.91"/>
<polygon fill="#63b8ff" stroke="#63b8ff" points="501.88,-161.3 510.87,-155.7 500.35,-154.47 501.88,-161.3"/>
</g>
<!-- Node23 -->
<g id="node23" class="node">
<title>Node23</title>
<g id="a_node23"><a xlink:href="execute__cmd_8c.html#a0cfd2364134e68efdd39533e00b4b0d9" target="_top" xlink:title=" ">
<polygon fill="white" stroke="#666666" points="934,-206.35 815,-206.35 815,-187.35 934,-187.35 934,-206.35"/>
<text text-anchor="middle" x="874.5" y="-194.35" font-family="Helvetica,sans-Serif" font-size="10.00">execute_local_binary</text>
</a>
</g>
</g>
<!-- Node22&#45;&gt;Node23 -->
<g id="edge29" class="edge">
<title>Node22&#45;&gt;Node23</title>
<path fill="none" stroke="#63b8ff" d="M602.33,-215.48C619.13,-212.27 638.94,-208.88 657,-206.85 706.33,-201.3 762.31,-198.82 804.99,-197.71"/>
<polygon fill="#63b8ff" stroke="#63b8ff" points="805.07,-201.21 814.99,-197.47 804.9,-194.21 805.07,-201.21"/>
</g>
<!-- Node31 -->
<g id="node25" class="node">
<title>Node31</title>
<g id="a_node25"><a xlink:href="execute__cmd_8c.html#a460126af28ab29df4340554fae9fc57a" target="_top" xlink:title=" ">
<polygon fill="white" stroke="#666666" points="776,-272.35 658,-272.35 658,-253.35 776,-253.35 776,-272.35"/>
<text text-anchor="middle" x="717" y="-260.35" font-family="Helvetica,sans-Serif" font-size="10.00">execute_path_binary</text>
</a>
</g>
</g>
<!-- Node22&#45;&gt;Node31 -->
<g id="edge31" class="edge">
<title>Node22&#45;&gt;Node31</title>
<path fill="none" stroke="#63b8ff" d="M600.05,-233.39C620.75,-238.65 646.66,-245.24 668.73,-250.84"/>
<polygon fill="#63b8ff" stroke="#63b8ff" points="668.02,-254.27 678.57,-253.34 669.74,-247.49 668.02,-254.27"/>
</g>
<!-- Node34 -->
<g id="node27" class="node">
<title>Node34</title>
<g id="a_node27"><a xlink:href="strings_8h.html#a36f055c4e56c8a784629908d0c5b91e5" target="_top" xlink:title=" ">
<polygon fill="white" stroke="#666666" points="769,-235.35 665,-235.35 665,-216.35 769,-216.35 769,-235.35"/>
<text text-anchor="middle" x="717" y="-223.35" font-family="Helvetica,sans-Serif" font-size="10.00">my_is_char_in_str</text>
</a>
</g>
</g>
<!-- Node22&#45;&gt;Node34 -->
<g id="edge35" class="edge">
<title>Node22&#45;&gt;Node34</title>
<path fill="none" stroke="#63b8ff" d="M602.03,-224.37C618,-224.58 636.8,-224.82 654.47,-225.05"/>
<polygon fill="#63b8ff" stroke="#63b8ff" points="654.68,-228.55 664.72,-225.18 654.77,-221.55 654.68,-228.55"/>
</g>
<!-- Node24 -->
<g id="node24" class="node">
<title>Node24</title>
<g id="a_node24"><a xlink:href="execute__cmd_8c.html#a018afe6a043051ebc2e3dd9412587990" target="_top" xlink:title=" ">
<polygon fill="#fff0f0" stroke="red" points="1087.5,-225.35 996.5,-225.35 996.5,-206.35 1087.5,-206.35 1087.5,-225.35"/>
<text text-anchor="middle" x="1042" y="-213.35" font-family="Helvetica,sans-Serif" font-size="10.00">execute_binary</text>
</a>
</g>
</g>
<!-- Node23&#45;&gt;Node24 -->
<g id="edge30" class="edge">
<title>Node23&#45;&gt;Node24</title>
<path fill="none" stroke="#63b8ff" d="M934.32,-203.6C951.24,-205.55 969.63,-207.66 986.3,-209.57"/>
<polygon fill="#63b8ff" stroke="#63b8ff" points="986.09,-213.07 996.42,-210.74 986.89,-206.12 986.09,-213.07"/>
</g>
<!-- Node31&#45;&gt;Node4 -->
<g id="edge32" class="edge">
<title>Node31&#45;&gt;Node4</title>
<path fill="none" stroke="#63b8ff" d="M766.99,-272.48C770.76,-274.73 774.19,-277.48 777,-280.85 821.03,-333.58 793.67,-521.94 813,-587.85 824.67,-627.65 848.23,-670.34 862.26,-693.8"/>
<polygon fill="#63b8ff" stroke="#63b8ff" points="859.27,-695.62 867.46,-702.34 865.25,-691.98 859.27,-695.62"/>
</g>
<!-- Node32 -->
<g id="node26" class="node">
<title>Node32</title>
<g id="a_node26"><a xlink:href="execute__cmd_8c.html#aee9e13edede9df28fac066f30e7ae7ed" target="_top" xlink:title=" ">
<polygon fill="#fff0f0" stroke="red" points="916.5,-253.35 832.5,-253.35 832.5,-234.35 916.5,-234.35 916.5,-253.35"/>
<text text-anchor="middle" x="874.5" y="-241.35" font-family="Helvetica,sans-Serif" font-size="10.00">try_command</text>
</a>
</g>
</g>
<!-- Node31&#45;&gt;Node32 -->
<g id="edge33" class="edge">
<title>Node31&#45;&gt;Node32</title>
<path fill="none" stroke="#63b8ff" d="M776.34,-255.72C791.47,-253.88 807.64,-251.9 822.36,-250.1"/>
<polygon fill="#63b8ff" stroke="#63b8ff" points="822.79,-253.57 832.29,-248.89 821.94,-246.63 822.79,-253.57"/>
</g>
<!-- Node32&#45;&gt;Node24 -->
<g id="edge34" class="edge">
<title>Node32&#45;&gt;Node24</title>
<path fill="none" stroke="#63b8ff" d="M916.84,-236.86C937.84,-233.31 963.64,-228.94 986.28,-225.11"/>
<polygon fill="#63b8ff" stroke="#63b8ff" points="987.15,-228.51 996.42,-223.39 985.98,-221.61 987.15,-228.51"/>
</g>
<!-- Node35&#45;&gt;Node21 -->
<g id="edge37" class="edge">
<title>Node35&#45;&gt;Node21</title>
<path fill="none" stroke="#63b8ff" d="M503.43,-193.43C488.26,-193.73 472.04,-193.64 457.47,-193.16"/>
<polygon fill="#63b8ff" stroke="#63b8ff" points="457.33,-189.66 447.19,-192.75 457.04,-196.65 457.33,-189.66"/>
</g>
<!-- Node36&#45;&gt;Node21 -->
<g id="edge39" class="edge">
<title>Node36&#45;&gt;Node21</title>
<path fill="none" stroke="#63b8ff" d="M548.29,-46.46C535.7,-52.17 515.98,-58.86 502,-69.85 466.38,-97.85 438.18,-143.19 422.95,-168.64"/>
<polygon fill="#63b8ff" stroke="#63b8ff" points="419.88,-166.96 417.77,-177.34 425.89,-170.55 419.88,-166.96"/>
</g>
<!-- Node38 -->
<g id="node31" class="node">
<title>Node38</title>
<g id="a_node31"><a xlink:href="execute__pipe_8c.html#a723ff799f939872d17f109a82342294e" target="_top" xlink:title=" ">
<polygon fill="white" stroke="#666666" points="905.5,-83.35 843.5,-83.35 843.5,-64.35 905.5,-64.35 905.5,-83.35"/>
<text text-anchor="middle" x="874.5" y="-71.35" font-family="Helvetica,sans-Serif" font-size="10.00">close_fds</text>
</a>
</g>
</g>
<!-- Node37&#45;&gt;Node38 -->
<g id="edge41" class="edge">
<title>Node37&#45;&gt;Node38</title>
<path fill="none" stroke="#63b8ff" d="M602.16,-110.01C645.3,-106.67 716.24,-100.48 777,-91.85 795.44,-89.23 815.73,-85.57 832.93,-82.23"/>
<polygon fill="#63b8ff" stroke="#63b8ff" points="834.05,-85.58 843.19,-80.21 832.7,-78.71 834.05,-85.58"/>
</g>
<!-- Node39 -->
<g id="node32" class="node">
<title>Node39</title>
<g id="a_node32"><a xlink:href="execute__pipe_8c.html#ac529ffc2370b0133613ef8a81e58ed85" target="_top" xlink:title=" ">
<polygon fill="white" stroke="#666666" points="768,-83.35 666,-83.35 666,-64.35 768,-64.35 768,-83.35"/>
<text text-anchor="middle" x="717" y="-71.35" font-family="Helvetica,sans-Serif" font-size="10.00">execute_pipe_left</text>
</a>
</g>
</g>
<!-- Node37&#45;&gt;Node39 -->
<g id="edge42" class="edge">
<title>Node37&#45;&gt;Node39</title>
<path fill="none" stroke="#63b8ff" d="M600.05,-103.31C620.75,-98.05 646.66,-91.47 668.73,-85.86"/>
<polygon fill="#63b8ff" stroke="#63b8ff" points="669.74,-89.22 678.57,-83.36 668.02,-82.43 669.74,-89.22"/>
</g>
<!-- Node40 -->
<g id="node33" class="node">
<title>Node40</title>
<g id="a_node33"><a xlink:href="execute__pipe_8c.html#a9ed6eabb8a9f7049f91265a5f45e30c8" target="_top" xlink:title=" ">
<polygon fill="white" stroke="#666666" points="771.5,-46.35 662.5,-46.35 662.5,-27.35 771.5,-27.35 771.5,-46.35"/>
<text text-anchor="middle" x="717" y="-34.35" font-family="Helvetica,sans-Serif" font-size="10.00">execute_pipe_right</text>
</a>
</g>
</g>
<!-- Node37&#45;&gt;Node40 -->
<g id="edge45" class="edge">
<title>Node37&#45;&gt;Node40</title>
<path fill="none" stroke="#63b8ff" d="M575.67,-103.26C593.4,-90.71 626.29,-68.69 657,-54.85 661.12,-53 665.49,-51.26 669.9,-49.66"/>
<polygon fill="#63b8ff" stroke="#63b8ff" points="671.24,-52.9 679.58,-46.37 668.99,-46.28 671.24,-52.9"/>
</g>
<!-- Node29 -->
<g id="node35" class="node">
<title>Node29</title>
<g id="a_node35"><a xlink:href="wait__for__subprocess_8c.html#a1242d78540fd0ddef3d98a9f294cb0d4" target="_top" xlink:title=" ">
<polygon fill="white" stroke="#666666" points="775,-159.35 659,-159.35 659,-140.35 775,-140.35 775,-159.35"/>
<text text-anchor="middle" x="717" y="-147.35" font-family="Helvetica,sans-Serif" font-size="10.00">wait_for_subprocess</text>
</a>
</g>
</g>
<!-- Node37&#45;&gt;Node29 -->
<g id="edge49" class="edge">
<title>Node37&#45;&gt;Node29</title>
<path fill="none" stroke="#63b8ff" d="M602.03,-122.38C621.65,-127.11 645.55,-132.87 666.39,-137.89"/>
<polygon fill="#63b8ff" stroke="#63b8ff" points="665.8,-141.35 676.34,-140.29 667.44,-134.55 665.8,-141.35"/>
</g>
<!-- Node39&#45;&gt;Node21 -->
<g id="edge44" class="edge">
<title>Node39&#45;&gt;Node21</title>
<path fill="none" stroke="#63b8ff" d="M665.88,-69.11C620.81,-66.97 553.91,-69.2 502,-93.85 466.91,-110.52 437.77,-146.59 422.36,-168.59"/>
<polygon fill="#63b8ff" stroke="#63b8ff" points="419.33,-166.82 416.61,-177.06 425.12,-170.75 419.33,-166.82"/>
</g>
<!-- Node39&#45;&gt;Node38 -->
<g id="edge43" class="edge">
<title>Node39&#45;&gt;Node38</title>
<path fill="none" stroke="#63b8ff" d="M768.06,-73.85C789.13,-73.85 813.32,-73.85 833.22,-73.85"/>
<polygon fill="#63b8ff" stroke="#63b8ff" points="833.48,-77.35 843.48,-73.85 833.48,-70.35 833.48,-77.35"/>
</g>
<!-- Node40&#45;&gt;Node21 -->
<g id="edge47" class="edge">
<title>Node40&#45;&gt;Node21</title>
<path fill="none" stroke="#63b8ff" d="M694.73,-27.27C654.07,-10.52 563.84,18.99 502,-17.85 446.67,-50.81 422.76,-130.15 414.34,-167.19"/>
<polygon fill="#63b8ff" stroke="#63b8ff" points="410.86,-166.72 412.21,-177.23 417.71,-168.17 410.86,-166.72"/>
</g>
<!-- Node40&#45;&gt;Node38 -->
<g id="edge46" class="edge">
<title>Node40&#45;&gt;Node38</title>
<path fill="none" stroke="#63b8ff" d="M758.05,-46.38C781.25,-51.9 810.36,-58.83 833.55,-64.35"/>
<polygon fill="#63b8ff" stroke="#63b8ff" points="832.88,-67.78 843.41,-66.69 834.5,-60.97 832.88,-67.78"/>
</g>
<!-- Node41 -->
<g id="node34" class="node">
<title>Node41</title>
<g id="a_node34"><a xlink:href="execute__pipe_8c.html#ac3d3a124b262676fa0679720f99a7f83" target="_top" xlink:title=" ">
<polygon fill="white" stroke="#666666" points="914.5,-46.35 834.5,-46.35 834.5,-27.35 914.5,-27.35 914.5,-46.35"/>
<text text-anchor="middle" x="874.5" y="-34.35" font-family="Helvetica,sans-Serif" font-size="10.00">restore_stdin</text>
</a>
</g>
</g>
<!-- Node40&#45;&gt;Node41 -->
<g id="edge48" class="edge">
<title>Node40&#45;&gt;Node41</title>
<path fill="none" stroke="#63b8ff" d="M771.51,-36.85C788.54,-36.85 807.29,-36.85 824.01,-36.85"/>
<polygon fill="#63b8ff" stroke="#63b8ff" points="824.13,-40.35 834.13,-36.85 824.13,-33.35 824.13,-40.35"/>
</g>
<!-- Node30 -->
<g id="node36" class="node">
<title>Node30</title>
<g id="a_node36"><a xlink:href="wait__for__subprocess_8c.html#a885766ba6ba593b7cf27b917dd52b1a6" target="_top" xlink:title=" ">
<polygon fill="white" stroke="#666666" points="936,-159.35 813,-159.35 813,-140.35 936,-140.35 936,-159.35"/>
<text text-anchor="middle" x="874.5" y="-147.35" font-family="Helvetica,sans-Serif" font-size="10.00">print_signal_message</text>
</a>
</g>
</g>
<!-- Node29&#45;&gt;Node30 -->
<g id="edge50" class="edge">
<title>Node29&#45;&gt;Node30</title>
<path fill="none" stroke="#63b8ff" d="M775.02,-149.85C784.06,-149.85 793.5,-149.85 802.81,-149.85"/>
<polygon fill="#63b8ff" stroke="#63b8ff" points="802.83,-153.35 812.83,-149.85 802.83,-146.35 802.83,-153.35"/>
</g>
<!-- Node43 -->
<g id="node38" class="node">
<title>Node43</title>
<g id="a_node38"><a xlink:href="execute__redirect_8c.html#a5aa0f008806cc0e8a7ba252d61b7001f" target="_top" xlink:title=" ">
<polygon fill="#fff0f0" stroke="red" points="770.5,-309.35 663.5,-309.35 663.5,-290.35 770.5,-290.35 770.5,-309.35"/>
<text text-anchor="middle" x="717" y="-297.35" font-family="Helvetica,sans-Serif" font-size="10.00">redirect_execution</text>
</a>
</g>
</g>
<!-- Node42&#45;&gt;Node43 -->
<g id="edge52" class="edge">
<title>Node42&#45;&gt;Node43</title>
<path fill="none" stroke="#63b8ff" d="M600.05,-270.39C620.75,-275.65 646.66,-282.24 668.73,-287.84"/>
<polygon fill="#63b8ff" stroke="#63b8ff" points="668.02,-291.27 678.57,-290.34 669.74,-284.49 668.02,-291.27"/>
</g>
<!-- Node43&#45;&gt;Node21 -->
<g id="edge53" class="edge">
<title>Node43&#45;&gt;Node21</title>
<path fill="none" stroke="#63b8ff" d="M663.23,-304.35C618.23,-305.98 552.93,-303.01 502,-278.85 467.1,-262.29 437.89,-226.63 422.42,-204.89"/>
<polygon fill="#63b8ff" stroke="#63b8ff" points="425.21,-202.77 416.65,-196.53 419.44,-206.75 425.21,-202.77"/>
</g>
<!-- Node50&#45;&gt;Node21 -->
<g id="edge55" class="edge">
<title>Node50&#45;&gt;Node21</title>
<path fill="none" stroke="#63b8ff" d="M515.21,-372.86C510.47,-370.74 505.95,-368.09 502,-364.85 450.55,-322.69 423.74,-243.69 414.4,-206.56"/>
<polygon fill="#63b8ff" stroke="#63b8ff" points="417.72,-205.41 412.05,-196.47 410.91,-207 417.72,-205.41"/>
</g>
<!-- Node51&#45;&gt;Node21 -->
<g id="edge57" class="edge">
<title>Node51&#45;&gt;Node21</title>
<path fill="none" stroke="#63b8ff" d="M509.99,-327.33C507.19,-325.65 504.5,-323.82 502,-321.85 461.3,-289.87 430.29,-235.24 417.25,-205.97"/>
<polygon fill="#63b8ff" stroke="#63b8ff" points="420.35,-204.3 413.27,-196.42 413.89,-207 420.35,-204.3"/>
</g>
<!-- Node52&#45;&gt;Node21 -->
<g id="edge59" class="edge">
<title>Node52&#45;&gt;Node21</title>
<path fill="none" stroke="#63b8ff" d="M540.71,-159.48C519.57,-166.66 485.3,-175.63 457.22,-181.63"/>
<polygon fill="#63b8ff" stroke="#63b8ff" points="456.28,-178.25 447.19,-183.7 457.69,-185.11 456.28,-178.25"/>
</g>
<!-- Node52&#45;&gt;Node29 -->
<g id="edge60" class="edge">
<title>Node52&#45;&gt;Node29</title>
<path fill="none" stroke="#63b8ff" d="M612.34,-149.85C623.96,-149.85 636.53,-149.85 648.78,-149.85"/>
<polygon fill="#63b8ff" stroke="#63b8ff" points="648.95,-153.35 658.95,-149.85 648.95,-146.35 648.95,-153.35"/>
</g>
<!-- Node54 -->
<g id="node43" class="node">
<title>Node54</title>
<g id="a_node43"><a xlink:href="empty__stdin_8c.html#a4c89df10296f2cc245e3a32065e04e7b" target="_top" xlink:title=" ">
<polygon fill="white" stroke="#666666" points="600,-570.35 523,-570.35 523,-551.35 600,-551.35 600,-570.35"/>
<text text-anchor="middle" x="561.5" y="-558.35" font-family="Helvetica,sans-Serif" font-size="10.00">empty_stdin</text>
</a>
</g>
</g>
<!-- Node53&#45;&gt;Node54 -->
<g id="edge62" class="edge">
<title>Node53&#45;&gt;Node54</title>
<path fill="none" stroke="#63b8ff" d="M455.1,-560.85C473.23,-560.85 494.22,-560.85 512.67,-560.85"/>
<polygon fill="#63b8ff" stroke="#63b8ff" points="512.91,-564.35 522.91,-560.85 512.91,-557.35 512.91,-564.35"/>
</g>
<!-- Node55 -->
<g id="node44" class="node">
<title>Node55</title>
<g id="a_node44"><a xlink:href="shell_8c.html#a2c9bd51744387dc73763281019d78622" target="_top" xlink:title=" ">
<polygon fill="white" stroke="#666666" points="593.5,-607.35 529.5,-607.35 529.5,-588.35 593.5,-588.35 593.5,-607.35"/>
<text text-anchor="middle" x="561.5" y="-595.35" font-family="Helvetica,sans-Serif" font-size="10.00">parse_ast</text>
</a>
</g>
</g>
<!-- Node53&#45;&gt;Node55 -->
<g id="edge63" class="edge">
<title>Node53&#45;&gt;Node55</title>
<path fill="none" stroke="#63b8ff" d="M449.13,-570.38C470.56,-575.67 497.22,-582.24 519.08,-587.64"/>
<polygon fill="#63b8ff" stroke="#63b8ff" points="518.52,-591.1 529.07,-590.1 520.2,-584.31 518.52,-591.1"/>
</g>
<!-- Node56 -->
<g id="node45" class="node">
<title>Node56</title>
<g id="a_node45"><a xlink:href="parser__parse_8c.html#ab56c1f0e36fe941facfe258418c2cc72" target="_top" xlink:title=" ">
<polygon fill="#fff0f0" stroke="red" points="757,-589.35 677,-589.35 677,-570.35 757,-570.35 757,-589.35"/>
<text text-anchor="middle" x="717" y="-577.35" font-family="Helvetica,sans-Serif" font-size="10.00">parser_parse</text>
</a>
</g>
</g>
<!-- Node55&#45;&gt;Node56 -->
<g id="edge64" class="edge">
<title>Node55&#45;&gt;Node56</title>
<path fill="none" stroke="#63b8ff" d="M593.56,-594.21C614.57,-591.75 642.75,-588.44 666.78,-585.62"/>
<polygon fill="#63b8ff" stroke="#63b8ff" points="667.26,-589.09 676.79,-584.45 666.45,-582.14 667.26,-589.09"/>
</g>
<!-- Node55&#45;&gt;Node149 -->
<g id="edge66" class="edge">
<title>Node55&#45;&gt;Node149</title>
<path fill="none" stroke="#63b8ff" d="M593.56,-603.72C611.41,-607.09 634.44,-611.44 655.7,-615.46"/>
<polygon fill="#63b8ff" stroke="#63b8ff" points="655.17,-618.92 665.65,-617.34 656.47,-612.04 655.17,-618.92"/>
</g>
<!-- Node56&#45;&gt;Node15 -->
<g id="edge65" class="edge">
<title>Node56&#45;&gt;Node15</title>
<path fill="none" stroke="#63b8ff" d="M757.24,-572.53C778.62,-568.55 805.19,-563.59 827.54,-559.42"/>
<polygon fill="#63b8ff" stroke="#63b8ff" points="828.28,-562.85 837.47,-557.57 827,-555.96 828.28,-562.85"/>
</g>
<!-- Node80 -->
<g id="node49" class="node">
<title>Node80</title>
<g id="a_node49"><a xlink:href="parser__next_8c.html#ad25986b565a767c6ad7d0b0b8846fca6" target="_top" xlink:title=" ">
<polygon fill="white" stroke="#666666" points="598.5,-494.35 524.5,-494.35 524.5,-475.35 598.5,-475.35 598.5,-494.35"/>
<text text-anchor="middle" x="561.5" y="-482.35" font-family="Helvetica,sans-Serif" font-size="10.00">parser_next</text>
</a>
</g>
</g>
<!-- Node151&#45;&gt;Node80 -->
<g id="edge69" class="edge">
<title>Node151&#45;&gt;Node80</title>
<path fill="none" stroke="#63b8ff" d="M443.79,-484.85C464.52,-484.85 491.49,-484.85 514.28,-484.85"/>
<polygon fill="#63b8ff" stroke="#63b8ff" points="514.42,-488.35 524.42,-484.85 514.42,-481.35 514.42,-488.35"/>
</g>
<!-- Node80&#45;&gt;Node20 -->
<g id="edge71" class="edge">
<title>Node80&#45;&gt;Node20</title>
<path fill="none" stroke="#63b8ff" d="M598.88,-476.08C619.1,-471.21 644.54,-465.08 666.55,-459.77"/>
<polygon fill="#63b8ff" stroke="#63b8ff" points="667.48,-463.15 676.38,-457.4 665.84,-456.34 667.48,-463.15"/>
</g>
<!-- Node81 -->
<g id="node50" class="node">
<title>Node81</title>
<g id="a_node50"><a xlink:href="lexer__next__token_8c.html#a3def5432329709fb4df861d90672c510" target="_top" xlink:title=" ">
<polygon fill="#fff0f0" stroke="red" points="767,-494.35 667,-494.35 667,-475.35 767,-475.35 767,-494.35"/>
<text text-anchor="middle" x="717" y="-482.35" font-family="Helvetica,sans-Serif" font-size="10.00">lexer_next_token</text>
</a>
</g>
</g>
<!-- Node80&#45;&gt;Node81 -->
<g id="edge70" class="edge">
<title>Node80&#45;&gt;Node81</title>
<path fill="none" stroke="#63b8ff" d="M598.88,-484.85C616.17,-484.85 637.28,-484.85 656.79,-484.85"/>
<polygon fill="#63b8ff" stroke="#63b8ff" points="656.82,-488.35 666.82,-484.85 656.82,-481.35 656.82,-488.35"/>
</g>
</g>
</svg>
