<?xml version="1.0" encoding="UTF-8" standalone="no"?>
<!DOCTYPE svg PUBLIC "-//W3C//DTD SVG 1.1//EN"
 "http://www.w3.org/Graphics/SVG/1.1/DTD/svg11.dtd">
<!-- Generated by graphviz version 2.43.0 (0)
 -->
<!-- Title: cd_to_prev_directory Pages: 1 -->
<svg width="586pt" height="175pt"
 viewBox="0.00 0.00 586.00 175.00" xmlns="http://www.w3.org/2000/svg" xmlns:xlink="http://www.w3.org/1999/xlink">
<g id="graph0" class="graph" transform="scale(1 1) rotate(0) translate(4 171)">
<title>cd_to_prev_directory</title>
<!-- Node1 -->
<g id="node1" class="node">
<title>Node1</title>
<g id="a_node1"><a xlink:title=" ">
<polygon fill="#999999" stroke="#666666" points="119,-139 0,-139 0,-120 119,-120 119,-139"/>
<text text-anchor="middle" x="59.5" y="-127" font-family="Helvetica,sans-Serif" font-size="10.00">cd_to_prev_directory</text>
</a>
</g>
</g>
<!-- Node2 -->
<g id="node2" class="node">
<title>Node2</title>
<g id="a_node2"><a xlink:href="get__variable__value_8c.html#a2edd9900f19af236aa05385a789be3d6" target="_top" xlink:title=" ">
<polygon fill="white" stroke="#666666" points="402,-158 292,-158 292,-139 402,-139 402,-158"/>
<text text-anchor="middle" x="347" y="-146" font-family="Helvetica,sans-Serif" font-size="10.00">get_variable_value</text>
</a>
</g>
</g>
<!-- Node1&#45;&gt;Node2 -->
<g id="edge1" class="edge">
<title>Node1&#45;&gt;Node2</title>
<path fill="none" stroke="#63b8ff" d="M119.31,-133.41C166.55,-136.56 232.82,-140.97 281.51,-144.21"/>
<polygon fill="#63b8ff" stroke="#63b8ff" points="281.41,-147.71 291.62,-144.88 281.87,-140.72 281.41,-147.71"/>
</g>
<!-- Node4 -->
<g id="node4" class="node">
<title>Node4</title>
<g id="a_node4"><a xlink:href="cd_8c.html#a5f88b27ad31ff3809a0bdadac6e71207" target="_top" xlink:title=" ">
<polygon fill="white" stroke="#666666" points="256,-120 155,-120 155,-101 256,-101 256,-120"/>
<text text-anchor="middle" x="205.5" y="-108" font-family="Helvetica,sans-Serif" font-size="10.00">update_variables</text>
</a>
</g>
</g>
<!-- Node1&#45;&gt;Node4 -->
<g id="edge3" class="edge">
<title>Node1&#45;&gt;Node4</title>
<path fill="none" stroke="#63b8ff" d="M119.07,-121.77C127.48,-120.66 136.15,-119.52 144.59,-118.4"/>
<polygon fill="#63b8ff" stroke="#63b8ff" points="145.29,-121.84 154.74,-117.07 144.37,-114.9 145.29,-121.84"/>
</g>
<!-- Node3 -->
<g id="node3" class="node">
<title>Node3</title>
<g id="a_node3"><a xlink:href="get__variable_8c.html#a569170390f0edf013bf89c26ef55ea8c" target="_top" xlink:title=" ">
<polygon fill="white" stroke="#666666" points="546.5,-167 469.5,-167 469.5,-148 546.5,-148 546.5,-167"/>
<text text-anchor="middle" x="508" y="-155" font-family="Helvetica,sans-Serif" font-size="10.00">get_variable</text>
</a>
</g>
</g>
<!-- Node2&#45;&gt;Node3 -->
<g id="edge2" class="edge">
<title>Node2&#45;&gt;Node3</title>
<path fill="none" stroke="#63b8ff" d="M402.27,-151.57C420.77,-152.62 441.31,-153.78 459.26,-154.8"/>
<polygon fill="#63b8ff" stroke="#63b8ff" points="459.31,-158.31 469.49,-155.38 459.7,-151.32 459.31,-158.31"/>
</g>
<!-- Node4&#45;&gt;Node2 -->
<g id="edge4" class="edge">
<title>Node4&#45;&gt;Node2</title>
<path fill="none" stroke="#63b8ff" d="M241.7,-120.09C259.71,-124.99 281.83,-131.02 301.06,-136.26"/>
<polygon fill="#63b8ff" stroke="#63b8ff" points="300.24,-139.66 310.81,-138.91 302.08,-132.91 300.24,-139.66"/>
</g>
<!-- Node5 -->
<g id="node5" class="node">
<title>Node5</title>
<g id="a_node5"><a xlink:href="set__variable_8c.html#a47afbd80fec3464fe83979a24adb4290" target="_top" xlink:title=" ">
<polygon fill="white" stroke="#666666" points="385.5,-102 308.5,-102 308.5,-83 385.5,-83 385.5,-102"/>
<text text-anchor="middle" x="347" y="-90" font-family="Helvetica,sans-Serif" font-size="10.00">set_variable</text>
</a>
</g>
</g>
<!-- Node4&#45;&gt;Node5 -->
<g id="edge5" class="edge">
<title>Node4&#45;&gt;Node5</title>
<path fill="none" stroke="#63b8ff" d="M256.08,-104.1C269.8,-102.33 284.67,-100.41 298.3,-98.66"/>
<polygon fill="#63b8ff" stroke="#63b8ff" points="298.96,-102.1 308.43,-97.35 298.06,-95.16 298.96,-102.1"/>
</g>
<!-- Node5&#45;&gt;Node3 -->
<g id="edge8" class="edge">
<title>Node5&#45;&gt;Node3</title>
<path fill="none" stroke="#63b8ff" d="M363.75,-102.13C381.32,-112.53 410.86,-129.03 438,-139.5 444.83,-142.13 452.18,-144.51 459.46,-146.61"/>
<polygon fill="#63b8ff" stroke="#63b8ff" points="458.7,-150.03 469.27,-149.3 460.55,-143.28 458.7,-150.03"/>
</g>
<!-- Node6 -->
<g id="node6" class="node">
<title>Node6</title>
<g id="a_node6"><a xlink:href="set__variable_8c.html#adebd93167a76f58c737bb4ee682da191" target="_top" xlink:title=" ">
<polygon fill="white" stroke="#666666" points="536,-130 480,-130 480,-111 536,-111 536,-130"/>
<text text-anchor="middle" x="508" y="-118" font-family="Helvetica,sans-Serif" font-size="10.00">fill_data</text>
</a>
</g>
</g>
<!-- Node5&#45;&gt;Node6 -->
<g id="edge6" class="edge">
<title>Node5&#45;&gt;Node6</title>
<path fill="none" stroke="#63b8ff" d="M385.68,-99.14C411.02,-103.6 444.29,-109.46 469.58,-113.91"/>
<polygon fill="#63b8ff" stroke="#63b8ff" points="469.08,-117.38 479.54,-115.66 470.3,-110.48 469.08,-117.38"/>
</g>
<!-- Node7 -->
<g id="node7" class="node">
<title>Node7</title>
<g id="a_node7"><a xlink:href="free__variable_8c.html#a6cfba30b5c98d6fa7663b6bc29fe01cc" target="_top" xlink:title=" ">
<polygon fill="white" stroke="#666666" points="548.5,-93 467.5,-93 467.5,-74 548.5,-74 548.5,-93"/>
<text text-anchor="middle" x="508" y="-81" font-family="Helvetica,sans-Serif" font-size="10.00">free_variable</text>
</a>
</g>
</g>
<!-- Node5&#45;&gt;Node7 -->
<g id="edge7" class="edge">
<title>Node5&#45;&gt;Node7</title>
<path fill="none" stroke="#63b8ff" d="M385.68,-90.37C407.12,-89.15 434.23,-87.62 457.38,-86.31"/>
<polygon fill="#63b8ff" stroke="#63b8ff" points="457.58,-89.8 467.37,-85.74 457.19,-82.81 457.58,-89.8"/>
</g>
<!-- Node8 -->
<g id="node8" class="node">
<title>Node8</title>
<g id="a_node8"><a xlink:href="list_8h.html#a56c2e407458d3d071ab549938bc5a7c1" target="_top" xlink:title=" ">
<polygon fill="white" stroke="#666666" points="553.5,-56 462.5,-56 462.5,-37 553.5,-37 553.5,-56"/>
<text text-anchor="middle" x="508" y="-44" font-family="Helvetica,sans-Serif" font-size="10.00">my_add_to_list</text>
</a>
</g>
</g>
<!-- Node5&#45;&gt;Node8 -->
<g id="edge9" class="edge">
<title>Node5&#45;&gt;Node8</title>
<path fill="none" stroke="#63b8ff" d="M377.49,-82.95C395.01,-77.37 417.7,-70.3 438,-64.5 444.72,-62.58 451.83,-60.63 458.83,-58.76"/>
<polygon fill="#63b8ff" stroke="#63b8ff" points="460.18,-62.02 468.95,-56.09 458.39,-55.26 460.18,-62.02"/>
</g>
<!-- Node9 -->
<g id="node9" class="node">
<title>Node9</title>
<g id="a_node9"><a xlink:href="set__variable_8c.html#a9423ce83dff6e167d4168b47e91086f6" target="_top" xlink:title=" ">
<polygon fill="white" stroke="#666666" points="578,-19 438,-19 438,0 578,0 578,-19"/>
<text text-anchor="middle" x="508" y="-7" font-family="Helvetica,sans-Serif" font-size="10.00">update_existing_variable</text>
</a>
</g>
</g>
<!-- Node5&#45;&gt;Node9 -->
<g id="edge10" class="edge">
<title>Node5&#45;&gt;Node9</title>
<path fill="none" stroke="#63b8ff" d="M358.52,-82.86C374.52,-68.71 406.44,-42.37 438,-27.5 442.08,-25.58 446.39,-23.84 450.8,-22.27"/>
<polygon fill="#63b8ff" stroke="#63b8ff" points="452.09,-25.53 460.51,-19.1 449.92,-18.87 452.09,-25.53"/>
</g>
</g>
</svg>
