<?xml version="1.0" encoding="UTF-8" standalone="no"?>
<!DOCTYPE svg PUBLIC "-//W3C//DTD SVG 1.1//EN"
 "http://www.w3.org/Graphics/SVG/1.1/DTD/svg11.dtd">
<!-- Generated by graphviz version 2.43.0 (0)
 -->
<!-- Title: src Pages: 1 -->
<!--zoomable 98 -->
<svg id="main" version="1.1" xmlns="http://www.w3.org/2000/svg" xmlns:xlink="http://www.w3.org/1999/xlink" xml:space="preserve" onload="init(evt)">
<style type="text/css"><![CDATA[
.edge:hover path { stroke: red; }
.edge:hover polygon { stroke: red; fill: red; }
]]></style>
<script type="text/javascript"><![CDATA[
var edges = document.getElementsByTagName('g');
if (edges && edges.length) {
  for (var i=0;i<edges.length;i++) {
    if (edges[i].id.substr(0,4)=='edge') {
      edges[i].setAttribute('class','edge');
    }
  }
}
]]></script>
        <defs>
                <circle id="rim" cx="0" cy="0" r="7"/>
                <circle id="rim2" cx="0" cy="0" r="3.5"/>
                <g id="zoomPlus">
                        <use xlink:href="#rim" fill="#404040">
                                <set attributeName="fill" to="#808080" begin="zoomplus.mouseover" end="zoomplus.mouseout"/>
                        </use>
                        <path d="M-4,0h8M0,-4v8" fill="none" stroke="white" stroke-width="1.5" pointer-events="none"/>
                </g>
                <g id="zoomMin">
                        <use xlink:href="#rim" fill="#404040">
                                <set attributeName="fill" to="#808080" begin="zoomminus.mouseover" end="zoomminus.mouseout"/>
                        </use>
                        <path d="M-4,0h8" fill="none" stroke="white" stroke-width="1.5" pointer-events="none"/>
                </g>
                <g id="dirArrow">
                        <path fill="none" stroke="white" stroke-width="1.5" d="M0,-3.0v7 M-2.5,-0.5L0,-3.0L2.5,-0.5"/>
                </g>
               <g id="resetDef">
                       <use xlink:href="#rim2" fill="#404040">
                               <set attributeName="fill" to="#808080" begin="reset.mouseover" end="reset.mouseout"/>
                       </use>
               </g>
        </defs>

<script type="text/javascript">
var viewWidth = 590;
var viewHeight = 98;
var sectionId = 'dynsection-0';
</script>
<script xlink:href="svgpan.js"/>
<svg id="graph" class="graph">
<g id="viewport">
<title>src</title>
<g id="clust1" class="cluster">
<title>clusterdir_68267d1309a1af8e8297ef4c3efbcdba</title>
<g id="a_clust1"><a xlink:href="dir_68267d1309a1af8e8297ef4c3efbcdba.html" target="_top">
<polygon fill="#edf0f7" stroke="#404040" stroke-width="2" points="8,-47 8,-82 574,-82 574,-47 8,-47"/>
</a>
</g>
</g>
<!-- dir_68267d1309a1af8e8297ef4c3efbcdba -->
<g id="node1" class="node">
<title>dir_68267d1309a1af8e8297ef4c3efbcdba</title>
<text text-anchor="middle" x="550" y="-62" font-family="Helvetica,sans-Serif" font-size="10.00">src</text>
</g>
<!-- dir_d44c64559bbebec7f509842c48db8b23 -->
<g id="node10" class="node">
<title>dir_d44c64559bbebec7f509842c48db8b23</title>
<g id="a_node10"><a xlink:href="dir_d44c64559bbebec7f509842c48db8b23.html" target="_top" xlink:title="include">
<polygon fill="#edf0f7" stroke="red" points="338,-19 286,-19 286,0 338,0 338,-19"/>
<text text-anchor="middle" x="312" y="-7" font-family="Helvetica,sans-Serif" font-size="10.00">include</text>
</a>
</g>
</g>
<!-- dir_68267d1309a1af8e8297ef4c3efbcdba&#45;&gt;dir_d44c64559bbebec7f509842c48db8b23 -->
<g id="edge1" class="edge">
<title>dir_68267d1309a1af8e8297ef4c3efbcdba&#45;&gt;dir_d44c64559bbebec7f509842c48db8b23</title>
<path fill="none" stroke="#63b8ff" d="M538.85,-54.72C534.71,-51.85 529.84,-48.91 525,-47 465.85,-23.61 391.64,-15.19 348.25,-12.18"/>
<polygon fill="#63b8ff" stroke="#63b8ff" points="348.37,-8.68 338.17,-11.53 347.93,-15.66 348.37,-8.68"/>
<g id="a_edge1&#45;headlabel"><a xlink:href="dir_000008_000004.html" target="_top" xlink:title="175">
<text text-anchor="middle" x="352.14" y="-3.57" font-family="Helvetica,sans-Serif" font-size="10.00" fill="#63b8ff">175</text>
</a>
</g>
</g>
<!-- dir_203e5988f1ed315d29383d699972de6f -->
<g id="node2" class="node">
<title>dir_203e5988f1ed315d29383d699972de6f</title>
<g id="a_node2"><a xlink:href="dir_203e5988f1ed315d29383d699972de6f.html" target="_top" xlink:title="ast">
<polygon fill="#a2b4d6" stroke="#404040" points="516,-74 484,-74 484,-55 516,-55 516,-74"/>
<text text-anchor="middle" x="500" y="-62" font-family="Helvetica,sans-Serif" font-size="10.00">ast</text>
</a>
</g>
</g>
<!-- dir_203e5988f1ed315d29383d699972de6f&#45;&gt;dir_d44c64559bbebec7f509842c48db8b23 -->
<g id="edge2" class="edge">
<title>dir_203e5988f1ed315d29383d699972de6f&#45;&gt;dir_d44c64559bbebec7f509842c48db8b23</title>
<path fill="none" stroke="#63b8ff" d="M488.8,-54.85C484.65,-52 479.79,-49.03 475,-47 433.46,-29.35 382.17,-19.67 348.35,-14.79"/>
<polygon fill="#63b8ff" stroke="#63b8ff" points="348.4,-11.26 338.02,-13.37 347.45,-18.2 348.4,-11.26"/>
<g id="a_edge2&#45;headlabel"><a xlink:href="dir_000000_000004.html" target="_top" xlink:title="7">
<text text-anchor="middle" x="352.35" y="-6.44" font-family="Helvetica,sans-Serif" font-size="10.00" fill="#63b8ff">7</text>
</a>
</g>
</g>
<!-- dir_1909b13b6d0cbcc1d36d622424b54e1c -->
<g id="node3" class="node">
<title>dir_1909b13b6d0cbcc1d36d622424b54e1c</title>
<g id="a_node3"><a xlink:href="dir_1909b13b6d0cbcc1d36d622424b54e1c.html" target="_top" xlink:title="builtins">
<polygon fill="#a2b4d6" stroke="#404040" points="465.5,-74 412.5,-74 412.5,-55 465.5,-55 465.5,-74"/>
<text text-anchor="middle" x="439" y="-62" font-family="Helvetica,sans-Serif" font-size="10.00">builtins</text>
</a>
</g>
</g>
<!-- dir_1909b13b6d0cbcc1d36d622424b54e1c&#45;&gt;dir_d44c64559bbebec7f509842c48db8b23 -->
<g id="edge3" class="edge">
<title>dir_1909b13b6d0cbcc1d36d622424b54e1c&#45;&gt;dir_d44c64559bbebec7f509842c48db8b23</title>
<path fill="none" stroke="#63b8ff" d="M421.29,-54.89C415.79,-52.28 409.67,-49.46 404,-47 384.31,-38.46 361.94,-29.57 344.19,-22.7"/>
<polygon fill="#63b8ff" stroke="#63b8ff" points="345.44,-19.43 334.85,-19.11 342.92,-25.96 345.44,-19.43"/>
<g id="a_edge3&#45;headlabel"><a xlink:href="dir_000001_000004.html" target="_top" xlink:title="24">
<text text-anchor="middle" x="349.81" y="-15.57" font-family="Helvetica,sans-Serif" font-size="10.00" fill="#63b8ff">24</text>
</a>
</g>
</g>
<!-- dir_51e5b56c5a94789e05e3a3352a90e377 -->
<g id="node4" class="node">
<title>dir_51e5b56c5a94789e05e3a3352a90e377</title>
<g id="a_node4"><a xlink:href="dir_51e5b56c5a94789e05e3a3352a90e377.html" target="_top" xlink:title="env">
<polygon fill="#a2b4d6" stroke="#404040" points="394.5,-74 359.5,-74 359.5,-55 394.5,-55 394.5,-74"/>
<text text-anchor="middle" x="377" y="-62" font-family="Helvetica,sans-Serif" font-size="10.00">env</text>
</a>
</g>
</g>
<!-- dir_51e5b56c5a94789e05e3a3352a90e377&#45;&gt;dir_d44c64559bbebec7f509842c48db8b23 -->
<g id="edge4" class="edge">
<title>dir_51e5b56c5a94789e05e3a3352a90e377&#45;&gt;dir_d44c64559bbebec7f509842c48db8b23</title>
<path fill="none" stroke="#63b8ff" d="M366.56,-54.98C356.85,-47.07 342.18,-35.11 330.5,-25.58"/>
<polygon fill="#63b8ff" stroke="#63b8ff" points="332.6,-22.78 322.63,-19.17 328.17,-28.2 332.6,-22.78"/>
<g id="a_edge4&#45;headlabel"><a xlink:href="dir_000002_000004.html" target="_top" xlink:title="6">
<text text-anchor="middle" x="337.18" y="-20.35" font-family="Helvetica,sans-Serif" font-size="10.00" fill="#63b8ff">6</text>
</a>
</g>
</g>
<!-- dir_7837edc9618826170b267c4ab76c5e96 -->
<g id="node5" class="node">
<title>dir_7837edc9618826170b267c4ab76c5e96</title>
<g id="a_node5"><a xlink:href="dir_7837edc9618826170b267c4ab76c5e96.html" target="_top" xlink:title="executer">
<polygon fill="#a2b4d6" stroke="#404040" points="341.5,-74 282.5,-74 282.5,-55 341.5,-55 341.5,-74"/>
<text text-anchor="middle" x="312" y="-62" font-family="Helvetica,sans-Serif" font-size="10.00">executer</text>
</a>
</g>
</g>
<!-- dir_7837edc9618826170b267c4ab76c5e96&#45;&gt;dir_d44c64559bbebec7f509842c48db8b23 -->
<g id="edge5" class="edge">
<title>dir_7837edc9618826170b267c4ab76c5e96&#45;&gt;dir_d44c64559bbebec7f509842c48db8b23</title>
<path fill="none" stroke="#63b8ff" d="M312,-54.75C312,-47.8 312,-37.85 312,-29.13"/>
<polygon fill="#63b8ff" stroke="#63b8ff" points="315.5,-29.09 312,-19.09 308.5,-29.09 315.5,-29.09"/>
<g id="a_edge5&#45;headlabel"><a xlink:href="dir_000003_000004.html" target="_top" xlink:title="43">
<text text-anchor="middle" x="318.34" y="-30.18" font-family="Helvetica,sans-Serif" font-size="10.00" fill="#63b8ff">43</text>
</a>
</g>
</g>
<!-- dir_e1aa690b4af0a0538ec65649b0390051 -->
<g id="node6" class="node">
<title>dir_e1aa690b4af0a0538ec65649b0390051</title>
<g id="a_node6"><a xlink:href="dir_e1aa690b4af0a0538ec65649b0390051.html" target="_top" xlink:title="lexer">
<polygon fill="#a2b4d6" stroke="#404040" points="264.5,-74 223.5,-74 223.5,-55 264.5,-55 264.5,-74"/>
<text text-anchor="middle" x="244" y="-62" font-family="Helvetica,sans-Serif" font-size="10.00">lexer</text>
</a>
</g>
</g>
<!-- dir_e1aa690b4af0a0538ec65649b0390051&#45;&gt;dir_d44c64559bbebec7f509842c48db8b23 -->
<g id="edge6" class="edge">
<title>dir_e1aa690b4af0a0538ec65649b0390051&#45;&gt;dir_d44c64559bbebec7f509842c48db8b23</title>
<path fill="none" stroke="#63b8ff" d="M254.93,-54.98C265.08,-47.07 280.42,-35.11 292.65,-25.58"/>
<polygon fill="#63b8ff" stroke="#63b8ff" points="295.14,-28.08 300.88,-19.17 290.84,-22.56 295.14,-28.08"/>
<g id="a_edge6&#45;headlabel"><a xlink:href="dir_000005_000004.html" target="_top" xlink:title="35">
<text text-anchor="middle" x="294.05" y="-30.03" font-family="Helvetica,sans-Serif" font-size="10.00" fill="#63b8ff">35</text>
</a>
</g>
</g>
<!-- dir_6cd8491d143eb218b70983dbdb3c58bc -->
<g id="node7" class="node">
<title>dir_6cd8491d143eb218b70983dbdb3c58bc</title>
<g id="a_node7"><a xlink:href="dir_6cd8491d143eb218b70983dbdb3c58bc.html" target="_top" xlink:title="parser">
<polygon fill="#a2b4d6" stroke="#404040" points="205.5,-74 158.5,-74 158.5,-55 205.5,-55 205.5,-74"/>
<text text-anchor="middle" x="182" y="-62" font-family="Helvetica,sans-Serif" font-size="10.00">parser</text>
</a>
</g>
</g>
<!-- dir_6cd8491d143eb218b70983dbdb3c58bc&#45;&gt;dir_d44c64559bbebec7f509842c48db8b23 -->
<g id="edge7" class="edge">
<title>dir_6cd8491d143eb218b70983dbdb3c58bc&#45;&gt;dir_d44c64559bbebec7f509842c48db8b23</title>
<path fill="none" stroke="#63b8ff" d="M198.29,-54.94C203.57,-52.27 209.48,-49.41 215,-47 235.41,-38.09 258.75,-29.26 277.43,-22.52"/>
<polygon fill="#63b8ff" stroke="#63b8ff" points="278.76,-25.76 287,-19.1 276.4,-19.17 278.76,-25.76"/>
<g id="a_edge7&#45;headlabel"><a xlink:href="dir_000007_000004.html" target="_top" xlink:title="35">
<text text-anchor="middle" x="276.33" y="-27.15" font-family="Helvetica,sans-Serif" font-size="10.00" fill="#63b8ff">35</text>
</a>
</g>
</g>
<!-- dir_0f6475da1188564ddb2487a30ee66c4b -->
<g id="node8" class="node">
<title>dir_0f6475da1188564ddb2487a30ee66c4b</title>
<g id="a_node8"><a xlink:href="dir_0f6475da1188564ddb2487a30ee66c4b.html" target="_top" xlink:title="token">
<polygon fill="#a2b4d6" stroke="#404040" points="140,-74 96,-74 96,-55 140,-55 140,-74"/>
<text text-anchor="middle" x="118" y="-62" font-family="Helvetica,sans-Serif" font-size="10.00">token</text>
</a>
</g>
</g>
<!-- dir_0f6475da1188564ddb2487a30ee66c4b&#45;&gt;dir_d44c64559bbebec7f509842c48db8b23 -->
<g id="edge8" class="edge">
<title>dir_0f6475da1188564ddb2487a30ee66c4b&#45;&gt;dir_d44c64559bbebec7f509842c48db8b23</title>
<path fill="none" stroke="#63b8ff" d="M132.62,-54.97C137.96,-52.12 144.13,-49.14 150,-47 191.93,-31.75 242.36,-21.6 275.7,-15.96"/>
<polygon fill="#63b8ff" stroke="#63b8ff" points="276.59,-19.36 285.89,-14.28 275.45,-12.45 276.59,-19.36"/>
<g id="a_edge8&#45;headlabel"><a xlink:href="dir_000009_000004.html" target="_top" xlink:title="2">
<text text-anchor="middle" x="273.5" y="-20.24" font-family="Helvetica,sans-Serif" font-size="10.00" fill="#63b8ff">2</text>
</a>
</g>
</g>
<!-- dir_d84d0334404ef8787ef09c406ac46296 -->
<g id="node9" class="node">
<title>dir_d84d0334404ef8787ef09c406ac46296</title>
<g id="a_node9"><a xlink:href="dir_d84d0334404ef8787ef09c406ac46296.html" target="_top" xlink:title="variables">
<polygon fill="#a2b4d6" stroke="#404040" points="78,-74 16,-74 16,-55 78,-55 78,-74"/>
<text text-anchor="middle" x="47" y="-62" font-family="Helvetica,sans-Serif" font-size="10.00">variables</text>
</a>
</g>
</g>
<!-- dir_d84d0334404ef8787ef09c406ac46296&#45;&gt;dir_d44c64559bbebec7f509842c48db8b23 -->
<g id="edge9" class="edge">
<title>dir_d84d0334404ef8787ef09c406ac46296&#45;&gt;dir_d44c64559bbebec7f509842c48db8b23</title>
<path fill="none" stroke="#63b8ff" d="M65.41,-54.87C72.09,-52.01 79.77,-49.05 87,-47 152.21,-28.53 230.87,-18.44 275.8,-13.78"/>
<polygon fill="#63b8ff" stroke="#63b8ff" points="276.33,-17.24 285.93,-12.76 275.63,-10.28 276.33,-17.24"/>
<g id="a_edge9&#45;headlabel"><a xlink:href="dir_000012_000004.html" target="_top" xlink:title="9">
<text text-anchor="middle" x="273.04" y="-17.93" font-family="Helvetica,sans-Serif" font-size="10.00" fill="#63b8ff">9</text>
</a>
</g>
</g>
</g>
</svg>
        <g id="navigator" transform="translate(0 0)" fill="#404254">
                <rect fill="#f2f5e9" fill-opacity="0.5" stroke="#606060" stroke-width=".5" x="0" y="0" width="60" height="60"/>
                <use id="zoomplus" xlink:href="#zoomPlus" x="17" y="9" onmousedown="handleZoom(evt,'in')"/>
                <use id="zoomminus" xlink:href="#zoomMin" x="42" y="9" onmousedown="handleZoom(evt,'out')"/>
                <use id="reset" xlink:href="#resetDef" x="30" y="36" onmousedown="handleReset()"/>
                <g id="arrowUp" xlink:href="#dirArrow" transform="translate(30 24)" onmousedown="handlePan(0,-1)">
                  <use xlink:href="#rim" fill="#404040">
                        <set attributeName="fill" to="#808080" begin="arrowUp.mouseover" end="arrowUp.mouseout"/>
                  </use>
                  <path fill="none" stroke="white" stroke-width="1.5" d="M0,-3.0v7 M-2.5,-0.5L0,-3.0L2.5,-0.5"/>
                </g>
                <g id="arrowRight" xlink:href="#dirArrow" transform="rotate(90) translate(36 -43)" onmousedown="handlePan(1,0)">
                  <use xlink:href="#rim" fill="#404040">
                        <set attributeName="fill" to="#808080" begin="arrowRight.mouseover" end="arrowRight.mouseout"/>
                  </use>
                  <path fill="none" stroke="white" stroke-width="1.5" d="M0,-3.0v7 M-2.5,-0.5L0,-3.0L2.5,-0.5"/>
                </g>
                <g id="arrowDown" xlink:href="#dirArrow" transform="rotate(180) translate(-30 -48)" onmousedown="handlePan(0,1)">
                  <use xlink:href="#rim" fill="#404040">
                        <set attributeName="fill" to="#808080" begin="arrowDown.mouseover" end="arrowDown.mouseout"/>
                  </use>
                  <path fill="none" stroke="white" stroke-width="1.5" d="M0,-3.0v7 M-2.5,-0.5L0,-3.0L2.5,-0.5"/>
                </g>
                <g id="arrowLeft" xlink:href="#dirArrow" transform="rotate(270) translate(-36 17)" onmousedown="handlePan(-1,0)">
                  <use xlink:href="#rim" fill="#404040">
                        <set attributeName="fill" to="#808080" begin="arrowLeft.mouseover" end="arrowLeft.mouseout"/>
                  </use>
                  <path fill="none" stroke="white" stroke-width="1.5" d="M0,-3.0v7 M-2.5,-0.5L0,-3.0L2.5,-0.5"/>
                </g>
        </g>
        <svg viewBox="0 0 15 15" width="100%" height="30px" preserveAspectRatio="xMaxYMin meet">
         <g id="arrow_out" transform="scale(0.3 0.3)">
          <a xlink:href="dir_68267d1309a1af8e8297ef4c3efbcdba_dep_org.svg" target="_base">
           <rect id="button" ry="5" rx="5" y="6" x="6" height="38" width="38"
                fill="#f2f5e9" fill-opacity="0.5" stroke="#606060" stroke-width="1.0"/>
           <path id="arrow"
             d="M 11.500037,31.436501 C 11.940474,20.09759 22.043105,11.32322 32.158766,21.979434 L 37.068811,17.246167 C 37.068811,17.246167 37.088388,32 37.088388,32 L 22.160133,31.978069 C 22.160133,31.978069 26.997745,27.140456 26.997745,27.140456 C 18.528582,18.264221 13.291696,25.230495 11.500037,31.436501 z"
             style="fill:#404040;"/>
          </a>
         </g>
        </svg>
</svg>
