<?xml version="1.0" encoding="UTF-8" standalone="no"?>
<!DOCTYPE svg PUBLIC "-//W3C//DTD SVG 1.1//EN"
 "http://www.w3.org/Graphics/SVG/1.1/DTD/svg11.dtd">
<!-- Generated by graphviz version 2.43.0 (0)
 -->
<!-- Title: src/env/env_to_list.c Pages: 1 -->
<svg width="351pt" height="192pt"
 viewBox="0.00 0.00 350.50 192.00" xmlns="http://www.w3.org/2000/svg" xmlns:xlink="http://www.w3.org/1999/xlink">
<g id="graph0" class="graph" transform="scale(1 1) rotate(0) translate(4 188)">
<title>src/env/env_to_list.c</title>
<!-- Node1 -->
<g id="node1" class="node">
<title>Node1</title>
<g id="a_node1"><a xlink:title=" ">
<polygon fill="#999999" stroke="#666666" points="210.5,-184 94.5,-184 94.5,-165 210.5,-165 210.5,-184"/>
<text text-anchor="middle" x="152.5" y="-172" font-family="Helvetica,sans-Serif" font-size="10.00">src/env/env_to_list.c</text>
</a>
</g>
</g>
<!-- Node2 -->
<g id="node2" class="node">
<title>Node2</title>
<g id="a_node2"><a xlink:title=" ">
<polygon fill="#e0e0e0" stroke="#999999" points="53,-129 0,-129 0,-110 53,-110 53,-129"/>
<text text-anchor="middle" x="26.5" y="-117" font-family="Helvetica,sans-Serif" font-size="10.00">stdlib.h</text>
</a>
</g>
</g>
<!-- Node1&#45;&gt;Node2 -->
<g id="edge1" class="edge">
<title>Node1&#45;&gt;Node2</title>
<path fill="none" stroke="#63b8ff" d="M132.26,-164.98C111.8,-156.38 79.97,-142.99 56.57,-133.15"/>
<polygon fill="#63b8ff" stroke="#63b8ff" points="57.69,-129.82 47.11,-129.17 54.97,-136.27 57.69,-129.82"/>
</g>
<!-- Node3 -->
<g id="node3" class="node">
<title>Node3</title>
<g id="a_node3"><a xlink:title=" ">
<polygon fill="#e0e0e0" stroke="#999999" points="124,-129 71,-129 71,-110 124,-110 124,-129"/>
<text text-anchor="middle" x="97.5" y="-117" font-family="Helvetica,sans-Serif" font-size="10.00">string.h</text>
</a>
</g>
</g>
<!-- Node1&#45;&gt;Node3 -->
<g id="edge2" class="edge">
<title>Node1&#45;&gt;Node3</title>
<path fill="none" stroke="#63b8ff" d="M143.42,-164.75C135.41,-157.03 123.54,-145.6 113.88,-136.28"/>
<polygon fill="#63b8ff" stroke="#63b8ff" points="116.04,-133.51 106.41,-129.09 111.19,-138.55 116.04,-133.51"/>
</g>
<!-- Node4 -->
<g id="node4" class="node">
<title>Node4</title>
<g id="a_node4"><a xlink:href="list_8h.html" target="_top" xlink:title=" ">
<polygon fill="white" stroke="#666666" points="214,-74 155,-74 155,-55 214,-55 214,-74"/>
<text text-anchor="middle" x="184.5" y="-62" font-family="Helvetica,sans-Serif" font-size="10.00">my/list.h</text>
</a>
</g>
</g>
<!-- Node1&#45;&gt;Node4 -->
<g id="edge3" class="edge">
<title>Node1&#45;&gt;Node4</title>
<path fill="none" stroke="#63b8ff" d="M155.12,-164.66C160.32,-147.09 172.07,-107.45 179.03,-83.95"/>
<polygon fill="#63b8ff" stroke="#63b8ff" points="182.45,-84.74 181.93,-74.16 175.74,-82.75 182.45,-84.74"/>
</g>
<!-- Node6 -->
<g id="node6" class="node">
<title>Node6</title>
<g id="a_node6"><a xlink:href="strings_8h.html" target="_top" xlink:title=" ">
<polygon fill="white" stroke="#666666" points="325,-129 248,-129 248,-110 325,-110 325,-129"/>
<text text-anchor="middle" x="286.5" y="-117" font-family="Helvetica,sans-Serif" font-size="10.00">my/strings.h</text>
</a>
</g>
</g>
<!-- Node1&#45;&gt;Node6 -->
<g id="edge5" class="edge">
<title>Node1&#45;&gt;Node6</title>
<path fill="none" stroke="#63b8ff" d="M174.03,-164.98C195.97,-156.3 230.24,-142.75 255.19,-132.88"/>
<polygon fill="#63b8ff" stroke="#63b8ff" points="256.57,-136.1 264.58,-129.17 253.99,-129.59 256.57,-136.1"/>
</g>
<!-- Node8 -->
<g id="node8" class="node">
<title>Node8</title>
<g id="a_node8"><a xlink:href="shell_8h.html" target="_top" xlink:title=" ">
<polygon fill="white" stroke="#666666" points="230,-129 181,-129 181,-110 230,-110 230,-129"/>
<text text-anchor="middle" x="205.5" y="-117" font-family="Helvetica,sans-Serif" font-size="10.00">shell.h</text>
</a>
</g>
</g>
<!-- Node1&#45;&gt;Node8 -->
<g id="edge8" class="edge">
<title>Node1&#45;&gt;Node8</title>
<path fill="none" stroke="#63b8ff" d="M161.25,-164.75C168.97,-157.03 180.4,-145.6 189.72,-136.28"/>
<polygon fill="#63b8ff" stroke="#63b8ff" points="192.31,-138.64 196.91,-129.09 187.36,-133.69 192.31,-138.64"/>
</g>
<!-- Node5 -->
<g id="node5" class="node">
<title>Node5</title>
<g id="a_node5"><a xlink:title=" ">
<polygon fill="#e0e0e0" stroke="#999999" points="241.5,-19 185.5,-19 185.5,0 241.5,0 241.5,-19"/>
<text text-anchor="middle" x="213.5" y="-7" font-family="Helvetica,sans-Serif" font-size="10.00">stddef.h</text>
</a>
</g>
</g>
<!-- Node4&#45;&gt;Node5 -->
<g id="edge4" class="edge">
<title>Node4&#45;&gt;Node5</title>
<path fill="none" stroke="#63b8ff" d="M189.29,-54.75C193.26,-47.49 199.03,-36.95 203.93,-27.98"/>
<polygon fill="#63b8ff" stroke="#63b8ff" points="207.07,-29.54 208.8,-19.09 200.93,-26.18 207.07,-29.54"/>
</g>
<!-- Node6&#45;&gt;Node5 -->
<g id="edge6" class="edge">
<title>Node6&#45;&gt;Node5</title>
<path fill="none" stroke="#63b8ff" d="M280.53,-109.66C268.44,-91.77 240.88,-51 225.12,-27.69"/>
<polygon fill="#63b8ff" stroke="#63b8ff" points="227.85,-25.48 219.35,-19.16 222.05,-29.4 227.85,-25.48"/>
</g>
<!-- Node7 -->
<g id="node7" class="node">
<title>Node7</title>
<g id="a_node7"><a xlink:title=" ">
<polygon fill="#e0e0e0" stroke="#999999" points="342.5,-74 270.5,-74 270.5,-55 342.5,-55 342.5,-74"/>
<text text-anchor="middle" x="306.5" y="-62" font-family="Helvetica,sans-Serif" font-size="10.00">sys/types.h</text>
</a>
</g>
</g>
<!-- Node6&#45;&gt;Node7 -->
<g id="edge7" class="edge">
<title>Node6&#45;&gt;Node7</title>
<path fill="none" stroke="#63b8ff" d="M289.8,-109.75C292.48,-102.65 296.35,-92.4 299.69,-83.56"/>
<polygon fill="#63b8ff" stroke="#63b8ff" points="303,-84.68 303.26,-74.09 296.45,-82.21 303,-84.68"/>
</g>
<!-- Node8&#45;&gt;Node4 -->
<g id="edge9" class="edge">
<title>Node8&#45;&gt;Node4</title>
<path fill="none" stroke="#63b8ff" d="M202.03,-109.75C199.22,-102.65 195.16,-92.4 191.65,-83.56"/>
<polygon fill="#63b8ff" stroke="#63b8ff" points="194.84,-82.1 187.9,-74.09 188.33,-84.68 194.84,-82.1"/>
</g>
</g>
</svg>
