<?xml version="1.0" encoding="UTF-8" standalone="no"?>
<!DOCTYPE svg PUBLIC "-//W3C//DTD SVG 1.1//EN"
 "http://www.w3.org/Graphics/SVG/1.1/DTD/svg11.dtd">
<!-- Generated by graphviz version 2.43.0 (0)
 -->
<!-- Title: include/env.h Pages: 1 -->
<svg width="453pt" height="93pt"
 viewBox="0.00 0.00 452.50 93.00" xmlns="http://www.w3.org/2000/svg" xmlns:xlink="http://www.w3.org/1999/xlink">
<g id="graph0" class="graph" transform="scale(1 1) rotate(0) translate(4 89)">
<title>include/env.h</title>
<!-- Node1 -->
<g id="node1" class="node">
<title>Node1</title>
<g id="a_node1"><a xlink:title=" ">
<polygon fill="#999999" stroke="#666666" points="278.5,-85 197.5,-85 197.5,-66 278.5,-66 278.5,-85"/>
<text text-anchor="middle" x="238" y="-73" font-family="Helvetica,sans-Serif" font-size="10.00">include/env.h</text>
</a>
</g>
</g>
<!-- Node2 -->
<g id="node2" class="node">
<title>Node2</title>
<g id="a_node2"><a xlink:href="builtin__where_8c.html" target="_top" xlink:title=" ">
<polygon fill="white" stroke="#666666" points="104,-30 0,-30 0,0 104,0 104,-30"/>
<text text-anchor="start" x="8" y="-18" font-family="Helvetica,sans-Serif" font-size="10.00">src/builtins/builtin</text>
<text text-anchor="middle" x="52" y="-7" font-family="Helvetica,sans-Serif" font-size="10.00">_where.c</text>
</a>
</g>
</g>
<!-- Node1&#45;&gt;Node2 -->
<g id="edge1" class="edge">
<title>Node1&#45;&gt;Node2</title>
<path fill="none" stroke="#63b8ff" d="M201.29,-62.95C171.27,-53.51 128.72,-40.13 96.72,-30.06"/>
<polygon fill="#63b8ff" stroke="#63b8ff" points="200.36,-66.33 210.95,-65.99 202.46,-59.65 200.36,-66.33"/>
</g>
<!-- Node3 -->
<g id="node3" class="node">
<title>Node3</title>
<g id="a_node3"><a xlink:href="builtin__which_8c.html" target="_top" xlink:title=" ">
<polygon fill="white" stroke="#666666" points="226,-30 122,-30 122,0 226,0 226,-30"/>
<text text-anchor="start" x="130" y="-18" font-family="Helvetica,sans-Serif" font-size="10.00">src/builtins/builtin</text>
<text text-anchor="middle" x="174" y="-7" font-family="Helvetica,sans-Serif" font-size="10.00">_which.c</text>
</a>
</g>
</g>
<!-- Node1&#45;&gt;Node3 -->
<g id="edge2" class="edge">
<title>Node1&#45;&gt;Node3</title>
<path fill="none" stroke="#63b8ff" d="M221.01,-58.97C211.2,-50.01 198.97,-38.82 189.44,-30.11"/>
<polygon fill="#63b8ff" stroke="#63b8ff" points="218.81,-61.7 228.56,-65.87 223.54,-56.54 218.81,-61.7"/>
</g>
<!-- Node4 -->
<g id="node4" class="node">
<title>Node4</title>
<g id="a_node4"><a xlink:href="execute__cmd_8c.html" target="_top" xlink:title=" ">
<polygon fill="white" stroke="#666666" points="361.5,-30 244.5,-30 244.5,0 361.5,0 361.5,-30"/>
<text text-anchor="start" x="252.5" y="-18" font-family="Helvetica,sans-Serif" font-size="10.00">src/executer/execute</text>
<text text-anchor="middle" x="303" y="-7" font-family="Helvetica,sans-Serif" font-size="10.00">_cmd.c</text>
</a>
</g>
</g>
<!-- Node1&#45;&gt;Node4 -->
<g id="edge3" class="edge">
<title>Node1&#45;&gt;Node4</title>
<path fill="none" stroke="#63b8ff" d="M255.26,-58.97C265.22,-50.01 277.64,-38.82 287.32,-30.11"/>
<polygon fill="#63b8ff" stroke="#63b8ff" points="252.68,-56.58 247.59,-65.87 257.37,-61.78 252.68,-56.58"/>
</g>
<!-- Node5 -->
<g id="node5" class="node">
<title>Node5</title>
<g id="a_node5"><a xlink:href="shell_8c.html" target="_top" xlink:title=" ">
<polygon fill="white" stroke="#666666" points="444.5,-24.5 379.5,-24.5 379.5,-5.5 444.5,-5.5 444.5,-24.5"/>
<text text-anchor="middle" x="412" y="-12.5" font-family="Helvetica,sans-Serif" font-size="10.00">src/shell.c</text>
</a>
</g>
</g>
<!-- Node1&#45;&gt;Node5 -->
<g id="edge4" class="edge">
<title>Node1&#45;&gt;Node5</title>
<path fill="none" stroke="#63b8ff" d="M273.72,-62.62C300.51,-53.69 338.07,-41.13 371,-30 376.13,-28.27 381.62,-26.4 386.86,-24.61"/>
<polygon fill="#63b8ff" stroke="#63b8ff" points="272.39,-59.37 264.01,-65.85 274.6,-66.01 272.39,-59.37"/>
</g>
</g>
</svg>
