<?xml version="1.0" encoding="UTF-8" standalone="no"?>
<!DOCTYPE svg PUBLIC "-//W3C//DTD SVG 1.1//EN"
 "http://www.w3.org/Graphics/SVG/1.1/DTD/svg11.dtd">
<!-- Generated by graphviz version 2.43.0 (0)
 -->
<!-- Title: include/env.h Pages: 1 -->
<svg width="466pt" height="93pt"
 viewBox="0.00 0.00 466.00 93.00" xmlns="http://www.w3.org/2000/svg" xmlns:xlink="http://www.w3.org/1999/xlink">
<g id="graph0" class="graph" transform="scale(1 1) rotate(0) translate(4 89)">
<title>include/env.h</title>
<!-- Node1 -->
<g id="node1" class="node">
<title>Node1</title>
<g id="a_node1"><a xlink:title=" ">
<polygon fill="#999999" stroke="#666666" points="291,-85 210,-85 210,-66 291,-66 291,-85"/>
<text text-anchor="middle" x="250.5" y="-73" font-family="Helvetica,sans-Serif" font-size="10.00">include/env.h</text>
</a>
</g>
</g>
<!-- Node2 -->
<g id="node2" class="node">
<title>Node2</title>
<g id="a_node2"><a xlink:href="where_8c.html" target="_top" xlink:title=" ">
<polygon fill="white" stroke="#666666" points="111,-24.5 0,-24.5 0,-5.5 111,-5.5 111,-24.5"/>
<text text-anchor="middle" x="55.5" y="-12.5" font-family="Helvetica,sans-Serif" font-size="10.00">src/builtins/where.c</text>
</a>
</g>
</g>
<!-- Node1&#45;&gt;Node2 -->
<g id="edge1" class="edge">
<title>Node1&#45;&gt;Node2</title>
<path fill="none" stroke="#63b8ff" d="M212.53,-63.11C174.81,-51.79 117.84,-34.7 83.89,-24.52"/>
<polygon fill="#63b8ff" stroke="#63b8ff" points="211.56,-66.47 222.15,-65.99 213.57,-59.77 211.56,-66.47"/>
</g>
<!-- Node3 -->
<g id="node3" class="node">
<title>Node3</title>
<g id="a_node3"><a xlink:href="which_8c.html" target="_top" xlink:title=" ">
<polygon fill="white" stroke="#666666" points="239.5,-24.5 129.5,-24.5 129.5,-5.5 239.5,-5.5 239.5,-24.5"/>
<text text-anchor="middle" x="184.5" y="-12.5" font-family="Helvetica,sans-Serif" font-size="10.00">src/builtins/which.c</text>
</a>
</g>
</g>
<!-- Node1&#45;&gt;Node3 -->
<g id="edge2" class="edge">
<title>Node1&#45;&gt;Node3</title>
<path fill="none" stroke="#63b8ff" d="M233.26,-59.22C220.84,-48.21 204.53,-33.75 194.28,-24.67"/>
<polygon fill="#63b8ff" stroke="#63b8ff" points="230.96,-61.85 240.76,-65.87 235.6,-56.62 230.96,-61.85"/>
</g>
<!-- Node4 -->
<g id="node4" class="node">
<title>Node4</title>
<g id="a_node4"><a xlink:href="execute__cmd_8c.html" target="_top" xlink:title=" ">
<polygon fill="white" stroke="#666666" points="375,-30 258,-30 258,0 375,0 375,-30"/>
<text text-anchor="start" x="266" y="-18" font-family="Helvetica,sans-Serif" font-size="10.00">src/executer/execute</text>
<text text-anchor="middle" x="316.5" y="-7" font-family="Helvetica,sans-Serif" font-size="10.00">_cmd.c</text>
</a>
</g>
</g>
<!-- Node1&#45;&gt;Node4 -->
<g id="edge3" class="edge">
<title>Node1&#45;&gt;Node4</title>
<path fill="none" stroke="#63b8ff" d="M267.72,-59.23C277.88,-50.23 290.65,-38.91 300.58,-30.11"/>
<polygon fill="#63b8ff" stroke="#63b8ff" points="265.4,-56.62 260.24,-65.87 270.04,-61.85 265.4,-56.62"/>
</g>
<!-- Node5 -->
<g id="node5" class="node">
<title>Node5</title>
<g id="a_node5"><a xlink:href="shell_8c.html" target="_top" xlink:title=" ">
<polygon fill="white" stroke="#666666" points="458,-24.5 393,-24.5 393,-5.5 458,-5.5 458,-24.5"/>
<text text-anchor="middle" x="425.5" y="-12.5" font-family="Helvetica,sans-Serif" font-size="10.00">src/shell.c</text>
</a>
</g>
</g>
<!-- Node1&#45;&gt;Node5 -->
<g id="edge4" class="edge">
<title>Node1&#45;&gt;Node5</title>
<path fill="none" stroke="#63b8ff" d="M286.24,-62.72C313.25,-53.8 351.23,-41.2 384.5,-30 389.63,-28.27 395.12,-26.41 400.36,-24.62"/>
<polygon fill="#63b8ff" stroke="#63b8ff" points="284.86,-59.49 276.46,-65.95 287.05,-66.14 284.86,-59.49"/>
</g>
</g>
</svg>
