<?xml version="1.0" encoding="UTF-8" standalone="no"?>
<!DOCTYPE svg PUBLIC "-//W3C//DTD SVG 1.1//EN"
 "http://www.w3.org/Graphics/SVG/1.1/DTD/svg11.dtd">
<!-- Generated by graphviz version 2.43.0 (0)
 -->
<!-- Title: src/env/env_to_word_array.c Pages: 1 -->
<svg width="412pt" height="203pt"
 viewBox="0.00 0.00 411.50 203.00" xmlns="http://www.w3.org/2000/svg" xmlns:xlink="http://www.w3.org/1999/xlink">
<g id="graph0" class="graph" transform="scale(1 1) rotate(0) translate(4 199)">
<title>src/env/env_to_word_array.c</title>
<!-- Node1 -->
<g id="node1" class="node">
<title>Node1</title>
<g id="a_node1"><a xlink:title=" ">
<polygon fill="#999999" stroke="#666666" points="266.5,-195 149.5,-195 149.5,-165 266.5,-165 266.5,-195"/>
<text text-anchor="start" x="157.5" y="-183" font-family="Helvetica,sans-Serif" font-size="10.00">src/env/env_to_word</text>
<text text-anchor="middle" x="208" y="-172" font-family="Helvetica,sans-Serif" font-size="10.00">_array.c</text>
</a>
</g>
</g>
<!-- Node2 -->
<g id="node2" class="node">
<title>Node2</title>
<g id="a_node2"><a xlink:title=" ">
<polygon fill="#e0e0e0" stroke="#999999" points="50,-129 0,-129 0,-110 50,-110 50,-129"/>
<text text-anchor="middle" x="25" y="-117" font-family="Helvetica,sans-Serif" font-size="10.00">stdio.h</text>
</a>
</g>
</g>
<!-- Node1&#45;&gt;Node2 -->
<g id="edge1" class="edge">
<title>Node1&#45;&gt;Node2</title>
<path fill="none" stroke="#63b8ff" d="M164.17,-164.99C132.29,-154.8 89.71,-141.18 60.07,-131.71"/>
<polygon fill="#63b8ff" stroke="#63b8ff" points="60.76,-128.26 50.17,-128.55 58.63,-134.93 60.76,-128.26"/>
</g>
<!-- Node3 -->
<g id="node3" class="node">
<title>Node3</title>
<g id="a_node3"><a xlink:title=" ">
<polygon fill="#e0e0e0" stroke="#999999" points="121.5,-129 68.5,-129 68.5,-110 121.5,-110 121.5,-129"/>
<text text-anchor="middle" x="95" y="-117" font-family="Helvetica,sans-Serif" font-size="10.00">stdlib.h</text>
</a>
</g>
</g>
<!-- Node1&#45;&gt;Node3 -->
<g id="edge2" class="edge">
<title>Node1&#45;&gt;Node3</title>
<path fill="none" stroke="#63b8ff" d="M180.93,-164.99C162.75,-155.58 138.93,-143.24 120.98,-133.95"/>
<polygon fill="#63b8ff" stroke="#63b8ff" points="122.18,-130.63 111.69,-129.14 118.96,-136.84 122.18,-130.63"/>
</g>
<!-- Node4 -->
<g id="node4" class="node">
<title>Node4</title>
<g id="a_node4"><a xlink:title=" ">
<polygon fill="#e0e0e0" stroke="#999999" points="212,-129 140,-129 140,-110 212,-110 212,-129"/>
<text text-anchor="middle" x="176" y="-117" font-family="Helvetica,sans-Serif" font-size="10.00">sys/types.h</text>
</a>
</g>
</g>
<!-- Node1&#45;&gt;Node4 -->
<g id="edge3" class="edge">
<title>Node1&#45;&gt;Node4</title>
<path fill="none" stroke="#63b8ff" d="M200.25,-164.84C195.85,-156.78 190.29,-146.62 185.6,-138.06"/>
<polygon fill="#63b8ff" stroke="#63b8ff" points="188.66,-136.36 180.8,-129.27 182.52,-139.72 188.66,-136.36"/>
</g>
<!-- Node5 -->
<g id="node5" class="node">
<title>Node5</title>
<g id="a_node5"><a xlink:href="list_8h.html" target="_top" xlink:title=" ">
<polygon fill="white" stroke="#666666" points="338.5,-74 279.5,-74 279.5,-55 338.5,-55 338.5,-74"/>
<text text-anchor="middle" x="309" y="-62" font-family="Helvetica,sans-Serif" font-size="10.00">my/list.h</text>
</a>
</g>
</g>
<!-- Node1&#45;&gt;Node5 -->
<g id="edge4" class="edge">
<title>Node1&#45;&gt;Node5</title>
<path fill="none" stroke="#63b8ff" d="M217.18,-164.86C226.83,-150.44 242.83,-127.71 259,-110 268.58,-99.51 280.4,-88.9 290.15,-80.67"/>
<polygon fill="#63b8ff" stroke="#63b8ff" points="292.6,-83.18 298.07,-74.11 288.14,-77.79 292.6,-83.18"/>
</g>
<!-- Node7 -->
<g id="node7" class="node">
<title>Node7</title>
<g id="a_node7"><a xlink:href="misc_8h.html" target="_top" xlink:title=" ">
<polygon fill="white" stroke="#666666" points="336,-129 268,-129 268,-110 336,-110 336,-129"/>
<text text-anchor="middle" x="302" y="-117" font-family="Helvetica,sans-Serif" font-size="10.00">my/misc.h</text>
</a>
</g>
</g>
<!-- Node1&#45;&gt;Node7 -->
<g id="edge6" class="edge">
<title>Node1&#45;&gt;Node7</title>
<path fill="none" stroke="#63b8ff" d="M230.75,-164.84C245.6,-155.6 264.9,-143.59 279.66,-134.4"/>
<polygon fill="#63b8ff" stroke="#63b8ff" points="281.55,-137.35 288.19,-129.09 277.85,-131.41 281.55,-137.35"/>
</g>
<!-- Node8 -->
<g id="node8" class="node">
<title>Node8</title>
<g id="a_node8"><a xlink:href="shell_8h.html" target="_top" xlink:title=" ">
<polygon fill="white" stroke="#666666" points="403.5,-129 354.5,-129 354.5,-110 403.5,-110 403.5,-129"/>
<text text-anchor="middle" x="379" y="-117" font-family="Helvetica,sans-Serif" font-size="10.00">shell.h</text>
</a>
</g>
</g>
<!-- Node1&#45;&gt;Node8 -->
<g id="edge7" class="edge">
<title>Node1&#45;&gt;Node8</title>
<path fill="none" stroke="#63b8ff" d="M248.96,-164.99C278.17,-154.99 317.02,-141.7 344.62,-132.26"/>
<polygon fill="#63b8ff" stroke="#63b8ff" points="345.92,-135.52 354.25,-128.97 343.65,-128.89 345.92,-135.52"/>
</g>
<!-- Node6 -->
<g id="node6" class="node">
<title>Node6</title>
<g id="a_node6"><a xlink:title=" ">
<polygon fill="#e0e0e0" stroke="#999999" points="337,-19 281,-19 281,0 337,0 337,-19"/>
<text text-anchor="middle" x="309" y="-7" font-family="Helvetica,sans-Serif" font-size="10.00">stddef.h</text>
</a>
</g>
</g>
<!-- Node5&#45;&gt;Node6 -->
<g id="edge5" class="edge">
<title>Node5&#45;&gt;Node6</title>
<path fill="none" stroke="#63b8ff" d="M309,-54.75C309,-47.8 309,-37.85 309,-29.13"/>
<polygon fill="#63b8ff" stroke="#63b8ff" points="312.5,-29.09 309,-19.09 305.5,-29.09 312.5,-29.09"/>
</g>
<!-- Node8&#45;&gt;Node5 -->
<g id="edge8" class="edge">
<title>Node8&#45;&gt;Node5</title>
<path fill="none" stroke="#63b8ff" d="M367.75,-109.98C357.2,-102 341.2,-89.88 328.56,-80.31"/>
<polygon fill="#63b8ff" stroke="#63b8ff" points="330.54,-77.42 320.45,-74.17 326.31,-83 330.54,-77.42"/>
</g>
</g>
</svg>
