<?xml version="1.0" encoding="UTF-8" standalone="no"?>
<!DOCTYPE svg PUBLIC "-//W3C//DTD SVG 1.1//EN"
 "http://www.w3.org/Graphics/SVG/1.1/DTD/svg11.dtd">
<!-- Generated by graphviz version 2.43.0 (0)
 -->
<!-- Title: execute_command_substitution Pages: 1 -->
<!--zoomable 857 -->
<svg id="main" version="1.1" xmlns="http://www.w3.org/2000/svg" xmlns:xlink="http://www.w3.org/1999/xlink" xml:space="preserve" onload="init(evt)">
<style type="text/css"><![CDATA[
.edge:hover path { stroke: red; }
.edge:hover polygon { stroke: red; fill: red; }
]]></style>
<script type="text/javascript"><![CDATA[
var edges = document.getElementsByTagName('g');
if (edges && edges.length) {
  for (var i=0;i<edges.length;i++) {
    if (edges[i].id.substr(0,4)=='edge') {
      edges[i].setAttribute('class','edge');
    }
  }
}
]]></script>
        <defs>
                <circle id="rim" cx="0" cy="0" r="7"/>
                <circle id="rim2" cx="0" cy="0" r="3.5"/>
                <g id="zoomPlus">
                        <use xlink:href="#rim" fill="#404040">
                                <set attributeName="fill" to="#808080" begin="zoomplus.mouseover" end="zoomplus.mouseout"/>
                        </use>
                        <path d="M-4,0h8M0,-4v8" fill="none" stroke="white" stroke-width="1.5" pointer-events="none"/>
                </g>
                <g id="zoomMin">
                        <use xlink:href="#rim" fill="#404040">
                                <set attributeName="fill" to="#808080" begin="zoomminus.mouseover" end="zoomminus.mouseout"/>
                        </use>
                        <path d="M-4,0h8" fill="none" stroke="white" stroke-width="1.5" pointer-events="none"/>
                </g>
                <g id="dirArrow">
                        <path fill="none" stroke="white" stroke-width="1.5" d="M0,-3.0v7 M-2.5,-0.5L0,-3.0L2.5,-0.5"/>
                </g>
               <g id="resetDef">
                       <use xlink:href="#rim2" fill="#404040">
                               <set attributeName="fill" to="#808080" begin="reset.mouseover" end="reset.mouseout"/>
                       </use>
               </g>
        </defs>

<script type="text/javascript">
var viewWidth = 1403;
var viewHeight = 857;
var sectionId = 'dynsection-5';
</script>
<script xlink:href="svgpan.js"/>
<svg id="graph" class="graph">
<g id="viewport">
<title>execute_command_substitution</title>
<!-- Node1 -->
<g id="node1" class="node">
<title>Node1</title>
<g id="a_node1"><a xlink:title=" ">
<polygon fill="#999999" stroke="#666666" points="172,-756 0,-756 0,-737 172,-737 172,-756"/>
<text text-anchor="middle" x="86" y="-744" font-family="Helvetica,sans-Serif" font-size="10.00">execute_command_substitution</text>
</a>
</g>
</g>
<!-- Node2 -->
<g id="node2" class="node">
<title>Node2</title>
<g id="a_node2"><a xlink:href="execute__command__substitution_8c.html#a075d95090572b6eefee6062c788e021f" target="_top" xlink:title=" ">
<polygon fill="white" stroke="#666666" points="334,-849 231,-849 231,-830 334,-830 334,-849"/>
<text text-anchor="middle" x="282.5" y="-837" font-family="Helvetica,sans-Serif" font-size="10.00">handle_fork_error</text>
</a>
</g>
</g>
<!-- Node1&#45;&gt;Node2 -->
<g id="edge1" class="edge">
<title>Node1&#45;&gt;Node2</title>
<path fill="none" stroke="#63b8ff" d="M99.35,-756.01C120.47,-771.84 165.39,-803.61 208,-821.5 212.8,-823.51 217.87,-825.34 223.02,-826.98"/>
<polygon fill="#63b8ff" stroke="#63b8ff" points="222.38,-830.44 232.96,-829.91 224.36,-823.72 222.38,-830.44"/>
</g>
<!-- Node3 -->
<g id="node3" class="node">
<title>Node3</title>
<g id="a_node3"><a xlink:href="execute__command__substitution_8c.html#af0e085937d4d6fbc3feb274895606e50" target="_top" xlink:title=" ">
<polygon fill="white" stroke="#666666" points="334.5,-812 230.5,-812 230.5,-793 334.5,-793 334.5,-812"/>
<text text-anchor="middle" x="282.5" y="-800" font-family="Helvetica,sans-Serif" font-size="10.00">handle_pipe_error</text>
</a>
</g>
</g>
<!-- Node1&#45;&gt;Node3 -->
<g id="edge2" class="edge">
<title>Node1&#45;&gt;Node3</title>
<path fill="none" stroke="#63b8ff" d="M115.69,-756.08C140.11,-764.1 176.19,-775.62 208,-784.5 215.3,-786.54 223.05,-788.57 230.67,-790.5"/>
<polygon fill="#63b8ff" stroke="#63b8ff" points="230.01,-793.94 240.56,-792.97 231.7,-787.15 230.01,-793.94"/>
</g>
<!-- Node4 -->
<g id="node4" class="node">
<title>Node4</title>
<g id="a_node4"><a xlink:href="execute__command__substitution_8c.html#aebaa8b3d8f96bd07e2efb13393b1fa13" target="_top" xlink:title=" ">
<polygon fill="white" stroke="#666666" points="333,-775 232,-775 232,-756 333,-756 333,-775"/>
<text text-anchor="middle" x="282.5" y="-763" font-family="Helvetica,sans-Serif" font-size="10.00">read_pipe_output</text>
</a>
</g>
</g>
<!-- Node1&#45;&gt;Node4 -->
<g id="edge3" class="edge">
<title>Node1&#45;&gt;Node4</title>
<path fill="none" stroke="#63b8ff" d="M172.03,-754.81C188.8,-756.44 206.06,-758.13 221.78,-759.67"/>
<polygon fill="#63b8ff" stroke="#63b8ff" points="221.57,-763.16 231.86,-760.65 222.25,-756.2 221.57,-763.16"/>
</g>
<!-- Node6 -->
<g id="node6" class="node">
<title>Node6</title>
<g id="a_node6"><a xlink:href="execute__command__substitution_8c.html#a49d3b6ea9dfddcfae1e4193b46064722" target="_top" xlink:title=" ">
<polygon fill="white" stroke="#666666" points="345.5,-738 219.5,-738 219.5,-719 345.5,-719 345.5,-738"/>
<text text-anchor="middle" x="282.5" y="-726" font-family="Helvetica,sans-Serif" font-size="10.00">remove_end_newlines</text>
</a>
</g>
</g>
<!-- Node1&#45;&gt;Node6 -->
<g id="edge5" class="edge">
<title>Node1&#45;&gt;Node6</title>
<path fill="none" stroke="#63b8ff" d="M172.03,-738.63C184.49,-737.48 197.22,-736.3 209.38,-735.17"/>
<polygon fill="#63b8ff" stroke="#63b8ff" points="209.82,-738.65 219.45,-734.24 209.17,-731.68 209.82,-738.65"/>
</g>
<!-- Node7 -->
<g id="node7" class="node">
<title>Node7</title>
<g id="a_node7"><a xlink:href="execute__command__substitution_8c.html#a230d3e2be0c3d7360a8cf2a810878cf2" target="_top" xlink:title=" ">
<polygon fill="white" stroke="#666666" points="357,-438 208,-438 208,-419 357,-419 357,-438"/>
<text text-anchor="middle" x="282.5" y="-426" font-family="Helvetica,sans-Serif" font-size="10.00">run_command_substitution</text>
</a>
</g>
</g>
<!-- Node1&#45;&gt;Node7 -->
<g id="edge6" class="edge">
<title>Node1&#45;&gt;Node7</title>
<path fill="none" stroke="#63b8ff" d="M92.82,-736.98C119.88,-692.74 233.63,-506.76 270.16,-447.05"/>
<polygon fill="#63b8ff" stroke="#63b8ff" points="273.28,-448.65 275.51,-438.29 267.31,-445 273.28,-448.65"/>
</g>
<!-- Node23 -->
<g id="node30" class="node">
<title>Node23</title>
<g id="a_node30"><a xlink:href="wait__for__subprocess_8c.html#a1242d78540fd0ddef3d98a9f294cb0d4" target="_top" xlink:title=" ">
<polygon fill="white" stroke="#666666" points="949,-662 833,-662 833,-643 949,-643 949,-662"/>
<text text-anchor="middle" x="891" y="-650" font-family="Helvetica,sans-Serif" font-size="10.00">wait_for_subprocess</text>
</a>
</g>
</g>
<!-- Node1&#45;&gt;Node23 -->
<g id="edge68" class="edge">
<title>Node1&#45;&gt;Node23</title>
<path fill="none" stroke="#63b8ff" d="M113.53,-736.9C137.79,-728.53 174.84,-716.78 208,-710.5 310.77,-691.04 337.9,-690.5 442.5,-690.5 442.5,-690.5 442.5,-690.5 587.5,-690.5 680.11,-690.5 703.36,-684.82 795,-671.5 808.66,-669.51 823.33,-666.85 836.95,-664.14"/>
<polygon fill="#63b8ff" stroke="#63b8ff" points="838.03,-667.5 847.13,-662.08 836.64,-660.64 838.03,-667.5"/>
</g>
<!-- Node5 -->
<g id="node5" class="node">
<title>Node5</title>
<g id="a_node5"><a xlink:href="strings_8h.html#a5e1589f073ac32d227dbc6020c376dab" target="_top" xlink:title=" ">
<polygon fill="white" stroke="#666666" points="494,-775 393,-775 393,-756 494,-756 494,-775"/>
<text text-anchor="middle" x="443.5" y="-763" font-family="Helvetica,sans-Serif" font-size="10.00">append_to_buffer</text>
</a>
</g>
</g>
<!-- Node4&#45;&gt;Node5 -->
<g id="edge4" class="edge">
<title>Node4&#45;&gt;Node5</title>
<path fill="none" stroke="#63b8ff" d="M333.37,-765.5C348.91,-765.5 366.21,-765.5 382.38,-765.5"/>
<polygon fill="#63b8ff" stroke="#63b8ff" points="382.8,-769 392.8,-765.5 382.8,-762 382.8,-769"/>
</g>
<!-- Node8 -->
<g id="node8" class="node">
<title>Node8</title>
<g id="a_node8"><a xlink:href="shell_8c.html#afb5215a1775326d8976fd015f7832392" target="_top" xlink:title=" ">
<polygon fill="white" stroke="#666666" points="483.5,-192 403.5,-192 403.5,-173 483.5,-173 483.5,-192"/>
<text text-anchor="middle" x="443.5" y="-180" font-family="Helvetica,sans-Serif" font-size="10.00">handle_input</text>
</a>
</g>
</g>
<!-- Node7&#45;&gt;Node8 -->
<g id="edge7" class="edge">
<title>Node7&#45;&gt;Node8</title>
<path fill="none" stroke="#63b8ff" d="M289.73,-418.86C313.58,-381.96 399.26,-249.41 430.76,-200.66"/>
<polygon fill="#63b8ff" stroke="#63b8ff" points="433.82,-202.38 436.31,-192.08 427.94,-198.58 433.82,-202.38"/>
</g>
<!-- Node9 -->
<g id="node9" class="node">
<title>Node9</title>
<g id="a_node9"><a xlink:href="ast__destroy_8c.html#a04c67d7ab492f6e1e7bc44dc70faa057" target="_top" xlink:title=" ">
<polygon fill="white" stroke="#666666" points="1231,-94 1157,-94 1157,-75 1231,-75 1231,-94"/>
<text text-anchor="middle" x="1194" y="-82" font-family="Helvetica,sans-Serif" font-size="10.00">ast_destroy</text>
</a>
</g>
</g>
<!-- Node8&#45;&gt;Node9 -->
<g id="edge8" class="edge">
<title>Node8&#45;&gt;Node9</title>
<path fill="none" stroke="#63b8ff" d="M448.72,-172.92C459.1,-150.5 488.13,-94.3 530,-65.5 608.17,-11.73 641.12,-9.5 736,-9.5 736,-9.5 736,-9.5 892,-9.5 989.26,-9.5 1018.32,3.96 1110,-28.5 1134.61,-37.21 1158.91,-54.98 1174.8,-68.17"/>
<polygon fill="#63b8ff" stroke="#63b8ff" points="1172.83,-71.1 1182.7,-74.95 1177.39,-65.78 1172.83,-71.1"/>
</g>
<!-- Node11 -->
<g id="node11" class="node">
<title>Node11</title>
<g id="a_node11"><a xlink:href="shell_8c.html#a74405478dadd73c0a4d1e5f3e8d2e3ef" target="_top" xlink:title=" ">
<polygon fill="white" stroke="#666666" points="643,-218.5 530,-218.5 530,-188.5 643,-188.5 643,-218.5"/>
<text text-anchor="start" x="538" y="-206.5" font-family="Helvetica,sans-Serif" font-size="10.00">destroy_parser_and</text>
<text text-anchor="middle" x="586.5" y="-195.5" font-family="Helvetica,sans-Serif" font-size="10.00">_lexer</text>
</a>
</g>
</g>
<!-- Node8&#45;&gt;Node11 -->
<g id="edge11" class="edge">
<title>Node8&#45;&gt;Node11</title>
<path fill="none" stroke="#63b8ff" d="M483.78,-188.35C494.92,-190.01 507.36,-191.86 519.62,-193.69"/>
<polygon fill="#63b8ff" stroke="#63b8ff" points="519.43,-197.2 529.84,-195.21 520.46,-190.27 519.43,-197.2"/>
</g>
<!-- Node15 -->
<g id="node15" class="node">
<title>Node15</title>
<g id="a_node15"><a xlink:href="execute__ast_8c.html#ad26a20a665ab7fdeb714ed53c1afd104" target="_top" xlink:title=" ">
<polygon fill="white" stroke="#666666" points="624,-435 549,-435 549,-416 624,-416 624,-435"/>
<text text-anchor="middle" x="586.5" y="-423" font-family="Helvetica,sans-Serif" font-size="10.00">execute_ast</text>
</a>
</g>
</g>
<!-- Node8&#45;&gt;Node15 -->
<g id="edge15" class="edge">
<title>Node8&#45;&gt;Node15</title>
<path fill="none" stroke="#63b8ff" d="M450.03,-192.03C471.08,-228.31 546.49,-358.28 574.73,-406.93"/>
<polygon fill="#63b8ff" stroke="#63b8ff" points="571.81,-408.88 579.86,-415.78 577.87,-405.37 571.81,-408.88"/>
</g>
<!-- Node49 -->
<g id="node39" class="node">
<title>Node49</title>
<g id="a_node39"><a xlink:href="shell_8c.html#a6e35892cfa82c5f227b10f37abc529e9" target="_top" xlink:title=" ">
<polygon fill="white" stroke="#666666" points="632,-94 541,-94 541,-75 632,-75 632,-94"/>
<text text-anchor="middle" x="586.5" y="-82" font-family="Helvetica,sans-Serif" font-size="10.00">handle_parsing</text>
</a>
</g>
</g>
<!-- Node8&#45;&gt;Node49 -->
<g id="edge51" class="edge">
<title>Node8&#45;&gt;Node49</title>
<path fill="none" stroke="#63b8ff" d="M453.73,-172.79C468.62,-157.53 499.41,-127.71 530,-108.5 536.03,-104.71 542.77,-101.24 549.41,-98.2"/>
<polygon fill="#63b8ff" stroke="#63b8ff" points="551.2,-101.23 558.97,-94.04 548.41,-94.81 551.2,-101.23"/>
</g>
<!-- Node137 -->
<g id="node46" class="node">
<title>Node137</title>
<g id="a_node46"><a xlink:href="shell_8c.html#a1ce512725ee0371f8bf608a3ece0c152" target="_top" xlink:title=" ">
<polygon fill="white" stroke="#666666" points="951,-132 831,-132 831,-113 951,-113 951,-132"/>
<text text-anchor="middle" x="891" y="-120" font-family="Helvetica,sans-Serif" font-size="10.00">show_error_message</text>
</a>
</g>
</g>
<!-- Node8&#45;&gt;Node137 -->
<g id="edge67" class="edge">
<title>Node8&#45;&gt;Node137</title>
<path fill="none" stroke="#63b8ff" d="M459.86,-172.83C476.45,-162.94 504,-148.14 530,-141.5 628.75,-116.29 747.53,-115.47 820.91,-118.2"/>
<polygon fill="#63b8ff" stroke="#63b8ff" points="820.82,-121.7 830.95,-118.61 821.1,-114.71 820.82,-121.7"/>
</g>
<!-- Node138 -->
<g id="node47" class="node">
<title>Node138</title>
<g id="a_node47"><a xlink:href="lexer__init_8c.html#aee55447f2c8b083ed2614fa4f439f9cc" target="_top" xlink:title=" ">
<polygon fill="white" stroke="#666666" points="617.5,-170 555.5,-170 555.5,-151 617.5,-151 617.5,-170"/>
<text text-anchor="middle" x="586.5" y="-158" font-family="Helvetica,sans-Serif" font-size="10.00">lexer_init</text>
</a>
</g>
</g>
<!-- Node8&#45;&gt;Node138 -->
<g id="edge62" class="edge">
<title>Node8&#45;&gt;Node138</title>
<path fill="none" stroke="#63b8ff" d="M483.78,-176.37C502.98,-173.38 526.05,-169.78 545.37,-166.76"/>
<polygon fill="#63b8ff" stroke="#63b8ff" points="546.03,-170.2 555.37,-165.2 544.95,-163.28 546.03,-170.2"/>
</g>
<!-- Node139 -->
<g id="node48" class="node">
<title>Node139</title>
<g id="a_node48"><a xlink:href="parser__init_8c.html#a7a5dc445fa057a393d0b94590acea2f1" target="_top" xlink:title=" ">
<polygon fill="white" stroke="#666666" points="620.5,-256 552.5,-256 552.5,-237 620.5,-237 620.5,-256"/>
<text text-anchor="middle" x="586.5" y="-244" font-family="Helvetica,sans-Serif" font-size="10.00">parser_init</text>
</a>
</g>
</g>
<!-- Node8&#45;&gt;Node139 -->
<g id="edge63" class="edge">
<title>Node8&#45;&gt;Node139</title>
<path fill="none" stroke="#63b8ff" d="M460.84,-192.07C477.78,-201.76 505.2,-216.81 530,-227.5 534.84,-229.59 540,-231.61 545.14,-233.51"/>
<polygon fill="#63b8ff" stroke="#63b8ff" points="544.34,-236.93 554.93,-236.98 546.68,-230.34 544.34,-236.93"/>
</g>
<!-- Node9&#45;&gt;Node9 -->
<g id="edge9" class="edge">
<title>Node9&#45;&gt;Node9</title>
<path fill="none" stroke="#63b8ff" d="M1172.11,-94.08C1161.47,-102.73 1168.76,-112 1194,-112 1210.17,-112 1218.97,-108.2 1220.41,-103.19"/>
<polygon fill="#63b8ff" stroke="#63b8ff" points="1223.47,-101.48 1215.89,-94.08 1217.2,-104.6 1223.47,-101.48"/>
</g>
<!-- Node10 -->
<g id="node10" class="node">
<title>Node10</title>
<g id="a_node10"><a xlink:href="misc_8h.html#a1180cae2875b1fdcd58c9f9175a82c12" target="_top" xlink:title=" ">
<polygon fill="white" stroke="#666666" points="1395,-94 1278,-94 1278,-75 1395,-75 1395,-94"/>
<text text-anchor="middle" x="1336.5" y="-82" font-family="Helvetica,sans-Serif" font-size="10.00">my_free_word_array</text>
</a>
</g>
</g>
<!-- Node9&#45;&gt;Node10 -->
<g id="edge10" class="edge">
<title>Node9&#45;&gt;Node10</title>
<path fill="none" stroke="#63b8ff" d="M1231.18,-84.5C1242.41,-84.5 1255.17,-84.5 1267.82,-84.5"/>
<polygon fill="#63b8ff" stroke="#63b8ff" points="1267.91,-88 1277.91,-84.5 1267.91,-81 1267.91,-88"/>
</g>
<!-- Node12 -->
<g id="node12" class="node">
<title>Node12</title>
<g id="a_node12"><a xlink:href="lexer__init_8c.html#a592247dc9c102c884630b41389a1b38b" target="_top" xlink:title=" ">
<polygon fill="white" stroke="#666666" points="778.5,-176 695.5,-176 695.5,-157 778.5,-157 778.5,-176"/>
<text text-anchor="middle" x="737" y="-164" font-family="Helvetica,sans-Serif" font-size="10.00">lexer_destroy</text>
</a>
</g>
</g>
<!-- Node11&#45;&gt;Node12 -->
<g id="edge12" class="edge">
<title>Node11&#45;&gt;Node12</title>
<path fill="none" stroke="#63b8ff" d="M643.22,-189.62C657.79,-185.99 673.37,-182.1 687.53,-178.58"/>
<polygon fill="#63b8ff" stroke="#63b8ff" points="688.7,-181.89 697.56,-176.08 687.01,-175.1 688.7,-181.89"/>
</g>
<!-- Node13 -->
<g id="node13" class="node">
<title>Node13</title>
<g id="a_node13"><a xlink:href="parser__destroy_8c.html#ae2656460a6fc6b6cd65624312fe0c943" target="_top" xlink:title=" ">
<polygon fill="white" stroke="#666666" points="781.5,-213 692.5,-213 692.5,-194 781.5,-194 781.5,-213"/>
<text text-anchor="middle" x="737" y="-201" font-family="Helvetica,sans-Serif" font-size="10.00">parser_destroy</text>
</a>
</g>
</g>
<!-- Node11&#45;&gt;Node13 -->
<g id="edge13" class="edge">
<title>Node11&#45;&gt;Node13</title>
<path fill="none" stroke="#63b8ff" d="M643.22,-203.5C655.82,-203.5 669.18,-203.5 681.73,-203.5"/>
<polygon fill="#63b8ff" stroke="#63b8ff" points="682.03,-207 692.03,-203.5 682.03,-200 682.03,-207"/>
</g>
<!-- Node14 -->
<g id="node14" class="node">
<title>Node14</title>
<g id="a_node14"><a xlink:href="destroy__token_8c.html#ad1a471ee7b1ccb035d769be1152a370c" target="_top" xlink:title=" ">
<polygon fill="white" stroke="#666666" points="934,-213 848,-213 848,-194 934,-194 934,-213"/>
<text text-anchor="middle" x="891" y="-201" font-family="Helvetica,sans-Serif" font-size="10.00">token_destroy</text>
</a>
</g>
</g>
<!-- Node13&#45;&gt;Node14 -->
<g id="edge14" class="edge">
<title>Node13&#45;&gt;Node14</title>
<path fill="none" stroke="#63b8ff" d="M781.56,-203.5C799.02,-203.5 819.29,-203.5 837.55,-203.5"/>
<polygon fill="#63b8ff" stroke="#63b8ff" points="837.75,-207 847.75,-203.5 837.75,-200 837.75,-207"/>
</g>
<!-- Node16 -->
<g id="node16" class="node">
<title>Node16</title>
<g id="a_node16"><a xlink:href="execute__cmd_8c.html#a94ea9cc5a046ce96e36764bf0e4fa2c0" target="_top" xlink:title=" ">
<polygon fill="white" stroke="#666666" points="777.5,-398 696.5,-398 696.5,-379 777.5,-379 777.5,-398"/>
<text text-anchor="middle" x="737" y="-386" font-family="Helvetica,sans-Serif" font-size="10.00">execute_cmd</text>
</a>
</g>
</g>
<!-- Node15&#45;&gt;Node16 -->
<g id="edge16" class="edge">
<title>Node15&#45;&gt;Node16</title>
<path fill="none" stroke="#63b8ff" d="M624.21,-416.35C643.4,-411.57 667.13,-405.66 687.78,-400.51"/>
<polygon fill="#63b8ff" stroke="#63b8ff" points="688.79,-403.87 697.64,-398.06 687.09,-397.08 688.79,-403.87"/>
</g>
<!-- Node31 -->
<g id="node23" class="node">
<title>Node31</title>
<g id="a_node23"><a xlink:href="execute__logical__and_8c.html#a4f940752faf9f9a258c49810b21efe47" target="_top" xlink:title=" ">
<polygon fill="white" stroke="#666666" points="795,-324 679,-324 679,-305 795,-305 795,-324"/>
<text text-anchor="middle" x="737" y="-312" font-family="Helvetica,sans-Serif" font-size="10.00">execute_logical_and</text>
</a>
</g>
</g>
<!-- Node15&#45;&gt;Node31 -->
<g id="edge24" class="edge">
<title>Node15&#45;&gt;Node31</title>
<path fill="none" stroke="#63b8ff" d="M591.37,-415.95C602.05,-396.48 633.56,-354.78 670.74,-328.92"/>
<polygon fill="#63b8ff" stroke="#63b8ff" points="672.82,-331.74 679.27,-323.34 668.98,-325.89 672.82,-331.74"/>
</g>
<!-- Node32 -->
<g id="node24" class="node">
<title>Node32</title>
<g id="a_node24"><a xlink:href="execute__logical__or_8c.html#a7e732d7c30b07010fa55850051007dcc" target="_top" xlink:title=" ">
<polygon fill="white" stroke="#666666" points="790.5,-287 683.5,-287 683.5,-268 790.5,-268 790.5,-287"/>
<text text-anchor="middle" x="737" y="-275" font-family="Helvetica,sans-Serif" font-size="10.00">execute_logical_or</text>
</a>
</g>
</g>
<!-- Node15&#45;&gt;Node32 -->
<g id="edge26" class="edge">
<title>Node15&#45;&gt;Node32</title>
<path fill="none" stroke="#63b8ff" d="M589.98,-415.95C598.36,-391.42 627.57,-328.79 675.3,-289.83"/>
<polygon fill="#63b8ff" stroke="#63b8ff" points="677.66,-292.43 683.44,-283.55 673.39,-286.88 677.66,-292.43"/>
</g>
<!-- Node33 -->
<g id="node25" class="node">
<title>Node33</title>
<g id="a_node25"><a xlink:href="execute__pipe_8c.html#a5f3546dc2c7cf06c982afba41e722164" target="_top" xlink:title=" ">
<polygon fill="white" stroke="#666666" points="777.5,-586 696.5,-586 696.5,-567 777.5,-567 777.5,-586"/>
<text text-anchor="middle" x="737" y="-574" font-family="Helvetica,sans-Serif" font-size="10.00">execute_pipe</text>
</a>
</g>
</g>
<!-- Node15&#45;&gt;Node33 -->
<g id="edge28" class="edge">
<title>Node15&#45;&gt;Node33</title>
<path fill="none" stroke="#63b8ff" d="M592.09,-435.16C603.6,-458.41 635.85,-518.14 679,-552.5 683.96,-556.45 689.67,-559.86 695.51,-562.76"/>
<polygon fill="#63b8ff" stroke="#63b8ff" points="694.16,-565.99 704.72,-566.91 697.04,-559.61 694.16,-565.99"/>
</g>
<!-- Node38 -->
<g id="node32" class="node">
<title>Node38</title>
<g id="a_node32"><a xlink:href="execute__redirect_8c.html#a1004307aba80117ddd99f009e52fb155" target="_top" xlink:title=" ">
<polygon fill="white" stroke="#666666" points="786,-472 688,-472 688,-453 786,-453 786,-472"/>
<text text-anchor="middle" x="737" y="-460" font-family="Helvetica,sans-Serif" font-size="10.00">execute_redirect</text>
</a>
</g>
</g>
<!-- Node15&#45;&gt;Node38 -->
<g id="edge39" class="edge">
<title>Node15&#45;&gt;Node38</title>
<path fill="none" stroke="#63b8ff" d="M624.21,-434.65C643.4,-439.43 667.13,-445.34 687.78,-450.49"/>
<polygon fill="#63b8ff" stroke="#63b8ff" points="687.09,-453.92 697.64,-452.94 688.79,-447.13 687.09,-453.92"/>
</g>
<!-- Node46 -->
<g id="node36" class="node">
<title>Node46</title>
<g id="a_node36"><a xlink:href="execute__repeat_8c.html#a00d48683c54b50130b4a402e6e97fa97" target="_top" xlink:title=" ">
<polygon fill="white" stroke="#666666" points="783,-435 691,-435 691,-416 783,-416 783,-435"/>
<text text-anchor="middle" x="737" y="-423" font-family="Helvetica,sans-Serif" font-size="10.00">execute_repeat</text>
</a>
</g>
</g>
<!-- Node15&#45;&gt;Node46 -->
<g id="edge44" class="edge">
<title>Node15&#45;&gt;Node46</title>
<path fill="none" stroke="#63b8ff" d="M624.21,-419.58C641.32,-418.75 662.03,-418.54 680.96,-418.96"/>
<polygon fill="#63b8ff" stroke="#63b8ff" points="680.87,-422.45 690.96,-419.24 681.07,-415.46 680.87,-422.45"/>
</g>
<!-- Node47 -->
<g id="node37" class="node">
<title>Node47</title>
<g id="a_node37"><a xlink:href="execute__sequence_8c.html#aad2caa5bf50b0752dd8272da477ec231" target="_top" xlink:title=" ">
<polygon fill="white" stroke="#666666" points="790.5,-361 683.5,-361 683.5,-342 790.5,-342 790.5,-361"/>
<text text-anchor="middle" x="737" y="-349" font-family="Helvetica,sans-Serif" font-size="10.00">execute_sequence</text>
</a>
</g>
</g>
<!-- Node15&#45;&gt;Node47 -->
<g id="edge46" class="edge">
<title>Node15&#45;&gt;Node47</title>
<path fill="none" stroke="#63b8ff" d="M594.29,-415.7C607.85,-402.14 639.62,-379.84 674.05,-362.99"/>
<polygon fill="#63b8ff" stroke="#63b8ff" points="675.78,-366.04 683.33,-358.61 672.79,-359.71 675.78,-366.04"/>
</g>
<!-- Node48 -->
<g id="node38" class="node">
<title>Node48</title>
<g id="a_node38"><a xlink:href="execute__subshell_8c.html#a40a27866de012b013a337f794a858d70" target="_top" xlink:title=" ">
<polygon fill="white" stroke="#666666" points="787.5,-662 686.5,-662 686.5,-643 787.5,-643 787.5,-662"/>
<text text-anchor="middle" x="737" y="-650" font-family="Helvetica,sans-Serif" font-size="10.00">execute_subshell</text>
</a>
</g>
</g>
<!-- Node15&#45;&gt;Node48 -->
<g id="edge48" class="edge">
<title>Node15&#45;&gt;Node48</title>
<path fill="none" stroke="#63b8ff" d="M590.08,-435.03C597.48,-466.33 621.99,-563.9 679,-619.5 688.39,-628.66 701.81,-634.55 713.26,-639.17"/>
<polygon fill="#63b8ff" stroke="#63b8ff" points="712.09,-642.47 722.68,-642.97 714.71,-635.98 712.09,-642.47"/>
</g>
<!-- Node17 -->
<g id="node17" class="node">
<title>Node17</title>
<g id="a_node17"><a xlink:href="execute__cmd_8c.html#a0cfd2364134e68efdd39533e00b4b0d9" target="_top" xlink:title=" ">
<polygon fill="white" stroke="#666666" points="1108,-360 989,-360 989,-341 1108,-341 1108,-360"/>
<text text-anchor="middle" x="1048.5" y="-348" font-family="Helvetica,sans-Serif" font-size="10.00">execute_local_binary</text>
</a>
</g>
</g>
<!-- Node16&#45;&gt;Node17 -->
<g id="edge17" class="edge">
<title>Node16&#45;&gt;Node17</title>
<path fill="none" stroke="#63b8ff" d="M777.65,-379.36C794.08,-375.85 813.39,-372.06 831,-369.5 880.26,-362.33 936.24,-357.5 978.94,-354.51"/>
<polygon fill="#63b8ff" stroke="#63b8ff" points="979.2,-358 988.94,-353.83 978.73,-351.02 979.2,-358"/>
</g>
<!-- Node25 -->
<g id="node19" class="node">
<title>Node25</title>
<g id="a_node19"><a xlink:href="execute__cmd_8c.html#a460126af28ab29df4340554fae9fc57a" target="_top" xlink:title=" ">
<polygon fill="white" stroke="#666666" points="950,-435 832,-435 832,-416 950,-416 950,-435"/>
<text text-anchor="middle" x="891" y="-423" font-family="Helvetica,sans-Serif" font-size="10.00">execute_path_binary</text>
</a>
</g>
</g>
<!-- Node16&#45;&gt;Node25 -->
<g id="edge19" class="edge">
<title>Node16&#45;&gt;Node25</title>
<path fill="none" stroke="#63b8ff" d="M777.14,-398.03C796.57,-402.76 820.24,-408.52 840.87,-413.54"/>
<polygon fill="#63b8ff" stroke="#63b8ff" points="840.18,-416.98 850.72,-415.94 841.84,-410.17 840.18,-416.98"/>
</g>
<!-- Node30 -->
<g id="node22" class="node">
<title>Node30</title>
<g id="a_node22"><a xlink:href="strings_8h.html#a36f055c4e56c8a784629908d0c5b91e5" target="_top" xlink:title=" ">
<polygon fill="white" stroke="#666666" points="943,-398 839,-398 839,-379 943,-379 943,-398"/>
<text text-anchor="middle" x="891" y="-386" font-family="Helvetica,sans-Serif" font-size="10.00">my_is_char_in_str</text>
</a>
</g>
</g>
<!-- Node16&#45;&gt;Node30 -->
<g id="edge23" class="edge">
<title>Node16&#45;&gt;Node30</title>
<path fill="none" stroke="#63b8ff" d="M777.54,-388.5C793.2,-388.5 811.57,-388.5 828.87,-388.5"/>
<polygon fill="#63b8ff" stroke="#63b8ff" points="828.9,-392 838.9,-388.5 828.9,-385 828.9,-392"/>
</g>
<!-- Node18 -->
<g id="node18" class="node">
<title>Node18</title>
<g id="a_node18"><a xlink:href="execute__cmd_8c.html#a018afe6a043051ebc2e3dd9412587990" target="_top" xlink:title=" ">
<polygon fill="#fff0f0" stroke="red" points="1239.5,-397 1148.5,-397 1148.5,-378 1239.5,-378 1239.5,-397"/>
<text text-anchor="middle" x="1194" y="-385" font-family="Helvetica,sans-Serif" font-size="10.00">execute_binary</text>
</a>
</g>
</g>
<!-- Node17&#45;&gt;Node18 -->
<g id="edge18" class="edge">
<title>Node17&#45;&gt;Node18</title>
<path fill="none" stroke="#63b8ff" d="M1086.45,-360.03C1104.56,-364.7 1126.56,-370.37 1145.86,-375.35"/>
<polygon fill="#63b8ff" stroke="#63b8ff" points="1145.11,-378.77 1155.67,-377.88 1146.86,-371.99 1145.11,-378.77"/>
</g>
<!-- Node26 -->
<g id="node20" class="node">
<title>Node26</title>
<g id="a_node20"><a xlink:href="get__variable__value_8c.html#a2edd9900f19af236aa05385a789be3d6" target="_top" xlink:title=" ">
<polygon fill="#fff0f0" stroke="red" points="1103.5,-398 993.5,-398 993.5,-379 1103.5,-379 1103.5,-398"/>
<text text-anchor="middle" x="1048.5" y="-386" font-family="Helvetica,sans-Serif" font-size="10.00">get_variable_value</text>
</a>
</g>
</g>
<!-- Node25&#45;&gt;Node26 -->
<g id="edge20" class="edge">
<title>Node25&#45;&gt;Node26</title>
<path fill="none" stroke="#63b8ff" d="M932.05,-415.97C952.01,-411.22 976.35,-405.43 997.53,-400.39"/>
<polygon fill="#63b8ff" stroke="#63b8ff" points="998.4,-403.78 1007.32,-398.06 996.78,-396.97 998.4,-403.78"/>
</g>
<!-- Node28 -->
<g id="node21" class="node">
<title>Node28</title>
<g id="a_node21"><a xlink:href="execute__cmd_8c.html#aee9e13edede9df28fac066f30e7ae7ed" target="_top" xlink:title=" ">
<polygon fill="#fff0f0" stroke="red" points="1090.5,-435 1006.5,-435 1006.5,-416 1090.5,-416 1090.5,-435"/>
<text text-anchor="middle" x="1048.5" y="-423" font-family="Helvetica,sans-Serif" font-size="10.00">try_command</text>
</a>
</g>
</g>
<!-- Node25&#45;&gt;Node28 -->
<g id="edge21" class="edge">
<title>Node25&#45;&gt;Node28</title>
<path fill="none" stroke="#63b8ff" d="M950.34,-425.5C965.32,-425.5 981.33,-425.5 995.94,-425.5"/>
<polygon fill="#63b8ff" stroke="#63b8ff" points="996.29,-429 1006.29,-425.5 996.29,-422 996.29,-429"/>
</g>
<!-- Node28&#45;&gt;Node18 -->
<g id="edge22" class="edge">
<title>Node28&#45;&gt;Node18</title>
<path fill="none" stroke="#63b8ff" d="M1085.71,-415.91C1104.32,-410.98 1127.2,-404.93 1147.04,-399.67"/>
<polygon fill="#63b8ff" stroke="#63b8ff" points="1148.03,-403.03 1156.8,-397.09 1146.24,-396.26 1148.03,-403.03"/>
</g>
<!-- Node31&#45;&gt;Node15 -->
<g id="edge25" class="edge">
<title>Node31&#45;&gt;Node15</title>
<path fill="none" stroke="#63b8ff" d="M722.08,-324.03C710.02,-328.46 692.45,-333.26 679,-341.5 649.56,-359.54 622.74,-389.07 605.85,-408.11"/>
<polygon fill="#63b8ff" stroke="#63b8ff" points="603.05,-406 599.03,-415.8 608.29,-410.64 603.05,-406"/>
</g>
<!-- Node32&#45;&gt;Node15 -->
<g id="edge27" class="edge">
<title>Node32&#45;&gt;Node15</title>
<path fill="none" stroke="#63b8ff" d="M719.74,-287.15C707.59,-291.08 691.06,-295.68 679,-304.5 641.28,-332.1 613.42,-380.08 598.88,-406.79"/>
<polygon fill="#63b8ff" stroke="#63b8ff" points="595.64,-405.43 593.97,-415.9 601.8,-408.76 595.64,-405.43"/>
</g>
<!-- Node34 -->
<g id="node26" class="node">
<title>Node34</title>
<g id="a_node26"><a xlink:href="execute__pipe_8c.html#a723ff799f939872d17f109a82342294e" target="_top" xlink:title=" ">
<polygon fill="white" stroke="#666666" points="1079.5,-586 1017.5,-586 1017.5,-567 1079.5,-567 1079.5,-586"/>
<text text-anchor="middle" x="1048.5" y="-574" font-family="Helvetica,sans-Serif" font-size="10.00">close_fds</text>
</a>
</g>
</g>
<!-- Node33&#45;&gt;Node34 -->
<g id="edge29" class="edge">
<title>Node33&#45;&gt;Node34</title>
<path fill="none" stroke="#63b8ff" d="M777.51,-576.5C836.7,-576.5 947.77,-576.5 1007.34,-576.5"/>
<polygon fill="#63b8ff" stroke="#63b8ff" points="1007.49,-580 1017.49,-576.5 1007.49,-573 1007.49,-580"/>
</g>
<!-- Node35 -->
<g id="node27" class="node">
<title>Node35</title>
<g id="a_node27"><a xlink:href="execute__pipe_8c.html#ac529ffc2370b0133613ef8a81e58ed85" target="_top" xlink:title=" ">
<polygon fill="white" stroke="#666666" points="942,-624 840,-624 840,-605 942,-605 942,-624"/>
<text text-anchor="middle" x="891" y="-612" font-family="Helvetica,sans-Serif" font-size="10.00">execute_pipe_left</text>
</a>
</g>
</g>
<!-- Node33&#45;&gt;Node35 -->
<g id="edge30" class="edge">
<title>Node33&#45;&gt;Node35</title>
<path fill="none" stroke="#63b8ff" d="M776.36,-586.09C796.32,-591.08 820.93,-597.23 842.13,-602.53"/>
<polygon fill="#63b8ff" stroke="#63b8ff" points="841.37,-605.95 851.92,-604.98 843.07,-599.16 841.37,-605.95"/>
</g>
<!-- Node36 -->
<g id="node28" class="node">
<title>Node36</title>
<g id="a_node28"><a xlink:href="execute__pipe_8c.html#a9ed6eabb8a9f7049f91265a5f45e30c8" target="_top" xlink:title=" ">
<polygon fill="white" stroke="#666666" points="945.5,-548 836.5,-548 836.5,-529 945.5,-529 945.5,-548"/>
<text text-anchor="middle" x="891" y="-536" font-family="Helvetica,sans-Serif" font-size="10.00">execute_pipe_right</text>
</a>
</g>
</g>
<!-- Node33&#45;&gt;Node36 -->
<g id="edge33" class="edge">
<title>Node33&#45;&gt;Node36</title>
<path fill="none" stroke="#63b8ff" d="M776.36,-566.91C796.32,-561.92 820.93,-555.77 842.13,-550.47"/>
<polygon fill="#63b8ff" stroke="#63b8ff" points="843.07,-553.84 851.92,-548.02 841.37,-547.05 843.07,-553.84"/>
</g>
<!-- Node33&#45;&gt;Node23 -->
<g id="edge37" class="edge">
<title>Node33&#45;&gt;Node23</title>
<path fill="none" stroke="#63b8ff" d="M751.3,-586.06C768.86,-598.35 801.06,-619.74 831,-633.5 835.71,-635.66 840.73,-637.68 845.78,-639.54"/>
<polygon fill="#63b8ff" stroke="#63b8ff" points="844.87,-642.93 855.47,-642.9 847.17,-636.32 844.87,-642.93"/>
</g>
<!-- Node35&#45;&gt;Node15 -->
<g id="edge32" class="edge">
<title>Node35&#45;&gt;Node15</title>
<path fill="none" stroke="#63b8ff" d="M839.6,-622.63C793.89,-627.25 726.58,-626.91 679,-595.5 625.26,-560.03 600.65,-482.05 591.71,-445.34"/>
<polygon fill="#63b8ff" stroke="#63b8ff" points="595.07,-444.34 589.42,-435.37 588.25,-445.9 595.07,-444.34"/>
</g>
<!-- Node35&#45;&gt;Node34 -->
<g id="edge31" class="edge">
<title>Node35&#45;&gt;Node34</title>
<path fill="none" stroke="#63b8ff" d="M931.24,-604.91C954.44,-599.24 983.76,-592.08 1007.15,-586.36"/>
<polygon fill="#63b8ff" stroke="#63b8ff" points="1008.22,-589.7 1017.1,-583.93 1006.56,-582.9 1008.22,-589.7"/>
</g>
<!-- Node36&#45;&gt;Node15 -->
<g id="edge35" class="edge">
<title>Node36&#45;&gt;Node15</title>
<path fill="none" stroke="#63b8ff" d="M836.18,-536.28C792.15,-532.74 729.19,-523.66 679,-500.5 648.6,-486.47 619.81,-459.89 602.91,-442.44"/>
<polygon fill="#63b8ff" stroke="#63b8ff" points="605.43,-440.01 596.02,-435.14 600.34,-444.81 605.43,-440.01"/>
</g>
<!-- Node36&#45;&gt;Node34 -->
<g id="edge34" class="edge">
<title>Node36&#45;&gt;Node34</title>
<path fill="none" stroke="#63b8ff" d="M931.24,-548.09C954.44,-553.76 983.76,-560.92 1007.15,-566.64"/>
<polygon fill="#63b8ff" stroke="#63b8ff" points="1006.56,-570.1 1017.1,-569.07 1008.22,-563.3 1006.56,-570.1"/>
</g>
<!-- Node37 -->
<g id="node29" class="node">
<title>Node37</title>
<g id="a_node29"><a xlink:href="execute__pipe_8c.html#ac3d3a124b262676fa0679720f99a7f83" target="_top" xlink:title=" ">
<polygon fill="white" stroke="#666666" points="1088.5,-548 1008.5,-548 1008.5,-529 1088.5,-529 1088.5,-548"/>
<text text-anchor="middle" x="1048.5" y="-536" font-family="Helvetica,sans-Serif" font-size="10.00">restore_stdin</text>
</a>
</g>
</g>
<!-- Node36&#45;&gt;Node37 -->
<g id="edge36" class="edge">
<title>Node36&#45;&gt;Node37</title>
<path fill="none" stroke="#63b8ff" d="M945.51,-538.5C962.54,-538.5 981.29,-538.5 998.01,-538.5"/>
<polygon fill="#63b8ff" stroke="#63b8ff" points="998.13,-542 1008.13,-538.5 998.13,-535 998.13,-542"/>
</g>
<!-- Node24 -->
<g id="node31" class="node">
<title>Node24</title>
<g id="a_node31"><a xlink:href="wait__for__subprocess_8c.html#a885766ba6ba593b7cf27b917dd52b1a6" target="_top" xlink:title=" ">
<polygon fill="white" stroke="#666666" points="1110,-662 987,-662 987,-643 1110,-643 1110,-662"/>
<text text-anchor="middle" x="1048.5" y="-650" font-family="Helvetica,sans-Serif" font-size="10.00">print_signal_message</text>
</a>
</g>
</g>
<!-- Node23&#45;&gt;Node24 -->
<g id="edge38" class="edge">
<title>Node23&#45;&gt;Node24</title>
<path fill="none" stroke="#63b8ff" d="M949.02,-652.5C958.06,-652.5 967.5,-652.5 976.81,-652.5"/>
<polygon fill="#63b8ff" stroke="#63b8ff" points="976.83,-656 986.83,-652.5 976.83,-649 976.83,-656"/>
</g>
<!-- Node39 -->
<g id="node33" class="node">
<title>Node39</title>
<g id="a_node33"><a xlink:href="execute__redirect_8c.html#a5aa0f008806cc0e8a7ba252d61b7001f" target="_top" xlink:title=" ">
<polygon fill="white" stroke="#666666" points="944.5,-491 837.5,-491 837.5,-472 944.5,-472 944.5,-491"/>
<text text-anchor="middle" x="891" y="-479" font-family="Helvetica,sans-Serif" font-size="10.00">redirect_execution</text>
</a>
</g>
</g>
<!-- Node38&#45;&gt;Node39 -->
<g id="edge40" class="edge">
<title>Node38&#45;&gt;Node39</title>
<path fill="none" stroke="#63b8ff" d="M786.09,-468.51C799.25,-470.16 813.71,-471.96 827.54,-473.69"/>
<polygon fill="#63b8ff" stroke="#63b8ff" points="827.12,-477.17 837.48,-474.93 827.99,-470.22 827.12,-477.17"/>
</g>
<!-- Node39&#45;&gt;Node15 -->
<g id="edge41" class="edge">
<title>Node39&#45;&gt;Node15</title>
<path fill="none" stroke="#63b8ff" d="M837.33,-489.3C793.97,-493.89 731.36,-496.25 679,-481.5 651.67,-473.8 624.45,-455.42 606.89,-441.8"/>
<polygon fill="#63b8ff" stroke="#63b8ff" points="608.64,-438.71 598.65,-435.2 604.26,-444.18 608.64,-438.71"/>
</g>
<!-- Node40 -->
<g id="node34" class="node">
<title>Node40</title>
<g id="a_node34"><a xlink:href="execute__redirect_8c.html#a1b8f325fc375581f81ae47a54e09cf0e" target="_top" xlink:title=" ">
<polygon fill="white" stroke="#666666" points="1081.5,-510 1015.5,-510 1015.5,-491 1081.5,-491 1081.5,-510"/>
<text text-anchor="middle" x="1048.5" y="-498" font-family="Helvetica,sans-Serif" font-size="10.00">restore_fd</text>
</a>
</g>
</g>
<!-- Node39&#45;&gt;Node40 -->
<g id="edge42" class="edge">
<title>Node39&#45;&gt;Node40</title>
<path fill="none" stroke="#63b8ff" d="M944.65,-487.93C964.42,-490.35 986.62,-493.06 1005.32,-495.35"/>
<polygon fill="#63b8ff" stroke="#63b8ff" points="1004.96,-498.83 1015.32,-496.57 1005.81,-491.88 1004.96,-498.83"/>
</g>
<!-- Node41 -->
<g id="node35" class="node">
<title>Node41</title>
<g id="a_node35"><a xlink:href="execute__redirect_8c.html#a6cb002bd51f2009eaacc66d388c5f9a7" target="_top" xlink:title=" ">
<polygon fill="#fff0f0" stroke="red" points="1099,-473 998,-473 998,-454 1099,-454 1099,-473"/>
<text text-anchor="middle" x="1048.5" y="-461" font-family="Helvetica,sans-Serif" font-size="10.00">setup_redirection</text>
</a>
</g>
</g>
<!-- Node39&#45;&gt;Node41 -->
<g id="edge43" class="edge">
<title>Node39&#45;&gt;Node41</title>
<path fill="none" stroke="#63b8ff" d="M944.65,-475.41C958.47,-473.81 973.48,-472.07 987.66,-470.43"/>
<polygon fill="#63b8ff" stroke="#63b8ff" points="988.27,-473.88 997.8,-469.25 987.46,-466.93 988.27,-473.88"/>
</g>
<!-- Node46&#45;&gt;Node15 -->
<g id="edge45" class="edge">
<title>Node46&#45;&gt;Node15</title>
<path fill="none" stroke="#63b8ff" d="M690.96,-431.76C673.02,-432.39 652.37,-432.41 634.26,-431.82"/>
<polygon fill="#63b8ff" stroke="#63b8ff" points="634.34,-428.32 624.21,-431.42 634.06,-435.32 634.34,-428.32"/>
</g>
<!-- Node47&#45;&gt;Node15 -->
<g id="edge47" class="edge">
<title>Node47&#45;&gt;Node15</title>
<path fill="none" stroke="#63b8ff" d="M724.34,-361.09C712.6,-366.31 694.11,-371.62 679,-378.5 658.84,-387.69 637.65,-400.43 620.75,-410.54"/>
<polygon fill="#63b8ff" stroke="#63b8ff" points="618.64,-407.72 611.84,-415.84 622.22,-413.73 618.64,-407.72"/>
</g>
<!-- Node48&#45;&gt;Node15 -->
<g id="edge49" class="edge">
<title>Node48&#45;&gt;Node15</title>
<path fill="none" stroke="#63b8ff" d="M686.29,-643.47C683.68,-641.66 681.23,-639.67 679,-637.5 622.72,-582.61 598.12,-486.83 590.38,-445.25"/>
<polygon fill="#63b8ff" stroke="#63b8ff" points="593.8,-444.52 588.66,-435.25 586.9,-445.7 593.8,-444.52"/>
</g>
<!-- Node48&#45;&gt;Node23 -->
<g id="edge50" class="edge">
<title>Node48&#45;&gt;Node23</title>
<path fill="none" stroke="#63b8ff" d="M787.77,-652.5C798.95,-652.5 811,-652.5 822.76,-652.5"/>
<polygon fill="#63b8ff" stroke="#63b8ff" points="823,-656 833,-652.5 823,-649 823,-656"/>
</g>
<!-- Node50 -->
<g id="node40" class="node">
<title>Node50</title>
<g id="a_node40"><a xlink:href="empty__stdin_8c.html#a4c89df10296f2cc245e3a32065e04e7b" target="_top" xlink:title=" ">
<polygon fill="white" stroke="#666666" points="775.5,-57 698.5,-57 698.5,-38 775.5,-38 775.5,-57"/>
<text text-anchor="middle" x="737" y="-45" font-family="Helvetica,sans-Serif" font-size="10.00">empty_stdin</text>
</a>
</g>
</g>
<!-- Node49&#45;&gt;Node50 -->
<g id="edge52" class="edge">
<title>Node49&#45;&gt;Node50</title>
<path fill="none" stroke="#63b8ff" d="M625.74,-74.97C644.86,-70.21 668.17,-64.4 688.43,-59.35"/>
<polygon fill="#63b8ff" stroke="#63b8ff" points="689.54,-62.68 698.4,-56.87 687.85,-55.89 689.54,-62.68"/>
</g>
<!-- Node51 -->
<g id="node41" class="node">
<title>Node51</title>
<g id="a_node41"><a xlink:href="shell_8c.html#a2c9bd51744387dc73763281019d78622" target="_top" xlink:title=" ">
<polygon fill="white" stroke="#666666" points="769,-94 705,-94 705,-75 769,-75 769,-94"/>
<text text-anchor="middle" x="737" y="-82" font-family="Helvetica,sans-Serif" font-size="10.00">parse_ast</text>
</a>
</g>
</g>
<!-- Node49&#45;&gt;Node51 -->
<g id="edge53" class="edge">
<title>Node49&#45;&gt;Node51</title>
<path fill="none" stroke="#63b8ff" d="M632.05,-84.5C651.9,-84.5 675.13,-84.5 694.59,-84.5"/>
<polygon fill="#63b8ff" stroke="#63b8ff" points="694.67,-88 704.67,-84.5 694.67,-81 694.67,-88"/>
</g>
<!-- Node52 -->
<g id="node42" class="node">
<title>Node52</title>
<g id="a_node42"><a xlink:href="parser__parse_8c.html#ab56c1f0e36fe941facfe258418c2cc72" target="_top" xlink:title=" ">
<polygon fill="#fff0f0" stroke="red" points="931,-94 851,-94 851,-75 931,-75 931,-94"/>
<text text-anchor="middle" x="891" y="-82" font-family="Helvetica,sans-Serif" font-size="10.00">parser_parse</text>
</a>
</g>
</g>
<!-- Node51&#45;&gt;Node52 -->
<g id="edge54" class="edge">
<title>Node51&#45;&gt;Node52</title>
<path fill="none" stroke="#63b8ff" d="M769.13,-84.5C789.71,-84.5 817.12,-84.5 840.64,-84.5"/>
<polygon fill="#63b8ff" stroke="#63b8ff" points="840.79,-88 850.79,-84.5 840.79,-81 840.79,-88"/>
</g>
<!-- Node51&#45;&gt;Node137 -->
<g id="edge61" class="edge">
<title>Node51&#45;&gt;Node137</title>
<path fill="none" stroke="#63b8ff" d="M769.13,-92.28C790.1,-97.53 818.18,-104.55 842,-110.5"/>
<polygon fill="#63b8ff" stroke="#63b8ff" points="841.36,-113.95 851.91,-112.98 843.06,-107.16 841.36,-113.95"/>
</g>
<!-- Node52&#45;&gt;Node9 -->
<g id="edge55" class="edge">
<title>Node52&#45;&gt;Node9</title>
<path fill="none" stroke="#63b8ff" d="M931.05,-93.61C948.12,-97.14 968.45,-100.76 987,-102.5 1041.43,-107.61 1055.64,-108.33 1110,-102.5 1122.14,-101.2 1135.11,-98.86 1147.11,-96.28"/>
<polygon fill="#63b8ff" stroke="#63b8ff" points="1147.92,-99.69 1156.91,-94.08 1146.39,-92.86 1147.92,-99.69"/>
</g>
<!-- Node53 -->
<g id="node43" class="node">
<title>Node53</title>
<g id="a_node43"><a xlink:href="parse__sequence_8c.html#a1b3273ce0047a9f5b34da07c8ba9eb3e" target="_top" xlink:title=" ">
<polygon fill="#fff0f0" stroke="red" points="1096,-94 1001,-94 1001,-75 1096,-75 1096,-94"/>
<text text-anchor="middle" x="1048.5" y="-82" font-family="Helvetica,sans-Serif" font-size="10.00">parse_sequence</text>
</a>
</g>
</g>
<!-- Node52&#45;&gt;Node53 -->
<g id="edge56" class="edge">
<title>Node52&#45;&gt;Node53</title>
<path fill="none" stroke="#63b8ff" d="M931.24,-84.5C949.24,-84.5 970.94,-84.5 990.68,-84.5"/>
<polygon fill="#63b8ff" stroke="#63b8ff" points="990.8,-88 1000.8,-84.5 990.8,-81 990.8,-88"/>
</g>
<!-- Node60 -->
<g id="node44" class="node">
<title>Node60</title>
<g id="a_node44"><a xlink:href="parser__set__error_8c.html#adcfabdb026b94fdbe4b6cbf5cb16522a" target="_top" xlink:title=" ">
<polygon fill="white" stroke="#666666" points="1242,-19 1146,-19 1146,0 1242,0 1242,-19"/>
<text text-anchor="middle" x="1194" y="-7" font-family="Helvetica,sans-Serif" font-size="10.00">parser_set_error</text>
</a>
</g>
</g>
<!-- Node52&#45;&gt;Node60 -->
<g id="edge58" class="edge">
<title>Node52&#45;&gt;Node60</title>
<path fill="none" stroke="#63b8ff" d="M904.05,-74.99C921.31,-61.95 954.57,-38.97 987,-28.5 1035.47,-12.85 1093.45,-8.71 1135.53,-8.13"/>
<polygon fill="#63b8ff" stroke="#63b8ff" points="1135.63,-11.63 1145.6,-8.05 1135.58,-4.63 1135.63,-11.63"/>
</g>
<!-- Node136 -->
<g id="node45" class="node">
<title>Node136</title>
<g id="a_node45"><a xlink:href="parser__parse_8c.html#ade740e98de82dc19569de5885d2950d1" target="_top" xlink:title=" ">
<polygon fill="#fff0f0" stroke="red" points="1093.5,-57 1003.5,-57 1003.5,-38 1093.5,-38 1093.5,-57"/>
<text text-anchor="middle" x="1048.5" y="-45" font-family="Helvetica,sans-Serif" font-size="10.00">prepare_parser</text>
</a>
</g>
</g>
<!-- Node52&#45;&gt;Node136 -->
<g id="edge59" class="edge">
<title>Node52&#45;&gt;Node136</title>
<path fill="none" stroke="#63b8ff" d="M931.24,-75.16C951.36,-70.38 976.07,-64.5 997.54,-59.39"/>
<polygon fill="#63b8ff" stroke="#63b8ff" points="998.54,-62.75 1007.46,-57.03 996.92,-55.94 998.54,-62.75"/>
</g>
<!-- Node53&#45;&gt;Node9 -->
<g id="edge57" class="edge">
<title>Node53&#45;&gt;Node9</title>
<path fill="none" stroke="#63b8ff" d="M1096.09,-84.5C1112.2,-84.5 1130.25,-84.5 1146.37,-84.5"/>
<polygon fill="#63b8ff" stroke="#63b8ff" points="1146.64,-88 1156.64,-84.5 1146.64,-81 1146.64,-88"/>
</g>
<!-- Node136&#45;&gt;Node60 -->
<g id="edge60" class="edge">
<title>Node136&#45;&gt;Node60</title>
<path fill="none" stroke="#63b8ff" d="M1085.71,-37.91C1104.32,-32.98 1127.2,-26.93 1147.04,-21.67"/>
<polygon fill="#63b8ff" stroke="#63b8ff" points="1148.03,-25.03 1156.8,-19.09 1146.24,-18.26 1148.03,-25.03"/>
</g>
<!-- Node76 -->
<g id="node49" class="node">
<title>Node76</title>
<g id="a_node49"><a xlink:href="parser__next_8c.html#ad25986b565a767c6ad7d0b0b8846fca6" target="_top" xlink:title=" ">
<polygon fill="white" stroke="#666666" points="774,-250 700,-250 700,-231 774,-231 774,-250"/>
<text text-anchor="middle" x="737" y="-238" font-family="Helvetica,sans-Serif" font-size="10.00">parser_next</text>
</a>
</g>
</g>
<!-- Node139&#45;&gt;Node76 -->
<g id="edge64" class="edge">
<title>Node139&#45;&gt;Node76</title>
<path fill="none" stroke="#63b8ff" d="M620.83,-245.15C641.13,-244.33 667.36,-243.27 689.67,-242.37"/>
<polygon fill="#63b8ff" stroke="#63b8ff" points="690.08,-245.86 699.93,-241.96 689.8,-238.86 690.08,-245.86"/>
</g>
<!-- Node76&#45;&gt;Node14 -->
<g id="edge66" class="edge">
<title>Node76&#45;&gt;Node14</title>
<path fill="none" stroke="#63b8ff" d="M774.02,-231.73C794.04,-226.86 819.24,-220.72 841.03,-215.42"/>
<polygon fill="#63b8ff" stroke="#63b8ff" points="841.88,-218.82 850.77,-213.05 840.23,-212.01 841.88,-218.82"/>
</g>
<!-- Node77 -->
<g id="node50" class="node">
<title>Node77</title>
<g id="a_node50"><a xlink:href="lexer__next__token_8c.html#a3def5432329709fb4df861d90672c510" target="_top" xlink:title=" ">
<polygon fill="#fff0f0" stroke="red" points="941,-250 841,-250 841,-231 941,-231 941,-250"/>
<text text-anchor="middle" x="891" y="-238" font-family="Helvetica,sans-Serif" font-size="10.00">lexer_next_token</text>
</a>
</g>
</g>
<!-- Node76&#45;&gt;Node77 -->
<g id="edge65" class="edge">
<title>Node76&#45;&gt;Node77</title>
<path fill="none" stroke="#63b8ff" d="M774.02,-240.5C790.91,-240.5 811.49,-240.5 830.6,-240.5"/>
<polygon fill="#63b8ff" stroke="#63b8ff" points="830.72,-244 840.72,-240.5 830.72,-237 830.72,-244"/>
</g>
</g>
</svg>
        <g id="navigator" transform="translate(0 0)" fill="#404254">
                <rect fill="#f2f5e9" fill-opacity="0.5" stroke="#606060" stroke-width=".5" x="0" y="0" width="60" height="60"/>
                <use id="zoomplus" xlink:href="#zoomPlus" x="17" y="9" onmousedown="handleZoom(evt,'in')"/>
                <use id="zoomminus" xlink:href="#zoomMin" x="42" y="9" onmousedown="handleZoom(evt,'out')"/>
                <use id="reset" xlink:href="#resetDef" x="30" y="36" onmousedown="handleReset()"/>
                <g id="arrowUp" xlink:href="#dirArrow" transform="translate(30 24)" onmousedown="handlePan(0,-1)">
                  <use xlink:href="#rim" fill="#404040">
                        <set attributeName="fill" to="#808080" begin="arrowUp.mouseover" end="arrowUp.mouseout"/>
                  </use>
                  <path fill="none" stroke="white" stroke-width="1.5" d="M0,-3.0v7 M-2.5,-0.5L0,-3.0L2.5,-0.5"/>
                </g>
                <g id="arrowRight" xlink:href="#dirArrow" transform="rotate(90) translate(36 -43)" onmousedown="handlePan(1,0)">
                  <use xlink:href="#rim" fill="#404040">
                        <set attributeName="fill" to="#808080" begin="arrowRight.mouseover" end="arrowRight.mouseout"/>
                  </use>
                  <path fill="none" stroke="white" stroke-width="1.5" d="M0,-3.0v7 M-2.5,-0.5L0,-3.0L2.5,-0.5"/>
                </g>
                <g id="arrowDown" xlink:href="#dirArrow" transform="rotate(180) translate(-30 -48)" onmousedown="handlePan(0,1)">
                  <use xlink:href="#rim" fill="#404040">
                        <set attributeName="fill" to="#808080" begin="arrowDown.mouseover" end="arrowDown.mouseout"/>
                  </use>
                  <path fill="none" stroke="white" stroke-width="1.5" d="M0,-3.0v7 M-2.5,-0.5L0,-3.0L2.5,-0.5"/>
                </g>
                <g id="arrowLeft" xlink:href="#dirArrow" transform="rotate(270) translate(-36 17)" onmousedown="handlePan(-1,0)">
                  <use xlink:href="#rim" fill="#404040">
                        <set attributeName="fill" to="#808080" begin="arrowLeft.mouseover" end="arrowLeft.mouseout"/>
                  </use>
                  <path fill="none" stroke="white" stroke-width="1.5" d="M0,-3.0v7 M-2.5,-0.5L0,-3.0L2.5,-0.5"/>
                </g>
        </g>
        <svg viewBox="0 0 15 15" width="100%" height="30px" preserveAspectRatio="xMaxYMin meet">
         <g id="arrow_out" transform="scale(0.3 0.3)">
          <a xlink:href="executer_8h_a44d633c45c6a1c7a82b2fc4f1f3a1b85_cgraph_org.svg" target="_base">
           <rect id="button" ry="5" rx="5" y="6" x="6" height="38" width="38"
                fill="#f2f5e9" fill-opacity="0.5" stroke="#606060" stroke-width="1.0"/>
           <path id="arrow"
             d="M 11.500037,31.436501 C 11.940474,20.09759 22.043105,11.32322 32.158766,21.979434 L 37.068811,17.246167 C 37.068811,17.246167 37.088388,32 37.088388,32 L 22.160133,31.978069 C 22.160133,31.978069 26.997745,27.140456 26.997745,27.140456 C 18.528582,18.264221 13.291696,25.230495 11.500037,31.436501 z"
             style="fill:#404040;"/>
          </a>
         </g>
        </svg>
</svg>
