<?xml version="1.0" encoding="UTF-8" standalone="no"?>
<!DOCTYPE svg PUBLIC "-//W3C//DTD SVG 1.1//EN"
 "http://www.w3.org/Graphics/SVG/1.1/DTD/svg11.dtd">
<!-- Generated by graphviz version 2.43.0 (0)
 -->
<!-- Title: execute_logical_or Pages: 1 -->
<!--zoomable 440 -->
<svg id="main" version="1.1" xmlns="http://www.w3.org/2000/svg" xmlns:xlink="http://www.w3.org/1999/xlink" xml:space="preserve" onload="init(evt)">
<style type="text/css"><![CDATA[
.edge:hover path { stroke: red; }
.edge:hover polygon { stroke: red; fill: red; }
]]></style>
<script type="text/javascript"><![CDATA[
var edges = document.getElementsByTagName('g');
if (edges && edges.length) {
  for (var i=0;i<edges.length;i++) {
    if (edges[i].id.substr(0,4)=='edge') {
      edges[i].setAttribute('class','edge');
    }
  }
}
]]></script>
        <defs>
                <circle id="rim" cx="0" cy="0" r="7"/>
                <circle id="rim2" cx="0" cy="0" r="3.5"/>
                <g id="zoomPlus">
                        <use xlink:href="#rim" fill="#404040">
                                <set attributeName="fill" to="#808080" begin="zoomplus.mouseover" end="zoomplus.mouseout"/>
                        </use>
                        <path d="M-4,0h8M0,-4v8" fill="none" stroke="white" stroke-width="1.5" pointer-events="none"/>
                </g>
                <g id="zoomMin">
                        <use xlink:href="#rim" fill="#404040">
                                <set attributeName="fill" to="#808080" begin="zoomminus.mouseover" end="zoomminus.mouseout"/>
                        </use>
                        <path d="M-4,0h8" fill="none" stroke="white" stroke-width="1.5" pointer-events="none"/>
                </g>
                <g id="dirArrow">
                        <path fill="none" stroke="white" stroke-width="1.5" d="M0,-3.0v7 M-2.5,-0.5L0,-3.0L2.5,-0.5"/>
                </g>
               <g id="resetDef">
                       <use xlink:href="#rim2" fill="#404040">
                               <set attributeName="fill" to="#808080" begin="reset.mouseover" end="reset.mouseout"/>
                       </use>
               </g>
        </defs>

<script type="text/javascript">
var viewWidth = 1310;
var viewHeight = 440;
var sectionId = 'dynsection-1';
</script>
<script xlink:href="svgpan.js"/>
<svg id="graph" class="graph">
<g id="viewport">
<title>execute_logical_or</title>
<!-- Node1 -->
<g id="node1" class="node">
<title>Node1</title>
<g id="a_node1"><a xlink:title=" ">
<polygon fill="#999999" stroke="#666666" points="107,-189 0,-189 0,-170 107,-170 107,-189"/>
<text text-anchor="middle" x="53.5" y="-177" font-family="Helvetica,sans-Serif" font-size="10.00">execute_logical_or</text>
</a>
</g>
</g>
<!-- Node2 -->
<g id="node2" class="node">
<title>Node2</title>
<g id="a_node2"><a xlink:href="execute__ast_8c.html#ad26a20a665ab7fdeb714ed53c1afd104" target="_top" xlink:title=" ">
<polygon fill="white" stroke="#666666" points="218,-189 143,-189 143,-170 218,-170 218,-189"/>
<text text-anchor="middle" x="180.5" y="-177" font-family="Helvetica,sans-Serif" font-size="10.00">execute_ast</text>
</a>
</g>
</g>
<!-- Node1&#45;&gt;Node2 -->
<g id="edge1" class="edge">
<title>Node1&#45;&gt;Node2</title>
<path fill="none" stroke="#63b8ff" d="M107.15,-172.83C115.59,-172.7 124.28,-172.73 132.58,-172.94"/>
<polygon fill="#63b8ff" stroke="#63b8ff" points="132.72,-176.45 142.84,-173.29 132.96,-169.45 132.72,-176.45"/>
</g>
<!-- Node2&#45;&gt;Node1 -->
<g id="edge23" class="edge">
<title>Node2&#45;&gt;Node1</title>
<path fill="none" stroke="#63b8ff" d="M142.84,-185.71C134.81,-186.06 126.09,-186.25 117.36,-186.25"/>
<polygon fill="#63b8ff" stroke="#63b8ff" points="117.17,-182.75 107.15,-186.17 117.12,-189.75 117.17,-182.75"/>
</g>
<!-- Node3 -->
<g id="node3" class="node">
<title>Node3</title>
<g id="a_node3"><a xlink:href="execute__cmd_8c.html#a94ea9cc5a046ce96e36764bf0e4fa2c0" target="_top" xlink:title=" ">
<polygon fill="white" stroke="#666666" points="352.5,-358 271.5,-358 271.5,-339 352.5,-339 352.5,-358"/>
<text text-anchor="middle" x="312" y="-346" font-family="Helvetica,sans-Serif" font-size="10.00">execute_cmd</text>
</a>
</g>
</g>
<!-- Node2&#45;&gt;Node3 -->
<g id="edge2" class="edge">
<title>Node2&#45;&gt;Node3</title>
<path fill="none" stroke="#63b8ff" d="M183.37,-189.25C189,-215.95 208.31,-290.87 254,-330.5 256.51,-332.68 259.28,-334.59 262.21,-336.27"/>
<polygon fill="#63b8ff" stroke="#63b8ff" points="260.84,-339.5 271.37,-340.66 263.86,-333.18 260.84,-339.5"/>
</g>
<!-- Node19 -->
<g id="node19" class="node">
<title>Node19</title>
<g id="a_node19"><a xlink:href="execute__logical__and_8c.html#a4f940752faf9f9a258c49810b21efe47" target="_top" xlink:title=" ">
<polygon fill="white" stroke="#666666" points="370,-321 254,-321 254,-302 370,-302 370,-321"/>
<text text-anchor="middle" x="312" y="-309" font-family="Helvetica,sans-Serif" font-size="10.00">execute_logical_and</text>
</a>
</g>
</g>
<!-- Node2&#45;&gt;Node19 -->
<g id="edge21" class="edge">
<title>Node2&#45;&gt;Node19</title>
<path fill="none" stroke="#63b8ff" d="M188.22,-189.04C199.02,-208.81 222.28,-252.37 254,-278.5 264.38,-287.05 278.26,-292.98 289.72,-297.86"/>
<polygon fill="#63b8ff" stroke="#63b8ff" points="288.45,-301.13 299.02,-301.92 291.25,-294.72 288.45,-301.13"/>
</g>
<!-- Node20 -->
<g id="node20" class="node">
<title>Node20</title>
<g id="a_node20"><a xlink:href="execute__pipe_8c.html#a5f3546dc2c7cf06c982afba41e722164" target="_top" xlink:title=" ">
<polygon fill="white" stroke="#666666" points="352.5,-245 271.5,-245 271.5,-226 352.5,-226 352.5,-245"/>
<text text-anchor="middle" x="312" y="-233" font-family="Helvetica,sans-Serif" font-size="10.00">execute_pipe</text>
</a>
</g>
</g>
<!-- Node2&#45;&gt;Node20 -->
<g id="edge24" class="edge">
<title>Node2&#45;&gt;Node20</title>
<path fill="none" stroke="#63b8ff" d="M197.8,-189.11C212.24,-197.36 234.06,-209.2 254,-217.5 258.38,-219.32 263.01,-221.07 267.67,-222.71"/>
<polygon fill="#63b8ff" stroke="#63b8ff" points="266.59,-226.04 277.19,-225.91 268.83,-219.4 266.59,-226.04"/>
</g>
<!-- Node25 -->
<g id="node25" class="node">
<title>Node25</title>
<g id="a_node25"><a xlink:href="execute__redirect_8c.html#a1004307aba80117ddd99f009e52fb155" target="_top" xlink:title=" ">
<polygon fill="white" stroke="#666666" points="361,-19 263,-19 263,0 361,0 361,-19"/>
<text text-anchor="middle" x="312" y="-7" font-family="Helvetica,sans-Serif" font-size="10.00">execute_redirect</text>
</a>
</g>
</g>
<!-- Node2&#45;&gt;Node25 -->
<g id="edge34" class="edge">
<title>Node2&#45;&gt;Node25</title>
<path fill="none" stroke="#63b8ff" d="M183.76,-169.91C190.25,-144.31 211.3,-73.61 254,-33.5 258.11,-29.64 262.93,-26.35 268,-23.57"/>
<polygon fill="#63b8ff" stroke="#63b8ff" points="269.8,-26.58 277.29,-19.08 266.76,-20.28 269.8,-26.58"/>
</g>
<!-- Node33 -->
<g id="node33" class="node">
<title>Node33</title>
<g id="a_node33"><a xlink:href="execute__repeat_8c.html#a00d48683c54b50130b4a402e6e97fa97" target="_top" xlink:title=" ">
<polygon fill="white" stroke="#666666" points="358,-208 266,-208 266,-189 358,-189 358,-208"/>
<text text-anchor="middle" x="312" y="-196" font-family="Helvetica,sans-Serif" font-size="10.00">execute_repeat</text>
</a>
</g>
</g>
<!-- Node2&#45;&gt;Node33 -->
<g id="edge43" class="edge">
<title>Node2&#45;&gt;Node33</title>
<path fill="none" stroke="#63b8ff" d="M218.26,-178.74C235.77,-180.51 256.65,-183.58 274.16,-186.94"/>
<polygon fill="#63b8ff" stroke="#63b8ff" points="273.53,-190.38 284.03,-188.94 274.93,-183.52 273.53,-190.38"/>
</g>
<!-- Node34 -->
<g id="node34" class="node">
<title>Node34</title>
<g id="a_node34"><a xlink:href="execute__sequence_8c.html#aad2caa5bf50b0752dd8272da477ec231" target="_top" xlink:title=" ">
<polygon fill="white" stroke="#666666" points="365.5,-171 258.5,-171 258.5,-152 365.5,-152 365.5,-171"/>
<text text-anchor="middle" x="312" y="-159" font-family="Helvetica,sans-Serif" font-size="10.00">execute_sequence</text>
</a>
</g>
</g>
<!-- Node2&#45;&gt;Node34 -->
<g id="edge45" class="edge">
<title>Node2&#45;&gt;Node34</title>
<path fill="none" stroke="#63b8ff" d="M209.28,-169.98C220.82,-167.61 234.72,-165.31 248.49,-163.44"/>
<polygon fill="#63b8ff" stroke="#63b8ff" points="248.98,-166.91 258.45,-162.16 248.08,-159.97 248.98,-166.91"/>
</g>
<!-- Node35 -->
<g id="node35" class="node">
<title>Node35</title>
<g id="a_node35"><a xlink:href="execute__subshell_8c.html#a40a27866de012b013a337f794a858d70" target="_top" xlink:title=" ">
<polygon fill="white" stroke="#666666" points="362.5,-95 261.5,-95 261.5,-76 362.5,-76 362.5,-95"/>
<text text-anchor="middle" x="312" y="-83" font-family="Helvetica,sans-Serif" font-size="10.00">execute_subshell</text>
</a>
</g>
</g>
<!-- Node2&#45;&gt;Node35 -->
<g id="edge47" class="edge">
<title>Node2&#45;&gt;Node35</title>
<path fill="none" stroke="#63b8ff" d="M185.57,-170C195.86,-152.94 224.21,-120.16 254,-100.5 254.09,-100.44 254.18,-100.38 254.27,-100.32"/>
<polygon fill="#63b8ff" stroke="#63b8ff" points="256.21,-103.24 263.04,-95.14 252.65,-97.22 256.21,-103.24"/>
</g>
<!-- Node4 -->
<g id="node4" class="node">
<title>Node4</title>
<g id="a_node4"><a xlink:href="execute__cmd_8c.html#a0cfd2364134e68efdd39533e00b4b0d9" target="_top" xlink:title=" ">
<polygon fill="white" stroke="#666666" points="525,-414 406,-414 406,-395 525,-395 525,-414"/>
<text text-anchor="middle" x="465.5" y="-402" font-family="Helvetica,sans-Serif" font-size="10.00">execute_local_binary</text>
</a>
</g>
</g>
<!-- Node3&#45;&gt;Node4 -->
<g id="edge3" class="edge">
<title>Node3&#45;&gt;Node4</title>
<path fill="none" stroke="#63b8ff" d="M339.04,-358.13C363.91,-367.32 401.57,-381.24 429.14,-391.43"/>
<polygon fill="#63b8ff" stroke="#63b8ff" points="428.2,-394.81 438.8,-395 430.63,-388.25 428.2,-394.81"/>
</g>
<!-- Node13 -->
<g id="node13" class="node">
<title>Node13</title>
<g id="a_node13"><a xlink:href="execute__cmd_8c.html#a460126af28ab29df4340554fae9fc57a" target="_top" xlink:title=" ">
<polygon fill="white" stroke="#666666" points="524.5,-358 406.5,-358 406.5,-339 524.5,-339 524.5,-358"/>
<text text-anchor="middle" x="465.5" y="-346" font-family="Helvetica,sans-Serif" font-size="10.00">execute_path_binary</text>
</a>
</g>
</g>
<!-- Node3&#45;&gt;Node13 -->
<g id="edge13" class="edge">
<title>Node3&#45;&gt;Node13</title>
<path fill="none" stroke="#63b8ff" d="M352.8,-348.5C366.13,-348.5 381.38,-348.5 396.24,-348.5"/>
<polygon fill="#63b8ff" stroke="#63b8ff" points="396.44,-352 406.44,-348.5 396.44,-345 396.44,-352"/>
</g>
<!-- Node18 -->
<g id="node18" class="node">
<title>Node18</title>
<g id="a_node18"><a xlink:href="strings_8h.html#a36f055c4e56c8a784629908d0c5b91e5" target="_top" xlink:title=" ">
<polygon fill="white" stroke="#666666" points="987,-339 883,-339 883,-320 987,-320 987,-339"/>
<text text-anchor="middle" x="935" y="-327" font-family="Helvetica,sans-Serif" font-size="10.00">my_is_char_in_str</text>
</a>
</g>
</g>
<!-- Node3&#45;&gt;Node18 -->
<g id="edge20" class="edge">
<title>Node3&#45;&gt;Node18</title>
<path fill="none" stroke="#63b8ff" d="M352.58,-339.12C369.01,-335.68 388.32,-332.21 406,-330.5 574.31,-314.2 774.22,-320.87 872.79,-325.87"/>
<polygon fill="#63b8ff" stroke="#63b8ff" points="872.7,-329.37 882.87,-326.4 873.07,-322.38 872.7,-329.37"/>
</g>
<!-- Node5 -->
<g id="node5" class="node">
<title>Node5</title>
<g id="a_node5"><a xlink:href="execute__cmd_8c.html#a018afe6a043051ebc2e3dd9412587990" target="_top" xlink:title=" ">
<polygon fill="white" stroke="#666666" points="821,-432 730,-432 730,-413 821,-413 821,-432"/>
<text text-anchor="middle" x="775.5" y="-420" font-family="Helvetica,sans-Serif" font-size="10.00">execute_binary</text>
</a>
</g>
</g>
<!-- Node4&#45;&gt;Node5 -->
<g id="edge4" class="edge">
<title>Node4&#45;&gt;Node5</title>
<path fill="none" stroke="#63b8ff" d="M525.16,-407.93C581.07,-411.2 664.63,-416.08 719.35,-419.28"/>
<polygon fill="#63b8ff" stroke="#63b8ff" points="719.37,-422.78 729.56,-419.87 719.78,-415.8 719.37,-422.78"/>
</g>
<!-- Node6 -->
<g id="node6" class="node">
<title>Node6</title>
<g id="a_node6"><a xlink:href="env__to__word__array_8c.html#aea7253d35c5aa57d9cfe9d7df218cb90" target="_top" xlink:title=" ">
<polygon fill="white" stroke="#666666" points="990,-432 880,-432 880,-413 990,-413 990,-432"/>
<text text-anchor="middle" x="935" y="-420" font-family="Helvetica,sans-Serif" font-size="10.00">env_to_word_array</text>
</a>
</g>
</g>
<!-- Node5&#45;&gt;Node6 -->
<g id="edge5" class="edge">
<title>Node5&#45;&gt;Node6</title>
<path fill="none" stroke="#63b8ff" d="M821.21,-422.5C836.35,-422.5 853.57,-422.5 869.91,-422.5"/>
<polygon fill="#63b8ff" stroke="#63b8ff" points="869.95,-426 879.95,-422.5 869.95,-419 869.95,-426"/>
</g>
<!-- Node9 -->
<g id="node9" class="node">
<title>Node9</title>
<g id="a_node9"><a xlink:href="execute__cmd_8c.html#a6badc27baa1930e30ea2ad3817f65366" target="_top" xlink:title=" ">
<polygon fill="white" stroke="#666666" points="975,-386 895,-386 895,-367 975,-367 975,-386"/>
<text text-anchor="middle" x="935" y="-374" font-family="Helvetica,sans-Serif" font-size="10.00">execute_fork</text>
</a>
</g>
</g>
<!-- Node5&#45;&gt;Node9 -->
<g id="edge8" class="edge">
<title>Node5&#45;&gt;Node9</title>
<path fill="none" stroke="#63b8ff" d="M813.36,-412.96C823.33,-410.31 834.1,-407.36 844,-404.5 860.64,-399.7 878.9,-394.08 894.6,-389.14"/>
<polygon fill="#63b8ff" stroke="#63b8ff" points="896.02,-392.36 904.5,-386.01 893.91,-385.69 896.02,-392.36"/>
</g>
<!-- Node7 -->
<g id="node7" class="node">
<title>Node7</title>
<g id="a_node7"><a xlink:href="misc_8h.html#a1180cae2875b1fdcd58c9f9175a82c12" target="_top" xlink:title=" ">
<polygon fill="white" stroke="#666666" points="1143,-395 1026,-395 1026,-376 1143,-376 1143,-395"/>
<text text-anchor="middle" x="1084.5" y="-383" font-family="Helvetica,sans-Serif" font-size="10.00">my_free_word_array</text>
</a>
</g>
</g>
<!-- Node6&#45;&gt;Node7 -->
<g id="edge6" class="edge">
<title>Node6&#45;&gt;Node7</title>
<path fill="none" stroke="#63b8ff" d="M973.98,-412.97C992.75,-408.26 1015.59,-402.53 1035.55,-397.53"/>
<polygon fill="#63b8ff" stroke="#63b8ff" points="1036.54,-400.89 1045.39,-395.06 1034.84,-394.1 1036.54,-400.89"/>
</g>
<!-- Node8 -->
<g id="node8" class="node">
<title>Node8</title>
<g id="a_node8"><a xlink:href="list_8h.html#ad5ebb7cdb26f73e4b212dfc5eae4ef0e" target="_top" xlink:title=" ">
<polygon fill="white" stroke="#666666" points="1129,-432 1040,-432 1040,-413 1129,-413 1129,-432"/>
<text text-anchor="middle" x="1084.5" y="-420" font-family="Helvetica,sans-Serif" font-size="10.00">my_list_length</text>
</a>
</g>
</g>
<!-- Node6&#45;&gt;Node8 -->
<g id="edge7" class="edge">
<title>Node6&#45;&gt;Node8</title>
<path fill="none" stroke="#63b8ff" d="M990.09,-422.5C1002.93,-422.5 1016.64,-422.5 1029.48,-422.5"/>
<polygon fill="#63b8ff" stroke="#63b8ff" points="1029.56,-426 1039.56,-422.5 1029.56,-419 1029.56,-426"/>
</g>
<!-- Node9&#45;&gt;Node7 -->
<g id="edge9" class="edge">
<title>Node9&#45;&gt;Node7</title>
<path fill="none" stroke="#63b8ff" d="M975.14,-378.89C987.64,-379.65 1001.85,-380.52 1015.78,-381.37"/>
<polygon fill="#63b8ff" stroke="#63b8ff" points="1015.65,-384.87 1025.84,-381.98 1016.07,-377.88 1015.65,-384.87"/>
</g>
<!-- Node10 -->
<g id="node10" class="node">
<title>Node10</title>
<g id="a_node10"><a xlink:href="execute__cmd_8c.html#a2c49b9849cfef0deea03382c9f1b3ab8" target="_top" xlink:title=" ">
<polygon fill="white" stroke="#666666" points="1130.5,-358 1038.5,-358 1038.5,-339 1130.5,-339 1130.5,-358"/>
<text text-anchor="middle" x="1084.5" y="-346" font-family="Helvetica,sans-Serif" font-size="10.00">run_subprocess</text>
</a>
</g>
</g>
<!-- Node9&#45;&gt;Node10 -->
<g id="edge10" class="edge">
<title>Node9&#45;&gt;Node10</title>
<path fill="none" stroke="#63b8ff" d="M975.14,-369.07C991.41,-365.98 1010.58,-362.34 1028.24,-358.99"/>
<polygon fill="#63b8ff" stroke="#63b8ff" points="1029.26,-362.36 1038.43,-357.06 1027.95,-355.48 1029.26,-362.36"/>
</g>
<!-- Node11 -->
<g id="node11" class="node">
<title>Node11</title>
<g id="a_node11"><a xlink:href="wait__for__subprocess_8c.html#a1242d78540fd0ddef3d98a9f294cb0d4" target="_top" xlink:title=" ">
<polygon fill="white" stroke="#666666" points="1142.5,-244 1026.5,-244 1026.5,-225 1142.5,-225 1142.5,-244"/>
<text text-anchor="middle" x="1084.5" y="-232" font-family="Helvetica,sans-Serif" font-size="10.00">wait_for_subprocess</text>
</a>
</g>
</g>
<!-- Node9&#45;&gt;Node11 -->
<g id="edge11" class="edge">
<title>Node9&#45;&gt;Node11</title>
<path fill="none" stroke="#63b8ff" d="M959.31,-366.96C969.33,-362.24 980.81,-355.95 990,-348.5 1024.94,-320.19 1055.95,-277.05 1071.98,-252.76"/>
<polygon fill="#63b8ff" stroke="#63b8ff" points="1075.05,-254.46 1077.54,-244.17 1069.17,-250.66 1075.05,-254.46"/>
</g>
<!-- Node12 -->
<g id="node12" class="node">
<title>Node12</title>
<g id="a_node12"><a xlink:href="wait__for__subprocess_8c.html#a885766ba6ba593b7cf27b917dd52b1a6" target="_top" xlink:title=" ">
<polygon fill="white" stroke="#666666" points="1302,-244 1179,-244 1179,-225 1302,-225 1302,-244"/>
<text text-anchor="middle" x="1240.5" y="-232" font-family="Helvetica,sans-Serif" font-size="10.00">print_signal_message</text>
</a>
</g>
</g>
<!-- Node11&#45;&gt;Node12 -->
<g id="edge12" class="edge">
<title>Node11&#45;&gt;Node12</title>
<path fill="none" stroke="#63b8ff" d="M1142.84,-234.5C1151.26,-234.5 1160.02,-234.5 1168.67,-234.5"/>
<polygon fill="#63b8ff" stroke="#63b8ff" points="1168.76,-238 1178.76,-234.5 1168.76,-231 1168.76,-238"/>
</g>
<!-- Node14 -->
<g id="node14" class="node">
<title>Node14</title>
<g id="a_node14"><a xlink:href="get__variable__value_8c.html#a2edd9900f19af236aa05385a789be3d6" target="_top" xlink:title=" ">
<polygon fill="white" stroke="#666666" points="671,-395 561,-395 561,-376 671,-376 671,-395"/>
<text text-anchor="middle" x="616" y="-383" font-family="Helvetica,sans-Serif" font-size="10.00">get_variable_value</text>
</a>
</g>
</g>
<!-- Node13&#45;&gt;Node14 -->
<g id="edge14" class="edge">
<title>Node13&#45;&gt;Node14</title>
<path fill="none" stroke="#63b8ff" d="M504.74,-358.03C523.64,-362.74 546.63,-368.47 566.73,-373.47"/>
<polygon fill="#63b8ff" stroke="#63b8ff" points="566.08,-376.92 576.63,-375.94 567.77,-370.13 566.08,-376.92"/>
</g>
<!-- Node16 -->
<g id="node16" class="node">
<title>Node16</title>
<g id="a_node16"><a xlink:href="execute__cmd_8c.html#aee9e13edede9df28fac066f30e7ae7ed" target="_top" xlink:title=" ">
<polygon fill="white" stroke="#666666" points="658,-358 574,-358 574,-339 658,-339 658,-358"/>
<text text-anchor="middle" x="616" y="-346" font-family="Helvetica,sans-Serif" font-size="10.00">try_command</text>
</a>
</g>
</g>
<!-- Node13&#45;&gt;Node16 -->
<g id="edge16" class="edge">
<title>Node13&#45;&gt;Node16</title>
<path fill="none" stroke="#63b8ff" d="M524.76,-348.5C537.59,-348.5 551.08,-348.5 563.61,-348.5"/>
<polygon fill="#63b8ff" stroke="#63b8ff" points="563.87,-352 573.87,-348.5 563.87,-345 563.87,-352"/>
</g>
<!-- Node15 -->
<g id="node15" class="node">
<title>Node15</title>
<g id="a_node15"><a xlink:href="get__variable_8c.html#a569170390f0edf013bf89c26ef55ea8c" target="_top" xlink:title=" ">
<polygon fill="white" stroke="#666666" points="814,-395 737,-395 737,-376 814,-376 814,-395"/>
<text text-anchor="middle" x="775.5" y="-383" font-family="Helvetica,sans-Serif" font-size="10.00">get_variable</text>
</a>
</g>
</g>
<!-- Node14&#45;&gt;Node15 -->
<g id="edge15" class="edge">
<title>Node14&#45;&gt;Node15</title>
<path fill="none" stroke="#63b8ff" d="M671.2,-385.5C689.04,-385.5 708.73,-385.5 726.11,-385.5"/>
<polygon fill="#63b8ff" stroke="#63b8ff" points="726.58,-389 736.58,-385.5 726.58,-382 726.58,-389"/>
</g>
<!-- Node16&#45;&gt;Node5 -->
<g id="edge17" class="edge">
<title>Node16&#45;&gt;Node5</title>
<path fill="none" stroke="#63b8ff" d="M651.81,-358.08C658.44,-360.64 665.14,-363.75 671,-367.5 690.33,-379.86 687.2,-392.9 707,-404.5 711.16,-406.94 715.66,-409.05 720.29,-410.89"/>
<polygon fill="#63b8ff" stroke="#63b8ff" points="719.32,-414.26 729.92,-414.27 721.64,-407.65 719.32,-414.26"/>
</g>
<!-- Node17 -->
<g id="node17" class="node">
<title>Node17</title>
<g id="a_node17"><a xlink:href="execute__cmd_8c.html#a9ef2f2dfa839f59ba42718ef236d4dcb" target="_top" xlink:title=" ">
<polygon fill="white" stroke="#666666" points="844,-358 707,-358 707,-339 844,-339 844,-358"/>
<text text-anchor="middle" x="775.5" y="-346" font-family="Helvetica,sans-Serif" font-size="10.00">print_permission_denied</text>
</a>
</g>
</g>
<!-- Node16&#45;&gt;Node17 -->
<g id="edge18" class="edge">
<title>Node16&#45;&gt;Node17</title>
<path fill="none" stroke="#63b8ff" d="M658.38,-348.5C670.22,-348.5 683.52,-348.5 696.79,-348.5"/>
<polygon fill="#63b8ff" stroke="#63b8ff" points="696.9,-352 706.9,-348.5 696.9,-345 696.9,-352"/>
</g>
<!-- Node17&#45;&gt;Node18 -->
<g id="edge19" class="edge">
<title>Node17&#45;&gt;Node18</title>
<path fill="none" stroke="#63b8ff" d="M844.21,-340.33C853.64,-339.19 863.28,-338.03 872.59,-336.91"/>
<polygon fill="#63b8ff" stroke="#63b8ff" points="873.02,-340.38 882.52,-335.71 872.18,-333.43 873.02,-340.38"/>
</g>
<!-- Node19&#45;&gt;Node2 -->
<g id="edge22" class="edge">
<title>Node19&#45;&gt;Node2</title>
<path fill="none" stroke="#63b8ff" d="M261.42,-301.84C258.82,-300.19 256.32,-298.41 254,-296.5 221.52,-269.75 197.91,-224.72 187.47,-198.73"/>
<polygon fill="#63b8ff" stroke="#63b8ff" points="190.68,-197.32 183.91,-189.17 184.12,-199.76 190.68,-197.32"/>
</g>
<!-- Node20&#45;&gt;Node11 -->
<g id="edge33" class="edge">
<title>Node20&#45;&gt;Node11</title>
<path fill="none" stroke="#63b8ff" d="M352.57,-235.29C410.28,-234.99 520.89,-234.5 615,-234.5 615,-234.5 615,-234.5 776.5,-234.5 859.05,-234.5 954.08,-234.5 1016.28,-234.5"/>
<polygon fill="#63b8ff" stroke="#63b8ff" points="1016.35,-238 1026.35,-234.5 1016.35,-231 1016.35,-238"/>
</g>
<!-- Node21 -->
<g id="node21" class="node">
<title>Node21</title>
<g id="a_node21"><a xlink:href="execute__pipe_8c.html#a723ff799f939872d17f109a82342294e" target="_top" xlink:title=" ">
<polygon fill="white" stroke="#666666" points="647,-206 585,-206 585,-187 647,-187 647,-206"/>
<text text-anchor="middle" x="616" y="-194" font-family="Helvetica,sans-Serif" font-size="10.00">close_fds</text>
</a>
</g>
</g>
<!-- Node20&#45;&gt;Node21 -->
<g id="edge25" class="edge">
<title>Node20&#45;&gt;Node21</title>
<path fill="none" stroke="#63b8ff" d="M352.77,-228.68C369.22,-225.96 388.5,-222.91 406,-220.5 464.54,-212.42 532.56,-204.97 574.7,-200.58"/>
<polygon fill="#63b8ff" stroke="#63b8ff" points="575.25,-204.04 584.83,-199.53 574.53,-197.08 575.25,-204.04"/>
</g>
<!-- Node22 -->
<g id="node22" class="node">
<title>Node22</title>
<g id="a_node22"><a xlink:href="execute__pipe_8c.html#ac529ffc2370b0133613ef8a81e58ed85" target="_top" xlink:title=" ">
<polygon fill="white" stroke="#666666" points="516.5,-282 414.5,-282 414.5,-263 516.5,-263 516.5,-282"/>
<text text-anchor="middle" x="465.5" y="-270" font-family="Helvetica,sans-Serif" font-size="10.00">execute_pipe_left</text>
</a>
</g>
</g>
<!-- Node20&#45;&gt;Node22 -->
<g id="edge26" class="edge">
<title>Node20&#45;&gt;Node22</title>
<path fill="none" stroke="#63b8ff" d="M352.02,-245.03C371.38,-249.76 394.97,-255.52 415.53,-260.54"/>
<polygon fill="#63b8ff" stroke="#63b8ff" points="414.81,-263.97 425.35,-262.94 416.47,-257.17 414.81,-263.97"/>
</g>
<!-- Node23 -->
<g id="node23" class="node">
<title>Node23</title>
<g id="a_node23"><a xlink:href="execute__pipe_8c.html#a9ed6eabb8a9f7049f91265a5f45e30c8" target="_top" xlink:title=" ">
<polygon fill="white" stroke="#666666" points="520,-168 411,-168 411,-149 520,-149 520,-168"/>
<text text-anchor="middle" x="465.5" y="-156" font-family="Helvetica,sans-Serif" font-size="10.00">execute_pipe_right</text>
</a>
</g>
</g>
<!-- Node20&#45;&gt;Node23 -->
<g id="edge29" class="edge">
<title>Node20&#45;&gt;Node23</title>
<path fill="none" stroke="#63b8ff" d="M351.77,-225.95C358.09,-223.65 364.39,-220.85 370,-217.5 389.16,-206.05 387.34,-194.74 406,-182.5 412.12,-178.49 419.02,-174.93 425.89,-171.88"/>
<polygon fill="#63b8ff" stroke="#63b8ff" points="427.26,-175.1 435.14,-168.02 424.56,-168.64 427.26,-175.1"/>
</g>
<!-- Node22&#45;&gt;Node2 -->
<g id="edge28" class="edge">
<title>Node22&#45;&gt;Node2</title>
<path fill="none" stroke="#63b8ff" d="M414.31,-277.81C369.97,-280.32 304.68,-278.6 254,-254.5 227.68,-241.98 205.8,-215.56 193.18,-197.67"/>
<polygon fill="#63b8ff" stroke="#63b8ff" points="195.95,-195.52 187.45,-189.2 190.15,-199.45 195.95,-195.52"/>
</g>
<!-- Node22&#45;&gt;Node21 -->
<g id="edge27" class="edge">
<title>Node22&#45;&gt;Node21</title>
<path fill="none" stroke="#63b8ff" d="M485.31,-262.87C511.08,-249.68 557.57,-225.89 587.32,-210.67"/>
<polygon fill="#63b8ff" stroke="#63b8ff" points="589.04,-213.72 596.35,-206.05 585.85,-207.49 589.04,-213.72"/>
</g>
<!-- Node23&#45;&gt;Node2 -->
<g id="edge31" class="edge">
<title>Node23&#45;&gt;Node2</title>
<path fill="none" stroke="#63b8ff" d="M427.82,-148.94C385.39,-139.43 313.69,-128.15 254,-142.5 236.25,-146.77 217.95,-156.15 204.18,-164.4"/>
<polygon fill="#63b8ff" stroke="#63b8ff" points="202.07,-161.59 195.43,-169.85 205.77,-167.53 202.07,-161.59"/>
</g>
<!-- Node23&#45;&gt;Node21 -->
<g id="edge30" class="edge">
<title>Node23&#45;&gt;Node21</title>
<path fill="none" stroke="#63b8ff" d="M503.97,-168.09C525.58,-173.62 552.75,-180.57 574.8,-186.21"/>
<polygon fill="#63b8ff" stroke="#63b8ff" points="573.98,-189.62 584.53,-188.7 575.71,-182.83 573.98,-189.62"/>
</g>
<!-- Node24 -->
<g id="node24" class="node">
<title>Node24</title>
<g id="a_node24"><a xlink:href="execute__pipe_8c.html#ac3d3a124b262676fa0679720f99a7f83" target="_top" xlink:title=" ">
<polygon fill="white" stroke="#666666" points="656,-168 576,-168 576,-149 656,-149 656,-168"/>
<text text-anchor="middle" x="616" y="-156" font-family="Helvetica,sans-Serif" font-size="10.00">restore_stdin</text>
</a>
</g>
</g>
<!-- Node23&#45;&gt;Node24 -->
<g id="edge32" class="edge">
<title>Node23&#45;&gt;Node24</title>
<path fill="none" stroke="#63b8ff" d="M520.11,-158.5C534.95,-158.5 550.99,-158.5 565.58,-158.5"/>
<polygon fill="#63b8ff" stroke="#63b8ff" points="565.91,-162 575.91,-158.5 565.91,-155 565.91,-162"/>
</g>
<!-- Node26 -->
<g id="node26" class="node">
<title>Node26</title>
<g id="a_node26"><a xlink:href="execute__redirect_8c.html#a5aa0f008806cc0e8a7ba252d61b7001f" target="_top" xlink:title=" ">
<polygon fill="white" stroke="#666666" points="519,-29 412,-29 412,-10 519,-10 519,-29"/>
<text text-anchor="middle" x="465.5" y="-17" font-family="Helvetica,sans-Serif" font-size="10.00">redirect_execution</text>
</a>
</g>
</g>
<!-- Node25&#45;&gt;Node26 -->
<g id="edge35" class="edge">
<title>Node25&#45;&gt;Node26</title>
<path fill="none" stroke="#63b8ff" d="M361.35,-12.69C374.19,-13.54 388.24,-14.47 401.72,-15.36"/>
<polygon fill="#63b8ff" stroke="#63b8ff" points="401.68,-18.86 411.89,-16.03 402.14,-11.88 401.68,-18.86"/>
</g>
<!-- Node26&#45;&gt;Node2 -->
<g id="edge36" class="edge">
<title>Node26&#45;&gt;Node2</title>
<path fill="none" stroke="#63b8ff" d="M411.74,-26.61C357.99,-34.66 279.09,-48.96 254,-66.5 220.25,-90.09 198.55,-134.93 188.35,-160.46"/>
<polygon fill="#63b8ff" stroke="#63b8ff" points="185.08,-159.22 184.78,-169.81 191.62,-161.71 185.08,-159.22"/>
</g>
<!-- Node27 -->
<g id="node27" class="node">
<title>Node27</title>
<g id="a_node27"><a xlink:href="execute__redirect_8c.html#a1b8f325fc375581f81ae47a54e09cf0e" target="_top" xlink:title=" ">
<polygon fill="white" stroke="#666666" points="649,-65 583,-65 583,-46 649,-46 649,-65"/>
<text text-anchor="middle" x="616" y="-53" font-family="Helvetica,sans-Serif" font-size="10.00">restore_fd</text>
</a>
</g>
</g>
<!-- Node26&#45;&gt;Node27 -->
<g id="edge37" class="edge">
<title>Node26&#45;&gt;Node27</title>
<path fill="none" stroke="#63b8ff" d="M505.91,-29.05C526.58,-34.07 551.92,-40.21 572.97,-45.31"/>
<polygon fill="#63b8ff" stroke="#63b8ff" points="572.38,-48.77 582.92,-47.72 574.03,-41.97 572.38,-48.77"/>
</g>
<!-- Node28 -->
<g id="node28" class="node">
<title>Node28</title>
<g id="a_node28"><a xlink:href="execute__redirect_8c.html#a6cb002bd51f2009eaacc66d388c5f9a7" target="_top" xlink:title=" ">
<polygon fill="white" stroke="#666666" points="666.5,-28 565.5,-28 565.5,-9 666.5,-9 666.5,-28"/>
<text text-anchor="middle" x="616" y="-16" font-family="Helvetica,sans-Serif" font-size="10.00">setup_redirection</text>
</a>
</g>
</g>
<!-- Node26&#45;&gt;Node28 -->
<g id="edge38" class="edge">
<title>Node26&#45;&gt;Node28</title>
<path fill="none" stroke="#63b8ff" d="M519.27,-19.14C530.88,-19.07 543.25,-18.98 555.12,-18.9"/>
<polygon fill="#63b8ff" stroke="#63b8ff" points="555.4,-22.4 565.38,-18.83 555.35,-15.4 555.4,-22.4"/>
</g>
<!-- Node29 -->
<g id="node29" class="node">
<title>Node29</title>
<g id="a_node29"><a xlink:href="execute__redirect_8c.html#a0e31af51537a8c047a3aca7cdb63d5dd" target="_top" xlink:title=" ">
<polygon fill="white" stroke="#666666" points="824.5,-28 726.5,-28 726.5,-9 824.5,-9 824.5,-28"/>
<text text-anchor="middle" x="775.5" y="-16" font-family="Helvetica,sans-Serif" font-size="10.00">open_redirect_fd</text>
</a>
</g>
</g>
<!-- Node28&#45;&gt;Node29 -->
<g id="edge39" class="edge">
<title>Node28&#45;&gt;Node29</title>
<path fill="none" stroke="#63b8ff" d="M666.83,-18.5C682.43,-18.5 699.79,-18.5 715.93,-18.5"/>
<polygon fill="#63b8ff" stroke="#63b8ff" points="716.34,-22 726.34,-18.5 716.34,-15 716.34,-22"/>
</g>
<!-- Node30 -->
<g id="node30" class="node">
<title>Node30</title>
<g id="a_node30"><a xlink:href="execute__redirect_8c.html#a71feea783167b3804f2793a232ca74b4" target="_top" xlink:title=" ">
<polygon fill="white" stroke="#666666" points="970.5,-28 899.5,-28 899.5,-9 970.5,-9 970.5,-28"/>
<text text-anchor="middle" x="935" y="-16" font-family="Helvetica,sans-Serif" font-size="10.00">heredoc_fd</text>
</a>
</g>
</g>
<!-- Node29&#45;&gt;Node30 -->
<g id="edge40" class="edge">
<title>Node29&#45;&gt;Node30</title>
<path fill="none" stroke="#63b8ff" d="M824.61,-18.5C845.1,-18.5 868.87,-18.5 889.01,-18.5"/>
<polygon fill="#63b8ff" stroke="#63b8ff" points="889.17,-22 899.17,-18.5 889.17,-15 889.17,-22"/>
</g>
<!-- Node31 -->
<g id="node31" class="node">
<title>Node31</title>
<g id="a_node31"><a xlink:href="execute__redirect_8c.html#a639d0a6f315a3bae78d204ff798e314f" target="_top" xlink:title=" ">
<polygon fill="white" stroke="#666666" points="1138,-28 1031,-28 1031,-9 1138,-9 1138,-28"/>
<text text-anchor="middle" x="1084.5" y="-16" font-family="Helvetica,sans-Serif" font-size="10.00">get_heredoc_input</text>
</a>
</g>
</g>
<!-- Node30&#45;&gt;Node31 -->
<g id="edge41" class="edge">
<title>Node30&#45;&gt;Node31</title>
<path fill="none" stroke="#63b8ff" d="M970.58,-18.5C985.6,-18.5 1003.67,-18.5 1020.91,-18.5"/>
<polygon fill="#63b8ff" stroke="#63b8ff" points="1020.94,-22 1030.94,-18.5 1020.94,-15 1020.94,-22"/>
</g>
<!-- Node32 -->
<g id="node32" class="node">
<title>Node32</title>
<g id="a_node32"><a xlink:href="execute__redirect_8c.html#a4e396606481bc13335d3dfae7ff15407" target="_top" xlink:title=" ">
<polygon fill="white" stroke="#666666" points="1291.5,-28 1189.5,-28 1189.5,-9 1291.5,-9 1291.5,-28"/>
<text text-anchor="middle" x="1240.5" y="-16" font-family="Helvetica,sans-Serif" font-size="10.00">is_heredoc_delim</text>
</a>
</g>
</g>
<!-- Node31&#45;&gt;Node32 -->
<g id="edge42" class="edge">
<title>Node31&#45;&gt;Node32</title>
<path fill="none" stroke="#63b8ff" d="M1138.07,-18.5C1151.26,-18.5 1165.52,-18.5 1179.06,-18.5"/>
<polygon fill="#63b8ff" stroke="#63b8ff" points="1179.25,-22 1189.25,-18.5 1179.25,-15 1179.25,-22"/>
</g>
<!-- Node33&#45;&gt;Node2 -->
<g id="edge44" class="edge">
<title>Node33&#45;&gt;Node2</title>
<path fill="none" stroke="#63b8ff" d="M265.84,-198.34C250.25,-196.52 232.99,-193.88 218.16,-191.03"/>
<polygon fill="#63b8ff" stroke="#63b8ff" points="218.83,-187.59 208.33,-189.03 217.43,-194.45 218.83,-187.59"/>
</g>
<!-- Node34&#45;&gt;Node2 -->
<g id="edge46" class="edge">
<title>Node34&#45;&gt;Node2</title>
<path fill="none" stroke="#63b8ff" d="M283.21,-171.02C267.2,-174.31 246.66,-177.45 228.24,-179.52"/>
<polygon fill="#63b8ff" stroke="#63b8ff" points="227.85,-176.04 218.26,-180.55 228.57,-183 227.85,-176.04"/>
</g>
<!-- Node35&#45;&gt;Node2 -->
<g id="edge48" class="edge">
<title>Node35&#45;&gt;Node2</title>
<path fill="none" stroke="#63b8ff" d="M300.34,-95.22C288.43,-101.51 268.88,-108.68 254,-118.5 234.83,-131.15 216.26,-149.22 202.72,-162.63"/>
<polygon fill="#63b8ff" stroke="#63b8ff" points="200.01,-160.38 195.35,-169.9 204.93,-165.36 200.01,-160.38"/>
</g>
<!-- Node35&#45;&gt;Node11 -->
<g id="edge49" class="edge">
<title>Node35&#45;&gt;Node11</title>
<path fill="none" stroke="#63b8ff" d="M362.59,-92.4C422.33,-100.1 525.8,-111.5 615,-111.5 615,-111.5 615,-111.5 776.5,-111.5 890.85,-111.5 1013.09,-185.95 1061.73,-219"/>
<polygon fill="#63b8ff" stroke="#63b8ff" points="1059.98,-222.05 1070.2,-224.85 1063.96,-216.29 1059.98,-222.05"/>
</g>
</g>
</svg>
        <g id="navigator" transform="translate(0 0)" fill="#404254">
                <rect fill="#f2f5e9" fill-opacity="0.5" stroke="#606060" stroke-width=".5" x="0" y="0" width="60" height="60"/>
                <use id="zoomplus" xlink:href="#zoomPlus" x="17" y="9" onmousedown="handleZoom(evt,'in')"/>
                <use id="zoomminus" xlink:href="#zoomMin" x="42" y="9" onmousedown="handleZoom(evt,'out')"/>
                <use id="reset" xlink:href="#resetDef" x="30" y="36" onmousedown="handleReset()"/>
                <g id="arrowUp" xlink:href="#dirArrow" transform="translate(30 24)" onmousedown="handlePan(0,-1)">
                  <use xlink:href="#rim" fill="#404040">
                        <set attributeName="fill" to="#808080" begin="arrowUp.mouseover" end="arrowUp.mouseout"/>
                  </use>
                  <path fill="none" stroke="white" stroke-width="1.5" d="M0,-3.0v7 M-2.5,-0.5L0,-3.0L2.5,-0.5"/>
                </g>
                <g id="arrowRight" xlink:href="#dirArrow" transform="rotate(90) translate(36 -43)" onmousedown="handlePan(1,0)">
                  <use xlink:href="#rim" fill="#404040">
                        <set attributeName="fill" to="#808080" begin="arrowRight.mouseover" end="arrowRight.mouseout"/>
                  </use>
                  <path fill="none" stroke="white" stroke-width="1.5" d="M0,-3.0v7 M-2.5,-0.5L0,-3.0L2.5,-0.5"/>
                </g>
                <g id="arrowDown" xlink:href="#dirArrow" transform="rotate(180) translate(-30 -48)" onmousedown="handlePan(0,1)">
                  <use xlink:href="#rim" fill="#404040">
                        <set attributeName="fill" to="#808080" begin="arrowDown.mouseover" end="arrowDown.mouseout"/>
                  </use>
                  <path fill="none" stroke="white" stroke-width="1.5" d="M0,-3.0v7 M-2.5,-0.5L0,-3.0L2.5,-0.5"/>
                </g>
                <g id="arrowLeft" xlink:href="#dirArrow" transform="rotate(270) translate(-36 17)" onmousedown="handlePan(-1,0)">
                  <use xlink:href="#rim" fill="#404040">
                        <set attributeName="fill" to="#808080" begin="arrowLeft.mouseover" end="arrowLeft.mouseout"/>
                  </use>
                  <path fill="none" stroke="white" stroke-width="1.5" d="M0,-3.0v7 M-2.5,-0.5L0,-3.0L2.5,-0.5"/>
                </g>
        </g>
        <svg viewBox="0 0 15 15" width="100%" height="30px" preserveAspectRatio="xMaxYMin meet">
         <g id="arrow_out" transform="scale(0.3 0.3)">
          <a xlink:href="execute__logical__or_8c_a7e732d7c30b07010fa55850051007dcc_cgraph_org.svg" target="_base">
           <rect id="button" ry="5" rx="5" y="6" x="6" height="38" width="38"
                fill="#f2f5e9" fill-opacity="0.5" stroke="#606060" stroke-width="1.0"/>
           <path id="arrow"
             d="M 11.500037,31.436501 C 11.940474,20.09759 22.043105,11.32322 32.158766,21.979434 L 37.068811,17.246167 C 37.068811,17.246167 37.088388,32 37.088388,32 L 22.160133,31.978069 C 22.160133,31.978069 26.997745,27.140456 26.997745,27.140456 C 18.528582,18.264221 13.291696,25.230495 11.500037,31.436501 z"
             style="fill:#404040;"/>
          </a>
         </g>
        </svg>
</svg>
