<?xml version="1.0" encoding="UTF-8" standalone="no"?>
<!DOCTYPE svg PUBLIC "-//W3C//DTD SVG 1.1//EN"
 "http://www.w3.org/Graphics/SVG/1.1/DTD/svg11.dtd">
<!-- Generated by graphviz version 2.43.0 (0)
 -->
<!-- Title: execute_redirect Pages: 1 -->
<!--zoomable 420 -->
<svg id="main" version="1.1" xmlns="http://www.w3.org/2000/svg" xmlns:xlink="http://www.w3.org/1999/xlink" xml:space="preserve" onload="init(evt)">
<style type="text/css"><![CDATA[
.edge:hover path { stroke: red; }
.edge:hover polygon { stroke: red; fill: red; }
]]></style>
<script type="text/javascript"><![CDATA[
var edges = document.getElementsByTagName('g');
if (edges && edges.length) {
  for (var i=0;i<edges.length;i++) {
    if (edges[i].id.substr(0,4)=='edge') {
      edges[i].setAttribute('class','edge');
    }
  }
}
]]></script>
        <defs>
                <circle id="rim" cx="0" cy="0" r="7"/>
                <circle id="rim2" cx="0" cy="0" r="3.5"/>
                <g id="zoomPlus">
                        <use xlink:href="#rim" fill="#404040">
                                <set attributeName="fill" to="#808080" begin="zoomplus.mouseover" end="zoomplus.mouseout"/>
                        </use>
                        <path d="M-4,0h8M0,-4v8" fill="none" stroke="white" stroke-width="1.5" pointer-events="none"/>
                </g>
                <g id="zoomMin">
                        <use xlink:href="#rim" fill="#404040">
                                <set attributeName="fill" to="#808080" begin="zoomminus.mouseover" end="zoomminus.mouseout"/>
                        </use>
                        <path d="M-4,0h8" fill="none" stroke="white" stroke-width="1.5" pointer-events="none"/>
                </g>
                <g id="dirArrow">
                        <path fill="none" stroke="white" stroke-width="1.5" d="M0,-3.0v7 M-2.5,-0.5L0,-3.0L2.5,-0.5"/>
                </g>
               <g id="resetDef">
                       <use xlink:href="#rim2" fill="#404040">
                               <set attributeName="fill" to="#808080" begin="reset.mouseover" end="reset.mouseout"/>
                       </use>
               </g>
        </defs>

<script type="text/javascript">
var viewWidth = 1470;
var viewHeight = 420;
var sectionId = 'dynsection-9';
</script>
<script xlink:href="svgpan.js"/>
<svg id="graph" class="graph">
<g id="viewport">
<title>execute_redirect</title>
<!-- Node1 -->
<g id="node1" class="node">
<title>Node1</title>
<g id="a_node1"><a xlink:title=" ">
<polygon fill="#999999" stroke="#666666" points="98,-188 0,-188 0,-169 98,-169 98,-188"/>
<text text-anchor="middle" x="49" y="-176" font-family="Helvetica,sans-Serif" font-size="10.00">execute_redirect</text>
</a>
</g>
</g>
<!-- Node2 -->
<g id="node2" class="node">
<title>Node2</title>
<g id="a_node2"><a xlink:href="execute__redirect_8c.html#a5aa0f008806cc0e8a7ba252d61b7001f" target="_top" xlink:title=" ">
<polygon fill="white" stroke="#666666" points="241,-169 134,-169 134,-150 241,-150 241,-169"/>
<text text-anchor="middle" x="187.5" y="-157" font-family="Helvetica,sans-Serif" font-size="10.00">redirect_execution</text>
</a>
</g>
</g>
<!-- Node1&#45;&gt;Node2 -->
<g id="edge1" class="edge">
<title>Node1&#45;&gt;Node2</title>
<path fill="none" stroke="#63b8ff" d="M98.12,-171.8C106.4,-170.65 115.11,-169.44 123.7,-168.24"/>
<polygon fill="#63b8ff" stroke="#63b8ff" points="124.28,-171.69 133.7,-166.85 123.32,-164.76 124.28,-171.69"/>
</g>
<!-- Node3 -->
<g id="node3" class="node">
<title>Node3</title>
<g id="a_node3"><a xlink:href="execute__ast_8c.html#ad26a20a665ab7fdeb714ed53c1afd104" target="_top" xlink:title=" ">
<polygon fill="white" stroke="#666666" points="365,-207 290,-207 290,-188 365,-188 365,-207"/>
<text text-anchor="middle" x="327.5" y="-195" font-family="Helvetica,sans-Serif" font-size="10.00">execute_ast</text>
</a>
</g>
</g>
<!-- Node2&#45;&gt;Node3 -->
<g id="edge2" class="edge">
<title>Node2&#45;&gt;Node3</title>
<path fill="none" stroke="#63b8ff" d="M223.32,-169.09C241.14,-173.99 263.02,-180.02 282.04,-185.26"/>
<polygon fill="#63b8ff" stroke="#63b8ff" points="281.12,-188.63 291.69,-187.91 282.98,-181.88 281.12,-188.63"/>
</g>
<!-- Node30 -->
<g id="node30" class="node">
<title>Node30</title>
<g id="a_node30"><a xlink:href="execute__redirect_8c.html#a1b8f325fc375581f81ae47a54e09cf0e" target="_top" xlink:title=" ">
<polygon fill="white" stroke="#666666" points="360.5,-132 294.5,-132 294.5,-113 360.5,-113 360.5,-132"/>
<text text-anchor="middle" x="327.5" y="-120" font-family="Helvetica,sans-Serif" font-size="10.00">restore_fd</text>
</a>
</g>
</g>
<!-- Node2&#45;&gt;Node30 -->
<g id="edge44" class="edge">
<title>Node2&#45;&gt;Node30</title>
<path fill="none" stroke="#63b8ff" d="M224.04,-149.97C242.54,-145.01 265.27,-138.92 284.62,-133.73"/>
<polygon fill="#63b8ff" stroke="#63b8ff" points="285.63,-137.08 294.38,-131.11 283.82,-130.32 285.63,-137.08"/>
</g>
<!-- Node31 -->
<g id="node31" class="node">
<title>Node31</title>
<g id="a_node31"><a xlink:href="execute__redirect_8c.html#a6cb002bd51f2009eaacc66d388c5f9a7" target="_top" xlink:title=" ">
<polygon fill="white" stroke="#666666" points="378,-169 277,-169 277,-150 378,-150 378,-169"/>
<text text-anchor="middle" x="327.5" y="-157" font-family="Helvetica,sans-Serif" font-size="10.00">setup_redirection</text>
</a>
</g>
</g>
<!-- Node2&#45;&gt;Node31 -->
<g id="edge45" class="edge">
<title>Node2&#45;&gt;Node31</title>
<path fill="none" stroke="#63b8ff" d="M241.07,-159.5C249.4,-159.5 258.08,-159.5 266.58,-159.5"/>
<polygon fill="#63b8ff" stroke="#63b8ff" points="266.81,-163 276.81,-159.5 266.81,-156 266.81,-163"/>
</g>
<!-- Node3&#45;&gt;Node1 -->
<g id="edge36" class="edge">
<title>Node3&#45;&gt;Node1</title>
<path fill="none" stroke="#63b8ff" d="M289.92,-194.99C243.61,-191.8 163.28,-186.28 108.43,-182.52"/>
<polygon fill="#63b8ff" stroke="#63b8ff" points="108.38,-179 98.16,-181.81 107.9,-185.99 108.38,-179"/>
</g>
<!-- Node4 -->
<g id="node4" class="node">
<title>Node4</title>
<g id="a_node4"><a xlink:href="execute__cmd_8c.html#a94ea9cc5a046ce96e36764bf0e4fa2c0" target="_top" xlink:title=" ">
<polygon fill="white" stroke="#666666" points="512.5,-356 431.5,-356 431.5,-337 512.5,-337 512.5,-356"/>
<text text-anchor="middle" x="472" y="-344" font-family="Helvetica,sans-Serif" font-size="10.00">execute_cmd</text>
</a>
</g>
</g>
<!-- Node3&#45;&gt;Node4 -->
<g id="edge3" class="edge">
<title>Node3&#45;&gt;Node4</title>
<path fill="none" stroke="#63b8ff" d="M332.05,-207.02C341.5,-231.09 369.65,-294.84 414,-328.5 416.48,-330.38 419.17,-332.07 421.97,-333.59"/>
<polygon fill="#63b8ff" stroke="#63b8ff" points="420.69,-336.85 431.24,-337.86 423.62,-330.5 420.69,-336.85"/>
</g>
<!-- Node20 -->
<g id="node20" class="node">
<title>Node20</title>
<g id="a_node20"><a xlink:href="execute__logical__and_8c.html#a4f940752faf9f9a258c49810b21efe47" target="_top" xlink:title=" ">
<polygon fill="white" stroke="#666666" points="530,-282 414,-282 414,-263 530,-263 530,-282"/>
<text text-anchor="middle" x="472" y="-270" font-family="Helvetica,sans-Serif" font-size="10.00">execute_logical_and</text>
</a>
</g>
</g>
<!-- Node3&#45;&gt;Node20 -->
<g id="edge22" class="edge">
<title>Node3&#45;&gt;Node20</title>
<path fill="none" stroke="#63b8ff" d="M350.32,-207.14C367.01,-217.98 390.99,-234.47 414,-245.5 425.2,-250.87 438.4,-255.15 449.27,-259.12"/>
<polygon fill="#63b8ff" stroke="#63b8ff" points="448.25,-262.47 458.84,-262.84 450.79,-255.95 448.25,-262.47"/>
</g>
<!-- Node21 -->
<g id="node21" class="node">
<title>Node21</title>
<g id="a_node21"><a xlink:href="execute__logical__or_8c.html#a7e732d7c30b07010fa55850051007dcc" target="_top" xlink:title=" ">
<polygon fill="white" stroke="#666666" points="525.5,-245 418.5,-245 418.5,-226 525.5,-226 525.5,-245"/>
<text text-anchor="middle" x="472" y="-233" font-family="Helvetica,sans-Serif" font-size="10.00">execute_logical_or</text>
</a>
</g>
</g>
<!-- Node3&#45;&gt;Node21 -->
<g id="edge24" class="edge">
<title>Node3&#45;&gt;Node21</title>
<path fill="none" stroke="#63b8ff" d="M365.2,-201.3C389.51,-206.62 420.91,-215.16 443.17,-222.6"/>
<polygon fill="#63b8ff" stroke="#63b8ff" points="442.1,-225.93 452.69,-225.92 444.41,-219.32 442.1,-225.93"/>
</g>
<!-- Node22 -->
<g id="node22" class="node">
<title>Node22</title>
<g id="a_node22"><a xlink:href="execute__pipe_8c.html#a5f3546dc2c7cf06c982afba41e722164" target="_top" xlink:title=" ">
<polygon fill="white" stroke="#666666" points="512.5,-95 431.5,-95 431.5,-76 512.5,-76 512.5,-95"/>
<text text-anchor="middle" x="472" y="-83" font-family="Helvetica,sans-Serif" font-size="10.00">execute_pipe</text>
</a>
</g>
</g>
<!-- Node3&#45;&gt;Node22 -->
<g id="edge26" class="edge">
<title>Node3&#45;&gt;Node22</title>
<path fill="none" stroke="#63b8ff" d="M363.45,-187.95C368.72,-185.46 373.79,-182.36 378,-178.5 404.95,-153.78 386.5,-128.61 414,-104.5 416.51,-102.3 419.28,-100.35 422.21,-98.63"/>
<polygon fill="#63b8ff" stroke="#63b8ff" points="423.96,-101.67 431.38,-94.1 420.86,-95.39 423.96,-101.67"/>
</g>
<!-- Node27 -->
<g id="node27" class="node">
<title>Node27</title>
<g id="a_node27"><a xlink:href="execute__repeat_8c.html#a00d48683c54b50130b4a402e6e97fa97" target="_top" xlink:title=" ">
<polygon fill="white" stroke="#666666" points="518,-169 426,-169 426,-150 518,-150 518,-169"/>
<text text-anchor="middle" x="472" y="-157" font-family="Helvetica,sans-Serif" font-size="10.00">execute_repeat</text>
</a>
</g>
</g>
<!-- Node3&#45;&gt;Node27 -->
<g id="edge37" class="edge">
<title>Node3&#45;&gt;Node27</title>
<path fill="none" stroke="#63b8ff" d="M346.84,-187.91C364.28,-181.51 391.41,-173.65 415.87,-167.61"/>
<polygon fill="#63b8ff" stroke="#63b8ff" points="416.89,-170.96 425.8,-165.22 415.25,-164.16 416.89,-170.96"/>
</g>
<!-- Node28 -->
<g id="node28" class="node">
<title>Node28</title>
<g id="a_node28"><a xlink:href="execute__sequence_8c.html#aad2caa5bf50b0752dd8272da477ec231" target="_top" xlink:title=" ">
<polygon fill="white" stroke="#666666" points="525.5,-132 418.5,-132 418.5,-113 525.5,-113 525.5,-132"/>
<text text-anchor="middle" x="472" y="-120" font-family="Helvetica,sans-Serif" font-size="10.00">execute_sequence</text>
</a>
</g>
</g>
<!-- Node3&#45;&gt;Node28 -->
<g id="edge39" class="edge">
<title>Node3&#45;&gt;Node28</title>
<path fill="none" stroke="#63b8ff" d="M339.37,-187.91C349.85,-182.87 365.86,-177.5 378,-169.5 394.61,-158.55 394.87,-147.94 410.17,-135.7"/>
<polygon fill="#63b8ff" stroke="#63b8ff" points="412.19,-138.56 418.37,-129.95 408.17,-132.82 412.19,-138.56"/>
</g>
<!-- Node29 -->
<g id="node29" class="node">
<title>Node29</title>
<g id="a_node29"><a xlink:href="execute__subshell_8c.html#a40a27866de012b013a337f794a858d70" target="_top" xlink:title=" ">
<polygon fill="white" stroke="#666666" points="522.5,-319 421.5,-319 421.5,-300 522.5,-300 522.5,-319"/>
<text text-anchor="middle" x="472" y="-307" font-family="Helvetica,sans-Serif" font-size="10.00">execute_subshell</text>
</a>
</g>
</g>
<!-- Node3&#45;&gt;Node29 -->
<g id="edge41" class="edge">
<title>Node3&#45;&gt;Node29</title>
<path fill="none" stroke="#63b8ff" d="M338.75,-207.09C353.15,-224.99 381.3,-261.57 414,-282.5 423.94,-288.86 436.29,-293.12 446.95,-296.68"/>
<polygon fill="#63b8ff" stroke="#63b8ff" points="445.92,-300.03 456.52,-299.92 448.17,-293.4 445.92,-300.03"/>
</g>
<!-- Node5 -->
<g id="node5" class="node">
<title>Node5</title>
<g id="a_node5"><a xlink:href="execute__cmd_8c.html#a0cfd2364134e68efdd39533e00b4b0d9" target="_top" xlink:title=" ">
<polygon fill="white" stroke="#666666" points="685,-412 566,-412 566,-393 685,-393 685,-412"/>
<text text-anchor="middle" x="625.5" y="-400" font-family="Helvetica,sans-Serif" font-size="10.00">execute_local_binary</text>
</a>
</g>
</g>
<!-- Node4&#45;&gt;Node5 -->
<g id="edge4" class="edge">
<title>Node4&#45;&gt;Node5</title>
<path fill="none" stroke="#63b8ff" d="M499.04,-356.13C523.91,-365.32 561.57,-379.24 589.14,-389.43"/>
<polygon fill="#63b8ff" stroke="#63b8ff" points="588.2,-392.81 598.8,-393 590.63,-386.25 588.2,-392.81"/>
</g>
<!-- Node14 -->
<g id="node14" class="node">
<title>Node14</title>
<g id="a_node14"><a xlink:href="execute__cmd_8c.html#a460126af28ab29df4340554fae9fc57a" target="_top" xlink:title=" ">
<polygon fill="white" stroke="#666666" points="684.5,-356 566.5,-356 566.5,-337 684.5,-337 684.5,-356"/>
<text text-anchor="middle" x="625.5" y="-344" font-family="Helvetica,sans-Serif" font-size="10.00">execute_path_binary</text>
</a>
</g>
</g>
<!-- Node4&#45;&gt;Node14 -->
<g id="edge14" class="edge">
<title>Node4&#45;&gt;Node14</title>
<path fill="none" stroke="#63b8ff" d="M512.8,-346.5C526.13,-346.5 541.38,-346.5 556.24,-346.5"/>
<polygon fill="#63b8ff" stroke="#63b8ff" points="556.44,-350 566.44,-346.5 556.44,-343 556.44,-350"/>
</g>
<!-- Node19 -->
<g id="node19" class="node">
<title>Node19</title>
<g id="a_node19"><a xlink:href="strings_8h.html#a36f055c4e56c8a784629908d0c5b91e5" target="_top" xlink:title=" ">
<polygon fill="white" stroke="#666666" points="1147,-309 1043,-309 1043,-290 1147,-290 1147,-309"/>
<text text-anchor="middle" x="1095" y="-297" font-family="Helvetica,sans-Serif" font-size="10.00">my_is_char_in_str</text>
</a>
</g>
</g>
<!-- Node4&#45;&gt;Node19 -->
<g id="edge21" class="edge">
<title>Node4&#45;&gt;Node19</title>
<path fill="none" stroke="#63b8ff" d="M512.72,-338.18C529.16,-334.91 548.46,-331.27 566,-328.5 634.56,-317.68 651.79,-314.66 721,-309.5 830.67,-301.33 958.92,-299.6 1032.87,-299.36"/>
<polygon fill="#63b8ff" stroke="#63b8ff" points="1032.95,-302.86 1042.94,-299.33 1032.93,-295.86 1032.95,-302.86"/>
</g>
<!-- Node6 -->
<g id="node6" class="node">
<title>Node6</title>
<g id="a_node6"><a xlink:href="execute__cmd_8c.html#a018afe6a043051ebc2e3dd9412587990" target="_top" xlink:title=" ">
<polygon fill="white" stroke="#666666" points="981,-411 890,-411 890,-392 981,-392 981,-411"/>
<text text-anchor="middle" x="935.5" y="-399" font-family="Helvetica,sans-Serif" font-size="10.00">execute_binary</text>
</a>
</g>
</g>
<!-- Node5&#45;&gt;Node6 -->
<g id="edge5" class="edge">
<title>Node5&#45;&gt;Node6</title>
<path fill="none" stroke="#63b8ff" d="M685.16,-402.31C741.07,-402.13 824.63,-401.86 879.35,-401.68"/>
<polygon fill="#63b8ff" stroke="#63b8ff" points="879.57,-405.18 889.56,-401.65 879.54,-398.18 879.57,-405.18"/>
</g>
<!-- Node7 -->
<g id="node7" class="node">
<title>Node7</title>
<g id="a_node7"><a xlink:href="env__to__word__array_8c.html#aea7253d35c5aa57d9cfe9d7df218cb90" target="_top" xlink:title=" ">
<polygon fill="white" stroke="#666666" points="1150,-411 1040,-411 1040,-392 1150,-392 1150,-411"/>
<text text-anchor="middle" x="1095" y="-399" font-family="Helvetica,sans-Serif" font-size="10.00">env_to_word_array</text>
</a>
</g>
</g>
<!-- Node6&#45;&gt;Node7 -->
<g id="edge6" class="edge">
<title>Node6&#45;&gt;Node7</title>
<path fill="none" stroke="#63b8ff" d="M981.21,-401.5C996.35,-401.5 1013.57,-401.5 1029.91,-401.5"/>
<polygon fill="#63b8ff" stroke="#63b8ff" points="1029.95,-405 1039.95,-401.5 1029.95,-398 1029.95,-405"/>
</g>
<!-- Node10 -->
<g id="node10" class="node">
<title>Node10</title>
<g id="a_node10"><a xlink:href="execute__cmd_8c.html#a6badc27baa1930e30ea2ad3817f65366" target="_top" xlink:title=" ">
<polygon fill="white" stroke="#666666" points="1135,-365 1055,-365 1055,-346 1135,-346 1135,-365"/>
<text text-anchor="middle" x="1095" y="-353" font-family="Helvetica,sans-Serif" font-size="10.00">execute_fork</text>
</a>
</g>
</g>
<!-- Node6&#45;&gt;Node10 -->
<g id="edge9" class="edge">
<title>Node6&#45;&gt;Node10</title>
<path fill="none" stroke="#63b8ff" d="M973.36,-391.96C983.33,-389.31 994.1,-386.36 1004,-383.5 1020.64,-378.7 1038.9,-373.08 1054.6,-368.14"/>
<polygon fill="#63b8ff" stroke="#63b8ff" points="1056.02,-371.36 1064.5,-365.01 1053.91,-364.69 1056.02,-371.36"/>
</g>
<!-- Node8 -->
<g id="node8" class="node">
<title>Node8</title>
<g id="a_node8"><a xlink:href="misc_8h.html#a1180cae2875b1fdcd58c9f9175a82c12" target="_top" xlink:title=" ">
<polygon fill="white" stroke="#666666" points="1303,-374 1186,-374 1186,-355 1303,-355 1303,-374"/>
<text text-anchor="middle" x="1244.5" y="-362" font-family="Helvetica,sans-Serif" font-size="10.00">my_free_word_array</text>
</a>
</g>
</g>
<!-- Node7&#45;&gt;Node8 -->
<g id="edge7" class="edge">
<title>Node7&#45;&gt;Node8</title>
<path fill="none" stroke="#63b8ff" d="M1133.98,-391.97C1152.75,-387.26 1175.59,-381.53 1195.55,-376.53"/>
<polygon fill="#63b8ff" stroke="#63b8ff" points="1196.54,-379.89 1205.39,-374.06 1194.84,-373.1 1196.54,-379.89"/>
</g>
<!-- Node9 -->
<g id="node9" class="node">
<title>Node9</title>
<g id="a_node9"><a xlink:href="list_8h.html#ad5ebb7cdb26f73e4b212dfc5eae4ef0e" target="_top" xlink:title=" ">
<polygon fill="white" stroke="#666666" points="1289,-411 1200,-411 1200,-392 1289,-392 1289,-411"/>
<text text-anchor="middle" x="1244.5" y="-399" font-family="Helvetica,sans-Serif" font-size="10.00">my_list_length</text>
</a>
</g>
</g>
<!-- Node7&#45;&gt;Node9 -->
<g id="edge8" class="edge">
<title>Node7&#45;&gt;Node9</title>
<path fill="none" stroke="#63b8ff" d="M1150.09,-401.5C1162.93,-401.5 1176.64,-401.5 1189.48,-401.5"/>
<polygon fill="#63b8ff" stroke="#63b8ff" points="1189.56,-405 1199.56,-401.5 1189.56,-398 1189.56,-405"/>
</g>
<!-- Node10&#45;&gt;Node8 -->
<g id="edge10" class="edge">
<title>Node10&#45;&gt;Node8</title>
<path fill="none" stroke="#63b8ff" d="M1135.14,-357.89C1147.64,-358.65 1161.85,-359.52 1175.78,-360.37"/>
<polygon fill="#63b8ff" stroke="#63b8ff" points="1175.65,-363.87 1185.84,-360.98 1176.07,-356.88 1175.65,-363.87"/>
</g>
<!-- Node11 -->
<g id="node11" class="node">
<title>Node11</title>
<g id="a_node11"><a xlink:href="execute__cmd_8c.html#a2c49b9849cfef0deea03382c9f1b3ab8" target="_top" xlink:title=" ">
<polygon fill="white" stroke="#666666" points="1290.5,-337 1198.5,-337 1198.5,-318 1290.5,-318 1290.5,-337"/>
<text text-anchor="middle" x="1244.5" y="-325" font-family="Helvetica,sans-Serif" font-size="10.00">run_subprocess</text>
</a>
</g>
</g>
<!-- Node10&#45;&gt;Node11 -->
<g id="edge11" class="edge">
<title>Node10&#45;&gt;Node11</title>
<path fill="none" stroke="#63b8ff" d="M1135.14,-348.07C1151.41,-344.98 1170.58,-341.34 1188.24,-337.99"/>
<polygon fill="#63b8ff" stroke="#63b8ff" points="1189.26,-341.36 1198.43,-336.06 1187.95,-334.48 1189.26,-341.36"/>
</g>
<!-- Node12 -->
<g id="node12" class="node">
<title>Node12</title>
<g id="a_node12"><a xlink:href="wait__for__subprocess_8c.html#a1242d78540fd0ddef3d98a9f294cb0d4" target="_top" xlink:title=" ">
<polygon fill="white" stroke="#666666" points="1302.5,-261 1186.5,-261 1186.5,-242 1302.5,-242 1302.5,-261"/>
<text text-anchor="middle" x="1244.5" y="-249" font-family="Helvetica,sans-Serif" font-size="10.00">wait_for_subprocess</text>
</a>
</g>
</g>
<!-- Node10&#45;&gt;Node12 -->
<g id="edge12" class="edge">
<title>Node10&#45;&gt;Node12</title>
<path fill="none" stroke="#63b8ff" d="M1110.27,-345.84C1121.19,-338.42 1136.6,-327.89 1150,-318.5 1174.85,-301.09 1203.14,-280.74 1222.03,-267.08"/>
<polygon fill="#63b8ff" stroke="#63b8ff" points="1224.2,-269.83 1230.25,-261.13 1220.09,-264.16 1224.2,-269.83"/>
</g>
<!-- Node13 -->
<g id="node13" class="node">
<title>Node13</title>
<g id="a_node13"><a xlink:href="wait__for__subprocess_8c.html#a885766ba6ba593b7cf27b917dd52b1a6" target="_top" xlink:title=" ">
<polygon fill="white" stroke="#666666" points="1462,-261 1339,-261 1339,-242 1462,-242 1462,-261"/>
<text text-anchor="middle" x="1400.5" y="-249" font-family="Helvetica,sans-Serif" font-size="10.00">print_signal_message</text>
</a>
</g>
</g>
<!-- Node12&#45;&gt;Node13 -->
<g id="edge13" class="edge">
<title>Node12&#45;&gt;Node13</title>
<path fill="none" stroke="#63b8ff" d="M1302.84,-251.5C1311.26,-251.5 1320.02,-251.5 1328.67,-251.5"/>
<polygon fill="#63b8ff" stroke="#63b8ff" points="1328.76,-255 1338.76,-251.5 1328.76,-248 1328.76,-255"/>
</g>
<!-- Node15 -->
<g id="node15" class="node">
<title>Node15</title>
<g id="a_node15"><a xlink:href="get__variable__value_8c.html#a2edd9900f19af236aa05385a789be3d6" target="_top" xlink:title=" ">
<polygon fill="white" stroke="#666666" points="831,-337 721,-337 721,-318 831,-318 831,-337"/>
<text text-anchor="middle" x="776" y="-325" font-family="Helvetica,sans-Serif" font-size="10.00">get_variable_value</text>
</a>
</g>
</g>
<!-- Node14&#45;&gt;Node15 -->
<g id="edge15" class="edge">
<title>Node14&#45;&gt;Node15</title>
<path fill="none" stroke="#63b8ff" d="M684.76,-339.05C693.29,-337.95 702.11,-336.83 710.75,-335.72"/>
<polygon fill="#63b8ff" stroke="#63b8ff" points="711.3,-339.18 720.78,-334.44 710.42,-332.23 711.3,-339.18"/>
</g>
<!-- Node17 -->
<g id="node17" class="node">
<title>Node17</title>
<g id="a_node17"><a xlink:href="execute__cmd_8c.html#aee9e13edede9df28fac066f30e7ae7ed" target="_top" xlink:title=" ">
<polygon fill="white" stroke="#666666" points="818,-374 734,-374 734,-355 818,-355 818,-374"/>
<text text-anchor="middle" x="776" y="-362" font-family="Helvetica,sans-Serif" font-size="10.00">try_command</text>
</a>
</g>
</g>
<!-- Node14&#45;&gt;Node17 -->
<g id="edge17" class="edge">
<title>Node14&#45;&gt;Node17</title>
<path fill="none" stroke="#63b8ff" d="M684.76,-353.56C697.59,-355.12 711.08,-356.75 723.61,-358.27"/>
<polygon fill="#63b8ff" stroke="#63b8ff" points="723.52,-361.79 733.87,-359.51 724.36,-354.84 723.52,-361.79"/>
</g>
<!-- Node16 -->
<g id="node16" class="node">
<title>Node16</title>
<g id="a_node16"><a xlink:href="get__variable_8c.html#a569170390f0edf013bf89c26ef55ea8c" target="_top" xlink:title=" ">
<polygon fill="white" stroke="#666666" points="974,-337 897,-337 897,-318 974,-318 974,-337"/>
<text text-anchor="middle" x="935.5" y="-325" font-family="Helvetica,sans-Serif" font-size="10.00">get_variable</text>
</a>
</g>
</g>
<!-- Node15&#45;&gt;Node16 -->
<g id="edge16" class="edge">
<title>Node15&#45;&gt;Node16</title>
<path fill="none" stroke="#63b8ff" d="M831.2,-327.5C849.04,-327.5 868.73,-327.5 886.11,-327.5"/>
<polygon fill="#63b8ff" stroke="#63b8ff" points="886.58,-331 896.58,-327.5 886.58,-324 886.58,-331"/>
</g>
<!-- Node17&#45;&gt;Node6 -->
<g id="edge18" class="edge">
<title>Node17&#45;&gt;Node6</title>
<path fill="none" stroke="#63b8ff" d="M817.56,-374.03C837.78,-378.78 862.44,-384.57 883.88,-389.61"/>
<polygon fill="#63b8ff" stroke="#63b8ff" points="883.27,-393.06 893.8,-391.94 884.87,-386.25 883.27,-393.06"/>
</g>
<!-- Node18 -->
<g id="node18" class="node">
<title>Node18</title>
<g id="a_node18"><a xlink:href="execute__cmd_8c.html#a9ef2f2dfa839f59ba42718ef236d4dcb" target="_top" xlink:title=" ">
<polygon fill="white" stroke="#666666" points="1004,-374 867,-374 867,-355 1004,-355 1004,-374"/>
<text text-anchor="middle" x="935.5" y="-362" font-family="Helvetica,sans-Serif" font-size="10.00">print_permission_denied</text>
</a>
</g>
</g>
<!-- Node17&#45;&gt;Node18 -->
<g id="edge19" class="edge">
<title>Node17&#45;&gt;Node18</title>
<path fill="none" stroke="#63b8ff" d="M818.38,-364.5C830.22,-364.5 843.52,-364.5 856.79,-364.5"/>
<polygon fill="#63b8ff" stroke="#63b8ff" points="856.9,-368 866.9,-364.5 856.9,-361 856.9,-368"/>
</g>
<!-- Node18&#45;&gt;Node19 -->
<g id="edge20" class="edge">
<title>Node18&#45;&gt;Node19</title>
<path fill="none" stroke="#63b8ff" d="M978.01,-354.98C986.71,-352.55 995.75,-349.71 1004,-346.5 1026.87,-337.6 1051.48,-324.48 1069.18,-314.36"/>
<polygon fill="#63b8ff" stroke="#63b8ff" points="1071.36,-317.15 1078.24,-309.1 1067.84,-311.1 1071.36,-317.15"/>
</g>
<!-- Node20&#45;&gt;Node3 -->
<g id="edge23" class="edge">
<title>Node20&#45;&gt;Node3</title>
<path fill="none" stroke="#63b8ff" d="M414.28,-263.63C414.19,-263.59 414.09,-263.54 414,-263.5 386.87,-250.5 358.39,-229.9 342.11,-214.78"/>
<polygon fill="#63b8ff" stroke="#63b8ff" points="344.32,-212.04 334.77,-207.44 339.36,-216.98 344.32,-212.04"/>
</g>
<!-- Node21&#45;&gt;Node3 -->
<g id="edge25" class="edge">
<title>Node21&#45;&gt;Node3</title>
<path fill="none" stroke="#63b8ff" d="M418.38,-228.01C397.4,-222.9 374.11,-216.34 356.49,-210.46"/>
<polygon fill="#63b8ff" stroke="#63b8ff" points="357.43,-207.08 346.84,-207.09 355.13,-213.69 357.43,-207.08"/>
</g>
<!-- Node22&#45;&gt;Node12 -->
<g id="edge35" class="edge">
<title>Node22&#45;&gt;Node12</title>
<path fill="none" stroke="#63b8ff" d="M512.86,-93.75C570.45,-104.92 680.41,-123.5 775,-123.5 775,-123.5 775,-123.5 936.5,-123.5 1052.05,-123.5 1174.53,-201.71 1222.51,-235.86"/>
<polygon fill="#63b8ff" stroke="#63b8ff" points="1220.68,-238.86 1230.84,-241.88 1224.78,-233.18 1220.68,-238.86"/>
</g>
<!-- Node23 -->
<g id="node23" class="node">
<title>Node23</title>
<g id="a_node23"><a xlink:href="execute__pipe_8c.html#a723ff799f939872d17f109a82342294e" target="_top" xlink:title=" ">
<polygon fill="white" stroke="#666666" points="807,-95 745,-95 745,-76 807,-76 807,-95"/>
<text text-anchor="middle" x="776" y="-83" font-family="Helvetica,sans-Serif" font-size="10.00">close_fds</text>
</a>
</g>
</g>
<!-- Node22&#45;&gt;Node23 -->
<g id="edge27" class="edge">
<title>Node22&#45;&gt;Node23</title>
<path fill="none" stroke="#63b8ff" d="M512.79,-85.5C570.39,-85.5 676.43,-85.5 734.45,-85.5"/>
<polygon fill="#63b8ff" stroke="#63b8ff" points="734.71,-89 744.71,-85.5 734.71,-82 734.71,-89"/>
</g>
<!-- Node24 -->
<g id="node24" class="node">
<title>Node24</title>
<g id="a_node24"><a xlink:href="execute__pipe_8c.html#ac529ffc2370b0133613ef8a81e58ed85" target="_top" xlink:title=" ">
<polygon fill="white" stroke="#666666" points="676.5,-171 574.5,-171 574.5,-152 676.5,-152 676.5,-171"/>
<text text-anchor="middle" x="625.5" y="-159" font-family="Helvetica,sans-Serif" font-size="10.00">execute_pipe_left</text>
</a>
</g>
</g>
<!-- Node22&#45;&gt;Node24 -->
<g id="edge28" class="edge">
<title>Node22&#45;&gt;Node24</title>
<path fill="none" stroke="#63b8ff" d="M509.28,-95.04C516.39,-97.61 523.62,-100.74 530,-104.5 548.71,-115.51 547.68,-125.87 566,-137.5 572.24,-141.46 579.25,-145 586.19,-148.07"/>
<polygon fill="#63b8ff" stroke="#63b8ff" points="584.96,-151.34 595.53,-151.95 587.64,-144.88 584.96,-151.34"/>
</g>
<!-- Node25 -->
<g id="node25" class="node">
<title>Node25</title>
<g id="a_node25"><a xlink:href="execute__pipe_8c.html#a9ed6eabb8a9f7049f91265a5f45e30c8" target="_top" xlink:title=" ">
<polygon fill="white" stroke="#666666" points="680,-57 571,-57 571,-38 680,-38 680,-57"/>
<text text-anchor="middle" x="625.5" y="-45" font-family="Helvetica,sans-Serif" font-size="10.00">execute_pipe_right</text>
</a>
</g>
</g>
<!-- Node22&#45;&gt;Node25 -->
<g id="edge31" class="edge">
<title>Node22&#45;&gt;Node25</title>
<path fill="none" stroke="#63b8ff" d="M511.23,-75.91C531.13,-70.92 555.66,-64.77 576.79,-59.47"/>
<polygon fill="#63b8ff" stroke="#63b8ff" points="577.7,-62.85 586.55,-57.02 575.99,-56.06 577.7,-62.85"/>
</g>
<!-- Node24&#45;&gt;Node3 -->
<g id="edge30" class="edge">
<title>Node24&#45;&gt;Node3</title>
<path fill="none" stroke="#63b8ff" d="M576.06,-171.02C561.31,-173.7 545.03,-176.44 530,-178.5 477.16,-185.73 416.14,-191.07 375.22,-194.21"/>
<polygon fill="#63b8ff" stroke="#63b8ff" points="374.72,-190.74 365.01,-194.98 375.24,-197.72 374.72,-190.74"/>
</g>
<!-- Node24&#45;&gt;Node23 -->
<g id="edge29" class="edge">
<title>Node24&#45;&gt;Node23</title>
<path fill="none" stroke="#63b8ff" d="M645.31,-151.87C671.08,-138.68 717.57,-114.89 747.32,-99.67"/>
<polygon fill="#63b8ff" stroke="#63b8ff" points="749.04,-102.72 756.35,-95.05 745.85,-96.49 749.04,-102.72"/>
</g>
<!-- Node25&#45;&gt;Node3 -->
<g id="edge33" class="edge">
<title>Node25&#45;&gt;Node3</title>
<path fill="none" stroke="#63b8ff" d="M574.58,-37.98C527.95,-32.09 458.96,-31.44 414,-67.5 373.54,-99.95 413.69,-140.87 378,-178.5 376.62,-179.95 375.12,-181.3 373.53,-182.54"/>
<polygon fill="#63b8ff" stroke="#63b8ff" points="371.54,-179.65 364.94,-187.94 375.26,-185.58 371.54,-179.65"/>
</g>
<!-- Node25&#45;&gt;Node23 -->
<g id="edge32" class="edge">
<title>Node25&#45;&gt;Node23</title>
<path fill="none" stroke="#63b8ff" d="M663.97,-57.09C685.58,-62.62 712.75,-69.57 734.8,-75.21"/>
<polygon fill="#63b8ff" stroke="#63b8ff" points="733.98,-78.62 744.53,-77.7 735.71,-71.83 733.98,-78.62"/>
</g>
<!-- Node26 -->
<g id="node26" class="node">
<title>Node26</title>
<g id="a_node26"><a xlink:href="execute__pipe_8c.html#ac3d3a124b262676fa0679720f99a7f83" target="_top" xlink:title=" ">
<polygon fill="white" stroke="#666666" points="816,-57 736,-57 736,-38 816,-38 816,-57"/>
<text text-anchor="middle" x="776" y="-45" font-family="Helvetica,sans-Serif" font-size="10.00">restore_stdin</text>
</a>
</g>
</g>
<!-- Node25&#45;&gt;Node26 -->
<g id="edge34" class="edge">
<title>Node25&#45;&gt;Node26</title>
<path fill="none" stroke="#63b8ff" d="M680.11,-47.5C694.95,-47.5 710.99,-47.5 725.58,-47.5"/>
<polygon fill="#63b8ff" stroke="#63b8ff" points="725.91,-51 735.91,-47.5 725.91,-44 725.91,-51"/>
</g>
<!-- Node27&#45;&gt;Node3 -->
<g id="edge38" class="edge">
<title>Node27&#45;&gt;Node3</title>
<path fill="none" stroke="#63b8ff" d="M452.69,-169.08C433.18,-176.23 401.52,-185.24 375.05,-191.46"/>
<polygon fill="#63b8ff" stroke="#63b8ff" points="374.17,-188.07 365.2,-193.7 375.72,-194.9 374.17,-188.07"/>
</g>
<!-- Node28&#45;&gt;Node3 -->
<g id="edge40" class="edge">
<title>Node28&#45;&gt;Node3</title>
<path fill="none" stroke="#63b8ff" d="M457.54,-132.12C445.47,-136.82 427.61,-141.96 414,-150.5 394.57,-162.7 397.16,-174.87 378,-187.5 376.75,-188.32 375.46,-189.12 374.14,-189.88"/>
<polygon fill="#63b8ff" stroke="#63b8ff" points="372.42,-186.83 365.09,-194.48 375.59,-193.07 372.42,-186.83"/>
</g>
<!-- Node29&#45;&gt;Node3 -->
<g id="edge42" class="edge">
<title>Node29&#45;&gt;Node3</title>
<path fill="none" stroke="#63b8ff" d="M421.43,-304.67C418.86,-303.4 416.36,-302.01 414,-300.5 379.86,-278.65 350.68,-239.74 336.93,-216.19"/>
<polygon fill="#63b8ff" stroke="#63b8ff" points="339.86,-214.25 332.01,-207.13 333.71,-217.59 339.86,-214.25"/>
</g>
<!-- Node29&#45;&gt;Node12 -->
<g id="edge43" class="edge">
<title>Node29&#45;&gt;Node12</title>
<path fill="none" stroke="#63b8ff" d="M502.64,-299.92C556.34,-283.45 673.56,-251.5 775,-251.5 775,-251.5 775,-251.5 936.5,-251.5 1019.05,-251.5 1114.08,-251.5 1176.28,-251.5"/>
<polygon fill="#63b8ff" stroke="#63b8ff" points="1176.35,-255 1186.35,-251.5 1176.35,-248 1176.35,-255"/>
</g>
<!-- Node32 -->
<g id="node32" class="node">
<title>Node32</title>
<g id="a_node32"><a xlink:href="execute__redirect_8c.html#a0e31af51537a8c047a3aca7cdb63d5dd" target="_top" xlink:title=" ">
<polygon fill="white" stroke="#666666" points="521,-19 423,-19 423,0 521,0 521,-19"/>
<text text-anchor="middle" x="472" y="-7" font-family="Helvetica,sans-Serif" font-size="10.00">open_redirect_fd</text>
</a>
</g>
</g>
<!-- Node31&#45;&gt;Node32 -->
<g id="edge46" class="edge">
<title>Node31&#45;&gt;Node32</title>
<path fill="none" stroke="#63b8ff" d="M366.38,-149.92C370.67,-147.67 374.68,-144.91 378,-141.5 413.29,-105.24 379.62,-70.62 414,-33.5 417.51,-29.71 421.72,-26.49 426.24,-23.77"/>
<polygon fill="#63b8ff" stroke="#63b8ff" points="427.93,-26.84 435.2,-19.13 424.71,-20.62 427.93,-26.84"/>
</g>
<!-- Node33 -->
<g id="node33" class="node">
<title>Node33</title>
<g id="a_node33"><a xlink:href="execute__redirect_8c.html#a71feea783167b3804f2793a232ca74b4" target="_top" xlink:title=" ">
<polygon fill="white" stroke="#666666" points="661,-19 590,-19 590,0 661,0 661,-19"/>
<text text-anchor="middle" x="625.5" y="-7" font-family="Helvetica,sans-Serif" font-size="10.00">heredoc_fd</text>
</a>
</g>
</g>
<!-- Node32&#45;&gt;Node33 -->
<g id="edge47" class="edge">
<title>Node32&#45;&gt;Node33</title>
<path fill="none" stroke="#63b8ff" d="M521.35,-9.5C539.97,-9.5 561.14,-9.5 579.44,-9.5"/>
<polygon fill="#63b8ff" stroke="#63b8ff" points="579.55,-13 589.55,-9.5 579.55,-6 579.55,-13"/>
</g>
<!-- Node34 -->
<g id="node34" class="node">
<title>Node34</title>
<g id="a_node34"><a xlink:href="execute__redirect_8c.html#a639d0a6f315a3bae78d204ff798e314f" target="_top" xlink:title=" ">
<polygon fill="white" stroke="#666666" points="829.5,-19 722.5,-19 722.5,0 829.5,0 829.5,-19"/>
<text text-anchor="middle" x="776" y="-7" font-family="Helvetica,sans-Serif" font-size="10.00">get_heredoc_input</text>
</a>
</g>
</g>
<!-- Node33&#45;&gt;Node34 -->
<g id="edge48" class="edge">
<title>Node33&#45;&gt;Node34</title>
<path fill="none" stroke="#63b8ff" d="M661.32,-9.5C676.51,-9.5 694.8,-9.5 712.23,-9.5"/>
<polygon fill="#63b8ff" stroke="#63b8ff" points="712.37,-13 722.37,-9.5 712.37,-6 712.37,-13"/>
</g>
<!-- Node35 -->
<g id="node35" class="node">
<title>Node35</title>
<g id="a_node35"><a xlink:href="execute__redirect_8c.html#a4e396606481bc13335d3dfae7ff15407" target="_top" xlink:title=" ">
<polygon fill="white" stroke="#666666" points="986.5,-19 884.5,-19 884.5,0 986.5,0 986.5,-19"/>
<text text-anchor="middle" x="935.5" y="-7" font-family="Helvetica,sans-Serif" font-size="10.00">is_heredoc_delim</text>
</a>
</g>
</g>
<!-- Node34&#45;&gt;Node35 -->
<g id="edge49" class="edge">
<title>Node34&#45;&gt;Node35</title>
<path fill="none" stroke="#63b8ff" d="M829.88,-9.5C844.05,-9.5 859.47,-9.5 874.02,-9.5"/>
<polygon fill="#63b8ff" stroke="#63b8ff" points="874.42,-13 884.42,-9.5 874.42,-6 874.42,-13"/>
</g>
</g>
</svg>
        <g id="navigator" transform="translate(0 0)" fill="#404254">
                <rect fill="#f2f5e9" fill-opacity="0.5" stroke="#606060" stroke-width=".5" x="0" y="0" width="60" height="60"/>
                <use id="zoomplus" xlink:href="#zoomPlus" x="17" y="9" onmousedown="handleZoom(evt,'in')"/>
                <use id="zoomminus" xlink:href="#zoomMin" x="42" y="9" onmousedown="handleZoom(evt,'out')"/>
                <use id="reset" xlink:href="#resetDef" x="30" y="36" onmousedown="handleReset()"/>
                <g id="arrowUp" xlink:href="#dirArrow" transform="translate(30 24)" onmousedown="handlePan(0,-1)">
                  <use xlink:href="#rim" fill="#404040">
                        <set attributeName="fill" to="#808080" begin="arrowUp.mouseover" end="arrowUp.mouseout"/>
                  </use>
                  <path fill="none" stroke="white" stroke-width="1.5" d="M0,-3.0v7 M-2.5,-0.5L0,-3.0L2.5,-0.5"/>
                </g>
                <g id="arrowRight" xlink:href="#dirArrow" transform="rotate(90) translate(36 -43)" onmousedown="handlePan(1,0)">
                  <use xlink:href="#rim" fill="#404040">
                        <set attributeName="fill" to="#808080" begin="arrowRight.mouseover" end="arrowRight.mouseout"/>
                  </use>
                  <path fill="none" stroke="white" stroke-width="1.5" d="M0,-3.0v7 M-2.5,-0.5L0,-3.0L2.5,-0.5"/>
                </g>
                <g id="arrowDown" xlink:href="#dirArrow" transform="rotate(180) translate(-30 -48)" onmousedown="handlePan(0,1)">
                  <use xlink:href="#rim" fill="#404040">
                        <set attributeName="fill" to="#808080" begin="arrowDown.mouseover" end="arrowDown.mouseout"/>
                  </use>
                  <path fill="none" stroke="white" stroke-width="1.5" d="M0,-3.0v7 M-2.5,-0.5L0,-3.0L2.5,-0.5"/>
                </g>
                <g id="arrowLeft" xlink:href="#dirArrow" transform="rotate(270) translate(-36 17)" onmousedown="handlePan(-1,0)">
                  <use xlink:href="#rim" fill="#404040">
                        <set attributeName="fill" to="#808080" begin="arrowLeft.mouseover" end="arrowLeft.mouseout"/>
                  </use>
                  <path fill="none" stroke="white" stroke-width="1.5" d="M0,-3.0v7 M-2.5,-0.5L0,-3.0L2.5,-0.5"/>
                </g>
        </g>
        <svg viewBox="0 0 15 15" width="100%" height="30px" preserveAspectRatio="xMaxYMin meet">
         <g id="arrow_out" transform="scale(0.3 0.3)">
          <a xlink:href="executer_8h_a1004307aba80117ddd99f009e52fb155_cgraph_org.svg" target="_base">
           <rect id="button" ry="5" rx="5" y="6" x="6" height="38" width="38"
                fill="#f2f5e9" fill-opacity="0.5" stroke="#606060" stroke-width="1.0"/>
           <path id="arrow"
             d="M 11.500037,31.436501 C 11.940474,20.09759 22.043105,11.32322 32.158766,21.979434 L 37.068811,17.246167 C 37.068811,17.246167 37.088388,32 37.088388,32 L 22.160133,31.978069 C 22.160133,31.978069 26.997745,27.140456 26.997745,27.140456 C 18.528582,18.264221 13.291696,25.230495 11.500037,31.436501 z"
             style="fill:#404040;"/>
          </a>
         </g>
        </svg>
</svg>
