<?xml version="1.0" encoding="UTF-8" standalone="no"?>
<!DOCTYPE svg PUBLIC "-//W3C//DTD SVG 1.1//EN"
 "http://www.w3.org/Graphics/SVG/1.1/DTD/svg11.dtd">
<!-- Generated by graphviz version 2.43.0 (0)
 -->
<!-- Title: execute_binary Pages: 1 -->
<svg width="557pt" height="138pt"
 viewBox="0.00 0.00 557.00 138.00" xmlns="http://www.w3.org/2000/svg" xmlns:xlink="http://www.w3.org/1999/xlink">
<g id="graph0" class="graph" transform="scale(1 1) rotate(0) translate(4 134)">
<title>execute_binary</title>
<!-- Node1 -->
<g id="node1" class="node">
<title>Node1</title>
<g id="a_node1"><a xlink:title=" ">
<polygon fill="#999999" stroke="#666666" points="91,-57 0,-57 0,-38 91,-38 91,-57"/>
<text text-anchor="middle" x="45.5" y="-45" font-family="Helvetica,sans-Serif" font-size="10.00">execute_binary</text>
</a>
</g>
</g>
<!-- Node2 -->
<g id="node2" class="node">
<title>Node2</title>
<g id="a_node2"><a xlink:href="env__to__word__array_8c.html#aea7253d35c5aa57d9cfe9d7df218cb90" target="_top" xlink:title=" ">
<polygon fill="white" stroke="#666666" points="237,-94 127,-94 127,-75 237,-75 237,-94"/>
<text text-anchor="middle" x="182" y="-82" font-family="Helvetica,sans-Serif" font-size="10.00">env_to_word_array</text>
</a>
</g>
</g>
<!-- Node1&#45;&gt;Node2 -->
<g id="edge1" class="edge">
<title>Node1&#45;&gt;Node2</title>
<path fill="none" stroke="#63b8ff" d="M81.14,-57.03C97.95,-61.65 118.35,-67.27 136.32,-72.21"/>
<polygon fill="#63b8ff" stroke="#63b8ff" points="135.44,-75.6 146.01,-74.88 137.3,-68.85 135.44,-75.6"/>
</g>
<!-- Node5 -->
<g id="node5" class="node">
<title>Node5</title>
<g id="a_node5"><a xlink:href="execute__cmd_8c.html#a6badc27baa1930e30ea2ad3817f65366" target="_top" xlink:title=" ">
<polygon fill="white" stroke="#666666" points="222,-57 142,-57 142,-38 222,-38 222,-57"/>
<text text-anchor="middle" x="182" y="-45" font-family="Helvetica,sans-Serif" font-size="10.00">execute_fork</text>
</a>
</g>
</g>
<!-- Node1&#45;&gt;Node5 -->
<g id="edge4" class="edge">
<title>Node1&#45;&gt;Node5</title>
<path fill="none" stroke="#63b8ff" d="M91.29,-47.5C104.19,-47.5 118.34,-47.5 131.51,-47.5"/>
<polygon fill="#63b8ff" stroke="#63b8ff" points="131.82,-51 141.82,-47.5 131.82,-44 131.82,-51"/>
</g>
<!-- Node6 -->
<g id="node6" class="node">
<title>Node6</title>
<g id="a_node6"><a xlink:href="execute__cmd_8c.html#a2c49b9849cfef0deea03382c9f1b3ab8" target="_top" xlink:title=" ">
<polygon fill="white" stroke="#666666" points="377.5,-19 285.5,-19 285.5,0 377.5,0 377.5,-19"/>
<text text-anchor="middle" x="331.5" y="-7" font-family="Helvetica,sans-Serif" font-size="10.00">run_subprocess</text>
</a>
</g>
</g>
<!-- Node1&#45;&gt;Node6 -->
<g id="edge9" class="edge">
<title>Node1&#45;&gt;Node6</title>
<path fill="none" stroke="#63b8ff" d="M84.81,-37.93C98.1,-34.88 113.14,-31.72 127,-29.5 176.93,-21.5 234.29,-16.21 275.36,-13.09"/>
<polygon fill="#63b8ff" stroke="#63b8ff" points="275.72,-16.57 285.44,-12.34 275.21,-9.59 275.72,-16.57"/>
</g>
<!-- Node3 -->
<g id="node3" class="node">
<title>Node3</title>
<g id="a_node3"><a xlink:href="misc_8h.html#a1180cae2875b1fdcd58c9f9175a82c12" target="_top" xlink:title=" ">
<polygon fill="white" stroke="#666666" points="390,-93 273,-93 273,-74 390,-74 390,-93"/>
<text text-anchor="middle" x="331.5" y="-81" font-family="Helvetica,sans-Serif" font-size="10.00">my_free_word_array</text>
</a>
</g>
</g>
<!-- Node2&#45;&gt;Node3 -->
<g id="edge2" class="edge">
<title>Node2&#45;&gt;Node3</title>
<path fill="none" stroke="#63b8ff" d="M237.09,-84.13C245.48,-84.08 254.24,-84.02 262.88,-83.96"/>
<polygon fill="#63b8ff" stroke="#63b8ff" points="262.97,-87.46 272.95,-83.89 262.92,-80.46 262.97,-87.46"/>
</g>
<!-- Node4 -->
<g id="node4" class="node">
<title>Node4</title>
<g id="a_node4"><a xlink:href="list_8h.html#ad5ebb7cdb26f73e4b212dfc5eae4ef0e" target="_top" xlink:title=" ">
<polygon fill="white" stroke="#666666" points="376,-130 287,-130 287,-111 376,-111 376,-130"/>
<text text-anchor="middle" x="331.5" y="-118" font-family="Helvetica,sans-Serif" font-size="10.00">my_list_length</text>
</a>
</g>
</g>
<!-- Node2&#45;&gt;Node4 -->
<g id="edge3" class="edge">
<title>Node2&#45;&gt;Node4</title>
<path fill="none" stroke="#63b8ff" d="M222.14,-94.05C240.38,-98.51 262.28,-103.85 281.6,-108.56"/>
<polygon fill="#63b8ff" stroke="#63b8ff" points="280.89,-111.99 291.43,-110.97 282.55,-105.19 280.89,-111.99"/>
</g>
<!-- Node5&#45;&gt;Node3 -->
<g id="edge5" class="edge">
<title>Node5&#45;&gt;Node3</title>
<path fill="none" stroke="#63b8ff" d="M222.14,-57.05C240.38,-61.51 262.28,-66.85 281.6,-71.56"/>
<polygon fill="#63b8ff" stroke="#63b8ff" points="280.89,-74.99 291.43,-73.97 282.55,-68.19 280.89,-74.99"/>
</g>
<!-- Node5&#45;&gt;Node6 -->
<g id="edge6" class="edge">
<title>Node5&#45;&gt;Node6</title>
<path fill="none" stroke="#63b8ff" d="M220.22,-37.91C239.51,-32.94 263.26,-26.82 283.77,-21.54"/>
<polygon fill="#63b8ff" stroke="#63b8ff" points="284.74,-24.9 293.55,-19.02 282.99,-18.13 284.74,-24.9"/>
</g>
<!-- Node7 -->
<g id="node7" class="node">
<title>Node7</title>
<g id="a_node7"><a xlink:href="wait__for__subprocess_8c.html#a1242d78540fd0ddef3d98a9f294cb0d4" target="_top" xlink:title=" ">
<polygon fill="white" stroke="#666666" points="389.5,-56 273.5,-56 273.5,-37 389.5,-37 389.5,-56"/>
<text text-anchor="middle" x="331.5" y="-44" font-family="Helvetica,sans-Serif" font-size="10.00">wait_for_subprocess</text>
</a>
</g>
</g>
<!-- Node5&#45;&gt;Node7 -->
<g id="edge7" class="edge">
<title>Node5&#45;&gt;Node7</title>
<path fill="none" stroke="#63b8ff" d="M222.14,-47.23C234.78,-47.15 249.17,-47.05 263.24,-46.96"/>
<polygon fill="#63b8ff" stroke="#63b8ff" points="263.42,-50.45 273.4,-46.89 263.38,-43.46 263.42,-50.45"/>
</g>
<!-- Node8 -->
<g id="node8" class="node">
<title>Node8</title>
<g id="a_node8"><a xlink:href="wait__for__subprocess_8c.html#a885766ba6ba593b7cf27b917dd52b1a6" target="_top" xlink:title=" ">
<polygon fill="white" stroke="#666666" points="549,-56 426,-56 426,-37 549,-37 549,-56"/>
<text text-anchor="middle" x="487.5" y="-44" font-family="Helvetica,sans-Serif" font-size="10.00">print_signal_message</text>
</a>
</g>
</g>
<!-- Node7&#45;&gt;Node8 -->
<g id="edge8" class="edge">
<title>Node7&#45;&gt;Node8</title>
<path fill="none" stroke="#63b8ff" d="M389.84,-46.5C398.26,-46.5 407.02,-46.5 415.67,-46.5"/>
<polygon fill="#63b8ff" stroke="#63b8ff" points="415.76,-50 425.76,-46.5 415.76,-43 415.76,-50"/>
</g>
</g>
</svg>
