<?xml version="1.0" encoding="UTF-8" standalone="no"?>
<!DOCTYPE svg PUBLIC "-//W3C//DTD SVG 1.1//EN"
 "http://www.w3.org/Graphics/SVG/1.1/DTD/svg11.dtd">
<!-- Generated by graphviz version 2.43.0 (0)
 -->
<!-- Title: execute_ast Pages: 1 -->
<!--zoomable 438 -->
<svg id="main" version="1.1" xmlns="http://www.w3.org/2000/svg" xmlns:xlink="http://www.w3.org/1999/xlink" xml:space="preserve" onload="init(evt)">
<style type="text/css"><![CDATA[
.edge:hover path { stroke: red; }
.edge:hover polygon { stroke: red; fill: red; }
]]></style>
<script type="text/javascript"><![CDATA[
var edges = document.getElementsByTagName('g');
if (edges && edges.length) {
  for (var i=0;i<edges.length;i++) {
    if (edges[i].id.substr(0,4)=='edge') {
      edges[i].setAttribute('class','edge');
    }
  }
}
]]></script>
        <defs>
                <circle id="rim" cx="0" cy="0" r="7"/>
                <circle id="rim2" cx="0" cy="0" r="3.5"/>
                <g id="zoomPlus">
                        <use xlink:href="#rim" fill="#404040">
                                <set attributeName="fill" to="#808080" begin="zoomplus.mouseover" end="zoomplus.mouseout"/>
                        </use>
                        <path d="M-4,0h8M0,-4v8" fill="none" stroke="white" stroke-width="1.5" pointer-events="none"/>
                </g>
                <g id="zoomMin">
                        <use xlink:href="#rim" fill="#404040">
                                <set attributeName="fill" to="#808080" begin="zoomminus.mouseover" end="zoomminus.mouseout"/>
                        </use>
                        <path d="M-4,0h8" fill="none" stroke="white" stroke-width="1.5" pointer-events="none"/>
                </g>
                <g id="dirArrow">
                        <path fill="none" stroke="white" stroke-width="1.5" d="M0,-3.0v7 M-2.5,-0.5L0,-3.0L2.5,-0.5"/>
                </g>
               <g id="resetDef">
                       <use xlink:href="#rim2" fill="#404040">
                               <set attributeName="fill" to="#808080" begin="reset.mouseover" end="reset.mouseout"/>
                       </use>
               </g>
        </defs>

<script type="text/javascript">
var viewWidth = 1167;
var viewHeight = 438;
var sectionId = 'dynsection-1';
</script>
<script xlink:href="svgpan.js"/>
<svg id="graph" class="graph">
<g id="viewport">
<title>execute_ast</title>
<!-- Node1 -->
<g id="node1" class="node">
<title>Node1</title>
<g id="a_node1"><a xlink:title=" ">
<polygon fill="#999999" stroke="#666666" points="75,-205.14 0,-205.14 0,-186.14 75,-186.14 75,-205.14"/>
<text text-anchor="middle" x="37.5" y="-193.14" font-family="Helvetica,sans-Serif" font-size="10.00">execute_ast</text>
</a>
</g>
</g>
<!-- Node2 -->
<g id="node2" class="node">
<title>Node2</title>
<g id="a_node2"><a xlink:href="execute__cmd_8c.html#a94ea9cc5a046ce96e36764bf0e4fa2c0" target="_top" xlink:title=" ">
<polygon fill="white" stroke="#666666" points="209.5,-392.14 128.5,-392.14 128.5,-373.14 209.5,-373.14 209.5,-392.14"/>
<text text-anchor="middle" x="169" y="-380.14" font-family="Helvetica,sans-Serif" font-size="10.00">execute_cmd</text>
</a>
</g>
</g>
<!-- Node1&#45;&gt;Node2 -->
<g id="edge1" class="edge">
<title>Node1&#45;&gt;Node2</title>
<path fill="none" stroke="#63b8ff" d="M39.8,-205.28C44.19,-233.94 61.06,-319.43 111,-364.64 113.46,-366.87 116.2,-368.82 119.1,-370.53"/>
<polygon fill="#63b8ff" stroke="#63b8ff" points="117.69,-373.74 128.22,-374.98 120.76,-367.45 117.69,-373.74"/>
</g>
<!-- Node18 -->
<g id="node18" class="node">
<title>Node18</title>
<g id="a_node18"><a xlink:href="execute__logical__and_8c.html#a4f940752faf9f9a258c49810b21efe47" target="_top" xlink:title=" ">
<polygon fill="white" stroke="#666666" points="227,-355.14 111,-355.14 111,-336.14 227,-336.14 227,-355.14"/>
<text text-anchor="middle" x="169" y="-343.14" font-family="Helvetica,sans-Serif" font-size="10.00">execute_logical_and</text>
</a>
</g>
</g>
<!-- Node1&#45;&gt;Node18 -->
<g id="edge20" class="edge">
<title>Node1&#45;&gt;Node18</title>
<path fill="none" stroke="#63b8ff" d="M42.68,-205.46C51.04,-229.08 72.4,-286.96 111,-318.64 119.48,-325.6 130.68,-329.89 140.91,-333.15"/>
<polygon fill="#63b8ff" stroke="#63b8ff" points="140.09,-336.56 150.67,-336.13 142.13,-329.86 140.09,-336.56"/>
</g>
<!-- Node19 -->
<g id="node19" class="node">
<title>Node19</title>
<g id="a_node19"><a xlink:href="execute__logical__or_8c.html#a7e732d7c30b07010fa55850051007dcc" target="_top" xlink:title=" ">
<polygon fill="white" stroke="#666666" points="222.5,-318.14 115.5,-318.14 115.5,-299.14 222.5,-299.14 222.5,-318.14"/>
<text text-anchor="middle" x="169" y="-306.14" font-family="Helvetica,sans-Serif" font-size="10.00">execute_logical_or</text>
</a>
</g>
</g>
<!-- Node1&#45;&gt;Node19 -->
<g id="edge22" class="edge">
<title>Node1&#45;&gt;Node19</title>
<path fill="none" stroke="#63b8ff" d="M47.93,-205.19C60.27,-221.98 83.56,-255.09 111,-275.64 121.9,-283.81 135.99,-289.77 147.44,-294.81"/>
<polygon fill="#63b8ff" stroke="#63b8ff" points="146.12,-298.05 156.67,-299.03 149.03,-291.69 146.12,-298.05"/>
</g>
<!-- Node20 -->
<g id="node20" class="node">
<title>Node20</title>
<g id="a_node20"><a xlink:href="execute__pipe_8c.html#a5f3546dc2c7cf06c982afba41e722164" target="_top" xlink:title=" ">
<polygon fill="white" stroke="#666666" points="209.5,-242.14 128.5,-242.14 128.5,-223.14 209.5,-223.14 209.5,-242.14"/>
<text text-anchor="middle" x="169" y="-230.14" font-family="Helvetica,sans-Serif" font-size="10.00">execute_pipe</text>
</a>
</g>
</g>
<!-- Node1&#45;&gt;Node20 -->
<g id="edge24" class="edge">
<title>Node1&#45;&gt;Node20</title>
<path fill="none" stroke="#63b8ff" d="M71.85,-205.17C87.89,-209.75 107.32,-215.3 124.5,-220.21"/>
<polygon fill="#63b8ff" stroke="#63b8ff" points="123.74,-223.64 134.31,-223.02 125.66,-216.9 123.74,-223.64"/>
</g>
<!-- Node25 -->
<g id="node25" class="node">
<title>Node25</title>
<g id="a_node25"><a xlink:href="execute__redirect_8c.html#a1004307aba80117ddd99f009e52fb155" target="_top" xlink:title=" ">
<polygon fill="white" stroke="#666666" points="218,-55.14 120,-55.14 120,-36.14 218,-36.14 218,-55.14"/>
<text text-anchor="middle" x="169" y="-43.14" font-family="Helvetica,sans-Serif" font-size="10.00">execute_redirect</text>
</a>
</g>
</g>
<!-- Node1&#45;&gt;Node25 -->
<g id="edge34" class="edge">
<title>Node1&#45;&gt;Node25</title>
<path fill="none" stroke="#63b8ff" d="M41.05,-186.06C48,-161.84 69.57,-97.64 111,-63.64 112.56,-62.36 114.22,-61.17 115.95,-60.06"/>
<polygon fill="#63b8ff" stroke="#63b8ff" points="117.88,-62.99 125.05,-55.19 114.58,-56.82 117.88,-62.99"/>
</g>
<!-- Node33 -->
<g id="node33" class="node">
<title>Node33</title>
<g id="a_node33"><a xlink:href="execute__repeat_8c.html#a00d48683c54b50130b4a402e6e97fa97" target="_top" xlink:title=" ">
<polygon fill="white" stroke="#666666" points="215,-205.14 123,-205.14 123,-186.14 215,-186.14 215,-205.14"/>
<text text-anchor="middle" x="169" y="-193.14" font-family="Helvetica,sans-Serif" font-size="10.00">execute_repeat</text>
</a>
</g>
</g>
<!-- Node1&#45;&gt;Node33 -->
<g id="edge43" class="edge">
<title>Node1&#45;&gt;Node33</title>
<path fill="none" stroke="#63b8ff" d="M75.26,-189.49C86.95,-188.96 100.13,-188.78 112.82,-188.96"/>
<polygon fill="#63b8ff" stroke="#63b8ff" points="112.78,-192.46 122.85,-189.17 112.93,-185.46 112.78,-192.46"/>
</g>
<!-- Node34 -->
<g id="node34" class="node">
<title>Node34</title>
<g id="a_node34"><a xlink:href="execute__sequence_8c.html#aad2caa5bf50b0752dd8272da477ec231" target="_top" xlink:title=" ">
<polygon fill="white" stroke="#666666" points="222.5,-168.14 115.5,-168.14 115.5,-149.14 222.5,-149.14 222.5,-168.14"/>
<text text-anchor="middle" x="169" y="-156.14" font-family="Helvetica,sans-Serif" font-size="10.00">execute_sequence</text>
</a>
</g>
</g>
<!-- Node1&#45;&gt;Node34 -->
<g id="edge45" class="edge">
<title>Node1&#45;&gt;Node34</title>
<path fill="none" stroke="#63b8ff" d="M55.43,-186.07C68.33,-180.99 86.96,-175 105.35,-169.79"/>
<polygon fill="#63b8ff" stroke="#63b8ff" points="106.51,-173.11 115.22,-167.08 104.65,-166.36 106.51,-173.11"/>
</g>
<!-- Node35 -->
<g id="node35" class="node">
<title>Node35</title>
<g id="a_node35"><a xlink:href="execute__subshell_8c.html#a40a27866de012b013a337f794a858d70" target="_top" xlink:title=" ">
<polygon fill="white" stroke="#666666" points="219.5,-92.14 118.5,-92.14 118.5,-73.14 219.5,-73.14 219.5,-92.14"/>
<text text-anchor="middle" x="169" y="-80.14" font-family="Helvetica,sans-Serif" font-size="10.00">execute_subshell</text>
</a>
</g>
</g>
<!-- Node1&#45;&gt;Node35 -->
<g id="edge47" class="edge">
<title>Node1&#45;&gt;Node35</title>
<path fill="none" stroke="#63b8ff" d="M41.69,-185.88C50.1,-167.05 74.3,-128.13 111.14,-98.42"/>
<polygon fill="#63b8ff" stroke="#63b8ff" points="113.4,-101.1 119.19,-92.23 109.13,-95.55 113.4,-101.1"/>
</g>
<!-- Node3 -->
<g id="node3" class="node">
<title>Node3</title>
<g id="a_node3"><a xlink:href="execute__cmd_8c.html#a0cfd2364134e68efdd39533e00b4b0d9" target="_top" xlink:title=" ">
<polygon fill="white" stroke="#666666" points="382,-430.14 263,-430.14 263,-411.14 382,-411.14 382,-430.14"/>
<text text-anchor="middle" x="322.5" y="-418.14" font-family="Helvetica,sans-Serif" font-size="10.00">execute_local_binary</text>
</a>
</g>
</g>
<!-- Node2&#45;&gt;Node3 -->
<g id="edge2" class="edge">
<title>Node2&#45;&gt;Node3</title>
<path fill="none" stroke="#63b8ff" d="M208.23,-392.23C228.13,-397.22 252.66,-403.37 273.79,-408.68"/>
<polygon fill="#63b8ff" stroke="#63b8ff" points="272.99,-412.08 283.55,-411.12 274.7,-405.29 272.99,-412.08"/>
</g>
<!-- Node12 -->
<g id="node12" class="node">
<title>Node12</title>
<g id="a_node12"><a xlink:href="execute__cmd_8c.html#a460126af28ab29df4340554fae9fc57a" target="_top" xlink:title=" ">
<polygon fill="white" stroke="#666666" points="381.5,-392.14 263.5,-392.14 263.5,-373.14 381.5,-373.14 381.5,-392.14"/>
<text text-anchor="middle" x="322.5" y="-380.14" font-family="Helvetica,sans-Serif" font-size="10.00">execute_path_binary</text>
</a>
</g>
</g>
<!-- Node2&#45;&gt;Node12 -->
<g id="edge12" class="edge">
<title>Node2&#45;&gt;Node12</title>
<path fill="none" stroke="#63b8ff" d="M209.8,-382.64C223.13,-382.64 238.38,-382.64 253.24,-382.64"/>
<polygon fill="#63b8ff" stroke="#63b8ff" points="253.44,-386.14 263.44,-382.64 253.44,-379.14 253.44,-386.14"/>
</g>
<!-- Node17 -->
<g id="node17" class="node">
<title>Node17</title>
<g id="a_node17"><a xlink:href="strings_8h.html#a36f055c4e56c8a784629908d0c5b91e5" target="_top" xlink:title=" ">
<polygon fill="white" stroke="#666666" points="844,-337.14 740,-337.14 740,-318.14 844,-318.14 844,-337.14"/>
<text text-anchor="middle" x="792" y="-325.14" font-family="Helvetica,sans-Serif" font-size="10.00">my_is_char_in_str</text>
</a>
</g>
</g>
<!-- Node2&#45;&gt;Node17 -->
<g id="edge19" class="edge">
<title>Node2&#45;&gt;Node17</title>
<path fill="none" stroke="#63b8ff" d="M202.93,-373.13C250.08,-360.05 339.81,-337.16 418,-328.64 527.29,-316.73 655.66,-320.18 729.74,-323.85"/>
<polygon fill="#63b8ff" stroke="#63b8ff" points="729.66,-327.35 739.83,-324.37 730.02,-320.36 729.66,-327.35"/>
</g>
<!-- Node4 -->
<g id="node4" class="node">
<title>Node4</title>
<g id="a_node4"><a xlink:href="execute__cmd_8c.html#a018afe6a043051ebc2e3dd9412587990" target="_top" xlink:title=" ">
<polygon fill="white" stroke="#666666" points="678,-430.14 587,-430.14 587,-411.14 678,-411.14 678,-430.14"/>
<text text-anchor="middle" x="632.5" y="-418.14" font-family="Helvetica,sans-Serif" font-size="10.00">execute_binary</text>
</a>
</g>
</g>
<!-- Node3&#45;&gt;Node4 -->
<g id="edge3" class="edge">
<title>Node3&#45;&gt;Node4</title>
<path fill="none" stroke="#63b8ff" d="M382.16,-420.64C438.07,-420.64 521.63,-420.64 576.35,-420.64"/>
<polygon fill="#63b8ff" stroke="#63b8ff" points="576.56,-424.14 586.56,-420.64 576.56,-417.14 576.56,-424.14"/>
</g>
<!-- Node5 -->
<g id="node5" class="node">
<title>Node5</title>
<g id="a_node5"><a xlink:href="env__to__word__array_8c.html#aea7253d35c5aa57d9cfe9d7df218cb90" target="_top" xlink:title=" ">
<polygon fill="white" stroke="#666666" points="847,-430.14 737,-430.14 737,-411.14 847,-411.14 847,-430.14"/>
<text text-anchor="middle" x="792" y="-418.14" font-family="Helvetica,sans-Serif" font-size="10.00">env_to_word_array</text>
</a>
</g>
</g>
<!-- Node4&#45;&gt;Node5 -->
<g id="edge4" class="edge">
<title>Node4&#45;&gt;Node5</title>
<path fill="none" stroke="#63b8ff" d="M678.21,-420.64C693.35,-420.64 710.57,-420.64 726.91,-420.64"/>
<polygon fill="#63b8ff" stroke="#63b8ff" points="726.95,-424.14 736.95,-420.64 726.95,-417.14 726.95,-424.14"/>
</g>
<!-- Node8 -->
<g id="node8" class="node">
<title>Node8</title>
<g id="a_node8"><a xlink:href="execute__cmd_8c.html#a6badc27baa1930e30ea2ad3817f65366" target="_top" xlink:title=" ">
<polygon fill="white" stroke="#666666" points="832,-384.14 752,-384.14 752,-365.14 832,-365.14 832,-384.14"/>
<text text-anchor="middle" x="792" y="-372.14" font-family="Helvetica,sans-Serif" font-size="10.00">execute_fork</text>
</a>
</g>
</g>
<!-- Node4&#45;&gt;Node8 -->
<g id="edge7" class="edge">
<title>Node4&#45;&gt;Node8</title>
<path fill="none" stroke="#63b8ff" d="M670.36,-411.11C680.33,-408.45 691.1,-405.5 701,-402.64 717.64,-397.84 735.9,-392.22 751.6,-387.28"/>
<polygon fill="#63b8ff" stroke="#63b8ff" points="753.02,-390.51 761.5,-384.15 750.91,-383.83 753.02,-390.51"/>
</g>
<!-- Node6 -->
<g id="node6" class="node">
<title>Node6</title>
<g id="a_node6"><a xlink:href="misc_8h.html#a1180cae2875b1fdcd58c9f9175a82c12" target="_top" xlink:title=" ">
<polygon fill="white" stroke="#666666" points="1000,-393.14 883,-393.14 883,-374.14 1000,-374.14 1000,-393.14"/>
<text text-anchor="middle" x="941.5" y="-381.14" font-family="Helvetica,sans-Serif" font-size="10.00">my_free_word_array</text>
</a>
</g>
</g>
<!-- Node5&#45;&gt;Node6 -->
<g id="edge5" class="edge">
<title>Node5&#45;&gt;Node6</title>
<path fill="none" stroke="#63b8ff" d="M830.98,-411.11C849.75,-406.41 872.59,-400.68 892.55,-395.67"/>
<polygon fill="#63b8ff" stroke="#63b8ff" points="893.54,-399.03 902.39,-393.2 891.84,-392.24 893.54,-399.03"/>
</g>
<!-- Node7 -->
<g id="node7" class="node">
<title>Node7</title>
<g id="a_node7"><a xlink:href="list_8h.html#ad5ebb7cdb26f73e4b212dfc5eae4ef0e" target="_top" xlink:title=" ">
<polygon fill="white" stroke="#666666" points="986,-430.14 897,-430.14 897,-411.14 986,-411.14 986,-430.14"/>
<text text-anchor="middle" x="941.5" y="-418.14" font-family="Helvetica,sans-Serif" font-size="10.00">my_list_length</text>
</a>
</g>
</g>
<!-- Node5&#45;&gt;Node7 -->
<g id="edge6" class="edge">
<title>Node5&#45;&gt;Node7</title>
<path fill="none" stroke="#63b8ff" d="M847.09,-420.64C859.93,-420.64 873.64,-420.64 886.48,-420.64"/>
<polygon fill="#63b8ff" stroke="#63b8ff" points="886.56,-424.14 896.56,-420.64 886.56,-417.14 886.56,-424.14"/>
</g>
<!-- Node8&#45;&gt;Node6 -->
<g id="edge8" class="edge">
<title>Node8&#45;&gt;Node6</title>
<path fill="none" stroke="#63b8ff" d="M832.14,-377.03C844.64,-377.79 858.85,-378.66 872.78,-379.51"/>
<polygon fill="#63b8ff" stroke="#63b8ff" points="872.65,-383.01 882.84,-380.12 873.07,-376.02 872.65,-383.01"/>
</g>
<!-- Node9 -->
<g id="node9" class="node">
<title>Node9</title>
<g id="a_node9"><a xlink:href="execute__cmd_8c.html#a2c49b9849cfef0deea03382c9f1b3ab8" target="_top" xlink:title=" ">
<polygon fill="white" stroke="#666666" points="987.5,-356.14 895.5,-356.14 895.5,-337.14 987.5,-337.14 987.5,-356.14"/>
<text text-anchor="middle" x="941.5" y="-344.14" font-family="Helvetica,sans-Serif" font-size="10.00">run_subprocess</text>
</a>
</g>
</g>
<!-- Node8&#45;&gt;Node9 -->
<g id="edge9" class="edge">
<title>Node8&#45;&gt;Node9</title>
<path fill="none" stroke="#63b8ff" d="M832.14,-367.21C848.41,-364.12 867.58,-360.48 885.24,-357.13"/>
<polygon fill="#63b8ff" stroke="#63b8ff" points="886.26,-360.5 895.43,-355.2 884.95,-353.62 886.26,-360.5"/>
</g>
<!-- Node10 -->
<g id="node10" class="node">
<title>Node10</title>
<g id="a_node10"><a xlink:href="wait__for__subprocess_8c.html#a1242d78540fd0ddef3d98a9f294cb0d4" target="_top" xlink:title=" ">
<polygon fill="white" stroke="#666666" points="999.5,-242.14 883.5,-242.14 883.5,-223.14 999.5,-223.14 999.5,-242.14"/>
<text text-anchor="middle" x="941.5" y="-230.14" font-family="Helvetica,sans-Serif" font-size="10.00">wait_for_subprocess</text>
</a>
</g>
</g>
<!-- Node8&#45;&gt;Node10 -->
<g id="edge10" class="edge">
<title>Node8&#45;&gt;Node10</title>
<path fill="none" stroke="#63b8ff" d="M816.31,-365.1C826.33,-360.38 837.81,-354.09 847,-346.64 881.94,-318.33 912.95,-275.19 928.98,-250.9"/>
<polygon fill="#63b8ff" stroke="#63b8ff" points="932.05,-252.61 934.54,-242.31 926.17,-248.8 932.05,-252.61"/>
</g>
<!-- Node11 -->
<g id="node11" class="node">
<title>Node11</title>
<g id="a_node11"><a xlink:href="wait__for__subprocess_8c.html#a885766ba6ba593b7cf27b917dd52b1a6" target="_top" xlink:title=" ">
<polygon fill="white" stroke="#666666" points="1159,-242.14 1036,-242.14 1036,-223.14 1159,-223.14 1159,-242.14"/>
<text text-anchor="middle" x="1097.5" y="-230.14" font-family="Helvetica,sans-Serif" font-size="10.00">print_signal_message</text>
</a>
</g>
</g>
<!-- Node10&#45;&gt;Node11 -->
<g id="edge11" class="edge">
<title>Node10&#45;&gt;Node11</title>
<path fill="none" stroke="#63b8ff" d="M999.84,-232.64C1008.26,-232.64 1017.02,-232.64 1025.67,-232.64"/>
<polygon fill="#63b8ff" stroke="#63b8ff" points="1025.76,-236.14 1035.76,-232.64 1025.76,-229.14 1025.76,-236.14"/>
</g>
<!-- Node13 -->
<g id="node13" class="node">
<title>Node13</title>
<g id="a_node13"><a xlink:href="get__variable__value_8c.html#a2edd9900f19af236aa05385a789be3d6" target="_top" xlink:title=" ">
<polygon fill="white" stroke="#666666" points="528,-393.14 418,-393.14 418,-374.14 528,-374.14 528,-393.14"/>
<text text-anchor="middle" x="473" y="-381.14" font-family="Helvetica,sans-Serif" font-size="10.00">get_variable_value</text>
</a>
</g>
</g>
<!-- Node12&#45;&gt;Node13 -->
<g id="edge13" class="edge">
<title>Node12&#45;&gt;Node13</title>
<path fill="none" stroke="#63b8ff" d="M381.76,-383.03C390.29,-383.09 399.11,-383.15 407.75,-383.21"/>
<polygon fill="#63b8ff" stroke="#63b8ff" points="407.76,-386.71 417.78,-383.28 407.8,-379.71 407.76,-386.71"/>
</g>
<!-- Node15 -->
<g id="node15" class="node">
<title>Node15</title>
<g id="a_node15"><a xlink:href="execute__cmd_8c.html#aee9e13edede9df28fac066f30e7ae7ed" target="_top" xlink:title=" ">
<polygon fill="white" stroke="#666666" points="515,-356.14 431,-356.14 431,-337.14 515,-337.14 515,-356.14"/>
<text text-anchor="middle" x="473" y="-344.14" font-family="Helvetica,sans-Serif" font-size="10.00">try_command</text>
</a>
</g>
</g>
<!-- Node12&#45;&gt;Node15 -->
<g id="edge15" class="edge">
<title>Node12&#45;&gt;Node15</title>
<path fill="none" stroke="#63b8ff" d="M362.91,-373.09C381.27,-368.64 403.32,-363.29 422.77,-358.58"/>
<polygon fill="#63b8ff" stroke="#63b8ff" points="423.77,-361.93 432.67,-356.18 422.13,-355.13 423.77,-361.93"/>
</g>
<!-- Node14 -->
<g id="node14" class="node">
<title>Node14</title>
<g id="a_node14"><a xlink:href="get__variable_8c.html#a569170390f0edf013bf89c26ef55ea8c" target="_top" xlink:title=" ">
<polygon fill="white" stroke="#666666" points="671,-393.14 594,-393.14 594,-374.14 671,-374.14 671,-393.14"/>
<text text-anchor="middle" x="632.5" y="-381.14" font-family="Helvetica,sans-Serif" font-size="10.00">get_variable</text>
</a>
</g>
</g>
<!-- Node13&#45;&gt;Node14 -->
<g id="edge14" class="edge">
<title>Node13&#45;&gt;Node14</title>
<path fill="none" stroke="#63b8ff" d="M528.2,-383.64C546.04,-383.64 565.73,-383.64 583.11,-383.64"/>
<polygon fill="#63b8ff" stroke="#63b8ff" points="583.58,-387.14 593.58,-383.64 583.58,-380.14 583.58,-387.14"/>
</g>
<!-- Node15&#45;&gt;Node4 -->
<g id="edge16" class="edge">
<title>Node15&#45;&gt;Node4</title>
<path fill="none" stroke="#63b8ff" d="M508.81,-356.22C515.44,-358.78 522.14,-361.9 528,-365.64 547.33,-378 544.2,-391.05 564,-402.64 568.16,-405.08 572.66,-407.2 577.29,-409.03"/>
<polygon fill="#63b8ff" stroke="#63b8ff" points="576.32,-412.4 586.92,-412.41 578.64,-405.79 576.32,-412.4"/>
</g>
<!-- Node16 -->
<g id="node16" class="node">
<title>Node16</title>
<g id="a_node16"><a xlink:href="execute__cmd_8c.html#a9ef2f2dfa839f59ba42718ef236d4dcb" target="_top" xlink:title=" ">
<polygon fill="white" stroke="#666666" points="701,-356.14 564,-356.14 564,-337.14 701,-337.14 701,-356.14"/>
<text text-anchor="middle" x="632.5" y="-344.14" font-family="Helvetica,sans-Serif" font-size="10.00">print_permission_denied</text>
</a>
</g>
</g>
<!-- Node15&#45;&gt;Node16 -->
<g id="edge17" class="edge">
<title>Node15&#45;&gt;Node16</title>
<path fill="none" stroke="#63b8ff" d="M515.38,-346.64C527.22,-346.64 540.52,-346.64 553.79,-346.64"/>
<polygon fill="#63b8ff" stroke="#63b8ff" points="553.9,-350.14 563.9,-346.64 553.9,-343.14 553.9,-350.14"/>
</g>
<!-- Node16&#45;&gt;Node17 -->
<g id="edge18" class="edge">
<title>Node16&#45;&gt;Node17</title>
<path fill="none" stroke="#63b8ff" d="M701.21,-338.47C710.64,-337.34 720.28,-336.17 729.59,-335.05"/>
<polygon fill="#63b8ff" stroke="#63b8ff" points="730.02,-338.52 739.52,-333.85 729.18,-331.57 730.02,-338.52"/>
</g>
<!-- Node18&#45;&gt;Node1 -->
<g id="edge21" class="edge">
<title>Node18&#45;&gt;Node1</title>
<path fill="none" stroke="#63b8ff" d="M111.48,-337.03C111.32,-336.9 111.16,-336.77 111,-336.64 72.12,-304.73 50.73,-246.24 42.5,-215.32"/>
<polygon fill="#63b8ff" stroke="#63b8ff" points="45.82,-214.16 40.06,-205.27 39.02,-215.82 45.82,-214.16"/>
</g>
<!-- Node19&#45;&gt;Node1 -->
<g id="edge23" class="edge">
<title>Node19&#45;&gt;Node1</title>
<path fill="none" stroke="#63b8ff" d="M119.19,-299.05C116.33,-297.38 113.58,-295.57 111,-293.64 82.23,-272.09 58.01,-236.73 46.21,-214.56"/>
<polygon fill="#63b8ff" stroke="#63b8ff" points="49.26,-212.83 41.69,-205.41 42.98,-215.92 49.26,-212.83"/>
</g>
<!-- Node20&#45;&gt;Node10 -->
<g id="edge33" class="edge">
<title>Node20&#45;&gt;Node10</title>
<path fill="none" stroke="#63b8ff" d="M209.57,-232.64C267.28,-232.64 377.89,-232.64 472,-232.64 472,-232.64 472,-232.64 633.5,-232.64 716.05,-232.64 811.08,-232.64 873.28,-232.64"/>
<polygon fill="#63b8ff" stroke="#63b8ff" points="873.35,-236.14 883.35,-232.64 873.35,-229.14 873.35,-236.14"/>
</g>
<!-- Node21 -->
<g id="node21" class="node">
<title>Node21</title>
<g id="a_node21"><a xlink:href="execute__pipe_8c.html#a723ff799f939872d17f109a82342294e" target="_top" xlink:title=" ">
<polygon fill="white" stroke="#666666" points="504,-204.14 442,-204.14 442,-185.14 504,-185.14 504,-204.14"/>
<text text-anchor="middle" x="473" y="-192.14" font-family="Helvetica,sans-Serif" font-size="10.00">close_fds</text>
</a>
</g>
</g>
<!-- Node20&#45;&gt;Node21 -->
<g id="edge25" class="edge">
<title>Node20&#45;&gt;Node21</title>
<path fill="none" stroke="#63b8ff" d="M209.78,-226.34C226.24,-223.81 245.52,-220.96 263,-218.64 321.58,-210.87 389.59,-203.34 431.72,-198.84"/>
<polygon fill="#63b8ff" stroke="#63b8ff" points="432.27,-202.3 441.85,-197.77 431.53,-195.34 432.27,-202.3"/>
</g>
<!-- Node22 -->
<g id="node22" class="node">
<title>Node22</title>
<g id="a_node22"><a xlink:href="execute__pipe_8c.html#ac529ffc2370b0133613ef8a81e58ed85" target="_top" xlink:title=" ">
<polygon fill="white" stroke="#666666" points="373.5,-280.14 271.5,-280.14 271.5,-261.14 373.5,-261.14 373.5,-280.14"/>
<text text-anchor="middle" x="322.5" y="-268.14" font-family="Helvetica,sans-Serif" font-size="10.00">execute_pipe_left</text>
</a>
</g>
</g>
<!-- Node20&#45;&gt;Node22 -->
<g id="edge26" class="edge">
<title>Node20&#45;&gt;Node22</title>
<path fill="none" stroke="#63b8ff" d="M208.23,-242.23C228.13,-247.22 252.66,-253.37 273.79,-258.68"/>
<polygon fill="#63b8ff" stroke="#63b8ff" points="272.99,-262.08 283.55,-261.12 274.7,-255.29 272.99,-262.08"/>
</g>
<!-- Node23 -->
<g id="node23" class="node">
<title>Node23</title>
<g id="a_node23"><a xlink:href="execute__pipe_8c.html#a9ed6eabb8a9f7049f91265a5f45e30c8" target="_top" xlink:title=" ">
<polygon fill="white" stroke="#666666" points="377,-166.14 268,-166.14 268,-147.14 377,-147.14 377,-166.14"/>
<text text-anchor="middle" x="322.5" y="-154.14" font-family="Helvetica,sans-Serif" font-size="10.00">execute_pipe_right</text>
</a>
</g>
</g>
<!-- Node20&#45;&gt;Node23 -->
<g id="edge29" class="edge">
<title>Node20&#45;&gt;Node23</title>
<path fill="none" stroke="#63b8ff" d="M208.43,-223.13C214.85,-220.82 221.27,-218.01 227,-214.64 245.97,-203.49 244.51,-192.58 263,-180.64 269.15,-176.67 276.07,-173.14 282.93,-170.09"/>
<polygon fill="#63b8ff" stroke="#63b8ff" points="284.3,-173.31 292.19,-166.23 281.61,-166.85 284.3,-173.31"/>
</g>
<!-- Node22&#45;&gt;Node1 -->
<g id="edge28" class="edge">
<title>Node22&#45;&gt;Node1</title>
<path fill="none" stroke="#63b8ff" d="M271.21,-273.87C227.4,-274.89 162.92,-272.01 111,-251.64 88.97,-243 68.06,-225.48 54.4,-212.33"/>
<polygon fill="#63b8ff" stroke="#63b8ff" points="56.8,-209.78 47.25,-205.19 51.85,-214.73 56.8,-209.78"/>
</g>
<!-- Node22&#45;&gt;Node21 -->
<g id="edge27" class="edge">
<title>Node22&#45;&gt;Node21</title>
<path fill="none" stroke="#63b8ff" d="M342.31,-261.02C368.08,-247.83 414.57,-224.04 444.32,-208.81"/>
<polygon fill="#63b8ff" stroke="#63b8ff" points="446.04,-211.86 453.35,-204.19 442.85,-205.63 446.04,-211.86"/>
</g>
<!-- Node23&#45;&gt;Node1 -->
<g id="edge31" class="edge">
<title>Node23&#45;&gt;Node1</title>
<path fill="none" stroke="#63b8ff" d="M292.33,-147.1C250.84,-135.11 172.94,-118.51 111,-139.64 88.6,-147.28 67.75,-164.96 54.21,-178.43"/>
<polygon fill="#63b8ff" stroke="#63b8ff" points="51.56,-176.14 47.13,-185.76 56.59,-181 51.56,-176.14"/>
</g>
<!-- Node23&#45;&gt;Node21 -->
<g id="edge30" class="edge">
<title>Node23&#45;&gt;Node21</title>
<path fill="none" stroke="#63b8ff" d="M360.97,-166.23C382.58,-171.76 409.75,-178.71 431.8,-184.36"/>
<polygon fill="#63b8ff" stroke="#63b8ff" points="430.98,-187.76 441.53,-186.85 432.71,-180.98 430.98,-187.76"/>
</g>
<!-- Node24 -->
<g id="node24" class="node">
<title>Node24</title>
<g id="a_node24"><a xlink:href="execute__pipe_8c.html#ac3d3a124b262676fa0679720f99a7f83" target="_top" xlink:title=" ">
<polygon fill="white" stroke="#666666" points="513,-166.14 433,-166.14 433,-147.14 513,-147.14 513,-166.14"/>
<text text-anchor="middle" x="473" y="-154.14" font-family="Helvetica,sans-Serif" font-size="10.00">restore_stdin</text>
</a>
</g>
</g>
<!-- Node23&#45;&gt;Node24 -->
<g id="edge32" class="edge">
<title>Node23&#45;&gt;Node24</title>
<path fill="none" stroke="#63b8ff" d="M377.11,-156.64C391.95,-156.64 407.99,-156.64 422.58,-156.64"/>
<polygon fill="#63b8ff" stroke="#63b8ff" points="422.91,-160.14 432.91,-156.64 422.91,-153.14 422.91,-160.14"/>
</g>
<!-- Node26 -->
<g id="node26" class="node">
<title>Node26</title>
<g id="a_node26"><a xlink:href="execute__redirect_8c.html#a5aa0f008806cc0e8a7ba252d61b7001f" target="_top" xlink:title=" ">
<polygon fill="white" stroke="#666666" points="376,-27.14 269,-27.14 269,-8.14 376,-8.14 376,-27.14"/>
<text text-anchor="middle" x="322.5" y="-15.14" font-family="Helvetica,sans-Serif" font-size="10.00">redirect_execution</text>
</a>
</g>
</g>
<!-- Node25&#45;&gt;Node26 -->
<g id="edge35" class="edge">
<title>Node25&#45;&gt;Node26</title>
<path fill="none" stroke="#63b8ff" d="M218.35,-36.71C231.59,-34.26 246.12,-31.57 259.99,-29.01"/>
<polygon fill="#63b8ff" stroke="#63b8ff" points="260.75,-32.43 269.95,-27.17 259.48,-25.55 260.75,-32.43"/>
</g>
<!-- Node26&#45;&gt;Node1 -->
<g id="edge36" class="edge">
<title>Node26&#45;&gt;Node1</title>
<path fill="none" stroke="#63b8ff" d="M283.92,-8.13C238.66,1.01 162.33,8.79 111,-26.64 60.52,-61.49 44.97,-139.22 40.36,-175.84"/>
<polygon fill="#63b8ff" stroke="#63b8ff" points="36.88,-175.46 39.25,-185.79 43.84,-176.24 36.88,-175.46"/>
</g>
<!-- Node27 -->
<g id="node27" class="node">
<title>Node27</title>
<g id="a_node27"><a xlink:href="execute__redirect_8c.html#a1b8f325fc375581f81ae47a54e09cf0e" target="_top" xlink:title=" ">
<polygon fill="white" stroke="#666666" points="506,-63.14 440,-63.14 440,-44.14 506,-44.14 506,-63.14"/>
<text text-anchor="middle" x="473" y="-51.14" font-family="Helvetica,sans-Serif" font-size="10.00">restore_fd</text>
</a>
</g>
</g>
<!-- Node26&#45;&gt;Node27 -->
<g id="edge37" class="edge">
<title>Node26&#45;&gt;Node27</title>
<path fill="none" stroke="#63b8ff" d="M362.91,-27.2C383.58,-32.21 408.92,-38.35 429.97,-43.45"/>
<polygon fill="#63b8ff" stroke="#63b8ff" points="429.38,-46.91 439.92,-45.87 431.03,-40.11 429.38,-46.91"/>
</g>
<!-- Node28 -->
<g id="node28" class="node">
<title>Node28</title>
<g id="a_node28"><a xlink:href="execute__redirect_8c.html#a6cb002bd51f2009eaacc66d388c5f9a7" target="_top" xlink:title=" ">
<polygon fill="white" stroke="#666666" points="523.5,-26.14 422.5,-26.14 422.5,-7.14 523.5,-7.14 523.5,-26.14"/>
<text text-anchor="middle" x="473" y="-14.14" font-family="Helvetica,sans-Serif" font-size="10.00">setup_redirection</text>
</a>
</g>
</g>
<!-- Node26&#45;&gt;Node28 -->
<g id="edge38" class="edge">
<title>Node26&#45;&gt;Node28</title>
<path fill="none" stroke="#63b8ff" d="M376.27,-17.29C387.88,-17.21 400.25,-17.13 412.12,-17.05"/>
<polygon fill="#63b8ff" stroke="#63b8ff" points="412.4,-20.54 422.38,-16.98 412.35,-13.54 412.4,-20.54"/>
</g>
<!-- Node29 -->
<g id="node29" class="node">
<title>Node29</title>
<g id="a_node29"><a xlink:href="execute__redirect_8c.html#a0e31af51537a8c047a3aca7cdb63d5dd" target="_top" xlink:title=" ">
<polygon fill="white" stroke="#666666" points="681.5,-26.14 583.5,-26.14 583.5,-7.14 681.5,-7.14 681.5,-26.14"/>
<text text-anchor="middle" x="632.5" y="-14.14" font-family="Helvetica,sans-Serif" font-size="10.00">open_redirect_fd</text>
</a>
</g>
</g>
<!-- Node28&#45;&gt;Node29 -->
<g id="edge39" class="edge">
<title>Node28&#45;&gt;Node29</title>
<path fill="none" stroke="#63b8ff" d="M523.83,-16.64C539.43,-16.64 556.79,-16.64 572.93,-16.64"/>
<polygon fill="#63b8ff" stroke="#63b8ff" points="573.34,-20.14 583.34,-16.64 573.34,-13.14 573.34,-20.14"/>
</g>
<!-- Node30 -->
<g id="node30" class="node">
<title>Node30</title>
<g id="a_node30"><a xlink:href="execute__redirect_8c.html#a71feea783167b3804f2793a232ca74b4" target="_top" xlink:title=" ">
<polygon fill="white" stroke="#666666" points="827.5,-26.14 756.5,-26.14 756.5,-7.14 827.5,-7.14 827.5,-26.14"/>
<text text-anchor="middle" x="792" y="-14.14" font-family="Helvetica,sans-Serif" font-size="10.00">heredoc_fd</text>
</a>
</g>
</g>
<!-- Node29&#45;&gt;Node30 -->
<g id="edge40" class="edge">
<title>Node29&#45;&gt;Node30</title>
<path fill="none" stroke="#63b8ff" d="M681.61,-16.64C702.1,-16.64 725.87,-16.64 746.01,-16.64"/>
<polygon fill="#63b8ff" stroke="#63b8ff" points="746.17,-20.14 756.17,-16.64 746.17,-13.14 746.17,-20.14"/>
</g>
<!-- Node31 -->
<g id="node31" class="node">
<title>Node31</title>
<g id="a_node31"><a xlink:href="execute__redirect_8c.html#a639d0a6f315a3bae78d204ff798e314f" target="_top" xlink:title=" ">
<polygon fill="white" stroke="#666666" points="995,-26.14 888,-26.14 888,-7.14 995,-7.14 995,-26.14"/>
<text text-anchor="middle" x="941.5" y="-14.14" font-family="Helvetica,sans-Serif" font-size="10.00">get_heredoc_input</text>
</a>
</g>
</g>
<!-- Node30&#45;&gt;Node31 -->
<g id="edge41" class="edge">
<title>Node30&#45;&gt;Node31</title>
<path fill="none" stroke="#63b8ff" d="M827.58,-16.64C842.6,-16.64 860.67,-16.64 877.91,-16.64"/>
<polygon fill="#63b8ff" stroke="#63b8ff" points="877.94,-20.14 887.94,-16.64 877.94,-13.14 877.94,-20.14"/>
</g>
<!-- Node32 -->
<g id="node32" class="node">
<title>Node32</title>
<g id="a_node32"><a xlink:href="execute__redirect_8c.html#a4e396606481bc13335d3dfae7ff15407" target="_top" xlink:title=" ">
<polygon fill="white" stroke="#666666" points="1148.5,-26.14 1046.5,-26.14 1046.5,-7.14 1148.5,-7.14 1148.5,-26.14"/>
<text text-anchor="middle" x="1097.5" y="-14.14" font-family="Helvetica,sans-Serif" font-size="10.00">is_heredoc_delim</text>
</a>
</g>
</g>
<!-- Node31&#45;&gt;Node32 -->
<g id="edge42" class="edge">
<title>Node31&#45;&gt;Node32</title>
<path fill="none" stroke="#63b8ff" d="M995.07,-16.64C1008.26,-16.64 1022.52,-16.64 1036.06,-16.64"/>
<polygon fill="#63b8ff" stroke="#63b8ff" points="1036.25,-20.14 1046.25,-16.64 1036.25,-13.14 1036.25,-20.14"/>
</g>
<!-- Node33&#45;&gt;Node1 -->
<g id="edge44" class="edge">
<title>Node33&#45;&gt;Node1</title>
<path fill="none" stroke="#63b8ff" d="M122.85,-202.11C110.7,-202.47 97.52,-202.49 85.28,-202.16"/>
<polygon fill="#63b8ff" stroke="#63b8ff" points="85.38,-198.66 75.26,-201.8 85.13,-205.65 85.38,-198.66"/>
</g>
<!-- Node34&#45;&gt;Node1 -->
<g id="edge46" class="edge">
<title>Node34&#45;&gt;Node1</title>
<path fill="none" stroke="#63b8ff" d="M151.22,-168.15C134.56,-174.73 108.24,-182.85 85.22,-188.8"/>
<polygon fill="#63b8ff" stroke="#63b8ff" points="84.12,-185.47 75.26,-191.29 85.81,-192.26 84.12,-185.47"/>
</g>
<!-- Node35&#45;&gt;Node1 -->
<g id="edge48" class="edge">
<title>Node35&#45;&gt;Node1</title>
<path fill="none" stroke="#63b8ff" d="M156.67,-92.26C144.52,-98.21 125.09,-105.09 111,-115.64 87.64,-133.14 67.28,-159.75 54.13,-177.63"/>
<polygon fill="#63b8ff" stroke="#63b8ff" points="51.02,-175.96 47.93,-186.09 56.67,-180.09 51.02,-175.96"/>
</g>
<!-- Node35&#45;&gt;Node10 -->
<g id="edge49" class="edge">
<title>Node35&#45;&gt;Node10</title>
<path fill="none" stroke="#63b8ff" d="M219.58,-89.81C279.31,-97.81 382.78,-109.64 472,-109.64 472,-109.64 472,-109.64 633.5,-109.64 747.85,-109.64 870.09,-184.09 918.73,-217.15"/>
<polygon fill="#63b8ff" stroke="#63b8ff" points="916.98,-220.19 927.2,-222.99 920.96,-214.43 916.98,-220.19"/>
</g>
</g>
</svg>
        <g id="navigator" transform="translate(0 0)" fill="#404254">
                <rect fill="#f2f5e9" fill-opacity="0.5" stroke="#606060" stroke-width=".5" x="0" y="0" width="60" height="60"/>
                <use id="zoomplus" xlink:href="#zoomPlus" x="17" y="9" onmousedown="handleZoom(evt,'in')"/>
                <use id="zoomminus" xlink:href="#zoomMin" x="42" y="9" onmousedown="handleZoom(evt,'out')"/>
                <use id="reset" xlink:href="#resetDef" x="30" y="36" onmousedown="handleReset()"/>
                <g id="arrowUp" xlink:href="#dirArrow" transform="translate(30 24)" onmousedown="handlePan(0,-1)">
                  <use xlink:href="#rim" fill="#404040">
                        <set attributeName="fill" to="#808080" begin="arrowUp.mouseover" end="arrowUp.mouseout"/>
                  </use>
                  <path fill="none" stroke="white" stroke-width="1.5" d="M0,-3.0v7 M-2.5,-0.5L0,-3.0L2.5,-0.5"/>
                </g>
                <g id="arrowRight" xlink:href="#dirArrow" transform="rotate(90) translate(36 -43)" onmousedown="handlePan(1,0)">
                  <use xlink:href="#rim" fill="#404040">
                        <set attributeName="fill" to="#808080" begin="arrowRight.mouseover" end="arrowRight.mouseout"/>
                  </use>
                  <path fill="none" stroke="white" stroke-width="1.5" d="M0,-3.0v7 M-2.5,-0.5L0,-3.0L2.5,-0.5"/>
                </g>
                <g id="arrowDown" xlink:href="#dirArrow" transform="rotate(180) translate(-30 -48)" onmousedown="handlePan(0,1)">
                  <use xlink:href="#rim" fill="#404040">
                        <set attributeName="fill" to="#808080" begin="arrowDown.mouseover" end="arrowDown.mouseout"/>
                  </use>
                  <path fill="none" stroke="white" stroke-width="1.5" d="M0,-3.0v7 M-2.5,-0.5L0,-3.0L2.5,-0.5"/>
                </g>
                <g id="arrowLeft" xlink:href="#dirArrow" transform="rotate(270) translate(-36 17)" onmousedown="handlePan(-1,0)">
                  <use xlink:href="#rim" fill="#404040">
                        <set attributeName="fill" to="#808080" begin="arrowLeft.mouseover" end="arrowLeft.mouseout"/>
                  </use>
                  <path fill="none" stroke="white" stroke-width="1.5" d="M0,-3.0v7 M-2.5,-0.5L0,-3.0L2.5,-0.5"/>
                </g>
        </g>
        <svg viewBox="0 0 15 15" width="100%" height="30px" preserveAspectRatio="xMaxYMin meet">
         <g id="arrow_out" transform="scale(0.3 0.3)">
          <a xlink:href="execute__ast_8c_ad26a20a665ab7fdeb714ed53c1afd104_cgraph_org.svg" target="_base">
           <rect id="button" ry="5" rx="5" y="6" x="6" height="38" width="38"
                fill="#f2f5e9" fill-opacity="0.5" stroke="#606060" stroke-width="1.0"/>
           <path id="arrow"
             d="M 11.500037,31.436501 C 11.940474,20.09759 22.043105,11.32322 32.158766,21.979434 L 37.068811,17.246167 C 37.068811,17.246167 37.088388,32 37.088388,32 L 22.160133,31.978069 C 22.160133,31.978069 26.997745,27.140456 26.997745,27.140456 C 18.528582,18.264221 13.291696,25.230495 11.500037,31.436501 z"
             style="fill:#404040;"/>
          </a>
         </g>
        </svg>
</svg>
