<?xml version="1.0" encoding="UTF-8" standalone="no"?>
<!DOCTYPE svg PUBLIC "-//W3C//DTD SVG 1.1//EN"
 "http://www.w3.org/Graphics/SVG/1.1/DTD/svg11.dtd">
<!-- Generated by graphviz version 2.43.0 (0)
 -->
<!-- Title: redirect_execution Pages: 1 -->
<!--zoomable 437 -->
<svg id="main" version="1.1" xmlns="http://www.w3.org/2000/svg" xmlns:xlink="http://www.w3.org/1999/xlink" xml:space="preserve" onload="init(evt)">
<style type="text/css"><![CDATA[
.edge:hover path { stroke: red; }
.edge:hover polygon { stroke: red; fill: red; }
]]></style>
<script type="text/javascript"><![CDATA[
var edges = document.getElementsByTagName('g');
if (edges && edges.length) {
  for (var i=0;i<edges.length;i++) {
    if (edges[i].id.substr(0,4)=='edge') {
      edges[i].setAttribute('class','edge');
    }
  }
}
]]></script>
        <defs>
                <circle id="rim" cx="0" cy="0" r="7"/>
                <circle id="rim2" cx="0" cy="0" r="3.5"/>
                <g id="zoomPlus">
                        <use xlink:href="#rim" fill="#404040">
                                <set attributeName="fill" to="#808080" begin="zoomplus.mouseover" end="zoomplus.mouseout"/>
                        </use>
                        <path d="M-4,0h8M0,-4v8" fill="none" stroke="white" stroke-width="1.5" pointer-events="none"/>
                </g>
                <g id="zoomMin">
                        <use xlink:href="#rim" fill="#404040">
                                <set attributeName="fill" to="#808080" begin="zoomminus.mouseover" end="zoomminus.mouseout"/>
                        </use>
                        <path d="M-4,0h8" fill="none" stroke="white" stroke-width="1.5" pointer-events="none"/>
                </g>
                <g id="dirArrow">
                        <path fill="none" stroke="white" stroke-width="1.5" d="M0,-3.0v7 M-2.5,-0.5L0,-3.0L2.5,-0.5"/>
                </g>
               <g id="resetDef">
                       <use xlink:href="#rim2" fill="#404040">
                               <set attributeName="fill" to="#808080" begin="reset.mouseover" end="reset.mouseout"/>
                       </use>
               </g>
        </defs>

<script type="text/javascript">
var viewWidth = 1336;
var viewHeight = 437;
var sectionId = 'dynsection-5';
</script>
<script xlink:href="svgpan.js"/>
<svg id="graph" class="graph">
<g id="viewport">
<title>redirect_execution</title>
<!-- Node1 -->
<g id="node1" class="node">
<title>Node1</title>
<g id="a_node1"><a xlink:title=" ">
<polygon fill="#999999" stroke="#666666" points="107,-76 0,-76 0,-57 107,-57 107,-76"/>
<text text-anchor="middle" x="53.5" y="-64" font-family="Helvetica,sans-Serif" font-size="10.00">redirect_execution</text>
</a>
</g>
</g>
<!-- Node2 -->
<g id="node2" class="node">
<title>Node2</title>
<g id="a_node2"><a xlink:href="execute__ast_8c.html#ad26a20a665ab7fdeb714ed53c1afd104" target="_top" xlink:title=" ">
<polygon fill="white" stroke="#666666" points="231,-186 156,-186 156,-167 231,-167 231,-186"/>
<text text-anchor="middle" x="193.5" y="-174" font-family="Helvetica,sans-Serif" font-size="10.00">execute_ast</text>
</a>
</g>
</g>
<!-- Node1&#45;&gt;Node2 -->
<g id="edge1" class="edge">
<title>Node1&#45;&gt;Node2</title>
<path fill="none" stroke="#63b8ff" d="M66.75,-76.26C90.64,-95.31 143.67,-137.58 172.65,-160.68"/>
<polygon fill="#63b8ff" stroke="#63b8ff" points="170.48,-163.42 180.48,-166.92 174.84,-157.95 170.48,-163.42"/>
</g>
<!-- Node30 -->
<g id="node30" class="node">
<title>Node30</title>
<g id="a_node30"><a xlink:href="execute__redirect_8c.html#a1b8f325fc375581f81ae47a54e09cf0e" target="_top" xlink:title=" ">
<polygon fill="white" stroke="#666666" points="226.5,-95 160.5,-95 160.5,-76 226.5,-76 226.5,-95"/>
<text text-anchor="middle" x="193.5" y="-83" font-family="Helvetica,sans-Serif" font-size="10.00">restore_fd</text>
</a>
</g>
</g>
<!-- Node1&#45;&gt;Node30 -->
<g id="edge44" class="edge">
<title>Node1&#45;&gt;Node30</title>
<path fill="none" stroke="#63b8ff" d="M107.07,-73.74C121.39,-75.71 136.72,-77.82 150.38,-79.7"/>
<polygon fill="#63b8ff" stroke="#63b8ff" points="150.07,-83.19 160.46,-81.09 151.03,-76.26 150.07,-83.19"/>
</g>
<!-- Node31 -->
<g id="node31" class="node">
<title>Node31</title>
<g id="a_node31"><a xlink:href="execute__redirect_8c.html#a6cb002bd51f2009eaacc66d388c5f9a7" target="_top" xlink:title=" ">
<polygon fill="white" stroke="#666666" points="244,-19 143,-19 143,0 244,0 244,-19"/>
<text text-anchor="middle" x="193.5" y="-7" font-family="Helvetica,sans-Serif" font-size="10.00">setup_redirection</text>
</a>
</g>
</g>
<!-- Node1&#45;&gt;Node31 -->
<g id="edge45" class="edge">
<title>Node1&#45;&gt;Node31</title>
<path fill="none" stroke="#63b8ff" d="M77.6,-56.96C100.09,-47.67 134.48,-33.46 159.78,-23.01"/>
<polygon fill="#63b8ff" stroke="#63b8ff" points="161.42,-26.12 169.33,-19.07 158.75,-19.65 161.42,-26.12"/>
</g>
<!-- Node3 -->
<g id="node3" class="node">
<title>Node3</title>
<g id="a_node3"><a xlink:href="execute__cmd_8c.html#a94ea9cc5a046ce96e36764bf0e4fa2c0" target="_top" xlink:title=" ">
<polygon fill="white" stroke="#666666" points="378.5,-393 297.5,-393 297.5,-374 378.5,-374 378.5,-393"/>
<text text-anchor="middle" x="338" y="-381" font-family="Helvetica,sans-Serif" font-size="10.00">execute_cmd</text>
</a>
</g>
</g>
<!-- Node2&#45;&gt;Node3 -->
<g id="edge2" class="edge">
<title>Node2&#45;&gt;Node3</title>
<path fill="none" stroke="#63b8ff" d="M196.07,-186.4C201.54,-217.55 222.63,-314.58 280,-365.5 282.48,-367.7 285.24,-369.64 288.15,-371.34"/>
<polygon fill="#63b8ff" stroke="#63b8ff" points="286.76,-374.55 297.29,-375.75 289.81,-368.25 286.76,-374.55"/>
</g>
<!-- Node19 -->
<g id="node19" class="node">
<title>Node19</title>
<g id="a_node19"><a xlink:href="execute__logical__and_8c.html#a4f940752faf9f9a258c49810b21efe47" target="_top" xlink:title=" ">
<polygon fill="white" stroke="#666666" points="396,-130 280,-130 280,-111 396,-111 396,-130"/>
<text text-anchor="middle" x="338" y="-118" font-family="Helvetica,sans-Serif" font-size="10.00">execute_logical_and</text>
</a>
</g>
</g>
<!-- Node2&#45;&gt;Node19 -->
<g id="edge21" class="edge">
<title>Node2&#45;&gt;Node19</title>
<path fill="none" stroke="#63b8ff" d="M203.38,-166.92C217.17,-157.35 244.87,-144.45 271.73,-133.74"/>
<polygon fill="#63b8ff" stroke="#63b8ff" points="273.13,-136.95 281.17,-130.05 270.59,-130.43 273.13,-136.95"/>
</g>
<!-- Node20 -->
<g id="node20" class="node">
<title>Node20</title>
<g id="a_node20"><a xlink:href="execute__logical__or_8c.html#a7e732d7c30b07010fa55850051007dcc" target="_top" xlink:title=" ">
<polygon fill="white" stroke="#666666" points="391.5,-93 284.5,-93 284.5,-74 391.5,-74 391.5,-93"/>
<text text-anchor="middle" x="338" y="-81" font-family="Helvetica,sans-Serif" font-size="10.00">execute_logical_or</text>
</a>
</g>
</g>
<!-- Node2&#45;&gt;Node20 -->
<g id="edge23" class="edge">
<title>Node2&#45;&gt;Node20</title>
<path fill="none" stroke="#63b8ff" d="M199.16,-166.85C210.34,-150.22 240.13,-118.58 275.78,-96.28"/>
<polygon fill="#63b8ff" stroke="#63b8ff" points="277.66,-99.24 284.46,-91.11 274.08,-93.22 277.66,-99.24"/>
</g>
<!-- Node21 -->
<g id="node21" class="node">
<title>Node21</title>
<g id="a_node21"><a xlink:href="execute__pipe_8c.html#a5f3546dc2c7cf06c982afba41e722164" target="_top" xlink:title=" ">
<polygon fill="white" stroke="#666666" points="378.5,-243 297.5,-243 297.5,-224 378.5,-224 378.5,-243"/>
<text text-anchor="middle" x="338" y="-231" font-family="Helvetica,sans-Serif" font-size="10.00">execute_pipe</text>
</a>
</g>
</g>
<!-- Node2&#45;&gt;Node21 -->
<g id="edge25" class="edge">
<title>Node2&#45;&gt;Node21</title>
<path fill="none" stroke="#63b8ff" d="M218.35,-186.04C241.68,-195.37 277.4,-209.66 303.56,-220.12"/>
<polygon fill="#63b8ff" stroke="#63b8ff" points="302.49,-223.46 313.07,-223.93 305.09,-216.96 302.49,-223.46"/>
</g>
<!-- Node26 -->
<g id="node26" class="node">
<title>Node26</title>
<g id="a_node26"><a xlink:href="execute__redirect_8c.html#a1004307aba80117ddd99f009e52fb155" target="_top" xlink:title=" ">
<polygon fill="white" stroke="#666666" points="387,-56 289,-56 289,-37 387,-37 387,-56"/>
<text text-anchor="middle" x="338" y="-44" font-family="Helvetica,sans-Serif" font-size="10.00">execute_redirect</text>
</a>
</g>
</g>
<!-- Node2&#45;&gt;Node26 -->
<g id="edge35" class="edge">
<title>Node2&#45;&gt;Node26</title>
<path fill="none" stroke="#63b8ff" d="M200.91,-166.76C217.08,-142.44 259.68,-79.95 280,-65.5 282.72,-63.57 285.65,-61.82 288.7,-60.24"/>
<polygon fill="#63b8ff" stroke="#63b8ff" points="290.41,-63.31 298.09,-56 287.53,-56.93 290.41,-63.31"/>
</g>
<!-- Node27 -->
<g id="node27" class="node">
<title>Node27</title>
<g id="a_node27"><a xlink:href="execute__repeat_8c.html#a00d48683c54b50130b4a402e6e97fa97" target="_top" xlink:title=" ">
<polygon fill="white" stroke="#666666" points="384,-356 292,-356 292,-337 384,-337 384,-356"/>
<text text-anchor="middle" x="338" y="-344" font-family="Helvetica,sans-Serif" font-size="10.00">execute_repeat</text>
</a>
</g>
</g>
<!-- Node2&#45;&gt;Node27 -->
<g id="edge37" class="edge">
<title>Node2&#45;&gt;Node27</title>
<path fill="none" stroke="#63b8ff" d="M198.65,-186.11C208.03,-212.16 233.7,-281.9 280,-319.5 288.52,-326.42 299.73,-330.69 309.95,-333.96"/>
<polygon fill="#63b8ff" stroke="#63b8ff" points="309.12,-337.37 319.7,-336.95 311.17,-330.68 309.12,-337.37"/>
</g>
<!-- Node28 -->
<g id="node28" class="node">
<title>Node28</title>
<g id="a_node28"><a xlink:href="execute__sequence_8c.html#aad2caa5bf50b0752dd8272da477ec231" target="_top" xlink:title=" ">
<polygon fill="white" stroke="#666666" points="391.5,-319 284.5,-319 284.5,-300 391.5,-300 391.5,-319"/>
<text text-anchor="middle" x="338" y="-307" font-family="Helvetica,sans-Serif" font-size="10.00">execute_sequence</text>
</a>
</g>
</g>
<!-- Node2&#45;&gt;Node28 -->
<g id="edge39" class="edge">
<title>Node2&#45;&gt;Node28</title>
<path fill="none" stroke="#63b8ff" d="M203.08,-186.13C216.67,-206.05 245.21,-249.94 280,-276.5 290.83,-284.76 304.92,-290.73 316.38,-295.74"/>
<polygon fill="#63b8ff" stroke="#63b8ff" points="315.08,-299 325.63,-299.94 317.97,-292.62 315.08,-299"/>
</g>
<!-- Node29 -->
<g id="node29" class="node">
<title>Node29</title>
<g id="a_node29"><a xlink:href="execute__subshell_8c.html#a40a27866de012b013a337f794a858d70" target="_top" xlink:title=" ">
<polygon fill="white" stroke="#666666" points="388.5,-167 287.5,-167 287.5,-148 388.5,-148 388.5,-167"/>
<text text-anchor="middle" x="338" y="-155" font-family="Helvetica,sans-Serif" font-size="10.00">execute_subshell</text>
</a>
</g>
</g>
<!-- Node2&#45;&gt;Node29 -->
<g id="edge41" class="edge">
<title>Node2&#45;&gt;Node29</title>
<path fill="none" stroke="#63b8ff" d="M224.03,-166.97C239.43,-163.94 258.86,-160.99 277.24,-158.8"/>
<polygon fill="#63b8ff" stroke="#63b8ff" points="277.77,-162.26 287.31,-157.66 276.98,-155.3 277.77,-162.26"/>
</g>
<!-- Node4 -->
<g id="node4" class="node">
<title>Node4</title>
<g id="a_node4"><a xlink:href="execute__cmd_8c.html#a0cfd2364134e68efdd39533e00b4b0d9" target="_top" xlink:title=" ">
<polygon fill="white" stroke="#666666" points="551,-356 432,-356 432,-337 551,-337 551,-356"/>
<text text-anchor="middle" x="491.5" y="-344" font-family="Helvetica,sans-Serif" font-size="10.00">execute_local_binary</text>
</a>
</g>
</g>
<!-- Node3&#45;&gt;Node4 -->
<g id="edge3" class="edge">
<title>Node3&#45;&gt;Node4</title>
<path fill="none" stroke="#63b8ff" d="M378.02,-373.97C397.38,-369.24 420.97,-363.48 441.53,-358.46"/>
<polygon fill="#63b8ff" stroke="#63b8ff" points="442.47,-361.83 451.35,-356.06 440.81,-355.03 442.47,-361.83"/>
</g>
<!-- Node13 -->
<g id="node13" class="node">
<title>Node13</title>
<g id="a_node13"><a xlink:href="execute__cmd_8c.html#a460126af28ab29df4340554fae9fc57a" target="_top" xlink:title=" ">
<polygon fill="white" stroke="#666666" points="550.5,-393 432.5,-393 432.5,-374 550.5,-374 550.5,-393"/>
<text text-anchor="middle" x="491.5" y="-381" font-family="Helvetica,sans-Serif" font-size="10.00">execute_path_binary</text>
</a>
</g>
</g>
<!-- Node3&#45;&gt;Node13 -->
<g id="edge13" class="edge">
<title>Node3&#45;&gt;Node13</title>
<path fill="none" stroke="#63b8ff" d="M378.8,-383.5C392.13,-383.5 407.38,-383.5 422.24,-383.5"/>
<polygon fill="#63b8ff" stroke="#63b8ff" points="422.44,-387 432.44,-383.5 422.44,-380 422.44,-387"/>
</g>
<!-- Node18 -->
<g id="node18" class="node">
<title>Node18</title>
<g id="a_node18"><a xlink:href="strings_8h.html#a36f055c4e56c8a784629908d0c5b91e5" target="_top" xlink:title=" ">
<polygon fill="white" stroke="#666666" points="1013,-421 909,-421 909,-402 1013,-402 1013,-421"/>
<text text-anchor="middle" x="961" y="-409" font-family="Helvetica,sans-Serif" font-size="10.00">my_is_char_in_str</text>
</a>
</g>
</g>
<!-- Node3&#45;&gt;Node18 -->
<g id="edge20" class="edge">
<title>Node3&#45;&gt;Node18</title>
<path fill="none" stroke="#63b8ff" d="M378.7,-392.33C395.14,-395.8 414.43,-399.63 432,-402.5 624.31,-433.88 675.45,-432.28 870,-421.5 879.22,-420.99 888.95,-420.19 898.47,-419.25"/>
<polygon fill="#63b8ff" stroke="#63b8ff" points="899.09,-422.71 908.68,-418.19 898.37,-415.74 899.09,-422.71"/>
</g>
<!-- Node5 -->
<g id="node5" class="node">
<title>Node5</title>
<g id="a_node5"><a xlink:href="execute__cmd_8c.html#a018afe6a043051ebc2e3dd9412587990" target="_top" xlink:title=" ">
<polygon fill="white" stroke="#666666" points="847,-337 756,-337 756,-318 847,-318 847,-337"/>
<text text-anchor="middle" x="801.5" y="-325" font-family="Helvetica,sans-Serif" font-size="10.00">execute_binary</text>
</a>
</g>
</g>
<!-- Node4&#45;&gt;Node5 -->
<g id="edge4" class="edge">
<title>Node4&#45;&gt;Node5</title>
<path fill="none" stroke="#63b8ff" d="M551.16,-342.88C607.07,-339.43 690.63,-334.28 745.35,-330.9"/>
<polygon fill="#63b8ff" stroke="#63b8ff" points="745.79,-334.38 755.56,-330.27 745.36,-327.39 745.79,-334.38"/>
</g>
<!-- Node6 -->
<g id="node6" class="node">
<title>Node6</title>
<g id="a_node6"><a xlink:href="env__to__word__array_8c.html#aea7253d35c5aa57d9cfe9d7df218cb90" target="_top" xlink:title=" ">
<polygon fill="white" stroke="#666666" points="1016,-356 906,-356 906,-337 1016,-337 1016,-356"/>
<text text-anchor="middle" x="961" y="-344" font-family="Helvetica,sans-Serif" font-size="10.00">env_to_word_array</text>
</a>
</g>
</g>
<!-- Node5&#45;&gt;Node6 -->
<g id="edge5" class="edge">
<title>Node5&#45;&gt;Node6</title>
<path fill="none" stroke="#63b8ff" d="M847.21,-332.89C862.35,-334.72 879.57,-336.8 895.91,-338.77"/>
<polygon fill="#63b8ff" stroke="#63b8ff" points="895.6,-342.26 905.95,-339.98 896.44,-335.31 895.6,-342.26"/>
</g>
<!-- Node9 -->
<g id="node9" class="node">
<title>Node9</title>
<g id="a_node9"><a xlink:href="execute__cmd_8c.html#a6badc27baa1930e30ea2ad3817f65366" target="_top" xlink:title=" ">
<polygon fill="white" stroke="#666666" points="1001,-319 921,-319 921,-300 1001,-300 1001,-319"/>
<text text-anchor="middle" x="961" y="-307" font-family="Helvetica,sans-Serif" font-size="10.00">execute_fork</text>
</a>
</g>
</g>
<!-- Node5&#45;&gt;Node9 -->
<g id="edge8" class="edge">
<title>Node5&#45;&gt;Node9</title>
<path fill="none" stroke="#63b8ff" d="M847.21,-322.39C867.05,-320.12 890.46,-317.45 910.79,-315.12"/>
<polygon fill="#63b8ff" stroke="#63b8ff" points="911.27,-318.59 920.8,-313.98 910.47,-311.64 911.27,-318.59"/>
</g>
<!-- Node7 -->
<g id="node7" class="node">
<title>Node7</title>
<g id="a_node7"><a xlink:href="misc_8h.html#a1180cae2875b1fdcd58c9f9175a82c12" target="_top" xlink:title=" ">
<polygon fill="white" stroke="#666666" points="1169,-355 1052,-355 1052,-336 1169,-336 1169,-355"/>
<text text-anchor="middle" x="1110.5" y="-343" font-family="Helvetica,sans-Serif" font-size="10.00">my_free_word_array</text>
</a>
</g>
</g>
<!-- Node6&#45;&gt;Node7 -->
<g id="edge6" class="edge">
<title>Node6&#45;&gt;Node7</title>
<path fill="none" stroke="#63b8ff" d="M1016.09,-346.13C1024.48,-346.08 1033.24,-346.02 1041.88,-345.96"/>
<polygon fill="#63b8ff" stroke="#63b8ff" points="1041.97,-349.46 1051.95,-345.89 1041.92,-342.46 1041.97,-349.46"/>
</g>
<!-- Node8 -->
<g id="node8" class="node">
<title>Node8</title>
<g id="a_node8"><a xlink:href="list_8h.html#ad5ebb7cdb26f73e4b212dfc5eae4ef0e" target="_top" xlink:title=" ">
<polygon fill="white" stroke="#666666" points="1155,-392 1066,-392 1066,-373 1155,-373 1155,-392"/>
<text text-anchor="middle" x="1110.5" y="-380" font-family="Helvetica,sans-Serif" font-size="10.00">my_list_length</text>
</a>
</g>
</g>
<!-- Node6&#45;&gt;Node8 -->
<g id="edge7" class="edge">
<title>Node6&#45;&gt;Node8</title>
<path fill="none" stroke="#63b8ff" d="M1001.14,-356.05C1019.38,-360.51 1041.28,-365.85 1060.6,-370.56"/>
<polygon fill="#63b8ff" stroke="#63b8ff" points="1059.89,-373.99 1070.43,-372.97 1061.55,-367.19 1059.89,-373.99"/>
</g>
<!-- Node9&#45;&gt;Node7 -->
<g id="edge9" class="edge">
<title>Node9&#45;&gt;Node7</title>
<path fill="none" stroke="#63b8ff" d="M1001.14,-319.05C1019.38,-323.51 1041.28,-328.85 1060.6,-333.56"/>
<polygon fill="#63b8ff" stroke="#63b8ff" points="1059.89,-336.99 1070.43,-335.97 1061.55,-330.19 1059.89,-336.99"/>
</g>
<!-- Node10 -->
<g id="node10" class="node">
<title>Node10</title>
<g id="a_node10"><a xlink:href="execute__cmd_8c.html#a2c49b9849cfef0deea03382c9f1b3ab8" target="_top" xlink:title=" ">
<polygon fill="white" stroke="#666666" points="1156.5,-318 1064.5,-318 1064.5,-299 1156.5,-299 1156.5,-318"/>
<text text-anchor="middle" x="1110.5" y="-306" font-family="Helvetica,sans-Serif" font-size="10.00">run_subprocess</text>
</a>
</g>
</g>
<!-- Node9&#45;&gt;Node10 -->
<g id="edge10" class="edge">
<title>Node9&#45;&gt;Node10</title>
<path fill="none" stroke="#63b8ff" d="M1001.14,-309.23C1017.41,-309.12 1036.58,-308.99 1054.24,-308.87"/>
<polygon fill="#63b8ff" stroke="#63b8ff" points="1054.45,-312.37 1064.43,-308.81 1054.4,-305.37 1054.45,-312.37"/>
</g>
<!-- Node11 -->
<g id="node11" class="node">
<title>Node11</title>
<g id="a_node11"><a xlink:href="wait__for__subprocess_8c.html#a1242d78540fd0ddef3d98a9f294cb0d4" target="_top" xlink:title=" ">
<polygon fill="white" stroke="#666666" points="1168.5,-281 1052.5,-281 1052.5,-262 1168.5,-262 1168.5,-281"/>
<text text-anchor="middle" x="1110.5" y="-269" font-family="Helvetica,sans-Serif" font-size="10.00">wait_for_subprocess</text>
</a>
</g>
</g>
<!-- Node9&#45;&gt;Node11 -->
<g id="edge11" class="edge">
<title>Node9&#45;&gt;Node11</title>
<path fill="none" stroke="#63b8ff" d="M999.22,-299.91C1018.51,-294.94 1042.26,-288.82 1062.77,-283.54"/>
<polygon fill="#63b8ff" stroke="#63b8ff" points="1063.74,-286.9 1072.55,-281.02 1061.99,-280.13 1063.74,-286.9"/>
</g>
<!-- Node12 -->
<g id="node12" class="node">
<title>Node12</title>
<g id="a_node12"><a xlink:href="wait__for__subprocess_8c.html#a885766ba6ba593b7cf27b917dd52b1a6" target="_top" xlink:title=" ">
<polygon fill="white" stroke="#666666" points="1328,-281 1205,-281 1205,-262 1328,-262 1328,-281"/>
<text text-anchor="middle" x="1266.5" y="-269" font-family="Helvetica,sans-Serif" font-size="10.00">print_signal_message</text>
</a>
</g>
</g>
<!-- Node11&#45;&gt;Node12 -->
<g id="edge12" class="edge">
<title>Node11&#45;&gt;Node12</title>
<path fill="none" stroke="#63b8ff" d="M1168.84,-271.5C1177.26,-271.5 1186.02,-271.5 1194.67,-271.5"/>
<polygon fill="#63b8ff" stroke="#63b8ff" points="1194.76,-275 1204.76,-271.5 1194.76,-268 1194.76,-275"/>
</g>
<!-- Node14 -->
<g id="node14" class="node">
<title>Node14</title>
<g id="a_node14"><a xlink:href="get__variable__value_8c.html#a2edd9900f19af236aa05385a789be3d6" target="_top" xlink:title=" ">
<polygon fill="white" stroke="#666666" points="697,-412 587,-412 587,-393 697,-393 697,-412"/>
<text text-anchor="middle" x="642" y="-400" font-family="Helvetica,sans-Serif" font-size="10.00">get_variable_value</text>
</a>
</g>
</g>
<!-- Node13&#45;&gt;Node14 -->
<g id="edge14" class="edge">
<title>Node13&#45;&gt;Node14</title>
<path fill="none" stroke="#63b8ff" d="M550.76,-390.95C559.29,-392.05 568.11,-393.17 576.75,-394.28"/>
<polygon fill="#63b8ff" stroke="#63b8ff" points="576.42,-397.77 586.78,-395.56 577.3,-390.82 576.42,-397.77"/>
</g>
<!-- Node16 -->
<g id="node16" class="node">
<title>Node16</title>
<g id="a_node16"><a xlink:href="execute__cmd_8c.html#aee9e13edede9df28fac066f30e7ae7ed" target="_top" xlink:title=" ">
<polygon fill="white" stroke="#666666" points="684,-375 600,-375 600,-356 684,-356 684,-375"/>
<text text-anchor="middle" x="642" y="-363" font-family="Helvetica,sans-Serif" font-size="10.00">try_command</text>
</a>
</g>
</g>
<!-- Node13&#45;&gt;Node16 -->
<g id="edge16" class="edge">
<title>Node13&#45;&gt;Node16</title>
<path fill="none" stroke="#63b8ff" d="M550.76,-376.44C563.59,-374.88 577.08,-373.25 589.61,-371.73"/>
<polygon fill="#63b8ff" stroke="#63b8ff" points="590.36,-375.16 599.87,-370.49 589.52,-368.21 590.36,-375.16"/>
</g>
<!-- Node15 -->
<g id="node15" class="node">
<title>Node15</title>
<g id="a_node15"><a xlink:href="get__variable_8c.html#a569170390f0edf013bf89c26ef55ea8c" target="_top" xlink:title=" ">
<polygon fill="white" stroke="#666666" points="840,-412 763,-412 763,-393 840,-393 840,-412"/>
<text text-anchor="middle" x="801.5" y="-400" font-family="Helvetica,sans-Serif" font-size="10.00">get_variable</text>
</a>
</g>
</g>
<!-- Node14&#45;&gt;Node15 -->
<g id="edge15" class="edge">
<title>Node14&#45;&gt;Node15</title>
<path fill="none" stroke="#63b8ff" d="M697.2,-402.5C715.04,-402.5 734.73,-402.5 752.11,-402.5"/>
<polygon fill="#63b8ff" stroke="#63b8ff" points="752.58,-406 762.58,-402.5 752.58,-399 752.58,-406"/>
</g>
<!-- Node16&#45;&gt;Node5 -->
<g id="edge17" class="edge">
<title>Node16&#45;&gt;Node5</title>
<path fill="none" stroke="#63b8ff" d="M682.74,-355.91C703.53,-350.9 729.16,-344.71 751.2,-339.39"/>
<polygon fill="#63b8ff" stroke="#63b8ff" points="752.14,-342.77 761.04,-337.02 750.5,-335.96 752.14,-342.77"/>
</g>
<!-- Node17 -->
<g id="node17" class="node">
<title>Node17</title>
<g id="a_node17"><a xlink:href="execute__cmd_8c.html#a9ef2f2dfa839f59ba42718ef236d4dcb" target="_top" xlink:title=" ">
<polygon fill="white" stroke="#666666" points="870,-375 733,-375 733,-356 870,-356 870,-375"/>
<text text-anchor="middle" x="801.5" y="-363" font-family="Helvetica,sans-Serif" font-size="10.00">print_permission_denied</text>
</a>
</g>
</g>
<!-- Node16&#45;&gt;Node17 -->
<g id="edge18" class="edge">
<title>Node16&#45;&gt;Node17</title>
<path fill="none" stroke="#63b8ff" d="M684.38,-365.5C696.22,-365.5 709.52,-365.5 722.79,-365.5"/>
<polygon fill="#63b8ff" stroke="#63b8ff" points="722.9,-369 732.9,-365.5 722.9,-362 722.9,-369"/>
</g>
<!-- Node17&#45;&gt;Node18 -->
<g id="edge19" class="edge">
<title>Node17&#45;&gt;Node18</title>
<path fill="none" stroke="#63b8ff" d="M836.87,-375.05C847.5,-378.04 859.25,-381.37 870,-384.5 886.06,-389.17 903.7,-394.43 919.07,-399.06"/>
<polygon fill="#63b8ff" stroke="#63b8ff" points="918.22,-402.46 928.8,-402 920.24,-395.76 918.22,-402.46"/>
</g>
<!-- Node19&#45;&gt;Node2 -->
<g id="edge22" class="edge">
<title>Node19&#45;&gt;Node2</title>
<path fill="none" stroke="#63b8ff" d="M326.82,-130.15C315.34,-136.16 296.17,-142.32 280,-148.5 267.12,-153.42 253.33,-159.17 240.67,-164.32"/>
<polygon fill="#63b8ff" stroke="#63b8ff" points="239.22,-161.13 231.25,-168.11 241.83,-167.62 239.22,-161.13"/>
</g>
<!-- Node20&#45;&gt;Node2 -->
<g id="edge24" class="edge">
<title>Node20&#45;&gt;Node2</title>
<path fill="none" stroke="#63b8ff" d="M324.63,-93.02C312.68,-98.02 294.32,-103.35 280,-111.5 256.47,-124.9 233.47,-145.35 217.26,-159.95"/>
<polygon fill="#63b8ff" stroke="#63b8ff" points="214.53,-157.69 209.44,-166.98 219.22,-162.9 214.53,-157.69"/>
</g>
<!-- Node21&#45;&gt;Node11 -->
<g id="edge34" class="edge">
<title>Node21&#45;&gt;Node11</title>
<path fill="none" stroke="#63b8ff" d="M378.86,-241.75C436.45,-252.92 546.41,-271.5 641,-271.5 641,-271.5 641,-271.5 802.5,-271.5 885.05,-271.5 980.08,-271.5 1042.28,-271.5"/>
<polygon fill="#63b8ff" stroke="#63b8ff" points="1042.35,-275 1052.35,-271.5 1042.35,-268 1042.35,-275"/>
</g>
<!-- Node22 -->
<g id="node22" class="node">
<title>Node22</title>
<g id="a_node22"><a xlink:href="execute__pipe_8c.html#a723ff799f939872d17f109a82342294e" target="_top" xlink:title=" ">
<polygon fill="white" stroke="#666666" points="673,-243 611,-243 611,-224 673,-224 673,-243"/>
<text text-anchor="middle" x="642" y="-231" font-family="Helvetica,sans-Serif" font-size="10.00">close_fds</text>
</a>
</g>
</g>
<!-- Node21&#45;&gt;Node22 -->
<g id="edge26" class="edge">
<title>Node21&#45;&gt;Node22</title>
<path fill="none" stroke="#63b8ff" d="M378.79,-233.5C436.39,-233.5 542.43,-233.5 600.45,-233.5"/>
<polygon fill="#63b8ff" stroke="#63b8ff" points="600.71,-237 610.71,-233.5 600.71,-230 600.71,-237"/>
</g>
<!-- Node23 -->
<g id="node23" class="node">
<title>Node23</title>
<g id="a_node23"><a xlink:href="execute__pipe_8c.html#ac529ffc2370b0133613ef8a81e58ed85" target="_top" xlink:title=" ">
<polygon fill="white" stroke="#666666" points="542.5,-319 440.5,-319 440.5,-300 542.5,-300 542.5,-319"/>
<text text-anchor="middle" x="491.5" y="-307" font-family="Helvetica,sans-Serif" font-size="10.00">execute_pipe_left</text>
</a>
</g>
</g>
<!-- Node21&#45;&gt;Node23 -->
<g id="edge27" class="edge">
<title>Node21&#45;&gt;Node23</title>
<path fill="none" stroke="#63b8ff" d="M365.8,-243.1C375.58,-247.03 386.55,-251.97 396,-257.5 413.49,-267.74 414.46,-275.34 432,-285.5 438.66,-289.36 446.06,-292.91 453.3,-296.02"/>
<polygon fill="#63b8ff" stroke="#63b8ff" points="452.4,-299.43 462.98,-299.99 455.05,-292.96 452.4,-299.43"/>
</g>
<!-- Node24 -->
<g id="node24" class="node">
<title>Node24</title>
<g id="a_node24"><a xlink:href="execute__pipe_8c.html#a9ed6eabb8a9f7049f91265a5f45e30c8" target="_top" xlink:title=" ">
<polygon fill="white" stroke="#666666" points="546,-205 437,-205 437,-186 546,-186 546,-205"/>
<text text-anchor="middle" x="491.5" y="-193" font-family="Helvetica,sans-Serif" font-size="10.00">execute_pipe_right</text>
</a>
</g>
</g>
<!-- Node21&#45;&gt;Node24 -->
<g id="edge30" class="edge">
<title>Node21&#45;&gt;Node24</title>
<path fill="none" stroke="#63b8ff" d="M377.23,-223.91C397.13,-218.92 421.66,-212.77 442.79,-207.47"/>
<polygon fill="#63b8ff" stroke="#63b8ff" points="443.7,-210.85 452.55,-205.02 441.99,-204.06 443.7,-210.85"/>
</g>
<!-- Node23&#45;&gt;Node2 -->
<g id="edge29" class="edge">
<title>Node23&#45;&gt;Node2</title>
<path fill="none" stroke="#63b8ff" d="M445.71,-299.91C392.83,-288.15 308.48,-267.89 280,-252.5 251.92,-237.32 225.4,-211.25 209.55,-193.94"/>
<polygon fill="#63b8ff" stroke="#63b8ff" points="211.94,-191.36 202.67,-186.24 206.72,-196.03 211.94,-191.36"/>
</g>
<!-- Node23&#45;&gt;Node22 -->
<g id="edge28" class="edge">
<title>Node23&#45;&gt;Node22</title>
<path fill="none" stroke="#63b8ff" d="M511.31,-299.87C537.08,-286.68 583.57,-262.89 613.32,-247.67"/>
<polygon fill="#63b8ff" stroke="#63b8ff" points="615.04,-250.72 622.35,-243.05 611.85,-244.49 615.04,-250.72"/>
</g>
<!-- Node24&#45;&gt;Node2 -->
<g id="edge32" class="edge">
<title>Node24&#45;&gt;Node2</title>
<path fill="none" stroke="#63b8ff" d="M436.97,-192.06C381.13,-188.48 294.45,-182.92 241.26,-179.5"/>
<polygon fill="#63b8ff" stroke="#63b8ff" points="241.3,-176 231.09,-178.85 240.85,-182.98 241.3,-176"/>
</g>
<!-- Node24&#45;&gt;Node22 -->
<g id="edge31" class="edge">
<title>Node24&#45;&gt;Node22</title>
<path fill="none" stroke="#63b8ff" d="M529.97,-205.09C551.58,-210.62 578.75,-217.57 600.8,-223.21"/>
<polygon fill="#63b8ff" stroke="#63b8ff" points="599.98,-226.62 610.53,-225.7 601.71,-219.83 599.98,-226.62"/>
</g>
<!-- Node25 -->
<g id="node25" class="node">
<title>Node25</title>
<g id="a_node25"><a xlink:href="execute__pipe_8c.html#ac3d3a124b262676fa0679720f99a7f83" target="_top" xlink:title=" ">
<polygon fill="white" stroke="#666666" points="682,-205 602,-205 602,-186 682,-186 682,-205"/>
<text text-anchor="middle" x="642" y="-193" font-family="Helvetica,sans-Serif" font-size="10.00">restore_stdin</text>
</a>
</g>
</g>
<!-- Node24&#45;&gt;Node25 -->
<g id="edge33" class="edge">
<title>Node24&#45;&gt;Node25</title>
<path fill="none" stroke="#63b8ff" d="M546.11,-195.5C560.95,-195.5 576.99,-195.5 591.58,-195.5"/>
<polygon fill="#63b8ff" stroke="#63b8ff" points="591.91,-199 601.91,-195.5 591.91,-192 591.91,-199"/>
</g>
<!-- Node26&#45;&gt;Node1 -->
<g id="edge36" class="edge">
<title>Node26&#45;&gt;Node1</title>
<path fill="none" stroke="#63b8ff" d="M288.7,-49.92C241.4,-53.27 169.12,-58.39 117.37,-62.05"/>
<polygon fill="#63b8ff" stroke="#63b8ff" points="117.03,-58.56 107.3,-62.76 117.53,-65.55 117.03,-58.56"/>
</g>
<!-- Node27&#45;&gt;Node2 -->
<g id="edge38" class="edge">
<title>Node27&#45;&gt;Node2</title>
<path fill="none" stroke="#63b8ff" d="M291.76,-344.79C287.55,-342.8 283.54,-340.38 280,-337.5 233.77,-299.95 208.1,-230.36 198.69,-196.06"/>
<polygon fill="#63b8ff" stroke="#63b8ff" points="202.06,-195.08 196.21,-186.24 195.27,-196.8 202.06,-195.08"/>
</g>
<!-- Node28&#45;&gt;Node2 -->
<g id="edge40" class="edge">
<title>Node28&#45;&gt;Node2</title>
<path fill="none" stroke="#63b8ff" d="M288.15,-299.97C285.3,-298.28 282.56,-296.45 280,-294.5 244.22,-267.18 215.06,-221.55 201.96,-195.47"/>
<polygon fill="#63b8ff" stroke="#63b8ff" points="205.03,-193.77 197.62,-186.2 198.69,-196.74 205.03,-193.77"/>
</g>
<!-- Node29&#45;&gt;Node2 -->
<g id="edge42" class="edge">
<title>Node29&#45;&gt;Node2</title>
<path fill="none" stroke="#63b8ff" d="M307.6,-167C288.48,-170.77 263.13,-174.41 241.28,-176.65"/>
<polygon fill="#63b8ff" stroke="#63b8ff" points="240.83,-173.17 231.2,-177.6 241.48,-180.14 240.83,-173.17"/>
</g>
<!-- Node29&#45;&gt;Node11 -->
<g id="edge43" class="edge">
<title>Node29&#45;&gt;Node11</title>
<path fill="none" stroke="#63b8ff" d="M388.7,-157.5C448.55,-157.5 552.13,-157.5 641,-157.5 641,-157.5 641,-157.5 802.5,-157.5 914.93,-157.5 1036.86,-225.53 1086.52,-256.48"/>
<polygon fill="#63b8ff" stroke="#63b8ff" points="1084.87,-259.58 1095.2,-261.98 1088.62,-253.67 1084.87,-259.58"/>
</g>
<!-- Node32 -->
<g id="node32" class="node">
<title>Node32</title>
<g id="a_node32"><a xlink:href="execute__redirect_8c.html#a0e31af51537a8c047a3aca7cdb63d5dd" target="_top" xlink:title=" ">
<polygon fill="white" stroke="#666666" points="387,-19 289,-19 289,0 387,0 387,-19"/>
<text text-anchor="middle" x="338" y="-7" font-family="Helvetica,sans-Serif" font-size="10.00">open_redirect_fd</text>
</a>
</g>
</g>
<!-- Node31&#45;&gt;Node32 -->
<g id="edge46" class="edge">
<title>Node31&#45;&gt;Node32</title>
<path fill="none" stroke="#63b8ff" d="M244.34,-9.5C255.4,-9.5 267.22,-9.5 278.59,-9.5"/>
<polygon fill="#63b8ff" stroke="#63b8ff" points="278.87,-13 288.87,-9.5 278.87,-6 278.87,-13"/>
</g>
<!-- Node33 -->
<g id="node33" class="node">
<title>Node33</title>
<g id="a_node33"><a xlink:href="execute__redirect_8c.html#a71feea783167b3804f2793a232ca74b4" target="_top" xlink:title=" ">
<polygon fill="white" stroke="#666666" points="527,-19 456,-19 456,0 527,0 527,-19"/>
<text text-anchor="middle" x="491.5" y="-7" font-family="Helvetica,sans-Serif" font-size="10.00">heredoc_fd</text>
</a>
</g>
</g>
<!-- Node32&#45;&gt;Node33 -->
<g id="edge47" class="edge">
<title>Node32&#45;&gt;Node33</title>
<path fill="none" stroke="#63b8ff" d="M387.35,-9.5C405.97,-9.5 427.14,-9.5 445.44,-9.5"/>
<polygon fill="#63b8ff" stroke="#63b8ff" points="445.55,-13 455.55,-9.5 445.55,-6 445.55,-13"/>
</g>
<!-- Node34 -->
<g id="node34" class="node">
<title>Node34</title>
<g id="a_node34"><a xlink:href="execute__redirect_8c.html#a639d0a6f315a3bae78d204ff798e314f" target="_top" xlink:title=" ">
<polygon fill="white" stroke="#666666" points="695.5,-19 588.5,-19 588.5,0 695.5,0 695.5,-19"/>
<text text-anchor="middle" x="642" y="-7" font-family="Helvetica,sans-Serif" font-size="10.00">get_heredoc_input</text>
</a>
</g>
</g>
<!-- Node33&#45;&gt;Node34 -->
<g id="edge48" class="edge">
<title>Node33&#45;&gt;Node34</title>
<path fill="none" stroke="#63b8ff" d="M527.32,-9.5C542.51,-9.5 560.8,-9.5 578.23,-9.5"/>
<polygon fill="#63b8ff" stroke="#63b8ff" points="578.37,-13 588.37,-9.5 578.37,-6 578.37,-13"/>
</g>
<!-- Node35 -->
<g id="node35" class="node">
<title>Node35</title>
<g id="a_node35"><a xlink:href="execute__redirect_8c.html#a4e396606481bc13335d3dfae7ff15407" target="_top" xlink:title=" ">
<polygon fill="white" stroke="#666666" points="852.5,-19 750.5,-19 750.5,0 852.5,0 852.5,-19"/>
<text text-anchor="middle" x="801.5" y="-7" font-family="Helvetica,sans-Serif" font-size="10.00">is_heredoc_delim</text>
</a>
</g>
</g>
<!-- Node34&#45;&gt;Node35 -->
<g id="edge49" class="edge">
<title>Node34&#45;&gt;Node35</title>
<path fill="none" stroke="#63b8ff" d="M695.88,-9.5C710.05,-9.5 725.47,-9.5 740.02,-9.5"/>
<polygon fill="#63b8ff" stroke="#63b8ff" points="740.42,-13 750.42,-9.5 740.42,-6 740.42,-13"/>
</g>
</g>
</svg>
        <g id="navigator" transform="translate(0 0)" fill="#404254">
                <rect fill="#f2f5e9" fill-opacity="0.5" stroke="#606060" stroke-width=".5" x="0" y="0" width="60" height="60"/>
                <use id="zoomplus" xlink:href="#zoomPlus" x="17" y="9" onmousedown="handleZoom(evt,'in')"/>
                <use id="zoomminus" xlink:href="#zoomMin" x="42" y="9" onmousedown="handleZoom(evt,'out')"/>
                <use id="reset" xlink:href="#resetDef" x="30" y="36" onmousedown="handleReset()"/>
                <g id="arrowUp" xlink:href="#dirArrow" transform="translate(30 24)" onmousedown="handlePan(0,-1)">
                  <use xlink:href="#rim" fill="#404040">
                        <set attributeName="fill" to="#808080" begin="arrowUp.mouseover" end="arrowUp.mouseout"/>
                  </use>
                  <path fill="none" stroke="white" stroke-width="1.5" d="M0,-3.0v7 M-2.5,-0.5L0,-3.0L2.5,-0.5"/>
                </g>
                <g id="arrowRight" xlink:href="#dirArrow" transform="rotate(90) translate(36 -43)" onmousedown="handlePan(1,0)">
                  <use xlink:href="#rim" fill="#404040">
                        <set attributeName="fill" to="#808080" begin="arrowRight.mouseover" end="arrowRight.mouseout"/>
                  </use>
                  <path fill="none" stroke="white" stroke-width="1.5" d="M0,-3.0v7 M-2.5,-0.5L0,-3.0L2.5,-0.5"/>
                </g>
                <g id="arrowDown" xlink:href="#dirArrow" transform="rotate(180) translate(-30 -48)" onmousedown="handlePan(0,1)">
                  <use xlink:href="#rim" fill="#404040">
                        <set attributeName="fill" to="#808080" begin="arrowDown.mouseover" end="arrowDown.mouseout"/>
                  </use>
                  <path fill="none" stroke="white" stroke-width="1.5" d="M0,-3.0v7 M-2.5,-0.5L0,-3.0L2.5,-0.5"/>
                </g>
                <g id="arrowLeft" xlink:href="#dirArrow" transform="rotate(270) translate(-36 17)" onmousedown="handlePan(-1,0)">
                  <use xlink:href="#rim" fill="#404040">
                        <set attributeName="fill" to="#808080" begin="arrowLeft.mouseover" end="arrowLeft.mouseout"/>
                  </use>
                  <path fill="none" stroke="white" stroke-width="1.5" d="M0,-3.0v7 M-2.5,-0.5L0,-3.0L2.5,-0.5"/>
                </g>
        </g>
        <svg viewBox="0 0 15 15" width="100%" height="30px" preserveAspectRatio="xMaxYMin meet">
         <g id="arrow_out" transform="scale(0.3 0.3)">
          <a xlink:href="execute__redirect_8c_a5aa0f008806cc0e8a7ba252d61b7001f_cgraph_org.svg" target="_base">
           <rect id="button" ry="5" rx="5" y="6" x="6" height="38" width="38"
                fill="#f2f5e9" fill-opacity="0.5" stroke="#606060" stroke-width="1.0"/>
           <path id="arrow"
             d="M 11.500037,31.436501 C 11.940474,20.09759 22.043105,11.32322 32.158766,21.979434 L 37.068811,17.246167 C 37.068811,17.246167 37.088388,32 37.088388,32 L 22.160133,31.978069 C 22.160133,31.978069 26.997745,27.140456 26.997745,27.140456 C 18.528582,18.264221 13.291696,25.230495 11.500037,31.436501 z"
             style="fill:#404040;"/>
          </a>
         </g>
        </svg>
</svg>
