<?xml version="1.0" encoding="UTF-8" standalone="no"?>
<!DOCTYPE svg PUBLIC "-//W3C//DTD SVG 1.1//EN"
 "http://www.w3.org/Graphics/SVG/1.1/DTD/svg11.dtd">
<!-- Generated by graphviz version 2.43.0 (0)
 -->
<!-- Title: execute_ast Pages: 1 -->
<!--zoomable 466 -->
<svg id="main" version="1.1" xmlns="http://www.w3.org/2000/svg" xmlns:xlink="http://www.w3.org/1999/xlink" xml:space="preserve" onload="init(evt)">
<style type="text/css"><![CDATA[
.edge:hover path { stroke: red; }
.edge:hover polygon { stroke: red; fill: red; }
]]></style>
<script type="text/javascript"><![CDATA[
var edges = document.getElementsByTagName('g');
if (edges && edges.length) {
  for (var i=0;i<edges.length;i++) {
    if (edges[i].id.substr(0,4)=='edge') {
      edges[i].setAttribute('class','edge');
    }
  }
}
]]></script>
        <defs>
                <circle id="rim" cx="0" cy="0" r="7"/>
                <circle id="rim2" cx="0" cy="0" r="3.5"/>
                <g id="zoomPlus">
                        <use xlink:href="#rim" fill="#404040">
                                <set attributeName="fill" to="#808080" begin="zoomplus.mouseover" end="zoomplus.mouseout"/>
                        </use>
                        <path d="M-4,0h8M0,-4v8" fill="none" stroke="white" stroke-width="1.5" pointer-events="none"/>
                </g>
                <g id="zoomMin">
                        <use xlink:href="#rim" fill="#404040">
                                <set attributeName="fill" to="#808080" begin="zoomminus.mouseover" end="zoomminus.mouseout"/>
                        </use>
                        <path d="M-4,0h8" fill="none" stroke="white" stroke-width="1.5" pointer-events="none"/>
                </g>
                <g id="dirArrow">
                        <path fill="none" stroke="white" stroke-width="1.5" d="M0,-3.0v7 M-2.5,-0.5L0,-3.0L2.5,-0.5"/>
                </g>
               <g id="resetDef">
                       <use xlink:href="#rim2" fill="#404040">
                               <set attributeName="fill" to="#808080" begin="reset.mouseover" end="reset.mouseout"/>
                       </use>
               </g>
        </defs>

<script type="text/javascript">
var viewWidth = 1167;
var viewHeight = 466;
var sectionId = 'dynsection-1';
</script>
<script xlink:href="svgpan.js"/>
<svg id="graph" class="graph">
<g id="viewport">
<title>execute_ast</title>
<!-- Node1 -->
<g id="node1" class="node">
<title>Node1</title>
<g id="a_node1"><a xlink:title=" ">
<polygon fill="#999999" stroke="#666666" points="75,-224 0,-224 0,-205 75,-205 75,-224"/>
<text text-anchor="middle" x="37.5" y="-212" font-family="Helvetica,sans-Serif" font-size="10.00">execute_ast</text>
</a>
</g>
</g>
<!-- Node2 -->
<g id="node2" class="node">
<title>Node2</title>
<g id="a_node2"><a xlink:href="execute__cmd_8c.html#a94ea9cc5a046ce96e36764bf0e4fa2c0" target="_top" xlink:title=" ">
<polygon fill="white" stroke="#666666" points="209.5,-392 128.5,-392 128.5,-373 209.5,-373 209.5,-392"/>
<text text-anchor="middle" x="169" y="-380" font-family="Helvetica,sans-Serif" font-size="10.00">execute_cmd</text>
</a>
</g>
</g>
<!-- Node1&#45;&gt;Node2 -->
<g id="edge1" class="edge">
<title>Node1&#45;&gt;Node2</title>
<path fill="none" stroke="#63b8ff" d="M40.39,-224.19C46.08,-250.72 65.5,-325.14 111,-364.5 113.51,-366.67 116.29,-368.58 119.22,-370.26"/>
<polygon fill="#63b8ff" stroke="#63b8ff" points="117.85,-373.49 128.38,-374.65 120.87,-367.17 117.85,-373.49"/>
</g>
<!-- Node18 -->
<g id="node18" class="node">
<title>Node18</title>
<g id="a_node18"><a xlink:href="execute__logical__and_8c.html#a4f940752faf9f9a258c49810b21efe47" target="_top" xlink:title=" ">
<polygon fill="white" stroke="#666666" points="227,-355 111,-355 111,-336 227,-336 227,-355"/>
<text text-anchor="middle" x="169" y="-343" font-family="Helvetica,sans-Serif" font-size="10.00">execute_logical_and</text>
</a>
</g>
</g>
<!-- Node1&#45;&gt;Node18 -->
<g id="edge21" class="edge">
<title>Node1&#45;&gt;Node18</title>
<path fill="none" stroke="#63b8ff" d="M44.23,-224.1C54.14,-244.95 76.75,-292.3 111,-318.5 119.9,-325.31 131.44,-329.58 141.8,-332.91"/>
<polygon fill="#63b8ff" stroke="#63b8ff" points="141.04,-336.34 151.63,-335.99 143.14,-329.66 141.04,-336.34"/>
</g>
<!-- Node19 -->
<g id="node19" class="node">
<title>Node19</title>
<g id="a_node19"><a xlink:href="execute__logical__or_8c.html#a7e732d7c30b07010fa55850051007dcc" target="_top" xlink:title=" ">
<polygon fill="white" stroke="#666666" points="222.5,-318 115.5,-318 115.5,-299 222.5,-299 222.5,-318"/>
<text text-anchor="middle" x="169" y="-306" font-family="Helvetica,sans-Serif" font-size="10.00">execute_logical_or</text>
</a>
</g>
</g>
<!-- Node1&#45;&gt;Node19 -->
<g id="edge23" class="edge">
<title>Node1&#45;&gt;Node19</title>
<path fill="none" stroke="#63b8ff" d="M50.03,-224.13C63.01,-238.94 85.62,-265.68 111,-281.5 121.01,-287.74 133.37,-291.99 144.02,-295.57"/>
<polygon fill="#63b8ff" stroke="#63b8ff" points="142.98,-298.91 153.57,-298.84 145.24,-292.29 142.98,-298.91"/>
</g>
<!-- Node20 -->
<g id="node20" class="node">
<title>Node20</title>
<g id="a_node20"><a xlink:href="execute__pipe_8c.html#a5f3546dc2c7cf06c982afba41e722164" target="_top" xlink:title=" ">
<polygon fill="white" stroke="#666666" points="209.5,-131 128.5,-131 128.5,-112 209.5,-112 209.5,-131"/>
<text text-anchor="middle" x="169" y="-119" font-family="Helvetica,sans-Serif" font-size="10.00">execute_pipe</text>
</a>
</g>
</g>
<!-- Node1&#45;&gt;Node20 -->
<g id="edge25" class="edge">
<title>Node1&#45;&gt;Node20</title>
<path fill="none" stroke="#63b8ff" d="M45.19,-204.98C56.79,-189.12 82.2,-157.32 111,-139.5 113.65,-137.86 116.46,-136.36 119.36,-134.98"/>
<polygon fill="#63b8ff" stroke="#63b8ff" points="120.97,-138.1 128.84,-131.01 118.26,-131.65 120.97,-138.1"/>
</g>
<!-- Node25 -->
<g id="node25" class="node">
<title>Node25</title>
<g id="a_node25"><a xlink:href="execute__redirect_8c.html#a1004307aba80117ddd99f009e52fb155" target="_top" xlink:title=" ">
<polygon fill="white" stroke="#666666" points="218,-55 120,-55 120,-36 218,-36 218,-55"/>
<text text-anchor="middle" x="169" y="-43" font-family="Helvetica,sans-Serif" font-size="10.00">execute_redirect</text>
</a>
</g>
</g>
<!-- Node1&#45;&gt;Node25 -->
<g id="edge35" class="edge">
<title>Node1&#45;&gt;Node25</title>
<path fill="none" stroke="#63b8ff" d="M40.78,-204.97C47.32,-179.55 68.48,-109.33 111,-69.5 115.11,-65.65 119.94,-62.36 125.01,-59.58"/>
<polygon fill="#63b8ff" stroke="#63b8ff" points="126.81,-62.59 134.3,-55.09 123.77,-56.29 126.81,-62.59"/>
</g>
<!-- Node33 -->
<g id="node33" class="node">
<title>Node33</title>
<g id="a_node33"><a xlink:href="execute__repeat_8c.html#a00d48683c54b50130b4a402e6e97fa97" target="_top" xlink:title=" ">
<polygon fill="white" stroke="#666666" points="215,-205 123,-205 123,-186 215,-186 215,-205"/>
<text text-anchor="middle" x="169" y="-193" font-family="Helvetica,sans-Serif" font-size="10.00">execute_repeat</text>
</a>
</g>
</g>
<!-- Node1&#45;&gt;Node33 -->
<g id="edge44" class="edge">
<title>Node1&#45;&gt;Node33</title>
<path fill="none" stroke="#63b8ff" d="M65.33,-204.97C79.08,-202 96.34,-199.1 112.76,-196.92"/>
<polygon fill="#63b8ff" stroke="#63b8ff" points="113.36,-200.37 122.84,-195.66 112.49,-193.43 113.36,-200.37"/>
</g>
<!-- Node34 -->
<g id="node34" class="node">
<title>Node34</title>
<g id="a_node34"><a xlink:href="execute__sequence_8c.html#aad2caa5bf50b0752dd8272da477ec231" target="_top" xlink:title=" ">
<polygon fill="white" stroke="#666666" points="222.5,-168 115.5,-168 115.5,-149 222.5,-149 222.5,-168"/>
<text text-anchor="middle" x="169" y="-156" font-family="Helvetica,sans-Serif" font-size="10.00">execute_sequence</text>
</a>
</g>
</g>
<!-- Node1&#45;&gt;Node34 -->
<g id="edge46" class="edge">
<title>Node1&#45;&gt;Node34</title>
<path fill="none" stroke="#63b8ff" d="M45.94,-204.79C57.47,-195.1 80.63,-182.03 105.98,-170.76"/>
<polygon fill="#63b8ff" stroke="#63b8ff" points="107.6,-173.88 115.4,-166.71 104.83,-167.45 107.6,-173.88"/>
</g>
<!-- Node35 -->
<g id="node35" class="node">
<title>Node35</title>
<g id="a_node35"><a xlink:href="execute__subshell_8c.html#a40a27866de012b013a337f794a858d70" target="_top" xlink:title=" ">
<polygon fill="white" stroke="#666666" points="219.5,-281 118.5,-281 118.5,-262 219.5,-262 219.5,-281"/>
<text text-anchor="middle" x="169" y="-269" font-family="Helvetica,sans-Serif" font-size="10.00">execute_subshell</text>
</a>
</g>
</g>
<!-- Node1&#45;&gt;Node35 -->
<g id="edge48" class="edge">
<title>Node1&#45;&gt;Node35</title>
<path fill="none" stroke="#63b8ff" d="M75.29,-222.91C86.7,-227.7 99.35,-233.4 111,-238.5 124.24,-244.3 139.31,-250.63 150.63,-256.64"/>
<polygon fill="#63b8ff" stroke="#63b8ff" points="149.07,-259.79 159.47,-261.82 152.61,-253.75 149.07,-259.79"/>
</g>
<!-- Node3 -->
<g id="node3" class="node">
<title>Node3</title>
<g id="a_node3"><a xlink:href="execute__cmd_8c.html#a0cfd2364134e68efdd39533e00b4b0d9" target="_top" xlink:title=" ">
<polygon fill="white" stroke="#666666" points="382,-429 263,-429 263,-410 382,-410 382,-429"/>
<text text-anchor="middle" x="322.5" y="-417" font-family="Helvetica,sans-Serif" font-size="10.00">execute_local_binary</text>
</a>
</g>
</g>
<!-- Node2&#45;&gt;Node3 -->
<g id="edge2" class="edge">
<title>Node2&#45;&gt;Node3</title>
<path fill="none" stroke="#63b8ff" d="M209.02,-392.03C228.38,-396.76 251.97,-402.52 272.53,-407.54"/>
<polygon fill="#63b8ff" stroke="#63b8ff" points="271.81,-410.97 282.35,-409.94 273.47,-404.17 271.81,-410.97"/>
</g>
<!-- Node12 -->
<g id="node12" class="node">
<title>Node12</title>
<g id="a_node12"><a xlink:href="execute__cmd_8c.html#a460126af28ab29df4340554fae9fc57a" target="_top" xlink:title=" ">
<polygon fill="white" stroke="#666666" points="381.5,-392 263.5,-392 263.5,-373 381.5,-373 381.5,-392"/>
<text text-anchor="middle" x="322.5" y="-380" font-family="Helvetica,sans-Serif" font-size="10.00">execute_path_binary</text>
</a>
</g>
</g>
<!-- Node2&#45;&gt;Node12 -->
<g id="edge13" class="edge">
<title>Node2&#45;&gt;Node12</title>
<path fill="none" stroke="#63b8ff" d="M209.8,-382.5C223.13,-382.5 238.38,-382.5 253.24,-382.5"/>
<polygon fill="#63b8ff" stroke="#63b8ff" points="253.44,-386 263.44,-382.5 253.44,-379 253.44,-386"/>
</g>
<!-- Node17 -->
<g id="node17" class="node">
<title>Node17</title>
<g id="a_node17"><a xlink:href="strings_8h.html#a36f055c4e56c8a784629908d0c5b91e5" target="_top" xlink:title=" ">
<polygon fill="white" stroke="#666666" points="844,-336 740,-336 740,-317 844,-317 844,-336"/>
<text text-anchor="middle" x="792" y="-324" font-family="Helvetica,sans-Serif" font-size="10.00">my_is_char_in_str</text>
</a>
</g>
</g>
<!-- Node2&#45;&gt;Node17 -->
<g id="edge20" class="edge">
<title>Node2&#45;&gt;Node17</title>
<path fill="none" stroke="#63b8ff" d="M203.33,-372.91C250.59,-359.85 340.04,-337.1 418,-328.5 527.27,-316.44 655.65,-319.5 729.74,-322.92"/>
<polygon fill="#63b8ff" stroke="#63b8ff" points="729.67,-326.42 739.82,-323.41 730,-319.43 729.67,-326.42"/>
</g>
<!-- Node4 -->
<g id="node4" class="node">
<title>Node4</title>
<g id="a_node4"><a xlink:href="execute__cmd_8c.html#a018afe6a043051ebc2e3dd9412587990" target="_top" xlink:title=" ">
<polygon fill="white" stroke="#666666" points="678,-430 587,-430 587,-411 678,-411 678,-430"/>
<text text-anchor="middle" x="632.5" y="-418" font-family="Helvetica,sans-Serif" font-size="10.00">execute_binary</text>
</a>
</g>
</g>
<!-- Node3&#45;&gt;Node4 -->
<g id="edge3" class="edge">
<title>Node3&#45;&gt;Node4</title>
<path fill="none" stroke="#63b8ff" d="M382.16,-419.69C438.07,-419.87 521.63,-420.14 576.35,-420.32"/>
<polygon fill="#63b8ff" stroke="#63b8ff" points="576.54,-423.82 586.56,-420.35 576.57,-416.82 576.54,-423.82"/>
</g>
<!-- Node5 -->
<g id="node5" class="node">
<title>Node5</title>
<g id="a_node5"><a xlink:href="env__to__word__array_8c.html#aea7253d35c5aa57d9cfe9d7df218cb90" target="_top" xlink:title=" ">
<polygon fill="white" stroke="#666666" points="847,-458 737,-458 737,-439 847,-439 847,-458"/>
<text text-anchor="middle" x="792" y="-446" font-family="Helvetica,sans-Serif" font-size="10.00">env_to_word_array</text>
</a>
</g>
</g>
<!-- Node4&#45;&gt;Node5 -->
<g id="edge4" class="edge">
<title>Node4&#45;&gt;Node5</title>
<path fill="none" stroke="#63b8ff" d="M678.21,-428.45C693.5,-431.17 710.91,-434.26 727.4,-437.19"/>
<polygon fill="#63b8ff" stroke="#63b8ff" points="727.06,-440.69 737.52,-438.99 728.28,-433.8 727.06,-440.69"/>
</g>
<!-- Node8 -->
<g id="node8" class="node">
<title>Node8</title>
<g id="a_node8"><a xlink:href="execute__cmd_8c.html#a6badc27baa1930e30ea2ad3817f65366" target="_top" xlink:title=" ">
<polygon fill="white" stroke="#666666" points="832,-421 752,-421 752,-402 832,-402 832,-421"/>
<text text-anchor="middle" x="792" y="-409" font-family="Helvetica,sans-Serif" font-size="10.00">execute_fork</text>
</a>
</g>
</g>
<!-- Node4&#45;&gt;Node8 -->
<g id="edge7" class="edge">
<title>Node4&#45;&gt;Node8</title>
<path fill="none" stroke="#63b8ff" d="M678.21,-417.95C698.05,-416.81 721.46,-415.47 741.79,-414.31"/>
<polygon fill="#63b8ff" stroke="#63b8ff" points="742.02,-417.8 751.8,-413.74 741.62,-410.82 742.02,-417.8"/>
</g>
<!-- Node9 -->
<g id="node9" class="node">
<title>Node9</title>
<g id="a_node9"><a xlink:href="execute__cmd_8c.html#a2c49b9849cfef0deea03382c9f1b3ab8" target="_top" xlink:title=" ">
<polygon fill="white" stroke="#666666" points="987.5,-383 895.5,-383 895.5,-364 987.5,-364 987.5,-383"/>
<text text-anchor="middle" x="941.5" y="-371" font-family="Helvetica,sans-Serif" font-size="10.00">run_subprocess</text>
</a>
</g>
</g>
<!-- Node4&#45;&gt;Node9 -->
<g id="edge12" class="edge">
<title>Node4&#45;&gt;Node9</title>
<path fill="none" stroke="#63b8ff" d="M669.43,-410.98C697.93,-403.46 733.54,-394.12 737,-393.5 786.78,-384.62 844.16,-379.43 885.27,-376.57"/>
<polygon fill="#63b8ff" stroke="#63b8ff" points="885.62,-380.06 895.36,-375.9 885.15,-373.07 885.62,-380.06"/>
</g>
<!-- Node6 -->
<g id="node6" class="node">
<title>Node6</title>
<g id="a_node6"><a xlink:href="misc_8h.html#a1180cae2875b1fdcd58c9f9175a82c12" target="_top" xlink:title=" ">
<polygon fill="white" stroke="#666666" points="1000,-421 883,-421 883,-402 1000,-402 1000,-421"/>
<text text-anchor="middle" x="941.5" y="-409" font-family="Helvetica,sans-Serif" font-size="10.00">my_free_word_array</text>
</a>
</g>
</g>
<!-- Node5&#45;&gt;Node6 -->
<g id="edge5" class="edge">
<title>Node5&#45;&gt;Node6</title>
<path fill="none" stroke="#63b8ff" d="M830.98,-438.97C849.75,-434.26 872.59,-428.53 892.55,-423.53"/>
<polygon fill="#63b8ff" stroke="#63b8ff" points="893.54,-426.89 902.39,-421.06 891.84,-420.1 893.54,-426.89"/>
</g>
<!-- Node7 -->
<g id="node7" class="node">
<title>Node7</title>
<g id="a_node7"><a xlink:href="list_8h.html#ad5ebb7cdb26f73e4b212dfc5eae4ef0e" target="_top" xlink:title=" ">
<polygon fill="white" stroke="#666666" points="986,-458 897,-458 897,-439 986,-439 986,-458"/>
<text text-anchor="middle" x="941.5" y="-446" font-family="Helvetica,sans-Serif" font-size="10.00">my_list_length</text>
</a>
</g>
</g>
<!-- Node5&#45;&gt;Node7 -->
<g id="edge6" class="edge">
<title>Node5&#45;&gt;Node7</title>
<path fill="none" stroke="#63b8ff" d="M847.09,-448.5C859.93,-448.5 873.64,-448.5 886.48,-448.5"/>
<polygon fill="#63b8ff" stroke="#63b8ff" points="886.56,-452 896.56,-448.5 886.56,-445 886.56,-452"/>
</g>
<!-- Node8&#45;&gt;Node6 -->
<g id="edge8" class="edge">
<title>Node8&#45;&gt;Node6</title>
<path fill="none" stroke="#63b8ff" d="M832.14,-411.5C844.64,-411.5 858.85,-411.5 872.78,-411.5"/>
<polygon fill="#63b8ff" stroke="#63b8ff" points="872.84,-415 882.84,-411.5 872.84,-408 872.84,-415"/>
</g>
<!-- Node8&#45;&gt;Node9 -->
<g id="edge9" class="edge">
<title>Node8&#45;&gt;Node9</title>
<path fill="none" stroke="#63b8ff" d="M830.22,-401.91C849.51,-396.94 873.26,-390.82 893.77,-385.54"/>
<polygon fill="#63b8ff" stroke="#63b8ff" points="894.74,-388.9 903.55,-383.02 892.99,-382.13 894.74,-388.9"/>
</g>
<!-- Node10 -->
<g id="node10" class="node">
<title>Node10</title>
<g id="a_node10"><a xlink:href="wait__for__subprocess_8c.html#a1242d78540fd0ddef3d98a9f294cb0d4" target="_top" xlink:title=" ">
<polygon fill="white" stroke="#666666" points="999.5,-280 883.5,-280 883.5,-261 999.5,-261 999.5,-280"/>
<text text-anchor="middle" x="941.5" y="-268" font-family="Helvetica,sans-Serif" font-size="10.00">wait_for_subprocess</text>
</a>
</g>
</g>
<!-- Node8&#45;&gt;Node10 -->
<g id="edge10" class="edge">
<title>Node8&#45;&gt;Node10</title>
<path fill="none" stroke="#63b8ff" d="M803.14,-401.81C827.87,-378.16 891.57,-317.27 922.76,-287.46"/>
<polygon fill="#63b8ff" stroke="#63b8ff" points="925.48,-289.7 930.29,-280.26 920.64,-284.64 925.48,-289.7"/>
</g>
<!-- Node11 -->
<g id="node11" class="node">
<title>Node11</title>
<g id="a_node11"><a xlink:href="wait__for__subprocess_8c.html#a885766ba6ba593b7cf27b917dd52b1a6" target="_top" xlink:title=" ">
<polygon fill="white" stroke="#666666" points="1159,-280 1036,-280 1036,-261 1159,-261 1159,-280"/>
<text text-anchor="middle" x="1097.5" y="-268" font-family="Helvetica,sans-Serif" font-size="10.00">print_signal_message</text>
</a>
</g>
</g>
<!-- Node10&#45;&gt;Node11 -->
<g id="edge11" class="edge">
<title>Node10&#45;&gt;Node11</title>
<path fill="none" stroke="#63b8ff" d="M999.84,-270.5C1008.26,-270.5 1017.02,-270.5 1025.67,-270.5"/>
<polygon fill="#63b8ff" stroke="#63b8ff" points="1025.76,-274 1035.76,-270.5 1025.76,-267 1025.76,-274"/>
</g>
<!-- Node13 -->
<g id="node13" class="node">
<title>Node13</title>
<g id="a_node13"><a xlink:href="get__variable__value_8c.html#a2edd9900f19af236aa05385a789be3d6" target="_top" xlink:title=" ">
<polygon fill="white" stroke="#666666" points="528,-356 418,-356 418,-337 528,-337 528,-356"/>
<text text-anchor="middle" x="473" y="-344" font-family="Helvetica,sans-Serif" font-size="10.00">get_variable_value</text>
</a>
</g>
</g>
<!-- Node12&#45;&gt;Node13 -->
<g id="edge14" class="edge">
<title>Node12&#45;&gt;Node13</title>
<path fill="none" stroke="#63b8ff" d="M362.91,-372.95C381.27,-368.49 403.32,-363.15 422.77,-358.44"/>
<polygon fill="#63b8ff" stroke="#63b8ff" points="423.77,-361.79 432.67,-356.03 422.13,-354.99 423.77,-361.79"/>
</g>
<!-- Node15 -->
<g id="node15" class="node">
<title>Node15</title>
<g id="a_node15"><a xlink:href="execute__cmd_8c.html#aee9e13edede9df28fac066f30e7ae7ed" target="_top" xlink:title=" ">
<polygon fill="white" stroke="#666666" points="515,-393 431,-393 431,-374 515,-374 515,-393"/>
<text text-anchor="middle" x="473" y="-381" font-family="Helvetica,sans-Serif" font-size="10.00">try_command</text>
</a>
</g>
</g>
<!-- Node12&#45;&gt;Node15 -->
<g id="edge16" class="edge">
<title>Node12&#45;&gt;Node15</title>
<path fill="none" stroke="#63b8ff" d="M381.76,-382.89C394.59,-382.98 408.08,-383.07 420.61,-383.15"/>
<polygon fill="#63b8ff" stroke="#63b8ff" points="420.85,-386.66 430.87,-383.22 420.89,-379.66 420.85,-386.66"/>
</g>
<!-- Node14 -->
<g id="node14" class="node">
<title>Node14</title>
<g id="a_node14"><a xlink:href="get__variable_8c.html#a569170390f0edf013bf89c26ef55ea8c" target="_top" xlink:title=" ">
<polygon fill="white" stroke="#666666" points="671,-356 594,-356 594,-337 671,-337 671,-356"/>
<text text-anchor="middle" x="632.5" y="-344" font-family="Helvetica,sans-Serif" font-size="10.00">get_variable</text>
</a>
</g>
</g>
<!-- Node13&#45;&gt;Node14 -->
<g id="edge15" class="edge">
<title>Node13&#45;&gt;Node14</title>
<path fill="none" stroke="#63b8ff" d="M528.2,-346.5C546.04,-346.5 565.73,-346.5 583.11,-346.5"/>
<polygon fill="#63b8ff" stroke="#63b8ff" points="583.58,-350 593.58,-346.5 583.58,-343 583.58,-350"/>
</g>
<!-- Node15&#45;&gt;Node4 -->
<g id="edge17" class="edge">
<title>Node15&#45;&gt;Node4</title>
<path fill="none" stroke="#63b8ff" d="M514.56,-393.03C534.78,-397.78 559.44,-403.57 580.88,-408.61"/>
<polygon fill="#63b8ff" stroke="#63b8ff" points="580.27,-412.06 590.8,-410.94 581.87,-405.25 580.27,-412.06"/>
</g>
<!-- Node16 -->
<g id="node16" class="node">
<title>Node16</title>
<g id="a_node16"><a xlink:href="execute__cmd_8c.html#a9ef2f2dfa839f59ba42718ef236d4dcb" target="_top" xlink:title=" ">
<polygon fill="white" stroke="#666666" points="701,-393 564,-393 564,-374 701,-374 701,-393"/>
<text text-anchor="middle" x="632.5" y="-381" font-family="Helvetica,sans-Serif" font-size="10.00">print_permission_denied</text>
</a>
</g>
</g>
<!-- Node15&#45;&gt;Node16 -->
<g id="edge18" class="edge">
<title>Node15&#45;&gt;Node16</title>
<path fill="none" stroke="#63b8ff" d="M515.38,-383.5C527.22,-383.5 540.52,-383.5 553.79,-383.5"/>
<polygon fill="#63b8ff" stroke="#63b8ff" points="553.9,-387 563.9,-383.5 553.9,-380 553.9,-387"/>
</g>
<!-- Node16&#45;&gt;Node17 -->
<g id="edge19" class="edge">
<title>Node16&#45;&gt;Node17</title>
<path fill="none" stroke="#63b8ff" d="M673.42,-373.91C682.56,-371.42 692.18,-368.57 701,-365.5 721.9,-358.23 744.77,-348.29 762.22,-340.27"/>
<polygon fill="#63b8ff" stroke="#63b8ff" points="763.73,-343.43 771.32,-336.04 760.78,-337.08 763.73,-343.43"/>
</g>
<!-- Node18&#45;&gt;Node1 -->
<g id="edge22" class="edge">
<title>Node18&#45;&gt;Node1</title>
<path fill="none" stroke="#63b8ff" d="M111.25,-336.69C111.17,-336.63 111.08,-336.56 111,-336.5 76.19,-309.87 53.4,-261.39 43.76,-233.97"/>
<polygon fill="#63b8ff" stroke="#63b8ff" points="47.02,-232.69 40.61,-224.26 40.36,-234.85 47.02,-232.69"/>
</g>
<!-- Node19&#45;&gt;Node1 -->
<g id="edge24" class="edge">
<title>Node19&#45;&gt;Node1</title>
<path fill="none" stroke="#63b8ff" d="M115.36,-302.02C113.86,-301.22 112.41,-300.38 111,-299.5 83.6,-282.42 59.43,-252.62 47.12,-232.88"/>
<polygon fill="#63b8ff" stroke="#63b8ff" points="50.09,-231.02 42.07,-224.1 44.02,-234.51 50.09,-231.02"/>
</g>
<!-- Node20&#45;&gt;Node10 -->
<g id="edge34" class="edge">
<title>Node20&#45;&gt;Node10</title>
<path fill="none" stroke="#63b8ff" d="M209.57,-121.5C267.28,-121.5 377.89,-121.5 472,-121.5 472,-121.5 472,-121.5 633.5,-121.5 754,-121.5 876.81,-215.55 922.2,-254.21"/>
<polygon fill="#63b8ff" stroke="#63b8ff" points="920.14,-257.05 929.99,-260.95 924.72,-251.76 920.14,-257.05"/>
</g>
<!-- Node21 -->
<g id="node21" class="node">
<title>Node21</title>
<g id="a_node21"><a xlink:href="execute__pipe_8c.html#a723ff799f939872d17f109a82342294e" target="_top" xlink:title=" ">
<polygon fill="white" stroke="#666666" points="504,-169 442,-169 442,-150 504,-150 504,-169"/>
<text text-anchor="middle" x="473" y="-157" font-family="Helvetica,sans-Serif" font-size="10.00">close_fds</text>
</a>
</g>
</g>
<!-- Node20&#45;&gt;Node21 -->
<g id="edge26" class="edge">
<title>Node20&#45;&gt;Node21</title>
<path fill="none" stroke="#63b8ff" d="M209.78,-127.8C226.24,-130.33 245.52,-133.18 263,-135.5 321.58,-143.27 389.59,-150.8 431.72,-155.3"/>
<polygon fill="#63b8ff" stroke="#63b8ff" points="431.53,-158.8 441.85,-156.37 432.27,-151.84 431.53,-158.8"/>
</g>
<!-- Node22 -->
<g id="node22" class="node">
<title>Node22</title>
<g id="a_node22"><a xlink:href="execute__pipe_8c.html#ac529ffc2370b0133613ef8a81e58ed85" target="_top" xlink:title=" ">
<polygon fill="white" stroke="#666666" points="373.5,-207 271.5,-207 271.5,-188 373.5,-188 373.5,-207"/>
<text text-anchor="middle" x="322.5" y="-195" font-family="Helvetica,sans-Serif" font-size="10.00">execute_pipe_left</text>
</a>
</g>
</g>
<!-- Node20&#45;&gt;Node22 -->
<g id="edge27" class="edge">
<title>Node20&#45;&gt;Node22</title>
<path fill="none" stroke="#63b8ff" d="M208.43,-131.01C214.85,-133.33 221.27,-136.13 227,-139.5 245.97,-150.65 244.51,-161.57 263,-173.5 269.15,-177.47 276.07,-181 282.93,-184.05"/>
<polygon fill="#63b8ff" stroke="#63b8ff" points="281.61,-187.29 292.19,-187.91 284.3,-180.83 281.61,-187.29"/>
</g>
<!-- Node23 -->
<g id="node23" class="node">
<title>Node23</title>
<g id="a_node23"><a xlink:href="execute__pipe_8c.html#a9ed6eabb8a9f7049f91265a5f45e30c8" target="_top" xlink:title=" ">
<polygon fill="white" stroke="#666666" points="377,-93 268,-93 268,-74 377,-74 377,-93"/>
<text text-anchor="middle" x="322.5" y="-81" font-family="Helvetica,sans-Serif" font-size="10.00">execute_pipe_right</text>
</a>
</g>
</g>
<!-- Node20&#45;&gt;Node23 -->
<g id="edge30" class="edge">
<title>Node20&#45;&gt;Node23</title>
<path fill="none" stroke="#63b8ff" d="M208.23,-111.91C228.13,-106.92 252.66,-100.77 273.79,-95.47"/>
<polygon fill="#63b8ff" stroke="#63b8ff" points="274.7,-98.85 283.55,-93.02 272.99,-92.06 274.7,-98.85"/>
</g>
<!-- Node22&#45;&gt;Node1 -->
<g id="edge29" class="edge">
<title>Node22&#45;&gt;Node1</title>
<path fill="none" stroke="#63b8ff" d="M277.96,-207C262.02,-210.04 243.77,-213 227,-214.5 178.88,-218.79 123.58,-218.14 85.38,-216.81"/>
<polygon fill="#63b8ff" stroke="#63b8ff" points="85.2,-213.3 75.07,-216.42 84.94,-220.29 85.2,-213.3"/>
</g>
<!-- Node22&#45;&gt;Node21 -->
<g id="edge28" class="edge">
<title>Node22&#45;&gt;Node21</title>
<path fill="none" stroke="#63b8ff" d="M360.97,-187.91C382.58,-182.38 409.75,-175.43 431.8,-169.79"/>
<polygon fill="#63b8ff" stroke="#63b8ff" points="432.71,-173.17 441.53,-167.3 430.98,-166.38 432.71,-173.17"/>
</g>
<!-- Node23&#45;&gt;Node1 -->
<g id="edge32" class="edge">
<title>Node23&#45;&gt;Node1</title>
<path fill="none" stroke="#63b8ff" d="M267.8,-75.98C222.72,-72.41 158.28,-73.96 111,-102.5 75.8,-123.75 54.55,-169.4 44.84,-195.38"/>
<polygon fill="#63b8ff" stroke="#63b8ff" points="41.51,-194.29 41.47,-204.88 48.11,-196.62 41.51,-194.29"/>
</g>
<!-- Node23&#45;&gt;Node21 -->
<g id="edge31" class="edge">
<title>Node23&#45;&gt;Node21</title>
<path fill="none" stroke="#63b8ff" d="M342.31,-93.13C368.08,-106.32 414.57,-130.11 444.32,-145.33"/>
<polygon fill="#63b8ff" stroke="#63b8ff" points="442.85,-148.51 453.35,-149.95 446.04,-142.28 442.85,-148.51"/>
</g>
<!-- Node24 -->
<g id="node24" class="node">
<title>Node24</title>
<g id="a_node24"><a xlink:href="execute__pipe_8c.html#ac3d3a124b262676fa0679720f99a7f83" target="_top" xlink:title=" ">
<polygon fill="white" stroke="#666666" points="513,-93 433,-93 433,-74 513,-74 513,-93"/>
<text text-anchor="middle" x="473" y="-81" font-family="Helvetica,sans-Serif" font-size="10.00">restore_stdin</text>
</a>
</g>
</g>
<!-- Node23&#45;&gt;Node24 -->
<g id="edge33" class="edge">
<title>Node23&#45;&gt;Node24</title>
<path fill="none" stroke="#63b8ff" d="M377.11,-83.5C391.95,-83.5 407.99,-83.5 422.58,-83.5"/>
<polygon fill="#63b8ff" stroke="#63b8ff" points="422.91,-87 432.91,-83.5 422.91,-80 422.91,-87"/>
</g>
<!-- Node26 -->
<g id="node26" class="node">
<title>Node26</title>
<g id="a_node26"><a xlink:href="execute__redirect_8c.html#a5aa0f008806cc0e8a7ba252d61b7001f" target="_top" xlink:title=" ">
<polygon fill="white" stroke="#666666" points="376,-37 269,-37 269,-18 376,-18 376,-37"/>
<text text-anchor="middle" x="322.5" y="-25" font-family="Helvetica,sans-Serif" font-size="10.00">redirect_execution</text>
</a>
</g>
</g>
<!-- Node25&#45;&gt;Node26 -->
<g id="edge36" class="edge">
<title>Node25&#45;&gt;Node26</title>
<path fill="none" stroke="#63b8ff" d="M218.35,-39.76C231.19,-38.23 245.24,-36.56 258.72,-34.96"/>
<polygon fill="#63b8ff" stroke="#63b8ff" points="259.37,-38.41 268.89,-33.75 258.55,-31.46 259.37,-38.41"/>
</g>
<!-- Node26&#45;&gt;Node1 -->
<g id="edge37" class="edge">
<title>Node26&#45;&gt;Node1</title>
<path fill="none" stroke="#63b8ff" d="M293.01,-17.97C249.56,-5.34 165.99,11.23 111,-26.5 54.43,-65.31 41.99,-154.98 39.26,-194.82"/>
<polygon fill="#63b8ff" stroke="#63b8ff" points="35.76,-194.68 38.71,-204.85 42.75,-195.06 35.76,-194.68"/>
</g>
<!-- Node27 -->
<g id="node27" class="node">
<title>Node27</title>
<g id="a_node27"><a xlink:href="execute__redirect_8c.html#a1b8f325fc375581f81ae47a54e09cf0e" target="_top" xlink:title=" ">
<polygon fill="white" stroke="#666666" points="506,-56 440,-56 440,-37 506,-37 506,-56"/>
<text text-anchor="middle" x="473" y="-44" font-family="Helvetica,sans-Serif" font-size="10.00">restore_fd</text>
</a>
</g>
</g>
<!-- Node26&#45;&gt;Node27 -->
<g id="edge38" class="edge">
<title>Node26&#45;&gt;Node27</title>
<path fill="none" stroke="#63b8ff" d="M376.27,-34.25C393.81,-36.5 413.09,-38.96 429.73,-41.09"/>
<polygon fill="#63b8ff" stroke="#63b8ff" points="429.34,-44.57 439.71,-42.37 430.23,-37.63 429.34,-44.57"/>
</g>
<!-- Node28 -->
<g id="node28" class="node">
<title>Node28</title>
<g id="a_node28"><a xlink:href="execute__redirect_8c.html#a6cb002bd51f2009eaacc66d388c5f9a7" target="_top" xlink:title=" ">
<polygon fill="white" stroke="#666666" points="523.5,-19 422.5,-19 422.5,0 523.5,0 523.5,-19"/>
<text text-anchor="middle" x="473" y="-7" font-family="Helvetica,sans-Serif" font-size="10.00">setup_redirection</text>
</a>
</g>
</g>
<!-- Node26&#45;&gt;Node28 -->
<g id="edge39" class="edge">
<title>Node26&#45;&gt;Node28</title>
<path fill="none" stroke="#63b8ff" d="M376.27,-21.1C387.88,-19.7 400.25,-18.2 412.12,-16.76"/>
<polygon fill="#63b8ff" stroke="#63b8ff" points="412.87,-20.19 422.38,-15.51 412.03,-13.24 412.87,-20.19"/>
</g>
<!-- Node29 -->
<g id="node29" class="node">
<title>Node29</title>
<g id="a_node29"><a xlink:href="execute__redirect_8c.html#a0e31af51537a8c047a3aca7cdb63d5dd" target="_top" xlink:title=" ">
<polygon fill="white" stroke="#666666" points="681.5,-19 583.5,-19 583.5,0 681.5,0 681.5,-19"/>
<text text-anchor="middle" x="632.5" y="-7" font-family="Helvetica,sans-Serif" font-size="10.00">open_redirect_fd</text>
</a>
</g>
</g>
<!-- Node28&#45;&gt;Node29 -->
<g id="edge40" class="edge">
<title>Node28&#45;&gt;Node29</title>
<path fill="none" stroke="#63b8ff" d="M523.83,-9.5C539.43,-9.5 556.79,-9.5 572.93,-9.5"/>
<polygon fill="#63b8ff" stroke="#63b8ff" points="573.34,-13 583.34,-9.5 573.34,-6 573.34,-13"/>
</g>
<!-- Node30 -->
<g id="node30" class="node">
<title>Node30</title>
<g id="a_node30"><a xlink:href="execute__redirect_8c.html#a71feea783167b3804f2793a232ca74b4" target="_top" xlink:title=" ">
<polygon fill="white" stroke="#666666" points="827.5,-19 756.5,-19 756.5,0 827.5,0 827.5,-19"/>
<text text-anchor="middle" x="792" y="-7" font-family="Helvetica,sans-Serif" font-size="10.00">heredoc_fd</text>
</a>
</g>
</g>
<!-- Node29&#45;&gt;Node30 -->
<g id="edge41" class="edge">
<title>Node29&#45;&gt;Node30</title>
<path fill="none" stroke="#63b8ff" d="M681.61,-9.5C702.1,-9.5 725.87,-9.5 746.01,-9.5"/>
<polygon fill="#63b8ff" stroke="#63b8ff" points="746.17,-13 756.17,-9.5 746.17,-6 746.17,-13"/>
</g>
<!-- Node31 -->
<g id="node31" class="node">
<title>Node31</title>
<g id="a_node31"><a xlink:href="execute__redirect_8c.html#a639d0a6f315a3bae78d204ff798e314f" target="_top" xlink:title=" ">
<polygon fill="white" stroke="#666666" points="995,-19 888,-19 888,0 995,0 995,-19"/>
<text text-anchor="middle" x="941.5" y="-7" font-family="Helvetica,sans-Serif" font-size="10.00">get_heredoc_input</text>
</a>
</g>
</g>
<!-- Node30&#45;&gt;Node31 -->
<g id="edge42" class="edge">
<title>Node30&#45;&gt;Node31</title>
<path fill="none" stroke="#63b8ff" d="M827.58,-9.5C842.6,-9.5 860.67,-9.5 877.91,-9.5"/>
<polygon fill="#63b8ff" stroke="#63b8ff" points="877.94,-13 887.94,-9.5 877.94,-6 877.94,-13"/>
</g>
<!-- Node32 -->
<g id="node32" class="node">
<title>Node32</title>
<g id="a_node32"><a xlink:href="execute__redirect_8c.html#a4e396606481bc13335d3dfae7ff15407" target="_top" xlink:title=" ">
<polygon fill="white" stroke="#666666" points="1148.5,-19 1046.5,-19 1046.5,0 1148.5,0 1148.5,-19"/>
<text text-anchor="middle" x="1097.5" y="-7" font-family="Helvetica,sans-Serif" font-size="10.00">is_heredoc_delim</text>
</a>
</g>
</g>
<!-- Node31&#45;&gt;Node32 -->
<g id="edge43" class="edge">
<title>Node31&#45;&gt;Node32</title>
<path fill="none" stroke="#63b8ff" d="M995.07,-9.5C1008.26,-9.5 1022.52,-9.5 1036.06,-9.5"/>
<polygon fill="#63b8ff" stroke="#63b8ff" points="1036.25,-13 1046.25,-9.5 1036.25,-6 1036.25,-13"/>
</g>
<!-- Node33&#45;&gt;Node1 -->
<g id="edge45" class="edge">
<title>Node33&#45;&gt;Node1</title>
<path fill="none" stroke="#63b8ff" d="M141.03,-205.06C124.95,-208.53 104.09,-211.89 85.39,-214.14"/>
<polygon fill="#63b8ff" stroke="#63b8ff" points="84.82,-210.68 75.26,-215.26 85.59,-217.64 84.82,-210.68"/>
</g>
<!-- Node34&#45;&gt;Node1 -->
<g id="edge47" class="edge">
<title>Node34&#45;&gt;Node1</title>
<path fill="none" stroke="#63b8ff" d="M157.32,-168.17C145.73,-173.95 126.78,-179.89 111,-186.5 100.93,-190.72 90.33,-195.77 80.44,-200.51"/>
<polygon fill="#63b8ff" stroke="#63b8ff" points="78.72,-197.45 71.21,-204.92 81.74,-203.76 78.72,-197.45"/>
</g>
<!-- Node35&#45;&gt;Node1 -->
<g id="edge49" class="edge">
<title>Node35&#45;&gt;Node1</title>
<path fill="none" stroke="#63b8ff" d="M123.76,-261.98C119.44,-260.17 115.13,-258.31 111,-256.5 91.88,-248.13 70.1,-238.15 55.45,-229.54"/>
<polygon fill="#63b8ff" stroke="#63b8ff" points="57.26,-226.54 46.95,-224.1 53.49,-232.44 57.26,-226.54"/>
</g>
<!-- Node35&#45;&gt;Node10 -->
<g id="edge50" class="edge">
<title>Node35&#45;&gt;Node10</title>
<path fill="none" stroke="#63b8ff" d="M219.7,-271.23C279.55,-270.94 383.13,-270.5 472,-270.5 472,-270.5 472,-270.5 633.5,-270.5 716.05,-270.5 811.08,-270.5 873.28,-270.5"/>
<polygon fill="#63b8ff" stroke="#63b8ff" points="873.35,-274 883.35,-270.5 873.35,-267 873.35,-274"/>
</g>
</g>
</svg>
        <g id="navigator" transform="translate(0 0)" fill="#404254">
                <rect fill="#f2f5e9" fill-opacity="0.5" stroke="#606060" stroke-width=".5" x="0" y="0" width="60" height="60"/>
                <use id="zoomplus" xlink:href="#zoomPlus" x="17" y="9" onmousedown="handleZoom(evt,'in')"/>
                <use id="zoomminus" xlink:href="#zoomMin" x="42" y="9" onmousedown="handleZoom(evt,'out')"/>
                <use id="reset" xlink:href="#resetDef" x="30" y="36" onmousedown="handleReset()"/>
                <g id="arrowUp" xlink:href="#dirArrow" transform="translate(30 24)" onmousedown="handlePan(0,-1)">
                  <use xlink:href="#rim" fill="#404040">
                        <set attributeName="fill" to="#808080" begin="arrowUp.mouseover" end="arrowUp.mouseout"/>
                  </use>
                  <path fill="none" stroke="white" stroke-width="1.5" d="M0,-3.0v7 M-2.5,-0.5L0,-3.0L2.5,-0.5"/>
                </g>
                <g id="arrowRight" xlink:href="#dirArrow" transform="rotate(90) translate(36 -43)" onmousedown="handlePan(1,0)">
                  <use xlink:href="#rim" fill="#404040">
                        <set attributeName="fill" to="#808080" begin="arrowRight.mouseover" end="arrowRight.mouseout"/>
                  </use>
                  <path fill="none" stroke="white" stroke-width="1.5" d="M0,-3.0v7 M-2.5,-0.5L0,-3.0L2.5,-0.5"/>
                </g>
                <g id="arrowDown" xlink:href="#dirArrow" transform="rotate(180) translate(-30 -48)" onmousedown="handlePan(0,1)">
                  <use xlink:href="#rim" fill="#404040">
                        <set attributeName="fill" to="#808080" begin="arrowDown.mouseover" end="arrowDown.mouseout"/>
                  </use>
                  <path fill="none" stroke="white" stroke-width="1.5" d="M0,-3.0v7 M-2.5,-0.5L0,-3.0L2.5,-0.5"/>
                </g>
                <g id="arrowLeft" xlink:href="#dirArrow" transform="rotate(270) translate(-36 17)" onmousedown="handlePan(-1,0)">
                  <use xlink:href="#rim" fill="#404040">
                        <set attributeName="fill" to="#808080" begin="arrowLeft.mouseover" end="arrowLeft.mouseout"/>
                  </use>
                  <path fill="none" stroke="white" stroke-width="1.5" d="M0,-3.0v7 M-2.5,-0.5L0,-3.0L2.5,-0.5"/>
                </g>
        </g>
        <svg viewBox="0 0 15 15" width="100%" height="30px" preserveAspectRatio="xMaxYMin meet">
         <g id="arrow_out" transform="scale(0.3 0.3)">
          <a xlink:href="execute__ast_8c_ad26a20a665ab7fdeb714ed53c1afd104_cgraph_org.svg" target="_base">
           <rect id="button" ry="5" rx="5" y="6" x="6" height="38" width="38"
                fill="#f2f5e9" fill-opacity="0.5" stroke="#606060" stroke-width="1.0"/>
           <path id="arrow"
             d="M 11.500037,31.436501 C 11.940474,20.09759 22.043105,11.32322 32.158766,21.979434 L 37.068811,17.246167 C 37.068811,17.246167 37.088388,32 37.088388,32 L 22.160133,31.978069 C 22.160133,31.978069 26.997745,27.140456 26.997745,27.140456 C 18.528582,18.264221 13.291696,25.230495 11.500037,31.436501 z"
             style="fill:#404040;"/>
          </a>
         </g>
        </svg>
</svg>
