<?xml version="1.0" encoding="UTF-8" standalone="no"?>
<!DOCTYPE svg PUBLIC "-//W3C//DTD SVG 1.1//EN"
 "http://www.w3.org/Graphics/SVG/1.1/DTD/svg11.dtd">
<!-- Generated by graphviz version 2.43.0 (0)
 -->
<!-- Title: execute_pipe_right Pages: 1 -->
<svg width="1317pt" height="406pt"
 viewBox="0.00 0.00 1317.00 406.30" xmlns="http://www.w3.org/2000/svg" xmlns:xlink="http://www.w3.org/1999/xlink">
<g id="graph0" class="graph" transform="scale(1 1) rotate(0) translate(4 402.3)">
<title>execute_pipe_right</title>
<!-- Node1 -->
<g id="node1" class="node">
<title>Node1</title>
<g id="a_node1"><a xlink:title=" ">
<polygon fill="#999999" stroke="#666666" points="109,-61.3 0,-61.3 0,-42.3 109,-42.3 109,-61.3"/>
<text text-anchor="middle" x="54.5" y="-49.3" font-family="Helvetica,sans-Serif" font-size="10.00">execute_pipe_right</text>
</a>
</g>
</g>
<!-- Node2 -->
<g id="node2" class="node">
<title>Node2</title>
<g id="a_node2"><a xlink:href="execute__pipe_8c.html#a723ff799f939872d17f109a82342294e" target="_top" xlink:title=" ">
<polygon fill="white" stroke="#666666" points="654,-42.3 592,-42.3 592,-23.3 654,-23.3 654,-42.3"/>
<text text-anchor="middle" x="623" y="-30.3" font-family="Helvetica,sans-Serif" font-size="10.00">close_fds</text>
</a>
</g>
</g>
<!-- Node1&#45;&gt;Node2 -->
<g id="edge1" class="edge">
<title>Node1&#45;&gt;Node2</title>
<path fill="none" stroke="#63b8ff" d="M73.02,-42.13C90.6,-33.02 118.78,-20.01 145,-14.8 304.21,16.81 499.04,-10.49 581.77,-25.06"/>
<polygon fill="#63b8ff" stroke="#63b8ff" points="581.3,-28.53 591.76,-26.85 582.53,-21.64 581.3,-28.53"/>
</g>
<!-- Node3 -->
<g id="node3" class="node">
<title>Node3</title>
<g id="a_node3"><a xlink:href="execute__ast_8c.html#ad26a20a665ab7fdeb714ed53c1afd104" target="_top" xlink:title=" ">
<polygon fill="white" stroke="#666666" points="222.5,-250.3 147.5,-250.3 147.5,-231.3 222.5,-231.3 222.5,-250.3"/>
<text text-anchor="middle" x="185" y="-238.3" font-family="Helvetica,sans-Serif" font-size="10.00">execute_ast</text>
</a>
</g>
</g>
<!-- Node1&#45;&gt;Node3 -->
<g id="edge2" class="edge">
<title>Node1&#45;&gt;Node3</title>
<path fill="none" stroke="#63b8ff" d="M62.05,-61.43C82.41,-91.38 144.83,-183.19 171.6,-222.56"/>
<polygon fill="#63b8ff" stroke="#63b8ff" points="168.79,-224.66 177.31,-230.96 174.58,-220.72 168.79,-224.66"/>
</g>
<!-- Node35 -->
<g id="node35" class="node">
<title>Node35</title>
<g id="a_node35"><a xlink:href="execute__pipe_8c.html#ac3d3a124b262676fa0679720f99a7f83" target="_top" xlink:title=" ">
<polygon fill="white" stroke="#666666" points="225,-42.3 145,-42.3 145,-23.3 225,-23.3 225,-42.3"/>
<text text-anchor="middle" x="185" y="-30.3" font-family="Helvetica,sans-Serif" font-size="10.00">restore_stdin</text>
</a>
</g>
</g>
<!-- Node1&#45;&gt;Node35 -->
<g id="edge50" class="edge">
<title>Node1&#45;&gt;Node35</title>
<path fill="none" stroke="#63b8ff" d="M109.25,-43.85C117.76,-42.6 126.52,-41.3 134.91,-40.06"/>
<polygon fill="#63b8ff" stroke="#63b8ff" points="135.55,-43.5 144.93,-38.58 134.52,-36.58 135.55,-43.5"/>
</g>
<!-- Node4 -->
<g id="node4" class="node">
<title>Node4</title>
<g id="a_node4"><a xlink:href="execute__cmd_8c.html#a94ea9cc5a046ce96e36764bf0e4fa2c0" target="_top" xlink:title=" ">
<polygon fill="white" stroke="#666666" points="359.5,-361.3 278.5,-361.3 278.5,-342.3 359.5,-342.3 359.5,-361.3"/>
<text text-anchor="middle" x="319" y="-349.3" font-family="Helvetica,sans-Serif" font-size="10.00">execute_cmd</text>
</a>
</g>
</g>
<!-- Node3&#45;&gt;Node4 -->
<g id="edge3" class="edge">
<title>Node3&#45;&gt;Node4</title>
<path fill="none" stroke="#63b8ff" d="M191.22,-250.53C201.83,-269.4 227.77,-311.11 261,-333.8 263.53,-335.53 266.24,-337.1 269.05,-338.52"/>
<polygon fill="#63b8ff" stroke="#63b8ff" points="267.71,-341.76 278.27,-342.59 270.53,-335.35 267.71,-341.76"/>
</g>
<!-- Node20 -->
<g id="node20" class="node">
<title>Node20</title>
<g id="a_node20"><a xlink:href="execute__logical__and_8c.html#a4f940752faf9f9a258c49810b21efe47" target="_top" xlink:title=" ">
<polygon fill="white" stroke="#666666" points="377,-137.3 261,-137.3 261,-118.3 377,-118.3 377,-137.3"/>
<text text-anchor="middle" x="319" y="-125.3" font-family="Helvetica,sans-Serif" font-size="10.00">execute_logical_and</text>
</a>
</g>
</g>
<!-- Node3&#45;&gt;Node20 -->
<g id="edge23" class="edge">
<title>Node3&#45;&gt;Node20</title>
<path fill="none" stroke="#63b8ff" d="M188.91,-231.19C196.93,-211.72 220.88,-170.11 253.14,-143.79"/>
<polygon fill="#63b8ff" stroke="#63b8ff" points="255.66,-146.27 261.52,-137.44 251.43,-140.69 255.66,-146.27"/>
</g>
<!-- Node21 -->
<g id="node21" class="node">
<title>Node21</title>
<g id="a_node21"><a xlink:href="execute__logical__or_8c.html#a7e732d7c30b07010fa55850051007dcc" target="_top" xlink:title=" ">
<polygon fill="white" stroke="#666666" points="372.5,-398.3 265.5,-398.3 265.5,-379.3 372.5,-379.3 372.5,-398.3"/>
<text text-anchor="middle" x="319" y="-386.3" font-family="Helvetica,sans-Serif" font-size="10.00">execute_logical_or</text>
</a>
</g>
</g>
<!-- Node3&#45;&gt;Node21 -->
<g id="edge25" class="edge">
<title>Node3&#45;&gt;Node21</title>
<path fill="none" stroke="#63b8ff" d="M190.55,-250.4C199.55,-273.61 222.2,-330.64 261,-361.8 269.62,-368.72 280.93,-373 291.2,-376.28"/>
<polygon fill="#63b8ff" stroke="#63b8ff" points="290.4,-379.7 300.99,-379.3 292.46,-373.01 290.4,-379.7"/>
</g>
<!-- Node22 -->
<g id="node22" class="node">
<title>Node22</title>
<g id="a_node22"><a xlink:href="execute__pipe_8c.html#a5f3546dc2c7cf06c982afba41e722164" target="_top" xlink:title=" ">
<polygon fill="white" stroke="#666666" points="359.5,-61.3 278.5,-61.3 278.5,-42.3 359.5,-42.3 359.5,-61.3"/>
<text text-anchor="middle" x="319" y="-49.3" font-family="Helvetica,sans-Serif" font-size="10.00">execute_pipe</text>
</a>
</g>
</g>
<!-- Node3&#45;&gt;Node22 -->
<g id="edge27" class="edge">
<title>Node3&#45;&gt;Node22</title>
<path fill="none" stroke="#63b8ff" d="M187.81,-231.19C193.51,-203.39 213.62,-121.86 261,-75.8 264.99,-71.92 269.71,-68.62 274.69,-65.84"/>
<polygon fill="#63b8ff" stroke="#63b8ff" points="276.4,-68.9 283.84,-61.36 273.32,-62.61 276.4,-68.9"/>
</g>
<!-- Node24 -->
<g id="node24" class="node">
<title>Node24</title>
<g id="a_node24"><a xlink:href="execute__redirect_8c.html#a1004307aba80117ddd99f009e52fb155" target="_top" xlink:title=" ">
<polygon fill="white" stroke="#666666" points="368,-174.3 270,-174.3 270,-155.3 368,-155.3 368,-174.3"/>
<text text-anchor="middle" x="319" y="-162.3" font-family="Helvetica,sans-Serif" font-size="10.00">execute_redirect</text>
</a>
</g>
</g>
<!-- Node3&#45;&gt;Node24 -->
<g id="edge34" class="edge">
<title>Node3&#45;&gt;Node24</title>
<path fill="none" stroke="#63b8ff" d="M198.22,-231.14C212.66,-220.01 237.67,-201.62 261,-188.8 267.79,-185.07 275.29,-181.53 282.55,-178.38"/>
<polygon fill="#63b8ff" stroke="#63b8ff" points="284.34,-181.42 292.21,-174.33 281.64,-174.97 284.34,-181.42"/>
</g>
<!-- Node32 -->
<g id="node32" class="node">
<title>Node32</title>
<g id="a_node32"><a xlink:href="execute__repeat_8c.html#a00d48683c54b50130b4a402e6e97fa97" target="_top" xlink:title=" ">
<polygon fill="white" stroke="#666666" points="365,-324.3 273,-324.3 273,-305.3 365,-305.3 365,-324.3"/>
<text text-anchor="middle" x="319" y="-312.3" font-family="Helvetica,sans-Serif" font-size="10.00">execute_repeat</text>
</a>
</g>
</g>
<!-- Node3&#45;&gt;Node32 -->
<g id="edge43" class="edge">
<title>Node3&#45;&gt;Node32</title>
<path fill="none" stroke="#63b8ff" d="M205.16,-250.5C219.64,-261.2 240.46,-277.28 261,-287.8 271.92,-293.4 284.91,-297.66 295.73,-301.52"/>
<polygon fill="#63b8ff" stroke="#63b8ff" points="294.71,-304.88 305.3,-305.12 297.17,-298.32 294.71,-304.88"/>
</g>
<!-- Node33 -->
<g id="node33" class="node">
<title>Node33</title>
<g id="a_node33"><a xlink:href="execute__sequence_8c.html#aad2caa5bf50b0752dd8272da477ec231" target="_top" xlink:title=" ">
<polygon fill="white" stroke="#666666" points="372.5,-250.3 265.5,-250.3 265.5,-231.3 372.5,-231.3 372.5,-250.3"/>
<text text-anchor="middle" x="319" y="-238.3" font-family="Helvetica,sans-Serif" font-size="10.00">execute_sequence</text>
</a>
</g>
</g>
<!-- Node3&#45;&gt;Node33 -->
<g id="edge45" class="edge">
<title>Node3&#45;&gt;Node33</title>
<path fill="none" stroke="#63b8ff" d="M222.77,-234.68C232.82,-234.22 243.99,-234.01 255.06,-234.06"/>
<polygon fill="#63b8ff" stroke="#63b8ff" points="255.11,-237.56 265.15,-234.17 255.19,-230.56 255.11,-237.56"/>
</g>
<!-- Node34 -->
<g id="node34" class="node">
<title>Node34</title>
<g id="a_node34"><a xlink:href="execute__subshell_8c.html#a40a27866de012b013a337f794a858d70" target="_top" xlink:title=" ">
<polygon fill="white" stroke="#666666" points="369.5,-287.3 268.5,-287.3 268.5,-268.3 369.5,-268.3 369.5,-287.3"/>
<text text-anchor="middle" x="319" y="-275.3" font-family="Helvetica,sans-Serif" font-size="10.00">execute_subshell</text>
</a>
</g>
</g>
<!-- Node3&#45;&gt;Node34 -->
<g id="edge47" class="edge">
<title>Node3&#45;&gt;Node34</title>
<path fill="none" stroke="#63b8ff" d="M222.77,-244.98C244.47,-250.07 271.45,-257.82 291.14,-264.71"/>
<polygon fill="#63b8ff" stroke="#63b8ff" points="290.12,-268.07 300.71,-268.22 292.53,-261.49 290.12,-268.07"/>
</g>
<!-- Node5 -->
<g id="node5" class="node">
<title>Node5</title>
<g id="a_node5"><a xlink:href="execute__cmd_8c.html#a0cfd2364134e68efdd39533e00b4b0d9" target="_top" xlink:title=" ">
<polygon fill="white" stroke="#666666" points="532,-306.3 413,-306.3 413,-287.3 532,-287.3 532,-306.3"/>
<text text-anchor="middle" x="472.5" y="-294.3" font-family="Helvetica,sans-Serif" font-size="10.00">execute_local_binary</text>
</a>
</g>
</g>
<!-- Node4&#45;&gt;Node5 -->
<g id="edge4" class="edge">
<title>Node4&#45;&gt;Node5</title>
<path fill="none" stroke="#63b8ff" d="M351.49,-342.27C359.82,-339.64 368.78,-336.7 377,-333.8 397.75,-326.47 420.74,-317.49 438.85,-310.21"/>
<polygon fill="#63b8ff" stroke="#63b8ff" points="440.4,-313.36 448.36,-306.36 437.78,-306.87 440.4,-313.36"/>
</g>
<!-- Node14 -->
<g id="node14" class="node">
<title>Node14</title>
<g id="a_node14"><a xlink:href="execute__cmd_8c.html#a460126af28ab29df4340554fae9fc57a" target="_top" xlink:title=" ">
<polygon fill="white" stroke="#666666" points="531.5,-361.3 413.5,-361.3 413.5,-342.3 531.5,-342.3 531.5,-361.3"/>
<text text-anchor="middle" x="472.5" y="-349.3" font-family="Helvetica,sans-Serif" font-size="10.00">execute_path_binary</text>
</a>
</g>
</g>
<!-- Node4&#45;&gt;Node14 -->
<g id="edge15" class="edge">
<title>Node4&#45;&gt;Node14</title>
<path fill="none" stroke="#63b8ff" d="M359.8,-351.8C373.13,-351.8 388.38,-351.8 403.24,-351.8"/>
<polygon fill="#63b8ff" stroke="#63b8ff" points="403.44,-355.3 413.44,-351.8 403.44,-348.3 403.44,-355.3"/>
</g>
<!-- Node19 -->
<g id="node19" class="node">
<title>Node19</title>
<g id="a_node19"><a xlink:href="strings_8h.html#a36f055c4e56c8a784629908d0c5b91e5" target="_top" xlink:title=" ">
<polygon fill="white" stroke="#666666" points="994,-391.3 890,-391.3 890,-372.3 994,-372.3 994,-391.3"/>
<text text-anchor="middle" x="942" y="-379.3" font-family="Helvetica,sans-Serif" font-size="10.00">my_is_char_in_str</text>
</a>
</g>
</g>
<!-- Node4&#45;&gt;Node19 -->
<g id="edge22" class="edge">
<title>Node4&#45;&gt;Node19</title>
<path fill="none" stroke="#63b8ff" d="M359.62,-361.14C376.05,-364.69 395.36,-368.44 413,-370.8 580.64,-393.23 780.85,-389.04 879.64,-384.96"/>
<polygon fill="#63b8ff" stroke="#63b8ff" points="879.9,-388.45 889.74,-384.52 879.6,-381.45 879.9,-388.45"/>
</g>
<!-- Node6 -->
<g id="node6" class="node">
<title>Node6</title>
<g id="a_node6"><a xlink:href="execute__cmd_8c.html#a018afe6a043051ebc2e3dd9412587990" target="_top" xlink:title=" ">
<polygon fill="white" stroke="#666666" points="828,-297.3 737,-297.3 737,-278.3 828,-278.3 828,-297.3"/>
<text text-anchor="middle" x="782.5" y="-285.3" font-family="Helvetica,sans-Serif" font-size="10.00">execute_binary</text>
</a>
</g>
</g>
<!-- Node5&#45;&gt;Node6 -->
<g id="edge5" class="edge">
<title>Node5&#45;&gt;Node6</title>
<path fill="none" stroke="#63b8ff" d="M532.16,-295.09C588.07,-293.45 671.63,-291.01 726.35,-289.41"/>
<polygon fill="#63b8ff" stroke="#63b8ff" points="726.66,-292.9 736.56,-289.11 726.46,-285.91 726.66,-292.9"/>
</g>
<!-- Node7 -->
<g id="node7" class="node">
<title>Node7</title>
<g id="a_node7"><a xlink:href="env__to__word__array_8c.html#aea7253d35c5aa57d9cfe9d7df218cb90" target="_top" xlink:title=" ">
<polygon fill="white" stroke="#666666" points="997,-335.3 887,-335.3 887,-316.3 997,-316.3 997,-335.3"/>
<text text-anchor="middle" x="942" y="-323.3" font-family="Helvetica,sans-Serif" font-size="10.00">env_to_word_array</text>
</a>
</g>
</g>
<!-- Node6&#45;&gt;Node7 -->
<g id="edge6" class="edge">
<title>Node6&#45;&gt;Node7</title>
<path fill="none" stroke="#63b8ff" d="M823.24,-297.39C844.03,-302.4 869.66,-308.59 891.7,-313.91"/>
<polygon fill="#63b8ff" stroke="#63b8ff" points="891,-317.34 901.54,-316.28 892.64,-310.53 891,-317.34"/>
</g>
<!-- Node10 -->
<g id="node10" class="node">
<title>Node10</title>
<g id="a_node10"><a xlink:href="execute__cmd_8c.html#a6badc27baa1930e30ea2ad3817f65366" target="_top" xlink:title=" ">
<polygon fill="white" stroke="#666666" points="982,-259.3 902,-259.3 902,-240.3 982,-240.3 982,-259.3"/>
<text text-anchor="middle" x="942" y="-247.3" font-family="Helvetica,sans-Serif" font-size="10.00">execute_fork</text>
</a>
</g>
</g>
<!-- Node6&#45;&gt;Node10 -->
<g id="edge9" class="edge">
<title>Node6&#45;&gt;Node10</title>
<path fill="none" stroke="#63b8ff" d="M823.24,-278.21C844.11,-273.18 869.86,-266.97 891.95,-261.63"/>
<polygon fill="#63b8ff" stroke="#63b8ff" points="892.91,-265 901.81,-259.25 891.27,-258.2 892.91,-265"/>
</g>
<!-- Node11 -->
<g id="node11" class="node">
<title>Node11</title>
<g id="a_node11"><a xlink:href="execute__cmd_8c.html#a2c49b9849cfef0deea03382c9f1b3ab8" target="_top" xlink:title=" ">
<polygon fill="white" stroke="#666666" points="1137.5,-259.3 1045.5,-259.3 1045.5,-240.3 1137.5,-240.3 1137.5,-259.3"/>
<text text-anchor="middle" x="1091.5" y="-247.3" font-family="Helvetica,sans-Serif" font-size="10.00">run_subprocess</text>
</a>
</g>
</g>
<!-- Node6&#45;&gt;Node11 -->
<g id="edge14" class="edge">
<title>Node6&#45;&gt;Node11</title>
<path fill="none" stroke="#63b8ff" d="M828.24,-285.28C871.56,-282.49 939,-277.25 997,-268.8 1010.58,-266.82 1025.17,-264.13 1038.69,-261.4"/>
<polygon fill="#63b8ff" stroke="#63b8ff" points="1039.7,-264.77 1048.78,-259.32 1038.28,-257.91 1039.7,-264.77"/>
</g>
<!-- Node8 -->
<g id="node8" class="node">
<title>Node8</title>
<g id="a_node8"><a xlink:href="misc_8h.html#a1180cae2875b1fdcd58c9f9175a82c12" target="_top" xlink:title=" ">
<polygon fill="white" stroke="#666666" points="1150,-297.3 1033,-297.3 1033,-278.3 1150,-278.3 1150,-297.3"/>
<text text-anchor="middle" x="1091.5" y="-285.3" font-family="Helvetica,sans-Serif" font-size="10.00">my_free_word_array</text>
</a>
</g>
</g>
<!-- Node7&#45;&gt;Node8 -->
<g id="edge7" class="edge">
<title>Node7&#45;&gt;Node8</title>
<path fill="none" stroke="#63b8ff" d="M980.22,-316.21C999.51,-311.24 1023.26,-305.12 1043.77,-299.84"/>
<polygon fill="#63b8ff" stroke="#63b8ff" points="1044.74,-303.2 1053.55,-297.32 1042.99,-296.43 1044.74,-303.2"/>
</g>
<!-- Node9 -->
<g id="node9" class="node">
<title>Node9</title>
<g id="a_node9"><a xlink:href="list_8h.html#ad5ebb7cdb26f73e4b212dfc5eae4ef0e" target="_top" xlink:title=" ">
<polygon fill="white" stroke="#666666" points="1136,-335.3 1047,-335.3 1047,-316.3 1136,-316.3 1136,-335.3"/>
<text text-anchor="middle" x="1091.5" y="-323.3" font-family="Helvetica,sans-Serif" font-size="10.00">my_list_length</text>
</a>
</g>
</g>
<!-- Node7&#45;&gt;Node9 -->
<g id="edge8" class="edge">
<title>Node7&#45;&gt;Node9</title>
<path fill="none" stroke="#63b8ff" d="M997.09,-325.8C1009.93,-325.8 1023.64,-325.8 1036.48,-325.8"/>
<polygon fill="#63b8ff" stroke="#63b8ff" points="1036.56,-329.3 1046.56,-325.8 1036.56,-322.3 1036.56,-329.3"/>
</g>
<!-- Node10&#45;&gt;Node8 -->
<g id="edge10" class="edge">
<title>Node10&#45;&gt;Node8</title>
<path fill="none" stroke="#63b8ff" d="M980.22,-259.39C999.51,-264.36 1023.26,-270.48 1043.77,-275.76"/>
<polygon fill="#63b8ff" stroke="#63b8ff" points="1042.99,-279.18 1053.55,-278.28 1044.74,-272.4 1042.99,-279.18"/>
</g>
<!-- Node10&#45;&gt;Node11 -->
<g id="edge11" class="edge">
<title>Node10&#45;&gt;Node11</title>
<path fill="none" stroke="#63b8ff" d="M982.14,-249.8C998.41,-249.8 1017.58,-249.8 1035.24,-249.8"/>
<polygon fill="#63b8ff" stroke="#63b8ff" points="1035.43,-253.3 1045.43,-249.8 1035.43,-246.3 1035.43,-253.3"/>
</g>
<!-- Node12 -->
<g id="node12" class="node">
<title>Node12</title>
<g id="a_node12"><a xlink:href="wait__for__subprocess_8c.html#a1242d78540fd0ddef3d98a9f294cb0d4" target="_top" xlink:title=" ">
<polygon fill="white" stroke="#666666" points="1149.5,-221.3 1033.5,-221.3 1033.5,-202.3 1149.5,-202.3 1149.5,-221.3"/>
<text text-anchor="middle" x="1091.5" y="-209.3" font-family="Helvetica,sans-Serif" font-size="10.00">wait_for_subprocess</text>
</a>
</g>
</g>
<!-- Node10&#45;&gt;Node12 -->
<g id="edge12" class="edge">
<title>Node10&#45;&gt;Node12</title>
<path fill="none" stroke="#63b8ff" d="M980.22,-240.21C999.51,-235.24 1023.26,-229.12 1043.77,-223.84"/>
<polygon fill="#63b8ff" stroke="#63b8ff" points="1044.74,-227.2 1053.55,-221.32 1042.99,-220.43 1044.74,-227.2"/>
</g>
<!-- Node13 -->
<g id="node13" class="node">
<title>Node13</title>
<g id="a_node13"><a xlink:href="wait__for__subprocess_8c.html#a885766ba6ba593b7cf27b917dd52b1a6" target="_top" xlink:title=" ">
<polygon fill="white" stroke="#666666" points="1309,-221.3 1186,-221.3 1186,-202.3 1309,-202.3 1309,-221.3"/>
<text text-anchor="middle" x="1247.5" y="-209.3" font-family="Helvetica,sans-Serif" font-size="10.00">print_signal_message</text>
</a>
</g>
</g>
<!-- Node12&#45;&gt;Node13 -->
<g id="edge13" class="edge">
<title>Node12&#45;&gt;Node13</title>
<path fill="none" stroke="#63b8ff" d="M1149.84,-211.8C1158.26,-211.8 1167.02,-211.8 1175.67,-211.8"/>
<polygon fill="#63b8ff" stroke="#63b8ff" points="1175.76,-215.3 1185.76,-211.8 1175.76,-208.3 1175.76,-215.3"/>
</g>
<!-- Node15 -->
<g id="node15" class="node">
<title>Node15</title>
<g id="a_node15"><a xlink:href="get__variable__value_8c.html#a2edd9900f19af236aa05385a789be3d6" target="_top" xlink:title=" ">
<polygon fill="white" stroke="#666666" points="678,-371.3 568,-371.3 568,-352.3 678,-352.3 678,-371.3"/>
<text text-anchor="middle" x="623" y="-359.3" font-family="Helvetica,sans-Serif" font-size="10.00">get_variable_value</text>
</a>
</g>
</g>
<!-- Node14&#45;&gt;Node15 -->
<g id="edge16" class="edge">
<title>Node14&#45;&gt;Node15</title>
<path fill="none" stroke="#63b8ff" d="M531.76,-355.72C540.29,-356.3 549.11,-356.89 557.75,-357.47"/>
<polygon fill="#63b8ff" stroke="#63b8ff" points="557.57,-360.97 567.78,-358.15 558.04,-353.99 557.57,-360.97"/>
</g>
<!-- Node17 -->
<g id="node17" class="node">
<title>Node17</title>
<g id="a_node17"><a xlink:href="execute__cmd_8c.html#aee9e13edede9df28fac066f30e7ae7ed" target="_top" xlink:title=" ">
<polygon fill="white" stroke="#666666" points="665,-334.3 581,-334.3 581,-315.3 665,-315.3 665,-334.3"/>
<text text-anchor="middle" x="623" y="-322.3" font-family="Helvetica,sans-Serif" font-size="10.00">try_command</text>
</a>
</g>
</g>
<!-- Node14&#45;&gt;Node17 -->
<g id="edge18" class="edge">
<title>Node14&#45;&gt;Node17</title>
<path fill="none" stroke="#63b8ff" d="M525.86,-342.28C540.51,-339.62 556.42,-336.73 570.99,-334.08"/>
<polygon fill="#63b8ff" stroke="#63b8ff" points="571.63,-337.52 580.84,-332.28 570.37,-330.63 571.63,-337.52"/>
</g>
<!-- Node16 -->
<g id="node16" class="node">
<title>Node16</title>
<g id="a_node16"><a xlink:href="get__variable_8c.html#a569170390f0edf013bf89c26ef55ea8c" target="_top" xlink:title=" ">
<polygon fill="white" stroke="#666666" points="821,-371.3 744,-371.3 744,-352.3 821,-352.3 821,-371.3"/>
<text text-anchor="middle" x="782.5" y="-359.3" font-family="Helvetica,sans-Serif" font-size="10.00">get_variable</text>
</a>
</g>
</g>
<!-- Node15&#45;&gt;Node16 -->
<g id="edge17" class="edge">
<title>Node15&#45;&gt;Node16</title>
<path fill="none" stroke="#63b8ff" d="M678.2,-361.8C696.04,-361.8 715.73,-361.8 733.11,-361.8"/>
<polygon fill="#63b8ff" stroke="#63b8ff" points="733.58,-365.3 743.58,-361.8 733.58,-358.3 733.58,-365.3"/>
</g>
<!-- Node17&#45;&gt;Node6 -->
<g id="edge19" class="edge">
<title>Node17&#45;&gt;Node6</title>
<path fill="none" stroke="#63b8ff" d="M664.56,-315.27C684.78,-310.52 709.44,-304.73 730.88,-299.69"/>
<polygon fill="#63b8ff" stroke="#63b8ff" points="731.87,-303.06 740.8,-297.36 730.27,-296.24 731.87,-303.06"/>
</g>
<!-- Node18 -->
<g id="node18" class="node">
<title>Node18</title>
<g id="a_node18"><a xlink:href="execute__cmd_8c.html#a9ef2f2dfa839f59ba42718ef236d4dcb" target="_top" xlink:title=" ">
<polygon fill="white" stroke="#666666" points="851,-334.3 714,-334.3 714,-315.3 851,-315.3 851,-334.3"/>
<text text-anchor="middle" x="782.5" y="-322.3" font-family="Helvetica,sans-Serif" font-size="10.00">print_permission_denied</text>
</a>
</g>
</g>
<!-- Node17&#45;&gt;Node18 -->
<g id="edge20" class="edge">
<title>Node17&#45;&gt;Node18</title>
<path fill="none" stroke="#63b8ff" d="M665.38,-324.8C677.22,-324.8 690.52,-324.8 703.79,-324.8"/>
<polygon fill="#63b8ff" stroke="#63b8ff" points="703.9,-328.3 713.9,-324.8 703.9,-321.3 703.9,-328.3"/>
</g>
<!-- Node18&#45;&gt;Node19 -->
<g id="edge21" class="edge">
<title>Node18&#45;&gt;Node19</title>
<path fill="none" stroke="#63b8ff" d="M820.54,-334.33C830.51,-337.14 841.23,-340.38 851,-343.8 871.2,-350.88 893.37,-360.22 910.64,-367.86"/>
<polygon fill="#63b8ff" stroke="#63b8ff" points="909.64,-371.25 920.2,-372.14 912.5,-364.86 909.64,-371.25"/>
</g>
<!-- Node20&#45;&gt;Node3 -->
<g id="edge24" class="edge">
<title>Node20&#45;&gt;Node3</title>
<path fill="none" stroke="#63b8ff" d="M303.37,-137.46C291.19,-141.86 273.83,-146.84 261,-155.8 234.99,-173.96 213.44,-203.68 200.21,-222.95"/>
<polygon fill="#63b8ff" stroke="#63b8ff" points="197.3,-221 194.57,-231.24 203.09,-224.94 197.3,-221"/>
</g>
<!-- Node21&#45;&gt;Node3 -->
<g id="edge26" class="edge">
<title>Node21&#45;&gt;Node3</title>
<path fill="none" stroke="#63b8ff" d="M265.32,-382.91C263.82,-381.94 262.38,-380.91 261,-379.8 221.92,-348.41 199.22,-290.79 190.35,-260.26"/>
<polygon fill="#63b8ff" stroke="#63b8ff" points="193.67,-259.1 187.71,-250.34 186.9,-260.91 193.67,-259.1"/>
</g>
<!-- Node22&#45;&gt;Node1 -->
<g id="edge32" class="edge">
<title>Node22&#45;&gt;Node1</title>
<path fill="none" stroke="#63b8ff" d="M278.42,-51.8C236.35,-51.8 169.19,-51.8 119.56,-51.8"/>
<polygon fill="#63b8ff" stroke="#63b8ff" points="119.25,-48.3 109.25,-51.8 119.25,-55.3 119.25,-48.3"/>
</g>
<!-- Node22&#45;&gt;Node2 -->
<g id="edge28" class="edge">
<title>Node22&#45;&gt;Node2</title>
<path fill="none" stroke="#63b8ff" d="M359.79,-49.3C417.39,-45.67 523.43,-39 581.45,-35.35"/>
<polygon fill="#63b8ff" stroke="#63b8ff" points="581.94,-38.83 591.71,-34.71 581.5,-31.84 581.94,-38.83"/>
</g>
<!-- Node22&#45;&gt;Node12 -->
<g id="edge33" class="edge">
<title>Node22&#45;&gt;Node12</title>
<path fill="none" stroke="#63b8ff" d="M359.52,-55.88C417.17,-61.46 527.7,-70.8 622,-70.8 622,-70.8 622,-70.8 783.5,-70.8 901.97,-70.8 1024.6,-158.57 1071.09,-195.62"/>
<polygon fill="#63b8ff" stroke="#63b8ff" points="1069.13,-198.54 1079.1,-202.11 1073.53,-193.1 1069.13,-198.54"/>
</g>
<!-- Node23 -->
<g id="node23" class="node">
<title>Node23</title>
<g id="a_node23"><a xlink:href="execute__pipe_8c.html#ac529ffc2370b0133613ef8a81e58ed85" target="_top" xlink:title=" ">
<polygon fill="white" stroke="#666666" points="523.5,-118.3 421.5,-118.3 421.5,-99.3 523.5,-99.3 523.5,-118.3"/>
<text text-anchor="middle" x="472.5" y="-106.3" font-family="Helvetica,sans-Serif" font-size="10.00">execute_pipe_left</text>
</a>
</g>
</g>
<!-- Node22&#45;&gt;Node23 -->
<g id="edge29" class="edge">
<title>Node22&#45;&gt;Node23</title>
<path fill="none" stroke="#63b8ff" d="M345.36,-61.34C370.37,-70.75 408.81,-85.21 436.68,-95.7"/>
<polygon fill="#63b8ff" stroke="#63b8ff" points="435.47,-98.98 446.06,-99.23 437.93,-92.43 435.47,-98.98"/>
</g>
<!-- Node23&#45;&gt;Node2 -->
<g id="edge30" class="edge">
<title>Node23&#45;&gt;Node2</title>
<path fill="none" stroke="#63b8ff" d="M492.31,-99.18C518.08,-85.98 564.57,-62.19 594.32,-46.97"/>
<polygon fill="#63b8ff" stroke="#63b8ff" points="596.04,-50.02 603.35,-42.35 592.85,-43.79 596.04,-50.02"/>
</g>
<!-- Node23&#45;&gt;Node3 -->
<g id="edge31" class="edge">
<title>Node23&#45;&gt;Node3</title>
<path fill="none" stroke="#63b8ff" d="M437.83,-99.27C393.88,-88.89 316.09,-77.68 261,-109.8 219.26,-134.13 198.74,-191.36 190.53,-221.48"/>
<polygon fill="#63b8ff" stroke="#63b8ff" points="187.12,-220.69 188.04,-231.24 193.9,-222.42 187.12,-220.69"/>
</g>
<!-- Node25 -->
<g id="node25" class="node">
<title>Node25</title>
<g id="a_node25"><a xlink:href="execute__redirect_8c.html#a5aa0f008806cc0e8a7ba252d61b7001f" target="_top" xlink:title=" ">
<polygon fill="white" stroke="#666666" points="526,-174.3 419,-174.3 419,-155.3 526,-155.3 526,-174.3"/>
<text text-anchor="middle" x="472.5" y="-162.3" font-family="Helvetica,sans-Serif" font-size="10.00">redirect_execution</text>
</a>
</g>
</g>
<!-- Node24&#45;&gt;Node25 -->
<g id="edge35" class="edge">
<title>Node24&#45;&gt;Node25</title>
<path fill="none" stroke="#63b8ff" d="M368.35,-164.8C381.19,-164.8 395.24,-164.8 408.72,-164.8"/>
<polygon fill="#63b8ff" stroke="#63b8ff" points="408.89,-168.3 418.89,-164.8 408.89,-161.3 408.89,-168.3"/>
</g>
<!-- Node25&#45;&gt;Node3 -->
<g id="edge36" class="edge">
<title>Node25&#45;&gt;Node3</title>
<path fill="none" stroke="#63b8ff" d="M435.55,-174.37C383.8,-188.15 288.31,-213.57 231.64,-228.65"/>
<polygon fill="#63b8ff" stroke="#63b8ff" points="230.63,-225.3 221.87,-231.25 232.43,-232.06 230.63,-225.3"/>
</g>
<!-- Node26 -->
<g id="node26" class="node">
<title>Node26</title>
<g id="a_node26"><a xlink:href="execute__redirect_8c.html#a1b8f325fc375581f81ae47a54e09cf0e" target="_top" xlink:title=" ">
<polygon fill="white" stroke="#666666" points="656,-174.3 590,-174.3 590,-155.3 656,-155.3 656,-174.3"/>
<text text-anchor="middle" x="623" y="-162.3" font-family="Helvetica,sans-Serif" font-size="10.00">restore_fd</text>
</a>
</g>
</g>
<!-- Node25&#45;&gt;Node26 -->
<g id="edge37" class="edge">
<title>Node25&#45;&gt;Node26</title>
<path fill="none" stroke="#63b8ff" d="M526.27,-164.8C543.64,-164.8 562.73,-164.8 579.26,-164.8"/>
<polygon fill="#63b8ff" stroke="#63b8ff" points="579.71,-168.3 589.71,-164.8 579.71,-161.3 579.71,-168.3"/>
</g>
<!-- Node27 -->
<g id="node27" class="node">
<title>Node27</title>
<g id="a_node27"><a xlink:href="execute__redirect_8c.html#a6cb002bd51f2009eaacc66d388c5f9a7" target="_top" xlink:title=" ">
<polygon fill="white" stroke="#666666" points="673.5,-128.3 572.5,-128.3 572.5,-109.3 673.5,-109.3 673.5,-128.3"/>
<text text-anchor="middle" x="623" y="-116.3" font-family="Helvetica,sans-Serif" font-size="10.00">setup_redirection</text>
</a>
</g>
</g>
<!-- Node25&#45;&gt;Node27 -->
<g id="edge38" class="edge">
<title>Node25&#45;&gt;Node27</title>
<path fill="none" stroke="#63b8ff" d="M504.27,-155.27C526.67,-148.33 557.22,-138.87 581.59,-131.32"/>
<polygon fill="#63b8ff" stroke="#63b8ff" points="582.75,-134.62 591.27,-128.32 580.68,-127.94 582.75,-134.62"/>
</g>
<!-- Node28 -->
<g id="node28" class="node">
<title>Node28</title>
<g id="a_node28"><a xlink:href="execute__redirect_8c.html#a0e31af51537a8c047a3aca7cdb63d5dd" target="_top" xlink:title=" ">
<polygon fill="white" stroke="#666666" points="831.5,-42.3 733.5,-42.3 733.5,-23.3 831.5,-23.3 831.5,-42.3"/>
<text text-anchor="middle" x="782.5" y="-30.3" font-family="Helvetica,sans-Serif" font-size="10.00">open_redirect_fd</text>
</a>
</g>
</g>
<!-- Node27&#45;&gt;Node28 -->
<g id="edge39" class="edge">
<title>Node27&#45;&gt;Node28</title>
<path fill="none" stroke="#63b8ff" d="M641.46,-109.27C669.01,-94.22 722.77,-64.87 755.07,-47.23"/>
<polygon fill="#63b8ff" stroke="#63b8ff" points="756.87,-50.24 763.96,-42.38 753.51,-44.1 756.87,-50.24"/>
</g>
<!-- Node29 -->
<g id="node29" class="node">
<title>Node29</title>
<g id="a_node29"><a xlink:href="execute__redirect_8c.html#a71feea783167b3804f2793a232ca74b4" target="_top" xlink:title=" ">
<polygon fill="white" stroke="#666666" points="977.5,-42.3 906.5,-42.3 906.5,-23.3 977.5,-23.3 977.5,-42.3"/>
<text text-anchor="middle" x="942" y="-30.3" font-family="Helvetica,sans-Serif" font-size="10.00">heredoc_fd</text>
</a>
</g>
</g>
<!-- Node28&#45;&gt;Node29 -->
<g id="edge40" class="edge">
<title>Node28&#45;&gt;Node29</title>
<path fill="none" stroke="#63b8ff" d="M831.61,-32.8C852.1,-32.8 875.87,-32.8 896.01,-32.8"/>
<polygon fill="#63b8ff" stroke="#63b8ff" points="896.17,-36.3 906.17,-32.8 896.17,-29.3 896.17,-36.3"/>
</g>
<!-- Node30 -->
<g id="node30" class="node">
<title>Node30</title>
<g id="a_node30"><a xlink:href="execute__redirect_8c.html#a639d0a6f315a3bae78d204ff798e314f" target="_top" xlink:title=" ">
<polygon fill="white" stroke="#666666" points="1145,-42.3 1038,-42.3 1038,-23.3 1145,-23.3 1145,-42.3"/>
<text text-anchor="middle" x="1091.5" y="-30.3" font-family="Helvetica,sans-Serif" font-size="10.00">get_heredoc_input</text>
</a>
</g>
</g>
<!-- Node29&#45;&gt;Node30 -->
<g id="edge41" class="edge">
<title>Node29&#45;&gt;Node30</title>
<path fill="none" stroke="#63b8ff" d="M977.58,-32.8C992.6,-32.8 1010.67,-32.8 1027.91,-32.8"/>
<polygon fill="#63b8ff" stroke="#63b8ff" points="1027.94,-36.3 1037.94,-32.8 1027.94,-29.3 1027.94,-36.3"/>
</g>
<!-- Node31 -->
<g id="node31" class="node">
<title>Node31</title>
<g id="a_node31"><a xlink:href="execute__redirect_8c.html#a4e396606481bc13335d3dfae7ff15407" target="_top" xlink:title=" ">
<polygon fill="white" stroke="#666666" points="1298.5,-42.3 1196.5,-42.3 1196.5,-23.3 1298.5,-23.3 1298.5,-42.3"/>
<text text-anchor="middle" x="1247.5" y="-30.3" font-family="Helvetica,sans-Serif" font-size="10.00">is_heredoc_delim</text>
</a>
</g>
</g>
<!-- Node30&#45;&gt;Node31 -->
<g id="edge42" class="edge">
<title>Node30&#45;&gt;Node31</title>
<path fill="none" stroke="#63b8ff" d="M1145.07,-32.8C1158.26,-32.8 1172.52,-32.8 1186.06,-32.8"/>
<polygon fill="#63b8ff" stroke="#63b8ff" points="1186.25,-36.3 1196.25,-32.8 1186.25,-29.3 1186.25,-36.3"/>
</g>
<!-- Node32&#45;&gt;Node3 -->
<g id="edge44" class="edge">
<title>Node32&#45;&gt;Node3</title>
<path fill="none" stroke="#63b8ff" d="M272.93,-311.11C268.82,-309.52 264.79,-307.74 261,-305.8 236.84,-293.42 212.27,-273.35 198.12,-258.4"/>
<polygon fill="#63b8ff" stroke="#63b8ff" points="200.61,-255.93 191.4,-250.7 195.34,-260.53 200.61,-255.93"/>
</g>
<!-- Node33&#45;&gt;Node3 -->
<g id="edge46" class="edge">
<title>Node33&#45;&gt;Node3</title>
<path fill="none" stroke="#63b8ff" d="M265.15,-247.43C254.49,-247.63 243.36,-247.58 232.93,-247.29"/>
<polygon fill="#63b8ff" stroke="#63b8ff" points="232.89,-243.79 222.77,-246.92 232.64,-250.79 232.89,-243.79"/>
</g>
<!-- Node34&#45;&gt;Node3 -->
<g id="edge48" class="edge">
<title>Node34&#45;&gt;Node3</title>
<path fill="none" stroke="#63b8ff" d="M268.3,-270.43C249.53,-265.61 228.88,-259.49 212.97,-253.93"/>
<polygon fill="#63b8ff" stroke="#63b8ff" points="213.85,-250.52 203.26,-250.37 211.44,-257.1 213.85,-250.52"/>
</g>
<!-- Node34&#45;&gt;Node12 -->
<g id="edge49" class="edge">
<title>Node34&#45;&gt;Node12</title>
<path fill="none" stroke="#63b8ff" d="M354.62,-268.27C422.22,-250 569.74,-211.8 622,-211.8 622,-211.8 622,-211.8 783.5,-211.8 866.05,-211.8 961.08,-211.8 1023.28,-211.8"/>
<polygon fill="#63b8ff" stroke="#63b8ff" points="1023.35,-215.3 1033.35,-211.8 1023.35,-208.3 1023.35,-215.3"/>
</g>
</g>
</svg>
