<?xml version="1.0" encoding="UTF-8" standalone="no"?>
<!DOCTYPE svg PUBLIC "-//W3C//DTD SVG 1.1//EN"
 "http://www.w3.org/Graphics/SVG/1.1/DTD/svg11.dtd">
<!-- Generated by graphviz version 2.43.0 (0)
 -->
<!-- Title: execute_sequence Pages: 1 -->
<!--zoomable 414 -->
<svg id="main" version="1.1" xmlns="http://www.w3.org/2000/svg" xmlns:xlink="http://www.w3.org/1999/xlink" xml:space="preserve" onload="init(evt)">
<style type="text/css"><![CDATA[
.edge:hover path { stroke: red; }
.edge:hover polygon { stroke: red; fill: red; }
]]></style>
<script type="text/javascript"><![CDATA[
var edges = document.getElementsByTagName('g');
if (edges && edges.length) {
  for (var i=0;i<edges.length;i++) {
    if (edges[i].id.substr(0,4)=='edge') {
      edges[i].setAttribute('class','edge');
    }
  }
}
]]></script>
        <defs>
                <circle id="rim" cx="0" cy="0" r="7"/>
                <circle id="rim2" cx="0" cy="0" r="3.5"/>
                <g id="zoomPlus">
                        <use xlink:href="#rim" fill="#404040">
                                <set attributeName="fill" to="#808080" begin="zoomplus.mouseover" end="zoomplus.mouseout"/>
                        </use>
                        <path d="M-4,0h8M0,-4v8" fill="none" stroke="white" stroke-width="1.5" pointer-events="none"/>
                </g>
                <g id="zoomMin">
                        <use xlink:href="#rim" fill="#404040">
                                <set attributeName="fill" to="#808080" begin="zoomminus.mouseover" end="zoomminus.mouseout"/>
                        </use>
                        <path d="M-4,0h8" fill="none" stroke="white" stroke-width="1.5" pointer-events="none"/>
                </g>
                <g id="dirArrow">
                        <path fill="none" stroke="white" stroke-width="1.5" d="M0,-3.0v7 M-2.5,-0.5L0,-3.0L2.5,-0.5"/>
                </g>
               <g id="resetDef">
                       <use xlink:href="#rim2" fill="#404040">
                               <set attributeName="fill" to="#808080" begin="reset.mouseover" end="reset.mouseout"/>
                       </use>
               </g>
        </defs>

<script type="text/javascript">
var viewWidth = 1310;
var viewHeight = 414;
var sectionId = 'dynsection-11';
</script>
<script xlink:href="svgpan.js"/>
<svg id="graph" class="graph">
<g id="viewport">
<title>execute_sequence</title>
<!-- Node1 -->
<g id="node1" class="node">
<title>Node1</title>
<g id="a_node1"><a xlink:title=" ">
<polygon fill="#999999" stroke="#666666" points="107,-198 0,-198 0,-179 107,-179 107,-198"/>
<text text-anchor="middle" x="53.5" y="-186" font-family="Helvetica,sans-Serif" font-size="10.00">execute_sequence</text>
</a>
</g>
</g>
<!-- Node2 -->
<g id="node2" class="node">
<title>Node2</title>
<g id="a_node2"><a xlink:href="execute__ast_8c.html#ad26a20a665ab7fdeb714ed53c1afd104" target="_top" xlink:title=" ">
<polygon fill="white" stroke="#666666" points="218,-198 143,-198 143,-179 218,-179 218,-198"/>
<text text-anchor="middle" x="180.5" y="-186" font-family="Helvetica,sans-Serif" font-size="10.00">execute_ast</text>
</a>
</g>
</g>
<!-- Node1&#45;&gt;Node2 -->
<g id="edge1" class="edge">
<title>Node1&#45;&gt;Node2</title>
<path fill="none" stroke="#63b8ff" d="M107.15,-181.83C115.59,-181.7 124.28,-181.73 132.58,-181.94"/>
<polygon fill="#63b8ff" stroke="#63b8ff" points="132.72,-185.45 142.84,-182.29 132.96,-178.45 132.72,-185.45"/>
</g>
<!-- Node2&#45;&gt;Node1 -->
<g id="edge46" class="edge">
<title>Node2&#45;&gt;Node1</title>
<path fill="none" stroke="#63b8ff" d="M142.84,-194.71C134.81,-195.06 126.09,-195.25 117.36,-195.25"/>
<polygon fill="#63b8ff" stroke="#63b8ff" points="117.17,-191.75 107.15,-195.17 117.12,-198.75 117.17,-191.75"/>
</g>
<!-- Node3 -->
<g id="node3" class="node">
<title>Node3</title>
<g id="a_node3"><a xlink:href="execute__cmd_8c.html#a94ea9cc5a046ce96e36764bf0e4fa2c0" target="_top" xlink:title=" ">
<polygon fill="white" stroke="#666666" points="352.5,-367 271.5,-367 271.5,-348 352.5,-348 352.5,-367"/>
<text text-anchor="middle" x="312" y="-355" font-family="Helvetica,sans-Serif" font-size="10.00">execute_cmd</text>
</a>
</g>
</g>
<!-- Node2&#45;&gt;Node3 -->
<g id="edge2" class="edge">
<title>Node2&#45;&gt;Node3</title>
<path fill="none" stroke="#63b8ff" d="M183.37,-198.25C189,-224.95 208.31,-299.87 254,-339.5 256.51,-341.68 259.28,-343.59 262.21,-345.27"/>
<polygon fill="#63b8ff" stroke="#63b8ff" points="260.84,-348.5 271.37,-349.66 263.86,-342.18 260.84,-348.5"/>
</g>
<!-- Node19 -->
<g id="node19" class="node">
<title>Node19</title>
<g id="a_node19"><a xlink:href="execute__logical__and_8c.html#a4f940752faf9f9a258c49810b21efe47" target="_top" xlink:title=" ">
<polygon fill="white" stroke="#666666" points="370,-330 254,-330 254,-311 370,-311 370,-330"/>
<text text-anchor="middle" x="312" y="-318" font-family="Helvetica,sans-Serif" font-size="10.00">execute_logical_and</text>
</a>
</g>
</g>
<!-- Node2&#45;&gt;Node19 -->
<g id="edge21" class="edge">
<title>Node2&#45;&gt;Node19</title>
<path fill="none" stroke="#63b8ff" d="M187.2,-198.24C197.05,-219.3 219.59,-267.06 254,-293.5 262.83,-300.28 274.26,-304.54 284.57,-307.86"/>
<polygon fill="#63b8ff" stroke="#63b8ff" points="283.78,-311.28 294.37,-310.93 285.87,-304.6 283.78,-311.28"/>
</g>
<!-- Node20 -->
<g id="node20" class="node">
<title>Node20</title>
<g id="a_node20"><a xlink:href="execute__logical__or_8c.html#a7e732d7c30b07010fa55850051007dcc" target="_top" xlink:title=" ">
<polygon fill="white" stroke="#666666" points="365.5,-293 258.5,-293 258.5,-274 365.5,-274 365.5,-293"/>
<text text-anchor="middle" x="312" y="-281" font-family="Helvetica,sans-Serif" font-size="10.00">execute_logical_or</text>
</a>
</g>
</g>
<!-- Node2&#45;&gt;Node20 -->
<g id="edge23" class="edge">
<title>Node2&#45;&gt;Node20</title>
<path fill="none" stroke="#63b8ff" d="M195.05,-198.09C208.64,-211.66 230.82,-235.09 254,-250.5 265.48,-258.13 279.78,-264.15 291.19,-269.38"/>
<polygon fill="#63b8ff" stroke="#63b8ff" points="289.8,-272.59 300.32,-273.8 292.85,-266.29 289.8,-272.59"/>
</g>
<!-- Node21 -->
<g id="node21" class="node">
<title>Node21</title>
<g id="a_node21"><a xlink:href="execute__pipe_8c.html#a5f3546dc2c7cf06c982afba41e722164" target="_top" xlink:title=" ">
<polygon fill="white" stroke="#666666" points="352.5,-217 271.5,-217 271.5,-198 352.5,-198 352.5,-217"/>
<text text-anchor="middle" x="312" y="-205" font-family="Helvetica,sans-Serif" font-size="10.00">execute_pipe</text>
</a>
</g>
</g>
<!-- Node2&#45;&gt;Node21 -->
<g id="edge25" class="edge">
<title>Node2&#45;&gt;Node21</title>
<path fill="none" stroke="#63b8ff" d="M218.26,-193.89C231.62,-195.85 246.95,-198.1 261.24,-200.2"/>
<polygon fill="#63b8ff" stroke="#63b8ff" points="261.02,-203.7 271.43,-201.69 262.04,-196.78 261.02,-203.7"/>
</g>
<!-- Node26 -->
<g id="node26" class="node">
<title>Node26</title>
<g id="a_node26"><a xlink:href="execute__redirect_8c.html#a1004307aba80117ddd99f009e52fb155" target="_top" xlink:title=" ">
<polygon fill="white" stroke="#666666" points="361,-28 263,-28 263,-9 361,-9 361,-28"/>
<text text-anchor="middle" x="312" y="-16" font-family="Helvetica,sans-Serif" font-size="10.00">execute_redirect</text>
</a>
</g>
</g>
<!-- Node2&#45;&gt;Node26 -->
<g id="edge35" class="edge">
<title>Node2&#45;&gt;Node26</title>
<path fill="none" stroke="#63b8ff" d="M183.76,-178.91C190.25,-153.31 211.3,-82.61 254,-42.5 258.11,-38.64 262.93,-35.35 268,-32.57"/>
<polygon fill="#63b8ff" stroke="#63b8ff" points="269.8,-35.58 277.29,-28.08 266.76,-29.28 269.8,-35.58"/>
</g>
<!-- Node34 -->
<g id="node34" class="node">
<title>Node34</title>
<g id="a_node34"><a xlink:href="execute__repeat_8c.html#a00d48683c54b50130b4a402e6e97fa97" target="_top" xlink:title=" ">
<polygon fill="white" stroke="#666666" points="358,-180 266,-180 266,-161 358,-161 358,-180"/>
<text text-anchor="middle" x="312" y="-168" font-family="Helvetica,sans-Serif" font-size="10.00">execute_repeat</text>
</a>
</g>
</g>
<!-- Node2&#45;&gt;Node34 -->
<g id="edge44" class="edge">
<title>Node2&#45;&gt;Node34</title>
<path fill="none" stroke="#63b8ff" d="M209.28,-178.98C222.82,-176.2 239.59,-173.52 255.59,-171.51"/>
<polygon fill="#63b8ff" stroke="#63b8ff" points="256.42,-174.94 265.95,-170.3 255.61,-167.99 256.42,-174.94"/>
</g>
<!-- Node35 -->
<g id="node35" class="node">
<title>Node35</title>
<g id="a_node35"><a xlink:href="execute__subshell_8c.html#a40a27866de012b013a337f794a858d70" target="_top" xlink:title=" ">
<polygon fill="white" stroke="#666666" points="362.5,-104 261.5,-104 261.5,-85 362.5,-85 362.5,-104"/>
<text text-anchor="middle" x="312" y="-92" font-family="Helvetica,sans-Serif" font-size="10.00">execute_subshell</text>
</a>
</g>
</g>
<!-- Node2&#45;&gt;Node35 -->
<g id="edge47" class="edge">
<title>Node2&#45;&gt;Node35</title>
<path fill="none" stroke="#63b8ff" d="M185.57,-179C195.86,-161.94 224.21,-129.16 254,-109.5 254.09,-109.44 254.18,-109.38 254.27,-109.32"/>
<polygon fill="#63b8ff" stroke="#63b8ff" points="256.21,-112.24 263.04,-104.14 252.65,-106.22 256.21,-112.24"/>
</g>
<!-- Node4 -->
<g id="node4" class="node">
<title>Node4</title>
<g id="a_node4"><a xlink:href="execute__cmd_8c.html#a0cfd2364134e68efdd39533e00b4b0d9" target="_top" xlink:title=" ">
<polygon fill="white" stroke="#666666" points="525,-406 406,-406 406,-387 525,-387 525,-406"/>
<text text-anchor="middle" x="465.5" y="-394" font-family="Helvetica,sans-Serif" font-size="10.00">execute_local_binary</text>
</a>
</g>
</g>
<!-- Node3&#45;&gt;Node4 -->
<g id="edge3" class="edge">
<title>Node3&#45;&gt;Node4</title>
<path fill="none" stroke="#63b8ff" d="M350.06,-367.04C370.5,-372.3 396.07,-378.88 417.85,-384.49"/>
<polygon fill="#63b8ff" stroke="#63b8ff" points="417,-387.89 427.56,-386.99 418.75,-381.11 417,-387.89"/>
</g>
<!-- Node13 -->
<g id="node13" class="node">
<title>Node13</title>
<g id="a_node13"><a xlink:href="execute__cmd_8c.html#a460126af28ab29df4340554fae9fc57a" target="_top" xlink:title=" ">
<polygon fill="white" stroke="#666666" points="524.5,-367 406.5,-367 406.5,-348 524.5,-348 524.5,-367"/>
<text text-anchor="middle" x="465.5" y="-355" font-family="Helvetica,sans-Serif" font-size="10.00">execute_path_binary</text>
</a>
</g>
</g>
<!-- Node3&#45;&gt;Node13 -->
<g id="edge13" class="edge">
<title>Node3&#45;&gt;Node13</title>
<path fill="none" stroke="#63b8ff" d="M352.8,-357.5C366.13,-357.5 381.38,-357.5 396.24,-357.5"/>
<polygon fill="#63b8ff" stroke="#63b8ff" points="396.44,-361 406.44,-357.5 396.44,-354 396.44,-361"/>
</g>
<!-- Node18 -->
<g id="node18" class="node">
<title>Node18</title>
<g id="a_node18"><a xlink:href="strings_8h.html#a36f055c4e56c8a784629908d0c5b91e5" target="_top" xlink:title=" ">
<polygon fill="white" stroke="#666666" points="987,-313 883,-313 883,-294 987,-294 987,-313"/>
<text text-anchor="middle" x="935" y="-301" font-family="Helvetica,sans-Serif" font-size="10.00">my_is_char_in_str</text>
</a>
</g>
</g>
<!-- Node3&#45;&gt;Node18 -->
<g id="edge20" class="edge">
<title>Node3&#45;&gt;Node18</title>
<path fill="none" stroke="#63b8ff" d="M346.74,-347.95C394.12,-335.08 483.29,-312.82 561,-304.5 670.31,-292.8 798.67,-296.18 872.75,-299.78"/>
<polygon fill="#63b8ff" stroke="#63b8ff" points="872.67,-303.28 882.84,-300.29 873.02,-296.29 872.67,-303.28"/>
</g>
<!-- Node5 -->
<g id="node5" class="node">
<title>Node5</title>
<g id="a_node5"><a xlink:href="execute__cmd_8c.html#a018afe6a043051ebc2e3dd9412587990" target="_top" xlink:title=" ">
<polygon fill="white" stroke="#666666" points="821,-406 730,-406 730,-387 821,-387 821,-406"/>
<text text-anchor="middle" x="775.5" y="-394" font-family="Helvetica,sans-Serif" font-size="10.00">execute_binary</text>
</a>
</g>
</g>
<!-- Node4&#45;&gt;Node5 -->
<g id="edge4" class="edge">
<title>Node4&#45;&gt;Node5</title>
<path fill="none" stroke="#63b8ff" d="M525.16,-396.5C581.07,-396.5 664.63,-396.5 719.35,-396.5"/>
<polygon fill="#63b8ff" stroke="#63b8ff" points="719.56,-400 729.56,-396.5 719.56,-393 719.56,-400"/>
</g>
<!-- Node6 -->
<g id="node6" class="node">
<title>Node6</title>
<g id="a_node6"><a xlink:href="env__to__word__array_8c.html#aea7253d35c5aa57d9cfe9d7df218cb90" target="_top" xlink:title=" ">
<polygon fill="white" stroke="#666666" points="990,-406 880,-406 880,-387 990,-387 990,-406"/>
<text text-anchor="middle" x="935" y="-394" font-family="Helvetica,sans-Serif" font-size="10.00">env_to_word_array</text>
</a>
</g>
</g>
<!-- Node5&#45;&gt;Node6 -->
<g id="edge5" class="edge">
<title>Node5&#45;&gt;Node6</title>
<path fill="none" stroke="#63b8ff" d="M821.21,-396.5C836.35,-396.5 853.57,-396.5 869.91,-396.5"/>
<polygon fill="#63b8ff" stroke="#63b8ff" points="869.95,-400 879.95,-396.5 869.95,-393 869.95,-400"/>
</g>
<!-- Node9 -->
<g id="node9" class="node">
<title>Node9</title>
<g id="a_node9"><a xlink:href="execute__cmd_8c.html#a6badc27baa1930e30ea2ad3817f65366" target="_top" xlink:title=" ">
<polygon fill="white" stroke="#666666" points="975,-360 895,-360 895,-341 975,-341 975,-360"/>
<text text-anchor="middle" x="935" y="-348" font-family="Helvetica,sans-Serif" font-size="10.00">execute_fork</text>
</a>
</g>
</g>
<!-- Node5&#45;&gt;Node9 -->
<g id="edge8" class="edge">
<title>Node5&#45;&gt;Node9</title>
<path fill="none" stroke="#63b8ff" d="M813.36,-386.96C823.33,-384.31 834.1,-381.36 844,-378.5 860.64,-373.7 878.9,-368.08 894.6,-363.14"/>
<polygon fill="#63b8ff" stroke="#63b8ff" points="896.02,-366.36 904.5,-360.01 893.91,-359.69 896.02,-366.36"/>
</g>
<!-- Node7 -->
<g id="node7" class="node">
<title>Node7</title>
<g id="a_node7"><a xlink:href="misc_8h.html#a1180cae2875b1fdcd58c9f9175a82c12" target="_top" xlink:title=" ">
<polygon fill="white" stroke="#666666" points="1143,-369 1026,-369 1026,-350 1143,-350 1143,-369"/>
<text text-anchor="middle" x="1084.5" y="-357" font-family="Helvetica,sans-Serif" font-size="10.00">my_free_word_array</text>
</a>
</g>
</g>
<!-- Node6&#45;&gt;Node7 -->
<g id="edge6" class="edge">
<title>Node6&#45;&gt;Node7</title>
<path fill="none" stroke="#63b8ff" d="M973.98,-386.97C992.75,-382.26 1015.59,-376.53 1035.55,-371.53"/>
<polygon fill="#63b8ff" stroke="#63b8ff" points="1036.54,-374.89 1045.39,-369.06 1034.84,-368.1 1036.54,-374.89"/>
</g>
<!-- Node8 -->
<g id="node8" class="node">
<title>Node8</title>
<g id="a_node8"><a xlink:href="list_8h.html#ad5ebb7cdb26f73e4b212dfc5eae4ef0e" target="_top" xlink:title=" ">
<polygon fill="white" stroke="#666666" points="1129,-406 1040,-406 1040,-387 1129,-387 1129,-406"/>
<text text-anchor="middle" x="1084.5" y="-394" font-family="Helvetica,sans-Serif" font-size="10.00">my_list_length</text>
</a>
</g>
</g>
<!-- Node6&#45;&gt;Node8 -->
<g id="edge7" class="edge">
<title>Node6&#45;&gt;Node8</title>
<path fill="none" stroke="#63b8ff" d="M990.09,-396.5C1002.93,-396.5 1016.64,-396.5 1029.48,-396.5"/>
<polygon fill="#63b8ff" stroke="#63b8ff" points="1029.56,-400 1039.56,-396.5 1029.56,-393 1029.56,-400"/>
</g>
<!-- Node9&#45;&gt;Node7 -->
<g id="edge9" class="edge">
<title>Node9&#45;&gt;Node7</title>
<path fill="none" stroke="#63b8ff" d="M975.14,-352.89C987.64,-353.65 1001.85,-354.52 1015.78,-355.37"/>
<polygon fill="#63b8ff" stroke="#63b8ff" points="1015.65,-358.87 1025.84,-355.98 1016.07,-351.88 1015.65,-358.87"/>
</g>
<!-- Node10 -->
<g id="node10" class="node">
<title>Node10</title>
<g id="a_node10"><a xlink:href="execute__cmd_8c.html#a2c49b9849cfef0deea03382c9f1b3ab8" target="_top" xlink:title=" ">
<polygon fill="white" stroke="#666666" points="1130.5,-332 1038.5,-332 1038.5,-313 1130.5,-313 1130.5,-332"/>
<text text-anchor="middle" x="1084.5" y="-320" font-family="Helvetica,sans-Serif" font-size="10.00">run_subprocess</text>
</a>
</g>
</g>
<!-- Node9&#45;&gt;Node10 -->
<g id="edge10" class="edge">
<title>Node9&#45;&gt;Node10</title>
<path fill="none" stroke="#63b8ff" d="M975.14,-343.07C991.41,-339.98 1010.58,-336.34 1028.24,-332.99"/>
<polygon fill="#63b8ff" stroke="#63b8ff" points="1029.26,-336.36 1038.43,-331.06 1027.95,-329.48 1029.26,-336.36"/>
</g>
<!-- Node11 -->
<g id="node11" class="node">
<title>Node11</title>
<g id="a_node11"><a xlink:href="wait__for__subprocess_8c.html#a1242d78540fd0ddef3d98a9f294cb0d4" target="_top" xlink:title=" ">
<polygon fill="white" stroke="#666666" points="1142.5,-218 1026.5,-218 1026.5,-199 1142.5,-199 1142.5,-218"/>
<text text-anchor="middle" x="1084.5" y="-206" font-family="Helvetica,sans-Serif" font-size="10.00">wait_for_subprocess</text>
</a>
</g>
</g>
<!-- Node9&#45;&gt;Node11 -->
<g id="edge11" class="edge">
<title>Node9&#45;&gt;Node11</title>
<path fill="none" stroke="#63b8ff" d="M959.31,-340.96C969.33,-336.24 980.81,-329.95 990,-322.5 1024.94,-294.19 1055.95,-251.05 1071.98,-226.76"/>
<polygon fill="#63b8ff" stroke="#63b8ff" points="1075.05,-228.46 1077.54,-218.17 1069.17,-224.66 1075.05,-228.46"/>
</g>
<!-- Node12 -->
<g id="node12" class="node">
<title>Node12</title>
<g id="a_node12"><a xlink:href="wait__for__subprocess_8c.html#a885766ba6ba593b7cf27b917dd52b1a6" target="_top" xlink:title=" ">
<polygon fill="white" stroke="#666666" points="1302,-218 1179,-218 1179,-199 1302,-199 1302,-218"/>
<text text-anchor="middle" x="1240.5" y="-206" font-family="Helvetica,sans-Serif" font-size="10.00">print_signal_message</text>
</a>
</g>
</g>
<!-- Node11&#45;&gt;Node12 -->
<g id="edge12" class="edge">
<title>Node11&#45;&gt;Node12</title>
<path fill="none" stroke="#63b8ff" d="M1142.84,-208.5C1151.26,-208.5 1160.02,-208.5 1168.67,-208.5"/>
<polygon fill="#63b8ff" stroke="#63b8ff" points="1168.76,-212 1178.76,-208.5 1168.76,-205 1168.76,-212"/>
</g>
<!-- Node14 -->
<g id="node14" class="node">
<title>Node14</title>
<g id="a_node14"><a xlink:href="get__variable__value_8c.html#a2edd9900f19af236aa05385a789be3d6" target="_top" xlink:title=" ">
<polygon fill="white" stroke="#666666" points="671,-369 561,-369 561,-350 671,-350 671,-369"/>
<text text-anchor="middle" x="616" y="-357" font-family="Helvetica,sans-Serif" font-size="10.00">get_variable_value</text>
</a>
</g>
</g>
<!-- Node13&#45;&gt;Node14 -->
<g id="edge14" class="edge">
<title>Node13&#45;&gt;Node14</title>
<path fill="none" stroke="#63b8ff" d="M524.76,-358.28C533.29,-358.4 542.11,-358.52 550.75,-358.63"/>
<polygon fill="#63b8ff" stroke="#63b8ff" points="550.73,-362.13 560.78,-358.77 550.83,-355.14 550.73,-362.13"/>
</g>
<!-- Node16 -->
<g id="node16" class="node">
<title>Node16</title>
<g id="a_node16"><a xlink:href="execute__cmd_8c.html#aee9e13edede9df28fac066f30e7ae7ed" target="_top" xlink:title=" ">
<polygon fill="white" stroke="#666666" points="658,-332 574,-332 574,-313 658,-313 658,-332"/>
<text text-anchor="middle" x="616" y="-320" font-family="Helvetica,sans-Serif" font-size="10.00">try_command</text>
</a>
</g>
</g>
<!-- Node13&#45;&gt;Node16 -->
<g id="edge16" class="edge">
<title>Node13&#45;&gt;Node16</title>
<path fill="none" stroke="#63b8ff" d="M507.08,-347.94C524.84,-343.75 545.86,-338.8 564.61,-334.38"/>
<polygon fill="#63b8ff" stroke="#63b8ff" points="565.54,-337.75 574.47,-332.05 563.93,-330.94 565.54,-337.75"/>
</g>
<!-- Node15 -->
<g id="node15" class="node">
<title>Node15</title>
<g id="a_node15"><a xlink:href="get__variable_8c.html#a569170390f0edf013bf89c26ef55ea8c" target="_top" xlink:title=" ">
<polygon fill="white" stroke="#666666" points="814,-369 737,-369 737,-350 814,-350 814,-369"/>
<text text-anchor="middle" x="775.5" y="-357" font-family="Helvetica,sans-Serif" font-size="10.00">get_variable</text>
</a>
</g>
</g>
<!-- Node14&#45;&gt;Node15 -->
<g id="edge15" class="edge">
<title>Node14&#45;&gt;Node15</title>
<path fill="none" stroke="#63b8ff" d="M671.2,-359.5C689.04,-359.5 708.73,-359.5 726.11,-359.5"/>
<polygon fill="#63b8ff" stroke="#63b8ff" points="726.58,-363 736.58,-359.5 726.58,-356 726.58,-363"/>
</g>
<!-- Node16&#45;&gt;Node5 -->
<g id="edge17" class="edge">
<title>Node16&#45;&gt;Node5</title>
<path fill="none" stroke="#63b8ff" d="M651.81,-332.08C658.44,-334.64 665.14,-337.75 671,-341.5 690.33,-353.86 687.2,-366.9 707,-378.5 711.16,-380.94 715.66,-383.05 720.29,-384.89"/>
<polygon fill="#63b8ff" stroke="#63b8ff" points="719.32,-388.26 729.92,-388.27 721.64,-381.65 719.32,-388.26"/>
</g>
<!-- Node17 -->
<g id="node17" class="node">
<title>Node17</title>
<g id="a_node17"><a xlink:href="execute__cmd_8c.html#a9ef2f2dfa839f59ba42718ef236d4dcb" target="_top" xlink:title=" ">
<polygon fill="white" stroke="#666666" points="844,-332 707,-332 707,-313 844,-313 844,-332"/>
<text text-anchor="middle" x="775.5" y="-320" font-family="Helvetica,sans-Serif" font-size="10.00">print_permission_denied</text>
</a>
</g>
</g>
<!-- Node16&#45;&gt;Node17 -->
<g id="edge18" class="edge">
<title>Node16&#45;&gt;Node17</title>
<path fill="none" stroke="#63b8ff" d="M658.38,-322.5C670.22,-322.5 683.52,-322.5 696.79,-322.5"/>
<polygon fill="#63b8ff" stroke="#63b8ff" points="696.9,-326 706.9,-322.5 696.9,-319 696.9,-326"/>
</g>
<!-- Node17&#45;&gt;Node18 -->
<g id="edge19" class="edge">
<title>Node17&#45;&gt;Node18</title>
<path fill="none" stroke="#63b8ff" d="M844.21,-314.33C853.64,-313.19 863.28,-312.03 872.59,-310.91"/>
<polygon fill="#63b8ff" stroke="#63b8ff" points="873.02,-314.38 882.52,-309.71 872.18,-307.43 873.02,-314.38"/>
</g>
<!-- Node19&#45;&gt;Node2 -->
<g id="edge22" class="edge">
<title>Node19&#45;&gt;Node2</title>
<path fill="none" stroke="#63b8ff" d="M254.25,-311.69C254.16,-311.63 254.08,-311.56 254,-311.5 219.03,-284.63 196.31,-235.73 186.72,-208.09"/>
<polygon fill="#63b8ff" stroke="#63b8ff" points="189.97,-206.77 183.6,-198.31 183.31,-208.9 189.97,-206.77"/>
</g>
<!-- Node20&#45;&gt;Node2 -->
<g id="edge24" class="edge">
<title>Node20&#45;&gt;Node2</title>
<path fill="none" stroke="#63b8ff" d="M263.02,-273.88C259.9,-272.2 256.86,-270.4 254,-268.5 228.51,-251.56 204.23,-224.91 191.26,-206.73"/>
<polygon fill="#63b8ff" stroke="#63b8ff" points="193.98,-204.5 185.55,-198.08 188.14,-208.36 193.98,-204.5"/>
</g>
<!-- Node21&#45;&gt;Node11 -->
<g id="edge34" class="edge">
<title>Node21&#45;&gt;Node11</title>
<path fill="none" stroke="#63b8ff" d="M352.57,-207.71C410.28,-208.01 520.89,-208.5 615,-208.5 615,-208.5 615,-208.5 776.5,-208.5 859.05,-208.5 954.08,-208.5 1016.28,-208.5"/>
<polygon fill="#63b8ff" stroke="#63b8ff" points="1016.35,-212 1026.35,-208.5 1016.35,-205 1016.35,-212"/>
</g>
<!-- Node22 -->
<g id="node22" class="node">
<title>Node22</title>
<g id="a_node22"><a xlink:href="execute__pipe_8c.html#a723ff799f939872d17f109a82342294e" target="_top" xlink:title=" ">
<polygon fill="white" stroke="#666666" points="647,-180 585,-180 585,-161 647,-161 647,-180"/>
<text text-anchor="middle" x="616" y="-168" font-family="Helvetica,sans-Serif" font-size="10.00">close_fds</text>
</a>
</g>
</g>
<!-- Node21&#45;&gt;Node22 -->
<g id="edge26" class="edge">
<title>Node21&#45;&gt;Node22</title>
<path fill="none" stroke="#63b8ff" d="M352.8,-201.72C369.25,-199.38 388.53,-196.72 406,-194.5 464.62,-187.04 532.62,-179.42 574.73,-174.83"/>
<polygon fill="#63b8ff" stroke="#63b8ff" points="575.3,-178.29 584.86,-173.73 574.54,-171.33 575.3,-178.29"/>
</g>
<!-- Node23 -->
<g id="node23" class="node">
<title>Node23</title>
<g id="a_node23"><a xlink:href="execute__pipe_8c.html#ac529ffc2370b0133613ef8a81e58ed85" target="_top" xlink:title=" ">
<polygon fill="white" stroke="#666666" points="516.5,-256 414.5,-256 414.5,-237 516.5,-237 516.5,-256"/>
<text text-anchor="middle" x="465.5" y="-244" font-family="Helvetica,sans-Serif" font-size="10.00">execute_pipe_left</text>
</a>
</g>
</g>
<!-- Node21&#45;&gt;Node23 -->
<g id="edge27" class="edge">
<title>Node21&#45;&gt;Node23</title>
<path fill="none" stroke="#63b8ff" d="M350.06,-217.04C370.5,-222.3 396.07,-228.88 417.85,-234.49"/>
<polygon fill="#63b8ff" stroke="#63b8ff" points="417,-237.89 427.56,-236.99 418.75,-231.11 417,-237.89"/>
</g>
<!-- Node24 -->
<g id="node24" class="node">
<title>Node24</title>
<g id="a_node24"><a xlink:href="execute__pipe_8c.html#a9ed6eabb8a9f7049f91265a5f45e30c8" target="_top" xlink:title=" ">
<polygon fill="white" stroke="#666666" points="520,-142 411,-142 411,-123 520,-123 520,-142"/>
<text text-anchor="middle" x="465.5" y="-130" font-family="Helvetica,sans-Serif" font-size="10.00">execute_pipe_right</text>
</a>
</g>
</g>
<!-- Node21&#45;&gt;Node24 -->
<g id="edge30" class="edge">
<title>Node21&#45;&gt;Node24</title>
<path fill="none" stroke="#63b8ff" d="M348.93,-197.99C356.14,-195.41 363.5,-192.26 370,-188.5 388.53,-177.79 387.84,-167.83 406,-156.5 412.34,-152.54 419.44,-148.99 426.45,-145.92"/>
<polygon fill="#63b8ff" stroke="#63b8ff" points="427.98,-149.07 435.88,-142.02 425.3,-142.6 427.98,-149.07"/>
</g>
<!-- Node23&#45;&gt;Node2 -->
<g id="edge29" class="edge">
<title>Node23&#45;&gt;Node2</title>
<path fill="none" stroke="#63b8ff" d="M414.13,-247.13C370.83,-246.41 307.14,-242.28 254,-226.5 236.51,-221.31 218.33,-211.76 204.55,-203.54"/>
<polygon fill="#63b8ff" stroke="#63b8ff" points="206.13,-200.4 195.78,-198.13 202.45,-206.36 206.13,-200.4"/>
</g>
<!-- Node23&#45;&gt;Node22 -->
<g id="edge28" class="edge">
<title>Node23&#45;&gt;Node22</title>
<path fill="none" stroke="#63b8ff" d="M485.31,-236.87C511.08,-223.68 557.57,-199.89 587.32,-184.67"/>
<polygon fill="#63b8ff" stroke="#63b8ff" points="589.04,-187.72 596.35,-180.05 585.85,-181.49 589.04,-187.72"/>
</g>
<!-- Node24&#45;&gt;Node2 -->
<g id="edge32" class="edge">
<title>Node24&#45;&gt;Node2</title>
<path fill="none" stroke="#63b8ff" d="M410.7,-131.77C367.54,-132.5 305.82,-136.54 254,-151.5 236.68,-156.5 218.62,-165.7 204.86,-173.68"/>
<polygon fill="#63b8ff" stroke="#63b8ff" points="202.86,-170.8 196.08,-178.94 206.45,-176.8 202.86,-170.8"/>
</g>
<!-- Node24&#45;&gt;Node22 -->
<g id="edge31" class="edge">
<title>Node24&#45;&gt;Node22</title>
<path fill="none" stroke="#63b8ff" d="M503.97,-142.09C525.58,-147.62 552.75,-154.57 574.8,-160.21"/>
<polygon fill="#63b8ff" stroke="#63b8ff" points="573.98,-163.62 584.53,-162.7 575.71,-156.83 573.98,-163.62"/>
</g>
<!-- Node25 -->
<g id="node25" class="node">
<title>Node25</title>
<g id="a_node25"><a xlink:href="execute__pipe_8c.html#ac3d3a124b262676fa0679720f99a7f83" target="_top" xlink:title=" ">
<polygon fill="white" stroke="#666666" points="656,-142 576,-142 576,-123 656,-123 656,-142"/>
<text text-anchor="middle" x="616" y="-130" font-family="Helvetica,sans-Serif" font-size="10.00">restore_stdin</text>
</a>
</g>
</g>
<!-- Node24&#45;&gt;Node25 -->
<g id="edge33" class="edge">
<title>Node24&#45;&gt;Node25</title>
<path fill="none" stroke="#63b8ff" d="M520.11,-132.5C534.95,-132.5 550.99,-132.5 565.58,-132.5"/>
<polygon fill="#63b8ff" stroke="#63b8ff" points="565.91,-136 575.91,-132.5 565.91,-129 565.91,-136"/>
</g>
<!-- Node27 -->
<g id="node27" class="node">
<title>Node27</title>
<g id="a_node27"><a xlink:href="execute__redirect_8c.html#a5aa0f008806cc0e8a7ba252d61b7001f" target="_top" xlink:title=" ">
<polygon fill="white" stroke="#666666" points="519,-37 412,-37 412,-18 519,-18 519,-37"/>
<text text-anchor="middle" x="465.5" y="-25" font-family="Helvetica,sans-Serif" font-size="10.00">redirect_execution</text>
</a>
</g>
</g>
<!-- Node26&#45;&gt;Node27 -->
<g id="edge36" class="edge">
<title>Node26&#45;&gt;Node27</title>
<path fill="none" stroke="#63b8ff" d="M361.35,-21.37C374.19,-22.13 388.24,-22.97 401.72,-23.77"/>
<polygon fill="#63b8ff" stroke="#63b8ff" points="401.7,-27.28 411.89,-24.37 402.11,-20.29 401.7,-27.28"/>
</g>
<!-- Node27&#45;&gt;Node2 -->
<g id="edge37" class="edge">
<title>Node27&#45;&gt;Node2</title>
<path fill="none" stroke="#63b8ff" d="M411.73,-34.87C357.98,-43.19 279.08,-57.89 254,-75.5 220.45,-99.06 198.78,-143.58 188.5,-169.14"/>
<polygon fill="#63b8ff" stroke="#63b8ff" points="185.1,-168.23 184.79,-178.82 191.64,-170.74 185.1,-168.23"/>
</g>
<!-- Node28 -->
<g id="node28" class="node">
<title>Node28</title>
<g id="a_node28"><a xlink:href="execute__redirect_8c.html#a1b8f325fc375581f81ae47a54e09cf0e" target="_top" xlink:title=" ">
<polygon fill="white" stroke="#666666" points="649,-56 583,-56 583,-37 649,-37 649,-56"/>
<text text-anchor="middle" x="616" y="-44" font-family="Helvetica,sans-Serif" font-size="10.00">restore_fd</text>
</a>
</g>
</g>
<!-- Node27&#45;&gt;Node28 -->
<g id="edge38" class="edge">
<title>Node27&#45;&gt;Node28</title>
<path fill="none" stroke="#63b8ff" d="M519.27,-34.25C536.81,-36.5 556.09,-38.96 572.73,-41.09"/>
<polygon fill="#63b8ff" stroke="#63b8ff" points="572.34,-44.57 582.71,-42.37 573.23,-37.63 572.34,-44.57"/>
</g>
<!-- Node29 -->
<g id="node29" class="node">
<title>Node29</title>
<g id="a_node29"><a xlink:href="execute__redirect_8c.html#a6cb002bd51f2009eaacc66d388c5f9a7" target="_top" xlink:title=" ">
<polygon fill="white" stroke="#666666" points="666.5,-19 565.5,-19 565.5,0 666.5,0 666.5,-19"/>
<text text-anchor="middle" x="616" y="-7" font-family="Helvetica,sans-Serif" font-size="10.00">setup_redirection</text>
</a>
</g>
</g>
<!-- Node27&#45;&gt;Node29 -->
<g id="edge39" class="edge">
<title>Node27&#45;&gt;Node29</title>
<path fill="none" stroke="#63b8ff" d="M519.27,-21.1C530.88,-19.7 543.25,-18.2 555.12,-16.76"/>
<polygon fill="#63b8ff" stroke="#63b8ff" points="555.87,-20.19 565.38,-15.51 555.03,-13.24 555.87,-20.19"/>
</g>
<!-- Node30 -->
<g id="node30" class="node">
<title>Node30</title>
<g id="a_node30"><a xlink:href="execute__redirect_8c.html#a0e31af51537a8c047a3aca7cdb63d5dd" target="_top" xlink:title=" ">
<polygon fill="white" stroke="#666666" points="824.5,-19 726.5,-19 726.5,0 824.5,0 824.5,-19"/>
<text text-anchor="middle" x="775.5" y="-7" font-family="Helvetica,sans-Serif" font-size="10.00">open_redirect_fd</text>
</a>
</g>
</g>
<!-- Node29&#45;&gt;Node30 -->
<g id="edge40" class="edge">
<title>Node29&#45;&gt;Node30</title>
<path fill="none" stroke="#63b8ff" d="M666.83,-9.5C682.43,-9.5 699.79,-9.5 715.93,-9.5"/>
<polygon fill="#63b8ff" stroke="#63b8ff" points="716.34,-13 726.34,-9.5 716.34,-6 716.34,-13"/>
</g>
<!-- Node31 -->
<g id="node31" class="node">
<title>Node31</title>
<g id="a_node31"><a xlink:href="execute__redirect_8c.html#a71feea783167b3804f2793a232ca74b4" target="_top" xlink:title=" ">
<polygon fill="white" stroke="#666666" points="970.5,-19 899.5,-19 899.5,0 970.5,0 970.5,-19"/>
<text text-anchor="middle" x="935" y="-7" font-family="Helvetica,sans-Serif" font-size="10.00">heredoc_fd</text>
</a>
</g>
</g>
<!-- Node30&#45;&gt;Node31 -->
<g id="edge41" class="edge">
<title>Node30&#45;&gt;Node31</title>
<path fill="none" stroke="#63b8ff" d="M824.61,-9.5C845.1,-9.5 868.87,-9.5 889.01,-9.5"/>
<polygon fill="#63b8ff" stroke="#63b8ff" points="889.17,-13 899.17,-9.5 889.17,-6 889.17,-13"/>
</g>
<!-- Node32 -->
<g id="node32" class="node">
<title>Node32</title>
<g id="a_node32"><a xlink:href="execute__redirect_8c.html#a639d0a6f315a3bae78d204ff798e314f" target="_top" xlink:title=" ">
<polygon fill="white" stroke="#666666" points="1138,-19 1031,-19 1031,0 1138,0 1138,-19"/>
<text text-anchor="middle" x="1084.5" y="-7" font-family="Helvetica,sans-Serif" font-size="10.00">get_heredoc_input</text>
</a>
</g>
</g>
<!-- Node31&#45;&gt;Node32 -->
<g id="edge42" class="edge">
<title>Node31&#45;&gt;Node32</title>
<path fill="none" stroke="#63b8ff" d="M970.58,-9.5C985.6,-9.5 1003.67,-9.5 1020.91,-9.5"/>
<polygon fill="#63b8ff" stroke="#63b8ff" points="1020.94,-13 1030.94,-9.5 1020.94,-6 1020.94,-13"/>
</g>
<!-- Node33 -->
<g id="node33" class="node">
<title>Node33</title>
<g id="a_node33"><a xlink:href="execute__redirect_8c.html#a4e396606481bc13335d3dfae7ff15407" target="_top" xlink:title=" ">
<polygon fill="white" stroke="#666666" points="1291.5,-19 1189.5,-19 1189.5,0 1291.5,0 1291.5,-19"/>
<text text-anchor="middle" x="1240.5" y="-7" font-family="Helvetica,sans-Serif" font-size="10.00">is_heredoc_delim</text>
</a>
</g>
</g>
<!-- Node32&#45;&gt;Node33 -->
<g id="edge43" class="edge">
<title>Node32&#45;&gt;Node33</title>
<path fill="none" stroke="#63b8ff" d="M1138.07,-9.5C1151.26,-9.5 1165.52,-9.5 1179.06,-9.5"/>
<polygon fill="#63b8ff" stroke="#63b8ff" points="1179.25,-13 1189.25,-9.5 1179.25,-6 1179.25,-13"/>
</g>
<!-- Node34&#45;&gt;Node2 -->
<g id="edge45" class="edge">
<title>Node34&#45;&gt;Node2</title>
<path fill="none" stroke="#63b8ff" d="M283.21,-180.02C267.2,-183.31 246.66,-186.45 228.24,-188.52"/>
<polygon fill="#63b8ff" stroke="#63b8ff" points="227.85,-185.04 218.26,-189.55 228.57,-192 227.85,-185.04"/>
</g>
<!-- Node35&#45;&gt;Node2 -->
<g id="edge48" class="edge">
<title>Node35&#45;&gt;Node2</title>
<path fill="none" stroke="#63b8ff" d="M300.34,-104.22C288.43,-110.51 268.88,-117.68 254,-127.5 234.83,-140.15 216.26,-158.22 202.72,-171.63"/>
<polygon fill="#63b8ff" stroke="#63b8ff" points="200.01,-169.38 195.35,-178.9 204.93,-174.36 200.01,-169.38"/>
</g>
<!-- Node35&#45;&gt;Node11 -->
<g id="edge49" class="edge">
<title>Node35&#45;&gt;Node11</title>
<path fill="none" stroke="#63b8ff" d="M362.7,-94.5C422.55,-94.5 526.13,-94.5 615,-94.5 615,-94.5 615,-94.5 776.5,-94.5 888.93,-94.5 1010.86,-162.53 1060.52,-193.48"/>
<polygon fill="#63b8ff" stroke="#63b8ff" points="1058.87,-196.58 1069.2,-198.98 1062.62,-190.67 1058.87,-196.58"/>
</g>
</g>
</svg>
        <g id="navigator" transform="translate(0 0)" fill="#404254">
                <rect fill="#f2f5e9" fill-opacity="0.5" stroke="#606060" stroke-width=".5" x="0" y="0" width="60" height="60"/>
                <use id="zoomplus" xlink:href="#zoomPlus" x="17" y="9" onmousedown="handleZoom(evt,'in')"/>
                <use id="zoomminus" xlink:href="#zoomMin" x="42" y="9" onmousedown="handleZoom(evt,'out')"/>
                <use id="reset" xlink:href="#resetDef" x="30" y="36" onmousedown="handleReset()"/>
                <g id="arrowUp" xlink:href="#dirArrow" transform="translate(30 24)" onmousedown="handlePan(0,-1)">
                  <use xlink:href="#rim" fill="#404040">
                        <set attributeName="fill" to="#808080" begin="arrowUp.mouseover" end="arrowUp.mouseout"/>
                  </use>
                  <path fill="none" stroke="white" stroke-width="1.5" d="M0,-3.0v7 M-2.5,-0.5L0,-3.0L2.5,-0.5"/>
                </g>
                <g id="arrowRight" xlink:href="#dirArrow" transform="rotate(90) translate(36 -43)" onmousedown="handlePan(1,0)">
                  <use xlink:href="#rim" fill="#404040">
                        <set attributeName="fill" to="#808080" begin="arrowRight.mouseover" end="arrowRight.mouseout"/>
                  </use>
                  <path fill="none" stroke="white" stroke-width="1.5" d="M0,-3.0v7 M-2.5,-0.5L0,-3.0L2.5,-0.5"/>
                </g>
                <g id="arrowDown" xlink:href="#dirArrow" transform="rotate(180) translate(-30 -48)" onmousedown="handlePan(0,1)">
                  <use xlink:href="#rim" fill="#404040">
                        <set attributeName="fill" to="#808080" begin="arrowDown.mouseover" end="arrowDown.mouseout"/>
                  </use>
                  <path fill="none" stroke="white" stroke-width="1.5" d="M0,-3.0v7 M-2.5,-0.5L0,-3.0L2.5,-0.5"/>
                </g>
                <g id="arrowLeft" xlink:href="#dirArrow" transform="rotate(270) translate(-36 17)" onmousedown="handlePan(-1,0)">
                  <use xlink:href="#rim" fill="#404040">
                        <set attributeName="fill" to="#808080" begin="arrowLeft.mouseover" end="arrowLeft.mouseout"/>
                  </use>
                  <path fill="none" stroke="white" stroke-width="1.5" d="M0,-3.0v7 M-2.5,-0.5L0,-3.0L2.5,-0.5"/>
                </g>
        </g>
        <svg viewBox="0 0 15 15" width="100%" height="30px" preserveAspectRatio="xMaxYMin meet">
         <g id="arrow_out" transform="scale(0.3 0.3)">
          <a xlink:href="executer_8h_aad2caa5bf50b0752dd8272da477ec231_cgraph_org.svg" target="_base">
           <rect id="button" ry="5" rx="5" y="6" x="6" height="38" width="38"
                fill="#f2f5e9" fill-opacity="0.5" stroke="#606060" stroke-width="1.0"/>
           <path id="arrow"
             d="M 11.500037,31.436501 C 11.940474,20.09759 22.043105,11.32322 32.158766,21.979434 L 37.068811,17.246167 C 37.068811,17.246167 37.088388,32 37.088388,32 L 22.160133,31.978069 C 22.160133,31.978069 26.997745,27.140456 26.997745,27.140456 C 18.528582,18.264221 13.291696,25.230495 11.500037,31.436501 z"
             style="fill:#404040;"/>
          </a>
         </g>
        </svg>
</svg>
