<?xml version="1.0" encoding="UTF-8" standalone="no"?>
<!DOCTYPE svg PUBLIC "-//W3C//DTD SVG 1.1//EN"
 "http://www.w3.org/Graphics/SVG/1.1/DTD/svg11.dtd">
<!-- Generated by graphviz version 2.43.0 (0)
 -->
<!-- Title: execute_redirect Pages: 1 -->
<svg width="1470pt" height="487pt"
 viewBox="0.00 0.00 1470.00 487.00" xmlns="http://www.w3.org/2000/svg" xmlns:xlink="http://www.w3.org/1999/xlink">
<g id="graph0" class="graph" transform="scale(1 1) rotate(0) translate(4 483)">
<title>execute_redirect</title>
<!-- Node1 -->
<g id="node1" class="node">
<title>Node1</title>
<g id="a_node1"><a xlink:title=" ">
<polygon fill="#999999" stroke="#666666" points="98,-150 0,-150 0,-131 98,-131 98,-150"/>
<text text-anchor="middle" x="49" y="-138" font-family="Helvetica,sans-Serif" font-size="10.00">execute_redirect</text>
</a>
</g>
</g>
<!-- Node2 -->
<g id="node2" class="node">
<title>Node2</title>
<g id="a_node2"><a xlink:href="execute__redirect_8c.html#a5aa0f008806cc0e8a7ba252d61b7001f" target="_top" xlink:title=" ">
<polygon fill="white" stroke="#666666" points="241,-131 134,-131 134,-112 241,-112 241,-131"/>
<text text-anchor="middle" x="187.5" y="-119" font-family="Helvetica,sans-Serif" font-size="10.00">redirect_execution</text>
</a>
</g>
</g>
<!-- Node1&#45;&gt;Node2 -->
<g id="edge1" class="edge">
<title>Node1&#45;&gt;Node2</title>
<path fill="none" stroke="#63b8ff" d="M98.12,-133.8C106.4,-132.65 115.11,-131.44 123.7,-130.24"/>
<polygon fill="#63b8ff" stroke="#63b8ff" points="124.28,-133.69 133.7,-128.85 123.32,-126.76 124.28,-133.69"/>
</g>
<!-- Node3 -->
<g id="node3" class="node">
<title>Node3</title>
<g id="a_node3"><a xlink:href="execute__ast_8c.html#ad26a20a665ab7fdeb714ed53c1afd104" target="_top" xlink:title=" ">
<polygon fill="white" stroke="#666666" points="365,-169 290,-169 290,-150 365,-150 365,-169"/>
<text text-anchor="middle" x="327.5" y="-157" font-family="Helvetica,sans-Serif" font-size="10.00">execute_ast</text>
</a>
</g>
</g>
<!-- Node2&#45;&gt;Node3 -->
<g id="edge2" class="edge">
<title>Node2&#45;&gt;Node3</title>
<path fill="none" stroke="#63b8ff" d="M223.32,-131.09C241.14,-135.99 263.02,-142.02 282.04,-147.26"/>
<polygon fill="#63b8ff" stroke="#63b8ff" points="281.12,-150.63 291.69,-149.91 282.98,-143.88 281.12,-150.63"/>
</g>
<!-- Node30 -->
<g id="node30" class="node">
<title>Node30</title>
<g id="a_node30"><a xlink:href="execute__redirect_8c.html#a1b8f325fc375581f81ae47a54e09cf0e" target="_top" xlink:title=" ">
<polygon fill="white" stroke="#666666" points="360.5,-94 294.5,-94 294.5,-75 360.5,-75 360.5,-94"/>
<text text-anchor="middle" x="327.5" y="-82" font-family="Helvetica,sans-Serif" font-size="10.00">restore_fd</text>
</a>
</g>
</g>
<!-- Node2&#45;&gt;Node30 -->
<g id="edge45" class="edge">
<title>Node2&#45;&gt;Node30</title>
<path fill="none" stroke="#63b8ff" d="M224.04,-111.97C242.54,-107.01 265.27,-100.92 284.62,-95.73"/>
<polygon fill="#63b8ff" stroke="#63b8ff" points="285.63,-99.08 294.38,-93.11 283.82,-92.32 285.63,-99.08"/>
</g>
<!-- Node31 -->
<g id="node31" class="node">
<title>Node31</title>
<g id="a_node31"><a xlink:href="execute__redirect_8c.html#a6cb002bd51f2009eaacc66d388c5f9a7" target="_top" xlink:title=" ">
<polygon fill="white" stroke="#666666" points="378,-131 277,-131 277,-112 378,-112 378,-131"/>
<text text-anchor="middle" x="327.5" y="-119" font-family="Helvetica,sans-Serif" font-size="10.00">setup_redirection</text>
</a>
</g>
</g>
<!-- Node2&#45;&gt;Node31 -->
<g id="edge46" class="edge">
<title>Node2&#45;&gt;Node31</title>
<path fill="none" stroke="#63b8ff" d="M241.07,-121.5C249.4,-121.5 258.08,-121.5 266.58,-121.5"/>
<polygon fill="#63b8ff" stroke="#63b8ff" points="266.81,-125 276.81,-121.5 266.81,-118 266.81,-125"/>
</g>
<!-- Node3&#45;&gt;Node1 -->
<g id="edge37" class="edge">
<title>Node3&#45;&gt;Node1</title>
<path fill="none" stroke="#63b8ff" d="M289.92,-156.99C243.61,-153.8 163.28,-148.28 108.43,-144.52"/>
<polygon fill="#63b8ff" stroke="#63b8ff" points="108.38,-141 98.16,-143.81 107.9,-147.99 108.38,-141"/>
</g>
<!-- Node4 -->
<g id="node4" class="node">
<title>Node4</title>
<g id="a_node4"><a xlink:href="execute__cmd_8c.html#a94ea9cc5a046ce96e36764bf0e4fa2c0" target="_top" xlink:title=" ">
<polygon fill="white" stroke="#666666" points="512.5,-396 431.5,-396 431.5,-377 512.5,-377 512.5,-396"/>
<text text-anchor="middle" x="472" y="-384" font-family="Helvetica,sans-Serif" font-size="10.00">execute_cmd</text>
</a>
</g>
</g>
<!-- Node3&#45;&gt;Node4 -->
<g id="edge3" class="edge">
<title>Node3&#45;&gt;Node4</title>
<path fill="none" stroke="#63b8ff" d="M332.18,-169.24C342.6,-196.1 374.12,-272.94 414,-328.5 424.97,-343.78 439.96,-358.87 451.82,-369.82"/>
<polygon fill="#63b8ff" stroke="#63b8ff" points="449.67,-372.6 459.44,-376.7 454.36,-367.4 449.67,-372.6"/>
</g>
<!-- Node20 -->
<g id="node20" class="node">
<title>Node20</title>
<g id="a_node20"><a xlink:href="execute__logical__and_8c.html#a4f940752faf9f9a258c49810b21efe47" target="_top" xlink:title=" ">
<polygon fill="white" stroke="#666666" points="530,-206 414,-206 414,-187 530,-187 530,-206"/>
<text text-anchor="middle" x="472" y="-194" font-family="Helvetica,sans-Serif" font-size="10.00">execute_logical_and</text>
</a>
</g>
</g>
<!-- Node3&#45;&gt;Node20 -->
<g id="edge23" class="edge">
<title>Node3&#45;&gt;Node20</title>
<path fill="none" stroke="#63b8ff" d="M365.2,-163.04C389.37,-168.16 420.54,-176.41 442.77,-183.66"/>
<polygon fill="#63b8ff" stroke="#63b8ff" points="441.71,-187 452.3,-186.91 443.97,-180.37 441.71,-187"/>
</g>
<!-- Node21 -->
<g id="node21" class="node">
<title>Node21</title>
<g id="a_node21"><a xlink:href="execute__logical__or_8c.html#a7e732d7c30b07010fa55850051007dcc" target="_top" xlink:title=" ">
<polygon fill="white" stroke="#666666" points="525.5,-169 418.5,-169 418.5,-150 525.5,-150 525.5,-169"/>
<text text-anchor="middle" x="472" y="-157" font-family="Helvetica,sans-Serif" font-size="10.00">execute_logical_or</text>
</a>
</g>
</g>
<!-- Node3&#45;&gt;Node21 -->
<g id="edge25" class="edge">
<title>Node3&#45;&gt;Node21</title>
<path fill="none" stroke="#63b8ff" d="M365.2,-153.51C378.33,-152.88 393.53,-152.64 408.24,-152.79"/>
<polygon fill="#63b8ff" stroke="#63b8ff" points="408.26,-156.29 418.31,-152.96 408.37,-149.29 408.26,-156.29"/>
</g>
<!-- Node22 -->
<g id="node22" class="node">
<title>Node22</title>
<g id="a_node22"><a xlink:href="execute__pipe_8c.html#a5f3546dc2c7cf06c982afba41e722164" target="_top" xlink:title=" ">
<polygon fill="white" stroke="#666666" points="512.5,-243 431.5,-243 431.5,-224 512.5,-224 512.5,-243"/>
<text text-anchor="middle" x="472" y="-231" font-family="Helvetica,sans-Serif" font-size="10.00">execute_pipe</text>
</a>
</g>
</g>
<!-- Node3&#45;&gt;Node22 -->
<g id="edge27" class="edge">
<title>Node3&#45;&gt;Node22</title>
<path fill="none" stroke="#63b8ff" d="M340.89,-169.19C356.97,-181.4 386.26,-202.35 414,-215.5 417.8,-217.3 421.82,-218.98 425.9,-220.54"/>
<polygon fill="#63b8ff" stroke="#63b8ff" points="424.86,-223.88 435.45,-223.93 427.2,-217.29 424.86,-223.88"/>
</g>
<!-- Node27 -->
<g id="node27" class="node">
<title>Node27</title>
<g id="a_node27"><a xlink:href="execute__repeat_8c.html#a00d48683c54b50130b4a402e6e97fa97" target="_top" xlink:title=" ">
<polygon fill="white" stroke="#666666" points="518,-93 426,-93 426,-74 518,-74 518,-93"/>
<text text-anchor="middle" x="472" y="-81" font-family="Helvetica,sans-Serif" font-size="10.00">execute_repeat</text>
</a>
</g>
</g>
<!-- Node3&#45;&gt;Node27 -->
<g id="edge38" class="edge">
<title>Node3&#45;&gt;Node27</title>
<path fill="none" stroke="#63b8ff" d="M338.88,-149.96C349.27,-144.74 365.48,-139.25 378,-131.5 396.46,-120.08 395.73,-110.22 414,-98.5 414.93,-97.91 415.87,-97.32 416.83,-96.75"/>
<polygon fill="#63b8ff" stroke="#63b8ff" points="418.67,-99.73 425.76,-91.86 415.31,-93.59 418.67,-99.73"/>
</g>
<!-- Node28 -->
<g id="node28" class="node">
<title>Node28</title>
<g id="a_node28"><a xlink:href="execute__sequence_8c.html#aad2caa5bf50b0752dd8272da477ec231" target="_top" xlink:title=" ">
<polygon fill="white" stroke="#666666" points="525.5,-56 418.5,-56 418.5,-37 525.5,-37 525.5,-56"/>
<text text-anchor="middle" x="472" y="-44" font-family="Helvetica,sans-Serif" font-size="10.00">execute_sequence</text>
</a>
</g>
</g>
<!-- Node3&#45;&gt;Node28 -->
<g id="edge40" class="edge">
<title>Node3&#45;&gt;Node28</title>
<path fill="none" stroke="#63b8ff" d="M342.15,-149.88C353.01,-145.64 367.98,-140.74 378,-131.5 402.85,-108.59 389.17,-85.33 411.23,-60.16"/>
<polygon fill="#63b8ff" stroke="#63b8ff" points="413.81,-62.54 418.46,-53.02 408.89,-57.56 413.81,-62.54"/>
</g>
<!-- Node29 -->
<g id="node29" class="node">
<title>Node29</title>
<g id="a_node29"><a xlink:href="execute__subshell_8c.html#a40a27866de012b013a337f794a858d70" target="_top" xlink:title=" ">
<polygon fill="white" stroke="#666666" points="522.5,-319 421.5,-319 421.5,-300 522.5,-300 522.5,-319"/>
<text text-anchor="middle" x="472" y="-307" font-family="Helvetica,sans-Serif" font-size="10.00">execute_subshell</text>
</a>
</g>
</g>
<!-- Node3&#45;&gt;Node29 -->
<g id="edge42" class="edge">
<title>Node3&#45;&gt;Node29</title>
<path fill="none" stroke="#63b8ff" d="M335.26,-169.34C347.47,-191.81 375.56,-245 414,-276.5 424.41,-285.03 438.28,-290.96 449.73,-295.84"/>
<polygon fill="#63b8ff" stroke="#63b8ff" points="448.47,-299.11 459.03,-299.91 451.27,-292.7 448.47,-299.11"/>
</g>
<!-- Node5 -->
<g id="node5" class="node">
<title>Node5</title>
<g id="a_node5"><a xlink:href="execute__cmd_8c.html#a0cfd2364134e68efdd39533e00b4b0d9" target="_top" xlink:title=" ">
<polygon fill="white" stroke="#666666" points="685,-377 566,-377 566,-358 685,-358 685,-377"/>
<text text-anchor="middle" x="625.5" y="-365" font-family="Helvetica,sans-Serif" font-size="10.00">execute_local_binary</text>
</a>
</g>
</g>
<!-- Node4&#45;&gt;Node5 -->
<g id="edge4" class="edge">
<title>Node4&#45;&gt;Node5</title>
<path fill="none" stroke="#63b8ff" d="M512.8,-381.51C525.98,-379.86 541.05,-377.97 555.76,-376.12"/>
<polygon fill="#63b8ff" stroke="#63b8ff" points="556.38,-379.57 565.86,-374.85 555.5,-372.63 556.38,-379.57"/>
</g>
<!-- Node14 -->
<g id="node14" class="node">
<title>Node14</title>
<g id="a_node14"><a xlink:href="execute__cmd_8c.html#a460126af28ab29df4340554fae9fc57a" target="_top" xlink:title=" ">
<polygon fill="white" stroke="#666666" points="684.5,-414 566.5,-414 566.5,-395 684.5,-395 684.5,-414"/>
<text text-anchor="middle" x="625.5" y="-402" font-family="Helvetica,sans-Serif" font-size="10.00">execute_path_binary</text>
</a>
</g>
</g>
<!-- Node4&#45;&gt;Node14 -->
<g id="edge15" class="edge">
<title>Node4&#45;&gt;Node14</title>
<path fill="none" stroke="#63b8ff" d="M512.8,-391.23C526.13,-392.81 541.38,-394.62 556.24,-396.39"/>
<polygon fill="#63b8ff" stroke="#63b8ff" points="556.09,-399.9 566.44,-397.6 556.92,-392.95 556.09,-399.9"/>
</g>
<!-- Node19 -->
<g id="node19" class="node">
<title>Node19</title>
<g id="a_node19"><a xlink:href="strings_8h.html#a36f055c4e56c8a784629908d0c5b91e5" target="_top" xlink:title=" ">
<polygon fill="white" stroke="#666666" points="1147,-479 1043,-479 1043,-460 1147,-460 1147,-479"/>
<text text-anchor="middle" x="1095" y="-467" font-family="Helvetica,sans-Serif" font-size="10.00">my_is_char_in_str</text>
</a>
</g>
</g>
<!-- Node4&#45;&gt;Node19 -->
<g id="edge22" class="edge">
<title>Node4&#45;&gt;Node19</title>
<path fill="none" stroke="#63b8ff" d="M494.48,-396.07C513.12,-404.13 540.98,-415.58 566,-423.5 633.52,-444.87 650.77,-451.37 721,-460.5 830.05,-474.67 958.5,-474 1032.66,-471.95"/>
<polygon fill="#63b8ff" stroke="#63b8ff" points="1032.87,-475.44 1042.76,-471.65 1032.66,-468.45 1032.87,-475.44"/>
</g>
<!-- Node6 -->
<g id="node6" class="node">
<title>Node6</title>
<g id="a_node6"><a xlink:href="execute__cmd_8c.html#a0f1b711370b175e42e583b75daacf41e" target="_top" xlink:title=" ">
<polygon fill="white" stroke="#666666" points="981,-377 890,-377 890,-358 981,-358 981,-377"/>
<text text-anchor="middle" x="935.5" y="-365" font-family="Helvetica,sans-Serif" font-size="10.00">execute_binary</text>
</a>
</g>
</g>
<!-- Node5&#45;&gt;Node6 -->
<g id="edge5" class="edge">
<title>Node5&#45;&gt;Node6</title>
<path fill="none" stroke="#63b8ff" d="M685.16,-367.5C741.07,-367.5 824.63,-367.5 879.35,-367.5"/>
<polygon fill="#63b8ff" stroke="#63b8ff" points="879.56,-371 889.56,-367.5 879.56,-364 879.56,-371"/>
</g>
<!-- Node7 -->
<g id="node7" class="node">
<title>Node7</title>
<g id="a_node7"><a xlink:href="env__to__word__array_8c.html#aea7253d35c5aa57d9cfe9d7df218cb90" target="_top" xlink:title=" ">
<polygon fill="white" stroke="#666666" points="1150,-432 1040,-432 1040,-413 1150,-413 1150,-432"/>
<text text-anchor="middle" x="1095" y="-420" font-family="Helvetica,sans-Serif" font-size="10.00">env_to_word_array</text>
</a>
</g>
</g>
<!-- Node6&#45;&gt;Node7 -->
<g id="edge6" class="edge">
<title>Node6&#45;&gt;Node7</title>
<path fill="none" stroke="#63b8ff" d="M975.11,-377.01C984.67,-379.73 994.8,-382.94 1004,-386.5 1020.68,-392.95 1023.47,-397.65 1040,-404.5 1044.22,-406.25 1048.68,-407.95 1053.15,-409.57"/>
<polygon fill="#63b8ff" stroke="#63b8ff" points="1052.29,-412.98 1062.88,-412.96 1054.59,-406.37 1052.29,-412.98"/>
</g>
<!-- Node10 -->
<g id="node10" class="node">
<title>Node10</title>
<g id="a_node10"><a xlink:href="execute__cmd_8c.html#a6badc27baa1930e30ea2ad3817f65366" target="_top" xlink:title=" ">
<polygon fill="white" stroke="#666666" points="1135,-395 1055,-395 1055,-376 1135,-376 1135,-395"/>
<text text-anchor="middle" x="1095" y="-383" font-family="Helvetica,sans-Serif" font-size="10.00">execute_fork</text>
</a>
</g>
</g>
<!-- Node6&#45;&gt;Node10 -->
<g id="edge9" class="edge">
<title>Node6&#45;&gt;Node10</title>
<path fill="none" stroke="#63b8ff" d="M981.21,-372.61C1001.05,-374.88 1024.46,-377.55 1044.79,-379.88"/>
<polygon fill="#63b8ff" stroke="#63b8ff" points="1044.47,-383.36 1054.8,-381.02 1045.27,-376.41 1044.47,-383.36"/>
</g>
<!-- Node11 -->
<g id="node11" class="node">
<title>Node11</title>
<g id="a_node11"><a xlink:href="execute__cmd_8c.html#a2c49b9849cfef0deea03382c9f1b3ab8" target="_top" xlink:title=" ">
<polygon fill="white" stroke="#666666" points="1290.5,-357 1198.5,-357 1198.5,-338 1290.5,-338 1290.5,-357"/>
<text text-anchor="middle" x="1244.5" y="-345" font-family="Helvetica,sans-Serif" font-size="10.00">run_subprocess</text>
</a>
</g>
</g>
<!-- Node6&#45;&gt;Node11 -->
<g id="edge14" class="edge">
<title>Node6&#45;&gt;Node11</title>
<path fill="none" stroke="#63b8ff" d="M981.14,-364.59C1035.89,-361.02 1128.71,-354.98 1188,-351.12"/>
<polygon fill="#63b8ff" stroke="#63b8ff" points="1188.55,-354.59 1198.31,-350.44 1188.1,-347.6 1188.55,-354.59"/>
</g>
<!-- Node8 -->
<g id="node8" class="node">
<title>Node8</title>
<g id="a_node8"><a xlink:href="misc_8h.html#a1180cae2875b1fdcd58c9f9175a82c12" target="_top" xlink:title=" ">
<polygon fill="white" stroke="#666666" points="1303,-395 1186,-395 1186,-376 1303,-376 1303,-395"/>
<text text-anchor="middle" x="1244.5" y="-383" font-family="Helvetica,sans-Serif" font-size="10.00">my_free_word_array</text>
</a>
</g>
</g>
<!-- Node7&#45;&gt;Node8 -->
<g id="edge7" class="edge">
<title>Node7&#45;&gt;Node8</title>
<path fill="none" stroke="#63b8ff" d="M1133.98,-412.97C1152.75,-408.26 1175.59,-402.53 1195.55,-397.53"/>
<polygon fill="#63b8ff" stroke="#63b8ff" points="1196.54,-400.89 1205.39,-395.06 1194.84,-394.1 1196.54,-400.89"/>
</g>
<!-- Node9 -->
<g id="node9" class="node">
<title>Node9</title>
<g id="a_node9"><a xlink:href="list_8h.html#ad5ebb7cdb26f73e4b212dfc5eae4ef0e" target="_top" xlink:title=" ">
<polygon fill="white" stroke="#666666" points="1289,-432 1200,-432 1200,-413 1289,-413 1289,-432"/>
<text text-anchor="middle" x="1244.5" y="-420" font-family="Helvetica,sans-Serif" font-size="10.00">my_list_length</text>
</a>
</g>
</g>
<!-- Node7&#45;&gt;Node9 -->
<g id="edge8" class="edge">
<title>Node7&#45;&gt;Node9</title>
<path fill="none" stroke="#63b8ff" d="M1150.09,-422.5C1162.93,-422.5 1176.64,-422.5 1189.48,-422.5"/>
<polygon fill="#63b8ff" stroke="#63b8ff" points="1189.56,-426 1199.56,-422.5 1189.56,-419 1189.56,-426"/>
</g>
<!-- Node10&#45;&gt;Node8 -->
<g id="edge10" class="edge">
<title>Node10&#45;&gt;Node8</title>
<path fill="none" stroke="#63b8ff" d="M1135.14,-385.5C1147.64,-385.5 1161.85,-385.5 1175.78,-385.5"/>
<polygon fill="#63b8ff" stroke="#63b8ff" points="1175.84,-389 1185.84,-385.5 1175.84,-382 1175.84,-389"/>
</g>
<!-- Node10&#45;&gt;Node11 -->
<g id="edge11" class="edge">
<title>Node10&#45;&gt;Node11</title>
<path fill="none" stroke="#63b8ff" d="M1133.22,-375.91C1152.51,-370.94 1176.26,-364.82 1196.77,-359.54"/>
<polygon fill="#63b8ff" stroke="#63b8ff" points="1197.74,-362.9 1206.55,-357.02 1195.99,-356.13 1197.74,-362.9"/>
</g>
<!-- Node12 -->
<g id="node12" class="node">
<title>Node12</title>
<g id="a_node12"><a xlink:href="wait__for__subprocess_8c.html#a1242d78540fd0ddef3d98a9f294cb0d4" target="_top" xlink:title=" ">
<polygon fill="white" stroke="#666666" points="1302.5,-319 1186.5,-319 1186.5,-300 1302.5,-300 1302.5,-319"/>
<text text-anchor="middle" x="1244.5" y="-307" font-family="Helvetica,sans-Serif" font-size="10.00">wait_for_subprocess</text>
</a>
</g>
</g>
<!-- Node10&#45;&gt;Node12 -->
<g id="edge12" class="edge">
<title>Node10&#45;&gt;Node12</title>
<path fill="none" stroke="#63b8ff" d="M1109.19,-375.99C1126.27,-363.97 1157.27,-343.22 1186,-329.5 1191.25,-326.99 1196.91,-324.63 1202.55,-322.48"/>
<polygon fill="#63b8ff" stroke="#63b8ff" points="1203.76,-325.77 1211.96,-319.06 1201.36,-319.19 1203.76,-325.77"/>
</g>
<!-- Node13 -->
<g id="node13" class="node">
<title>Node13</title>
<g id="a_node13"><a xlink:href="wait__for__subprocess_8c.html#a885766ba6ba593b7cf27b917dd52b1a6" target="_top" xlink:title=" ">
<polygon fill="white" stroke="#666666" points="1462,-319 1339,-319 1339,-300 1462,-300 1462,-319"/>
<text text-anchor="middle" x="1400.5" y="-307" font-family="Helvetica,sans-Serif" font-size="10.00">print_signal_message</text>
</a>
</g>
</g>
<!-- Node12&#45;&gt;Node13 -->
<g id="edge13" class="edge">
<title>Node12&#45;&gt;Node13</title>
<path fill="none" stroke="#63b8ff" d="M1302.84,-309.5C1311.26,-309.5 1320.02,-309.5 1328.67,-309.5"/>
<polygon fill="#63b8ff" stroke="#63b8ff" points="1328.76,-313 1338.76,-309.5 1328.76,-306 1328.76,-313"/>
</g>
<!-- Node15 -->
<g id="node15" class="node">
<title>Node15</title>
<g id="a_node15"><a xlink:href="get__variable__value_8c.html#a2edd9900f19af236aa05385a789be3d6" target="_top" xlink:title=" ">
<polygon fill="white" stroke="#666666" points="831,-451 721,-451 721,-432 831,-432 831,-451"/>
<text text-anchor="middle" x="776" y="-439" font-family="Helvetica,sans-Serif" font-size="10.00">get_variable_value</text>
</a>
</g>
</g>
<!-- Node14&#45;&gt;Node15 -->
<g id="edge16" class="edge">
<title>Node14&#45;&gt;Node15</title>
<path fill="none" stroke="#63b8ff" d="M664.74,-414.03C683.64,-418.74 706.63,-424.47 726.73,-429.47"/>
<polygon fill="#63b8ff" stroke="#63b8ff" points="726.08,-432.92 736.63,-431.94 727.77,-426.13 726.08,-432.92"/>
</g>
<!-- Node17 -->
<g id="node17" class="node">
<title>Node17</title>
<g id="a_node17"><a xlink:href="execute__cmd_8c.html#aee9e13edede9df28fac066f30e7ae7ed" target="_top" xlink:title=" ">
<polygon fill="white" stroke="#666666" points="818,-414 734,-414 734,-395 818,-395 818,-414"/>
<text text-anchor="middle" x="776" y="-402" font-family="Helvetica,sans-Serif" font-size="10.00">try_command</text>
</a>
</g>
</g>
<!-- Node14&#45;&gt;Node17 -->
<g id="edge18" class="edge">
<title>Node14&#45;&gt;Node17</title>
<path fill="none" stroke="#63b8ff" d="M684.76,-404.5C697.59,-404.5 711.08,-404.5 723.61,-404.5"/>
<polygon fill="#63b8ff" stroke="#63b8ff" points="723.87,-408 733.87,-404.5 723.87,-401 723.87,-408"/>
</g>
<!-- Node16 -->
<g id="node16" class="node">
<title>Node16</title>
<g id="a_node16"><a xlink:href="get__variable_8c.html#a569170390f0edf013bf89c26ef55ea8c" target="_top" xlink:title=" ">
<polygon fill="white" stroke="#666666" points="974,-451 897,-451 897,-432 974,-432 974,-451"/>
<text text-anchor="middle" x="935.5" y="-439" font-family="Helvetica,sans-Serif" font-size="10.00">get_variable</text>
</a>
</g>
</g>
<!-- Node15&#45;&gt;Node16 -->
<g id="edge17" class="edge">
<title>Node15&#45;&gt;Node16</title>
<path fill="none" stroke="#63b8ff" d="M831.2,-441.5C849.04,-441.5 868.73,-441.5 886.11,-441.5"/>
<polygon fill="#63b8ff" stroke="#63b8ff" points="886.58,-445 896.58,-441.5 886.58,-438 886.58,-445"/>
</g>
<!-- Node17&#45;&gt;Node6 -->
<g id="edge19" class="edge">
<title>Node17&#45;&gt;Node6</title>
<path fill="none" stroke="#63b8ff" d="M817.56,-394.97C837.78,-390.22 862.44,-384.43 883.88,-379.39"/>
<polygon fill="#63b8ff" stroke="#63b8ff" points="884.87,-382.75 893.8,-377.06 883.27,-375.94 884.87,-382.75"/>
</g>
<!-- Node18 -->
<g id="node18" class="node">
<title>Node18</title>
<g id="a_node18"><a xlink:href="execute__cmd_8c.html#a7edf8a207e2b427102f54a379bd13546" target="_top" xlink:title=" ">
<polygon fill="white" stroke="#666666" points="1004,-414 867,-414 867,-395 1004,-395 1004,-414"/>
<text text-anchor="middle" x="935.5" y="-402" font-family="Helvetica,sans-Serif" font-size="10.00">print_permission_denied</text>
</a>
</g>
</g>
<!-- Node17&#45;&gt;Node18 -->
<g id="edge20" class="edge">
<title>Node17&#45;&gt;Node18</title>
<path fill="none" stroke="#63b8ff" d="M818.38,-404.5C830.22,-404.5 843.52,-404.5 856.79,-404.5"/>
<polygon fill="#63b8ff" stroke="#63b8ff" points="856.9,-408 866.9,-404.5 856.9,-401 856.9,-408"/>
</g>
<!-- Node18&#45;&gt;Node19 -->
<g id="edge21" class="edge">
<title>Node18&#45;&gt;Node19</title>
<path fill="none" stroke="#63b8ff" d="M975.49,-414.06C984.94,-416.76 994.93,-419.95 1004,-423.5 1007.24,-424.77 1041.06,-442.15 1066.29,-455.17"/>
<polygon fill="#63b8ff" stroke="#63b8ff" points="1064.97,-458.43 1075.46,-459.91 1068.18,-452.21 1064.97,-458.43"/>
</g>
<!-- Node20&#45;&gt;Node3 -->
<g id="edge24" class="edge">
<title>Node20&#45;&gt;Node3</title>
<path fill="none" stroke="#63b8ff" d="M413.87,-188.3C394.17,-183.52 372.97,-177.64 356.62,-172.3"/>
<polygon fill="#63b8ff" stroke="#63b8ff" points="357.72,-168.98 347.13,-169.07 355.47,-175.61 357.72,-168.98"/>
</g>
<!-- Node21&#45;&gt;Node3 -->
<g id="edge26" class="edge">
<title>Node21&#45;&gt;Node3</title>
<path fill="none" stroke="#63b8ff" d="M418.31,-166.04C404.24,-166.36 389.13,-166.31 375.39,-165.89"/>
<polygon fill="#63b8ff" stroke="#63b8ff" points="375.33,-162.38 365.2,-165.49 375.05,-169.38 375.33,-162.38"/>
</g>
<!-- Node22&#45;&gt;Node12 -->
<g id="edge36" class="edge">
<title>Node22&#45;&gt;Node12</title>
<path fill="none" stroke="#63b8ff" d="M512.86,-225.25C570.45,-214.08 680.41,-195.5 775,-195.5 775,-195.5 775,-195.5 936.5,-195.5 1048.93,-195.5 1170.86,-263.53 1220.52,-294.48"/>
<polygon fill="#63b8ff" stroke="#63b8ff" points="1218.87,-297.58 1229.2,-299.98 1222.62,-291.67 1218.87,-297.58"/>
</g>
<!-- Node23 -->
<g id="node23" class="node">
<title>Node23</title>
<g id="a_node23"><a xlink:href="execute__pipe_8c.html#a723ff799f939872d17f109a82342294e" target="_top" xlink:title=" ">
<polygon fill="white" stroke="#666666" points="807,-243 745,-243 745,-224 807,-224 807,-243"/>
<text text-anchor="middle" x="776" y="-231" font-family="Helvetica,sans-Serif" font-size="10.00">close_fds</text>
</a>
</g>
</g>
<!-- Node22&#45;&gt;Node23 -->
<g id="edge28" class="edge">
<title>Node22&#45;&gt;Node23</title>
<path fill="none" stroke="#63b8ff" d="M512.79,-233.5C570.39,-233.5 676.43,-233.5 734.45,-233.5"/>
<polygon fill="#63b8ff" stroke="#63b8ff" points="734.71,-237 744.71,-233.5 734.71,-230 734.71,-237"/>
</g>
<!-- Node24 -->
<g id="node24" class="node">
<title>Node24</title>
<g id="a_node24"><a xlink:href="execute__pipe_8c.html#ac529ffc2370b0133613ef8a81e58ed85" target="_top" xlink:title=" ">
<polygon fill="white" stroke="#666666" points="676.5,-281 574.5,-281 574.5,-262 676.5,-262 676.5,-281"/>
<text text-anchor="middle" x="625.5" y="-269" font-family="Helvetica,sans-Serif" font-size="10.00">execute_pipe_left</text>
</a>
</g>
</g>
<!-- Node22&#45;&gt;Node24 -->
<g id="edge29" class="edge">
<title>Node22&#45;&gt;Node24</title>
<path fill="none" stroke="#63b8ff" d="M511.23,-243.09C531.13,-248.08 555.66,-254.23 576.79,-259.53"/>
<polygon fill="#63b8ff" stroke="#63b8ff" points="575.99,-262.94 586.55,-261.98 577.7,-256.15 575.99,-262.94"/>
</g>
<!-- Node25 -->
<g id="node25" class="node">
<title>Node25</title>
<g id="a_node25"><a xlink:href="execute__pipe_8c.html#a9ed6eabb8a9f7049f91265a5f45e30c8" target="_top" xlink:title=" ">
<polygon fill="white" stroke="#666666" points="680,-167 571,-167 571,-148 680,-148 680,-167"/>
<text text-anchor="middle" x="625.5" y="-155" font-family="Helvetica,sans-Serif" font-size="10.00">execute_pipe_right</text>
</a>
</g>
</g>
<!-- Node22&#45;&gt;Node25 -->
<g id="edge32" class="edge">
<title>Node22&#45;&gt;Node25</title>
<path fill="none" stroke="#63b8ff" d="M511.43,-223.99C517.85,-221.67 524.27,-218.87 530,-215.5 548.97,-204.35 547.51,-193.43 566,-181.5 572.15,-177.53 579.07,-174 585.93,-170.95"/>
<polygon fill="#63b8ff" stroke="#63b8ff" points="587.3,-174.17 595.19,-167.09 584.61,-167.71 587.3,-174.17"/>
</g>
<!-- Node24&#45;&gt;Node3 -->
<g id="edge31" class="edge">
<title>Node24&#45;&gt;Node3</title>
<path fill="none" stroke="#63b8ff" d="M574.14,-276.82C529.7,-279.29 464.34,-277.36 414,-252.5 380.42,-235.92 353.6,-200.09 339.46,-178.06"/>
<polygon fill="#63b8ff" stroke="#63b8ff" points="342.28,-175.96 334.04,-169.29 336.32,-179.64 342.28,-175.96"/>
</g>
<!-- Node24&#45;&gt;Node23 -->
<g id="edge30" class="edge">
<title>Node24&#45;&gt;Node23</title>
<path fill="none" stroke="#63b8ff" d="M663.97,-261.91C685.58,-256.38 712.75,-249.43 734.8,-243.79"/>
<polygon fill="#63b8ff" stroke="#63b8ff" points="735.71,-247.17 744.53,-241.3 733.98,-240.38 735.71,-247.17"/>
</g>
<!-- Node25&#45;&gt;Node3 -->
<g id="edge34" class="edge">
<title>Node25&#45;&gt;Node3</title>
<path fill="none" stroke="#63b8ff" d="M577.59,-147.96C562.47,-145.32 545.59,-142.81 530,-141.5 478.63,-137.18 465.28,-136.16 414,-141.5 401.26,-142.83 387.63,-145.24 375.07,-147.87"/>
<polygon fill="#63b8ff" stroke="#63b8ff" points="374.29,-144.46 365.27,-150.01 375.79,-151.3 374.29,-144.46"/>
</g>
<!-- Node25&#45;&gt;Node23 -->
<g id="edge33" class="edge">
<title>Node25&#45;&gt;Node23</title>
<path fill="none" stroke="#63b8ff" d="M645.31,-167.13C671.08,-180.32 717.57,-204.11 747.32,-219.33"/>
<polygon fill="#63b8ff" stroke="#63b8ff" points="745.85,-222.51 756.35,-223.95 749.04,-216.28 745.85,-222.51"/>
</g>
<!-- Node26 -->
<g id="node26" class="node">
<title>Node26</title>
<g id="a_node26"><a xlink:href="execute__pipe_8c.html#ac3d3a124b262676fa0679720f99a7f83" target="_top" xlink:title=" ">
<polygon fill="white" stroke="#666666" points="816,-167 736,-167 736,-148 816,-148 816,-167"/>
<text text-anchor="middle" x="776" y="-155" font-family="Helvetica,sans-Serif" font-size="10.00">restore_stdin</text>
</a>
</g>
</g>
<!-- Node25&#45;&gt;Node26 -->
<g id="edge35" class="edge">
<title>Node25&#45;&gt;Node26</title>
<path fill="none" stroke="#63b8ff" d="M680.11,-157.5C694.95,-157.5 710.99,-157.5 725.58,-157.5"/>
<polygon fill="#63b8ff" stroke="#63b8ff" points="725.91,-161 735.91,-157.5 725.91,-154 725.91,-161"/>
</g>
<!-- Node27&#45;&gt;Node3 -->
<g id="edge39" class="edge">
<title>Node27&#45;&gt;Node3</title>
<path fill="none" stroke="#63b8ff" d="M460.81,-93.06C448.99,-99.47 429.18,-106.76 414,-116.5 395.73,-128.22 396.46,-138.08 378,-149.5 376.88,-150.19 375.72,-150.87 374.55,-151.53"/>
<polygon fill="#63b8ff" stroke="#63b8ff" points="372.62,-148.58 365.21,-156.14 375.73,-154.85 372.62,-148.58"/>
</g>
<!-- Node28&#45;&gt;Node3 -->
<g id="edge41" class="edge">
<title>Node28&#45;&gt;Node3</title>
<path fill="none" stroke="#63b8ff" d="M454.03,-56C441.66,-59.86 425.19,-64.64 414,-74.5 386.26,-98.95 405.18,-124.44 378,-149.5 376.72,-150.68 375.36,-151.79 373.94,-152.83"/>
<polygon fill="#63b8ff" stroke="#63b8ff" points="372.04,-149.88 365.24,-158.01 375.63,-155.9 372.04,-149.88"/>
</g>
<!-- Node29&#45;&gt;Node3 -->
<g id="edge43" class="edge">
<title>Node29&#45;&gt;Node3</title>
<path fill="none" stroke="#63b8ff" d="M421.71,-300C419,-298.31 416.41,-296.47 414,-294.5 374.85,-262.41 346.43,-207.83 334.59,-178.59"/>
<polygon fill="#63b8ff" stroke="#63b8ff" points="337.8,-177.18 330.99,-169.06 331.25,-179.65 337.8,-177.18"/>
</g>
<!-- Node29&#45;&gt;Node12 -->
<g id="edge44" class="edge">
<title>Node29&#45;&gt;Node12</title>
<path fill="none" stroke="#63b8ff" d="M522.7,-309.5C582.55,-309.5 686.13,-309.5 775,-309.5 775,-309.5 775,-309.5 936.5,-309.5 1019.05,-309.5 1114.08,-309.5 1176.28,-309.5"/>
<polygon fill="#63b8ff" stroke="#63b8ff" points="1176.35,-313 1186.35,-309.5 1176.35,-306 1176.35,-313"/>
</g>
<!-- Node32 -->
<g id="node32" class="node">
<title>Node32</title>
<g id="a_node32"><a xlink:href="execute__redirect_8c.html#a0e31af51537a8c047a3aca7cdb63d5dd" target="_top" xlink:title=" ">
<polygon fill="white" stroke="#666666" points="521,-19 423,-19 423,0 521,0 521,-19"/>
<text text-anchor="middle" x="472" y="-7" font-family="Helvetica,sans-Serif" font-size="10.00">open_redirect_fd</text>
</a>
</g>
</g>
<!-- Node31&#45;&gt;Node32 -->
<g id="edge47" class="edge">
<title>Node31&#45;&gt;Node32</title>
<path fill="none" stroke="#63b8ff" d="M365.25,-111.9C369.88,-109.65 374.28,-106.89 378,-103.5 405.64,-78.34 385.83,-52.06 414,-27.5 415.34,-26.33 416.77,-25.23 418.25,-24.21"/>
<polygon fill="#63b8ff" stroke="#63b8ff" points="420.3,-27.06 427.27,-19.08 416.85,-20.98 420.3,-27.06"/>
</g>
<!-- Node33 -->
<g id="node33" class="node">
<title>Node33</title>
<g id="a_node33"><a xlink:href="execute__redirect_8c.html#a71feea783167b3804f2793a232ca74b4" target="_top" xlink:title=" ">
<polygon fill="white" stroke="#666666" points="661,-19 590,-19 590,0 661,0 661,-19"/>
<text text-anchor="middle" x="625.5" y="-7" font-family="Helvetica,sans-Serif" font-size="10.00">heredoc_fd</text>
</a>
</g>
</g>
<!-- Node32&#45;&gt;Node33 -->
<g id="edge48" class="edge">
<title>Node32&#45;&gt;Node33</title>
<path fill="none" stroke="#63b8ff" d="M521.35,-9.5C539.97,-9.5 561.14,-9.5 579.44,-9.5"/>
<polygon fill="#63b8ff" stroke="#63b8ff" points="579.55,-13 589.55,-9.5 579.55,-6 579.55,-13"/>
</g>
<!-- Node34 -->
<g id="node34" class="node">
<title>Node34</title>
<g id="a_node34"><a xlink:href="execute__redirect_8c.html#a639d0a6f315a3bae78d204ff798e314f" target="_top" xlink:title=" ">
<polygon fill="white" stroke="#666666" points="829.5,-19 722.5,-19 722.5,0 829.5,0 829.5,-19"/>
<text text-anchor="middle" x="776" y="-7" font-family="Helvetica,sans-Serif" font-size="10.00">get_heredoc_input</text>
</a>
</g>
</g>
<!-- Node33&#45;&gt;Node34 -->
<g id="edge49" class="edge">
<title>Node33&#45;&gt;Node34</title>
<path fill="none" stroke="#63b8ff" d="M661.32,-9.5C676.51,-9.5 694.8,-9.5 712.23,-9.5"/>
<polygon fill="#63b8ff" stroke="#63b8ff" points="712.37,-13 722.37,-9.5 712.37,-6 712.37,-13"/>
</g>
<!-- Node35 -->
<g id="node35" class="node">
<title>Node35</title>
<g id="a_node35"><a xlink:href="execute__redirect_8c.html#a4e396606481bc13335d3dfae7ff15407" target="_top" xlink:title=" ">
<polygon fill="white" stroke="#666666" points="986.5,-19 884.5,-19 884.5,0 986.5,0 986.5,-19"/>
<text text-anchor="middle" x="935.5" y="-7" font-family="Helvetica,sans-Serif" font-size="10.00">is_heredoc_delim</text>
</a>
</g>
</g>
<!-- Node34&#45;&gt;Node35 -->
<g id="edge50" class="edge">
<title>Node34&#45;&gt;Node35</title>
<path fill="none" stroke="#63b8ff" d="M829.88,-9.5C844.05,-9.5 859.47,-9.5 874.02,-9.5"/>
<polygon fill="#63b8ff" stroke="#63b8ff" points="874.42,-13 884.42,-9.5 874.42,-6 874.42,-13"/>
</g>
</g>
</svg>
