<?xml version="1.0" encoding="UTF-8" standalone="no"?>
<!DOCTYPE svg PUBLIC "-//W3C//DTD SVG 1.1//EN"
 "http://www.w3.org/Graphics/SVG/1.1/DTD/svg11.dtd">
<!-- Generated by graphviz version 2.43.0 (0)
 -->
<!-- Title: src/executer/execute_ast.c Pages: 1 -->
<svg width="338pt" height="258pt"
 viewBox="0.00 0.00 337.50 258.00" xmlns="http://www.w3.org/2000/svg" xmlns:xlink="http://www.w3.org/1999/xlink">
<g id="graph0" class="graph" transform="scale(1 1) rotate(0) translate(4 254)">
<title>src/executer/execute_ast.c</title>
<!-- Node1 -->
<g id="node1" class="node">
<title>Node1</title>
<g id="a_node1"><a xlink:title=" ">
<polygon fill="#999999" stroke="#666666" points="222.5,-250 105.5,-250 105.5,-220 222.5,-220 222.5,-250"/>
<text text-anchor="start" x="113.5" y="-238" font-family="Helvetica,sans-Serif" font-size="10.00">src/executer/execute</text>
<text text-anchor="middle" x="164" y="-227" font-family="Helvetica,sans-Serif" font-size="10.00">_ast.c</text>
</a>
</g>
</g>
<!-- Node2 -->
<g id="node2" class="node">
<title>Node2</title>
<g id="a_node2"><a xlink:title=" ">
<polygon fill="#e0e0e0" stroke="#999999" points="50,-184 0,-184 0,-165 50,-165 50,-184"/>
<text text-anchor="middle" x="25" y="-172" font-family="Helvetica,sans-Serif" font-size="10.00">stdio.h</text>
</a>
</g>
</g>
<!-- Node1&#45;&gt;Node2 -->
<g id="edge1" class="edge">
<title>Node1&#45;&gt;Node2</title>
<path fill="none" stroke="#63b8ff" d="M130.71,-219.99C107.62,-210.27 77.13,-197.44 54.84,-188.06"/>
<polygon fill="#63b8ff" stroke="#63b8ff" points="56.1,-184.79 45.53,-184.14 53.39,-191.24 56.1,-184.79"/>
</g>
<!-- Node3 -->
<g id="node3" class="node">
<title>Node3</title>
<g id="a_node3"><a xlink:href="misc_8h.html" target="_top" xlink:title=" ">
<polygon fill="white" stroke="#666666" points="136,-184 68,-184 68,-165 136,-165 136,-184"/>
<text text-anchor="middle" x="102" y="-172" font-family="Helvetica,sans-Serif" font-size="10.00">my/misc.h</text>
</a>
</g>
</g>
<!-- Node1&#45;&gt;Node3 -->
<g id="edge2" class="edge">
<title>Node1&#45;&gt;Node3</title>
<path fill="none" stroke="#63b8ff" d="M148.99,-219.84C139.81,-211.17 128.05,-200.08 118.59,-191.15"/>
<polygon fill="#63b8ff" stroke="#63b8ff" points="120.97,-188.58 111.29,-184.27 116.16,-193.67 120.97,-188.58"/>
</g>
<!-- Node4 -->
<g id="node4" class="node">
<title>Node4</title>
<g id="a_node4"><a xlink:href="ast_8h.html" target="_top" xlink:title=" ">
<polygon fill="white" stroke="#666666" points="171.5,-129 130.5,-129 130.5,-110 171.5,-110 171.5,-129"/>
<text text-anchor="middle" x="151" y="-117" font-family="Helvetica,sans-Serif" font-size="10.00">ast.h</text>
</a>
</g>
</g>
<!-- Node1&#45;&gt;Node4 -->
<g id="edge3" class="edge">
<title>Node1&#45;&gt;Node4</title>
<path fill="none" stroke="#63b8ff" d="M162.35,-219.63C160.02,-199.21 155.73,-161.81 153.15,-139.24"/>
<polygon fill="#63b8ff" stroke="#63b8ff" points="156.62,-138.77 152,-129.23 149.66,-139.56 156.62,-138.77"/>
</g>
<!-- Node6 -->
<g id="node6" class="node">
<title>Node6</title>
<g id="a_node6"><a xlink:href="executer_8h.html" target="_top" xlink:title=" ">
<polygon fill="white" stroke="#666666" points="259.5,-184 192.5,-184 192.5,-165 259.5,-165 259.5,-184"/>
<text text-anchor="middle" x="226" y="-172" font-family="Helvetica,sans-Serif" font-size="10.00">executer.h</text>
</a>
</g>
</g>
<!-- Node1&#45;&gt;Node6 -->
<g id="edge5" class="edge">
<title>Node1&#45;&gt;Node6</title>
<path fill="none" stroke="#63b8ff" d="M179.01,-219.84C188.19,-211.17 199.95,-200.08 209.41,-191.15"/>
<polygon fill="#63b8ff" stroke="#63b8ff" points="211.84,-193.67 216.71,-184.27 207.03,-188.58 211.84,-193.67"/>
</g>
<!-- Node7 -->
<g id="node7" class="node">
<title>Node7</title>
<g id="a_node7"><a xlink:href="shell_8h.html" target="_top" xlink:title=" ">
<polygon fill="white" stroke="#666666" points="329.5,-129 280.5,-129 280.5,-110 329.5,-110 329.5,-129"/>
<text text-anchor="middle" x="305" y="-117" font-family="Helvetica,sans-Serif" font-size="10.00">shell.h</text>
</a>
</g>
</g>
<!-- Node1&#45;&gt;Node7 -->
<g id="edge11" class="edge">
<title>Node1&#45;&gt;Node7</title>
<path fill="none" stroke="#63b8ff" d="M208.22,-219.92C228.49,-211.82 251.79,-200.03 269,-184 282.45,-171.48 292.22,-152.76 298.15,-138.89"/>
<polygon fill="#63b8ff" stroke="#63b8ff" points="301.48,-140 301.95,-129.41 294.98,-137.39 301.48,-140"/>
</g>
<!-- Node5 -->
<g id="node5" class="node">
<title>Node5</title>
<g id="a_node5"><a xlink:title=" ">
<polygon fill="#e0e0e0" stroke="#999999" points="256,-19 200,-19 200,0 256,0 256,-19"/>
<text text-anchor="middle" x="228" y="-7" font-family="Helvetica,sans-Serif" font-size="10.00">stddef.h</text>
</a>
</g>
</g>
<!-- Node4&#45;&gt;Node5 -->
<g id="edge4" class="edge">
<title>Node4&#45;&gt;Node5</title>
<path fill="none" stroke="#63b8ff" d="M157.3,-109.66C170.11,-91.69 199.38,-50.64 215.96,-27.38"/>
<polygon fill="#63b8ff" stroke="#63b8ff" points="218.87,-29.33 221.83,-19.16 213.17,-25.27 218.87,-29.33"/>
</g>
<!-- Node6&#45;&gt;Node4 -->
<g id="edge6" class="edge">
<title>Node6&#45;&gt;Node4</title>
<path fill="none" stroke="#63b8ff" d="M213.95,-164.98C202.54,-156.92 185.17,-144.65 171.57,-135.03"/>
<polygon fill="#63b8ff" stroke="#63b8ff" points="173.46,-132.08 163.27,-129.17 169.42,-137.8 173.46,-132.08"/>
</g>
<!-- Node6&#45;&gt;Node7 -->
<g id="edge7" class="edge">
<title>Node6&#45;&gt;Node7</title>
<path fill="none" stroke="#63b8ff" d="M238.69,-164.98C250.83,-156.84 269.36,-144.41 283.75,-134.76"/>
<polygon fill="#63b8ff" stroke="#63b8ff" points="285.72,-137.65 292.08,-129.17 281.82,-131.84 285.72,-137.65"/>
</g>
<!-- Node9 -->
<g id="node9" class="node">
<title>Node9</title>
<g id="a_node9"><a xlink:title=" ">
<polygon fill="#e0e0e0" stroke="#999999" points="262,-129 190,-129 190,-110 262,-110 262,-129"/>
<text text-anchor="middle" x="226" y="-117" font-family="Helvetica,sans-Serif" font-size="10.00">sys/types.h</text>
</a>
</g>
</g>
<!-- Node6&#45;&gt;Node9 -->
<g id="edge10" class="edge">
<title>Node6&#45;&gt;Node9</title>
<path fill="none" stroke="#63b8ff" d="M226,-164.75C226,-157.8 226,-147.85 226,-139.13"/>
<polygon fill="#63b8ff" stroke="#63b8ff" points="229.5,-139.09 226,-129.09 222.5,-139.09 229.5,-139.09"/>
</g>
<!-- Node8 -->
<g id="node8" class="node">
<title>Node8</title>
<g id="a_node8"><a xlink:href="list_8h.html" target="_top" xlink:title=" ">
<polygon fill="white" stroke="#666666" points="310.5,-74 251.5,-74 251.5,-55 310.5,-55 310.5,-74"/>
<text text-anchor="middle" x="281" y="-62" font-family="Helvetica,sans-Serif" font-size="10.00">my/list.h</text>
</a>
</g>
</g>
<!-- Node7&#45;&gt;Node8 -->
<g id="edge8" class="edge">
<title>Node7&#45;&gt;Node8</title>
<path fill="none" stroke="#63b8ff" d="M301.04,-109.75C297.79,-102.57 293.08,-92.18 289.05,-83.27"/>
<polygon fill="#63b8ff" stroke="#63b8ff" points="292.2,-81.75 284.89,-74.09 285.83,-84.64 292.2,-81.75"/>
</g>
<!-- Node8&#45;&gt;Node5 -->
<g id="edge9" class="edge">
<title>Node8&#45;&gt;Node5</title>
<path fill="none" stroke="#63b8ff" d="M272.25,-54.75C264.53,-47.03 253.1,-35.6 243.78,-26.28"/>
<polygon fill="#63b8ff" stroke="#63b8ff" points="246.14,-23.69 236.59,-19.09 241.19,-28.64 246.14,-23.69"/>
</g>
</g>
</svg>
