<?xml version="1.0" encoding="UTF-8" standalone="no"?>
<!DOCTYPE svg PUBLIC "-//W3C//DTD SVG 1.1//EN"
 "http://www.w3.org/Graphics/SVG/1.1/DTD/svg11.dtd">
<!-- Generated by graphviz version 2.43.0 (0)
 -->
<!-- Title: execute_pipe Pages: 1 -->
<!--zoomable 320 -->
<svg id="main" version="1.1" xmlns="http://www.w3.org/2000/svg" xmlns:xlink="http://www.w3.org/1999/xlink" xml:space="preserve" onload="init(evt)">
<style type="text/css"><![CDATA[
.edge:hover path { stroke: red; }
.edge:hover polygon { stroke: red; fill: red; }
]]></style>
<script type="text/javascript"><![CDATA[
var edges = document.getElementsByTagName('g');
if (edges && edges.length) {
  for (var i=0;i<edges.length;i++) {
    if (edges[i].id.substr(0,4)=='edge') {
      edges[i].setAttribute('class','edge');
    }
  }
}
]]></script>
        <defs>
                <circle id="rim" cx="0" cy="0" r="7"/>
                <circle id="rim2" cx="0" cy="0" r="3.5"/>
                <g id="zoomPlus">
                        <use xlink:href="#rim" fill="#404040">
                                <set attributeName="fill" to="#808080" begin="zoomplus.mouseover" end="zoomplus.mouseout"/>
                        </use>
                        <path d="M-4,0h8M0,-4v8" fill="none" stroke="white" stroke-width="1.5" pointer-events="none"/>
                </g>
                <g id="zoomMin">
                        <use xlink:href="#rim" fill="#404040">
                                <set attributeName="fill" to="#808080" begin="zoomminus.mouseover" end="zoomminus.mouseout"/>
                        </use>
                        <path d="M-4,0h8" fill="none" stroke="white" stroke-width="1.5" pointer-events="none"/>
                </g>
                <g id="dirArrow">
                        <path fill="none" stroke="white" stroke-width="1.5" d="M0,-3.0v7 M-2.5,-0.5L0,-3.0L2.5,-0.5"/>
                </g>
               <g id="resetDef">
                       <use xlink:href="#rim2" fill="#404040">
                               <set attributeName="fill" to="#808080" begin="reset.mouseover" end="reset.mouseout"/>
                       </use>
               </g>
        </defs>

<script type="text/javascript">
var viewWidth = 1434;
var viewHeight = 320;
var sectionId = 'dynsection-1';
</script>
<script xlink:href="svgpan.js"/>
<svg id="graph" class="graph">
<g id="viewport">
<title>execute_pipe</title>
<!-- Node1 -->
<g id="node1" class="node">
<title>Node1</title>
<g id="a_node1"><a xlink:title=" ">
<polygon fill="#999999" stroke="#666666" points="81,-189 0,-189 0,-170 81,-170 81,-189"/>
<text text-anchor="middle" x="40.5" y="-177" font-family="Helvetica,sans-Serif" font-size="10.00">execute_pipe</text>
</a>
</g>
</g>
<!-- Node2 -->
<g id="node2" class="node">
<title>Node2</title>
<g id="a_node2"><a xlink:href="execute__pipe_8c.html#a723ff799f939872d17f109a82342294e" target="_top" xlink:title=" ">
<polygon fill="white" stroke="#666666" points="333,-189 271,-189 271,-170 333,-170 333,-189"/>
<text text-anchor="middle" x="302" y="-177" font-family="Helvetica,sans-Serif" font-size="10.00">close_fds</text>
</a>
</g>
</g>
<!-- Node1&#45;&gt;Node2 -->
<g id="edge1" class="edge">
<title>Node1&#45;&gt;Node2</title>
<path fill="none" stroke="#63b8ff" d="M72.03,-189.01C85.65,-192.77 101.98,-196.64 117,-198.5 165.08,-204.46 177.93,-204.49 226,-198.5 237.43,-197.07 249.62,-194.47 260.77,-191.64"/>
<polygon fill="#63b8ff" stroke="#63b8ff" points="261.91,-194.96 270.68,-189 260.11,-188.2 261.91,-194.96"/>
</g>
<!-- Node3 -->
<g id="node3" class="node">
<title>Node3</title>
<g id="a_node3"><a xlink:href="execute__pipe_8c.html#ac529ffc2370b0133613ef8a81e58ed85" target="_top" xlink:title=" ">
<polygon fill="white" stroke="#666666" points="222.5,-189 120.5,-189 120.5,-170 222.5,-170 222.5,-189"/>
<text text-anchor="middle" x="171.5" y="-177" font-family="Helvetica,sans-Serif" font-size="10.00">execute_pipe_left</text>
</a>
</g>
</g>
<!-- Node1&#45;&gt;Node3 -->
<g id="edge2" class="edge">
<title>Node1&#45;&gt;Node3</title>
<path fill="none" stroke="#63b8ff" d="M81.26,-179.5C90.38,-179.5 100.28,-179.5 110.05,-179.5"/>
<polygon fill="#63b8ff" stroke="#63b8ff" points="110.15,-183 120.15,-179.5 110.15,-176 110.15,-183"/>
</g>
<!-- Node13 -->
<g id="node13" class="node">
<title>Node13</title>
<g id="a_node13"><a xlink:href="wait__for__subprocess_8c.html#a1242d78540fd0ddef3d98a9f294cb0d4" target="_top" xlink:title=" ">
<polygon fill="white" stroke="#666666" points="1266.5,-283 1150.5,-283 1150.5,-264 1266.5,-264 1266.5,-283"/>
<text text-anchor="middle" x="1208.5" y="-271" font-family="Helvetica,sans-Serif" font-size="10.00">wait_for_subprocess</text>
</a>
</g>
</g>
<!-- Node1&#45;&gt;Node13 -->
<g id="edge49" class="edge">
<title>Node1&#45;&gt;Node13</title>
<path fill="none" stroke="#63b8ff" d="M51.89,-189.42C85.19,-220.12 193.34,-311.5 301,-311.5 301,-311.5 301,-311.5 900.5,-311.5 988.13,-311.5 1088.77,-296.06 1150.24,-284.87"/>
<polygon fill="#63b8ff" stroke="#63b8ff" points="1150.93,-288.3 1160.13,-283.04 1149.66,-281.41 1150.93,-288.3"/>
</g>
<!-- Node34 -->
<g id="node34" class="node">
<title>Node34</title>
<g id="a_node34"><a xlink:href="execute__pipe_8c.html#a9ed6eabb8a9f7049f91265a5f45e30c8" target="_top" xlink:title=" ">
<polygon fill="white" stroke="#666666" points="226,-113 117,-113 117,-94 226,-94 226,-113"/>
<text text-anchor="middle" x="171.5" y="-101" font-family="Helvetica,sans-Serif" font-size="10.00">execute_pipe_right</text>
</a>
</g>
</g>
<!-- Node1&#45;&gt;Node34 -->
<g id="edge45" class="edge">
<title>Node1&#45;&gt;Node34</title>
<path fill="none" stroke="#63b8ff" d="M53.87,-169.94C68.46,-158.91 93.7,-140.61 117,-127.5 123.47,-123.86 130.59,-120.35 137.46,-117.19"/>
<polygon fill="#63b8ff" stroke="#63b8ff" points="138.9,-120.38 146.61,-113.11 136.05,-113.99 138.9,-120.38"/>
</g>
<!-- Node3&#45;&gt;Node2 -->
<g id="edge3" class="edge">
<title>Node3&#45;&gt;Node2</title>
<path fill="none" stroke="#63b8ff" d="M222.55,-179.5C235.19,-179.5 248.61,-179.5 260.71,-179.5"/>
<polygon fill="#63b8ff" stroke="#63b8ff" points="260.94,-183 270.94,-179.5 260.94,-176 260.94,-183"/>
</g>
<!-- Node4 -->
<g id="node4" class="node">
<title>Node4</title>
<g id="a_node4"><a xlink:href="execute__ast_8c.html#ad26a20a665ab7fdeb714ed53c1afd104" target="_top" xlink:title=" ">
<polygon fill="white" stroke="#666666" points="339.5,-150 264.5,-150 264.5,-131 339.5,-131 339.5,-150"/>
<text text-anchor="middle" x="302" y="-138" font-family="Helvetica,sans-Serif" font-size="10.00">execute_ast</text>
</a>
</g>
</g>
<!-- Node3&#45;&gt;Node4 -->
<g id="edge4" class="edge">
<title>Node3&#45;&gt;Node4</title>
<path fill="none" stroke="#63b8ff" d="M203.93,-169.96C220.74,-164.86 241.63,-158.52 259.72,-153.03"/>
<polygon fill="#63b8ff" stroke="#63b8ff" points="260.89,-156.33 269.44,-150.08 258.86,-149.63 260.89,-156.33"/>
</g>
<!-- Node4&#45;&gt;Node1 -->
<g id="edge28" class="edge">
<title>Node4&#45;&gt;Node1</title>
<path fill="none" stroke="#63b8ff" d="M264.16,-143.39C226.88,-146.62 167.67,-152.6 117,-161.5 107.45,-163.18 97.29,-165.34 87.64,-167.57"/>
<polygon fill="#63b8ff" stroke="#63b8ff" points="86.72,-164.19 77.8,-169.91 88.34,-171 86.72,-164.19"/>
</g>
<!-- Node5 -->
<g id="node5" class="node">
<title>Node5</title>
<g id="a_node5"><a xlink:href="execute__cmd_8c.html#a94ea9cc5a046ce96e36764bf0e4fa2c0" target="_top" xlink:title=" ">
<polygon fill="white" stroke="#666666" points="476.5,-243 395.5,-243 395.5,-224 476.5,-224 476.5,-243"/>
<text text-anchor="middle" x="436" y="-231" font-family="Helvetica,sans-Serif" font-size="10.00">execute_cmd</text>
</a>
</g>
</g>
<!-- Node4&#45;&gt;Node5 -->
<g id="edge5" class="edge">
<title>Node4&#45;&gt;Node5</title>
<path fill="none" stroke="#63b8ff" d="M325.28,-150.09C331.1,-153.22 337.11,-157.05 342,-161.5 363.33,-180.91 354.94,-198.17 378,-215.5 380.49,-217.37 383.18,-219.05 385.99,-220.56"/>
<polygon fill="#63b8ff" stroke="#63b8ff" points="384.72,-223.83 395.27,-224.81 387.64,-217.47 384.72,-223.83"/>
</g>
<!-- Node21 -->
<g id="node21" class="node">
<title>Node21</title>
<g id="a_node21"><a xlink:href="execute__logical__and_8c.html#a4f940752faf9f9a258c49810b21efe47" target="_top" xlink:title=" ">
<polygon fill="white" stroke="#666666" points="494,-169 378,-169 378,-150 494,-150 494,-169"/>
<text text-anchor="middle" x="436" y="-157" font-family="Helvetica,sans-Serif" font-size="10.00">execute_logical_and</text>
</a>
</g>
</g>
<!-- Node4&#45;&gt;Node21 -->
<g id="edge24" class="edge">
<title>Node4&#45;&gt;Node21</title>
<path fill="none" stroke="#63b8ff" d="M339.77,-139.67C357.84,-141.44 379.57,-144.56 397.7,-147.98"/>
<polygon fill="#63b8ff" stroke="#63b8ff" points="397.15,-151.44 407.64,-149.97 398.52,-144.58 397.15,-151.44"/>
</g>
<!-- Node22 -->
<g id="node22" class="node">
<title>Node22</title>
<g id="a_node22"><a xlink:href="execute__logical__or_8c.html#a7e732d7c30b07010fa55850051007dcc" target="_top" xlink:title=" ">
<polygon fill="white" stroke="#666666" points="489.5,-132 382.5,-132 382.5,-113 489.5,-113 489.5,-132"/>
<text text-anchor="middle" x="436" y="-120" font-family="Helvetica,sans-Serif" font-size="10.00">execute_logical_or</text>
</a>
</g>
</g>
<!-- Node4&#45;&gt;Node22 -->
<g id="edge26" class="edge">
<title>Node4&#45;&gt;Node22</title>
<path fill="none" stroke="#63b8ff" d="M331.32,-130.98C343.27,-128.57 357.69,-126.24 371.93,-124.36"/>
<polygon fill="#63b8ff" stroke="#63b8ff" points="372.75,-127.78 382.23,-123.07 371.88,-120.84 372.75,-127.78"/>
</g>
<!-- Node23 -->
<g id="node23" class="node">
<title>Node23</title>
<g id="a_node23"><a xlink:href="execute__redirect_8c.html#a1004307aba80117ddd99f009e52fb155" target="_top" xlink:title=" ">
<polygon fill="white" stroke="#666666" points="485,-206 387,-206 387,-187 485,-187 485,-206"/>
<text text-anchor="middle" x="436" y="-194" font-family="Helvetica,sans-Serif" font-size="10.00">execute_redirect</text>
</a>
</g>
</g>
<!-- Node4&#45;&gt;Node23 -->
<g id="edge29" class="edge">
<title>Node4&#45;&gt;Node23</title>
<path fill="none" stroke="#63b8ff" d="M321.14,-150.12C339.59,-159.83 366.99,-174.01 378,-178.5 382.45,-180.32 387.16,-182.06 391.88,-183.71"/>
<polygon fill="#63b8ff" stroke="#63b8ff" points="390.93,-187.08 401.52,-186.93 393.14,-180.44 390.93,-187.08"/>
</g>
<!-- Node31 -->
<g id="node31" class="node">
<title>Node31</title>
<g id="a_node31"><a xlink:href="execute__repeat_8c.html#a00d48683c54b50130b4a402e6e97fa97" target="_top" xlink:title=" ">
<polygon fill="white" stroke="#666666" points="482,-56 390,-56 390,-37 482,-37 482,-56"/>
<text text-anchor="middle" x="436" y="-44" font-family="Helvetica,sans-Serif" font-size="10.00">execute_repeat</text>
</a>
</g>
</g>
<!-- Node4&#45;&gt;Node31 -->
<g id="edge38" class="edge">
<title>Node4&#45;&gt;Node31</title>
<path fill="none" stroke="#63b8ff" d="M311.47,-130.98C319.88,-125.78 332.82,-120.31 342,-112.5 363.14,-94.53 356.38,-78.89 378,-61.5 379.01,-60.69 380.06,-59.9 381.13,-59.13"/>
<polygon fill="#63b8ff" stroke="#63b8ff" points="383.13,-62 389.76,-53.73 379.42,-56.07 383.13,-62"/>
</g>
<!-- Node32 -->
<g id="node32" class="node">
<title>Node32</title>
<g id="a_node32"><a xlink:href="execute__sequence_8c.html#aad2caa5bf50b0752dd8272da477ec231" target="_top" xlink:title=" ">
<polygon fill="white" stroke="#666666" points="489.5,-19 382.5,-19 382.5,0 489.5,0 489.5,-19"/>
<text text-anchor="middle" x="436" y="-7" font-family="Helvetica,sans-Serif" font-size="10.00">execute_sequence</text>
</a>
</g>
</g>
<!-- Node4&#45;&gt;Node32 -->
<g id="edge40" class="edge">
<title>Node4&#45;&gt;Node32</title>
<path fill="none" stroke="#63b8ff" d="M312.91,-130.89C321.64,-126.19 334.17,-121.05 342,-112.5 369.98,-81.96 349.1,-53.69 375.12,-22.49"/>
<polygon fill="#63b8ff" stroke="#63b8ff" points="377.96,-24.58 382.33,-14.93 372.9,-19.75 377.96,-24.58"/>
</g>
<!-- Node33 -->
<g id="node33" class="node">
<title>Node33</title>
<g id="a_node33"><a xlink:href="execute__subshell_8c.html#a40a27866de012b013a337f794a858d70" target="_top" xlink:title=" ">
<polygon fill="white" stroke="#666666" points="486.5,-280 385.5,-280 385.5,-261 486.5,-261 486.5,-280"/>
<text text-anchor="middle" x="436" y="-268" font-family="Helvetica,sans-Serif" font-size="10.00">execute_subshell</text>
</a>
</g>
</g>
<!-- Node4&#45;&gt;Node33 -->
<g id="edge42" class="edge">
<title>Node4&#45;&gt;Node33</title>
<path fill="none" stroke="#63b8ff" d="M339.75,-150.16C340.53,-150.92 341.28,-151.7 342,-152.5 370.9,-185 346.18,-213.85 378,-243.5 385.61,-250.59 395.99,-254.88 405.81,-258.03"/>
<polygon fill="#63b8ff" stroke="#63b8ff" points="405.12,-261.47 415.71,-260.96 407.11,-254.76 405.12,-261.47"/>
</g>
<!-- Node6 -->
<g id="node6" class="node">
<title>Node6</title>
<g id="a_node6"><a xlink:href="execute__cmd_8c.html#a0cfd2364134e68efdd39533e00b4b0d9" target="_top" xlink:title=" ">
<polygon fill="white" stroke="#666666" points="649,-244 530,-244 530,-225 649,-225 649,-244"/>
<text text-anchor="middle" x="589.5" y="-232" font-family="Helvetica,sans-Serif" font-size="10.00">execute_local_binary</text>
</a>
</g>
</g>
<!-- Node5&#45;&gt;Node6 -->
<g id="edge6" class="edge">
<title>Node5&#45;&gt;Node6</title>
<path fill="none" stroke="#63b8ff" d="M476.8,-233.76C489.98,-233.85 505.05,-233.95 519.76,-234.05"/>
<polygon fill="#63b8ff" stroke="#63b8ff" points="519.84,-237.55 529.86,-234.11 519.89,-230.55 519.84,-237.55"/>
</g>
<!-- Node15 -->
<g id="node15" class="node">
<title>Node15</title>
<g id="a_node15"><a xlink:href="execute__cmd_8c.html#a460126af28ab29df4340554fae9fc57a" target="_top" xlink:title=" ">
<polygon fill="white" stroke="#666666" points="648.5,-207 530.5,-207 530.5,-188 648.5,-188 648.5,-207"/>
<text text-anchor="middle" x="589.5" y="-195" font-family="Helvetica,sans-Serif" font-size="10.00">execute_path_binary</text>
</a>
</g>
</g>
<!-- Node5&#45;&gt;Node15 -->
<g id="edge16" class="edge">
<title>Node5&#45;&gt;Node15</title>
<path fill="none" stroke="#63b8ff" d="M476.8,-224.04C495.7,-219.55 518.49,-214.14 538.54,-209.37"/>
<polygon fill="#63b8ff" stroke="#63b8ff" points="539.52,-212.74 548.43,-207.02 537.9,-205.93 539.52,-212.74"/>
</g>
<!-- Node20 -->
<g id="node20" class="node">
<title>Node20</title>
<g id="a_node20"><a xlink:href="strings_8h.html#a36f055c4e56c8a784629908d0c5b91e5" target="_top" xlink:title=" ">
<polygon fill="white" stroke="#666666" points="1111,-151 1007,-151 1007,-132 1111,-132 1111,-151"/>
<text text-anchor="middle" x="1059" y="-139" font-family="Helvetica,sans-Serif" font-size="10.00">my_is_char_in_str</text>
</a>
</g>
</g>
<!-- Node5&#45;&gt;Node20 -->
<g id="edge23" class="edge">
<title>Node5&#45;&gt;Node20</title>
<path fill="none" stroke="#63b8ff" d="M476.11,-223.91C482.32,-221.62 488.5,-218.84 494,-215.5 513.34,-203.76 510.25,-190.54 530,-179.5 681.18,-94.96 895.95,-114.3 998.73,-130.39"/>
<polygon fill="#63b8ff" stroke="#63b8ff" points="998.19,-133.85 1008.62,-131.98 999.3,-126.94 998.19,-133.85"/>
</g>
<!-- Node7 -->
<g id="node7" class="node">
<title>Node7</title>
<g id="a_node7"><a xlink:href="execute__cmd_8c.html#a018afe6a043051ebc2e3dd9412587990" target="_top" xlink:title=" ">
<polygon fill="white" stroke="#666666" points="945,-245 854,-245 854,-226 945,-226 945,-245"/>
<text text-anchor="middle" x="899.5" y="-233" font-family="Helvetica,sans-Serif" font-size="10.00">execute_binary</text>
</a>
</g>
</g>
<!-- Node6&#45;&gt;Node7 -->
<g id="edge7" class="edge">
<title>Node6&#45;&gt;Node7</title>
<path fill="none" stroke="#63b8ff" d="M649.16,-234.69C705.07,-234.87 788.63,-235.14 843.35,-235.32"/>
<polygon fill="#63b8ff" stroke="#63b8ff" points="843.54,-238.82 853.56,-235.35 843.57,-231.82 843.54,-238.82"/>
</g>
<!-- Node8 -->
<g id="node8" class="node">
<title>Node8</title>
<g id="a_node8"><a xlink:href="env__to__word__array_8c.html#aea7253d35c5aa57d9cfe9d7df218cb90" target="_top" xlink:title=" ">
<polygon fill="white" stroke="#666666" points="1114,-208 1004,-208 1004,-189 1114,-189 1114,-208"/>
<text text-anchor="middle" x="1059" y="-196" font-family="Helvetica,sans-Serif" font-size="10.00">env_to_word_array</text>
</a>
</g>
</g>
<!-- Node7&#45;&gt;Node8 -->
<g id="edge8" class="edge">
<title>Node7&#45;&gt;Node8</title>
<path fill="none" stroke="#63b8ff" d="M941.06,-225.97C961.28,-221.22 985.94,-215.43 1007.38,-210.39"/>
<polygon fill="#63b8ff" stroke="#63b8ff" points="1008.37,-213.75 1017.3,-208.06 1006.77,-206.94 1008.37,-213.75"/>
</g>
<!-- Node11 -->
<g id="node11" class="node">
<title>Node11</title>
<g id="a_node11"><a xlink:href="execute__cmd_8c.html#a6badc27baa1930e30ea2ad3817f65366" target="_top" xlink:title=" ">
<polygon fill="white" stroke="#666666" points="1099,-245 1019,-245 1019,-226 1099,-226 1099,-245"/>
<text text-anchor="middle" x="1059" y="-233" font-family="Helvetica,sans-Serif" font-size="10.00">execute_fork</text>
</a>
</g>
</g>
<!-- Node7&#45;&gt;Node11 -->
<g id="edge11" class="edge">
<title>Node7&#45;&gt;Node11</title>
<path fill="none" stroke="#63b8ff" d="M945.21,-235.5C965.05,-235.5 988.46,-235.5 1008.79,-235.5"/>
<polygon fill="#63b8ff" stroke="#63b8ff" points="1008.8,-239 1018.8,-235.5 1008.8,-232 1008.8,-239"/>
</g>
<!-- Node9 -->
<g id="node9" class="node">
<title>Node9</title>
<g id="a_node9"><a xlink:href="misc_8h.html#a1180cae2875b1fdcd58c9f9175a82c12" target="_top" xlink:title=" ">
<polygon fill="white" stroke="#666666" points="1267,-208 1150,-208 1150,-189 1267,-189 1267,-208"/>
<text text-anchor="middle" x="1208.5" y="-196" font-family="Helvetica,sans-Serif" font-size="10.00">my_free_word_array</text>
</a>
</g>
</g>
<!-- Node8&#45;&gt;Node9 -->
<g id="edge9" class="edge">
<title>Node8&#45;&gt;Node9</title>
<path fill="none" stroke="#63b8ff" d="M1114.09,-198.5C1122.48,-198.5 1131.24,-198.5 1139.88,-198.5"/>
<polygon fill="#63b8ff" stroke="#63b8ff" points="1139.95,-202 1149.95,-198.5 1139.95,-195 1139.95,-202"/>
</g>
<!-- Node10 -->
<g id="node10" class="node">
<title>Node10</title>
<g id="a_node10"><a xlink:href="list_8h.html#ad5ebb7cdb26f73e4b212dfc5eae4ef0e" target="_top" xlink:title=" ">
<polygon fill="white" stroke="#666666" points="1253,-171 1164,-171 1164,-152 1253,-152 1253,-171"/>
<text text-anchor="middle" x="1208.5" y="-159" font-family="Helvetica,sans-Serif" font-size="10.00">my_list_length</text>
</a>
</g>
</g>
<!-- Node8&#45;&gt;Node10 -->
<g id="edge10" class="edge">
<title>Node8&#45;&gt;Node10</title>
<path fill="none" stroke="#63b8ff" d="M1097.98,-188.97C1116.75,-184.26 1139.59,-178.53 1159.55,-173.53"/>
<polygon fill="#63b8ff" stroke="#63b8ff" points="1160.54,-176.89 1169.39,-171.06 1158.84,-170.1 1160.54,-176.89"/>
</g>
<!-- Node11&#45;&gt;Node9 -->
<g id="edge12" class="edge">
<title>Node11&#45;&gt;Node9</title>
<path fill="none" stroke="#63b8ff" d="M1097.98,-225.97C1116.75,-221.26 1139.59,-215.53 1159.55,-210.53"/>
<polygon fill="#63b8ff" stroke="#63b8ff" points="1160.54,-213.89 1169.39,-208.06 1158.84,-207.1 1160.54,-213.89"/>
</g>
<!-- Node12 -->
<g id="node12" class="node">
<title>Node12</title>
<g id="a_node12"><a xlink:href="execute__cmd_8c.html#a2c49b9849cfef0deea03382c9f1b3ab8" target="_top" xlink:title=" ">
<polygon fill="white" stroke="#666666" points="1254.5,-245 1162.5,-245 1162.5,-226 1254.5,-226 1254.5,-245"/>
<text text-anchor="middle" x="1208.5" y="-233" font-family="Helvetica,sans-Serif" font-size="10.00">run_subprocess</text>
</a>
</g>
</g>
<!-- Node11&#45;&gt;Node12 -->
<g id="edge13" class="edge">
<title>Node11&#45;&gt;Node12</title>
<path fill="none" stroke="#63b8ff" d="M1099.14,-235.5C1115.41,-235.5 1134.58,-235.5 1152.24,-235.5"/>
<polygon fill="#63b8ff" stroke="#63b8ff" points="1152.43,-239 1162.43,-235.5 1152.43,-232 1152.43,-239"/>
</g>
<!-- Node11&#45;&gt;Node13 -->
<g id="edge14" class="edge">
<title>Node11&#45;&gt;Node13</title>
<path fill="none" stroke="#63b8ff" d="M1097.22,-245.09C1116.51,-250.06 1140.26,-256.18 1160.77,-261.46"/>
<polygon fill="#63b8ff" stroke="#63b8ff" points="1159.99,-264.87 1170.55,-263.98 1161.74,-258.1 1159.99,-264.87"/>
</g>
<!-- Node14 -->
<g id="node14" class="node">
<title>Node14</title>
<g id="a_node14"><a xlink:href="wait__for__subprocess_8c.html#a885766ba6ba593b7cf27b917dd52b1a6" target="_top" xlink:title=" ">
<polygon fill="white" stroke="#666666" points="1426,-283 1303,-283 1303,-264 1426,-264 1426,-283"/>
<text text-anchor="middle" x="1364.5" y="-271" font-family="Helvetica,sans-Serif" font-size="10.00">print_signal_message</text>
</a>
</g>
</g>
<!-- Node13&#45;&gt;Node14 -->
<g id="edge15" class="edge">
<title>Node13&#45;&gt;Node14</title>
<path fill="none" stroke="#63b8ff" d="M1266.84,-273.5C1275.26,-273.5 1284.02,-273.5 1292.67,-273.5"/>
<polygon fill="#63b8ff" stroke="#63b8ff" points="1292.76,-277 1302.76,-273.5 1292.76,-270 1292.76,-277"/>
</g>
<!-- Node16 -->
<g id="node16" class="node">
<title>Node16</title>
<g id="a_node16"><a xlink:href="get__variable__value_8c.html#a2edd9900f19af236aa05385a789be3d6" target="_top" xlink:title=" ">
<polygon fill="white" stroke="#666666" points="795,-170 685,-170 685,-151 795,-151 795,-170"/>
<text text-anchor="middle" x="740" y="-158" font-family="Helvetica,sans-Serif" font-size="10.00">get_variable_value</text>
</a>
</g>
</g>
<!-- Node15&#45;&gt;Node16 -->
<g id="edge17" class="edge">
<title>Node15&#45;&gt;Node16</title>
<path fill="none" stroke="#63b8ff" d="M628.74,-187.97C647.64,-183.26 670.63,-177.53 690.73,-172.53"/>
<polygon fill="#63b8ff" stroke="#63b8ff" points="691.77,-175.87 700.63,-170.06 690.08,-169.08 691.77,-175.87"/>
</g>
<!-- Node18 -->
<g id="node18" class="node">
<title>Node18</title>
<g id="a_node18"><a xlink:href="execute__cmd_8c.html#aee9e13edede9df28fac066f30e7ae7ed" target="_top" xlink:title=" ">
<polygon fill="white" stroke="#666666" points="782,-207 698,-207 698,-188 782,-188 782,-207"/>
<text text-anchor="middle" x="740" y="-195" font-family="Helvetica,sans-Serif" font-size="10.00">try_command</text>
</a>
</g>
</g>
<!-- Node15&#45;&gt;Node18 -->
<g id="edge19" class="edge">
<title>Node15&#45;&gt;Node18</title>
<path fill="none" stroke="#63b8ff" d="M648.76,-197.5C661.59,-197.5 675.08,-197.5 687.61,-197.5"/>
<polygon fill="#63b8ff" stroke="#63b8ff" points="687.87,-201 697.87,-197.5 687.87,-194 687.87,-201"/>
</g>
<!-- Node17 -->
<g id="node17" class="node">
<title>Node17</title>
<g id="a_node17"><a xlink:href="get__variable_8c.html#a569170390f0edf013bf89c26ef55ea8c" target="_top" xlink:title=" ">
<polygon fill="white" stroke="#666666" points="938,-170 861,-170 861,-151 938,-151 938,-170"/>
<text text-anchor="middle" x="899.5" y="-158" font-family="Helvetica,sans-Serif" font-size="10.00">get_variable</text>
</a>
</g>
</g>
<!-- Node16&#45;&gt;Node17 -->
<g id="edge18" class="edge">
<title>Node16&#45;&gt;Node17</title>
<path fill="none" stroke="#63b8ff" d="M795.2,-160.5C813.04,-160.5 832.73,-160.5 850.11,-160.5"/>
<polygon fill="#63b8ff" stroke="#63b8ff" points="850.58,-164 860.58,-160.5 850.58,-157 850.58,-164"/>
</g>
<!-- Node18&#45;&gt;Node7 -->
<g id="edge20" class="edge">
<title>Node18&#45;&gt;Node7</title>
<path fill="none" stroke="#63b8ff" d="M780.74,-207.09C801.53,-212.1 827.16,-218.29 849.2,-223.61"/>
<polygon fill="#63b8ff" stroke="#63b8ff" points="848.5,-227.04 859.04,-225.98 850.14,-220.23 848.5,-227.04"/>
</g>
<!-- Node19 -->
<g id="node19" class="node">
<title>Node19</title>
<g id="a_node19"><a xlink:href="execute__cmd_8c.html#a9ef2f2dfa839f59ba42718ef236d4dcb" target="_top" xlink:title=" ">
<polygon fill="white" stroke="#666666" points="968,-207 831,-207 831,-188 968,-188 968,-207"/>
<text text-anchor="middle" x="899.5" y="-195" font-family="Helvetica,sans-Serif" font-size="10.00">print_permission_denied</text>
</a>
</g>
</g>
<!-- Node18&#45;&gt;Node19 -->
<g id="edge21" class="edge">
<title>Node18&#45;&gt;Node19</title>
<path fill="none" stroke="#63b8ff" d="M782.38,-197.5C794.22,-197.5 807.52,-197.5 820.79,-197.5"/>
<polygon fill="#63b8ff" stroke="#63b8ff" points="820.9,-201 830.9,-197.5 820.9,-194 820.9,-201"/>
</g>
<!-- Node19&#45;&gt;Node20 -->
<g id="edge22" class="edge">
<title>Node19&#45;&gt;Node20</title>
<path fill="none" stroke="#63b8ff" d="M940.04,-187.94C949.29,-185.43 959.05,-182.57 968,-179.5 988.39,-172.52 1010.71,-163.1 1028.02,-155.39"/>
<polygon fill="#63b8ff" stroke="#63b8ff" points="1029.91,-158.38 1037.58,-151.08 1027.03,-152 1029.91,-158.38"/>
</g>
<!-- Node21&#45;&gt;Node4 -->
<g id="edge25" class="edge">
<title>Node21&#45;&gt;Node4</title>
<path fill="none" stroke="#63b8ff" d="M377.75,-157.96C365.02,-156.28 351.85,-154.2 340.17,-151.99"/>
<polygon fill="#63b8ff" stroke="#63b8ff" points="340.84,-148.56 330.35,-150.03 339.47,-155.42 340.84,-148.56"/>
</g>
<!-- Node22&#45;&gt;Node4 -->
<g id="edge27" class="edge">
<title>Node22&#45;&gt;Node4</title>
<path fill="none" stroke="#63b8ff" d="M406.37,-132.08C389.9,-135.39 368.8,-138.54 349.96,-140.59"/>
<polygon fill="#63b8ff" stroke="#63b8ff" points="349.37,-137.13 339.77,-141.61 350.07,-144.1 349.37,-137.13"/>
</g>
<!-- Node24 -->
<g id="node24" class="node">
<title>Node24</title>
<g id="a_node24"><a xlink:href="execute__redirect_8c.html#a5aa0f008806cc0e8a7ba252d61b7001f" target="_top" xlink:title=" ">
<polygon fill="white" stroke="#666666" points="643,-94 536,-94 536,-75 643,-75 643,-94"/>
<text text-anchor="middle" x="589.5" y="-82" font-family="Helvetica,sans-Serif" font-size="10.00">redirect_execution</text>
</a>
</g>
</g>
<!-- Node23&#45;&gt;Node24 -->
<g id="edge30" class="edge">
<title>Node23&#45;&gt;Node24</title>
<path fill="none" stroke="#63b8ff" d="M480.33,-186.92C485.26,-184.68 489.95,-181.91 494,-178.5 520.74,-155.94 504.23,-132.16 530,-108.5 534.2,-104.65 539.09,-101.37 544.24,-98.6"/>
<polygon fill="#63b8ff" stroke="#63b8ff" points="546.12,-101.58 553.66,-94.13 543.12,-95.25 546.12,-101.58"/>
</g>
<!-- Node24&#45;&gt;Node4 -->
<g id="edge31" class="edge">
<title>Node24&#45;&gt;Node4</title>
<path fill="none" stroke="#63b8ff" d="M535.61,-83.87C492.43,-84.63 430.24,-88.66 378,-103.5 360.79,-108.39 358.04,-113.58 342,-121.5 338.8,-123.08 335.44,-124.73 332.1,-126.36"/>
<polygon fill="#63b8ff" stroke="#63b8ff" points="330.31,-123.34 322.86,-130.87 333.38,-129.63 330.31,-123.34"/>
</g>
<!-- Node25 -->
<g id="node25" class="node">
<title>Node25</title>
<g id="a_node25"><a xlink:href="execute__redirect_8c.html#a1b8f325fc375581f81ae47a54e09cf0e" target="_top" xlink:title=" ">
<polygon fill="white" stroke="#666666" points="773,-94 707,-94 707,-75 773,-75 773,-94"/>
<text text-anchor="middle" x="740" y="-82" font-family="Helvetica,sans-Serif" font-size="10.00">restore_fd</text>
</a>
</g>
</g>
<!-- Node24&#45;&gt;Node25 -->
<g id="edge32" class="edge">
<title>Node24&#45;&gt;Node25</title>
<path fill="none" stroke="#63b8ff" d="M643.27,-84.5C660.64,-84.5 679.73,-84.5 696.26,-84.5"/>
<polygon fill="#63b8ff" stroke="#63b8ff" points="696.71,-88 706.71,-84.5 696.71,-81 696.71,-88"/>
</g>
<!-- Node26 -->
<g id="node26" class="node">
<title>Node26</title>
<g id="a_node26"><a xlink:href="execute__redirect_8c.html#a6cb002bd51f2009eaacc66d388c5f9a7" target="_top" xlink:title=" ">
<polygon fill="white" stroke="#666666" points="790.5,-57 689.5,-57 689.5,-38 790.5,-38 790.5,-57"/>
<text text-anchor="middle" x="740" y="-45" font-family="Helvetica,sans-Serif" font-size="10.00">setup_redirection</text>
</a>
</g>
</g>
<!-- Node24&#45;&gt;Node26 -->
<g id="edge33" class="edge">
<title>Node24&#45;&gt;Node26</title>
<path fill="none" stroke="#63b8ff" d="M628.74,-74.97C647.64,-70.26 670.63,-64.53 690.73,-59.53"/>
<polygon fill="#63b8ff" stroke="#63b8ff" points="691.77,-62.87 700.63,-57.06 690.08,-56.08 691.77,-62.87"/>
</g>
<!-- Node27 -->
<g id="node27" class="node">
<title>Node27</title>
<g id="a_node27"><a xlink:href="execute__redirect_8c.html#a0e31af51537a8c047a3aca7cdb63d5dd" target="_top" xlink:title=" ">
<polygon fill="white" stroke="#666666" points="948.5,-57 850.5,-57 850.5,-38 948.5,-38 948.5,-57"/>
<text text-anchor="middle" x="899.5" y="-45" font-family="Helvetica,sans-Serif" font-size="10.00">open_redirect_fd</text>
</a>
</g>
</g>
<!-- Node26&#45;&gt;Node27 -->
<g id="edge34" class="edge">
<title>Node26&#45;&gt;Node27</title>
<path fill="none" stroke="#63b8ff" d="M790.83,-47.5C806.43,-47.5 823.79,-47.5 839.93,-47.5"/>
<polygon fill="#63b8ff" stroke="#63b8ff" points="840.34,-51 850.34,-47.5 840.34,-44 840.34,-51"/>
</g>
<!-- Node28 -->
<g id="node28" class="node">
<title>Node28</title>
<g id="a_node28"><a xlink:href="execute__redirect_8c.html#a71feea783167b3804f2793a232ca74b4" target="_top" xlink:title=" ">
<polygon fill="white" stroke="#666666" points="1094.5,-57 1023.5,-57 1023.5,-38 1094.5,-38 1094.5,-57"/>
<text text-anchor="middle" x="1059" y="-45" font-family="Helvetica,sans-Serif" font-size="10.00">heredoc_fd</text>
</a>
</g>
</g>
<!-- Node27&#45;&gt;Node28 -->
<g id="edge35" class="edge">
<title>Node27&#45;&gt;Node28</title>
<path fill="none" stroke="#63b8ff" d="M948.61,-47.5C969.1,-47.5 992.87,-47.5 1013.01,-47.5"/>
<polygon fill="#63b8ff" stroke="#63b8ff" points="1013.17,-51 1023.17,-47.5 1013.17,-44 1013.17,-51"/>
</g>
<!-- Node29 -->
<g id="node29" class="node">
<title>Node29</title>
<g id="a_node29"><a xlink:href="execute__redirect_8c.html#a639d0a6f315a3bae78d204ff798e314f" target="_top" xlink:title=" ">
<polygon fill="white" stroke="#666666" points="1262,-57 1155,-57 1155,-38 1262,-38 1262,-57"/>
<text text-anchor="middle" x="1208.5" y="-45" font-family="Helvetica,sans-Serif" font-size="10.00">get_heredoc_input</text>
</a>
</g>
</g>
<!-- Node28&#45;&gt;Node29 -->
<g id="edge36" class="edge">
<title>Node28&#45;&gt;Node29</title>
<path fill="none" stroke="#63b8ff" d="M1094.58,-47.5C1109.6,-47.5 1127.67,-47.5 1144.91,-47.5"/>
<polygon fill="#63b8ff" stroke="#63b8ff" points="1144.94,-51 1154.94,-47.5 1144.94,-44 1144.94,-51"/>
</g>
<!-- Node30 -->
<g id="node30" class="node">
<title>Node30</title>
<g id="a_node30"><a xlink:href="execute__redirect_8c.html#a4e396606481bc13335d3dfae7ff15407" target="_top" xlink:title=" ">
<polygon fill="white" stroke="#666666" points="1415.5,-57 1313.5,-57 1313.5,-38 1415.5,-38 1415.5,-57"/>
<text text-anchor="middle" x="1364.5" y="-45" font-family="Helvetica,sans-Serif" font-size="10.00">is_heredoc_delim</text>
</a>
</g>
</g>
<!-- Node29&#45;&gt;Node30 -->
<g id="edge37" class="edge">
<title>Node29&#45;&gt;Node30</title>
<path fill="none" stroke="#63b8ff" d="M1262.07,-47.5C1275.26,-47.5 1289.52,-47.5 1303.06,-47.5"/>
<polygon fill="#63b8ff" stroke="#63b8ff" points="1303.25,-51 1313.25,-47.5 1303.25,-44 1303.25,-51"/>
</g>
<!-- Node31&#45;&gt;Node4 -->
<g id="edge39" class="edge">
<title>Node31&#45;&gt;Node4</title>
<path fill="none" stroke="#63b8ff" d="M423.07,-56.14C410.78,-61.88 391.55,-68.6 378,-79.5 359.08,-94.71 361.89,-108.59 347.06,-125.2"/>
<polygon fill="#63b8ff" stroke="#63b8ff" points="344.27,-123.03 339.51,-132.49 349.13,-128.06 344.27,-123.03"/>
</g>
<!-- Node32&#45;&gt;Node4 -->
<g id="edge41" class="edge">
<title>Node32&#45;&gt;Node4</title>
<path fill="none" stroke="#63b8ff" d="M415.67,-19C403.49,-22.41 388.2,-26.89 378,-36.5 347.98,-64.78 368.4,-92.77 346.33,-124.58"/>
<polygon fill="#63b8ff" stroke="#63b8ff" points="343.3,-122.76 339.75,-132.75 348.75,-127.15 343.3,-122.76"/>
</g>
<!-- Node33&#45;&gt;Node4 -->
<g id="edge43" class="edge">
<title>Node33&#45;&gt;Node4</title>
<path fill="none" stroke="#63b8ff" d="M385.49,-267.13C382.8,-265.49 380.28,-263.62 378,-261.5 346.18,-231.85 370.9,-203 342,-170.5 336.25,-164.03 328.02,-159.2 320.61,-155.04"/>
<polygon fill="#63b8ff" stroke="#63b8ff" points="322.31,-151.98 311.89,-150.07 318.84,-158.06 322.31,-151.98"/>
</g>
<!-- Node33&#45;&gt;Node13 -->
<g id="edge44" class="edge">
<title>Node33&#45;&gt;Node13</title>
<path fill="none" stroke="#63b8ff" d="M486.7,-271.3C546.55,-272.18 650.13,-273.5 739,-273.5 739,-273.5 739,-273.5 900.5,-273.5 983.05,-273.5 1078.08,-273.5 1140.28,-273.5"/>
<polygon fill="#63b8ff" stroke="#63b8ff" points="1140.35,-277 1150.35,-273.5 1140.35,-270 1140.35,-277"/>
</g>
<!-- Node34&#45;&gt;Node2 -->
<g id="edge46" class="edge">
<title>Node34&#45;&gt;Node2</title>
<path fill="none" stroke="#63b8ff" d="M186.84,-113C204.33,-124.47 234.9,-144.11 262,-159.5 265.3,-161.38 268.8,-163.28 272.3,-165.13"/>
<polygon fill="#63b8ff" stroke="#63b8ff" points="270.9,-168.35 281.39,-169.85 274.12,-162.14 270.9,-168.35"/>
</g>
<!-- Node34&#45;&gt;Node4 -->
<g id="edge47" class="edge">
<title>Node34&#45;&gt;Node4</title>
<path fill="none" stroke="#63b8ff" d="M205.59,-113.03C221.51,-117.61 240.78,-123.16 257.83,-128.07"/>
<polygon fill="#63b8ff" stroke="#63b8ff" points="257,-131.47 267.57,-130.88 258.93,-124.74 257,-131.47"/>
</g>
<!-- Node35 -->
<g id="node35" class="node">
<title>Node35</title>
<g id="a_node35"><a xlink:href="execute__pipe_8c.html#ac3d3a124b262676fa0679720f99a7f83" target="_top" xlink:title=" ">
<polygon fill="white" stroke="#666666" points="342,-113 262,-113 262,-94 342,-94 342,-113"/>
<text text-anchor="middle" x="302" y="-101" font-family="Helvetica,sans-Serif" font-size="10.00">restore_stdin</text>
</a>
</g>
</g>
<!-- Node34&#45;&gt;Node35 -->
<g id="edge48" class="edge">
<title>Node34&#45;&gt;Node35</title>
<path fill="none" stroke="#63b8ff" d="M226.25,-103.5C234.76,-103.5 243.52,-103.5 251.91,-103.5"/>
<polygon fill="#63b8ff" stroke="#63b8ff" points="251.93,-107 261.93,-103.5 251.93,-100 251.93,-107"/>
</g>
</g>
</svg>
        <g id="navigator" transform="translate(0 0)" fill="#404254">
                <rect fill="#f2f5e9" fill-opacity="0.5" stroke="#606060" stroke-width=".5" x="0" y="0" width="60" height="60"/>
                <use id="zoomplus" xlink:href="#zoomPlus" x="17" y="9" onmousedown="handleZoom(evt,'in')"/>
                <use id="zoomminus" xlink:href="#zoomMin" x="42" y="9" onmousedown="handleZoom(evt,'out')"/>
                <use id="reset" xlink:href="#resetDef" x="30" y="36" onmousedown="handleReset()"/>
                <g id="arrowUp" xlink:href="#dirArrow" transform="translate(30 24)" onmousedown="handlePan(0,-1)">
                  <use xlink:href="#rim" fill="#404040">
                        <set attributeName="fill" to="#808080" begin="arrowUp.mouseover" end="arrowUp.mouseout"/>
                  </use>
                  <path fill="none" stroke="white" stroke-width="1.5" d="M0,-3.0v7 M-2.5,-0.5L0,-3.0L2.5,-0.5"/>
                </g>
                <g id="arrowRight" xlink:href="#dirArrow" transform="rotate(90) translate(36 -43)" onmousedown="handlePan(1,0)">
                  <use xlink:href="#rim" fill="#404040">
                        <set attributeName="fill" to="#808080" begin="arrowRight.mouseover" end="arrowRight.mouseout"/>
                  </use>
                  <path fill="none" stroke="white" stroke-width="1.5" d="M0,-3.0v7 M-2.5,-0.5L0,-3.0L2.5,-0.5"/>
                </g>
                <g id="arrowDown" xlink:href="#dirArrow" transform="rotate(180) translate(-30 -48)" onmousedown="handlePan(0,1)">
                  <use xlink:href="#rim" fill="#404040">
                        <set attributeName="fill" to="#808080" begin="arrowDown.mouseover" end="arrowDown.mouseout"/>
                  </use>
                  <path fill="none" stroke="white" stroke-width="1.5" d="M0,-3.0v7 M-2.5,-0.5L0,-3.0L2.5,-0.5"/>
                </g>
                <g id="arrowLeft" xlink:href="#dirArrow" transform="rotate(270) translate(-36 17)" onmousedown="handlePan(-1,0)">
                  <use xlink:href="#rim" fill="#404040">
                        <set attributeName="fill" to="#808080" begin="arrowLeft.mouseover" end="arrowLeft.mouseout"/>
                  </use>
                  <path fill="none" stroke="white" stroke-width="1.5" d="M0,-3.0v7 M-2.5,-0.5L0,-3.0L2.5,-0.5"/>
                </g>
        </g>
        <svg viewBox="0 0 15 15" width="100%" height="30px" preserveAspectRatio="xMaxYMin meet">
         <g id="arrow_out" transform="scale(0.3 0.3)">
          <a xlink:href="execute__pipe_8c_a5f3546dc2c7cf06c982afba41e722164_cgraph_org.svg" target="_base">
           <rect id="button" ry="5" rx="5" y="6" x="6" height="38" width="38"
                fill="#f2f5e9" fill-opacity="0.5" stroke="#606060" stroke-width="1.0"/>
           <path id="arrow"
             d="M 11.500037,31.436501 C 11.940474,20.09759 22.043105,11.32322 32.158766,21.979434 L 37.068811,17.246167 C 37.068811,17.246167 37.088388,32 37.088388,32 L 22.160133,31.978069 C 22.160133,31.978069 26.997745,27.140456 26.997745,27.140456 C 18.528582,18.264221 13.291696,25.230495 11.500037,31.436501 z"
             style="fill:#404040;"/>
          </a>
         </g>
        </svg>
</svg>
