<?xml version="1.0" encoding="UTF-8" standalone="no"?>
<!DOCTYPE svg PUBLIC "-//W3C//DTD SVG 1.1//EN"
 "http://www.w3.org/Graphics/SVG/1.1/DTD/svg11.dtd">
<!-- Generated by graphviz version 2.43.0 (0)
 -->
<!-- Title: setup_redirection Pages: 1 -->
<svg width="631pt" height="27pt"
 viewBox="0.00 0.00 631.00 27.00" xmlns="http://www.w3.org/2000/svg" xmlns:xlink="http://www.w3.org/1999/xlink">
<g id="graph0" class="graph" transform="scale(1 1) rotate(0) translate(4 23)">
<title>setup_redirection</title>
<!-- Node1 -->
<g id="node1" class="node">
<title>Node1</title>
<g id="a_node1"><a xlink:title=" ">
<polygon fill="#999999" stroke="#666666" points="101,-19 0,-19 0,0 101,0 101,-19"/>
<text text-anchor="middle" x="50.5" y="-7" font-family="Helvetica,sans-Serif" font-size="10.00">setup_redirection</text>
</a>
</g>
</g>
<!-- Node2 -->
<g id="node2" class="node">
<title>Node2</title>
<g id="a_node2"><a xlink:href="execute__redirect_8c.html#a0e31af51537a8c047a3aca7cdb63d5dd" target="_top" xlink:title=" ">
<polygon fill="white" stroke="#666666" points="235,-19 137,-19 137,0 235,0 235,-19"/>
<text text-anchor="middle" x="186" y="-7" font-family="Helvetica,sans-Serif" font-size="10.00">open_redirect_fd</text>
</a>
</g>
</g>
<!-- Node1&#45;&gt;Node2 -->
<g id="edge1" class="edge">
<title>Node1&#45;&gt;Node2</title>
<path fill="none" stroke="#63b8ff" d="M101.21,-9.5C109.43,-9.5 118.02,-9.5 126.44,-9.5"/>
<polygon fill="#63b8ff" stroke="#63b8ff" points="126.58,-13 136.58,-9.5 126.58,-6 126.58,-13"/>
</g>
<!-- Node3 -->
<g id="node3" class="node">
<title>Node3</title>
<g id="a_node3"><a xlink:href="execute__redirect_8c.html#a71feea783167b3804f2793a232ca74b4" target="_top" xlink:title=" ">
<polygon fill="white" stroke="#666666" points="342,-19 271,-19 271,0 342,0 342,-19"/>
<text text-anchor="middle" x="306.5" y="-7" font-family="Helvetica,sans-Serif" font-size="10.00">heredoc_fd</text>
</a>
</g>
</g>
<!-- Node2&#45;&gt;Node3 -->
<g id="edge2" class="edge">
<title>Node2&#45;&gt;Node3</title>
<path fill="none" stroke="#63b8ff" d="M235.2,-9.5C243.58,-9.5 252.26,-9.5 260.55,-9.5"/>
<polygon fill="#63b8ff" stroke="#63b8ff" points="260.79,-13 270.79,-9.5 260.79,-6 260.79,-13"/>
</g>
<!-- Node4 -->
<g id="node4" class="node">
<title>Node4</title>
<g id="a_node4"><a xlink:href="execute__redirect_8c.html#a639d0a6f315a3bae78d204ff798e314f" target="_top" xlink:title=" ">
<polygon fill="white" stroke="#666666" points="485,-19 378,-19 378,0 485,0 485,-19"/>
<text text-anchor="middle" x="431.5" y="-7" font-family="Helvetica,sans-Serif" font-size="10.00">get_heredoc_input</text>
</a>
</g>
</g>
<!-- Node3&#45;&gt;Node4 -->
<g id="edge3" class="edge">
<title>Node3&#45;&gt;Node4</title>
<path fill="none" stroke="#63b8ff" d="M342.09,-9.5C350.06,-9.5 358.77,-9.5 367.53,-9.5"/>
<polygon fill="#63b8ff" stroke="#63b8ff" points="367.79,-13 377.79,-9.5 367.79,-6 367.79,-13"/>
</g>
<!-- Node5 -->
<g id="node5" class="node">
<title>Node5</title>
<g id="a_node5"><a xlink:href="execute__redirect_8c.html#a4e396606481bc13335d3dfae7ff15407" target="_top" xlink:title=" ">
<polygon fill="white" stroke="#666666" points="623,-19 521,-19 521,0 623,0 623,-19"/>
<text text-anchor="middle" x="572" y="-7" font-family="Helvetica,sans-Serif" font-size="10.00">is_heredoc_delim</text>
</a>
</g>
</g>
<!-- Node4&#45;&gt;Node5 -->
<g id="edge4" class="edge">
<title>Node4&#45;&gt;Node5</title>
<path fill="none" stroke="#63b8ff" d="M485.26,-9.5C493.52,-9.5 502.11,-9.5 510.53,-9.5"/>
<polygon fill="#63b8ff" stroke="#63b8ff" points="510.67,-13 520.67,-9.5 510.67,-6 510.67,-13"/>
</g>
</g>
</svg>
