<?xml version="1.0" encoding="UTF-8" standalone="no"?>
<!DOCTYPE svg PUBLIC "-//W3C//DTD SVG 1.1//EN"
 "http://www.w3.org/Graphics/SVG/1.1/DTD/svg11.dtd">
<!-- Generated by graphviz version 2.43.0 (0)
 -->
<!-- Title: execute_subshell Pages: 1 -->
<!--zoomable 517 -->
<svg id="main" version="1.1" xmlns="http://www.w3.org/2000/svg" xmlns:xlink="http://www.w3.org/1999/xlink" xml:space="preserve" onload="init(evt)">
<style type="text/css"><![CDATA[
.edge:hover path { stroke: red; }
.edge:hover polygon { stroke: red; fill: red; }
]]></style>
<script type="text/javascript"><![CDATA[
var edges = document.getElementsByTagName('g');
if (edges && edges.length) {
  for (var i=0;i<edges.length;i++) {
    if (edges[i].id.substr(0,4)=='edge') {
      edges[i].setAttribute('class','edge');
    }
  }
}
]]></script>
        <defs>
                <circle id="rim" cx="0" cy="0" r="7"/>
                <circle id="rim2" cx="0" cy="0" r="3.5"/>
                <g id="zoomPlus">
                        <use xlink:href="#rim" fill="#404040">
                                <set attributeName="fill" to="#808080" begin="zoomplus.mouseover" end="zoomplus.mouseout"/>
                        </use>
                        <path d="M-4,0h8M0,-4v8" fill="none" stroke="white" stroke-width="1.5" pointer-events="none"/>
                </g>
                <g id="zoomMin">
                        <use xlink:href="#rim" fill="#404040">
                                <set attributeName="fill" to="#808080" begin="zoomminus.mouseover" end="zoomminus.mouseout"/>
                        </use>
                        <path d="M-4,0h8" fill="none" stroke="white" stroke-width="1.5" pointer-events="none"/>
                </g>
                <g id="dirArrow">
                        <path fill="none" stroke="white" stroke-width="1.5" d="M0,-3.0v7 M-2.5,-0.5L0,-3.0L2.5,-0.5"/>
                </g>
               <g id="resetDef">
                       <use xlink:href="#rim2" fill="#404040">
                               <set attributeName="fill" to="#808080" begin="reset.mouseover" end="reset.mouseout"/>
                       </use>
               </g>
        </defs>

<script type="text/javascript">
var viewWidth = 1304;
var viewHeight = 517;
var sectionId = 'dynsection-12';
</script>
<script xlink:href="svgpan.js"/>
<svg id="graph" class="graph">
<g id="viewport">
<title>execute_subshell</title>
<!-- Node1 -->
<g id="node1" class="node">
<title>Node1</title>
<g id="a_node1"><a xlink:title=" ">
<polygon fill="#999999" stroke="#666666" points="101,-169 0,-169 0,-150 101,-150 101,-169"/>
<text text-anchor="middle" x="50.5" y="-157" font-family="Helvetica,sans-Serif" font-size="10.00">execute_subshell</text>
</a>
</g>
</g>
<!-- Node2 -->
<g id="node2" class="node">
<title>Node2</title>
<g id="a_node2"><a xlink:href="execute__ast_8c.html#ad26a20a665ab7fdeb714ed53c1afd104" target="_top" xlink:title=" ">
<polygon fill="white" stroke="#666666" points="212,-169 137,-169 137,-150 212,-150 212,-169"/>
<text text-anchor="middle" x="174.5" y="-157" font-family="Helvetica,sans-Serif" font-size="10.00">execute_ast</text>
</a>
</g>
</g>
<!-- Node1&#45;&gt;Node2 -->
<g id="edge1" class="edge">
<title>Node1&#45;&gt;Node2</title>
<path fill="none" stroke="#63b8ff" d="M101.12,-152.86C109.47,-152.7 118.12,-152.72 126.4,-152.91"/>
<polygon fill="#63b8ff" stroke="#63b8ff" points="126.54,-156.41 136.65,-153.24 126.77,-149.42 126.54,-156.41"/>
</g>
<!-- Node11 -->
<g id="node11" class="node">
<title>Node11</title>
<g id="a_node11"><a xlink:href="wait__for__subprocess_8c.html#a1242d78540fd0ddef3d98a9f294cb0d4" target="_top" xlink:title=" ">
<polygon fill="white" stroke="#666666" points="1136.5,-359 1020.5,-359 1020.5,-340 1136.5,-340 1136.5,-359"/>
<text text-anchor="middle" x="1078.5" y="-347" font-family="Helvetica,sans-Serif" font-size="10.00">wait_for_subprocess</text>
</a>
</g>
</g>
<!-- Node1&#45;&gt;Node11 -->
<g id="edge49" class="edge">
<title>Node1&#45;&gt;Node11</title>
<path fill="none" stroke="#63b8ff" d="M57.6,-169.18C82.84,-207.9 183.45,-349.5 305,-349.5 305,-349.5 305,-349.5 770.5,-349.5 853.05,-349.5 948.08,-349.5 1010.28,-349.5"/>
<polygon fill="#63b8ff" stroke="#63b8ff" points="1010.35,-353 1020.35,-349.5 1010.35,-346 1010.35,-353"/>
</g>
<!-- Node2&#45;&gt;Node1 -->
<g id="edge48" class="edge">
<title>Node2&#45;&gt;Node1</title>
<path fill="none" stroke="#63b8ff" d="M136.65,-165.76C128.61,-166.1 119.91,-166.27 111.24,-166.25"/>
<polygon fill="#63b8ff" stroke="#63b8ff" points="111.16,-162.75 101.12,-166.14 111.09,-169.75 111.16,-162.75"/>
</g>
<!-- Node3 -->
<g id="node3" class="node">
<title>Node3</title>
<g id="a_node3"><a xlink:href="execute__cmd_8c.html#a94ea9cc5a046ce96e36764bf0e4fa2c0" target="_top" xlink:title=" ">
<polygon fill="white" stroke="#666666" points="346.5,-416 265.5,-416 265.5,-397 346.5,-397 346.5,-416"/>
<text text-anchor="middle" x="306" y="-404" font-family="Helvetica,sans-Serif" font-size="10.00">execute_cmd</text>
</a>
</g>
</g>
<!-- Node2&#45;&gt;Node3 -->
<g id="edge2" class="edge">
<title>Node2&#45;&gt;Node3</title>
<path fill="none" stroke="#63b8ff" d="M178.66,-169.15C187.59,-195.81 214.54,-272.37 248,-330.5 260.24,-351.77 277.51,-373.99 289.83,-388.87"/>
<polygon fill="#63b8ff" stroke="#63b8ff" points="287.31,-391.32 296.43,-396.72 292.67,-386.81 287.31,-391.32"/>
</g>
<!-- Node19 -->
<g id="node19" class="node">
<title>Node19</title>
<g id="a_node19"><a xlink:href="execute__logical__and_8c.html#a4f940752faf9f9a258c49810b21efe47" target="_top" xlink:title=" ">
<polygon fill="white" stroke="#666666" points="364,-169 248,-169 248,-150 364,-150 364,-169"/>
<text text-anchor="middle" x="306" y="-157" font-family="Helvetica,sans-Serif" font-size="10.00">execute_logical_and</text>
</a>
</g>
</g>
<!-- Node2&#45;&gt;Node19 -->
<g id="edge21" class="edge">
<title>Node2&#45;&gt;Node19</title>
<path fill="none" stroke="#63b8ff" d="M212.26,-153.34C220.22,-152.98 228.87,-152.79 237.59,-152.76"/>
<polygon fill="#63b8ff" stroke="#63b8ff" points="237.8,-156.26 247.81,-152.79 237.82,-149.26 237.8,-156.26"/>
</g>
<!-- Node20 -->
<g id="node20" class="node">
<title>Node20</title>
<g id="a_node20"><a xlink:href="execute__logical__or_8c.html#a7e732d7c30b07010fa55850051007dcc" target="_top" xlink:title=" ">
<polygon fill="white" stroke="#666666" points="359.5,-132 252.5,-132 252.5,-113 359.5,-113 359.5,-132"/>
<text text-anchor="middle" x="306" y="-120" font-family="Helvetica,sans-Serif" font-size="10.00">execute_logical_or</text>
</a>
</g>
</g>
<!-- Node2&#45;&gt;Node20 -->
<g id="edge23" class="edge">
<title>Node2&#45;&gt;Node20</title>
<path fill="none" stroke="#63b8ff" d="M192.43,-149.93C205.33,-144.85 223.96,-138.85 242.35,-133.65"/>
<polygon fill="#63b8ff" stroke="#63b8ff" points="243.51,-136.97 252.22,-130.93 241.65,-130.22 243.51,-136.97"/>
</g>
<!-- Node21 -->
<g id="node21" class="node">
<title>Node21</title>
<g id="a_node21"><a xlink:href="execute__pipe_8c.html#a5f3546dc2c7cf06c982afba41e722164" target="_top" xlink:title=" ">
<polygon fill="white" stroke="#666666" points="346.5,-245 265.5,-245 265.5,-226 346.5,-226 346.5,-245"/>
<text text-anchor="middle" x="306" y="-233" font-family="Helvetica,sans-Serif" font-size="10.00">execute_pipe</text>
</a>
</g>
</g>
<!-- Node2&#45;&gt;Node21 -->
<g id="edge25" class="edge">
<title>Node2&#45;&gt;Node21</title>
<path fill="none" stroke="#63b8ff" d="M187.26,-169.2C201.17,-180.37 225.29,-198.79 248,-211.5 254.7,-215.25 262.1,-218.78 269.29,-221.91"/>
<polygon fill="#63b8ff" stroke="#63b8ff" points="268.31,-225.3 278.88,-225.93 271.01,-218.84 268.31,-225.3"/>
</g>
<!-- Node26 -->
<g id="node26" class="node">
<title>Node26</title>
<g id="a_node26"><a xlink:href="execute__redirect_8c.html#a1004307aba80117ddd99f009e52fb155" target="_top" xlink:title=" ">
<polygon fill="white" stroke="#666666" points="355,-56 257,-56 257,-37 355,-37 355,-56"/>
<text text-anchor="middle" x="306" y="-44" font-family="Helvetica,sans-Serif" font-size="10.00">execute_redirect</text>
</a>
</g>
</g>
<!-- Node2&#45;&gt;Node26 -->
<g id="edge35" class="edge">
<title>Node2&#45;&gt;Node26</title>
<path fill="none" stroke="#63b8ff" d="M181.09,-149.89C191.91,-132.03 217.37,-93.44 248,-70.5 253.24,-66.57 259.23,-63.15 265.3,-60.22"/>
<polygon fill="#63b8ff" stroke="#63b8ff" points="267.09,-63.26 274.82,-56.02 264.26,-56.86 267.09,-63.26"/>
</g>
<!-- Node34 -->
<g id="node34" class="node">
<title>Node34</title>
<g id="a_node34"><a xlink:href="execute__repeat_8c.html#a00d48683c54b50130b4a402e6e97fa97" target="_top" xlink:title=" ">
<polygon fill="white" stroke="#666666" points="352,-19 260,-19 260,0 352,0 352,-19"/>
<text text-anchor="middle" x="306" y="-7" font-family="Helvetica,sans-Serif" font-size="10.00">execute_repeat</text>
</a>
</g>
</g>
<!-- Node2&#45;&gt;Node34 -->
<g id="edge44" class="edge">
<title>Node2&#45;&gt;Node34</title>
<path fill="none" stroke="#63b8ff" d="M177.06,-149.87C182.74,-123.67 204.34,-54.33 248,-18.5 248.88,-17.78 249.79,-17.08 250.73,-16.41"/>
<polygon fill="#63b8ff" stroke="#63b8ff" points="252.85,-19.23 259.73,-11.17 249.33,-13.18 252.85,-19.23"/>
</g>
<!-- Node35 -->
<g id="node35" class="node">
<title>Node35</title>
<g id="a_node35"><a xlink:href="execute__sequence_8c.html#aad2caa5bf50b0752dd8272da477ec231" target="_top" xlink:title=" ">
<polygon fill="white" stroke="#666666" points="359.5,-321 252.5,-321 252.5,-302 359.5,-302 359.5,-321"/>
<text text-anchor="middle" x="306" y="-309" font-family="Helvetica,sans-Serif" font-size="10.00">execute_sequence</text>
</a>
</g>
</g>
<!-- Node2&#45;&gt;Node35 -->
<g id="edge46" class="edge">
<title>Node2&#45;&gt;Node35</title>
<path fill="none" stroke="#63b8ff" d="M180.39,-169.24C189.6,-191.94 211.93,-246.42 248,-278.5 257.93,-287.33 271.58,-293.23 283.03,-297.99"/>
<polygon fill="#63b8ff" stroke="#63b8ff" points="281.81,-301.27 292.38,-301.92 284.52,-294.82 281.81,-301.27"/>
</g>
<!-- Node4 -->
<g id="node4" class="node">
<title>Node4</title>
<g id="a_node4"><a xlink:href="execute__cmd_8c.html#a0cfd2364134e68efdd39533e00b4b0d9" target="_top" xlink:title=" ">
<polygon fill="white" stroke="#666666" points="519,-491 400,-491 400,-472 519,-472 519,-491"/>
<text text-anchor="middle" x="459.5" y="-479" font-family="Helvetica,sans-Serif" font-size="10.00">execute_local_binary</text>
</a>
</g>
</g>
<!-- Node3&#45;&gt;Node4 -->
<g id="edge3" class="edge">
<title>Node3&#45;&gt;Node4</title>
<path fill="none" stroke="#63b8ff" d="M326.5,-416.15C352.74,-429.15 399.64,-452.36 429.89,-467.34"/>
<polygon fill="#63b8ff" stroke="#63b8ff" points="428.56,-470.59 439.08,-471.89 431.67,-464.31 428.56,-470.59"/>
</g>
<!-- Node13 -->
<g id="node13" class="node">
<title>Node13</title>
<g id="a_node13"><a xlink:href="execute__cmd_8c.html#a460126af28ab29df4340554fae9fc57a" target="_top" xlink:title=" ">
<polygon fill="white" stroke="#666666" points="518.5,-435 400.5,-435 400.5,-416 518.5,-416 518.5,-435"/>
<text text-anchor="middle" x="459.5" y="-423" font-family="Helvetica,sans-Serif" font-size="10.00">execute_path_binary</text>
</a>
</g>
</g>
<!-- Node3&#45;&gt;Node13 -->
<g id="edge13" class="edge">
<title>Node3&#45;&gt;Node13</title>
<path fill="none" stroke="#63b8ff" d="M346.8,-411.49C360.13,-413.16 375.38,-415.08 390.24,-416.94"/>
<polygon fill="#63b8ff" stroke="#63b8ff" points="390.08,-420.45 400.44,-418.22 390.95,-413.5 390.08,-420.45"/>
</g>
<!-- Node18 -->
<g id="node18" class="node">
<title>Node18</title>
<g id="a_node18"><a xlink:href="strings_8h.html#a36f055c4e56c8a784629908d0c5b91e5" target="_top" xlink:title=" ">
<polygon fill="white" stroke="#666666" points="981,-416 877,-416 877,-397 981,-397 981,-416"/>
<text text-anchor="middle" x="929" y="-404" font-family="Helvetica,sans-Serif" font-size="10.00">my_is_char_in_str</text>
</a>
</g>
</g>
<!-- Node3&#45;&gt;Node18 -->
<g id="edge20" class="edge">
<title>Node3&#45;&gt;Node18</title>
<path fill="none" stroke="#63b8ff" d="M346.79,-406.5C452.24,-406.5 739.48,-406.5 866.35,-406.5"/>
<polygon fill="#63b8ff" stroke="#63b8ff" points="866.66,-410 876.66,-406.5 866.66,-403 866.66,-410"/>
</g>
<!-- Node5 -->
<g id="node5" class="node">
<title>Node5</title>
<g id="a_node5"><a xlink:href="execute__cmd_8c.html#a018afe6a043051ebc2e3dd9412587990" target="_top" xlink:title=" ">
<polygon fill="white" stroke="#666666" points="815,-509 724,-509 724,-490 815,-490 815,-509"/>
<text text-anchor="middle" x="769.5" y="-497" font-family="Helvetica,sans-Serif" font-size="10.00">execute_binary</text>
</a>
</g>
</g>
<!-- Node4&#45;&gt;Node5 -->
<g id="edge4" class="edge">
<title>Node4&#45;&gt;Node5</title>
<path fill="none" stroke="#63b8ff" d="M519.16,-484.93C575.07,-488.2 658.63,-493.08 713.35,-496.28"/>
<polygon fill="#63b8ff" stroke="#63b8ff" points="713.37,-499.78 723.56,-496.87 713.78,-492.8 713.37,-499.78"/>
</g>
<!-- Node6 -->
<g id="node6" class="node">
<title>Node6</title>
<g id="a_node6"><a xlink:href="env__to__word__array_8c.html#aea7253d35c5aa57d9cfe9d7df218cb90" target="_top" xlink:title=" ">
<polygon fill="white" stroke="#666666" points="984,-509 874,-509 874,-490 984,-490 984,-509"/>
<text text-anchor="middle" x="929" y="-497" font-family="Helvetica,sans-Serif" font-size="10.00">env_to_word_array</text>
</a>
</g>
</g>
<!-- Node5&#45;&gt;Node6 -->
<g id="edge5" class="edge">
<title>Node5&#45;&gt;Node6</title>
<path fill="none" stroke="#63b8ff" d="M815.21,-499.5C830.35,-499.5 847.57,-499.5 863.91,-499.5"/>
<polygon fill="#63b8ff" stroke="#63b8ff" points="863.95,-503 873.95,-499.5 863.95,-496 863.95,-503"/>
</g>
<!-- Node9 -->
<g id="node9" class="node">
<title>Node9</title>
<g id="a_node9"><a xlink:href="execute__cmd_8c.html#a6badc27baa1930e30ea2ad3817f65366" target="_top" xlink:title=" ">
<polygon fill="white" stroke="#666666" points="969,-463 889,-463 889,-444 969,-444 969,-463"/>
<text text-anchor="middle" x="929" y="-451" font-family="Helvetica,sans-Serif" font-size="10.00">execute_fork</text>
</a>
</g>
</g>
<!-- Node5&#45;&gt;Node9 -->
<g id="edge8" class="edge">
<title>Node5&#45;&gt;Node9</title>
<path fill="none" stroke="#63b8ff" d="M807.36,-489.96C817.33,-487.31 828.1,-484.36 838,-481.5 854.64,-476.7 872.9,-471.08 888.6,-466.14"/>
<polygon fill="#63b8ff" stroke="#63b8ff" points="890.02,-469.36 898.5,-463.01 887.91,-462.69 890.02,-469.36"/>
</g>
<!-- Node7 -->
<g id="node7" class="node">
<title>Node7</title>
<g id="a_node7"><a xlink:href="misc_8h.html#a1180cae2875b1fdcd58c9f9175a82c12" target="_top" xlink:title=" ">
<polygon fill="white" stroke="#666666" points="1137,-472 1020,-472 1020,-453 1137,-453 1137,-472"/>
<text text-anchor="middle" x="1078.5" y="-460" font-family="Helvetica,sans-Serif" font-size="10.00">my_free_word_array</text>
</a>
</g>
</g>
<!-- Node6&#45;&gt;Node7 -->
<g id="edge6" class="edge">
<title>Node6&#45;&gt;Node7</title>
<path fill="none" stroke="#63b8ff" d="M967.98,-489.97C986.75,-485.26 1009.59,-479.53 1029.55,-474.53"/>
<polygon fill="#63b8ff" stroke="#63b8ff" points="1030.54,-477.89 1039.39,-472.06 1028.84,-471.1 1030.54,-477.89"/>
</g>
<!-- Node8 -->
<g id="node8" class="node">
<title>Node8</title>
<g id="a_node8"><a xlink:href="list_8h.html#ad5ebb7cdb26f73e4b212dfc5eae4ef0e" target="_top" xlink:title=" ">
<polygon fill="white" stroke="#666666" points="1123,-509 1034,-509 1034,-490 1123,-490 1123,-509"/>
<text text-anchor="middle" x="1078.5" y="-497" font-family="Helvetica,sans-Serif" font-size="10.00">my_list_length</text>
</a>
</g>
</g>
<!-- Node6&#45;&gt;Node8 -->
<g id="edge7" class="edge">
<title>Node6&#45;&gt;Node8</title>
<path fill="none" stroke="#63b8ff" d="M984.09,-499.5C996.93,-499.5 1010.64,-499.5 1023.48,-499.5"/>
<polygon fill="#63b8ff" stroke="#63b8ff" points="1023.56,-503 1033.56,-499.5 1023.56,-496 1023.56,-503"/>
</g>
<!-- Node9&#45;&gt;Node7 -->
<g id="edge9" class="edge">
<title>Node9&#45;&gt;Node7</title>
<path fill="none" stroke="#63b8ff" d="M969.14,-455.89C981.64,-456.65 995.85,-457.52 1009.78,-458.37"/>
<polygon fill="#63b8ff" stroke="#63b8ff" points="1009.65,-461.87 1019.84,-458.98 1010.07,-454.88 1009.65,-461.87"/>
</g>
<!-- Node10 -->
<g id="node10" class="node">
<title>Node10</title>
<g id="a_node10"><a xlink:href="execute__cmd_8c.html#a2c49b9849cfef0deea03382c9f1b3ab8" target="_top" xlink:title=" ">
<polygon fill="white" stroke="#666666" points="1124.5,-435 1032.5,-435 1032.5,-416 1124.5,-416 1124.5,-435"/>
<text text-anchor="middle" x="1078.5" y="-423" font-family="Helvetica,sans-Serif" font-size="10.00">run_subprocess</text>
</a>
</g>
</g>
<!-- Node9&#45;&gt;Node10 -->
<g id="edge10" class="edge">
<title>Node9&#45;&gt;Node10</title>
<path fill="none" stroke="#63b8ff" d="M969.14,-446.07C985.41,-442.98 1004.58,-439.34 1022.24,-435.99"/>
<polygon fill="#63b8ff" stroke="#63b8ff" points="1023.26,-439.36 1032.43,-434.06 1021.95,-432.48 1023.26,-439.36"/>
</g>
<!-- Node9&#45;&gt;Node11 -->
<g id="edge11" class="edge">
<title>Node9&#45;&gt;Node11</title>
<path fill="none" stroke="#63b8ff" d="M950.81,-443.95C961.08,-438.93 973.49,-432.39 984,-425.5 1011.91,-407.2 1041.35,-382.18 1059.57,-365.94"/>
<polygon fill="#63b8ff" stroke="#63b8ff" points="1062.03,-368.44 1067.11,-359.14 1057.34,-363.24 1062.03,-368.44"/>
</g>
<!-- Node12 -->
<g id="node12" class="node">
<title>Node12</title>
<g id="a_node12"><a xlink:href="wait__for__subprocess_8c.html#a885766ba6ba593b7cf27b917dd52b1a6" target="_top" xlink:title=" ">
<polygon fill="white" stroke="#666666" points="1296,-359 1173,-359 1173,-340 1296,-340 1296,-359"/>
<text text-anchor="middle" x="1234.5" y="-347" font-family="Helvetica,sans-Serif" font-size="10.00">print_signal_message</text>
</a>
</g>
</g>
<!-- Node11&#45;&gt;Node12 -->
<g id="edge12" class="edge">
<title>Node11&#45;&gt;Node12</title>
<path fill="none" stroke="#63b8ff" d="M1136.84,-349.5C1145.26,-349.5 1154.02,-349.5 1162.67,-349.5"/>
<polygon fill="#63b8ff" stroke="#63b8ff" points="1162.76,-353 1172.76,-349.5 1162.76,-346 1162.76,-353"/>
</g>
<!-- Node14 -->
<g id="node14" class="node">
<title>Node14</title>
<g id="a_node14"><a xlink:href="get__variable__value_8c.html#a2edd9900f19af236aa05385a789be3d6" target="_top" xlink:title=" ">
<polygon fill="white" stroke="#666666" points="665,-435 555,-435 555,-416 665,-416 665,-435"/>
<text text-anchor="middle" x="610" y="-423" font-family="Helvetica,sans-Serif" font-size="10.00">get_variable_value</text>
</a>
</g>
</g>
<!-- Node13&#45;&gt;Node14 -->
<g id="edge14" class="edge">
<title>Node13&#45;&gt;Node14</title>
<path fill="none" stroke="#63b8ff" d="M518.76,-425.5C527.29,-425.5 536.11,-425.5 544.75,-425.5"/>
<polygon fill="#63b8ff" stroke="#63b8ff" points="544.78,-429 554.78,-425.5 544.78,-422 544.78,-429"/>
</g>
<!-- Node16 -->
<g id="node16" class="node">
<title>Node16</title>
<g id="a_node16"><a xlink:href="execute__cmd_8c.html#aee9e13edede9df28fac066f30e7ae7ed" target="_top" xlink:title=" ">
<polygon fill="white" stroke="#666666" points="652,-472 568,-472 568,-453 652,-453 652,-472"/>
<text text-anchor="middle" x="610" y="-460" font-family="Helvetica,sans-Serif" font-size="10.00">try_command</text>
</a>
</g>
</g>
<!-- Node13&#45;&gt;Node16 -->
<g id="edge16" class="edge">
<title>Node13&#45;&gt;Node16</title>
<path fill="none" stroke="#63b8ff" d="M498.74,-435.03C517.64,-439.74 540.63,-445.47 560.73,-450.47"/>
<polygon fill="#63b8ff" stroke="#63b8ff" points="560.08,-453.92 570.63,-452.94 561.77,-447.13 560.08,-453.92"/>
</g>
<!-- Node15 -->
<g id="node15" class="node">
<title>Node15</title>
<g id="a_node15"><a xlink:href="get__variable_8c.html#a569170390f0edf013bf89c26ef55ea8c" target="_top" xlink:title=" ">
<polygon fill="white" stroke="#666666" points="808,-435 731,-435 731,-416 808,-416 808,-435"/>
<text text-anchor="middle" x="769.5" y="-423" font-family="Helvetica,sans-Serif" font-size="10.00">get_variable</text>
</a>
</g>
</g>
<!-- Node14&#45;&gt;Node15 -->
<g id="edge15" class="edge">
<title>Node14&#45;&gt;Node15</title>
<path fill="none" stroke="#63b8ff" d="M665.2,-425.5C683.04,-425.5 702.73,-425.5 720.11,-425.5"/>
<polygon fill="#63b8ff" stroke="#63b8ff" points="720.58,-429 730.58,-425.5 720.58,-422 720.58,-429"/>
</g>
<!-- Node16&#45;&gt;Node5 -->
<g id="edge17" class="edge">
<title>Node16&#45;&gt;Node5</title>
<path fill="none" stroke="#63b8ff" d="M651.56,-472.03C671.78,-476.78 696.44,-482.57 717.88,-487.61"/>
<polygon fill="#63b8ff" stroke="#63b8ff" points="717.27,-491.06 727.8,-489.94 718.87,-484.25 717.27,-491.06"/>
</g>
<!-- Node17 -->
<g id="node17" class="node">
<title>Node17</title>
<g id="a_node17"><a xlink:href="execute__cmd_8c.html#a9ef2f2dfa839f59ba42718ef236d4dcb" target="_top" xlink:title=" ">
<polygon fill="white" stroke="#666666" points="838,-472 701,-472 701,-453 838,-453 838,-472"/>
<text text-anchor="middle" x="769.5" y="-460" font-family="Helvetica,sans-Serif" font-size="10.00">print_permission_denied</text>
</a>
</g>
</g>
<!-- Node16&#45;&gt;Node17 -->
<g id="edge18" class="edge">
<title>Node16&#45;&gt;Node17</title>
<path fill="none" stroke="#63b8ff" d="M652.38,-462.5C664.22,-462.5 677.52,-462.5 690.79,-462.5"/>
<polygon fill="#63b8ff" stroke="#63b8ff" points="690.9,-466 700.9,-462.5 690.9,-459 690.9,-466"/>
</g>
<!-- Node17&#45;&gt;Node18 -->
<g id="edge19" class="edge">
<title>Node17&#45;&gt;Node18</title>
<path fill="none" stroke="#63b8ff" d="M810.04,-452.94C819.29,-450.43 829.05,-447.57 838,-444.5 858.39,-437.52 880.71,-428.1 898.02,-420.39"/>
<polygon fill="#63b8ff" stroke="#63b8ff" points="899.91,-423.38 907.58,-416.08 897.03,-417 899.91,-423.38"/>
</g>
<!-- Node19&#45;&gt;Node2 -->
<g id="edge22" class="edge">
<title>Node19&#45;&gt;Node2</title>
<path fill="none" stroke="#63b8ff" d="M247.81,-166.21C239.33,-166.3 230.67,-166.24 222.43,-166.02"/>
<polygon fill="#63b8ff" stroke="#63b8ff" points="222.38,-162.51 212.26,-165.66 222.13,-169.51 222.38,-162.51"/>
</g>
<!-- Node20&#45;&gt;Node2 -->
<g id="edge24" class="edge">
<title>Node20&#45;&gt;Node2</title>
<path fill="none" stroke="#63b8ff" d="M288.22,-132.01C271.56,-138.59 245.24,-146.71 222.22,-152.66"/>
<polygon fill="#63b8ff" stroke="#63b8ff" points="221.12,-149.33 212.26,-155.15 222.81,-156.12 221.12,-149.33"/>
</g>
<!-- Node21&#45;&gt;Node11 -->
<g id="edge34" class="edge">
<title>Node21&#45;&gt;Node11</title>
<path fill="none" stroke="#63b8ff" d="M346.86,-243.75C404.45,-254.92 514.41,-273.5 609,-273.5 609,-273.5 609,-273.5 770.5,-273.5 873.36,-273.5 990.08,-314.2 1045.29,-336.03"/>
<polygon fill="#63b8ff" stroke="#63b8ff" points="1044.28,-339.4 1054.87,-339.87 1046.89,-332.9 1044.28,-339.4"/>
</g>
<!-- Node22 -->
<g id="node22" class="node">
<title>Node22</title>
<g id="a_node22"><a xlink:href="execute__pipe_8c.html#a723ff799f939872d17f109a82342294e" target="_top" xlink:title=" ">
<polygon fill="white" stroke="#666666" points="641,-245 579,-245 579,-226 641,-226 641,-245"/>
<text text-anchor="middle" x="610" y="-233" font-family="Helvetica,sans-Serif" font-size="10.00">close_fds</text>
</a>
</g>
</g>
<!-- Node21&#45;&gt;Node22 -->
<g id="edge26" class="edge">
<title>Node21&#45;&gt;Node22</title>
<path fill="none" stroke="#63b8ff" d="M346.79,-235.5C404.39,-235.5 510.43,-235.5 568.45,-235.5"/>
<polygon fill="#63b8ff" stroke="#63b8ff" points="568.71,-239 578.71,-235.5 568.71,-232 568.71,-239"/>
</g>
<!-- Node23 -->
<g id="node23" class="node">
<title>Node23</title>
<g id="a_node23"><a xlink:href="execute__pipe_8c.html#ac529ffc2370b0133613ef8a81e58ed85" target="_top" xlink:title=" ">
<polygon fill="white" stroke="#666666" points="510.5,-321 408.5,-321 408.5,-302 510.5,-302 510.5,-321"/>
<text text-anchor="middle" x="459.5" y="-309" font-family="Helvetica,sans-Serif" font-size="10.00">execute_pipe_left</text>
</a>
</g>
</g>
<!-- Node21&#45;&gt;Node23 -->
<g id="edge27" class="edge">
<title>Node21&#45;&gt;Node23</title>
<path fill="none" stroke="#63b8ff" d="M333.8,-245.1C343.58,-249.03 354.55,-253.97 364,-259.5 381.49,-269.74 382.46,-277.34 400,-287.5 406.66,-291.36 414.06,-294.91 421.3,-298.02"/>
<polygon fill="#63b8ff" stroke="#63b8ff" points="420.4,-301.43 430.98,-301.99 423.05,-294.96 420.4,-301.43"/>
</g>
<!-- Node24 -->
<g id="node24" class="node">
<title>Node24</title>
<g id="a_node24"><a xlink:href="execute__pipe_8c.html#a9ed6eabb8a9f7049f91265a5f45e30c8" target="_top" xlink:title=" ">
<polygon fill="white" stroke="#666666" points="514,-207 405,-207 405,-188 514,-188 514,-207"/>
<text text-anchor="middle" x="459.5" y="-195" font-family="Helvetica,sans-Serif" font-size="10.00">execute_pipe_right</text>
</a>
</g>
</g>
<!-- Node21&#45;&gt;Node24 -->
<g id="edge30" class="edge">
<title>Node21&#45;&gt;Node24</title>
<path fill="none" stroke="#63b8ff" d="M345.23,-225.91C365.13,-220.92 389.66,-214.77 410.79,-209.47"/>
<polygon fill="#63b8ff" stroke="#63b8ff" points="411.7,-212.85 420.55,-207.02 409.99,-206.06 411.7,-212.85"/>
</g>
<!-- Node23&#45;&gt;Node2 -->
<g id="edge29" class="edge">
<title>Node23&#45;&gt;Node2</title>
<path fill="none" stroke="#63b8ff" d="M408.9,-301.92C355.34,-290.9 274.16,-272.08 248,-254.5 218.88,-234.93 196.6,-199.76 184.82,-178.14"/>
<polygon fill="#63b8ff" stroke="#63b8ff" points="187.91,-176.5 180.17,-169.27 181.71,-179.75 187.91,-176.5"/>
</g>
<!-- Node23&#45;&gt;Node22 -->
<g id="edge28" class="edge">
<title>Node23&#45;&gt;Node22</title>
<path fill="none" stroke="#63b8ff" d="M479.31,-301.87C505.08,-288.68 551.57,-264.89 581.32,-249.67"/>
<polygon fill="#63b8ff" stroke="#63b8ff" points="583.04,-252.72 590.35,-245.05 579.85,-246.49 583.04,-252.72"/>
</g>
<!-- Node24&#45;&gt;Node2 -->
<g id="edge32" class="edge">
<title>Node24&#45;&gt;Node2</title>
<path fill="none" stroke="#63b8ff" d="M404.57,-194.59C361.87,-191.75 300.83,-186.52 248,-177.5 238.71,-175.91 228.84,-173.78 219.48,-171.53"/>
<polygon fill="#63b8ff" stroke="#63b8ff" points="220.13,-168.08 209.58,-169.07 218.44,-174.88 220.13,-168.08"/>
</g>
<!-- Node24&#45;&gt;Node22 -->
<g id="edge31" class="edge">
<title>Node24&#45;&gt;Node22</title>
<path fill="none" stroke="#63b8ff" d="M497.97,-207.09C519.58,-212.62 546.75,-219.57 568.8,-225.21"/>
<polygon fill="#63b8ff" stroke="#63b8ff" points="567.98,-228.62 578.53,-227.7 569.71,-221.83 567.98,-228.62"/>
</g>
<!-- Node25 -->
<g id="node25" class="node">
<title>Node25</title>
<g id="a_node25"><a xlink:href="execute__pipe_8c.html#ac3d3a124b262676fa0679720f99a7f83" target="_top" xlink:title=" ">
<polygon fill="white" stroke="#666666" points="650,-207 570,-207 570,-188 650,-188 650,-207"/>
<text text-anchor="middle" x="610" y="-195" font-family="Helvetica,sans-Serif" font-size="10.00">restore_stdin</text>
</a>
</g>
</g>
<!-- Node24&#45;&gt;Node25 -->
<g id="edge33" class="edge">
<title>Node24&#45;&gt;Node25</title>
<path fill="none" stroke="#63b8ff" d="M514.11,-197.5C528.95,-197.5 544.99,-197.5 559.58,-197.5"/>
<polygon fill="#63b8ff" stroke="#63b8ff" points="559.91,-201 569.91,-197.5 559.91,-194 559.91,-201"/>
</g>
<!-- Node27 -->
<g id="node27" class="node">
<title>Node27</title>
<g id="a_node27"><a xlink:href="execute__redirect_8c.html#a5aa0f008806cc0e8a7ba252d61b7001f" target="_top" xlink:title=" ">
<polygon fill="white" stroke="#666666" points="513,-75 406,-75 406,-56 513,-56 513,-75"/>
<text text-anchor="middle" x="459.5" y="-63" font-family="Helvetica,sans-Serif" font-size="10.00">redirect_execution</text>
</a>
</g>
</g>
<!-- Node26&#45;&gt;Node27 -->
<g id="edge36" class="edge">
<title>Node26&#45;&gt;Node27</title>
<path fill="none" stroke="#63b8ff" d="M355.35,-52.56C368.19,-54.17 382.24,-55.94 395.72,-57.63"/>
<polygon fill="#63b8ff" stroke="#63b8ff" points="395.53,-61.13 405.89,-58.9 396.4,-54.18 395.53,-61.13"/>
</g>
<!-- Node27&#45;&gt;Node2 -->
<g id="edge37" class="edge">
<title>Node27&#45;&gt;Node2</title>
<path fill="none" stroke="#63b8ff" d="M405.86,-68.05C362,-71.78 298.73,-80.96 248,-103.5 226.62,-113 205.87,-130.08 192.08,-142.88"/>
<polygon fill="#63b8ff" stroke="#63b8ff" points="189.62,-140.4 184.82,-149.84 194.46,-145.45 189.62,-140.4"/>
</g>
<!-- Node28 -->
<g id="node28" class="node">
<title>Node28</title>
<g id="a_node28"><a xlink:href="execute__redirect_8c.html#a1b8f325fc375581f81ae47a54e09cf0e" target="_top" xlink:title=" ">
<polygon fill="white" stroke="#666666" points="643,-94 577,-94 577,-75 643,-75 643,-94"/>
<text text-anchor="middle" x="610" y="-82" font-family="Helvetica,sans-Serif" font-size="10.00">restore_fd</text>
</a>
</g>
</g>
<!-- Node27&#45;&gt;Node28 -->
<g id="edge38" class="edge">
<title>Node27&#45;&gt;Node28</title>
<path fill="none" stroke="#63b8ff" d="M513.27,-72.25C530.81,-74.5 550.09,-76.96 566.73,-79.09"/>
<polygon fill="#63b8ff" stroke="#63b8ff" points="566.34,-82.57 576.71,-80.37 567.23,-75.63 566.34,-82.57"/>
</g>
<!-- Node29 -->
<g id="node29" class="node">
<title>Node29</title>
<g id="a_node29"><a xlink:href="execute__redirect_8c.html#a6cb002bd51f2009eaacc66d388c5f9a7" target="_top" xlink:title=" ">
<polygon fill="white" stroke="#666666" points="660.5,-57 559.5,-57 559.5,-38 660.5,-38 660.5,-57"/>
<text text-anchor="middle" x="610" y="-45" font-family="Helvetica,sans-Serif" font-size="10.00">setup_redirection</text>
</a>
</g>
</g>
<!-- Node27&#45;&gt;Node29 -->
<g id="edge39" class="edge">
<title>Node27&#45;&gt;Node29</title>
<path fill="none" stroke="#63b8ff" d="M513.27,-59.1C524.88,-57.7 537.25,-56.2 549.12,-54.76"/>
<polygon fill="#63b8ff" stroke="#63b8ff" points="549.87,-58.19 559.38,-53.51 549.03,-51.24 549.87,-58.19"/>
</g>
<!-- Node30 -->
<g id="node30" class="node">
<title>Node30</title>
<g id="a_node30"><a xlink:href="execute__redirect_8c.html#a0e31af51537a8c047a3aca7cdb63d5dd" target="_top" xlink:title=" ">
<polygon fill="white" stroke="#666666" points="818.5,-57 720.5,-57 720.5,-38 818.5,-38 818.5,-57"/>
<text text-anchor="middle" x="769.5" y="-45" font-family="Helvetica,sans-Serif" font-size="10.00">open_redirect_fd</text>
</a>
</g>
</g>
<!-- Node29&#45;&gt;Node30 -->
<g id="edge40" class="edge">
<title>Node29&#45;&gt;Node30</title>
<path fill="none" stroke="#63b8ff" d="M660.83,-47.5C676.43,-47.5 693.79,-47.5 709.93,-47.5"/>
<polygon fill="#63b8ff" stroke="#63b8ff" points="710.34,-51 720.34,-47.5 710.34,-44 710.34,-51"/>
</g>
<!-- Node31 -->
<g id="node31" class="node">
<title>Node31</title>
<g id="a_node31"><a xlink:href="execute__redirect_8c.html#a71feea783167b3804f2793a232ca74b4" target="_top" xlink:title=" ">
<polygon fill="white" stroke="#666666" points="964.5,-57 893.5,-57 893.5,-38 964.5,-38 964.5,-57"/>
<text text-anchor="middle" x="929" y="-45" font-family="Helvetica,sans-Serif" font-size="10.00">heredoc_fd</text>
</a>
</g>
</g>
<!-- Node30&#45;&gt;Node31 -->
<g id="edge41" class="edge">
<title>Node30&#45;&gt;Node31</title>
<path fill="none" stroke="#63b8ff" d="M818.61,-47.5C839.1,-47.5 862.87,-47.5 883.01,-47.5"/>
<polygon fill="#63b8ff" stroke="#63b8ff" points="883.17,-51 893.17,-47.5 883.17,-44 883.17,-51"/>
</g>
<!-- Node32 -->
<g id="node32" class="node">
<title>Node32</title>
<g id="a_node32"><a xlink:href="execute__redirect_8c.html#a639d0a6f315a3bae78d204ff798e314f" target="_top" xlink:title=" ">
<polygon fill="white" stroke="#666666" points="1132,-57 1025,-57 1025,-38 1132,-38 1132,-57"/>
<text text-anchor="middle" x="1078.5" y="-45" font-family="Helvetica,sans-Serif" font-size="10.00">get_heredoc_input</text>
</a>
</g>
</g>
<!-- Node31&#45;&gt;Node32 -->
<g id="edge42" class="edge">
<title>Node31&#45;&gt;Node32</title>
<path fill="none" stroke="#63b8ff" d="M964.58,-47.5C979.6,-47.5 997.67,-47.5 1014.91,-47.5"/>
<polygon fill="#63b8ff" stroke="#63b8ff" points="1014.94,-51 1024.94,-47.5 1014.94,-44 1014.94,-51"/>
</g>
<!-- Node33 -->
<g id="node33" class="node">
<title>Node33</title>
<g id="a_node33"><a xlink:href="execute__redirect_8c.html#a4e396606481bc13335d3dfae7ff15407" target="_top" xlink:title=" ">
<polygon fill="white" stroke="#666666" points="1285.5,-57 1183.5,-57 1183.5,-38 1285.5,-38 1285.5,-57"/>
<text text-anchor="middle" x="1234.5" y="-45" font-family="Helvetica,sans-Serif" font-size="10.00">is_heredoc_delim</text>
</a>
</g>
</g>
<!-- Node32&#45;&gt;Node33 -->
<g id="edge43" class="edge">
<title>Node32&#45;&gt;Node33</title>
<path fill="none" stroke="#63b8ff" d="M1132.07,-47.5C1145.26,-47.5 1159.52,-47.5 1173.06,-47.5"/>
<polygon fill="#63b8ff" stroke="#63b8ff" points="1173.25,-51 1183.25,-47.5 1173.25,-44 1173.25,-51"/>
</g>
<!-- Node34&#45;&gt;Node2 -->
<g id="edge45" class="edge">
<title>Node34&#45;&gt;Node2</title>
<path fill="none" stroke="#63b8ff" d="M287.67,-19.01C275.45,-22.7 259.31,-27.22 248,-36.5 213.92,-64.47 193.28,-112.86 183.16,-140.06"/>
<polygon fill="#63b8ff" stroke="#63b8ff" points="179.79,-139.09 179.68,-149.68 186.38,-141.47 179.79,-139.09"/>
</g>
<!-- Node35&#45;&gt;Node2 -->
<g id="edge47" class="edge">
<title>Node35&#45;&gt;Node2</title>
<path fill="none" stroke="#63b8ff" d="M254.97,-301.86C252.51,-300.21 250.17,-298.43 248,-296.5 211.46,-264 189.02,-208.5 180.03,-178.83"/>
<polygon fill="#63b8ff" stroke="#63b8ff" points="183.39,-177.85 177.33,-169.16 176.65,-179.73 183.39,-177.85"/>
</g>
</g>
</svg>
        <g id="navigator" transform="translate(0 0)" fill="#404254">
                <rect fill="#f2f5e9" fill-opacity="0.5" stroke="#606060" stroke-width=".5" x="0" y="0" width="60" height="60"/>
                <use id="zoomplus" xlink:href="#zoomPlus" x="17" y="9" onmousedown="handleZoom(evt,'in')"/>
                <use id="zoomminus" xlink:href="#zoomMin" x="42" y="9" onmousedown="handleZoom(evt,'out')"/>
                <use id="reset" xlink:href="#resetDef" x="30" y="36" onmousedown="handleReset()"/>
                <g id="arrowUp" xlink:href="#dirArrow" transform="translate(30 24)" onmousedown="handlePan(0,-1)">
                  <use xlink:href="#rim" fill="#404040">
                        <set attributeName="fill" to="#808080" begin="arrowUp.mouseover" end="arrowUp.mouseout"/>
                  </use>
                  <path fill="none" stroke="white" stroke-width="1.5" d="M0,-3.0v7 M-2.5,-0.5L0,-3.0L2.5,-0.5"/>
                </g>
                <g id="arrowRight" xlink:href="#dirArrow" transform="rotate(90) translate(36 -43)" onmousedown="handlePan(1,0)">
                  <use xlink:href="#rim" fill="#404040">
                        <set attributeName="fill" to="#808080" begin="arrowRight.mouseover" end="arrowRight.mouseout"/>
                  </use>
                  <path fill="none" stroke="white" stroke-width="1.5" d="M0,-3.0v7 M-2.5,-0.5L0,-3.0L2.5,-0.5"/>
                </g>
                <g id="arrowDown" xlink:href="#dirArrow" transform="rotate(180) translate(-30 -48)" onmousedown="handlePan(0,1)">
                  <use xlink:href="#rim" fill="#404040">
                        <set attributeName="fill" to="#808080" begin="arrowDown.mouseover" end="arrowDown.mouseout"/>
                  </use>
                  <path fill="none" stroke="white" stroke-width="1.5" d="M0,-3.0v7 M-2.5,-0.5L0,-3.0L2.5,-0.5"/>
                </g>
                <g id="arrowLeft" xlink:href="#dirArrow" transform="rotate(270) translate(-36 17)" onmousedown="handlePan(-1,0)">
                  <use xlink:href="#rim" fill="#404040">
                        <set attributeName="fill" to="#808080" begin="arrowLeft.mouseover" end="arrowLeft.mouseout"/>
                  </use>
                  <path fill="none" stroke="white" stroke-width="1.5" d="M0,-3.0v7 M-2.5,-0.5L0,-3.0L2.5,-0.5"/>
                </g>
        </g>
        <svg viewBox="0 0 15 15" width="100%" height="30px" preserveAspectRatio="xMaxYMin meet">
         <g id="arrow_out" transform="scale(0.3 0.3)">
          <a xlink:href="executer_8h_a40a27866de012b013a337f794a858d70_cgraph_org.svg" target="_base">
           <rect id="button" ry="5" rx="5" y="6" x="6" height="38" width="38"
                fill="#f2f5e9" fill-opacity="0.5" stroke="#606060" stroke-width="1.0"/>
           <path id="arrow"
             d="M 11.500037,31.436501 C 11.940474,20.09759 22.043105,11.32322 32.158766,21.979434 L 37.068811,17.246167 C 37.068811,17.246167 37.088388,32 37.088388,32 L 22.160133,31.978069 C 22.160133,31.978069 26.997745,27.140456 26.997745,27.140456 C 18.528582,18.264221 13.291696,25.230495 11.500037,31.436501 z"
             style="fill:#404040;"/>
          </a>
         </g>
        </svg>
</svg>
