<?xml version="1.0" encoding="UTF-8" standalone="no"?>
<!DOCTYPE svg PUBLIC "-//W3C//DTD SVG 1.1//EN"
 "http://www.w3.org/Graphics/SVG/1.1/DTD/svg11.dtd">
<!-- Generated by graphviz version 2.43.0 (0)
 -->
<!-- Title: execute_logical_and Pages: 1 -->
<!--zoomable 450 -->
<svg id="main" version="1.1" xmlns="http://www.w3.org/2000/svg" xmlns:xlink="http://www.w3.org/1999/xlink" xml:space="preserve" onload="init(evt)">
<style type="text/css"><![CDATA[
.edge:hover path { stroke: red; }
.edge:hover polygon { stroke: red; fill: red; }
]]></style>
<script type="text/javascript"><![CDATA[
var edges = document.getElementsByTagName('g');
if (edges && edges.length) {
  for (var i=0;i<edges.length;i++) {
    if (edges[i].id.substr(0,4)=='edge') {
      edges[i].setAttribute('class','edge');
    }
  }
}
]]></script>
        <defs>
                <circle id="rim" cx="0" cy="0" r="7"/>
                <circle id="rim2" cx="0" cy="0" r="3.5"/>
                <g id="zoomPlus">
                        <use xlink:href="#rim" fill="#404040">
                                <set attributeName="fill" to="#808080" begin="zoomplus.mouseover" end="zoomplus.mouseout"/>
                        </use>
                        <path d="M-4,0h8M0,-4v8" fill="none" stroke="white" stroke-width="1.5" pointer-events="none"/>
                </g>
                <g id="zoomMin">
                        <use xlink:href="#rim" fill="#404040">
                                <set attributeName="fill" to="#808080" begin="zoomminus.mouseover" end="zoomminus.mouseout"/>
                        </use>
                        <path d="M-4,0h8" fill="none" stroke="white" stroke-width="1.5" pointer-events="none"/>
                </g>
                <g id="dirArrow">
                        <path fill="none" stroke="white" stroke-width="1.5" d="M0,-3.0v7 M-2.5,-0.5L0,-3.0L2.5,-0.5"/>
                </g>
               <g id="resetDef">
                       <use xlink:href="#rim2" fill="#404040">
                               <set attributeName="fill" to="#808080" begin="reset.mouseover" end="reset.mouseout"/>
                       </use>
               </g>
        </defs>

<script type="text/javascript">
var viewWidth = 1310;
var viewHeight = 450;
var sectionId = 'dynsection-1';
</script>
<script xlink:href="svgpan.js"/>
<svg id="graph" class="graph">
<g id="viewport">
<title>execute_logical_and</title>
<!-- Node1 -->
<g id="node1" class="node">
<title>Node1</title>
<g id="a_node1"><a xlink:title=" ">
<polygon fill="#999999" stroke="#666666" points="116,-207 0,-207 0,-188 116,-188 116,-207"/>
<text text-anchor="middle" x="58" y="-195" font-family="Helvetica,sans-Serif" font-size="10.00">execute_logical_and</text>
</a>
</g>
</g>
<!-- Node2 -->
<g id="node2" class="node">
<title>Node2</title>
<g id="a_node2"><a xlink:href="execute__ast_8c.html#ad26a20a665ab7fdeb714ed53c1afd104" target="_top" xlink:title=" ">
<polygon fill="white" stroke="#666666" points="227,-207 152,-207 152,-188 227,-188 227,-207"/>
<text text-anchor="middle" x="189.5" y="-195" font-family="Helvetica,sans-Serif" font-size="10.00">execute_ast</text>
</a>
</g>
</g>
<!-- Node1&#45;&gt;Node2 -->
<g id="edge1" class="edge">
<title>Node1&#45;&gt;Node2</title>
<path fill="none" stroke="#63b8ff" d="M116.18,-190.79C124.66,-190.7 133.31,-190.76 141.55,-190.98"/>
<polygon fill="#63b8ff" stroke="#63b8ff" points="141.6,-194.49 151.72,-191.34 141.85,-187.49 141.6,-194.49"/>
</g>
<!-- Node2&#45;&gt;Node1 -->
<g id="edge22" class="edge">
<title>Node2&#45;&gt;Node1</title>
<path fill="none" stroke="#63b8ff" d="M151.72,-203.66C143.77,-204.02 135.12,-204.21 126.4,-204.24"/>
<polygon fill="#63b8ff" stroke="#63b8ff" points="126.19,-200.74 116.18,-204.21 126.17,-207.74 126.19,-200.74"/>
</g>
<!-- Node3 -->
<g id="node3" class="node">
<title>Node3</title>
<g id="a_node3"><a xlink:href="execute__cmd_8c.html#a94ea9cc5a046ce96e36764bf0e4fa2c0" target="_top" xlink:title=" ">
<polygon fill="white" stroke="#666666" points="357,-357 276,-357 276,-338 357,-338 357,-357"/>
<text text-anchor="middle" x="316.5" y="-345" font-family="Helvetica,sans-Serif" font-size="10.00">execute_cmd</text>
</a>
</g>
</g>
<!-- Node2&#45;&gt;Node3 -->
<g id="edge2" class="edge">
<title>Node2&#45;&gt;Node3</title>
<path fill="none" stroke="#63b8ff" d="M193.1,-207.02C200.17,-231.11 221.99,-294.99 263,-329.5 264.52,-330.78 266.14,-331.97 267.82,-333.08"/>
<polygon fill="#63b8ff" stroke="#63b8ff" points="266.28,-336.22 276.73,-337.95 269.63,-330.08 266.28,-336.22"/>
</g>
<!-- Node19 -->
<g id="node19" class="node">
<title>Node19</title>
<g id="a_node19"><a xlink:href="execute__logical__or_8c.html#a7e732d7c30b07010fa55850051007dcc" target="_top" xlink:title=" ">
<polygon fill="white" stroke="#666666" points="370,-320 263,-320 263,-301 370,-301 370,-320"/>
<text text-anchor="middle" x="316.5" y="-308" font-family="Helvetica,sans-Serif" font-size="10.00">execute_logical_or</text>
</a>
</g>
</g>
<!-- Node2&#45;&gt;Node19 -->
<g id="edge23" class="edge">
<title>Node2&#45;&gt;Node19</title>
<path fill="none" stroke="#63b8ff" d="M198.64,-207.2C210.22,-225.25 233.38,-262.15 263,-283.5 271.7,-289.77 282.76,-293.99 292.49,-297.5"/>
<polygon fill="#63b8ff" stroke="#63b8ff" points="291.39,-300.83 301.98,-300.96 293.78,-294.25 291.39,-300.83"/>
</g>
<!-- Node20 -->
<g id="node20" class="node">
<title>Node20</title>
<g id="a_node20"><a xlink:href="execute__pipe_8c.html#a5f3546dc2c7cf06c982afba41e722164" target="_top" xlink:title=" ">
<polygon fill="white" stroke="#666666" points="357,-133 276,-133 276,-114 357,-114 357,-133"/>
<text text-anchor="middle" x="316.5" y="-121" font-family="Helvetica,sans-Serif" font-size="10.00">execute_pipe</text>
</a>
</g>
</g>
<!-- Node2&#45;&gt;Node20 -->
<g id="edge25" class="edge">
<title>Node2&#45;&gt;Node20</title>
<path fill="none" stroke="#63b8ff" d="M200.55,-187.98C213.9,-175.78 238.63,-154.62 263,-141.5 266.11,-139.83 269.4,-138.27 272.76,-136.82"/>
<polygon fill="#63b8ff" stroke="#63b8ff" points="274.3,-139.97 282.31,-133.03 271.73,-133.46 274.3,-139.97"/>
</g>
<!-- Node25 -->
<g id="node25" class="node">
<title>Node25</title>
<g id="a_node25"><a xlink:href="execute__redirect_8c.html#a1004307aba80117ddd99f009e52fb155" target="_top" xlink:title=" ">
<polygon fill="white" stroke="#666666" points="365.5,-19 267.5,-19 267.5,0 365.5,0 365.5,-19"/>
<text text-anchor="middle" x="316.5" y="-7" font-family="Helvetica,sans-Serif" font-size="10.00">execute_redirect</text>
</a>
</g>
</g>
<!-- Node2&#45;&gt;Node25 -->
<g id="edge35" class="edge">
<title>Node2&#45;&gt;Node25</title>
<path fill="none" stroke="#63b8ff" d="M192.31,-187.63C197.89,-159.81 217.28,-79.79 263,-33.5 266.69,-29.76 271.07,-26.55 275.7,-23.8"/>
<polygon fill="#63b8ff" stroke="#63b8ff" points="277.54,-26.79 284.81,-19.08 274.32,-20.58 277.54,-26.79"/>
</g>
<!-- Node33 -->
<g id="node33" class="node">
<title>Node33</title>
<g id="a_node33"><a xlink:href="execute__repeat_8c.html#a00d48683c54b50130b4a402e6e97fa97" target="_top" xlink:title=" ">
<polygon fill="white" stroke="#666666" points="362.5,-207 270.5,-207 270.5,-188 362.5,-188 362.5,-207"/>
<text text-anchor="middle" x="316.5" y="-195" font-family="Helvetica,sans-Serif" font-size="10.00">execute_repeat</text>
</a>
</g>
</g>
<!-- Node2&#45;&gt;Node33 -->
<g id="edge44" class="edge">
<title>Node2&#45;&gt;Node33</title>
<path fill="none" stroke="#63b8ff" d="M227.33,-191.28C237.58,-190.83 248.96,-190.67 260.03,-190.79"/>
<polygon fill="#63b8ff" stroke="#63b8ff" points="260.01,-194.29 270.07,-190.98 260.14,-187.29 260.01,-194.29"/>
</g>
<!-- Node34 -->
<g id="node34" class="node">
<title>Node34</title>
<g id="a_node34"><a xlink:href="execute__sequence_8c.html#aad2caa5bf50b0752dd8272da477ec231" target="_top" xlink:title=" ">
<polygon fill="white" stroke="#666666" points="370,-170 263,-170 263,-151 370,-151 370,-170"/>
<text text-anchor="middle" x="316.5" y="-158" font-family="Helvetica,sans-Serif" font-size="10.00">execute_sequence</text>
</a>
</g>
</g>
<!-- Node2&#45;&gt;Node34 -->
<g id="edge46" class="edge">
<title>Node2&#45;&gt;Node34</title>
<path fill="none" stroke="#63b8ff" d="M206.84,-187.93C218.79,-183.05 235.83,-177.34 252.87,-172.29"/>
<polygon fill="#63b8ff" stroke="#63b8ff" points="254.24,-175.54 262.87,-169.4 252.3,-168.81 254.24,-175.54"/>
</g>
<!-- Node35 -->
<g id="node35" class="node">
<title>Node35</title>
<g id="a_node35"><a xlink:href="execute__subshell_8c.html#a40a27866de012b013a337f794a858d70" target="_top" xlink:title=" ">
<polygon fill="white" stroke="#666666" points="367,-283 266,-283 266,-264 367,-264 367,-283"/>
<text text-anchor="middle" x="316.5" y="-271" font-family="Helvetica,sans-Serif" font-size="10.00">execute_subshell</text>
</a>
</g>
</g>
<!-- Node2&#45;&gt;Node35 -->
<g id="edge48" class="edge">
<title>Node2&#45;&gt;Node35</title>
<path fill="none" stroke="#63b8ff" d="M212.28,-207.08C226.31,-216.53 245.18,-230.17 263,-240.5 274.3,-247.05 287.7,-253.15 298.14,-258.75"/>
<polygon fill="#63b8ff" stroke="#63b8ff" points="296.67,-261.95 307.07,-263.97 300.2,-255.9 296.67,-261.95"/>
</g>
<!-- Node4 -->
<g id="node4" class="node">
<title>Node4</title>
<g id="a_node4"><a xlink:href="execute__cmd_8c.html#a0cfd2364134e68efdd39533e00b4b0d9" target="_top" xlink:title=" ">
<polygon fill="white" stroke="#666666" points="525,-404 406,-404 406,-385 525,-385 525,-404"/>
<text text-anchor="middle" x="465.5" y="-392" font-family="Helvetica,sans-Serif" font-size="10.00">execute_local_binary</text>
</a>
</g>
</g>
<!-- Node3&#45;&gt;Node4 -->
<g id="edge3" class="edge">
<title>Node3&#45;&gt;Node4</title>
<path fill="none" stroke="#63b8ff" d="M347.25,-357.01C369.59,-364.15 400.41,-374.01 424.85,-381.82"/>
<polygon fill="#63b8ff" stroke="#63b8ff" points="423.95,-385.21 434.54,-384.92 426.09,-378.54 423.95,-385.21"/>
</g>
<!-- Node13 -->
<g id="node13" class="node">
<title>Node13</title>
<g id="a_node13"><a xlink:href="execute__cmd_8c.html#a460126af28ab29df4340554fae9fc57a" target="_top" xlink:title=" ">
<polygon fill="white" stroke="#666666" points="524.5,-357 406.5,-357 406.5,-338 524.5,-338 524.5,-357"/>
<text text-anchor="middle" x="465.5" y="-345" font-family="Helvetica,sans-Serif" font-size="10.00">execute_path_binary</text>
</a>
</g>
</g>
<!-- Node3&#45;&gt;Node13 -->
<g id="edge14" class="edge">
<title>Node3&#45;&gt;Node13</title>
<path fill="none" stroke="#63b8ff" d="M357.28,-347.5C369.34,-347.5 382.95,-347.5 396.32,-347.5"/>
<polygon fill="#63b8ff" stroke="#63b8ff" points="396.47,-351 406.47,-347.5 396.47,-344 396.47,-351"/>
</g>
<!-- Node18 -->
<g id="node18" class="node">
<title>Node18</title>
<g id="a_node18"><a xlink:href="strings_8h.html#a36f055c4e56c8a784629908d0c5b91e5" target="_top" xlink:title=" ">
<polygon fill="white" stroke="#666666" points="987,-320 883,-320 883,-301 987,-301 987,-320"/>
<text text-anchor="middle" x="935" y="-308" font-family="Helvetica,sans-Serif" font-size="10.00">my_is_char_in_str</text>
</a>
</g>
</g>
<!-- Node3&#45;&gt;Node18 -->
<g id="edge21" class="edge">
<title>Node3&#45;&gt;Node18</title>
<path fill="none" stroke="#63b8ff" d="M357.01,-338.66C372.26,-335.46 389.89,-332.02 406,-329.5 474.47,-318.8 491.81,-316.47 561,-312.5 670.76,-306.2 798.97,-307.38 872.9,-308.88"/>
<polygon fill="#63b8ff" stroke="#63b8ff" points="872.89,-312.39 882.97,-309.1 873.04,-305.39 872.89,-312.39"/>
</g>
<!-- Node5 -->
<g id="node5" class="node">
<title>Node5</title>
<g id="a_node5"><a xlink:href="execute__cmd_8c.html#a0f1b711370b175e42e583b75daacf41e" target="_top" xlink:title=" ">
<polygon fill="white" stroke="#666666" points="821,-414 730,-414 730,-395 821,-395 821,-414"/>
<text text-anchor="middle" x="775.5" y="-402" font-family="Helvetica,sans-Serif" font-size="10.00">execute_binary</text>
</a>
</g>
</g>
<!-- Node4&#45;&gt;Node5 -->
<g id="edge4" class="edge">
<title>Node4&#45;&gt;Node5</title>
<path fill="none" stroke="#63b8ff" d="M525.16,-396.4C581.07,-398.22 664.63,-400.93 719.35,-402.71"/>
<polygon fill="#63b8ff" stroke="#63b8ff" points="719.45,-406.21 729.56,-403.04 719.67,-399.22 719.45,-406.21"/>
</g>
<!-- Node6 -->
<g id="node6" class="node">
<title>Node6</title>
<g id="a_node6"><a xlink:href="env__to__word__array_8c.html#aea7253d35c5aa57d9cfe9d7df218cb90" target="_top" xlink:title=" ">
<polygon fill="white" stroke="#666666" points="990,-442 880,-442 880,-423 990,-423 990,-442"/>
<text text-anchor="middle" x="935" y="-430" font-family="Helvetica,sans-Serif" font-size="10.00">env_to_word_array</text>
</a>
</g>
</g>
<!-- Node5&#45;&gt;Node6 -->
<g id="edge5" class="edge">
<title>Node5&#45;&gt;Node6</title>
<path fill="none" stroke="#63b8ff" d="M821.21,-412.45C836.5,-415.17 853.91,-418.26 870.4,-421.19"/>
<polygon fill="#63b8ff" stroke="#63b8ff" points="870.06,-424.69 880.52,-422.99 871.28,-417.8 870.06,-424.69"/>
</g>
<!-- Node9 -->
<g id="node9" class="node">
<title>Node9</title>
<g id="a_node9"><a xlink:href="execute__cmd_8c.html#a6badc27baa1930e30ea2ad3817f65366" target="_top" xlink:title=" ">
<polygon fill="white" stroke="#666666" points="975,-405 895,-405 895,-386 975,-386 975,-405"/>
<text text-anchor="middle" x="935" y="-393" font-family="Helvetica,sans-Serif" font-size="10.00">execute_fork</text>
</a>
</g>
</g>
<!-- Node5&#45;&gt;Node9 -->
<g id="edge8" class="edge">
<title>Node5&#45;&gt;Node9</title>
<path fill="none" stroke="#63b8ff" d="M821.21,-401.95C841.05,-400.81 864.46,-399.47 884.79,-398.31"/>
<polygon fill="#63b8ff" stroke="#63b8ff" points="885.02,-401.8 894.8,-397.74 884.62,-394.82 885.02,-401.8"/>
</g>
<!-- Node10 -->
<g id="node10" class="node">
<title>Node10</title>
<g id="a_node10"><a xlink:href="execute__cmd_8c.html#a2c49b9849cfef0deea03382c9f1b3ab8" target="_top" xlink:title=" ">
<polygon fill="white" stroke="#666666" points="1130.5,-367 1038.5,-367 1038.5,-348 1130.5,-348 1130.5,-367"/>
<text text-anchor="middle" x="1084.5" y="-355" font-family="Helvetica,sans-Serif" font-size="10.00">run_subprocess</text>
</a>
</g>
</g>
<!-- Node5&#45;&gt;Node10 -->
<g id="edge13" class="edge">
<title>Node5&#45;&gt;Node10</title>
<path fill="none" stroke="#63b8ff" d="M812.43,-394.98C840.93,-387.46 876.54,-378.12 880,-377.5 929.78,-368.62 987.16,-363.43 1028.27,-360.57"/>
<polygon fill="#63b8ff" stroke="#63b8ff" points="1028.62,-364.06 1038.36,-359.9 1028.15,-357.07 1028.62,-364.06"/>
</g>
<!-- Node7 -->
<g id="node7" class="node">
<title>Node7</title>
<g id="a_node7"><a xlink:href="misc_8h.html#a1180cae2875b1fdcd58c9f9175a82c12" target="_top" xlink:title=" ">
<polygon fill="white" stroke="#666666" points="1143,-405 1026,-405 1026,-386 1143,-386 1143,-405"/>
<text text-anchor="middle" x="1084.5" y="-393" font-family="Helvetica,sans-Serif" font-size="10.00">my_free_word_array</text>
</a>
</g>
</g>
<!-- Node6&#45;&gt;Node7 -->
<g id="edge6" class="edge">
<title>Node6&#45;&gt;Node7</title>
<path fill="none" stroke="#63b8ff" d="M973.98,-422.97C992.75,-418.26 1015.59,-412.53 1035.55,-407.53"/>
<polygon fill="#63b8ff" stroke="#63b8ff" points="1036.54,-410.89 1045.39,-405.06 1034.84,-404.1 1036.54,-410.89"/>
</g>
<!-- Node8 -->
<g id="node8" class="node">
<title>Node8</title>
<g id="a_node8"><a xlink:href="list_8h.html#ad5ebb7cdb26f73e4b212dfc5eae4ef0e" target="_top" xlink:title=" ">
<polygon fill="white" stroke="#666666" points="1129,-442 1040,-442 1040,-423 1129,-423 1129,-442"/>
<text text-anchor="middle" x="1084.5" y="-430" font-family="Helvetica,sans-Serif" font-size="10.00">my_list_length</text>
</a>
</g>
</g>
<!-- Node6&#45;&gt;Node8 -->
<g id="edge7" class="edge">
<title>Node6&#45;&gt;Node8</title>
<path fill="none" stroke="#63b8ff" d="M990.09,-432.5C1002.93,-432.5 1016.64,-432.5 1029.48,-432.5"/>
<polygon fill="#63b8ff" stroke="#63b8ff" points="1029.56,-436 1039.56,-432.5 1029.56,-429 1029.56,-436"/>
</g>
<!-- Node9&#45;&gt;Node7 -->
<g id="edge9" class="edge">
<title>Node9&#45;&gt;Node7</title>
<path fill="none" stroke="#63b8ff" d="M975.14,-395.5C987.64,-395.5 1001.85,-395.5 1015.78,-395.5"/>
<polygon fill="#63b8ff" stroke="#63b8ff" points="1015.84,-399 1025.84,-395.5 1015.84,-392 1015.84,-399"/>
</g>
<!-- Node9&#45;&gt;Node10 -->
<g id="edge10" class="edge">
<title>Node9&#45;&gt;Node10</title>
<path fill="none" stroke="#63b8ff" d="M973.22,-385.91C992.51,-380.94 1016.26,-374.82 1036.77,-369.54"/>
<polygon fill="#63b8ff" stroke="#63b8ff" points="1037.74,-372.9 1046.55,-367.02 1035.99,-366.13 1037.74,-372.9"/>
</g>
<!-- Node11 -->
<g id="node11" class="node">
<title>Node11</title>
<g id="a_node11"><a xlink:href="wait__for__subprocess_8c.html#a1242d78540fd0ddef3d98a9f294cb0d4" target="_top" xlink:title=" ">
<polygon fill="white" stroke="#666666" points="1142.5,-264 1026.5,-264 1026.5,-245 1142.5,-245 1142.5,-264"/>
<text text-anchor="middle" x="1084.5" y="-252" font-family="Helvetica,sans-Serif" font-size="10.00">wait_for_subprocess</text>
</a>
</g>
</g>
<!-- Node9&#45;&gt;Node11 -->
<g id="edge11" class="edge">
<title>Node9&#45;&gt;Node11</title>
<path fill="none" stroke="#63b8ff" d="M946.14,-385.81C970.87,-362.16 1034.57,-301.27 1065.76,-271.46"/>
<polygon fill="#63b8ff" stroke="#63b8ff" points="1068.48,-273.7 1073.29,-264.26 1063.64,-268.64 1068.48,-273.7"/>
</g>
<!-- Node12 -->
<g id="node12" class="node">
<title>Node12</title>
<g id="a_node12"><a xlink:href="wait__for__subprocess_8c.html#a885766ba6ba593b7cf27b917dd52b1a6" target="_top" xlink:title=" ">
<polygon fill="white" stroke="#666666" points="1302,-264 1179,-264 1179,-245 1302,-245 1302,-264"/>
<text text-anchor="middle" x="1240.5" y="-252" font-family="Helvetica,sans-Serif" font-size="10.00">print_signal_message</text>
</a>
</g>
</g>
<!-- Node11&#45;&gt;Node12 -->
<g id="edge12" class="edge">
<title>Node11&#45;&gt;Node12</title>
<path fill="none" stroke="#63b8ff" d="M1142.84,-254.5C1151.26,-254.5 1160.02,-254.5 1168.67,-254.5"/>
<polygon fill="#63b8ff" stroke="#63b8ff" points="1168.76,-258 1178.76,-254.5 1168.76,-251 1168.76,-258"/>
</g>
<!-- Node14 -->
<g id="node14" class="node">
<title>Node14</title>
<g id="a_node14"><a xlink:href="get__variable__value_8c.html#a2edd9900f19af236aa05385a789be3d6" target="_top" xlink:title=" ">
<polygon fill="white" stroke="#666666" points="671,-340 561,-340 561,-321 671,-321 671,-340"/>
<text text-anchor="middle" x="616" y="-328" font-family="Helvetica,sans-Serif" font-size="10.00">get_variable_value</text>
</a>
</g>
</g>
<!-- Node13&#45;&gt;Node14 -->
<g id="edge15" class="edge">
<title>Node13&#45;&gt;Node14</title>
<path fill="none" stroke="#63b8ff" d="M524.76,-340.83C533.29,-339.85 542.11,-338.84 550.75,-337.85"/>
<polygon fill="#63b8ff" stroke="#63b8ff" points="551.24,-341.32 560.78,-336.71 550.45,-334.37 551.24,-341.32"/>
</g>
<!-- Node16 -->
<g id="node16" class="node">
<title>Node16</title>
<g id="a_node16"><a xlink:href="execute__cmd_8c.html#aee9e13edede9df28fac066f30e7ae7ed" target="_top" xlink:title=" ">
<polygon fill="white" stroke="#666666" points="658,-377 574,-377 574,-358 658,-358 658,-377"/>
<text text-anchor="middle" x="616" y="-365" font-family="Helvetica,sans-Serif" font-size="10.00">try_command</text>
</a>
</g>
</g>
<!-- Node13&#45;&gt;Node16 -->
<g id="edge17" class="edge">
<title>Node13&#45;&gt;Node16</title>
<path fill="none" stroke="#63b8ff" d="M524.76,-355.35C537.59,-357.07 551.08,-358.89 563.61,-360.58"/>
<polygon fill="#63b8ff" stroke="#63b8ff" points="563.49,-364.09 573.87,-361.96 564.43,-357.16 563.49,-364.09"/>
</g>
<!-- Node15 -->
<g id="node15" class="node">
<title>Node15</title>
<g id="a_node15"><a xlink:href="get__variable_8c.html#a569170390f0edf013bf89c26ef55ea8c" target="_top" xlink:title=" ">
<polygon fill="white" stroke="#666666" points="814,-340 737,-340 737,-321 814,-321 814,-340"/>
<text text-anchor="middle" x="775.5" y="-328" font-family="Helvetica,sans-Serif" font-size="10.00">get_variable</text>
</a>
</g>
</g>
<!-- Node14&#45;&gt;Node15 -->
<g id="edge16" class="edge">
<title>Node14&#45;&gt;Node15</title>
<path fill="none" stroke="#63b8ff" d="M671.2,-330.5C689.04,-330.5 708.73,-330.5 726.11,-330.5"/>
<polygon fill="#63b8ff" stroke="#63b8ff" points="726.58,-334 736.58,-330.5 726.58,-327 726.58,-334"/>
</g>
<!-- Node16&#45;&gt;Node5 -->
<g id="edge18" class="edge">
<title>Node16&#45;&gt;Node5</title>
<path fill="none" stroke="#63b8ff" d="M657.56,-377.03C677.78,-381.78 702.44,-387.57 723.88,-392.61"/>
<polygon fill="#63b8ff" stroke="#63b8ff" points="723.27,-396.06 733.8,-394.94 724.87,-389.25 723.27,-396.06"/>
</g>
<!-- Node17 -->
<g id="node17" class="node">
<title>Node17</title>
<g id="a_node17"><a xlink:href="execute__cmd_8c.html#a7edf8a207e2b427102f54a379bd13546" target="_top" xlink:title=" ">
<polygon fill="white" stroke="#666666" points="844,-377 707,-377 707,-358 844,-358 844,-377"/>
<text text-anchor="middle" x="775.5" y="-365" font-family="Helvetica,sans-Serif" font-size="10.00">print_permission_denied</text>
</a>
</g>
</g>
<!-- Node16&#45;&gt;Node17 -->
<g id="edge19" class="edge">
<title>Node16&#45;&gt;Node17</title>
<path fill="none" stroke="#63b8ff" d="M658.38,-367.5C670.22,-367.5 683.52,-367.5 696.79,-367.5"/>
<polygon fill="#63b8ff" stroke="#63b8ff" points="696.9,-371 706.9,-367.5 696.9,-364 696.9,-371"/>
</g>
<!-- Node17&#45;&gt;Node18 -->
<g id="edge20" class="edge">
<title>Node17&#45;&gt;Node18</title>
<path fill="none" stroke="#63b8ff" d="M816.42,-357.91C825.56,-355.42 835.18,-352.57 844,-349.5 864.9,-342.23 887.77,-332.29 905.22,-324.27"/>
<polygon fill="#63b8ff" stroke="#63b8ff" points="906.73,-327.43 914.32,-320.04 903.78,-321.08 906.73,-327.43"/>
</g>
<!-- Node19&#45;&gt;Node2 -->
<g id="edge24" class="edge">
<title>Node19&#45;&gt;Node2</title>
<path fill="none" stroke="#63b8ff" d="M263.47,-301.84C263.31,-301.72 263.16,-301.61 263,-301.5 232.21,-279.31 208.41,-240.32 197.32,-216.59"/>
<polygon fill="#63b8ff" stroke="#63b8ff" points="200.43,-214.96 193.26,-207.16 194,-217.73 200.43,-214.96"/>
</g>
<!-- Node20&#45;&gt;Node11 -->
<g id="edge34" class="edge">
<title>Node20&#45;&gt;Node11</title>
<path fill="none" stroke="#63b8ff" d="M357.44,-123.5C414.54,-123.5 522.81,-123.5 615,-123.5 615,-123.5 615,-123.5 776.5,-123.5 892.73,-123.5 1015.28,-203.92 1062.9,-238.74"/>
<polygon fill="#63b8ff" stroke="#63b8ff" points="1061.04,-241.71 1071.16,-244.87 1065.22,-236.09 1061.04,-241.71"/>
</g>
<!-- Node21 -->
<g id="node21" class="node">
<title>Node21</title>
<g id="a_node21"><a xlink:href="execute__pipe_8c.html#a723ff799f939872d17f109a82342294e" target="_top" xlink:title=" ">
<polygon fill="white" stroke="#666666" points="647,-171 585,-171 585,-152 647,-152 647,-171"/>
<text text-anchor="middle" x="616" y="-159" font-family="Helvetica,sans-Serif" font-size="10.00">close_fds</text>
</a>
</g>
</g>
<!-- Node20&#45;&gt;Node21 -->
<g id="edge26" class="edge">
<title>Node20&#45;&gt;Node21</title>
<path fill="none" stroke="#63b8ff" d="M357.1,-130.13C372.36,-132.59 389.97,-135.31 406,-137.5 464.55,-145.49 532.57,-152.97 574.71,-157.39"/>
<polygon fill="#63b8ff" stroke="#63b8ff" points="574.53,-160.89 584.84,-158.44 575.26,-153.93 574.53,-160.89"/>
</g>
<!-- Node22 -->
<g id="node22" class="node">
<title>Node22</title>
<g id="a_node22"><a xlink:href="execute__pipe_8c.html#ac529ffc2370b0133613ef8a81e58ed85" target="_top" xlink:title=" ">
<polygon fill="white" stroke="#666666" points="516.5,-209 414.5,-209 414.5,-190 516.5,-190 516.5,-209"/>
<text text-anchor="middle" x="465.5" y="-197" font-family="Helvetica,sans-Serif" font-size="10.00">execute_pipe_left</text>
</a>
</g>
</g>
<!-- Node20&#45;&gt;Node22 -->
<g id="edge27" class="edge">
<title>Node20&#45;&gt;Node22</title>
<path fill="none" stroke="#63b8ff" d="M352.34,-133.09C358.43,-135.42 364.56,-138.21 370,-141.5 388.84,-152.88 387.51,-163.57 406,-175.5 412.15,-179.47 419.07,-183 425.93,-186.05"/>
<polygon fill="#63b8ff" stroke="#63b8ff" points="424.61,-189.29 435.19,-189.91 427.3,-182.83 424.61,-189.29"/>
</g>
<!-- Node23 -->
<g id="node23" class="node">
<title>Node23</title>
<g id="a_node23"><a xlink:href="execute__pipe_8c.html#a9ed6eabb8a9f7049f91265a5f45e30c8" target="_top" xlink:title=" ">
<polygon fill="white" stroke="#666666" points="520,-95 411,-95 411,-76 520,-76 520,-95"/>
<text text-anchor="middle" x="465.5" y="-83" font-family="Helvetica,sans-Serif" font-size="10.00">execute_pipe_right</text>
</a>
</g>
</g>
<!-- Node20&#45;&gt;Node23 -->
<g id="edge30" class="edge">
<title>Node20&#45;&gt;Node23</title>
<path fill="none" stroke="#63b8ff" d="M354.59,-113.91C373.82,-108.94 397.49,-102.82 417.93,-97.54"/>
<polygon fill="#63b8ff" stroke="#63b8ff" points="418.87,-100.91 427.67,-95.02 417.11,-94.13 418.87,-100.91"/>
</g>
<!-- Node22&#45;&gt;Node2 -->
<g id="edge29" class="edge">
<title>Node22&#45;&gt;Node2</title>
<path fill="none" stroke="#63b8ff" d="M420.96,-209C405.02,-212.04 386.77,-215 370,-216.5 322.63,-220.73 310.17,-222.58 263,-216.5 252.05,-215.09 240.39,-212.52 229.69,-209.73"/>
<polygon fill="#63b8ff" stroke="#63b8ff" points="230.36,-206.28 219.79,-207 228.51,-213.03 230.36,-206.28"/>
</g>
<!-- Node22&#45;&gt;Node21 -->
<g id="edge28" class="edge">
<title>Node22&#45;&gt;Node21</title>
<path fill="none" stroke="#63b8ff" d="M503.97,-189.91C525.58,-184.38 552.75,-177.43 574.8,-171.79"/>
<polygon fill="#63b8ff" stroke="#63b8ff" points="575.71,-175.17 584.53,-169.3 573.98,-168.38 575.71,-175.17"/>
</g>
<!-- Node23&#45;&gt;Node2 -->
<g id="edge32" class="edge">
<title>Node23&#45;&gt;Node2</title>
<path fill="none" stroke="#63b8ff" d="M410.65,-79.4C368.01,-77.1 308.3,-79.68 263,-104.5 232.49,-121.22 210.53,-156.74 199.22,-178.72"/>
<polygon fill="#63b8ff" stroke="#63b8ff" points="196.05,-177.23 194.78,-187.75 202.33,-180.32 196.05,-177.23"/>
</g>
<!-- Node23&#45;&gt;Node21 -->
<g id="edge31" class="edge">
<title>Node23&#45;&gt;Node21</title>
<path fill="none" stroke="#63b8ff" d="M485.31,-95.13C511.08,-108.32 557.57,-132.11 587.32,-147.33"/>
<polygon fill="#63b8ff" stroke="#63b8ff" points="585.85,-150.51 596.35,-151.95 589.04,-144.28 585.85,-150.51"/>
</g>
<!-- Node24 -->
<g id="node24" class="node">
<title>Node24</title>
<g id="a_node24"><a xlink:href="execute__pipe_8c.html#ac3d3a124b262676fa0679720f99a7f83" target="_top" xlink:title=" ">
<polygon fill="white" stroke="#666666" points="656,-95 576,-95 576,-76 656,-76 656,-95"/>
<text text-anchor="middle" x="616" y="-83" font-family="Helvetica,sans-Serif" font-size="10.00">restore_stdin</text>
</a>
</g>
</g>
<!-- Node23&#45;&gt;Node24 -->
<g id="edge33" class="edge">
<title>Node23&#45;&gt;Node24</title>
<path fill="none" stroke="#63b8ff" d="M520.11,-85.5C534.95,-85.5 550.99,-85.5 565.58,-85.5"/>
<polygon fill="#63b8ff" stroke="#63b8ff" points="565.91,-89 575.91,-85.5 565.91,-82 565.91,-89"/>
</g>
<!-- Node26 -->
<g id="node26" class="node">
<title>Node26</title>
<g id="a_node26"><a xlink:href="execute__redirect_8c.html#a5aa0f008806cc0e8a7ba252d61b7001f" target="_top" xlink:title=" ">
<polygon fill="white" stroke="#666666" points="519,-39 412,-39 412,-20 519,-20 519,-39"/>
<text text-anchor="middle" x="465.5" y="-27" font-family="Helvetica,sans-Serif" font-size="10.00">redirect_execution</text>
</a>
</g>
</g>
<!-- Node25&#45;&gt;Node26 -->
<g id="edge36" class="edge">
<title>Node25&#45;&gt;Node26</title>
<path fill="none" stroke="#63b8ff" d="M365.63,-16.05C377.21,-17.62 389.75,-19.33 401.88,-20.98"/>
<polygon fill="#63b8ff" stroke="#63b8ff" points="401.56,-24.47 411.95,-22.35 402.51,-17.53 401.56,-24.47"/>
</g>
<!-- Node26&#45;&gt;Node2 -->
<g id="edge37" class="edge">
<title>Node26&#45;&gt;Node2</title>
<path fill="none" stroke="#63b8ff" d="M411.85,-30.33C368.21,-33.46 306.51,-43.81 263,-75.5 227.31,-101.5 206.06,-150.88 196.52,-178.17"/>
<polygon fill="#63b8ff" stroke="#63b8ff" points="193.17,-177.17 193.34,-187.76 199.81,-179.38 193.17,-177.17"/>
</g>
<!-- Node27 -->
<g id="node27" class="node">
<title>Node27</title>
<g id="a_node27"><a xlink:href="execute__redirect_8c.html#a1b8f325fc375581f81ae47a54e09cf0e" target="_top" xlink:title=" ">
<polygon fill="white" stroke="#666666" points="649,-58 583,-58 583,-39 649,-39 649,-58"/>
<text text-anchor="middle" x="616" y="-46" font-family="Helvetica,sans-Serif" font-size="10.00">restore_fd</text>
</a>
</g>
</g>
<!-- Node26&#45;&gt;Node27 -->
<g id="edge38" class="edge">
<title>Node26&#45;&gt;Node27</title>
<path fill="none" stroke="#63b8ff" d="M519.27,-36.25C536.81,-38.5 556.09,-40.96 572.73,-43.09"/>
<polygon fill="#63b8ff" stroke="#63b8ff" points="572.34,-46.57 582.71,-44.37 573.23,-39.63 572.34,-46.57"/>
</g>
<!-- Node28 -->
<g id="node28" class="node">
<title>Node28</title>
<g id="a_node28"><a xlink:href="execute__redirect_8c.html#a6cb002bd51f2009eaacc66d388c5f9a7" target="_top" xlink:title=" ">
<polygon fill="white" stroke="#666666" points="666.5,-21 565.5,-21 565.5,-2 666.5,-2 666.5,-21"/>
<text text-anchor="middle" x="616" y="-9" font-family="Helvetica,sans-Serif" font-size="10.00">setup_redirection</text>
</a>
</g>
</g>
<!-- Node26&#45;&gt;Node28 -->
<g id="edge39" class="edge">
<title>Node26&#45;&gt;Node28</title>
<path fill="none" stroke="#63b8ff" d="M519.27,-23.1C530.88,-21.7 543.25,-20.2 555.12,-18.76"/>
<polygon fill="#63b8ff" stroke="#63b8ff" points="555.87,-22.19 565.38,-17.51 555.03,-15.24 555.87,-22.19"/>
</g>
<!-- Node29 -->
<g id="node29" class="node">
<title>Node29</title>
<g id="a_node29"><a xlink:href="execute__redirect_8c.html#a0e31af51537a8c047a3aca7cdb63d5dd" target="_top" xlink:title=" ">
<polygon fill="white" stroke="#666666" points="824.5,-21 726.5,-21 726.5,-2 824.5,-2 824.5,-21"/>
<text text-anchor="middle" x="775.5" y="-9" font-family="Helvetica,sans-Serif" font-size="10.00">open_redirect_fd</text>
</a>
</g>
</g>
<!-- Node28&#45;&gt;Node29 -->
<g id="edge40" class="edge">
<title>Node28&#45;&gt;Node29</title>
<path fill="none" stroke="#63b8ff" d="M666.83,-11.5C682.43,-11.5 699.79,-11.5 715.93,-11.5"/>
<polygon fill="#63b8ff" stroke="#63b8ff" points="716.34,-15 726.34,-11.5 716.34,-8 716.34,-15"/>
</g>
<!-- Node30 -->
<g id="node30" class="node">
<title>Node30</title>
<g id="a_node30"><a xlink:href="execute__redirect_8c.html#a71feea783167b3804f2793a232ca74b4" target="_top" xlink:title=" ">
<polygon fill="white" stroke="#666666" points="970.5,-21 899.5,-21 899.5,-2 970.5,-2 970.5,-21"/>
<text text-anchor="middle" x="935" y="-9" font-family="Helvetica,sans-Serif" font-size="10.00">heredoc_fd</text>
</a>
</g>
</g>
<!-- Node29&#45;&gt;Node30 -->
<g id="edge41" class="edge">
<title>Node29&#45;&gt;Node30</title>
<path fill="none" stroke="#63b8ff" d="M824.61,-11.5C845.1,-11.5 868.87,-11.5 889.01,-11.5"/>
<polygon fill="#63b8ff" stroke="#63b8ff" points="889.17,-15 899.17,-11.5 889.17,-8 889.17,-15"/>
</g>
<!-- Node31 -->
<g id="node31" class="node">
<title>Node31</title>
<g id="a_node31"><a xlink:href="execute__redirect_8c.html#a639d0a6f315a3bae78d204ff798e314f" target="_top" xlink:title=" ">
<polygon fill="white" stroke="#666666" points="1138,-21 1031,-21 1031,-2 1138,-2 1138,-21"/>
<text text-anchor="middle" x="1084.5" y="-9" font-family="Helvetica,sans-Serif" font-size="10.00">get_heredoc_input</text>
</a>
</g>
</g>
<!-- Node30&#45;&gt;Node31 -->
<g id="edge42" class="edge">
<title>Node30&#45;&gt;Node31</title>
<path fill="none" stroke="#63b8ff" d="M970.58,-11.5C985.6,-11.5 1003.67,-11.5 1020.91,-11.5"/>
<polygon fill="#63b8ff" stroke="#63b8ff" points="1020.94,-15 1030.94,-11.5 1020.94,-8 1020.94,-15"/>
</g>
<!-- Node32 -->
<g id="node32" class="node">
<title>Node32</title>
<g id="a_node32"><a xlink:href="execute__redirect_8c.html#a4e396606481bc13335d3dfae7ff15407" target="_top" xlink:title=" ">
<polygon fill="white" stroke="#666666" points="1291.5,-21 1189.5,-21 1189.5,-2 1291.5,-2 1291.5,-21"/>
<text text-anchor="middle" x="1240.5" y="-9" font-family="Helvetica,sans-Serif" font-size="10.00">is_heredoc_delim</text>
</a>
</g>
</g>
<!-- Node31&#45;&gt;Node32 -->
<g id="edge43" class="edge">
<title>Node31&#45;&gt;Node32</title>
<path fill="none" stroke="#63b8ff" d="M1138.07,-11.5C1151.26,-11.5 1165.52,-11.5 1179.06,-11.5"/>
<polygon fill="#63b8ff" stroke="#63b8ff" points="1179.25,-15 1189.25,-11.5 1179.25,-8 1179.25,-15"/>
</g>
<!-- Node33&#45;&gt;Node2 -->
<g id="edge45" class="edge">
<title>Node33&#45;&gt;Node2</title>
<path fill="none" stroke="#63b8ff" d="M270.07,-204.02C259.43,-204.31 248.06,-204.33 237.35,-204.06"/>
<polygon fill="#63b8ff" stroke="#63b8ff" points="237.44,-200.56 227.33,-203.72 237.2,-207.56 237.44,-200.56"/>
</g>
<!-- Node34&#45;&gt;Node2 -->
<g id="edge47" class="edge">
<title>Node34&#45;&gt;Node2</title>
<path fill="none" stroke="#63b8ff" d="M299.01,-170.13C283.26,-176.55 258.79,-184.39 237.07,-190.27"/>
<polygon fill="#63b8ff" stroke="#63b8ff" points="236.12,-186.9 227.33,-192.81 237.89,-193.67 236.12,-186.9"/>
</g>
<!-- Node35&#45;&gt;Node2 -->
<g id="edge49" class="edge">
<title>Node35&#45;&gt;Node2</title>
<path fill="none" stroke="#63b8ff" d="M273.02,-263.92C269.58,-262.18 266.21,-260.36 263,-258.5 241.05,-245.77 217.5,-228.03 203.39,-214.56"/>
<polygon fill="#63b8ff" stroke="#63b8ff" points="205.72,-211.94 196.25,-207.18 200.69,-216.8 205.72,-211.94"/>
</g>
<!-- Node35&#45;&gt;Node11 -->
<g id="edge50" class="edge">
<title>Node35&#45;&gt;Node11</title>
<path fill="none" stroke="#63b8ff" d="M367.18,-268.38C426.2,-262.76 527.66,-254.5 615,-254.5 615,-254.5 615,-254.5 776.5,-254.5 859.05,-254.5 954.08,-254.5 1016.28,-254.5"/>
<polygon fill="#63b8ff" stroke="#63b8ff" points="1016.35,-258 1026.35,-254.5 1016.35,-251 1016.35,-258"/>
</g>
</g>
</svg>
        <g id="navigator" transform="translate(0 0)" fill="#404254">
                <rect fill="#f2f5e9" fill-opacity="0.5" stroke="#606060" stroke-width=".5" x="0" y="0" width="60" height="60"/>
                <use id="zoomplus" xlink:href="#zoomPlus" x="17" y="9" onmousedown="handleZoom(evt,'in')"/>
                <use id="zoomminus" xlink:href="#zoomMin" x="42" y="9" onmousedown="handleZoom(evt,'out')"/>
                <use id="reset" xlink:href="#resetDef" x="30" y="36" onmousedown="handleReset()"/>
                <g id="arrowUp" xlink:href="#dirArrow" transform="translate(30 24)" onmousedown="handlePan(0,-1)">
                  <use xlink:href="#rim" fill="#404040">
                        <set attributeName="fill" to="#808080" begin="arrowUp.mouseover" end="arrowUp.mouseout"/>
                  </use>
                  <path fill="none" stroke="white" stroke-width="1.5" d="M0,-3.0v7 M-2.5,-0.5L0,-3.0L2.5,-0.5"/>
                </g>
                <g id="arrowRight" xlink:href="#dirArrow" transform="rotate(90) translate(36 -43)" onmousedown="handlePan(1,0)">
                  <use xlink:href="#rim" fill="#404040">
                        <set attributeName="fill" to="#808080" begin="arrowRight.mouseover" end="arrowRight.mouseout"/>
                  </use>
                  <path fill="none" stroke="white" stroke-width="1.5" d="M0,-3.0v7 M-2.5,-0.5L0,-3.0L2.5,-0.5"/>
                </g>
                <g id="arrowDown" xlink:href="#dirArrow" transform="rotate(180) translate(-30 -48)" onmousedown="handlePan(0,1)">
                  <use xlink:href="#rim" fill="#404040">
                        <set attributeName="fill" to="#808080" begin="arrowDown.mouseover" end="arrowDown.mouseout"/>
                  </use>
                  <path fill="none" stroke="white" stroke-width="1.5" d="M0,-3.0v7 M-2.5,-0.5L0,-3.0L2.5,-0.5"/>
                </g>
                <g id="arrowLeft" xlink:href="#dirArrow" transform="rotate(270) translate(-36 17)" onmousedown="handlePan(-1,0)">
                  <use xlink:href="#rim" fill="#404040">
                        <set attributeName="fill" to="#808080" begin="arrowLeft.mouseover" end="arrowLeft.mouseout"/>
                  </use>
                  <path fill="none" stroke="white" stroke-width="1.5" d="M0,-3.0v7 M-2.5,-0.5L0,-3.0L2.5,-0.5"/>
                </g>
        </g>
        <svg viewBox="0 0 15 15" width="100%" height="30px" preserveAspectRatio="xMaxYMin meet">
         <g id="arrow_out" transform="scale(0.3 0.3)">
          <a xlink:href="execute__logical__and_8c_a4f940752faf9f9a258c49810b21efe47_cgraph_org.svg" target="_base">
           <rect id="button" ry="5" rx="5" y="6" x="6" height="38" width="38"
                fill="#f2f5e9" fill-opacity="0.5" stroke="#606060" stroke-width="1.0"/>
           <path id="arrow"
             d="M 11.500037,31.436501 C 11.940474,20.09759 22.043105,11.32322 32.158766,21.979434 L 37.068811,17.246167 C 37.068811,17.246167 37.088388,32 37.088388,32 L 22.160133,31.978069 C 22.160133,31.978069 26.997745,27.140456 26.997745,27.140456 C 18.528582,18.264221 13.291696,25.230495 11.500037,31.436501 z"
             style="fill:#404040;"/>
          </a>
         </g>
        </svg>
</svg>
