<?xml version="1.0" encoding="UTF-8" standalone="no"?>
<!DOCTYPE svg PUBLIC "-//W3C//DTD SVG 1.1//EN"
 "http://www.w3.org/Graphics/SVG/1.1/DTD/svg11.dtd">
<!-- Generated by graphviz version 2.43.0 (0)
 -->
<!-- Title: src/executer/execute_command_substitution.c Pages: 1 -->
<!--zoomable 258 -->
<svg id="main" version="1.1" xmlns="http://www.w3.org/2000/svg" xmlns:xlink="http://www.w3.org/1999/xlink" xml:space="preserve" onload="init(evt)">
<style type="text/css"><![CDATA[
.edge:hover path { stroke: red; }
.edge:hover polygon { stroke: red; fill: red; }
]]></style>
<script type="text/javascript"><![CDATA[
var edges = document.getElementsByTagName('g');
if (edges && edges.length) {
  for (var i=0;i<edges.length;i++) {
    if (edges[i].id.substr(0,4)=='edge') {
      edges[i].setAttribute('class','edge');
    }
  }
}
]]></script>
        <defs>
                <circle id="rim" cx="0" cy="0" r="7"/>
                <circle id="rim2" cx="0" cy="0" r="3.5"/>
                <g id="zoomPlus">
                        <use xlink:href="#rim" fill="#404040">
                                <set attributeName="fill" to="#808080" begin="zoomplus.mouseover" end="zoomplus.mouseout"/>
                        </use>
                        <path d="M-4,0h8M0,-4v8" fill="none" stroke="white" stroke-width="1.5" pointer-events="none"/>
                </g>
                <g id="zoomMin">
                        <use xlink:href="#rim" fill="#404040">
                                <set attributeName="fill" to="#808080" begin="zoomminus.mouseover" end="zoomminus.mouseout"/>
                        </use>
                        <path d="M-4,0h8" fill="none" stroke="white" stroke-width="1.5" pointer-events="none"/>
                </g>
                <g id="dirArrow">
                        <path fill="none" stroke="white" stroke-width="1.5" d="M0,-3.0v7 M-2.5,-0.5L0,-3.0L2.5,-0.5"/>
                </g>
               <g id="resetDef">
                       <use xlink:href="#rim2" fill="#404040">
                               <set attributeName="fill" to="#808080" begin="reset.mouseover" end="reset.mouseout"/>
                       </use>
               </g>
        </defs>

<script type="text/javascript">
var viewWidth = 702;
var viewHeight = 258;
var sectionId = 'dynsection-0';
</script>
<script xlink:href="svgpan.js"/>
<svg id="graph" class="graph">
<g id="viewport">
<title>src/executer/execute_command_substitution.c</title>
<!-- Node1 -->
<g id="node1" class="node">
<title>Node1</title>
<g id="a_node1"><a xlink:title=" ">
<polygon fill="#999999" stroke="#666666" points="431.5,-250 289.5,-250 289.5,-220 431.5,-220 431.5,-250"/>
<text text-anchor="start" x="297.5" y="-238" font-family="Helvetica,sans-Serif" font-size="10.00">src/executer/execute</text>
<text text-anchor="middle" x="360.5" y="-227" font-family="Helvetica,sans-Serif" font-size="10.00">_command_substitution.c</text>
</a>
</g>
</g>
<!-- Node2 -->
<g id="node2" class="node">
<title>Node2</title>
<g id="a_node2"><a xlink:title=" ">
<polygon fill="#e0e0e0" stroke="#999999" points="51,-184 0,-184 0,-165 51,-165 51,-184"/>
<text text-anchor="middle" x="25.5" y="-172" font-family="Helvetica,sans-Serif" font-size="10.00">errno.h</text>
</a>
</g>
</g>
<!-- Node1&#45;&gt;Node2 -->
<g id="edge1" class="edge">
<title>Node1&#45;&gt;Node2</title>
<path fill="none" stroke="#63b8ff" d="M289.31,-223.64C230.68,-214.75 145.17,-201.02 61.05,-183.98"/>
<polygon fill="#63b8ff" stroke="#63b8ff" points="61.56,-180.51 51.07,-181.94 60.16,-187.37 61.56,-180.51"/>
</g>
<!-- Node3 -->
<g id="node3" class="node">
<title>Node3</title>
<g id="a_node3"><a xlink:title=" ">
<polygon fill="#e0e0e0" stroke="#999999" points="119.5,-184 69.5,-184 69.5,-165 119.5,-165 119.5,-184"/>
<text text-anchor="middle" x="94.5" y="-172" font-family="Helvetica,sans-Serif" font-size="10.00">stdio.h</text>
</a>
</g>
</g>
<!-- Node1&#45;&gt;Node3 -->
<g id="edge2" class="edge">
<title>Node1&#45;&gt;Node3</title>
<path fill="none" stroke="#63b8ff" d="M292.61,-219.98C248.73,-210.77 190.15,-198.22 129.82,-184.25"/>
<polygon fill="#63b8ff" stroke="#63b8ff" points="130.26,-180.76 119.73,-181.9 128.68,-187.58 130.26,-180.76"/>
</g>
<!-- Node4 -->
<g id="node4" class="node">
<title>Node4</title>
<g id="a_node4"><a xlink:title=" ">
<polygon fill="#e0e0e0" stroke="#999999" points="191,-184 138,-184 138,-165 191,-165 191,-184"/>
<text text-anchor="middle" x="164.5" y="-172" font-family="Helvetica,sans-Serif" font-size="10.00">stdlib.h</text>
</a>
</g>
</g>
<!-- Node1&#45;&gt;Node4 -->
<g id="edge3" class="edge">
<title>Node1&#45;&gt;Node4</title>
<path fill="none" stroke="#63b8ff" d="M313.55,-219.99C279.01,-209.68 232.73,-195.87 200.95,-186.38"/>
<polygon fill="#63b8ff" stroke="#63b8ff" points="201.76,-182.97 191.18,-183.46 199.76,-189.68 201.76,-182.97"/>
</g>
<!-- Node5 -->
<g id="node5" class="node">
<title>Node5</title>
<g id="a_node5"><a xlink:title=" ">
<polygon fill="#e0e0e0" stroke="#999999" points="262,-184 209,-184 209,-165 262,-165 262,-184"/>
<text text-anchor="middle" x="235.5" y="-172" font-family="Helvetica,sans-Serif" font-size="10.00">string.h</text>
</a>
</g>
</g>
<!-- Node1&#45;&gt;Node5 -->
<g id="edge4" class="edge">
<title>Node1&#45;&gt;Node5</title>
<path fill="none" stroke="#63b8ff" d="M330.56,-219.99C310.08,-210.4 283.12,-197.79 263.15,-188.44"/>
<polygon fill="#63b8ff" stroke="#63b8ff" points="264.5,-185.21 253.96,-184.14 261.53,-191.55 264.5,-185.21"/>
</g>
<!-- Node6 -->
<g id="node6" class="node">
<title>Node6</title>
<g id="a_node6"><a xlink:title=" ">
<polygon fill="#e0e0e0" stroke="#999999" points="579.5,-129 507.5,-129 507.5,-110 579.5,-110 579.5,-129"/>
<text text-anchor="middle" x="543.5" y="-117" font-family="Helvetica,sans-Serif" font-size="10.00">sys/types.h</text>
</a>
</g>
</g>
<!-- Node1&#45;&gt;Node6 -->
<g id="edge5" class="edge">
<title>Node1&#45;&gt;Node6</title>
<path fill="none" stroke="#63b8ff" d="M431.66,-228.31C464.58,-222.11 501.78,-209.5 526.5,-184 538.03,-172.1 541.95,-153.28 543.18,-139.21"/>
<polygon fill="#63b8ff" stroke="#63b8ff" points="546.68,-139.33 543.69,-129.17 539.69,-138.98 546.68,-139.33"/>
</g>
<!-- Node7 -->
<g id="node7" class="node">
<title>Node7</title>
<g id="a_node7"><a xlink:title=" ">
<polygon fill="#e0e0e0" stroke="#999999" points="431.5,-184 375.5,-184 375.5,-165 431.5,-165 431.5,-184"/>
<text text-anchor="middle" x="403.5" y="-172" font-family="Helvetica,sans-Serif" font-size="10.00">unistd.h</text>
</a>
</g>
</g>
<!-- Node1&#45;&gt;Node7 -->
<g id="edge6" class="edge">
<title>Node1&#45;&gt;Node7</title>
<path fill="none" stroke="#63b8ff" d="M370.91,-219.84C376.96,-211.61 384.62,-201.18 391,-192.51"/>
<polygon fill="#63b8ff" stroke="#63b8ff" points="393.95,-194.4 397.06,-184.27 388.31,-190.25 393.95,-194.4"/>
</g>
<!-- Node8 -->
<g id="node8" class="node">
<title>Node8</title>
<g id="a_node8"><a xlink:href="misc_8h.html" target="_top" xlink:title=" ">
<polygon fill="white" stroke="#666666" points="517.5,-184 449.5,-184 449.5,-165 517.5,-165 517.5,-184"/>
<text text-anchor="middle" x="483.5" y="-172" font-family="Helvetica,sans-Serif" font-size="10.00">my/misc.h</text>
</a>
</g>
</g>
<!-- Node1&#45;&gt;Node8 -->
<g id="edge7" class="edge">
<title>Node1&#45;&gt;Node8</title>
<path fill="none" stroke="#63b8ff" d="M389.96,-219.99C410.12,-210.4 436.64,-197.79 456.3,-188.44"/>
<polygon fill="#63b8ff" stroke="#63b8ff" points="457.81,-191.6 465.34,-184.14 454.8,-185.27 457.81,-191.6"/>
</g>
<!-- Node9 -->
<g id="node9" class="node">
<title>Node9</title>
<g id="a_node9"><a xlink:href="strings_8h.html" target="_top" xlink:title=" ">
<polygon fill="white" stroke="#666666" points="357,-184 280,-184 280,-165 357,-165 357,-184"/>
<text text-anchor="middle" x="318.5" y="-172" font-family="Helvetica,sans-Serif" font-size="10.00">my/strings.h</text>
</a>
</g>
</g>
<!-- Node1&#45;&gt;Node9 -->
<g id="edge8" class="edge">
<title>Node1&#45;&gt;Node9</title>
<path fill="none" stroke="#63b8ff" d="M350.33,-219.84C344.42,-211.61 336.94,-201.18 330.71,-192.51"/>
<polygon fill="#63b8ff" stroke="#63b8ff" points="333.47,-190.35 324.79,-184.27 327.78,-194.43 333.47,-190.35"/>
</g>
<!-- Node11 -->
<g id="node11" class="node">
<title>Node11</title>
<g id="a_node11"><a xlink:href="executer_8h.html" target="_top" xlink:title=" ">
<polygon fill="white" stroke="#666666" points="641,-184 574,-184 574,-165 641,-165 641,-184"/>
<text text-anchor="middle" x="607.5" y="-172" font-family="Helvetica,sans-Serif" font-size="10.00">executer.h</text>
</a>
</g>
</g>
<!-- Node1&#45;&gt;Node11 -->
<g id="edge11" class="edge">
<title>Node1&#45;&gt;Node11</title>
<path fill="none" stroke="#63b8ff" d="M419.66,-219.99C464.13,-209.46 524.05,-195.27 564.13,-185.77"/>
<polygon fill="#63b8ff" stroke="#63b8ff" points="564.95,-189.17 573.88,-183.46 563.34,-182.36 564.95,-189.17"/>
</g>
<!-- Node13 -->
<g id="node13" class="node">
<title>Node13</title>
<g id="a_node13"><a xlink:href="shell_8h.html" target="_top" xlink:title=" ">
<polygon fill="white" stroke="#666666" points="689,-129 640,-129 640,-110 689,-110 689,-129"/>
<text text-anchor="middle" x="664.5" y="-117" font-family="Helvetica,sans-Serif" font-size="10.00">shell.h</text>
</a>
</g>
</g>
<!-- Node1&#45;&gt;Node13 -->
<g id="edge18" class="edge">
<title>Node1&#45;&gt;Node13</title>
<path fill="none" stroke="#63b8ff" d="M431.8,-230.64C507.34,-225.58 619.88,-213.24 650.5,-184 662.35,-172.68 665.27,-153.78 665.57,-139.53"/>
<polygon fill="#63b8ff" stroke="#63b8ff" points="669.06,-139.27 665.37,-129.34 662.06,-139.41 669.06,-139.27"/>
</g>
<!-- Node9&#45;&gt;Node6 -->
<g id="edge10" class="edge">
<title>Node9&#45;&gt;Node6</title>
<path fill="none" stroke="#63b8ff" d="M354.65,-164.98C393.52,-155.83 455.42,-141.25 497.68,-131.29"/>
<polygon fill="#63b8ff" stroke="#63b8ff" points="498.51,-134.69 507.44,-128.99 496.9,-127.88 498.51,-134.69"/>
</g>
<!-- Node10 -->
<g id="node10" class="node">
<title>Node10</title>
<g id="a_node10"><a xlink:title=" ">
<polygon fill="#e0e0e0" stroke="#999999" points="624.5,-19 568.5,-19 568.5,0 624.5,0 624.5,-19"/>
<text text-anchor="middle" x="596.5" y="-7" font-family="Helvetica,sans-Serif" font-size="10.00">stddef.h</text>
</a>
</g>
</g>
<!-- Node9&#45;&gt;Node10 -->
<g id="edge9" class="edge">
<title>Node9&#45;&gt;Node10</title>
<path fill="none" stroke="#63b8ff" d="M333.06,-164.97C378.36,-138.4 517.17,-57.01 572.94,-24.31"/>
<polygon fill="#63b8ff" stroke="#63b8ff" points="574.9,-27.22 581.75,-19.15 571.36,-21.19 574.9,-27.22"/>
</g>
<!-- Node11&#45;&gt;Node6 -->
<g id="edge17" class="edge">
<title>Node11&#45;&gt;Node6</title>
<path fill="none" stroke="#63b8ff" d="M597.22,-164.98C587.66,-157.07 573.22,-145.11 561.72,-135.58"/>
<polygon fill="#63b8ff" stroke="#63b8ff" points="563.9,-132.85 553.97,-129.17 559.44,-138.24 563.9,-132.85"/>
</g>
<!-- Node12 -->
<g id="node12" class="node">
<title>Node12</title>
<g id="a_node12"><a xlink:href="ast_8h.html" target="_top" xlink:title=" ">
<polygon fill="white" stroke="#666666" points="617,-74 576,-74 576,-55 617,-55 617,-74"/>
<text text-anchor="middle" x="596.5" y="-62" font-family="Helvetica,sans-Serif" font-size="10.00">ast.h</text>
</a>
</g>
</g>
<!-- Node11&#45;&gt;Node12 -->
<g id="edge12" class="edge">
<title>Node11&#45;&gt;Node12</title>
<path fill="none" stroke="#63b8ff" d="M606.6,-164.66C604.82,-147.17 600.81,-107.8 598.41,-84.27"/>
<polygon fill="#63b8ff" stroke="#63b8ff" points="601.88,-83.75 597.38,-74.16 594.91,-84.46 601.88,-83.75"/>
</g>
<!-- Node11&#45;&gt;Node13 -->
<g id="edge14" class="edge">
<title>Node11&#45;&gt;Node13</title>
<path fill="none" stroke="#63b8ff" d="M616.66,-164.98C625,-157.23 637.53,-145.58 647.68,-136.14"/>
<polygon fill="#63b8ff" stroke="#63b8ff" points="650.24,-138.54 655.18,-129.17 645.47,-133.42 650.24,-138.54"/>
</g>
<!-- Node12&#45;&gt;Node10 -->
<g id="edge13" class="edge">
<title>Node12&#45;&gt;Node10</title>
<path fill="none" stroke="#63b8ff" d="M596.5,-54.75C596.5,-47.8 596.5,-37.85 596.5,-29.13"/>
<polygon fill="#63b8ff" stroke="#63b8ff" points="600,-29.09 596.5,-19.09 593,-29.09 600,-29.09"/>
</g>
<!-- Node14 -->
<g id="node14" class="node">
<title>Node14</title>
<g id="a_node14"><a xlink:href="list_8h.html" target="_top" xlink:title=" ">
<polygon fill="white" stroke="#666666" points="694,-74 635,-74 635,-55 694,-55 694,-74"/>
<text text-anchor="middle" x="664.5" y="-62" font-family="Helvetica,sans-Serif" font-size="10.00">my/list.h</text>
</a>
</g>
</g>
<!-- Node13&#45;&gt;Node14 -->
<g id="edge15" class="edge">
<title>Node13&#45;&gt;Node14</title>
<path fill="none" stroke="#63b8ff" d="M664.5,-109.75C664.5,-102.8 664.5,-92.85 664.5,-84.13"/>
<polygon fill="#63b8ff" stroke="#63b8ff" points="668,-84.09 664.5,-74.09 661,-84.09 668,-84.09"/>
</g>
<!-- Node14&#45;&gt;Node10 -->
<g id="edge16" class="edge">
<title>Node14&#45;&gt;Node10</title>
<path fill="none" stroke="#63b8ff" d="M653.57,-54.98C643.42,-47.07 628.08,-35.11 615.85,-25.58"/>
<polygon fill="#63b8ff" stroke="#63b8ff" points="617.66,-22.56 607.62,-19.17 613.36,-28.08 617.66,-22.56"/>
</g>
</g>
</svg>
        <g id="navigator" transform="translate(0 0)" fill="#404254">
                <rect fill="#f2f5e9" fill-opacity="0.5" stroke="#606060" stroke-width=".5" x="0" y="0" width="60" height="60"/>
                <use id="zoomplus" xlink:href="#zoomPlus" x="17" y="9" onmousedown="handleZoom(evt,'in')"/>
                <use id="zoomminus" xlink:href="#zoomMin" x="42" y="9" onmousedown="handleZoom(evt,'out')"/>
                <use id="reset" xlink:href="#resetDef" x="30" y="36" onmousedown="handleReset()"/>
                <g id="arrowUp" xlink:href="#dirArrow" transform="translate(30 24)" onmousedown="handlePan(0,-1)">
                  <use xlink:href="#rim" fill="#404040">
                        <set attributeName="fill" to="#808080" begin="arrowUp.mouseover" end="arrowUp.mouseout"/>
                  </use>
                  <path fill="none" stroke="white" stroke-width="1.5" d="M0,-3.0v7 M-2.5,-0.5L0,-3.0L2.5,-0.5"/>
                </g>
                <g id="arrowRight" xlink:href="#dirArrow" transform="rotate(90) translate(36 -43)" onmousedown="handlePan(1,0)">
                  <use xlink:href="#rim" fill="#404040">
                        <set attributeName="fill" to="#808080" begin="arrowRight.mouseover" end="arrowRight.mouseout"/>
                  </use>
                  <path fill="none" stroke="white" stroke-width="1.5" d="M0,-3.0v7 M-2.5,-0.5L0,-3.0L2.5,-0.5"/>
                </g>
                <g id="arrowDown" xlink:href="#dirArrow" transform="rotate(180) translate(-30 -48)" onmousedown="handlePan(0,1)">
                  <use xlink:href="#rim" fill="#404040">
                        <set attributeName="fill" to="#808080" begin="arrowDown.mouseover" end="arrowDown.mouseout"/>
                  </use>
                  <path fill="none" stroke="white" stroke-width="1.5" d="M0,-3.0v7 M-2.5,-0.5L0,-3.0L2.5,-0.5"/>
                </g>
                <g id="arrowLeft" xlink:href="#dirArrow" transform="rotate(270) translate(-36 17)" onmousedown="handlePan(-1,0)">
                  <use xlink:href="#rim" fill="#404040">
                        <set attributeName="fill" to="#808080" begin="arrowLeft.mouseover" end="arrowLeft.mouseout"/>
                  </use>
                  <path fill="none" stroke="white" stroke-width="1.5" d="M0,-3.0v7 M-2.5,-0.5L0,-3.0L2.5,-0.5"/>
                </g>
        </g>
        <svg viewBox="0 0 15 15" width="100%" height="30px" preserveAspectRatio="xMaxYMin meet">
         <g id="arrow_out" transform="scale(0.3 0.3)">
          <a xlink:href="execute__command__substitution_8c__incl_org.svg" target="_base">
           <rect id="button" ry="5" rx="5" y="6" x="6" height="38" width="38"
                fill="#f2f5e9" fill-opacity="0.5" stroke="#606060" stroke-width="1.0"/>
           <path id="arrow"
             d="M 11.500037,31.436501 C 11.940474,20.09759 22.043105,11.32322 32.158766,21.979434 L 37.068811,17.246167 C 37.068811,17.246167 37.088388,32 37.088388,32 L 22.160133,31.978069 C 22.160133,31.978069 26.997745,27.140456 26.997745,27.140456 C 18.528582,18.264221 13.291696,25.230495 11.500037,31.436501 z"
             style="fill:#404040;"/>
          </a>
         </g>
        </svg>
</svg>
