<?xml version="1.0" encoding="UTF-8" standalone="no"?>
<!DOCTYPE svg PUBLIC "-//W3C//DTD SVG 1.1//EN"
 "http://www.w3.org/Graphics/SVG/1.1/DTD/svg11.dtd">
<!-- Generated by graphviz version 2.43.0 (0)
 -->
<!-- Title: execute_pipe Pages: 1 -->
<!--zoomable 348 -->
<svg id="main" version="1.1" xmlns="http://www.w3.org/2000/svg" xmlns:xlink="http://www.w3.org/1999/xlink" xml:space="preserve" onload="init(evt)">
<style type="text/css"><![CDATA[
.edge:hover path { stroke: red; }
.edge:hover polygon { stroke: red; fill: red; }
]]></style>
<script type="text/javascript"><![CDATA[
var edges = document.getElementsByTagName('g');
if (edges && edges.length) {
  for (var i=0;i<edges.length;i++) {
    if (edges[i].id.substr(0,4)=='edge') {
      edges[i].setAttribute('class','edge');
    }
  }
}
]]></script>
        <defs>
                <circle id="rim" cx="0" cy="0" r="7"/>
                <circle id="rim2" cx="0" cy="0" r="3.5"/>
                <g id="zoomPlus">
                        <use xlink:href="#rim" fill="#404040">
                                <set attributeName="fill" to="#808080" begin="zoomplus.mouseover" end="zoomplus.mouseout"/>
                        </use>
                        <path d="M-4,0h8M0,-4v8" fill="none" stroke="white" stroke-width="1.5" pointer-events="none"/>
                </g>
                <g id="zoomMin">
                        <use xlink:href="#rim" fill="#404040">
                                <set attributeName="fill" to="#808080" begin="zoomminus.mouseover" end="zoomminus.mouseout"/>
                        </use>
                        <path d="M-4,0h8" fill="none" stroke="white" stroke-width="1.5" pointer-events="none"/>
                </g>
                <g id="dirArrow">
                        <path fill="none" stroke="white" stroke-width="1.5" d="M0,-3.0v7 M-2.5,-0.5L0,-3.0L2.5,-0.5"/>
                </g>
               <g id="resetDef">
                       <use xlink:href="#rim2" fill="#404040">
                               <set attributeName="fill" to="#808080" begin="reset.mouseover" end="reset.mouseout"/>
                       </use>
               </g>
        </defs>

<script type="text/javascript">
var viewWidth = 1434;
var viewHeight = 348;
var sectionId = 'dynsection-1';
</script>
<script xlink:href="svgpan.js"/>
<svg id="graph" class="graph">
<g id="viewport">
<title>execute_pipe</title>
<!-- Node1 -->
<g id="node1" class="node">
<title>Node1</title>
<g id="a_node1"><a xlink:title=" ">
<polygon fill="#999999" stroke="#666666" points="81,-199.24 0,-199.24 0,-180.24 81,-180.24 81,-199.24"/>
<text text-anchor="middle" x="40.5" y="-187.24" font-family="Helvetica,sans-Serif" font-size="10.00">execute_pipe</text>
</a>
</g>
</g>
<!-- Node2 -->
<g id="node2" class="node">
<title>Node2</title>
<g id="a_node2"><a xlink:href="execute__pipe_8c.html#a723ff799f939872d17f109a82342294e" target="_top" xlink:title=" ">
<polygon fill="white" stroke="#666666" points="333,-199.24 271,-199.24 271,-180.24 333,-180.24 333,-199.24"/>
<text text-anchor="middle" x="302" y="-187.24" font-family="Helvetica,sans-Serif" font-size="10.00">close_fds</text>
</a>
</g>
</g>
<!-- Node1&#45;&gt;Node2 -->
<g id="edge1" class="edge">
<title>Node1&#45;&gt;Node2</title>
<path fill="none" stroke="#63b8ff" d="M72.03,-199.24C85.65,-203.01 101.98,-206.88 117,-208.74 165.08,-214.69 177.93,-214.73 226,-208.74 237.43,-207.31 249.62,-204.71 260.77,-201.88"/>
<polygon fill="#63b8ff" stroke="#63b8ff" points="261.91,-205.2 270.68,-199.24 260.11,-198.43 261.91,-205.2"/>
</g>
<!-- Node3 -->
<g id="node3" class="node">
<title>Node3</title>
<g id="a_node3"><a xlink:href="execute__pipe_8c.html#ac529ffc2370b0133613ef8a81e58ed85" target="_top" xlink:title=" ">
<polygon fill="white" stroke="#666666" points="222.5,-199.24 120.5,-199.24 120.5,-180.24 222.5,-180.24 222.5,-199.24"/>
<text text-anchor="middle" x="171.5" y="-187.24" font-family="Helvetica,sans-Serif" font-size="10.00">execute_pipe_left</text>
</a>
</g>
</g>
<!-- Node1&#45;&gt;Node3 -->
<g id="edge2" class="edge">
<title>Node1&#45;&gt;Node3</title>
<path fill="none" stroke="#63b8ff" d="M81.26,-189.74C90.38,-189.74 100.28,-189.74 110.05,-189.74"/>
<polygon fill="#63b8ff" stroke="#63b8ff" points="110.15,-193.24 120.15,-189.74 110.15,-186.24 110.15,-193.24"/>
</g>
<!-- Node13 -->
<g id="node13" class="node">
<title>Node13</title>
<g id="a_node13"><a xlink:href="wait__for__subprocess_8c.html#a1242d78540fd0ddef3d98a9f294cb0d4" target="_top" xlink:title=" ">
<polygon fill="white" stroke="#666666" points="1266.5,-311.24 1150.5,-311.24 1150.5,-292.24 1266.5,-292.24 1266.5,-311.24"/>
<text text-anchor="middle" x="1208.5" y="-299.24" font-family="Helvetica,sans-Serif" font-size="10.00">wait_for_subprocess</text>
</a>
</g>
</g>
<!-- Node1&#45;&gt;Node13 -->
<g id="edge50" class="edge">
<title>Node1&#45;&gt;Node13</title>
<path fill="none" stroke="#63b8ff" d="M50.29,-199.58C81.13,-232.95 188.6,-339.74 301,-339.74 301,-339.74 301,-339.74 900.5,-339.74 988.13,-339.74 1088.77,-324.3 1150.24,-313.1"/>
<polygon fill="#63b8ff" stroke="#63b8ff" points="1150.93,-316.53 1160.13,-311.28 1149.66,-309.65 1150.93,-316.53"/>
</g>
<!-- Node34 -->
<g id="node34" class="node">
<title>Node34</title>
<g id="a_node34"><a xlink:href="execute__pipe_8c.html#a9ed6eabb8a9f7049f91265a5f45e30c8" target="_top" xlink:title=" ">
<polygon fill="white" stroke="#666666" points="226,-162.24 117,-162.24 117,-143.24 226,-143.24 226,-162.24"/>
<text text-anchor="middle" x="171.5" y="-150.24" font-family="Helvetica,sans-Serif" font-size="10.00">execute_pipe_right</text>
</a>
</g>
</g>
<!-- Node1&#45;&gt;Node34 -->
<g id="edge46" class="edge">
<title>Node1&#45;&gt;Node34</title>
<path fill="none" stroke="#63b8ff" d="M74.72,-180.21C90.7,-175.63 110.05,-170.08 127.17,-165.17"/>
<polygon fill="#63b8ff" stroke="#63b8ff" points="128.3,-168.48 136.94,-162.36 126.37,-161.75 128.3,-168.48"/>
</g>
<!-- Node3&#45;&gt;Node2 -->
<g id="edge3" class="edge">
<title>Node3&#45;&gt;Node2</title>
<path fill="none" stroke="#63b8ff" d="M222.55,-189.74C235.19,-189.74 248.61,-189.74 260.71,-189.74"/>
<polygon fill="#63b8ff" stroke="#63b8ff" points="260.94,-193.24 270.94,-189.74 260.94,-186.24 260.94,-193.24"/>
</g>
<!-- Node4 -->
<g id="node4" class="node">
<title>Node4</title>
<g id="a_node4"><a xlink:href="execute__ast_8c.html#ad26a20a665ab7fdeb714ed53c1afd104" target="_top" xlink:title=" ">
<polygon fill="white" stroke="#666666" points="339.5,-162.24 264.5,-162.24 264.5,-143.24 339.5,-143.24 339.5,-162.24"/>
<text text-anchor="middle" x="302" y="-150.24" font-family="Helvetica,sans-Serif" font-size="10.00">execute_ast</text>
</a>
</g>
</g>
<!-- Node3&#45;&gt;Node4 -->
<g id="edge4" class="edge">
<title>Node3&#45;&gt;Node4</title>
<path fill="none" stroke="#63b8ff" d="M205.59,-180.21C221.51,-175.63 240.78,-170.08 257.83,-165.17"/>
<polygon fill="#63b8ff" stroke="#63b8ff" points="258.93,-168.49 267.57,-162.36 257,-161.76 258.93,-168.49"/>
</g>
<!-- Node4&#45;&gt;Node1 -->
<g id="edge29" class="edge">
<title>Node4&#45;&gt;Node1</title>
<path fill="none" stroke="#63b8ff" d="M274.36,-143.23C237.89,-131.72 170.82,-115.96 117,-133.74 93.94,-141.35 72.18,-159.04 58,-172.51"/>
<polygon fill="#63b8ff" stroke="#63b8ff" points="55.23,-170.33 50.57,-179.85 60.15,-175.31 55.23,-170.33"/>
</g>
<!-- Node5 -->
<g id="node5" class="node">
<title>Node5</title>
<g id="a_node5"><a xlink:href="execute__cmd_8c.html#a94ea9cc5a046ce96e36764bf0e4fa2c0" target="_top" xlink:title=" ">
<polygon fill="white" stroke="#666666" points="476.5,-236.24 395.5,-236.24 395.5,-217.24 476.5,-217.24 476.5,-236.24"/>
<text text-anchor="middle" x="436" y="-224.24" font-family="Helvetica,sans-Serif" font-size="10.00">execute_cmd</text>
</a>
</g>
</g>
<!-- Node4&#45;&gt;Node5 -->
<g id="edge5" class="edge">
<title>Node4&#45;&gt;Node5</title>
<path fill="none" stroke="#63b8ff" d="M326.03,-162.32C331.48,-165.03 337.12,-168.21 342,-171.74 360.59,-185.18 358.47,-196.7 378,-208.74 380.65,-210.37 383.47,-211.87 386.37,-213.24"/>
<polygon fill="#63b8ff" stroke="#63b8ff" points="385.27,-216.58 395.85,-217.21 387.97,-210.12 385.27,-216.58"/>
</g>
<!-- Node21 -->
<g id="node21" class="node">
<title>Node21</title>
<g id="a_node21"><a xlink:href="execute__logical__and_8c.html#a4f940752faf9f9a258c49810b21efe47" target="_top" xlink:title=" ">
<polygon fill="white" stroke="#666666" points="494,-88.24 378,-88.24 378,-69.24 494,-69.24 494,-88.24"/>
<text text-anchor="middle" x="436" y="-76.24" font-family="Helvetica,sans-Serif" font-size="10.00">execute_logical_and</text>
</a>
</g>
</g>
<!-- Node4&#45;&gt;Node21 -->
<g id="edge25" class="edge">
<title>Node4&#45;&gt;Node21</title>
<path fill="none" stroke="#63b8ff" d="M310.91,-143.11C319.12,-137.6 332.11,-131.89 342,-124.74 357.54,-113.5 358.61,-103.61 370.1,-93.54"/>
<polygon fill="#63b8ff" stroke="#63b8ff" points="372.26,-96.3 378.27,-87.57 368.13,-90.65 372.26,-96.3"/>
</g>
<!-- Node22 -->
<g id="node22" class="node">
<title>Node22</title>
<g id="a_node22"><a xlink:href="execute__logical__or_8c.html#a7e732d7c30b07010fa55850051007dcc" target="_top" xlink:title=" ">
<polygon fill="white" stroke="#666666" points="489.5,-51.24 382.5,-51.24 382.5,-32.24 489.5,-32.24 489.5,-51.24"/>
<text text-anchor="middle" x="436" y="-39.24" font-family="Helvetica,sans-Serif" font-size="10.00">execute_logical_or</text>
</a>
</g>
</g>
<!-- Node4&#45;&gt;Node22 -->
<g id="edge27" class="edge">
<title>Node4&#45;&gt;Node22</title>
<path fill="none" stroke="#63b8ff" d="M312.4,-143.14C321.03,-138.28 333.69,-133.05 342,-124.74 365.63,-101.09 353,-78.81 375.22,-54.3"/>
<polygon fill="#63b8ff" stroke="#63b8ff" points="377.69,-56.78 382.47,-47.32 372.84,-51.73 377.69,-56.78"/>
</g>
<!-- Node23 -->
<g id="node23" class="node">
<title>Node23</title>
<g id="a_node23"><a xlink:href="execute__redirect_8c.html#a1004307aba80117ddd99f009e52fb155" target="_top" xlink:title=" ">
<polygon fill="white" stroke="#666666" points="485,-125.24 387,-125.24 387,-106.24 485,-106.24 485,-125.24"/>
<text text-anchor="middle" x="436" y="-113.24" font-family="Helvetica,sans-Serif" font-size="10.00">execute_redirect</text>
</a>
</g>
</g>
<!-- Node4&#45;&gt;Node23 -->
<g id="edge30" class="edge">
<title>Node4&#45;&gt;Node23</title>
<path fill="none" stroke="#63b8ff" d="M336.99,-143.21C353.34,-138.63 373.14,-133.08 390.66,-128.17"/>
<polygon fill="#63b8ff" stroke="#63b8ff" points="391.98,-131.43 400.66,-125.36 390.09,-124.69 391.98,-131.43"/>
</g>
<!-- Node31 -->
<g id="node31" class="node">
<title>Node31</title>
<g id="a_node31"><a xlink:href="execute__repeat_8c.html#a00d48683c54b50130b4a402e6e97fa97" target="_top" xlink:title=" ">
<polygon fill="white" stroke="#666666" points="482,-199.24 390,-199.24 390,-180.24 482,-180.24 482,-199.24"/>
<text text-anchor="middle" x="436" y="-187.24" font-family="Helvetica,sans-Serif" font-size="10.00">execute_repeat</text>
</a>
</g>
</g>
<!-- Node4&#45;&gt;Node31 -->
<g id="edge39" class="edge">
<title>Node4&#45;&gt;Node31</title>
<path fill="none" stroke="#63b8ff" d="M339.77,-156.92C361.47,-162.01 388.45,-169.76 408.14,-176.65"/>
<polygon fill="#63b8ff" stroke="#63b8ff" points="407.12,-180 417.71,-180.16 409.53,-173.43 407.12,-180"/>
</g>
<!-- Node32 -->
<g id="node32" class="node">
<title>Node32</title>
<g id="a_node32"><a xlink:href="execute__sequence_8c.html#aad2caa5bf50b0752dd8272da477ec231" target="_top" xlink:title=" ">
<polygon fill="white" stroke="#666666" points="489.5,-162.24 382.5,-162.24 382.5,-143.24 489.5,-143.24 489.5,-162.24"/>
<text text-anchor="middle" x="436" y="-150.24" font-family="Helvetica,sans-Serif" font-size="10.00">execute_sequence</text>
</a>
</g>
</g>
<!-- Node4&#45;&gt;Node32 -->
<g id="edge41" class="edge">
<title>Node4&#45;&gt;Node32</title>
<path fill="none" stroke="#63b8ff" d="M339.77,-146.61C349.82,-146.15 360.99,-145.95 372.06,-145.99"/>
<polygon fill="#63b8ff" stroke="#63b8ff" points="372.11,-149.49 382.15,-146.11 372.19,-142.49 372.11,-149.49"/>
</g>
<!-- Node33 -->
<g id="node33" class="node">
<title>Node33</title>
<g id="a_node33"><a xlink:href="execute__subshell_8c.html#a40a27866de012b013a337f794a858d70" target="_top" xlink:title=" ">
<polygon fill="white" stroke="#666666" points="486.5,-273.24 385.5,-273.24 385.5,-254.24 486.5,-254.24 486.5,-273.24"/>
<text text-anchor="middle" x="436" y="-261.24" font-family="Helvetica,sans-Serif" font-size="10.00">execute_subshell</text>
</a>
</g>
</g>
<!-- Node4&#45;&gt;Node33 -->
<g id="edge43" class="edge">
<title>Node4&#45;&gt;Node33</title>
<path fill="none" stroke="#63b8ff" d="M339.66,-160.57C340.47,-161.27 341.25,-161.99 342,-162.74 367.85,-188.61 350.31,-212.84 378,-236.74 386.13,-243.75 397.01,-248.04 407.07,-251.25"/>
<polygon fill="#63b8ff" stroke="#63b8ff" points="406.16,-254.63 416.74,-254.16 408.18,-247.93 406.16,-254.63"/>
</g>
<!-- Node6 -->
<g id="node6" class="node">
<title>Node6</title>
<g id="a_node6"><a xlink:href="execute__cmd_8c.html#a0cfd2364134e68efdd39533e00b4b0d9" target="_top" xlink:title=" ">
<polygon fill="white" stroke="#666666" points="649,-236.24 530,-236.24 530,-217.24 649,-217.24 649,-236.24"/>
<text text-anchor="middle" x="589.5" y="-224.24" font-family="Helvetica,sans-Serif" font-size="10.00">execute_local_binary</text>
</a>
</g>
</g>
<!-- Node5&#45;&gt;Node6 -->
<g id="edge6" class="edge">
<title>Node5&#45;&gt;Node6</title>
<path fill="none" stroke="#63b8ff" d="M476.8,-226.74C489.98,-226.74 505.05,-226.74 519.76,-226.74"/>
<polygon fill="#63b8ff" stroke="#63b8ff" points="519.86,-230.24 529.86,-226.74 519.86,-223.24 519.86,-230.24"/>
</g>
<!-- Node15 -->
<g id="node15" class="node">
<title>Node15</title>
<g id="a_node15"><a xlink:href="execute__cmd_8c.html#a460126af28ab29df4340554fae9fc57a" target="_top" xlink:title=" ">
<polygon fill="white" stroke="#666666" points="648.5,-160.24 530.5,-160.24 530.5,-141.24 648.5,-141.24 648.5,-160.24"/>
<text text-anchor="middle" x="589.5" y="-148.24" font-family="Helvetica,sans-Serif" font-size="10.00">execute_path_binary</text>
</a>
</g>
</g>
<!-- Node5&#45;&gt;Node15 -->
<g id="edge17" class="edge">
<title>Node5&#45;&gt;Node15</title>
<path fill="none" stroke="#63b8ff" d="M475.43,-217.23C481.85,-214.91 488.27,-212.1 494,-208.74 512.97,-197.59 511.51,-186.67 530,-174.74 536.15,-170.77 543.07,-167.24 549.93,-164.19"/>
<polygon fill="#63b8ff" stroke="#63b8ff" points="551.3,-167.41 559.19,-160.33 548.61,-160.95 551.3,-167.41"/>
</g>
<!-- Node20 -->
<g id="node20" class="node">
<title>Node20</title>
<g id="a_node20"><a xlink:href="strings_8h.html#a36f055c4e56c8a784629908d0c5b91e5" target="_top" xlink:title=" ">
<polygon fill="white" stroke="#666666" points="1111,-160.24 1007,-160.24 1007,-141.24 1111,-141.24 1111,-160.24"/>
<text text-anchor="middle" x="1059" y="-148.24" font-family="Helvetica,sans-Serif" font-size="10.00">my_is_char_in_str</text>
</a>
</g>
</g>
<!-- Node5&#45;&gt;Node20 -->
<g id="edge24" class="edge">
<title>Node5&#45;&gt;Node20</title>
<path fill="none" stroke="#63b8ff" d="M476.68,-218.13C493.11,-214.81 512.41,-211.21 530,-208.74 723.52,-181.47 774.71,-198.64 968,-169.74 980.96,-167.8 994.86,-165.15 1007.76,-162.45"/>
<polygon fill="#63b8ff" stroke="#63b8ff" points="1008.82,-165.8 1017.86,-160.28 1007.35,-158.96 1008.82,-165.8"/>
</g>
<!-- Node7 -->
<g id="node7" class="node">
<title>Node7</title>
<g id="a_node7"><a xlink:href="execute__cmd_8c.html#a0f1b711370b175e42e583b75daacf41e" target="_top" xlink:title=" ">
<polygon fill="white" stroke="#666666" points="945,-236.24 854,-236.24 854,-217.24 945,-217.24 945,-236.24"/>
<text text-anchor="middle" x="899.5" y="-224.24" font-family="Helvetica,sans-Serif" font-size="10.00">execute_binary</text>
</a>
</g>
</g>
<!-- Node6&#45;&gt;Node7 -->
<g id="edge7" class="edge">
<title>Node6&#45;&gt;Node7</title>
<path fill="none" stroke="#63b8ff" d="M649.16,-226.74C705.07,-226.74 788.63,-226.74 843.35,-226.74"/>
<polygon fill="#63b8ff" stroke="#63b8ff" points="843.56,-230.24 853.56,-226.74 843.56,-223.24 843.56,-230.24"/>
</g>
<!-- Node8 -->
<g id="node8" class="node">
<title>Node8</title>
<g id="a_node8"><a xlink:href="env__to__word__array_8c.html#aea7253d35c5aa57d9cfe9d7df218cb90" target="_top" xlink:title=" ">
<polygon fill="white" stroke="#666666" points="1114,-197.24 1004,-197.24 1004,-178.24 1114,-178.24 1114,-197.24"/>
<text text-anchor="middle" x="1059" y="-185.24" font-family="Helvetica,sans-Serif" font-size="10.00">env_to_word_array</text>
</a>
</g>
</g>
<!-- Node7&#45;&gt;Node8 -->
<g id="edge8" class="edge">
<title>Node7&#45;&gt;Node8</title>
<path fill="none" stroke="#63b8ff" d="M939.03,-217.2C960.37,-211.91 987.09,-205.29 1009.81,-199.67"/>
<polygon fill="#63b8ff" stroke="#63b8ff" points="1010.73,-203.05 1019.6,-197.25 1009.05,-196.25 1010.73,-203.05"/>
</g>
<!-- Node11 -->
<g id="node11" class="node">
<title>Node11</title>
<g id="a_node11"><a xlink:href="execute__cmd_8c.html#a6badc27baa1930e30ea2ad3817f65366" target="_top" xlink:title=" ">
<polygon fill="white" stroke="#666666" points="1099,-273.24 1019,-273.24 1019,-254.24 1099,-254.24 1099,-273.24"/>
<text text-anchor="middle" x="1059" y="-261.24" font-family="Helvetica,sans-Serif" font-size="10.00">execute_fork</text>
</a>
</g>
</g>
<!-- Node7&#45;&gt;Node11 -->
<g id="edge11" class="edge">
<title>Node7&#45;&gt;Node11</title>
<path fill="none" stroke="#63b8ff" d="M941.06,-236.26C961.85,-241.15 987.32,-247.13 1009.18,-252.27"/>
<polygon fill="#63b8ff" stroke="#63b8ff" points="1008.4,-255.68 1018.94,-254.56 1010,-248.87 1008.4,-255.68"/>
</g>
<!-- Node12 -->
<g id="node12" class="node">
<title>Node12</title>
<g id="a_node12"><a xlink:href="execute__cmd_8c.html#a2c49b9849cfef0deea03382c9f1b3ab8" target="_top" xlink:title=" ">
<polygon fill="white" stroke="#666666" points="1254.5,-272.24 1162.5,-272.24 1162.5,-253.24 1254.5,-253.24 1254.5,-272.24"/>
<text text-anchor="middle" x="1208.5" y="-260.24" font-family="Helvetica,sans-Serif" font-size="10.00">run_subprocess</text>
</a>
</g>
</g>
<!-- Node7&#45;&gt;Node12 -->
<g id="edge16" class="edge">
<title>Node7&#45;&gt;Node12</title>
<path fill="none" stroke="#63b8ff" d="M945.2,-229.52C988.49,-232.51 1055.92,-237.89 1114,-245.74 1126.51,-247.43 1139.9,-249.63 1152.53,-251.88"/>
<polygon fill="#63b8ff" stroke="#63b8ff" points="1151.99,-255.34 1162.45,-253.69 1153.24,-248.45 1151.99,-255.34"/>
</g>
<!-- Node9 -->
<g id="node9" class="node">
<title>Node9</title>
<g id="a_node9"><a xlink:href="misc_8h.html#a1180cae2875b1fdcd58c9f9175a82c12" target="_top" xlink:title=" ">
<polygon fill="white" stroke="#666666" points="1267,-235.24 1150,-235.24 1150,-216.24 1267,-216.24 1267,-235.24"/>
<text text-anchor="middle" x="1208.5" y="-223.24" font-family="Helvetica,sans-Serif" font-size="10.00">my_free_word_array</text>
</a>
</g>
</g>
<!-- Node8&#45;&gt;Node9 -->
<g id="edge9" class="edge">
<title>Node8&#45;&gt;Node9</title>
<path fill="none" stroke="#63b8ff" d="M1097.22,-197.33C1116.51,-202.29 1140.26,-208.41 1160.77,-213.7"/>
<polygon fill="#63b8ff" stroke="#63b8ff" points="1159.99,-217.11 1170.55,-216.22 1161.74,-210.33 1159.99,-217.11"/>
</g>
<!-- Node10 -->
<g id="node10" class="node">
<title>Node10</title>
<g id="a_node10"><a xlink:href="list_8h.html#ad5ebb7cdb26f73e4b212dfc5eae4ef0e" target="_top" xlink:title=" ">
<polygon fill="white" stroke="#666666" points="1253,-197.24 1164,-197.24 1164,-178.24 1253,-178.24 1253,-197.24"/>
<text text-anchor="middle" x="1208.5" y="-185.24" font-family="Helvetica,sans-Serif" font-size="10.00">my_list_length</text>
</a>
</g>
</g>
<!-- Node8&#45;&gt;Node10 -->
<g id="edge10" class="edge">
<title>Node8&#45;&gt;Node10</title>
<path fill="none" stroke="#63b8ff" d="M1114.09,-187.74C1126.93,-187.74 1140.64,-187.74 1153.48,-187.74"/>
<polygon fill="#63b8ff" stroke="#63b8ff" points="1153.56,-191.24 1163.56,-187.74 1153.56,-184.24 1153.56,-191.24"/>
</g>
<!-- Node11&#45;&gt;Node9 -->
<g id="edge12" class="edge">
<title>Node11&#45;&gt;Node9</title>
<path fill="none" stroke="#63b8ff" d="M1097.22,-254.15C1116.51,-249.18 1140.26,-243.06 1160.77,-237.78"/>
<polygon fill="#63b8ff" stroke="#63b8ff" points="1161.74,-241.14 1170.55,-235.26 1159.99,-234.36 1161.74,-241.14"/>
</g>
<!-- Node11&#45;&gt;Node12 -->
<g id="edge13" class="edge">
<title>Node11&#45;&gt;Node12</title>
<path fill="none" stroke="#63b8ff" d="M1099.14,-263.47C1115.41,-263.36 1134.58,-263.23 1152.24,-263.11"/>
<polygon fill="#63b8ff" stroke="#63b8ff" points="1152.45,-266.61 1162.43,-263.04 1152.4,-259.61 1152.45,-266.61"/>
</g>
<!-- Node11&#45;&gt;Node13 -->
<g id="edge14" class="edge">
<title>Node11&#45;&gt;Node13</title>
<path fill="none" stroke="#63b8ff" d="M1097.22,-273.33C1116.51,-278.29 1140.26,-284.41 1160.77,-289.7"/>
<polygon fill="#63b8ff" stroke="#63b8ff" points="1159.99,-293.11 1170.55,-292.22 1161.74,-286.33 1159.99,-293.11"/>
</g>
<!-- Node14 -->
<g id="node14" class="node">
<title>Node14</title>
<g id="a_node14"><a xlink:href="wait__for__subprocess_8c.html#a885766ba6ba593b7cf27b917dd52b1a6" target="_top" xlink:title=" ">
<polygon fill="white" stroke="#666666" points="1426,-311.24 1303,-311.24 1303,-292.24 1426,-292.24 1426,-311.24"/>
<text text-anchor="middle" x="1364.5" y="-299.24" font-family="Helvetica,sans-Serif" font-size="10.00">print_signal_message</text>
</a>
</g>
</g>
<!-- Node13&#45;&gt;Node14 -->
<g id="edge15" class="edge">
<title>Node13&#45;&gt;Node14</title>
<path fill="none" stroke="#63b8ff" d="M1266.84,-301.74C1275.26,-301.74 1284.02,-301.74 1292.67,-301.74"/>
<polygon fill="#63b8ff" stroke="#63b8ff" points="1292.76,-305.24 1302.76,-301.74 1292.76,-298.24 1292.76,-305.24"/>
</g>
<!-- Node16 -->
<g id="node16" class="node">
<title>Node16</title>
<g id="a_node16"><a xlink:href="get__variable__value_8c.html#a2edd9900f19af236aa05385a789be3d6" target="_top" xlink:title=" ">
<polygon fill="white" stroke="#666666" points="795,-123.24 685,-123.24 685,-104.24 795,-104.24 795,-123.24"/>
<text text-anchor="middle" x="740" y="-111.24" font-family="Helvetica,sans-Serif" font-size="10.00">get_variable_value</text>
</a>
</g>
</g>
<!-- Node15&#45;&gt;Node16 -->
<g id="edge18" class="edge">
<title>Node15&#45;&gt;Node16</title>
<path fill="none" stroke="#63b8ff" d="M628.74,-141.21C647.64,-136.5 670.63,-130.77 690.73,-125.76"/>
<polygon fill="#63b8ff" stroke="#63b8ff" points="691.77,-129.11 700.63,-123.3 690.08,-122.32 691.77,-129.11"/>
</g>
<!-- Node18 -->
<g id="node18" class="node">
<title>Node18</title>
<g id="a_node18"><a xlink:href="execute__cmd_8c.html#aee9e13edede9df28fac066f30e7ae7ed" target="_top" xlink:title=" ">
<polygon fill="white" stroke="#666666" points="782,-160.24 698,-160.24 698,-141.24 782,-141.24 782,-160.24"/>
<text text-anchor="middle" x="740" y="-148.24" font-family="Helvetica,sans-Serif" font-size="10.00">try_command</text>
</a>
</g>
</g>
<!-- Node15&#45;&gt;Node18 -->
<g id="edge20" class="edge">
<title>Node15&#45;&gt;Node18</title>
<path fill="none" stroke="#63b8ff" d="M648.76,-150.74C661.59,-150.74 675.08,-150.74 687.61,-150.74"/>
<polygon fill="#63b8ff" stroke="#63b8ff" points="687.87,-154.24 697.87,-150.74 687.87,-147.24 687.87,-154.24"/>
</g>
<!-- Node17 -->
<g id="node17" class="node">
<title>Node17</title>
<g id="a_node17"><a xlink:href="get__variable_8c.html#a569170390f0edf013bf89c26ef55ea8c" target="_top" xlink:title=" ">
<polygon fill="white" stroke="#666666" points="938,-123.24 861,-123.24 861,-104.24 938,-104.24 938,-123.24"/>
<text text-anchor="middle" x="899.5" y="-111.24" font-family="Helvetica,sans-Serif" font-size="10.00">get_variable</text>
</a>
</g>
</g>
<!-- Node16&#45;&gt;Node17 -->
<g id="edge19" class="edge">
<title>Node16&#45;&gt;Node17</title>
<path fill="none" stroke="#63b8ff" d="M795.2,-113.74C813.04,-113.74 832.73,-113.74 850.11,-113.74"/>
<polygon fill="#63b8ff" stroke="#63b8ff" points="850.58,-117.24 860.58,-113.74 850.58,-110.24 850.58,-117.24"/>
</g>
<!-- Node18&#45;&gt;Node7 -->
<g id="edge21" class="edge">
<title>Node18&#45;&gt;Node7</title>
<path fill="none" stroke="#63b8ff" d="M760.95,-160.36C788.4,-173.61 838.01,-197.55 869.55,-212.77"/>
<polygon fill="#63b8ff" stroke="#63b8ff" points="868.19,-216 878.71,-217.19 871.23,-209.69 868.19,-216"/>
</g>
<!-- Node19 -->
<g id="node19" class="node">
<title>Node19</title>
<g id="a_node19"><a xlink:href="execute__cmd_8c.html#a7edf8a207e2b427102f54a379bd13546" target="_top" xlink:title=" ">
<polygon fill="white" stroke="#666666" points="968,-160.24 831,-160.24 831,-141.24 968,-141.24 968,-160.24"/>
<text text-anchor="middle" x="899.5" y="-148.24" font-family="Helvetica,sans-Serif" font-size="10.00">print_permission_denied</text>
</a>
</g>
</g>
<!-- Node18&#45;&gt;Node19 -->
<g id="edge22" class="edge">
<title>Node18&#45;&gt;Node19</title>
<path fill="none" stroke="#63b8ff" d="M782.38,-150.74C794.22,-150.74 807.52,-150.74 820.79,-150.74"/>
<polygon fill="#63b8ff" stroke="#63b8ff" points="820.9,-154.24 830.9,-150.74 820.9,-147.24 820.9,-154.24"/>
</g>
<!-- Node19&#45;&gt;Node20 -->
<g id="edge23" class="edge">
<title>Node19&#45;&gt;Node20</title>
<path fill="none" stroke="#63b8ff" d="M968.21,-150.74C977.54,-150.74 987.08,-150.74 996.29,-150.74"/>
<polygon fill="#63b8ff" stroke="#63b8ff" points="996.52,-154.24 1006.52,-150.74 996.52,-147.24 996.52,-154.24"/>
</g>
<!-- Node21&#45;&gt;Node4 -->
<g id="edge26" class="edge">
<title>Node21&#45;&gt;Node4</title>
<path fill="none" stroke="#63b8ff" d="M421.07,-88.25C409,-92.66 391.43,-97.46 378,-105.74 361.37,-115.99 360.44,-125.86 347.66,-137.83"/>
<polygon fill="#63b8ff" stroke="#63b8ff" points="345.28,-135.26 339.76,-144.3 349.71,-140.68 345.28,-135.26"/>
</g>
<!-- Node22&#45;&gt;Node4 -->
<g id="edge28" class="edge">
<title>Node22&#45;&gt;Node4</title>
<path fill="none" stroke="#63b8ff" d="M416.74,-51.31C404.56,-54.88 388.84,-59.38 378,-68.74 352.91,-90.39 364.96,-112.33 346.46,-137.11"/>
<polygon fill="#63b8ff" stroke="#63b8ff" points="343.6,-135.06 339.66,-144.9 348.88,-139.67 343.6,-135.06"/>
</g>
<!-- Node24 -->
<g id="node24" class="node">
<title>Node24</title>
<g id="a_node24"><a xlink:href="execute__redirect_8c.html#a5aa0f008806cc0e8a7ba252d61b7001f" target="_top" xlink:title=" ">
<polygon fill="white" stroke="#666666" points="643,-40.24 536,-40.24 536,-21.24 643,-21.24 643,-40.24"/>
<text text-anchor="middle" x="589.5" y="-28.24" font-family="Helvetica,sans-Serif" font-size="10.00">redirect_execution</text>
</a>
</g>
</g>
<!-- Node23&#45;&gt;Node24 -->
<g id="edge31" class="edge">
<title>Node23&#45;&gt;Node24</title>
<path fill="none" stroke="#63b8ff" d="M471.11,-106.15C478.81,-103.5 486.82,-100.34 494,-96.74 521.66,-82.84 550.4,-61.64 568.81,-47.03"/>
<polygon fill="#63b8ff" stroke="#63b8ff" points="571.38,-49.46 576.97,-40.46 566.99,-44.01 571.38,-49.46"/>
</g>
<!-- Node24&#45;&gt;Node4 -->
<g id="edge32" class="edge">
<title>Node24&#45;&gt;Node4</title>
<path fill="none" stroke="#63b8ff" d="M564.61,-21.15C522.47,-5.95 434.06,18.01 378,-22.74 336.05,-53.23 376.02,-94.59 342,-133.74 340.98,-134.91 339.87,-136.02 338.7,-137.06"/>
<polygon fill="#63b8ff" stroke="#63b8ff" points="336.33,-134.45 330.17,-143.07 340.36,-140.17 336.33,-134.45"/>
</g>
<!-- Node25 -->
<g id="node25" class="node">
<title>Node25</title>
<g id="a_node25"><a xlink:href="execute__redirect_8c.html#a1b8f325fc375581f81ae47a54e09cf0e" target="_top" xlink:title=" ">
<polygon fill="white" stroke="#666666" points="773,-59.24 707,-59.24 707,-40.24 773,-40.24 773,-59.24"/>
<text text-anchor="middle" x="740" y="-47.24" font-family="Helvetica,sans-Serif" font-size="10.00">restore_fd</text>
</a>
</g>
</g>
<!-- Node24&#45;&gt;Node25 -->
<g id="edge33" class="edge">
<title>Node24&#45;&gt;Node25</title>
<path fill="none" stroke="#63b8ff" d="M643.27,-37.49C660.81,-39.73 680.09,-42.2 696.73,-44.33"/>
<polygon fill="#63b8ff" stroke="#63b8ff" points="696.34,-47.81 706.71,-45.6 697.23,-40.86 696.34,-47.81"/>
</g>
<!-- Node26 -->
<g id="node26" class="node">
<title>Node26</title>
<g id="a_node26"><a xlink:href="execute__redirect_8c.html#a6cb002bd51f2009eaacc66d388c5f9a7" target="_top" xlink:title=" ">
<polygon fill="white" stroke="#666666" points="790.5,-22.24 689.5,-22.24 689.5,-3.24 790.5,-3.24 790.5,-22.24"/>
<text text-anchor="middle" x="740" y="-10.24" font-family="Helvetica,sans-Serif" font-size="10.00">setup_redirection</text>
</a>
</g>
</g>
<!-- Node24&#45;&gt;Node26 -->
<g id="edge34" class="edge">
<title>Node24&#45;&gt;Node26</title>
<path fill="none" stroke="#63b8ff" d="M643.27,-24.34C654.88,-22.93 667.25,-21.43 679.12,-20"/>
<polygon fill="#63b8ff" stroke="#63b8ff" points="679.87,-23.43 689.38,-18.75 679.03,-16.48 679.87,-23.43"/>
</g>
<!-- Node27 -->
<g id="node27" class="node">
<title>Node27</title>
<g id="a_node27"><a xlink:href="execute__redirect_8c.html#a0e31af51537a8c047a3aca7cdb63d5dd" target="_top" xlink:title=" ">
<polygon fill="white" stroke="#666666" points="948.5,-22.24 850.5,-22.24 850.5,-3.24 948.5,-3.24 948.5,-22.24"/>
<text text-anchor="middle" x="899.5" y="-10.24" font-family="Helvetica,sans-Serif" font-size="10.00">open_redirect_fd</text>
</a>
</g>
</g>
<!-- Node26&#45;&gt;Node27 -->
<g id="edge35" class="edge">
<title>Node26&#45;&gt;Node27</title>
<path fill="none" stroke="#63b8ff" d="M790.83,-12.74C806.43,-12.74 823.79,-12.74 839.93,-12.74"/>
<polygon fill="#63b8ff" stroke="#63b8ff" points="840.34,-16.24 850.34,-12.74 840.34,-9.24 840.34,-16.24"/>
</g>
<!-- Node28 -->
<g id="node28" class="node">
<title>Node28</title>
<g id="a_node28"><a xlink:href="execute__redirect_8c.html#a71feea783167b3804f2793a232ca74b4" target="_top" xlink:title=" ">
<polygon fill="white" stroke="#666666" points="1094.5,-22.24 1023.5,-22.24 1023.5,-3.24 1094.5,-3.24 1094.5,-22.24"/>
<text text-anchor="middle" x="1059" y="-10.24" font-family="Helvetica,sans-Serif" font-size="10.00">heredoc_fd</text>
</a>
</g>
</g>
<!-- Node27&#45;&gt;Node28 -->
<g id="edge36" class="edge">
<title>Node27&#45;&gt;Node28</title>
<path fill="none" stroke="#63b8ff" d="M948.61,-12.74C969.1,-12.74 992.87,-12.74 1013.01,-12.74"/>
<polygon fill="#63b8ff" stroke="#63b8ff" points="1013.17,-16.24 1023.17,-12.74 1013.17,-9.24 1013.17,-16.24"/>
</g>
<!-- Node29 -->
<g id="node29" class="node">
<title>Node29</title>
<g id="a_node29"><a xlink:href="execute__redirect_8c.html#a639d0a6f315a3bae78d204ff798e314f" target="_top" xlink:title=" ">
<polygon fill="white" stroke="#666666" points="1262,-22.24 1155,-22.24 1155,-3.24 1262,-3.24 1262,-22.24"/>
<text text-anchor="middle" x="1208.5" y="-10.24" font-family="Helvetica,sans-Serif" font-size="10.00">get_heredoc_input</text>
</a>
</g>
</g>
<!-- Node28&#45;&gt;Node29 -->
<g id="edge37" class="edge">
<title>Node28&#45;&gt;Node29</title>
<path fill="none" stroke="#63b8ff" d="M1094.58,-12.74C1109.6,-12.74 1127.67,-12.74 1144.91,-12.74"/>
<polygon fill="#63b8ff" stroke="#63b8ff" points="1144.94,-16.24 1154.94,-12.74 1144.94,-9.24 1144.94,-16.24"/>
</g>
<!-- Node30 -->
<g id="node30" class="node">
<title>Node30</title>
<g id="a_node30"><a xlink:href="execute__redirect_8c.html#a4e396606481bc13335d3dfae7ff15407" target="_top" xlink:title=" ">
<polygon fill="white" stroke="#666666" points="1415.5,-22.24 1313.5,-22.24 1313.5,-3.24 1415.5,-3.24 1415.5,-22.24"/>
<text text-anchor="middle" x="1364.5" y="-10.24" font-family="Helvetica,sans-Serif" font-size="10.00">is_heredoc_delim</text>
</a>
</g>
</g>
<!-- Node29&#45;&gt;Node30 -->
<g id="edge38" class="edge">
<title>Node29&#45;&gt;Node30</title>
<path fill="none" stroke="#63b8ff" d="M1262.07,-12.74C1275.26,-12.74 1289.52,-12.74 1303.06,-12.74"/>
<polygon fill="#63b8ff" stroke="#63b8ff" points="1303.25,-16.24 1313.25,-12.74 1303.25,-9.24 1303.25,-16.24"/>
</g>
<!-- Node31&#45;&gt;Node4 -->
<g id="edge40" class="edge">
<title>Node31&#45;&gt;Node4</title>
<path fill="none" stroke="#63b8ff" d="M389.91,-183.54C369.87,-178.53 346.97,-171.82 329.7,-165.77"/>
<polygon fill="#63b8ff" stroke="#63b8ff" points="330.85,-162.46 320.26,-162.3 328.44,-169.03 330.85,-162.46"/>
</g>
<!-- Node32&#45;&gt;Node4 -->
<g id="edge42" class="edge">
<title>Node32&#45;&gt;Node4</title>
<path fill="none" stroke="#63b8ff" d="M382.15,-159.37C371.49,-159.56 360.36,-159.52 349.93,-159.23"/>
<polygon fill="#63b8ff" stroke="#63b8ff" points="349.89,-155.73 339.77,-158.86 349.64,-162.72 349.89,-155.73"/>
</g>
<!-- Node33&#45;&gt;Node4 -->
<g id="edge44" class="edge">
<title>Node33&#45;&gt;Node4</title>
<path fill="none" stroke="#63b8ff" d="M385.4,-260C382.77,-258.45 380.28,-256.7 378,-254.74 350.31,-230.84 367.85,-206.61 342,-180.74 336.29,-175.02 328.52,-170.76 321.42,-167.08"/>
<polygon fill="#63b8ff" stroke="#63b8ff" points="322.88,-163.89 312.4,-162.33 319.62,-170.09 322.88,-163.89"/>
</g>
<!-- Node33&#45;&gt;Node13 -->
<g id="edge45" class="edge">
<title>Node33&#45;&gt;Node13</title>
<path fill="none" stroke="#63b8ff" d="M483.59,-273.28C542.72,-284.53 647.98,-301.74 739,-301.74 739,-301.74 739,-301.74 900.5,-301.74 983.05,-301.74 1078.08,-301.74 1140.28,-301.74"/>
<polygon fill="#63b8ff" stroke="#63b8ff" points="1140.35,-305.24 1150.35,-301.74 1140.35,-298.24 1140.35,-305.24"/>
</g>
<!-- Node34&#45;&gt;Node2 -->
<g id="edge47" class="edge">
<title>Node34&#45;&gt;Node2</title>
<path fill="none" stroke="#63b8ff" d="M205.59,-162.26C222.38,-167.1 242.9,-173.01 260.61,-178.11"/>
<polygon fill="#63b8ff" stroke="#63b8ff" points="260.08,-181.6 270.66,-181 262.02,-174.87 260.08,-181.6"/>
</g>
<!-- Node34&#45;&gt;Node4 -->
<g id="edge48" class="edge">
<title>Node34&#45;&gt;Node4</title>
<path fill="none" stroke="#63b8ff" d="M226.25,-152.74C235.55,-152.74 245.14,-152.74 254.23,-152.74"/>
<polygon fill="#63b8ff" stroke="#63b8ff" points="254.24,-156.24 264.24,-152.74 254.24,-149.24 254.24,-156.24"/>
</g>
<!-- Node35 -->
<g id="node35" class="node">
<title>Node35</title>
<g id="a_node35"><a xlink:href="execute__pipe_8c.html#ac3d3a124b262676fa0679720f99a7f83" target="_top" xlink:title=" ">
<polygon fill="white" stroke="#666666" points="342,-125.24 262,-125.24 262,-106.24 342,-106.24 342,-125.24"/>
<text text-anchor="middle" x="302" y="-113.24" font-family="Helvetica,sans-Serif" font-size="10.00">restore_stdin</text>
</a>
</g>
</g>
<!-- Node34&#45;&gt;Node35 -->
<g id="edge49" class="edge">
<title>Node34&#45;&gt;Node35</title>
<path fill="none" stroke="#63b8ff" d="M205.59,-143.21C221.51,-138.63 240.78,-133.08 257.83,-128.17"/>
<polygon fill="#63b8ff" stroke="#63b8ff" points="258.93,-131.49 267.57,-125.36 257,-124.76 258.93,-131.49"/>
</g>
</g>
</svg>
        <g id="navigator" transform="translate(0 0)" fill="#404254">
                <rect fill="#f2f5e9" fill-opacity="0.5" stroke="#606060" stroke-width=".5" x="0" y="0" width="60" height="60"/>
                <use id="zoomplus" xlink:href="#zoomPlus" x="17" y="9" onmousedown="handleZoom(evt,'in')"/>
                <use id="zoomminus" xlink:href="#zoomMin" x="42" y="9" onmousedown="handleZoom(evt,'out')"/>
                <use id="reset" xlink:href="#resetDef" x="30" y="36" onmousedown="handleReset()"/>
                <g id="arrowUp" xlink:href="#dirArrow" transform="translate(30 24)" onmousedown="handlePan(0,-1)">
                  <use xlink:href="#rim" fill="#404040">
                        <set attributeName="fill" to="#808080" begin="arrowUp.mouseover" end="arrowUp.mouseout"/>
                  </use>
                  <path fill="none" stroke="white" stroke-width="1.5" d="M0,-3.0v7 M-2.5,-0.5L0,-3.0L2.5,-0.5"/>
                </g>
                <g id="arrowRight" xlink:href="#dirArrow" transform="rotate(90) translate(36 -43)" onmousedown="handlePan(1,0)">
                  <use xlink:href="#rim" fill="#404040">
                        <set attributeName="fill" to="#808080" begin="arrowRight.mouseover" end="arrowRight.mouseout"/>
                  </use>
                  <path fill="none" stroke="white" stroke-width="1.5" d="M0,-3.0v7 M-2.5,-0.5L0,-3.0L2.5,-0.5"/>
                </g>
                <g id="arrowDown" xlink:href="#dirArrow" transform="rotate(180) translate(-30 -48)" onmousedown="handlePan(0,1)">
                  <use xlink:href="#rim" fill="#404040">
                        <set attributeName="fill" to="#808080" begin="arrowDown.mouseover" end="arrowDown.mouseout"/>
                  </use>
                  <path fill="none" stroke="white" stroke-width="1.5" d="M0,-3.0v7 M-2.5,-0.5L0,-3.0L2.5,-0.5"/>
                </g>
                <g id="arrowLeft" xlink:href="#dirArrow" transform="rotate(270) translate(-36 17)" onmousedown="handlePan(-1,0)">
                  <use xlink:href="#rim" fill="#404040">
                        <set attributeName="fill" to="#808080" begin="arrowLeft.mouseover" end="arrowLeft.mouseout"/>
                  </use>
                  <path fill="none" stroke="white" stroke-width="1.5" d="M0,-3.0v7 M-2.5,-0.5L0,-3.0L2.5,-0.5"/>
                </g>
        </g>
        <svg viewBox="0 0 15 15" width="100%" height="30px" preserveAspectRatio="xMaxYMin meet">
         <g id="arrow_out" transform="scale(0.3 0.3)">
          <a xlink:href="execute__pipe_8c_a5f3546dc2c7cf06c982afba41e722164_cgraph_org.svg" target="_base">
           <rect id="button" ry="5" rx="5" y="6" x="6" height="38" width="38"
                fill="#f2f5e9" fill-opacity="0.5" stroke="#606060" stroke-width="1.0"/>
           <path id="arrow"
             d="M 11.500037,31.436501 C 11.940474,20.09759 22.043105,11.32322 32.158766,21.979434 L 37.068811,17.246167 C 37.068811,17.246167 37.088388,32 37.088388,32 L 22.160133,31.978069 C 22.160133,31.978069 26.997745,27.140456 26.997745,27.140456 C 18.528582,18.264221 13.291696,25.230495 11.500037,31.436501 z"
             style="fill:#404040;"/>
          </a>
         </g>
        </svg>
</svg>
