<?xml version="1.0" encoding="UTF-8" standalone="no"?>
<!DOCTYPE svg PUBLIC "-//W3C//DTD SVG 1.1//EN"
 "http://www.w3.org/Graphics/SVG/1.1/DTD/svg11.dtd">
<!-- Generated by graphviz version 2.43.0 (0)
 -->
<!-- Title: include/executer.h Pages: 1 -->
<svg width="208pt" height="192pt"
 viewBox="0.00 0.00 207.50 192.00" xmlns="http://www.w3.org/2000/svg" xmlns:xlink="http://www.w3.org/1999/xlink">
<g id="graph0" class="graph" transform="scale(1 1) rotate(0) translate(4 188)">
<title>include/executer.h</title>
<!-- Node1 -->
<g id="node1" class="node">
<title>Node1</title>
<g id="a_node1"><a xlink:title=" ">
<polygon fill="#999999" stroke="#666666" points="137,-184 32,-184 32,-165 137,-165 137,-184"/>
<text text-anchor="middle" x="84.5" y="-172" font-family="Helvetica,sans-Serif" font-size="10.00">include/executer.h</text>
</a>
</g>
</g>
<!-- Node2 -->
<g id="node2" class="node">
<title>Node2</title>
<g id="a_node2"><a xlink:href="ast_8h.html" target="_top" xlink:title=" ">
<polygon fill="white" stroke="#666666" points="41,-74 0,-74 0,-55 41,-55 41,-74"/>
<text text-anchor="middle" x="20.5" y="-62" font-family="Helvetica,sans-Serif" font-size="10.00">ast.h</text>
</a>
</g>
</g>
<!-- Node1&#45;&gt;Node2 -->
<g id="edge1" class="edge">
<title>Node1&#45;&gt;Node2</title>
<path fill="none" stroke="#63b8ff" d="M77.43,-164.97C70.39,-156.25 59.49,-142.15 51.5,-129 42.55,-114.28 34.09,-96.59 28.28,-83.63"/>
<polygon fill="#63b8ff" stroke="#63b8ff" points="31.45,-82.15 24.22,-74.4 25.04,-84.96 31.45,-82.15"/>
</g>
<!-- Node4 -->
<g id="node4" class="node">
<title>Node4</title>
<g id="a_node4"><a xlink:href="shell_8h.html" target="_top" xlink:title=" ">
<polygon fill="white" stroke="#666666" points="109,-129 60,-129 60,-110 109,-110 109,-129"/>
<text text-anchor="middle" x="84.5" y="-117" font-family="Helvetica,sans-Serif" font-size="10.00">shell.h</text>
</a>
</g>
</g>
<!-- Node1&#45;&gt;Node4 -->
<g id="edge3" class="edge">
<title>Node1&#45;&gt;Node4</title>
<path fill="none" stroke="#63b8ff" d="M84.5,-164.75C84.5,-157.8 84.5,-147.85 84.5,-139.13"/>
<polygon fill="#63b8ff" stroke="#63b8ff" points="88,-139.09 84.5,-129.09 81,-139.09 88,-139.09"/>
</g>
<!-- Node6 -->
<g id="node6" class="node">
<title>Node6</title>
<g id="a_node6"><a xlink:title=" ">
<polygon fill="#e0e0e0" stroke="#999999" points="199.5,-129 127.5,-129 127.5,-110 199.5,-110 199.5,-129"/>
<text text-anchor="middle" x="163.5" y="-117" font-family="Helvetica,sans-Serif" font-size="10.00">sys/types.h</text>
</a>
</g>
</g>
<!-- Node1&#45;&gt;Node6 -->
<g id="edge6" class="edge">
<title>Node1&#45;&gt;Node6</title>
<path fill="none" stroke="#63b8ff" d="M97.19,-164.98C109.33,-156.84 127.86,-144.41 142.25,-134.76"/>
<polygon fill="#63b8ff" stroke="#63b8ff" points="144.22,-137.65 150.58,-129.17 140.32,-131.84 144.22,-137.65"/>
</g>
<!-- Node3 -->
<g id="node3" class="node">
<title>Node3</title>
<g id="a_node3"><a xlink:title=" ">
<polygon fill="#e0e0e0" stroke="#999999" points="82.5,-19 26.5,-19 26.5,0 82.5,0 82.5,-19"/>
<text text-anchor="middle" x="54.5" y="-7" font-family="Helvetica,sans-Serif" font-size="10.00">stddef.h</text>
</a>
</g>
</g>
<!-- Node2&#45;&gt;Node3 -->
<g id="edge2" class="edge">
<title>Node2&#45;&gt;Node3</title>
<path fill="none" stroke="#63b8ff" d="M26.11,-54.75C30.82,-47.42 37.67,-36.73 43.47,-27.7"/>
<polygon fill="#63b8ff" stroke="#63b8ff" points="46.54,-29.4 48.99,-19.09 40.64,-25.62 46.54,-29.4"/>
</g>
<!-- Node5 -->
<g id="node5" class="node">
<title>Node5</title>
<g id="a_node5"><a xlink:href="list_8h.html" target="_top" xlink:title=" ">
<polygon fill="white" stroke="#666666" points="118,-74 59,-74 59,-55 118,-55 118,-74"/>
<text text-anchor="middle" x="88.5" y="-62" font-family="Helvetica,sans-Serif" font-size="10.00">my/list.h</text>
</a>
</g>
</g>
<!-- Node4&#45;&gt;Node5 -->
<g id="edge4" class="edge">
<title>Node4&#45;&gt;Node5</title>
<path fill="none" stroke="#63b8ff" d="M85.16,-109.75C85.68,-102.8 86.44,-92.85 87.09,-84.13"/>
<polygon fill="#63b8ff" stroke="#63b8ff" points="90.59,-84.32 87.85,-74.09 83.61,-83.8 90.59,-84.32"/>
</g>
<!-- Node5&#45;&gt;Node3 -->
<g id="edge5" class="edge">
<title>Node5&#45;&gt;Node3</title>
<path fill="none" stroke="#63b8ff" d="M82.89,-54.75C78.18,-47.42 71.33,-36.73 65.53,-27.7"/>
<polygon fill="#63b8ff" stroke="#63b8ff" points="68.36,-25.62 60.01,-19.09 62.46,-29.4 68.36,-25.62"/>
</g>
</g>
</svg>
