<?xml version="1.0" encoding="UTF-8" standalone="no"?>
<!DOCTYPE svg PUBLIC "-//W3C//DTD SVG 1.1//EN"
 "http://www.w3.org/Graphics/SVG/1.1/DTD/svg11.dtd">
<!-- Generated by graphviz version 2.43.0 (0)
 -->
<!-- Title: src/executer/execute_redirect.c Pages: 1 -->
<svg width="696pt" height="258pt"
 viewBox="0.00 0.00 695.50 258.00" xmlns="http://www.w3.org/2000/svg" xmlns:xlink="http://www.w3.org/1999/xlink">
<g id="graph0" class="graph" transform="scale(1 1) rotate(0) translate(4 254)">
<title>src/executer/execute_redirect.c</title>
<!-- Node1 -->
<g id="node1" class="node">
<title>Node1</title>
<g id="a_node1"><a xlink:title=" ">
<polygon fill="#999999" stroke="#666666" points="414,-250 297,-250 297,-220 414,-220 414,-250"/>
<text text-anchor="start" x="305" y="-238" font-family="Helvetica,sans-Serif" font-size="10.00">src/executer/execute</text>
<text text-anchor="middle" x="355.5" y="-227" font-family="Helvetica,sans-Serif" font-size="10.00">_redirect.c</text>
</a>
</g>
</g>
<!-- Node2 -->
<g id="node2" class="node">
<title>Node2</title>
<g id="a_node2"><a xlink:title=" ">
<polygon fill="#e0e0e0" stroke="#999999" points="51,-184 0,-184 0,-165 51,-165 51,-184"/>
<text text-anchor="middle" x="25.5" y="-172" font-family="Helvetica,sans-Serif" font-size="10.00">errno.h</text>
</a>
</g>
</g>
<!-- Node1&#45;&gt;Node2 -->
<g id="edge1" class="edge">
<title>Node1&#45;&gt;Node2</title>
<path fill="none" stroke="#63b8ff" d="M296.84,-225.47C239.1,-216.76 148.24,-202.22 60.88,-184.16"/>
<polygon fill="#63b8ff" stroke="#63b8ff" points="61.57,-180.73 51.07,-182.12 60.15,-187.59 61.57,-180.73"/>
</g>
<!-- Node3 -->
<g id="node3" class="node">
<title>Node3</title>
<g id="a_node3"><a xlink:title=" ">
<polygon fill="#e0e0e0" stroke="#999999" points="116,-184 69,-184 69,-165 116,-165 116,-184"/>
<text text-anchor="middle" x="92.5" y="-172" font-family="Helvetica,sans-Serif" font-size="10.00">fcntl.h</text>
</a>
</g>
</g>
<!-- Node1&#45;&gt;Node3 -->
<g id="edge2" class="edge">
<title>Node1&#45;&gt;Node3</title>
<path fill="none" stroke="#63b8ff" d="M296.75,-221.87C252.47,-212.58 190.01,-199.17 126.12,-184.07"/>
<polygon fill="#63b8ff" stroke="#63b8ff" points="126.8,-180.64 116.27,-181.74 125.19,-187.45 126.8,-180.64"/>
</g>
<!-- Node4 -->
<g id="node4" class="node">
<title>Node4</title>
<g id="a_node4"><a xlink:title=" ">
<polygon fill="#e0e0e0" stroke="#999999" points="184.5,-184 134.5,-184 134.5,-165 184.5,-165 184.5,-184"/>
<text text-anchor="middle" x="159.5" y="-172" font-family="Helvetica,sans-Serif" font-size="10.00">stdio.h</text>
</a>
</g>
</g>
<!-- Node1&#45;&gt;Node4 -->
<g id="edge3" class="edge">
<title>Node1&#45;&gt;Node4</title>
<path fill="none" stroke="#63b8ff" d="M308.55,-219.99C273.4,-209.5 226.09,-195.37 194.28,-185.88"/>
<polygon fill="#63b8ff" stroke="#63b8ff" points="195.11,-182.48 184.53,-182.97 193.11,-189.18 195.11,-182.48"/>
</g>
<!-- Node5 -->
<g id="node5" class="node">
<title>Node5</title>
<g id="a_node5"><a xlink:title=" ">
<polygon fill="#e0e0e0" stroke="#999999" points="256,-184 203,-184 203,-165 256,-165 256,-184"/>
<text text-anchor="middle" x="229.5" y="-172" font-family="Helvetica,sans-Serif" font-size="10.00">stdlib.h</text>
</a>
</g>
</g>
<!-- Node1&#45;&gt;Node5 -->
<g id="edge4" class="edge">
<title>Node1&#45;&gt;Node5</title>
<path fill="none" stroke="#63b8ff" d="M325.32,-219.99C304.67,-210.4 277.5,-197.79 257.37,-188.44"/>
<polygon fill="#63b8ff" stroke="#63b8ff" points="258.65,-185.18 248.11,-184.14 255.7,-191.52 258.65,-185.18"/>
</g>
<!-- Node6 -->
<g id="node6" class="node">
<title>Node6</title>
<g id="a_node6"><a xlink:title=" ">
<polygon fill="#e0e0e0" stroke="#999999" points="327,-184 274,-184 274,-165 327,-165 327,-184"/>
<text text-anchor="middle" x="300.5" y="-172" font-family="Helvetica,sans-Serif" font-size="10.00">string.h</text>
</a>
</g>
</g>
<!-- Node1&#45;&gt;Node6 -->
<g id="edge5" class="edge">
<title>Node1&#45;&gt;Node6</title>
<path fill="none" stroke="#63b8ff" d="M342.19,-219.84C334.2,-211.35 324.02,-200.52 315.72,-191.69"/>
<polygon fill="#63b8ff" stroke="#63b8ff" points="318.14,-189.15 308.74,-184.27 313.04,-193.95 318.14,-189.15"/>
</g>
<!-- Node7 -->
<g id="node7" class="node">
<title>Node7</title>
<g id="a_node7"><a xlink:title=" ">
<polygon fill="#e0e0e0" stroke="#999999" points="403.5,-129 331.5,-129 331.5,-110 403.5,-110 403.5,-129"/>
<text text-anchor="middle" x="367.5" y="-117" font-family="Helvetica,sans-Serif" font-size="10.00">sys/types.h</text>
</a>
</g>
</g>
<!-- Node1&#45;&gt;Node7 -->
<g id="edge6" class="edge">
<title>Node1&#45;&gt;Node7</title>
<path fill="none" stroke="#63b8ff" d="M357.02,-219.63C359.18,-199.21 363.13,-161.81 365.52,-139.24"/>
<polygon fill="#63b8ff" stroke="#63b8ff" points="369.01,-139.54 366.58,-129.23 362.04,-138.81 369.01,-139.54"/>
</g>
<!-- Node8 -->
<g id="node8" class="node">
<title>Node8</title>
<g id="a_node8"><a xlink:title=" ">
<polygon fill="#e0e0e0" stroke="#999999" points="601.5,-184 545.5,-184 545.5,-165 601.5,-165 601.5,-184"/>
<text text-anchor="middle" x="573.5" y="-172" font-family="Helvetica,sans-Serif" font-size="10.00">unistd.h</text>
</a>
</g>
</g>
<!-- Node1&#45;&gt;Node8 -->
<g id="edge7" class="edge">
<title>Node1&#45;&gt;Node8</title>
<path fill="none" stroke="#63b8ff" d="M407.72,-219.99C447.04,-209.44 500.04,-195.21 535.43,-185.72"/>
<polygon fill="#63b8ff" stroke="#63b8ff" points="536.61,-189.02 545.36,-183.05 534.79,-182.26 536.61,-189.02"/>
</g>
<!-- Node9 -->
<g id="node9" class="node">
<title>Node9</title>
<g id="a_node9"><a xlink:href="misc_8h.html" target="_top" xlink:title=" ">
<polygon fill="white" stroke="#666666" points="687.5,-184 619.5,-184 619.5,-165 687.5,-165 687.5,-184"/>
<text text-anchor="middle" x="653.5" y="-172" font-family="Helvetica,sans-Serif" font-size="10.00">my/misc.h</text>
</a>
</g>
</g>
<!-- Node1&#45;&gt;Node9 -->
<g id="edge8" class="edge">
<title>Node1&#45;&gt;Node9</title>
<path fill="none" stroke="#63b8ff" d="M414.25,-222.51C463.61,-212.84 536.33,-198.6 608.98,-184.3"/>
<polygon fill="#63b8ff" stroke="#63b8ff" points="610.1,-187.64 619.23,-182.28 608.75,-180.78 610.1,-187.64"/>
</g>
<!-- Node10 -->
<g id="node10" class="node">
<title>Node10</title>
<g id="a_node10"><a xlink:href="ast_8h.html" target="_top" xlink:title=" ">
<polygon fill="white" stroke="#666666" points="469,-129 428,-129 428,-110 469,-110 469,-129"/>
<text text-anchor="middle" x="448.5" y="-117" font-family="Helvetica,sans-Serif" font-size="10.00">ast.h</text>
</a>
</g>
</g>
<!-- Node1&#45;&gt;Node10 -->
<g id="edge9" class="edge">
<title>Node1&#45;&gt;Node10</title>
<path fill="none" stroke="#63b8ff" d="M367.28,-219.63C384.54,-198.56 416.63,-159.4 434.88,-137.13"/>
<polygon fill="#63b8ff" stroke="#63b8ff" points="437.72,-139.18 441.35,-129.23 432.3,-134.75 437.72,-139.18"/>
</g>
<!-- Node12 -->
<g id="node12" class="node">
<title>Node12</title>
<g id="a_node12"><a xlink:href="executer_8h.html" target="_top" xlink:title=" ">
<polygon fill="white" stroke="#666666" points="489,-184 422,-184 422,-165 489,-165 489,-184"/>
<text text-anchor="middle" x="455.5" y="-172" font-family="Helvetica,sans-Serif" font-size="10.00">executer.h</text>
</a>
</g>
</g>
<!-- Node1&#45;&gt;Node12 -->
<g id="edge11" class="edge">
<title>Node1&#45;&gt;Node12</title>
<path fill="none" stroke="#63b8ff" d="M379.45,-219.99C395.39,-210.66 416.23,-198.47 432.06,-189.21"/>
<polygon fill="#63b8ff" stroke="#63b8ff" points="433.87,-192.21 440.73,-184.14 430.33,-186.17 433.87,-192.21"/>
</g>
<!-- Node13 -->
<g id="node13" class="node">
<title>Node13</title>
<g id="a_node13"><a xlink:href="shell_8h.html" target="_top" xlink:title=" ">
<polygon fill="white" stroke="#666666" points="536,-129 487,-129 487,-110 536,-110 536,-129"/>
<text text-anchor="middle" x="511.5" y="-117" font-family="Helvetica,sans-Serif" font-size="10.00">shell.h</text>
</a>
</g>
</g>
<!-- Node1&#45;&gt;Node13 -->
<g id="edge17" class="edge">
<title>Node1&#45;&gt;Node13</title>
<path fill="none" stroke="#63b8ff" d="M414.31,-227.18C443.65,-220.75 477.3,-208.26 498.5,-184 509.14,-171.82 511.93,-153.3 512.33,-139.39"/>
<polygon fill="#63b8ff" stroke="#63b8ff" points="515.83,-139.01 512.23,-129.04 508.83,-139.08 515.83,-139.01"/>
</g>
<!-- Node11 -->
<g id="node11" class="node">
<title>Node11</title>
<g id="a_node11"><a xlink:title=" ">
<polygon fill="#e0e0e0" stroke="#999999" points="507.5,-19 451.5,-19 451.5,0 507.5,0 507.5,-19"/>
<text text-anchor="middle" x="479.5" y="-7" font-family="Helvetica,sans-Serif" font-size="10.00">stddef.h</text>
</a>
</g>
</g>
<!-- Node10&#45;&gt;Node11 -->
<g id="edge10" class="edge">
<title>Node10&#45;&gt;Node11</title>
<path fill="none" stroke="#63b8ff" d="M451.04,-109.66C456.08,-92.09 467.46,-52.45 474.2,-28.95"/>
<polygon fill="#63b8ff" stroke="#63b8ff" points="477.62,-29.74 477.01,-19.16 470.89,-27.8 477.62,-29.74"/>
</g>
<!-- Node12&#45;&gt;Node7 -->
<g id="edge16" class="edge">
<title>Node12&#45;&gt;Node7</title>
<path fill="none" stroke="#63b8ff" d="M441.36,-164.98C427.71,-156.77 406.81,-144.18 390.72,-134.49"/>
<polygon fill="#63b8ff" stroke="#63b8ff" points="392.27,-131.33 381.9,-129.17 388.66,-137.33 392.27,-131.33"/>
</g>
<!-- Node12&#45;&gt;Node10 -->
<g id="edge12" class="edge">
<title>Node12&#45;&gt;Node10</title>
<path fill="none" stroke="#63b8ff" d="M454.34,-164.75C453.43,-157.8 452.11,-147.85 450.96,-139.13"/>
<polygon fill="#63b8ff" stroke="#63b8ff" points="454.41,-138.54 449.63,-129.09 447.47,-139.46 454.41,-138.54"/>
</g>
<!-- Node12&#45;&gt;Node13 -->
<g id="edge13" class="edge">
<title>Node12&#45;&gt;Node13</title>
<path fill="none" stroke="#63b8ff" d="M464.5,-164.98C472.69,-157.23 485.01,-145.58 494.97,-136.14"/>
<polygon fill="#63b8ff" stroke="#63b8ff" points="497.48,-138.59 502.34,-129.17 492.67,-133.5 497.48,-138.59"/>
</g>
<!-- Node14 -->
<g id="node14" class="node">
<title>Node14</title>
<g id="a_node14"><a xlink:href="list_8h.html" target="_top" xlink:title=" ">
<polygon fill="white" stroke="#666666" points="539,-74 480,-74 480,-55 539,-55 539,-74"/>
<text text-anchor="middle" x="509.5" y="-62" font-family="Helvetica,sans-Serif" font-size="10.00">my/list.h</text>
</a>
</g>
</g>
<!-- Node13&#45;&gt;Node14 -->
<g id="edge14" class="edge">
<title>Node13&#45;&gt;Node14</title>
<path fill="none" stroke="#63b8ff" d="M511.17,-109.75C510.91,-102.8 510.53,-92.85 510.2,-84.13"/>
<polygon fill="#63b8ff" stroke="#63b8ff" points="513.7,-83.95 509.82,-74.09 506.7,-84.21 513.7,-83.95"/>
</g>
<!-- Node14&#45;&gt;Node11 -->
<g id="edge15" class="edge">
<title>Node14&#45;&gt;Node11</title>
<path fill="none" stroke="#63b8ff" d="M504.55,-54.75C500.44,-47.49 494.47,-36.95 489.4,-27.98"/>
<polygon fill="#63b8ff" stroke="#63b8ff" points="492.33,-26.07 484.36,-19.09 486.24,-29.52 492.33,-26.07"/>
</g>
</g>
</svg>
