<?xml version="1.0" encoding="UTF-8" standalone="no"?>
<!DOCTYPE svg PUBLIC "-//W3C//DTD SVG 1.1//EN"
 "http://www.w3.org/Graphics/SVG/1.1/DTD/svg11.dtd">
<!-- Generated by graphviz version 2.43.0 (0)
 -->
<!-- Title: execute_command_substitution Pages: 1 -->
<svg width="1633pt" height="736pt"
 viewBox="0.00 0.00 1633.00 735.50" xmlns="http://www.w3.org/2000/svg" xmlns:xlink="http://www.w3.org/1999/xlink">
<g id="graph0" class="graph" transform="scale(1 1) rotate(0) translate(4 731.5)">
<title>execute_command_substitution</title>
<!-- Node1 -->
<g id="node1" class="node">
<title>Node1</title>
<g id="a_node1"><a xlink:title=" ">
<polygon fill="#999999" stroke="#666666" points="172,-369.5 0,-369.5 0,-350.5 172,-350.5 172,-369.5"/>
<text text-anchor="middle" x="86" y="-357.5" font-family="Helvetica,sans-Serif" font-size="10.00">execute_command_substitution</text>
</a>
</g>
</g>
<!-- Node2 -->
<g id="node2" class="node">
<title>Node2</title>
<g id="a_node2"><a xlink:href="execute__command__substitution_8c.html#a075d95090572b6eefee6062c788e021f" target="_top" xlink:title=" ">
<polygon fill="white" stroke="#666666" points="334,-462.5 231,-462.5 231,-443.5 334,-443.5 334,-462.5"/>
<text text-anchor="middle" x="282.5" y="-450.5" font-family="Helvetica,sans-Serif" font-size="10.00">handle_fork_error</text>
</a>
</g>
</g>
<!-- Node1&#45;&gt;Node2 -->
<g id="edge1" class="edge">
<title>Node1&#45;&gt;Node2</title>
<path fill="none" stroke="#63b8ff" d="M99.73,-369.56C121.06,-385.16 165.83,-416.13 208,-434 213.73,-436.43 219.85,-438.61 226.02,-440.55"/>
<polygon fill="#63b8ff" stroke="#63b8ff" points="225.13,-443.94 235.71,-443.4 227.11,-437.22 225.13,-443.94"/>
</g>
<!-- Node3 -->
<g id="node3" class="node">
<title>Node3</title>
<g id="a_node3"><a xlink:href="execute__command__substitution_8c.html#af0e085937d4d6fbc3feb274895606e50" target="_top" xlink:title=" ">
<polygon fill="white" stroke="#666666" points="334.5,-425.5 230.5,-425.5 230.5,-406.5 334.5,-406.5 334.5,-425.5"/>
<text text-anchor="middle" x="282.5" y="-413.5" font-family="Helvetica,sans-Serif" font-size="10.00">handle_pipe_error</text>
</a>
</g>
</g>
<!-- Node1&#45;&gt;Node3 -->
<g id="edge2" class="edge">
<title>Node1&#45;&gt;Node3</title>
<path fill="none" stroke="#63b8ff" d="M117.23,-369.64C141.64,-377.34 176.92,-388.24 208,-397 216.21,-399.31 224.96,-401.67 233.46,-403.9"/>
<polygon fill="#63b8ff" stroke="#63b8ff" points="232.71,-407.33 243.27,-406.45 234.47,-400.55 232.71,-407.33"/>
</g>
<!-- Node4 -->
<g id="node4" class="node">
<title>Node4</title>
<g id="a_node4"><a xlink:href="execute__command__substitution_8c.html#aebaa8b3d8f96bd07e2efb13393b1fa13" target="_top" xlink:title=" ">
<polygon fill="white" stroke="#666666" points="333,-388.5 232,-388.5 232,-369.5 333,-369.5 333,-388.5"/>
<text text-anchor="middle" x="282.5" y="-376.5" font-family="Helvetica,sans-Serif" font-size="10.00">read_pipe_output</text>
</a>
</g>
</g>
<!-- Node1&#45;&gt;Node4 -->
<g id="edge3" class="edge">
<title>Node1&#45;&gt;Node4</title>
<path fill="none" stroke="#63b8ff" d="M172.03,-368.31C188.8,-369.94 206.06,-371.63 221.78,-373.17"/>
<polygon fill="#63b8ff" stroke="#63b8ff" points="221.57,-376.66 231.86,-374.15 222.25,-369.7 221.57,-376.66"/>
</g>
<!-- Node6 -->
<g id="node6" class="node">
<title>Node6</title>
<g id="a_node6"><a xlink:href="execute__command__substitution_8c.html#a49d3b6ea9dfddcfae1e4193b46064722" target="_top" xlink:title=" ">
<polygon fill="white" stroke="#666666" points="345.5,-351.5 219.5,-351.5 219.5,-332.5 345.5,-332.5 345.5,-351.5"/>
<text text-anchor="middle" x="282.5" y="-339.5" font-family="Helvetica,sans-Serif" font-size="10.00">remove_end_newlines</text>
</a>
</g>
</g>
<!-- Node1&#45;&gt;Node6 -->
<g id="edge5" class="edge">
<title>Node1&#45;&gt;Node6</title>
<path fill="none" stroke="#63b8ff" d="M172.03,-352.13C184.49,-350.98 197.22,-349.8 209.38,-348.67"/>
<polygon fill="#63b8ff" stroke="#63b8ff" points="209.82,-352.15 219.45,-347.74 209.17,-345.18 209.82,-352.15"/>
</g>
<!-- Node7 -->
<g id="node7" class="node">
<title>Node7</title>
<g id="a_node7"><a xlink:href="execute__command__substitution_8c.html#a230d3e2be0c3d7360a8cf2a810878cf2" target="_top" xlink:title=" ">
<polygon fill="white" stroke="#666666" points="357,-255.5 208,-255.5 208,-236.5 357,-236.5 357,-255.5"/>
<text text-anchor="middle" x="282.5" y="-243.5" font-family="Helvetica,sans-Serif" font-size="10.00">run_command_substitution</text>
</a>
</g>
</g>
<!-- Node1&#45;&gt;Node7 -->
<g id="edge6" class="edge">
<title>Node1&#45;&gt;Node7</title>
<path fill="none" stroke="#63b8ff" d="M103.25,-350.48C137.21,-330.57 215.93,-284.43 256.43,-260.69"/>
<polygon fill="#63b8ff" stroke="#63b8ff" points="258.3,-263.65 265.16,-255.58 254.76,-257.61 258.3,-263.65"/>
</g>
<!-- Node19 -->
<g id="node26" class="node">
<title>Node19</title>
<g id="a_node26"><a xlink:href="wait__for__subprocess_8c.html#a1242d78540fd0ddef3d98a9f294cb0d4" target="_top" xlink:title=" ">
<polygon fill="white" stroke="#666666" points="927,-351.5 811,-351.5 811,-332.5 927,-332.5 927,-351.5"/>
<text text-anchor="middle" x="869" y="-339.5" font-family="Helvetica,sans-Serif" font-size="10.00">wait_for_subprocess</text>
</a>
</g>
</g>
<!-- Node1&#45;&gt;Node19 -->
<g id="edge71" class="edge">
<title>Node1&#45;&gt;Node19</title>
<path fill="none" stroke="#63b8ff" d="M112.56,-350.42C136.77,-341.76 174.34,-329.43 208,-323 310.71,-303.38 337.94,-304 442.5,-304 442.5,-304 442.5,-304 576.5,-304 664.24,-304 686.2,-310.16 773,-323 786.66,-325.02 801.32,-327.7 814.94,-330.4"/>
<polygon fill="#63b8ff" stroke="#63b8ff" points="814.63,-333.91 825.13,-332.47 816.02,-327.05 814.63,-333.91"/>
</g>
<!-- Node5 -->
<g id="node5" class="node">
<title>Node5</title>
<g id="a_node5"><a xlink:href="strings_8h.html#a5e1589f073ac32d227dbc6020c376dab" target="_top" xlink:title=" ">
<polygon fill="white" stroke="#666666" points="494,-388.5 393,-388.5 393,-369.5 494,-369.5 494,-388.5"/>
<text text-anchor="middle" x="443.5" y="-376.5" font-family="Helvetica,sans-Serif" font-size="10.00">append_to_buffer</text>
</a>
</g>
</g>
<!-- Node4&#45;&gt;Node5 -->
<g id="edge4" class="edge">
<title>Node4&#45;&gt;Node5</title>
<path fill="none" stroke="#63b8ff" d="M333.37,-379C348.91,-379 366.21,-379 382.38,-379"/>
<polygon fill="#63b8ff" stroke="#63b8ff" points="382.8,-382.5 392.8,-379 382.8,-375.5 382.8,-382.5"/>
</g>
<!-- Node8 -->
<g id="node8" class="node">
<title>Node8</title>
<g id="a_node8"><a xlink:href="shell_8c.html#afb5215a1775326d8976fd015f7832392" target="_top" xlink:title=" ">
<polygon fill="white" stroke="#666666" points="483.5,-209.5 403.5,-209.5 403.5,-190.5 483.5,-190.5 483.5,-209.5"/>
<text text-anchor="middle" x="443.5" y="-197.5" font-family="Helvetica,sans-Serif" font-size="10.00">handle_input</text>
</a>
</g>
</g>
<!-- Node7&#45;&gt;Node8 -->
<g id="edge7" class="edge">
<title>Node7&#45;&gt;Node8</title>
<path fill="none" stroke="#63b8ff" d="M316.44,-236.47C340.64,-229.47 373.72,-219.9 399.92,-212.32"/>
<polygon fill="#63b8ff" stroke="#63b8ff" points="400.96,-215.66 409.6,-209.52 399.02,-208.94 400.96,-215.66"/>
</g>
<!-- Node9 -->
<g id="node9" class="node">
<title>Node9</title>
<g id="a_node9"><a xlink:href="ast__destroy_8c.html#a04c67d7ab492f6e1e7bc44dc70faa057" target="_top" xlink:title=" ">
<polygon fill="white" stroke="#666666" points="1209,-85.5 1135,-85.5 1135,-66.5 1209,-66.5 1209,-85.5"/>
<text text-anchor="middle" x="1172" y="-73.5" font-family="Helvetica,sans-Serif" font-size="10.00">ast_destroy</text>
</a>
</g>
</g>
<!-- Node8&#45;&gt;Node9 -->
<g id="edge8" class="edge">
<title>Node8&#45;&gt;Node9</title>
<path fill="none" stroke="#63b8ff" d="M452.68,-190.35C483.24,-155.48 594.99,-38 714,-38 714,-38 714,-38 870,-38 960.68,-38 1065.53,-55.19 1124.47,-66.44"/>
<polygon fill="#63b8ff" stroke="#63b8ff" points="1124.1,-69.94 1134.58,-68.4 1125.43,-63.06 1124.1,-69.94"/>
</g>
<!-- Node11 -->
<g id="node11" class="node">
<title>Node11</title>
<g id="a_node11"><a xlink:href="execute__ast_8c.html#ad26a20a665ab7fdeb714ed53c1afd104" target="_top" xlink:title=" ">
<polygon fill="white" stroke="#666666" points="613,-579.5 538,-579.5 538,-560.5 613,-560.5 613,-579.5"/>
<text text-anchor="middle" x="575.5" y="-567.5" font-family="Helvetica,sans-Serif" font-size="10.00">execute_ast</text>
</a>
</g>
</g>
<!-- Node8&#45;&gt;Node11 -->
<g id="edge11" class="edge">
<title>Node8&#45;&gt;Node11</title>
<path fill="none" stroke="#63b8ff" d="M447.84,-209.52C465.05,-258.48 543.7,-482.35 567.6,-550.35"/>
<polygon fill="#63b8ff" stroke="#63b8ff" points="564.44,-551.93 571.06,-560.2 571.05,-549.61 564.44,-551.93"/>
</g>
<!-- Node45 -->
<g id="node35" class="node">
<title>Node45</title>
<g id="a_node35"><a xlink:href="shell_8c.html#a6e35892cfa82c5f227b10f37abc529e9" target="_top" xlink:title=" ">
<polygon fill="white" stroke="#666666" points="621,-190.5 530,-190.5 530,-171.5 621,-171.5 621,-190.5"/>
<text text-anchor="middle" x="575.5" y="-178.5" font-family="Helvetica,sans-Serif" font-size="10.00">handle_parsing</text>
</a>
</g>
</g>
<!-- Node8&#45;&gt;Node45 -->
<g id="edge47" class="edge">
<title>Node8&#45;&gt;Node45</title>
<path fill="none" stroke="#63b8ff" d="M483.5,-194.3C494.84,-192.64 507.44,-190.8 519.56,-189.03"/>
<polygon fill="#63b8ff" stroke="#63b8ff" points="520.2,-192.47 529.59,-187.56 519.19,-185.55 520.2,-192.47"/>
</g>
<!-- Node129 -->
<g id="node47" class="node">
<title>Node129</title>
<g id="a_node47"><a xlink:href="shell_8c.html#a1ce512725ee0371f8bf608a3ece0c152" target="_top" xlink:title=" ">
<polygon fill="white" stroke="#666666" points="929,-134.5 809,-134.5 809,-115.5 929,-115.5 929,-134.5"/>
<text text-anchor="middle" x="869" y="-122.5" font-family="Helvetica,sans-Serif" font-size="10.00">show_error_message</text>
</a>
</g>
</g>
<!-- Node8&#45;&gt;Node129 -->
<g id="edge70" class="edge">
<title>Node8&#45;&gt;Node129</title>
<path fill="none" stroke="#63b8ff" d="M462.31,-190.38C479.24,-181.65 505.67,-169.08 530,-162 620.3,-135.71 729.12,-127.81 798.43,-125.59"/>
<polygon fill="#63b8ff" stroke="#63b8ff" points="798.89,-129.08 808.78,-125.3 798.69,-122.09 798.89,-129.08"/>
</g>
<!-- Node130 -->
<g id="node48" class="node">
<title>Node130</title>
<g id="a_node48"><a xlink:href="lexer__init_8c.html#aee55447f2c8b083ed2614fa4f439f9cc" target="_top" xlink:title=" ">
<polygon fill="white" stroke="#666666" points="606.5,-264.5 544.5,-264.5 544.5,-245.5 606.5,-245.5 606.5,-264.5"/>
<text text-anchor="middle" x="575.5" y="-252.5" font-family="Helvetica,sans-Serif" font-size="10.00">lexer_init</text>
</a>
</g>
</g>
<!-- Node8&#45;&gt;Node130 -->
<g id="edge65" class="edge">
<title>Node8&#45;&gt;Node130</title>
<path fill="none" stroke="#63b8ff" d="M467.14,-209.58C487.9,-218.36 518.85,-231.45 542.19,-241.33"/>
<polygon fill="#63b8ff" stroke="#63b8ff" points="541.11,-244.67 551.68,-245.34 543.83,-238.23 541.11,-244.67"/>
</g>
<!-- Node131 -->
<g id="node49" class="node">
<title>Node131</title>
<g id="a_node49"><a xlink:href="parser__destroy_8c.html#ae2656460a6fc6b6cd65624312fe0c943" target="_top" xlink:title=" ">
<polygon fill="white" stroke="#666666" points="1359,-29.5 1270,-29.5 1270,-10.5 1359,-10.5 1359,-29.5"/>
<text text-anchor="middle" x="1314.5" y="-17.5" font-family="Helvetica,sans-Serif" font-size="10.00">parser_destroy</text>
</a>
</g>
</g>
<!-- Node8&#45;&gt;Node131 -->
<g id="edge66" class="edge">
<title>Node8&#45;&gt;Node131</title>
<path fill="none" stroke="#63b8ff" d="M447.55,-190.44C456.18,-164.95 483.2,-94.85 530,-58 597.36,-4.95 628.26,0 714,0 714,0 714,0 1027.5,0 1108.56,0 1202.24,-8.09 1259.67,-13.98"/>
<polygon fill="#63b8ff" stroke="#63b8ff" points="1259.65,-17.5 1269.96,-15.06 1260.37,-10.54 1259.65,-17.5"/>
</g>
<!-- Node132 -->
<g id="node50" class="node">
<title>Node132</title>
<g id="a_node50"><a xlink:href="parser__init_8c.html#a7a5dc445fa057a393d0b94590acea2f1" target="_top" xlink:title=" ">
<polygon fill="white" stroke="#666666" points="609.5,-227.5 541.5,-227.5 541.5,-208.5 609.5,-208.5 609.5,-227.5"/>
<text text-anchor="middle" x="575.5" y="-215.5" font-family="Helvetica,sans-Serif" font-size="10.00">parser_init</text>
</a>
</g>
</g>
<!-- Node8&#45;&gt;Node132 -->
<g id="edge68" class="edge">
<title>Node8&#45;&gt;Node132</title>
<path fill="none" stroke="#63b8ff" d="M483.5,-205.4C498.45,-207.47 515.6,-209.84 530.95,-211.97"/>
<polygon fill="#63b8ff" stroke="#63b8ff" points="530.85,-215.49 541.24,-213.39 531.81,-208.56 530.85,-215.49"/>
</g>
<!-- Node9&#45;&gt;Node9 -->
<g id="edge9" class="edge">
<title>Node9&#45;&gt;Node9</title>
<path fill="none" stroke="#63b8ff" d="M1150.11,-85.58C1139.47,-94.23 1146.76,-103.5 1172,-103.5 1188.17,-103.5 1196.97,-99.7 1198.41,-94.69"/>
<polygon fill="#63b8ff" stroke="#63b8ff" points="1201.47,-92.98 1193.89,-85.58 1195.2,-96.1 1201.47,-92.98"/>
</g>
<!-- Node10 -->
<g id="node10" class="node">
<title>Node10</title>
<g id="a_node10"><a xlink:href="misc_8h.html#a1180cae2875b1fdcd58c9f9175a82c12" target="_top" xlink:title=" ">
<polygon fill="white" stroke="#666666" points="1373,-85.5 1256,-85.5 1256,-66.5 1373,-66.5 1373,-85.5"/>
<text text-anchor="middle" x="1314.5" y="-73.5" font-family="Helvetica,sans-Serif" font-size="10.00">my_free_word_array</text>
</a>
</g>
</g>
<!-- Node9&#45;&gt;Node10 -->
<g id="edge10" class="edge">
<title>Node9&#45;&gt;Node10</title>
<path fill="none" stroke="#63b8ff" d="M1209.18,-76C1220.41,-76 1233.17,-76 1245.82,-76"/>
<polygon fill="#63b8ff" stroke="#63b8ff" points="1245.91,-79.5 1255.91,-76 1245.91,-72.5 1245.91,-79.5"/>
</g>
<!-- Node12 -->
<g id="node12" class="node">
<title>Node12</title>
<g id="a_node12"><a xlink:href="execute__cmd_8c.html#a94ea9cc5a046ce96e36764bf0e4fa2c0" target="_top" xlink:title=" ">
<polygon fill="white" stroke="#666666" points="755.5,-503.5 674.5,-503.5 674.5,-484.5 755.5,-484.5 755.5,-503.5"/>
<text text-anchor="middle" x="715" y="-491.5" font-family="Helvetica,sans-Serif" font-size="10.00">execute_cmd</text>
</a>
</g>
</g>
<!-- Node11&#45;&gt;Node12 -->
<g id="edge12" class="edge">
<title>Node11&#45;&gt;Node12</title>
<path fill="none" stroke="#63b8ff" d="M589.74,-560.42C605.34,-549.37 632.29,-531.06 657,-518 664.08,-514.26 671.86,-510.67 679.35,-507.45"/>
<polygon fill="#63b8ff" stroke="#63b8ff" points="680.71,-510.67 688.59,-503.59 678.01,-504.21 680.71,-510.67"/>
</g>
<!-- Node27 -->
<g id="node19" class="node">
<title>Node27</title>
<g id="a_node19"><a xlink:href="execute__logical__and_8c.html#a4f940752faf9f9a258c49810b21efe47" target="_top" xlink:title=" ">
<polygon fill="white" stroke="#666666" points="773,-616.5 657,-616.5 657,-597.5 773,-597.5 773,-616.5"/>
<text text-anchor="middle" x="715" y="-604.5" font-family="Helvetica,sans-Serif" font-size="10.00">execute_logical_and</text>
</a>
</g>
</g>
<!-- Node11&#45;&gt;Node27 -->
<g id="edge20" class="edge">
<title>Node11&#45;&gt;Node27</title>
<path fill="none" stroke="#63b8ff" d="M613.35,-573.86C636.32,-578.97 665.39,-586.96 686.38,-594.03"/>
<polygon fill="#63b8ff" stroke="#63b8ff" points="685.38,-597.39 695.97,-597.41 687.7,-590.79 685.38,-597.39"/>
</g>
<!-- Node28 -->
<g id="node20" class="node">
<title>Node28</title>
<g id="a_node20"><a xlink:href="execute__logical__or_8c.html#a7e732d7c30b07010fa55850051007dcc" target="_top" xlink:title=" ">
<polygon fill="white" stroke="#666666" points="768.5,-579.5 661.5,-579.5 661.5,-560.5 768.5,-560.5 768.5,-579.5"/>
<text text-anchor="middle" x="715" y="-567.5" font-family="Helvetica,sans-Serif" font-size="10.00">execute_logical_or</text>
</a>
</g>
</g>
<!-- Node11&#45;&gt;Node28 -->
<g id="edge22" class="edge">
<title>Node11&#45;&gt;Node28</title>
<path fill="none" stroke="#63b8ff" d="M613.35,-563.94C624.96,-563.4 638.13,-563.18 651.03,-563.27"/>
<polygon fill="#63b8ff" stroke="#63b8ff" points="651.23,-566.77 661.28,-563.42 651.33,-559.78 651.23,-566.77"/>
</g>
<!-- Node29 -->
<g id="node21" class="node">
<title>Node29</title>
<g id="a_node21"><a xlink:href="execute__pipe_8c.html#a5f3546dc2c7cf06c982afba41e722164" target="_top" xlink:title=" ">
<polygon fill="white" stroke="#666666" points="755.5,-427.5 674.5,-427.5 674.5,-408.5 755.5,-408.5 755.5,-427.5"/>
<text text-anchor="middle" x="715" y="-415.5" font-family="Helvetica,sans-Serif" font-size="10.00">execute_pipe</text>
</a>
</g>
</g>
<!-- Node11&#45;&gt;Node29 -->
<g id="edge24" class="edge">
<title>Node11&#45;&gt;Node29</title>
<path fill="none" stroke="#63b8ff" d="M580.2,-560.25C589.56,-536.77 616.38,-476.49 657,-442 661.61,-438.08 666.96,-434.73 672.49,-431.87"/>
<polygon fill="#63b8ff" stroke="#63b8ff" points="674.27,-434.91 681.88,-427.54 671.34,-428.55 674.27,-434.91"/>
</g>
<!-- Node34 -->
<g id="node28" class="node">
<title>Node34</title>
<g id="a_node28"><a xlink:href="execute__redirect_8c.html#a1004307aba80117ddd99f009e52fb155" target="_top" xlink:title=" ">
<polygon fill="white" stroke="#666666" points="764,-727.5 666,-727.5 666,-708.5 764,-708.5 764,-727.5"/>
<text text-anchor="middle" x="715" y="-715.5" font-family="Helvetica,sans-Serif" font-size="10.00">execute_redirect</text>
</a>
</g>
</g>
<!-- Node11&#45;&gt;Node34 -->
<g id="edge35" class="edge">
<title>Node11&#45;&gt;Node34</title>
<path fill="none" stroke="#63b8ff" d="M579.82,-579.8C588.52,-603.94 614.26,-666.75 657,-700 658.8,-701.4 660.7,-702.69 662.69,-703.88"/>
<polygon fill="#63b8ff" stroke="#63b8ff" points="661.3,-707.1 671.8,-708.49 664.46,-700.85 661.3,-707.1"/>
</g>
<!-- Node42 -->
<g id="node32" class="node">
<title>Node42</title>
<g id="a_node32"><a xlink:href="execute__repeat_8c.html#a00d48683c54b50130b4a402e6e97fa97" target="_top" xlink:title=" ">
<polygon fill="white" stroke="#666666" points="761,-690.5 669,-690.5 669,-671.5 761,-671.5 761,-690.5"/>
<text text-anchor="middle" x="715" y="-678.5" font-family="Helvetica,sans-Serif" font-size="10.00">execute_repeat</text>
</a>
</g>
</g>
<!-- Node11&#45;&gt;Node42 -->
<g id="edge40" class="edge">
<title>Node11&#45;&gt;Node42</title>
<path fill="none" stroke="#63b8ff" d="M586.2,-579.75C599.62,-597.55 625.77,-633.47 657,-654 666.73,-660.39 678.87,-664.64 689.45,-668.15"/>
<polygon fill="#63b8ff" stroke="#63b8ff" points="688.38,-671.49 698.98,-671.34 690.6,-664.85 688.38,-671.49"/>
</g>
<!-- Node43 -->
<g id="node33" class="node">
<title>Node43</title>
<g id="a_node33"><a xlink:href="execute__sequence_8c.html#aad2caa5bf50b0752dd8272da477ec231" target="_top" xlink:title=" ">
<polygon fill="white" stroke="#666666" points="768.5,-653.5 661.5,-653.5 661.5,-634.5 768.5,-634.5 768.5,-653.5"/>
<text text-anchor="middle" x="715" y="-641.5" font-family="Helvetica,sans-Serif" font-size="10.00">execute_sequence</text>
</a>
</g>
</g>
<!-- Node11&#45;&gt;Node43 -->
<g id="edge42" class="edge">
<title>Node11&#45;&gt;Node43</title>
<path fill="none" stroke="#63b8ff" d="M597.27,-579.62C612.91,-590.27 635.3,-606.34 657,-617 668.15,-622.48 681.34,-626.77 692.22,-630.71"/>
<polygon fill="#63b8ff" stroke="#63b8ff" points="691.22,-634.07 701.81,-634.4 693.73,-627.54 691.22,-634.07"/>
</g>
<!-- Node44 -->
<g id="node34" class="node">
<title>Node44</title>
<g id="a_node34"><a xlink:href="execute__subshell_8c.html#a40a27866de012b013a337f794a858d70" target="_top" xlink:title=" ">
<polygon fill="white" stroke="#666666" points="765.5,-351.5 664.5,-351.5 664.5,-332.5 765.5,-332.5 765.5,-351.5"/>
<text text-anchor="middle" x="715" y="-339.5" font-family="Helvetica,sans-Serif" font-size="10.00">execute_subshell</text>
</a>
</g>
</g>
<!-- Node11&#45;&gt;Node44 -->
<g id="edge44" class="edge">
<title>Node11&#45;&gt;Node44</title>
<path fill="none" stroke="#63b8ff" d="M577.26,-560.23C580.64,-527.72 596.66,-425.43 657.23,-358.31"/>
<polygon fill="#63b8ff" stroke="#63b8ff" points="660.09,-360.38 664.43,-350.72 655.01,-355.57 660.09,-360.38"/>
</g>
<!-- Node13 -->
<g id="node13" class="node">
<title>Node13</title>
<g id="a_node13"><a xlink:href="execute__cmd_8c.html#a0cfd2364134e68efdd39533e00b4b0d9" target="_top" xlink:title=" ">
<polygon fill="white" stroke="#666666" points="928.5,-577.5 809.5,-577.5 809.5,-558.5 928.5,-558.5 928.5,-577.5"/>
<text text-anchor="middle" x="869" y="-565.5" font-family="Helvetica,sans-Serif" font-size="10.00">execute_local_binary</text>
</a>
</g>
</g>
<!-- Node12&#45;&gt;Node13 -->
<g id="edge13" class="edge">
<title>Node12&#45;&gt;Node13</title>
<path fill="none" stroke="#63b8ff" d="M743.53,-503.57C753.18,-507.45 763.87,-512.34 773,-518 790.95,-529.12 790.59,-538.67 809,-549 812.75,-551.1 816.76,-553.01 820.87,-554.74"/>
<polygon fill="#63b8ff" stroke="#63b8ff" points="819.95,-558.13 830.54,-558.43 822.45,-551.59 819.95,-558.13"/>
</g>
<!-- Node21 -->
<g id="node15" class="node">
<title>Node21</title>
<g id="a_node15"><a xlink:href="execute__cmd_8c.html#a460126af28ab29df4340554fae9fc57a" target="_top" xlink:title=" ">
<polygon fill="white" stroke="#666666" points="928,-539.5 810,-539.5 810,-520.5 928,-520.5 928,-539.5"/>
<text text-anchor="middle" x="869" y="-527.5" font-family="Helvetica,sans-Serif" font-size="10.00">execute_path_binary</text>
</a>
</g>
</g>
<!-- Node12&#45;&gt;Node21 -->
<g id="edge15" class="edge">
<title>Node12&#45;&gt;Node21</title>
<path fill="none" stroke="#63b8ff" d="M755.54,-503.36C774.58,-507.87 797.62,-513.33 817.87,-518.13"/>
<polygon fill="#63b8ff" stroke="#63b8ff" points="817.33,-521.6 827.87,-520.49 818.94,-514.78 817.33,-521.6"/>
</g>
<!-- Node26 -->
<g id="node18" class="node">
<title>Node26</title>
<g id="a_node18"><a xlink:href="strings_8h.html#a36f055c4e56c8a784629908d0c5b91e5" target="_top" xlink:title=" ">
<polygon fill="white" stroke="#666666" points="921,-502.5 817,-502.5 817,-483.5 921,-483.5 921,-502.5"/>
<text text-anchor="middle" x="869" y="-490.5" font-family="Helvetica,sans-Serif" font-size="10.00">my_is_char_in_str</text>
</a>
</g>
</g>
<!-- Node12&#45;&gt;Node26 -->
<g id="edge19" class="edge">
<title>Node12&#45;&gt;Node26</title>
<path fill="none" stroke="#63b8ff" d="M755.54,-493.74C771.2,-493.64 789.57,-493.52 806.87,-493.4"/>
<polygon fill="#63b8ff" stroke="#63b8ff" points="806.93,-496.9 816.9,-493.34 806.88,-489.9 806.93,-496.9"/>
</g>
<!-- Node14 -->
<g id="node14" class="node">
<title>Node14</title>
<g id="a_node14"><a xlink:href="execute__cmd_8c.html#a018afe6a043051ebc2e3dd9412587990" target="_top" xlink:title=" ">
<polygon fill="#fff0f0" stroke="red" points="1217.5,-558.5 1126.5,-558.5 1126.5,-539.5 1217.5,-539.5 1217.5,-558.5"/>
<text text-anchor="middle" x="1172" y="-546.5" font-family="Helvetica,sans-Serif" font-size="10.00">execute_binary</text>
</a>
</g>
</g>
<!-- Node13&#45;&gt;Node14 -->
<g id="edge14" class="edge">
<title>Node13&#45;&gt;Node14</title>
<path fill="none" stroke="#63b8ff" d="M928.75,-564.29C982.96,-560.87 1062.86,-555.83 1115.89,-552.48"/>
<polygon fill="#63b8ff" stroke="#63b8ff" points="1116.36,-555.96 1126.12,-551.83 1115.92,-548.97 1116.36,-555.96"/>
</g>
<!-- Node22 -->
<g id="node16" class="node">
<title>Node22</title>
<g id="a_node16"><a xlink:href="get__variable__value_8c.html#a2edd9900f19af236aa05385a789be3d6" target="_top" xlink:title=" ">
<polygon fill="#fff0f0" stroke="red" points="1081.5,-502.5 971.5,-502.5 971.5,-483.5 1081.5,-483.5 1081.5,-502.5"/>
<text text-anchor="middle" x="1026.5" y="-490.5" font-family="Helvetica,sans-Serif" font-size="10.00">get_variable_value</text>
</a>
</g>
</g>
<!-- Node21&#45;&gt;Node22 -->
<g id="edge16" class="edge">
<title>Node21&#45;&gt;Node22</title>
<path fill="none" stroke="#63b8ff" d="M910.05,-520.47C930.01,-515.72 954.35,-509.93 975.53,-504.89"/>
<polygon fill="#63b8ff" stroke="#63b8ff" points="976.4,-508.28 985.32,-502.56 974.78,-501.47 976.4,-508.28"/>
</g>
<!-- Node24 -->
<g id="node17" class="node">
<title>Node24</title>
<g id="a_node17"><a xlink:href="execute__cmd_8c.html#aee9e13edede9df28fac066f30e7ae7ed" target="_top" xlink:title=" ">
<polygon fill="#fff0f0" stroke="red" points="1068.5,-539.5 984.5,-539.5 984.5,-520.5 1068.5,-520.5 1068.5,-539.5"/>
<text text-anchor="middle" x="1026.5" y="-527.5" font-family="Helvetica,sans-Serif" font-size="10.00">try_command</text>
</a>
</g>
</g>
<!-- Node21&#45;&gt;Node24 -->
<g id="edge17" class="edge">
<title>Node21&#45;&gt;Node24</title>
<path fill="none" stroke="#63b8ff" d="M928.34,-530C943.32,-530 959.33,-530 973.94,-530"/>
<polygon fill="#63b8ff" stroke="#63b8ff" points="974.29,-533.5 984.29,-530 974.29,-526.5 974.29,-533.5"/>
</g>
<!-- Node24&#45;&gt;Node14 -->
<g id="edge18" class="edge">
<title>Node24&#45;&gt;Node14</title>
<path fill="none" stroke="#63b8ff" d="M1068.62,-535.44C1083.43,-537.41 1100.39,-539.65 1116.18,-541.74"/>
<polygon fill="#63b8ff" stroke="#63b8ff" points="1115.98,-545.25 1126.36,-543.09 1116.9,-538.31 1115.98,-545.25"/>
</g>
<!-- Node27&#45;&gt;Node11 -->
<g id="edge21" class="edge">
<title>Node27&#45;&gt;Node11</title>
<path fill="none" stroke="#63b8ff" d="M656.73,-598.25C638.56,-593.63 619.3,-588.08 604.2,-582.99"/>
<polygon fill="#63b8ff" stroke="#63b8ff" points="605.07,-579.59 594.48,-579.57 602.74,-586.19 605.07,-579.59"/>
</g>
<!-- Node28&#45;&gt;Node11 -->
<g id="edge23" class="edge">
<title>Node28&#45;&gt;Node11</title>
<path fill="none" stroke="#63b8ff" d="M661.28,-576.58C648.91,-576.84 635.81,-576.8 623.69,-576.45"/>
<polygon fill="#63b8ff" stroke="#63b8ff" points="623.47,-572.94 613.35,-576.06 623.21,-579.93 623.47,-572.94"/>
</g>
<!-- Node30 -->
<g id="node22" class="node">
<title>Node30</title>
<g id="a_node22"><a xlink:href="execute__pipe_8c.html#a723ff799f939872d17f109a82342294e" target="_top" xlink:title=" ">
<polygon fill="white" stroke="#666666" points="1057.5,-427.5 995.5,-427.5 995.5,-408.5 1057.5,-408.5 1057.5,-427.5"/>
<text text-anchor="middle" x="1026.5" y="-415.5" font-family="Helvetica,sans-Serif" font-size="10.00">close_fds</text>
</a>
</g>
</g>
<!-- Node29&#45;&gt;Node30 -->
<g id="edge25" class="edge">
<title>Node29&#45;&gt;Node30</title>
<path fill="none" stroke="#63b8ff" d="M755.51,-418C814.7,-418 925.77,-418 985.34,-418"/>
<polygon fill="#63b8ff" stroke="#63b8ff" points="985.49,-421.5 995.49,-418 985.49,-414.5 985.49,-421.5"/>
</g>
<!-- Node31 -->
<g id="node23" class="node">
<title>Node31</title>
<g id="a_node23"><a xlink:href="execute__pipe_8c.html#ac529ffc2370b0133613ef8a81e58ed85" target="_top" xlink:title=" ">
<polygon fill="white" stroke="#666666" points="920,-465.5 818,-465.5 818,-446.5 920,-446.5 920,-465.5"/>
<text text-anchor="middle" x="869" y="-453.5" font-family="Helvetica,sans-Serif" font-size="10.00">execute_pipe_left</text>
</a>
</g>
</g>
<!-- Node29&#45;&gt;Node31 -->
<g id="edge26" class="edge">
<title>Node29&#45;&gt;Node31</title>
<path fill="none" stroke="#63b8ff" d="M754.36,-427.59C774.32,-432.58 798.93,-438.73 820.13,-444.03"/>
<polygon fill="#63b8ff" stroke="#63b8ff" points="819.37,-447.45 829.92,-446.48 821.07,-440.66 819.37,-447.45"/>
</g>
<!-- Node32 -->
<g id="node24" class="node">
<title>Node32</title>
<g id="a_node24"><a xlink:href="execute__pipe_8c.html#a9ed6eabb8a9f7049f91265a5f45e30c8" target="_top" xlink:title=" ">
<polygon fill="white" stroke="#666666" points="923.5,-389.5 814.5,-389.5 814.5,-370.5 923.5,-370.5 923.5,-389.5"/>
<text text-anchor="middle" x="869" y="-377.5" font-family="Helvetica,sans-Serif" font-size="10.00">execute_pipe_right</text>
</a>
</g>
</g>
<!-- Node29&#45;&gt;Node32 -->
<g id="edge29" class="edge">
<title>Node29&#45;&gt;Node32</title>
<path fill="none" stroke="#63b8ff" d="M754.36,-408.41C774.32,-403.42 798.93,-397.27 820.13,-391.97"/>
<polygon fill="#63b8ff" stroke="#63b8ff" points="821.07,-395.34 829.92,-389.52 819.37,-388.55 821.07,-395.34"/>
</g>
<!-- Node29&#45;&gt;Node19 -->
<g id="edge33" class="edge">
<title>Node29&#45;&gt;Node19</title>
<path fill="none" stroke="#63b8ff" d="M729.3,-408.44C746.86,-396.15 779.06,-374.76 809,-361 813.71,-358.84 818.73,-356.82 823.78,-354.96"/>
<polygon fill="#63b8ff" stroke="#63b8ff" points="825.17,-358.18 833.47,-351.6 822.87,-351.57 825.17,-358.18"/>
</g>
<!-- Node31&#45;&gt;Node11 -->
<g id="edge28" class="edge">
<title>Node31&#45;&gt;Node11</title>
<path fill="none" stroke="#63b8ff" d="M817.71,-450.19C772.99,-447.34 707.11,-448.99 657,-475 624.07,-492.09 599.12,-528.96 586.24,-551.41"/>
<polygon fill="#63b8ff" stroke="#63b8ff" points="583.09,-549.87 581.33,-560.31 589.23,-553.25 583.09,-549.87"/>
</g>
<!-- Node31&#45;&gt;Node30 -->
<g id="edge27" class="edge">
<title>Node31&#45;&gt;Node30</title>
<path fill="none" stroke="#63b8ff" d="M909.24,-446.41C932.44,-440.74 961.76,-433.58 985.15,-427.86"/>
<polygon fill="#63b8ff" stroke="#63b8ff" points="986.22,-431.2 995.1,-425.43 984.56,-424.4 986.22,-431.2"/>
</g>
<!-- Node32&#45;&gt;Node11 -->
<g id="edge31" class="edge">
<title>Node32&#45;&gt;Node11</title>
<path fill="none" stroke="#63b8ff" d="M814.05,-370.95C768.18,-366.27 702.66,-367.06 657,-399 605.34,-435.13 585.88,-513.34 579.39,-550.12"/>
<polygon fill="#63b8ff" stroke="#63b8ff" points="575.91,-549.68 577.76,-560.12 582.82,-550.8 575.91,-549.68"/>
</g>
<!-- Node32&#45;&gt;Node30 -->
<g id="edge30" class="edge">
<title>Node32&#45;&gt;Node30</title>
<path fill="none" stroke="#63b8ff" d="M909.24,-389.59C932.44,-395.26 961.76,-402.42 985.15,-408.14"/>
<polygon fill="#63b8ff" stroke="#63b8ff" points="984.56,-411.6 995.1,-410.57 986.22,-404.8 984.56,-411.6"/>
</g>
<!-- Node33 -->
<g id="node25" class="node">
<title>Node33</title>
<g id="a_node25"><a xlink:href="execute__pipe_8c.html#ac3d3a124b262676fa0679720f99a7f83" target="_top" xlink:title=" ">
<polygon fill="white" stroke="#666666" points="1066.5,-389.5 986.5,-389.5 986.5,-370.5 1066.5,-370.5 1066.5,-389.5"/>
<text text-anchor="middle" x="1026.5" y="-377.5" font-family="Helvetica,sans-Serif" font-size="10.00">restore_stdin</text>
</a>
</g>
</g>
<!-- Node32&#45;&gt;Node33 -->
<g id="edge32" class="edge">
<title>Node32&#45;&gt;Node33</title>
<path fill="none" stroke="#63b8ff" d="M923.51,-380C940.54,-380 959.29,-380 976.01,-380"/>
<polygon fill="#63b8ff" stroke="#63b8ff" points="976.13,-383.5 986.13,-380 976.13,-376.5 976.13,-383.5"/>
</g>
<!-- Node20 -->
<g id="node27" class="node">
<title>Node20</title>
<g id="a_node27"><a xlink:href="wait__for__subprocess_8c.html#a885766ba6ba593b7cf27b917dd52b1a6" target="_top" xlink:title=" ">
<polygon fill="white" stroke="#666666" points="1088,-351.5 965,-351.5 965,-332.5 1088,-332.5 1088,-351.5"/>
<text text-anchor="middle" x="1026.5" y="-339.5" font-family="Helvetica,sans-Serif" font-size="10.00">print_signal_message</text>
</a>
</g>
</g>
<!-- Node19&#45;&gt;Node20 -->
<g id="edge34" class="edge">
<title>Node19&#45;&gt;Node20</title>
<path fill="none" stroke="#63b8ff" d="M927.02,-342C936.06,-342 945.5,-342 954.81,-342"/>
<polygon fill="#63b8ff" stroke="#63b8ff" points="954.83,-345.5 964.83,-342 954.83,-338.5 954.83,-345.5"/>
</g>
<!-- Node35 -->
<g id="node29" class="node">
<title>Node35</title>
<g id="a_node29"><a xlink:href="execute__redirect_8c.html#a5aa0f008806cc0e8a7ba252d61b7001f" target="_top" xlink:title=" ">
<polygon fill="white" stroke="#666666" points="922.5,-689.5 815.5,-689.5 815.5,-670.5 922.5,-670.5 922.5,-689.5"/>
<text text-anchor="middle" x="869" y="-677.5" font-family="Helvetica,sans-Serif" font-size="10.00">redirect_execution</text>
</a>
</g>
</g>
<!-- Node34&#45;&gt;Node35 -->
<g id="edge36" class="edge">
<title>Node34&#45;&gt;Node35</title>
<path fill="none" stroke="#63b8ff" d="M754.36,-708.41C774.32,-703.42 798.93,-697.27 820.13,-691.97"/>
<polygon fill="#63b8ff" stroke="#63b8ff" points="821.07,-695.34 829.92,-689.52 819.37,-688.55 821.07,-695.34"/>
</g>
<!-- Node35&#45;&gt;Node11 -->
<g id="edge37" class="edge">
<title>Node35&#45;&gt;Node11</title>
<path fill="none" stroke="#63b8ff" d="M862.41,-670.35C846.26,-642.83 798.96,-565.06 773,-552 720.27,-525.47 649.51,-542.8 608.88,-556.98"/>
<polygon fill="#63b8ff" stroke="#63b8ff" points="607.67,-553.69 599.47,-560.39 610.06,-560.27 607.67,-553.69"/>
</g>
<!-- Node36 -->
<g id="node30" class="node">
<title>Node36</title>
<g id="a_node30"><a xlink:href="execute__redirect_8c.html#a1b8f325fc375581f81ae47a54e09cf0e" target="_top" xlink:title=" ">
<polygon fill="white" stroke="#666666" points="1059.5,-708.5 993.5,-708.5 993.5,-689.5 1059.5,-689.5 1059.5,-708.5"/>
<text text-anchor="middle" x="1026.5" y="-696.5" font-family="Helvetica,sans-Serif" font-size="10.00">restore_fd</text>
</a>
</g>
</g>
<!-- Node35&#45;&gt;Node36 -->
<g id="edge38" class="edge">
<title>Node35&#45;&gt;Node36</title>
<path fill="none" stroke="#63b8ff" d="M922.65,-686.43C942.42,-688.85 964.62,-691.56 983.32,-693.85"/>
<polygon fill="#63b8ff" stroke="#63b8ff" points="982.96,-697.33 993.32,-695.07 983.81,-690.38 982.96,-697.33"/>
</g>
<!-- Node37 -->
<g id="node31" class="node">
<title>Node37</title>
<g id="a_node31"><a xlink:href="execute__redirect_8c.html#a6cb002bd51f2009eaacc66d388c5f9a7" target="_top" xlink:title=" ">
<polygon fill="#fff0f0" stroke="red" points="1077,-671.5 976,-671.5 976,-652.5 1077,-652.5 1077,-671.5"/>
<text text-anchor="middle" x="1026.5" y="-659.5" font-family="Helvetica,sans-Serif" font-size="10.00">setup_redirection</text>
</a>
</g>
</g>
<!-- Node35&#45;&gt;Node37 -->
<g id="edge39" class="edge">
<title>Node35&#45;&gt;Node37</title>
<path fill="none" stroke="#63b8ff" d="M922.65,-673.91C936.47,-672.31 951.48,-670.57 965.66,-668.93"/>
<polygon fill="#63b8ff" stroke="#63b8ff" points="966.27,-672.38 975.8,-667.75 965.46,-665.43 966.27,-672.38"/>
</g>
<!-- Node42&#45;&gt;Node11 -->
<g id="edge41" class="edge">
<title>Node42&#45;&gt;Node11</title>
<path fill="none" stroke="#63b8ff" d="M668.73,-678.27C664.62,-676.49 660.64,-674.39 657,-672 624.21,-650.44 597.02,-611.92 584.28,-588.56"/>
<polygon fill="#63b8ff" stroke="#63b8ff" points="587.37,-586.92 579.73,-579.57 581.13,-590.08 587.37,-586.92"/>
</g>
<!-- Node43&#45;&gt;Node11 -->
<g id="edge43" class="edge">
<title>Node43&#45;&gt;Node11</title>
<path fill="none" stroke="#63b8ff" d="M661.28,-637C659.83,-636.35 658.4,-635.69 657,-635 631.47,-622.45 604.98,-602.43 589.65,-587.54"/>
<polygon fill="#63b8ff" stroke="#63b8ff" points="591.79,-584.7 582.37,-579.87 586.72,-589.53 591.79,-584.7"/>
</g>
<!-- Node44&#45;&gt;Node11 -->
<g id="edge45" class="edge">
<title>Node44&#45;&gt;Node11</title>
<path fill="none" stroke="#63b8ff" d="M700.06,-351.61C687.31,-356.73 668.71,-363.02 657,-375 607.1,-426.05 587.11,-511.75 579.99,-550.42"/>
<polygon fill="#63b8ff" stroke="#63b8ff" points="576.51,-549.97 578.24,-560.42 583.41,-551.18 576.51,-549.97"/>
</g>
<!-- Node44&#45;&gt;Node19 -->
<g id="edge46" class="edge">
<title>Node44&#45;&gt;Node19</title>
<path fill="none" stroke="#63b8ff" d="M765.77,-342C776.95,-342 789,-342 800.76,-342"/>
<polygon fill="#63b8ff" stroke="#63b8ff" points="801,-345.5 811,-342 801,-338.5 801,-345.5"/>
</g>
<!-- Node46 -->
<g id="node36" class="node">
<title>Node46</title>
<g id="a_node36"><a xlink:href="empty__stdin_8c.html#a4c89df10296f2cc245e3a32065e04e7b" target="_top" xlink:title=" ">
<polygon fill="white" stroke="#666666" points="753.5,-208.5 676.5,-208.5 676.5,-189.5 753.5,-189.5 753.5,-208.5"/>
<text text-anchor="middle" x="715" y="-196.5" font-family="Helvetica,sans-Serif" font-size="10.00">empty_stdin</text>
</a>
</g>
</g>
<!-- Node45&#45;&gt;Node46 -->
<g id="edge48" class="edge">
<title>Node45&#45;&gt;Node46</title>
<path fill="none" stroke="#63b8ff" d="M621.14,-186.84C635.67,-188.75 651.84,-190.86 666.56,-192.79"/>
<polygon fill="#63b8ff" stroke="#63b8ff" points="666.12,-196.26 676.49,-194.09 667.03,-189.32 666.12,-196.26"/>
</g>
<!-- Node47 -->
<g id="node37" class="node">
<title>Node47</title>
<g id="a_node37"><a xlink:href="shell_8c.html#a2c9bd51744387dc73763281019d78622" target="_top" xlink:title=" ">
<polygon fill="white" stroke="#666666" points="747,-171.5 683,-171.5 683,-152.5 747,-152.5 747,-171.5"/>
<text text-anchor="middle" x="715" y="-159.5" font-family="Helvetica,sans-Serif" font-size="10.00">parse_ast</text>
</a>
</g>
</g>
<!-- Node45&#45;&gt;Node47 -->
<g id="edge49" class="edge">
<title>Node45&#45;&gt;Node47</title>
<path fill="none" stroke="#63b8ff" d="M621.14,-174.83C637.61,-172.56 656.19,-169.99 672.38,-167.75"/>
<polygon fill="#63b8ff" stroke="#63b8ff" points="673.2,-171.17 682.63,-166.34 672.24,-164.24 673.2,-171.17"/>
</g>
<!-- Node48 -->
<g id="node38" class="node">
<title>Node48</title>
<g id="a_node38"><a xlink:href="parser__parse_8c.html#ab56c1f0e36fe941facfe258418c2cc72" target="_top" xlink:title=" ">
<polygon fill="white" stroke="#666666" points="909,-171.5 829,-171.5 829,-152.5 909,-152.5 909,-171.5"/>
<text text-anchor="middle" x="869" y="-159.5" font-family="Helvetica,sans-Serif" font-size="10.00">parser_parse</text>
</a>
</g>
</g>
<!-- Node47&#45;&gt;Node48 -->
<g id="edge50" class="edge">
<title>Node47&#45;&gt;Node48</title>
<path fill="none" stroke="#63b8ff" d="M747.13,-162C767.71,-162 795.12,-162 818.64,-162"/>
<polygon fill="#63b8ff" stroke="#63b8ff" points="818.79,-165.5 828.79,-162 818.79,-158.5 818.79,-165.5"/>
</g>
<!-- Node47&#45;&gt;Node129 -->
<g id="edge64" class="edge">
<title>Node47&#45;&gt;Node129</title>
<path fill="none" stroke="#63b8ff" d="M747.13,-154.42C767.8,-149.39 795.37,-142.68 818.96,-136.94"/>
<polygon fill="#63b8ff" stroke="#63b8ff" points="819.91,-140.31 828.79,-134.54 818.25,-133.51 819.91,-140.31"/>
</g>
<!-- Node48&#45;&gt;Node9 -->
<g id="edge51" class="edge">
<title>Node48&#45;&gt;Node9</title>
<path fill="none" stroke="#63b8ff" d="M909.08,-153.18C916.09,-150.58 923.04,-147.25 929,-143 950.71,-127.52 941.72,-108.01 965,-95 1014.34,-67.42 1080.87,-66.57 1124.81,-70.01"/>
<polygon fill="#63b8ff" stroke="#63b8ff" points="1124.65,-73.51 1134.92,-70.91 1125.27,-66.54 1124.65,-73.51"/>
</g>
<!-- Node49 -->
<g id="node39" class="node">
<title>Node49</title>
<g id="a_node39"><a xlink:href="parse__sequence_8c.html#a1b3273ce0047a9f5b34da07c8ba9eb3e" target="_top" xlink:title=" ">
<polygon fill="#fff0f0" stroke="red" points="1074,-123.5 979,-123.5 979,-104.5 1074,-104.5 1074,-123.5"/>
<text text-anchor="middle" x="1026.5" y="-111.5" font-family="Helvetica,sans-Serif" font-size="10.00">parse_sequence</text>
</a>
</g>
</g>
<!-- Node48&#45;&gt;Node49 -->
<g id="edge52" class="edge">
<title>Node48&#45;&gt;Node49</title>
<path fill="none" stroke="#63b8ff" d="M901.09,-152.4C925.14,-144.98 958.64,-134.64 984.82,-126.56"/>
<polygon fill="#63b8ff" stroke="#63b8ff" points="985.94,-129.88 994.46,-123.58 983.87,-123.19 985.94,-129.88"/>
</g>
<!-- Node127 -->
<g id="node40" class="node">
<title>Node127</title>
<g id="a_node40"><a xlink:href="parser__utils_8c.html#aef41660a9d240250899e27f88cd21e2c" target="_top" xlink:title=" ">
<polygon fill="#fff0f0" stroke="red" points="1219,-161.5 1125,-161.5 1125,-142.5 1219,-142.5 1219,-161.5"/>
<text text-anchor="middle" x="1172" y="-149.5" font-family="Helvetica,sans-Serif" font-size="10.00">skip_separators</text>
</a>
</g>
</g>
<!-- Node48&#45;&gt;Node127 -->
<g id="edge63" class="edge">
<title>Node48&#45;&gt;Node127</title>
<path fill="none" stroke="#63b8ff" d="M909.04,-160.7C961.45,-158.96 1054.87,-155.86 1114.82,-153.87"/>
<polygon fill="#63b8ff" stroke="#63b8ff" points="1115,-157.36 1124.88,-153.53 1114.77,-150.37 1115,-157.36"/>
</g>
<!-- Node56 -->
<g id="node45" class="node">
<title>Node56</title>
<g id="a_node45"><a xlink:href="parser__set__error_8c.html#adcfabdb026b94fdbe4b6cbf5cb16522a" target="_top" xlink:title=" ">
<polygon fill="white" stroke="#666666" points="1220,-218.5 1124,-218.5 1124,-199.5 1220,-199.5 1220,-218.5"/>
<text text-anchor="middle" x="1172" y="-206.5" font-family="Helvetica,sans-Serif" font-size="10.00">parser_set_error</text>
</a>
</g>
</g>
<!-- Node48&#45;&gt;Node56 -->
<g id="edge59" class="edge">
<title>Node48&#45;&gt;Node56</title>
<path fill="none" stroke="#63b8ff" d="M884.37,-171.5C902.34,-182.77 934.47,-200.92 965,-208 1014.24,-219.42 1071.91,-218.54 1113.68,-215.45"/>
<polygon fill="#63b8ff" stroke="#63b8ff" points="1113.99,-218.94 1123.68,-214.65 1113.43,-211.96 1113.99,-218.94"/>
</g>
<!-- Node128 -->
<g id="node46" class="node">
<title>Node128</title>
<g id="a_node46"><a xlink:href="parser__parse_8c.html#ade740e98de82dc19569de5885d2950d1" target="_top" xlink:title=" ">
<polygon fill="white" stroke="#666666" points="1071.5,-199.5 981.5,-199.5 981.5,-180.5 1071.5,-180.5 1071.5,-199.5"/>
<text text-anchor="middle" x="1026.5" y="-187.5" font-family="Helvetica,sans-Serif" font-size="10.00">prepare_parser</text>
</a>
</g>
</g>
<!-- Node48&#45;&gt;Node128 -->
<g id="edge60" class="edge">
<title>Node48&#45;&gt;Node128</title>
<path fill="none" stroke="#63b8ff" d="M909.24,-169.07C928.02,-172.45 950.81,-176.55 971.22,-180.23"/>
<polygon fill="#63b8ff" stroke="#63b8ff" points="970.87,-183.72 981.33,-182.05 972.11,-176.83 970.87,-183.72"/>
</g>
<!-- Node49&#45;&gt;Node9 -->
<g id="edge53" class="edge">
<title>Node49&#45;&gt;Node9</title>
<path fill="none" stroke="#63b8ff" d="M1063.71,-104.41C1082.32,-99.48 1105.2,-93.43 1125.04,-88.17"/>
<polygon fill="#63b8ff" stroke="#63b8ff" points="1126.03,-91.53 1134.8,-85.59 1124.24,-84.76 1126.03,-91.53"/>
</g>
<!-- Node49&#45;&gt;Node127 -->
<g id="edge54" class="edge">
<title>Node49&#45;&gt;Node127</title>
<path fill="none" stroke="#63b8ff" d="M1063.71,-123.59C1082.32,-128.52 1105.2,-134.57 1125.04,-139.83"/>
<polygon fill="#63b8ff" stroke="#63b8ff" points="1124.24,-143.24 1134.8,-142.41 1126.03,-136.47 1124.24,-143.24"/>
</g>
<!-- Node72 -->
<g id="node41" class="node">
<title>Node72</title>
<g id="a_node41"><a xlink:href="parser__next_8c.html#ad25986b565a767c6ad7d0b0b8846fca6" target="_top" xlink:title=" ">
<polygon fill="white" stroke="#666666" points="1351.5,-161.5 1277.5,-161.5 1277.5,-142.5 1351.5,-142.5 1351.5,-161.5"/>
<text text-anchor="middle" x="1314.5" y="-149.5" font-family="Helvetica,sans-Serif" font-size="10.00">parser_next</text>
</a>
</g>
</g>
<!-- Node127&#45;&gt;Node72 -->
<g id="edge55" class="edge">
<title>Node127&#45;&gt;Node72</title>
<path fill="none" stroke="#63b8ff" d="M1219,-152C1234.35,-152 1251.46,-152 1266.85,-152"/>
<polygon fill="#63b8ff" stroke="#63b8ff" points="1267.19,-155.5 1277.19,-152 1267.19,-148.5 1267.19,-155.5"/>
</g>
<!-- Node73 -->
<g id="node42" class="node">
<title>Node73</title>
<g id="a_node42"><a xlink:href="lexer__next__token_8c.html#a3def5432329709fb4df861d90672c510" target="_top" xlink:title=" ">
<polygon fill="#fff0f0" stroke="red" points="1509,-161.5 1409,-161.5 1409,-142.5 1509,-142.5 1509,-161.5"/>
<text text-anchor="middle" x="1459" y="-149.5" font-family="Helvetica,sans-Serif" font-size="10.00">lexer_next_token</text>
</a>
</g>
</g>
<!-- Node72&#45;&gt;Node73 -->
<g id="edge56" class="edge">
<title>Node72&#45;&gt;Node73</title>
<path fill="none" stroke="#63b8ff" d="M1351.83,-152C1366.03,-152 1382.7,-152 1398.56,-152"/>
<polygon fill="#63b8ff" stroke="#63b8ff" points="1398.83,-155.5 1408.83,-152 1398.83,-148.5 1398.83,-155.5"/>
</g>
<!-- Node110 -->
<g id="node44" class="node">
<title>Node110</title>
<g id="a_node44"><a xlink:href="destroy__token_8c.html#ad1a471ee7b1ccb035d769be1152a370c" target="_top" xlink:title=" ">
<polygon fill="white" stroke="#666666" points="1502,-86.5 1416,-86.5 1416,-67.5 1502,-67.5 1502,-86.5"/>
<text text-anchor="middle" x="1459" y="-74.5" font-family="Helvetica,sans-Serif" font-size="10.00">token_destroy</text>
</a>
</g>
</g>
<!-- Node72&#45;&gt;Node110 -->
<g id="edge58" class="edge">
<title>Node72&#45;&gt;Node110</title>
<path fill="none" stroke="#63b8ff" d="M1333.84,-142.35C1358.42,-129.41 1402.26,-106.34 1430.72,-91.36"/>
<polygon fill="#63b8ff" stroke="#63b8ff" points="1432.51,-94.37 1439.73,-86.61 1429.25,-88.17 1432.51,-94.37"/>
</g>
<!-- Node74 -->
<g id="node43" class="node">
<title>Node74</title>
<g id="a_node43"><a xlink:href="create__token_8c.html#a15bcfc92177012893c626ce7d2d6bb6b" target="_top" xlink:title=" ">
<polygon fill="white" stroke="#666666" points="1625,-161.5 1545,-161.5 1545,-142.5 1625,-142.5 1625,-161.5"/>
<text text-anchor="middle" x="1585" y="-149.5" font-family="Helvetica,sans-Serif" font-size="10.00">create_token</text>
</a>
</g>
</g>
<!-- Node73&#45;&gt;Node74 -->
<g id="edge57" class="edge">
<title>Node73&#45;&gt;Node74</title>
<path fill="none" stroke="#63b8ff" d="M1509.01,-152C1517.48,-152 1526.29,-152 1534.76,-152"/>
<polygon fill="#63b8ff" stroke="#63b8ff" points="1534.89,-155.5 1544.89,-152 1534.89,-148.5 1534.89,-155.5"/>
</g>
<!-- Node128&#45;&gt;Node127 -->
<g id="edge62" class="edge">
<title>Node128&#45;&gt;Node127</title>
<path fill="none" stroke="#63b8ff" d="M1063.71,-180.41C1082.32,-175.48 1105.2,-169.43 1125.04,-164.17"/>
<polygon fill="#63b8ff" stroke="#63b8ff" points="1126.03,-167.53 1134.8,-161.59 1124.24,-160.76 1126.03,-167.53"/>
</g>
<!-- Node128&#45;&gt;Node56 -->
<g id="edge61" class="edge">
<title>Node128&#45;&gt;Node56</title>
<path fill="none" stroke="#63b8ff" d="M1071.73,-195.86C1085.05,-197.62 1099.86,-199.58 1113.89,-201.44"/>
<polygon fill="#63b8ff" stroke="#63b8ff" points="1113.56,-204.93 1123.93,-202.77 1114.48,-197.99 1113.56,-204.93"/>
</g>
<!-- Node131&#45;&gt;Node110 -->
<g id="edge67" class="edge">
<title>Node131&#45;&gt;Node110</title>
<path fill="none" stroke="#63b8ff" d="M1339.35,-29.54C1362.68,-38.87 1398.4,-53.16 1424.56,-63.62"/>
<polygon fill="#63b8ff" stroke="#63b8ff" points="1423.49,-66.96 1434.07,-67.43 1426.09,-60.46 1423.49,-66.96"/>
</g>
<!-- Node132&#45;&gt;Node72 -->
<g id="edge69" class="edge">
<title>Node132&#45;&gt;Node72</title>
<path fill="none" stroke="#63b8ff" d="M609.87,-227.14C663.73,-241.07 773.37,-266 868,-266 868,-266 868,-266 1027.5,-266 1114.79,-266 1140.95,-264.02 1220,-227 1250.72,-212.61 1280.24,-186.13 1297.62,-168.8"/>
<polygon fill="#63b8ff" stroke="#63b8ff" points="1300.22,-171.15 1304.71,-161.55 1295.22,-166.25 1300.22,-171.15"/>
</g>
</g>
</svg>
