<?xml version="1.0" encoding="UTF-8" standalone="no"?>
<!DOCTYPE svg PUBLIC "-//W3C//DTD SVG 1.1//EN"
 "http://www.w3.org/Graphics/SVG/1.1/DTD/svg11.dtd">
<!-- Generated by graphviz version 2.43.0 (0)
 -->
<!-- Title: try_command Pages: 1 -->
<svg width="723pt" height="176pt"
 viewBox="0.00 0.00 723.00 176.00" xmlns="http://www.w3.org/2000/svg" xmlns:xlink="http://www.w3.org/1999/xlink">
<g id="graph0" class="graph" transform="scale(1 1) rotate(0) translate(4 172)">
<title>try_command</title>
<!-- Node1 -->
<g id="node1" class="node">
<title>Node1</title>
<g id="a_node1"><a xlink:title=" ">
<polygon fill="#999999" stroke="#666666" points="84,-57 0,-57 0,-38 84,-38 84,-57"/>
<text text-anchor="middle" x="42" y="-45" font-family="Helvetica,sans-Serif" font-size="10.00">try_command</text>
</a>
</g>
</g>
<!-- Node2 -->
<g id="node2" class="node">
<title>Node2</title>
<g id="a_node2"><a xlink:href="execute__cmd_8c.html#a018afe6a043051ebc2e3dd9412587990" target="_top" xlink:title=" ">
<polygon fill="white" stroke="#666666" points="234,-76 143,-76 143,-57 234,-57 234,-76"/>
<text text-anchor="middle" x="188.5" y="-64" font-family="Helvetica,sans-Serif" font-size="10.00">execute_binary</text>
</a>
</g>
</g>
<!-- Node1&#45;&gt;Node2 -->
<g id="edge1" class="edge">
<title>Node1&#45;&gt;Node2</title>
<path fill="none" stroke="#63b8ff" d="M84.02,-52.89C99.08,-54.87 116.38,-57.15 132.47,-59.26"/>
<polygon fill="#63b8ff" stroke="#63b8ff" points="132.46,-62.79 142.83,-60.63 133.37,-55.85 132.46,-62.79"/>
</g>
<!-- Node10 -->
<g id="node10" class="node">
<title>Node10</title>
<g id="a_node10"><a xlink:href="execute__cmd_8c.html#a9ef2f2dfa839f59ba42718ef236d4dcb" target="_top" xlink:title=" ">
<polygon fill="white" stroke="#666666" points="257,-39 120,-39 120,-20 257,-20 257,-39"/>
<text text-anchor="middle" x="188.5" y="-27" font-family="Helvetica,sans-Serif" font-size="10.00">print_permission_denied</text>
</a>
</g>
</g>
<!-- Node1&#45;&gt;Node10 -->
<g id="edge11" class="edge">
<title>Node1&#45;&gt;Node10</title>
<path fill="none" stroke="#63b8ff" d="M84.02,-42.39C92.14,-41.38 100.92,-40.28 109.81,-39.18"/>
<polygon fill="#63b8ff" stroke="#63b8ff" points="110.37,-42.64 119.86,-37.93 109.5,-35.69 110.37,-42.64"/>
</g>
<!-- Node3 -->
<g id="node3" class="node">
<title>Node3</title>
<g id="a_node3"><a xlink:href="env__to__word__array_8c.html#aea7253d35c5aa57d9cfe9d7df218cb90" target="_top" xlink:title=" ">
<polygon fill="white" stroke="#666666" points="403,-132 293,-132 293,-113 403,-113 403,-132"/>
<text text-anchor="middle" x="348" y="-120" font-family="Helvetica,sans-Serif" font-size="10.00">env_to_word_array</text>
</a>
</g>
</g>
<!-- Node2&#45;&gt;Node3 -->
<g id="edge2" class="edge">
<title>Node2&#45;&gt;Node3</title>
<path fill="none" stroke="#63b8ff" d="M214.94,-76.08C235.85,-83.9 266.26,-95.14 293,-104.5 297.89,-106.21 303.04,-107.98 308.14,-109.7"/>
<polygon fill="#63b8ff" stroke="#63b8ff" points="307.21,-113.08 317.8,-112.94 309.43,-106.44 307.21,-113.08"/>
</g>
<!-- Node6 -->
<g id="node6" class="node">
<title>Node6</title>
<g id="a_node6"><a xlink:href="execute__cmd_8c.html#a6badc27baa1930e30ea2ad3817f65366" target="_top" xlink:title=" ">
<polygon fill="white" stroke="#666666" points="388,-95 308,-95 308,-76 388,-76 388,-95"/>
<text text-anchor="middle" x="348" y="-83" font-family="Helvetica,sans-Serif" font-size="10.00">execute_fork</text>
</a>
</g>
</g>
<!-- Node2&#45;&gt;Node6 -->
<g id="edge5" class="edge">
<title>Node2&#45;&gt;Node6</title>
<path fill="none" stroke="#63b8ff" d="M234.21,-71.89C254.05,-74.29 277.46,-77.11 297.79,-79.56"/>
<polygon fill="#63b8ff" stroke="#63b8ff" points="297.46,-83.05 307.8,-80.77 298.3,-76.1 297.46,-83.05"/>
</g>
<!-- Node7 -->
<g id="node7" class="node">
<title>Node7</title>
<g id="a_node7"><a xlink:href="execute__cmd_8c.html#a2c49b9849cfef0deea03382c9f1b3ab8" target="_top" xlink:title=" ">
<polygon fill="white" stroke="#666666" points="543.5,-57 451.5,-57 451.5,-38 543.5,-38 543.5,-57"/>
<text text-anchor="middle" x="497.5" y="-45" font-family="Helvetica,sans-Serif" font-size="10.00">run_subprocess</text>
</a>
</g>
</g>
<!-- Node2&#45;&gt;Node7 -->
<g id="edge10" class="edge">
<title>Node2&#45;&gt;Node7</title>
<path fill="none" stroke="#63b8ff" d="M234.14,-63.74C288.89,-60.35 381.71,-54.6 441,-50.93"/>
<polygon fill="#63b8ff" stroke="#63b8ff" points="441.54,-54.41 451.31,-50.3 441.11,-47.42 441.54,-54.41"/>
</g>
<!-- Node4 -->
<g id="node4" class="node">
<title>Node4</title>
<g id="a_node4"><a xlink:href="misc_8h.html#a1180cae2875b1fdcd58c9f9175a82c12" target="_top" xlink:title=" ">
<polygon fill="white" stroke="#666666" points="556,-131 439,-131 439,-112 556,-112 556,-131"/>
<text text-anchor="middle" x="497.5" y="-119" font-family="Helvetica,sans-Serif" font-size="10.00">my_free_word_array</text>
</a>
</g>
</g>
<!-- Node3&#45;&gt;Node4 -->
<g id="edge3" class="edge">
<title>Node3&#45;&gt;Node4</title>
<path fill="none" stroke="#63b8ff" d="M403.09,-122.13C411.48,-122.08 420.24,-122.02 428.88,-121.96"/>
<polygon fill="#63b8ff" stroke="#63b8ff" points="428.97,-125.46 438.95,-121.89 428.92,-118.46 428.97,-125.46"/>
</g>
<!-- Node5 -->
<g id="node5" class="node">
<title>Node5</title>
<g id="a_node5"><a xlink:href="list_8h.html#ad5ebb7cdb26f73e4b212dfc5eae4ef0e" target="_top" xlink:title=" ">
<polygon fill="white" stroke="#666666" points="542,-168 453,-168 453,-149 542,-149 542,-168"/>
<text text-anchor="middle" x="497.5" y="-156" font-family="Helvetica,sans-Serif" font-size="10.00">my_list_length</text>
</a>
</g>
</g>
<!-- Node3&#45;&gt;Node5 -->
<g id="edge4" class="edge">
<title>Node3&#45;&gt;Node5</title>
<path fill="none" stroke="#63b8ff" d="M388.14,-132.05C406.38,-136.51 428.28,-141.85 447.6,-146.56"/>
<polygon fill="#63b8ff" stroke="#63b8ff" points="446.89,-149.99 457.43,-148.97 448.55,-143.19 446.89,-149.99"/>
</g>
<!-- Node6&#45;&gt;Node4 -->
<g id="edge6" class="edge">
<title>Node6&#45;&gt;Node4</title>
<path fill="none" stroke="#63b8ff" d="M388.14,-95.05C406.38,-99.51 428.28,-104.85 447.6,-109.56"/>
<polygon fill="#63b8ff" stroke="#63b8ff" points="446.89,-112.99 457.43,-111.97 448.55,-106.19 446.89,-112.99"/>
</g>
<!-- Node6&#45;&gt;Node7 -->
<g id="edge7" class="edge">
<title>Node6&#45;&gt;Node7</title>
<path fill="none" stroke="#63b8ff" d="M386.22,-75.91C405.51,-70.94 429.26,-64.82 449.77,-59.54"/>
<polygon fill="#63b8ff" stroke="#63b8ff" points="450.74,-62.9 459.55,-57.02 448.99,-56.13 450.74,-62.9"/>
</g>
<!-- Node8 -->
<g id="node8" class="node">
<title>Node8</title>
<g id="a_node8"><a xlink:href="wait__for__subprocess_8c.html#a1242d78540fd0ddef3d98a9f294cb0d4" target="_top" xlink:title=" ">
<polygon fill="white" stroke="#666666" points="555.5,-94 439.5,-94 439.5,-75 555.5,-75 555.5,-94"/>
<text text-anchor="middle" x="497.5" y="-82" font-family="Helvetica,sans-Serif" font-size="10.00">wait_for_subprocess</text>
</a>
</g>
</g>
<!-- Node6&#45;&gt;Node8 -->
<g id="edge8" class="edge">
<title>Node6&#45;&gt;Node8</title>
<path fill="none" stroke="#63b8ff" d="M388.14,-85.23C400.78,-85.15 415.17,-85.05 429.24,-84.96"/>
<polygon fill="#63b8ff" stroke="#63b8ff" points="429.42,-88.45 439.4,-84.89 429.38,-81.46 429.42,-88.45"/>
</g>
<!-- Node9 -->
<g id="node9" class="node">
<title>Node9</title>
<g id="a_node9"><a xlink:href="wait__for__subprocess_8c.html#a885766ba6ba593b7cf27b917dd52b1a6" target="_top" xlink:title=" ">
<polygon fill="white" stroke="#666666" points="715,-94 592,-94 592,-75 715,-75 715,-94"/>
<text text-anchor="middle" x="653.5" y="-82" font-family="Helvetica,sans-Serif" font-size="10.00">print_signal_message</text>
</a>
</g>
</g>
<!-- Node8&#45;&gt;Node9 -->
<g id="edge9" class="edge">
<title>Node8&#45;&gt;Node9</title>
<path fill="none" stroke="#63b8ff" d="M555.84,-84.5C564.26,-84.5 573.02,-84.5 581.67,-84.5"/>
<polygon fill="#63b8ff" stroke="#63b8ff" points="581.76,-88 591.76,-84.5 581.76,-81 581.76,-88"/>
</g>
<!-- Node11 -->
<g id="node11" class="node">
<title>Node11</title>
<g id="a_node11"><a xlink:href="strings_8h.html#a36f055c4e56c8a784629908d0c5b91e5" target="_top" xlink:title=" ">
<polygon fill="white" stroke="#666666" points="400,-19 296,-19 296,0 400,0 400,-19"/>
<text text-anchor="middle" x="348" y="-7" font-family="Helvetica,sans-Serif" font-size="10.00">my_is_char_in_str</text>
</a>
</g>
</g>
<!-- Node10&#45;&gt;Node11 -->
<g id="edge12" class="edge">
<title>Node10&#45;&gt;Node11</title>
<path fill="none" stroke="#63b8ff" d="M257.21,-20.9C266.64,-19.7 276.28,-18.48 285.59,-17.3"/>
<polygon fill="#63b8ff" stroke="#63b8ff" points="286.04,-20.77 295.52,-16.04 285.16,-13.82 286.04,-20.77"/>
</g>
</g>
</svg>
