<?xml version="1.0" encoding="UTF-8" standalone="no"?>
<!DOCTYPE svg PUBLIC "-//W3C//DTD SVG 1.1//EN"
 "http://www.w3.org/Graphics/SVG/1.1/DTD/svg11.dtd">
<!-- Generated by graphviz version 2.43.0 (0)
 -->
<!-- Title: execute_fork Pages: 1 -->
<svg width="400pt" height="101pt"
 viewBox="0.00 0.00 400.00 101.00" xmlns="http://www.w3.org/2000/svg" xmlns:xlink="http://www.w3.org/1999/xlink">
<g id="graph0" class="graph" transform="scale(1 1) rotate(0) translate(4 97)">
<title>execute_fork</title>
<!-- Node1 -->
<g id="node1" class="node">
<title>Node1</title>
<g id="a_node1"><a xlink:title=" ">
<polygon fill="#999999" stroke="#666666" points="80,-56 0,-56 0,-37 80,-37 80,-56"/>
<text text-anchor="middle" x="40" y="-44" font-family="Helvetica,sans-Serif" font-size="10.00">execute_fork</text>
</a>
</g>
</g>
<!-- Node2 -->
<g id="node2" class="node">
<title>Node2</title>
<g id="a_node2"><a xlink:href="misc_8h.html#a1180cae2875b1fdcd58c9f9175a82c12" target="_top" xlink:title=" ">
<polygon fill="white" stroke="#666666" points="233,-93 116,-93 116,-74 233,-74 233,-93"/>
<text text-anchor="middle" x="174.5" y="-81" font-family="Helvetica,sans-Serif" font-size="10.00">my_free_word_array</text>
</a>
</g>
</g>
<!-- Node1&#45;&gt;Node2 -->
<g id="edge1" class="edge">
<title>Node1&#45;&gt;Node2</title>
<path fill="none" stroke="#63b8ff" d="M75.12,-56.03C91.53,-60.61 111.41,-66.16 128.99,-71.07"/>
<polygon fill="#63b8ff" stroke="#63b8ff" points="128.46,-74.56 139.03,-73.88 130.34,-67.81 128.46,-74.56"/>
</g>
<!-- Node3 -->
<g id="node3" class="node">
<title>Node3</title>
<g id="a_node3"><a xlink:href="execute__cmd_8c.html#a2c49b9849cfef0deea03382c9f1b3ab8" target="_top" xlink:title=" ">
<polygon fill="white" stroke="#666666" points="220.5,-56 128.5,-56 128.5,-37 220.5,-37 220.5,-56"/>
<text text-anchor="middle" x="174.5" y="-44" font-family="Helvetica,sans-Serif" font-size="10.00">run_subprocess</text>
</a>
</g>
</g>
<!-- Node1&#45;&gt;Node3 -->
<g id="edge2" class="edge">
<title>Node1&#45;&gt;Node3</title>
<path fill="none" stroke="#63b8ff" d="M80.04,-46.5C91.96,-46.5 105.31,-46.5 118.11,-46.5"/>
<polygon fill="#63b8ff" stroke="#63b8ff" points="118.21,-50 128.21,-46.5 118.21,-43 118.21,-50"/>
</g>
<!-- Node4 -->
<g id="node4" class="node">
<title>Node4</title>
<g id="a_node4"><a xlink:href="wait__for__subprocess_8c.html#a1242d78540fd0ddef3d98a9f294cb0d4" target="_top" xlink:title=" ">
<polygon fill="white" stroke="#666666" points="232.5,-19 116.5,-19 116.5,0 232.5,0 232.5,-19"/>
<text text-anchor="middle" x="174.5" y="-7" font-family="Helvetica,sans-Serif" font-size="10.00">wait_for_subprocess</text>
</a>
</g>
</g>
<!-- Node1&#45;&gt;Node4 -->
<g id="edge3" class="edge">
<title>Node1&#45;&gt;Node4</title>
<path fill="none" stroke="#63b8ff" d="M75.12,-36.97C91.53,-32.39 111.41,-26.84 128.99,-21.93"/>
<polygon fill="#63b8ff" stroke="#63b8ff" points="130.34,-25.19 139.03,-19.12 128.46,-18.44 130.34,-25.19"/>
</g>
<!-- Node5 -->
<g id="node5" class="node">
<title>Node5</title>
<g id="a_node5"><a xlink:href="wait__for__subprocess_8c.html#a885766ba6ba593b7cf27b917dd52b1a6" target="_top" xlink:title=" ">
<polygon fill="white" stroke="#666666" points="392,-19 269,-19 269,0 392,0 392,-19"/>
<text text-anchor="middle" x="330.5" y="-7" font-family="Helvetica,sans-Serif" font-size="10.00">print_signal_message</text>
</a>
</g>
</g>
<!-- Node4&#45;&gt;Node5 -->
<g id="edge4" class="edge">
<title>Node4&#45;&gt;Node5</title>
<path fill="none" stroke="#63b8ff" d="M232.84,-9.5C241.26,-9.5 250.02,-9.5 258.67,-9.5"/>
<polygon fill="#63b8ff" stroke="#63b8ff" points="258.76,-13 268.76,-9.5 258.76,-6 258.76,-13"/>
</g>
</g>
</svg>
