<?xml version="1.0" encoding="UTF-8" standalone="no"?>
<!DOCTYPE svg PUBLIC "-//W3C//DTD SVG 1.1//EN"
 "http://www.w3.org/Graphics/SVG/1.1/DTD/svg11.dtd">
<!-- Generated by graphviz version 2.43.0 (0)
 -->
<!-- Title: src/executer/execute_cmd.c Pages: 1 -->
<svg width="1000pt" height="258pt"
 viewBox="0.00 0.00 999.50 258.00" xmlns="http://www.w3.org/2000/svg" xmlns:xlink="http://www.w3.org/1999/xlink">
<g id="graph0" class="graph" transform="scale(1 1) rotate(0) translate(4 254)">
<title>src/executer/execute_cmd.c</title>
<!-- Node1 -->
<g id="node1" class="node">
<title>Node1</title>
<g id="a_node1"><a xlink:title=" ">
<polygon fill="#999999" stroke="#666666" points="600,-250 483,-250 483,-220 600,-220 600,-250"/>
<text text-anchor="start" x="491" y="-238" font-family="Helvetica,sans-Serif" font-size="10.00">src/executer/execute</text>
<text text-anchor="middle" x="541.5" y="-227" font-family="Helvetica,sans-Serif" font-size="10.00">_cmd.c</text>
</a>
</g>
</g>
<!-- Node2 -->
<g id="node2" class="node">
<title>Node2</title>
<g id="a_node2"><a xlink:title=" ">
<polygon fill="#e0e0e0" stroke="#999999" points="51,-184 0,-184 0,-165 51,-165 51,-184"/>
<text text-anchor="middle" x="25.5" y="-172" font-family="Helvetica,sans-Serif" font-size="10.00">errno.h</text>
</a>
</g>
</g>
<!-- Node1&#45;&gt;Node2 -->
<g id="edge1" class="edge">
<title>Node1&#45;&gt;Node2</title>
<path fill="none" stroke="#63b8ff" d="M482.89,-230.61C393.65,-224.85 218.3,-211.22 60.9,-184.02"/>
<polygon fill="#63b8ff" stroke="#63b8ff" points="61.49,-180.57 51.04,-182.3 60.28,-187.47 61.49,-180.57"/>
</g>
<!-- Node3 -->
<g id="node3" class="node">
<title>Node3</title>
<g id="a_node3"><a xlink:title=" ">
<polygon fill="#e0e0e0" stroke="#999999" points="124,-184 69,-184 69,-165 124,-165 124,-184"/>
<text text-anchor="middle" x="96.5" y="-172" font-family="Helvetica,sans-Serif" font-size="10.00">signal.h</text>
</a>
</g>
</g>
<!-- Node1&#45;&gt;Node3 -->
<g id="edge2" class="edge">
<title>Node1&#45;&gt;Node3</title>
<path fill="none" stroke="#63b8ff" d="M482.77,-228.74C405.26,-221.36 264.41,-206.48 134.45,-183.99"/>
<polygon fill="#63b8ff" stroke="#63b8ff" points="134.77,-180.49 124.32,-182.22 133.56,-187.39 134.77,-180.49"/>
</g>
<!-- Node4 -->
<g id="node4" class="node">
<title>Node4</title>
<g id="a_node4"><a xlink:title=" ">
<polygon fill="#e0e0e0" stroke="#999999" points="192.5,-184 142.5,-184 142.5,-165 192.5,-165 192.5,-184"/>
<text text-anchor="middle" x="167.5" y="-172" font-family="Helvetica,sans-Serif" font-size="10.00">stdio.h</text>
</a>
</g>
</g>
<!-- Node1&#45;&gt;Node4 -->
<g id="edge3" class="edge">
<title>Node1&#45;&gt;Node4</title>
<path fill="none" stroke="#63b8ff" d="M482.84,-227.16C416.96,-219.09 306.69,-204.37 202.73,-184.07"/>
<polygon fill="#63b8ff" stroke="#63b8ff" points="203.18,-180.59 192.69,-182.09 201.82,-187.46 203.18,-180.59"/>
</g>
<!-- Node5 -->
<g id="node5" class="node">
<title>Node5</title>
<g id="a_node5"><a xlink:title=" ">
<polygon fill="#e0e0e0" stroke="#999999" points="264,-184 211,-184 211,-165 264,-165 264,-184"/>
<text text-anchor="middle" x="237.5" y="-172" font-family="Helvetica,sans-Serif" font-size="10.00">stdlib.h</text>
</a>
</g>
</g>
<!-- Node1&#45;&gt;Node5 -->
<g id="edge4" class="edge">
<title>Node1&#45;&gt;Node5</title>
<path fill="none" stroke="#63b8ff" d="M482.81,-224.04C430.43,-214.94 351.42,-200.68 274.12,-184.26"/>
<polygon fill="#63b8ff" stroke="#63b8ff" points="274.73,-180.81 264.22,-182.15 273.27,-187.66 274.73,-180.81"/>
</g>
<!-- Node6 -->
<g id="node6" class="node">
<title>Node6</title>
<g id="a_node6"><a xlink:title=" ">
<polygon fill="#e0e0e0" stroke="#999999" points="335,-184 282,-184 282,-165 335,-165 335,-184"/>
<text text-anchor="middle" x="308.5" y="-172" font-family="Helvetica,sans-Serif" font-size="10.00">string.h</text>
</a>
</g>
</g>
<!-- Node1&#45;&gt;Node6 -->
<g id="edge5" class="edge">
<title>Node1&#45;&gt;Node6</title>
<path fill="none" stroke="#63b8ff" d="M485.69,-219.99C442.13,-209.05 382.86,-194.17 345.13,-184.7"/>
<polygon fill="#63b8ff" stroke="#63b8ff" points="345.64,-181.22 335.09,-182.18 343.94,-188.01 345.64,-181.22"/>
</g>
<!-- Node7 -->
<g id="node7" class="node">
<title>Node7</title>
<g id="a_node7"><a xlink:title=" ">
<polygon fill="#e0e0e0" stroke="#999999" points="417.5,-184 353.5,-184 353.5,-165 417.5,-165 417.5,-184"/>
<text text-anchor="middle" x="385.5" y="-172" font-family="Helvetica,sans-Serif" font-size="10.00">sys/stat.h</text>
</a>
</g>
</g>
<!-- Node1&#45;&gt;Node7 -->
<g id="edge6" class="edge">
<title>Node1&#45;&gt;Node7</title>
<path fill="none" stroke="#63b8ff" d="M504.13,-219.99C477.87,-210.14 443.09,-197.1 417.98,-187.68"/>
<polygon fill="#63b8ff" stroke="#63b8ff" points="419.13,-184.37 408.54,-184.14 416.67,-190.93 419.13,-184.37"/>
</g>
<!-- Node8 -->
<g id="node8" class="node">
<title>Node8</title>
<g id="a_node8"><a xlink:title=" ">
<polygon fill="#e0e0e0" stroke="#999999" points="577.5,-129 505.5,-129 505.5,-110 577.5,-110 577.5,-129"/>
<text text-anchor="middle" x="541.5" y="-117" font-family="Helvetica,sans-Serif" font-size="10.00">sys/types.h</text>
</a>
</g>
</g>
<!-- Node1&#45;&gt;Node8 -->
<g id="edge7" class="edge">
<title>Node1&#45;&gt;Node8</title>
<path fill="none" stroke="#63b8ff" d="M541.5,-219.63C541.5,-199.21 541.5,-161.81 541.5,-139.24"/>
<polygon fill="#63b8ff" stroke="#63b8ff" points="545,-139.23 541.5,-129.23 538,-139.23 545,-139.23"/>
</g>
<!-- Node9 -->
<g id="node9" class="node">
<title>Node9</title>
<g id="a_node9"><a xlink:title=" ">
<polygon fill="#e0e0e0" stroke="#999999" points="905.5,-184 849.5,-184 849.5,-165 905.5,-165 905.5,-184"/>
<text text-anchor="middle" x="877.5" y="-172" font-family="Helvetica,sans-Serif" font-size="10.00">unistd.h</text>
</a>
</g>
</g>
<!-- Node1&#45;&gt;Node9 -->
<g id="edge8" class="edge">
<title>Node1&#45;&gt;Node9</title>
<path fill="none" stroke="#63b8ff" d="M600.17,-224.58C659.58,-214.9 754.06,-199.16 835.5,-184 836.6,-183.8 837.71,-183.59 838.83,-183.37"/>
<polygon fill="#63b8ff" stroke="#63b8ff" points="839.91,-186.73 849.06,-181.38 838.57,-179.86 839.91,-186.73"/>
</g>
<!-- Node10 -->
<g id="node10" class="node">
<title>Node10</title>
<g id="a_node10"><a xlink:href="misc_8h.html" target="_top" xlink:title=" ">
<polygon fill="white" stroke="#666666" points="991.5,-184 923.5,-184 923.5,-165 991.5,-165 991.5,-184"/>
<text text-anchor="middle" x="957.5" y="-172" font-family="Helvetica,sans-Serif" font-size="10.00">my/misc.h</text>
</a>
</g>
</g>
<!-- Node1&#45;&gt;Node10 -->
<g id="edge9" class="edge">
<title>Node1&#45;&gt;Node10</title>
<path fill="none" stroke="#63b8ff" d="M600.14,-227.28C671.66,-218.83 796.47,-203.26 913.09,-184.15"/>
<polygon fill="#63b8ff" stroke="#63b8ff" points="913.97,-187.55 923.27,-182.47 912.83,-180.64 913.97,-187.55"/>
</g>
<!-- Node11 -->
<g id="node11" class="node">
<title>Node11</title>
<g id="a_node11"><a xlink:href="strings_8h.html" target="_top" xlink:title=" ">
<polygon fill="white" stroke="#666666" points="513,-184 436,-184 436,-165 513,-165 513,-184"/>
<text text-anchor="middle" x="474.5" y="-172" font-family="Helvetica,sans-Serif" font-size="10.00">my/strings.h</text>
</a>
</g>
</g>
<!-- Node1&#45;&gt;Node11 -->
<g id="edge10" class="edge">
<title>Node1&#45;&gt;Node11</title>
<path fill="none" stroke="#63b8ff" d="M525.28,-219.84C515.26,-211.09 502.39,-199.85 492.12,-190.88"/>
<polygon fill="#63b8ff" stroke="#63b8ff" points="494.37,-188.21 484.54,-184.27 489.77,-193.48 494.37,-188.21"/>
</g>
<!-- Node13 -->
<g id="node13" class="node">
<title>Node13</title>
<g id="a_node13"><a xlink:href="ast_8h.html" target="_top" xlink:title=" ">
<polygon fill="white" stroke="#666666" points="660,-129 619,-129 619,-110 660,-110 660,-129"/>
<text text-anchor="middle" x="639.5" y="-117" font-family="Helvetica,sans-Serif" font-size="10.00">ast.h</text>
</a>
</g>
</g>
<!-- Node1&#45;&gt;Node13 -->
<g id="edge13" class="edge">
<title>Node1&#45;&gt;Node13</title>
<path fill="none" stroke="#63b8ff" d="M598.14,-219.93C616.45,-212.41 634.78,-201.04 645.5,-184 653.97,-170.54 651.04,-152.2 646.85,-138.69"/>
<polygon fill="#63b8ff" stroke="#63b8ff" points="650.07,-137.31 643.4,-129.07 643.48,-139.67 650.07,-137.31"/>
</g>
<!-- Node14 -->
<g id="node14" class="node">
<title>Node14</title>
<g id="a_node14"><a xlink:href="builtins_8h.html" target="_top" xlink:title=" ">
<polygon fill="white" stroke="#666666" points="755.5,-184 693.5,-184 693.5,-165 755.5,-165 755.5,-184"/>
<text text-anchor="middle" x="724.5" y="-172" font-family="Helvetica,sans-Serif" font-size="10.00">builtins.h</text>
</a>
</g>
</g>
<!-- Node1&#45;&gt;Node14 -->
<g id="edge15" class="edge">
<title>Node1&#45;&gt;Node14</title>
<path fill="none" stroke="#63b8ff" d="M585.33,-219.99C616.64,-209.98 658.28,-196.67 687.83,-187.22"/>
<polygon fill="#63b8ff" stroke="#63b8ff" points="689.28,-190.43 697.74,-184.05 687.15,-183.76 689.28,-190.43"/>
</g>
<!-- Node15 -->
<g id="node15" class="node">
<title>Node15</title>
<g id="a_node15"><a xlink:href="shell_8h.html" target="_top" xlink:title=" ">
<polygon fill="white" stroke="#666666" points="749,-129 700,-129 700,-110 749,-110 749,-129"/>
<text text-anchor="middle" x="724.5" y="-117" font-family="Helvetica,sans-Serif" font-size="10.00">shell.h</text>
</a>
</g>
</g>
<!-- Node1&#45;&gt;Node15 -->
<g id="edge25" class="edge">
<title>Node1&#45;&gt;Node15</title>
<path fill="none" stroke="#63b8ff" d="M600.13,-229.02C659.15,-222.65 744.26,-209.28 764.5,-184 776.98,-168.41 760.18,-148.72 744.68,-135.44"/>
<polygon fill="#63b8ff" stroke="#63b8ff" points="746.84,-132.68 736.86,-129.13 742.44,-138.13 746.84,-132.68"/>
</g>
<!-- Node17 -->
<g id="node17" class="node">
<title>Node17</title>
<g id="a_node17"><a xlink:href="env_8h.html" target="_top" xlink:title=" ">
<polygon fill="white" stroke="#666666" points="826,-129 783,-129 783,-110 826,-110 826,-129"/>
<text text-anchor="middle" x="804.5" y="-117" font-family="Helvetica,sans-Serif" font-size="10.00">env.h</text>
</a>
</g>
</g>
<!-- Node1&#45;&gt;Node17 -->
<g id="edge19" class="edge">
<title>Node1&#45;&gt;Node17</title>
<path fill="none" stroke="#63b8ff" d="M600.28,-228.19C662.05,-220.98 753.89,-206.77 780.5,-184 793.5,-172.87 799.47,-153.94 802.21,-139.64"/>
<polygon fill="#63b8ff" stroke="#63b8ff" points="805.72,-139.81 803.78,-129.4 798.81,-138.75 805.72,-139.81"/>
</g>
<!-- Node18 -->
<g id="node18" class="node">
<title>Node18</title>
<g id="a_node18"><a xlink:href="executer_8h.html" target="_top" xlink:title=" ">
<polygon fill="white" stroke="#666666" points="637,-184 570,-184 570,-165 637,-165 637,-184"/>
<text text-anchor="middle" x="603.5" y="-172" font-family="Helvetica,sans-Serif" font-size="10.00">executer.h</text>
</a>
</g>
</g>
<!-- Node1&#45;&gt;Node18 -->
<g id="edge21" class="edge">
<title>Node1&#45;&gt;Node18</title>
<path fill="none" stroke="#63b8ff" d="M556.51,-219.84C565.69,-211.17 577.45,-200.08 586.91,-191.15"/>
<polygon fill="#63b8ff" stroke="#63b8ff" points="589.34,-193.67 594.21,-184.27 584.53,-188.58 589.34,-193.67"/>
</g>
<!-- Node11&#45;&gt;Node8 -->
<g id="edge12" class="edge">
<title>Node11&#45;&gt;Node8</title>
<path fill="none" stroke="#63b8ff" d="M485.26,-164.98C495.27,-157.07 510.39,-145.11 522.43,-135.58"/>
<polygon fill="#63b8ff" stroke="#63b8ff" points="524.87,-138.12 530.54,-129.17 520.53,-132.63 524.87,-138.12"/>
</g>
<!-- Node12 -->
<g id="node12" class="node">
<title>Node12</title>
<g id="a_node12"><a xlink:title=" ">
<polygon fill="#e0e0e0" stroke="#999999" points="667.5,-19 611.5,-19 611.5,0 667.5,0 667.5,-19"/>
<text text-anchor="middle" x="639.5" y="-7" font-family="Helvetica,sans-Serif" font-size="10.00">stddef.h</text>
</a>
</g>
</g>
<!-- Node11&#45;&gt;Node12 -->
<g id="edge11" class="edge">
<title>Node11&#45;&gt;Node12</title>
<path fill="none" stroke="#63b8ff" d="M475.74,-164.89C477.97,-151.88 483.68,-126.93 496.5,-110 526.95,-69.8 578.4,-39.75 610.58,-23.69"/>
<polygon fill="#63b8ff" stroke="#63b8ff" points="612.44,-26.68 619.9,-19.16 609.38,-20.38 612.44,-26.68"/>
</g>
<!-- Node13&#45;&gt;Node12 -->
<g id="edge14" class="edge">
<title>Node13&#45;&gt;Node12</title>
<path fill="none" stroke="#63b8ff" d="M639.5,-109.66C639.5,-92.17 639.5,-52.8 639.5,-29.27"/>
<polygon fill="#63b8ff" stroke="#63b8ff" points="643,-29.16 639.5,-19.16 636,-29.16 643,-29.16"/>
</g>
<!-- Node14&#45;&gt;Node15 -->
<g id="edge16" class="edge">
<title>Node14&#45;&gt;Node15</title>
<path fill="none" stroke="#63b8ff" d="M724.5,-164.75C724.5,-157.8 724.5,-147.85 724.5,-139.13"/>
<polygon fill="#63b8ff" stroke="#63b8ff" points="728,-139.09 724.5,-129.09 721,-139.09 728,-139.09"/>
</g>
<!-- Node16 -->
<g id="node16" class="node">
<title>Node16</title>
<g id="a_node16"><a xlink:href="list_8h.html" target="_top" xlink:title=" ">
<polygon fill="white" stroke="#666666" points="754,-74 695,-74 695,-55 754,-55 754,-74"/>
<text text-anchor="middle" x="724.5" y="-62" font-family="Helvetica,sans-Serif" font-size="10.00">my/list.h</text>
</a>
</g>
</g>
<!-- Node15&#45;&gt;Node16 -->
<g id="edge17" class="edge">
<title>Node15&#45;&gt;Node16</title>
<path fill="none" stroke="#63b8ff" d="M724.5,-109.75C724.5,-102.8 724.5,-92.85 724.5,-84.13"/>
<polygon fill="#63b8ff" stroke="#63b8ff" points="728,-84.09 724.5,-74.09 721,-84.09 728,-84.09"/>
</g>
<!-- Node16&#45;&gt;Node12 -->
<g id="edge18" class="edge">
<title>Node16&#45;&gt;Node12</title>
<path fill="none" stroke="#63b8ff" d="M710.84,-54.98C697.66,-46.77 677.47,-34.18 661.93,-24.49"/>
<polygon fill="#63b8ff" stroke="#63b8ff" points="663.74,-21.49 653.41,-19.17 660.04,-27.43 663.74,-21.49"/>
</g>
<!-- Node17&#45;&gt;Node16 -->
<g id="edge20" class="edge">
<title>Node17&#45;&gt;Node16</title>
<path fill="none" stroke="#63b8ff" d="M791.65,-109.98C779.36,-101.84 760.59,-89.41 746.02,-79.76"/>
<polygon fill="#63b8ff" stroke="#63b8ff" points="747.86,-76.78 737.59,-74.17 743.99,-82.61 747.86,-76.78"/>
</g>
<!-- Node18&#45;&gt;Node8 -->
<g id="edge24" class="edge">
<title>Node18&#45;&gt;Node8</title>
<path fill="none" stroke="#63b8ff" d="M593.54,-164.98C584.37,-157.15 570.56,-145.34 559.47,-135.86"/>
<polygon fill="#63b8ff" stroke="#63b8ff" points="561.52,-133.01 551.64,-129.17 556.97,-138.33 561.52,-133.01"/>
</g>
<!-- Node18&#45;&gt;Node13 -->
<g id="edge22" class="edge">
<title>Node18&#45;&gt;Node13</title>
<path fill="none" stroke="#63b8ff" d="M609.44,-164.75C614.48,-157.34 621.84,-146.5 628.01,-137.41"/>
<polygon fill="#63b8ff" stroke="#63b8ff" points="630.94,-139.33 633.67,-129.09 625.15,-135.39 630.94,-139.33"/>
</g>
<!-- Node18&#45;&gt;Node15 -->
<g id="edge23" class="edge">
<title>Node18&#45;&gt;Node15</title>
<path fill="none" stroke="#63b8ff" d="M622.94,-164.98C642.49,-156.42 672.88,-143.11 695.32,-133.28"/>
<polygon fill="#63b8ff" stroke="#63b8ff" points="696.95,-136.39 704.71,-129.17 694.14,-129.98 696.95,-136.39"/>
</g>
</g>
</svg>
