<?xml version="1.0" encoding="UTF-8" standalone="no"?>
<!DOCTYPE svg PUBLIC "-//W3C//DTD SVG 1.1//EN"
 "http://www.w3.org/Graphics/SVG/1.1/DTD/svg11.dtd">
<!-- Generated by graphviz version 2.43.0 (0)
 -->
<!-- Title: src/executer/execute_subshell.c Pages: 1 -->
<svg width="704pt" height="258pt"
 viewBox="0.00 0.00 703.50 258.00" xmlns="http://www.w3.org/2000/svg" xmlns:xlink="http://www.w3.org/1999/xlink">
<g id="graph0" class="graph" transform="scale(1 1) rotate(0) translate(4 254)">
<title>src/executer/execute_subshell.c</title>
<!-- Node1 -->
<g id="node1" class="node">
<title>Node1</title>
<g id="a_node1"><a xlink:title=" ">
<polygon fill="#999999" stroke="#666666" points="422,-250 305,-250 305,-220 422,-220 422,-250"/>
<text text-anchor="start" x="313" y="-238" font-family="Helvetica,sans-Serif" font-size="10.00">src/executer/execute</text>
<text text-anchor="middle" x="363.5" y="-227" font-family="Helvetica,sans-Serif" font-size="10.00">_subshell.c</text>
</a>
</g>
</g>
<!-- Node2 -->
<g id="node2" class="node">
<title>Node2</title>
<g id="a_node2"><a xlink:title=" ">
<polygon fill="#e0e0e0" stroke="#999999" points="51,-184 0,-184 0,-165 51,-165 51,-184"/>
<text text-anchor="middle" x="25.5" y="-172" font-family="Helvetica,sans-Serif" font-size="10.00">errno.h</text>
</a>
</g>
</g>
<!-- Node1&#45;&gt;Node2 -->
<g id="edge1" class="edge">
<title>Node1&#45;&gt;Node2</title>
<path fill="none" stroke="#63b8ff" d="M304.96,-225.83C245.71,-217.23 151.28,-202.63 60.93,-184.16"/>
<polygon fill="#63b8ff" stroke="#63b8ff" points="61.57,-180.72 51.07,-182.13 60.16,-187.58 61.57,-180.72"/>
</g>
<!-- Node3 -->
<g id="node3" class="node">
<title>Node3</title>
<g id="a_node3"><a xlink:title=" ">
<polygon fill="#e0e0e0" stroke="#999999" points="124,-184 69,-184 69,-165 124,-165 124,-184"/>
<text text-anchor="middle" x="96.5" y="-172" font-family="Helvetica,sans-Serif" font-size="10.00">signal.h</text>
</a>
</g>
</g>
<!-- Node1&#45;&gt;Node3 -->
<g id="edge2" class="edge">
<title>Node1&#45;&gt;Node3</title>
<path fill="none" stroke="#63b8ff" d="M304.85,-221.45C260.62,-211.94 198.18,-198.41 134.23,-184.14"/>
<polygon fill="#63b8ff" stroke="#63b8ff" points="134.9,-180.71 124.37,-181.94 133.37,-187.54 134.9,-180.71"/>
</g>
<!-- Node4 -->
<g id="node4" class="node">
<title>Node4</title>
<g id="a_node4"><a xlink:title=" ">
<polygon fill="#e0e0e0" stroke="#999999" points="192.5,-184 142.5,-184 142.5,-165 192.5,-165 192.5,-184"/>
<text text-anchor="middle" x="167.5" y="-172" font-family="Helvetica,sans-Serif" font-size="10.00">stdio.h</text>
</a>
</g>
</g>
<!-- Node1&#45;&gt;Node4 -->
<g id="edge3" class="edge">
<title>Node1&#45;&gt;Node4</title>
<path fill="none" stroke="#63b8ff" d="M316.55,-219.99C281.4,-209.5 234.09,-195.37 202.28,-185.88"/>
<polygon fill="#63b8ff" stroke="#63b8ff" points="203.11,-182.48 192.53,-182.97 201.11,-189.18 203.11,-182.48"/>
</g>
<!-- Node5 -->
<g id="node5" class="node">
<title>Node5</title>
<g id="a_node5"><a xlink:title=" ">
<polygon fill="#e0e0e0" stroke="#999999" points="264,-184 211,-184 211,-165 264,-165 264,-184"/>
<text text-anchor="middle" x="237.5" y="-172" font-family="Helvetica,sans-Serif" font-size="10.00">stdlib.h</text>
</a>
</g>
</g>
<!-- Node1&#45;&gt;Node5 -->
<g id="edge4" class="edge">
<title>Node1&#45;&gt;Node5</title>
<path fill="none" stroke="#63b8ff" d="M333.32,-219.99C312.67,-210.4 285.5,-197.79 265.37,-188.44"/>
<polygon fill="#63b8ff" stroke="#63b8ff" points="266.65,-185.18 256.11,-184.14 263.7,-191.52 266.65,-185.18"/>
</g>
<!-- Node6 -->
<g id="node6" class="node">
<title>Node6</title>
<g id="a_node6"><a xlink:title=" ">
<polygon fill="#e0e0e0" stroke="#999999" points="335,-184 282,-184 282,-165 335,-165 335,-184"/>
<text text-anchor="middle" x="308.5" y="-172" font-family="Helvetica,sans-Serif" font-size="10.00">string.h</text>
</a>
</g>
</g>
<!-- Node1&#45;&gt;Node6 -->
<g id="edge5" class="edge">
<title>Node1&#45;&gt;Node6</title>
<path fill="none" stroke="#63b8ff" d="M350.19,-219.84C342.2,-211.35 332.02,-200.52 323.72,-191.69"/>
<polygon fill="#63b8ff" stroke="#63b8ff" points="326.14,-189.15 316.74,-184.27 321.04,-193.95 326.14,-189.15"/>
</g>
<!-- Node7 -->
<g id="node7" class="node">
<title>Node7</title>
<g id="a_node7"><a xlink:title=" ">
<polygon fill="#e0e0e0" stroke="#999999" points="411.5,-129 339.5,-129 339.5,-110 411.5,-110 411.5,-129"/>
<text text-anchor="middle" x="375.5" y="-117" font-family="Helvetica,sans-Serif" font-size="10.00">sys/types.h</text>
</a>
</g>
</g>
<!-- Node1&#45;&gt;Node7 -->
<g id="edge6" class="edge">
<title>Node1&#45;&gt;Node7</title>
<path fill="none" stroke="#63b8ff" d="M365.02,-219.63C367.18,-199.21 371.13,-161.81 373.52,-139.24"/>
<polygon fill="#63b8ff" stroke="#63b8ff" points="377.01,-139.54 374.58,-129.23 370.04,-138.81 377.01,-139.54"/>
</g>
<!-- Node8 -->
<g id="node8" class="node">
<title>Node8</title>
<g id="a_node8"><a xlink:title=" ">
<polygon fill="#e0e0e0" stroke="#999999" points="609.5,-184 553.5,-184 553.5,-165 609.5,-165 609.5,-184"/>
<text text-anchor="middle" x="581.5" y="-172" font-family="Helvetica,sans-Serif" font-size="10.00">unistd.h</text>
</a>
</g>
</g>
<!-- Node1&#45;&gt;Node8 -->
<g id="edge7" class="edge">
<title>Node1&#45;&gt;Node8</title>
<path fill="none" stroke="#63b8ff" d="M415.72,-219.99C455.04,-209.44 508.04,-195.21 543.43,-185.72"/>
<polygon fill="#63b8ff" stroke="#63b8ff" points="544.61,-189.02 553.36,-183.05 542.79,-182.26 544.61,-189.02"/>
</g>
<!-- Node9 -->
<g id="node9" class="node">
<title>Node9</title>
<g id="a_node9"><a xlink:href="misc_8h.html" target="_top" xlink:title=" ">
<polygon fill="white" stroke="#666666" points="695.5,-184 627.5,-184 627.5,-165 695.5,-165 695.5,-184"/>
<text text-anchor="middle" x="661.5" y="-172" font-family="Helvetica,sans-Serif" font-size="10.00">my/misc.h</text>
</a>
</g>
</g>
<!-- Node1&#45;&gt;Node9 -->
<g id="edge8" class="edge">
<title>Node1&#45;&gt;Node9</title>
<path fill="none" stroke="#63b8ff" d="M422.25,-222.51C471.61,-212.84 544.33,-198.6 616.98,-184.3"/>
<polygon fill="#63b8ff" stroke="#63b8ff" points="618.1,-187.64 627.23,-182.28 616.75,-180.78 618.1,-187.64"/>
</g>
<!-- Node10 -->
<g id="node10" class="node">
<title>Node10</title>
<g id="a_node10"><a xlink:href="ast_8h.html" target="_top" xlink:title=" ">
<polygon fill="white" stroke="#666666" points="477,-129 436,-129 436,-110 477,-110 477,-129"/>
<text text-anchor="middle" x="456.5" y="-117" font-family="Helvetica,sans-Serif" font-size="10.00">ast.h</text>
</a>
</g>
</g>
<!-- Node1&#45;&gt;Node10 -->
<g id="edge9" class="edge">
<title>Node1&#45;&gt;Node10</title>
<path fill="none" stroke="#63b8ff" d="M375.28,-219.63C392.54,-198.56 424.63,-159.4 442.88,-137.13"/>
<polygon fill="#63b8ff" stroke="#63b8ff" points="445.72,-139.18 449.35,-129.23 440.3,-134.75 445.72,-139.18"/>
</g>
<!-- Node12 -->
<g id="node12" class="node">
<title>Node12</title>
<g id="a_node12"><a xlink:href="executer_8h.html" target="_top" xlink:title=" ">
<polygon fill="white" stroke="#666666" points="497,-184 430,-184 430,-165 497,-165 497,-184"/>
<text text-anchor="middle" x="463.5" y="-172" font-family="Helvetica,sans-Serif" font-size="10.00">executer.h</text>
</a>
</g>
</g>
<!-- Node1&#45;&gt;Node12 -->
<g id="edge11" class="edge">
<title>Node1&#45;&gt;Node12</title>
<path fill="none" stroke="#63b8ff" d="M387.45,-219.99C403.39,-210.66 424.23,-198.47 440.06,-189.21"/>
<polygon fill="#63b8ff" stroke="#63b8ff" points="441.87,-192.21 448.73,-184.14 438.33,-186.17 441.87,-192.21"/>
</g>
<!-- Node13 -->
<g id="node13" class="node">
<title>Node13</title>
<g id="a_node13"><a xlink:href="shell_8h.html" target="_top" xlink:title=" ">
<polygon fill="white" stroke="#666666" points="544,-129 495,-129 495,-110 544,-110 544,-129"/>
<text text-anchor="middle" x="519.5" y="-117" font-family="Helvetica,sans-Serif" font-size="10.00">shell.h</text>
</a>
</g>
</g>
<!-- Node1&#45;&gt;Node13 -->
<g id="edge17" class="edge">
<title>Node1&#45;&gt;Node13</title>
<path fill="none" stroke="#63b8ff" d="M422.31,-227.18C451.65,-220.75 485.3,-208.26 506.5,-184 517.14,-171.82 519.93,-153.3 520.33,-139.39"/>
<polygon fill="#63b8ff" stroke="#63b8ff" points="523.83,-139.01 520.23,-129.04 516.83,-139.08 523.83,-139.01"/>
</g>
<!-- Node11 -->
<g id="node11" class="node">
<title>Node11</title>
<g id="a_node11"><a xlink:title=" ">
<polygon fill="#e0e0e0" stroke="#999999" points="515.5,-19 459.5,-19 459.5,0 515.5,0 515.5,-19"/>
<text text-anchor="middle" x="487.5" y="-7" font-family="Helvetica,sans-Serif" font-size="10.00">stddef.h</text>
</a>
</g>
</g>
<!-- Node10&#45;&gt;Node11 -->
<g id="edge10" class="edge">
<title>Node10&#45;&gt;Node11</title>
<path fill="none" stroke="#63b8ff" d="M459.04,-109.66C464.08,-92.09 475.46,-52.45 482.2,-28.95"/>
<polygon fill="#63b8ff" stroke="#63b8ff" points="485.62,-29.74 485.01,-19.16 478.89,-27.8 485.62,-29.74"/>
</g>
<!-- Node12&#45;&gt;Node7 -->
<g id="edge16" class="edge">
<title>Node12&#45;&gt;Node7</title>
<path fill="none" stroke="#63b8ff" d="M449.36,-164.98C435.71,-156.77 414.81,-144.18 398.72,-134.49"/>
<polygon fill="#63b8ff" stroke="#63b8ff" points="400.27,-131.33 389.9,-129.17 396.66,-137.33 400.27,-131.33"/>
</g>
<!-- Node12&#45;&gt;Node10 -->
<g id="edge12" class="edge">
<title>Node12&#45;&gt;Node10</title>
<path fill="none" stroke="#63b8ff" d="M462.34,-164.75C461.43,-157.8 460.11,-147.85 458.96,-139.13"/>
<polygon fill="#63b8ff" stroke="#63b8ff" points="462.41,-138.54 457.63,-129.09 455.47,-139.46 462.41,-138.54"/>
</g>
<!-- Node12&#45;&gt;Node13 -->
<g id="edge13" class="edge">
<title>Node12&#45;&gt;Node13</title>
<path fill="none" stroke="#63b8ff" d="M472.5,-164.98C480.69,-157.23 493.01,-145.58 502.97,-136.14"/>
<polygon fill="#63b8ff" stroke="#63b8ff" points="505.48,-138.59 510.34,-129.17 500.67,-133.5 505.48,-138.59"/>
</g>
<!-- Node14 -->
<g id="node14" class="node">
<title>Node14</title>
<g id="a_node14"><a xlink:href="list_8h.html" target="_top" xlink:title=" ">
<polygon fill="white" stroke="#666666" points="547,-74 488,-74 488,-55 547,-55 547,-74"/>
<text text-anchor="middle" x="517.5" y="-62" font-family="Helvetica,sans-Serif" font-size="10.00">my/list.h</text>
</a>
</g>
</g>
<!-- Node13&#45;&gt;Node14 -->
<g id="edge14" class="edge">
<title>Node13&#45;&gt;Node14</title>
<path fill="none" stroke="#63b8ff" d="M519.17,-109.75C518.91,-102.8 518.53,-92.85 518.2,-84.13"/>
<polygon fill="#63b8ff" stroke="#63b8ff" points="521.7,-83.95 517.82,-74.09 514.7,-84.21 521.7,-83.95"/>
</g>
<!-- Node14&#45;&gt;Node11 -->
<g id="edge15" class="edge">
<title>Node14&#45;&gt;Node11</title>
<path fill="none" stroke="#63b8ff" d="M512.55,-54.75C508.44,-47.49 502.47,-36.95 497.4,-27.98"/>
<polygon fill="#63b8ff" stroke="#63b8ff" points="500.33,-26.07 492.36,-19.09 494.24,-29.52 500.33,-26.07"/>
</g>
</g>
</svg>
