<?xml version="1.0" encoding="UTF-8" standalone="no"?>
<!DOCTYPE svg PUBLIC "-//W3C//DTD SVG 1.1//EN"
 "http://www.w3.org/Graphics/SVG/1.1/DTD/svg11.dtd">
<!-- Generated by graphviz version 2.43.0 (0)
 -->
<!-- Title: execute_pipe_right Pages: 1 -->
<svg width="1317pt" height="401pt"
 viewBox="0.00 0.00 1317.00 401.00" xmlns="http://www.w3.org/2000/svg" xmlns:xlink="http://www.w3.org/1999/xlink">
<g id="graph0" class="graph" transform="scale(1 1) rotate(0) translate(4 397)">
<title>execute_pipe_right</title>
<!-- Node1 -->
<g id="node1" class="node">
<title>Node1</title>
<g id="a_node1"><a xlink:title=" ">
<polygon fill="#999999" stroke="#666666" points="109,-74 0,-74 0,-55 109,-55 109,-74"/>
<text text-anchor="middle" x="54.5" y="-62" font-family="Helvetica,sans-Serif" font-size="10.00">execute_pipe_right</text>
</a>
</g>
</g>
<!-- Node2 -->
<g id="node2" class="node">
<title>Node2</title>
<g id="a_node2"><a xlink:href="execute__pipe_8c.html#a723ff799f939872d17f109a82342294e" target="_top" xlink:title=" ">
<polygon fill="white" stroke="#666666" points="654,-55 592,-55 592,-36 654,-36 654,-55"/>
<text text-anchor="middle" x="623" y="-43" font-family="Helvetica,sans-Serif" font-size="10.00">close_fds</text>
</a>
</g>
</g>
<!-- Node1&#45;&gt;Node2 -->
<g id="edge1" class="edge">
<title>Node1&#45;&gt;Node2</title>
<path fill="none" stroke="#63b8ff" d="M73.02,-54.83C90.6,-45.72 118.78,-32.71 145,-27.5 304.21,4.11 499.04,-23.19 581.77,-37.76"/>
<polygon fill="#63b8ff" stroke="#63b8ff" points="581.3,-41.23 591.76,-39.55 582.53,-34.34 581.3,-41.23"/>
</g>
<!-- Node3 -->
<g id="node3" class="node">
<title>Node3</title>
<g id="a_node3"><a xlink:href="execute__ast_8c.html#ad26a20a665ab7fdeb714ed53c1afd104" target="_top" xlink:title=" ">
<polygon fill="white" stroke="#666666" points="222.5,-226 147.5,-226 147.5,-207 222.5,-207 222.5,-226"/>
<text text-anchor="middle" x="185" y="-214" font-family="Helvetica,sans-Serif" font-size="10.00">execute_ast</text>
</a>
</g>
</g>
<!-- Node1&#45;&gt;Node3 -->
<g id="edge2" class="edge">
<title>Node1&#45;&gt;Node3</title>
<path fill="none" stroke="#63b8ff" d="M63.54,-74.01C84.72,-99.07 142.31,-167.18 169.46,-199.3"/>
<polygon fill="#63b8ff" stroke="#63b8ff" points="166.84,-201.62 175.96,-207 172.18,-197.1 166.84,-201.62"/>
</g>
<!-- Node35 -->
<g id="node35" class="node">
<title>Node35</title>
<g id="a_node35"><a xlink:href="execute__pipe_8c.html#ac3d3a124b262676fa0679720f99a7f83" target="_top" xlink:title=" ">
<polygon fill="white" stroke="#666666" points="225,-55 145,-55 145,-36 225,-36 225,-55"/>
<text text-anchor="middle" x="185" y="-43" font-family="Helvetica,sans-Serif" font-size="10.00">restore_stdin</text>
</a>
</g>
</g>
<!-- Node1&#45;&gt;Node35 -->
<g id="edge49" class="edge">
<title>Node1&#45;&gt;Node35</title>
<path fill="none" stroke="#63b8ff" d="M109.25,-56.55C117.76,-55.29 126.52,-54 134.91,-52.76"/>
<polygon fill="#63b8ff" stroke="#63b8ff" points="135.55,-56.2 144.93,-51.28 134.52,-49.28 135.55,-56.2"/>
</g>
<!-- Node4 -->
<g id="node4" class="node">
<title>Node4</title>
<g id="a_node4"><a xlink:href="execute__cmd_8c.html#a94ea9cc5a046ce96e36764bf0e4fa2c0" target="_top" xlink:title=" ">
<polygon fill="white" stroke="#666666" points="359.5,-282 278.5,-282 278.5,-263 359.5,-263 359.5,-282"/>
<text text-anchor="middle" x="319" y="-270" font-family="Helvetica,sans-Serif" font-size="10.00">execute_cmd</text>
</a>
</g>
</g>
<!-- Node3&#45;&gt;Node4 -->
<g id="edge3" class="edge">
<title>Node3&#45;&gt;Node4</title>
<path fill="none" stroke="#63b8ff" d="M202.91,-226.07C217.87,-234.29 240.46,-246.12 261,-254.5 265.45,-256.32 270.16,-258.06 274.88,-259.71"/>
<polygon fill="#63b8ff" stroke="#63b8ff" points="273.93,-263.08 284.52,-262.93 276.14,-256.44 273.93,-263.08"/>
</g>
<!-- Node20 -->
<g id="node20" class="node">
<title>Node20</title>
<g id="a_node20"><a xlink:href="execute__logical__and_8c.html#a4f940752faf9f9a258c49810b21efe47" target="_top" xlink:title=" ">
<polygon fill="white" stroke="#666666" points="377,-169 261,-169 261,-150 377,-150 377,-169"/>
<text text-anchor="middle" x="319" y="-157" font-family="Helvetica,sans-Serif" font-size="10.00">execute_logical_and</text>
</a>
</g>
</g>
<!-- Node3&#45;&gt;Node20 -->
<g id="edge22" class="edge">
<title>Node3&#45;&gt;Node20</title>
<path fill="none" stroke="#63b8ff" d="M194.76,-206.94C208.73,-197.37 236.96,-184.85 261,-174.5 262.16,-174 263.34,-173.49 264.53,-172.98"/>
<polygon fill="#63b8ff" stroke="#63b8ff" points="265.93,-176.19 273.78,-169.08 263.21,-169.74 265.93,-176.19"/>
</g>
<!-- Node21 -->
<g id="node21" class="node">
<title>Node21</title>
<g id="a_node21"><a xlink:href="execute__logical__or_8c.html#a7e732d7c30b07010fa55850051007dcc" target="_top" xlink:title=" ">
<polygon fill="white" stroke="#666666" points="372.5,-132 265.5,-132 265.5,-113 372.5,-113 372.5,-132"/>
<text text-anchor="middle" x="319" y="-120" font-family="Helvetica,sans-Serif" font-size="10.00">execute_logical_or</text>
</a>
</g>
</g>
<!-- Node3&#45;&gt;Node21 -->
<g id="edge24" class="edge">
<title>Node3&#45;&gt;Node21</title>
<path fill="none" stroke="#63b8ff" d="M189.92,-206.74C199.32,-189.93 224.51,-157.89 256.98,-135.46"/>
<polygon fill="#63b8ff" stroke="#63b8ff" points="258.92,-138.37 265.38,-129.98 255.09,-132.5 258.92,-138.37"/>
</g>
<!-- Node22 -->
<g id="node22" class="node">
<title>Node22</title>
<g id="a_node22"><a xlink:href="execute__pipe_8c.html#a5f3546dc2c7cf06c982afba41e722164" target="_top" xlink:title=" ">
<polygon fill="white" stroke="#666666" points="359.5,-56 278.5,-56 278.5,-37 359.5,-37 359.5,-56"/>
<text text-anchor="middle" x="319" y="-44" font-family="Helvetica,sans-Serif" font-size="10.00">execute_pipe</text>
</a>
</g>
</g>
<!-- Node3&#45;&gt;Node22 -->
<g id="edge26" class="edge">
<title>Node3&#45;&gt;Node22</title>
<path fill="none" stroke="#63b8ff" d="M188.44,-206.91C195.4,-181.31 217.74,-110.59 261,-70.5 265.18,-66.62 270.09,-63.32 275.23,-60.52"/>
<polygon fill="#63b8ff" stroke="#63b8ff" points="277.13,-63.49 284.64,-56.02 274.11,-57.18 277.13,-63.49"/>
</g>
<!-- Node24 -->
<g id="node24" class="node">
<title>Node24</title>
<g id="a_node24"><a xlink:href="execute__redirect_8c.html#a1004307aba80117ddd99f009e52fb155" target="_top" xlink:title=" ">
<polygon fill="white" stroke="#666666" points="368,-245 270,-245 270,-226 368,-226 368,-245"/>
<text text-anchor="middle" x="319" y="-233" font-family="Helvetica,sans-Serif" font-size="10.00">execute_redirect</text>
</a>
</g>
</g>
<!-- Node3&#45;&gt;Node24 -->
<g id="edge33" class="edge">
<title>Node3&#45;&gt;Node24</title>
<path fill="none" stroke="#63b8ff" d="M222.77,-221.79C234.21,-223.44 247.11,-225.3 259.64,-227.1"/>
<polygon fill="#63b8ff" stroke="#63b8ff" points="259.18,-230.57 269.58,-228.53 260.18,-223.64 259.18,-230.57"/>
</g>
<!-- Node32 -->
<g id="node32" class="node">
<title>Node32</title>
<g id="a_node32"><a xlink:href="execute__repeat_8c.html#a00d48683c54b50130b4a402e6e97fa97" target="_top" xlink:title=" ">
<polygon fill="white" stroke="#666666" points="365,-393 273,-393 273,-374 365,-374 365,-393"/>
<text text-anchor="middle" x="319" y="-381" font-family="Helvetica,sans-Serif" font-size="10.00">execute_repeat</text>
</a>
</g>
</g>
<!-- Node3&#45;&gt;Node32 -->
<g id="edge42" class="edge">
<title>Node3&#45;&gt;Node32</title>
<path fill="none" stroke="#63b8ff" d="M189.31,-226.19C196.77,-251.91 217.78,-319.71 261,-356.5 269.24,-363.51 280.22,-367.8 290.34,-371.02"/>
<polygon fill="#63b8ff" stroke="#63b8ff" points="289.46,-374.41 300.05,-373.96 291.49,-367.71 289.46,-374.41"/>
</g>
<!-- Node33 -->
<g id="node33" class="node">
<title>Node33</title>
<g id="a_node33"><a xlink:href="execute__sequence_8c.html#aad2caa5bf50b0752dd8272da477ec231" target="_top" xlink:title=" ">
<polygon fill="white" stroke="#666666" points="372.5,-319 265.5,-319 265.5,-300 372.5,-300 372.5,-319"/>
<text text-anchor="middle" x="319" y="-307" font-family="Helvetica,sans-Serif" font-size="10.00">execute_sequence</text>
</a>
</g>
</g>
<!-- Node3&#45;&gt;Node33 -->
<g id="edge44" class="edge">
<title>Node3&#45;&gt;Node33</title>
<path fill="none" stroke="#63b8ff" d="M198.34,-226.16C211.95,-240.78 235.34,-266.92 261,-282.5 271.22,-288.7 283.78,-292.97 294.51,-296.6"/>
<polygon fill="#63b8ff" stroke="#63b8ff" points="293.5,-299.96 304.1,-299.94 295.8,-293.35 293.5,-299.96"/>
</g>
<!-- Node34 -->
<g id="node34" class="node">
<title>Node34</title>
<g id="a_node34"><a xlink:href="execute__subshell_8c.html#a40a27866de012b013a337f794a858d70" target="_top" xlink:title=" ">
<polygon fill="white" stroke="#666666" points="369.5,-356 268.5,-356 268.5,-337 369.5,-337 369.5,-356"/>
<text text-anchor="middle" x="319" y="-344" font-family="Helvetica,sans-Serif" font-size="10.00">execute_subshell</text>
</a>
</g>
</g>
<!-- Node3&#45;&gt;Node34 -->
<g id="edge46" class="edge">
<title>Node3&#45;&gt;Node34</title>
<path fill="none" stroke="#63b8ff" d="M192.29,-226.31C202.88,-247.11 226.55,-293.67 261,-319.5 269.97,-326.22 281.51,-330.48 291.87,-333.82"/>
<polygon fill="#63b8ff" stroke="#63b8ff" points="291.09,-337.25 301.68,-336.93 293.2,-330.58 291.09,-337.25"/>
</g>
<!-- Node5 -->
<g id="node5" class="node">
<title>Node5</title>
<g id="a_node5"><a xlink:href="execute__cmd_8c.html#a0cfd2364134e68efdd39533e00b4b0d9" target="_top" xlink:title=" ">
<polygon fill="white" stroke="#666666" points="532,-234 413,-234 413,-215 532,-215 532,-234"/>
<text text-anchor="middle" x="472.5" y="-222" font-family="Helvetica,sans-Serif" font-size="10.00">execute_local_binary</text>
</a>
</g>
</g>
<!-- Node4&#45;&gt;Node5 -->
<g id="edge4" class="edge">
<title>Node4&#45;&gt;Node5</title>
<path fill="none" stroke="#63b8ff" d="M350.18,-262.98C358.84,-260.25 368.29,-257.26 377,-254.5 394.97,-248.81 414.86,-242.5 431.74,-237.14"/>
<polygon fill="#63b8ff" stroke="#63b8ff" points="432.82,-240.47 441.29,-234.1 430.7,-233.8 432.82,-240.47"/>
</g>
<!-- Node14 -->
<g id="node14" class="node">
<title>Node14</title>
<g id="a_node14"><a xlink:href="execute__cmd_8c.html#a460126af28ab29df4340554fae9fc57a" target="_top" xlink:title=" ">
<polygon fill="white" stroke="#666666" points="531.5,-281 413.5,-281 413.5,-262 531.5,-262 531.5,-281"/>
<text text-anchor="middle" x="472.5" y="-269" font-family="Helvetica,sans-Serif" font-size="10.00">execute_path_binary</text>
</a>
</g>
</g>
<!-- Node4&#45;&gt;Node14 -->
<g id="edge14" class="edge">
<title>Node4&#45;&gt;Node14</title>
<path fill="none" stroke="#63b8ff" d="M359.8,-272.24C373.13,-272.15 388.38,-272.05 403.24,-271.95"/>
<polygon fill="#63b8ff" stroke="#63b8ff" points="403.46,-275.45 413.44,-271.88 403.41,-268.45 403.46,-275.45"/>
</g>
<!-- Node19 -->
<g id="node19" class="node">
<title>Node19</title>
<g id="a_node19"><a xlink:href="strings_8h.html#a36f055c4e56c8a784629908d0c5b91e5" target="_top" xlink:title=" ">
<polygon fill="white" stroke="#666666" points="994,-282 890,-282 890,-263 994,-263 994,-282"/>
<text text-anchor="middle" x="942" y="-270" font-family="Helvetica,sans-Serif" font-size="10.00">my_is_char_in_str</text>
</a>
</g>
</g>
<!-- Node4&#45;&gt;Node19 -->
<g id="edge21" class="edge">
<title>Node4&#45;&gt;Node19</title>
<path fill="none" stroke="#63b8ff" d="M359.58,-281.89C376.01,-285.34 395.32,-288.8 413,-290.5 606.78,-309.08 657.28,-309.68 851,-290.5 864.39,-289.17 878.75,-286.76 891.97,-284.13"/>
<polygon fill="#63b8ff" stroke="#63b8ff" points="892.74,-287.54 901.82,-282.08 891.32,-280.69 892.74,-287.54"/>
</g>
<!-- Node6 -->
<g id="node6" class="node">
<title>Node6</title>
<g id="a_node6"><a xlink:href="execute__cmd_8c.html#a018afe6a043051ebc2e3dd9412587990" target="_top" xlink:title=" ">
<polygon fill="white" stroke="#666666" points="828,-187 737,-187 737,-168 828,-168 828,-187"/>
<text text-anchor="middle" x="782.5" y="-175" font-family="Helvetica,sans-Serif" font-size="10.00">execute_binary</text>
</a>
</g>
</g>
<!-- Node5&#45;&gt;Node6 -->
<g id="edge5" class="edge">
<title>Node5&#45;&gt;Node6</title>
<path fill="none" stroke="#63b8ff" d="M532.16,-215.55C588.07,-207.02 671.63,-194.27 726.35,-185.92"/>
<polygon fill="#63b8ff" stroke="#63b8ff" points="727.2,-189.33 736.56,-184.36 726.14,-182.41 727.2,-189.33"/>
</g>
<!-- Node7 -->
<g id="node7" class="node">
<title>Node7</title>
<g id="a_node7"><a xlink:href="env__to__word__array_8c.html#aea7253d35c5aa57d9cfe9d7df218cb90" target="_top" xlink:title=" ">
<polygon fill="white" stroke="#666666" points="997,-74 887,-74 887,-55 997,-55 997,-74"/>
<text text-anchor="middle" x="942" y="-62" font-family="Helvetica,sans-Serif" font-size="10.00">env_to_word_array</text>
</a>
</g>
</g>
<!-- Node6&#45;&gt;Node7 -->
<g id="edge6" class="edge">
<title>Node6&#45;&gt;Node7</title>
<path fill="none" stroke="#63b8ff" d="M791.66,-167.87C807.97,-149.17 846.56,-107.62 887,-83.5 890.41,-81.47 894.07,-79.61 897.81,-77.91"/>
<polygon fill="#63b8ff" stroke="#63b8ff" points="899.3,-81.09 907.22,-74.05 896.64,-74.61 899.3,-81.09"/>
</g>
<!-- Node10 -->
<g id="node10" class="node">
<title>Node10</title>
<g id="a_node10"><a xlink:href="execute__cmd_8c.html#a6badc27baa1930e30ea2ad3817f65366" target="_top" xlink:title=" ">
<polygon fill="white" stroke="#666666" points="982,-111 902,-111 902,-92 982,-92 982,-111"/>
<text text-anchor="middle" x="942" y="-99" font-family="Helvetica,sans-Serif" font-size="10.00">execute_fork</text>
</a>
</g>
</g>
<!-- Node6&#45;&gt;Node10 -->
<g id="edge9" class="edge">
<title>Node6&#45;&gt;Node10</title>
<path fill="none" stroke="#63b8ff" d="M803.45,-167.87C830.9,-154.63 880.51,-130.69 912.05,-115.47"/>
<polygon fill="#63b8ff" stroke="#63b8ff" points="913.73,-118.55 921.21,-111.05 910.69,-112.24 913.73,-118.55"/>
</g>
<!-- Node8 -->
<g id="node8" class="node">
<title>Node8</title>
<g id="a_node8"><a xlink:href="misc_8h.html#a1180cae2875b1fdcd58c9f9175a82c12" target="_top" xlink:title=" ">
<polygon fill="white" stroke="#666666" points="1150,-93 1033,-93 1033,-74 1150,-74 1150,-93"/>
<text text-anchor="middle" x="1091.5" y="-81" font-family="Helvetica,sans-Serif" font-size="10.00">my_free_word_array</text>
</a>
</g>
</g>
<!-- Node7&#45;&gt;Node8 -->
<g id="edge7" class="edge">
<title>Node7&#45;&gt;Node8</title>
<path fill="none" stroke="#63b8ff" d="M997.09,-71.47C1005.48,-72.55 1014.24,-73.68 1022.88,-74.79"/>
<polygon fill="#63b8ff" stroke="#63b8ff" points="1022.58,-78.28 1032.95,-76.09 1023.48,-71.34 1022.58,-78.28"/>
</g>
<!-- Node9 -->
<g id="node9" class="node">
<title>Node9</title>
<g id="a_node9"><a xlink:href="list_8h.html#ad5ebb7cdb26f73e4b212dfc5eae4ef0e" target="_top" xlink:title=" ">
<polygon fill="white" stroke="#666666" points="1136,-56 1047,-56 1047,-37 1136,-37 1136,-56"/>
<text text-anchor="middle" x="1091.5" y="-44" font-family="Helvetica,sans-Serif" font-size="10.00">my_list_length</text>
</a>
</g>
</g>
<!-- Node7&#45;&gt;Node9 -->
<g id="edge8" class="edge">
<title>Node7&#45;&gt;Node9</title>
<path fill="none" stroke="#63b8ff" d="M997.09,-57.9C1009.93,-56.33 1023.64,-54.66 1036.48,-53.09"/>
<polygon fill="#63b8ff" stroke="#63b8ff" points="1037.06,-56.55 1046.56,-51.86 1036.21,-49.6 1037.06,-56.55"/>
</g>
<!-- Node10&#45;&gt;Node8 -->
<g id="edge10" class="edge">
<title>Node10&#45;&gt;Node8</title>
<path fill="none" stroke="#63b8ff" d="M982.14,-96.72C994.64,-95.2 1008.85,-93.46 1022.78,-91.76"/>
<polygon fill="#63b8ff" stroke="#63b8ff" points="1023.34,-95.22 1032.84,-90.54 1022.49,-88.27 1023.34,-95.22"/>
</g>
<!-- Node11 -->
<g id="node11" class="node">
<title>Node11</title>
<g id="a_node11"><a xlink:href="execute__cmd_8c.html#a2c49b9849cfef0deea03382c9f1b3ab8" target="_top" xlink:title=" ">
<polygon fill="white" stroke="#666666" points="1137.5,-130 1045.5,-130 1045.5,-111 1137.5,-111 1137.5,-130"/>
<text text-anchor="middle" x="1091.5" y="-118" font-family="Helvetica,sans-Serif" font-size="10.00">run_subprocess</text>
</a>
</g>
</g>
<!-- Node10&#45;&gt;Node11 -->
<g id="edge11" class="edge">
<title>Node10&#45;&gt;Node11</title>
<path fill="none" stroke="#63b8ff" d="M982.14,-106.54C998.41,-108.64 1017.58,-111.11 1035.24,-113.38"/>
<polygon fill="#63b8ff" stroke="#63b8ff" points="1035.06,-116.89 1045.43,-114.69 1035.96,-109.95 1035.06,-116.89"/>
</g>
<!-- Node12 -->
<g id="node12" class="node">
<title>Node12</title>
<g id="a_node12"><a xlink:href="wait__for__subprocess_8c.html#a1242d78540fd0ddef3d98a9f294cb0d4" target="_top" xlink:title=" ">
<polygon fill="white" stroke="#666666" points="1149.5,-167 1033.5,-167 1033.5,-148 1149.5,-148 1149.5,-167"/>
<text text-anchor="middle" x="1091.5" y="-155" font-family="Helvetica,sans-Serif" font-size="10.00">wait_for_subprocess</text>
</a>
</g>
</g>
<!-- Node10&#45;&gt;Node12 -->
<g id="edge12" class="edge">
<title>Node10&#45;&gt;Node12</title>
<path fill="none" stroke="#63b8ff" d="M964.23,-111.15C982.32,-119.2 1009.11,-130.74 1033,-139.5 1037.91,-141.3 1043.09,-143.08 1048.25,-144.79"/>
<polygon fill="#63b8ff" stroke="#63b8ff" points="1047.49,-148.22 1058.08,-147.95 1049.63,-141.55 1047.49,-148.22"/>
</g>
<!-- Node13 -->
<g id="node13" class="node">
<title>Node13</title>
<g id="a_node13"><a xlink:href="wait__for__subprocess_8c.html#a885766ba6ba593b7cf27b917dd52b1a6" target="_top" xlink:title=" ">
<polygon fill="white" stroke="#666666" points="1309,-167 1186,-167 1186,-148 1309,-148 1309,-167"/>
<text text-anchor="middle" x="1247.5" y="-155" font-family="Helvetica,sans-Serif" font-size="10.00">print_signal_message</text>
</a>
</g>
</g>
<!-- Node12&#45;&gt;Node13 -->
<g id="edge13" class="edge">
<title>Node12&#45;&gt;Node13</title>
<path fill="none" stroke="#63b8ff" d="M1149.84,-157.5C1158.26,-157.5 1167.02,-157.5 1175.67,-157.5"/>
<polygon fill="#63b8ff" stroke="#63b8ff" points="1175.76,-161 1185.76,-157.5 1175.76,-154 1175.76,-161"/>
</g>
<!-- Node15 -->
<g id="node15" class="node">
<title>Node15</title>
<g id="a_node15"><a xlink:href="get__variable__value_8c.html#a2edd9900f19af236aa05385a789be3d6" target="_top" xlink:title=" ">
<polygon fill="white" stroke="#666666" points="678,-281 568,-281 568,-262 678,-262 678,-281"/>
<text text-anchor="middle" x="623" y="-269" font-family="Helvetica,sans-Serif" font-size="10.00">get_variable_value</text>
</a>
</g>
</g>
<!-- Node14&#45;&gt;Node15 -->
<g id="edge15" class="edge">
<title>Node14&#45;&gt;Node15</title>
<path fill="none" stroke="#63b8ff" d="M531.76,-271.5C540.29,-271.5 549.11,-271.5 557.75,-271.5"/>
<polygon fill="#63b8ff" stroke="#63b8ff" points="557.78,-275 567.78,-271.5 557.78,-268 557.78,-275"/>
</g>
<!-- Node17 -->
<g id="node17" class="node">
<title>Node17</title>
<g id="a_node17"><a xlink:href="execute__cmd_8c.html#aee9e13edede9df28fac066f30e7ae7ed" target="_top" xlink:title=" ">
<polygon fill="white" stroke="#666666" points="665,-244 581,-244 581,-225 665,-225 665,-244"/>
<text text-anchor="middle" x="623" y="-232" font-family="Helvetica,sans-Serif" font-size="10.00">try_command</text>
</a>
</g>
</g>
<!-- Node14&#45;&gt;Node17 -->
<g id="edge17" class="edge">
<title>Node14&#45;&gt;Node17</title>
<path fill="none" stroke="#63b8ff" d="M511.74,-261.97C530.64,-257.26 553.63,-251.53 573.73,-246.53"/>
<polygon fill="#63b8ff" stroke="#63b8ff" points="574.77,-249.87 583.63,-244.06 573.08,-243.08 574.77,-249.87"/>
</g>
<!-- Node16 -->
<g id="node16" class="node">
<title>Node16</title>
<g id="a_node16"><a xlink:href="get__variable_8c.html#a569170390f0edf013bf89c26ef55ea8c" target="_top" xlink:title=" ">
<polygon fill="white" stroke="#666666" points="821,-281 744,-281 744,-262 821,-262 821,-281"/>
<text text-anchor="middle" x="782.5" y="-269" font-family="Helvetica,sans-Serif" font-size="10.00">get_variable</text>
</a>
</g>
</g>
<!-- Node15&#45;&gt;Node16 -->
<g id="edge16" class="edge">
<title>Node15&#45;&gt;Node16</title>
<path fill="none" stroke="#63b8ff" d="M678.2,-271.5C696.04,-271.5 715.73,-271.5 733.11,-271.5"/>
<polygon fill="#63b8ff" stroke="#63b8ff" points="733.58,-275 743.58,-271.5 733.58,-268 733.58,-275"/>
</g>
<!-- Node17&#45;&gt;Node6 -->
<g id="edge18" class="edge">
<title>Node17&#45;&gt;Node6</title>
<path fill="none" stroke="#63b8ff" d="M650.36,-224.96C676.37,-215.55 716.33,-201.09 745.3,-190.6"/>
<polygon fill="#63b8ff" stroke="#63b8ff" points="746.84,-193.77 755.05,-187.07 744.46,-187.18 746.84,-193.77"/>
</g>
<!-- Node18 -->
<g id="node18" class="node">
<title>Node18</title>
<g id="a_node18"><a xlink:href="execute__cmd_8c.html#a9ef2f2dfa839f59ba42718ef236d4dcb" target="_top" xlink:title=" ">
<polygon fill="white" stroke="#666666" points="851,-244 714,-244 714,-225 851,-225 851,-244"/>
<text text-anchor="middle" x="782.5" y="-232" font-family="Helvetica,sans-Serif" font-size="10.00">print_permission_denied</text>
</a>
</g>
</g>
<!-- Node17&#45;&gt;Node18 -->
<g id="edge19" class="edge">
<title>Node17&#45;&gt;Node18</title>
<path fill="none" stroke="#63b8ff" d="M665.38,-234.5C677.22,-234.5 690.52,-234.5 703.79,-234.5"/>
<polygon fill="#63b8ff" stroke="#63b8ff" points="703.9,-238 713.9,-234.5 703.9,-231 703.9,-238"/>
</g>
<!-- Node18&#45;&gt;Node19 -->
<g id="edge20" class="edge">
<title>Node18&#45;&gt;Node19</title>
<path fill="none" stroke="#63b8ff" d="M823.24,-244.09C844.03,-249.1 869.66,-255.29 891.7,-260.61"/>
<polygon fill="#63b8ff" stroke="#63b8ff" points="891,-264.04 901.54,-262.98 892.64,-257.23 891,-264.04"/>
</g>
<!-- Node20&#45;&gt;Node3 -->
<g id="edge23" class="edge">
<title>Node20&#45;&gt;Node3</title>
<path fill="none" stroke="#63b8ff" d="M309.48,-169.21C298.33,-176.68 278.16,-185.11 261,-192.5 251.59,-196.55 241.54,-200.93 231.96,-204.94"/>
<polygon fill="#63b8ff" stroke="#63b8ff" points="230.49,-201.76 222.57,-208.79 233.15,-208.23 230.49,-201.76"/>
</g>
<!-- Node21&#45;&gt;Node3 -->
<g id="edge25" class="edge">
<title>Node21&#45;&gt;Node3</title>
<path fill="none" stroke="#63b8ff" d="M304.57,-132.16C292.52,-136.89 274.66,-142.05 261,-150.5 239.46,-163.81 219.41,-184.47 205.48,-199.34"/>
<polygon fill="#63b8ff" stroke="#63b8ff" points="202.66,-197.23 198.39,-206.92 207.78,-202 202.66,-197.23"/>
</g>
<!-- Node22&#45;&gt;Node1 -->
<g id="edge31" class="edge">
<title>Node22&#45;&gt;Node1</title>
<path fill="none" stroke="#63b8ff" d="M278.42,-55.89C261.99,-59.34 242.68,-62.8 225,-64.5 190.11,-67.85 150.99,-68.08 119.14,-67.37"/>
<polygon fill="#63b8ff" stroke="#63b8ff" points="119.15,-63.87 109.06,-67.11 118.97,-70.87 119.15,-63.87"/>
</g>
<!-- Node22&#45;&gt;Node2 -->
<g id="edge27" class="edge">
<title>Node22&#45;&gt;Node2</title>
<path fill="none" stroke="#63b8ff" d="M359.79,-46.37C417.39,-46.18 523.43,-45.83 581.45,-45.63"/>
<polygon fill="#63b8ff" stroke="#63b8ff" points="581.72,-49.13 591.71,-45.6 581.69,-42.13 581.72,-49.13"/>
</g>
<!-- Node22&#45;&gt;Node12 -->
<g id="edge32" class="edge">
<title>Node22&#45;&gt;Node12</title>
<path fill="none" stroke="#63b8ff" d="M359.54,-52.2C483.77,-70.09 867.28,-125.34 1023.37,-147.83"/>
<polygon fill="#63b8ff" stroke="#63b8ff" points="1022.92,-151.3 1033.32,-149.26 1023.92,-144.37 1022.92,-151.3"/>
</g>
<!-- Node23 -->
<g id="node23" class="node">
<title>Node23</title>
<g id="a_node23"><a xlink:href="execute__pipe_8c.html#ac529ffc2370b0133613ef8a81e58ed85" target="_top" xlink:title=" ">
<polygon fill="white" stroke="#666666" points="523.5,-131 421.5,-131 421.5,-112 523.5,-112 523.5,-131"/>
<text text-anchor="middle" x="472.5" y="-119" font-family="Helvetica,sans-Serif" font-size="10.00">execute_pipe_left</text>
</a>
</g>
</g>
<!-- Node22&#45;&gt;Node23 -->
<g id="edge28" class="edge">
<title>Node22&#45;&gt;Node23</title>
<path fill="none" stroke="#63b8ff" d="M346.46,-56.07C356.31,-60.03 367.41,-65 377,-70.5 394.35,-80.46 395.61,-87.62 413,-97.5 419.69,-101.3 427.11,-104.82 434.35,-107.93"/>
<polygon fill="#63b8ff" stroke="#63b8ff" points="433.45,-111.34 444.03,-111.9 436.11,-104.86 433.45,-111.34"/>
</g>
<!-- Node23&#45;&gt;Node2 -->
<g id="edge29" class="edge">
<title>Node23&#45;&gt;Node2</title>
<path fill="none" stroke="#63b8ff" d="M492.31,-111.87C518.08,-98.68 564.57,-74.89 594.32,-59.67"/>
<polygon fill="#63b8ff" stroke="#63b8ff" points="596.04,-62.72 603.35,-55.05 592.85,-56.49 596.04,-62.72"/>
</g>
<!-- Node23&#45;&gt;Node3 -->
<g id="edge30" class="edge">
<title>Node23&#45;&gt;Node3</title>
<path fill="none" stroke="#63b8ff" d="M448.35,-111.91C407.73,-96.68 322.13,-71.87 261,-104.5 224.17,-124.16 202.25,-170.82 192.34,-197.29"/>
<polygon fill="#63b8ff" stroke="#63b8ff" points="188.96,-196.37 188.92,-206.96 195.56,-198.7 188.96,-196.37"/>
</g>
<!-- Node25 -->
<g id="node25" class="node">
<title>Node25</title>
<g id="a_node25"><a xlink:href="execute__redirect_8c.html#a5aa0f008806cc0e8a7ba252d61b7001f" target="_top" xlink:title=" ">
<polygon fill="white" stroke="#666666" points="526,-178 419,-178 419,-159 526,-159 526,-178"/>
<text text-anchor="middle" x="472.5" y="-166" font-family="Helvetica,sans-Serif" font-size="10.00">redirect_execution</text>
</a>
</g>
</g>
<!-- Node24&#45;&gt;Node25 -->
<g id="edge34" class="edge">
<title>Node24&#45;&gt;Node25</title>
<path fill="none" stroke="#63b8ff" d="M343.08,-225.96C353.48,-221.61 365.89,-216.37 377,-211.5 398.79,-201.96 423.24,-190.82 441.8,-182.28"/>
<polygon fill="#63b8ff" stroke="#63b8ff" points="443.32,-185.43 450.93,-178.06 440.38,-179.08 443.32,-185.43"/>
</g>
<!-- Node25&#45;&gt;Node3 -->
<g id="edge35" class="edge">
<title>Node25&#45;&gt;Node3</title>
<path fill="none" stroke="#63b8ff" d="M418.9,-177.34C365.62,-186.3 283.97,-200.03 232.85,-208.62"/>
<polygon fill="#63b8ff" stroke="#63b8ff" points="232.02,-205.21 222.74,-210.32 233.18,-212.12 232.02,-205.21"/>
</g>
<!-- Node26 -->
<g id="node26" class="node">
<title>Node26</title>
<g id="a_node26"><a xlink:href="execute__redirect_8c.html#a1b8f325fc375581f81ae47a54e09cf0e" target="_top" xlink:title=" ">
<polygon fill="white" stroke="#666666" points="656,-168 590,-168 590,-149 656,-149 656,-168"/>
<text text-anchor="middle" x="623" y="-156" font-family="Helvetica,sans-Serif" font-size="10.00">restore_fd</text>
</a>
</g>
</g>
<!-- Node25&#45;&gt;Node26 -->
<g id="edge36" class="edge">
<title>Node25&#45;&gt;Node26</title>
<path fill="none" stroke="#63b8ff" d="M526.27,-164.95C543.64,-163.78 562.73,-162.49 579.26,-161.38"/>
<polygon fill="#63b8ff" stroke="#63b8ff" points="579.96,-164.84 589.71,-160.67 579.49,-157.85 579.96,-164.84"/>
</g>
<!-- Node27 -->
<g id="node27" class="node">
<title>Node27</title>
<g id="a_node27"><a xlink:href="execute__redirect_8c.html#a6cb002bd51f2009eaacc66d388c5f9a7" target="_top" xlink:title=" ">
<polygon fill="white" stroke="#666666" points="673.5,-131 572.5,-131 572.5,-112 673.5,-112 673.5,-131"/>
<text text-anchor="middle" x="623" y="-119" font-family="Helvetica,sans-Serif" font-size="10.00">setup_redirection</text>
</a>
</g>
</g>
<!-- Node25&#45;&gt;Node27 -->
<g id="edge37" class="edge">
<title>Node25&#45;&gt;Node27</title>
<path fill="none" stroke="#63b8ff" d="M503.55,-158.99C526.12,-151.85 557.26,-141.99 581.94,-134.18"/>
<polygon fill="#63b8ff" stroke="#63b8ff" points="583.26,-137.43 591.74,-131.08 581.15,-130.76 583.26,-137.43"/>
</g>
<!-- Node28 -->
<g id="node28" class="node">
<title>Node28</title>
<g id="a_node28"><a xlink:href="execute__redirect_8c.html#a0e31af51537a8c047a3aca7cdb63d5dd" target="_top" xlink:title=" ">
<polygon fill="white" stroke="#666666" points="831.5,-56 733.5,-56 733.5,-37 831.5,-37 831.5,-56"/>
<text text-anchor="middle" x="782.5" y="-44" font-family="Helvetica,sans-Serif" font-size="10.00">open_redirect_fd</text>
</a>
</g>
</g>
<!-- Node27&#45;&gt;Node28 -->
<g id="edge38" class="edge">
<title>Node27&#45;&gt;Node28</title>
<path fill="none" stroke="#63b8ff" d="M644.27,-111.85C671.67,-98.8 720.73,-75.44 752.16,-60.47"/>
<polygon fill="#63b8ff" stroke="#63b8ff" points="753.79,-63.57 761.31,-56.11 750.78,-57.25 753.79,-63.57"/>
</g>
<!-- Node29 -->
<g id="node29" class="node">
<title>Node29</title>
<g id="a_node29"><a xlink:href="execute__redirect_8c.html#a71feea783167b3804f2793a232ca74b4" target="_top" xlink:title=" ">
<polygon fill="white" stroke="#666666" points="977.5,-19 906.5,-19 906.5,0 977.5,0 977.5,-19"/>
<text text-anchor="middle" x="942" y="-7" font-family="Helvetica,sans-Serif" font-size="10.00">heredoc_fd</text>
</a>
</g>
</g>
<!-- Node28&#45;&gt;Node29 -->
<g id="edge39" class="edge">
<title>Node28&#45;&gt;Node29</title>
<path fill="none" stroke="#63b8ff" d="M824.06,-36.97C846.29,-31.75 873.88,-25.27 896.68,-19.91"/>
<polygon fill="#63b8ff" stroke="#63b8ff" points="897.51,-23.31 906.45,-17.62 895.91,-16.5 897.51,-23.31"/>
</g>
<!-- Node30 -->
<g id="node30" class="node">
<title>Node30</title>
<g id="a_node30"><a xlink:href="execute__redirect_8c.html#a639d0a6f315a3bae78d204ff798e314f" target="_top" xlink:title=" ">
<polygon fill="white" stroke="#666666" points="1145,-19 1038,-19 1038,0 1145,0 1145,-19"/>
<text text-anchor="middle" x="1091.5" y="-7" font-family="Helvetica,sans-Serif" font-size="10.00">get_heredoc_input</text>
</a>
</g>
</g>
<!-- Node29&#45;&gt;Node30 -->
<g id="edge40" class="edge">
<title>Node29&#45;&gt;Node30</title>
<path fill="none" stroke="#63b8ff" d="M977.58,-9.5C992.6,-9.5 1010.67,-9.5 1027.91,-9.5"/>
<polygon fill="#63b8ff" stroke="#63b8ff" points="1027.94,-13 1037.94,-9.5 1027.94,-6 1027.94,-13"/>
</g>
<!-- Node31 -->
<g id="node31" class="node">
<title>Node31</title>
<g id="a_node31"><a xlink:href="execute__redirect_8c.html#a4e396606481bc13335d3dfae7ff15407" target="_top" xlink:title=" ">
<polygon fill="white" stroke="#666666" points="1298.5,-19 1196.5,-19 1196.5,0 1298.5,0 1298.5,-19"/>
<text text-anchor="middle" x="1247.5" y="-7" font-family="Helvetica,sans-Serif" font-size="10.00">is_heredoc_delim</text>
</a>
</g>
</g>
<!-- Node30&#45;&gt;Node31 -->
<g id="edge41" class="edge">
<title>Node30&#45;&gt;Node31</title>
<path fill="none" stroke="#63b8ff" d="M1145.07,-9.5C1158.26,-9.5 1172.52,-9.5 1186.06,-9.5"/>
<polygon fill="#63b8ff" stroke="#63b8ff" points="1186.25,-13 1196.25,-9.5 1186.25,-6 1186.25,-13"/>
</g>
<!-- Node32&#45;&gt;Node3 -->
<g id="edge43" class="edge">
<title>Node32&#45;&gt;Node3</title>
<path fill="none" stroke="#63b8ff" d="M272.91,-382.09C268.62,-380.05 264.56,-377.53 261,-374.5 217.81,-337.74 196.81,-270.01 189.32,-236.19"/>
<polygon fill="#63b8ff" stroke="#63b8ff" points="192.7,-235.22 187.29,-226.11 185.84,-236.61 192.7,-235.22"/>
</g>
<!-- Node33&#45;&gt;Node3 -->
<g id="edge45" class="edge">
<title>Node33&#45;&gt;Node3</title>
<path fill="none" stroke="#63b8ff" d="M265.38,-302.97C263.88,-302.19 262.42,-301.36 261,-300.5 233.13,-283.58 207.94,-254.2 195.05,-234.7"/>
<polygon fill="#63b8ff" stroke="#63b8ff" points="197.95,-232.73 189.75,-226.02 191.98,-236.38 197.95,-232.73"/>
</g>
<!-- Node34&#45;&gt;Node3 -->
<g id="edge47" class="edge">
<title>Node34&#45;&gt;Node3</title>
<path fill="none" stroke="#63b8ff" d="M268.43,-342.23C265.82,-340.82 263.32,-339.24 261,-337.5 225.79,-311.1 201.84,-263.06 191.61,-235.84"/>
<polygon fill="#63b8ff" stroke="#63b8ff" points="194.85,-234.5 188.26,-226.2 188.23,-236.8 194.85,-234.5"/>
</g>
<!-- Node34&#45;&gt;Node12 -->
<g id="edge48" class="edge">
<title>Node34&#45;&gt;Node12</title>
<path fill="none" stroke="#63b8ff" d="M369.7,-346.77C429.55,-347.06 533.13,-347.5 622,-347.5 622,-347.5 622,-347.5 783.5,-347.5 881.6,-347.5 916.54,-347.62 997,-291.5 1039.69,-261.73 1069.21,-205.8 1082.52,-176.5"/>
<polygon fill="#63b8ff" stroke="#63b8ff" points="1085.87,-177.58 1086.68,-167.01 1079.46,-174.77 1085.87,-177.58"/>
</g>
</g>
</svg>
