<?xml version="1.0" encoding="UTF-8" standalone="no"?>
<!DOCTYPE svg PUBLIC "-//W3C//DTD SVG 1.1//EN"
 "http://www.w3.org/Graphics/SVG/1.1/DTD/svg11.dtd">
<!-- Generated by graphviz version 2.43.0 (0)
 -->
<!-- Title: src/executer/execute_repeat.c Pages: 1 -->
<svg width="207pt" height="258pt"
 viewBox="0.00 0.00 207.00 258.00" xmlns="http://www.w3.org/2000/svg" xmlns:xlink="http://www.w3.org/1999/xlink">
<g id="graph0" class="graph" transform="scale(1 1) rotate(0) translate(4 254)">
<title>src/executer/execute_repeat.c</title>
<!-- Node1 -->
<g id="node1" class="node">
<title>Node1</title>
<g id="a_node1"><a xlink:title=" ">
<polygon fill="#999999" stroke="#666666" points="154,-250 37,-250 37,-220 154,-220 154,-250"/>
<text text-anchor="start" x="45" y="-238" font-family="Helvetica,sans-Serif" font-size="10.00">src/executer/execute</text>
<text text-anchor="middle" x="95.5" y="-227" font-family="Helvetica,sans-Serif" font-size="10.00">_repeat.c</text>
</a>
</g>
</g>
<!-- Node2 -->
<g id="node2" class="node">
<title>Node2</title>
<g id="a_node2"><a xlink:href="ast_8h.html" target="_top" xlink:title=" ">
<polygon fill="white" stroke="#666666" points="41,-129 0,-129 0,-110 41,-110 41,-129"/>
<text text-anchor="middle" x="20.5" y="-117" font-family="Helvetica,sans-Serif" font-size="10.00">ast.h</text>
</a>
</g>
</g>
<!-- Node1&#45;&gt;Node2 -->
<g id="edge1" class="edge">
<title>Node1&#45;&gt;Node2</title>
<path fill="none" stroke="#63b8ff" d="M81.71,-219.88C72.74,-210.25 61.14,-196.95 52.5,-184 42.77,-169.42 33.98,-151.47 28.09,-138.38"/>
<polygon fill="#63b8ff" stroke="#63b8ff" points="31.24,-136.84 24.02,-129.08 24.83,-139.64 31.24,-136.84"/>
</g>
<!-- Node4 -->
<g id="node4" class="node">
<title>Node4</title>
<g id="a_node4"><a xlink:href="executer_8h.html" target="_top" xlink:title=" ">
<polygon fill="white" stroke="#666666" points="129,-184 62,-184 62,-165 129,-165 129,-184"/>
<text text-anchor="middle" x="95.5" y="-172" font-family="Helvetica,sans-Serif" font-size="10.00">executer.h</text>
</a>
</g>
</g>
<!-- Node1&#45;&gt;Node4 -->
<g id="edge3" class="edge">
<title>Node1&#45;&gt;Node4</title>
<path fill="none" stroke="#63b8ff" d="M95.5,-219.84C95.5,-212.21 95.5,-202.7 95.5,-194.45"/>
<polygon fill="#63b8ff" stroke="#63b8ff" points="99,-194.27 95.5,-184.27 92,-194.27 99,-194.27"/>
</g>
<!-- Node5 -->
<g id="node5" class="node">
<title>Node5</title>
<g id="a_node5"><a xlink:href="shell_8h.html" target="_top" xlink:title=" ">
<polygon fill="white" stroke="#666666" points="199,-129 150,-129 150,-110 199,-110 199,-129"/>
<text text-anchor="middle" x="174.5" y="-117" font-family="Helvetica,sans-Serif" font-size="10.00">shell.h</text>
</a>
</g>
</g>
<!-- Node1&#45;&gt;Node5 -->
<g id="edge9" class="edge">
<title>Node1&#45;&gt;Node5</title>
<path fill="none" stroke="#63b8ff" d="M109.08,-219.74C117.97,-210.05 129.54,-196.74 138.5,-184 148.86,-169.28 158.8,-151.35 165.61,-138.3"/>
<polygon fill="#63b8ff" stroke="#63b8ff" points="168.9,-139.53 170.34,-129.03 162.67,-136.35 168.9,-139.53"/>
</g>
<!-- Node3 -->
<g id="node3" class="node">
<title>Node3</title>
<g id="a_node3"><a xlink:title=" ">
<polygon fill="#e0e0e0" stroke="#999999" points="125.5,-19 69.5,-19 69.5,0 125.5,0 125.5,-19"/>
<text text-anchor="middle" x="97.5" y="-7" font-family="Helvetica,sans-Serif" font-size="10.00">stddef.h</text>
</a>
</g>
</g>
<!-- Node2&#45;&gt;Node3 -->
<g id="edge2" class="edge">
<title>Node2&#45;&gt;Node3</title>
<path fill="none" stroke="#63b8ff" d="M26.8,-109.66C39.61,-91.69 68.88,-50.64 85.46,-27.38"/>
<polygon fill="#63b8ff" stroke="#63b8ff" points="88.37,-29.33 91.33,-19.16 82.67,-25.27 88.37,-29.33"/>
</g>
<!-- Node4&#45;&gt;Node2 -->
<g id="edge4" class="edge">
<title>Node4&#45;&gt;Node2</title>
<path fill="none" stroke="#63b8ff" d="M83.45,-164.98C72.04,-156.92 54.67,-144.65 41.07,-135.03"/>
<polygon fill="#63b8ff" stroke="#63b8ff" points="42.96,-132.08 32.77,-129.17 38.92,-137.8 42.96,-132.08"/>
</g>
<!-- Node4&#45;&gt;Node5 -->
<g id="edge5" class="edge">
<title>Node4&#45;&gt;Node5</title>
<path fill="none" stroke="#63b8ff" d="M108.19,-164.98C120.33,-156.84 138.86,-144.41 153.25,-134.76"/>
<polygon fill="#63b8ff" stroke="#63b8ff" points="155.22,-137.65 161.58,-129.17 151.32,-131.84 155.22,-137.65"/>
</g>
<!-- Node7 -->
<g id="node7" class="node">
<title>Node7</title>
<g id="a_node7"><a xlink:title=" ">
<polygon fill="#e0e0e0" stroke="#999999" points="131.5,-129 59.5,-129 59.5,-110 131.5,-110 131.5,-129"/>
<text text-anchor="middle" x="95.5" y="-117" font-family="Helvetica,sans-Serif" font-size="10.00">sys/types.h</text>
</a>
</g>
</g>
<!-- Node4&#45;&gt;Node7 -->
<g id="edge8" class="edge">
<title>Node4&#45;&gt;Node7</title>
<path fill="none" stroke="#63b8ff" d="M95.5,-164.75C95.5,-157.8 95.5,-147.85 95.5,-139.13"/>
<polygon fill="#63b8ff" stroke="#63b8ff" points="99,-139.09 95.5,-129.09 92,-139.09 99,-139.09"/>
</g>
<!-- Node6 -->
<g id="node6" class="node">
<title>Node6</title>
<g id="a_node6"><a xlink:href="list_8h.html" target="_top" xlink:title=" ">
<polygon fill="white" stroke="#666666" points="180,-74 121,-74 121,-55 180,-55 180,-74"/>
<text text-anchor="middle" x="150.5" y="-62" font-family="Helvetica,sans-Serif" font-size="10.00">my/list.h</text>
</a>
</g>
</g>
<!-- Node5&#45;&gt;Node6 -->
<g id="edge6" class="edge">
<title>Node5&#45;&gt;Node6</title>
<path fill="none" stroke="#63b8ff" d="M170.54,-109.75C167.29,-102.57 162.58,-92.18 158.55,-83.27"/>
<polygon fill="#63b8ff" stroke="#63b8ff" points="161.7,-81.75 154.39,-74.09 155.33,-84.64 161.7,-81.75"/>
</g>
<!-- Node6&#45;&gt;Node3 -->
<g id="edge7" class="edge">
<title>Node6&#45;&gt;Node3</title>
<path fill="none" stroke="#63b8ff" d="M141.75,-54.75C134.03,-47.03 122.6,-35.6 113.28,-26.28"/>
<polygon fill="#63b8ff" stroke="#63b8ff" points="115.64,-23.69 106.09,-19.09 110.69,-28.64 115.64,-23.69"/>
</g>
</g>
</svg>
