<?xml version="1.0" encoding="UTF-8" standalone="no"?>
<!DOCTYPE svg PUBLIC "-//W3C//DTD SVG 1.1//EN"
 "http://www.w3.org/Graphics/SVG/1.1/DTD/svg11.dtd">
<!-- Generated by graphviz version 2.43.0 (0)
 -->
<!-- Title: execute_pipe_left Pages: 1 -->
<!--zoomable 411 -->
<svg id="main" version="1.1" xmlns="http://www.w3.org/2000/svg" xmlns:xlink="http://www.w3.org/1999/xlink" xml:space="preserve" onload="init(evt)">
<style type="text/css"><![CDATA[
.edge:hover path { stroke: red; }
.edge:hover polygon { stroke: red; fill: red; }
]]></style>
<script type="text/javascript"><![CDATA[
var edges = document.getElementsByTagName('g');
if (edges && edges.length) {
  for (var i=0;i<edges.length;i++) {
    if (edges[i].id.substr(0,4)=='edge') {
      edges[i].setAttribute('class','edge');
    }
  }
}
]]></script>
        <defs>
                <circle id="rim" cx="0" cy="0" r="7"/>
                <circle id="rim2" cx="0" cy="0" r="3.5"/>
                <g id="zoomPlus">
                        <use xlink:href="#rim" fill="#404040">
                                <set attributeName="fill" to="#808080" begin="zoomplus.mouseover" end="zoomplus.mouseout"/>
                        </use>
                        <path d="M-4,0h8M0,-4v8" fill="none" stroke="white" stroke-width="1.5" pointer-events="none"/>
                </g>
                <g id="zoomMin">
                        <use xlink:href="#rim" fill="#404040">
                                <set attributeName="fill" to="#808080" begin="zoomminus.mouseover" end="zoomminus.mouseout"/>
                        </use>
                        <path d="M-4,0h8" fill="none" stroke="white" stroke-width="1.5" pointer-events="none"/>
                </g>
                <g id="dirArrow">
                        <path fill="none" stroke="white" stroke-width="1.5" d="M0,-3.0v7 M-2.5,-0.5L0,-3.0L2.5,-0.5"/>
                </g>
               <g id="resetDef">
                       <use xlink:href="#rim2" fill="#404040">
                               <set attributeName="fill" to="#808080" begin="reset.mouseover" end="reset.mouseout"/>
                       </use>
               </g>
        </defs>

<script type="text/javascript">
var viewWidth = 1305;
var viewHeight = 411;
var sectionId = 'dynsection-2';
</script>
<script xlink:href="svgpan.js"/>
<svg id="graph" class="graph">
<g id="viewport">
<title>execute_pipe_left</title>
<!-- Node1 -->
<g id="node1" class="node">
<title>Node1</title>
<g id="a_node1"><a xlink:title=" ">
<polygon fill="#999999" stroke="#666666" points="102,-365 0,-365 0,-346 102,-346 102,-365"/>
<text text-anchor="middle" x="51" y="-353" font-family="Helvetica,sans-Serif" font-size="10.00">execute_pipe_left</text>
</a>
</g>
</g>
<!-- Node2 -->
<g id="node2" class="node">
<title>Node2</title>
<g id="a_node2"><a xlink:href="execute__pipe_8c.html#a723ff799f939872d17f109a82342294e" target="_top" xlink:title=" ">
<polygon fill="white" stroke="#666666" points="642,-403 580,-403 580,-384 642,-384 642,-403"/>
<text text-anchor="middle" x="611" y="-391" font-family="Helvetica,sans-Serif" font-size="10.00">close_fds</text>
</a>
</g>
</g>
<!-- Node1&#45;&gt;Node2 -->
<g id="edge1" class="edge">
<title>Node1&#45;&gt;Node2</title>
<path fill="none" stroke="#63b8ff" d="M102.38,-364.38C114.05,-366.24 126.44,-368.08 138,-369.5 254.42,-383.82 283.83,-386.05 401,-391.5 459.64,-394.23 527.64,-394.31 569.74,-394"/>
<polygon fill="#63b8ff" stroke="#63b8ff" points="569.9,-397.49 579.87,-393.91 569.84,-390.49 569.9,-397.49"/>
</g>
<!-- Node3 -->
<g id="node3" class="node">
<title>Node3</title>
<g id="a_node3"><a xlink:href="execute__ast_8c.html#ad26a20a665ab7fdeb714ed53c1afd104" target="_top" xlink:title=" ">
<polygon fill="white" stroke="#666666" points="213,-215 138,-215 138,-196 213,-196 213,-215"/>
<text text-anchor="middle" x="175.5" y="-203" font-family="Helvetica,sans-Serif" font-size="10.00">execute_ast</text>
</a>
</g>
</g>
<!-- Node1&#45;&gt;Node3 -->
<g id="edge2" class="edge">
<title>Node1&#45;&gt;Node3</title>
<path fill="none" stroke="#63b8ff" d="M60.04,-345.66C80.37,-320.76 134.1,-254.97 160.06,-223.18"/>
<polygon fill="#63b8ff" stroke="#63b8ff" points="162.98,-225.14 166.59,-215.18 157.56,-220.71 162.98,-225.14"/>
</g>
<!-- Node4 -->
<g id="node4" class="node">
<title>Node4</title>
<g id="a_node4"><a xlink:href="execute__cmd_8c.html#a94ea9cc5a046ce96e36764bf0e4fa2c0" target="_top" xlink:title=" ">
<polygon fill="white" stroke="#666666" points="347.5,-178 266.5,-178 266.5,-159 347.5,-159 347.5,-178"/>
<text text-anchor="middle" x="307" y="-166" font-family="Helvetica,sans-Serif" font-size="10.00">execute_cmd</text>
</a>
</g>
</g>
<!-- Node3&#45;&gt;Node4 -->
<g id="edge3" class="edge">
<title>Node3&#45;&gt;Node4</title>
<path fill="none" stroke="#63b8ff" d="M209.85,-195.97C225.89,-191.39 245.32,-185.84 262.5,-180.93"/>
<polygon fill="#63b8ff" stroke="#63b8ff" points="263.66,-184.24 272.31,-178.12 261.74,-177.51 263.66,-184.24"/>
</g>
<!-- Node20 -->
<g id="node20" class="node">
<title>Node20</title>
<g id="a_node20"><a xlink:href="execute__logical__and_8c.html#a4f940752faf9f9a258c49810b21efe47" target="_top" xlink:title=" ">
<polygon fill="white" stroke="#666666" points="365,-141 249,-141 249,-122 365,-122 365,-141"/>
<text text-anchor="middle" x="307" y="-129" font-family="Helvetica,sans-Serif" font-size="10.00">execute_logical_and</text>
</a>
</g>
</g>
<!-- Node3&#45;&gt;Node20 -->
<g id="edge23" class="edge">
<title>Node3&#45;&gt;Node20</title>
<path fill="none" stroke="#63b8ff" d="M181.68,-195.59C191.79,-182.19 215.35,-160.36 240.38,-145.35"/>
<polygon fill="#63b8ff" stroke="#63b8ff" points="242.27,-148.31 249.28,-140.36 238.84,-142.2 242.27,-148.31"/>
</g>
<!-- Node21 -->
<g id="node21" class="node">
<title>Node21</title>
<g id="a_node21"><a xlink:href="execute__logical__or_8c.html#a7e732d7c30b07010fa55850051007dcc" target="_top" xlink:title=" ">
<polygon fill="white" stroke="#666666" points="360.5,-104 253.5,-104 253.5,-85 360.5,-85 360.5,-104"/>
<text text-anchor="middle" x="307" y="-92" font-family="Helvetica,sans-Serif" font-size="10.00">execute_logical_or</text>
</a>
</g>
</g>
<!-- Node3&#45;&gt;Node21 -->
<g id="edge25" class="edge">
<title>Node3&#45;&gt;Node21</title>
<path fill="none" stroke="#63b8ff" d="M179.26,-195.92C186.94,-176.37 210.1,-134.49 245.09,-106.82"/>
<polygon fill="#63b8ff" stroke="#63b8ff" points="247.28,-109.56 253.24,-100.8 243.11,-103.93 247.28,-109.56"/>
</g>
<!-- Node22 -->
<g id="node22" class="node">
<title>Node22</title>
<g id="a_node22"><a xlink:href="execute__pipe_8c.html#a5f3546dc2c7cf06c982afba41e722164" target="_top" xlink:title=" ">
<polygon fill="white" stroke="#666666" points="347.5,-365 266.5,-365 266.5,-346 347.5,-346 347.5,-365"/>
<text text-anchor="middle" x="307" y="-353" font-family="Helvetica,sans-Serif" font-size="10.00">execute_pipe</text>
</a>
</g>
</g>
<!-- Node3&#45;&gt;Node22 -->
<g id="edge27" class="edge">
<title>Node3&#45;&gt;Node22</title>
<path fill="none" stroke="#63b8ff" d="M179.6,-215.1C187.51,-238.23 210.6,-297.58 249,-331.5 253.43,-335.42 258.6,-338.76 263.97,-341.59"/>
<polygon fill="#63b8ff" stroke="#63b8ff" points="262.59,-344.81 273.13,-345.89 265.57,-338.47 262.59,-344.81"/>
</g>
<!-- Node25 -->
<g id="node25" class="node">
<title>Node25</title>
<g id="a_node25"><a xlink:href="execute__redirect_8c.html#a1004307aba80117ddd99f009e52fb155" target="_top" xlink:title=" ">
<polygon fill="white" stroke="#666666" points="356,-28 258,-28 258,-9 356,-9 356,-28"/>
<text text-anchor="middle" x="307" y="-16" font-family="Helvetica,sans-Serif" font-size="10.00">execute_redirect</text>
</a>
</g>
</g>
<!-- Node3&#45;&gt;Node25 -->
<g id="edge35" class="edge">
<title>Node3&#45;&gt;Node25</title>
<path fill="none" stroke="#63b8ff" d="M178.26,-195.62C183.7,-167.78 202.77,-87.81 249,-42.5 252.98,-38.6 257.68,-35.3 262.66,-32.51"/>
<polygon fill="#63b8ff" stroke="#63b8ff" points="264.37,-35.57 271.81,-28.02 261.29,-29.28 264.37,-35.57"/>
</g>
<!-- Node33 -->
<g id="node33" class="node">
<title>Node33</title>
<g id="a_node33"><a xlink:href="execute__repeat_8c.html#a00d48683c54b50130b4a402e6e97fa97" target="_top" xlink:title=" ">
<polygon fill="white" stroke="#666666" points="353,-289 261,-289 261,-270 353,-270 353,-289"/>
<text text-anchor="middle" x="307" y="-277" font-family="Helvetica,sans-Serif" font-size="10.00">execute_repeat</text>
</a>
</g>
</g>
<!-- Node3&#45;&gt;Node33 -->
<g id="edge44" class="edge">
<title>Node3&#45;&gt;Node33</title>
<path fill="none" stroke="#63b8ff" d="M195.32,-215.04C209.3,-225.48 229.3,-241.11 249,-251.5 260.3,-257.46 273.84,-262.07 284.89,-266.24"/>
<polygon fill="#63b8ff" stroke="#63b8ff" points="283.61,-269.5 294.19,-269.97 286.21,-263 283.61,-269.5"/>
</g>
<!-- Node34 -->
<g id="node34" class="node">
<title>Node34</title>
<g id="a_node34"><a xlink:href="execute__sequence_8c.html#aad2caa5bf50b0752dd8272da477ec231" target="_top" xlink:title=" ">
<polygon fill="white" stroke="#666666" points="360.5,-252 253.5,-252 253.5,-233 360.5,-233 360.5,-252"/>
<text text-anchor="middle" x="307" y="-240" font-family="Helvetica,sans-Serif" font-size="10.00">execute_sequence</text>
</a>
</g>
</g>
<!-- Node3&#45;&gt;Node34 -->
<g id="edge46" class="edge">
<title>Node3&#45;&gt;Node34</title>
<path fill="none" stroke="#63b8ff" d="M213.26,-209.85C234.43,-214.94 260.55,-222.6 279.66,-229.42"/>
<polygon fill="#63b8ff" stroke="#63b8ff" points="278.63,-232.77 289.22,-232.99 281.08,-226.21 278.63,-232.77"/>
</g>
<!-- Node35 -->
<g id="node35" class="node">
<title>Node35</title>
<g id="a_node35"><a xlink:href="execute__subshell_8c.html#a40a27866de012b013a337f794a858d70" target="_top" xlink:title=" ">
<polygon fill="white" stroke="#666666" points="357.5,-215 256.5,-215 256.5,-196 357.5,-196 357.5,-215"/>
<text text-anchor="middle" x="307" y="-203" font-family="Helvetica,sans-Serif" font-size="10.00">execute_subshell</text>
</a>
</g>
</g>
<!-- Node3&#45;&gt;Node35 -->
<g id="edge48" class="edge">
<title>Node3&#45;&gt;Node35</title>
<path fill="none" stroke="#63b8ff" d="M213.26,-199.34C223.45,-198.88 234.79,-198.69 245.94,-198.77"/>
<polygon fill="#63b8ff" stroke="#63b8ff" points="246.04,-202.27 256.09,-198.91 246.14,-195.27 246.04,-202.27"/>
</g>
<!-- Node5 -->
<g id="node5" class="node">
<title>Node5</title>
<g id="a_node5"><a xlink:href="execute__cmd_8c.html#a0cfd2364134e68efdd39533e00b4b0d9" target="_top" xlink:title=" ">
<polygon fill="white" stroke="#666666" points="520,-216 401,-216 401,-197 520,-197 520,-216"/>
<text text-anchor="middle" x="460.5" y="-204" font-family="Helvetica,sans-Serif" font-size="10.00">execute_local_binary</text>
</a>
</g>
</g>
<!-- Node4&#45;&gt;Node5 -->
<g id="edge4" class="edge">
<title>Node4&#45;&gt;Node5</title>
<path fill="none" stroke="#63b8ff" d="M346.23,-178.09C366.13,-183.08 390.66,-189.23 411.79,-194.53"/>
<polygon fill="#63b8ff" stroke="#63b8ff" points="410.99,-197.94 421.55,-196.98 412.7,-191.15 410.99,-197.94"/>
</g>
<!-- Node14 -->
<g id="node14" class="node">
<title>Node14</title>
<g id="a_node14"><a xlink:href="execute__cmd_8c.html#a460126af28ab29df4340554fae9fc57a" target="_top" xlink:title=" ">
<polygon fill="white" stroke="#666666" points="519.5,-178 401.5,-178 401.5,-159 519.5,-159 519.5,-178"/>
<text text-anchor="middle" x="460.5" y="-166" font-family="Helvetica,sans-Serif" font-size="10.00">execute_path_binary</text>
</a>
</g>
</g>
<!-- Node4&#45;&gt;Node14 -->
<g id="edge15" class="edge">
<title>Node4&#45;&gt;Node14</title>
<path fill="none" stroke="#63b8ff" d="M347.8,-168.5C361.13,-168.5 376.38,-168.5 391.24,-168.5"/>
<polygon fill="#63b8ff" stroke="#63b8ff" points="391.44,-172 401.44,-168.5 391.44,-165 391.44,-172"/>
</g>
<!-- Node19 -->
<g id="node19" class="node">
<title>Node19</title>
<g id="a_node19"><a xlink:href="strings_8h.html#a36f055c4e56c8a784629908d0c5b91e5" target="_top" xlink:title=" ">
<polygon fill="white" stroke="#666666" points="982,-121 878,-121 878,-102 982,-102 982,-121"/>
<text text-anchor="middle" x="930" y="-109" font-family="Helvetica,sans-Serif" font-size="10.00">my_is_char_in_str</text>
</a>
</g>
</g>
<!-- Node4&#45;&gt;Node19 -->
<g id="edge22" class="edge">
<title>Node4&#45;&gt;Node19</title>
<path fill="none" stroke="#63b8ff" d="M339.72,-158.98C386.52,-145.48 477.05,-121.41 556,-112.5 665.24,-100.17 793.63,-103.75 867.73,-107.57"/>
<polygon fill="#63b8ff" stroke="#63b8ff" points="867.64,-111.07 877.82,-108.11 868.02,-104.08 867.64,-111.07"/>
</g>
<!-- Node6 -->
<g id="node6" class="node">
<title>Node6</title>
<g id="a_node6"><a xlink:href="execute__cmd_8c.html#a0f1b711370b175e42e583b75daacf41e" target="_top" xlink:title=" ">
<polygon fill="white" stroke="#666666" points="816,-215 725,-215 725,-196 816,-196 816,-215"/>
<text text-anchor="middle" x="770.5" y="-203" font-family="Helvetica,sans-Serif" font-size="10.00">execute_binary</text>
</a>
</g>
</g>
<!-- Node5&#45;&gt;Node6 -->
<g id="edge5" class="edge">
<title>Node5&#45;&gt;Node6</title>
<path fill="none" stroke="#63b8ff" d="M520.16,-206.31C576.07,-206.13 659.63,-205.86 714.35,-205.68"/>
<polygon fill="#63b8ff" stroke="#63b8ff" points="714.57,-209.18 724.56,-205.65 714.54,-202.18 714.57,-209.18"/>
</g>
<!-- Node7 -->
<g id="node7" class="node">
<title>Node7</title>
<g id="a_node7"><a xlink:href="env__to__word__array_8c.html#aea7253d35c5aa57d9cfe9d7df218cb90" target="_top" xlink:title=" ">
<polygon fill="white" stroke="#666666" points="985,-176 875,-176 875,-157 985,-157 985,-176"/>
<text text-anchor="middle" x="930" y="-164" font-family="Helvetica,sans-Serif" font-size="10.00">env_to_word_array</text>
</a>
</g>
</g>
<!-- Node6&#45;&gt;Node7 -->
<g id="edge6" class="edge">
<title>Node6&#45;&gt;Node7</title>
<path fill="none" stroke="#63b8ff" d="M810.03,-195.96C831.37,-190.68 858.09,-184.06 880.81,-178.43"/>
<polygon fill="#63b8ff" stroke="#63b8ff" points="881.73,-181.81 890.6,-176.01 880.05,-175.02 881.73,-181.81"/>
</g>
<!-- Node10 -->
<g id="node10" class="node">
<title>Node10</title>
<g id="a_node10"><a xlink:href="execute__cmd_8c.html#a6badc27baa1930e30ea2ad3817f65366" target="_top" xlink:title=" ">
<polygon fill="white" stroke="#666666" points="970,-213 890,-213 890,-194 970,-194 970,-213"/>
<text text-anchor="middle" x="930" y="-201" font-family="Helvetica,sans-Serif" font-size="10.00">execute_fork</text>
</a>
</g>
</g>
<!-- Node6&#45;&gt;Node10 -->
<g id="edge9" class="edge">
<title>Node6&#45;&gt;Node10</title>
<path fill="none" stroke="#63b8ff" d="M816.21,-204.93C836.05,-204.68 859.46,-204.38 879.79,-204.12"/>
<polygon fill="#63b8ff" stroke="#63b8ff" points="879.85,-207.62 889.8,-204 879.76,-200.63 879.85,-207.62"/>
</g>
<!-- Node11 -->
<g id="node11" class="node">
<title>Node11</title>
<g id="a_node11"><a xlink:href="execute__cmd_8c.html#a2c49b9849cfef0deea03382c9f1b3ab8" target="_top" xlink:title=" ">
<polygon fill="white" stroke="#666666" points="1125.5,-251 1033.5,-251 1033.5,-232 1125.5,-232 1125.5,-251"/>
<text text-anchor="middle" x="1079.5" y="-239" font-family="Helvetica,sans-Serif" font-size="10.00">run_subprocess</text>
</a>
</g>
</g>
<!-- Node6&#45;&gt;Node11 -->
<g id="edge14" class="edge">
<title>Node6&#45;&gt;Node11</title>
<path fill="none" stroke="#63b8ff" d="M816,-212.93C834.25,-215.84 855.61,-219.05 875,-221.5 925,-227.82 982.13,-233.28 1023.1,-236.89"/>
<polygon fill="#63b8ff" stroke="#63b8ff" points="1022.89,-240.39 1033.16,-237.77 1023.5,-233.41 1022.89,-240.39"/>
</g>
<!-- Node8 -->
<g id="node8" class="node">
<title>Node8</title>
<g id="a_node8"><a xlink:href="misc_8h.html#a1180cae2875b1fdcd58c9f9175a82c12" target="_top" xlink:title=" ">
<polygon fill="white" stroke="#666666" points="1138,-213 1021,-213 1021,-194 1138,-194 1138,-213"/>
<text text-anchor="middle" x="1079.5" y="-201" font-family="Helvetica,sans-Serif" font-size="10.00">my_free_word_array</text>
</a>
</g>
</g>
<!-- Node7&#45;&gt;Node8 -->
<g id="edge7" class="edge">
<title>Node7&#45;&gt;Node8</title>
<path fill="none" stroke="#63b8ff" d="M968.98,-176.03C987.75,-180.74 1010.59,-186.47 1030.55,-191.47"/>
<polygon fill="#63b8ff" stroke="#63b8ff" points="1029.84,-194.9 1040.39,-193.94 1031.54,-188.11 1029.84,-194.9"/>
</g>
<!-- Node9 -->
<g id="node9" class="node">
<title>Node9</title>
<g id="a_node9"><a xlink:href="list_8h.html#ad5ebb7cdb26f73e4b212dfc5eae4ef0e" target="_top" xlink:title=" ">
<polygon fill="white" stroke="#666666" points="1124,-176 1035,-176 1035,-157 1124,-157 1124,-176"/>
<text text-anchor="middle" x="1079.5" y="-164" font-family="Helvetica,sans-Serif" font-size="10.00">my_list_length</text>
</a>
</g>
</g>
<!-- Node7&#45;&gt;Node9 -->
<g id="edge8" class="edge">
<title>Node7&#45;&gt;Node9</title>
<path fill="none" stroke="#63b8ff" d="M985.09,-166.5C997.93,-166.5 1011.64,-166.5 1024.48,-166.5"/>
<polygon fill="#63b8ff" stroke="#63b8ff" points="1024.56,-170 1034.56,-166.5 1024.56,-163 1024.56,-170"/>
</g>
<!-- Node10&#45;&gt;Node8 -->
<g id="edge10" class="edge">
<title>Node10&#45;&gt;Node8</title>
<path fill="none" stroke="#63b8ff" d="M970.14,-203.5C982.64,-203.5 996.85,-203.5 1010.78,-203.5"/>
<polygon fill="#63b8ff" stroke="#63b8ff" points="1010.84,-207 1020.84,-203.5 1010.84,-200 1010.84,-207"/>
</g>
<!-- Node10&#45;&gt;Node11 -->
<g id="edge11" class="edge">
<title>Node10&#45;&gt;Node11</title>
<path fill="none" stroke="#63b8ff" d="M968.22,-213.09C987.51,-218.06 1011.26,-224.18 1031.77,-229.46"/>
<polygon fill="#63b8ff" stroke="#63b8ff" points="1030.99,-232.87 1041.55,-231.98 1032.74,-226.1 1030.99,-232.87"/>
</g>
<!-- Node12 -->
<g id="node12" class="node">
<title>Node12</title>
<g id="a_node12"><a xlink:href="wait__for__subprocess_8c.html#a1242d78540fd0ddef3d98a9f294cb0d4" target="_top" xlink:title=" ">
<polygon fill="white" stroke="#666666" points="1137.5,-289 1021.5,-289 1021.5,-270 1137.5,-270 1137.5,-289"/>
<text text-anchor="middle" x="1079.5" y="-277" font-family="Helvetica,sans-Serif" font-size="10.00">wait_for_subprocess</text>
</a>
</g>
</g>
<!-- Node10&#45;&gt;Node12 -->
<g id="edge12" class="edge">
<title>Node10&#45;&gt;Node12</title>
<path fill="none" stroke="#63b8ff" d="M944.19,-213.01C961.27,-225.03 992.27,-245.78 1021,-259.5 1026.25,-262.01 1031.91,-264.37 1037.55,-266.52"/>
<polygon fill="#63b8ff" stroke="#63b8ff" points="1036.36,-269.81 1046.96,-269.94 1038.76,-263.23 1036.36,-269.81"/>
</g>
<!-- Node13 -->
<g id="node13" class="node">
<title>Node13</title>
<g id="a_node13"><a xlink:href="wait__for__subprocess_8c.html#a885766ba6ba593b7cf27b917dd52b1a6" target="_top" xlink:title=" ">
<polygon fill="white" stroke="#666666" points="1297,-289 1174,-289 1174,-270 1297,-270 1297,-289"/>
<text text-anchor="middle" x="1235.5" y="-277" font-family="Helvetica,sans-Serif" font-size="10.00">print_signal_message</text>
</a>
</g>
</g>
<!-- Node12&#45;&gt;Node13 -->
<g id="edge13" class="edge">
<title>Node12&#45;&gt;Node13</title>
<path fill="none" stroke="#63b8ff" d="M1137.84,-279.5C1146.26,-279.5 1155.02,-279.5 1163.67,-279.5"/>
<polygon fill="#63b8ff" stroke="#63b8ff" points="1163.76,-283 1173.76,-279.5 1163.76,-276 1163.76,-283"/>
</g>
<!-- Node15 -->
<g id="node15" class="node">
<title>Node15</title>
<g id="a_node15"><a xlink:href="get__variable__value_8c.html#a2edd9900f19af236aa05385a789be3d6" target="_top" xlink:title=" ">
<polygon fill="white" stroke="#666666" points="666,-141 556,-141 556,-122 666,-122 666,-141"/>
<text text-anchor="middle" x="611" y="-129" font-family="Helvetica,sans-Serif" font-size="10.00">get_variable_value</text>
</a>
</g>
</g>
<!-- Node14&#45;&gt;Node15 -->
<g id="edge16" class="edge">
<title>Node14&#45;&gt;Node15</title>
<path fill="none" stroke="#63b8ff" d="M499.74,-158.97C518.64,-154.26 541.63,-148.53 561.73,-143.53"/>
<polygon fill="#63b8ff" stroke="#63b8ff" points="562.77,-146.87 571.63,-141.06 561.08,-140.08 562.77,-146.87"/>
</g>
<!-- Node17 -->
<g id="node17" class="node">
<title>Node17</title>
<g id="a_node17"><a xlink:href="execute__cmd_8c.html#aee9e13edede9df28fac066f30e7ae7ed" target="_top" xlink:title=" ">
<polygon fill="white" stroke="#666666" points="653,-178 569,-178 569,-159 653,-159 653,-178"/>
<text text-anchor="middle" x="611" y="-166" font-family="Helvetica,sans-Serif" font-size="10.00">try_command</text>
</a>
</g>
</g>
<!-- Node14&#45;&gt;Node17 -->
<g id="edge18" class="edge">
<title>Node14&#45;&gt;Node17</title>
<path fill="none" stroke="#63b8ff" d="M519.76,-168.5C532.59,-168.5 546.08,-168.5 558.61,-168.5"/>
<polygon fill="#63b8ff" stroke="#63b8ff" points="558.87,-172 568.87,-168.5 558.87,-165 558.87,-172"/>
</g>
<!-- Node16 -->
<g id="node16" class="node">
<title>Node16</title>
<g id="a_node16"><a xlink:href="get__variable_8c.html#a569170390f0edf013bf89c26ef55ea8c" target="_top" xlink:title=" ">
<polygon fill="white" stroke="#666666" points="809,-141 732,-141 732,-122 809,-122 809,-141"/>
<text text-anchor="middle" x="770.5" y="-129" font-family="Helvetica,sans-Serif" font-size="10.00">get_variable</text>
</a>
</g>
</g>
<!-- Node15&#45;&gt;Node16 -->
<g id="edge17" class="edge">
<title>Node15&#45;&gt;Node16</title>
<path fill="none" stroke="#63b8ff" d="M666.2,-131.5C684.04,-131.5 703.73,-131.5 721.11,-131.5"/>
<polygon fill="#63b8ff" stroke="#63b8ff" points="721.58,-135 731.58,-131.5 721.58,-128 721.58,-135"/>
</g>
<!-- Node17&#45;&gt;Node6 -->
<g id="edge19" class="edge">
<title>Node17&#45;&gt;Node6</title>
<path fill="none" stroke="#63b8ff" d="M652.56,-178.03C672.78,-182.78 697.44,-188.57 718.88,-193.61"/>
<polygon fill="#63b8ff" stroke="#63b8ff" points="718.27,-197.06 728.8,-195.94 719.87,-190.25 718.27,-197.06"/>
</g>
<!-- Node18 -->
<g id="node18" class="node">
<title>Node18</title>
<g id="a_node18"><a xlink:href="execute__cmd_8c.html#a7edf8a207e2b427102f54a379bd13546" target="_top" xlink:title=" ">
<polygon fill="white" stroke="#666666" points="839,-178 702,-178 702,-159 839,-159 839,-178"/>
<text text-anchor="middle" x="770.5" y="-166" font-family="Helvetica,sans-Serif" font-size="10.00">print_permission_denied</text>
</a>
</g>
</g>
<!-- Node17&#45;&gt;Node18 -->
<g id="edge20" class="edge">
<title>Node17&#45;&gt;Node18</title>
<path fill="none" stroke="#63b8ff" d="M653.38,-168.5C665.22,-168.5 678.52,-168.5 691.79,-168.5"/>
<polygon fill="#63b8ff" stroke="#63b8ff" points="691.9,-172 701.9,-168.5 691.9,-165 691.9,-172"/>
</g>
<!-- Node18&#45;&gt;Node19 -->
<g id="edge21" class="edge">
<title>Node18&#45;&gt;Node19</title>
<path fill="none" stroke="#63b8ff" d="M808.54,-158.97C818.51,-156.17 829.23,-152.92 839,-149.5 859.2,-142.42 881.37,-133.09 898.64,-125.44"/>
<polygon fill="#63b8ff" stroke="#63b8ff" points="900.5,-128.44 908.2,-121.16 897.64,-122.05 900.5,-128.44"/>
</g>
<!-- Node20&#45;&gt;Node3 -->
<g id="edge24" class="edge">
<title>Node20&#45;&gt;Node3</title>
<path fill="none" stroke="#63b8ff" d="M293.27,-141.12C281.37,-145.96 263.35,-151 249,-158.5 232.47,-167.14 215.86,-179.63 202.72,-189.75"/>
<polygon fill="#63b8ff" stroke="#63b8ff" points="200.41,-187.11 194.63,-195.99 204.68,-192.65 200.41,-187.11"/>
</g>
<!-- Node21&#45;&gt;Node3 -->
<g id="edge26" class="edge">
<title>Node21&#45;&gt;Node3</title>
<path fill="none" stroke="#63b8ff" d="M290.36,-104.16C278.23,-108.22 261.44,-112.85 249,-121.5 223.72,-139.07 203.12,-168.09 190.43,-187.22"/>
<polygon fill="#63b8ff" stroke="#63b8ff" points="187.41,-185.44 184.85,-195.73 193.26,-189.29 187.41,-185.44"/>
</g>
<!-- Node22&#45;&gt;Node1 -->
<g id="edge29" class="edge">
<title>Node22&#45;&gt;Node1</title>
<path fill="none" stroke="#63b8ff" d="M266.34,-355.5C225.09,-355.5 160.01,-355.5 112.37,-355.5"/>
<polygon fill="#63b8ff" stroke="#63b8ff" points="112.18,-352 102.18,-355.5 112.18,-359 112.18,-352"/>
</g>
<!-- Node22&#45;&gt;Node2 -->
<g id="edge28" class="edge">
<title>Node22&#45;&gt;Node2</title>
<path fill="none" stroke="#63b8ff" d="M347.78,-361.8C364.24,-364.33 383.52,-367.18 401,-369.5 459.58,-377.27 527.59,-384.8 569.72,-389.3"/>
<polygon fill="#63b8ff" stroke="#63b8ff" points="569.53,-392.8 579.85,-390.37 570.27,-385.84 569.53,-392.8"/>
</g>
<!-- Node22&#45;&gt;Node12 -->
<g id="edge34" class="edge">
<title>Node22&#45;&gt;Node12</title>
<path fill="none" stroke="#63b8ff" d="M347.57,-355.5C405.28,-355.5 515.89,-355.5 610,-355.5 610,-355.5 610,-355.5 771.5,-355.5 874.36,-355.5 991.08,-314.8 1046.29,-292.97"/>
<polygon fill="#63b8ff" stroke="#63b8ff" points="1047.89,-296.1 1055.87,-289.13 1045.28,-289.6 1047.89,-296.1"/>
</g>
<!-- Node23 -->
<g id="node23" class="node">
<title>Node23</title>
<g id="a_node23"><a xlink:href="execute__pipe_8c.html#a9ed6eabb8a9f7049f91265a5f45e30c8" target="_top" xlink:title=" ">
<polygon fill="white" stroke="#666666" points="515,-327 406,-327 406,-308 515,-308 515,-327"/>
<text text-anchor="middle" x="460.5" y="-315" font-family="Helvetica,sans-Serif" font-size="10.00">execute_pipe_right</text>
</a>
</g>
</g>
<!-- Node22&#45;&gt;Node23 -->
<g id="edge30" class="edge">
<title>Node22&#45;&gt;Node23</title>
<path fill="none" stroke="#63b8ff" d="M346.23,-345.91C366.13,-340.92 390.66,-334.77 411.79,-329.47"/>
<polygon fill="#63b8ff" stroke="#63b8ff" points="412.7,-332.85 421.55,-327.02 410.99,-326.06 412.7,-332.85"/>
</g>
<!-- Node23&#45;&gt;Node2 -->
<g id="edge31" class="edge">
<title>Node23&#45;&gt;Node2</title>
<path fill="none" stroke="#63b8ff" d="M480.31,-327.13C506.08,-340.32 552.57,-364.11 582.32,-379.33"/>
<polygon fill="#63b8ff" stroke="#63b8ff" points="580.85,-382.51 591.35,-383.95 584.04,-376.28 580.85,-382.51"/>
</g>
<!-- Node23&#45;&gt;Node3 -->
<g id="edge32" class="edge">
<title>Node23&#45;&gt;Node3</title>
<path fill="none" stroke="#63b8ff" d="M405.99,-323.61C361.31,-326.19 297.35,-323.85 249,-297.5 218.79,-281.03 196.84,-246.14 185.43,-224.38"/>
<polygon fill="#63b8ff" stroke="#63b8ff" points="188.42,-222.52 180.81,-215.15 182.16,-225.66 188.42,-222.52"/>
</g>
<!-- Node24 -->
<g id="node24" class="node">
<title>Node24</title>
<g id="a_node24"><a xlink:href="execute__pipe_8c.html#ac3d3a124b262676fa0679720f99a7f83" target="_top" xlink:title=" ">
<polygon fill="white" stroke="#666666" points="651,-327 571,-327 571,-308 651,-308 651,-327"/>
<text text-anchor="middle" x="611" y="-315" font-family="Helvetica,sans-Serif" font-size="10.00">restore_stdin</text>
</a>
</g>
</g>
<!-- Node23&#45;&gt;Node24 -->
<g id="edge33" class="edge">
<title>Node23&#45;&gt;Node24</title>
<path fill="none" stroke="#63b8ff" d="M515.11,-317.5C529.95,-317.5 545.99,-317.5 560.58,-317.5"/>
<polygon fill="#63b8ff" stroke="#63b8ff" points="560.91,-321 570.91,-317.5 560.91,-314 560.91,-321"/>
</g>
<!-- Node26 -->
<g id="node26" class="node">
<title>Node26</title>
<g id="a_node26"><a xlink:href="execute__redirect_8c.html#a5aa0f008806cc0e8a7ba252d61b7001f" target="_top" xlink:title=" ">
<polygon fill="white" stroke="#666666" points="514,-37 407,-37 407,-18 514,-18 514,-37"/>
<text text-anchor="middle" x="460.5" y="-25" font-family="Helvetica,sans-Serif" font-size="10.00">redirect_execution</text>
</a>
</g>
</g>
<!-- Node25&#45;&gt;Node26 -->
<g id="edge36" class="edge">
<title>Node25&#45;&gt;Node26</title>
<path fill="none" stroke="#63b8ff" d="M356.35,-21.37C369.19,-22.13 383.24,-22.97 396.72,-23.77"/>
<polygon fill="#63b8ff" stroke="#63b8ff" points="396.7,-27.28 406.89,-24.37 397.11,-20.29 396.7,-27.28"/>
</g>
<!-- Node26&#45;&gt;Node3 -->
<g id="edge37" class="edge">
<title>Node26&#45;&gt;Node3</title>
<path fill="none" stroke="#63b8ff" d="M406.52,-34.57C352.58,-42.64 273.52,-57.12 249,-75.5 211.41,-103.67 190.65,-157.38 181.77,-186.16"/>
<polygon fill="#63b8ff" stroke="#63b8ff" points="178.38,-185.28 178.94,-195.86 185.1,-187.24 178.38,-185.28"/>
</g>
<!-- Node27 -->
<g id="node27" class="node">
<title>Node27</title>
<g id="a_node27"><a xlink:href="execute__redirect_8c.html#a1b8f325fc375581f81ae47a54e09cf0e" target="_top" xlink:title=" ">
<polygon fill="white" stroke="#666666" points="644,-56 578,-56 578,-37 644,-37 644,-56"/>
<text text-anchor="middle" x="611" y="-44" font-family="Helvetica,sans-Serif" font-size="10.00">restore_fd</text>
</a>
</g>
</g>
<!-- Node26&#45;&gt;Node27 -->
<g id="edge38" class="edge">
<title>Node26&#45;&gt;Node27</title>
<path fill="none" stroke="#63b8ff" d="M514.27,-34.25C531.81,-36.5 551.09,-38.96 567.73,-41.09"/>
<polygon fill="#63b8ff" stroke="#63b8ff" points="567.34,-44.57 577.71,-42.37 568.23,-37.63 567.34,-44.57"/>
</g>
<!-- Node28 -->
<g id="node28" class="node">
<title>Node28</title>
<g id="a_node28"><a xlink:href="execute__redirect_8c.html#a6cb002bd51f2009eaacc66d388c5f9a7" target="_top" xlink:title=" ">
<polygon fill="white" stroke="#666666" points="661.5,-19 560.5,-19 560.5,0 661.5,0 661.5,-19"/>
<text text-anchor="middle" x="611" y="-7" font-family="Helvetica,sans-Serif" font-size="10.00">setup_redirection</text>
</a>
</g>
</g>
<!-- Node26&#45;&gt;Node28 -->
<g id="edge39" class="edge">
<title>Node26&#45;&gt;Node28</title>
<path fill="none" stroke="#63b8ff" d="M514.27,-21.1C525.88,-19.7 538.25,-18.2 550.12,-16.76"/>
<polygon fill="#63b8ff" stroke="#63b8ff" points="550.87,-20.19 560.38,-15.51 550.03,-13.24 550.87,-20.19"/>
</g>
<!-- Node29 -->
<g id="node29" class="node">
<title>Node29</title>
<g id="a_node29"><a xlink:href="execute__redirect_8c.html#a0e31af51537a8c047a3aca7cdb63d5dd" target="_top" xlink:title=" ">
<polygon fill="white" stroke="#666666" points="819.5,-19 721.5,-19 721.5,0 819.5,0 819.5,-19"/>
<text text-anchor="middle" x="770.5" y="-7" font-family="Helvetica,sans-Serif" font-size="10.00">open_redirect_fd</text>
</a>
</g>
</g>
<!-- Node28&#45;&gt;Node29 -->
<g id="edge40" class="edge">
<title>Node28&#45;&gt;Node29</title>
<path fill="none" stroke="#63b8ff" d="M661.83,-9.5C677.43,-9.5 694.79,-9.5 710.93,-9.5"/>
<polygon fill="#63b8ff" stroke="#63b8ff" points="711.34,-13 721.34,-9.5 711.34,-6 711.34,-13"/>
</g>
<!-- Node30 -->
<g id="node30" class="node">
<title>Node30</title>
<g id="a_node30"><a xlink:href="execute__redirect_8c.html#a71feea783167b3804f2793a232ca74b4" target="_top" xlink:title=" ">
<polygon fill="white" stroke="#666666" points="965.5,-19 894.5,-19 894.5,0 965.5,0 965.5,-19"/>
<text text-anchor="middle" x="930" y="-7" font-family="Helvetica,sans-Serif" font-size="10.00">heredoc_fd</text>
</a>
</g>
</g>
<!-- Node29&#45;&gt;Node30 -->
<g id="edge41" class="edge">
<title>Node29&#45;&gt;Node30</title>
<path fill="none" stroke="#63b8ff" d="M819.61,-9.5C840.1,-9.5 863.87,-9.5 884.01,-9.5"/>
<polygon fill="#63b8ff" stroke="#63b8ff" points="884.17,-13 894.17,-9.5 884.17,-6 884.17,-13"/>
</g>
<!-- Node31 -->
<g id="node31" class="node">
<title>Node31</title>
<g id="a_node31"><a xlink:href="execute__redirect_8c.html#a639d0a6f315a3bae78d204ff798e314f" target="_top" xlink:title=" ">
<polygon fill="white" stroke="#666666" points="1133,-19 1026,-19 1026,0 1133,0 1133,-19"/>
<text text-anchor="middle" x="1079.5" y="-7" font-family="Helvetica,sans-Serif" font-size="10.00">get_heredoc_input</text>
</a>
</g>
</g>
<!-- Node30&#45;&gt;Node31 -->
<g id="edge42" class="edge">
<title>Node30&#45;&gt;Node31</title>
<path fill="none" stroke="#63b8ff" d="M965.58,-9.5C980.6,-9.5 998.67,-9.5 1015.91,-9.5"/>
<polygon fill="#63b8ff" stroke="#63b8ff" points="1015.94,-13 1025.94,-9.5 1015.94,-6 1015.94,-13"/>
</g>
<!-- Node32 -->
<g id="node32" class="node">
<title>Node32</title>
<g id="a_node32"><a xlink:href="execute__redirect_8c.html#a4e396606481bc13335d3dfae7ff15407" target="_top" xlink:title=" ">
<polygon fill="white" stroke="#666666" points="1286.5,-19 1184.5,-19 1184.5,0 1286.5,0 1286.5,-19"/>
<text text-anchor="middle" x="1235.5" y="-7" font-family="Helvetica,sans-Serif" font-size="10.00">is_heredoc_delim</text>
</a>
</g>
</g>
<!-- Node31&#45;&gt;Node32 -->
<g id="edge43" class="edge">
<title>Node31&#45;&gt;Node32</title>
<path fill="none" stroke="#63b8ff" d="M1133.07,-9.5C1146.26,-9.5 1160.52,-9.5 1174.06,-9.5"/>
<polygon fill="#63b8ff" stroke="#63b8ff" points="1174.25,-13 1184.25,-9.5 1174.25,-6 1174.25,-13"/>
</g>
<!-- Node33&#45;&gt;Node3 -->
<g id="edge45" class="edge">
<title>Node33&#45;&gt;Node3</title>
<path fill="none" stroke="#63b8ff" d="M260.92,-274.99C256.82,-273.34 252.78,-271.5 249,-269.5 225.87,-257.3 202.34,-237.88 188.6,-223.25"/>
<polygon fill="#63b8ff" stroke="#63b8ff" points="190.9,-220.56 181.72,-215.28 185.6,-225.14 190.9,-220.56"/>
</g>
<!-- Node34&#45;&gt;Node3 -->
<g id="edge47" class="edge">
<title>Node34&#45;&gt;Node3</title>
<path fill="none" stroke="#63b8ff" d="M253.22,-234.07C236.01,-229.45 217.64,-223.85 203.19,-218.71"/>
<polygon fill="#63b8ff" stroke="#63b8ff" points="204.02,-215.28 193.43,-215.07 201.58,-221.84 204.02,-215.28"/>
</g>
<!-- Node35&#45;&gt;Node3 -->
<g id="edge49" class="edge">
<title>Node35&#45;&gt;Node3</title>
<path fill="none" stroke="#63b8ff" d="M256.09,-212.09C245.4,-212.32 234.14,-212.3 223.57,-212.02"/>
<polygon fill="#63b8ff" stroke="#63b8ff" points="223.38,-208.51 213.26,-211.66 223.13,-215.51 223.38,-208.51"/>
</g>
<!-- Node35&#45;&gt;Node12 -->
<g id="edge50" class="edge">
<title>Node35&#45;&gt;Node12</title>
<path fill="none" stroke="#63b8ff" d="M338.75,-215.02C404.36,-235.01 556.42,-279.5 610,-279.5 610,-279.5 610,-279.5 771.5,-279.5 854.05,-279.5 949.08,-279.5 1011.28,-279.5"/>
<polygon fill="#63b8ff" stroke="#63b8ff" points="1011.35,-283 1021.35,-279.5 1011.35,-276 1011.35,-283"/>
</g>
</g>
</svg>
        <g id="navigator" transform="translate(0 0)" fill="#404254">
                <rect fill="#f2f5e9" fill-opacity="0.5" stroke="#606060" stroke-width=".5" x="0" y="0" width="60" height="60"/>
                <use id="zoomplus" xlink:href="#zoomPlus" x="17" y="9" onmousedown="handleZoom(evt,'in')"/>
                <use id="zoomminus" xlink:href="#zoomMin" x="42" y="9" onmousedown="handleZoom(evt,'out')"/>
                <use id="reset" xlink:href="#resetDef" x="30" y="36" onmousedown="handleReset()"/>
                <g id="arrowUp" xlink:href="#dirArrow" transform="translate(30 24)" onmousedown="handlePan(0,-1)">
                  <use xlink:href="#rim" fill="#404040">
                        <set attributeName="fill" to="#808080" begin="arrowUp.mouseover" end="arrowUp.mouseout"/>
                  </use>
                  <path fill="none" stroke="white" stroke-width="1.5" d="M0,-3.0v7 M-2.5,-0.5L0,-3.0L2.5,-0.5"/>
                </g>
                <g id="arrowRight" xlink:href="#dirArrow" transform="rotate(90) translate(36 -43)" onmousedown="handlePan(1,0)">
                  <use xlink:href="#rim" fill="#404040">
                        <set attributeName="fill" to="#808080" begin="arrowRight.mouseover" end="arrowRight.mouseout"/>
                  </use>
                  <path fill="none" stroke="white" stroke-width="1.5" d="M0,-3.0v7 M-2.5,-0.5L0,-3.0L2.5,-0.5"/>
                </g>
                <g id="arrowDown" xlink:href="#dirArrow" transform="rotate(180) translate(-30 -48)" onmousedown="handlePan(0,1)">
                  <use xlink:href="#rim" fill="#404040">
                        <set attributeName="fill" to="#808080" begin="arrowDown.mouseover" end="arrowDown.mouseout"/>
                  </use>
                  <path fill="none" stroke="white" stroke-width="1.5" d="M0,-3.0v7 M-2.5,-0.5L0,-3.0L2.5,-0.5"/>
                </g>
                <g id="arrowLeft" xlink:href="#dirArrow" transform="rotate(270) translate(-36 17)" onmousedown="handlePan(-1,0)">
                  <use xlink:href="#rim" fill="#404040">
                        <set attributeName="fill" to="#808080" begin="arrowLeft.mouseover" end="arrowLeft.mouseout"/>
                  </use>
                  <path fill="none" stroke="white" stroke-width="1.5" d="M0,-3.0v7 M-2.5,-0.5L0,-3.0L2.5,-0.5"/>
                </g>
        </g>
        <svg viewBox="0 0 15 15" width="100%" height="30px" preserveAspectRatio="xMaxYMin meet">
         <g id="arrow_out" transform="scale(0.3 0.3)">
          <a xlink:href="execute__pipe_8c_ac529ffc2370b0133613ef8a81e58ed85_cgraph_org.svg" target="_base">
           <rect id="button" ry="5" rx="5" y="6" x="6" height="38" width="38"
                fill="#f2f5e9" fill-opacity="0.5" stroke="#606060" stroke-width="1.0"/>
           <path id="arrow"
             d="M 11.500037,31.436501 C 11.940474,20.09759 22.043105,11.32322 32.158766,21.979434 L 37.068811,17.246167 C 37.068811,17.246167 37.088388,32 37.088388,32 L 22.160133,31.978069 C 22.160133,31.978069 26.997745,27.140456 26.997745,27.140456 C 18.528582,18.264221 13.291696,25.230495 11.500037,31.436501 z"
             style="fill:#404040;"/>
          </a>
         </g>
        </svg>
</svg>
