<?xml version="1.0" encoding="UTF-8" standalone="no"?>
<!DOCTYPE svg PUBLIC "-//W3C//DTD SVG 1.1//EN"
 "http://www.w3.org/Graphics/SVG/1.1/DTD/svg11.dtd">
<!-- Generated by graphviz version 2.43.0 (0)
 -->
<!-- Title: src/executer/execute_logical_or.c Pages: 1 -->
<svg width="270pt" height="258pt"
 viewBox="0.00 0.00 269.50 258.00" xmlns="http://www.w3.org/2000/svg" xmlns:xlink="http://www.w3.org/1999/xlink">
<g id="graph0" class="graph" transform="scale(1 1) rotate(0) translate(4 254)">
<title>src/executer/execute_logical_or.c</title>
<!-- Node1 -->
<g id="node1" class="node">
<title>Node1</title>
<g id="a_node1"><a xlink:title=" ">
<polygon fill="#999999" stroke="#666666" points="185.5,-250 68.5,-250 68.5,-220 185.5,-220 185.5,-250"/>
<text text-anchor="start" x="76.5" y="-238" font-family="Helvetica,sans-Serif" font-size="10.00">src/executer/execute</text>
<text text-anchor="middle" x="127" y="-227" font-family="Helvetica,sans-Serif" font-size="10.00">_logical_or.c</text>
</a>
</g>
</g>
<!-- Node2 -->
<g id="node2" class="node">
<title>Node2</title>
<g id="a_node2"><a xlink:href="misc_8h.html" target="_top" xlink:title=" ">
<polygon fill="white" stroke="#666666" points="68,-184 0,-184 0,-165 68,-165 68,-184"/>
<text text-anchor="middle" x="34" y="-172" font-family="Helvetica,sans-Serif" font-size="10.00">my/misc.h</text>
</a>
</g>
</g>
<!-- Node1&#45;&gt;Node2 -->
<g id="edge1" class="edge">
<title>Node1&#45;&gt;Node2</title>
<path fill="none" stroke="#63b8ff" d="M104.49,-219.84C89.94,-210.68 71.07,-198.82 56.51,-189.66"/>
<polygon fill="#63b8ff" stroke="#63b8ff" points="57.99,-186.46 47.66,-184.09 54.26,-192.38 57.99,-186.46"/>
</g>
<!-- Node3 -->
<g id="node3" class="node">
<title>Node3</title>
<g id="a_node3"><a xlink:href="ast_8h.html" target="_top" xlink:title=" ">
<polygon fill="white" stroke="#666666" points="103.5,-129 62.5,-129 62.5,-110 103.5,-110 103.5,-129"/>
<text text-anchor="middle" x="83" y="-117" font-family="Helvetica,sans-Serif" font-size="10.00">ast.h</text>
</a>
</g>
</g>
<!-- Node1&#45;&gt;Node3 -->
<g id="edge2" class="edge">
<title>Node1&#45;&gt;Node3</title>
<path fill="none" stroke="#63b8ff" d="M121.43,-219.63C113.44,-199.03 98.75,-161.12 90.03,-138.63"/>
<polygon fill="#63b8ff" stroke="#63b8ff" points="93.26,-137.29 86.38,-129.23 86.74,-139.82 93.26,-137.29"/>
</g>
<!-- Node5 -->
<g id="node5" class="node">
<title>Node5</title>
<g id="a_node5"><a xlink:href="executer_8h.html" target="_top" xlink:title=" ">
<polygon fill="white" stroke="#666666" points="191.5,-184 124.5,-184 124.5,-165 191.5,-165 191.5,-184"/>
<text text-anchor="middle" x="158" y="-172" font-family="Helvetica,sans-Serif" font-size="10.00">executer.h</text>
</a>
</g>
</g>
<!-- Node1&#45;&gt;Node5 -->
<g id="edge4" class="edge">
<title>Node1&#45;&gt;Node5</title>
<path fill="none" stroke="#63b8ff" d="M134.5,-219.84C138.73,-211.87 144.04,-201.84 148.55,-193.33"/>
<polygon fill="#63b8ff" stroke="#63b8ff" points="151.77,-194.74 153.35,-184.27 145.58,-191.46 151.77,-194.74"/>
</g>
<!-- Node6 -->
<g id="node6" class="node">
<title>Node6</title>
<g id="a_node6"><a xlink:href="shell_8h.html" target="_top" xlink:title=" ">
<polygon fill="white" stroke="#666666" points="261.5,-129 212.5,-129 212.5,-110 261.5,-110 261.5,-129"/>
<text text-anchor="middle" x="237" y="-117" font-family="Helvetica,sans-Serif" font-size="10.00">shell.h</text>
</a>
</g>
</g>
<!-- Node1&#45;&gt;Node6 -->
<g id="edge10" class="edge">
<title>Node1&#45;&gt;Node6</title>
<path fill="none" stroke="#63b8ff" d="M153.9,-219.93C169.03,-211.07 187.53,-198.57 201,-184 213.48,-170.5 223.37,-151.92 229.6,-138.34"/>
<polygon fill="#63b8ff" stroke="#63b8ff" points="232.84,-139.67 233.64,-129.1 226.43,-136.87 232.84,-139.67"/>
</g>
<!-- Node4 -->
<g id="node4" class="node">
<title>Node4</title>
<g id="a_node4"><a xlink:title=" ">
<polygon fill="#e0e0e0" stroke="#999999" points="188,-19 132,-19 132,0 188,0 188,-19"/>
<text text-anchor="middle" x="160" y="-7" font-family="Helvetica,sans-Serif" font-size="10.00">stddef.h</text>
</a>
</g>
</g>
<!-- Node3&#45;&gt;Node4 -->
<g id="edge3" class="edge">
<title>Node3&#45;&gt;Node4</title>
<path fill="none" stroke="#63b8ff" d="M89.3,-109.66C102.11,-91.69 131.38,-50.64 147.96,-27.38"/>
<polygon fill="#63b8ff" stroke="#63b8ff" points="150.87,-29.33 153.83,-19.16 145.17,-25.27 150.87,-29.33"/>
</g>
<!-- Node5&#45;&gt;Node3 -->
<g id="edge5" class="edge">
<title>Node5&#45;&gt;Node3</title>
<path fill="none" stroke="#63b8ff" d="M145.95,-164.98C134.54,-156.92 117.17,-144.65 103.57,-135.03"/>
<polygon fill="#63b8ff" stroke="#63b8ff" points="105.46,-132.08 95.27,-129.17 101.42,-137.8 105.46,-132.08"/>
</g>
<!-- Node5&#45;&gt;Node6 -->
<g id="edge6" class="edge">
<title>Node5&#45;&gt;Node6</title>
<path fill="none" stroke="#63b8ff" d="M170.69,-164.98C182.83,-156.84 201.36,-144.41 215.75,-134.76"/>
<polygon fill="#63b8ff" stroke="#63b8ff" points="217.72,-137.65 224.08,-129.17 213.82,-131.84 217.72,-137.65"/>
</g>
<!-- Node8 -->
<g id="node8" class="node">
<title>Node8</title>
<g id="a_node8"><a xlink:title=" ">
<polygon fill="#e0e0e0" stroke="#999999" points="194,-129 122,-129 122,-110 194,-110 194,-129"/>
<text text-anchor="middle" x="158" y="-117" font-family="Helvetica,sans-Serif" font-size="10.00">sys/types.h</text>
</a>
</g>
</g>
<!-- Node5&#45;&gt;Node8 -->
<g id="edge9" class="edge">
<title>Node5&#45;&gt;Node8</title>
<path fill="none" stroke="#63b8ff" d="M158,-164.75C158,-157.8 158,-147.85 158,-139.13"/>
<polygon fill="#63b8ff" stroke="#63b8ff" points="161.5,-139.09 158,-129.09 154.5,-139.09 161.5,-139.09"/>
</g>
<!-- Node7 -->
<g id="node7" class="node">
<title>Node7</title>
<g id="a_node7"><a xlink:href="list_8h.html" target="_top" xlink:title=" ">
<polygon fill="white" stroke="#666666" points="242.5,-74 183.5,-74 183.5,-55 242.5,-55 242.5,-74"/>
<text text-anchor="middle" x="213" y="-62" font-family="Helvetica,sans-Serif" font-size="10.00">my/list.h</text>
</a>
</g>
</g>
<!-- Node6&#45;&gt;Node7 -->
<g id="edge7" class="edge">
<title>Node6&#45;&gt;Node7</title>
<path fill="none" stroke="#63b8ff" d="M233.04,-109.75C229.79,-102.57 225.08,-92.18 221.05,-83.27"/>
<polygon fill="#63b8ff" stroke="#63b8ff" points="224.2,-81.75 216.89,-74.09 217.83,-84.64 224.2,-81.75"/>
</g>
<!-- Node7&#45;&gt;Node4 -->
<g id="edge8" class="edge">
<title>Node7&#45;&gt;Node4</title>
<path fill="none" stroke="#63b8ff" d="M204.25,-54.75C196.53,-47.03 185.1,-35.6 175.78,-26.28"/>
<polygon fill="#63b8ff" stroke="#63b8ff" points="178.14,-23.69 168.59,-19.09 173.19,-28.64 178.14,-23.69"/>
</g>
</g>
</svg>
