<?xml version="1.0" encoding="UTF-8" standalone="no"?>
<!DOCTYPE svg PUBLIC "-//W3C//DTD SVG 1.1//EN"
 "http://www.w3.org/Graphics/SVG/1.1/DTD/svg11.dtd">
<!-- Generated by graphviz version 2.43.0 (0)
 -->
<!-- Title: execute_repeat Pages: 1 -->
<!--zoomable 414 -->
<svg id="main" version="1.1" xmlns="http://www.w3.org/2000/svg" xmlns:xlink="http://www.w3.org/1999/xlink" xml:space="preserve" onload="init(evt)">
<style type="text/css"><![CDATA[
.edge:hover path { stroke: red; }
.edge:hover polygon { stroke: red; fill: red; }
]]></style>
<script type="text/javascript"><![CDATA[
var edges = document.getElementsByTagName('g');
if (edges && edges.length) {
  for (var i=0;i<edges.length;i++) {
    if (edges[i].id.substr(0,4)=='edge') {
      edges[i].setAttribute('class','edge');
    }
  }
}
]]></script>
        <defs>
                <circle id="rim" cx="0" cy="0" r="7"/>
                <circle id="rim2" cx="0" cy="0" r="3.5"/>
                <g id="zoomPlus">
                        <use xlink:href="#rim" fill="#404040">
                                <set attributeName="fill" to="#808080" begin="zoomplus.mouseover" end="zoomplus.mouseout"/>
                        </use>
                        <path d="M-4,0h8M0,-4v8" fill="none" stroke="white" stroke-width="1.5" pointer-events="none"/>
                </g>
                <g id="zoomMin">
                        <use xlink:href="#rim" fill="#404040">
                                <set attributeName="fill" to="#808080" begin="zoomminus.mouseover" end="zoomminus.mouseout"/>
                        </use>
                        <path d="M-4,0h8" fill="none" stroke="white" stroke-width="1.5" pointer-events="none"/>
                </g>
                <g id="dirArrow">
                        <path fill="none" stroke="white" stroke-width="1.5" d="M0,-3.0v7 M-2.5,-0.5L0,-3.0L2.5,-0.5"/>
                </g>
               <g id="resetDef">
                       <use xlink:href="#rim2" fill="#404040">
                               <set attributeName="fill" to="#808080" begin="reset.mouseover" end="reset.mouseout"/>
                       </use>
               </g>
        </defs>

<script type="text/javascript">
var viewWidth = 1295;
var viewHeight = 414;
var sectionId = 'dynsection-1';
</script>
<script xlink:href="svgpan.js"/>
<svg id="graph" class="graph">
<g id="viewport">
<title>execute_repeat</title>
<!-- Node1 -->
<g id="node1" class="node">
<title>Node1</title>
<g id="a_node1"><a xlink:title=" ">
<polygon fill="#999999" stroke="#666666" points="92,-198 0,-198 0,-179 92,-179 92,-198"/>
<text text-anchor="middle" x="46" y="-186" font-family="Helvetica,sans-Serif" font-size="10.00">execute_repeat</text>
</a>
</g>
</g>
<!-- Node2 -->
<g id="node2" class="node">
<title>Node2</title>
<g id="a_node2"><a xlink:href="execute__ast_8c.html#ad26a20a665ab7fdeb714ed53c1afd104" target="_top" xlink:title=" ">
<polygon fill="white" stroke="#666666" points="203,-198 128,-198 128,-179 203,-179 203,-198"/>
<text text-anchor="middle" x="165.5" y="-186" font-family="Helvetica,sans-Serif" font-size="10.00">execute_ast</text>
</a>
</g>
</g>
<!-- Node1&#45;&gt;Node2 -->
<g id="edge1" class="edge">
<title>Node1&#45;&gt;Node2</title>
<path fill="none" stroke="#63b8ff" d="M92.09,-181.91C100.47,-181.71 109.23,-181.7 117.66,-181.87"/>
<polygon fill="#63b8ff" stroke="#63b8ff" points="117.61,-185.37 127.72,-182.19 117.83,-178.38 117.61,-185.37"/>
</g>
<!-- Node2&#45;&gt;Node1 -->
<g id="edge44" class="edge">
<title>Node2&#45;&gt;Node1</title>
<path fill="none" stroke="#63b8ff" d="M127.72,-194.81C119.6,-195.15 110.83,-195.29 102.17,-195.24"/>
<polygon fill="#63b8ff" stroke="#63b8ff" points="102.14,-191.74 92.09,-195.09 102.04,-198.74 102.14,-191.74"/>
</g>
<!-- Node3 -->
<g id="node3" class="node">
<title>Node3</title>
<g id="a_node3"><a xlink:href="execute__cmd_8c.html#a94ea9cc5a046ce96e36764bf0e4fa2c0" target="_top" xlink:title=" ">
<polygon fill="white" stroke="#666666" points="337.5,-367 256.5,-367 256.5,-348 337.5,-348 337.5,-367"/>
<text text-anchor="middle" x="297" y="-355" font-family="Helvetica,sans-Serif" font-size="10.00">execute_cmd</text>
</a>
</g>
</g>
<!-- Node2&#45;&gt;Node3 -->
<g id="edge2" class="edge">
<title>Node2&#45;&gt;Node3</title>
<path fill="none" stroke="#63b8ff" d="M168.37,-198.25C174,-224.95 193.31,-299.87 239,-339.5 241.51,-341.68 244.28,-343.59 247.21,-345.27"/>
<polygon fill="#63b8ff" stroke="#63b8ff" points="245.84,-348.5 256.37,-349.66 248.86,-342.18 245.84,-348.5"/>
</g>
<!-- Node19 -->
<g id="node19" class="node">
<title>Node19</title>
<g id="a_node19"><a xlink:href="execute__logical__and_8c.html#a4f940752faf9f9a258c49810b21efe47" target="_top" xlink:title=" ">
<polygon fill="white" stroke="#666666" points="355,-330 239,-330 239,-311 355,-311 355,-330"/>
<text text-anchor="middle" x="297" y="-318" font-family="Helvetica,sans-Serif" font-size="10.00">execute_logical_and</text>
</a>
</g>
</g>
<!-- Node2&#45;&gt;Node19 -->
<g id="edge21" class="edge">
<title>Node2&#45;&gt;Node19</title>
<path fill="none" stroke="#63b8ff" d="M172.2,-198.24C182.05,-219.3 204.59,-267.06 239,-293.5 247.83,-300.28 259.26,-304.54 269.57,-307.86"/>
<polygon fill="#63b8ff" stroke="#63b8ff" points="268.78,-311.28 279.37,-310.93 270.87,-304.6 268.78,-311.28"/>
</g>
<!-- Node20 -->
<g id="node20" class="node">
<title>Node20</title>
<g id="a_node20"><a xlink:href="execute__logical__or_8c.html#a7e732d7c30b07010fa55850051007dcc" target="_top" xlink:title=" ">
<polygon fill="white" stroke="#666666" points="350.5,-293 243.5,-293 243.5,-274 350.5,-274 350.5,-293"/>
<text text-anchor="middle" x="297" y="-281" font-family="Helvetica,sans-Serif" font-size="10.00">execute_logical_or</text>
</a>
</g>
</g>
<!-- Node2&#45;&gt;Node20 -->
<g id="edge23" class="edge">
<title>Node2&#45;&gt;Node20</title>
<path fill="none" stroke="#63b8ff" d="M180.05,-198.09C193.64,-211.66 215.82,-235.09 239,-250.5 250.48,-258.13 264.78,-264.15 276.19,-269.38"/>
<polygon fill="#63b8ff" stroke="#63b8ff" points="274.8,-272.59 285.32,-273.8 277.85,-266.29 274.8,-272.59"/>
</g>
<!-- Node21 -->
<g id="node21" class="node">
<title>Node21</title>
<g id="a_node21"><a xlink:href="execute__pipe_8c.html#a5f3546dc2c7cf06c982afba41e722164" target="_top" xlink:title=" ">
<polygon fill="white" stroke="#666666" points="337.5,-217 256.5,-217 256.5,-198 337.5,-198 337.5,-217"/>
<text text-anchor="middle" x="297" y="-205" font-family="Helvetica,sans-Serif" font-size="10.00">execute_pipe</text>
</a>
</g>
</g>
<!-- Node2&#45;&gt;Node21 -->
<g id="edge25" class="edge">
<title>Node2&#45;&gt;Node21</title>
<path fill="none" stroke="#63b8ff" d="M203.26,-193.89C216.62,-195.85 231.95,-198.1 246.24,-200.2"/>
<polygon fill="#63b8ff" stroke="#63b8ff" points="246.02,-203.7 256.43,-201.69 247.04,-196.78 246.02,-203.7"/>
</g>
<!-- Node26 -->
<g id="node26" class="node">
<title>Node26</title>
<g id="a_node26"><a xlink:href="execute__redirect_8c.html#a1004307aba80117ddd99f009e52fb155" target="_top" xlink:title=" ">
<polygon fill="white" stroke="#666666" points="346,-28 248,-28 248,-9 346,-9 346,-28"/>
<text text-anchor="middle" x="297" y="-16" font-family="Helvetica,sans-Serif" font-size="10.00">execute_redirect</text>
</a>
</g>
</g>
<!-- Node2&#45;&gt;Node26 -->
<g id="edge35" class="edge">
<title>Node2&#45;&gt;Node26</title>
<path fill="none" stroke="#63b8ff" d="M168.76,-178.91C175.25,-153.31 196.3,-82.61 239,-42.5 243.11,-38.64 247.93,-35.35 253,-32.57"/>
<polygon fill="#63b8ff" stroke="#63b8ff" points="254.8,-35.58 262.29,-28.08 251.76,-29.28 254.8,-35.58"/>
</g>
<!-- Node34 -->
<g id="node34" class="node">
<title>Node34</title>
<g id="a_node34"><a xlink:href="execute__sequence_8c.html#aad2caa5bf50b0752dd8272da477ec231" target="_top" xlink:title=" ">
<polygon fill="white" stroke="#666666" points="350.5,-180 243.5,-180 243.5,-161 350.5,-161 350.5,-180"/>
<text text-anchor="middle" x="297" y="-168" font-family="Helvetica,sans-Serif" font-size="10.00">execute_sequence</text>
</a>
</g>
</g>
<!-- Node2&#45;&gt;Node34 -->
<g id="edge45" class="edge">
<title>Node2&#45;&gt;Node34</title>
<path fill="none" stroke="#63b8ff" d="M194.28,-178.98C205.82,-176.61 219.72,-174.31 233.49,-172.44"/>
<polygon fill="#63b8ff" stroke="#63b8ff" points="233.98,-175.91 243.45,-171.16 233.08,-168.97 233.98,-175.91"/>
</g>
<!-- Node35 -->
<g id="node35" class="node">
<title>Node35</title>
<g id="a_node35"><a xlink:href="execute__subshell_8c.html#a40a27866de012b013a337f794a858d70" target="_top" xlink:title=" ">
<polygon fill="white" stroke="#666666" points="347.5,-104 246.5,-104 246.5,-85 347.5,-85 347.5,-104"/>
<text text-anchor="middle" x="297" y="-92" font-family="Helvetica,sans-Serif" font-size="10.00">execute_subshell</text>
</a>
</g>
</g>
<!-- Node2&#45;&gt;Node35 -->
<g id="edge47" class="edge">
<title>Node2&#45;&gt;Node35</title>
<path fill="none" stroke="#63b8ff" d="M170.57,-179C180.86,-161.94 209.21,-129.16 239,-109.5 239.09,-109.44 239.18,-109.38 239.27,-109.32"/>
<polygon fill="#63b8ff" stroke="#63b8ff" points="241.21,-112.24 248.04,-104.14 237.65,-106.22 241.21,-112.24"/>
</g>
<!-- Node4 -->
<g id="node4" class="node">
<title>Node4</title>
<g id="a_node4"><a xlink:href="execute__cmd_8c.html#a0cfd2364134e68efdd39533e00b4b0d9" target="_top" xlink:title=" ">
<polygon fill="white" stroke="#666666" points="510,-406 391,-406 391,-387 510,-387 510,-406"/>
<text text-anchor="middle" x="450.5" y="-394" font-family="Helvetica,sans-Serif" font-size="10.00">execute_local_binary</text>
</a>
</g>
</g>
<!-- Node3&#45;&gt;Node4 -->
<g id="edge3" class="edge">
<title>Node3&#45;&gt;Node4</title>
<path fill="none" stroke="#63b8ff" d="M335.06,-367.04C355.5,-372.3 381.07,-378.88 402.85,-384.49"/>
<polygon fill="#63b8ff" stroke="#63b8ff" points="402,-387.89 412.56,-386.99 403.75,-381.11 402,-387.89"/>
</g>
<!-- Node13 -->
<g id="node13" class="node">
<title>Node13</title>
<g id="a_node13"><a xlink:href="execute__cmd_8c.html#a460126af28ab29df4340554fae9fc57a" target="_top" xlink:title=" ">
<polygon fill="white" stroke="#666666" points="509.5,-367 391.5,-367 391.5,-348 509.5,-348 509.5,-367"/>
<text text-anchor="middle" x="450.5" y="-355" font-family="Helvetica,sans-Serif" font-size="10.00">execute_path_binary</text>
</a>
</g>
</g>
<!-- Node3&#45;&gt;Node13 -->
<g id="edge13" class="edge">
<title>Node3&#45;&gt;Node13</title>
<path fill="none" stroke="#63b8ff" d="M337.8,-357.5C351.13,-357.5 366.38,-357.5 381.24,-357.5"/>
<polygon fill="#63b8ff" stroke="#63b8ff" points="381.44,-361 391.44,-357.5 381.44,-354 381.44,-361"/>
</g>
<!-- Node18 -->
<g id="node18" class="node">
<title>Node18</title>
<g id="a_node18"><a xlink:href="strings_8h.html#a36f055c4e56c8a784629908d0c5b91e5" target="_top" xlink:title=" ">
<polygon fill="white" stroke="#666666" points="972,-313 868,-313 868,-294 972,-294 972,-313"/>
<text text-anchor="middle" x="920" y="-301" font-family="Helvetica,sans-Serif" font-size="10.00">my_is_char_in_str</text>
</a>
</g>
</g>
<!-- Node3&#45;&gt;Node18 -->
<g id="edge20" class="edge">
<title>Node3&#45;&gt;Node18</title>
<path fill="none" stroke="#63b8ff" d="M331.74,-347.95C379.12,-335.08 468.29,-312.82 546,-304.5 655.31,-292.8 783.67,-296.18 857.75,-299.78"/>
<polygon fill="#63b8ff" stroke="#63b8ff" points="857.67,-303.28 867.84,-300.29 858.02,-296.29 857.67,-303.28"/>
</g>
<!-- Node5 -->
<g id="node5" class="node">
<title>Node5</title>
<g id="a_node5"><a xlink:href="execute__cmd_8c.html#a018afe6a043051ebc2e3dd9412587990" target="_top" xlink:title=" ">
<polygon fill="white" stroke="#666666" points="806,-406 715,-406 715,-387 806,-387 806,-406"/>
<text text-anchor="middle" x="760.5" y="-394" font-family="Helvetica,sans-Serif" font-size="10.00">execute_binary</text>
</a>
</g>
</g>
<!-- Node4&#45;&gt;Node5 -->
<g id="edge4" class="edge">
<title>Node4&#45;&gt;Node5</title>
<path fill="none" stroke="#63b8ff" d="M510.16,-396.5C566.07,-396.5 649.63,-396.5 704.35,-396.5"/>
<polygon fill="#63b8ff" stroke="#63b8ff" points="704.56,-400 714.56,-396.5 704.56,-393 704.56,-400"/>
</g>
<!-- Node6 -->
<g id="node6" class="node">
<title>Node6</title>
<g id="a_node6"><a xlink:href="env__to__word__array_8c.html#aea7253d35c5aa57d9cfe9d7df218cb90" target="_top" xlink:title=" ">
<polygon fill="white" stroke="#666666" points="975,-406 865,-406 865,-387 975,-387 975,-406"/>
<text text-anchor="middle" x="920" y="-394" font-family="Helvetica,sans-Serif" font-size="10.00">env_to_word_array</text>
</a>
</g>
</g>
<!-- Node5&#45;&gt;Node6 -->
<g id="edge5" class="edge">
<title>Node5&#45;&gt;Node6</title>
<path fill="none" stroke="#63b8ff" d="M806.21,-396.5C821.35,-396.5 838.57,-396.5 854.91,-396.5"/>
<polygon fill="#63b8ff" stroke="#63b8ff" points="854.95,-400 864.95,-396.5 854.95,-393 854.95,-400"/>
</g>
<!-- Node9 -->
<g id="node9" class="node">
<title>Node9</title>
<g id="a_node9"><a xlink:href="execute__cmd_8c.html#a6badc27baa1930e30ea2ad3817f65366" target="_top" xlink:title=" ">
<polygon fill="white" stroke="#666666" points="960,-360 880,-360 880,-341 960,-341 960,-360"/>
<text text-anchor="middle" x="920" y="-348" font-family="Helvetica,sans-Serif" font-size="10.00">execute_fork</text>
</a>
</g>
</g>
<!-- Node5&#45;&gt;Node9 -->
<g id="edge8" class="edge">
<title>Node5&#45;&gt;Node9</title>
<path fill="none" stroke="#63b8ff" d="M798.36,-386.96C808.33,-384.31 819.1,-381.36 829,-378.5 845.64,-373.7 863.9,-368.08 879.6,-363.14"/>
<polygon fill="#63b8ff" stroke="#63b8ff" points="881.02,-366.36 889.5,-360.01 878.91,-359.69 881.02,-366.36"/>
</g>
<!-- Node7 -->
<g id="node7" class="node">
<title>Node7</title>
<g id="a_node7"><a xlink:href="misc_8h.html#a1180cae2875b1fdcd58c9f9175a82c12" target="_top" xlink:title=" ">
<polygon fill="white" stroke="#666666" points="1128,-369 1011,-369 1011,-350 1128,-350 1128,-369"/>
<text text-anchor="middle" x="1069.5" y="-357" font-family="Helvetica,sans-Serif" font-size="10.00">my_free_word_array</text>
</a>
</g>
</g>
<!-- Node6&#45;&gt;Node7 -->
<g id="edge6" class="edge">
<title>Node6&#45;&gt;Node7</title>
<path fill="none" stroke="#63b8ff" d="M958.98,-386.97C977.75,-382.26 1000.59,-376.53 1020.55,-371.53"/>
<polygon fill="#63b8ff" stroke="#63b8ff" points="1021.54,-374.89 1030.39,-369.06 1019.84,-368.1 1021.54,-374.89"/>
</g>
<!-- Node8 -->
<g id="node8" class="node">
<title>Node8</title>
<g id="a_node8"><a xlink:href="list_8h.html#ad5ebb7cdb26f73e4b212dfc5eae4ef0e" target="_top" xlink:title=" ">
<polygon fill="white" stroke="#666666" points="1114,-406 1025,-406 1025,-387 1114,-387 1114,-406"/>
<text text-anchor="middle" x="1069.5" y="-394" font-family="Helvetica,sans-Serif" font-size="10.00">my_list_length</text>
</a>
</g>
</g>
<!-- Node6&#45;&gt;Node8 -->
<g id="edge7" class="edge">
<title>Node6&#45;&gt;Node8</title>
<path fill="none" stroke="#63b8ff" d="M975.09,-396.5C987.93,-396.5 1001.64,-396.5 1014.48,-396.5"/>
<polygon fill="#63b8ff" stroke="#63b8ff" points="1014.56,-400 1024.56,-396.5 1014.56,-393 1014.56,-400"/>
</g>
<!-- Node9&#45;&gt;Node7 -->
<g id="edge9" class="edge">
<title>Node9&#45;&gt;Node7</title>
<path fill="none" stroke="#63b8ff" d="M960.14,-352.89C972.64,-353.65 986.85,-354.52 1000.78,-355.37"/>
<polygon fill="#63b8ff" stroke="#63b8ff" points="1000.65,-358.87 1010.84,-355.98 1001.07,-351.88 1000.65,-358.87"/>
</g>
<!-- Node10 -->
<g id="node10" class="node">
<title>Node10</title>
<g id="a_node10"><a xlink:href="execute__cmd_8c.html#a2c49b9849cfef0deea03382c9f1b3ab8" target="_top" xlink:title=" ">
<polygon fill="white" stroke="#666666" points="1115.5,-332 1023.5,-332 1023.5,-313 1115.5,-313 1115.5,-332"/>
<text text-anchor="middle" x="1069.5" y="-320" font-family="Helvetica,sans-Serif" font-size="10.00">run_subprocess</text>
</a>
</g>
</g>
<!-- Node9&#45;&gt;Node10 -->
<g id="edge10" class="edge">
<title>Node9&#45;&gt;Node10</title>
<path fill="none" stroke="#63b8ff" d="M960.14,-343.07C976.41,-339.98 995.58,-336.34 1013.24,-332.99"/>
<polygon fill="#63b8ff" stroke="#63b8ff" points="1014.26,-336.36 1023.43,-331.06 1012.95,-329.48 1014.26,-336.36"/>
</g>
<!-- Node11 -->
<g id="node11" class="node">
<title>Node11</title>
<g id="a_node11"><a xlink:href="wait__for__subprocess_8c.html#a1242d78540fd0ddef3d98a9f294cb0d4" target="_top" xlink:title=" ">
<polygon fill="white" stroke="#666666" points="1127.5,-218 1011.5,-218 1011.5,-199 1127.5,-199 1127.5,-218"/>
<text text-anchor="middle" x="1069.5" y="-206" font-family="Helvetica,sans-Serif" font-size="10.00">wait_for_subprocess</text>
</a>
</g>
</g>
<!-- Node9&#45;&gt;Node11 -->
<g id="edge11" class="edge">
<title>Node9&#45;&gt;Node11</title>
<path fill="none" stroke="#63b8ff" d="M944.31,-340.96C954.33,-336.24 965.81,-329.95 975,-322.5 1009.94,-294.19 1040.95,-251.05 1056.98,-226.76"/>
<polygon fill="#63b8ff" stroke="#63b8ff" points="1060.05,-228.46 1062.54,-218.17 1054.17,-224.66 1060.05,-228.46"/>
</g>
<!-- Node12 -->
<g id="node12" class="node">
<title>Node12</title>
<g id="a_node12"><a xlink:href="wait__for__subprocess_8c.html#a885766ba6ba593b7cf27b917dd52b1a6" target="_top" xlink:title=" ">
<polygon fill="white" stroke="#666666" points="1287,-218 1164,-218 1164,-199 1287,-199 1287,-218"/>
<text text-anchor="middle" x="1225.5" y="-206" font-family="Helvetica,sans-Serif" font-size="10.00">print_signal_message</text>
</a>
</g>
</g>
<!-- Node11&#45;&gt;Node12 -->
<g id="edge12" class="edge">
<title>Node11&#45;&gt;Node12</title>
<path fill="none" stroke="#63b8ff" d="M1127.84,-208.5C1136.26,-208.5 1145.02,-208.5 1153.67,-208.5"/>
<polygon fill="#63b8ff" stroke="#63b8ff" points="1153.76,-212 1163.76,-208.5 1153.76,-205 1153.76,-212"/>
</g>
<!-- Node14 -->
<g id="node14" class="node">
<title>Node14</title>
<g id="a_node14"><a xlink:href="get__variable__value_8c.html#a2edd9900f19af236aa05385a789be3d6" target="_top" xlink:title=" ">
<polygon fill="white" stroke="#666666" points="656,-369 546,-369 546,-350 656,-350 656,-369"/>
<text text-anchor="middle" x="601" y="-357" font-family="Helvetica,sans-Serif" font-size="10.00">get_variable_value</text>
</a>
</g>
</g>
<!-- Node13&#45;&gt;Node14 -->
<g id="edge14" class="edge">
<title>Node13&#45;&gt;Node14</title>
<path fill="none" stroke="#63b8ff" d="M509.76,-358.28C518.29,-358.4 527.11,-358.52 535.75,-358.63"/>
<polygon fill="#63b8ff" stroke="#63b8ff" points="535.73,-362.13 545.78,-358.77 535.83,-355.14 535.73,-362.13"/>
</g>
<!-- Node16 -->
<g id="node16" class="node">
<title>Node16</title>
<g id="a_node16"><a xlink:href="execute__cmd_8c.html#aee9e13edede9df28fac066f30e7ae7ed" target="_top" xlink:title=" ">
<polygon fill="white" stroke="#666666" points="643,-332 559,-332 559,-313 643,-313 643,-332"/>
<text text-anchor="middle" x="601" y="-320" font-family="Helvetica,sans-Serif" font-size="10.00">try_command</text>
</a>
</g>
</g>
<!-- Node13&#45;&gt;Node16 -->
<g id="edge16" class="edge">
<title>Node13&#45;&gt;Node16</title>
<path fill="none" stroke="#63b8ff" d="M492.08,-347.94C509.84,-343.75 530.86,-338.8 549.61,-334.38"/>
<polygon fill="#63b8ff" stroke="#63b8ff" points="550.54,-337.75 559.47,-332.05 548.93,-330.94 550.54,-337.75"/>
</g>
<!-- Node15 -->
<g id="node15" class="node">
<title>Node15</title>
<g id="a_node15"><a xlink:href="get__variable_8c.html#a569170390f0edf013bf89c26ef55ea8c" target="_top" xlink:title=" ">
<polygon fill="white" stroke="#666666" points="799,-369 722,-369 722,-350 799,-350 799,-369"/>
<text text-anchor="middle" x="760.5" y="-357" font-family="Helvetica,sans-Serif" font-size="10.00">get_variable</text>
</a>
</g>
</g>
<!-- Node14&#45;&gt;Node15 -->
<g id="edge15" class="edge">
<title>Node14&#45;&gt;Node15</title>
<path fill="none" stroke="#63b8ff" d="M656.2,-359.5C674.04,-359.5 693.73,-359.5 711.11,-359.5"/>
<polygon fill="#63b8ff" stroke="#63b8ff" points="711.58,-363 721.58,-359.5 711.58,-356 711.58,-363"/>
</g>
<!-- Node16&#45;&gt;Node5 -->
<g id="edge17" class="edge">
<title>Node16&#45;&gt;Node5</title>
<path fill="none" stroke="#63b8ff" d="M636.81,-332.08C643.44,-334.64 650.14,-337.75 656,-341.5 675.33,-353.86 672.2,-366.9 692,-378.5 696.16,-380.94 700.66,-383.05 705.29,-384.89"/>
<polygon fill="#63b8ff" stroke="#63b8ff" points="704.32,-388.26 714.92,-388.27 706.64,-381.65 704.32,-388.26"/>
</g>
<!-- Node17 -->
<g id="node17" class="node">
<title>Node17</title>
<g id="a_node17"><a xlink:href="execute__cmd_8c.html#a9ef2f2dfa839f59ba42718ef236d4dcb" target="_top" xlink:title=" ">
<polygon fill="white" stroke="#666666" points="829,-332 692,-332 692,-313 829,-313 829,-332"/>
<text text-anchor="middle" x="760.5" y="-320" font-family="Helvetica,sans-Serif" font-size="10.00">print_permission_denied</text>
</a>
</g>
</g>
<!-- Node16&#45;&gt;Node17 -->
<g id="edge18" class="edge">
<title>Node16&#45;&gt;Node17</title>
<path fill="none" stroke="#63b8ff" d="M643.38,-322.5C655.22,-322.5 668.52,-322.5 681.79,-322.5"/>
<polygon fill="#63b8ff" stroke="#63b8ff" points="681.9,-326 691.9,-322.5 681.9,-319 681.9,-326"/>
</g>
<!-- Node17&#45;&gt;Node18 -->
<g id="edge19" class="edge">
<title>Node17&#45;&gt;Node18</title>
<path fill="none" stroke="#63b8ff" d="M829.21,-314.33C838.64,-313.19 848.28,-312.03 857.59,-310.91"/>
<polygon fill="#63b8ff" stroke="#63b8ff" points="858.02,-314.38 867.52,-309.71 857.18,-307.43 858.02,-314.38"/>
</g>
<!-- Node19&#45;&gt;Node2 -->
<g id="edge22" class="edge">
<title>Node19&#45;&gt;Node2</title>
<path fill="none" stroke="#63b8ff" d="M239.25,-311.69C239.16,-311.63 239.08,-311.56 239,-311.5 204.03,-284.63 181.31,-235.73 171.72,-208.09"/>
<polygon fill="#63b8ff" stroke="#63b8ff" points="174.97,-206.77 168.6,-198.31 168.31,-208.9 174.97,-206.77"/>
</g>
<!-- Node20&#45;&gt;Node2 -->
<g id="edge24" class="edge">
<title>Node20&#45;&gt;Node2</title>
<path fill="none" stroke="#63b8ff" d="M248.02,-273.88C244.9,-272.2 241.86,-270.4 239,-268.5 213.51,-251.56 189.23,-224.91 176.26,-206.73"/>
<polygon fill="#63b8ff" stroke="#63b8ff" points="178.98,-204.5 170.55,-198.08 173.14,-208.36 178.98,-204.5"/>
</g>
<!-- Node21&#45;&gt;Node11 -->
<g id="edge34" class="edge">
<title>Node21&#45;&gt;Node11</title>
<path fill="none" stroke="#63b8ff" d="M337.57,-207.71C395.28,-208.01 505.89,-208.5 600,-208.5 600,-208.5 600,-208.5 761.5,-208.5 844.05,-208.5 939.08,-208.5 1001.28,-208.5"/>
<polygon fill="#63b8ff" stroke="#63b8ff" points="1001.35,-212 1011.35,-208.5 1001.35,-205 1001.35,-212"/>
</g>
<!-- Node22 -->
<g id="node22" class="node">
<title>Node22</title>
<g id="a_node22"><a xlink:href="execute__pipe_8c.html#a723ff799f939872d17f109a82342294e" target="_top" xlink:title=" ">
<polygon fill="white" stroke="#666666" points="632,-180 570,-180 570,-161 632,-161 632,-180"/>
<text text-anchor="middle" x="601" y="-168" font-family="Helvetica,sans-Serif" font-size="10.00">close_fds</text>
</a>
</g>
</g>
<!-- Node21&#45;&gt;Node22 -->
<g id="edge26" class="edge">
<title>Node21&#45;&gt;Node22</title>
<path fill="none" stroke="#63b8ff" d="M337.8,-201.72C354.25,-199.38 373.53,-196.72 391,-194.5 449.62,-187.04 517.62,-179.42 559.73,-174.83"/>
<polygon fill="#63b8ff" stroke="#63b8ff" points="560.3,-178.29 569.86,-173.73 559.54,-171.33 560.3,-178.29"/>
</g>
<!-- Node23 -->
<g id="node23" class="node">
<title>Node23</title>
<g id="a_node23"><a xlink:href="execute__pipe_8c.html#ac529ffc2370b0133613ef8a81e58ed85" target="_top" xlink:title=" ">
<polygon fill="white" stroke="#666666" points="501.5,-256 399.5,-256 399.5,-237 501.5,-237 501.5,-256"/>
<text text-anchor="middle" x="450.5" y="-244" font-family="Helvetica,sans-Serif" font-size="10.00">execute_pipe_left</text>
</a>
</g>
</g>
<!-- Node21&#45;&gt;Node23 -->
<g id="edge27" class="edge">
<title>Node21&#45;&gt;Node23</title>
<path fill="none" stroke="#63b8ff" d="M335.06,-217.04C355.5,-222.3 381.07,-228.88 402.85,-234.49"/>
<polygon fill="#63b8ff" stroke="#63b8ff" points="402,-237.89 412.56,-236.99 403.75,-231.11 402,-237.89"/>
</g>
<!-- Node24 -->
<g id="node24" class="node">
<title>Node24</title>
<g id="a_node24"><a xlink:href="execute__pipe_8c.html#a9ed6eabb8a9f7049f91265a5f45e30c8" target="_top" xlink:title=" ">
<polygon fill="white" stroke="#666666" points="505,-142 396,-142 396,-123 505,-123 505,-142"/>
<text text-anchor="middle" x="450.5" y="-130" font-family="Helvetica,sans-Serif" font-size="10.00">execute_pipe_right</text>
</a>
</g>
</g>
<!-- Node21&#45;&gt;Node24 -->
<g id="edge30" class="edge">
<title>Node21&#45;&gt;Node24</title>
<path fill="none" stroke="#63b8ff" d="M333.93,-197.99C341.14,-195.41 348.5,-192.26 355,-188.5 373.53,-177.79 372.84,-167.83 391,-156.5 397.34,-152.54 404.44,-148.99 411.45,-145.92"/>
<polygon fill="#63b8ff" stroke="#63b8ff" points="412.98,-149.07 420.88,-142.02 410.3,-142.6 412.98,-149.07"/>
</g>
<!-- Node23&#45;&gt;Node2 -->
<g id="edge29" class="edge">
<title>Node23&#45;&gt;Node2</title>
<path fill="none" stroke="#63b8ff" d="M399.13,-247.13C355.83,-246.41 292.14,-242.28 239,-226.5 221.51,-221.31 203.33,-211.76 189.55,-203.54"/>
<polygon fill="#63b8ff" stroke="#63b8ff" points="191.13,-200.4 180.78,-198.13 187.45,-206.36 191.13,-200.4"/>
</g>
<!-- Node23&#45;&gt;Node22 -->
<g id="edge28" class="edge">
<title>Node23&#45;&gt;Node22</title>
<path fill="none" stroke="#63b8ff" d="M470.31,-236.87C496.08,-223.68 542.57,-199.89 572.32,-184.67"/>
<polygon fill="#63b8ff" stroke="#63b8ff" points="574.04,-187.72 581.35,-180.05 570.85,-181.49 574.04,-187.72"/>
</g>
<!-- Node24&#45;&gt;Node2 -->
<g id="edge32" class="edge">
<title>Node24&#45;&gt;Node2</title>
<path fill="none" stroke="#63b8ff" d="M395.7,-131.77C352.54,-132.5 290.82,-136.54 239,-151.5 221.68,-156.5 203.62,-165.7 189.86,-173.68"/>
<polygon fill="#63b8ff" stroke="#63b8ff" points="187.86,-170.8 181.08,-178.94 191.45,-176.8 187.86,-170.8"/>
</g>
<!-- Node24&#45;&gt;Node22 -->
<g id="edge31" class="edge">
<title>Node24&#45;&gt;Node22</title>
<path fill="none" stroke="#63b8ff" d="M488.97,-142.09C510.58,-147.62 537.75,-154.57 559.8,-160.21"/>
<polygon fill="#63b8ff" stroke="#63b8ff" points="558.98,-163.62 569.53,-162.7 560.71,-156.83 558.98,-163.62"/>
</g>
<!-- Node25 -->
<g id="node25" class="node">
<title>Node25</title>
<g id="a_node25"><a xlink:href="execute__pipe_8c.html#ac3d3a124b262676fa0679720f99a7f83" target="_top" xlink:title=" ">
<polygon fill="white" stroke="#666666" points="641,-142 561,-142 561,-123 641,-123 641,-142"/>
<text text-anchor="middle" x="601" y="-130" font-family="Helvetica,sans-Serif" font-size="10.00">restore_stdin</text>
</a>
</g>
</g>
<!-- Node24&#45;&gt;Node25 -->
<g id="edge33" class="edge">
<title>Node24&#45;&gt;Node25</title>
<path fill="none" stroke="#63b8ff" d="M505.11,-132.5C519.95,-132.5 535.99,-132.5 550.58,-132.5"/>
<polygon fill="#63b8ff" stroke="#63b8ff" points="550.91,-136 560.91,-132.5 550.91,-129 550.91,-136"/>
</g>
<!-- Node27 -->
<g id="node27" class="node">
<title>Node27</title>
<g id="a_node27"><a xlink:href="execute__redirect_8c.html#a5aa0f008806cc0e8a7ba252d61b7001f" target="_top" xlink:title=" ">
<polygon fill="white" stroke="#666666" points="504,-37 397,-37 397,-18 504,-18 504,-37"/>
<text text-anchor="middle" x="450.5" y="-25" font-family="Helvetica,sans-Serif" font-size="10.00">redirect_execution</text>
</a>
</g>
</g>
<!-- Node26&#45;&gt;Node27 -->
<g id="edge36" class="edge">
<title>Node26&#45;&gt;Node27</title>
<path fill="none" stroke="#63b8ff" d="M346.35,-21.37C359.19,-22.13 373.24,-22.97 386.72,-23.77"/>
<polygon fill="#63b8ff" stroke="#63b8ff" points="386.7,-27.28 396.89,-24.37 387.11,-20.29 386.7,-27.28"/>
</g>
<!-- Node27&#45;&gt;Node2 -->
<g id="edge37" class="edge">
<title>Node27&#45;&gt;Node2</title>
<path fill="none" stroke="#63b8ff" d="M396.73,-34.87C342.98,-43.19 264.08,-57.89 239,-75.5 205.45,-99.06 183.78,-143.58 173.5,-169.14"/>
<polygon fill="#63b8ff" stroke="#63b8ff" points="170.1,-168.23 169.79,-178.82 176.64,-170.74 170.1,-168.23"/>
</g>
<!-- Node28 -->
<g id="node28" class="node">
<title>Node28</title>
<g id="a_node28"><a xlink:href="execute__redirect_8c.html#a1b8f325fc375581f81ae47a54e09cf0e" target="_top" xlink:title=" ">
<polygon fill="white" stroke="#666666" points="634,-56 568,-56 568,-37 634,-37 634,-56"/>
<text text-anchor="middle" x="601" y="-44" font-family="Helvetica,sans-Serif" font-size="10.00">restore_fd</text>
</a>
</g>
</g>
<!-- Node27&#45;&gt;Node28 -->
<g id="edge38" class="edge">
<title>Node27&#45;&gt;Node28</title>
<path fill="none" stroke="#63b8ff" d="M504.27,-34.25C521.81,-36.5 541.09,-38.96 557.73,-41.09"/>
<polygon fill="#63b8ff" stroke="#63b8ff" points="557.34,-44.57 567.71,-42.37 558.23,-37.63 557.34,-44.57"/>
</g>
<!-- Node29 -->
<g id="node29" class="node">
<title>Node29</title>
<g id="a_node29"><a xlink:href="execute__redirect_8c.html#a6cb002bd51f2009eaacc66d388c5f9a7" target="_top" xlink:title=" ">
<polygon fill="white" stroke="#666666" points="651.5,-19 550.5,-19 550.5,0 651.5,0 651.5,-19"/>
<text text-anchor="middle" x="601" y="-7" font-family="Helvetica,sans-Serif" font-size="10.00">setup_redirection</text>
</a>
</g>
</g>
<!-- Node27&#45;&gt;Node29 -->
<g id="edge39" class="edge">
<title>Node27&#45;&gt;Node29</title>
<path fill="none" stroke="#63b8ff" d="M504.27,-21.1C515.88,-19.7 528.25,-18.2 540.12,-16.76"/>
<polygon fill="#63b8ff" stroke="#63b8ff" points="540.87,-20.19 550.38,-15.51 540.03,-13.24 540.87,-20.19"/>
</g>
<!-- Node30 -->
<g id="node30" class="node">
<title>Node30</title>
<g id="a_node30"><a xlink:href="execute__redirect_8c.html#a0e31af51537a8c047a3aca7cdb63d5dd" target="_top" xlink:title=" ">
<polygon fill="white" stroke="#666666" points="809.5,-19 711.5,-19 711.5,0 809.5,0 809.5,-19"/>
<text text-anchor="middle" x="760.5" y="-7" font-family="Helvetica,sans-Serif" font-size="10.00">open_redirect_fd</text>
</a>
</g>
</g>
<!-- Node29&#45;&gt;Node30 -->
<g id="edge40" class="edge">
<title>Node29&#45;&gt;Node30</title>
<path fill="none" stroke="#63b8ff" d="M651.83,-9.5C667.43,-9.5 684.79,-9.5 700.93,-9.5"/>
<polygon fill="#63b8ff" stroke="#63b8ff" points="701.34,-13 711.34,-9.5 701.34,-6 701.34,-13"/>
</g>
<!-- Node31 -->
<g id="node31" class="node">
<title>Node31</title>
<g id="a_node31"><a xlink:href="execute__redirect_8c.html#a71feea783167b3804f2793a232ca74b4" target="_top" xlink:title=" ">
<polygon fill="white" stroke="#666666" points="955.5,-19 884.5,-19 884.5,0 955.5,0 955.5,-19"/>
<text text-anchor="middle" x="920" y="-7" font-family="Helvetica,sans-Serif" font-size="10.00">heredoc_fd</text>
</a>
</g>
</g>
<!-- Node30&#45;&gt;Node31 -->
<g id="edge41" class="edge">
<title>Node30&#45;&gt;Node31</title>
<path fill="none" stroke="#63b8ff" d="M809.61,-9.5C830.1,-9.5 853.87,-9.5 874.01,-9.5"/>
<polygon fill="#63b8ff" stroke="#63b8ff" points="874.17,-13 884.17,-9.5 874.17,-6 874.17,-13"/>
</g>
<!-- Node32 -->
<g id="node32" class="node">
<title>Node32</title>
<g id="a_node32"><a xlink:href="execute__redirect_8c.html#a639d0a6f315a3bae78d204ff798e314f" target="_top" xlink:title=" ">
<polygon fill="white" stroke="#666666" points="1123,-19 1016,-19 1016,0 1123,0 1123,-19"/>
<text text-anchor="middle" x="1069.5" y="-7" font-family="Helvetica,sans-Serif" font-size="10.00">get_heredoc_input</text>
</a>
</g>
</g>
<!-- Node31&#45;&gt;Node32 -->
<g id="edge42" class="edge">
<title>Node31&#45;&gt;Node32</title>
<path fill="none" stroke="#63b8ff" d="M955.58,-9.5C970.6,-9.5 988.67,-9.5 1005.91,-9.5"/>
<polygon fill="#63b8ff" stroke="#63b8ff" points="1005.94,-13 1015.94,-9.5 1005.94,-6 1005.94,-13"/>
</g>
<!-- Node33 -->
<g id="node33" class="node">
<title>Node33</title>
<g id="a_node33"><a xlink:href="execute__redirect_8c.html#a4e396606481bc13335d3dfae7ff15407" target="_top" xlink:title=" ">
<polygon fill="white" stroke="#666666" points="1276.5,-19 1174.5,-19 1174.5,0 1276.5,0 1276.5,-19"/>
<text text-anchor="middle" x="1225.5" y="-7" font-family="Helvetica,sans-Serif" font-size="10.00">is_heredoc_delim</text>
</a>
</g>
</g>
<!-- Node32&#45;&gt;Node33 -->
<g id="edge43" class="edge">
<title>Node32&#45;&gt;Node33</title>
<path fill="none" stroke="#63b8ff" d="M1123.07,-9.5C1136.26,-9.5 1150.52,-9.5 1164.06,-9.5"/>
<polygon fill="#63b8ff" stroke="#63b8ff" points="1164.25,-13 1174.25,-9.5 1164.25,-6 1164.25,-13"/>
</g>
<!-- Node34&#45;&gt;Node2 -->
<g id="edge46" class="edge">
<title>Node34&#45;&gt;Node2</title>
<path fill="none" stroke="#63b8ff" d="M268.21,-180.02C252.2,-183.31 231.66,-186.45 213.24,-188.52"/>
<polygon fill="#63b8ff" stroke="#63b8ff" points="212.85,-185.04 203.26,-189.55 213.57,-192 212.85,-185.04"/>
</g>
<!-- Node35&#45;&gt;Node2 -->
<g id="edge48" class="edge">
<title>Node35&#45;&gt;Node2</title>
<path fill="none" stroke="#63b8ff" d="M285.34,-104.22C273.43,-110.51 253.88,-117.68 239,-127.5 219.83,-140.15 201.26,-158.22 187.72,-171.63"/>
<polygon fill="#63b8ff" stroke="#63b8ff" points="185.01,-169.38 180.35,-178.9 189.93,-174.36 185.01,-169.38"/>
</g>
<!-- Node35&#45;&gt;Node11 -->
<g id="edge49" class="edge">
<title>Node35&#45;&gt;Node11</title>
<path fill="none" stroke="#63b8ff" d="M347.7,-94.5C407.55,-94.5 511.13,-94.5 600,-94.5 600,-94.5 600,-94.5 761.5,-94.5 873.93,-94.5 995.86,-162.53 1045.52,-193.48"/>
<polygon fill="#63b8ff" stroke="#63b8ff" points="1043.87,-196.58 1054.2,-198.98 1047.62,-190.67 1043.87,-196.58"/>
</g>
</g>
</svg>
        <g id="navigator" transform="translate(0 0)" fill="#404254">
                <rect fill="#f2f5e9" fill-opacity="0.5" stroke="#606060" stroke-width=".5" x="0" y="0" width="60" height="60"/>
                <use id="zoomplus" xlink:href="#zoomPlus" x="17" y="9" onmousedown="handleZoom(evt,'in')"/>
                <use id="zoomminus" xlink:href="#zoomMin" x="42" y="9" onmousedown="handleZoom(evt,'out')"/>
                <use id="reset" xlink:href="#resetDef" x="30" y="36" onmousedown="handleReset()"/>
                <g id="arrowUp" xlink:href="#dirArrow" transform="translate(30 24)" onmousedown="handlePan(0,-1)">
                  <use xlink:href="#rim" fill="#404040">
                        <set attributeName="fill" to="#808080" begin="arrowUp.mouseover" end="arrowUp.mouseout"/>
                  </use>
                  <path fill="none" stroke="white" stroke-width="1.5" d="M0,-3.0v7 M-2.5,-0.5L0,-3.0L2.5,-0.5"/>
                </g>
                <g id="arrowRight" xlink:href="#dirArrow" transform="rotate(90) translate(36 -43)" onmousedown="handlePan(1,0)">
                  <use xlink:href="#rim" fill="#404040">
                        <set attributeName="fill" to="#808080" begin="arrowRight.mouseover" end="arrowRight.mouseout"/>
                  </use>
                  <path fill="none" stroke="white" stroke-width="1.5" d="M0,-3.0v7 M-2.5,-0.5L0,-3.0L2.5,-0.5"/>
                </g>
                <g id="arrowDown" xlink:href="#dirArrow" transform="rotate(180) translate(-30 -48)" onmousedown="handlePan(0,1)">
                  <use xlink:href="#rim" fill="#404040">
                        <set attributeName="fill" to="#808080" begin="arrowDown.mouseover" end="arrowDown.mouseout"/>
                  </use>
                  <path fill="none" stroke="white" stroke-width="1.5" d="M0,-3.0v7 M-2.5,-0.5L0,-3.0L2.5,-0.5"/>
                </g>
                <g id="arrowLeft" xlink:href="#dirArrow" transform="rotate(270) translate(-36 17)" onmousedown="handlePan(-1,0)">
                  <use xlink:href="#rim" fill="#404040">
                        <set attributeName="fill" to="#808080" begin="arrowLeft.mouseover" end="arrowLeft.mouseout"/>
                  </use>
                  <path fill="none" stroke="white" stroke-width="1.5" d="M0,-3.0v7 M-2.5,-0.5L0,-3.0L2.5,-0.5"/>
                </g>
        </g>
        <svg viewBox="0 0 15 15" width="100%" height="30px" preserveAspectRatio="xMaxYMin meet">
         <g id="arrow_out" transform="scale(0.3 0.3)">
          <a xlink:href="execute__repeat_8c_a00d48683c54b50130b4a402e6e97fa97_cgraph_org.svg" target="_base">
           <rect id="button" ry="5" rx="5" y="6" x="6" height="38" width="38"
                fill="#f2f5e9" fill-opacity="0.5" stroke="#606060" stroke-width="1.0"/>
           <path id="arrow"
             d="M 11.500037,31.436501 C 11.940474,20.09759 22.043105,11.32322 32.158766,21.979434 L 37.068811,17.246167 C 37.068811,17.246167 37.088388,32 37.088388,32 L 22.160133,31.978069 C 22.160133,31.978069 26.997745,27.140456 26.997745,27.140456 C 18.528582,18.264221 13.291696,25.230495 11.500037,31.436501 z"
             style="fill:#404040;"/>
          </a>
         </g>
        </svg>
</svg>
