<?xml version="1.0" encoding="UTF-8" standalone="no"?>
<!DOCTYPE svg PUBLIC "-//W3C//DTD SVG 1.1//EN"
 "http://www.w3.org/Graphics/SVG/1.1/DTD/svg11.dtd">
<!-- Generated by graphviz version 2.43.0 (0)
 -->
<!-- Title: execute_pipe_left Pages: 1 -->
<!--zoomable 393 -->
<svg id="main" version="1.1" xmlns="http://www.w3.org/2000/svg" xmlns:xlink="http://www.w3.org/1999/xlink" xml:space="preserve" onload="init(evt)">
<style type="text/css"><![CDATA[
.edge:hover path { stroke: red; }
.edge:hover polygon { stroke: red; fill: red; }
]]></style>
<script type="text/javascript"><![CDATA[
var edges = document.getElementsByTagName('g');
if (edges && edges.length) {
  for (var i=0;i<edges.length;i++) {
    if (edges[i].id.substr(0,4)=='edge') {
      edges[i].setAttribute('class','edge');
    }
  }
}
]]></script>
        <defs>
                <circle id="rim" cx="0" cy="0" r="7"/>
                <circle id="rim2" cx="0" cy="0" r="3.5"/>
                <g id="zoomPlus">
                        <use xlink:href="#rim" fill="#404040">
                                <set attributeName="fill" to="#808080" begin="zoomplus.mouseover" end="zoomplus.mouseout"/>
                        </use>
                        <path d="M-4,0h8M0,-4v8" fill="none" stroke="white" stroke-width="1.5" pointer-events="none"/>
                </g>
                <g id="zoomMin">
                        <use xlink:href="#rim" fill="#404040">
                                <set attributeName="fill" to="#808080" begin="zoomminus.mouseover" end="zoomminus.mouseout"/>
                        </use>
                        <path d="M-4,0h8" fill="none" stroke="white" stroke-width="1.5" pointer-events="none"/>
                </g>
                <g id="dirArrow">
                        <path fill="none" stroke="white" stroke-width="1.5" d="M0,-3.0v7 M-2.5,-0.5L0,-3.0L2.5,-0.5"/>
                </g>
               <g id="resetDef">
                       <use xlink:href="#rim2" fill="#404040">
                               <set attributeName="fill" to="#808080" begin="reset.mouseover" end="reset.mouseout"/>
                       </use>
               </g>
        </defs>

<script type="text/javascript">
var viewWidth = 1305;
var viewHeight = 393;
var sectionId = 'dynsection-2';
</script>
<script xlink:href="svgpan.js"/>
<svg id="graph" class="graph">
<g id="viewport">
<title>execute_pipe_left</title>
<!-- Node1 -->
<g id="node1" class="node">
<title>Node1</title>
<g id="a_node1"><a xlink:title=" ">
<polygon fill="#999999" stroke="#666666" points="102,-356 0,-356 0,-337 102,-337 102,-356"/>
<text text-anchor="middle" x="51" y="-344" font-family="Helvetica,sans-Serif" font-size="10.00">execute_pipe_left</text>
</a>
</g>
</g>
<!-- Node2 -->
<g id="node2" class="node">
<title>Node2</title>
<g id="a_node2"><a xlink:href="execute__pipe_8c.html#a723ff799f939872d17f109a82342294e" target="_top" xlink:title=" ">
<polygon fill="white" stroke="#666666" points="642,-356 580,-356 580,-337 642,-337 642,-356"/>
<text text-anchor="middle" x="611" y="-344" font-family="Helvetica,sans-Serif" font-size="10.00">close_fds</text>
</a>
</g>
</g>
<!-- Node1&#45;&gt;Node2 -->
<g id="edge1" class="edge">
<title>Node1&#45;&gt;Node2</title>
<path fill="none" stroke="#63b8ff" d="M102.34,-355.78C114.01,-357.63 126.41,-359.35 138,-360.5 306.95,-377.23 350.91,-375.77 520,-360.5 536.25,-359.03 554.02,-356.47 569.45,-353.94"/>
<polygon fill="#63b8ff" stroke="#63b8ff" points="570.43,-357.32 579.71,-352.21 569.27,-350.42 570.43,-357.32"/>
</g>
<!-- Node3 -->
<g id="node3" class="node">
<title>Node3</title>
<g id="a_node3"><a xlink:href="execute__ast_8c.html#ad26a20a665ab7fdeb714ed53c1afd104" target="_top" xlink:title=" ">
<polygon fill="white" stroke="#666666" points="213,-188 138,-188 138,-169 213,-169 213,-188"/>
<text text-anchor="middle" x="175.5" y="-176" font-family="Helvetica,sans-Serif" font-size="10.00">execute_ast</text>
</a>
</g>
</g>
<!-- Node1&#45;&gt;Node3 -->
<g id="edge2" class="edge">
<title>Node1&#45;&gt;Node3</title>
<path fill="none" stroke="#63b8ff" d="M58.94,-336.99C78.64,-309.97 135.17,-232.44 161.15,-196.81"/>
<polygon fill="#63b8ff" stroke="#63b8ff" points="164.27,-198.47 167.33,-188.33 158.61,-194.35 164.27,-198.47"/>
</g>
<!-- Node4 -->
<g id="node4" class="node">
<title>Node4</title>
<g id="a_node4"><a xlink:href="execute__cmd_8c.html#a94ea9cc5a046ce96e36764bf0e4fa2c0" target="_top" xlink:title=" ">
<polygon fill="white" stroke="#666666" points="347.5,-243 266.5,-243 266.5,-224 347.5,-224 347.5,-243"/>
<text text-anchor="middle" x="307" y="-231" font-family="Helvetica,sans-Serif" font-size="10.00">execute_cmd</text>
</a>
</g>
</g>
<!-- Node3&#45;&gt;Node4 -->
<g id="edge3" class="edge">
<title>Node3&#45;&gt;Node4</title>
<path fill="none" stroke="#63b8ff" d="M194.06,-188.08C208.55,-195.77 229.77,-206.57 249,-214.5 254.12,-216.61 259.57,-218.67 265,-220.6"/>
<polygon fill="#63b8ff" stroke="#63b8ff" points="264.06,-223.97 274.65,-223.92 266.33,-217.36 264.06,-223.97"/>
</g>
<!-- Node20 -->
<g id="node20" class="node">
<title>Node20</title>
<g id="a_node20"><a xlink:href="execute__logical__and_8c.html#a4f940752faf9f9a258c49810b21efe47" target="_top" xlink:title=" ">
<polygon fill="white" stroke="#666666" points="365,-206 249,-206 249,-187 365,-187 365,-206"/>
<text text-anchor="middle" x="307" y="-194" font-family="Helvetica,sans-Serif" font-size="10.00">execute_logical_and</text>
</a>
</g>
</g>
<!-- Node3&#45;&gt;Node20 -->
<g id="edge22" class="edge">
<title>Node3&#45;&gt;Node20</title>
<path fill="none" stroke="#63b8ff" d="M213.26,-177.45C230.35,-179.06 250.67,-181.86 267.92,-184.99"/>
<polygon fill="#63b8ff" stroke="#63b8ff" points="267.73,-188.52 278.21,-186.98 269.05,-181.65 267.73,-188.52"/>
</g>
<!-- Node21 -->
<g id="node21" class="node">
<title>Node21</title>
<g id="a_node21"><a xlink:href="execute__logical__or_8c.html#a7e732d7c30b07010fa55850051007dcc" target="_top" xlink:title=" ">
<polygon fill="white" stroke="#666666" points="360.5,-169 253.5,-169 253.5,-150 360.5,-150 360.5,-169"/>
<text text-anchor="middle" x="307" y="-157" font-family="Helvetica,sans-Serif" font-size="10.00">execute_logical_or</text>
</a>
</g>
</g>
<!-- Node3&#45;&gt;Node21 -->
<g id="edge24" class="edge">
<title>Node3&#45;&gt;Node21</title>
<path fill="none" stroke="#63b8ff" d="M203.33,-168.97C214.96,-166.46 229.1,-164 243.13,-161.98"/>
<polygon fill="#63b8ff" stroke="#63b8ff" points="243.85,-165.41 253.28,-160.59 242.9,-158.48 243.85,-165.41"/>
</g>
<!-- Node22 -->
<g id="node22" class="node">
<title>Node22</title>
<g id="a_node22"><a xlink:href="execute__pipe_8c.html#a5f3546dc2c7cf06c982afba41e722164" target="_top" xlink:title=" ">
<polygon fill="white" stroke="#666666" points="347.5,-356 266.5,-356 266.5,-337 347.5,-337 347.5,-356"/>
<text text-anchor="middle" x="307" y="-344" font-family="Helvetica,sans-Serif" font-size="10.00">execute_pipe</text>
</a>
</g>
</g>
<!-- Node3&#45;&gt;Node22 -->
<g id="edge26" class="edge">
<title>Node3&#45;&gt;Node22</title>
<path fill="none" stroke="#63b8ff" d="M178.9,-188.33C185.6,-213.88 206.87,-283.14 249,-322.5 253.12,-326.35 257.95,-329.63 263.02,-332.41"/>
<polygon fill="#63b8ff" stroke="#63b8ff" points="261.78,-335.7 272.31,-336.89 264.82,-329.4 261.78,-335.7"/>
</g>
<!-- Node25 -->
<g id="node25" class="node">
<title>Node25</title>
<g id="a_node25"><a xlink:href="execute__redirect_8c.html#a1004307aba80117ddd99f009e52fb155" target="_top" xlink:title=" ">
<polygon fill="white" stroke="#666666" points="356,-19 258,-19 258,0 356,0 356,-19"/>
<text text-anchor="middle" x="307" y="-7" font-family="Helvetica,sans-Serif" font-size="10.00">execute_redirect</text>
</a>
</g>
</g>
<!-- Node3&#45;&gt;Node25 -->
<g id="edge34" class="edge">
<title>Node3&#45;&gt;Node25</title>
<path fill="none" stroke="#63b8ff" d="M178.37,-168.75C184,-142.05 203.31,-67.13 249,-27.5 250.35,-26.33 251.77,-25.24 253.25,-24.22"/>
<polygon fill="#63b8ff" stroke="#63b8ff" points="255.31,-27.07 262.29,-19.1 251.86,-20.98 255.31,-27.07"/>
</g>
<!-- Node33 -->
<g id="node33" class="node">
<title>Node33</title>
<g id="a_node33"><a xlink:href="execute__repeat_8c.html#a00d48683c54b50130b4a402e6e97fa97" target="_top" xlink:title=" ">
<polygon fill="white" stroke="#666666" points="353,-93 261,-93 261,-74 353,-74 353,-93"/>
<text text-anchor="middle" x="307" y="-81" font-family="Helvetica,sans-Serif" font-size="10.00">execute_repeat</text>
</a>
</g>
</g>
<!-- Node3&#45;&gt;Node33 -->
<g id="edge43" class="edge">
<title>Node3&#45;&gt;Node33</title>
<path fill="none" stroke="#63b8ff" d="M180.55,-168.92C190.8,-151.67 219.07,-118.4 249,-98.5 249.94,-97.88 250.9,-97.26 251.87,-96.66"/>
<polygon fill="#63b8ff" stroke="#63b8ff" points="253.95,-99.51 260.97,-91.58 250.53,-93.4 253.95,-99.51"/>
</g>
<!-- Node34 -->
<g id="node34" class="node">
<title>Node34</title>
<g id="a_node34"><a xlink:href="execute__sequence_8c.html#aad2caa5bf50b0752dd8272da477ec231" target="_top" xlink:title=" ">
<polygon fill="white" stroke="#666666" points="360.5,-56 253.5,-56 253.5,-37 360.5,-37 360.5,-56"/>
<text text-anchor="middle" x="307" y="-44" font-family="Helvetica,sans-Serif" font-size="10.00">execute_sequence</text>
</a>
</g>
</g>
<!-- Node3&#45;&gt;Node34 -->
<g id="edge45" class="edge">
<title>Node3&#45;&gt;Node34</title>
<path fill="none" stroke="#63b8ff" d="M178.6,-168.69C185.07,-146.15 206.46,-93.14 245.36,-59.02"/>
<polygon fill="#63b8ff" stroke="#63b8ff" points="247.86,-61.51 253.38,-52.46 243.42,-56.09 247.86,-61.51"/>
</g>
<!-- Node35 -->
<g id="node35" class="node">
<title>Node35</title>
<g id="a_node35"><a xlink:href="execute__subshell_8c.html#a40a27866de012b013a337f794a858d70" target="_top" xlink:title=" ">
<polygon fill="white" stroke="#666666" points="357.5,-280 256.5,-280 256.5,-261 357.5,-261 357.5,-280"/>
<text text-anchor="middle" x="307" y="-268" font-family="Helvetica,sans-Serif" font-size="10.00">execute_subshell</text>
</a>
</g>
</g>
<!-- Node3&#45;&gt;Node35 -->
<g id="edge47" class="edge">
<title>Node3&#45;&gt;Node35</title>
<path fill="none" stroke="#63b8ff" d="M188.95,-188.17C202.19,-202.37 224.56,-227.34 249,-242.5 259.34,-248.92 272.1,-253.43 282.92,-257.3"/>
<polygon fill="#63b8ff" stroke="#63b8ff" points="281.97,-260.68 292.57,-260.85 284.39,-254.11 281.97,-260.68"/>
</g>
<!-- Node5 -->
<g id="node5" class="node">
<title>Node5</title>
<g id="a_node5"><a xlink:href="execute__cmd_8c.html#a0cfd2364134e68efdd39533e00b4b0d9" target="_top" xlink:title=" ">
<polygon fill="white" stroke="#666666" points="520,-148 401,-148 401,-129 520,-129 520,-148"/>
<text text-anchor="middle" x="460.5" y="-136" font-family="Helvetica,sans-Serif" font-size="10.00">execute_local_binary</text>
</a>
</g>
</g>
<!-- Node4&#45;&gt;Node5 -->
<g id="edge4" class="edge">
<title>Node4&#45;&gt;Node5</title>
<path fill="none" stroke="#63b8ff" d="M345.73,-223.92C352.43,-221.4 359.13,-218.29 365,-214.5 384.81,-201.7 382.88,-190.6 401,-175.5 410.85,-167.29 422.66,-159.49 433.08,-153.19"/>
<polygon fill="#63b8ff" stroke="#63b8ff" points="434.95,-156.16 441.79,-148.07 431.4,-150.12 434.95,-156.16"/>
</g>
<!-- Node14 -->
<g id="node14" class="node">
<title>Node14</title>
<g id="a_node14"><a xlink:href="execute__cmd_8c.html#a460126af28ab29df4340554fae9fc57a" target="_top" xlink:title=" ">
<polygon fill="white" stroke="#666666" points="519.5,-204 401.5,-204 401.5,-185 519.5,-185 519.5,-204"/>
<text text-anchor="middle" x="460.5" y="-192" font-family="Helvetica,sans-Serif" font-size="10.00">execute_path_binary</text>
</a>
</g>
</g>
<!-- Node4&#45;&gt;Node14 -->
<g id="edge14" class="edge">
<title>Node4&#45;&gt;Node14</title>
<path fill="none" stroke="#63b8ff" d="M345.06,-223.96C365.5,-218.7 391.07,-212.12 412.85,-206.51"/>
<polygon fill="#63b8ff" stroke="#63b8ff" points="413.75,-209.89 422.56,-204.01 412,-203.11 413.75,-209.89"/>
</g>
<!-- Node19 -->
<g id="node19" class="node">
<title>Node19</title>
<g id="a_node19"><a xlink:href="strings_8h.html#a36f055c4e56c8a784629908d0c5b91e5" target="_top" xlink:title=" ">
<polygon fill="white" stroke="#666666" points="982,-242 878,-242 878,-223 982,-223 982,-242"/>
<text text-anchor="middle" x="930" y="-230" font-family="Helvetica,sans-Serif" font-size="10.00">my_is_char_in_str</text>
</a>
</g>
</g>
<!-- Node4&#45;&gt;Node19 -->
<g id="edge21" class="edge">
<title>Node4&#45;&gt;Node19</title>
<path fill="none" stroke="#63b8ff" d="M347.79,-233.44C453.24,-233.27 740.48,-232.8 867.35,-232.6"/>
<polygon fill="#63b8ff" stroke="#63b8ff" points="867.67,-236.1 877.66,-232.58 867.66,-229.1 867.67,-236.1"/>
</g>
<!-- Node6 -->
<g id="node6" class="node">
<title>Node6</title>
<g id="a_node6"><a xlink:href="execute__cmd_8c.html#a018afe6a043051ebc2e3dd9412587990" target="_top" xlink:title=" ">
<polygon fill="white" stroke="#666666" points="816,-130 725,-130 725,-111 816,-111 816,-130"/>
<text text-anchor="middle" x="770.5" y="-118" font-family="Helvetica,sans-Serif" font-size="10.00">execute_binary</text>
</a>
</g>
</g>
<!-- Node5&#45;&gt;Node6 -->
<g id="edge5" class="edge">
<title>Node5&#45;&gt;Node6</title>
<path fill="none" stroke="#63b8ff" d="M520.16,-135.07C576.07,-131.8 659.63,-126.92 714.35,-123.72"/>
<polygon fill="#63b8ff" stroke="#63b8ff" points="714.78,-127.2 724.56,-123.13 714.37,-120.22 714.78,-127.2"/>
</g>
<!-- Node7 -->
<g id="node7" class="node">
<title>Node7</title>
<g id="a_node7"><a xlink:href="env__to__word__array_8c.html#aea7253d35c5aa57d9cfe9d7df218cb90" target="_top" xlink:title=" ">
<polygon fill="white" stroke="#666666" points="985,-130 875,-130 875,-111 985,-111 985,-130"/>
<text text-anchor="middle" x="930" y="-118" font-family="Helvetica,sans-Serif" font-size="10.00">env_to_word_array</text>
</a>
</g>
</g>
<!-- Node6&#45;&gt;Node7 -->
<g id="edge6" class="edge">
<title>Node6&#45;&gt;Node7</title>
<path fill="none" stroke="#63b8ff" d="M816.21,-120.5C831.35,-120.5 848.57,-120.5 864.91,-120.5"/>
<polygon fill="#63b8ff" stroke="#63b8ff" points="864.95,-124 874.95,-120.5 864.95,-117 864.95,-124"/>
</g>
<!-- Node10 -->
<g id="node10" class="node">
<title>Node10</title>
<g id="a_node10"><a xlink:href="execute__cmd_8c.html#a6badc27baa1930e30ea2ad3817f65366" target="_top" xlink:title=" ">
<polygon fill="white" stroke="#666666" points="970,-177 890,-177 890,-158 970,-158 970,-177"/>
<text text-anchor="middle" x="930" y="-165" font-family="Helvetica,sans-Serif" font-size="10.00">execute_fork</text>
</a>
</g>
</g>
<!-- Node6&#45;&gt;Node10 -->
<g id="edge9" class="edge">
<title>Node6&#45;&gt;Node10</title>
<path fill="none" stroke="#63b8ff" d="M808.73,-130.06C818.6,-132.7 829.23,-135.62 839,-138.5 856.22,-143.57 875.14,-149.59 891.17,-154.84"/>
<polygon fill="#63b8ff" stroke="#63b8ff" points="890.15,-158.18 900.74,-157.98 892.34,-151.53 890.15,-158.18"/>
</g>
<!-- Node8 -->
<g id="node8" class="node">
<title>Node8</title>
<g id="a_node8"><a xlink:href="misc_8h.html#a1180cae2875b1fdcd58c9f9175a82c12" target="_top" xlink:title=" ">
<polygon fill="white" stroke="#666666" points="1138,-158 1021,-158 1021,-139 1138,-139 1138,-158"/>
<text text-anchor="middle" x="1079.5" y="-146" font-family="Helvetica,sans-Serif" font-size="10.00">my_free_word_array</text>
</a>
</g>
</g>
<!-- Node7&#45;&gt;Node8 -->
<g id="edge7" class="edge">
<title>Node7&#45;&gt;Node8</title>
<path fill="none" stroke="#63b8ff" d="M981.35,-130.06C993.22,-132.31 1005.98,-134.73 1018.24,-137.06"/>
<polygon fill="#63b8ff" stroke="#63b8ff" points="1017.9,-140.56 1028.38,-138.99 1019.21,-133.68 1017.9,-140.56"/>
</g>
<!-- Node9 -->
<g id="node9" class="node">
<title>Node9</title>
<g id="a_node9"><a xlink:href="list_8h.html#ad5ebb7cdb26f73e4b212dfc5eae4ef0e" target="_top" xlink:title=" ">
<polygon fill="white" stroke="#666666" points="1124,-121 1035,-121 1035,-102 1124,-102 1124,-121"/>
<text text-anchor="middle" x="1079.5" y="-109" font-family="Helvetica,sans-Serif" font-size="10.00">my_list_length</text>
</a>
</g>
</g>
<!-- Node7&#45;&gt;Node9 -->
<g id="edge8" class="edge">
<title>Node7&#45;&gt;Node9</title>
<path fill="none" stroke="#63b8ff" d="M985.09,-117.2C997.93,-116.42 1011.64,-115.58 1024.48,-114.8"/>
<polygon fill="#63b8ff" stroke="#63b8ff" points="1024.79,-118.28 1034.56,-114.18 1024.37,-111.3 1024.79,-118.28"/>
</g>
<!-- Node10&#45;&gt;Node8 -->
<g id="edge10" class="edge">
<title>Node10&#45;&gt;Node8</title>
<path fill="none" stroke="#63b8ff" d="M970.14,-162.46C982.64,-160.85 996.85,-159.02 1010.78,-157.22"/>
<polygon fill="#63b8ff" stroke="#63b8ff" points="1011.37,-160.68 1020.84,-155.93 1010.48,-153.73 1011.37,-160.68"/>
</g>
<!-- Node11 -->
<g id="node11" class="node">
<title>Node11</title>
<g id="a_node11"><a xlink:href="execute__cmd_8c.html#a2c49b9849cfef0deea03382c9f1b3ab8" target="_top" xlink:title=" ">
<polygon fill="white" stroke="#666666" points="1125.5,-195 1033.5,-195 1033.5,-176 1125.5,-176 1125.5,-195"/>
<text text-anchor="middle" x="1079.5" y="-183" font-family="Helvetica,sans-Serif" font-size="10.00">run_subprocess</text>
</a>
</g>
</g>
<!-- Node10&#45;&gt;Node11 -->
<g id="edge11" class="edge">
<title>Node10&#45;&gt;Node11</title>
<path fill="none" stroke="#63b8ff" d="M970.14,-172.28C986.41,-174.26 1005.58,-176.6 1023.24,-178.76"/>
<polygon fill="#63b8ff" stroke="#63b8ff" points="1023.08,-182.26 1033.43,-180 1023.93,-175.31 1023.08,-182.26"/>
</g>
<!-- Node12 -->
<g id="node12" class="node">
<title>Node12</title>
<g id="a_node12"><a xlink:href="wait__for__subprocess_8c.html#a1242d78540fd0ddef3d98a9f294cb0d4" target="_top" xlink:title=" ">
<polygon fill="white" stroke="#666666" points="1137.5,-280 1021.5,-280 1021.5,-261 1137.5,-261 1137.5,-280"/>
<text text-anchor="middle" x="1079.5" y="-268" font-family="Helvetica,sans-Serif" font-size="10.00">wait_for_subprocess</text>
</a>
</g>
</g>
<!-- Node10&#45;&gt;Node12 -->
<g id="edge12" class="edge">
<title>Node10&#45;&gt;Node12</title>
<path fill="none" stroke="#63b8ff" d="M944.61,-177.01C970.06,-194.77 1025.05,-233.18 1056.06,-254.83"/>
<polygon fill="#63b8ff" stroke="#63b8ff" points="1054.29,-257.86 1064.49,-260.72 1058.3,-252.12 1054.29,-257.86"/>
</g>
<!-- Node13 -->
<g id="node13" class="node">
<title>Node13</title>
<g id="a_node13"><a xlink:href="wait__for__subprocess_8c.html#a885766ba6ba593b7cf27b917dd52b1a6" target="_top" xlink:title=" ">
<polygon fill="white" stroke="#666666" points="1297,-280 1174,-280 1174,-261 1297,-261 1297,-280"/>
<text text-anchor="middle" x="1235.5" y="-268" font-family="Helvetica,sans-Serif" font-size="10.00">print_signal_message</text>
</a>
</g>
</g>
<!-- Node12&#45;&gt;Node13 -->
<g id="edge13" class="edge">
<title>Node12&#45;&gt;Node13</title>
<path fill="none" stroke="#63b8ff" d="M1137.84,-270.5C1146.26,-270.5 1155.02,-270.5 1163.67,-270.5"/>
<polygon fill="#63b8ff" stroke="#63b8ff" points="1163.76,-274 1173.76,-270.5 1163.76,-267 1163.76,-274"/>
</g>
<!-- Node15 -->
<g id="node15" class="node">
<title>Node15</title>
<g id="a_node15"><a xlink:href="get__variable__value_8c.html#a2edd9900f19af236aa05385a789be3d6" target="_top" xlink:title=" ">
<polygon fill="white" stroke="#666666" points="666,-204 556,-204 556,-185 666,-185 666,-204"/>
<text text-anchor="middle" x="611" y="-192" font-family="Helvetica,sans-Serif" font-size="10.00">get_variable_value</text>
</a>
</g>
</g>
<!-- Node14&#45;&gt;Node15 -->
<g id="edge15" class="edge">
<title>Node14&#45;&gt;Node15</title>
<path fill="none" stroke="#63b8ff" d="M519.76,-194.5C528.29,-194.5 537.11,-194.5 545.75,-194.5"/>
<polygon fill="#63b8ff" stroke="#63b8ff" points="545.78,-198 555.78,-194.5 545.78,-191 545.78,-198"/>
</g>
<!-- Node17 -->
<g id="node17" class="node">
<title>Node17</title>
<g id="a_node17"><a xlink:href="execute__cmd_8c.html#aee9e13edede9df28fac066f30e7ae7ed" target="_top" xlink:title=" ">
<polygon fill="white" stroke="#666666" points="653,-167 569,-167 569,-148 653,-148 653,-167"/>
<text text-anchor="middle" x="611" y="-155" font-family="Helvetica,sans-Serif" font-size="10.00">try_command</text>
</a>
</g>
</g>
<!-- Node14&#45;&gt;Node17 -->
<g id="edge17" class="edge">
<title>Node14&#45;&gt;Node17</title>
<path fill="none" stroke="#63b8ff" d="M499.74,-184.97C518.64,-180.26 541.63,-174.53 561.73,-169.53"/>
<polygon fill="#63b8ff" stroke="#63b8ff" points="562.77,-172.87 571.63,-167.06 561.08,-166.08 562.77,-172.87"/>
</g>
<!-- Node16 -->
<g id="node16" class="node">
<title>Node16</title>
<g id="a_node16"><a xlink:href="get__variable_8c.html#a569170390f0edf013bf89c26ef55ea8c" target="_top" xlink:title=" ">
<polygon fill="white" stroke="#666666" points="809,-204 732,-204 732,-185 809,-185 809,-204"/>
<text text-anchor="middle" x="770.5" y="-192" font-family="Helvetica,sans-Serif" font-size="10.00">get_variable</text>
</a>
</g>
</g>
<!-- Node15&#45;&gt;Node16 -->
<g id="edge16" class="edge">
<title>Node15&#45;&gt;Node16</title>
<path fill="none" stroke="#63b8ff" d="M666.2,-194.5C684.04,-194.5 703.73,-194.5 721.11,-194.5"/>
<polygon fill="#63b8ff" stroke="#63b8ff" points="721.58,-198 731.58,-194.5 721.58,-191 721.58,-198"/>
</g>
<!-- Node17&#45;&gt;Node6 -->
<g id="edge18" class="edge">
<title>Node17&#45;&gt;Node6</title>
<path fill="none" stroke="#63b8ff" d="M652.56,-147.97C672.78,-143.22 697.44,-137.43 718.88,-132.39"/>
<polygon fill="#63b8ff" stroke="#63b8ff" points="719.87,-135.75 728.8,-130.06 718.27,-128.94 719.87,-135.75"/>
</g>
<!-- Node18 -->
<g id="node18" class="node">
<title>Node18</title>
<g id="a_node18"><a xlink:href="execute__cmd_8c.html#a9ef2f2dfa839f59ba42718ef236d4dcb" target="_top" xlink:title=" ">
<polygon fill="white" stroke="#666666" points="839,-167 702,-167 702,-148 839,-148 839,-167"/>
<text text-anchor="middle" x="770.5" y="-155" font-family="Helvetica,sans-Serif" font-size="10.00">print_permission_denied</text>
</a>
</g>
</g>
<!-- Node17&#45;&gt;Node18 -->
<g id="edge19" class="edge">
<title>Node17&#45;&gt;Node18</title>
<path fill="none" stroke="#63b8ff" d="M653.38,-157.5C665.22,-157.5 678.52,-157.5 691.79,-157.5"/>
<polygon fill="#63b8ff" stroke="#63b8ff" points="691.9,-161 701.9,-157.5 691.9,-154 691.9,-161"/>
</g>
<!-- Node18&#45;&gt;Node19 -->
<g id="edge20" class="edge">
<title>Node18&#45;&gt;Node19</title>
<path fill="none" stroke="#63b8ff" d="M815.02,-167.01C823.14,-169.37 831.44,-172.19 839,-175.5 864.25,-186.55 890.6,-204.05 908.21,-216.75"/>
<polygon fill="#63b8ff" stroke="#63b8ff" points="906.44,-219.79 916.58,-222.89 910.59,-214.15 906.44,-219.79"/>
</g>
<!-- Node20&#45;&gt;Node3 -->
<g id="edge23" class="edge">
<title>Node20&#45;&gt;Node3</title>
<path fill="none" stroke="#63b8ff" d="M248.98,-195.28C237.22,-193.78 225.13,-191.93 214.27,-189.95"/>
<polygon fill="#63b8ff" stroke="#63b8ff" points="214.76,-186.48 204.28,-188.02 213.44,-193.35 214.76,-186.48"/>
</g>
<!-- Node21&#45;&gt;Node3 -->
<g id="edge25" class="edge">
<title>Node21&#45;&gt;Node3</title>
<path fill="none" stroke="#63b8ff" d="M279.03,-169.06C262.95,-172.53 242.09,-175.89 223.39,-178.14"/>
<polygon fill="#63b8ff" stroke="#63b8ff" points="222.82,-174.68 213.26,-179.26 223.59,-181.64 222.82,-174.68"/>
</g>
<!-- Node22&#45;&gt;Node1 -->
<g id="edge28" class="edge">
<title>Node22&#45;&gt;Node1</title>
<path fill="none" stroke="#63b8ff" d="M266.34,-346.5C225.09,-346.5 160.01,-346.5 112.37,-346.5"/>
<polygon fill="#63b8ff" stroke="#63b8ff" points="112.18,-343 102.18,-346.5 112.18,-350 112.18,-343"/>
</g>
<!-- Node22&#45;&gt;Node2 -->
<g id="edge27" class="edge">
<title>Node22&#45;&gt;Node2</title>
<path fill="none" stroke="#63b8ff" d="M347.79,-346.5C405.39,-346.5 511.43,-346.5 569.45,-346.5"/>
<polygon fill="#63b8ff" stroke="#63b8ff" points="569.71,-350 579.71,-346.5 569.71,-343 569.71,-350"/>
</g>
<!-- Node22&#45;&gt;Node12 -->
<g id="edge33" class="edge">
<title>Node22&#45;&gt;Node12</title>
<path fill="none" stroke="#63b8ff" d="M347.86,-354.75C405.45,-365.92 515.41,-384.5 610,-384.5 610,-384.5 610,-384.5 771.5,-384.5 883.93,-384.5 1005.86,-316.47 1055.52,-285.52"/>
<polygon fill="#63b8ff" stroke="#63b8ff" points="1057.62,-288.33 1064.2,-280.02 1053.87,-282.42 1057.62,-288.33"/>
</g>
<!-- Node23 -->
<g id="node23" class="node">
<title>Node23</title>
<g id="a_node23"><a xlink:href="execute__pipe_8c.html#a9ed6eabb8a9f7049f91265a5f45e30c8" target="_top" xlink:title=" ">
<polygon fill="white" stroke="#666666" points="515,-318 406,-318 406,-299 515,-299 515,-318"/>
<text text-anchor="middle" x="460.5" y="-306" font-family="Helvetica,sans-Serif" font-size="10.00">execute_pipe_right</text>
</a>
</g>
</g>
<!-- Node22&#45;&gt;Node23 -->
<g id="edge29" class="edge">
<title>Node22&#45;&gt;Node23</title>
<path fill="none" stroke="#63b8ff" d="M346.23,-336.91C366.13,-331.92 390.66,-325.77 411.79,-320.47"/>
<polygon fill="#63b8ff" stroke="#63b8ff" points="412.7,-323.85 421.55,-318.02 410.99,-317.06 412.7,-323.85"/>
</g>
<!-- Node23&#45;&gt;Node2 -->
<g id="edge30" class="edge">
<title>Node23&#45;&gt;Node2</title>
<path fill="none" stroke="#63b8ff" d="M498.97,-318.09C520.58,-323.62 547.75,-330.57 569.8,-336.21"/>
<polygon fill="#63b8ff" stroke="#63b8ff" points="568.98,-339.62 579.53,-338.7 570.71,-332.83 568.98,-339.62"/>
</g>
<!-- Node23&#45;&gt;Node3 -->
<g id="edge31" class="edge">
<title>Node23&#45;&gt;Node3</title>
<path fill="none" stroke="#63b8ff" d="M405.84,-315.62C360.78,-318.88 296.35,-316.97 249,-288.5 214.53,-267.77 193.2,-223.61 183.23,-197.99"/>
<polygon fill="#63b8ff" stroke="#63b8ff" points="186.39,-196.44 179.65,-188.27 179.82,-198.86 186.39,-196.44"/>
</g>
<!-- Node24 -->
<g id="node24" class="node">
<title>Node24</title>
<g id="a_node24"><a xlink:href="execute__pipe_8c.html#ac3d3a124b262676fa0679720f99a7f83" target="_top" xlink:title=" ">
<polygon fill="white" stroke="#666666" points="651,-318 571,-318 571,-299 651,-299 651,-318"/>
<text text-anchor="middle" x="611" y="-306" font-family="Helvetica,sans-Serif" font-size="10.00">restore_stdin</text>
</a>
</g>
</g>
<!-- Node23&#45;&gt;Node24 -->
<g id="edge32" class="edge">
<title>Node23&#45;&gt;Node24</title>
<path fill="none" stroke="#63b8ff" d="M515.11,-308.5C529.95,-308.5 545.99,-308.5 560.58,-308.5"/>
<polygon fill="#63b8ff" stroke="#63b8ff" points="560.91,-312 570.91,-308.5 560.91,-305 560.91,-312"/>
</g>
<!-- Node26 -->
<g id="node26" class="node">
<title>Node26</title>
<g id="a_node26"><a xlink:href="execute__redirect_8c.html#a5aa0f008806cc0e8a7ba252d61b7001f" target="_top" xlink:title=" ">
<polygon fill="white" stroke="#666666" points="514,-46 407,-46 407,-27 514,-27 514,-46"/>
<text text-anchor="middle" x="460.5" y="-34" font-family="Helvetica,sans-Serif" font-size="10.00">redirect_execution</text>
</a>
</g>
</g>
<!-- Node25&#45;&gt;Node26 -->
<g id="edge35" class="edge">
<title>Node25&#45;&gt;Node26</title>
<path fill="none" stroke="#63b8ff" d="M356.35,-18.12C369.19,-20.4 383.24,-22.91 396.72,-25.31"/>
<polygon fill="#63b8ff" stroke="#63b8ff" points="396.43,-28.82 406.89,-27.12 397.66,-21.92 396.43,-28.82"/>
</g>
<!-- Node26&#45;&gt;Node3 -->
<g id="edge36" class="edge">
<title>Node26&#45;&gt;Node3</title>
<path fill="none" stroke="#63b8ff" d="M447.94,-46.05C430.76,-59.85 397.06,-85.48 365,-101.5 316.35,-125.81 299.02,-119.14 249,-140.5 232.86,-147.39 215.42,-156.48 201.69,-164.04"/>
<polygon fill="#63b8ff" stroke="#63b8ff" points="199.86,-161.05 192.84,-168.98 203.28,-167.16 199.86,-161.05"/>
</g>
<!-- Node27 -->
<g id="node27" class="node">
<title>Node27</title>
<g id="a_node27"><a xlink:href="execute__redirect_8c.html#a1b8f325fc375581f81ae47a54e09cf0e" target="_top" xlink:title=" ">
<polygon fill="white" stroke="#666666" points="644,-28 578,-28 578,-9 644,-9 644,-28"/>
<text text-anchor="middle" x="611" y="-16" font-family="Helvetica,sans-Serif" font-size="10.00">restore_fd</text>
</a>
</g>
</g>
<!-- Node26&#45;&gt;Node27 -->
<g id="edge37" class="edge">
<title>Node26&#45;&gt;Node27</title>
<path fill="none" stroke="#63b8ff" d="M514.27,-30.1C531.81,-27.98 551.09,-25.64 567.73,-23.62"/>
<polygon fill="#63b8ff" stroke="#63b8ff" points="568.2,-27.09 577.71,-22.41 567.36,-20.14 568.2,-27.09"/>
</g>
<!-- Node28 -->
<g id="node28" class="node">
<title>Node28</title>
<g id="a_node28"><a xlink:href="execute__redirect_8c.html#a6cb002bd51f2009eaacc66d388c5f9a7" target="_top" xlink:title=" ">
<polygon fill="white" stroke="#666666" points="661.5,-65 560.5,-65 560.5,-46 661.5,-46 661.5,-65"/>
<text text-anchor="middle" x="611" y="-53" font-family="Helvetica,sans-Serif" font-size="10.00">setup_redirection</text>
</a>
</g>
</g>
<!-- Node26&#45;&gt;Node28 -->
<g id="edge38" class="edge">
<title>Node26&#45;&gt;Node28</title>
<path fill="none" stroke="#63b8ff" d="M514.27,-43.25C525.88,-44.74 538.25,-46.32 550.12,-47.84"/>
<polygon fill="#63b8ff" stroke="#63b8ff" points="550.01,-51.35 560.38,-49.15 550.9,-44.41 550.01,-51.35"/>
</g>
<!-- Node29 -->
<g id="node29" class="node">
<title>Node29</title>
<g id="a_node29"><a xlink:href="execute__redirect_8c.html#a0e31af51537a8c047a3aca7cdb63d5dd" target="_top" xlink:title=" ">
<polygon fill="white" stroke="#666666" points="819.5,-65 721.5,-65 721.5,-46 819.5,-46 819.5,-65"/>
<text text-anchor="middle" x="770.5" y="-53" font-family="Helvetica,sans-Serif" font-size="10.00">open_redirect_fd</text>
</a>
</g>
</g>
<!-- Node28&#45;&gt;Node29 -->
<g id="edge39" class="edge">
<title>Node28&#45;&gt;Node29</title>
<path fill="none" stroke="#63b8ff" d="M661.83,-55.5C677.43,-55.5 694.79,-55.5 710.93,-55.5"/>
<polygon fill="#63b8ff" stroke="#63b8ff" points="711.34,-59 721.34,-55.5 711.34,-52 711.34,-59"/>
</g>
<!-- Node30 -->
<g id="node30" class="node">
<title>Node30</title>
<g id="a_node30"><a xlink:href="execute__redirect_8c.html#a71feea783167b3804f2793a232ca74b4" target="_top" xlink:title=" ">
<polygon fill="white" stroke="#666666" points="965.5,-65 894.5,-65 894.5,-46 965.5,-46 965.5,-65"/>
<text text-anchor="middle" x="930" y="-53" font-family="Helvetica,sans-Serif" font-size="10.00">heredoc_fd</text>
</a>
</g>
</g>
<!-- Node29&#45;&gt;Node30 -->
<g id="edge40" class="edge">
<title>Node29&#45;&gt;Node30</title>
<path fill="none" stroke="#63b8ff" d="M819.61,-55.5C840.1,-55.5 863.87,-55.5 884.01,-55.5"/>
<polygon fill="#63b8ff" stroke="#63b8ff" points="884.17,-59 894.17,-55.5 884.17,-52 884.17,-59"/>
</g>
<!-- Node31 -->
<g id="node31" class="node">
<title>Node31</title>
<g id="a_node31"><a xlink:href="execute__redirect_8c.html#a639d0a6f315a3bae78d204ff798e314f" target="_top" xlink:title=" ">
<polygon fill="white" stroke="#666666" points="1133,-65 1026,-65 1026,-46 1133,-46 1133,-65"/>
<text text-anchor="middle" x="1079.5" y="-53" font-family="Helvetica,sans-Serif" font-size="10.00">get_heredoc_input</text>
</a>
</g>
</g>
<!-- Node30&#45;&gt;Node31 -->
<g id="edge41" class="edge">
<title>Node30&#45;&gt;Node31</title>
<path fill="none" stroke="#63b8ff" d="M965.58,-55.5C980.6,-55.5 998.67,-55.5 1015.91,-55.5"/>
<polygon fill="#63b8ff" stroke="#63b8ff" points="1015.94,-59 1025.94,-55.5 1015.94,-52 1015.94,-59"/>
</g>
<!-- Node32 -->
<g id="node32" class="node">
<title>Node32</title>
<g id="a_node32"><a xlink:href="execute__redirect_8c.html#a4e396606481bc13335d3dfae7ff15407" target="_top" xlink:title=" ">
<polygon fill="white" stroke="#666666" points="1286.5,-65 1184.5,-65 1184.5,-46 1286.5,-46 1286.5,-65"/>
<text text-anchor="middle" x="1235.5" y="-53" font-family="Helvetica,sans-Serif" font-size="10.00">is_heredoc_delim</text>
</a>
</g>
</g>
<!-- Node31&#45;&gt;Node32 -->
<g id="edge42" class="edge">
<title>Node31&#45;&gt;Node32</title>
<path fill="none" stroke="#63b8ff" d="M1133.07,-55.5C1146.26,-55.5 1160.52,-55.5 1174.06,-55.5"/>
<polygon fill="#63b8ff" stroke="#63b8ff" points="1174.25,-59 1184.25,-55.5 1174.25,-52 1174.25,-59"/>
</g>
<!-- Node33&#45;&gt;Node3 -->
<g id="edge44" class="edge">
<title>Node33&#45;&gt;Node3</title>
<path fill="none" stroke="#63b8ff" d="M295.32,-93.2C283.4,-99.47 263.84,-106.63 249,-116.5 229.62,-129.38 210.94,-147.87 197.4,-161.52"/>
<polygon fill="#63b8ff" stroke="#63b8ff" points="194.61,-159.35 190.05,-168.91 199.58,-164.28 194.61,-159.35"/>
</g>
<!-- Node34&#45;&gt;Node3 -->
<g id="edge46" class="edge">
<title>Node34&#45;&gt;Node3</title>
<path fill="none" stroke="#63b8ff" d="M289.37,-56.07C277.17,-59.9 260.77,-64.46 249,-73.5 218.89,-96.63 197.87,-136.09 186.49,-159.71"/>
<polygon fill="#63b8ff" stroke="#63b8ff" points="183.31,-158.23 182.2,-168.76 189.64,-161.22 183.31,-158.23"/>
</g>
<!-- Node35&#45;&gt;Node3 -->
<g id="edge48" class="edge">
<title>Node35&#45;&gt;Node3</title>
<path fill="none" stroke="#63b8ff" d="M256.23,-264.5C253.73,-263.27 251.3,-261.93 249,-260.5 222.38,-243.99 198.21,-215.84 185.62,-196.86"/>
<polygon fill="#63b8ff" stroke="#63b8ff" points="188.48,-194.82 180.28,-188.12 182.51,-198.47 188.48,-194.82"/>
</g>
<!-- Node35&#45;&gt;Node12 -->
<g id="edge49" class="edge">
<title>Node35&#45;&gt;Node12</title>
<path fill="none" stroke="#63b8ff" d="M357.7,-270.5C417.55,-270.5 521.13,-270.5 610,-270.5 610,-270.5 610,-270.5 771.5,-270.5 854.05,-270.5 949.08,-270.5 1011.28,-270.5"/>
<polygon fill="#63b8ff" stroke="#63b8ff" points="1011.35,-274 1021.35,-270.5 1011.35,-267 1011.35,-274"/>
</g>
</g>
</svg>
        <g id="navigator" transform="translate(0 0)" fill="#404254">
                <rect fill="#f2f5e9" fill-opacity="0.5" stroke="#606060" stroke-width=".5" x="0" y="0" width="60" height="60"/>
                <use id="zoomplus" xlink:href="#zoomPlus" x="17" y="9" onmousedown="handleZoom(evt,'in')"/>
                <use id="zoomminus" xlink:href="#zoomMin" x="42" y="9" onmousedown="handleZoom(evt,'out')"/>
                <use id="reset" xlink:href="#resetDef" x="30" y="36" onmousedown="handleReset()"/>
                <g id="arrowUp" xlink:href="#dirArrow" transform="translate(30 24)" onmousedown="handlePan(0,-1)">
                  <use xlink:href="#rim" fill="#404040">
                        <set attributeName="fill" to="#808080" begin="arrowUp.mouseover" end="arrowUp.mouseout"/>
                  </use>
                  <path fill="none" stroke="white" stroke-width="1.5" d="M0,-3.0v7 M-2.5,-0.5L0,-3.0L2.5,-0.5"/>
                </g>
                <g id="arrowRight" xlink:href="#dirArrow" transform="rotate(90) translate(36 -43)" onmousedown="handlePan(1,0)">
                  <use xlink:href="#rim" fill="#404040">
                        <set attributeName="fill" to="#808080" begin="arrowRight.mouseover" end="arrowRight.mouseout"/>
                  </use>
                  <path fill="none" stroke="white" stroke-width="1.5" d="M0,-3.0v7 M-2.5,-0.5L0,-3.0L2.5,-0.5"/>
                </g>
                <g id="arrowDown" xlink:href="#dirArrow" transform="rotate(180) translate(-30 -48)" onmousedown="handlePan(0,1)">
                  <use xlink:href="#rim" fill="#404040">
                        <set attributeName="fill" to="#808080" begin="arrowDown.mouseover" end="arrowDown.mouseout"/>
                  </use>
                  <path fill="none" stroke="white" stroke-width="1.5" d="M0,-3.0v7 M-2.5,-0.5L0,-3.0L2.5,-0.5"/>
                </g>
                <g id="arrowLeft" xlink:href="#dirArrow" transform="rotate(270) translate(-36 17)" onmousedown="handlePan(-1,0)">
                  <use xlink:href="#rim" fill="#404040">
                        <set attributeName="fill" to="#808080" begin="arrowLeft.mouseover" end="arrowLeft.mouseout"/>
                  </use>
                  <path fill="none" stroke="white" stroke-width="1.5" d="M0,-3.0v7 M-2.5,-0.5L0,-3.0L2.5,-0.5"/>
                </g>
        </g>
        <svg viewBox="0 0 15 15" width="100%" height="30px" preserveAspectRatio="xMaxYMin meet">
         <g id="arrow_out" transform="scale(0.3 0.3)">
          <a xlink:href="execute__pipe_8c_ac529ffc2370b0133613ef8a81e58ed85_cgraph_org.svg" target="_base">
           <rect id="button" ry="5" rx="5" y="6" x="6" height="38" width="38"
                fill="#f2f5e9" fill-opacity="0.5" stroke="#606060" stroke-width="1.0"/>
           <path id="arrow"
             d="M 11.500037,31.436501 C 11.940474,20.09759 22.043105,11.32322 32.158766,21.979434 L 37.068811,17.246167 C 37.068811,17.246167 37.088388,32 37.088388,32 L 22.160133,31.978069 C 22.160133,31.978069 26.997745,27.140456 26.997745,27.140456 C 18.528582,18.264221 13.291696,25.230495 11.500037,31.436501 z"
             style="fill:#404040;"/>
          </a>
         </g>
        </svg>
</svg>
