<?xml version="1.0" encoding="UTF-8" standalone="no"?>
<!DOCTYPE svg PUBLIC "-//W3C//DTD SVG 1.1//EN"
 "http://www.w3.org/Graphics/SVG/1.1/DTD/svg11.dtd">
<!-- Generated by graphviz version 2.43.0 (0)
 -->
<!-- Title: execute_sequence Pages: 1 -->
<svg width="1310pt" height="441pt"
 viewBox="0.00 0.00 1310.00 441.00" xmlns="http://www.w3.org/2000/svg" xmlns:xlink="http://www.w3.org/1999/xlink">
<g id="graph0" class="graph" transform="scale(1 1) rotate(0) translate(4 437)">
<title>execute_sequence</title>
<!-- Node1 -->
<g id="node1" class="node">
<title>Node1</title>
<g id="a_node1"><a xlink:title=" ">
<polygon fill="#999999" stroke="#666666" points="107,-236 0,-236 0,-217 107,-217 107,-236"/>
<text text-anchor="middle" x="53.5" y="-224" font-family="Helvetica,sans-Serif" font-size="10.00">execute_sequence</text>
</a>
</g>
</g>
<!-- Node2 -->
<g id="node2" class="node">
<title>Node2</title>
<g id="a_node2"><a xlink:href="execute__ast_8c.html#ad26a20a665ab7fdeb714ed53c1afd104" target="_top" xlink:title=" ">
<polygon fill="white" stroke="#666666" points="218,-236 143,-236 143,-217 218,-217 218,-236"/>
<text text-anchor="middle" x="180.5" y="-224" font-family="Helvetica,sans-Serif" font-size="10.00">execute_ast</text>
</a>
</g>
</g>
<!-- Node1&#45;&gt;Node2 -->
<g id="edge1" class="edge">
<title>Node1&#45;&gt;Node2</title>
<path fill="none" stroke="#63b8ff" d="M107.15,-219.83C115.59,-219.7 124.28,-219.73 132.58,-219.94"/>
<polygon fill="#63b8ff" stroke="#63b8ff" points="132.72,-223.45 142.84,-220.29 132.96,-216.45 132.72,-223.45"/>
</g>
<!-- Node2&#45;&gt;Node1 -->
<g id="edge47" class="edge">
<title>Node2&#45;&gt;Node1</title>
<path fill="none" stroke="#63b8ff" d="M142.84,-232.71C134.81,-233.06 126.09,-233.25 117.36,-233.25"/>
<polygon fill="#63b8ff" stroke="#63b8ff" points="117.17,-229.75 107.15,-233.17 117.12,-236.75 117.17,-229.75"/>
</g>
<!-- Node3 -->
<g id="node3" class="node">
<title>Node3</title>
<g id="a_node3"><a xlink:href="execute__cmd_8c.html#a94ea9cc5a046ce96e36764bf0e4fa2c0" target="_top" xlink:title=" ">
<polygon fill="white" stroke="#666666" points="352.5,-366 271.5,-366 271.5,-347 352.5,-347 352.5,-366"/>
<text text-anchor="middle" x="312" y="-354" font-family="Helvetica,sans-Serif" font-size="10.00">execute_cmd</text>
</a>
</g>
</g>
<!-- Node2&#45;&gt;Node3 -->
<g id="edge2" class="edge">
<title>Node2&#45;&gt;Node3</title>
<path fill="none" stroke="#63b8ff" d="M185.1,-236.2C193.63,-257.86 217.15,-310.42 254,-338.5 256.48,-340.39 259.16,-342.08 261.96,-343.6"/>
<polygon fill="#63b8ff" stroke="#63b8ff" points="260.68,-346.86 271.23,-347.87 263.61,-340.51 260.68,-346.86"/>
</g>
<!-- Node19 -->
<g id="node19" class="node">
<title>Node19</title>
<g id="a_node19"><a xlink:href="execute__logical__and_8c.html#a4f940752faf9f9a258c49810b21efe47" target="_top" xlink:title=" ">
<polygon fill="white" stroke="#666666" points="370,-329 254,-329 254,-310 370,-310 370,-329"/>
<text text-anchor="middle" x="312" y="-317" font-family="Helvetica,sans-Serif" font-size="10.00">execute_logical_and</text>
</a>
</g>
</g>
<!-- Node2&#45;&gt;Node19 -->
<g id="edge22" class="edge">
<title>Node2&#45;&gt;Node19</title>
<path fill="none" stroke="#63b8ff" d="M193.31,-236.18C206.37,-250.81 228.9,-276.97 254,-292.5 264.16,-298.79 276.72,-303.06 287.46,-306.68"/>
<polygon fill="#63b8ff" stroke="#63b8ff" points="286.47,-310.04 297.06,-309.99 288.75,-303.42 286.47,-310.04"/>
</g>
<!-- Node20 -->
<g id="node20" class="node">
<title>Node20</title>
<g id="a_node20"><a xlink:href="execute__logical__or_8c.html#a7e732d7c30b07010fa55850051007dcc" target="_top" xlink:title=" ">
<polygon fill="white" stroke="#666666" points="365.5,-292 258.5,-292 258.5,-273 365.5,-273 365.5,-292"/>
<text text-anchor="middle" x="312" y="-280" font-family="Helvetica,sans-Serif" font-size="10.00">execute_logical_or</text>
</a>
</g>
</g>
<!-- Node2&#45;&gt;Node20 -->
<g id="edge24" class="edge">
<title>Node2&#45;&gt;Node20</title>
<path fill="none" stroke="#63b8ff" d="M212.68,-236.03C225.27,-242.2 240.09,-249.71 254,-255.5 265.76,-260.39 279.35,-264.73 290.31,-268.92"/>
<polygon fill="#63b8ff" stroke="#63b8ff" points="289.29,-272.28 299.87,-272.89 291.98,-265.82 289.29,-272.28"/>
</g>
<!-- Node21 -->
<g id="node21" class="node">
<title>Node21</title>
<g id="a_node21"><a xlink:href="execute__pipe_8c.html#a5f3546dc2c7cf06c982afba41e722164" target="_top" xlink:title=" ">
<polygon fill="white" stroke="#666666" points="352.5,-142 271.5,-142 271.5,-123 352.5,-123 352.5,-142"/>
<text text-anchor="middle" x="312" y="-130" font-family="Helvetica,sans-Serif" font-size="10.00">execute_pipe</text>
</a>
</g>
</g>
<!-- Node2&#45;&gt;Node21 -->
<g id="edge26" class="edge">
<title>Node2&#45;&gt;Node21</title>
<path fill="none" stroke="#63b8ff" d="M188.15,-216.84C199.72,-200.78 225.06,-168.54 254,-150.5 256.6,-148.88 259.36,-147.39 262.21,-146.03"/>
<polygon fill="#63b8ff" stroke="#63b8ff" points="263.67,-149.21 271.52,-142.09 260.94,-142.76 263.67,-149.21"/>
</g>
<!-- Node26 -->
<g id="node26" class="node">
<title>Node26</title>
<g id="a_node26"><a xlink:href="execute__redirect_8c.html#a1004307aba80117ddd99f009e52fb155" target="_top" xlink:title=" ">
<polygon fill="white" stroke="#666666" points="361,-28 263,-28 263,-9 361,-9 361,-28"/>
<text text-anchor="middle" x="312" y="-16" font-family="Helvetica,sans-Serif" font-size="10.00">execute_redirect</text>
</a>
</g>
</g>
<!-- Node2&#45;&gt;Node26 -->
<g id="edge36" class="edge">
<title>Node2&#45;&gt;Node26</title>
<path fill="none" stroke="#63b8ff" d="M182.68,-216.68C186.79,-186.58 203.13,-94.56 254,-42.5 257.7,-38.71 262.1,-35.49 266.78,-32.76"/>
<polygon fill="#63b8ff" stroke="#63b8ff" points="268.68,-35.72 276.03,-28.09 265.52,-29.47 268.68,-35.72"/>
</g>
<!-- Node34 -->
<g id="node34" class="node">
<title>Node34</title>
<g id="a_node34"><a xlink:href="execute__repeat_8c.html#a00d48683c54b50130b4a402e6e97fa97" target="_top" xlink:title=" ">
<polygon fill="white" stroke="#666666" points="358,-179 266,-179 266,-160 358,-160 358,-179"/>
<text text-anchor="middle" x="312" y="-167" font-family="Helvetica,sans-Serif" font-size="10.00">execute_repeat</text>
</a>
</g>
</g>
<!-- Node2&#45;&gt;Node34 -->
<g id="edge45" class="edge">
<title>Node2&#45;&gt;Node34</title>
<path fill="none" stroke="#63b8ff" d="M189.95,-216.9C203.44,-207.29 230.69,-194.71 254,-184.5 255.16,-183.99 256.34,-183.48 257.52,-182.96"/>
<polygon fill="#63b8ff" stroke="#63b8ff" points="258.94,-186.17 266.76,-179.02 256.19,-179.73 258.94,-186.17"/>
</g>
<!-- Node35 -->
<g id="node35" class="node">
<title>Node35</title>
<g id="a_node35"><a xlink:href="execute__subshell_8c.html#a40a27866de012b013a337f794a858d70" target="_top" xlink:title=" ">
<polygon fill="white" stroke="#666666" points="362.5,-255 261.5,-255 261.5,-236 362.5,-236 362.5,-255"/>
<text text-anchor="middle" x="312" y="-243" font-family="Helvetica,sans-Serif" font-size="10.00">execute_subshell</text>
</a>
</g>
</g>
<!-- Node2&#45;&gt;Node35 -->
<g id="edge48" class="edge">
<title>Node2&#45;&gt;Node35</title>
<path fill="none" stroke="#63b8ff" d="M218.26,-225.74C235.77,-227.51 256.65,-230.58 274.16,-233.94"/>
<polygon fill="#63b8ff" stroke="#63b8ff" points="273.53,-237.38 284.03,-235.94 274.93,-230.52 273.53,-237.38"/>
</g>
<!-- Node4 -->
<g id="node4" class="node">
<title>Node4</title>
<g id="a_node4"><a xlink:href="execute__cmd_8c.html#a0cfd2364134e68efdd39533e00b4b0d9" target="_top" xlink:title=" ">
<polygon fill="white" stroke="#666666" points="525,-404 406,-404 406,-385 525,-385 525,-404"/>
<text text-anchor="middle" x="465.5" y="-392" font-family="Helvetica,sans-Serif" font-size="10.00">execute_local_binary</text>
</a>
</g>
</g>
<!-- Node3&#45;&gt;Node4 -->
<g id="edge3" class="edge">
<title>Node3&#45;&gt;Node4</title>
<path fill="none" stroke="#63b8ff" d="M351.23,-366.09C371.13,-371.08 395.66,-377.23 416.79,-382.53"/>
<polygon fill="#63b8ff" stroke="#63b8ff" points="415.99,-385.94 426.55,-384.98 417.7,-379.15 415.99,-385.94"/>
</g>
<!-- Node13 -->
<g id="node13" class="node">
<title>Node13</title>
<g id="a_node13"><a xlink:href="execute__cmd_8c.html#a460126af28ab29df4340554fae9fc57a" target="_top" xlink:title=" ">
<polygon fill="white" stroke="#666666" points="524.5,-366 406.5,-366 406.5,-347 524.5,-347 524.5,-366"/>
<text text-anchor="middle" x="465.5" y="-354" font-family="Helvetica,sans-Serif" font-size="10.00">execute_path_binary</text>
</a>
</g>
</g>
<!-- Node3&#45;&gt;Node13 -->
<g id="edge14" class="edge">
<title>Node3&#45;&gt;Node13</title>
<path fill="none" stroke="#63b8ff" d="M352.8,-356.5C366.13,-356.5 381.38,-356.5 396.24,-356.5"/>
<polygon fill="#63b8ff" stroke="#63b8ff" points="396.44,-360 406.44,-356.5 396.44,-353 396.44,-360"/>
</g>
<!-- Node18 -->
<g id="node18" class="node">
<title>Node18</title>
<g id="a_node18"><a xlink:href="strings_8h.html#a36f055c4e56c8a784629908d0c5b91e5" target="_top" xlink:title=" ">
<polygon fill="white" stroke="#666666" points="987,-311 883,-311 883,-292 987,-292 987,-311"/>
<text text-anchor="middle" x="935" y="-299" font-family="Helvetica,sans-Serif" font-size="10.00">my_is_char_in_str</text>
</a>
</g>
</g>
<!-- Node3&#45;&gt;Node18 -->
<g id="edge21" class="edge">
<title>Node3&#45;&gt;Node18</title>
<path fill="none" stroke="#63b8ff" d="M346.74,-346.98C394.13,-334.14 483.31,-311.92 561,-303.5 670.3,-291.66 798.67,-294.64 872.75,-298"/>
<polygon fill="#63b8ff" stroke="#63b8ff" points="872.68,-301.5 882.83,-298.47 873.01,-294.5 872.68,-301.5"/>
</g>
<!-- Node5 -->
<g id="node5" class="node">
<title>Node5</title>
<g id="a_node5"><a xlink:href="execute__cmd_8c.html#a018afe6a043051ebc2e3dd9412587990" target="_top" xlink:title=" ">
<polygon fill="white" stroke="#666666" points="821,-405 730,-405 730,-386 821,-386 821,-405"/>
<text text-anchor="middle" x="775.5" y="-393" font-family="Helvetica,sans-Serif" font-size="10.00">execute_binary</text>
</a>
</g>
</g>
<!-- Node4&#45;&gt;Node5 -->
<g id="edge4" class="edge">
<title>Node4&#45;&gt;Node5</title>
<path fill="none" stroke="#63b8ff" d="M525.16,-394.69C581.07,-394.87 664.63,-395.14 719.35,-395.32"/>
<polygon fill="#63b8ff" stroke="#63b8ff" points="719.54,-398.82 729.56,-395.35 719.57,-391.82 719.54,-398.82"/>
</g>
<!-- Node6 -->
<g id="node6" class="node">
<title>Node6</title>
<g id="a_node6"><a xlink:href="env__to__word__array_8c.html#aea7253d35c5aa57d9cfe9d7df218cb90" target="_top" xlink:title=" ">
<polygon fill="white" stroke="#666666" points="990,-433 880,-433 880,-414 990,-414 990,-433"/>
<text text-anchor="middle" x="935" y="-421" font-family="Helvetica,sans-Serif" font-size="10.00">env_to_word_array</text>
</a>
</g>
</g>
<!-- Node5&#45;&gt;Node6 -->
<g id="edge5" class="edge">
<title>Node5&#45;&gt;Node6</title>
<path fill="none" stroke="#63b8ff" d="M821.21,-403.45C836.5,-406.17 853.91,-409.26 870.4,-412.19"/>
<polygon fill="#63b8ff" stroke="#63b8ff" points="870.06,-415.69 880.52,-413.99 871.28,-408.8 870.06,-415.69"/>
</g>
<!-- Node9 -->
<g id="node9" class="node">
<title>Node9</title>
<g id="a_node9"><a xlink:href="execute__cmd_8c.html#a6badc27baa1930e30ea2ad3817f65366" target="_top" xlink:title=" ">
<polygon fill="white" stroke="#666666" points="975,-396 895,-396 895,-377 975,-377 975,-396"/>
<text text-anchor="middle" x="935" y="-384" font-family="Helvetica,sans-Serif" font-size="10.00">execute_fork</text>
</a>
</g>
</g>
<!-- Node5&#45;&gt;Node9 -->
<g id="edge8" class="edge">
<title>Node5&#45;&gt;Node9</title>
<path fill="none" stroke="#63b8ff" d="M821.21,-392.95C841.05,-391.81 864.46,-390.47 884.79,-389.31"/>
<polygon fill="#63b8ff" stroke="#63b8ff" points="885.02,-392.8 894.8,-388.74 884.62,-385.82 885.02,-392.8"/>
</g>
<!-- Node10 -->
<g id="node10" class="node">
<title>Node10</title>
<g id="a_node10"><a xlink:href="execute__cmd_8c.html#a2c49b9849cfef0deea03382c9f1b3ab8" target="_top" xlink:title=" ">
<polygon fill="white" stroke="#666666" points="1130.5,-358 1038.5,-358 1038.5,-339 1130.5,-339 1130.5,-358"/>
<text text-anchor="middle" x="1084.5" y="-346" font-family="Helvetica,sans-Serif" font-size="10.00">run_subprocess</text>
</a>
</g>
</g>
<!-- Node5&#45;&gt;Node10 -->
<g id="edge13" class="edge">
<title>Node5&#45;&gt;Node10</title>
<path fill="none" stroke="#63b8ff" d="M812.43,-385.98C840.93,-378.46 876.54,-369.12 880,-368.5 929.78,-359.62 987.16,-354.43 1028.27,-351.57"/>
<polygon fill="#63b8ff" stroke="#63b8ff" points="1028.62,-355.06 1038.36,-350.9 1028.15,-348.07 1028.62,-355.06"/>
</g>
<!-- Node7 -->
<g id="node7" class="node">
<title>Node7</title>
<g id="a_node7"><a xlink:href="misc_8h.html#a1180cae2875b1fdcd58c9f9175a82c12" target="_top" xlink:title=" ">
<polygon fill="white" stroke="#666666" points="1143,-396 1026,-396 1026,-377 1143,-377 1143,-396"/>
<text text-anchor="middle" x="1084.5" y="-384" font-family="Helvetica,sans-Serif" font-size="10.00">my_free_word_array</text>
</a>
</g>
</g>
<!-- Node6&#45;&gt;Node7 -->
<g id="edge6" class="edge">
<title>Node6&#45;&gt;Node7</title>
<path fill="none" stroke="#63b8ff" d="M973.98,-413.97C992.75,-409.26 1015.59,-403.53 1035.55,-398.53"/>
<polygon fill="#63b8ff" stroke="#63b8ff" points="1036.54,-401.89 1045.39,-396.06 1034.84,-395.1 1036.54,-401.89"/>
</g>
<!-- Node8 -->
<g id="node8" class="node">
<title>Node8</title>
<g id="a_node8"><a xlink:href="list_8h.html#ad5ebb7cdb26f73e4b212dfc5eae4ef0e" target="_top" xlink:title=" ">
<polygon fill="white" stroke="#666666" points="1129,-433 1040,-433 1040,-414 1129,-414 1129,-433"/>
<text text-anchor="middle" x="1084.5" y="-421" font-family="Helvetica,sans-Serif" font-size="10.00">my_list_length</text>
</a>
</g>
</g>
<!-- Node6&#45;&gt;Node8 -->
<g id="edge7" class="edge">
<title>Node6&#45;&gt;Node8</title>
<path fill="none" stroke="#63b8ff" d="M990.09,-423.5C1002.93,-423.5 1016.64,-423.5 1029.48,-423.5"/>
<polygon fill="#63b8ff" stroke="#63b8ff" points="1029.56,-427 1039.56,-423.5 1029.56,-420 1029.56,-427"/>
</g>
<!-- Node9&#45;&gt;Node7 -->
<g id="edge9" class="edge">
<title>Node9&#45;&gt;Node7</title>
<path fill="none" stroke="#63b8ff" d="M975.14,-386.5C987.64,-386.5 1001.85,-386.5 1015.78,-386.5"/>
<polygon fill="#63b8ff" stroke="#63b8ff" points="1015.84,-390 1025.84,-386.5 1015.84,-383 1015.84,-390"/>
</g>
<!-- Node9&#45;&gt;Node10 -->
<g id="edge10" class="edge">
<title>Node9&#45;&gt;Node10</title>
<path fill="none" stroke="#63b8ff" d="M973.22,-376.91C992.51,-371.94 1016.26,-365.82 1036.77,-360.54"/>
<polygon fill="#63b8ff" stroke="#63b8ff" points="1037.74,-363.9 1046.55,-358.02 1035.99,-357.13 1037.74,-363.9"/>
</g>
<!-- Node11 -->
<g id="node11" class="node">
<title>Node11</title>
<g id="a_node11"><a xlink:href="wait__for__subprocess_8c.html#a1242d78540fd0ddef3d98a9f294cb0d4" target="_top" xlink:title=" ">
<polygon fill="white" stroke="#666666" points="1142.5,-255 1026.5,-255 1026.5,-236 1142.5,-236 1142.5,-255"/>
<text text-anchor="middle" x="1084.5" y="-243" font-family="Helvetica,sans-Serif" font-size="10.00">wait_for_subprocess</text>
</a>
</g>
</g>
<!-- Node9&#45;&gt;Node11 -->
<g id="edge11" class="edge">
<title>Node9&#45;&gt;Node11</title>
<path fill="none" stroke="#63b8ff" d="M946.14,-376.81C970.87,-353.16 1034.57,-292.27 1065.76,-262.46"/>
<polygon fill="#63b8ff" stroke="#63b8ff" points="1068.48,-264.7 1073.29,-255.26 1063.64,-259.64 1068.48,-264.7"/>
</g>
<!-- Node12 -->
<g id="node12" class="node">
<title>Node12</title>
<g id="a_node12"><a xlink:href="wait__for__subprocess_8c.html#a885766ba6ba593b7cf27b917dd52b1a6" target="_top" xlink:title=" ">
<polygon fill="white" stroke="#666666" points="1302,-255 1179,-255 1179,-236 1302,-236 1302,-255"/>
<text text-anchor="middle" x="1240.5" y="-243" font-family="Helvetica,sans-Serif" font-size="10.00">print_signal_message</text>
</a>
</g>
</g>
<!-- Node11&#45;&gt;Node12 -->
<g id="edge12" class="edge">
<title>Node11&#45;&gt;Node12</title>
<path fill="none" stroke="#63b8ff" d="M1142.84,-245.5C1151.26,-245.5 1160.02,-245.5 1168.67,-245.5"/>
<polygon fill="#63b8ff" stroke="#63b8ff" points="1168.76,-249 1178.76,-245.5 1168.76,-242 1168.76,-249"/>
</g>
<!-- Node14 -->
<g id="node14" class="node">
<title>Node14</title>
<g id="a_node14"><a xlink:href="get__variable__value_8c.html#a2edd9900f19af236aa05385a789be3d6" target="_top" xlink:title=" ">
<polygon fill="white" stroke="#666666" points="671,-331 561,-331 561,-312 671,-312 671,-331"/>
<text text-anchor="middle" x="616" y="-319" font-family="Helvetica,sans-Serif" font-size="10.00">get_variable_value</text>
</a>
</g>
</g>
<!-- Node13&#45;&gt;Node14 -->
<g id="edge15" class="edge">
<title>Node13&#45;&gt;Node14</title>
<path fill="none" stroke="#63b8ff" d="M507.08,-346.94C524.84,-342.75 545.86,-337.8 564.61,-333.38"/>
<polygon fill="#63b8ff" stroke="#63b8ff" points="565.54,-336.75 574.47,-331.05 563.93,-329.94 565.54,-336.75"/>
</g>
<!-- Node16 -->
<g id="node16" class="node">
<title>Node16</title>
<g id="a_node16"><a xlink:href="execute__cmd_8c.html#aee9e13edede9df28fac066f30e7ae7ed" target="_top" xlink:title=" ">
<polygon fill="white" stroke="#666666" points="658,-368 574,-368 574,-349 658,-349 658,-368"/>
<text text-anchor="middle" x="616" y="-356" font-family="Helvetica,sans-Serif" font-size="10.00">try_command</text>
</a>
</g>
</g>
<!-- Node13&#45;&gt;Node16 -->
<g id="edge17" class="edge">
<title>Node13&#45;&gt;Node16</title>
<path fill="none" stroke="#63b8ff" d="M524.76,-357.28C537.59,-357.46 551.08,-357.64 563.61,-357.81"/>
<polygon fill="#63b8ff" stroke="#63b8ff" points="563.82,-361.31 573.87,-357.95 563.92,-354.31 563.82,-361.31"/>
</g>
<!-- Node15 -->
<g id="node15" class="node">
<title>Node15</title>
<g id="a_node15"><a xlink:href="get__variable_8c.html#a569170390f0edf013bf89c26ef55ea8c" target="_top" xlink:title=" ">
<polygon fill="white" stroke="#666666" points="814,-331 737,-331 737,-312 814,-312 814,-331"/>
<text text-anchor="middle" x="775.5" y="-319" font-family="Helvetica,sans-Serif" font-size="10.00">get_variable</text>
</a>
</g>
</g>
<!-- Node14&#45;&gt;Node15 -->
<g id="edge16" class="edge">
<title>Node14&#45;&gt;Node15</title>
<path fill="none" stroke="#63b8ff" d="M671.2,-321.5C689.04,-321.5 708.73,-321.5 726.11,-321.5"/>
<polygon fill="#63b8ff" stroke="#63b8ff" points="726.58,-325 736.58,-321.5 726.58,-318 726.58,-325"/>
</g>
<!-- Node16&#45;&gt;Node5 -->
<g id="edge18" class="edge">
<title>Node16&#45;&gt;Node5</title>
<path fill="none" stroke="#63b8ff" d="M657.56,-368.03C677.78,-372.78 702.44,-378.57 723.88,-383.61"/>
<polygon fill="#63b8ff" stroke="#63b8ff" points="723.27,-387.06 733.8,-385.94 724.87,-380.25 723.27,-387.06"/>
</g>
<!-- Node17 -->
<g id="node17" class="node">
<title>Node17</title>
<g id="a_node17"><a xlink:href="execute__cmd_8c.html#a9ef2f2dfa839f59ba42718ef236d4dcb" target="_top" xlink:title=" ">
<polygon fill="white" stroke="#666666" points="844,-368 707,-368 707,-349 844,-349 844,-368"/>
<text text-anchor="middle" x="775.5" y="-356" font-family="Helvetica,sans-Serif" font-size="10.00">print_permission_denied</text>
</a>
</g>
</g>
<!-- Node16&#45;&gt;Node17 -->
<g id="edge19" class="edge">
<title>Node16&#45;&gt;Node17</title>
<path fill="none" stroke="#63b8ff" d="M658.38,-358.5C670.22,-358.5 683.52,-358.5 696.79,-358.5"/>
<polygon fill="#63b8ff" stroke="#63b8ff" points="696.9,-362 706.9,-358.5 696.9,-355 696.9,-362"/>
</g>
<!-- Node17&#45;&gt;Node18 -->
<g id="edge20" class="edge">
<title>Node17&#45;&gt;Node18</title>
<path fill="none" stroke="#63b8ff" d="M816.42,-348.91C825.56,-346.42 835.18,-343.57 844,-340.5 864.9,-333.23 887.77,-323.29 905.22,-315.27"/>
<polygon fill="#63b8ff" stroke="#63b8ff" points="906.73,-318.43 914.32,-311.04 903.78,-312.08 906.73,-318.43"/>
</g>
<!-- Node19&#45;&gt;Node2 -->
<g id="edge23" class="edge">
<title>Node19&#45;&gt;Node2</title>
<path fill="none" stroke="#63b8ff" d="M254.27,-310.66C254.18,-310.61 254.09,-310.55 254,-310.5 226.74,-293.63 202.51,-264.23 190.16,-244.71"/>
<polygon fill="#63b8ff" stroke="#63b8ff" points="193.15,-242.9 185.09,-236.03 187.11,-246.43 193.15,-242.9"/>
</g>
<!-- Node20&#45;&gt;Node2 -->
<g id="edge25" class="edge">
<title>Node20&#45;&gt;Node2</title>
<path fill="none" stroke="#63b8ff" d="M258.39,-275.27C256.9,-274.69 255.44,-274.1 254,-273.5 233.55,-264.99 211.13,-252.76 196.71,-242.46"/>
<polygon fill="#63b8ff" stroke="#63b8ff" points="198.53,-239.44 188.5,-236.03 194.22,-244.95 198.53,-239.44"/>
</g>
<!-- Node21&#45;&gt;Node11 -->
<g id="edge35" class="edge">
<title>Node21&#45;&gt;Node11</title>
<path fill="none" stroke="#63b8ff" d="M352.57,-132.29C410.28,-131.99 520.89,-131.5 615,-131.5 615,-131.5 615,-131.5 776.5,-131.5 888.93,-131.5 1010.86,-199.53 1060.52,-230.48"/>
<polygon fill="#63b8ff" stroke="#63b8ff" points="1058.87,-233.58 1069.2,-235.98 1062.62,-227.67 1058.87,-233.58"/>
</g>
<!-- Node22 -->
<g id="node22" class="node">
<title>Node22</title>
<g id="a_node22"><a xlink:href="execute__pipe_8c.html#a723ff799f939872d17f109a82342294e" target="_top" xlink:title=" ">
<polygon fill="white" stroke="#666666" points="647,-179 585,-179 585,-160 647,-160 647,-179"/>
<text text-anchor="middle" x="616" y="-167" font-family="Helvetica,sans-Serif" font-size="10.00">close_fds</text>
</a>
</g>
</g>
<!-- Node21&#45;&gt;Node22 -->
<g id="edge27" class="edge">
<title>Node21&#45;&gt;Node22</title>
<path fill="none" stroke="#63b8ff" d="M352.8,-138.28C369.25,-140.62 388.53,-143.28 406,-145.5 464.62,-152.96 532.62,-160.58 574.73,-165.17"/>
<polygon fill="#63b8ff" stroke="#63b8ff" points="574.54,-168.67 584.86,-166.27 575.3,-161.71 574.54,-168.67"/>
</g>
<!-- Node23 -->
<g id="node23" class="node">
<title>Node23</title>
<g id="a_node23"><a xlink:href="execute__pipe_8c.html#ac529ffc2370b0133613ef8a81e58ed85" target="_top" xlink:title=" ">
<polygon fill="white" stroke="#666666" points="516.5,-217 414.5,-217 414.5,-198 516.5,-198 516.5,-217"/>
<text text-anchor="middle" x="465.5" y="-205" font-family="Helvetica,sans-Serif" font-size="10.00">execute_pipe_left</text>
</a>
</g>
</g>
<!-- Node21&#45;&gt;Node23 -->
<g id="edge28" class="edge">
<title>Node21&#45;&gt;Node23</title>
<path fill="none" stroke="#63b8ff" d="M351.39,-142.08C357.81,-144.39 364.25,-147.18 370,-150.5 388.79,-161.36 387.68,-171.87 406,-183.5 412.24,-187.46 419.25,-191 426.19,-194.07"/>
<polygon fill="#63b8ff" stroke="#63b8ff" points="424.96,-197.34 435.53,-197.95 427.64,-190.88 424.96,-197.34"/>
</g>
<!-- Node24 -->
<g id="node24" class="node">
<title>Node24</title>
<g id="a_node24"><a xlink:href="execute__pipe_8c.html#a9ed6eabb8a9f7049f91265a5f45e30c8" target="_top" xlink:title=" ">
<polygon fill="white" stroke="#666666" points="520,-103 411,-103 411,-84 520,-84 520,-103"/>
<text text-anchor="middle" x="465.5" y="-91" font-family="Helvetica,sans-Serif" font-size="10.00">execute_pipe_right</text>
</a>
</g>
</g>
<!-- Node21&#45;&gt;Node24 -->
<g id="edge31" class="edge">
<title>Node21&#45;&gt;Node24</title>
<path fill="none" stroke="#63b8ff" d="M350.06,-122.96C370.5,-117.7 396.07,-111.12 417.85,-105.51"/>
<polygon fill="#63b8ff" stroke="#63b8ff" points="418.75,-108.89 427.56,-103.01 417,-102.11 418.75,-108.89"/>
</g>
<!-- Node23&#45;&gt;Node2 -->
<g id="edge30" class="edge">
<title>Node23&#45;&gt;Node2</title>
<path fill="none" stroke="#63b8ff" d="M414.26,-210.87C361.64,-214.41 279.67,-219.91 228.36,-223.35"/>
<polygon fill="#63b8ff" stroke="#63b8ff" points="227.95,-219.87 218.21,-224.04 228.42,-226.86 227.95,-219.87"/>
</g>
<!-- Node23&#45;&gt;Node22 -->
<g id="edge29" class="edge">
<title>Node23&#45;&gt;Node22</title>
<path fill="none" stroke="#63b8ff" d="M503.97,-197.91C525.58,-192.38 552.75,-185.43 574.8,-179.79"/>
<polygon fill="#63b8ff" stroke="#63b8ff" points="575.71,-183.17 584.53,-177.3 573.98,-176.38 575.71,-183.17"/>
</g>
<!-- Node24&#45;&gt;Node2 -->
<g id="edge33" class="edge">
<title>Node24&#45;&gt;Node2</title>
<path fill="none" stroke="#63b8ff" d="M410.75,-86.24C365.63,-82.88 301.17,-84.74 254,-113.5 218.67,-135.04 197.47,-181.05 187.8,-207.23"/>
<polygon fill="#63b8ff" stroke="#63b8ff" points="184.45,-206.21 184.45,-216.81 191.06,-208.53 184.45,-206.21"/>
</g>
<!-- Node24&#45;&gt;Node22 -->
<g id="edge32" class="edge">
<title>Node24&#45;&gt;Node22</title>
<path fill="none" stroke="#63b8ff" d="M485.31,-103.13C511.08,-116.32 557.57,-140.11 587.32,-155.33"/>
<polygon fill="#63b8ff" stroke="#63b8ff" points="585.85,-158.51 596.35,-159.95 589.04,-152.28 585.85,-158.51"/>
</g>
<!-- Node25 -->
<g id="node25" class="node">
<title>Node25</title>
<g id="a_node25"><a xlink:href="execute__pipe_8c.html#ac3d3a124b262676fa0679720f99a7f83" target="_top" xlink:title=" ">
<polygon fill="white" stroke="#666666" points="656,-103 576,-103 576,-84 656,-84 656,-103"/>
<text text-anchor="middle" x="616" y="-91" font-family="Helvetica,sans-Serif" font-size="10.00">restore_stdin</text>
</a>
</g>
</g>
<!-- Node24&#45;&gt;Node25 -->
<g id="edge34" class="edge">
<title>Node24&#45;&gt;Node25</title>
<path fill="none" stroke="#63b8ff" d="M520.11,-93.5C534.95,-93.5 550.99,-93.5 565.58,-93.5"/>
<polygon fill="#63b8ff" stroke="#63b8ff" points="565.91,-97 575.91,-93.5 565.91,-90 565.91,-97"/>
</g>
<!-- Node27 -->
<g id="node27" class="node">
<title>Node27</title>
<g id="a_node27"><a xlink:href="execute__redirect_8c.html#a5aa0f008806cc0e8a7ba252d61b7001f" target="_top" xlink:title=" ">
<polygon fill="white" stroke="#666666" points="519,-38 412,-38 412,-19 519,-19 519,-38"/>
<text text-anchor="middle" x="465.5" y="-26" font-family="Helvetica,sans-Serif" font-size="10.00">redirect_execution</text>
</a>
</g>
</g>
<!-- Node26&#45;&gt;Node27 -->
<g id="edge37" class="edge">
<title>Node26&#45;&gt;Node27</title>
<path fill="none" stroke="#63b8ff" d="M361.35,-21.69C374.19,-22.54 388.24,-23.47 401.72,-24.36"/>
<polygon fill="#63b8ff" stroke="#63b8ff" points="401.68,-27.86 411.89,-25.03 402.14,-20.88 401.68,-27.86"/>
</g>
<!-- Node27&#45;&gt;Node2 -->
<g id="edge38" class="edge">
<title>Node27&#45;&gt;Node2</title>
<path fill="none" stroke="#63b8ff" d="M411.81,-36.62C357.7,-45.84 278.09,-62.14 254,-81.5 213.36,-114.16 193.57,-175.48 185.74,-206.88"/>
<polygon fill="#63b8ff" stroke="#63b8ff" points="182.24,-206.45 183.38,-216.99 189.06,-208.04 182.24,-206.45"/>
</g>
<!-- Node28 -->
<g id="node28" class="node">
<title>Node28</title>
<g id="a_node28"><a xlink:href="execute__redirect_8c.html#a1b8f325fc375581f81ae47a54e09cf0e" target="_top" xlink:title=" ">
<polygon fill="white" stroke="#666666" points="649,-56 583,-56 583,-37 649,-37 649,-56"/>
<text text-anchor="middle" x="616" y="-44" font-family="Helvetica,sans-Serif" font-size="10.00">restore_fd</text>
</a>
</g>
</g>
<!-- Node27&#45;&gt;Node28 -->
<g id="edge39" class="edge">
<title>Node27&#45;&gt;Node28</title>
<path fill="none" stroke="#63b8ff" d="M519.27,-34.9C536.81,-37.02 556.09,-39.36 572.73,-41.38"/>
<polygon fill="#63b8ff" stroke="#63b8ff" points="572.36,-44.86 582.71,-42.59 573.2,-37.91 572.36,-44.86"/>
</g>
<!-- Node29 -->
<g id="node29" class="node">
<title>Node29</title>
<g id="a_node29"><a xlink:href="execute__redirect_8c.html#a6cb002bd51f2009eaacc66d388c5f9a7" target="_top" xlink:title=" ">
<polygon fill="white" stroke="#666666" points="666.5,-19 565.5,-19 565.5,0 666.5,0 666.5,-19"/>
<text text-anchor="middle" x="616" y="-7" font-family="Helvetica,sans-Serif" font-size="10.00">setup_redirection</text>
</a>
</g>
</g>
<!-- Node27&#45;&gt;Node29 -->
<g id="edge40" class="edge">
<title>Node27&#45;&gt;Node29</title>
<path fill="none" stroke="#63b8ff" d="M519.27,-21.75C530.88,-20.26 543.25,-18.68 555.12,-17.16"/>
<polygon fill="#63b8ff" stroke="#63b8ff" points="555.9,-20.59 565.38,-15.85 555.01,-13.65 555.9,-20.59"/>
</g>
<!-- Node30 -->
<g id="node30" class="node">
<title>Node30</title>
<g id="a_node30"><a xlink:href="execute__redirect_8c.html#a0e31af51537a8c047a3aca7cdb63d5dd" target="_top" xlink:title=" ">
<polygon fill="white" stroke="#666666" points="824.5,-19 726.5,-19 726.5,0 824.5,0 824.5,-19"/>
<text text-anchor="middle" x="775.5" y="-7" font-family="Helvetica,sans-Serif" font-size="10.00">open_redirect_fd</text>
</a>
</g>
</g>
<!-- Node29&#45;&gt;Node30 -->
<g id="edge41" class="edge">
<title>Node29&#45;&gt;Node30</title>
<path fill="none" stroke="#63b8ff" d="M666.83,-9.5C682.43,-9.5 699.79,-9.5 715.93,-9.5"/>
<polygon fill="#63b8ff" stroke="#63b8ff" points="716.34,-13 726.34,-9.5 716.34,-6 716.34,-13"/>
</g>
<!-- Node31 -->
<g id="node31" class="node">
<title>Node31</title>
<g id="a_node31"><a xlink:href="execute__redirect_8c.html#a71feea783167b3804f2793a232ca74b4" target="_top" xlink:title=" ">
<polygon fill="white" stroke="#666666" points="970.5,-19 899.5,-19 899.5,0 970.5,0 970.5,-19"/>
<text text-anchor="middle" x="935" y="-7" font-family="Helvetica,sans-Serif" font-size="10.00">heredoc_fd</text>
</a>
</g>
</g>
<!-- Node30&#45;&gt;Node31 -->
<g id="edge42" class="edge">
<title>Node30&#45;&gt;Node31</title>
<path fill="none" stroke="#63b8ff" d="M824.61,-9.5C845.1,-9.5 868.87,-9.5 889.01,-9.5"/>
<polygon fill="#63b8ff" stroke="#63b8ff" points="889.17,-13 899.17,-9.5 889.17,-6 889.17,-13"/>
</g>
<!-- Node32 -->
<g id="node32" class="node">
<title>Node32</title>
<g id="a_node32"><a xlink:href="execute__redirect_8c.html#a639d0a6f315a3bae78d204ff798e314f" target="_top" xlink:title=" ">
<polygon fill="white" stroke="#666666" points="1138,-19 1031,-19 1031,0 1138,0 1138,-19"/>
<text text-anchor="middle" x="1084.5" y="-7" font-family="Helvetica,sans-Serif" font-size="10.00">get_heredoc_input</text>
</a>
</g>
</g>
<!-- Node31&#45;&gt;Node32 -->
<g id="edge43" class="edge">
<title>Node31&#45;&gt;Node32</title>
<path fill="none" stroke="#63b8ff" d="M970.58,-9.5C985.6,-9.5 1003.67,-9.5 1020.91,-9.5"/>
<polygon fill="#63b8ff" stroke="#63b8ff" points="1020.94,-13 1030.94,-9.5 1020.94,-6 1020.94,-13"/>
</g>
<!-- Node33 -->
<g id="node33" class="node">
<title>Node33</title>
<g id="a_node33"><a xlink:href="execute__redirect_8c.html#a4e396606481bc13335d3dfae7ff15407" target="_top" xlink:title=" ">
<polygon fill="white" stroke="#666666" points="1291.5,-19 1189.5,-19 1189.5,0 1291.5,0 1291.5,-19"/>
<text text-anchor="middle" x="1240.5" y="-7" font-family="Helvetica,sans-Serif" font-size="10.00">is_heredoc_delim</text>
</a>
</g>
</g>
<!-- Node32&#45;&gt;Node33 -->
<g id="edge44" class="edge">
<title>Node32&#45;&gt;Node33</title>
<path fill="none" stroke="#63b8ff" d="M1138.07,-9.5C1151.26,-9.5 1165.52,-9.5 1179.06,-9.5"/>
<polygon fill="#63b8ff" stroke="#63b8ff" points="1179.25,-13 1189.25,-9.5 1179.25,-6 1179.25,-13"/>
</g>
<!-- Node34&#45;&gt;Node2 -->
<g id="edge46" class="edge">
<title>Node34&#45;&gt;Node2</title>
<path fill="none" stroke="#63b8ff" d="M302.47,-179.18C291.3,-186.61 271.11,-195 254,-202.5 245.44,-206.25 236.35,-210.32 227.6,-214.11"/>
<polygon fill="#63b8ff" stroke="#63b8ff" points="226.11,-210.94 218.29,-218.09 228.86,-217.38 226.11,-210.94"/>
</g>
<!-- Node35&#45;&gt;Node2 -->
<g id="edge49" class="edge">
<title>Node35&#45;&gt;Node2</title>
<path fill="none" stroke="#63b8ff" d="M261.43,-244.81C247.05,-243.02 231.61,-240.61 218.17,-238.03"/>
<polygon fill="#63b8ff" stroke="#63b8ff" points="218.83,-234.59 208.33,-236.03 217.43,-241.45 218.83,-234.59"/>
</g>
<!-- Node35&#45;&gt;Node11 -->
<g id="edge50" class="edge">
<title>Node35&#45;&gt;Node11</title>
<path fill="none" stroke="#63b8ff" d="M362.7,-245.5C422.55,-245.5 526.13,-245.5 615,-245.5 615,-245.5 615,-245.5 776.5,-245.5 859.05,-245.5 954.08,-245.5 1016.28,-245.5"/>
<polygon fill="#63b8ff" stroke="#63b8ff" points="1016.35,-249 1026.35,-245.5 1016.35,-242 1016.35,-249"/>
</g>
</g>
</svg>
