<?xml version="1.0" encoding="UTF-8" standalone="no"?>
<!DOCTYPE svg PUBLIC "-//W3C//DTD SVG 1.1//EN"
 "http://www.w3.org/Graphics/SVG/1.1/DTD/svg11.dtd">
<!-- Generated by graphviz version 2.43.0 (0)
 -->
<!-- Title: redirect_execution Pages: 1 -->
<svg width="1336pt" height="504pt"
 viewBox="0.00 0.00 1336.00 504.00" xmlns="http://www.w3.org/2000/svg" xmlns:xlink="http://www.w3.org/1999/xlink">
<g id="graph0" class="graph" transform="scale(1 1) rotate(0) translate(4 500)">
<title>redirect_execution</title>
<!-- Node1 -->
<g id="node1" class="node">
<title>Node1</title>
<g id="a_node1"><a xlink:title=" ">
<polygon fill="#999999" stroke="#666666" points="107,-76 0,-76 0,-57 107,-57 107,-76"/>
<text text-anchor="middle" x="53.5" y="-64" font-family="Helvetica,sans-Serif" font-size="10.00">redirect_execution</text>
</a>
</g>
</g>
<!-- Node2 -->
<g id="node2" class="node">
<title>Node2</title>
<g id="a_node2"><a xlink:href="execute__ast_8c.html#ad26a20a665ab7fdeb714ed53c1afd104" target="_top" xlink:title=" ">
<polygon fill="white" stroke="#666666" points="231,-185 156,-185 156,-166 231,-166 231,-185"/>
<text text-anchor="middle" x="193.5" y="-173" font-family="Helvetica,sans-Serif" font-size="10.00">execute_ast</text>
</a>
</g>
</g>
<!-- Node1&#45;&gt;Node2 -->
<g id="edge1" class="edge">
<title>Node1&#45;&gt;Node2</title>
<path fill="none" stroke="#63b8ff" d="M66.75,-76.17C90.52,-94.95 143.14,-136.51 172.21,-159.48"/>
<polygon fill="#63b8ff" stroke="#63b8ff" points="170.07,-162.24 180.08,-165.69 174.4,-156.75 170.07,-162.24"/>
</g>
<!-- Node30 -->
<g id="node30" class="node">
<title>Node30</title>
<g id="a_node30"><a xlink:href="execute__redirect_8c.html#a1b8f325fc375581f81ae47a54e09cf0e" target="_top" xlink:title=" ">
<polygon fill="white" stroke="#666666" points="226.5,-95 160.5,-95 160.5,-76 226.5,-76 226.5,-95"/>
<text text-anchor="middle" x="193.5" y="-83" font-family="Helvetica,sans-Serif" font-size="10.00">restore_fd</text>
</a>
</g>
</g>
<!-- Node1&#45;&gt;Node30 -->
<g id="edge45" class="edge">
<title>Node1&#45;&gt;Node30</title>
<path fill="none" stroke="#63b8ff" d="M107.07,-73.74C121.39,-75.71 136.72,-77.82 150.38,-79.7"/>
<polygon fill="#63b8ff" stroke="#63b8ff" points="150.07,-83.19 160.46,-81.09 151.03,-76.26 150.07,-83.19"/>
</g>
<!-- Node31 -->
<g id="node31" class="node">
<title>Node31</title>
<g id="a_node31"><a xlink:href="execute__redirect_8c.html#a6cb002bd51f2009eaacc66d388c5f9a7" target="_top" xlink:title=" ">
<polygon fill="white" stroke="#666666" points="244,-19 143,-19 143,0 244,0 244,-19"/>
<text text-anchor="middle" x="193.5" y="-7" font-family="Helvetica,sans-Serif" font-size="10.00">setup_redirection</text>
</a>
</g>
</g>
<!-- Node1&#45;&gt;Node31 -->
<g id="edge46" class="edge">
<title>Node1&#45;&gt;Node31</title>
<path fill="none" stroke="#63b8ff" d="M77.6,-56.96C100.09,-47.67 134.48,-33.46 159.78,-23.01"/>
<polygon fill="#63b8ff" stroke="#63b8ff" points="161.42,-26.12 169.33,-19.07 158.75,-19.65 161.42,-26.12"/>
</g>
<!-- Node3 -->
<g id="node3" class="node">
<title>Node3</title>
<g id="a_node3"><a xlink:href="execute__cmd_8c.html#a94ea9cc5a046ce96e36764bf0e4fa2c0" target="_top" xlink:title=" ">
<polygon fill="white" stroke="#666666" points="378.5,-356 297.5,-356 297.5,-337 378.5,-337 378.5,-356"/>
<text text-anchor="middle" x="338" y="-344" font-family="Helvetica,sans-Serif" font-size="10.00">execute_cmd</text>
</a>
</g>
</g>
<!-- Node2&#45;&gt;Node3 -->
<g id="edge2" class="edge">
<title>Node2&#45;&gt;Node3</title>
<path fill="none" stroke="#63b8ff" d="M197.65,-185.16C206.53,-210.94 234.1,-282.14 280,-322.5 284.49,-326.45 289.73,-329.82 295.18,-332.67"/>
<polygon fill="#63b8ff" stroke="#63b8ff" points="293.9,-335.94 304.45,-337 296.86,-329.6 293.9,-335.94"/>
</g>
<!-- Node19 -->
<g id="node19" class="node">
<title>Node19</title>
<g id="a_node19"><a xlink:href="execute__logical__and_8c.html#a4f940752faf9f9a258c49810b21efe47" target="_top" xlink:title=" ">
<polygon fill="white" stroke="#666666" points="396,-204 280,-204 280,-185 396,-185 396,-204"/>
<text text-anchor="middle" x="338" y="-192" font-family="Helvetica,sans-Serif" font-size="10.00">execute_logical_and</text>
</a>
</g>
</g>
<!-- Node2&#45;&gt;Node19 -->
<g id="edge22" class="edge">
<title>Node2&#45;&gt;Node19</title>
<path fill="none" stroke="#63b8ff" d="M231.2,-174.4C251.51,-176.14 276.78,-179.47 297.52,-183.12"/>
<polygon fill="#63b8ff" stroke="#63b8ff" points="297.13,-186.61 307.6,-185 298.41,-179.73 297.13,-186.61"/>
</g>
<!-- Node20 -->
<g id="node20" class="node">
<title>Node20</title>
<g id="a_node20"><a xlink:href="execute__logical__or_8c.html#a7e732d7c30b07010fa55850051007dcc" target="_top" xlink:title=" ">
<polygon fill="white" stroke="#666666" points="391.5,-167 284.5,-167 284.5,-148 391.5,-148 391.5,-167"/>
<text text-anchor="middle" x="338" y="-155" font-family="Helvetica,sans-Serif" font-size="10.00">execute_logical_or</text>
</a>
</g>
</g>
<!-- Node2&#45;&gt;Node20 -->
<g id="edge24" class="edge">
<title>Node2&#45;&gt;Node20</title>
<path fill="none" stroke="#63b8ff" d="M225.07,-165.98C239.49,-163.28 257.26,-160.69 274.36,-158.71"/>
<polygon fill="#63b8ff" stroke="#63b8ff" points="274.76,-162.18 284.32,-157.61 274,-155.23 274.76,-162.18"/>
</g>
<!-- Node21 -->
<g id="node21" class="node">
<title>Node21</title>
<g id="a_node21"><a xlink:href="execute__pipe_8c.html#a5f3546dc2c7cf06c982afba41e722164" target="_top" xlink:title=" ">
<polygon fill="white" stroke="#666666" points="378.5,-280 297.5,-280 297.5,-261 378.5,-261 378.5,-280"/>
<text text-anchor="middle" x="338" y="-268" font-family="Helvetica,sans-Serif" font-size="10.00">execute_pipe</text>
</a>
</g>
</g>
<!-- Node2&#45;&gt;Node21 -->
<g id="edge26" class="edge">
<title>Node2&#45;&gt;Node21</title>
<path fill="none" stroke="#63b8ff" d="M204.03,-185.06C219.1,-199.77 249.82,-228.17 280,-246.5 286.37,-250.37 293.48,-253.91 300.46,-257.01"/>
<polygon fill="#63b8ff" stroke="#63b8ff" points="299.24,-260.29 309.81,-260.95 301.96,-253.84 299.24,-260.29"/>
</g>
<!-- Node26 -->
<g id="node26" class="node">
<title>Node26</title>
<g id="a_node26"><a xlink:href="execute__redirect_8c.html#a1004307aba80117ddd99f009e52fb155" target="_top" xlink:title=" ">
<polygon fill="white" stroke="#666666" points="387,-56 289,-56 289,-37 387,-37 387,-56"/>
<text text-anchor="middle" x="338" y="-44" font-family="Helvetica,sans-Serif" font-size="10.00">execute_redirect</text>
</a>
</g>
</g>
<!-- Node2&#45;&gt;Node26 -->
<g id="edge36" class="edge">
<title>Node2&#45;&gt;Node26</title>
<path fill="none" stroke="#63b8ff" d="M200.92,-165.85C217.11,-141.74 259.76,-79.82 280,-65.5 282.72,-63.57 285.66,-61.83 288.71,-60.25"/>
<polygon fill="#63b8ff" stroke="#63b8ff" points="290.42,-63.32 298.1,-56.02 287.55,-56.94 290.42,-63.32"/>
</g>
<!-- Node27 -->
<g id="node27" class="node">
<title>Node27</title>
<g id="a_node27"><a xlink:href="execute__repeat_8c.html#a00d48683c54b50130b4a402e6e97fa97" target="_top" xlink:title=" ">
<polygon fill="white" stroke="#666666" points="384,-93 292,-93 292,-74 384,-74 384,-93"/>
<text text-anchor="middle" x="338" y="-81" font-family="Helvetica,sans-Serif" font-size="10.00">execute_repeat</text>
</a>
</g>
</g>
<!-- Node2&#45;&gt;Node27 -->
<g id="edge38" class="edge">
<title>Node2&#45;&gt;Node27</title>
<path fill="none" stroke="#63b8ff" d="M199.18,-165.93C211.29,-148.15 245.16,-113.18 280,-93.5 280.81,-93.04 281.64,-92.59 282.48,-92.15"/>
<polygon fill="#63b8ff" stroke="#63b8ff" points="284.23,-95.19 291.8,-87.78 281.26,-88.85 284.23,-95.19"/>
</g>
<!-- Node28 -->
<g id="node28" class="node">
<title>Node28</title>
<g id="a_node28"><a xlink:href="execute__sequence_8c.html#aad2caa5bf50b0752dd8272da477ec231" target="_top" xlink:title=" ">
<polygon fill="white" stroke="#666666" points="391.5,-393 284.5,-393 284.5,-374 391.5,-374 391.5,-393"/>
<text text-anchor="middle" x="338" y="-381" font-family="Helvetica,sans-Serif" font-size="10.00">execute_sequence</text>
</a>
</g>
</g>
<!-- Node2&#45;&gt;Node28 -->
<g id="edge40" class="edge">
<title>Node2&#45;&gt;Node28</title>
<path fill="none" stroke="#63b8ff" d="M196.82,-185.32C203.31,-215.93 224.86,-307.46 280,-356.5 287.97,-363.59 298.72,-367.88 308.74,-371.07"/>
<polygon fill="#63b8ff" stroke="#63b8ff" points="307.8,-374.44 318.39,-373.95 309.81,-367.74 307.8,-374.44"/>
</g>
<!-- Node29 -->
<g id="node29" class="node">
<title>Node29</title>
<g id="a_node29"><a xlink:href="execute__subshell_8c.html#a40a27866de012b013a337f794a858d70" target="_top" xlink:title=" ">
<polygon fill="white" stroke="#666666" points="388.5,-130 287.5,-130 287.5,-111 388.5,-111 388.5,-130"/>
<text text-anchor="middle" x="338" y="-118" font-family="Helvetica,sans-Serif" font-size="10.00">execute_subshell</text>
</a>
</g>
</g>
<!-- Node2&#45;&gt;Node29 -->
<g id="edge42" class="edge">
<title>Node2&#45;&gt;Node29</title>
<path fill="none" stroke="#63b8ff" d="M203.89,-165.72C218.13,-156.22 246.27,-143.58 278,-131.36"/>
<polygon fill="#63b8ff" stroke="#63b8ff" points="279.38,-134.58 287.49,-127.76 276.89,-128.03 279.38,-134.58"/>
</g>
<!-- Node4 -->
<g id="node4" class="node">
<title>Node4</title>
<g id="a_node4"><a xlink:href="execute__cmd_8c.html#a0cfd2364134e68efdd39533e00b4b0d9" target="_top" xlink:title=" ">
<polygon fill="white" stroke="#666666" points="551,-450 432,-450 432,-431 551,-431 551,-450"/>
<text text-anchor="middle" x="491.5" y="-438" font-family="Helvetica,sans-Serif" font-size="10.00">execute_local_binary</text>
</a>
</g>
</g>
<!-- Node3&#45;&gt;Node4 -->
<g id="edge3" class="edge">
<title>Node3&#45;&gt;Node4</title>
<path fill="none" stroke="#63b8ff" d="M376.39,-356.03C383.19,-358.56 390.02,-361.69 396,-365.5 415.62,-378 414.03,-388.72 432,-403.5 441.91,-411.65 453.72,-419.43 464.13,-425.74"/>
<polygon fill="#63b8ff" stroke="#63b8ff" points="462.44,-428.81 472.84,-430.88 466,-422.78 462.44,-428.81"/>
</g>
<!-- Node13 -->
<g id="node13" class="node">
<title>Node13</title>
<g id="a_node13"><a xlink:href="execute__cmd_8c.html#a460126af28ab29df4340554fae9fc57a" target="_top" xlink:title=" ">
<polygon fill="white" stroke="#666666" points="550.5,-394 432.5,-394 432.5,-375 550.5,-375 550.5,-394"/>
<text text-anchor="middle" x="491.5" y="-382" font-family="Helvetica,sans-Serif" font-size="10.00">execute_path_binary</text>
</a>
</g>
</g>
<!-- Node3&#45;&gt;Node13 -->
<g id="edge14" class="edge">
<title>Node3&#45;&gt;Node13</title>
<path fill="none" stroke="#63b8ff" d="M377.23,-356.09C397.13,-361.08 421.66,-367.23 442.79,-372.53"/>
<polygon fill="#63b8ff" stroke="#63b8ff" points="441.99,-375.94 452.55,-374.98 443.7,-369.15 441.99,-375.94"/>
</g>
<!-- Node18 -->
<g id="node18" class="node">
<title>Node18</title>
<g id="a_node18"><a xlink:href="strings_8h.html#a36f055c4e56c8a784629908d0c5b91e5" target="_top" xlink:title=" ">
<polygon fill="white" stroke="#666666" points="1013,-365 909,-365 909,-346 1013,-346 1013,-365"/>
<text text-anchor="middle" x="961" y="-353" font-family="Helvetica,sans-Serif" font-size="10.00">my_is_char_in_str</text>
</a>
</g>
</g>
<!-- Node3&#45;&gt;Node18 -->
<g id="edge21" class="edge">
<title>Node3&#45;&gt;Node18</title>
<path fill="none" stroke="#63b8ff" d="M378.79,-347.08C484.24,-348.6 771.48,-352.77 898.35,-354.61"/>
<polygon fill="#63b8ff" stroke="#63b8ff" points="898.61,-358.11 908.66,-354.76 898.71,-351.11 898.61,-358.11"/>
</g>
<!-- Node5 -->
<g id="node5" class="node">
<title>Node5</title>
<g id="a_node5"><a xlink:href="execute__cmd_8c.html#a0f1b711370b175e42e583b75daacf41e" target="_top" xlink:title=" ">
<polygon fill="white" stroke="#666666" points="847,-468 756,-468 756,-449 847,-449 847,-468"/>
<text text-anchor="middle" x="801.5" y="-456" font-family="Helvetica,sans-Serif" font-size="10.00">execute_binary</text>
</a>
</g>
</g>
<!-- Node4&#45;&gt;Node5 -->
<g id="edge4" class="edge">
<title>Node4&#45;&gt;Node5</title>
<path fill="none" stroke="#63b8ff" d="M551.16,-443.93C607.07,-447.2 690.63,-452.08 745.35,-455.28"/>
<polygon fill="#63b8ff" stroke="#63b8ff" points="745.37,-458.78 755.56,-455.87 745.78,-451.8 745.37,-458.78"/>
</g>
<!-- Node6 -->
<g id="node6" class="node">
<title>Node6</title>
<g id="a_node6"><a xlink:href="env__to__word__array_8c.html#aea7253d35c5aa57d9cfe9d7df218cb90" target="_top" xlink:title=" ">
<polygon fill="white" stroke="#666666" points="1016,-496 906,-496 906,-477 1016,-477 1016,-496"/>
<text text-anchor="middle" x="961" y="-484" font-family="Helvetica,sans-Serif" font-size="10.00">env_to_word_array</text>
</a>
</g>
</g>
<!-- Node5&#45;&gt;Node6 -->
<g id="edge5" class="edge">
<title>Node5&#45;&gt;Node6</title>
<path fill="none" stroke="#63b8ff" d="M847.21,-466.45C862.5,-469.17 879.91,-472.26 896.4,-475.19"/>
<polygon fill="#63b8ff" stroke="#63b8ff" points="896.06,-478.69 906.52,-476.99 897.28,-471.8 896.06,-478.69"/>
</g>
<!-- Node9 -->
<g id="node9" class="node">
<title>Node9</title>
<g id="a_node9"><a xlink:href="execute__cmd_8c.html#a6badc27baa1930e30ea2ad3817f65366" target="_top" xlink:title=" ">
<polygon fill="white" stroke="#666666" points="1001,-420 921,-420 921,-401 1001,-401 1001,-420"/>
<text text-anchor="middle" x="961" y="-408" font-family="Helvetica,sans-Serif" font-size="10.00">execute_fork</text>
</a>
</g>
</g>
<!-- Node5&#45;&gt;Node9 -->
<g id="edge8" class="edge">
<title>Node5&#45;&gt;Node9</title>
<path fill="none" stroke="#63b8ff" d="M840.1,-448.91C849.87,-446.3 860.36,-443.39 870,-440.5 887.51,-435.25 906.75,-428.92 922.93,-423.42"/>
<polygon fill="#63b8ff" stroke="#63b8ff" points="924.24,-426.68 932.57,-420.13 921.97,-420.05 924.24,-426.68"/>
</g>
<!-- Node10 -->
<g id="node10" class="node">
<title>Node10</title>
<g id="a_node10"><a xlink:href="execute__cmd_8c.html#a2c49b9849cfef0deea03382c9f1b3ab8" target="_top" xlink:title=" ">
<polygon fill="white" stroke="#666666" points="1156.5,-420 1064.5,-420 1064.5,-401 1156.5,-401 1156.5,-420"/>
<text text-anchor="middle" x="1110.5" y="-408" font-family="Helvetica,sans-Serif" font-size="10.00">run_subprocess</text>
</a>
</g>
</g>
<!-- Node5&#45;&gt;Node10 -->
<g id="edge13" class="edge">
<title>Node5&#45;&gt;Node10</title>
<path fill="none" stroke="#63b8ff" d="M847.2,-453.29C890.49,-448.05 957.91,-439.34 1016,-429.5 1028.76,-427.34 1042.44,-424.73 1055.28,-422.14"/>
<polygon fill="#63b8ff" stroke="#63b8ff" points="1056.28,-425.51 1065.38,-420.08 1054.88,-418.65 1056.28,-425.51"/>
</g>
<!-- Node7 -->
<g id="node7" class="node">
<title>Node7</title>
<g id="a_node7"><a xlink:href="misc_8h.html#a1180cae2875b1fdcd58c9f9175a82c12" target="_top" xlink:title=" ">
<polygon fill="white" stroke="#666666" points="1169,-458 1052,-458 1052,-439 1169,-439 1169,-458"/>
<text text-anchor="middle" x="1110.5" y="-446" font-family="Helvetica,sans-Serif" font-size="10.00">my_free_word_array</text>
</a>
</g>
</g>
<!-- Node6&#45;&gt;Node7 -->
<g id="edge6" class="edge">
<title>Node6&#45;&gt;Node7</title>
<path fill="none" stroke="#63b8ff" d="M999.22,-476.91C1018.51,-471.94 1042.26,-465.82 1062.77,-460.54"/>
<polygon fill="#63b8ff" stroke="#63b8ff" points="1063.74,-463.9 1072.55,-458.02 1061.99,-457.13 1063.74,-463.9"/>
</g>
<!-- Node8 -->
<g id="node8" class="node">
<title>Node8</title>
<g id="a_node8"><a xlink:href="list_8h.html#ad5ebb7cdb26f73e4b212dfc5eae4ef0e" target="_top" xlink:title=" ">
<polygon fill="white" stroke="#666666" points="1155,-496 1066,-496 1066,-477 1155,-477 1155,-496"/>
<text text-anchor="middle" x="1110.5" y="-484" font-family="Helvetica,sans-Serif" font-size="10.00">my_list_length</text>
</a>
</g>
</g>
<!-- Node6&#45;&gt;Node8 -->
<g id="edge7" class="edge">
<title>Node6&#45;&gt;Node8</title>
<path fill="none" stroke="#63b8ff" d="M1016.09,-486.5C1028.93,-486.5 1042.64,-486.5 1055.48,-486.5"/>
<polygon fill="#63b8ff" stroke="#63b8ff" points="1055.56,-490 1065.56,-486.5 1055.56,-483 1055.56,-490"/>
</g>
<!-- Node9&#45;&gt;Node7 -->
<g id="edge9" class="edge">
<title>Node9&#45;&gt;Node7</title>
<path fill="none" stroke="#63b8ff" d="M999.22,-420.09C1018.51,-425.06 1042.26,-431.18 1062.77,-436.46"/>
<polygon fill="#63b8ff" stroke="#63b8ff" points="1061.99,-439.87 1072.55,-438.98 1063.74,-433.1 1061.99,-439.87"/>
</g>
<!-- Node9&#45;&gt;Node10 -->
<g id="edge10" class="edge">
<title>Node9&#45;&gt;Node10</title>
<path fill="none" stroke="#63b8ff" d="M1001.14,-410.5C1017.41,-410.5 1036.58,-410.5 1054.24,-410.5"/>
<polygon fill="#63b8ff" stroke="#63b8ff" points="1054.43,-414 1064.43,-410.5 1054.43,-407 1054.43,-414"/>
</g>
<!-- Node11 -->
<g id="node11" class="node">
<title>Node11</title>
<g id="a_node11"><a xlink:href="wait__for__subprocess_8c.html#a1242d78540fd0ddef3d98a9f294cb0d4" target="_top" xlink:title=" ">
<polygon fill="white" stroke="#666666" points="1168.5,-280 1052.5,-280 1052.5,-261 1168.5,-261 1168.5,-280"/>
<text text-anchor="middle" x="1110.5" y="-268" font-family="Helvetica,sans-Serif" font-size="10.00">wait_for_subprocess</text>
</a>
</g>
</g>
<!-- Node9&#45;&gt;Node11 -->
<g id="edge11" class="edge">
<title>Node9&#45;&gt;Node11</title>
<path fill="none" stroke="#63b8ff" d="M978.83,-400.79C989.9,-394.06 1004.41,-384.53 1016,-374.5 1047.47,-347.27 1078.71,-309.89 1095.92,-288.15"/>
<polygon fill="#63b8ff" stroke="#63b8ff" points="1098.8,-290.16 1102.2,-280.12 1093.28,-285.84 1098.8,-290.16"/>
</g>
<!-- Node12 -->
<g id="node12" class="node">
<title>Node12</title>
<g id="a_node12"><a xlink:href="wait__for__subprocess_8c.html#a885766ba6ba593b7cf27b917dd52b1a6" target="_top" xlink:title=" ">
<polygon fill="white" stroke="#666666" points="1328,-280 1205,-280 1205,-261 1328,-261 1328,-280"/>
<text text-anchor="middle" x="1266.5" y="-268" font-family="Helvetica,sans-Serif" font-size="10.00">print_signal_message</text>
</a>
</g>
</g>
<!-- Node11&#45;&gt;Node12 -->
<g id="edge12" class="edge">
<title>Node11&#45;&gt;Node12</title>
<path fill="none" stroke="#63b8ff" d="M1168.84,-270.5C1177.26,-270.5 1186.02,-270.5 1194.67,-270.5"/>
<polygon fill="#63b8ff" stroke="#63b8ff" points="1194.76,-274 1204.76,-270.5 1194.76,-267 1194.76,-274"/>
</g>
<!-- Node14 -->
<g id="node14" class="node">
<title>Node14</title>
<g id="a_node14"><a xlink:href="get__variable__value_8c.html#a2edd9900f19af236aa05385a789be3d6" target="_top" xlink:title=" ">
<polygon fill="white" stroke="#666666" points="697,-394 587,-394 587,-375 697,-375 697,-394"/>
<text text-anchor="middle" x="642" y="-382" font-family="Helvetica,sans-Serif" font-size="10.00">get_variable_value</text>
</a>
</g>
</g>
<!-- Node13&#45;&gt;Node14 -->
<g id="edge15" class="edge">
<title>Node13&#45;&gt;Node14</title>
<path fill="none" stroke="#63b8ff" d="M550.76,-384.5C559.29,-384.5 568.11,-384.5 576.75,-384.5"/>
<polygon fill="#63b8ff" stroke="#63b8ff" points="576.78,-388 586.78,-384.5 576.78,-381 576.78,-388"/>
</g>
<!-- Node16 -->
<g id="node16" class="node">
<title>Node16</title>
<g id="a_node16"><a xlink:href="execute__cmd_8c.html#aee9e13edede9df28fac066f30e7ae7ed" target="_top" xlink:title=" ">
<polygon fill="white" stroke="#666666" points="684,-431 600,-431 600,-412 684,-412 684,-431"/>
<text text-anchor="middle" x="642" y="-419" font-family="Helvetica,sans-Serif" font-size="10.00">try_command</text>
</a>
</g>
</g>
<!-- Node13&#45;&gt;Node16 -->
<g id="edge17" class="edge">
<title>Node13&#45;&gt;Node16</title>
<path fill="none" stroke="#63b8ff" d="M530.74,-394.03C549.64,-398.74 572.63,-404.47 592.73,-409.47"/>
<polygon fill="#63b8ff" stroke="#63b8ff" points="592.08,-412.92 602.63,-411.94 593.77,-406.13 592.08,-412.92"/>
</g>
<!-- Node15 -->
<g id="node15" class="node">
<title>Node15</title>
<g id="a_node15"><a xlink:href="get__variable_8c.html#a569170390f0edf013bf89c26ef55ea8c" target="_top" xlink:title=" ">
<polygon fill="white" stroke="#666666" points="840,-394 763,-394 763,-375 840,-375 840,-394"/>
<text text-anchor="middle" x="801.5" y="-382" font-family="Helvetica,sans-Serif" font-size="10.00">get_variable</text>
</a>
</g>
</g>
<!-- Node14&#45;&gt;Node15 -->
<g id="edge16" class="edge">
<title>Node14&#45;&gt;Node15</title>
<path fill="none" stroke="#63b8ff" d="M697.2,-384.5C715.04,-384.5 734.73,-384.5 752.11,-384.5"/>
<polygon fill="#63b8ff" stroke="#63b8ff" points="752.58,-388 762.58,-384.5 752.58,-381 752.58,-388"/>
</g>
<!-- Node16&#45;&gt;Node5 -->
<g id="edge18" class="edge">
<title>Node16&#45;&gt;Node5</title>
<path fill="none" stroke="#63b8ff" d="M683.56,-431.03C703.78,-435.78 728.44,-441.57 749.88,-446.61"/>
<polygon fill="#63b8ff" stroke="#63b8ff" points="749.27,-450.06 759.8,-448.94 750.87,-443.25 749.27,-450.06"/>
</g>
<!-- Node17 -->
<g id="node17" class="node">
<title>Node17</title>
<g id="a_node17"><a xlink:href="execute__cmd_8c.html#a7edf8a207e2b427102f54a379bd13546" target="_top" xlink:title=" ">
<polygon fill="white" stroke="#666666" points="870,-431 733,-431 733,-412 870,-412 870,-431"/>
<text text-anchor="middle" x="801.5" y="-419" font-family="Helvetica,sans-Serif" font-size="10.00">print_permission_denied</text>
</a>
</g>
</g>
<!-- Node16&#45;&gt;Node17 -->
<g id="edge19" class="edge">
<title>Node16&#45;&gt;Node17</title>
<path fill="none" stroke="#63b8ff" d="M684.38,-421.5C696.22,-421.5 709.52,-421.5 722.79,-421.5"/>
<polygon fill="#63b8ff" stroke="#63b8ff" points="722.9,-425 732.9,-421.5 722.9,-418 722.9,-425"/>
</g>
<!-- Node17&#45;&gt;Node18 -->
<g id="edge20" class="edge">
<title>Node17&#45;&gt;Node18</title>
<path fill="none" stroke="#63b8ff" d="M844.39,-411.93C852.98,-409.52 861.88,-406.7 870,-403.5 893.08,-394.41 917.84,-380.9 935.54,-370.52"/>
<polygon fill="#63b8ff" stroke="#63b8ff" points="937.79,-373.26 944.59,-365.13 934.21,-367.24 937.79,-373.26"/>
</g>
<!-- Node19&#45;&gt;Node2 -->
<g id="edge23" class="edge">
<title>Node19&#45;&gt;Node2</title>
<path fill="none" stroke="#63b8ff" d="M279.86,-193.51C264.46,-191.72 248.14,-189.37 233.95,-186.87"/>
<polygon fill="#63b8ff" stroke="#63b8ff" points="234.5,-183.41 224.03,-185.03 233.22,-190.3 234.5,-183.41"/>
</g>
<!-- Node20&#45;&gt;Node2 -->
<g id="edge25" class="edge">
<title>Node20&#45;&gt;Node2</title>
<path fill="none" stroke="#63b8ff" d="M306.21,-167.06C287.28,-170.59 262.66,-173.94 241.35,-175.97"/>
<polygon fill="#63b8ff" stroke="#63b8ff" points="240.86,-172.5 231.2,-176.85 241.46,-179.47 240.86,-172.5"/>
</g>
<!-- Node21&#45;&gt;Node11 -->
<g id="edge35" class="edge">
<title>Node21&#45;&gt;Node11</title>
<path fill="none" stroke="#63b8ff" d="M378.57,-270.5C436.28,-270.5 546.89,-270.5 641,-270.5 641,-270.5 641,-270.5 802.5,-270.5 885.05,-270.5 980.08,-270.5 1042.28,-270.5"/>
<polygon fill="#63b8ff" stroke="#63b8ff" points="1042.35,-274 1052.35,-270.5 1042.35,-267 1042.35,-274"/>
</g>
<!-- Node22 -->
<g id="node22" class="node">
<title>Node22</title>
<g id="a_node22"><a xlink:href="execute__pipe_8c.html#a723ff799f939872d17f109a82342294e" target="_top" xlink:title=" ">
<polygon fill="white" stroke="#666666" points="673,-242 611,-242 611,-223 673,-223 673,-242"/>
<text text-anchor="middle" x="642" y="-230" font-family="Helvetica,sans-Serif" font-size="10.00">close_fds</text>
</a>
</g>
</g>
<!-- Node21&#45;&gt;Node22 -->
<g id="edge27" class="edge">
<title>Node21&#45;&gt;Node22</title>
<path fill="none" stroke="#63b8ff" d="M378.78,-264.2C395.24,-261.67 414.52,-258.82 432,-256.5 490.58,-248.73 558.59,-241.2 600.72,-236.7"/>
<polygon fill="#63b8ff" stroke="#63b8ff" points="601.27,-240.16 610.85,-235.63 600.53,-233.2 601.27,-240.16"/>
</g>
<!-- Node23 -->
<g id="node23" class="node">
<title>Node23</title>
<g id="a_node23"><a xlink:href="execute__pipe_8c.html#ac529ffc2370b0133613ef8a81e58ed85" target="_top" xlink:title=" ">
<polygon fill="white" stroke="#666666" points="542.5,-204 440.5,-204 440.5,-185 542.5,-185 542.5,-204"/>
<text text-anchor="middle" x="491.5" y="-192" font-family="Helvetica,sans-Serif" font-size="10.00">execute_pipe_left</text>
</a>
</g>
</g>
<!-- Node21&#45;&gt;Node23 -->
<g id="edge28" class="edge">
<title>Node21&#45;&gt;Node23</title>
<path fill="none" stroke="#63b8ff" d="M365.8,-260.9C375.58,-256.97 386.55,-252.03 396,-246.5 413.49,-236.26 414.46,-228.66 432,-218.5 438.66,-214.64 446.06,-211.09 453.3,-207.98"/>
<polygon fill="#63b8ff" stroke="#63b8ff" points="455.05,-211.04 462.98,-204.01 452.4,-204.57 455.05,-211.04"/>
</g>
<!-- Node24 -->
<g id="node24" class="node">
<title>Node24</title>
<g id="a_node24"><a xlink:href="execute__pipe_8c.html#a9ed6eabb8a9f7049f91265a5f45e30c8" target="_top" xlink:title=" ">
<polygon fill="white" stroke="#666666" points="546,-318 437,-318 437,-299 546,-299 546,-318"/>
<text text-anchor="middle" x="491.5" y="-306" font-family="Helvetica,sans-Serif" font-size="10.00">execute_pipe_right</text>
</a>
</g>
</g>
<!-- Node21&#45;&gt;Node24 -->
<g id="edge31" class="edge">
<title>Node21&#45;&gt;Node24</title>
<path fill="none" stroke="#63b8ff" d="M377.23,-280.09C397.13,-285.08 421.66,-291.23 442.79,-296.53"/>
<polygon fill="#63b8ff" stroke="#63b8ff" points="441.99,-299.94 452.55,-298.98 443.7,-293.15 441.99,-299.94"/>
</g>
<!-- Node23&#45;&gt;Node2 -->
<g id="edge30" class="edge">
<title>Node23&#45;&gt;Node2</title>
<path fill="none" stroke="#63b8ff" d="M455.11,-204.05C412.97,-213.97 340.66,-226.37 280,-213.5 258.61,-208.96 236.08,-198.69 219.52,-189.97"/>
<polygon fill="#63b8ff" stroke="#63b8ff" points="220.97,-186.78 210.52,-185.07 217.63,-192.93 220.97,-186.78"/>
</g>
<!-- Node23&#45;&gt;Node22 -->
<g id="edge29" class="edge">
<title>Node23&#45;&gt;Node22</title>
<path fill="none" stroke="#63b8ff" d="M529.97,-204.09C551.58,-209.62 578.75,-216.57 600.8,-222.21"/>
<polygon fill="#63b8ff" stroke="#63b8ff" points="599.98,-225.62 610.53,-224.7 601.71,-218.83 599.98,-225.62"/>
</g>
<!-- Node24&#45;&gt;Node2 -->
<g id="edge33" class="edge">
<title>Node24&#45;&gt;Node2</title>
<path fill="none" stroke="#63b8ff" d="M436.84,-315.21C392.08,-318.22 328.07,-316.3 280,-289.5 241.47,-268.01 215.13,-221.14 202.69,-194.68"/>
<polygon fill="#63b8ff" stroke="#63b8ff" points="205.78,-193.01 198.48,-185.33 199.4,-195.88 205.78,-193.01"/>
</g>
<!-- Node24&#45;&gt;Node22 -->
<g id="edge32" class="edge">
<title>Node24&#45;&gt;Node22</title>
<path fill="none" stroke="#63b8ff" d="M511.31,-298.87C537.08,-285.68 583.57,-261.89 613.32,-246.67"/>
<polygon fill="#63b8ff" stroke="#63b8ff" points="615.04,-249.72 622.35,-242.05 611.85,-243.49 615.04,-249.72"/>
</g>
<!-- Node25 -->
<g id="node25" class="node">
<title>Node25</title>
<g id="a_node25"><a xlink:href="execute__pipe_8c.html#ac3d3a124b262676fa0679720f99a7f83" target="_top" xlink:title=" ">
<polygon fill="white" stroke="#666666" points="682,-318 602,-318 602,-299 682,-299 682,-318"/>
<text text-anchor="middle" x="642" y="-306" font-family="Helvetica,sans-Serif" font-size="10.00">restore_stdin</text>
</a>
</g>
</g>
<!-- Node24&#45;&gt;Node25 -->
<g id="edge34" class="edge">
<title>Node24&#45;&gt;Node25</title>
<path fill="none" stroke="#63b8ff" d="M546.11,-308.5C560.95,-308.5 576.99,-308.5 591.58,-308.5"/>
<polygon fill="#63b8ff" stroke="#63b8ff" points="591.91,-312 601.91,-308.5 591.91,-305 591.91,-312"/>
</g>
<!-- Node26&#45;&gt;Node1 -->
<g id="edge37" class="edge">
<title>Node26&#45;&gt;Node1</title>
<path fill="none" stroke="#63b8ff" d="M288.7,-49.92C241.4,-53.27 169.12,-58.39 117.37,-62.05"/>
<polygon fill="#63b8ff" stroke="#63b8ff" points="117.03,-58.56 107.3,-62.76 117.53,-65.55 117.03,-58.56"/>
</g>
<!-- Node27&#45;&gt;Node2 -->
<g id="edge39" class="edge">
<title>Node27&#45;&gt;Node2</title>
<path fill="none" stroke="#63b8ff" d="M324.64,-93.04C312.7,-98.06 294.35,-103.39 280,-111.5 256.7,-124.66 233.83,-144.66 217.62,-159.02"/>
<polygon fill="#63b8ff" stroke="#63b8ff" points="214.96,-156.7 209.78,-165.95 219.59,-161.95 214.96,-156.7"/>
</g>
<!-- Node28&#45;&gt;Node2 -->
<g id="edge41" class="edge">
<title>Node28&#45;&gt;Node2</title>
<path fill="none" stroke="#63b8ff" d="M284.43,-377.97C282.88,-376.9 281.4,-375.74 280,-374.5 225.4,-325.94 203.73,-235.71 197.02,-195.39"/>
<polygon fill="#63b8ff" stroke="#63b8ff" points="200.47,-194.78 195.51,-185.41 193.55,-195.83 200.47,-194.78"/>
</g>
<!-- Node29&#45;&gt;Node2 -->
<g id="edge43" class="edge">
<title>Node29&#45;&gt;Node2</title>
<path fill="none" stroke="#63b8ff" d="M326.83,-130.18C315.36,-136.22 296.2,-142.4 280,-148.5 267.15,-153.34 253.37,-158.95 240.71,-163.95"/>
<polygon fill="#63b8ff" stroke="#63b8ff" points="239.33,-160.73 231.29,-167.62 241.87,-167.25 239.33,-160.73"/>
</g>
<!-- Node29&#45;&gt;Node11 -->
<g id="edge44" class="edge">
<title>Node29&#45;&gt;Node11</title>
<path fill="none" stroke="#63b8ff" d="M388.64,-125.28C448.44,-130.61 551.97,-138.5 641,-138.5 641,-138.5 641,-138.5 802.5,-138.5 918.87,-138.5 1041.34,-219.53 1088.92,-254.62"/>
<polygon fill="#63b8ff" stroke="#63b8ff" points="1087.07,-257.6 1097.17,-260.79 1091.26,-252 1087.07,-257.6"/>
</g>
<!-- Node32 -->
<g id="node32" class="node">
<title>Node32</title>
<g id="a_node32"><a xlink:href="execute__redirect_8c.html#a0e31af51537a8c047a3aca7cdb63d5dd" target="_top" xlink:title=" ">
<polygon fill="white" stroke="#666666" points="387,-19 289,-19 289,0 387,0 387,-19"/>
<text text-anchor="middle" x="338" y="-7" font-family="Helvetica,sans-Serif" font-size="10.00">open_redirect_fd</text>
</a>
</g>
</g>
<!-- Node31&#45;&gt;Node32 -->
<g id="edge47" class="edge">
<title>Node31&#45;&gt;Node32</title>
<path fill="none" stroke="#63b8ff" d="M244.34,-9.5C255.4,-9.5 267.22,-9.5 278.59,-9.5"/>
<polygon fill="#63b8ff" stroke="#63b8ff" points="278.87,-13 288.87,-9.5 278.87,-6 278.87,-13"/>
</g>
<!-- Node33 -->
<g id="node33" class="node">
<title>Node33</title>
<g id="a_node33"><a xlink:href="execute__redirect_8c.html#a71feea783167b3804f2793a232ca74b4" target="_top" xlink:title=" ">
<polygon fill="white" stroke="#666666" points="527,-19 456,-19 456,0 527,0 527,-19"/>
<text text-anchor="middle" x="491.5" y="-7" font-family="Helvetica,sans-Serif" font-size="10.00">heredoc_fd</text>
</a>
</g>
</g>
<!-- Node32&#45;&gt;Node33 -->
<g id="edge48" class="edge">
<title>Node32&#45;&gt;Node33</title>
<path fill="none" stroke="#63b8ff" d="M387.35,-9.5C405.97,-9.5 427.14,-9.5 445.44,-9.5"/>
<polygon fill="#63b8ff" stroke="#63b8ff" points="445.55,-13 455.55,-9.5 445.55,-6 445.55,-13"/>
</g>
<!-- Node34 -->
<g id="node34" class="node">
<title>Node34</title>
<g id="a_node34"><a xlink:href="execute__redirect_8c.html#a639d0a6f315a3bae78d204ff798e314f" target="_top" xlink:title=" ">
<polygon fill="white" stroke="#666666" points="695.5,-19 588.5,-19 588.5,0 695.5,0 695.5,-19"/>
<text text-anchor="middle" x="642" y="-7" font-family="Helvetica,sans-Serif" font-size="10.00">get_heredoc_input</text>
</a>
</g>
</g>
<!-- Node33&#45;&gt;Node34 -->
<g id="edge49" class="edge">
<title>Node33&#45;&gt;Node34</title>
<path fill="none" stroke="#63b8ff" d="M527.32,-9.5C542.51,-9.5 560.8,-9.5 578.23,-9.5"/>
<polygon fill="#63b8ff" stroke="#63b8ff" points="578.37,-13 588.37,-9.5 578.37,-6 578.37,-13"/>
</g>
<!-- Node35 -->
<g id="node35" class="node">
<title>Node35</title>
<g id="a_node35"><a xlink:href="execute__redirect_8c.html#a4e396606481bc13335d3dfae7ff15407" target="_top" xlink:title=" ">
<polygon fill="white" stroke="#666666" points="852.5,-19 750.5,-19 750.5,0 852.5,0 852.5,-19"/>
<text text-anchor="middle" x="801.5" y="-7" font-family="Helvetica,sans-Serif" font-size="10.00">is_heredoc_delim</text>
</a>
</g>
</g>
<!-- Node34&#45;&gt;Node35 -->
<g id="edge50" class="edge">
<title>Node34&#45;&gt;Node35</title>
<path fill="none" stroke="#63b8ff" d="M695.88,-9.5C710.05,-9.5 725.47,-9.5 740.02,-9.5"/>
<polygon fill="#63b8ff" stroke="#63b8ff" points="740.42,-13 750.42,-9.5 740.42,-6 740.42,-13"/>
</g>
</g>
</svg>
