<?xml version="1.0" encoding="UTF-8" standalone="no"?>
<!DOCTYPE svg PUBLIC "-//W3C//DTD SVG 1.1//EN"
 "http://www.w3.org/Graphics/SVG/1.1/DTD/svg11.dtd">
<!-- Generated by graphviz version 2.43.0 (0)
 -->
<!-- Title: execute_logical_and Pages: 1 -->
<svg width="1310pt" height="440pt"
 viewBox="0.00 0.00 1310.00 440.00" xmlns="http://www.w3.org/2000/svg" xmlns:xlink="http://www.w3.org/1999/xlink">
<g id="graph0" class="graph" transform="scale(1 1) rotate(0) translate(4 436)">
<title>execute_logical_and</title>
<!-- Node1 -->
<g id="node1" class="node">
<title>Node1</title>
<g id="a_node1"><a xlink:title=" ">
<polygon fill="#999999" stroke="#666666" points="116,-189 0,-189 0,-170 116,-170 116,-189"/>
<text text-anchor="middle" x="58" y="-177" font-family="Helvetica,sans-Serif" font-size="10.00">execute_logical_and</text>
</a>
</g>
</g>
<!-- Node2 -->
<g id="node2" class="node">
<title>Node2</title>
<g id="a_node2"><a xlink:href="execute__ast_8c.html#ad26a20a665ab7fdeb714ed53c1afd104" target="_top" xlink:title=" ">
<polygon fill="white" stroke="#666666" points="227,-189 152,-189 152,-170 227,-170 227,-189"/>
<text text-anchor="middle" x="189.5" y="-177" font-family="Helvetica,sans-Serif" font-size="10.00">execute_ast</text>
</a>
</g>
</g>
<!-- Node1&#45;&gt;Node2 -->
<g id="edge1" class="edge">
<title>Node1&#45;&gt;Node2</title>
<path fill="none" stroke="#63b8ff" d="M116.18,-172.79C124.66,-172.7 133.31,-172.76 141.55,-172.98"/>
<polygon fill="#63b8ff" stroke="#63b8ff" points="141.6,-176.49 151.72,-173.34 141.85,-169.49 141.6,-176.49"/>
</g>
<!-- Node2&#45;&gt;Node1 -->
<g id="edge21" class="edge">
<title>Node2&#45;&gt;Node1</title>
<path fill="none" stroke="#63b8ff" d="M151.72,-185.66C143.77,-186.02 135.12,-186.21 126.4,-186.24"/>
<polygon fill="#63b8ff" stroke="#63b8ff" points="126.19,-182.74 116.18,-186.21 126.17,-189.74 126.19,-182.74"/>
</g>
<!-- Node3 -->
<g id="node3" class="node">
<title>Node3</title>
<g id="a_node3"><a xlink:href="execute__cmd_8c.html#a94ea9cc5a046ce96e36764bf0e4fa2c0" target="_top" xlink:title=" ">
<polygon fill="white" stroke="#666666" points="357,-358 276,-358 276,-339 357,-339 357,-358"/>
<text text-anchor="middle" x="316.5" y="-346" font-family="Helvetica,sans-Serif" font-size="10.00">execute_cmd</text>
</a>
</g>
</g>
<!-- Node2&#45;&gt;Node3 -->
<g id="edge2" class="edge">
<title>Node2&#45;&gt;Node3</title>
<path fill="none" stroke="#63b8ff" d="M192.42,-189.2C198.19,-215.75 217.79,-290.31 263,-330.5 264.31,-331.67 265.7,-332.76 267.16,-333.78"/>
<polygon fill="#63b8ff" stroke="#63b8ff" points="265.61,-336.93 276.02,-338.9 269.11,-330.87 265.61,-336.93"/>
</g>
<!-- Node19 -->
<g id="node19" class="node">
<title>Node19</title>
<g id="a_node19"><a xlink:href="execute__logical__or_8c.html#a7e732d7c30b07010fa55850051007dcc" target="_top" xlink:title=" ">
<polygon fill="white" stroke="#666666" points="370,-321 263,-321 263,-302 370,-302 370,-321"/>
<text text-anchor="middle" x="316.5" y="-309" font-family="Helvetica,sans-Serif" font-size="10.00">execute_logical_or</text>
</a>
</g>
</g>
<!-- Node2&#45;&gt;Node19 -->
<g id="edge22" class="edge">
<title>Node2&#45;&gt;Node19</title>
<path fill="none" stroke="#63b8ff" d="M197.5,-189.24C208.5,-209.01 231.85,-252.04 263,-278.5 272.49,-286.56 285.14,-292.45 295.65,-297.41"/>
<polygon fill="#63b8ff" stroke="#63b8ff" points="294.36,-300.68 304.89,-301.92 297.43,-294.39 294.36,-300.68"/>
</g>
<!-- Node20 -->
<g id="node20" class="node">
<title>Node20</title>
<g id="a_node20"><a xlink:href="execute__pipe_8c.html#a5f3546dc2c7cf06c982afba41e722164" target="_top" xlink:title=" ">
<polygon fill="white" stroke="#666666" points="357,-245 276,-245 276,-226 357,-226 357,-245"/>
<text text-anchor="middle" x="316.5" y="-233" font-family="Helvetica,sans-Serif" font-size="10.00">execute_pipe</text>
</a>
</g>
</g>
<!-- Node2&#45;&gt;Node20 -->
<g id="edge24" class="edge">
<title>Node2&#45;&gt;Node20</title>
<path fill="none" stroke="#63b8ff" d="M207.14,-189.15C221.61,-197.32 243.29,-209.01 263,-217.5 267.09,-219.26 271.42,-220.98 275.76,-222.6"/>
<polygon fill="#63b8ff" stroke="#63b8ff" points="274.62,-225.91 285.22,-226 276.99,-219.32 274.62,-225.91"/>
</g>
<!-- Node25 -->
<g id="node25" class="node">
<title>Node25</title>
<g id="a_node25"><a xlink:href="execute__redirect_8c.html#a1004307aba80117ddd99f009e52fb155" target="_top" xlink:title=" ">
<polygon fill="white" stroke="#666666" points="365.5,-19 267.5,-19 267.5,0 365.5,0 365.5,-19"/>
<text text-anchor="middle" x="316.5" y="-7" font-family="Helvetica,sans-Serif" font-size="10.00">execute_redirect</text>
</a>
</g>
</g>
<!-- Node2&#45;&gt;Node25 -->
<g id="edge34" class="edge">
<title>Node2&#45;&gt;Node25</title>
<path fill="none" stroke="#63b8ff" d="M192.83,-169.98C199.49,-144.56 220.92,-74.25 263,-33.5 266.96,-29.67 271.64,-26.37 276.55,-23.56"/>
<polygon fill="#63b8ff" stroke="#63b8ff" points="278.19,-26.65 285.53,-19.02 275.03,-20.41 278.19,-26.65"/>
</g>
<!-- Node33 -->
<g id="node33" class="node">
<title>Node33</title>
<g id="a_node33"><a xlink:href="execute__repeat_8c.html#a00d48683c54b50130b4a402e6e97fa97" target="_top" xlink:title=" ">
<polygon fill="white" stroke="#666666" points="362.5,-208 270.5,-208 270.5,-189 362.5,-189 362.5,-208"/>
<text text-anchor="middle" x="316.5" y="-196" font-family="Helvetica,sans-Serif" font-size="10.00">execute_repeat</text>
</a>
</g>
</g>
<!-- Node2&#45;&gt;Node33 -->
<g id="edge43" class="edge">
<title>Node2&#45;&gt;Node33</title>
<path fill="none" stroke="#63b8ff" d="M227.33,-178.88C243.91,-180.67 263.4,-183.65 279.84,-186.92"/>
<polygon fill="#63b8ff" stroke="#63b8ff" points="279.12,-190.34 289.63,-188.98 280.56,-183.49 279.12,-190.34"/>
</g>
<!-- Node34 -->
<g id="node34" class="node">
<title>Node34</title>
<g id="a_node34"><a xlink:href="execute__sequence_8c.html#aad2caa5bf50b0752dd8272da477ec231" target="_top" xlink:title=" ">
<polygon fill="white" stroke="#666666" points="370,-171 263,-171 263,-152 370,-152 370,-171"/>
<text text-anchor="middle" x="316.5" y="-159" font-family="Helvetica,sans-Serif" font-size="10.00">execute_sequence</text>
</a>
</g>
</g>
<!-- Node2&#45;&gt;Node34 -->
<g id="edge45" class="edge">
<title>Node2&#45;&gt;Node34</title>
<path fill="none" stroke="#63b8ff" d="M217.32,-169.98C227.79,-167.75 240.27,-165.59 252.76,-163.78"/>
<polygon fill="#63b8ff" stroke="#63b8ff" points="253.31,-167.24 262.75,-162.42 252.37,-160.31 253.31,-167.24"/>
</g>
<!-- Node35 -->
<g id="node35" class="node">
<title>Node35</title>
<g id="a_node35"><a xlink:href="execute__subshell_8c.html#a40a27866de012b013a337f794a858d70" target="_top" xlink:title=" ">
<polygon fill="white" stroke="#666666" points="367,-95 266,-95 266,-76 367,-76 367,-95"/>
<text text-anchor="middle" x="316.5" y="-83" font-family="Helvetica,sans-Serif" font-size="10.00">execute_subshell</text>
</a>
</g>
</g>
<!-- Node2&#45;&gt;Node35 -->
<g id="edge47" class="edge">
<title>Node2&#45;&gt;Node35</title>
<path fill="none" stroke="#63b8ff" d="M194.76,-169.8C205.26,-152.8 233.65,-120.51 263,-100.5 263.09,-100.44 263.18,-100.38 263.26,-100.32"/>
<polygon fill="#63b8ff" stroke="#63b8ff" points="265.19,-103.25 271.88,-95.03 261.53,-97.28 265.19,-103.25"/>
</g>
<!-- Node4 -->
<g id="node4" class="node">
<title>Node4</title>
<g id="a_node4"><a xlink:href="execute__cmd_8c.html#a0cfd2364134e68efdd39533e00b4b0d9" target="_top" xlink:title=" ">
<polygon fill="white" stroke="#666666" points="525,-414 406,-414 406,-395 525,-395 525,-414"/>
<text text-anchor="middle" x="465.5" y="-402" font-family="Helvetica,sans-Serif" font-size="10.00">execute_local_binary</text>
</a>
</g>
</g>
<!-- Node3&#45;&gt;Node4 -->
<g id="edge3" class="edge">
<title>Node3&#45;&gt;Node4</title>
<path fill="none" stroke="#63b8ff" d="M342.77,-358.13C366.9,-367.32 403.44,-381.24 430.19,-391.43"/>
<polygon fill="#63b8ff" stroke="#63b8ff" points="428.97,-394.71 439.56,-395 431.46,-388.17 428.97,-394.71"/>
</g>
<!-- Node13 -->
<g id="node13" class="node">
<title>Node13</title>
<g id="a_node13"><a xlink:href="execute__cmd_8c.html#a460126af28ab29df4340554fae9fc57a" target="_top" xlink:title=" ">
<polygon fill="white" stroke="#666666" points="524.5,-358 406.5,-358 406.5,-339 524.5,-339 524.5,-358"/>
<text text-anchor="middle" x="465.5" y="-346" font-family="Helvetica,sans-Serif" font-size="10.00">execute_path_binary</text>
</a>
</g>
</g>
<!-- Node3&#45;&gt;Node13 -->
<g id="edge13" class="edge">
<title>Node3&#45;&gt;Node13</title>
<path fill="none" stroke="#63b8ff" d="M357.28,-348.5C369.34,-348.5 382.95,-348.5 396.32,-348.5"/>
<polygon fill="#63b8ff" stroke="#63b8ff" points="396.47,-352 406.47,-348.5 396.47,-345 396.47,-352"/>
</g>
<!-- Node18 -->
<g id="node18" class="node">
<title>Node18</title>
<g id="a_node18"><a xlink:href="strings_8h.html#a36f055c4e56c8a784629908d0c5b91e5" target="_top" xlink:title=" ">
<polygon fill="white" stroke="#666666" points="987,-339 883,-339 883,-320 987,-320 987,-339"/>
<text text-anchor="middle" x="935" y="-327" font-family="Helvetica,sans-Serif" font-size="10.00">my_is_char_in_str</text>
</a>
</g>
</g>
<!-- Node3&#45;&gt;Node18 -->
<g id="edge20" class="edge">
<title>Node3&#45;&gt;Node18</title>
<path fill="none" stroke="#63b8ff" d="M356.02,-338.93C371.45,-335.56 389.47,-332.18 406,-330.5 574.23,-313.4 774.18,-320.43 872.77,-325.69"/>
<polygon fill="#63b8ff" stroke="#63b8ff" points="872.68,-329.19 882.86,-326.24 873.06,-322.2 872.68,-329.19"/>
</g>
<!-- Node5 -->
<g id="node5" class="node">
<title>Node5</title>
<g id="a_node5"><a xlink:href="execute__cmd_8c.html#a018afe6a043051ebc2e3dd9412587990" target="_top" xlink:title=" ">
<polygon fill="white" stroke="#666666" points="821,-432 730,-432 730,-413 821,-413 821,-432"/>
<text text-anchor="middle" x="775.5" y="-420" font-family="Helvetica,sans-Serif" font-size="10.00">execute_binary</text>
</a>
</g>
</g>
<!-- Node4&#45;&gt;Node5 -->
<g id="edge4" class="edge">
<title>Node4&#45;&gt;Node5</title>
<path fill="none" stroke="#63b8ff" d="M525.16,-407.93C581.07,-411.2 664.63,-416.08 719.35,-419.28"/>
<polygon fill="#63b8ff" stroke="#63b8ff" points="719.37,-422.78 729.56,-419.87 719.78,-415.8 719.37,-422.78"/>
</g>
<!-- Node6 -->
<g id="node6" class="node">
<title>Node6</title>
<g id="a_node6"><a xlink:href="env__to__word__array_8c.html#aea7253d35c5aa57d9cfe9d7df218cb90" target="_top" xlink:title=" ">
<polygon fill="white" stroke="#666666" points="990,-432 880,-432 880,-413 990,-413 990,-432"/>
<text text-anchor="middle" x="935" y="-420" font-family="Helvetica,sans-Serif" font-size="10.00">env_to_word_array</text>
</a>
</g>
</g>
<!-- Node5&#45;&gt;Node6 -->
<g id="edge5" class="edge">
<title>Node5&#45;&gt;Node6</title>
<path fill="none" stroke="#63b8ff" d="M821.21,-422.5C836.35,-422.5 853.57,-422.5 869.91,-422.5"/>
<polygon fill="#63b8ff" stroke="#63b8ff" points="869.95,-426 879.95,-422.5 869.95,-419 869.95,-426"/>
</g>
<!-- Node9 -->
<g id="node9" class="node">
<title>Node9</title>
<g id="a_node9"><a xlink:href="execute__cmd_8c.html#a6badc27baa1930e30ea2ad3817f65366" target="_top" xlink:title=" ">
<polygon fill="white" stroke="#666666" points="975,-386 895,-386 895,-367 975,-367 975,-386"/>
<text text-anchor="middle" x="935" y="-374" font-family="Helvetica,sans-Serif" font-size="10.00">execute_fork</text>
</a>
</g>
</g>
<!-- Node5&#45;&gt;Node9 -->
<g id="edge8" class="edge">
<title>Node5&#45;&gt;Node9</title>
<path fill="none" stroke="#63b8ff" d="M813.36,-412.96C823.33,-410.31 834.1,-407.36 844,-404.5 860.64,-399.7 878.9,-394.08 894.6,-389.14"/>
<polygon fill="#63b8ff" stroke="#63b8ff" points="896.02,-392.36 904.5,-386.01 893.91,-385.69 896.02,-392.36"/>
</g>
<!-- Node7 -->
<g id="node7" class="node">
<title>Node7</title>
<g id="a_node7"><a xlink:href="misc_8h.html#a1180cae2875b1fdcd58c9f9175a82c12" target="_top" xlink:title=" ">
<polygon fill="white" stroke="#666666" points="1143,-395 1026,-395 1026,-376 1143,-376 1143,-395"/>
<text text-anchor="middle" x="1084.5" y="-383" font-family="Helvetica,sans-Serif" font-size="10.00">my_free_word_array</text>
</a>
</g>
</g>
<!-- Node6&#45;&gt;Node7 -->
<g id="edge6" class="edge">
<title>Node6&#45;&gt;Node7</title>
<path fill="none" stroke="#63b8ff" d="M973.98,-412.97C992.75,-408.26 1015.59,-402.53 1035.55,-397.53"/>
<polygon fill="#63b8ff" stroke="#63b8ff" points="1036.54,-400.89 1045.39,-395.06 1034.84,-394.1 1036.54,-400.89"/>
</g>
<!-- Node8 -->
<g id="node8" class="node">
<title>Node8</title>
<g id="a_node8"><a xlink:href="list_8h.html#ad5ebb7cdb26f73e4b212dfc5eae4ef0e" target="_top" xlink:title=" ">
<polygon fill="white" stroke="#666666" points="1129,-432 1040,-432 1040,-413 1129,-413 1129,-432"/>
<text text-anchor="middle" x="1084.5" y="-420" font-family="Helvetica,sans-Serif" font-size="10.00">my_list_length</text>
</a>
</g>
</g>
<!-- Node6&#45;&gt;Node8 -->
<g id="edge7" class="edge">
<title>Node6&#45;&gt;Node8</title>
<path fill="none" stroke="#63b8ff" d="M990.09,-422.5C1002.93,-422.5 1016.64,-422.5 1029.48,-422.5"/>
<polygon fill="#63b8ff" stroke="#63b8ff" points="1029.56,-426 1039.56,-422.5 1029.56,-419 1029.56,-426"/>
</g>
<!-- Node9&#45;&gt;Node7 -->
<g id="edge9" class="edge">
<title>Node9&#45;&gt;Node7</title>
<path fill="none" stroke="#63b8ff" d="M975.14,-378.89C987.64,-379.65 1001.85,-380.52 1015.78,-381.37"/>
<polygon fill="#63b8ff" stroke="#63b8ff" points="1015.65,-384.87 1025.84,-381.98 1016.07,-377.88 1015.65,-384.87"/>
</g>
<!-- Node10 -->
<g id="node10" class="node">
<title>Node10</title>
<g id="a_node10"><a xlink:href="execute__cmd_8c.html#a2c49b9849cfef0deea03382c9f1b3ab8" target="_top" xlink:title=" ">
<polygon fill="white" stroke="#666666" points="1130.5,-358 1038.5,-358 1038.5,-339 1130.5,-339 1130.5,-358"/>
<text text-anchor="middle" x="1084.5" y="-346" font-family="Helvetica,sans-Serif" font-size="10.00">run_subprocess</text>
</a>
</g>
</g>
<!-- Node9&#45;&gt;Node10 -->
<g id="edge10" class="edge">
<title>Node9&#45;&gt;Node10</title>
<path fill="none" stroke="#63b8ff" d="M975.14,-369.07C991.41,-365.98 1010.58,-362.34 1028.24,-358.99"/>
<polygon fill="#63b8ff" stroke="#63b8ff" points="1029.26,-362.36 1038.43,-357.06 1027.95,-355.48 1029.26,-362.36"/>
</g>
<!-- Node11 -->
<g id="node11" class="node">
<title>Node11</title>
<g id="a_node11"><a xlink:href="wait__for__subprocess_8c.html#a1242d78540fd0ddef3d98a9f294cb0d4" target="_top" xlink:title=" ">
<polygon fill="white" stroke="#666666" points="1142.5,-244 1026.5,-244 1026.5,-225 1142.5,-225 1142.5,-244"/>
<text text-anchor="middle" x="1084.5" y="-232" font-family="Helvetica,sans-Serif" font-size="10.00">wait_for_subprocess</text>
</a>
</g>
</g>
<!-- Node9&#45;&gt;Node11 -->
<g id="edge11" class="edge">
<title>Node9&#45;&gt;Node11</title>
<path fill="none" stroke="#63b8ff" d="M959.31,-366.96C969.33,-362.24 980.81,-355.95 990,-348.5 1024.94,-320.19 1055.95,-277.05 1071.98,-252.76"/>
<polygon fill="#63b8ff" stroke="#63b8ff" points="1075.05,-254.46 1077.54,-244.17 1069.17,-250.66 1075.05,-254.46"/>
</g>
<!-- Node12 -->
<g id="node12" class="node">
<title>Node12</title>
<g id="a_node12"><a xlink:href="wait__for__subprocess_8c.html#a885766ba6ba593b7cf27b917dd52b1a6" target="_top" xlink:title=" ">
<polygon fill="white" stroke="#666666" points="1302,-244 1179,-244 1179,-225 1302,-225 1302,-244"/>
<text text-anchor="middle" x="1240.5" y="-232" font-family="Helvetica,sans-Serif" font-size="10.00">print_signal_message</text>
</a>
</g>
</g>
<!-- Node11&#45;&gt;Node12 -->
<g id="edge12" class="edge">
<title>Node11&#45;&gt;Node12</title>
<path fill="none" stroke="#63b8ff" d="M1142.84,-234.5C1151.26,-234.5 1160.02,-234.5 1168.67,-234.5"/>
<polygon fill="#63b8ff" stroke="#63b8ff" points="1168.76,-238 1178.76,-234.5 1168.76,-231 1168.76,-238"/>
</g>
<!-- Node14 -->
<g id="node14" class="node">
<title>Node14</title>
<g id="a_node14"><a xlink:href="get__variable__value_8c.html#a2edd9900f19af236aa05385a789be3d6" target="_top" xlink:title=" ">
<polygon fill="white" stroke="#666666" points="671,-395 561,-395 561,-376 671,-376 671,-395"/>
<text text-anchor="middle" x="616" y="-383" font-family="Helvetica,sans-Serif" font-size="10.00">get_variable_value</text>
</a>
</g>
</g>
<!-- Node13&#45;&gt;Node14 -->
<g id="edge14" class="edge">
<title>Node13&#45;&gt;Node14</title>
<path fill="none" stroke="#63b8ff" d="M504.74,-358.03C523.64,-362.74 546.63,-368.47 566.73,-373.47"/>
<polygon fill="#63b8ff" stroke="#63b8ff" points="566.08,-376.92 576.63,-375.94 567.77,-370.13 566.08,-376.92"/>
</g>
<!-- Node16 -->
<g id="node16" class="node">
<title>Node16</title>
<g id="a_node16"><a xlink:href="execute__cmd_8c.html#aee9e13edede9df28fac066f30e7ae7ed" target="_top" xlink:title=" ">
<polygon fill="white" stroke="#666666" points="658,-358 574,-358 574,-339 658,-339 658,-358"/>
<text text-anchor="middle" x="616" y="-346" font-family="Helvetica,sans-Serif" font-size="10.00">try_command</text>
</a>
</g>
</g>
<!-- Node13&#45;&gt;Node16 -->
<g id="edge16" class="edge">
<title>Node13&#45;&gt;Node16</title>
<path fill="none" stroke="#63b8ff" d="M524.76,-348.5C537.59,-348.5 551.08,-348.5 563.61,-348.5"/>
<polygon fill="#63b8ff" stroke="#63b8ff" points="563.87,-352 573.87,-348.5 563.87,-345 563.87,-352"/>
</g>
<!-- Node15 -->
<g id="node15" class="node">
<title>Node15</title>
<g id="a_node15"><a xlink:href="get__variable_8c.html#a569170390f0edf013bf89c26ef55ea8c" target="_top" xlink:title=" ">
<polygon fill="white" stroke="#666666" points="814,-395 737,-395 737,-376 814,-376 814,-395"/>
<text text-anchor="middle" x="775.5" y="-383" font-family="Helvetica,sans-Serif" font-size="10.00">get_variable</text>
</a>
</g>
</g>
<!-- Node14&#45;&gt;Node15 -->
<g id="edge15" class="edge">
<title>Node14&#45;&gt;Node15</title>
<path fill="none" stroke="#63b8ff" d="M671.2,-385.5C689.04,-385.5 708.73,-385.5 726.11,-385.5"/>
<polygon fill="#63b8ff" stroke="#63b8ff" points="726.58,-389 736.58,-385.5 726.58,-382 726.58,-389"/>
</g>
<!-- Node16&#45;&gt;Node5 -->
<g id="edge17" class="edge">
<title>Node16&#45;&gt;Node5</title>
<path fill="none" stroke="#63b8ff" d="M651.81,-358.08C658.44,-360.64 665.14,-363.75 671,-367.5 690.33,-379.86 687.2,-392.9 707,-404.5 711.16,-406.94 715.66,-409.05 720.29,-410.89"/>
<polygon fill="#63b8ff" stroke="#63b8ff" points="719.32,-414.26 729.92,-414.27 721.64,-407.65 719.32,-414.26"/>
</g>
<!-- Node17 -->
<g id="node17" class="node">
<title>Node17</title>
<g id="a_node17"><a xlink:href="execute__cmd_8c.html#a9ef2f2dfa839f59ba42718ef236d4dcb" target="_top" xlink:title=" ">
<polygon fill="white" stroke="#666666" points="844,-358 707,-358 707,-339 844,-339 844,-358"/>
<text text-anchor="middle" x="775.5" y="-346" font-family="Helvetica,sans-Serif" font-size="10.00">print_permission_denied</text>
</a>
</g>
</g>
<!-- Node16&#45;&gt;Node17 -->
<g id="edge18" class="edge">
<title>Node16&#45;&gt;Node17</title>
<path fill="none" stroke="#63b8ff" d="M658.38,-348.5C670.22,-348.5 683.52,-348.5 696.79,-348.5"/>
<polygon fill="#63b8ff" stroke="#63b8ff" points="696.9,-352 706.9,-348.5 696.9,-345 696.9,-352"/>
</g>
<!-- Node17&#45;&gt;Node18 -->
<g id="edge19" class="edge">
<title>Node17&#45;&gt;Node18</title>
<path fill="none" stroke="#63b8ff" d="M844.21,-340.33C853.64,-339.19 863.28,-338.03 872.59,-336.91"/>
<polygon fill="#63b8ff" stroke="#63b8ff" points="873.02,-340.38 882.52,-335.71 872.18,-333.43 873.02,-340.38"/>
</g>
<!-- Node19&#45;&gt;Node2 -->
<g id="edge23" class="edge">
<title>Node19&#45;&gt;Node2</title>
<path fill="none" stroke="#63b8ff" d="M270.35,-301.95C267.77,-300.27 265.29,-298.45 263,-296.5 230.93,-269.26 207.14,-224.46 196.56,-198.62"/>
<polygon fill="#63b8ff" stroke="#63b8ff" points="199.77,-197.22 192.96,-189.12 193.23,-199.71 199.77,-197.22"/>
</g>
<!-- Node20&#45;&gt;Node11 -->
<g id="edge33" class="edge">
<title>Node20&#45;&gt;Node11</title>
<path fill="none" stroke="#63b8ff" d="M357.44,-235.28C414.54,-234.99 522.81,-234.5 615,-234.5 615,-234.5 615,-234.5 776.5,-234.5 859.05,-234.5 954.08,-234.5 1016.28,-234.5"/>
<polygon fill="#63b8ff" stroke="#63b8ff" points="1016.35,-238 1026.35,-234.5 1016.35,-231 1016.35,-238"/>
</g>
<!-- Node21 -->
<g id="node21" class="node">
<title>Node21</title>
<g id="a_node21"><a xlink:href="execute__pipe_8c.html#a723ff799f939872d17f109a82342294e" target="_top" xlink:title=" ">
<polygon fill="white" stroke="#666666" points="647,-206 585,-206 585,-187 647,-187 647,-206"/>
<text text-anchor="middle" x="616" y="-194" font-family="Helvetica,sans-Serif" font-size="10.00">close_fds</text>
</a>
</g>
</g>
<!-- Node20&#45;&gt;Node21 -->
<g id="edge25" class="edge">
<title>Node20&#45;&gt;Node21</title>
<path fill="none" stroke="#63b8ff" d="M357.08,-228.33C372.34,-225.68 389.95,-222.78 406,-220.5 464.5,-212.19 532.54,-204.8 574.69,-200.48"/>
<polygon fill="#63b8ff" stroke="#63b8ff" points="575.23,-203.95 584.82,-199.45 574.52,-196.98 575.23,-203.95"/>
</g>
<!-- Node22 -->
<g id="node22" class="node">
<title>Node22</title>
<g id="a_node22"><a xlink:href="execute__pipe_8c.html#ac529ffc2370b0133613ef8a81e58ed85" target="_top" xlink:title=" ">
<polygon fill="white" stroke="#666666" points="516.5,-282 414.5,-282 414.5,-263 516.5,-263 516.5,-282"/>
<text text-anchor="middle" x="465.5" y="-270" font-family="Helvetica,sans-Serif" font-size="10.00">execute_pipe_left</text>
</a>
</g>
</g>
<!-- Node20&#45;&gt;Node22 -->
<g id="edge26" class="edge">
<title>Node20&#45;&gt;Node22</title>
<path fill="none" stroke="#63b8ff" d="M355.36,-245.03C374.06,-249.74 396.82,-255.47 416.72,-260.47"/>
<polygon fill="#63b8ff" stroke="#63b8ff" points="415.97,-263.89 426.52,-262.94 417.67,-257.1 415.97,-263.89"/>
</g>
<!-- Node23 -->
<g id="node23" class="node">
<title>Node23</title>
<g id="a_node23"><a xlink:href="execute__pipe_8c.html#a9ed6eabb8a9f7049f91265a5f45e30c8" target="_top" xlink:title=" ">
<polygon fill="white" stroke="#666666" points="520,-168 411,-168 411,-149 520,-149 520,-168"/>
<text text-anchor="middle" x="465.5" y="-156" font-family="Helvetica,sans-Serif" font-size="10.00">execute_pipe_right</text>
</a>
</g>
</g>
<!-- Node20&#45;&gt;Node23 -->
<g id="edge29" class="edge">
<title>Node20&#45;&gt;Node23</title>
<path fill="none" stroke="#63b8ff" d="M352.38,-225.97C358.47,-223.64 364.58,-220.83 370,-217.5 389.01,-205.82 387.34,-194.74 406,-182.5 412.12,-178.49 419.02,-174.93 425.89,-171.88"/>
<polygon fill="#63b8ff" stroke="#63b8ff" points="427.26,-175.1 435.14,-168.02 424.56,-168.64 427.26,-175.1"/>
</g>
<!-- Node22&#45;&gt;Node2 -->
<g id="edge28" class="edge">
<title>Node22&#45;&gt;Node2</title>
<path fill="none" stroke="#63b8ff" d="M414.34,-277.46C371.95,-279.5 310.69,-277.29 263,-254.5 236.7,-241.93 214.81,-215.52 202.19,-197.64"/>
<polygon fill="#63b8ff" stroke="#63b8ff" points="204.96,-195.5 196.45,-189.19 199.17,-199.43 204.96,-195.5"/>
</g>
<!-- Node22&#45;&gt;Node21 -->
<g id="edge27" class="edge">
<title>Node22&#45;&gt;Node21</title>
<path fill="none" stroke="#63b8ff" d="M485.31,-262.87C511.08,-249.68 557.57,-225.89 587.32,-210.67"/>
<polygon fill="#63b8ff" stroke="#63b8ff" points="589.04,-213.72 596.35,-206.05 585.85,-207.49 589.04,-213.72"/>
</g>
<!-- Node23&#45;&gt;Node2 -->
<g id="edge31" class="edge">
<title>Node23&#45;&gt;Node2</title>
<path fill="none" stroke="#63b8ff" d="M428.67,-148.99C387.96,-139.72 319.81,-128.84 263,-142.5 245.25,-146.77 226.95,-156.15 213.18,-164.4"/>
<polygon fill="#63b8ff" stroke="#63b8ff" points="211.07,-161.59 204.43,-169.85 214.77,-167.53 211.07,-161.59"/>
</g>
<!-- Node23&#45;&gt;Node21 -->
<g id="edge30" class="edge">
<title>Node23&#45;&gt;Node21</title>
<path fill="none" stroke="#63b8ff" d="M503.97,-168.09C525.58,-173.62 552.75,-180.57 574.8,-186.21"/>
<polygon fill="#63b8ff" stroke="#63b8ff" points="573.98,-189.62 584.53,-188.7 575.71,-182.83 573.98,-189.62"/>
</g>
<!-- Node24 -->
<g id="node24" class="node">
<title>Node24</title>
<g id="a_node24"><a xlink:href="execute__pipe_8c.html#ac3d3a124b262676fa0679720f99a7f83" target="_top" xlink:title=" ">
<polygon fill="white" stroke="#666666" points="656,-168 576,-168 576,-149 656,-149 656,-168"/>
<text text-anchor="middle" x="616" y="-156" font-family="Helvetica,sans-Serif" font-size="10.00">restore_stdin</text>
</a>
</g>
</g>
<!-- Node23&#45;&gt;Node24 -->
<g id="edge32" class="edge">
<title>Node23&#45;&gt;Node24</title>
<path fill="none" stroke="#63b8ff" d="M520.11,-158.5C534.95,-158.5 550.99,-158.5 565.58,-158.5"/>
<polygon fill="#63b8ff" stroke="#63b8ff" points="565.91,-162 575.91,-158.5 565.91,-155 565.91,-162"/>
</g>
<!-- Node26 -->
<g id="node26" class="node">
<title>Node26</title>
<g id="a_node26"><a xlink:href="execute__redirect_8c.html#a5aa0f008806cc0e8a7ba252d61b7001f" target="_top" xlink:title=" ">
<polygon fill="white" stroke="#666666" points="519,-29 412,-29 412,-10 519,-10 519,-29"/>
<text text-anchor="middle" x="465.5" y="-17" font-family="Helvetica,sans-Serif" font-size="10.00">redirect_execution</text>
</a>
</g>
</g>
<!-- Node25&#45;&gt;Node26 -->
<g id="edge35" class="edge">
<title>Node25&#45;&gt;Node26</title>
<path fill="none" stroke="#63b8ff" d="M365.63,-12.77C377.21,-13.56 389.75,-14.41 401.88,-15.24"/>
<polygon fill="#63b8ff" stroke="#63b8ff" points="401.73,-18.74 411.95,-15.92 402.21,-11.75 401.73,-18.74"/>
</g>
<!-- Node26&#45;&gt;Node2 -->
<g id="edge36" class="edge">
<title>Node26&#45;&gt;Node2</title>
<path fill="none" stroke="#63b8ff" d="M411.61,-27.22C360.23,-35.53 286.62,-49.82 263,-66.5 229.51,-90.14 207.82,-134.63 197.52,-160.17"/>
<polygon fill="#63b8ff" stroke="#63b8ff" points="194.12,-159.25 193.8,-169.84 200.66,-161.76 194.12,-159.25"/>
</g>
<!-- Node27 -->
<g id="node27" class="node">
<title>Node27</title>
<g id="a_node27"><a xlink:href="execute__redirect_8c.html#a1b8f325fc375581f81ae47a54e09cf0e" target="_top" xlink:title=" ">
<polygon fill="white" stroke="#666666" points="649,-65 583,-65 583,-46 649,-46 649,-65"/>
<text text-anchor="middle" x="616" y="-53" font-family="Helvetica,sans-Serif" font-size="10.00">restore_fd</text>
</a>
</g>
</g>
<!-- Node26&#45;&gt;Node27 -->
<g id="edge37" class="edge">
<title>Node26&#45;&gt;Node27</title>
<path fill="none" stroke="#63b8ff" d="M505.91,-29.05C526.58,-34.07 551.92,-40.21 572.97,-45.31"/>
<polygon fill="#63b8ff" stroke="#63b8ff" points="572.38,-48.77 582.92,-47.72 574.03,-41.97 572.38,-48.77"/>
</g>
<!-- Node28 -->
<g id="node28" class="node">
<title>Node28</title>
<g id="a_node28"><a xlink:href="execute__redirect_8c.html#a6cb002bd51f2009eaacc66d388c5f9a7" target="_top" xlink:title=" ">
<polygon fill="white" stroke="#666666" points="666.5,-28 565.5,-28 565.5,-9 666.5,-9 666.5,-28"/>
<text text-anchor="middle" x="616" y="-16" font-family="Helvetica,sans-Serif" font-size="10.00">setup_redirection</text>
</a>
</g>
</g>
<!-- Node26&#45;&gt;Node28 -->
<g id="edge38" class="edge">
<title>Node26&#45;&gt;Node28</title>
<path fill="none" stroke="#63b8ff" d="M519.27,-19.14C530.88,-19.07 543.25,-18.98 555.12,-18.9"/>
<polygon fill="#63b8ff" stroke="#63b8ff" points="555.4,-22.4 565.38,-18.83 555.35,-15.4 555.4,-22.4"/>
</g>
<!-- Node29 -->
<g id="node29" class="node">
<title>Node29</title>
<g id="a_node29"><a xlink:href="execute__redirect_8c.html#a0e31af51537a8c047a3aca7cdb63d5dd" target="_top" xlink:title=" ">
<polygon fill="white" stroke="#666666" points="824.5,-28 726.5,-28 726.5,-9 824.5,-9 824.5,-28"/>
<text text-anchor="middle" x="775.5" y="-16" font-family="Helvetica,sans-Serif" font-size="10.00">open_redirect_fd</text>
</a>
</g>
</g>
<!-- Node28&#45;&gt;Node29 -->
<g id="edge39" class="edge">
<title>Node28&#45;&gt;Node29</title>
<path fill="none" stroke="#63b8ff" d="M666.83,-18.5C682.43,-18.5 699.79,-18.5 715.93,-18.5"/>
<polygon fill="#63b8ff" stroke="#63b8ff" points="716.34,-22 726.34,-18.5 716.34,-15 716.34,-22"/>
</g>
<!-- Node30 -->
<g id="node30" class="node">
<title>Node30</title>
<g id="a_node30"><a xlink:href="execute__redirect_8c.html#a71feea783167b3804f2793a232ca74b4" target="_top" xlink:title=" ">
<polygon fill="white" stroke="#666666" points="970.5,-28 899.5,-28 899.5,-9 970.5,-9 970.5,-28"/>
<text text-anchor="middle" x="935" y="-16" font-family="Helvetica,sans-Serif" font-size="10.00">heredoc_fd</text>
</a>
</g>
</g>
<!-- Node29&#45;&gt;Node30 -->
<g id="edge40" class="edge">
<title>Node29&#45;&gt;Node30</title>
<path fill="none" stroke="#63b8ff" d="M824.61,-18.5C845.1,-18.5 868.87,-18.5 889.01,-18.5"/>
<polygon fill="#63b8ff" stroke="#63b8ff" points="889.17,-22 899.17,-18.5 889.17,-15 889.17,-22"/>
</g>
<!-- Node31 -->
<g id="node31" class="node">
<title>Node31</title>
<g id="a_node31"><a xlink:href="execute__redirect_8c.html#a639d0a6f315a3bae78d204ff798e314f" target="_top" xlink:title=" ">
<polygon fill="white" stroke="#666666" points="1138,-28 1031,-28 1031,-9 1138,-9 1138,-28"/>
<text text-anchor="middle" x="1084.5" y="-16" font-family="Helvetica,sans-Serif" font-size="10.00">get_heredoc_input</text>
</a>
</g>
</g>
<!-- Node30&#45;&gt;Node31 -->
<g id="edge41" class="edge">
<title>Node30&#45;&gt;Node31</title>
<path fill="none" stroke="#63b8ff" d="M970.58,-18.5C985.6,-18.5 1003.67,-18.5 1020.91,-18.5"/>
<polygon fill="#63b8ff" stroke="#63b8ff" points="1020.94,-22 1030.94,-18.5 1020.94,-15 1020.94,-22"/>
</g>
<!-- Node32 -->
<g id="node32" class="node">
<title>Node32</title>
<g id="a_node32"><a xlink:href="execute__redirect_8c.html#a4e396606481bc13335d3dfae7ff15407" target="_top" xlink:title=" ">
<polygon fill="white" stroke="#666666" points="1291.5,-28 1189.5,-28 1189.5,-9 1291.5,-9 1291.5,-28"/>
<text text-anchor="middle" x="1240.5" y="-16" font-family="Helvetica,sans-Serif" font-size="10.00">is_heredoc_delim</text>
</a>
</g>
</g>
<!-- Node31&#45;&gt;Node32 -->
<g id="edge42" class="edge">
<title>Node31&#45;&gt;Node32</title>
<path fill="none" stroke="#63b8ff" d="M1138.07,-18.5C1151.26,-18.5 1165.52,-18.5 1179.06,-18.5"/>
<polygon fill="#63b8ff" stroke="#63b8ff" points="1179.25,-22 1189.25,-18.5 1179.25,-15 1179.25,-22"/>
</g>
<!-- Node33&#45;&gt;Node2 -->
<g id="edge44" class="edge">
<title>Node33&#45;&gt;Node2</title>
<path fill="none" stroke="#63b8ff" d="M270.42,-198.16C255.96,-196.37 240.14,-193.85 226.42,-191.14"/>
<polygon fill="#63b8ff" stroke="#63b8ff" points="226.91,-187.66 216.4,-189.03 225.47,-194.51 226.91,-187.66"/>
</g>
<!-- Node34&#45;&gt;Node2 -->
<g id="edge46" class="edge">
<title>Node34&#45;&gt;Node2</title>
<path fill="none" stroke="#63b8ff" d="M288.45,-171.07C273.65,-174.21 254.88,-177.21 237.74,-179.27"/>
<polygon fill="#63b8ff" stroke="#63b8ff" points="236.88,-175.84 227.33,-180.41 237.65,-182.8 236.88,-175.84"/>
</g>
<!-- Node35&#45;&gt;Node2 -->
<g id="edge48" class="edge">
<title>Node35&#45;&gt;Node2</title>
<path fill="none" stroke="#63b8ff" d="M306.09,-95.15C295.17,-101.64 276.91,-109.02 263,-118.5 244.15,-131.35 225.69,-149.27 212.12,-162.58"/>
<polygon fill="#63b8ff" stroke="#63b8ff" points="209.43,-160.31 204.72,-169.8 214.32,-165.32 209.43,-160.31"/>
</g>
<!-- Node35&#45;&gt;Node11 -->
<g id="edge49" class="edge">
<title>Node35&#45;&gt;Node11</title>
<path fill="none" stroke="#63b8ff" d="M367.13,-92.5C426.09,-100.2 527.51,-111.5 615,-111.5 615,-111.5 615,-111.5 776.5,-111.5 890.85,-111.5 1013.09,-185.95 1061.73,-219"/>
<polygon fill="#63b8ff" stroke="#63b8ff" points="1059.98,-222.05 1070.2,-224.85 1063.96,-216.29 1059.98,-222.05"/>
</g>
</g>
</svg>
