<?xml version="1.0" encoding="UTF-8" standalone="no"?>
<!DOCTYPE svg PUBLIC "-//W3C//DTD SVG 1.1//EN"
 "http://www.w3.org/Graphics/SVG/1.1/DTD/svg11.dtd">
<!-- Generated by graphviz version 2.43.0 (0)
 -->
<!-- Title: include/executer.h Pages: 1 -->
<svg width="1747pt" height="93pt"
 viewBox="0.00 0.00 1747.00 93.00" xmlns="http://www.w3.org/2000/svg" xmlns:xlink="http://www.w3.org/1999/xlink">
<g id="graph0" class="graph" transform="scale(1 1) rotate(0) translate(4 89)">
<title>include/executer.h</title>
<!-- Node1 -->
<g id="node1" class="node">
<title>Node1</title>
<g id="a_node1"><a xlink:title=" ">
<polygon fill="#999999" stroke="#666666" points="947,-85 842,-85 842,-66 947,-66 947,-85"/>
<text text-anchor="middle" x="894.5" y="-73" font-family="Helvetica,sans-Serif" font-size="10.00">include/executer.h</text>
</a>
</g>
</g>
<!-- Node2 -->
<g id="node2" class="node">
<title>Node2</title>
<g id="a_node2"><a xlink:href="execute__ast_8c.html" target="_top" xlink:title=" ">
<polygon fill="white" stroke="#666666" points="117,-30 0,-30 0,0 117,0 117,-30"/>
<text text-anchor="start" x="8" y="-18" font-family="Helvetica,sans-Serif" font-size="10.00">src/executer/execute</text>
<text text-anchor="middle" x="58.5" y="-7" font-family="Helvetica,sans-Serif" font-size="10.00">_ast.c</text>
</a>
</g>
</g>
<!-- Node1&#45;&gt;Node2 -->
<g id="edge1" class="edge">
<title>Node1&#45;&gt;Node2</title>
<path fill="none" stroke="#63b8ff" d="M831.26,-74C699.45,-72.28 385.91,-64.55 125.5,-30 122.79,-29.64 120.03,-29.23 117.24,-28.79"/>
<polygon fill="#63b8ff" stroke="#63b8ff" points="831.52,-77.51 841.57,-74.13 831.61,-70.51 831.52,-77.51"/>
</g>
<!-- Node3 -->
<g id="node3" class="node">
<title>Node3</title>
<g id="a_node3"><a xlink:href="execute__cmd_8c.html" target="_top" xlink:title=" ">
<polygon fill="white" stroke="#666666" points="252,-30 135,-30 135,0 252,0 252,-30"/>
<text text-anchor="start" x="143" y="-18" font-family="Helvetica,sans-Serif" font-size="10.00">src/executer/execute</text>
<text text-anchor="middle" x="193.5" y="-7" font-family="Helvetica,sans-Serif" font-size="10.00">_cmd.c</text>
</a>
</g>
</g>
<!-- Node1&#45;&gt;Node3 -->
<g id="edge2" class="edge">
<title>Node1&#45;&gt;Node3</title>
<path fill="none" stroke="#63b8ff" d="M831.44,-72.84C717.28,-69.22 468.94,-58.52 261.5,-30 258.4,-29.57 255.22,-29.09 252.02,-28.56"/>
<polygon fill="#63b8ff" stroke="#63b8ff" points="831.63,-76.35 841.74,-73.16 831.85,-69.35 831.63,-76.35"/>
</g>
<!-- Node4 -->
<g id="node4" class="node">
<title>Node4</title>
<g id="a_node4"><a xlink:href="execute__command__substitution_8c.html" target="_top" xlink:title=" ">
<polygon fill="white" stroke="#666666" points="412.5,-30 270.5,-30 270.5,0 412.5,0 412.5,-30"/>
<text text-anchor="start" x="278.5" y="-18" font-family="Helvetica,sans-Serif" font-size="10.00">src/executer/execute</text>
<text text-anchor="middle" x="341.5" y="-7" font-family="Helvetica,sans-Serif" font-size="10.00">_command_substitution.c</text>
</a>
</g>
</g>
<!-- Node1&#45;&gt;Node4 -->
<g id="edge3" class="edge">
<title>Node1&#45;&gt;Node4</title>
<path fill="none" stroke="#63b8ff" d="M831.73,-70.19C740.97,-63.6 567.91,-49.67 421.5,-30 418.57,-29.61 415.57,-29.18 412.55,-28.74"/>
<polygon fill="#63b8ff" stroke="#63b8ff" points="831.62,-73.69 841.85,-70.92 832.13,-66.71 831.62,-73.69"/>
</g>
<!-- Node5 -->
<g id="node5" class="node">
<title>Node5</title>
<g id="a_node5"><a xlink:href="execute__logical__and_8c.html" target="_top" xlink:title=" ">
<polygon fill="white" stroke="#666666" points="548,-30 431,-30 431,0 548,0 548,-30"/>
<text text-anchor="start" x="439" y="-18" font-family="Helvetica,sans-Serif" font-size="10.00">src/executer/execute</text>
<text text-anchor="middle" x="489.5" y="-7" font-family="Helvetica,sans-Serif" font-size="10.00">_logical_and.c</text>
</a>
</g>
</g>
<!-- Node1&#45;&gt;Node5 -->
<g id="edge4" class="edge">
<title>Node1&#45;&gt;Node5</title>
<path fill="none" stroke="#63b8ff" d="M831.79,-67.67C763.78,-59.93 652.1,-46.26 556.5,-30 553.81,-29.54 551.05,-29.05 548.28,-28.54"/>
<polygon fill="#63b8ff" stroke="#63b8ff" points="831.59,-71.17 841.92,-68.82 832.37,-64.21 831.59,-71.17"/>
</g>
<!-- Node6 -->
<g id="node6" class="node">
<title>Node6</title>
<g id="a_node6"><a xlink:href="execute__logical__or_8c.html" target="_top" xlink:title=" ">
<polygon fill="white" stroke="#666666" points="683,-30 566,-30 566,0 683,0 683,-30"/>
<text text-anchor="start" x="574" y="-18" font-family="Helvetica,sans-Serif" font-size="10.00">src/executer/execute</text>
<text text-anchor="middle" x="624.5" y="-7" font-family="Helvetica,sans-Serif" font-size="10.00">_logical_or.c</text>
</a>
</g>
</g>
<!-- Node1&#45;&gt;Node6 -->
<g id="edge5" class="edge">
<title>Node1&#45;&gt;Node6</title>
<path fill="none" stroke="#63b8ff" d="M845.29,-63.84C799.65,-53.95 731.7,-39.23 683.24,-28.73"/>
<polygon fill="#63b8ff" stroke="#63b8ff" points="844.73,-67.3 855.24,-65.99 846.21,-60.46 844.73,-67.3"/>
</g>
<!-- Node7 -->
<g id="node7" class="node">
<title>Node7</title>
<g id="a_node7"><a xlink:href="execute__pipe_8c.html" target="_top" xlink:title=" ">
<polygon fill="white" stroke="#666666" points="818,-30 701,-30 701,0 818,0 818,-30"/>
<text text-anchor="start" x="709" y="-18" font-family="Helvetica,sans-Serif" font-size="10.00">src/executer/execute</text>
<text text-anchor="middle" x="759.5" y="-7" font-family="Helvetica,sans-Serif" font-size="10.00">_pipe.c</text>
</a>
</g>
</g>
<!-- Node1&#45;&gt;Node7 -->
<g id="edge6" class="edge">
<title>Node1&#45;&gt;Node7</title>
<path fill="none" stroke="#63b8ff" d="M865.55,-61.95C843.93,-52.59 814.37,-39.78 791.96,-30.06"/>
<polygon fill="#63b8ff" stroke="#63b8ff" points="864.3,-65.23 874.87,-65.99 867.09,-58.81 864.3,-65.23"/>
</g>
<!-- Node8 -->
<g id="node8" class="node">
<title>Node8</title>
<g id="a_node8"><a xlink:href="execute__redirect_8c.html" target="_top" xlink:title=" ">
<polygon fill="white" stroke="#666666" points="953,-30 836,-30 836,0 953,0 953,-30"/>
<text text-anchor="start" x="844" y="-18" font-family="Helvetica,sans-Serif" font-size="10.00">src/executer/execute</text>
<text text-anchor="middle" x="894.5" y="-7" font-family="Helvetica,sans-Serif" font-size="10.00">_redirect.c</text>
</a>
</g>
</g>
<!-- Node1&#45;&gt;Node8 -->
<g id="edge7" class="edge">
<title>Node1&#45;&gt;Node8</title>
<path fill="none" stroke="#63b8ff" d="M894.5,-55.65C894.5,-47.36 894.5,-37.78 894.5,-30.11"/>
<polygon fill="#63b8ff" stroke="#63b8ff" points="891,-55.87 894.5,-65.87 898,-55.87 891,-55.87"/>
</g>
<!-- Node9 -->
<g id="node9" class="node">
<title>Node9</title>
<g id="a_node9"><a xlink:href="execute__repeat_8c.html" target="_top" xlink:title=" ">
<polygon fill="white" stroke="#666666" points="1088,-30 971,-30 971,0 1088,0 1088,-30"/>
<text text-anchor="start" x="979" y="-18" font-family="Helvetica,sans-Serif" font-size="10.00">src/executer/execute</text>
<text text-anchor="middle" x="1029.5" y="-7" font-family="Helvetica,sans-Serif" font-size="10.00">_repeat.c</text>
</a>
</g>
</g>
<!-- Node1&#45;&gt;Node9 -->
<g id="edge8" class="edge">
<title>Node1&#45;&gt;Node9</title>
<path fill="none" stroke="#63b8ff" d="M923.45,-61.95C945.07,-52.59 974.63,-39.78 997.04,-30.06"/>
<polygon fill="#63b8ff" stroke="#63b8ff" points="921.91,-58.81 914.13,-65.99 924.7,-65.23 921.91,-58.81"/>
</g>
<!-- Node10 -->
<g id="node10" class="node">
<title>Node10</title>
<g id="a_node10"><a xlink:href="execute__sequence_8c.html" target="_top" xlink:title=" ">
<polygon fill="white" stroke="#666666" points="1223,-30 1106,-30 1106,0 1223,0 1223,-30"/>
<text text-anchor="start" x="1114" y="-18" font-family="Helvetica,sans-Serif" font-size="10.00">src/executer/execute</text>
<text text-anchor="middle" x="1164.5" y="-7" font-family="Helvetica,sans-Serif" font-size="10.00">_sequence.c</text>
</a>
</g>
</g>
<!-- Node1&#45;&gt;Node10 -->
<g id="edge9" class="edge">
<title>Node1&#45;&gt;Node10</title>
<path fill="none" stroke="#63b8ff" d="M943.71,-63.84C989.35,-53.95 1057.3,-39.23 1105.76,-28.73"/>
<polygon fill="#63b8ff" stroke="#63b8ff" points="942.79,-60.46 933.76,-65.99 944.27,-67.3 942.79,-60.46"/>
</g>
<!-- Node11 -->
<g id="node11" class="node">
<title>Node11</title>
<g id="a_node11"><a xlink:href="execute__subshell_8c.html" target="_top" xlink:title=" ">
<polygon fill="white" stroke="#666666" points="1358,-30 1241,-30 1241,0 1358,0 1358,-30"/>
<text text-anchor="start" x="1249" y="-18" font-family="Helvetica,sans-Serif" font-size="10.00">src/executer/execute</text>
<text text-anchor="middle" x="1299.5" y="-7" font-family="Helvetica,sans-Serif" font-size="10.00">_subshell.c</text>
</a>
</g>
</g>
<!-- Node1&#45;&gt;Node11 -->
<g id="edge10" class="edge">
<title>Node1&#45;&gt;Node11</title>
<path fill="none" stroke="#63b8ff" d="M957.21,-67.67C1025.22,-59.93 1136.9,-46.26 1232.5,-30 1235.19,-29.54 1237.95,-29.05 1240.72,-28.54"/>
<polygon fill="#63b8ff" stroke="#63b8ff" points="956.63,-64.21 947.08,-68.82 957.41,-71.17 956.63,-64.21"/>
</g>
<!-- Node12 -->
<g id="node12" class="node">
<title>Node12</title>
<g id="a_node12"><a xlink:href="wait__for__subprocess_8c.html" target="_top" xlink:title=" ">
<polygon fill="white" stroke="#666666" points="1495,-30 1376,-30 1376,0 1495,0 1495,-30"/>
<text text-anchor="start" x="1384" y="-18" font-family="Helvetica,sans-Serif" font-size="10.00">src/executer/wait_for</text>
<text text-anchor="middle" x="1435.5" y="-7" font-family="Helvetica,sans-Serif" font-size="10.00">_subprocess.c</text>
</a>
</g>
</g>
<!-- Node1&#45;&gt;Node12 -->
<g id="edge11" class="edge">
<title>Node1&#45;&gt;Node12</title>
<path fill="none" stroke="#63b8ff" d="M957.36,-70.78C1048.22,-64.9 1221.4,-51.85 1367.5,-30 1370.24,-29.59 1373.04,-29.14 1375.86,-28.66"/>
<polygon fill="#63b8ff" stroke="#63b8ff" points="956.98,-67.3 947.22,-71.43 957.43,-74.28 956.98,-67.3"/>
</g>
<!-- Node13 -->
<g id="node13" class="node">
<title>Node13</title>
<g id="a_node13"><a xlink:href="lexer__expand__command__substitution_8c.html" target="_top" xlink:title=" ">
<polygon fill="white" stroke="#666666" points="1655.5,-30 1513.5,-30 1513.5,0 1655.5,0 1655.5,-30"/>
<text text-anchor="start" x="1521.5" y="-18" font-family="Helvetica,sans-Serif" font-size="10.00">src/lexer/lexer_expand</text>
<text text-anchor="middle" x="1584.5" y="-7" font-family="Helvetica,sans-Serif" font-size="10.00">_command_substitution.c</text>
</a>
</g>
</g>
<!-- Node1&#45;&gt;Node13 -->
<g id="edge12" class="edge">
<title>Node1&#45;&gt;Node13</title>
<path fill="none" stroke="#63b8ff" d="M957.31,-72C1068.13,-67.13 1305.48,-54.61 1504.5,-30 1507.44,-29.64 1510.43,-29.24 1513.46,-28.81"/>
<polygon fill="#63b8ff" stroke="#63b8ff" points="957.14,-68.5 947.3,-72.44 957.45,-75.5 957.14,-68.5"/>
</g>
<!-- Node14 -->
<g id="node14" class="node">
<title>Node14</title>
<g id="a_node14"><a xlink:href="shell_8c.html" target="_top" xlink:title=" ">
<polygon fill="white" stroke="#666666" points="1739,-24.5 1674,-24.5 1674,-5.5 1739,-5.5 1739,-24.5"/>
<text text-anchor="middle" x="1706.5" y="-12.5" font-family="Helvetica,sans-Serif" font-size="10.00">src/shell.c</text>
</a>
</g>
</g>
<!-- Node1&#45;&gt;Node14 -->
<g id="edge13" class="edge">
<title>Node1&#45;&gt;Node14</title>
<path fill="none" stroke="#63b8ff" d="M957.11,-73.01C1115.56,-68.9 1529.47,-55.93 1664.5,-30 1671.14,-28.72 1678.18,-26.67 1684.56,-24.53"/>
<polygon fill="#63b8ff" stroke="#63b8ff" points="956.95,-69.51 947.04,-73.27 957.13,-76.51 956.95,-69.51"/>
</g>
</g>
</svg>
