<?xml version="1.0" encoding="UTF-8" standalone="no"?>
<!DOCTYPE svg PUBLIC "-//W3C//DTD SVG 1.1//EN"
 "http://www.w3.org/Graphics/SVG/1.1/DTD/svg11.dtd">
<!-- Generated by graphviz version 2.43.0 (0)
 -->
<!-- Title: execute_subshell Pages: 1 -->
<!--zoomable 454 -->
<svg id="main" version="1.1" xmlns="http://www.w3.org/2000/svg" xmlns:xlink="http://www.w3.org/1999/xlink" xml:space="preserve" onload="init(evt)">
<style type="text/css"><![CDATA[
.edge:hover path { stroke: red; }
.edge:hover polygon { stroke: red; fill: red; }
]]></style>
<script type="text/javascript"><![CDATA[
var edges = document.getElementsByTagName('g');
if (edges && edges.length) {
  for (var i=0;i<edges.length;i++) {
    if (edges[i].id.substr(0,4)=='edge') {
      edges[i].setAttribute('class','edge');
    }
  }
}
]]></script>
        <defs>
                <circle id="rim" cx="0" cy="0" r="7"/>
                <circle id="rim2" cx="0" cy="0" r="3.5"/>
                <g id="zoomPlus">
                        <use xlink:href="#rim" fill="#404040">
                                <set attributeName="fill" to="#808080" begin="zoomplus.mouseover" end="zoomplus.mouseout"/>
                        </use>
                        <path d="M-4,0h8M0,-4v8" fill="none" stroke="white" stroke-width="1.5" pointer-events="none"/>
                </g>
                <g id="zoomMin">
                        <use xlink:href="#rim" fill="#404040">
                                <set attributeName="fill" to="#808080" begin="zoomminus.mouseover" end="zoomminus.mouseout"/>
                        </use>
                        <path d="M-4,0h8" fill="none" stroke="white" stroke-width="1.5" pointer-events="none"/>
                </g>
                <g id="dirArrow">
                        <path fill="none" stroke="white" stroke-width="1.5" d="M0,-3.0v7 M-2.5,-0.5L0,-3.0L2.5,-0.5"/>
                </g>
               <g id="resetDef">
                       <use xlink:href="#rim2" fill="#404040">
                               <set attributeName="fill" to="#808080" begin="reset.mouseover" end="reset.mouseout"/>
                       </use>
               </g>
        </defs>

<script type="text/javascript">
var viewWidth = 1304;
var viewHeight = 454;
var sectionId = 'dynsection-1';
</script>
<script xlink:href="svgpan.js"/>
<svg id="graph" class="graph">
<g id="viewport">
<title>execute_subshell</title>
<!-- Node1 -->
<g id="node1" class="node">
<title>Node1</title>
<g id="a_node1"><a xlink:title=" ">
<polygon fill="#999999" stroke="#666666" points="101,-198.5 0,-198.5 0,-179.5 101,-179.5 101,-198.5"/>
<text text-anchor="middle" x="50.5" y="-186.5" font-family="Helvetica,sans-Serif" font-size="10.00">execute_subshell</text>
</a>
</g>
</g>
<!-- Node2 -->
<g id="node2" class="node">
<title>Node2</title>
<g id="a_node2"><a xlink:href="execute__ast_8c.html#ad26a20a665ab7fdeb714ed53c1afd104" target="_top" xlink:title=" ">
<polygon fill="white" stroke="#666666" points="212,-198.5 137,-198.5 137,-179.5 212,-179.5 212,-198.5"/>
<text text-anchor="middle" x="174.5" y="-186.5" font-family="Helvetica,sans-Serif" font-size="10.00">execute_ast</text>
</a>
</g>
</g>
<!-- Node1&#45;&gt;Node2 -->
<g id="edge1" class="edge">
<title>Node1&#45;&gt;Node2</title>
<path fill="none" stroke="#63b8ff" d="M101.12,-182.36C109.47,-182.2 118.12,-182.22 126.4,-182.41"/>
<polygon fill="#63b8ff" stroke="#63b8ff" points="126.54,-185.91 136.65,-182.74 126.77,-178.92 126.54,-185.91"/>
</g>
<!-- Node11 -->
<g id="node11" class="node">
<title>Node11</title>
<g id="a_node11"><a xlink:href="wait__for__subprocess_8c.html#a1242d78540fd0ddef3d98a9f294cb0d4" target="_top" xlink:title=" ">
<polygon fill="white" stroke="#666666" points="1136.5,-85.5 1020.5,-85.5 1020.5,-66.5 1136.5,-66.5 1136.5,-85.5"/>
<text text-anchor="middle" x="1078.5" y="-73.5" font-family="Helvetica,sans-Serif" font-size="10.00">wait_for_subprocess</text>
</a>
</g>
</g>
<!-- Node1&#45;&gt;Node11 -->
<g id="edge50" class="edge">
<title>Node1&#45;&gt;Node11</title>
<path fill="none" stroke="#63b8ff" d="M57.62,-179.37C82.9,-140.85 183.68,0 305,0 305,0 305,0 770.5,0 873.36,0 990.08,-40.7 1045.29,-62.53"/>
<polygon fill="#63b8ff" stroke="#63b8ff" points="1044.28,-65.9 1054.87,-66.37 1046.89,-59.4 1044.28,-65.9"/>
</g>
<!-- Node2&#45;&gt;Node1 -->
<g id="edge49" class="edge">
<title>Node2&#45;&gt;Node1</title>
<path fill="none" stroke="#63b8ff" d="M136.65,-195.26C128.61,-195.6 119.91,-195.77 111.24,-195.75"/>
<polygon fill="#63b8ff" stroke="#63b8ff" points="111.16,-192.25 101.12,-195.64 111.09,-199.25 111.16,-192.25"/>
</g>
<!-- Node3 -->
<g id="node3" class="node">
<title>Node3</title>
<g id="a_node3"><a xlink:href="execute__cmd_8c.html#a94ea9cc5a046ce96e36764bf0e4fa2c0" target="_top" xlink:title=" ">
<polygon fill="white" stroke="#666666" points="346.5,-385.5 265.5,-385.5 265.5,-366.5 346.5,-366.5 346.5,-385.5"/>
<text text-anchor="middle" x="306" y="-373.5" font-family="Helvetica,sans-Serif" font-size="10.00">execute_cmd</text>
</a>
</g>
</g>
<!-- Node2&#45;&gt;Node3 -->
<g id="edge2" class="edge">
<title>Node2&#45;&gt;Node3</title>
<path fill="none" stroke="#63b8ff" d="M176.8,-198.64C181.19,-227.3 198.06,-312.79 248,-358 250.46,-360.23 253.2,-362.18 256.1,-363.89"/>
<polygon fill="#63b8ff" stroke="#63b8ff" points="254.69,-367.1 265.22,-368.33 257.76,-360.81 254.69,-367.1"/>
</g>
<!-- Node19 -->
<g id="node19" class="node">
<title>Node19</title>
<g id="a_node19"><a xlink:href="execute__logical__and_8c.html#a4f940752faf9f9a258c49810b21efe47" target="_top" xlink:title=" ">
<polygon fill="white" stroke="#666666" points="364,-311.5 248,-311.5 248,-292.5 364,-292.5 364,-311.5"/>
<text text-anchor="middle" x="306" y="-299.5" font-family="Helvetica,sans-Serif" font-size="10.00">execute_logical_and</text>
</a>
</g>
</g>
<!-- Node2&#45;&gt;Node19 -->
<g id="edge22" class="edge">
<title>Node2&#45;&gt;Node19</title>
<path fill="none" stroke="#63b8ff" d="M183.37,-198.5C194.8,-216.56 217.95,-253.89 248,-275 257.4,-281.6 269.32,-285.86 279.83,-289.29"/>
<polygon fill="#63b8ff" stroke="#63b8ff" points="278.75,-292.62 289.34,-292.38 280.91,-285.96 278.75,-292.62"/>
</g>
<!-- Node20 -->
<g id="node20" class="node">
<title>Node20</title>
<g id="a_node20"><a xlink:href="execute__logical__or_8c.html#a7e732d7c30b07010fa55850051007dcc" target="_top" xlink:title=" ">
<polygon fill="white" stroke="#666666" points="359.5,-274.5 252.5,-274.5 252.5,-255.5 359.5,-255.5 359.5,-274.5"/>
<text text-anchor="middle" x="306" y="-262.5" font-family="Helvetica,sans-Serif" font-size="10.00">execute_logical_or</text>
</a>
</g>
</g>
<!-- Node2&#45;&gt;Node20 -->
<g id="edge24" class="edge">
<title>Node2&#45;&gt;Node20</title>
<path fill="none" stroke="#63b8ff" d="M196.86,-198.56C210.87,-208.09 229.89,-221.86 248,-232 260.32,-238.9 275.02,-245.04 286.41,-250.6"/>
<polygon fill="#63b8ff" stroke="#63b8ff" points="284.94,-253.79 295.42,-255.35 288.2,-247.59 284.94,-253.79"/>
</g>
<!-- Node21 -->
<g id="node21" class="node">
<title>Node21</title>
<g id="a_node21"><a xlink:href="execute__pipe_8c.html#a5f3546dc2c7cf06c982afba41e722164" target="_top" xlink:title=" ">
<polygon fill="white" stroke="#666666" points="346.5,-85.5 265.5,-85.5 265.5,-66.5 346.5,-66.5 346.5,-85.5"/>
<text text-anchor="middle" x="306" y="-73.5" font-family="Helvetica,sans-Serif" font-size="10.00">execute_pipe</text>
</a>
</g>
</g>
<!-- Node2&#45;&gt;Node21 -->
<g id="edge26" class="edge">
<title>Node2&#45;&gt;Node21</title>
<path fill="none" stroke="#63b8ff" d="M181.09,-179.39C191.91,-161.53 217.37,-122.94 248,-100 253.24,-96.07 259.23,-92.65 265.3,-89.72"/>
<polygon fill="#63b8ff" stroke="#63b8ff" points="267.09,-92.76 274.82,-85.52 264.26,-86.36 267.09,-92.76"/>
</g>
<!-- Node26 -->
<g id="node26" class="node">
<title>Node26</title>
<g id="a_node26"><a xlink:href="execute__redirect_8c.html#a1004307aba80117ddd99f009e52fb155" target="_top" xlink:title=" ">
<polygon fill="white" stroke="#666666" points="355,-348.5 257,-348.5 257,-329.5 355,-329.5 355,-348.5"/>
<text text-anchor="middle" x="306" y="-336.5" font-family="Helvetica,sans-Serif" font-size="10.00">execute_redirect</text>
</a>
</g>
</g>
<!-- Node2&#45;&gt;Node26 -->
<g id="edge36" class="edge">
<title>Node2&#45;&gt;Node26</title>
<path fill="none" stroke="#63b8ff" d="M178.05,-198.58C185,-222.81 206.57,-287 248,-321 249.56,-322.28 251.22,-323.48 252.95,-324.58"/>
<polygon fill="#63b8ff" stroke="#63b8ff" points="251.58,-327.82 262.05,-329.45 254.88,-321.65 251.58,-327.82"/>
</g>
<!-- Node34 -->
<g id="node34" class="node">
<title>Node34</title>
<g id="a_node34"><a xlink:href="execute__repeat_8c.html#a00d48683c54b50130b4a402e6e97fa97" target="_top" xlink:title=" ">
<polygon fill="white" stroke="#666666" points="352,-198.5 260,-198.5 260,-179.5 352,-179.5 352,-198.5"/>
<text text-anchor="middle" x="306" y="-186.5" font-family="Helvetica,sans-Serif" font-size="10.00">execute_repeat</text>
</a>
</g>
</g>
<!-- Node2&#45;&gt;Node34 -->
<g id="edge45" class="edge">
<title>Node2&#45;&gt;Node34</title>
<path fill="none" stroke="#63b8ff" d="M212.26,-182.84C223.95,-182.32 237.13,-182.14 249.82,-182.32"/>
<polygon fill="#63b8ff" stroke="#63b8ff" points="249.78,-185.82 259.85,-182.53 249.93,-178.82 249.78,-185.82"/>
</g>
<!-- Node35 -->
<g id="node35" class="node">
<title>Node35</title>
<g id="a_node35"><a xlink:href="execute__sequence_8c.html#aad2caa5bf50b0752dd8272da477ec231" target="_top" xlink:title=" ">
<polygon fill="white" stroke="#666666" points="359.5,-161.5 252.5,-161.5 252.5,-142.5 359.5,-142.5 359.5,-161.5"/>
<text text-anchor="middle" x="306" y="-149.5" font-family="Helvetica,sans-Serif" font-size="10.00">execute_sequence</text>
</a>
</g>
</g>
<!-- Node2&#45;&gt;Node35 -->
<g id="edge47" class="edge">
<title>Node2&#45;&gt;Node35</title>
<path fill="none" stroke="#63b8ff" d="M192.43,-179.43C205.33,-174.35 223.96,-168.35 242.35,-163.15"/>
<polygon fill="#63b8ff" stroke="#63b8ff" points="243.51,-166.47 252.22,-160.43 241.65,-159.72 243.51,-166.47"/>
</g>
<!-- Node4 -->
<g id="node4" class="node">
<title>Node4</title>
<g id="a_node4"><a xlink:href="execute__cmd_8c.html#a0cfd2364134e68efdd39533e00b4b0d9" target="_top" xlink:title=" ">
<polygon fill="white" stroke="#666666" points="519,-417.5 400,-417.5 400,-398.5 519,-398.5 519,-417.5"/>
<text text-anchor="middle" x="459.5" y="-405.5" font-family="Helvetica,sans-Serif" font-size="10.00">execute_local_binary</text>
</a>
</g>
</g>
<!-- Node3&#45;&gt;Node4 -->
<g id="edge3" class="edge">
<title>Node3&#45;&gt;Node4</title>
<path fill="none" stroke="#63b8ff" d="M346.8,-384.41C364.12,-388.06 384.7,-392.41 403.44,-396.37"/>
<polygon fill="#63b8ff" stroke="#63b8ff" points="402.84,-399.82 413.34,-398.46 404.28,-392.97 402.84,-399.82"/>
</g>
<!-- Node13 -->
<g id="node13" class="node">
<title>Node13</title>
<g id="a_node13"><a xlink:href="execute__cmd_8c.html#a460126af28ab29df4340554fae9fc57a" target="_top" xlink:title=" ">
<polygon fill="white" stroke="#666666" points="518.5,-380.5 400.5,-380.5 400.5,-361.5 518.5,-361.5 518.5,-380.5"/>
<text text-anchor="middle" x="459.5" y="-368.5" font-family="Helvetica,sans-Serif" font-size="10.00">execute_path_binary</text>
</a>
</g>
</g>
<!-- Node3&#45;&gt;Node13 -->
<g id="edge14" class="edge">
<title>Node3&#45;&gt;Node13</title>
<path fill="none" stroke="#63b8ff" d="M346.8,-374.69C360.13,-374.25 375.38,-373.74 390.24,-373.25"/>
<polygon fill="#63b8ff" stroke="#63b8ff" points="390.56,-376.74 400.44,-372.92 390.33,-369.75 390.56,-376.74"/>
</g>
<!-- Node18 -->
<g id="node18" class="node">
<title>Node18</title>
<g id="a_node18"><a xlink:href="strings_8h.html#a36f055c4e56c8a784629908d0c5b91e5" target="_top" xlink:title=" ">
<polygon fill="white" stroke="#666666" points="981,-314.5 877,-314.5 877,-295.5 981,-295.5 981,-314.5"/>
<text text-anchor="middle" x="929" y="-302.5" font-family="Helvetica,sans-Serif" font-size="10.00">my_is_char_in_str</text>
</a>
</g>
</g>
<!-- Node3&#45;&gt;Node18 -->
<g id="edge21" class="edge">
<title>Node3&#45;&gt;Node18</title>
<path fill="none" stroke="#63b8ff" d="M345.44,-366.42C362.19,-362.26 382.06,-357.36 400,-353 468.82,-336.28 484.79,-325.31 555,-316 664.03,-301.53 792.48,-301.42 866.65,-302.98"/>
<polygon fill="#63b8ff" stroke="#63b8ff" points="866.68,-306.48 876.75,-303.21 866.83,-299.48 866.68,-306.48"/>
</g>
<!-- Node5 -->
<g id="node5" class="node">
<title>Node5</title>
<g id="a_node5"><a xlink:href="execute__cmd_8c.html#a0f1b711370b175e42e583b75daacf41e" target="_top" xlink:title=" ">
<polygon fill="white" stroke="#666666" points="815,-417.5 724,-417.5 724,-398.5 815,-398.5 815,-417.5"/>
<text text-anchor="middle" x="769.5" y="-405.5" font-family="Helvetica,sans-Serif" font-size="10.00">execute_binary</text>
</a>
</g>
</g>
<!-- Node4&#45;&gt;Node5 -->
<g id="edge4" class="edge">
<title>Node4&#45;&gt;Node5</title>
<path fill="none" stroke="#63b8ff" d="M519.16,-408C575.07,-408 658.63,-408 713.35,-408"/>
<polygon fill="#63b8ff" stroke="#63b8ff" points="713.56,-411.5 723.56,-408 713.56,-404.5 713.56,-411.5"/>
</g>
<!-- Node6 -->
<g id="node6" class="node">
<title>Node6</title>
<g id="a_node6"><a xlink:href="env__to__word__array_8c.html#aea7253d35c5aa57d9cfe9d7df218cb90" target="_top" xlink:title=" ">
<polygon fill="white" stroke="#666666" points="984,-445.5 874,-445.5 874,-426.5 984,-426.5 984,-445.5"/>
<text text-anchor="middle" x="929" y="-433.5" font-family="Helvetica,sans-Serif" font-size="10.00">env_to_word_array</text>
</a>
</g>
</g>
<!-- Node5&#45;&gt;Node6 -->
<g id="edge5" class="edge">
<title>Node5&#45;&gt;Node6</title>
<path fill="none" stroke="#63b8ff" d="M815.21,-415.95C830.5,-418.67 847.91,-421.76 864.4,-424.69"/>
<polygon fill="#63b8ff" stroke="#63b8ff" points="864.06,-428.19 874.52,-426.49 865.28,-421.3 864.06,-428.19"/>
</g>
<!-- Node9 -->
<g id="node9" class="node">
<title>Node9</title>
<g id="a_node9"><a xlink:href="execute__cmd_8c.html#a6badc27baa1930e30ea2ad3817f65366" target="_top" xlink:title=" ">
<polygon fill="white" stroke="#666666" points="969,-408.5 889,-408.5 889,-389.5 969,-389.5 969,-408.5"/>
<text text-anchor="middle" x="929" y="-396.5" font-family="Helvetica,sans-Serif" font-size="10.00">execute_fork</text>
</a>
</g>
</g>
<!-- Node5&#45;&gt;Node9 -->
<g id="edge8" class="edge">
<title>Node5&#45;&gt;Node9</title>
<path fill="none" stroke="#63b8ff" d="M815.21,-405.45C835.05,-404.31 858.46,-402.97 878.79,-401.81"/>
<polygon fill="#63b8ff" stroke="#63b8ff" points="879.02,-405.3 888.8,-401.24 878.62,-398.32 879.02,-405.3"/>
</g>
<!-- Node10 -->
<g id="node10" class="node">
<title>Node10</title>
<g id="a_node10"><a xlink:href="execute__cmd_8c.html#a2c49b9849cfef0deea03382c9f1b3ab8" target="_top" xlink:title=" ">
<polygon fill="white" stroke="#666666" points="1124.5,-370.5 1032.5,-370.5 1032.5,-351.5 1124.5,-351.5 1124.5,-370.5"/>
<text text-anchor="middle" x="1078.5" y="-358.5" font-family="Helvetica,sans-Serif" font-size="10.00">run_subprocess</text>
</a>
</g>
</g>
<!-- Node5&#45;&gt;Node10 -->
<g id="edge13" class="edge">
<title>Node5&#45;&gt;Node10</title>
<path fill="none" stroke="#63b8ff" d="M806.43,-398.48C834.93,-390.96 870.54,-381.62 874,-381 923.78,-372.12 981.16,-366.93 1022.27,-364.07"/>
<polygon fill="#63b8ff" stroke="#63b8ff" points="1022.62,-367.56 1032.36,-363.4 1022.15,-360.57 1022.62,-367.56"/>
</g>
<!-- Node7 -->
<g id="node7" class="node">
<title>Node7</title>
<g id="a_node7"><a xlink:href="misc_8h.html#a1180cae2875b1fdcd58c9f9175a82c12" target="_top" xlink:title=" ">
<polygon fill="white" stroke="#666666" points="1137,-408.5 1020,-408.5 1020,-389.5 1137,-389.5 1137,-408.5"/>
<text text-anchor="middle" x="1078.5" y="-396.5" font-family="Helvetica,sans-Serif" font-size="10.00">my_free_word_array</text>
</a>
</g>
</g>
<!-- Node6&#45;&gt;Node7 -->
<g id="edge6" class="edge">
<title>Node6&#45;&gt;Node7</title>
<path fill="none" stroke="#63b8ff" d="M967.98,-426.47C986.75,-421.76 1009.59,-416.03 1029.55,-411.03"/>
<polygon fill="#63b8ff" stroke="#63b8ff" points="1030.54,-414.39 1039.39,-408.56 1028.84,-407.6 1030.54,-414.39"/>
</g>
<!-- Node8 -->
<g id="node8" class="node">
<title>Node8</title>
<g id="a_node8"><a xlink:href="list_8h.html#ad5ebb7cdb26f73e4b212dfc5eae4ef0e" target="_top" xlink:title=" ">
<polygon fill="white" stroke="#666666" points="1123,-445.5 1034,-445.5 1034,-426.5 1123,-426.5 1123,-445.5"/>
<text text-anchor="middle" x="1078.5" y="-433.5" font-family="Helvetica,sans-Serif" font-size="10.00">my_list_length</text>
</a>
</g>
</g>
<!-- Node6&#45;&gt;Node8 -->
<g id="edge7" class="edge">
<title>Node6&#45;&gt;Node8</title>
<path fill="none" stroke="#63b8ff" d="M984.09,-436C996.93,-436 1010.64,-436 1023.48,-436"/>
<polygon fill="#63b8ff" stroke="#63b8ff" points="1023.56,-439.5 1033.56,-436 1023.56,-432.5 1023.56,-439.5"/>
</g>
<!-- Node9&#45;&gt;Node7 -->
<g id="edge9" class="edge">
<title>Node9&#45;&gt;Node7</title>
<path fill="none" stroke="#63b8ff" d="M969.14,-399C981.64,-399 995.85,-399 1009.78,-399"/>
<polygon fill="#63b8ff" stroke="#63b8ff" points="1009.84,-402.5 1019.84,-399 1009.84,-395.5 1009.84,-402.5"/>
</g>
<!-- Node9&#45;&gt;Node10 -->
<g id="edge10" class="edge">
<title>Node9&#45;&gt;Node10</title>
<path fill="none" stroke="#63b8ff" d="M967.22,-389.41C986.51,-384.44 1010.26,-378.32 1030.77,-373.04"/>
<polygon fill="#63b8ff" stroke="#63b8ff" points="1031.74,-376.4 1040.55,-370.52 1029.99,-369.63 1031.74,-376.4"/>
</g>
<!-- Node9&#45;&gt;Node11 -->
<g id="edge11" class="edge">
<title>Node9&#45;&gt;Node11</title>
<path fill="none" stroke="#63b8ff" d="M939.01,-389.09C950.98,-375.43 972,-349.56 984,-324 1011.11,-266.23 996.96,-244.51 1020,-185 1032.93,-151.61 1053.53,-115.29 1066.24,-94.14"/>
<polygon fill="#63b8ff" stroke="#63b8ff" points="1069.26,-95.92 1071.48,-85.56 1063.28,-92.28 1069.26,-95.92"/>
</g>
<!-- Node12 -->
<g id="node12" class="node">
<title>Node12</title>
<g id="a_node12"><a xlink:href="wait__for__subprocess_8c.html#a885766ba6ba593b7cf27b917dd52b1a6" target="_top" xlink:title=" ">
<polygon fill="white" stroke="#666666" points="1296,-85.5 1173,-85.5 1173,-66.5 1296,-66.5 1296,-85.5"/>
<text text-anchor="middle" x="1234.5" y="-73.5" font-family="Helvetica,sans-Serif" font-size="10.00">print_signal_message</text>
</a>
</g>
</g>
<!-- Node11&#45;&gt;Node12 -->
<g id="edge12" class="edge">
<title>Node11&#45;&gt;Node12</title>
<path fill="none" stroke="#63b8ff" d="M1136.84,-76C1145.26,-76 1154.02,-76 1162.67,-76"/>
<polygon fill="#63b8ff" stroke="#63b8ff" points="1162.76,-79.5 1172.76,-76 1162.76,-72.5 1162.76,-79.5"/>
</g>
<!-- Node14 -->
<g id="node14" class="node">
<title>Node14</title>
<g id="a_node14"><a xlink:href="get__variable__value_8c.html#a2edd9900f19af236aa05385a789be3d6" target="_top" xlink:title=" ">
<polygon fill="white" stroke="#666666" points="665,-343.5 555,-343.5 555,-324.5 665,-324.5 665,-343.5"/>
<text text-anchor="middle" x="610" y="-331.5" font-family="Helvetica,sans-Serif" font-size="10.00">get_variable_value</text>
</a>
</g>
</g>
<!-- Node13&#45;&gt;Node14 -->
<g id="edge15" class="edge">
<title>Node13&#45;&gt;Node14</title>
<path fill="none" stroke="#63b8ff" d="M498.74,-361.47C517.64,-356.76 540.63,-351.03 560.73,-346.03"/>
<polygon fill="#63b8ff" stroke="#63b8ff" points="561.77,-349.37 570.63,-343.56 560.08,-342.58 561.77,-349.37"/>
</g>
<!-- Node16 -->
<g id="node16" class="node">
<title>Node16</title>
<g id="a_node16"><a xlink:href="execute__cmd_8c.html#aee9e13edede9df28fac066f30e7ae7ed" target="_top" xlink:title=" ">
<polygon fill="white" stroke="#666666" points="652,-380.5 568,-380.5 568,-361.5 652,-361.5 652,-380.5"/>
<text text-anchor="middle" x="610" y="-368.5" font-family="Helvetica,sans-Serif" font-size="10.00">try_command</text>
</a>
</g>
</g>
<!-- Node13&#45;&gt;Node16 -->
<g id="edge17" class="edge">
<title>Node13&#45;&gt;Node16</title>
<path fill="none" stroke="#63b8ff" d="M518.76,-371C531.59,-371 545.08,-371 557.61,-371"/>
<polygon fill="#63b8ff" stroke="#63b8ff" points="557.87,-374.5 567.87,-371 557.87,-367.5 557.87,-374.5"/>
</g>
<!-- Node15 -->
<g id="node15" class="node">
<title>Node15</title>
<g id="a_node15"><a xlink:href="get__variable_8c.html#a569170390f0edf013bf89c26ef55ea8c" target="_top" xlink:title=" ">
<polygon fill="white" stroke="#666666" points="808,-343.5 731,-343.5 731,-324.5 808,-324.5 808,-343.5"/>
<text text-anchor="middle" x="769.5" y="-331.5" font-family="Helvetica,sans-Serif" font-size="10.00">get_variable</text>
</a>
</g>
</g>
<!-- Node14&#45;&gt;Node15 -->
<g id="edge16" class="edge">
<title>Node14&#45;&gt;Node15</title>
<path fill="none" stroke="#63b8ff" d="M665.2,-334C683.04,-334 702.73,-334 720.11,-334"/>
<polygon fill="#63b8ff" stroke="#63b8ff" points="720.58,-337.5 730.58,-334 720.58,-330.5 720.58,-337.5"/>
</g>
<!-- Node16&#45;&gt;Node5 -->
<g id="edge18" class="edge">
<title>Node16&#45;&gt;Node5</title>
<path fill="none" stroke="#63b8ff" d="M651.56,-380.53C671.78,-385.28 696.44,-391.07 717.88,-396.11"/>
<polygon fill="#63b8ff" stroke="#63b8ff" points="717.27,-399.56 727.8,-398.44 718.87,-392.75 717.27,-399.56"/>
</g>
<!-- Node17 -->
<g id="node17" class="node">
<title>Node17</title>
<g id="a_node17"><a xlink:href="execute__cmd_8c.html#a7edf8a207e2b427102f54a379bd13546" target="_top" xlink:title=" ">
<polygon fill="white" stroke="#666666" points="838,-380.5 701,-380.5 701,-361.5 838,-361.5 838,-380.5"/>
<text text-anchor="middle" x="769.5" y="-368.5" font-family="Helvetica,sans-Serif" font-size="10.00">print_permission_denied</text>
</a>
</g>
</g>
<!-- Node16&#45;&gt;Node17 -->
<g id="edge19" class="edge">
<title>Node16&#45;&gt;Node17</title>
<path fill="none" stroke="#63b8ff" d="M652.38,-371C664.22,-371 677.52,-371 690.79,-371"/>
<polygon fill="#63b8ff" stroke="#63b8ff" points="690.9,-374.5 700.9,-371 690.9,-367.5 690.9,-374.5"/>
</g>
<!-- Node17&#45;&gt;Node18 -->
<g id="edge20" class="edge">
<title>Node17&#45;&gt;Node18</title>
<path fill="none" stroke="#63b8ff" d="M812.39,-361.43C820.98,-359.02 829.88,-356.2 838,-353 861.08,-343.91 885.84,-330.4 903.54,-320.02"/>
<polygon fill="#63b8ff" stroke="#63b8ff" points="905.79,-322.76 912.59,-314.63 902.21,-316.74 905.79,-322.76"/>
</g>
<!-- Node19&#45;&gt;Node2 -->
<g id="edge23" class="edge">
<title>Node19&#45;&gt;Node2</title>
<path fill="none" stroke="#63b8ff" d="M248.26,-293.18C248.17,-293.12 248.08,-293.06 248,-293 216.94,-271.18 193.25,-232.04 182.26,-208.18"/>
<polygon fill="#63b8ff" stroke="#63b8ff" points="185.36,-206.54 178.23,-198.71 178.92,-209.28 185.36,-206.54"/>
</g>
<!-- Node20&#45;&gt;Node2 -->
<g id="edge25" class="edge">
<title>Node20&#45;&gt;Node2</title>
<path fill="none" stroke="#63b8ff" d="M258.54,-255.45C254.92,-253.72 251.37,-251.89 248,-250 225.86,-237.6 202.36,-219.77 188.31,-206.19"/>
<polygon fill="#63b8ff" stroke="#63b8ff" points="190.65,-203.57 181.22,-198.75 185.59,-208.4 190.65,-203.57"/>
</g>
<!-- Node21&#45;&gt;Node11 -->
<g id="edge35" class="edge">
<title>Node21&#45;&gt;Node11</title>
<path fill="none" stroke="#63b8ff" d="M346.57,-76C404.28,-76 514.89,-76 609,-76 609,-76 609,-76 770.5,-76 853.05,-76 948.08,-76 1010.28,-76"/>
<polygon fill="#63b8ff" stroke="#63b8ff" points="1010.35,-79.5 1020.35,-76 1010.35,-72.5 1010.35,-79.5"/>
</g>
<!-- Node22 -->
<g id="node22" class="node">
<title>Node22</title>
<g id="a_node22"><a xlink:href="execute__pipe_8c.html#a723ff799f939872d17f109a82342294e" target="_top" xlink:title=" ">
<polygon fill="white" stroke="#666666" points="641,-123.5 579,-123.5 579,-104.5 641,-104.5 641,-123.5"/>
<text text-anchor="middle" x="610" y="-111.5" font-family="Helvetica,sans-Serif" font-size="10.00">close_fds</text>
</a>
</g>
</g>
<!-- Node21&#45;&gt;Node22 -->
<g id="edge27" class="edge">
<title>Node21&#45;&gt;Node22</title>
<path fill="none" stroke="#63b8ff" d="M346.78,-82.3C363.24,-84.83 382.52,-87.68 400,-90 458.58,-97.77 526.59,-105.3 568.72,-109.8"/>
<polygon fill="#63b8ff" stroke="#63b8ff" points="568.53,-113.3 578.85,-110.87 569.27,-106.34 568.53,-113.3"/>
</g>
<!-- Node23 -->
<g id="node23" class="node">
<title>Node23</title>
<g id="a_node23"><a xlink:href="execute__pipe_8c.html#ac529ffc2370b0133613ef8a81e58ed85" target="_top" xlink:title=" ">
<polygon fill="white" stroke="#666666" points="510.5,-161.5 408.5,-161.5 408.5,-142.5 510.5,-142.5 510.5,-161.5"/>
<text text-anchor="middle" x="459.5" y="-149.5" font-family="Helvetica,sans-Serif" font-size="10.00">execute_pipe_left</text>
</a>
</g>
</g>
<!-- Node21&#45;&gt;Node23 -->
<g id="edge28" class="edge">
<title>Node21&#45;&gt;Node23</title>
<path fill="none" stroke="#63b8ff" d="M333.8,-85.6C343.58,-89.53 354.55,-94.47 364,-100 381.49,-110.24 382.46,-117.84 400,-128 406.66,-131.86 414.06,-135.41 421.3,-138.52"/>
<polygon fill="#63b8ff" stroke="#63b8ff" points="420.4,-141.93 430.98,-142.49 423.05,-135.46 420.4,-141.93"/>
</g>
<!-- Node24 -->
<g id="node24" class="node">
<title>Node24</title>
<g id="a_node24"><a xlink:href="execute__pipe_8c.html#a9ed6eabb8a9f7049f91265a5f45e30c8" target="_top" xlink:title=" ">
<polygon fill="white" stroke="#666666" points="514,-47.5 405,-47.5 405,-28.5 514,-28.5 514,-47.5"/>
<text text-anchor="middle" x="459.5" y="-35.5" font-family="Helvetica,sans-Serif" font-size="10.00">execute_pipe_right</text>
</a>
</g>
</g>
<!-- Node21&#45;&gt;Node24 -->
<g id="edge31" class="edge">
<title>Node21&#45;&gt;Node24</title>
<path fill="none" stroke="#63b8ff" d="M345.23,-66.41C365.13,-61.42 389.66,-55.27 410.79,-49.97"/>
<polygon fill="#63b8ff" stroke="#63b8ff" points="411.7,-53.35 420.55,-47.52 409.99,-46.56 411.7,-53.35"/>
</g>
<!-- Node23&#45;&gt;Node2 -->
<g id="edge30" class="edge">
<title>Node23&#45;&gt;Node2</title>
<path fill="none" stroke="#63b8ff" d="M429.71,-142.41C388.35,-130.21 310.23,-113.07 248,-134 225.72,-141.5 204.85,-158.86 191.27,-172.09"/>
<polygon fill="#63b8ff" stroke="#63b8ff" points="188.7,-169.71 184.17,-179.29 193.68,-174.63 188.7,-169.71"/>
</g>
<!-- Node23&#45;&gt;Node22 -->
<g id="edge29" class="edge">
<title>Node23&#45;&gt;Node22</title>
<path fill="none" stroke="#63b8ff" d="M497.97,-142.41C519.58,-136.88 546.75,-129.93 568.8,-124.29"/>
<polygon fill="#63b8ff" stroke="#63b8ff" points="569.71,-127.67 578.53,-121.8 567.98,-120.88 569.71,-127.67"/>
</g>
<!-- Node24&#45;&gt;Node2 -->
<g id="edge33" class="edge">
<title>Node24&#45;&gt;Node2</title>
<path fill="none" stroke="#63b8ff" d="M404.71,-29.66C359.27,-25.51 294.37,-26.67 248,-57 208.03,-83.14 188.19,-139.18 180.1,-169.15"/>
<polygon fill="#63b8ff" stroke="#63b8ff" points="176.61,-168.68 177.56,-179.23 183.4,-170.39 176.61,-168.68"/>
</g>
<!-- Node24&#45;&gt;Node22 -->
<g id="edge32" class="edge">
<title>Node24&#45;&gt;Node22</title>
<path fill="none" stroke="#63b8ff" d="M479.31,-47.63C505.08,-60.82 551.57,-84.61 581.32,-99.83"/>
<polygon fill="#63b8ff" stroke="#63b8ff" points="579.85,-103.01 590.35,-104.45 583.04,-96.78 579.85,-103.01"/>
</g>
<!-- Node25 -->
<g id="node25" class="node">
<title>Node25</title>
<g id="a_node25"><a xlink:href="execute__pipe_8c.html#ac3d3a124b262676fa0679720f99a7f83" target="_top" xlink:title=" ">
<polygon fill="white" stroke="#666666" points="650,-47.5 570,-47.5 570,-28.5 650,-28.5 650,-47.5"/>
<text text-anchor="middle" x="610" y="-35.5" font-family="Helvetica,sans-Serif" font-size="10.00">restore_stdin</text>
</a>
</g>
</g>
<!-- Node24&#45;&gt;Node25 -->
<g id="edge34" class="edge">
<title>Node24&#45;&gt;Node25</title>
<path fill="none" stroke="#63b8ff" d="M514.11,-38C528.95,-38 544.99,-38 559.58,-38"/>
<polygon fill="#63b8ff" stroke="#63b8ff" points="559.91,-41.5 569.91,-38 559.91,-34.5 559.91,-41.5"/>
</g>
<!-- Node27 -->
<g id="node27" class="node">
<title>Node27</title>
<g id="a_node27"><a xlink:href="execute__redirect_8c.html#a5aa0f008806cc0e8a7ba252d61b7001f" target="_top" xlink:title=" ">
<polygon fill="white" stroke="#666666" points="513,-245.5 406,-245.5 406,-226.5 513,-226.5 513,-245.5"/>
<text text-anchor="middle" x="459.5" y="-233.5" font-family="Helvetica,sans-Serif" font-size="10.00">redirect_execution</text>
</a>
</g>
</g>
<!-- Node26&#45;&gt;Node27 -->
<g id="edge37" class="edge">
<title>Node26&#45;&gt;Node27</title>
<path fill="none" stroke="#63b8ff" d="M346.53,-329.48C352.62,-327.19 358.66,-324.39 364,-321 383.92,-308.36 382.67,-298.01 400,-282 411.65,-271.24 425.57,-260.23 436.91,-251.67"/>
<polygon fill="#63b8ff" stroke="#63b8ff" points="439.06,-254.43 445,-245.66 434.89,-248.82 439.06,-254.43"/>
</g>
<!-- Node27&#45;&gt;Node2 -->
<g id="edge38" class="edge">
<title>Node27&#45;&gt;Node2</title>
<path fill="none" stroke="#63b8ff" d="M405.87,-230.83C363.11,-226.19 301.36,-218.5 248,-208 238.33,-206.1 228.05,-203.66 218.35,-201.17"/>
<polygon fill="#63b8ff" stroke="#63b8ff" points="219.07,-197.74 208.51,-198.57 217.28,-204.51 219.07,-197.74"/>
</g>
<!-- Node28 -->
<g id="node28" class="node">
<title>Node28</title>
<g id="a_node28"><a xlink:href="execute__redirect_8c.html#a1b8f325fc375581f81ae47a54e09cf0e" target="_top" xlink:title=" ">
<polygon fill="white" stroke="#666666" points="643,-249.5 577,-249.5 577,-230.5 643,-230.5 643,-249.5"/>
<text text-anchor="middle" x="610" y="-237.5" font-family="Helvetica,sans-Serif" font-size="10.00">restore_fd</text>
</a>
</g>
</g>
<!-- Node27&#45;&gt;Node28 -->
<g id="edge39" class="edge">
<title>Node27&#45;&gt;Node28</title>
<path fill="none" stroke="#63b8ff" d="M513.27,-237.42C530.64,-237.89 549.73,-238.4 566.26,-238.85"/>
<polygon fill="#63b8ff" stroke="#63b8ff" points="566.62,-242.36 576.71,-239.13 566.8,-235.36 566.62,-242.36"/>
</g>
<!-- Node29 -->
<g id="node29" class="node">
<title>Node29</title>
<g id="a_node29"><a xlink:href="execute__redirect_8c.html#a6cb002bd51f2009eaacc66d388c5f9a7" target="_top" xlink:title=" ">
<polygon fill="white" stroke="#666666" points="660.5,-212.5 559.5,-212.5 559.5,-193.5 660.5,-193.5 660.5,-212.5"/>
<text text-anchor="middle" x="610" y="-200.5" font-family="Helvetica,sans-Serif" font-size="10.00">setup_redirection</text>
</a>
</g>
</g>
<!-- Node27&#45;&gt;Node29 -->
<g id="edge40" class="edge">
<title>Node27&#45;&gt;Node29</title>
<path fill="none" stroke="#63b8ff" d="M503.45,-226.46C519.92,-222.8 538.91,-218.58 556.19,-214.73"/>
<polygon fill="#63b8ff" stroke="#63b8ff" points="557.14,-218.11 566.14,-212.52 555.62,-211.28 557.14,-218.11"/>
</g>
<!-- Node30 -->
<g id="node30" class="node">
<title>Node30</title>
<g id="a_node30"><a xlink:href="execute__redirect_8c.html#a0e31af51537a8c047a3aca7cdb63d5dd" target="_top" xlink:title=" ">
<polygon fill="white" stroke="#666666" points="818.5,-212.5 720.5,-212.5 720.5,-193.5 818.5,-193.5 818.5,-212.5"/>
<text text-anchor="middle" x="769.5" y="-200.5" font-family="Helvetica,sans-Serif" font-size="10.00">open_redirect_fd</text>
</a>
</g>
</g>
<!-- Node29&#45;&gt;Node30 -->
<g id="edge41" class="edge">
<title>Node29&#45;&gt;Node30</title>
<path fill="none" stroke="#63b8ff" d="M660.83,-203C676.43,-203 693.79,-203 709.93,-203"/>
<polygon fill="#63b8ff" stroke="#63b8ff" points="710.34,-206.5 720.34,-203 710.34,-199.5 710.34,-206.5"/>
</g>
<!-- Node31 -->
<g id="node31" class="node">
<title>Node31</title>
<g id="a_node31"><a xlink:href="execute__redirect_8c.html#a71feea783167b3804f2793a232ca74b4" target="_top" xlink:title=" ">
<polygon fill="white" stroke="#666666" points="964.5,-212.5 893.5,-212.5 893.5,-193.5 964.5,-193.5 964.5,-212.5"/>
<text text-anchor="middle" x="929" y="-200.5" font-family="Helvetica,sans-Serif" font-size="10.00">heredoc_fd</text>
</a>
</g>
</g>
<!-- Node30&#45;&gt;Node31 -->
<g id="edge42" class="edge">
<title>Node30&#45;&gt;Node31</title>
<path fill="none" stroke="#63b8ff" d="M818.61,-203C839.1,-203 862.87,-203 883.01,-203"/>
<polygon fill="#63b8ff" stroke="#63b8ff" points="883.17,-206.5 893.17,-203 883.17,-199.5 883.17,-206.5"/>
</g>
<!-- Node32 -->
<g id="node32" class="node">
<title>Node32</title>
<g id="a_node32"><a xlink:href="execute__redirect_8c.html#a639d0a6f315a3bae78d204ff798e314f" target="_top" xlink:title=" ">
<polygon fill="white" stroke="#666666" points="1132,-212.5 1025,-212.5 1025,-193.5 1132,-193.5 1132,-212.5"/>
<text text-anchor="middle" x="1078.5" y="-200.5" font-family="Helvetica,sans-Serif" font-size="10.00">get_heredoc_input</text>
</a>
</g>
</g>
<!-- Node31&#45;&gt;Node32 -->
<g id="edge43" class="edge">
<title>Node31&#45;&gt;Node32</title>
<path fill="none" stroke="#63b8ff" d="M964.58,-203C979.6,-203 997.67,-203 1014.91,-203"/>
<polygon fill="#63b8ff" stroke="#63b8ff" points="1014.94,-206.5 1024.94,-203 1014.94,-199.5 1014.94,-206.5"/>
</g>
<!-- Node33 -->
<g id="node33" class="node">
<title>Node33</title>
<g id="a_node33"><a xlink:href="execute__redirect_8c.html#a4e396606481bc13335d3dfae7ff15407" target="_top" xlink:title=" ">
<polygon fill="white" stroke="#666666" points="1285.5,-212.5 1183.5,-212.5 1183.5,-193.5 1285.5,-193.5 1285.5,-212.5"/>
<text text-anchor="middle" x="1234.5" y="-200.5" font-family="Helvetica,sans-Serif" font-size="10.00">is_heredoc_delim</text>
</a>
</g>
</g>
<!-- Node32&#45;&gt;Node33 -->
<g id="edge44" class="edge">
<title>Node32&#45;&gt;Node33</title>
<path fill="none" stroke="#63b8ff" d="M1132.07,-203C1145.26,-203 1159.52,-203 1173.06,-203"/>
<polygon fill="#63b8ff" stroke="#63b8ff" points="1173.25,-206.5 1183.25,-203 1173.25,-199.5 1173.25,-206.5"/>
</g>
<!-- Node34&#45;&gt;Node2 -->
<g id="edge46" class="edge">
<title>Node34&#45;&gt;Node2</title>
<path fill="none" stroke="#63b8ff" d="M259.85,-195.47C247.7,-195.83 234.52,-195.84 222.28,-195.51"/>
<polygon fill="#63b8ff" stroke="#63b8ff" points="222.38,-192.01 212.26,-195.16 222.13,-199.01 222.38,-192.01"/>
</g>
<!-- Node35&#45;&gt;Node2 -->
<g id="edge48" class="edge">
<title>Node35&#45;&gt;Node2</title>
<path fill="none" stroke="#63b8ff" d="M288.22,-161.51C271.56,-168.09 245.24,-176.21 222.22,-182.16"/>
<polygon fill="#63b8ff" stroke="#63b8ff" points="221.12,-178.83 212.26,-184.65 222.81,-185.62 221.12,-178.83"/>
</g>
</g>
</svg>
        <g id="navigator" transform="translate(0 0)" fill="#404254">
                <rect fill="#f2f5e9" fill-opacity="0.5" stroke="#606060" stroke-width=".5" x="0" y="0" width="60" height="60"/>
                <use id="zoomplus" xlink:href="#zoomPlus" x="17" y="9" onmousedown="handleZoom(evt,'in')"/>
                <use id="zoomminus" xlink:href="#zoomMin" x="42" y="9" onmousedown="handleZoom(evt,'out')"/>
                <use id="reset" xlink:href="#resetDef" x="30" y="36" onmousedown="handleReset()"/>
                <g id="arrowUp" xlink:href="#dirArrow" transform="translate(30 24)" onmousedown="handlePan(0,-1)">
                  <use xlink:href="#rim" fill="#404040">
                        <set attributeName="fill" to="#808080" begin="arrowUp.mouseover" end="arrowUp.mouseout"/>
                  </use>
                  <path fill="none" stroke="white" stroke-width="1.5" d="M0,-3.0v7 M-2.5,-0.5L0,-3.0L2.5,-0.5"/>
                </g>
                <g id="arrowRight" xlink:href="#dirArrow" transform="rotate(90) translate(36 -43)" onmousedown="handlePan(1,0)">
                  <use xlink:href="#rim" fill="#404040">
                        <set attributeName="fill" to="#808080" begin="arrowRight.mouseover" end="arrowRight.mouseout"/>
                  </use>
                  <path fill="none" stroke="white" stroke-width="1.5" d="M0,-3.0v7 M-2.5,-0.5L0,-3.0L2.5,-0.5"/>
                </g>
                <g id="arrowDown" xlink:href="#dirArrow" transform="rotate(180) translate(-30 -48)" onmousedown="handlePan(0,1)">
                  <use xlink:href="#rim" fill="#404040">
                        <set attributeName="fill" to="#808080" begin="arrowDown.mouseover" end="arrowDown.mouseout"/>
                  </use>
                  <path fill="none" stroke="white" stroke-width="1.5" d="M0,-3.0v7 M-2.5,-0.5L0,-3.0L2.5,-0.5"/>
                </g>
                <g id="arrowLeft" xlink:href="#dirArrow" transform="rotate(270) translate(-36 17)" onmousedown="handlePan(-1,0)">
                  <use xlink:href="#rim" fill="#404040">
                        <set attributeName="fill" to="#808080" begin="arrowLeft.mouseover" end="arrowLeft.mouseout"/>
                  </use>
                  <path fill="none" stroke="white" stroke-width="1.5" d="M0,-3.0v7 M-2.5,-0.5L0,-3.0L2.5,-0.5"/>
                </g>
        </g>
        <svg viewBox="0 0 15 15" width="100%" height="30px" preserveAspectRatio="xMaxYMin meet">
         <g id="arrow_out" transform="scale(0.3 0.3)">
          <a xlink:href="execute__subshell_8c_a40a27866de012b013a337f794a858d70_cgraph_org.svg" target="_base">
           <rect id="button" ry="5" rx="5" y="6" x="6" height="38" width="38"
                fill="#f2f5e9" fill-opacity="0.5" stroke="#606060" stroke-width="1.0"/>
           <path id="arrow"
             d="M 11.500037,31.436501 C 11.940474,20.09759 22.043105,11.32322 32.158766,21.979434 L 37.068811,17.246167 C 37.068811,17.246167 37.088388,32 37.088388,32 L 22.160133,31.978069 C 22.160133,31.978069 26.997745,27.140456 26.997745,27.140456 C 18.528582,18.264221 13.291696,25.230495 11.500037,31.436501 z"
             style="fill:#404040;"/>
          </a>
         </g>
        </svg>
</svg>
