<?xml version="1.0" encoding="UTF-8" standalone="no"?>
<!DOCTYPE svg PUBLIC "-//W3C//DTD SVG 1.1//EN"
 "http://www.w3.org/Graphics/SVG/1.1/DTD/svg11.dtd">
<!-- Generated by graphviz version 2.43.0 (0)
 -->
<!-- Title: run_command_substitution Pages: 1 -->
<svg width="1584pt" height="760pt"
 viewBox="0.00 0.00 1584.00 760.15" xmlns="http://www.w3.org/2000/svg" xmlns:xlink="http://www.w3.org/1999/xlink">
<g id="graph0" class="graph" transform="scale(1 1) rotate(0) translate(4 756.15)">
<title>run_command_substitution</title>
<!-- Node1 -->
<g id="node1" class="node">
<title>Node1</title>
<g id="a_node1"><a xlink:title=" ">
<polygon fill="#999999" stroke="#666666" points="149,-180.5 0,-180.5 0,-161.5 149,-161.5 149,-180.5"/>
<text text-anchor="middle" x="74.5" y="-168.5" font-family="Helvetica,sans-Serif" font-size="10.00">run_command_substitution</text>
</a>
</g>
</g>
<!-- Node2 -->
<g id="node2" class="node">
<title>Node2</title>
<g id="a_node2"><a xlink:href="shell_8c.html#afb5215a1775326d8976fd015f7832392" target="_top" xlink:title=" ">
<polygon fill="white" stroke="#666666" points="265,-180.5 185,-180.5 185,-161.5 265,-161.5 265,-180.5"/>
<text text-anchor="middle" x="225" y="-168.5" font-family="Helvetica,sans-Serif" font-size="10.00">handle_input</text>
</a>
</g>
</g>
<!-- Node1&#45;&gt;Node2 -->
<g id="edge1" class="edge">
<title>Node1&#45;&gt;Node2</title>
<path fill="none" stroke="#63b8ff" d="M149.31,-171C157.91,-171 166.52,-171 174.67,-171"/>
<polygon fill="#63b8ff" stroke="#63b8ff" points="174.72,-174.5 184.72,-171 174.72,-167.5 174.72,-174.5"/>
</g>
<!-- Node3 -->
<g id="node3" class="node">
<title>Node3</title>
<g id="a_node3"><a xlink:href="ast__destroy_8c.html#a04c67d7ab492f6e1e7bc44dc70faa057" target="_top" xlink:title=" ">
<polygon fill="white" stroke="#666666" points="1002,-199.5 928,-199.5 928,-180.5 1002,-180.5 1002,-199.5"/>
<text text-anchor="middle" x="965" y="-187.5" font-family="Helvetica,sans-Serif" font-size="10.00">ast_destroy</text>
</a>
</g>
</g>
<!-- Node2&#45;&gt;Node3 -->
<g id="edge2" class="edge">
<title>Node2&#45;&gt;Node3</title>
<path fill="none" stroke="#63b8ff" d="M253.94,-180.54C304.02,-196.77 412.67,-228 507,-228 507,-228 507,-228 663,-228 753.68,-228 858.53,-210.81 917.47,-199.56"/>
<polygon fill="#63b8ff" stroke="#63b8ff" points="918.43,-202.94 927.58,-197.6 917.1,-196.06 918.43,-202.94"/>
</g>
<!-- Node5 -->
<g id="node5" class="node">
<title>Node5</title>
<g id="a_node5"><a xlink:href="shell_8c.html#a74405478dadd73c0a4d1e5f3e8d2e3ef" target="_top" xlink:title=" ">
<polygon fill="white" stroke="#666666" points="414,-720 301,-720 301,-690 414,-690 414,-720"/>
<text text-anchor="start" x="309" y="-708" font-family="Helvetica,sans-Serif" font-size="10.00">destroy_parser_and</text>
<text text-anchor="middle" x="357.5" y="-697" font-family="Helvetica,sans-Serif" font-size="10.00">_lexer</text>
</a>
</g>
</g>
<!-- Node2&#45;&gt;Node5 -->
<g id="edge5" class="edge">
<title>Node2&#45;&gt;Node5</title>
<path fill="none" stroke="#63b8ff" d="M228.38,-180.72C243.54,-242.79 326.92,-583.97 350.37,-679.9"/>
<polygon fill="#63b8ff" stroke="#63b8ff" points="347.03,-680.99 352.8,-689.87 353.83,-679.32 347.03,-680.99"/>
</g>
<!-- Node9 -->
<g id="node9" class="node">
<title>Node9</title>
<g id="a_node9"><a xlink:href="execute__ast_8c.html#ad26a20a665ab7fdeb714ed53c1afd104" target="_top" xlink:title=" ">
<polygon fill="white" stroke="#666666" points="395,-425.5 320,-425.5 320,-406.5 395,-406.5 395,-425.5"/>
<text text-anchor="middle" x="357.5" y="-413.5" font-family="Helvetica,sans-Serif" font-size="10.00">execute_ast</text>
</a>
</g>
</g>
<!-- Node2&#45;&gt;Node9 -->
<g id="edge9" class="edge">
<title>Node2&#45;&gt;Node9</title>
<path fill="none" stroke="#63b8ff" d="M231.12,-180.6C250.65,-217.27 320.71,-348.82 346.71,-397.61"/>
<polygon fill="#63b8ff" stroke="#63b8ff" points="343.63,-399.28 351.42,-406.46 349.81,-395.99 343.63,-399.28"/>
</g>
<!-- Node43 -->
<g id="node33" class="node">
<title>Node43</title>
<g id="a_node33"><a xlink:href="shell_8c.html#a6e35892cfa82c5f227b10f37abc529e9" target="_top" xlink:title=" ">
<polygon fill="white" stroke="#666666" points="403,-180.5 312,-180.5 312,-161.5 403,-161.5 403,-180.5"/>
<text text-anchor="middle" x="357.5" y="-168.5" font-family="Helvetica,sans-Serif" font-size="10.00">handle_parsing</text>
</a>
</g>
</g>
<!-- Node2&#45;&gt;Node43 -->
<g id="edge45" class="edge">
<title>Node2&#45;&gt;Node43</title>
<path fill="none" stroke="#63b8ff" d="M265.15,-171C276.65,-171 289.44,-171 301.72,-171"/>
<polygon fill="#63b8ff" stroke="#63b8ff" points="301.88,-174.5 311.88,-171 301.88,-167.5 301.88,-174.5"/>
</g>
<!-- Node137 -->
<g id="node48" class="node">
<title>Node137</title>
<g id="a_node48"><a xlink:href="shell_8c.html#a1ce512725ee0371f8bf608a3ece0c152" target="_top" xlink:title=" ">
<polygon fill="white" stroke="#666666" points="722,-124.5 602,-124.5 602,-105.5 722,-105.5 722,-124.5"/>
<text text-anchor="middle" x="662" y="-112.5" font-family="Helvetica,sans-Serif" font-size="10.00">show_error_message</text>
</a>
</g>
</g>
<!-- Node2&#45;&gt;Node137 -->
<g id="edge72" class="edge">
<title>Node2&#45;&gt;Node137</title>
<path fill="none" stroke="#63b8ff" d="M259.77,-161.47C272.6,-158.1 287.4,-154.53 301,-152 401.08,-133.36 518.69,-123.49 591.55,-118.76"/>
<polygon fill="#63b8ff" stroke="#63b8ff" points="592.21,-122.23 601.96,-118.1 591.76,-115.24 592.21,-122.23"/>
</g>
<!-- Node138 -->
<g id="node49" class="node">
<title>Node138</title>
<g id="a_node49"><a xlink:href="lexer__init_8c.html#aee55447f2c8b083ed2614fa4f439f9cc" target="_top" xlink:title=" ">
<polygon fill="white" stroke="#666666" points="388.5,-86.5 326.5,-86.5 326.5,-67.5 388.5,-67.5 388.5,-86.5"/>
<text text-anchor="middle" x="357.5" y="-74.5" font-family="Helvetica,sans-Serif" font-size="10.00">lexer_init</text>
</a>
</g>
</g>
<!-- Node2&#45;&gt;Node138 -->
<g id="edge69" class="edge">
<title>Node2&#45;&gt;Node138</title>
<path fill="none" stroke="#63b8ff" d="M234.38,-161.28C247.41,-146.64 273.88,-118.75 301,-101 306.84,-97.18 313.4,-93.72 319.9,-90.7"/>
<polygon fill="#63b8ff" stroke="#63b8ff" points="321.53,-93.8 329.29,-86.59 318.73,-87.39 321.53,-93.8"/>
</g>
<!-- Node139 -->
<g id="node50" class="node">
<title>Node139</title>
<g id="a_node50"><a xlink:href="parser__init_8c.html#a7a5dc445fa057a393d0b94590acea2f1" target="_top" xlink:title=" ">
<polygon fill="white" stroke="#666666" points="999,-19.5 931,-19.5 931,-0.5 999,-0.5 999,-19.5"/>
<text text-anchor="middle" x="965" y="-7.5" font-family="Helvetica,sans-Serif" font-size="10.00">parser_init</text>
</a>
</g>
</g>
<!-- Node2&#45;&gt;Node139 -->
<g id="edge70" class="edge">
<title>Node2&#45;&gt;Node139</title>
<path fill="none" stroke="#63b8ff" d="M229.6,-161.45C238.33,-139.64 262.75,-85.87 301,-58 377.88,-1.99 411.88,0 507,0 507,0 507,0 663,0 754.74,0 862.13,-4.7 920.61,-7.65"/>
<polygon fill="#63b8ff" stroke="#63b8ff" points="920.44,-11.15 930.61,-8.17 920.8,-4.16 920.44,-11.15"/>
</g>
<!-- Node3&#45;&gt;Node3 -->
<g id="edge3" class="edge">
<title>Node3&#45;&gt;Node3</title>
<path fill="none" stroke="#63b8ff" d="M943.11,-199.58C932.47,-208.23 939.76,-217.5 965,-217.5 981.17,-217.5 989.97,-213.7 991.41,-208.69"/>
<polygon fill="#63b8ff" stroke="#63b8ff" points="994.47,-206.98 986.89,-199.58 988.2,-210.1 994.47,-206.98"/>
</g>
<!-- Node4 -->
<g id="node4" class="node">
<title>Node4</title>
<g id="a_node4"><a xlink:href="misc_8h.html#a1180cae2875b1fdcd58c9f9175a82c12" target="_top" xlink:title=" ">
<polygon fill="white" stroke="#666666" points="1166,-199.5 1049,-199.5 1049,-180.5 1166,-180.5 1166,-199.5"/>
<text text-anchor="middle" x="1107.5" y="-187.5" font-family="Helvetica,sans-Serif" font-size="10.00">my_free_word_array</text>
</a>
</g>
</g>
<!-- Node3&#45;&gt;Node4 -->
<g id="edge4" class="edge">
<title>Node3&#45;&gt;Node4</title>
<path fill="none" stroke="#63b8ff" d="M1002.18,-190C1013.41,-190 1026.17,-190 1038.82,-190"/>
<polygon fill="#63b8ff" stroke="#63b8ff" points="1038.91,-193.5 1048.91,-190 1038.91,-186.5 1038.91,-193.5"/>
</g>
<!-- Node6 -->
<g id="node6" class="node">
<title>Node6</title>
<g id="a_node6"><a xlink:href="lexer__init_8c.html#a592247dc9c102c884630b41389a1b38b" target="_top" xlink:title=" ">
<polygon fill="white" stroke="#666666" points="549.5,-714.5 466.5,-714.5 466.5,-695.5 549.5,-695.5 549.5,-714.5"/>
<text text-anchor="middle" x="508" y="-702.5" font-family="Helvetica,sans-Serif" font-size="10.00">lexer_destroy</text>
</a>
</g>
</g>
<!-- Node5&#45;&gt;Node6 -->
<g id="edge6" class="edge">
<title>Node5&#45;&gt;Node6</title>
<path fill="none" stroke="#63b8ff" d="M414.22,-705C427.99,-705 442.67,-705 456.2,-705"/>
<polygon fill="#63b8ff" stroke="#63b8ff" points="456.28,-708.5 466.28,-705 456.28,-701.5 456.28,-708.5"/>
</g>
<!-- Node7 -->
<g id="node7" class="node">
<title>Node7</title>
<g id="a_node7"><a xlink:href="parser__destroy_8c.html#ae2656460a6fc6b6cd65624312fe0c943" target="_top" xlink:title=" ">
<polygon fill="white" stroke="#666666" points="1152,-498.5 1063,-498.5 1063,-479.5 1152,-479.5 1152,-498.5"/>
<text text-anchor="middle" x="1107.5" y="-486.5" font-family="Helvetica,sans-Serif" font-size="10.00">parser_destroy</text>
</a>
</g>
</g>
<!-- Node5&#45;&gt;Node7 -->
<g id="edge7" class="edge">
<title>Node5&#45;&gt;Node7</title>
<path fill="none" stroke="#63b8ff" d="M414.13,-718.91C474.51,-732.77 573.97,-752 661,-752 661,-752 661,-752 820.5,-752 909.6,-752 945.71,-754.4 1013,-696 1071.65,-645.09 1095.4,-550 1103.23,-508.84"/>
<polygon fill="#63b8ff" stroke="#63b8ff" points="1106.68,-509.41 1105,-498.95 1099.79,-508.18 1106.68,-509.41"/>
</g>
<!-- Node8 -->
<g id="node8" class="node">
<title>Node8</title>
<g id="a_node8"><a xlink:href="destroy__token_8c.html#ad1a471ee7b1ccb035d769be1152a370c" target="_top" xlink:title=" ">
<polygon fill="white" stroke="#666666" points="1295,-198.5 1209,-198.5 1209,-179.5 1295,-179.5 1295,-198.5"/>
<text text-anchor="middle" x="1252" y="-186.5" font-family="Helvetica,sans-Serif" font-size="10.00">token_destroy</text>
</a>
</g>
</g>
<!-- Node7&#45;&gt;Node8 -->
<g id="edge8" class="edge">
<title>Node7&#45;&gt;Node8</title>
<path fill="none" stroke="#63b8ff" d="M1113.08,-479.36C1133.3,-436.78 1214.8,-265.2 1242.07,-207.81"/>
<polygon fill="#63b8ff" stroke="#63b8ff" points="1245.24,-209.29 1246.37,-198.76 1238.91,-206.29 1245.24,-209.29"/>
</g>
<!-- Node10 -->
<g id="node10" class="node">
<title>Node10</title>
<g id="a_node10"><a xlink:href="execute__cmd_8c.html#a94ea9cc5a046ce96e36764bf0e4fa2c0" target="_top" xlink:title=" ">
<polygon fill="white" stroke="#666666" points="548.5,-668.5 467.5,-668.5 467.5,-649.5 548.5,-649.5 548.5,-668.5"/>
<text text-anchor="middle" x="508" y="-656.5" font-family="Helvetica,sans-Serif" font-size="10.00">execute_cmd</text>
</a>
</g>
</g>
<!-- Node9&#45;&gt;Node10 -->
<g id="edge10" class="edge">
<title>Node9&#45;&gt;Node10</title>
<path fill="none" stroke="#63b8ff" d="M360.98,-425.81C369.2,-456.85 398.04,-554.56 450,-618 458.3,-628.14 469.69,-636.99 480.1,-643.85"/>
<polygon fill="#63b8ff" stroke="#63b8ff" points="478.56,-647.02 488.89,-649.35 482.27,-641.08 478.56,-647.02"/>
</g>
<!-- Node25 -->
<g id="node17" class="node">
<title>Node25</title>
<g id="a_node17"><a xlink:href="execute__logical__and_8c.html#a4f940752faf9f9a258c49810b21efe47" target="_top" xlink:title=" ">
<polygon fill="white" stroke="#666666" points="566,-462.5 450,-462.5 450,-443.5 566,-443.5 566,-462.5"/>
<text text-anchor="middle" x="508" y="-450.5" font-family="Helvetica,sans-Serif" font-size="10.00">execute_logical_and</text>
</a>
</g>
</g>
<!-- Node9&#45;&gt;Node25 -->
<g id="edge18" class="edge">
<title>Node9&#45;&gt;Node25</title>
<path fill="none" stroke="#63b8ff" d="M395.21,-419.23C420.65,-424.33 454.06,-432.8 477.71,-440.2"/>
<polygon fill="#63b8ff" stroke="#63b8ff" points="476.92,-443.63 487.51,-443.41 479.1,-436.97 476.92,-443.63"/>
</g>
<!-- Node26 -->
<g id="node18" class="node">
<title>Node26</title>
<g id="a_node18"><a xlink:href="execute__logical__or_8c.html#a7e732d7c30b07010fa55850051007dcc" target="_top" xlink:title=" ">
<polygon fill="white" stroke="#666666" points="561.5,-425.5 454.5,-425.5 454.5,-406.5 561.5,-406.5 561.5,-425.5"/>
<text text-anchor="middle" x="508" y="-413.5" font-family="Helvetica,sans-Serif" font-size="10.00">execute_logical_or</text>
</a>
</g>
</g>
<!-- Node9&#45;&gt;Node26 -->
<g id="edge20" class="edge">
<title>Node9&#45;&gt;Node26</title>
<path fill="none" stroke="#63b8ff" d="M395.21,-410.08C410,-409.36 427.5,-409.11 444.2,-409.32"/>
<polygon fill="#63b8ff" stroke="#63b8ff" points="444.4,-412.83 454.46,-409.51 444.53,-405.83 444.4,-412.83"/>
</g>
<!-- Node27 -->
<g id="node19" class="node">
<title>Node27</title>
<g id="a_node19"><a xlink:href="execute__pipe_8c.html#a5f3546dc2c7cf06c982afba41e722164" target="_top" xlink:title=" ">
<polygon fill="white" stroke="#666666" points="548.5,-575.5 467.5,-575.5 467.5,-556.5 548.5,-556.5 548.5,-575.5"/>
<text text-anchor="middle" x="508" y="-563.5" font-family="Helvetica,sans-Serif" font-size="10.00">execute_pipe</text>
</a>
</g>
</g>
<!-- Node9&#45;&gt;Node27 -->
<g id="edge22" class="edge">
<title>Node9&#45;&gt;Node27</title>
<path fill="none" stroke="#63b8ff" d="M363.11,-425.58C374.66,-448.65 407,-507.89 450,-542 454.97,-545.94 460.68,-549.34 466.52,-552.24"/>
<polygon fill="#63b8ff" stroke="#63b8ff" points="465.18,-555.47 475.73,-556.39 468.05,-549.09 465.18,-555.47"/>
</g>
<!-- Node32 -->
<g id="node26" class="node">
<title>Node32</title>
<g id="a_node26"><a xlink:href="execute__redirect_8c.html#a1004307aba80117ddd99f009e52fb155" target="_top" xlink:title=" ">
<polygon fill="white" stroke="#666666" points="557,-388.5 459,-388.5 459,-369.5 557,-369.5 557,-388.5"/>
<text text-anchor="middle" x="508" y="-376.5" font-family="Helvetica,sans-Serif" font-size="10.00">execute_redirect</text>
</a>
</g>
</g>
<!-- Node9&#45;&gt;Node32 -->
<g id="edge33" class="edge">
<title>Node9&#45;&gt;Node32</title>
<path fill="none" stroke="#63b8ff" d="M395.21,-406.85C414.4,-402.07 438.13,-396.16 458.78,-391.01"/>
<polygon fill="#63b8ff" stroke="#63b8ff" points="459.79,-394.37 468.64,-388.56 458.09,-387.58 459.79,-394.37"/>
</g>
<!-- Node40 -->
<g id="node30" class="node">
<title>Node40</title>
<g id="a_node30"><a xlink:href="execute__repeat_8c.html#a00d48683c54b50130b4a402e6e97fa97" target="_top" xlink:title=" ">
<polygon fill="white" stroke="#666666" points="554,-312.5 462,-312.5 462,-293.5 554,-293.5 554,-312.5"/>
<text text-anchor="middle" x="508" y="-300.5" font-family="Helvetica,sans-Serif" font-size="10.00">execute_repeat</text>
</a>
</g>
</g>
<!-- Node9&#45;&gt;Node40 -->
<g id="edge38" class="edge">
<title>Node9&#45;&gt;Node40</title>
<path fill="none" stroke="#63b8ff" d="M362.89,-406.3C375.19,-386.3 411.57,-343.45 450,-318 450.94,-317.38 451.9,-316.77 452.87,-316.17"/>
<polygon fill="#63b8ff" stroke="#63b8ff" points="454.95,-319.02 461.98,-311.09 451.54,-312.9 454.95,-319.02"/>
</g>
<!-- Node41 -->
<g id="node31" class="node">
<title>Node41</title>
<g id="a_node31"><a xlink:href="execute__sequence_8c.html#aad2caa5bf50b0752dd8272da477ec231" target="_top" xlink:title=" ">
<polygon fill="white" stroke="#666666" points="561.5,-275.5 454.5,-275.5 454.5,-256.5 561.5,-256.5 561.5,-275.5"/>
<text text-anchor="middle" x="508" y="-263.5" font-family="Helvetica,sans-Serif" font-size="10.00">execute_sequence</text>
</a>
</g>
</g>
<!-- Node9&#45;&gt;Node41 -->
<g id="edge40" class="edge">
<title>Node9&#45;&gt;Node41</title>
<path fill="none" stroke="#63b8ff" d="M360.95,-406.36C369.25,-381.52 398.23,-317.94 446.24,-278.41"/>
<polygon fill="#63b8ff" stroke="#63b8ff" points="448.69,-280.94 454.43,-272.04 444.39,-275.41 448.69,-280.94"/>
</g>
<!-- Node42 -->
<g id="node32" class="node">
<title>Node42</title>
<g id="a_node32"><a xlink:href="execute__subshell_8c.html#a40a27866de012b013a337f794a858d70" target="_top" xlink:title=" ">
<polygon fill="white" stroke="#666666" points="558.5,-499.5 457.5,-499.5 457.5,-480.5 558.5,-480.5 558.5,-499.5"/>
<text text-anchor="middle" x="508" y="-487.5" font-family="Helvetica,sans-Serif" font-size="10.00">execute_subshell</text>
</a>
</g>
</g>
<!-- Node9&#45;&gt;Node42 -->
<g id="edge42" class="edge">
<title>Node9&#45;&gt;Node42</title>
<path fill="none" stroke="#63b8ff" d="M382.84,-425.66C400.77,-436.23 426.1,-452.11 450,-463 461.45,-468.22 474.84,-472.53 485.76,-476.58"/>
<polygon fill="#63b8ff" stroke="#63b8ff" points="484.75,-479.95 495.34,-480.41 487.35,-473.45 484.75,-479.95"/>
</g>
<!-- Node11 -->
<g id="node11" class="node">
<title>Node11</title>
<g id="a_node11"><a xlink:href="execute__cmd_8c.html#a0cfd2364134e68efdd39533e00b4b0d9" target="_top" xlink:title=" ">
<polygon fill="white" stroke="#666666" points="721.5,-649.5 602.5,-649.5 602.5,-630.5 721.5,-630.5 721.5,-649.5"/>
<text text-anchor="middle" x="662" y="-637.5" font-family="Helvetica,sans-Serif" font-size="10.00">execute_local_binary</text>
</a>
</g>
</g>
<!-- Node10&#45;&gt;Node11 -->
<g id="edge11" class="edge">
<title>Node10&#45;&gt;Node11</title>
<path fill="none" stroke="#63b8ff" d="M548.54,-654.06C561.9,-652.39 577.24,-650.47 592.2,-648.6"/>
<polygon fill="#63b8ff" stroke="#63b8ff" points="592.98,-652.03 602.47,-647.32 592.11,-645.08 592.98,-652.03"/>
</g>
<!-- Node19 -->
<g id="node13" class="node">
<title>Node19</title>
<g id="a_node13"><a xlink:href="execute__cmd_8c.html#a460126af28ab29df4340554fae9fc57a" target="_top" xlink:title=" ">
<polygon fill="white" stroke="#666666" points="721,-686.5 603,-686.5 603,-667.5 721,-667.5 721,-686.5"/>
<text text-anchor="middle" x="662" y="-674.5" font-family="Helvetica,sans-Serif" font-size="10.00">execute_path_binary</text>
</a>
</g>
</g>
<!-- Node10&#45;&gt;Node19 -->
<g id="edge13" class="edge">
<title>Node10&#45;&gt;Node19</title>
<path fill="none" stroke="#63b8ff" d="M548.54,-663.68C561.98,-665.27 577.4,-667.1 592.44,-668.88"/>
<polygon fill="#63b8ff" stroke="#63b8ff" points="592.42,-672.4 602.76,-670.1 593.24,-665.45 592.42,-672.4"/>
</g>
<!-- Node24 -->
<g id="node16" class="node">
<title>Node24</title>
<g id="a_node16"><a xlink:href="strings_8h.html#a36f055c4e56c8a784629908d0c5b91e5" target="_top" xlink:title=" ">
<polygon fill="white" stroke="#666666" points="714,-723.5 610,-723.5 610,-704.5 714,-704.5 714,-723.5"/>
<text text-anchor="middle" x="662" y="-711.5" font-family="Helvetica,sans-Serif" font-size="10.00">my_is_char_in_str</text>
</a>
</g>
</g>
<!-- Node10&#45;&gt;Node24 -->
<g id="edge17" class="edge">
<title>Node10&#45;&gt;Node24</title>
<path fill="none" stroke="#63b8ff" d="M531.73,-668.65C550.44,-676.45 577.73,-687.49 602,-696 607.24,-697.84 612.78,-699.67 618.28,-701.43"/>
<polygon fill="#63b8ff" stroke="#63b8ff" points="617.49,-704.84 628.08,-704.48 619.57,-698.16 617.49,-704.84"/>
</g>
<!-- Node12 -->
<g id="node12" class="node">
<title>Node12</title>
<g id="a_node12"><a xlink:href="execute__cmd_8c.html#a018afe6a043051ebc2e3dd9412587990" target="_top" xlink:title=" ">
<polygon fill="#fff0f0" stroke="red" points="1010.5,-686.5 919.5,-686.5 919.5,-667.5 1010.5,-667.5 1010.5,-686.5"/>
<text text-anchor="middle" x="965" y="-674.5" font-family="Helvetica,sans-Serif" font-size="10.00">execute_binary</text>
</a>
</g>
</g>
<!-- Node11&#45;&gt;Node12 -->
<g id="edge12" class="edge">
<title>Node11&#45;&gt;Node12</title>
<path fill="none" stroke="#63b8ff" d="M721.53,-643.08C765.56,-645.89 827.29,-650.87 881,-659 892.05,-660.67 903.83,-662.93 914.95,-665.29"/>
<polygon fill="#63b8ff" stroke="#63b8ff" points="914.41,-668.75 924.92,-667.46 915.9,-661.91 914.41,-668.75"/>
</g>
<!-- Node20 -->
<g id="node14" class="node">
<title>Node20</title>
<g id="a_node14"><a xlink:href="get__variable__value_8c.html#a2edd9900f19af236aa05385a789be3d6" target="_top" xlink:title=" ">
<polygon fill="#fff0f0" stroke="red" points="874.5,-686.5 764.5,-686.5 764.5,-667.5 874.5,-667.5 874.5,-686.5"/>
<text text-anchor="middle" x="819.5" y="-674.5" font-family="Helvetica,sans-Serif" font-size="10.00">get_variable_value</text>
</a>
</g>
</g>
<!-- Node19&#45;&gt;Node20 -->
<g id="edge14" class="edge">
<title>Node19&#45;&gt;Node20</title>
<path fill="none" stroke="#63b8ff" d="M721.34,-677C732.06,-677 743.29,-677 754.16,-677"/>
<polygon fill="#63b8ff" stroke="#63b8ff" points="754.45,-680.5 764.45,-677 754.45,-673.5 754.45,-680.5"/>
</g>
<!-- Node22 -->
<g id="node15" class="node">
<title>Node22</title>
<g id="a_node15"><a xlink:href="execute__cmd_8c.html#aee9e13edede9df28fac066f30e7ae7ed" target="_top" xlink:title=" ">
<polygon fill="#fff0f0" stroke="red" points="861.5,-723.5 777.5,-723.5 777.5,-704.5 861.5,-704.5 861.5,-723.5"/>
<text text-anchor="middle" x="819.5" y="-711.5" font-family="Helvetica,sans-Serif" font-size="10.00">try_command</text>
</a>
</g>
</g>
<!-- Node19&#45;&gt;Node22 -->
<g id="edge15" class="edge">
<title>Node19&#45;&gt;Node22</title>
<path fill="none" stroke="#63b8ff" d="M703.05,-686.53C723.01,-691.28 747.35,-697.07 768.53,-702.11"/>
<polygon fill="#63b8ff" stroke="#63b8ff" points="767.78,-705.53 778.32,-704.44 769.4,-698.72 767.78,-705.53"/>
</g>
<!-- Node22&#45;&gt;Node12 -->
<g id="edge16" class="edge">
<title>Node22&#45;&gt;Node12</title>
<path fill="none" stroke="#63b8ff" d="M857.45,-704.47C875.56,-699.8 897.56,-694.13 916.86,-689.15"/>
<polygon fill="#63b8ff" stroke="#63b8ff" points="917.86,-692.51 926.67,-686.62 916.11,-685.73 917.86,-692.51"/>
</g>
<!-- Node25&#45;&gt;Node9 -->
<g id="edge19" class="edge">
<title>Node25&#45;&gt;Node9</title>
<path fill="none" stroke="#63b8ff" d="M449.77,-445.33C428.54,-440.45 405.34,-434.3 387.64,-428.75"/>
<polygon fill="#63b8ff" stroke="#63b8ff" points="388.51,-425.35 377.91,-425.57 386.33,-432.01 388.51,-425.35"/>
</g>
<!-- Node26&#45;&gt;Node9 -->
<g id="edge21" class="edge">
<title>Node26&#45;&gt;Node9</title>
<path fill="none" stroke="#63b8ff" d="M454.46,-422.49C438.55,-422.88 421.17,-422.83 405.63,-422.33"/>
<polygon fill="#63b8ff" stroke="#63b8ff" points="405.34,-418.82 395.21,-421.92 405.06,-425.81 405.34,-418.82"/>
</g>
<!-- Node28 -->
<g id="node20" class="node">
<title>Node28</title>
<g id="a_node20"><a xlink:href="execute__pipe_8c.html#a723ff799f939872d17f109a82342294e" target="_top" xlink:title=" ">
<polygon fill="white" stroke="#666666" points="850.5,-574.5 788.5,-574.5 788.5,-555.5 850.5,-555.5 850.5,-574.5"/>
<text text-anchor="middle" x="819.5" y="-562.5" font-family="Helvetica,sans-Serif" font-size="10.00">close_fds</text>
</a>
</g>
</g>
<!-- Node27&#45;&gt;Node28 -->
<g id="edge23" class="edge">
<title>Node27&#45;&gt;Node28</title>
<path fill="none" stroke="#63b8ff" d="M548.51,-565.87C607.7,-565.68 718.77,-565.32 778.34,-565.13"/>
<polygon fill="#63b8ff" stroke="#63b8ff" points="778.5,-568.63 788.49,-565.1 778.48,-561.63 778.5,-568.63"/>
</g>
<!-- Node29 -->
<g id="node21" class="node">
<title>Node29</title>
<g id="a_node21"><a xlink:href="execute__pipe_8c.html#ac529ffc2370b0133613ef8a81e58ed85" target="_top" xlink:title=" ">
<polygon fill="white" stroke="#666666" points="713,-612.5 611,-612.5 611,-593.5 713,-593.5 713,-612.5"/>
<text text-anchor="middle" x="662" y="-600.5" font-family="Helvetica,sans-Serif" font-size="10.00">execute_pipe_left</text>
</a>
</g>
</g>
<!-- Node27&#45;&gt;Node29 -->
<g id="edge24" class="edge">
<title>Node27&#45;&gt;Node29</title>
<path fill="none" stroke="#63b8ff" d="M548.14,-575.53C567.57,-580.26 591.24,-586.02 611.87,-591.04"/>
<polygon fill="#63b8ff" stroke="#63b8ff" points="611.18,-594.48 621.72,-593.44 612.84,-587.67 611.18,-594.48"/>
</g>
<!-- Node30 -->
<g id="node22" class="node">
<title>Node30</title>
<g id="a_node22"><a xlink:href="execute__pipe_8c.html#a9ed6eabb8a9f7049f91265a5f45e30c8" target="_top" xlink:title=" ">
<polygon fill="white" stroke="#666666" points="716.5,-536.5 607.5,-536.5 607.5,-517.5 716.5,-517.5 716.5,-536.5"/>
<text text-anchor="middle" x="662" y="-524.5" font-family="Helvetica,sans-Serif" font-size="10.00">execute_pipe_right</text>
</a>
</g>
</g>
<!-- Node27&#45;&gt;Node30 -->
<g id="edge27" class="edge">
<title>Node27&#45;&gt;Node30</title>
<path fill="none" stroke="#63b8ff" d="M546.18,-556.46C566.69,-551.2 592.34,-544.62 614.2,-539.01"/>
<polygon fill="#63b8ff" stroke="#63b8ff" points="615.12,-542.39 623.94,-536.51 613.38,-535.6 615.12,-542.39"/>
</g>
<!-- Node17 -->
<g id="node24" class="node">
<title>Node17</title>
<g id="a_node24"><a xlink:href="wait__for__subprocess_8c.html#a1242d78540fd0ddef3d98a9f294cb0d4" target="_top" xlink:title=" ">
<polygon fill="white" stroke="#666666" points="720,-499.5 604,-499.5 604,-480.5 720,-480.5 720,-499.5"/>
<text text-anchor="middle" x="662" y="-487.5" font-family="Helvetica,sans-Serif" font-size="10.00">wait_for_subprocess</text>
</a>
</g>
</g>
<!-- Node27&#45;&gt;Node17 -->
<g id="edge31" class="edge">
<title>Node27&#45;&gt;Node17</title>
<path fill="none" stroke="#63b8ff" d="M522.3,-556.44C539.86,-544.15 572.06,-522.76 602,-509 606.71,-506.84 611.73,-504.82 616.78,-502.96"/>
<polygon fill="#63b8ff" stroke="#63b8ff" points="618.17,-506.18 626.47,-499.6 615.87,-499.57 618.17,-506.18"/>
</g>
<!-- Node29&#45;&gt;Node9 -->
<g id="edge26" class="edge">
<title>Node29&#45;&gt;Node9</title>
<path fill="none" stroke="#63b8ff" d="M610.65,-611.38C564.97,-616.23 497.67,-616.22 450,-585 396.38,-549.88 371.7,-472.29 362.73,-435.75"/>
<polygon fill="#63b8ff" stroke="#63b8ff" points="366.1,-434.78 360.44,-425.83 359.28,-436.36 366.1,-434.78"/>
</g>
<!-- Node29&#45;&gt;Node28 -->
<g id="edge25" class="edge">
<title>Node29&#45;&gt;Node28</title>
<path fill="none" stroke="#63b8ff" d="M702.24,-593.41C725.44,-587.74 754.76,-580.58 778.15,-574.86"/>
<polygon fill="#63b8ff" stroke="#63b8ff" points="779.22,-578.2 788.1,-572.43 777.56,-571.4 779.22,-578.2"/>
</g>
<!-- Node30&#45;&gt;Node9 -->
<g id="edge29" class="edge">
<title>Node30&#45;&gt;Node9</title>
<path fill="none" stroke="#63b8ff" d="M607.21,-532.41C562.92,-534.57 499.58,-532.3 450,-509 414.66,-492.39 385.43,-455.99 370.1,-433.97"/>
<polygon fill="#63b8ff" stroke="#63b8ff" points="372.9,-431.86 364.41,-425.52 367.09,-435.77 372.9,-431.86"/>
</g>
<!-- Node30&#45;&gt;Node28 -->
<g id="edge28" class="edge">
<title>Node30&#45;&gt;Node28</title>
<path fill="none" stroke="#63b8ff" d="M702.24,-536.59C725.44,-542.26 754.76,-549.42 778.15,-555.14"/>
<polygon fill="#63b8ff" stroke="#63b8ff" points="777.56,-558.6 788.1,-557.57 779.22,-551.8 777.56,-558.6"/>
</g>
<!-- Node31 -->
<g id="node23" class="node">
<title>Node31</title>
<g id="a_node23"><a xlink:href="execute__pipe_8c.html#ac3d3a124b262676fa0679720f99a7f83" target="_top" xlink:title=" ">
<polygon fill="white" stroke="#666666" points="859.5,-536.5 779.5,-536.5 779.5,-517.5 859.5,-517.5 859.5,-536.5"/>
<text text-anchor="middle" x="819.5" y="-524.5" font-family="Helvetica,sans-Serif" font-size="10.00">restore_stdin</text>
</a>
</g>
</g>
<!-- Node30&#45;&gt;Node31 -->
<g id="edge30" class="edge">
<title>Node30&#45;&gt;Node31</title>
<path fill="none" stroke="#63b8ff" d="M716.51,-527C733.54,-527 752.29,-527 769.01,-527"/>
<polygon fill="#63b8ff" stroke="#63b8ff" points="769.13,-530.5 779.13,-527 769.13,-523.5 769.13,-530.5"/>
</g>
<!-- Node18 -->
<g id="node25" class="node">
<title>Node18</title>
<g id="a_node25"><a xlink:href="wait__for__subprocess_8c.html#a885766ba6ba593b7cf27b917dd52b1a6" target="_top" xlink:title=" ">
<polygon fill="white" stroke="#666666" points="881,-499.5 758,-499.5 758,-480.5 881,-480.5 881,-499.5"/>
<text text-anchor="middle" x="819.5" y="-487.5" font-family="Helvetica,sans-Serif" font-size="10.00">print_signal_message</text>
</a>
</g>
</g>
<!-- Node17&#45;&gt;Node18 -->
<g id="edge32" class="edge">
<title>Node17&#45;&gt;Node18</title>
<path fill="none" stroke="#63b8ff" d="M720.02,-490C729.06,-490 738.5,-490 747.81,-490"/>
<polygon fill="#63b8ff" stroke="#63b8ff" points="747.83,-493.5 757.83,-490 747.83,-486.5 747.83,-493.5"/>
</g>
<!-- Node33 -->
<g id="node27" class="node">
<title>Node33</title>
<g id="a_node27"><a xlink:href="execute__redirect_8c.html#a5aa0f008806cc0e8a7ba252d61b7001f" target="_top" xlink:title=" ">
<polygon fill="white" stroke="#666666" points="715.5,-369.5 608.5,-369.5 608.5,-350.5 715.5,-350.5 715.5,-369.5"/>
<text text-anchor="middle" x="662" y="-357.5" font-family="Helvetica,sans-Serif" font-size="10.00">redirect_execution</text>
</a>
</g>
</g>
<!-- Node32&#45;&gt;Node33 -->
<g id="edge34" class="edge">
<title>Node32&#45;&gt;Node33</title>
<path fill="none" stroke="#63b8ff" d="M557.09,-372.99C570.25,-371.34 584.71,-369.54 598.54,-367.81"/>
<polygon fill="#63b8ff" stroke="#63b8ff" points="598.99,-371.28 608.48,-366.57 598.12,-364.33 598.99,-371.28"/>
</g>
<!-- Node33&#45;&gt;Node9 -->
<g id="edge35" class="edge">
<title>Node33&#45;&gt;Node9</title>
<path fill="none" stroke="#63b8ff" d="M608.34,-352.62C564.99,-348.35 502.38,-346.33 450,-361 422.79,-368.62 395.55,-386.66 377.95,-400.02"/>
<polygon fill="#63b8ff" stroke="#63b8ff" points="375.4,-397.57 369.68,-406.49 379.71,-403.08 375.4,-397.57"/>
</g>
<!-- Node34 -->
<g id="node28" class="node">
<title>Node34</title>
<g id="a_node28"><a xlink:href="execute__redirect_8c.html#a1b8f325fc375581f81ae47a54e09cf0e" target="_top" xlink:title=" ">
<polygon fill="white" stroke="#666666" points="852.5,-388.5 786.5,-388.5 786.5,-369.5 852.5,-369.5 852.5,-388.5"/>
<text text-anchor="middle" x="819.5" y="-376.5" font-family="Helvetica,sans-Serif" font-size="10.00">restore_fd</text>
</a>
</g>
</g>
<!-- Node33&#45;&gt;Node34 -->
<g id="edge36" class="edge">
<title>Node33&#45;&gt;Node34</title>
<path fill="none" stroke="#63b8ff" d="M715.65,-366.43C735.42,-368.85 757.62,-371.56 776.32,-373.85"/>
<polygon fill="#63b8ff" stroke="#63b8ff" points="775.96,-377.33 786.32,-375.07 776.81,-370.38 775.96,-377.33"/>
</g>
<!-- Node35 -->
<g id="node29" class="node">
<title>Node35</title>
<g id="a_node29"><a xlink:href="execute__redirect_8c.html#a6cb002bd51f2009eaacc66d388c5f9a7" target="_top" xlink:title=" ">
<polygon fill="#fff0f0" stroke="red" points="870,-351.5 769,-351.5 769,-332.5 870,-332.5 870,-351.5"/>
<text text-anchor="middle" x="819.5" y="-339.5" font-family="Helvetica,sans-Serif" font-size="10.00">setup_redirection</text>
</a>
</g>
</g>
<!-- Node33&#45;&gt;Node35 -->
<g id="edge37" class="edge">
<title>Node33&#45;&gt;Node35</title>
<path fill="none" stroke="#63b8ff" d="M715.65,-353.91C729.47,-352.31 744.48,-350.57 758.66,-348.93"/>
<polygon fill="#63b8ff" stroke="#63b8ff" points="759.27,-352.38 768.8,-347.75 758.46,-345.43 759.27,-352.38"/>
</g>
<!-- Node40&#45;&gt;Node9 -->
<g id="edge39" class="edge">
<title>Node40&#45;&gt;Node9</title>
<path fill="none" stroke="#63b8ff" d="M496.33,-312.71C484.42,-318.99 464.86,-326.16 450,-336 422.6,-354.15 396.24,-381.13 378.91,-398.88"/>
<polygon fill="#63b8ff" stroke="#63b8ff" points="376.12,-396.73 371.61,-406.32 381.12,-401.63 376.12,-396.73"/>
</g>
<!-- Node41&#45;&gt;Node9 -->
<g id="edge41" class="edge">
<title>Node41&#45;&gt;Node9</title>
<path fill="none" stroke="#63b8ff" d="M490.72,-275.63C478.56,-279.55 462.03,-284.13 450,-293 411.82,-321.15 383.98,-370.17 369.59,-397.26"/>
<polygon fill="#63b8ff" stroke="#63b8ff" points="366.47,-395.69 364.91,-406.17 372.66,-398.94 366.47,-395.69"/>
</g>
<!-- Node42&#45;&gt;Node9 -->
<g id="edge43" class="edge">
<title>Node42&#45;&gt;Node9</title>
<path fill="none" stroke="#63b8ff" d="M457.29,-484.1C454.8,-483.11 452.36,-482.08 450,-481 421.16,-467.86 390.24,-447.45 372.74,-432.59"/>
<polygon fill="#63b8ff" stroke="#63b8ff" points="375.04,-429.96 365.29,-425.8 370.32,-435.13 375.04,-429.96"/>
</g>
<!-- Node42&#45;&gt;Node17 -->
<g id="edge44" class="edge">
<title>Node42&#45;&gt;Node17</title>
<path fill="none" stroke="#63b8ff" d="M558.77,-490C569.95,-490 582,-490 593.76,-490"/>
<polygon fill="#63b8ff" stroke="#63b8ff" points="594,-493.5 604,-490 594,-486.5 594,-493.5"/>
</g>
<!-- Node44 -->
<g id="node34" class="node">
<title>Node44</title>
<g id="a_node34"><a xlink:href="empty__stdin_8c.html#a4c89df10296f2cc245e3a32065e04e7b" target="_top" xlink:title=" ">
<polygon fill="white" stroke="#666666" points="546.5,-199.5 469.5,-199.5 469.5,-180.5 546.5,-180.5 546.5,-199.5"/>
<text text-anchor="middle" x="508" y="-187.5" font-family="Helvetica,sans-Serif" font-size="10.00">empty_stdin</text>
</a>
</g>
</g>
<!-- Node43&#45;&gt;Node44 -->
<g id="edge46" class="edge">
<title>Node43&#45;&gt;Node44</title>
<path fill="none" stroke="#63b8ff" d="M403.05,-176.7C420.85,-178.98 441.37,-181.6 459.45,-183.92"/>
<polygon fill="#63b8ff" stroke="#63b8ff" points="459.13,-187.4 469.49,-185.2 460.02,-180.46 459.13,-187.4"/>
</g>
<!-- Node45 -->
<g id="node35" class="node">
<title>Node45</title>
<g id="a_node35"><a xlink:href="shell_8c.html#a2c9bd51744387dc73763281019d78622" target="_top" xlink:title=" ">
<polygon fill="white" stroke="#666666" points="540,-162.5 476,-162.5 476,-143.5 540,-143.5 540,-162.5"/>
<text text-anchor="middle" x="508" y="-150.5" font-family="Helvetica,sans-Serif" font-size="10.00">parse_ast</text>
</a>
</g>
</g>
<!-- Node43&#45;&gt;Node45 -->
<g id="edge47" class="edge">
<title>Node43&#45;&gt;Node45</title>
<path fill="none" stroke="#63b8ff" d="M403.05,-165.6C422.9,-163.19 446.13,-160.38 465.59,-158.02"/>
<polygon fill="#63b8ff" stroke="#63b8ff" points="466.17,-161.48 475.67,-156.8 465.33,-154.53 466.17,-161.48"/>
</g>
<!-- Node46 -->
<g id="node36" class="node">
<title>Node46</title>
<g id="a_node36"><a xlink:href="parser__parse_8c.html#ab56c1f0e36fe941facfe258418c2cc72" target="_top" xlink:title=" ">
<polygon fill="white" stroke="#666666" points="702,-161.5 622,-161.5 622,-142.5 702,-142.5 702,-161.5"/>
<text text-anchor="middle" x="662" y="-149.5" font-family="Helvetica,sans-Serif" font-size="10.00">parser_parse</text>
</a>
</g>
</g>
<!-- Node45&#45;&gt;Node46 -->
<g id="edge48" class="edge">
<title>Node45&#45;&gt;Node46</title>
<path fill="none" stroke="#63b8ff" d="M540.13,-152.8C560.71,-152.66 588.12,-152.48 611.64,-152.32"/>
<polygon fill="#63b8ff" stroke="#63b8ff" points="611.82,-155.82 621.79,-152.26 611.77,-148.82 611.82,-155.82"/>
</g>
<!-- Node45&#45;&gt;Node137 -->
<g id="edge68" class="edge">
<title>Node45&#45;&gt;Node137</title>
<path fill="none" stroke="#63b8ff" d="M540.13,-145.22C561.1,-139.97 589.18,-132.95 613,-127"/>
<polygon fill="#63b8ff" stroke="#63b8ff" points="614.06,-130.34 622.91,-124.52 612.36,-123.55 614.06,-130.34"/>
</g>
<!-- Node46&#45;&gt;Node3 -->
<g id="edge49" class="edge">
<title>Node46&#45;&gt;Node3</title>
<path fill="none" stroke="#63b8ff" d="M702.15,-160.24C719.24,-163.63 739.55,-167.36 758,-170 812.6,-177.81 875.78,-183.44 917.63,-186.7"/>
<polygon fill="#63b8ff" stroke="#63b8ff" points="917.55,-190.21 927.79,-187.48 918.08,-183.23 917.55,-190.21"/>
</g>
<!-- Node47 -->
<g id="node37" class="node">
<title>Node47</title>
<g id="a_node37"><a xlink:href="parse__sequence_8c.html#a1b3273ce0047a9f5b34da07c8ba9eb3e" target="_top" xlink:title=" ">
<polygon fill="#fff0f0" stroke="red" points="867,-161.5 772,-161.5 772,-142.5 867,-142.5 867,-161.5"/>
<text text-anchor="middle" x="819.5" y="-149.5" font-family="Helvetica,sans-Serif" font-size="10.00">parse_sequence</text>
</a>
</g>
</g>
<!-- Node46&#45;&gt;Node47 -->
<g id="edge50" class="edge">
<title>Node46&#45;&gt;Node47</title>
<path fill="none" stroke="#63b8ff" d="M702.24,-152C720.24,-152 741.94,-152 761.68,-152"/>
<polygon fill="#63b8ff" stroke="#63b8ff" points="761.8,-155.5 771.8,-152 761.8,-148.5 761.8,-155.5"/>
</g>
<!-- Node135 -->
<g id="node38" class="node">
<title>Node135</title>
<g id="a_node38"><a xlink:href="parser__utils_8c.html#aef41660a9d240250899e27f88cd21e2c" target="_top" xlink:title=" ">
<polygon fill="#fff0f0" stroke="red" points="1012,-123.5 918,-123.5 918,-104.5 1012,-104.5 1012,-123.5"/>
<text text-anchor="middle" x="965" y="-111.5" font-family="Helvetica,sans-Serif" font-size="10.00">skip_separators</text>
</a>
</g>
</g>
<!-- Node46&#45;&gt;Node135 -->
<g id="edge67" class="edge">
<title>Node46&#45;&gt;Node135</title>
<path fill="none" stroke="#63b8ff" d="M702.13,-143.21C719.21,-139.62 739.53,-135.69 758,-133 808.29,-125.67 865.93,-120.64 907.42,-117.6"/>
<polygon fill="#63b8ff" stroke="#63b8ff" points="907.88,-121.08 917.61,-116.88 907.39,-114.1 907.88,-121.08"/>
</g>
<!-- Node54 -->
<g id="node46" class="node">
<title>Node54</title>
<g id="a_node46"><a xlink:href="parser__set__error_8c.html#adcfabdb026b94fdbe4b6cbf5cb16522a" target="_top" xlink:title=" ">
<polygon fill="white" stroke="#666666" points="1013,-75.5 917,-75.5 917,-56.5 1013,-56.5 1013,-75.5"/>
<text text-anchor="middle" x="965" y="-63.5" font-family="Helvetica,sans-Serif" font-size="10.00">parser_set_error</text>
</a>
</g>
</g>
<!-- Node46&#45;&gt;Node54 -->
<g id="edge63" class="edge">
<title>Node46&#45;&gt;Node54</title>
<path fill="none" stroke="#63b8ff" d="M702.21,-144.35C709.36,-141.64 716.34,-137.97 722,-133 750.1,-108.36 726.42,-76.99 758,-57 810.34,-23.88 886.03,-39.64 929.6,-53.34"/>
<polygon fill="#63b8ff" stroke="#63b8ff" points="928.58,-56.69 939.17,-56.48 930.76,-50.03 928.58,-56.69"/>
</g>
<!-- Node136 -->
<g id="node47" class="node">
<title>Node136</title>
<g id="a_node47"><a xlink:href="parser__parse_8c.html#ade740e98de82dc19569de5885d2950d1" target="_top" xlink:title=" ">
<polygon fill="white" stroke="#666666" points="864.5,-85.5 774.5,-85.5 774.5,-66.5 864.5,-66.5 864.5,-85.5"/>
<text text-anchor="middle" x="819.5" y="-73.5" font-family="Helvetica,sans-Serif" font-size="10.00">prepare_parser</text>
</a>
</g>
</g>
<!-- Node46&#45;&gt;Node136 -->
<g id="edge64" class="edge">
<title>Node46&#45;&gt;Node136</title>
<path fill="none" stroke="#63b8ff" d="M700.87,-142.48C708.13,-139.92 715.49,-136.79 722,-133 740.76,-122.09 739.61,-111.53 758,-100 764.39,-96 771.55,-92.45 778.65,-89.4"/>
<polygon fill="#63b8ff" stroke="#63b8ff" points="780.26,-92.52 788.22,-85.54 777.64,-86.03 780.26,-92.52"/>
</g>
<!-- Node47&#45;&gt;Node3 -->
<g id="edge51" class="edge">
<title>Node47&#45;&gt;Node3</title>
<path fill="none" stroke="#63b8ff" d="M856.71,-161.59C875.32,-166.52 898.2,-172.57 918.04,-177.83"/>
<polygon fill="#63b8ff" stroke="#63b8ff" points="917.24,-181.24 927.8,-180.41 919.03,-174.47 917.24,-181.24"/>
</g>
<!-- Node47&#45;&gt;Node135 -->
<g id="edge52" class="edge">
<title>Node47&#45;&gt;Node135</title>
<path fill="none" stroke="#63b8ff" d="M856.71,-142.41C875.32,-137.48 898.2,-131.43 918.04,-126.17"/>
<polygon fill="#63b8ff" stroke="#63b8ff" points="919.03,-129.53 927.8,-123.59 917.24,-122.76 919.03,-129.53"/>
</g>
<!-- Node70 -->
<g id="node39" class="node">
<title>Node70</title>
<g id="a_node39"><a xlink:href="parser__next_8c.html#ad25986b565a767c6ad7d0b0b8846fca6" target="_top" xlink:title=" ">
<polygon fill="white" stroke="#666666" points="1144.5,-123.5 1070.5,-123.5 1070.5,-104.5 1144.5,-104.5 1144.5,-123.5"/>
<text text-anchor="middle" x="1107.5" y="-111.5" font-family="Helvetica,sans-Serif" font-size="10.00">parser_next</text>
</a>
</g>
</g>
<!-- Node135&#45;&gt;Node70 -->
<g id="edge53" class="edge">
<title>Node135&#45;&gt;Node70</title>
<path fill="none" stroke="#63b8ff" d="M1012,-114C1027.35,-114 1044.46,-114 1059.85,-114"/>
<polygon fill="#63b8ff" stroke="#63b8ff" points="1060.19,-117.5 1070.19,-114 1060.19,-110.5 1060.19,-117.5"/>
</g>
<!-- Node70&#45;&gt;Node8 -->
<g id="edge62" class="edge">
<title>Node70&#45;&gt;Node8</title>
<path fill="none" stroke="#63b8ff" d="M1126.84,-123.65C1151.42,-136.59 1195.26,-159.66 1223.72,-174.64"/>
<polygon fill="#63b8ff" stroke="#63b8ff" points="1222.25,-177.83 1232.73,-179.39 1225.51,-171.63 1222.25,-177.83"/>
</g>
<!-- Node71 -->
<g id="node40" class="node">
<title>Node71</title>
<g id="a_node40"><a xlink:href="lexer__next__token_8c.html#a3def5432329709fb4df861d90672c510" target="_top" xlink:title=" ">
<polygon fill="#fff0f0" stroke="red" points="1302,-123.5 1202,-123.5 1202,-104.5 1302,-104.5 1302,-123.5"/>
<text text-anchor="middle" x="1252" y="-111.5" font-family="Helvetica,sans-Serif" font-size="10.00">lexer_next_token</text>
</a>
</g>
</g>
<!-- Node70&#45;&gt;Node71 -->
<g id="edge54" class="edge">
<title>Node70&#45;&gt;Node71</title>
<path fill="none" stroke="#63b8ff" d="M1144.83,-114C1159.03,-114 1175.7,-114 1191.56,-114"/>
<polygon fill="#63b8ff" stroke="#63b8ff" points="1191.83,-117.5 1201.83,-114 1191.83,-110.5 1191.83,-117.5"/>
</g>
<!-- Node72 -->
<g id="node41" class="node">
<title>Node72</title>
<g id="a_node41"><a xlink:href="create__token_8c.html#a15bcfc92177012893c626ce7d2d6bb6b" target="_top" xlink:title=" ">
<polygon fill="white" stroke="#666666" points="1576,-85.5 1496,-85.5 1496,-66.5 1576,-66.5 1576,-85.5"/>
<text text-anchor="middle" x="1536" y="-73.5" font-family="Helvetica,sans-Serif" font-size="10.00">create_token</text>
</a>
</g>
</g>
<!-- Node71&#45;&gt;Node72 -->
<g id="edge55" class="edge">
<title>Node71&#45;&gt;Node72</title>
<path fill="none" stroke="#63b8ff" d="M1290.89,-104.48C1305.53,-101.07 1322.47,-97.47 1338,-95 1388.1,-87.02 1445.94,-81.92 1485.93,-79.04"/>
<polygon fill="#63b8ff" stroke="#63b8ff" points="1486.21,-82.53 1495.95,-78.34 1485.72,-75.54 1486.21,-82.53"/>
</g>
<!-- Node73 -->
<g id="node42" class="node">
<title>Node73</title>
<g id="a_node42"><a xlink:href="lexer__next__token_8c.html#add2e1acaa9518ecf20b6670ad91a5c65" target="_top" xlink:title=" ">
<polygon fill="#fff0f0" stroke="red" points="1450,-160.5 1348,-160.5 1348,-141.5 1450,-141.5 1450,-160.5"/>
<text text-anchor="middle" x="1399" y="-148.5" font-family="Helvetica,sans-Serif" font-size="10.00">get_logical_token</text>
</a>
</g>
</g>
<!-- Node71&#45;&gt;Node73 -->
<g id="edge56" class="edge">
<title>Node71&#45;&gt;Node73</title>
<path fill="none" stroke="#63b8ff" d="M1290.34,-123.53C1308.71,-128.21 1331.04,-133.91 1350.6,-138.9"/>
<polygon fill="#63b8ff" stroke="#63b8ff" points="1349.98,-142.36 1360.53,-141.44 1351.71,-135.58 1349.98,-142.36"/>
</g>
<!-- Node77 -->
<g id="node43" class="node">
<title>Node77</title>
<g id="a_node43"><a xlink:href="lexer__next__token_8c.html#abcee8a7ba5ea6ca80c0bd7e3dd8d9a32" target="_top" xlink:title=" ">
<polygon fill="#fff0f0" stroke="red" points="1460,-123.5 1338,-123.5 1338,-104.5 1460,-104.5 1460,-123.5"/>
<text text-anchor="middle" x="1399" y="-111.5" font-family="Helvetica,sans-Serif" font-size="10.00">get_redirection_token</text>
</a>
</g>
</g>
<!-- Node71&#45;&gt;Node77 -->
<g id="edge57" class="edge">
<title>Node71&#45;&gt;Node77</title>
<path fill="none" stroke="#63b8ff" d="M1302.09,-114C1310.36,-114 1319.08,-114 1327.76,-114"/>
<polygon fill="#63b8ff" stroke="#63b8ff" points="1327.9,-117.5 1337.9,-114 1327.9,-110.5 1327.9,-117.5"/>
</g>
<!-- Node82 -->
<g id="node44" class="node">
<title>Node82</title>
<g id="a_node44"><a xlink:href="lexer__newline_8c.html#a9f60bf18297b9c705fa6cdff027c79fc" target="_top" xlink:title=" ">
<polygon fill="white" stroke="#666666" points="1441,-47.5 1357,-47.5 1357,-28.5 1441,-28.5 1441,-47.5"/>
<text text-anchor="middle" x="1399" y="-35.5" font-family="Helvetica,sans-Serif" font-size="10.00">lexer_newline</text>
</a>
</g>
</g>
<!-- Node71&#45;&gt;Node82 -->
<g id="edge58" class="edge">
<title>Node71&#45;&gt;Node82</title>
<path fill="none" stroke="#63b8ff" d="M1267.02,-104.41C1283.53,-93.35 1312.02,-75.03 1338,-62 1345.56,-58.21 1353.87,-54.57 1361.83,-51.32"/>
<polygon fill="#63b8ff" stroke="#63b8ff" points="1363.28,-54.51 1371.29,-47.57 1360.71,-48 1363.28,-54.51"/>
</g>
<!-- Node83 -->
<g id="node45" class="node">
<title>Node83</title>
<g id="a_node45"><a xlink:href="lexer__parenthesis_8c.html#a2b13eaa0fee255bea85bd4279f369795" target="_top" xlink:title=" ">
<polygon fill="white" stroke="#666666" points="1450.5,-197.5 1347.5,-197.5 1347.5,-178.5 1450.5,-178.5 1450.5,-197.5"/>
<text text-anchor="middle" x="1399" y="-185.5" font-family="Helvetica,sans-Serif" font-size="10.00">lexer_parenthesis</text>
</a>
</g>
</g>
<!-- Node71&#45;&gt;Node83 -->
<g id="edge60" class="edge">
<title>Node71&#45;&gt;Node83</title>
<path fill="none" stroke="#63b8ff" d="M1265.34,-123.51C1281.35,-135.48 1310.49,-156.03 1338,-169 1342.7,-171.21 1347.72,-173.26 1352.78,-175.13"/>
<polygon fill="#63b8ff" stroke="#63b8ff" points="1351.9,-178.53 1362.5,-178.49 1354.19,-171.91 1351.9,-178.53"/>
</g>
<!-- Node82&#45;&gt;Node72 -->
<g id="edge59" class="edge">
<title>Node82&#45;&gt;Node72</title>
<path fill="none" stroke="#63b8ff" d="M1434.07,-47.59C1451.41,-52.47 1472.7,-58.46 1491.25,-63.68"/>
<polygon fill="#63b8ff" stroke="#63b8ff" points="1490.37,-67.07 1500.94,-66.41 1492.27,-60.34 1490.37,-67.07"/>
</g>
<!-- Node83&#45;&gt;Node72 -->
<g id="edge61" class="edge">
<title>Node83&#45;&gt;Node72</title>
<path fill="none" stroke="#63b8ff" d="M1441.51,-178.39C1448,-175.91 1454.41,-172.82 1460,-169 1488.68,-149.4 1511.94,-115.64 1524.59,-94.64"/>
<polygon fill="#63b8ff" stroke="#63b8ff" points="1527.77,-96.13 1529.78,-85.73 1521.72,-92.61 1527.77,-96.13"/>
</g>
<!-- Node136&#45;&gt;Node135 -->
<g id="edge66" class="edge">
<title>Node136&#45;&gt;Node135</title>
<path fill="none" stroke="#63b8ff" d="M856.71,-85.59C875.32,-90.52 898.2,-96.57 918.04,-101.83"/>
<polygon fill="#63b8ff" stroke="#63b8ff" points="917.24,-105.24 927.8,-104.41 919.03,-98.47 917.24,-105.24"/>
</g>
<!-- Node136&#45;&gt;Node54 -->
<g id="edge65" class="edge">
<title>Node136&#45;&gt;Node54</title>
<path fill="none" stroke="#63b8ff" d="M864.73,-72.92C878.05,-71.99 892.86,-70.96 906.89,-69.98"/>
<polygon fill="#63b8ff" stroke="#63b8ff" points="907.2,-73.47 916.93,-69.28 906.72,-66.48 907.2,-73.47"/>
</g>
<!-- Node139&#45;&gt;Node70 -->
<g id="edge71" class="edge">
<title>Node139&#45;&gt;Node70</title>
<path fill="none" stroke="#63b8ff" d="M978.97,-19.6C1003.22,-37.55 1055.67,-76.38 1085.2,-98.23"/>
<polygon fill="#63b8ff" stroke="#63b8ff" points="1083.45,-101.29 1093.57,-104.43 1087.61,-95.66 1083.45,-101.29"/>
</g>
</g>
</svg>
