<?xml version="1.0" encoding="UTF-8" standalone="no"?>
<!DOCTYPE svg PUBLIC "-//W3C//DTD SVG 1.1//EN"
 "http://www.w3.org/Graphics/SVG/1.1/DTD/svg11.dtd">
<!-- Generated by graphviz version 2.43.0 (0)
 -->
<!-- Title: execute_cmd Pages: 1 -->
<svg width="1021pt" height="194pt"
 viewBox="0.00 0.00 1021.00 194.00" xmlns="http://www.w3.org/2000/svg" xmlns:xlink="http://www.w3.org/1999/xlink">
<g id="graph0" class="graph" transform="scale(1 1) rotate(0) translate(4 190)">
<title>execute_cmd</title>
<!-- Node1 -->
<g id="node1" class="node">
<title>Node1</title>
<g id="a_node1"><a xlink:title=" ">
<polygon fill="#999999" stroke="#666666" points="81,-57 0,-57 0,-38 81,-38 81,-57"/>
<text text-anchor="middle" x="40.5" y="-45" font-family="Helvetica,sans-Serif" font-size="10.00">execute_cmd</text>
</a>
</g>
</g>
<!-- Node2 -->
<g id="node2" class="node">
<title>Node2</title>
<g id="a_node2"><a xlink:href="execute__cmd_8c.html#a0cfd2364134e68efdd39533e00b4b0d9" target="_top" xlink:title=" ">
<polygon fill="white" stroke="#666666" points="236,-104 117,-104 117,-85 236,-85 236,-104"/>
<text text-anchor="middle" x="176.5" y="-92" font-family="Helvetica,sans-Serif" font-size="10.00">execute_local_binary</text>
</a>
</g>
</g>
<!-- Node1&#45;&gt;Node2 -->
<g id="edge1" class="edge">
<title>Node1&#45;&gt;Node2</title>
<path fill="none" stroke="#63b8ff" d="M68.62,-57.01C88.64,-64.04 116.15,-73.68 138.24,-81.43"/>
<polygon fill="#63b8ff" stroke="#63b8ff" points="137.37,-84.83 147.96,-84.84 139.69,-78.23 137.37,-84.83"/>
</g>
<!-- Node11 -->
<g id="node11" class="node">
<title>Node11</title>
<g id="a_node11"><a xlink:href="execute__cmd_8c.html#a460126af28ab29df4340554fae9fc57a" target="_top" xlink:title=" ">
<polygon fill="white" stroke="#666666" points="235.5,-57 117.5,-57 117.5,-38 235.5,-38 235.5,-57"/>
<text text-anchor="middle" x="176.5" y="-45" font-family="Helvetica,sans-Serif" font-size="10.00">execute_path_binary</text>
</a>
</g>
</g>
<!-- Node1&#45;&gt;Node11 -->
<g id="edge12" class="edge">
<title>Node1&#45;&gt;Node11</title>
<path fill="none" stroke="#63b8ff" d="M81.34,-47.5C89.44,-47.5 98.17,-47.5 106.94,-47.5"/>
<polygon fill="#63b8ff" stroke="#63b8ff" points="107.21,-51 117.21,-47.5 107.21,-44 107.21,-51"/>
</g>
<!-- Node16 -->
<g id="node16" class="node">
<title>Node16</title>
<g id="a_node16"><a xlink:href="strings_8h.html#a36f055c4e56c8a784629908d0c5b91e5" target="_top" xlink:title=" ">
<polygon fill="white" stroke="#666666" points="698,-19 594,-19 594,0 698,0 698,-19"/>
<text text-anchor="middle" x="646" y="-7" font-family="Helvetica,sans-Serif" font-size="10.00">my_is_char_in_str</text>
</a>
</g>
</g>
<!-- Node1&#45;&gt;Node16 -->
<g id="edge19" class="edge">
<title>Node1&#45;&gt;Node16</title>
<path fill="none" stroke="#63b8ff" d="M77.81,-37.97C90.18,-34.96 104.14,-31.81 117,-29.5 185.31,-17.21 202.73,-14.82 272,-10.5 381.72,-3.65 509.95,-5.45 583.89,-7.43"/>
<polygon fill="#63b8ff" stroke="#63b8ff" points="583.86,-10.93 593.96,-7.71 584.06,-3.94 583.86,-10.93"/>
</g>
<!-- Node3 -->
<g id="node3" class="node">
<title>Node3</title>
<g id="a_node3"><a xlink:href="execute__cmd_8c.html#a0f1b711370b175e42e583b75daacf41e" target="_top" xlink:title=" ">
<polygon fill="white" stroke="#666666" points="532,-113 441,-113 441,-94 532,-94 532,-113"/>
<text text-anchor="middle" x="486.5" y="-101" font-family="Helvetica,sans-Serif" font-size="10.00">execute_binary</text>
</a>
</g>
</g>
<!-- Node2&#45;&gt;Node3 -->
<g id="edge2" class="edge">
<title>Node2&#45;&gt;Node3</title>
<path fill="none" stroke="#63b8ff" d="M236.16,-96.21C292.07,-97.85 375.63,-100.29 430.35,-101.89"/>
<polygon fill="#63b8ff" stroke="#63b8ff" points="430.46,-105.39 440.56,-102.19 430.66,-98.4 430.46,-105.39"/>
</g>
<!-- Node4 -->
<g id="node4" class="node">
<title>Node4</title>
<g id="a_node4"><a xlink:href="env__to__word__array_8c.html#aea7253d35c5aa57d9cfe9d7df218cb90" target="_top" xlink:title=" ">
<polygon fill="white" stroke="#666666" points="701,-150 591,-150 591,-131 701,-131 701,-150"/>
<text text-anchor="middle" x="646" y="-138" font-family="Helvetica,sans-Serif" font-size="10.00">env_to_word_array</text>
</a>
</g>
</g>
<!-- Node3&#45;&gt;Node4 -->
<g id="edge3" class="edge">
<title>Node3&#45;&gt;Node4</title>
<path fill="none" stroke="#63b8ff" d="M528.06,-113.03C548.28,-117.78 572.94,-123.57 594.38,-128.61"/>
<polygon fill="#63b8ff" stroke="#63b8ff" points="593.77,-132.06 604.3,-130.94 595.37,-125.25 593.77,-132.06"/>
</g>
<!-- Node7 -->
<g id="node7" class="node">
<title>Node7</title>
<g id="a_node7"><a xlink:href="execute__cmd_8c.html#a6badc27baa1930e30ea2ad3817f65366" target="_top" xlink:title=" ">
<polygon fill="white" stroke="#666666" points="686,-113 606,-113 606,-94 686,-94 686,-113"/>
<text text-anchor="middle" x="646" y="-101" font-family="Helvetica,sans-Serif" font-size="10.00">execute_fork</text>
</a>
</g>
</g>
<!-- Node3&#45;&gt;Node7 -->
<g id="edge6" class="edge">
<title>Node3&#45;&gt;Node7</title>
<path fill="none" stroke="#63b8ff" d="M532.21,-103.5C552.05,-103.5 575.46,-103.5 595.79,-103.5"/>
<polygon fill="#63b8ff" stroke="#63b8ff" points="595.8,-107 605.8,-103.5 595.8,-100 595.8,-107"/>
</g>
<!-- Node8 -->
<g id="node8" class="node">
<title>Node8</title>
<g id="a_node8"><a xlink:href="execute__cmd_8c.html#a2c49b9849cfef0deea03382c9f1b3ab8" target="_top" xlink:title=" ">
<polygon fill="white" stroke="#666666" points="841.5,-75 749.5,-75 749.5,-56 841.5,-56 841.5,-75"/>
<text text-anchor="middle" x="795.5" y="-63" font-family="Helvetica,sans-Serif" font-size="10.00">run_subprocess</text>
</a>
</g>
</g>
<!-- Node3&#45;&gt;Node8 -->
<g id="edge11" class="edge">
<title>Node3&#45;&gt;Node8</title>
<path fill="none" stroke="#63b8ff" d="M532.22,-94.98C550.41,-91.7 571.66,-88.13 591,-85.5 640.94,-78.71 698.07,-73.3 739.07,-69.83"/>
<polygon fill="#63b8ff" stroke="#63b8ff" points="739.45,-73.31 749.13,-68.99 738.87,-66.33 739.45,-73.31"/>
</g>
<!-- Node5 -->
<g id="node5" class="node">
<title>Node5</title>
<g id="a_node5"><a xlink:href="misc_8h.html#a1180cae2875b1fdcd58c9f9175a82c12" target="_top" xlink:title=" ">
<polygon fill="white" stroke="#666666" points="854,-149 737,-149 737,-130 854,-130 854,-149"/>
<text text-anchor="middle" x="795.5" y="-137" font-family="Helvetica,sans-Serif" font-size="10.00">my_free_word_array</text>
</a>
</g>
</g>
<!-- Node4&#45;&gt;Node5 -->
<g id="edge4" class="edge">
<title>Node4&#45;&gt;Node5</title>
<path fill="none" stroke="#63b8ff" d="M701.09,-140.13C709.48,-140.08 718.24,-140.02 726.88,-139.96"/>
<polygon fill="#63b8ff" stroke="#63b8ff" points="726.97,-143.46 736.95,-139.89 726.92,-136.46 726.97,-143.46"/>
</g>
<!-- Node6 -->
<g id="node6" class="node">
<title>Node6</title>
<g id="a_node6"><a xlink:href="list_8h.html#ad5ebb7cdb26f73e4b212dfc5eae4ef0e" target="_top" xlink:title=" ">
<polygon fill="white" stroke="#666666" points="840,-186 751,-186 751,-167 840,-167 840,-186"/>
<text text-anchor="middle" x="795.5" y="-174" font-family="Helvetica,sans-Serif" font-size="10.00">my_list_length</text>
</a>
</g>
</g>
<!-- Node4&#45;&gt;Node6 -->
<g id="edge5" class="edge">
<title>Node4&#45;&gt;Node6</title>
<path fill="none" stroke="#63b8ff" d="M686.14,-150.05C704.38,-154.51 726.28,-159.85 745.6,-164.56"/>
<polygon fill="#63b8ff" stroke="#63b8ff" points="744.89,-167.99 755.43,-166.97 746.55,-161.19 744.89,-167.99"/>
</g>
<!-- Node7&#45;&gt;Node5 -->
<g id="edge7" class="edge">
<title>Node7&#45;&gt;Node5</title>
<path fill="none" stroke="#63b8ff" d="M686.14,-113.05C704.38,-117.51 726.28,-122.85 745.6,-127.56"/>
<polygon fill="#63b8ff" stroke="#63b8ff" points="744.89,-130.99 755.43,-129.97 746.55,-124.19 744.89,-130.99"/>
</g>
<!-- Node7&#45;&gt;Node8 -->
<g id="edge8" class="edge">
<title>Node7&#45;&gt;Node8</title>
<path fill="none" stroke="#63b8ff" d="M684.22,-93.91C703.51,-88.94 727.26,-82.82 747.77,-77.54"/>
<polygon fill="#63b8ff" stroke="#63b8ff" points="748.74,-80.9 757.55,-75.02 746.99,-74.13 748.74,-80.9"/>
</g>
<!-- Node9 -->
<g id="node9" class="node">
<title>Node9</title>
<g id="a_node9"><a xlink:href="wait__for__subprocess_8c.html#a1242d78540fd0ddef3d98a9f294cb0d4" target="_top" xlink:title=" ">
<polygon fill="white" stroke="#666666" points="853.5,-112 737.5,-112 737.5,-93 853.5,-93 853.5,-112"/>
<text text-anchor="middle" x="795.5" y="-100" font-family="Helvetica,sans-Serif" font-size="10.00">wait_for_subprocess</text>
</a>
</g>
</g>
<!-- Node7&#45;&gt;Node9 -->
<g id="edge9" class="edge">
<title>Node7&#45;&gt;Node9</title>
<path fill="none" stroke="#63b8ff" d="M686.14,-103.23C698.78,-103.15 713.17,-103.05 727.24,-102.96"/>
<polygon fill="#63b8ff" stroke="#63b8ff" points="727.42,-106.45 737.4,-102.89 727.38,-99.46 727.42,-106.45"/>
</g>
<!-- Node10 -->
<g id="node10" class="node">
<title>Node10</title>
<g id="a_node10"><a xlink:href="wait__for__subprocess_8c.html#a885766ba6ba593b7cf27b917dd52b1a6" target="_top" xlink:title=" ">
<polygon fill="white" stroke="#666666" points="1013,-112 890,-112 890,-93 1013,-93 1013,-112"/>
<text text-anchor="middle" x="951.5" y="-100" font-family="Helvetica,sans-Serif" font-size="10.00">print_signal_message</text>
</a>
</g>
</g>
<!-- Node9&#45;&gt;Node10 -->
<g id="edge10" class="edge">
<title>Node9&#45;&gt;Node10</title>
<path fill="none" stroke="#63b8ff" d="M853.84,-102.5C862.26,-102.5 871.02,-102.5 879.67,-102.5"/>
<polygon fill="#63b8ff" stroke="#63b8ff" points="879.76,-106 889.76,-102.5 879.76,-99 879.76,-106"/>
</g>
<!-- Node12 -->
<g id="node12" class="node">
<title>Node12</title>
<g id="a_node12"><a xlink:href="get__variable__value_8c.html#a2edd9900f19af236aa05385a789be3d6" target="_top" xlink:title=" ">
<polygon fill="white" stroke="#666666" points="382,-39 272,-39 272,-20 382,-20 382,-39"/>
<text text-anchor="middle" x="327" y="-27" font-family="Helvetica,sans-Serif" font-size="10.00">get_variable_value</text>
</a>
</g>
</g>
<!-- Node11&#45;&gt;Node12 -->
<g id="edge13" class="edge">
<title>Node11&#45;&gt;Node12</title>
<path fill="none" stroke="#63b8ff" d="M235.76,-40.44C244.29,-39.4 253.11,-38.33 261.75,-37.29"/>
<polygon fill="#63b8ff" stroke="#63b8ff" points="262.27,-40.75 271.78,-36.07 261.43,-33.8 262.27,-40.75"/>
</g>
<!-- Node14 -->
<g id="node14" class="node">
<title>Node14</title>
<g id="a_node14"><a xlink:href="execute__cmd_8c.html#aee9e13edede9df28fac066f30e7ae7ed" target="_top" xlink:title=" ">
<polygon fill="white" stroke="#666666" points="369,-76 285,-76 285,-57 369,-57 369,-76"/>
<text text-anchor="middle" x="327" y="-64" font-family="Helvetica,sans-Serif" font-size="10.00">try_command</text>
</a>
</g>
</g>
<!-- Node11&#45;&gt;Node14 -->
<g id="edge15" class="edge">
<title>Node11&#45;&gt;Node14</title>
<path fill="none" stroke="#63b8ff" d="M235.76,-54.95C248.59,-56.6 262.08,-58.32 274.61,-59.92"/>
<polygon fill="#63b8ff" stroke="#63b8ff" points="274.51,-63.44 284.87,-61.24 275.4,-56.5 274.51,-63.44"/>
</g>
<!-- Node13 -->
<g id="node13" class="node">
<title>Node13</title>
<g id="a_node13"><a xlink:href="get__variable_8c.html#a569170390f0edf013bf89c26ef55ea8c" target="_top" xlink:title=" ">
<polygon fill="white" stroke="#666666" points="525,-39 448,-39 448,-20 525,-20 525,-39"/>
<text text-anchor="middle" x="486.5" y="-27" font-family="Helvetica,sans-Serif" font-size="10.00">get_variable</text>
</a>
</g>
</g>
<!-- Node12&#45;&gt;Node13 -->
<g id="edge14" class="edge">
<title>Node12&#45;&gt;Node13</title>
<path fill="none" stroke="#63b8ff" d="M382.2,-29.5C400.04,-29.5 419.73,-29.5 437.11,-29.5"/>
<polygon fill="#63b8ff" stroke="#63b8ff" points="437.58,-33 447.58,-29.5 437.58,-26 437.58,-33"/>
</g>
<!-- Node14&#45;&gt;Node3 -->
<g id="edge16" class="edge">
<title>Node14&#45;&gt;Node3</title>
<path fill="none" stroke="#63b8ff" d="M368.56,-76.03C388.78,-80.78 413.44,-86.57 434.88,-91.61"/>
<polygon fill="#63b8ff" stroke="#63b8ff" points="434.27,-95.06 444.8,-93.94 435.87,-88.25 434.27,-95.06"/>
</g>
<!-- Node15 -->
<g id="node15" class="node">
<title>Node15</title>
<g id="a_node15"><a xlink:href="execute__cmd_8c.html#a7edf8a207e2b427102f54a379bd13546" target="_top" xlink:title=" ">
<polygon fill="white" stroke="#666666" points="555,-76 418,-76 418,-57 555,-57 555,-76"/>
<text text-anchor="middle" x="486.5" y="-64" font-family="Helvetica,sans-Serif" font-size="10.00">print_permission_denied</text>
</a>
</g>
</g>
<!-- Node14&#45;&gt;Node15 -->
<g id="edge17" class="edge">
<title>Node14&#45;&gt;Node15</title>
<path fill="none" stroke="#63b8ff" d="M369.38,-66.5C381.22,-66.5 394.52,-66.5 407.79,-66.5"/>
<polygon fill="#63b8ff" stroke="#63b8ff" points="407.9,-70 417.9,-66.5 407.9,-63 407.9,-70"/>
</g>
<!-- Node15&#45;&gt;Node16 -->
<g id="edge18" class="edge">
<title>Node15&#45;&gt;Node16</title>
<path fill="none" stroke="#63b8ff" d="M527.42,-56.91C536.56,-54.42 546.18,-51.57 555,-48.5 575.9,-41.23 598.77,-31.29 616.22,-23.27"/>
<polygon fill="#63b8ff" stroke="#63b8ff" points="617.73,-26.43 625.32,-19.04 614.78,-20.08 617.73,-26.43"/>
</g>
</g>
</svg>
