<?xml version="1.0" encoding="UTF-8" standalone="no"?>
<!DOCTYPE svg PUBLIC "-//W3C//DTD SVG 1.1//EN"
 "http://www.w3.org/Graphics/SVG/1.1/DTD/svg11.dtd">
<!-- Generated by graphviz version 2.43.0 (0)
 -->
<!-- Title: execute_repeat Pages: 1 -->
<!--zoomable 441 -->
<svg id="main" version="1.1" xmlns="http://www.w3.org/2000/svg" xmlns:xlink="http://www.w3.org/1999/xlink" xml:space="preserve" onload="init(evt)">
<style type="text/css"><![CDATA[
.edge:hover path { stroke: red; }
.edge:hover polygon { stroke: red; fill: red; }
]]></style>
<script type="text/javascript"><![CDATA[
var edges = document.getElementsByTagName('g');
if (edges && edges.length) {
  for (var i=0;i<edges.length;i++) {
    if (edges[i].id.substr(0,4)=='edge') {
      edges[i].setAttribute('class','edge');
    }
  }
}
]]></script>
        <defs>
                <circle id="rim" cx="0" cy="0" r="7"/>
                <circle id="rim2" cx="0" cy="0" r="3.5"/>
                <g id="zoomPlus">
                        <use xlink:href="#rim" fill="#404040">
                                <set attributeName="fill" to="#808080" begin="zoomplus.mouseover" end="zoomplus.mouseout"/>
                        </use>
                        <path d="M-4,0h8M0,-4v8" fill="none" stroke="white" stroke-width="1.5" pointer-events="none"/>
                </g>
                <g id="zoomMin">
                        <use xlink:href="#rim" fill="#404040">
                                <set attributeName="fill" to="#808080" begin="zoomminus.mouseover" end="zoomminus.mouseout"/>
                        </use>
                        <path d="M-4,0h8" fill="none" stroke="white" stroke-width="1.5" pointer-events="none"/>
                </g>
                <g id="dirArrow">
                        <path fill="none" stroke="white" stroke-width="1.5" d="M0,-3.0v7 M-2.5,-0.5L0,-3.0L2.5,-0.5"/>
                </g>
               <g id="resetDef">
                       <use xlink:href="#rim2" fill="#404040">
                               <set attributeName="fill" to="#808080" begin="reset.mouseover" end="reset.mouseout"/>
                       </use>
               </g>
        </defs>

<script type="text/javascript">
var viewWidth = 1295;
var viewHeight = 441;
var sectionId = 'dynsection-1';
</script>
<script xlink:href="svgpan.js"/>
<svg id="graph" class="graph">
<g id="viewport">
<title>execute_repeat</title>
<!-- Node1 -->
<g id="node1" class="node">
<title>Node1</title>
<g id="a_node1"><a xlink:title=" ">
<polygon fill="#999999" stroke="#666666" points="92,-236 0,-236 0,-217 92,-217 92,-236"/>
<text text-anchor="middle" x="46" y="-224" font-family="Helvetica,sans-Serif" font-size="10.00">execute_repeat</text>
</a>
</g>
</g>
<!-- Node2 -->
<g id="node2" class="node">
<title>Node2</title>
<g id="a_node2"><a xlink:href="execute__ast_8c.html#ad26a20a665ab7fdeb714ed53c1afd104" target="_top" xlink:title=" ">
<polygon fill="white" stroke="#666666" points="203,-236 128,-236 128,-217 203,-217 203,-236"/>
<text text-anchor="middle" x="165.5" y="-224" font-family="Helvetica,sans-Serif" font-size="10.00">execute_ast</text>
</a>
</g>
</g>
<!-- Node1&#45;&gt;Node2 -->
<g id="edge1" class="edge">
<title>Node1&#45;&gt;Node2</title>
<path fill="none" stroke="#63b8ff" d="M92.09,-219.91C100.47,-219.71 109.23,-219.7 117.66,-219.87"/>
<polygon fill="#63b8ff" stroke="#63b8ff" points="117.61,-223.37 127.72,-220.19 117.83,-216.38 117.61,-223.37"/>
</g>
<!-- Node2&#45;&gt;Node1 -->
<g id="edge45" class="edge">
<title>Node2&#45;&gt;Node1</title>
<path fill="none" stroke="#63b8ff" d="M127.72,-232.81C119.6,-233.15 110.83,-233.29 102.17,-233.24"/>
<polygon fill="#63b8ff" stroke="#63b8ff" points="102.14,-229.74 92.09,-233.09 102.04,-236.74 102.14,-229.74"/>
</g>
<!-- Node3 -->
<g id="node3" class="node">
<title>Node3</title>
<g id="a_node3"><a xlink:href="execute__cmd_8c.html#a94ea9cc5a046ce96e36764bf0e4fa2c0" target="_top" xlink:title=" ">
<polygon fill="white" stroke="#666666" points="337.5,-366 256.5,-366 256.5,-347 337.5,-347 337.5,-366"/>
<text text-anchor="middle" x="297" y="-354" font-family="Helvetica,sans-Serif" font-size="10.00">execute_cmd</text>
</a>
</g>
</g>
<!-- Node2&#45;&gt;Node3 -->
<g id="edge2" class="edge">
<title>Node2&#45;&gt;Node3</title>
<path fill="none" stroke="#63b8ff" d="M170.1,-236.2C178.63,-257.86 202.15,-310.42 239,-338.5 241.48,-340.39 244.16,-342.08 246.96,-343.6"/>
<polygon fill="#63b8ff" stroke="#63b8ff" points="245.68,-346.86 256.23,-347.87 248.61,-340.51 245.68,-346.86"/>
</g>
<!-- Node19 -->
<g id="node19" class="node">
<title>Node19</title>
<g id="a_node19"><a xlink:href="execute__logical__and_8c.html#a4f940752faf9f9a258c49810b21efe47" target="_top" xlink:title=" ">
<polygon fill="white" stroke="#666666" points="355,-329 239,-329 239,-310 355,-310 355,-329"/>
<text text-anchor="middle" x="297" y="-317" font-family="Helvetica,sans-Serif" font-size="10.00">execute_logical_and</text>
</a>
</g>
</g>
<!-- Node2&#45;&gt;Node19 -->
<g id="edge22" class="edge">
<title>Node2&#45;&gt;Node19</title>
<path fill="none" stroke="#63b8ff" d="M178.31,-236.18C191.37,-250.81 213.9,-276.97 239,-292.5 249.16,-298.79 261.72,-303.06 272.46,-306.68"/>
<polygon fill="#63b8ff" stroke="#63b8ff" points="271.47,-310.04 282.06,-309.99 273.75,-303.42 271.47,-310.04"/>
</g>
<!-- Node20 -->
<g id="node20" class="node">
<title>Node20</title>
<g id="a_node20"><a xlink:href="execute__logical__or_8c.html#a7e732d7c30b07010fa55850051007dcc" target="_top" xlink:title=" ">
<polygon fill="white" stroke="#666666" points="350.5,-292 243.5,-292 243.5,-273 350.5,-273 350.5,-292"/>
<text text-anchor="middle" x="297" y="-280" font-family="Helvetica,sans-Serif" font-size="10.00">execute_logical_or</text>
</a>
</g>
</g>
<!-- Node2&#45;&gt;Node20 -->
<g id="edge24" class="edge">
<title>Node2&#45;&gt;Node20</title>
<path fill="none" stroke="#63b8ff" d="M197.68,-236.03C210.27,-242.2 225.09,-249.71 239,-255.5 250.76,-260.39 264.35,-264.73 275.31,-268.92"/>
<polygon fill="#63b8ff" stroke="#63b8ff" points="274.29,-272.28 284.87,-272.89 276.98,-265.82 274.29,-272.28"/>
</g>
<!-- Node21 -->
<g id="node21" class="node">
<title>Node21</title>
<g id="a_node21"><a xlink:href="execute__pipe_8c.html#a5f3546dc2c7cf06c982afba41e722164" target="_top" xlink:title=" ">
<polygon fill="white" stroke="#666666" points="337.5,-142 256.5,-142 256.5,-123 337.5,-123 337.5,-142"/>
<text text-anchor="middle" x="297" y="-130" font-family="Helvetica,sans-Serif" font-size="10.00">execute_pipe</text>
</a>
</g>
</g>
<!-- Node2&#45;&gt;Node21 -->
<g id="edge26" class="edge">
<title>Node2&#45;&gt;Node21</title>
<path fill="none" stroke="#63b8ff" d="M173.15,-216.84C184.72,-200.78 210.06,-168.54 239,-150.5 241.6,-148.88 244.36,-147.39 247.21,-146.03"/>
<polygon fill="#63b8ff" stroke="#63b8ff" points="248.67,-149.21 256.52,-142.09 245.94,-142.76 248.67,-149.21"/>
</g>
<!-- Node26 -->
<g id="node26" class="node">
<title>Node26</title>
<g id="a_node26"><a xlink:href="execute__redirect_8c.html#a1004307aba80117ddd99f009e52fb155" target="_top" xlink:title=" ">
<polygon fill="white" stroke="#666666" points="346,-28 248,-28 248,-9 346,-9 346,-28"/>
<text text-anchor="middle" x="297" y="-16" font-family="Helvetica,sans-Serif" font-size="10.00">execute_redirect</text>
</a>
</g>
</g>
<!-- Node2&#45;&gt;Node26 -->
<g id="edge36" class="edge">
<title>Node2&#45;&gt;Node26</title>
<path fill="none" stroke="#63b8ff" d="M167.68,-216.68C171.79,-186.58 188.13,-94.56 239,-42.5 242.7,-38.71 247.1,-35.49 251.78,-32.76"/>
<polygon fill="#63b8ff" stroke="#63b8ff" points="253.68,-35.72 261.03,-28.09 250.52,-29.47 253.68,-35.72"/>
</g>
<!-- Node34 -->
<g id="node34" class="node">
<title>Node34</title>
<g id="a_node34"><a xlink:href="execute__sequence_8c.html#aad2caa5bf50b0752dd8272da477ec231" target="_top" xlink:title=" ">
<polygon fill="white" stroke="#666666" points="350.5,-179 243.5,-179 243.5,-160 350.5,-160 350.5,-179"/>
<text text-anchor="middle" x="297" y="-167" font-family="Helvetica,sans-Serif" font-size="10.00">execute_sequence</text>
</a>
</g>
</g>
<!-- Node2&#45;&gt;Node34 -->
<g id="edge46" class="edge">
<title>Node2&#45;&gt;Node34</title>
<path fill="none" stroke="#63b8ff" d="M174.95,-216.9C188.44,-207.29 215.69,-194.71 239,-184.5 240.16,-183.99 241.34,-183.48 242.52,-182.96"/>
<polygon fill="#63b8ff" stroke="#63b8ff" points="243.94,-186.17 251.76,-179.02 241.19,-179.73 243.94,-186.17"/>
</g>
<!-- Node35 -->
<g id="node35" class="node">
<title>Node35</title>
<g id="a_node35"><a xlink:href="execute__subshell_8c.html#a40a27866de012b013a337f794a858d70" target="_top" xlink:title=" ">
<polygon fill="white" stroke="#666666" points="347.5,-255 246.5,-255 246.5,-236 347.5,-236 347.5,-255"/>
<text text-anchor="middle" x="297" y="-243" font-family="Helvetica,sans-Serif" font-size="10.00">execute_subshell</text>
</a>
</g>
</g>
<!-- Node2&#45;&gt;Node35 -->
<g id="edge48" class="edge">
<title>Node2&#45;&gt;Node35</title>
<path fill="none" stroke="#63b8ff" d="M203.26,-225.74C220.77,-227.51 241.65,-230.58 259.16,-233.94"/>
<polygon fill="#63b8ff" stroke="#63b8ff" points="258.53,-237.38 269.03,-235.94 259.93,-230.52 258.53,-237.38"/>
</g>
<!-- Node4 -->
<g id="node4" class="node">
<title>Node4</title>
<g id="a_node4"><a xlink:href="execute__cmd_8c.html#a0cfd2364134e68efdd39533e00b4b0d9" target="_top" xlink:title=" ">
<polygon fill="white" stroke="#666666" points="510,-404 391,-404 391,-385 510,-385 510,-404"/>
<text text-anchor="middle" x="450.5" y="-392" font-family="Helvetica,sans-Serif" font-size="10.00">execute_local_binary</text>
</a>
</g>
</g>
<!-- Node3&#45;&gt;Node4 -->
<g id="edge3" class="edge">
<title>Node3&#45;&gt;Node4</title>
<path fill="none" stroke="#63b8ff" d="M336.23,-366.09C356.13,-371.08 380.66,-377.23 401.79,-382.53"/>
<polygon fill="#63b8ff" stroke="#63b8ff" points="400.99,-385.94 411.55,-384.98 402.7,-379.15 400.99,-385.94"/>
</g>
<!-- Node13 -->
<g id="node13" class="node">
<title>Node13</title>
<g id="a_node13"><a xlink:href="execute__cmd_8c.html#a460126af28ab29df4340554fae9fc57a" target="_top" xlink:title=" ">
<polygon fill="white" stroke="#666666" points="509.5,-366 391.5,-366 391.5,-347 509.5,-347 509.5,-366"/>
<text text-anchor="middle" x="450.5" y="-354" font-family="Helvetica,sans-Serif" font-size="10.00">execute_path_binary</text>
</a>
</g>
</g>
<!-- Node3&#45;&gt;Node13 -->
<g id="edge14" class="edge">
<title>Node3&#45;&gt;Node13</title>
<path fill="none" stroke="#63b8ff" d="M337.8,-356.5C351.13,-356.5 366.38,-356.5 381.24,-356.5"/>
<polygon fill="#63b8ff" stroke="#63b8ff" points="381.44,-360 391.44,-356.5 381.44,-353 381.44,-360"/>
</g>
<!-- Node18 -->
<g id="node18" class="node">
<title>Node18</title>
<g id="a_node18"><a xlink:href="strings_8h.html#a36f055c4e56c8a784629908d0c5b91e5" target="_top" xlink:title=" ">
<polygon fill="white" stroke="#666666" points="972,-311 868,-311 868,-292 972,-292 972,-311"/>
<text text-anchor="middle" x="920" y="-299" font-family="Helvetica,sans-Serif" font-size="10.00">my_is_char_in_str</text>
</a>
</g>
</g>
<!-- Node3&#45;&gt;Node18 -->
<g id="edge21" class="edge">
<title>Node3&#45;&gt;Node18</title>
<path fill="none" stroke="#63b8ff" d="M331.74,-346.98C379.13,-334.14 468.31,-311.92 546,-303.5 655.3,-291.66 783.67,-294.64 857.75,-298"/>
<polygon fill="#63b8ff" stroke="#63b8ff" points="857.68,-301.5 867.83,-298.47 858.01,-294.5 857.68,-301.5"/>
</g>
<!-- Node5 -->
<g id="node5" class="node">
<title>Node5</title>
<g id="a_node5"><a xlink:href="execute__cmd_8c.html#a0f1b711370b175e42e583b75daacf41e" target="_top" xlink:title=" ">
<polygon fill="white" stroke="#666666" points="806,-405 715,-405 715,-386 806,-386 806,-405"/>
<text text-anchor="middle" x="760.5" y="-393" font-family="Helvetica,sans-Serif" font-size="10.00">execute_binary</text>
</a>
</g>
</g>
<!-- Node4&#45;&gt;Node5 -->
<g id="edge4" class="edge">
<title>Node4&#45;&gt;Node5</title>
<path fill="none" stroke="#63b8ff" d="M510.16,-394.69C566.07,-394.87 649.63,-395.14 704.35,-395.32"/>
<polygon fill="#63b8ff" stroke="#63b8ff" points="704.54,-398.82 714.56,-395.35 704.57,-391.82 704.54,-398.82"/>
</g>
<!-- Node6 -->
<g id="node6" class="node">
<title>Node6</title>
<g id="a_node6"><a xlink:href="env__to__word__array_8c.html#aea7253d35c5aa57d9cfe9d7df218cb90" target="_top" xlink:title=" ">
<polygon fill="white" stroke="#666666" points="975,-433 865,-433 865,-414 975,-414 975,-433"/>
<text text-anchor="middle" x="920" y="-421" font-family="Helvetica,sans-Serif" font-size="10.00">env_to_word_array</text>
</a>
</g>
</g>
<!-- Node5&#45;&gt;Node6 -->
<g id="edge5" class="edge">
<title>Node5&#45;&gt;Node6</title>
<path fill="none" stroke="#63b8ff" d="M806.21,-403.45C821.5,-406.17 838.91,-409.26 855.4,-412.19"/>
<polygon fill="#63b8ff" stroke="#63b8ff" points="855.06,-415.69 865.52,-413.99 856.28,-408.8 855.06,-415.69"/>
</g>
<!-- Node9 -->
<g id="node9" class="node">
<title>Node9</title>
<g id="a_node9"><a xlink:href="execute__cmd_8c.html#a6badc27baa1930e30ea2ad3817f65366" target="_top" xlink:title=" ">
<polygon fill="white" stroke="#666666" points="960,-396 880,-396 880,-377 960,-377 960,-396"/>
<text text-anchor="middle" x="920" y="-384" font-family="Helvetica,sans-Serif" font-size="10.00">execute_fork</text>
</a>
</g>
</g>
<!-- Node5&#45;&gt;Node9 -->
<g id="edge8" class="edge">
<title>Node5&#45;&gt;Node9</title>
<path fill="none" stroke="#63b8ff" d="M806.21,-392.95C826.05,-391.81 849.46,-390.47 869.79,-389.31"/>
<polygon fill="#63b8ff" stroke="#63b8ff" points="870.02,-392.8 879.8,-388.74 869.62,-385.82 870.02,-392.8"/>
</g>
<!-- Node10 -->
<g id="node10" class="node">
<title>Node10</title>
<g id="a_node10"><a xlink:href="execute__cmd_8c.html#a2c49b9849cfef0deea03382c9f1b3ab8" target="_top" xlink:title=" ">
<polygon fill="white" stroke="#666666" points="1115.5,-358 1023.5,-358 1023.5,-339 1115.5,-339 1115.5,-358"/>
<text text-anchor="middle" x="1069.5" y="-346" font-family="Helvetica,sans-Serif" font-size="10.00">run_subprocess</text>
</a>
</g>
</g>
<!-- Node5&#45;&gt;Node10 -->
<g id="edge13" class="edge">
<title>Node5&#45;&gt;Node10</title>
<path fill="none" stroke="#63b8ff" d="M797.43,-385.98C825.93,-378.46 861.54,-369.12 865,-368.5 914.78,-359.62 972.16,-354.43 1013.27,-351.57"/>
<polygon fill="#63b8ff" stroke="#63b8ff" points="1013.62,-355.06 1023.36,-350.9 1013.15,-348.07 1013.62,-355.06"/>
</g>
<!-- Node7 -->
<g id="node7" class="node">
<title>Node7</title>
<g id="a_node7"><a xlink:href="misc_8h.html#a1180cae2875b1fdcd58c9f9175a82c12" target="_top" xlink:title=" ">
<polygon fill="white" stroke="#666666" points="1128,-396 1011,-396 1011,-377 1128,-377 1128,-396"/>
<text text-anchor="middle" x="1069.5" y="-384" font-family="Helvetica,sans-Serif" font-size="10.00">my_free_word_array</text>
</a>
</g>
</g>
<!-- Node6&#45;&gt;Node7 -->
<g id="edge6" class="edge">
<title>Node6&#45;&gt;Node7</title>
<path fill="none" stroke="#63b8ff" d="M958.98,-413.97C977.75,-409.26 1000.59,-403.53 1020.55,-398.53"/>
<polygon fill="#63b8ff" stroke="#63b8ff" points="1021.54,-401.89 1030.39,-396.06 1019.84,-395.1 1021.54,-401.89"/>
</g>
<!-- Node8 -->
<g id="node8" class="node">
<title>Node8</title>
<g id="a_node8"><a xlink:href="list_8h.html#ad5ebb7cdb26f73e4b212dfc5eae4ef0e" target="_top" xlink:title=" ">
<polygon fill="white" stroke="#666666" points="1114,-433 1025,-433 1025,-414 1114,-414 1114,-433"/>
<text text-anchor="middle" x="1069.5" y="-421" font-family="Helvetica,sans-Serif" font-size="10.00">my_list_length</text>
</a>
</g>
</g>
<!-- Node6&#45;&gt;Node8 -->
<g id="edge7" class="edge">
<title>Node6&#45;&gt;Node8</title>
<path fill="none" stroke="#63b8ff" d="M975.09,-423.5C987.93,-423.5 1001.64,-423.5 1014.48,-423.5"/>
<polygon fill="#63b8ff" stroke="#63b8ff" points="1014.56,-427 1024.56,-423.5 1014.56,-420 1014.56,-427"/>
</g>
<!-- Node9&#45;&gt;Node7 -->
<g id="edge9" class="edge">
<title>Node9&#45;&gt;Node7</title>
<path fill="none" stroke="#63b8ff" d="M960.14,-386.5C972.64,-386.5 986.85,-386.5 1000.78,-386.5"/>
<polygon fill="#63b8ff" stroke="#63b8ff" points="1000.84,-390 1010.84,-386.5 1000.84,-383 1000.84,-390"/>
</g>
<!-- Node9&#45;&gt;Node10 -->
<g id="edge10" class="edge">
<title>Node9&#45;&gt;Node10</title>
<path fill="none" stroke="#63b8ff" d="M958.22,-376.91C977.51,-371.94 1001.26,-365.82 1021.77,-360.54"/>
<polygon fill="#63b8ff" stroke="#63b8ff" points="1022.74,-363.9 1031.55,-358.02 1020.99,-357.13 1022.74,-363.9"/>
</g>
<!-- Node11 -->
<g id="node11" class="node">
<title>Node11</title>
<g id="a_node11"><a xlink:href="wait__for__subprocess_8c.html#a1242d78540fd0ddef3d98a9f294cb0d4" target="_top" xlink:title=" ">
<polygon fill="white" stroke="#666666" points="1127.5,-255 1011.5,-255 1011.5,-236 1127.5,-236 1127.5,-255"/>
<text text-anchor="middle" x="1069.5" y="-243" font-family="Helvetica,sans-Serif" font-size="10.00">wait_for_subprocess</text>
</a>
</g>
</g>
<!-- Node9&#45;&gt;Node11 -->
<g id="edge11" class="edge">
<title>Node9&#45;&gt;Node11</title>
<path fill="none" stroke="#63b8ff" d="M931.14,-376.81C955.87,-353.16 1019.57,-292.27 1050.76,-262.46"/>
<polygon fill="#63b8ff" stroke="#63b8ff" points="1053.48,-264.7 1058.29,-255.26 1048.64,-259.64 1053.48,-264.7"/>
</g>
<!-- Node12 -->
<g id="node12" class="node">
<title>Node12</title>
<g id="a_node12"><a xlink:href="wait__for__subprocess_8c.html#a885766ba6ba593b7cf27b917dd52b1a6" target="_top" xlink:title=" ">
<polygon fill="white" stroke="#666666" points="1287,-255 1164,-255 1164,-236 1287,-236 1287,-255"/>
<text text-anchor="middle" x="1225.5" y="-243" font-family="Helvetica,sans-Serif" font-size="10.00">print_signal_message</text>
</a>
</g>
</g>
<!-- Node11&#45;&gt;Node12 -->
<g id="edge12" class="edge">
<title>Node11&#45;&gt;Node12</title>
<path fill="none" stroke="#63b8ff" d="M1127.84,-245.5C1136.26,-245.5 1145.02,-245.5 1153.67,-245.5"/>
<polygon fill="#63b8ff" stroke="#63b8ff" points="1153.76,-249 1163.76,-245.5 1153.76,-242 1153.76,-249"/>
</g>
<!-- Node14 -->
<g id="node14" class="node">
<title>Node14</title>
<g id="a_node14"><a xlink:href="get__variable__value_8c.html#a2edd9900f19af236aa05385a789be3d6" target="_top" xlink:title=" ">
<polygon fill="white" stroke="#666666" points="656,-331 546,-331 546,-312 656,-312 656,-331"/>
<text text-anchor="middle" x="601" y="-319" font-family="Helvetica,sans-Serif" font-size="10.00">get_variable_value</text>
</a>
</g>
</g>
<!-- Node13&#45;&gt;Node14 -->
<g id="edge15" class="edge">
<title>Node13&#45;&gt;Node14</title>
<path fill="none" stroke="#63b8ff" d="M492.08,-346.94C509.84,-342.75 530.86,-337.8 549.61,-333.38"/>
<polygon fill="#63b8ff" stroke="#63b8ff" points="550.54,-336.75 559.47,-331.05 548.93,-329.94 550.54,-336.75"/>
</g>
<!-- Node16 -->
<g id="node16" class="node">
<title>Node16</title>
<g id="a_node16"><a xlink:href="execute__cmd_8c.html#aee9e13edede9df28fac066f30e7ae7ed" target="_top" xlink:title=" ">
<polygon fill="white" stroke="#666666" points="643,-368 559,-368 559,-349 643,-349 643,-368"/>
<text text-anchor="middle" x="601" y="-356" font-family="Helvetica,sans-Serif" font-size="10.00">try_command</text>
</a>
</g>
</g>
<!-- Node13&#45;&gt;Node16 -->
<g id="edge17" class="edge">
<title>Node13&#45;&gt;Node16</title>
<path fill="none" stroke="#63b8ff" d="M509.76,-357.28C522.59,-357.46 536.08,-357.64 548.61,-357.81"/>
<polygon fill="#63b8ff" stroke="#63b8ff" points="548.82,-361.31 558.87,-357.95 548.92,-354.31 548.82,-361.31"/>
</g>
<!-- Node15 -->
<g id="node15" class="node">
<title>Node15</title>
<g id="a_node15"><a xlink:href="get__variable_8c.html#a569170390f0edf013bf89c26ef55ea8c" target="_top" xlink:title=" ">
<polygon fill="white" stroke="#666666" points="799,-331 722,-331 722,-312 799,-312 799,-331"/>
<text text-anchor="middle" x="760.5" y="-319" font-family="Helvetica,sans-Serif" font-size="10.00">get_variable</text>
</a>
</g>
</g>
<!-- Node14&#45;&gt;Node15 -->
<g id="edge16" class="edge">
<title>Node14&#45;&gt;Node15</title>
<path fill="none" stroke="#63b8ff" d="M656.2,-321.5C674.04,-321.5 693.73,-321.5 711.11,-321.5"/>
<polygon fill="#63b8ff" stroke="#63b8ff" points="711.58,-325 721.58,-321.5 711.58,-318 711.58,-325"/>
</g>
<!-- Node16&#45;&gt;Node5 -->
<g id="edge18" class="edge">
<title>Node16&#45;&gt;Node5</title>
<path fill="none" stroke="#63b8ff" d="M642.56,-368.03C662.78,-372.78 687.44,-378.57 708.88,-383.61"/>
<polygon fill="#63b8ff" stroke="#63b8ff" points="708.27,-387.06 718.8,-385.94 709.87,-380.25 708.27,-387.06"/>
</g>
<!-- Node17 -->
<g id="node17" class="node">
<title>Node17</title>
<g id="a_node17"><a xlink:href="execute__cmd_8c.html#a7edf8a207e2b427102f54a379bd13546" target="_top" xlink:title=" ">
<polygon fill="white" stroke="#666666" points="829,-368 692,-368 692,-349 829,-349 829,-368"/>
<text text-anchor="middle" x="760.5" y="-356" font-family="Helvetica,sans-Serif" font-size="10.00">print_permission_denied</text>
</a>
</g>
</g>
<!-- Node16&#45;&gt;Node17 -->
<g id="edge19" class="edge">
<title>Node16&#45;&gt;Node17</title>
<path fill="none" stroke="#63b8ff" d="M643.38,-358.5C655.22,-358.5 668.52,-358.5 681.79,-358.5"/>
<polygon fill="#63b8ff" stroke="#63b8ff" points="681.9,-362 691.9,-358.5 681.9,-355 681.9,-362"/>
</g>
<!-- Node17&#45;&gt;Node18 -->
<g id="edge20" class="edge">
<title>Node17&#45;&gt;Node18</title>
<path fill="none" stroke="#63b8ff" d="M801.42,-348.91C810.56,-346.42 820.18,-343.57 829,-340.5 849.9,-333.23 872.77,-323.29 890.22,-315.27"/>
<polygon fill="#63b8ff" stroke="#63b8ff" points="891.73,-318.43 899.32,-311.04 888.78,-312.08 891.73,-318.43"/>
</g>
<!-- Node19&#45;&gt;Node2 -->
<g id="edge23" class="edge">
<title>Node19&#45;&gt;Node2</title>
<path fill="none" stroke="#63b8ff" d="M239.27,-310.66C239.18,-310.61 239.09,-310.55 239,-310.5 211.74,-293.63 187.51,-264.23 175.16,-244.71"/>
<polygon fill="#63b8ff" stroke="#63b8ff" points="178.15,-242.9 170.09,-236.03 172.11,-246.43 178.15,-242.9"/>
</g>
<!-- Node20&#45;&gt;Node2 -->
<g id="edge25" class="edge">
<title>Node20&#45;&gt;Node2</title>
<path fill="none" stroke="#63b8ff" d="M243.39,-275.27C241.9,-274.69 240.44,-274.1 239,-273.5 218.55,-264.99 196.13,-252.76 181.71,-242.46"/>
<polygon fill="#63b8ff" stroke="#63b8ff" points="183.53,-239.44 173.5,-236.03 179.22,-244.95 183.53,-239.44"/>
</g>
<!-- Node21&#45;&gt;Node11 -->
<g id="edge35" class="edge">
<title>Node21&#45;&gt;Node11</title>
<path fill="none" stroke="#63b8ff" d="M337.57,-132.29C395.28,-131.99 505.89,-131.5 600,-131.5 600,-131.5 600,-131.5 761.5,-131.5 873.93,-131.5 995.86,-199.53 1045.52,-230.48"/>
<polygon fill="#63b8ff" stroke="#63b8ff" points="1043.87,-233.58 1054.2,-235.98 1047.62,-227.67 1043.87,-233.58"/>
</g>
<!-- Node22 -->
<g id="node22" class="node">
<title>Node22</title>
<g id="a_node22"><a xlink:href="execute__pipe_8c.html#a723ff799f939872d17f109a82342294e" target="_top" xlink:title=" ">
<polygon fill="white" stroke="#666666" points="632,-179 570,-179 570,-160 632,-160 632,-179"/>
<text text-anchor="middle" x="601" y="-167" font-family="Helvetica,sans-Serif" font-size="10.00">close_fds</text>
</a>
</g>
</g>
<!-- Node21&#45;&gt;Node22 -->
<g id="edge27" class="edge">
<title>Node21&#45;&gt;Node22</title>
<path fill="none" stroke="#63b8ff" d="M337.8,-138.28C354.25,-140.62 373.53,-143.28 391,-145.5 449.62,-152.96 517.62,-160.58 559.73,-165.17"/>
<polygon fill="#63b8ff" stroke="#63b8ff" points="559.54,-168.67 569.86,-166.27 560.3,-161.71 559.54,-168.67"/>
</g>
<!-- Node23 -->
<g id="node23" class="node">
<title>Node23</title>
<g id="a_node23"><a xlink:href="execute__pipe_8c.html#ac529ffc2370b0133613ef8a81e58ed85" target="_top" xlink:title=" ">
<polygon fill="white" stroke="#666666" points="501.5,-217 399.5,-217 399.5,-198 501.5,-198 501.5,-217"/>
<text text-anchor="middle" x="450.5" y="-205" font-family="Helvetica,sans-Serif" font-size="10.00">execute_pipe_left</text>
</a>
</g>
</g>
<!-- Node21&#45;&gt;Node23 -->
<g id="edge28" class="edge">
<title>Node21&#45;&gt;Node23</title>
<path fill="none" stroke="#63b8ff" d="M336.39,-142.08C342.81,-144.39 349.25,-147.18 355,-150.5 373.79,-161.36 372.68,-171.87 391,-183.5 397.24,-187.46 404.25,-191 411.19,-194.07"/>
<polygon fill="#63b8ff" stroke="#63b8ff" points="409.96,-197.34 420.53,-197.95 412.64,-190.88 409.96,-197.34"/>
</g>
<!-- Node24 -->
<g id="node24" class="node">
<title>Node24</title>
<g id="a_node24"><a xlink:href="execute__pipe_8c.html#a9ed6eabb8a9f7049f91265a5f45e30c8" target="_top" xlink:title=" ">
<polygon fill="white" stroke="#666666" points="505,-103 396,-103 396,-84 505,-84 505,-103"/>
<text text-anchor="middle" x="450.5" y="-91" font-family="Helvetica,sans-Serif" font-size="10.00">execute_pipe_right</text>
</a>
</g>
</g>
<!-- Node21&#45;&gt;Node24 -->
<g id="edge31" class="edge">
<title>Node21&#45;&gt;Node24</title>
<path fill="none" stroke="#63b8ff" d="M335.06,-122.96C355.5,-117.7 381.07,-111.12 402.85,-105.51"/>
<polygon fill="#63b8ff" stroke="#63b8ff" points="403.75,-108.89 412.56,-103.01 402,-102.11 403.75,-108.89"/>
</g>
<!-- Node23&#45;&gt;Node2 -->
<g id="edge30" class="edge">
<title>Node23&#45;&gt;Node2</title>
<path fill="none" stroke="#63b8ff" d="M399.26,-210.87C346.64,-214.41 264.67,-219.91 213.36,-223.35"/>
<polygon fill="#63b8ff" stroke="#63b8ff" points="212.95,-219.87 203.21,-224.04 213.42,-226.86 212.95,-219.87"/>
</g>
<!-- Node23&#45;&gt;Node22 -->
<g id="edge29" class="edge">
<title>Node23&#45;&gt;Node22</title>
<path fill="none" stroke="#63b8ff" d="M488.97,-197.91C510.58,-192.38 537.75,-185.43 559.8,-179.79"/>
<polygon fill="#63b8ff" stroke="#63b8ff" points="560.71,-183.17 569.53,-177.3 558.98,-176.38 560.71,-183.17"/>
</g>
<!-- Node24&#45;&gt;Node2 -->
<g id="edge33" class="edge">
<title>Node24&#45;&gt;Node2</title>
<path fill="none" stroke="#63b8ff" d="M395.75,-86.24C350.63,-82.88 286.17,-84.74 239,-113.5 203.67,-135.04 182.47,-181.05 172.8,-207.23"/>
<polygon fill="#63b8ff" stroke="#63b8ff" points="169.45,-206.21 169.45,-216.81 176.06,-208.53 169.45,-206.21"/>
</g>
<!-- Node24&#45;&gt;Node22 -->
<g id="edge32" class="edge">
<title>Node24&#45;&gt;Node22</title>
<path fill="none" stroke="#63b8ff" d="M470.31,-103.13C496.08,-116.32 542.57,-140.11 572.32,-155.33"/>
<polygon fill="#63b8ff" stroke="#63b8ff" points="570.85,-158.51 581.35,-159.95 574.04,-152.28 570.85,-158.51"/>
</g>
<!-- Node25 -->
<g id="node25" class="node">
<title>Node25</title>
<g id="a_node25"><a xlink:href="execute__pipe_8c.html#ac3d3a124b262676fa0679720f99a7f83" target="_top" xlink:title=" ">
<polygon fill="white" stroke="#666666" points="641,-103 561,-103 561,-84 641,-84 641,-103"/>
<text text-anchor="middle" x="601" y="-91" font-family="Helvetica,sans-Serif" font-size="10.00">restore_stdin</text>
</a>
</g>
</g>
<!-- Node24&#45;&gt;Node25 -->
<g id="edge34" class="edge">
<title>Node24&#45;&gt;Node25</title>
<path fill="none" stroke="#63b8ff" d="M505.11,-93.5C519.95,-93.5 535.99,-93.5 550.58,-93.5"/>
<polygon fill="#63b8ff" stroke="#63b8ff" points="550.91,-97 560.91,-93.5 550.91,-90 550.91,-97"/>
</g>
<!-- Node27 -->
<g id="node27" class="node">
<title>Node27</title>
<g id="a_node27"><a xlink:href="execute__redirect_8c.html#a5aa0f008806cc0e8a7ba252d61b7001f" target="_top" xlink:title=" ">
<polygon fill="white" stroke="#666666" points="504,-38 397,-38 397,-19 504,-19 504,-38"/>
<text text-anchor="middle" x="450.5" y="-26" font-family="Helvetica,sans-Serif" font-size="10.00">redirect_execution</text>
</a>
</g>
</g>
<!-- Node26&#45;&gt;Node27 -->
<g id="edge37" class="edge">
<title>Node26&#45;&gt;Node27</title>
<path fill="none" stroke="#63b8ff" d="M346.35,-21.69C359.19,-22.54 373.24,-23.47 386.72,-24.36"/>
<polygon fill="#63b8ff" stroke="#63b8ff" points="386.68,-27.86 396.89,-25.03 387.14,-20.88 386.68,-27.86"/>
</g>
<!-- Node27&#45;&gt;Node2 -->
<g id="edge38" class="edge">
<title>Node27&#45;&gt;Node2</title>
<path fill="none" stroke="#63b8ff" d="M396.81,-36.62C342.7,-45.84 263.09,-62.14 239,-81.5 198.36,-114.16 178.57,-175.48 170.74,-206.88"/>
<polygon fill="#63b8ff" stroke="#63b8ff" points="167.24,-206.45 168.38,-216.99 174.06,-208.04 167.24,-206.45"/>
</g>
<!-- Node28 -->
<g id="node28" class="node">
<title>Node28</title>
<g id="a_node28"><a xlink:href="execute__redirect_8c.html#a1b8f325fc375581f81ae47a54e09cf0e" target="_top" xlink:title=" ">
<polygon fill="white" stroke="#666666" points="634,-56 568,-56 568,-37 634,-37 634,-56"/>
<text text-anchor="middle" x="601" y="-44" font-family="Helvetica,sans-Serif" font-size="10.00">restore_fd</text>
</a>
</g>
</g>
<!-- Node27&#45;&gt;Node28 -->
<g id="edge39" class="edge">
<title>Node27&#45;&gt;Node28</title>
<path fill="none" stroke="#63b8ff" d="M504.27,-34.9C521.81,-37.02 541.09,-39.36 557.73,-41.38"/>
<polygon fill="#63b8ff" stroke="#63b8ff" points="557.36,-44.86 567.71,-42.59 558.2,-37.91 557.36,-44.86"/>
</g>
<!-- Node29 -->
<g id="node29" class="node">
<title>Node29</title>
<g id="a_node29"><a xlink:href="execute__redirect_8c.html#a6cb002bd51f2009eaacc66d388c5f9a7" target="_top" xlink:title=" ">
<polygon fill="white" stroke="#666666" points="651.5,-19 550.5,-19 550.5,0 651.5,0 651.5,-19"/>
<text text-anchor="middle" x="601" y="-7" font-family="Helvetica,sans-Serif" font-size="10.00">setup_redirection</text>
</a>
</g>
</g>
<!-- Node27&#45;&gt;Node29 -->
<g id="edge40" class="edge">
<title>Node27&#45;&gt;Node29</title>
<path fill="none" stroke="#63b8ff" d="M504.27,-21.75C515.88,-20.26 528.25,-18.68 540.12,-17.16"/>
<polygon fill="#63b8ff" stroke="#63b8ff" points="540.9,-20.59 550.38,-15.85 540.01,-13.65 540.9,-20.59"/>
</g>
<!-- Node30 -->
<g id="node30" class="node">
<title>Node30</title>
<g id="a_node30"><a xlink:href="execute__redirect_8c.html#a0e31af51537a8c047a3aca7cdb63d5dd" target="_top" xlink:title=" ">
<polygon fill="white" stroke="#666666" points="809.5,-19 711.5,-19 711.5,0 809.5,0 809.5,-19"/>
<text text-anchor="middle" x="760.5" y="-7" font-family="Helvetica,sans-Serif" font-size="10.00">open_redirect_fd</text>
</a>
</g>
</g>
<!-- Node29&#45;&gt;Node30 -->
<g id="edge41" class="edge">
<title>Node29&#45;&gt;Node30</title>
<path fill="none" stroke="#63b8ff" d="M651.83,-9.5C667.43,-9.5 684.79,-9.5 700.93,-9.5"/>
<polygon fill="#63b8ff" stroke="#63b8ff" points="701.34,-13 711.34,-9.5 701.34,-6 701.34,-13"/>
</g>
<!-- Node31 -->
<g id="node31" class="node">
<title>Node31</title>
<g id="a_node31"><a xlink:href="execute__redirect_8c.html#a71feea783167b3804f2793a232ca74b4" target="_top" xlink:title=" ">
<polygon fill="white" stroke="#666666" points="955.5,-19 884.5,-19 884.5,0 955.5,0 955.5,-19"/>
<text text-anchor="middle" x="920" y="-7" font-family="Helvetica,sans-Serif" font-size="10.00">heredoc_fd</text>
</a>
</g>
</g>
<!-- Node30&#45;&gt;Node31 -->
<g id="edge42" class="edge">
<title>Node30&#45;&gt;Node31</title>
<path fill="none" stroke="#63b8ff" d="M809.61,-9.5C830.1,-9.5 853.87,-9.5 874.01,-9.5"/>
<polygon fill="#63b8ff" stroke="#63b8ff" points="874.17,-13 884.17,-9.5 874.17,-6 874.17,-13"/>
</g>
<!-- Node32 -->
<g id="node32" class="node">
<title>Node32</title>
<g id="a_node32"><a xlink:href="execute__redirect_8c.html#a639d0a6f315a3bae78d204ff798e314f" target="_top" xlink:title=" ">
<polygon fill="white" stroke="#666666" points="1123,-19 1016,-19 1016,0 1123,0 1123,-19"/>
<text text-anchor="middle" x="1069.5" y="-7" font-family="Helvetica,sans-Serif" font-size="10.00">get_heredoc_input</text>
</a>
</g>
</g>
<!-- Node31&#45;&gt;Node32 -->
<g id="edge43" class="edge">
<title>Node31&#45;&gt;Node32</title>
<path fill="none" stroke="#63b8ff" d="M955.58,-9.5C970.6,-9.5 988.67,-9.5 1005.91,-9.5"/>
<polygon fill="#63b8ff" stroke="#63b8ff" points="1005.94,-13 1015.94,-9.5 1005.94,-6 1005.94,-13"/>
</g>
<!-- Node33 -->
<g id="node33" class="node">
<title>Node33</title>
<g id="a_node33"><a xlink:href="execute__redirect_8c.html#a4e396606481bc13335d3dfae7ff15407" target="_top" xlink:title=" ">
<polygon fill="white" stroke="#666666" points="1276.5,-19 1174.5,-19 1174.5,0 1276.5,0 1276.5,-19"/>
<text text-anchor="middle" x="1225.5" y="-7" font-family="Helvetica,sans-Serif" font-size="10.00">is_heredoc_delim</text>
</a>
</g>
</g>
<!-- Node32&#45;&gt;Node33 -->
<g id="edge44" class="edge">
<title>Node32&#45;&gt;Node33</title>
<path fill="none" stroke="#63b8ff" d="M1123.07,-9.5C1136.26,-9.5 1150.52,-9.5 1164.06,-9.5"/>
<polygon fill="#63b8ff" stroke="#63b8ff" points="1164.25,-13 1174.25,-9.5 1164.25,-6 1164.25,-13"/>
</g>
<!-- Node34&#45;&gt;Node2 -->
<g id="edge47" class="edge">
<title>Node34&#45;&gt;Node2</title>
<path fill="none" stroke="#63b8ff" d="M287.47,-179.18C276.3,-186.61 256.11,-195 239,-202.5 230.44,-206.25 221.35,-210.32 212.6,-214.11"/>
<polygon fill="#63b8ff" stroke="#63b8ff" points="211.11,-210.94 203.29,-218.09 213.86,-217.38 211.11,-210.94"/>
</g>
<!-- Node35&#45;&gt;Node2 -->
<g id="edge49" class="edge">
<title>Node35&#45;&gt;Node2</title>
<path fill="none" stroke="#63b8ff" d="M246.43,-244.81C232.05,-243.02 216.61,-240.61 203.17,-238.03"/>
<polygon fill="#63b8ff" stroke="#63b8ff" points="203.83,-234.59 193.33,-236.03 202.43,-241.45 203.83,-234.59"/>
</g>
<!-- Node35&#45;&gt;Node11 -->
<g id="edge50" class="edge">
<title>Node35&#45;&gt;Node11</title>
<path fill="none" stroke="#63b8ff" d="M347.7,-245.5C407.55,-245.5 511.13,-245.5 600,-245.5 600,-245.5 600,-245.5 761.5,-245.5 844.05,-245.5 939.08,-245.5 1001.28,-245.5"/>
<polygon fill="#63b8ff" stroke="#63b8ff" points="1001.35,-249 1011.35,-245.5 1001.35,-242 1001.35,-249"/>
</g>
</g>
</svg>
        <g id="navigator" transform="translate(0 0)" fill="#404254">
                <rect fill="#f2f5e9" fill-opacity="0.5" stroke="#606060" stroke-width=".5" x="0" y="0" width="60" height="60"/>
                <use id="zoomplus" xlink:href="#zoomPlus" x="17" y="9" onmousedown="handleZoom(evt,'in')"/>
                <use id="zoomminus" xlink:href="#zoomMin" x="42" y="9" onmousedown="handleZoom(evt,'out')"/>
                <use id="reset" xlink:href="#resetDef" x="30" y="36" onmousedown="handleReset()"/>
                <g id="arrowUp" xlink:href="#dirArrow" transform="translate(30 24)" onmousedown="handlePan(0,-1)">
                  <use xlink:href="#rim" fill="#404040">
                        <set attributeName="fill" to="#808080" begin="arrowUp.mouseover" end="arrowUp.mouseout"/>
                  </use>
                  <path fill="none" stroke="white" stroke-width="1.5" d="M0,-3.0v7 M-2.5,-0.5L0,-3.0L2.5,-0.5"/>
                </g>
                <g id="arrowRight" xlink:href="#dirArrow" transform="rotate(90) translate(36 -43)" onmousedown="handlePan(1,0)">
                  <use xlink:href="#rim" fill="#404040">
                        <set attributeName="fill" to="#808080" begin="arrowRight.mouseover" end="arrowRight.mouseout"/>
                  </use>
                  <path fill="none" stroke="white" stroke-width="1.5" d="M0,-3.0v7 M-2.5,-0.5L0,-3.0L2.5,-0.5"/>
                </g>
                <g id="arrowDown" xlink:href="#dirArrow" transform="rotate(180) translate(-30 -48)" onmousedown="handlePan(0,1)">
                  <use xlink:href="#rim" fill="#404040">
                        <set attributeName="fill" to="#808080" begin="arrowDown.mouseover" end="arrowDown.mouseout"/>
                  </use>
                  <path fill="none" stroke="white" stroke-width="1.5" d="M0,-3.0v7 M-2.5,-0.5L0,-3.0L2.5,-0.5"/>
                </g>
                <g id="arrowLeft" xlink:href="#dirArrow" transform="rotate(270) translate(-36 17)" onmousedown="handlePan(-1,0)">
                  <use xlink:href="#rim" fill="#404040">
                        <set attributeName="fill" to="#808080" begin="arrowLeft.mouseover" end="arrowLeft.mouseout"/>
                  </use>
                  <path fill="none" stroke="white" stroke-width="1.5" d="M0,-3.0v7 M-2.5,-0.5L0,-3.0L2.5,-0.5"/>
                </g>
        </g>
        <svg viewBox="0 0 15 15" width="100%" height="30px" preserveAspectRatio="xMaxYMin meet">
         <g id="arrow_out" transform="scale(0.3 0.3)">
          <a xlink:href="execute__repeat_8c_a00d48683c54b50130b4a402e6e97fa97_cgraph_org.svg" target="_base">
           <rect id="button" ry="5" rx="5" y="6" x="6" height="38" width="38"
                fill="#f2f5e9" fill-opacity="0.5" stroke="#606060" stroke-width="1.0"/>
           <path id="arrow"
             d="M 11.500037,31.436501 C 11.940474,20.09759 22.043105,11.32322 32.158766,21.979434 L 37.068811,17.246167 C 37.068811,17.246167 37.088388,32 37.088388,32 L 22.160133,31.978069 C 22.160133,31.978069 26.997745,27.140456 26.997745,27.140456 C 18.528582,18.264221 13.291696,25.230495 11.500037,31.436501 z"
             style="fill:#404040;"/>
          </a>
         </g>
        </svg>
</svg>
