<?xml version="1.0" encoding="UTF-8" standalone="no"?>
<!DOCTYPE svg PUBLIC "-//W3C//DTD SVG 1.1//EN"
 "http://www.w3.org/Graphics/SVG/1.1/DTD/svg11.dtd">
<!-- Generated by graphviz version 2.43.0 (0)
 -->
<!-- Title: src/builtins/exit.c Pages: 1 -->
<svg width="387pt" height="192pt"
 viewBox="0.00 0.00 386.50 192.00" xmlns="http://www.w3.org/2000/svg" xmlns:xlink="http://www.w3.org/1999/xlink">
<g id="graph0" class="graph" transform="scale(1 1) rotate(0) translate(4 188)">
<title>src/builtins/exit.c</title>
<!-- Node1 -->
<g id="node1" class="node">
<title>Node1</title>
<g id="a_node1"><a xlink:title=" ">
<polygon fill="#999999" stroke="#666666" points="224,-184 124,-184 124,-165 224,-165 224,-184"/>
<text text-anchor="middle" x="174" y="-172" font-family="Helvetica,sans-Serif" font-size="10.00">src/builtins/exit.c</text>
</a>
</g>
</g>
<!-- Node2 -->
<g id="node2" class="node">
<title>Node2</title>
<g id="a_node2"><a xlink:title=" ">
<polygon fill="#e0e0e0" stroke="#999999" points="50,-129 0,-129 0,-110 50,-110 50,-129"/>
<text text-anchor="middle" x="25" y="-117" font-family="Helvetica,sans-Serif" font-size="10.00">stdio.h</text>
</a>
</g>
</g>
<!-- Node1&#45;&gt;Node2 -->
<g id="edge1" class="edge">
<title>Node1&#45;&gt;Node2</title>
<path fill="none" stroke="#63b8ff" d="M150.06,-164.98C125.44,-156.23 86.88,-142.51 59.08,-132.62"/>
<polygon fill="#63b8ff" stroke="#63b8ff" points="59.97,-129.22 49.38,-129.17 57.62,-135.82 59.97,-129.22"/>
</g>
<!-- Node3 -->
<g id="node3" class="node">
<title>Node3</title>
<g id="a_node3"><a xlink:title=" ">
<polygon fill="#e0e0e0" stroke="#999999" points="121.5,-129 68.5,-129 68.5,-110 121.5,-110 121.5,-129"/>
<text text-anchor="middle" x="95" y="-117" font-family="Helvetica,sans-Serif" font-size="10.00">stdlib.h</text>
</a>
</g>
</g>
<!-- Node1&#45;&gt;Node3 -->
<g id="edge2" class="edge">
<title>Node1&#45;&gt;Node3</title>
<path fill="none" stroke="#63b8ff" d="M161.31,-164.98C149.17,-156.84 130.64,-144.41 116.25,-134.76"/>
<polygon fill="#63b8ff" stroke="#63b8ff" points="118.18,-131.84 107.92,-129.17 114.28,-137.65 118.18,-131.84"/>
</g>
<!-- Node4 -->
<g id="node4" class="node">
<title>Node4</title>
<g id="a_node4"><a xlink:href="misc_8h.html" target="_top" xlink:title=" ">
<polygon fill="white" stroke="#666666" points="208,-129 140,-129 140,-110 208,-110 208,-129"/>
<text text-anchor="middle" x="174" y="-117" font-family="Helvetica,sans-Serif" font-size="10.00">my/misc.h</text>
</a>
</g>
</g>
<!-- Node1&#45;&gt;Node4 -->
<g id="edge3" class="edge">
<title>Node1&#45;&gt;Node4</title>
<path fill="none" stroke="#63b8ff" d="M174,-164.75C174,-157.8 174,-147.85 174,-139.13"/>
<polygon fill="#63b8ff" stroke="#63b8ff" points="177.5,-139.09 174,-129.09 170.5,-139.09 177.5,-139.09"/>
</g>
<!-- Node5 -->
<g id="node5" class="node">
<title>Node5</title>
<g id="a_node5"><a xlink:href="strings_8h.html" target="_top" xlink:title=" ">
<polygon fill="white" stroke="#666666" points="303.5,-129 226.5,-129 226.5,-110 303.5,-110 303.5,-129"/>
<text text-anchor="middle" x="265" y="-117" font-family="Helvetica,sans-Serif" font-size="10.00">my/strings.h</text>
</a>
</g>
</g>
<!-- Node1&#45;&gt;Node5 -->
<g id="edge4" class="edge">
<title>Node1&#45;&gt;Node5</title>
<path fill="none" stroke="#63b8ff" d="M188.62,-164.98C202.86,-156.69 224.75,-143.94 241.45,-134.22"/>
<polygon fill="#63b8ff" stroke="#63b8ff" points="243.23,-137.23 250.11,-129.17 239.71,-131.18 243.23,-137.23"/>
</g>
<!-- Node8 -->
<g id="node8" class="node">
<title>Node8</title>
<g id="a_node8"><a xlink:href="shell_8h.html" target="_top" xlink:title=" ">
<polygon fill="white" stroke="#666666" points="372.5,-129 323.5,-129 323.5,-110 372.5,-110 372.5,-129"/>
<text text-anchor="middle" x="348" y="-117" font-family="Helvetica,sans-Serif" font-size="10.00">shell.h</text>
</a>
</g>
</g>
<!-- Node1&#45;&gt;Node8 -->
<g id="edge7" class="edge">
<title>Node1&#45;&gt;Node8</title>
<path fill="none" stroke="#63b8ff" d="M201.96,-164.98C232.43,-155.7 281.19,-140.85 313.89,-130.89"/>
<polygon fill="#63b8ff" stroke="#63b8ff" points="314.94,-134.23 323.49,-127.97 312.9,-127.53 314.94,-134.23"/>
</g>
<!-- Node6 -->
<g id="node6" class="node">
<title>Node6</title>
<g id="a_node6"><a xlink:title=" ">
<polygon fill="#e0e0e0" stroke="#999999" points="303,-19 247,-19 247,0 303,0 303,-19"/>
<text text-anchor="middle" x="275" y="-7" font-family="Helvetica,sans-Serif" font-size="10.00">stddef.h</text>
</a>
</g>
</g>
<!-- Node5&#45;&gt;Node6 -->
<g id="edge5" class="edge">
<title>Node5&#45;&gt;Node6</title>
<path fill="none" stroke="#63b8ff" d="M251.28,-109.86C234.58,-98.18 209.82,-76.34 220,-55 226.09,-42.23 237.84,-31.94 248.92,-24.49"/>
<polygon fill="#63b8ff" stroke="#63b8ff" points="250.9,-27.38 257.54,-19.12 247.2,-21.43 250.9,-27.38"/>
</g>
<!-- Node7 -->
<g id="node7" class="node">
<title>Node7</title>
<g id="a_node7"><a xlink:title=" ">
<polygon fill="#e0e0e0" stroke="#999999" points="301,-74 229,-74 229,-55 301,-55 301,-74"/>
<text text-anchor="middle" x="265" y="-62" font-family="Helvetica,sans-Serif" font-size="10.00">sys/types.h</text>
</a>
</g>
</g>
<!-- Node5&#45;&gt;Node7 -->
<g id="edge6" class="edge">
<title>Node5&#45;&gt;Node7</title>
<path fill="none" stroke="#63b8ff" d="M265,-109.75C265,-102.8 265,-92.85 265,-84.13"/>
<polygon fill="#63b8ff" stroke="#63b8ff" points="268.5,-84.09 265,-74.09 261.5,-84.09 268.5,-84.09"/>
</g>
<!-- Node9 -->
<g id="node9" class="node">
<title>Node9</title>
<g id="a_node9"><a xlink:href="list_8h.html" target="_top" xlink:title=" ">
<polygon fill="white" stroke="#666666" points="378.5,-74 319.5,-74 319.5,-55 378.5,-55 378.5,-74"/>
<text text-anchor="middle" x="349" y="-62" font-family="Helvetica,sans-Serif" font-size="10.00">my/list.h</text>
</a>
</g>
</g>
<!-- Node8&#45;&gt;Node9 -->
<g id="edge8" class="edge">
<title>Node8&#45;&gt;Node9</title>
<path fill="none" stroke="#63b8ff" d="M348.17,-109.75C348.3,-102.8 348.48,-92.85 348.65,-84.13"/>
<polygon fill="#63b8ff" stroke="#63b8ff" points="352.15,-84.15 348.84,-74.09 345.15,-84.02 352.15,-84.15"/>
</g>
<!-- Node9&#45;&gt;Node6 -->
<g id="edge9" class="edge">
<title>Node9&#45;&gt;Node6</title>
<path fill="none" stroke="#63b8ff" d="M337.11,-54.98C325.85,-46.92 308.71,-34.65 295.29,-25.03"/>
<polygon fill="#63b8ff" stroke="#63b8ff" points="297.27,-22.15 287.11,-19.17 293.2,-27.84 297.27,-22.15"/>
</g>
</g>
</svg>
