<?xml version="1.0" encoding="UTF-8" standalone="no"?>
<!DOCTYPE svg PUBLIC "-//W3C//DTD SVG 1.1//EN"
 "http://www.w3.org/Graphics/SVG/1.1/DTD/svg11.dtd">
<!-- Generated by graphviz version 2.43.0 (0)
 -->
<!-- Title: builtin_exit Pages: 1 -->
<svg width="201pt" height="64pt"
 viewBox="0.00 0.00 201.00 64.00" xmlns="http://www.w3.org/2000/svg" xmlns:xlink="http://www.w3.org/1999/xlink">
<g id="graph0" class="graph" transform="scale(1 1) rotate(0) translate(4 60)">
<title>builtin_exit</title>
<!-- Node1 -->
<g id="node1" class="node">
<title>Node1</title>
<g id="a_node1"><a xlink:title=" ">
<polygon fill="#999999" stroke="#666666" points="71,-37 0,-37 0,-18 71,-18 71,-37"/>
<text text-anchor="middle" x="35.5" y="-25" font-family="Helvetica,sans-Serif" font-size="10.00">builtin_exit</text>
</a>
</g>
</g>
<!-- Node2 -->
<g id="node2" class="node">
<title>Node2</title>
<g id="a_node2"><a xlink:href="strings_8h.html#adfd4fc057d3b7ad39c6867928cc44175" target="_top" xlink:title=" ">
<polygon fill="white" stroke="#666666" points="191.5,-56 108.5,-56 108.5,-37 191.5,-37 191.5,-56"/>
<text text-anchor="middle" x="150" y="-44" font-family="Helvetica,sans-Serif" font-size="10.00">my_isnumber</text>
</a>
</g>
</g>
<!-- Node1&#45;&gt;Node2 -->
<g id="edge1" class="edge">
<title>Node1&#45;&gt;Node2</title>
<path fill="none" stroke="#63b8ff" d="M71.17,-33.36C79.8,-34.81 89.23,-36.41 98.45,-37.96"/>
<polygon fill="#63b8ff" stroke="#63b8ff" points="97.88,-41.42 108.33,-39.63 99.05,-34.51 97.88,-41.42"/>
</g>
<!-- Node3 -->
<g id="node3" class="node">
<title>Node3</title>
<g id="a_node3"><a xlink:href="strings_8h.html#a323aa24048c4eb482546b0ac2ad9f414" target="_top" xlink:title=" ">
<polygon fill="white" stroke="#666666" points="193,-19 107,-19 107,0 193,0 193,-19"/>
<text text-anchor="middle" x="150" y="-7" font-family="Helvetica,sans-Serif" font-size="10.00">my_str_isnum</text>
</a>
</g>
</g>
<!-- Node1&#45;&gt;Node3 -->
<g id="edge2" class="edge">
<title>Node1&#45;&gt;Node3</title>
<path fill="none" stroke="#63b8ff" d="M71.17,-21.95C79.25,-20.66 88.02,-19.26 96.67,-17.87"/>
<polygon fill="#63b8ff" stroke="#63b8ff" points="97.39,-21.3 106.72,-16.27 96.29,-14.39 97.39,-21.3"/>
</g>
</g>
</svg>
