<?xml version="1.0" encoding="UTF-8" standalone="no"?>
<!DOCTYPE svg PUBLIC "-//W3C//DTD SVG 1.1//EN"
 "http://www.w3.org/Graphics/SVG/1.1/DTD/svg11.dtd">
<!-- Generated by graphviz version 2.43.0 (0)
 -->
<!-- Title: src/lexer/lexer_expand_variable.c Pages: 1 -->
<svg width="571pt" height="258pt"
 viewBox="0.00 0.00 571.00 258.00" xmlns="http://www.w3.org/2000/svg" xmlns:xlink="http://www.w3.org/1999/xlink">
<g id="graph0" class="graph" transform="scale(1 1) rotate(0) translate(4 254)">
<title>src/lexer/lexer_expand_variable.c</title>
<!-- Node1 -->
<g id="node1" class="node">
<title>Node1</title>
<g id="a_node1"><a xlink:title=" ">
<polygon fill="#999999" stroke="#666666" points="341.5,-250 215.5,-250 215.5,-220 341.5,-220 341.5,-250"/>
<text text-anchor="start" x="223.5" y="-238" font-family="Helvetica,sans-Serif" font-size="10.00">src/lexer/lexer_expand</text>
<text text-anchor="middle" x="278.5" y="-227" font-family="Helvetica,sans-Serif" font-size="10.00">_variable.c</text>
</a>
</g>
</g>
<!-- Node2 -->
<g id="node2" class="node">
<title>Node2</title>
<g id="a_node2"><a xlink:title=" ">
<polygon fill="#e0e0e0" stroke="#999999" points="53,-184 0,-184 0,-165 53,-165 53,-184"/>
<text text-anchor="middle" x="26.5" y="-172" font-family="Helvetica,sans-Serif" font-size="10.00">ctype.h</text>
</a>
</g>
</g>
<!-- Node1&#45;&gt;Node2 -->
<g id="edge1" class="edge">
<title>Node1&#45;&gt;Node2</title>
<path fill="none" stroke="#63b8ff" d="M217.5,-219.95C176.59,-210.52 121.24,-197.72 63.31,-184.18"/>
<polygon fill="#63b8ff" stroke="#63b8ff" points="63.77,-180.69 53.23,-181.83 62.17,-187.51 63.77,-180.69"/>
</g>
<!-- Node3 -->
<g id="node3" class="node">
<title>Node3</title>
<g id="a_node3"><a xlink:title=" ">
<polygon fill="#e0e0e0" stroke="#999999" points="121.5,-184 71.5,-184 71.5,-165 121.5,-165 121.5,-184"/>
<text text-anchor="middle" x="96.5" y="-172" font-family="Helvetica,sans-Serif" font-size="10.00">stdio.h</text>
</a>
</g>
</g>
<!-- Node1&#45;&gt;Node3 -->
<g id="edge2" class="edge">
<title>Node1&#45;&gt;Node3</title>
<path fill="none" stroke="#63b8ff" d="M234.91,-219.99C203.2,-209.8 160.85,-196.18 131.38,-186.71"/>
<polygon fill="#63b8ff" stroke="#63b8ff" points="132.13,-183.27 121.53,-183.55 129.98,-189.94 132.13,-183.27"/>
</g>
<!-- Node4 -->
<g id="node4" class="node">
<title>Node4</title>
<g id="a_node4"><a xlink:title=" ">
<polygon fill="#e0e0e0" stroke="#999999" points="193,-184 140,-184 140,-165 193,-165 193,-184"/>
<text text-anchor="middle" x="166.5" y="-172" font-family="Helvetica,sans-Serif" font-size="10.00">stdlib.h</text>
</a>
</g>
</g>
<!-- Node1&#45;&gt;Node4 -->
<g id="edge3" class="edge">
<title>Node1&#45;&gt;Node4</title>
<path fill="none" stroke="#63b8ff" d="M251.67,-219.99C233.65,-210.58 210.04,-198.24 192.25,-188.95"/>
<polygon fill="#63b8ff" stroke="#63b8ff" points="193.52,-185.67 183.04,-184.14 190.28,-191.87 193.52,-185.67"/>
</g>
<!-- Node5 -->
<g id="node5" class="node">
<title>Node5</title>
<g id="a_node5"><a xlink:title=" ">
<polygon fill="#e0e0e0" stroke="#999999" points="264,-184 211,-184 211,-165 264,-165 264,-184"/>
<text text-anchor="middle" x="237.5" y="-172" font-family="Helvetica,sans-Serif" font-size="10.00">string.h</text>
</a>
</g>
</g>
<!-- Node1&#45;&gt;Node5 -->
<g id="edge4" class="edge">
<title>Node1&#45;&gt;Node5</title>
<path fill="none" stroke="#63b8ff" d="M268.58,-219.84C262.81,-211.61 255.5,-201.18 249.42,-192.51"/>
<polygon fill="#63b8ff" stroke="#63b8ff" points="252.25,-190.45 243.64,-184.27 246.52,-194.46 252.25,-190.45"/>
</g>
<!-- Node6 -->
<g id="node6" class="node">
<title>Node6</title>
<g id="a_node6"><a xlink:title=" ">
<polygon fill="#e0e0e0" stroke="#999999" points="375.5,-129 303.5,-129 303.5,-110 375.5,-110 375.5,-129"/>
<text text-anchor="middle" x="339.5" y="-117" font-family="Helvetica,sans-Serif" font-size="10.00">sys/types.h</text>
</a>
</g>
</g>
<!-- Node1&#45;&gt;Node6 -->
<g id="edge5" class="edge">
<title>Node1&#45;&gt;Node6</title>
<path fill="none" stroke="#63b8ff" d="M324.15,-219.87C341.16,-212.14 358.71,-200.64 368.5,-184 377.47,-168.75 366.78,-150.24 355.93,-137.15"/>
<polygon fill="#63b8ff" stroke="#63b8ff" points="358.27,-134.51 348.98,-129.41 353.06,-139.19 358.27,-134.51"/>
</g>
<!-- Node7 -->
<g id="node7" class="node">
<title>Node7</title>
<g id="a_node7"><a xlink:href="strings_8h.html" target="_top" xlink:title=" ">
<polygon fill="white" stroke="#666666" points="359,-184 282,-184 282,-165 359,-165 359,-184"/>
<text text-anchor="middle" x="320.5" y="-172" font-family="Helvetica,sans-Serif" font-size="10.00">my/strings.h</text>
</a>
</g>
</g>
<!-- Node1&#45;&gt;Node7 -->
<g id="edge6" class="edge">
<title>Node1&#45;&gt;Node7</title>
<path fill="none" stroke="#63b8ff" d="M288.67,-219.84C294.58,-211.61 302.06,-201.18 308.29,-192.51"/>
<polygon fill="#63b8ff" stroke="#63b8ff" points="311.22,-194.43 314.21,-184.27 305.53,-190.35 311.22,-194.43"/>
</g>
<!-- Node9 -->
<g id="node9" class="node">
<title>Node9</title>
<g id="a_node9"><a xlink:href="lexer_8h.html" target="_top" xlink:title=" ">
<polygon fill="white" stroke="#666666" points="465,-184 416,-184 416,-165 465,-165 465,-184"/>
<text text-anchor="middle" x="440.5" y="-172" font-family="Helvetica,sans-Serif" font-size="10.00">lexer.h</text>
</a>
</g>
</g>
<!-- Node1&#45;&gt;Node9 -->
<g id="edge9" class="edge">
<title>Node1&#45;&gt;Node9</title>
<path fill="none" stroke="#63b8ff" d="M317.3,-219.99C344.69,-210.1 381.02,-196.98 407.11,-187.56"/>
<polygon fill="#63b8ff" stroke="#63b8ff" points="408.36,-190.83 416.58,-184.14 405.98,-184.24 408.36,-190.83"/>
</g>
<!-- Node10 -->
<g id="node10" class="node">
<title>Node10</title>
<g id="a_node10"><a xlink:href="shell_8h.html" target="_top" xlink:title=" ">
<polygon fill="white" stroke="#666666" points="553,-129 504,-129 504,-110 553,-110 553,-129"/>
<text text-anchor="middle" x="528.5" y="-117" font-family="Helvetica,sans-Serif" font-size="10.00">shell.h</text>
</a>
</g>
</g>
<!-- Node1&#45;&gt;Node10 -->
<g id="edge16" class="edge">
<title>Node1&#45;&gt;Node10</title>
<path fill="none" stroke="#63b8ff" d="M341.51,-227.87C381.97,-221.63 434.28,-209.1 474.5,-184 493.03,-172.44 508.48,-152.43 518.04,-137.96"/>
<polygon fill="#63b8ff" stroke="#63b8ff" points="521.07,-139.72 523.45,-129.4 515.15,-135.99 521.07,-139.72"/>
</g>
<!-- Node7&#45;&gt;Node6 -->
<g id="edge8" class="edge">
<title>Node7&#45;&gt;Node6</title>
<path fill="none" stroke="#63b8ff" d="M323.64,-164.75C326.18,-157.65 329.86,-147.4 333.03,-138.56"/>
<polygon fill="#63b8ff" stroke="#63b8ff" points="336.34,-139.68 336.42,-129.09 329.75,-137.32 336.34,-139.68"/>
</g>
<!-- Node8 -->
<g id="node8" class="node">
<title>Node8</title>
<g id="a_node8"><a xlink:title=" ">
<polygon fill="#e0e0e0" stroke="#999999" points="503.5,-19 447.5,-19 447.5,0 503.5,0 503.5,-19"/>
<text text-anchor="middle" x="475.5" y="-7" font-family="Helvetica,sans-Serif" font-size="10.00">stddef.h</text>
</a>
</g>
</g>
<!-- Node7&#45;&gt;Node8 -->
<g id="edge7" class="edge">
<title>Node7&#45;&gt;Node8</title>
<path fill="none" stroke="#63b8ff" d="M312.1,-164.91C300.87,-152.35 283.58,-128.46 294.5,-110 325.26,-58 393.93,-31.34 437.29,-19.2"/>
<polygon fill="#63b8ff" stroke="#63b8ff" points="438.44,-22.52 447.2,-16.55 436.64,-15.75 438.44,-22.52"/>
</g>
<!-- Node9&#45;&gt;Node6 -->
<g id="edge11" class="edge">
<title>Node9&#45;&gt;Node6</title>
<path fill="none" stroke="#63b8ff" d="M424.27,-164.98C408.32,-156.61 383.72,-143.7 365.12,-133.95"/>
<polygon fill="#63b8ff" stroke="#63b8ff" points="366.5,-130.72 356.02,-129.17 363.25,-136.92 366.5,-130.72"/>
</g>
<!-- Node9&#45;&gt;Node8 -->
<g id="edge10" class="edge">
<title>Node9&#45;&gt;Node8</title>
<path fill="none" stroke="#63b8ff" d="M444.18,-164.79C447.79,-155.92 453.22,-141.72 456.5,-129 465.43,-94.32 470.93,-52.79 473.59,-29.24"/>
<polygon fill="#63b8ff" stroke="#63b8ff" points="477.07,-29.55 474.66,-19.24 470.11,-28.81 477.07,-29.55"/>
</g>
<!-- Node9&#45;&gt;Node10 -->
<g id="edge12" class="edge">
<title>Node9&#45;&gt;Node10</title>
<path fill="none" stroke="#63b8ff" d="M454.64,-164.98C468.29,-156.77 489.19,-144.18 505.28,-134.49"/>
<polygon fill="#63b8ff" stroke="#63b8ff" points="507.34,-137.33 514.1,-129.17 503.73,-131.33 507.34,-137.33"/>
</g>
<!-- Node12 -->
<g id="node12" class="node">
<title>Node12</title>
<g id="a_node12"><a xlink:href="token_8h.html" target="_top" xlink:title=" ">
<polygon fill="white" stroke="#666666" points="447,-129 394,-129 394,-110 447,-110 447,-129"/>
<text text-anchor="middle" x="420.5" y="-117" font-family="Helvetica,sans-Serif" font-size="10.00">token.h</text>
</a>
</g>
</g>
<!-- Node9&#45;&gt;Node12 -->
<g id="edge15" class="edge">
<title>Node9&#45;&gt;Node12</title>
<path fill="none" stroke="#63b8ff" d="M437.2,-164.75C434.52,-157.65 430.65,-147.4 427.31,-138.56"/>
<polygon fill="#63b8ff" stroke="#63b8ff" points="430.55,-137.21 423.74,-129.09 424,-139.68 430.55,-137.21"/>
</g>
<!-- Node11 -->
<g id="node11" class="node">
<title>Node11</title>
<g id="a_node11"><a xlink:href="list_8h.html" target="_top" xlink:title=" ">
<polygon fill="white" stroke="#666666" points="563,-74 504,-74 504,-55 563,-55 563,-74"/>
<text text-anchor="middle" x="533.5" y="-62" font-family="Helvetica,sans-Serif" font-size="10.00">my/list.h</text>
</a>
</g>
</g>
<!-- Node10&#45;&gt;Node11 -->
<g id="edge13" class="edge">
<title>Node10&#45;&gt;Node11</title>
<path fill="none" stroke="#63b8ff" d="M529.33,-109.75C529.98,-102.8 530.92,-92.85 531.74,-84.13"/>
<polygon fill="#63b8ff" stroke="#63b8ff" points="535.23,-84.37 532.69,-74.09 528.27,-83.72 535.23,-84.37"/>
</g>
<!-- Node11&#45;&gt;Node8 -->
<g id="edge14" class="edge">
<title>Node11&#45;&gt;Node8</title>
<path fill="none" stroke="#63b8ff" d="M524.18,-54.98C515.69,-47.23 502.94,-35.58 492.62,-26.14"/>
<polygon fill="#63b8ff" stroke="#63b8ff" points="494.73,-23.33 484.99,-19.17 490.01,-28.5 494.73,-23.33"/>
</g>
</g>
</svg>
