<?xml version="1.0" encoding="UTF-8" standalone="no"?>
<!DOCTYPE svg PUBLIC "-//W3C//DTD SVG 1.1//EN"
 "http://www.w3.org/Graphics/SVG/1.1/DTD/svg11.dtd">
<!-- Generated by graphviz version 2.43.0 (0)
 -->
<!-- Title: src/lexer/lexer_init.c Pages: 1 -->
<svg width="282pt" height="247pt"
 viewBox="0.00 0.00 282.00 247.00" xmlns="http://www.w3.org/2000/svg" xmlns:xlink="http://www.w3.org/1999/xlink">
<g id="graph0" class="graph" transform="scale(1 1) rotate(0) translate(4 243)">
<title>src/lexer/lexer_init.c</title>
<!-- Node1 -->
<g id="node1" class="node">
<title>Node1</title>
<g id="a_node1"><a xlink:title=" ">
<polygon fill="#999999" stroke="#666666" points="164.5,-239 50.5,-239 50.5,-220 164.5,-220 164.5,-239"/>
<text text-anchor="middle" x="107.5" y="-227" font-family="Helvetica,sans-Serif" font-size="10.00">src/lexer/lexer_init.c</text>
</a>
</g>
</g>
<!-- Node2 -->
<g id="node2" class="node">
<title>Node2</title>
<g id="a_node2"><a xlink:title=" ">
<polygon fill="#e0e0e0" stroke="#999999" points="53,-184 0,-184 0,-165 53,-165 53,-184"/>
<text text-anchor="middle" x="26.5" y="-172" font-family="Helvetica,sans-Serif" font-size="10.00">stdlib.h</text>
</a>
</g>
</g>
<!-- Node1&#45;&gt;Node2 -->
<g id="edge1" class="edge">
<title>Node1&#45;&gt;Node2</title>
<path fill="none" stroke="#63b8ff" d="M94.49,-219.98C82.04,-211.84 63.04,-199.41 48.29,-189.76"/>
<polygon fill="#63b8ff" stroke="#63b8ff" points="50.04,-186.72 39.75,-184.17 46.2,-192.57 50.04,-186.72"/>
</g>
<!-- Node3 -->
<g id="node3" class="node">
<title>Node3</title>
<g id="a_node3"><a xlink:href="lexer_8h.html" target="_top" xlink:title=" ">
<polygon fill="white" stroke="#666666" points="159,-184 110,-184 110,-165 159,-165 159,-184"/>
<text text-anchor="middle" x="134.5" y="-172" font-family="Helvetica,sans-Serif" font-size="10.00">lexer.h</text>
</a>
</g>
</g>
<!-- Node1&#45;&gt;Node3 -->
<g id="edge2" class="edge">
<title>Node1&#45;&gt;Node3</title>
<path fill="none" stroke="#63b8ff" d="M111.96,-219.75C115.62,-212.57 120.91,-202.18 125.45,-193.27"/>
<polygon fill="#63b8ff" stroke="#63b8ff" points="128.7,-194.59 130.12,-184.09 122.47,-191.41 128.7,-194.59"/>
</g>
<!-- Node6 -->
<g id="node6" class="node">
<title>Node6</title>
<g id="a_node6"><a xlink:href="shell_8h.html" target="_top" xlink:title=" ">
<polygon fill="white" stroke="#666666" points="74,-129 25,-129 25,-110 74,-110 74,-129"/>
<text text-anchor="middle" x="49.5" y="-117" font-family="Helvetica,sans-Serif" font-size="10.00">shell.h</text>
</a>
</g>
</g>
<!-- Node1&#45;&gt;Node6 -->
<g id="edge9" class="edge">
<title>Node1&#45;&gt;Node6</title>
<path fill="none" stroke="#63b8ff" d="M102.75,-219.66C93.19,-201.85 71.45,-161.37 58.9,-138.01"/>
<polygon fill="#63b8ff" stroke="#63b8ff" points="61.96,-136.31 54.15,-129.16 55.8,-139.62 61.96,-136.31"/>
</g>
<!-- Node8 -->
<g id="node8" class="node">
<title>Node8</title>
<g id="a_node8"><a xlink:href="token_8h.html" target="_top" xlink:title=" ">
<polygon fill="white" stroke="#666666" points="274,-129 221,-129 221,-110 274,-110 274,-129"/>
<text text-anchor="middle" x="247.5" y="-117" font-family="Helvetica,sans-Serif" font-size="10.00">token.h</text>
</a>
</g>
</g>
<!-- Node1&#45;&gt;Node8 -->
<g id="edge10" class="edge">
<title>Node1&#45;&gt;Node8</title>
<path fill="none" stroke="#63b8ff" d="M119.78,-219.8C132.18,-210.95 151.85,-196.75 168.5,-184 189.6,-167.84 213.3,-148.65 229.19,-135.62"/>
<polygon fill="#63b8ff" stroke="#63b8ff" points="231.64,-138.13 237.14,-129.08 227.2,-132.73 231.64,-138.13"/>
</g>
<!-- Node4 -->
<g id="node4" class="node">
<title>Node4</title>
<g id="a_node4"><a xlink:title=" ">
<polygon fill="#e0e0e0" stroke="#999999" points="101.5,-19 45.5,-19 45.5,0 101.5,0 101.5,-19"/>
<text text-anchor="middle" x="73.5" y="-7" font-family="Helvetica,sans-Serif" font-size="10.00">stddef.h</text>
</a>
</g>
</g>
<!-- Node3&#45;&gt;Node4 -->
<g id="edge3" class="edge">
<title>Node3&#45;&gt;Node4</title>
<path fill="none" stroke="#63b8ff" d="M131.22,-164.74C121.62,-139.09 93.44,-63.78 80.34,-28.78"/>
<polygon fill="#63b8ff" stroke="#63b8ff" points="83.58,-27.45 76.8,-19.31 77.02,-29.9 83.58,-27.45"/>
</g>
<!-- Node5 -->
<g id="node5" class="node">
<title>Node5</title>
<g id="a_node5"><a xlink:title=" ">
<polygon fill="#e0e0e0" stroke="#999999" points="202.5,-129 130.5,-129 130.5,-110 202.5,-110 202.5,-129"/>
<text text-anchor="middle" x="166.5" y="-117" font-family="Helvetica,sans-Serif" font-size="10.00">sys/types.h</text>
</a>
</g>
</g>
<!-- Node3&#45;&gt;Node5 -->
<g id="edge4" class="edge">
<title>Node3&#45;&gt;Node5</title>
<path fill="none" stroke="#63b8ff" d="M139.78,-164.75C144.21,-157.42 150.66,-146.73 156.12,-137.7"/>
<polygon fill="#63b8ff" stroke="#63b8ff" points="159.14,-139.46 161.31,-129.09 153.15,-135.84 159.14,-139.46"/>
</g>
<!-- Node3&#45;&gt;Node6 -->
<g id="edge5" class="edge">
<title>Node3&#45;&gt;Node6</title>
<path fill="none" stroke="#63b8ff" d="M120.84,-164.98C107.66,-156.77 87.47,-144.18 71.93,-134.49"/>
<polygon fill="#63b8ff" stroke="#63b8ff" points="73.74,-131.49 63.41,-129.17 70.04,-137.43 73.74,-131.49"/>
</g>
<!-- Node3&#45;&gt;Node8 -->
<g id="edge8" class="edge">
<title>Node3&#45;&gt;Node8</title>
<path fill="none" stroke="#63b8ff" d="M152.66,-164.98C170.75,-156.5 198.78,-143.35 219.69,-133.54"/>
<polygon fill="#63b8ff" stroke="#63b8ff" points="221.45,-136.59 229.01,-129.17 218.47,-130.25 221.45,-136.59"/>
</g>
<!-- Node7 -->
<g id="node7" class="node">
<title>Node7</title>
<g id="a_node7"><a xlink:href="list_8h.html" target="_top" xlink:title=" ">
<polygon fill="white" stroke="#666666" points="74,-74 15,-74 15,-55 74,-55 74,-74"/>
<text text-anchor="middle" x="44.5" y="-62" font-family="Helvetica,sans-Serif" font-size="10.00">my/list.h</text>
</a>
</g>
</g>
<!-- Node6&#45;&gt;Node7 -->
<g id="edge6" class="edge">
<title>Node6&#45;&gt;Node7</title>
<path fill="none" stroke="#63b8ff" d="M48.67,-109.75C48.02,-102.8 47.08,-92.85 46.26,-84.13"/>
<polygon fill="#63b8ff" stroke="#63b8ff" points="49.73,-83.72 45.31,-74.09 42.77,-84.37 49.73,-83.72"/>
</g>
<!-- Node7&#45;&gt;Node4 -->
<g id="edge7" class="edge">
<title>Node7&#45;&gt;Node4</title>
<path fill="none" stroke="#63b8ff" d="M49.29,-54.75C53.26,-47.49 59.03,-36.95 63.93,-27.98"/>
<polygon fill="#63b8ff" stroke="#63b8ff" points="67.07,-29.54 68.8,-19.09 60.93,-26.18 67.07,-29.54"/>
</g>
</g>
</svg>
