<?xml version="1.0" encoding="UTF-8" standalone="no"?>
<!DOCTYPE svg PUBLIC "-//W3C//DTD SVG 1.1//EN"
 "http://www.w3.org/Graphics/SVG/1.1/DTD/svg11.dtd">
<!-- Generated by graphviz version 2.43.0 (0)
 -->
<!-- Title: lexer_read_word Pages: 1 -->
<svg width="1953pt" height="664pt"
 viewBox="0.00 0.00 1953.00 664.46" xmlns="http://www.w3.org/2000/svg" xmlns:xlink="http://www.w3.org/1999/xlink">
<g id="graph0" class="graph" transform="scale(1 1) rotate(0) translate(4 660.46)">
<title>lexer_read_word</title>
<!-- Node1 -->
<g id="node1" class="node">
<title>Node1</title>
<g id="a_node1"><a xlink:title=" ">
<polygon fill="#999999" stroke="#666666" points="97,-461 0,-461 0,-442 97,-442 97,-461"/>
<text text-anchor="middle" x="48.5" y="-449" font-family="Helvetica,sans-Serif" font-size="10.00">lexer_read_word</text>
</a>
</g>
</g>
<!-- Node2 -->
<g id="node2" class="node">
<title>Node2</title>
<g id="a_node2"><a xlink:href="lexer__word_8c.html#a730574257743b09386cadd2ccbfe4d13" target="_top" xlink:title=" ">
<polygon fill="white" stroke="#666666" points="255,-267 133,-267 133,-248 255,-248 255,-267"/>
<text text-anchor="middle" x="194" y="-255" font-family="Helvetica,sans-Serif" font-size="10.00">handle_current_token</text>
</a>
</g>
</g>
<!-- Node1&#45;&gt;Node2 -->
<g id="edge1" class="edge">
<title>Node1&#45;&gt;Node2</title>
<path fill="none" stroke="#63b8ff" d="M56.62,-441.88C79.33,-411.17 150.33,-315.19 179.88,-275.23"/>
<polygon fill="#63b8ff" stroke="#63b8ff" points="182.71,-277.3 185.84,-267.18 177.08,-273.14 182.71,-277.3"/>
</g>
<!-- Node131 -->
<g id="node41" class="node">
<title>Node131</title>
<g id="a_node41"><a xlink:href="lexer__is__word__separator_8c.html#abccfc6fc0cdbd040fc9a7dcbfd207090" target="_top" xlink:title=" ">
<polygon fill="white" stroke="#666666" points="791,-655 656,-655 656,-636 791,-636 791,-655"/>
<text text-anchor="middle" x="723.5" y="-643" font-family="Helvetica,sans-Serif" font-size="10.00">lexer_is_word_separator</text>
</a>
</g>
</g>
<!-- Node1&#45;&gt;Node131 -->
<g id="edge68" class="edge">
<title>Node1&#45;&gt;Node131</title>
<path fill="none" stroke="#63b8ff" d="M64.13,-461.03C116.81,-494.71 302.84,-608.1 475,-645.5 531.16,-657.7 596.18,-657.15 645.49,-653.85"/>
<polygon fill="#63b8ff" stroke="#63b8ff" points="646.04,-657.32 655.76,-653.1 645.54,-650.33 646.04,-657.32"/>
</g>
<!-- Node3 -->
<g id="node3" class="node">
<title>Node3</title>
<g id="a_node3"><a xlink:href="lexer__word_8c.html#acd8f2a3c47fa56f87c2792ccefd2ee3e" target="_top" xlink:title=" ">
<polygon fill="white" stroke="#666666" points="425.5,-134 304.5,-134 304.5,-115 425.5,-115 425.5,-134"/>
<text text-anchor="middle" x="365" y="-122" font-family="Helvetica,sans-Serif" font-size="10.00">handle_double_quote</text>
</a>
</g>
</g>
<!-- Node2&#45;&gt;Node3 -->
<g id="edge2" class="edge">
<title>Node2&#45;&gt;Node3</title>
<path fill="none" stroke="#63b8ff" d="M200.93,-247.8C214.34,-226.67 249.11,-176.13 291,-148.5 297.58,-144.16 305.01,-140.55 312.54,-137.55"/>
<polygon fill="#63b8ff" stroke="#63b8ff" points="313.88,-140.79 322.09,-134.09 311.49,-134.21 313.88,-140.79"/>
</g>
<!-- Node4 -->
<g id="node4" class="node">
<title>Node4</title>
<g id="a_node4"><a xlink:href="lexer__word_8c.html#a733339142f4677a066646a12a7e5bec4" target="_top" xlink:title=" ">
<polygon fill="white" stroke="#666666" points="616,-209 475,-209 475,-190 616,-190 616,-209"/>
<text text-anchor="middle" x="545.5" y="-197" font-family="Helvetica,sans-Serif" font-size="10.00">handle_escape_sequence</text>
</a>
</g>
</g>
<!-- Node2&#45;&gt;Node4 -->
<g id="edge3" class="edge">
<title>Node2&#45;&gt;Node4</title>
<path fill="none" stroke="#63b8ff" d="M214.3,-247.87C233.31,-238.87 263.41,-225.9 291,-219.5 348.13,-206.25 414.24,-201.37 464.61,-199.74"/>
<polygon fill="#63b8ff" stroke="#63b8ff" points="464.9,-203.23 474.79,-199.44 464.7,-196.23 464.9,-203.23"/>
</g>
<!-- Node8 -->
<g id="node8" class="node">
<title>Node8</title>
<g id="a_node8"><a xlink:href="lexer__word_8c.html#a3ae03e49183787e7cf32c90ffdef7351" target="_top" xlink:title=" ">
<polygon fill="white" stroke="#666666" points="423.5,-248 306.5,-248 306.5,-229 423.5,-229 423.5,-248"/>
<text text-anchor="middle" x="365" y="-236" font-family="Helvetica,sans-Serif" font-size="10.00">handle_single_quote</text>
</a>
</g>
</g>
<!-- Node2&#45;&gt;Node8 -->
<g id="edge7" class="edge">
<title>Node2&#45;&gt;Node8</title>
<path fill="none" stroke="#63b8ff" d="M255.06,-250.75C268.36,-249.25 282.56,-247.66 296.15,-246.13"/>
<polygon fill="#63b8ff" stroke="#63b8ff" points="296.85,-249.57 306.4,-244.98 296.07,-242.61 296.85,-249.57"/>
</g>
<!-- Node9 -->
<g id="node9" class="node">
<title>Node9</title>
<g id="a_node9"><a xlink:href="lexer__utils_8c.html#a2ba6f7e43ecbf713c666ab062eac534c" target="_top" xlink:title=" ">
<polygon fill="white" stroke="#666666" points="439,-285 291,-285 291,-266 439,-266 439,-285"/>
<text text-anchor="middle" x="365" y="-273" font-family="Helvetica,sans-Serif" font-size="10.00">lexer_append_current_char</text>
</a>
</g>
</g>
<!-- Node2&#45;&gt;Node9 -->
<g id="edge9" class="edge">
<title>Node2&#45;&gt;Node9</title>
<path fill="none" stroke="#63b8ff" d="M255.06,-263.9C263.38,-264.78 272.04,-265.71 280.69,-266.63"/>
<polygon fill="#63b8ff" stroke="#63b8ff" points="280.5,-270.13 290.81,-267.71 281.24,-263.17 280.5,-270.13"/>
</g>
<!-- Node10 -->
<g id="node10" class="node">
<title>Node10</title>
<g id="a_node10"><a xlink:href="lexer__expand__command__substitution_8c.html#aad26825e6ecc7617687abd601366b15d" target="_top" xlink:title=" ">
<polygon fill="white" stroke="#666666" points="613.5,-171.5 477.5,-171.5 477.5,-141.5 613.5,-141.5 613.5,-171.5"/>
<text text-anchor="start" x="485.5" y="-159.5" font-family="Helvetica,sans-Serif" font-size="10.00">lexer_expand_command</text>
<text text-anchor="middle" x="545.5" y="-148.5" font-family="Helvetica,sans-Serif" font-size="10.00">_substitution</text>
</a>
</g>
</g>
<!-- Node2&#45;&gt;Node10 -->
<g id="edge11" class="edge">
<title>Node2&#45;&gt;Node10</title>
<path fill="none" stroke="#63b8ff" d="M206.89,-247.84C224.25,-234.28 258.07,-209.88 291,-197.5 347.83,-176.14 415.93,-165.91 467.22,-161"/>
<polygon fill="#63b8ff" stroke="#63b8ff" points="467.61,-164.48 477.25,-160.09 466.98,-157.51 467.61,-164.48"/>
</g>
<!-- Node129 -->
<g id="node37" class="node">
<title>Node129</title>
<g id="a_node37"><a xlink:href="lexer__expand__tilde_8c.html#ae3c478a10a2764ee7c7f94b42f28ecaf" target="_top" xlink:title=" ">
<polygon fill="white" stroke="#666666" points="419.5,-517 310.5,-517 310.5,-498 419.5,-498 419.5,-517"/>
<text text-anchor="middle" x="365" y="-505" font-family="Helvetica,sans-Serif" font-size="10.00">lexer_expand_tilde</text>
</a>
</g>
</g>
<!-- Node2&#45;&gt;Node129 -->
<g id="edge47" class="edge">
<title>Node2&#45;&gt;Node129</title>
<path fill="none" stroke="#63b8ff" d="M201.63,-267.3C227.02,-304.87 318.42,-440.07 351.74,-489.36"/>
<polygon fill="#63b8ff" stroke="#63b8ff" points="348.92,-491.44 357.42,-497.77 354.72,-487.52 348.92,-491.44"/>
</g>
<!-- Node132 -->
<g id="node42" class="node">
<title>Node132</title>
<g id="a_node42"><a xlink:href="lexer__expand__variable_8c.html#a01ad90eb8460a612626bb33c9e15cd52" target="_top" xlink:title=" ">
<polygon fill="white" stroke="#666666" points="428.5,-360 301.5,-360 301.5,-341 428.5,-341 428.5,-360"/>
<text text-anchor="middle" x="365" y="-348" font-family="Helvetica,sans-Serif" font-size="10.00">lexer_expand_variable</text>
</a>
</g>
</g>
<!-- Node2&#45;&gt;Node132 -->
<g id="edge53" class="edge">
<title>Node2&#45;&gt;Node132</title>
<path fill="none" stroke="#63b8ff" d="M212.45,-267.1C242.05,-283.39 302.29,-316.54 337.25,-335.78"/>
<polygon fill="#63b8ff" stroke="#63b8ff" points="335.94,-339.06 346.39,-340.81 339.32,-332.92 335.94,-339.06"/>
</g>
<!-- Node5 -->
<g id="node5" class="node">
<title>Node5</title>
<g id="a_node5"><a xlink:href="lexer__utils_8c.html#abf1c1b3b6033c8f9c8d1b11cc9e14f75" target="_top" xlink:title=" ">
<polygon fill="white" stroke="#666666" points="967,-285 867,-285 867,-266 967,-266 967,-285"/>
<text text-anchor="middle" x="917" y="-273" font-family="Helvetica,sans-Serif" font-size="10.00">lexer_append_str</text>
</a>
</g>
</g>
<!-- Node4&#45;&gt;Node5 -->
<g id="edge4" class="edge">
<title>Node4&#45;&gt;Node5</title>
<path fill="none" stroke="#63b8ff" d="M616.05,-200.49C666.43,-202.58 735.8,-208.32 795,-223.5 828.87,-232.19 865.45,-249.05 889.42,-261.22"/>
<polygon fill="#63b8ff" stroke="#63b8ff" points="888.08,-264.47 898.57,-265.95 891.3,-258.25 888.08,-264.47"/>
</g>
<!-- Node6 -->
<g id="node6" class="node">
<title>Node6</title>
<g id="a_node6"><a xlink:href="strings_8h.html#a5e1589f073ac32d227dbc6020c376dab" target="_top" xlink:title=" ">
<polygon fill="white" stroke="#666666" points="1325,-151 1224,-151 1224,-132 1325,-132 1325,-151"/>
<text text-anchor="middle" x="1274.5" y="-139" font-family="Helvetica,sans-Serif" font-size="10.00">append_to_buffer</text>
</a>
</g>
</g>
<!-- Node5&#45;&gt;Node6 -->
<g id="edge5" class="edge">
<title>Node5&#45;&gt;Node6</title>
<path fill="none" stroke="#63b8ff" d="M936.03,-265.81C959.31,-253.57 1001.32,-232.44 1039,-218.5 1103.42,-194.67 1123.1,-199.99 1188,-177.5 1206.65,-171.04 1227.04,-162.51 1243.23,-155.38"/>
<polygon fill="#63b8ff" stroke="#63b8ff" points="1245.01,-158.42 1252.71,-151.15 1242.16,-152.03 1245.01,-158.42"/>
</g>
<!-- Node7 -->
<g id="node7" class="node">
<title>Node7</title>
<g id="a_node7"><a xlink:href="lexer__utils_8c.html#a84e8d5514cfe03a20152ad26f170211f" target="_top" xlink:title=" ">
<polygon fill="white" stroke="#666666" points="1172.5,-285 1054.5,-285 1054.5,-266 1172.5,-266 1172.5,-285"/>
<text text-anchor="middle" x="1113.5" y="-273" font-family="Helvetica,sans-Serif" font-size="10.00">lexer_set_alloc_error</text>
</a>
</g>
</g>
<!-- Node5&#45;&gt;Node7 -->
<g id="edge6" class="edge">
<title>Node5&#45;&gt;Node7</title>
<path fill="none" stroke="#63b8ff" d="M967.08,-275.5C990.42,-275.5 1018.72,-275.5 1044.12,-275.5"/>
<polygon fill="#63b8ff" stroke="#63b8ff" points="1044.44,-279 1054.44,-275.5 1044.44,-272 1044.44,-279"/>
</g>
<!-- Node8&#45;&gt;Node5 -->
<g id="edge8" class="edge">
<title>Node8&#45;&gt;Node5</title>
<path fill="none" stroke="#63b8ff" d="M423.56,-242.37C528.6,-249.44 750.31,-264.35 856.65,-271.51"/>
<polygon fill="#63b8ff" stroke="#63b8ff" points="856.67,-275.02 866.88,-272.2 857.14,-268.03 856.67,-275.02"/>
</g>
<!-- Node9&#45;&gt;Node5 -->
<g id="edge10" class="edge">
<title>Node9&#45;&gt;Node5</title>
<path fill="none" stroke="#63b8ff" d="M439.04,-275.5C549.07,-275.5 755.26,-275.5 856.63,-275.5"/>
<polygon fill="#63b8ff" stroke="#63b8ff" points="856.7,-279 866.7,-275.5 856.7,-272 856.7,-279"/>
</g>
<!-- Node10&#45;&gt;Node7 -->
<g id="edge46" class="edge">
<title>Node10&#45;&gt;Node7</title>
<path fill="none" stroke="#63b8ff" d="M613.69,-166.94C663.82,-175.01 733.89,-186.91 795,-199.5 892.02,-219.48 1004.55,-247.6 1066.19,-263.44"/>
<polygon fill="#63b8ff" stroke="#63b8ff" points="1065.45,-266.86 1076,-265.96 1067.19,-260.08 1065.45,-266.86"/>
</g>
<!-- Node11 -->
<g id="node11" class="node">
<title>Node11</title>
<g id="a_node11"><a xlink:href="lexer__expand__command__substitution_8c.html#ad31353a5e4ff94d4ffc515367ef29625" target="_top" xlink:title=" ">
<polygon fill="white" stroke="#666666" points="795,-133 652,-133 652,-114 795,-114 795,-133"/>
<text text-anchor="middle" x="723.5" y="-121" font-family="Helvetica,sans-Serif" font-size="10.00">append_command_output</text>
</a>
</g>
</g>
<!-- Node10&#45;&gt;Node11 -->
<g id="edge12" class="edge">
<title>Node10&#45;&gt;Node11</title>
<path fill="none" stroke="#63b8ff" d="M613.54,-143.93C629.4,-140.96 646.22,-137.8 661.78,-134.89"/>
<polygon fill="#63b8ff" stroke="#63b8ff" points="662.62,-138.29 671.8,-133.01 661.33,-131.41 662.62,-138.29"/>
</g>
<!-- Node11&#45;&gt;Node5 -->
<g id="edge44" class="edge">
<title>Node11&#45;&gt;Node5</title>
<path fill="none" stroke="#63b8ff" d="M736.48,-133.01C768.45,-158.39 856.07,-227.93 895.86,-259.52"/>
<polygon fill="#63b8ff" stroke="#63b8ff" points="894.02,-262.52 904.03,-266 898.37,-257.04 894.02,-262.52"/>
</g>
<!-- Node11&#45;&gt;Node7 -->
<g id="edge45" class="edge">
<title>Node11&#45;&gt;Node7</title>
<path fill="none" stroke="#63b8ff" d="M767.41,-113.93C827.01,-103.31 935.16,-94.03 1003,-147.5 1042.74,-178.82 1002.23,-220.74 1039,-255.5 1041.16,-257.54 1043.51,-259.38 1046,-261.04"/>
<polygon fill="#63b8ff" stroke="#63b8ff" points="1044.48,-264.19 1054.92,-265.98 1047.87,-258.07 1044.48,-264.19"/>
</g>
<!-- Node12 -->
<g id="node12" class="node">
<title>Node12</title>
<g id="a_node12"><a xlink:href="execute__command__substitution_8c.html#a44d633c45c6a1c7a82b2fc4f1f3a1b85" target="_top" xlink:title=" ">
<polygon fill="white" stroke="#666666" points="1003,-95 831,-95 831,-76 1003,-76 1003,-95"/>
<text text-anchor="middle" x="917" y="-83" font-family="Helvetica,sans-Serif" font-size="10.00">execute_command_substitution</text>
</a>
</g>
</g>
<!-- Node11&#45;&gt;Node12 -->
<g id="edge13" class="edge">
<title>Node11&#45;&gt;Node12</title>
<path fill="none" stroke="#63b8ff" d="M772.82,-113.91C798.66,-108.78 830.67,-102.43 857.86,-97.04"/>
<polygon fill="#63b8ff" stroke="#63b8ff" points="858.9,-100.4 868.02,-95.02 857.53,-93.53 858.9,-100.4"/>
</g>
<!-- Node13 -->
<g id="node13" class="node">
<title>Node13</title>
<g id="a_node13"><a xlink:href="execute__command__substitution_8c.html#a075d95090572b6eefee6062c788e021f" target="_top" xlink:title=" ">
<polygon fill="white" stroke="#666666" points="1165,-19 1062,-19 1062,0 1165,0 1165,-19"/>
<text text-anchor="middle" x="1113.5" y="-7" font-family="Helvetica,sans-Serif" font-size="10.00">handle_fork_error</text>
</a>
</g>
</g>
<!-- Node12&#45;&gt;Node13 -->
<g id="edge14" class="edge">
<title>Node12&#45;&gt;Node13</title>
<path fill="none" stroke="#63b8ff" d="M938.75,-75.9C962.67,-65 1003.27,-46.98 1039,-33.5 1049.48,-29.55 1060.94,-25.62 1071.62,-22.12"/>
<polygon fill="#63b8ff" stroke="#63b8ff" points="1072.73,-25.44 1081.17,-19.04 1070.58,-18.78 1072.73,-25.44"/>
</g>
<!-- Node14 -->
<g id="node14" class="node">
<title>Node14</title>
<g id="a_node14"><a xlink:href="execute__command__substitution_8c.html#af0e085937d4d6fbc3feb274895606e50" target="_top" xlink:title=" ">
<polygon fill="white" stroke="#666666" points="1165.5,-169 1061.5,-169 1061.5,-150 1165.5,-150 1165.5,-169"/>
<text text-anchor="middle" x="1113.5" y="-157" font-family="Helvetica,sans-Serif" font-size="10.00">handle_pipe_error</text>
</a>
</g>
</g>
<!-- Node12&#45;&gt;Node14 -->
<g id="edge15" class="edge">
<title>Node12&#45;&gt;Node14</title>
<path fill="none" stroke="#63b8ff" d="M965.74,-95.06C978.29,-98.61 991.52,-103.33 1003,-109.5 1021.6,-119.49 1020.29,-130.71 1039,-140.5 1043.48,-142.85 1048.28,-144.91 1053.18,-146.74"/>
<polygon fill="#63b8ff" stroke="#63b8ff" points="1052.11,-150.07 1062.71,-149.95 1054.35,-143.44 1052.11,-150.07"/>
</g>
<!-- Node15 -->
<g id="node15" class="node">
<title>Node15</title>
<g id="a_node15"><a xlink:href="execute__command__substitution_8c.html#aebaa8b3d8f96bd07e2efb13393b1fa13" target="_top" xlink:title=" ">
<polygon fill="white" stroke="#666666" points="1164,-95 1063,-95 1063,-76 1164,-76 1164,-95"/>
<text text-anchor="middle" x="1113.5" y="-83" font-family="Helvetica,sans-Serif" font-size="10.00">read_pipe_output</text>
</a>
</g>
</g>
<!-- Node12&#45;&gt;Node15 -->
<g id="edge16" class="edge">
<title>Node12&#45;&gt;Node15</title>
<path fill="none" stroke="#63b8ff" d="M1003.03,-85.5C1019.8,-85.5 1037.06,-85.5 1052.78,-85.5"/>
<polygon fill="#63b8ff" stroke="#63b8ff" points="1052.87,-89 1062.86,-85.5 1052.86,-82 1052.87,-89"/>
</g>
<!-- Node16 -->
<g id="node16" class="node">
<title>Node16</title>
<g id="a_node16"><a xlink:href="execute__command__substitution_8c.html#a49d3b6ea9dfddcfae1e4193b46064722" target="_top" xlink:title=" ">
<polygon fill="white" stroke="#666666" points="1176.5,-132 1050.5,-132 1050.5,-113 1176.5,-113 1176.5,-132"/>
<text text-anchor="middle" x="1113.5" y="-120" font-family="Helvetica,sans-Serif" font-size="10.00">remove_end_newlines</text>
</a>
</g>
</g>
<!-- Node12&#45;&gt;Node16 -->
<g id="edge18" class="edge">
<title>Node12&#45;&gt;Node16</title>
<path fill="none" stroke="#63b8ff" d="M968.09,-95.03C993.74,-99.91 1025.16,-105.89 1052.14,-111.02"/>
<polygon fill="#63b8ff" stroke="#63b8ff" points="1051.77,-114.51 1062.24,-112.94 1053.07,-107.63 1051.77,-114.51"/>
</g>
<!-- Node17 -->
<g id="node17" class="node">
<title>Node17</title>
<g id="a_node17"><a xlink:href="execute__command__substitution_8c.html#a230d3e2be0c3d7360a8cf2a810878cf2" target="_top" xlink:title=" ">
<polygon fill="white" stroke="#666666" points="1188,-247 1039,-247 1039,-228 1188,-228 1188,-247"/>
<text text-anchor="middle" x="1113.5" y="-235" font-family="Helvetica,sans-Serif" font-size="10.00">run_command_substitution</text>
</a>
</g>
</g>
<!-- Node12&#45;&gt;Node17 -->
<g id="edge19" class="edge">
<title>Node12&#45;&gt;Node17</title>
<path fill="none" stroke="#63b8ff" d="M975.95,-95.03C985.66,-98.46 995.13,-103.14 1003,-109.5 1029.6,-130.99 1017.32,-151.05 1039,-177.5 1053.31,-194.97 1073.38,-210.93 1088.92,-222"/>
<polygon fill="#63b8ff" stroke="#63b8ff" points="1087.27,-225.1 1097.48,-227.92 1091.25,-219.35 1087.27,-225.1"/>
</g>
<!-- Node33 -->
<g id="node29" class="node">
<title>Node33</title>
<g id="a_node29"><a xlink:href="wait__for__subprocess_8c.html#a1242d78540fd0ddef3d98a9f294cb0d4" target="_top" xlink:title=" ">
<polygon fill="white" stroke="#666666" points="1786,-150 1670,-150 1670,-131 1786,-131 1786,-150"/>
<text text-anchor="middle" x="1728" y="-138" font-family="Helvetica,sans-Serif" font-size="10.00">wait_for_subprocess</text>
</a>
</g>
</g>
<!-- Node12&#45;&gt;Node33 -->
<g id="edge43" class="edge">
<title>Node12&#45;&gt;Node33</title>
<path fill="none" stroke="#63b8ff" d="M972.92,-75.96C1042.6,-64.7 1166.58,-47.5 1273.5,-47.5 1273.5,-47.5 1273.5,-47.5 1422,-47.5 1516.6,-47.5 1546.17,-31.35 1634,-66.5 1665.4,-79.07 1694.71,-105.87 1711.74,-123.54"/>
<polygon fill="#63b8ff" stroke="#63b8ff" points="1709.27,-126.02 1718.66,-130.92 1714.38,-121.23 1709.27,-126.02"/>
</g>
<!-- Node15&#45;&gt;Node6 -->
<g id="edge17" class="edge">
<title>Node15&#45;&gt;Node6</title>
<path fill="none" stroke="#63b8ff" d="M1159.18,-95.09C1168.78,-97.53 1178.8,-100.36 1188,-103.5 1207.66,-110.22 1229.02,-119.71 1245.47,-127.52"/>
<polygon fill="#63b8ff" stroke="#63b8ff" points="1244.01,-130.71 1254.54,-131.9 1247.05,-124.4 1244.01,-130.71"/>
</g>
<!-- Node18 -->
<g id="node18" class="node">
<title>Node18</title>
<g id="a_node18"><a xlink:href="shell_8c.html#afb5215a1775326d8976fd015f7832392" target="_top" xlink:title=" ">
<polygon fill="white" stroke="#666666" points="1314.5,-387 1234.5,-387 1234.5,-368 1314.5,-368 1314.5,-387"/>
<text text-anchor="middle" x="1274.5" y="-375" font-family="Helvetica,sans-Serif" font-size="10.00">handle_input</text>
</a>
</g>
</g>
<!-- Node17&#45;&gt;Node18 -->
<g id="edge20" class="edge">
<title>Node17&#45;&gt;Node18</title>
<path fill="none" stroke="#63b8ff" d="M1169.39,-247.05C1175.98,-249.51 1182.36,-252.61 1188,-256.5 1225.93,-282.69 1252.66,-331.51 1265.28,-358.44"/>
<polygon fill="#63b8ff" stroke="#63b8ff" points="1262.24,-360.23 1269.55,-367.9 1268.62,-357.35 1262.24,-360.23"/>
</g>
<!-- Node19 -->
<g id="node19" class="node">
<title>Node19</title>
<g id="a_node19"><a xlink:href="ast__destroy_8c.html#a04c67d7ab492f6e1e7bc44dc70faa057" target="_top" xlink:title=" ">
<polygon fill="white" stroke="#666666" points="1458,-360 1384,-360 1384,-341 1458,-341 1458,-360"/>
<text text-anchor="middle" x="1421" y="-348" font-family="Helvetica,sans-Serif" font-size="10.00">ast_destroy</text>
</a>
</g>
</g>
<!-- Node18&#45;&gt;Node19 -->
<g id="edge21" class="edge">
<title>Node18&#45;&gt;Node19</title>
<path fill="none" stroke="#63b8ff" d="M1314.6,-370.19C1332.88,-366.78 1354.78,-362.69 1373.86,-359.12"/>
<polygon fill="#63b8ff" stroke="#63b8ff" points="1374.65,-362.53 1383.84,-357.26 1373.37,-355.65 1374.65,-362.53"/>
</g>
<!-- Node21 -->
<g id="node21" class="node">
<title>Node21</title>
<g id="a_node21"><a xlink:href="shell_8c.html#a74405478dadd73c0a4d1e5f3e8d2e3ef" target="_top" xlink:title=" ">
<polygon fill="white" stroke="#666666" points="1477.5,-322.5 1364.5,-322.5 1364.5,-292.5 1477.5,-292.5 1477.5,-322.5"/>
<text text-anchor="start" x="1372.5" y="-310.5" font-family="Helvetica,sans-Serif" font-size="10.00">destroy_parser_and</text>
<text text-anchor="middle" x="1421" y="-299.5" font-family="Helvetica,sans-Serif" font-size="10.00">_lexer</text>
</a>
</g>
</g>
<!-- Node18&#45;&gt;Node21 -->
<g id="edge24" class="edge">
<title>Node18&#45;&gt;Node21</title>
<path fill="none" stroke="#63b8ff" d="M1292.64,-367.93C1309.75,-358.52 1336.9,-343.92 1361,-332.5 1365.07,-330.57 1369.32,-328.63 1373.61,-326.72"/>
<polygon fill="#63b8ff" stroke="#63b8ff" points="1375.2,-329.84 1382.97,-322.63 1372.4,-323.43 1375.2,-329.84"/>
</g>
<!-- Node25 -->
<g id="node24" class="node">
<title>Node25</title>
<g id="a_node24"><a xlink:href="execute__ast_8c.html#ad26a20a665ab7fdeb714ed53c1afd104" target="_top" xlink:title=" ">
<polygon fill="#fff0f0" stroke="red" points="1458.5,-187 1383.5,-187 1383.5,-168 1458.5,-168 1458.5,-187"/>
<text text-anchor="middle" x="1421" y="-175" font-family="Helvetica,sans-Serif" font-size="10.00">execute_ast</text>
</a>
</g>
</g>
<!-- Node18&#45;&gt;Node25 -->
<g id="edge27" class="edge">
<title>Node18&#45;&gt;Node25</title>
<path fill="none" stroke="#63b8ff" d="M1282.47,-367.85C1305.22,-336.37 1377.52,-236.29 1407.15,-195.29"/>
<polygon fill="#63b8ff" stroke="#63b8ff" points="1410.08,-197.21 1413.1,-187.05 1404.41,-193.11 1410.08,-197.21"/>
</g>
<!-- Node59 -->
<g id="node33" class="node">
<title>Node59</title>
<g id="a_node33"><a xlink:href="shell_8c.html#a6e35892cfa82c5f227b10f37abc529e9" target="_top" xlink:title=" ">
<polygon fill="#fff0f0" stroke="red" points="1466.5,-526 1375.5,-526 1375.5,-507 1466.5,-507 1466.5,-526"/>
<text text-anchor="middle" x="1421" y="-514" font-family="Helvetica,sans-Serif" font-size="10.00">handle_parsing</text>
</a>
</g>
</g>
<!-- Node18&#45;&gt;Node59 -->
<g id="edge39" class="edge">
<title>Node18&#45;&gt;Node59</title>
<path fill="none" stroke="#63b8ff" d="M1279.69,-387.32C1290,-410.32 1318.89,-468.06 1361,-498.5 1363.05,-499.98 1365.22,-501.34 1367.48,-502.6"/>
<polygon fill="#63b8ff" stroke="#63b8ff" points="1365.99,-505.76 1376.52,-506.89 1368.99,-499.44 1365.99,-505.76"/>
</g>
<!-- Node127 -->
<g id="node34" class="node">
<title>Node127</title>
<g id="a_node34"><a xlink:href="lexer__init_8c.html#aee55447f2c8b083ed2614fa4f439f9cc" target="_top" xlink:title=" ">
<polygon fill="white" stroke="#666666" points="1452,-489 1390,-489 1390,-470 1452,-470 1452,-489"/>
<text text-anchor="middle" x="1421" y="-477" font-family="Helvetica,sans-Serif" font-size="10.00">lexer_init</text>
</a>
</g>
</g>
<!-- Node18&#45;&gt;Node127 -->
<g id="edge40" class="edge">
<title>Node18&#45;&gt;Node127</title>
<path fill="none" stroke="#63b8ff" d="M1282.63,-387.07C1296.06,-404.43 1326.84,-441.19 1361,-461.5 1366.88,-464.99 1373.49,-467.86 1380.11,-470.2"/>
<polygon fill="#63b8ff" stroke="#63b8ff" points="1379.13,-473.57 1389.72,-473.27 1381.25,-466.9 1379.13,-473.57"/>
</g>
<!-- Node128 -->
<g id="node35" class="node">
<title>Node128</title>
<g id="a_node35"><a xlink:href="parser__init_8c.html#a7a5dc445fa057a393d0b94590acea2f1" target="_top" xlink:title=" ">
<polygon fill="#fff0f0" stroke="red" points="1455,-452 1387,-452 1387,-433 1455,-433 1455,-452"/>
<text text-anchor="middle" x="1421" y="-440" font-family="Helvetica,sans-Serif" font-size="10.00">parser_init</text>
</a>
</g>
</g>
<!-- Node18&#45;&gt;Node128 -->
<g id="edge41" class="edge">
<title>Node18&#45;&gt;Node128</title>
<path fill="none" stroke="#63b8ff" d="M1290.77,-387.16C1307.52,-397.45 1335.41,-413.7 1361,-424.5 1366.12,-426.66 1371.58,-428.68 1377.05,-430.54"/>
<polygon fill="#63b8ff" stroke="#63b8ff" points="1376.21,-433.95 1386.8,-433.68 1378.36,-427.28 1376.21,-433.95"/>
</g>
<!-- Node126 -->
<g id="node36" class="node">
<title>Node126</title>
<g id="a_node36"><a xlink:href="shell_8c.html#a1ce512725ee0371f8bf608a3ece0c152" target="_top" xlink:title=" ">
<polygon fill="white" stroke="#666666" points="1481,-415 1361,-415 1361,-396 1481,-396 1481,-415"/>
<text text-anchor="middle" x="1421" y="-403" font-family="Helvetica,sans-Serif" font-size="10.00">show_error_message</text>
</a>
</g>
</g>
<!-- Node18&#45;&gt;Node126 -->
<g id="edge42" class="edge">
<title>Node18&#45;&gt;Node126</title>
<path fill="none" stroke="#63b8ff" d="M1314.6,-385.08C1328.8,-387.83 1345.17,-391 1360.71,-394.01"/>
<polygon fill="#63b8ff" stroke="#63b8ff" points="1360.29,-397.5 1370.78,-395.96 1361.62,-390.62 1360.29,-397.5"/>
</g>
<!-- Node19&#45;&gt;Node19 -->
<g id="edge22" class="edge">
<title>Node19&#45;&gt;Node19</title>
<path fill="none" stroke="#63b8ff" d="M1398.5,-360.08C1387.55,-368.73 1395.05,-378 1421,-378 1437.62,-378 1446.68,-374.2 1448.16,-369.19"/>
<polygon fill="#63b8ff" stroke="#63b8ff" points="1451.17,-367.39 1443.5,-360.08 1444.94,-370.58 1451.17,-367.39"/>
</g>
<!-- Node20 -->
<g id="node20" class="node">
<title>Node20</title>
<g id="a_node20"><a xlink:href="misc_8h.html#a1180cae2875b1fdcd58c9f9175a82c12" target="_top" xlink:title=" ">
<polygon fill="white" stroke="#666666" points="1634,-391 1517,-391 1517,-372 1634,-372 1634,-391"/>
<text text-anchor="middle" x="1575.5" y="-379" font-family="Helvetica,sans-Serif" font-size="10.00">my_free_word_array</text>
</a>
</g>
</g>
<!-- Node19&#45;&gt;Node20 -->
<g id="edge23" class="edge">
<title>Node19&#45;&gt;Node20</title>
<path fill="none" stroke="#63b8ff" d="M1458.14,-357.85C1475.92,-361.46 1497.77,-365.9 1517.72,-369.96"/>
<polygon fill="#63b8ff" stroke="#63b8ff" points="1517.14,-373.41 1527.64,-371.97 1518.53,-366.55 1517.14,-373.41"/>
</g>
<!-- Node22 -->
<g id="node22" class="node">
<title>Node22</title>
<g id="a_node22"><a xlink:href="lexer__init_8c.html#a592247dc9c102c884630b41389a1b38b" target="_top" xlink:title=" ">
<polygon fill="white" stroke="#666666" points="1617,-354 1534,-354 1534,-335 1617,-335 1617,-354"/>
<text text-anchor="middle" x="1575.5" y="-342" font-family="Helvetica,sans-Serif" font-size="10.00">lexer_destroy</text>
</a>
</g>
</g>
<!-- Node21&#45;&gt;Node22 -->
<g id="edge25" class="edge">
<title>Node21&#45;&gt;Node22</title>
<path fill="none" stroke="#63b8ff" d="M1477.92,-321.07C1493.39,-324.82 1510.07,-328.87 1525.14,-332.52"/>
<polygon fill="#63b8ff" stroke="#63b8ff" points="1524.73,-336.03 1535.28,-334.98 1526.38,-329.22 1524.73,-336.03"/>
</g>
<!-- Node23 -->
<g id="node23" class="node">
<title>Node23</title>
<g id="a_node23"><a xlink:href="parser__destroy_8c.html#ae2656460a6fc6b6cd65624312fe0c943" target="_top" xlink:title=" ">
<polygon fill="#fff0f0" stroke="red" points="1620,-317 1531,-317 1531,-298 1620,-298 1620,-317"/>
<text text-anchor="middle" x="1575.5" y="-305" font-family="Helvetica,sans-Serif" font-size="10.00">parser_destroy</text>
</a>
</g>
</g>
<!-- Node21&#45;&gt;Node23 -->
<g id="edge26" class="edge">
<title>Node21&#45;&gt;Node23</title>
<path fill="none" stroke="#63b8ff" d="M1477.92,-307.5C1491.74,-307.5 1506.52,-307.5 1520.26,-307.5"/>
<polygon fill="#63b8ff" stroke="#63b8ff" points="1520.53,-311 1530.52,-307.5 1520.52,-304 1520.53,-311"/>
</g>
<!-- Node26 -->
<g id="node25" class="node">
<title>Node26</title>
<g id="a_node25"><a xlink:href="execute__cmd_8c.html#a94ea9cc5a046ce96e36764bf0e4fa2c0" target="_top" xlink:title=" ">
<polygon fill="#fff0f0" stroke="red" points="1616,-132 1535,-132 1535,-113 1616,-113 1616,-132"/>
<text text-anchor="middle" x="1575.5" y="-120" font-family="Helvetica,sans-Serif" font-size="10.00">execute_cmd</text>
</a>
</g>
</g>
<!-- Node25&#45;&gt;Node26 -->
<g id="edge28" class="edge">
<title>Node25&#45;&gt;Node26</title>
<path fill="none" stroke="#63b8ff" d="M1445.26,-167.93C1464.39,-160.18 1492.28,-149.17 1517,-140.5 1522.18,-138.68 1527.66,-136.85 1533.09,-135.09"/>
<polygon fill="#63b8ff" stroke="#63b8ff" points="1534.27,-138.39 1542.74,-132.02 1532.15,-131.72 1534.27,-138.39"/>
</g>
<!-- Node41 -->
<g id="node26" class="node">
<title>Node41</title>
<g id="a_node26"><a xlink:href="execute__logical__and_8c.html#a4f940752faf9f9a258c49810b21efe47" target="_top" xlink:title=" ">
<polygon fill="white" stroke="#666666" points="1633.5,-95 1517.5,-95 1517.5,-76 1633.5,-76 1633.5,-95"/>
<text text-anchor="middle" x="1575.5" y="-83" font-family="Helvetica,sans-Serif" font-size="10.00">execute_logical_and</text>
</a>
</g>
</g>
<!-- Node25&#45;&gt;Node41 -->
<g id="edge29" class="edge">
<title>Node25&#45;&gt;Node41</title>
<path fill="none" stroke="#63b8ff" d="M1427.29,-167.85C1439.89,-151.28 1473.24,-119.83 1508.33,-99.32"/>
<polygon fill="#63b8ff" stroke="#63b8ff" points="1510.23,-102.27 1517.28,-94.35 1506.84,-96.14 1510.23,-102.27"/>
</g>
<!-- Node42 -->
<g id="node27" class="node">
<title>Node42</title>
<g id="a_node27"><a xlink:href="execute__logical__or_8c.html#a7e732d7c30b07010fa55850051007dcc" target="_top" xlink:title=" ">
<polygon fill="white" stroke="#666666" points="1629,-280 1522,-280 1522,-261 1629,-261 1629,-280"/>
<text text-anchor="middle" x="1575.5" y="-268" font-family="Helvetica,sans-Serif" font-size="10.00">execute_logical_or</text>
</a>
</g>
</g>
<!-- Node25&#45;&gt;Node42 -->
<g id="edge31" class="edge">
<title>Node25&#45;&gt;Node42</title>
<path fill="none" stroke="#63b8ff" d="M1439.27,-187.2C1457.39,-201.46 1487.31,-226.65 1517,-242.5 1528.22,-248.49 1541.67,-253.06 1552.75,-257.17"/>
<polygon fill="#63b8ff" stroke="#63b8ff" points="1551.53,-260.45 1562.11,-260.83 1554.08,-253.93 1551.53,-260.45"/>
</g>
<!-- Node43 -->
<g id="node28" class="node">
<title>Node43</title>
<g id="a_node28"><a xlink:href="execute__pipe_8c.html#a5f3546dc2c7cf06c982afba41e722164" target="_top" xlink:title=" ">
<polygon fill="#fff0f0" stroke="red" points="1616,-243 1535,-243 1535,-224 1616,-224 1616,-243"/>
<text text-anchor="middle" x="1575.5" y="-231" font-family="Helvetica,sans-Serif" font-size="10.00">execute_pipe</text>
</a>
</g>
</g>
<!-- Node25&#45;&gt;Node43 -->
<g id="edge33" class="edge">
<title>Node25&#45;&gt;Node43</title>
<path fill="none" stroke="#63b8ff" d="M1445.69,-187.12C1464.83,-194.8 1492.52,-205.69 1517,-214.5 1522.7,-216.55 1528.76,-218.64 1534.71,-220.65"/>
<polygon fill="#63b8ff" stroke="#63b8ff" points="1533.96,-224.09 1544.55,-223.93 1536.17,-217.45 1533.96,-224.09"/>
</g>
<!-- Node48 -->
<g id="node31" class="node">
<title>Node48</title>
<g id="a_node31"><a xlink:href="execute__redirect_8c.html#a1004307aba80117ddd99f009e52fb155" target="_top" xlink:title=" ">
<polygon fill="#fff0f0" stroke="red" points="1624.5,-206 1526.5,-206 1526.5,-187 1624.5,-187 1624.5,-206"/>
<text text-anchor="middle" x="1575.5" y="-194" font-family="Helvetica,sans-Serif" font-size="10.00">execute_redirect</text>
</a>
</g>
</g>
<!-- Node25&#45;&gt;Node48 -->
<g id="edge36" class="edge">
<title>Node25&#45;&gt;Node48</title>
<path fill="none" stroke="#63b8ff" d="M1458.53,-182.05C1475.86,-184.21 1496.99,-186.84 1516.45,-189.27"/>
<polygon fill="#63b8ff" stroke="#63b8ff" points="1516.08,-192.75 1526.44,-190.51 1516.95,-185.8 1516.08,-192.75"/>
</g>
<!-- Node56 -->
<g id="node32" class="node">
<title>Node56</title>
<g id="a_node32"><a xlink:href="execute__repeat_8c.html#a00d48683c54b50130b4a402e6e97fa97" target="_top" xlink:title=" ">
<polygon fill="white" stroke="#666666" points="1621.5,-169 1529.5,-169 1529.5,-150 1621.5,-150 1621.5,-169"/>
<text text-anchor="middle" x="1575.5" y="-157" font-family="Helvetica,sans-Serif" font-size="10.00">execute_repeat</text>
</a>
</g>
</g>
<!-- Node25&#45;&gt;Node56 -->
<g id="edge37" class="edge">
<title>Node25&#45;&gt;Node56</title>
<path fill="none" stroke="#63b8ff" d="M1454.72,-167.98C1473.53,-164.69 1497.66,-161.56 1519.32,-159.5"/>
<polygon fill="#63b8ff" stroke="#63b8ff" points="1519.75,-162.97 1529.4,-158.6 1519.13,-156 1519.75,-162.97"/>
</g>
<!-- Node41&#45;&gt;Node25 -->
<g id="edge30" class="edge">
<title>Node41&#45;&gt;Node25</title>
<path fill="none" stroke="#63b8ff" d="M1561.65,-95.09C1549.64,-99.9 1531.45,-104.93 1517,-112.5 1491.22,-126.01 1465.38,-146.71 1447.18,-161.34"/>
<polygon fill="#63b8ff" stroke="#63b8ff" points="1444.51,-158.99 1438.88,-167.97 1448.88,-164.46 1444.51,-158.99"/>
</g>
<!-- Node42&#45;&gt;Node25 -->
<g id="edge32" class="edge">
<title>Node42&#45;&gt;Node25</title>
<path fill="none" stroke="#63b8ff" d="M1521.85,-262.94C1520.2,-262.16 1518.58,-261.34 1517,-260.5 1484.07,-242.92 1450.85,-213.86 1433.78,-194.83"/>
<polygon fill="#63b8ff" stroke="#63b8ff" points="1436.41,-192.53 1427.31,-187.12 1431.05,-197.03 1436.41,-192.53"/>
</g>
<!-- Node43&#45;&gt;Node33 -->
<g id="edge34" class="edge">
<title>Node43&#45;&gt;Node33</title>
<path fill="none" stroke="#63b8ff" d="M1611.99,-223.96C1619.46,-221.35 1627.16,-218.2 1634,-214.5 1663.12,-198.76 1692.27,-173.68 1709.97,-157.16"/>
<polygon fill="#63b8ff" stroke="#63b8ff" points="1712.42,-159.66 1717.26,-150.23 1707.6,-154.58 1712.42,-159.66"/>
</g>
<!-- Node34 -->
<g id="node30" class="node">
<title>Node34</title>
<g id="a_node30"><a xlink:href="wait__for__subprocess_8c.html#a885766ba6ba593b7cf27b917dd52b1a6" target="_top" xlink:title=" ">
<polygon fill="white" stroke="#666666" points="1945,-150 1822,-150 1822,-131 1945,-131 1945,-150"/>
<text text-anchor="middle" x="1883.5" y="-138" font-family="Helvetica,sans-Serif" font-size="10.00">print_signal_message</text>
</a>
</g>
</g>
<!-- Node33&#45;&gt;Node34 -->
<g id="edge35" class="edge">
<title>Node33&#45;&gt;Node34</title>
<path fill="none" stroke="#63b8ff" d="M1786.16,-140.5C1794.55,-140.5 1803.28,-140.5 1811.9,-140.5"/>
<polygon fill="#63b8ff" stroke="#63b8ff" points="1811.95,-144 1821.95,-140.5 1811.95,-137 1811.95,-144"/>
</g>
<!-- Node56&#45;&gt;Node25 -->
<g id="edge38" class="edge">
<title>Node56&#45;&gt;Node25</title>
<path fill="none" stroke="#63b8ff" d="M1541.65,-169.04C1520.35,-172.76 1492.27,-176.28 1468.67,-178.27"/>
<polygon fill="#63b8ff" stroke="#63b8ff" points="1468.23,-174.79 1458.53,-179.05 1468.77,-181.77 1468.23,-174.79"/>
</g>
<!-- Node129&#45;&gt;Node5 -->
<g id="edge50" class="edge">
<title>Node129&#45;&gt;Node5</title>
<path fill="none" stroke="#63b8ff" d="M389.66,-497.9C411.63,-489.1 445.34,-475.9 475,-465.5 552.87,-438.21 572.85,-432.8 652,-409.5 715.19,-390.89 738.25,-403.95 795,-370.5 814.77,-358.85 813.44,-348.26 831,-333.5 850.22,-317.35 873.94,-301.46 891.44,-290.4"/>
<polygon fill="#63b8ff" stroke="#63b8ff" points="893.33,-293.35 899.97,-285.09 889.63,-287.41 893.33,-293.35"/>
</g>
<!-- Node36 -->
<g id="node38" class="node">
<title>Node36</title>
<g id="a_node38"><a xlink:href="get__variable__value_8c.html#a2edd9900f19af236aa05385a789be3d6" target="_top" xlink:title=" ">
<polygon fill="white" stroke="#666666" points="972,-576 862,-576 862,-557 972,-557 972,-576"/>
<text text-anchor="middle" x="917" y="-564" font-family="Helvetica,sans-Serif" font-size="10.00">get_variable_value</text>
</a>
</g>
</g>
<!-- Node129&#45;&gt;Node36 -->
<g id="edge48" class="edge">
<title>Node129&#45;&gt;Node36</title>
<path fill="none" stroke="#63b8ff" d="M399.09,-517.09C451.97,-531.87 559.05,-559.54 652,-569.5 715.19,-576.27 731.45,-570.29 795,-569.5 813.44,-569.27 833.45,-568.85 851.8,-568.39"/>
<polygon fill="#63b8ff" stroke="#63b8ff" points="851.89,-571.89 861.8,-568.13 851.71,-564.89 851.89,-571.89"/>
</g>
<!-- Node130 -->
<g id="node40" class="node">
<title>Node130</title>
<g id="a_node40"><a xlink:href="lexer__expand__tilde_8c.html#aa4231a41b1e79447d6a70db7b075f937" target="_top" xlink:title=" ">
<polygon fill="white" stroke="#666666" points="604,-636 487,-636 487,-617 604,-617 604,-636"/>
<text text-anchor="middle" x="545.5" y="-624" font-family="Helvetica,sans-Serif" font-size="10.00">should_expand_tilde</text>
</a>
</g>
</g>
<!-- Node129&#45;&gt;Node130 -->
<g id="edge51" class="edge">
<title>Node129&#45;&gt;Node130</title>
<path fill="none" stroke="#63b8ff" d="M374.67,-517.22C391.99,-536.13 432.85,-578.1 475,-602.5 482.38,-606.77 490.65,-610.45 498.84,-613.56"/>
<polygon fill="#63b8ff" stroke="#63b8ff" points="497.75,-616.89 508.35,-616.93 500.1,-610.29 497.75,-616.89"/>
</g>
<!-- Node37 -->
<g id="node39" class="node">
<title>Node37</title>
<g id="a_node39"><a xlink:href="get__variable_8c.html#a569170390f0edf013bf89c26ef55ea8c" target="_top" xlink:title=" ">
<polygon fill="white" stroke="#666666" points="1152,-576 1075,-576 1075,-557 1152,-557 1152,-576"/>
<text text-anchor="middle" x="1113.5" y="-564" font-family="Helvetica,sans-Serif" font-size="10.00">get_variable</text>
</a>
</g>
</g>
<!-- Node36&#45;&gt;Node37 -->
<g id="edge49" class="edge">
<title>Node36&#45;&gt;Node37</title>
<path fill="none" stroke="#63b8ff" d="M972.18,-566.5C1001.18,-566.5 1036.59,-566.5 1064.58,-566.5"/>
<polygon fill="#63b8ff" stroke="#63b8ff" points="1064.92,-570 1074.92,-566.5 1064.92,-563 1064.92,-570"/>
</g>
<!-- Node130&#45;&gt;Node131 -->
<g id="edge52" class="edge">
<title>Node130&#45;&gt;Node131</title>
<path fill="none" stroke="#63b8ff" d="M604.13,-632.72C617.44,-634.16 631.81,-635.71 645.79,-637.22"/>
<polygon fill="#63b8ff" stroke="#63b8ff" points="645.56,-640.71 655.88,-638.31 646.31,-633.75 645.56,-640.71"/>
</g>
<!-- Node133 -->
<g id="node43" class="node">
<title>Node133</title>
<g id="a_node43"><a xlink:href="lexer__expand__variable_8c.html#abe77b7e35b276965b72648d12abae283" target="_top" xlink:title=" ">
<polygon fill="white" stroke="#666666" points="588.5,-323 502.5,-323 502.5,-304 588.5,-304 588.5,-323"/>
<text text-anchor="middle" x="545.5" y="-311" font-family="Helvetica,sans-Serif" font-size="10.00">append_dollar</text>
</a>
</g>
</g>
<!-- Node132&#45;&gt;Node133 -->
<g id="edge54" class="edge">
<title>Node132&#45;&gt;Node133</title>
<path fill="none" stroke="#63b8ff" d="M411.97,-340.97C436.59,-335.87 467.01,-329.56 492.49,-324.28"/>
<polygon fill="#63b8ff" stroke="#63b8ff" points="493.28,-327.69 502.36,-322.24 491.85,-320.84 493.28,-327.69"/>
</g>
<!-- Node134 -->
<g id="node44" class="node">
<title>Node134</title>
<g id="a_node44"><a xlink:href="lexer__expand__variable_8c.html#ab47d31838e3255a1321d85e937919d4e" target="_top" xlink:title=" ">
<polygon fill="white" stroke="#666666" points="779,-474 668,-474 668,-455 779,-455 779,-474"/>
<text text-anchor="middle" x="723.5" y="-462" font-family="Helvetica,sans-Serif" font-size="10.00">append_last_status</text>
</a>
</g>
</g>
<!-- Node132&#45;&gt;Node134 -->
<g id="edge56" class="edge">
<title>Node132&#45;&gt;Node134</title>
<path fill="none" stroke="#63b8ff" d="M392.21,-360.02C442.31,-378.06 555.3,-417.97 652,-446.5 658.68,-448.47 665.74,-450.42 672.72,-452.28"/>
<polygon fill="#63b8ff" stroke="#63b8ff" points="672.28,-455.78 682.84,-454.92 674.04,-449.01 672.28,-455.78"/>
</g>
<!-- Node135 -->
<g id="node45" class="node">
<title>Node135</title>
<g id="a_node45"><a xlink:href="lexer__expand__variable_8c.html#a07266aa32aac17a8faafbc1736251f75" target="_top" xlink:title=" ">
<polygon fill="white" stroke="#666666" points="588.5,-493 502.5,-493 502.5,-474 588.5,-474 588.5,-493"/>
<text text-anchor="middle" x="545.5" y="-481" font-family="Helvetica,sans-Serif" font-size="10.00">append_name</text>
</a>
</g>
</g>
<!-- Node132&#45;&gt;Node135 -->
<g id="edge59" class="edge">
<title>Node132&#45;&gt;Node135</title>
<path fill="none" stroke="#63b8ff" d="M378.84,-360.07C409.18,-382.67 485.58,-439.6 523.07,-467.54"/>
<polygon fill="#63b8ff" stroke="#63b8ff" points="521.19,-470.49 531.3,-473.66 525.37,-464.88 521.19,-470.49"/>
</g>
<!-- Node138 -->
<g id="node48" class="node">
<title>Node138</title>
<g id="a_node48"><a xlink:href="lexer__expand__variable_8c.html#af3a3eadcd608e4dadc010ddf2cb068fb" target="_top" xlink:title=" ">
<polygon fill="white" stroke="#666666" points="611,-360 480,-360 480,-341 611,-341 611,-360"/>
<text text-anchor="middle" x="545.5" y="-348" font-family="Helvetica,sans-Serif" font-size="10.00">get_variable_name_len</text>
</a>
</g>
</g>
<!-- Node132&#45;&gt;Node138 -->
<g id="edge65" class="edge">
<title>Node132&#45;&gt;Node138</title>
<path fill="none" stroke="#63b8ff" d="M428.68,-350.5C441.89,-350.5 455.95,-350.5 469.56,-350.5"/>
<polygon fill="#63b8ff" stroke="#63b8ff" points="469.85,-354 479.85,-350.5 469.85,-347 469.85,-354"/>
</g>
<!-- Node133&#45;&gt;Node5 -->
<g id="edge55" class="edge">
<title>Node133&#45;&gt;Node5</title>
<path fill="none" stroke="#63b8ff" d="M588.74,-309.67C638.2,-305.12 722.59,-297.18 795,-289.5 815.15,-287.36 837.16,-284.86 856.82,-282.57"/>
<polygon fill="#63b8ff" stroke="#63b8ff" points="857.34,-286.04 866.87,-281.4 856.53,-279.08 857.34,-286.04"/>
</g>
<!-- Node134&#45;&gt;Node5 -->
<g id="edge57" class="edge">
<title>Node134&#45;&gt;Node5</title>
<path fill="none" stroke="#63b8ff" d="M779.06,-456.71C784.92,-454.16 790.41,-450.83 795,-446.5 833.34,-410.33 799.51,-375.77 831,-333.5 845.09,-314.59 867.24,-299.76 885.4,-289.83"/>
<polygon fill="#63b8ff" stroke="#63b8ff" points="887.23,-292.83 894.47,-285.09 883.99,-286.62 887.23,-292.83"/>
</g>
<!-- Node134&#45;&gt;Node7 -->
<g id="edge58" class="edge">
<title>Node134&#45;&gt;Node7</title>
<path fill="none" stroke="#63b8ff" d="M771.36,-454.94C828.81,-441.86 927.82,-414.8 1003,-370.5 1040.14,-348.62 1076.59,-313.5 1096.66,-292.64"/>
<polygon fill="#63b8ff" stroke="#63b8ff" points="1099.41,-294.82 1103.75,-285.16 1094.33,-290.01 1099.41,-294.82"/>
</g>
<!-- Node135&#45;&gt;Node7 -->
<g id="edge64" class="edge">
<title>Node135&#45;&gt;Node7</title>
<path fill="none" stroke="#63b8ff" d="M588.78,-489.28C675.13,-498.74 874.4,-508.4 1003,-418.5 1050.66,-385.18 1086.86,-324.8 1103.1,-294.27"/>
<polygon fill="#63b8ff" stroke="#63b8ff" points="1106.34,-295.62 1107.83,-285.14 1100.12,-292.41 1106.34,-295.62"/>
</g>
<!-- Node136 -->
<g id="node46" class="node">
<title>Node136</title>
<g id="a_node46"><a xlink:href="lexer__expand__variable_8c.html#a9954e7e26e9570a3c41eed4e16bf6791" target="_top" xlink:title=" ">
<polygon fill="white" stroke="#666666" points="788.5,-437 658.5,-437 658.5,-418 788.5,-418 788.5,-437"/>
<text text-anchor="middle" x="723.5" y="-425" font-family="Helvetica,sans-Serif" font-size="10.00">append_variable_value</text>
</a>
</g>
</g>
<!-- Node135&#45;&gt;Node136 -->
<g id="edge60" class="edge">
<title>Node135&#45;&gt;Node136</title>
<path fill="none" stroke="#63b8ff" d="M571.91,-474C593.17,-466.18 624.37,-455.05 652,-446.5 659.49,-444.18 667.48,-441.87 675.29,-439.7"/>
<polygon fill="#63b8ff" stroke="#63b8ff" points="676.31,-443.06 685.03,-437.05 674.46,-436.3 676.31,-443.06"/>
</g>
<!-- Node137 -->
<g id="node47" class="node">
<title>Node137</title>
<g id="a_node47"><a xlink:href="lexer__expand__variable_8c.html#a1d07a8c171e69a5c58a385a75520e6c0" target="_top" xlink:title=" ">
<polygon fill="white" stroke="#666666" points="781.5,-560.5 665.5,-560.5 665.5,-530.5 781.5,-530.5 781.5,-560.5"/>
<text text-anchor="start" x="673.5" y="-548.5" font-family="Helvetica,sans-Serif" font-size="10.00">get_correct_variable</text>
<text text-anchor="middle" x="723.5" y="-537.5" font-family="Helvetica,sans-Serif" font-size="10.00">_value</text>
</a>
</g>
</g>
<!-- Node135&#45;&gt;Node137 -->
<g id="edge62" class="edge">
<title>Node135&#45;&gt;Node137</title>
<path fill="none" stroke="#63b8ff" d="M573.61,-493.05C599.22,-502.07 638.31,-515.84 670.01,-527.01"/>
<polygon fill="#63b8ff" stroke="#63b8ff" points="669,-530.36 679.59,-530.38 671.32,-523.76 669,-530.36"/>
</g>
<!-- Node136&#45;&gt;Node5 -->
<g id="edge61" class="edge">
<title>Node136&#45;&gt;Node5</title>
<path fill="none" stroke="#63b8ff" d="M769.38,-417.97C778.57,-414.52 787.66,-409.84 795,-403.5 821.49,-380.64 807.84,-359.72 831,-333.5 847.01,-315.37 869.87,-300.19 887.84,-289.92"/>
<polygon fill="#63b8ff" stroke="#63b8ff" points="889.68,-292.9 896.74,-285 886.29,-286.78 889.68,-292.9"/>
</g>
<!-- Node137&#45;&gt;Node36 -->
<g id="edge63" class="edge">
<title>Node137&#45;&gt;Node36</title>
<path fill="none" stroke="#63b8ff" d="M781.7,-551.77C803.68,-554.18 828.92,-556.95 851.54,-559.43"/>
<polygon fill="#63b8ff" stroke="#63b8ff" points="851.4,-562.94 861.72,-560.55 852.16,-555.98 851.4,-562.94"/>
</g>
<!-- Node139 -->
<g id="node49" class="node">
<title>Node139</title>
<g id="a_node49"><a xlink:href="lexer__expand__variable_8c.html#a5067193ac632b7565fd8b9ad405a525f" target="_top" xlink:title=" ">
<polygon fill="white" stroke="#666666" points="786,-361 661,-361 661,-342 786,-342 786,-361"/>
<text text-anchor="middle" x="723.5" y="-349" font-family="Helvetica,sans-Serif" font-size="10.00">is_valid_variable_char</text>
</a>
</g>
</g>
<!-- Node138&#45;&gt;Node139 -->
<g id="edge66" class="edge">
<title>Node138&#45;&gt;Node139</title>
<path fill="none" stroke="#63b8ff" d="M611.04,-350.87C623.89,-350.94 637.46,-351.02 650.54,-351.09"/>
<polygon fill="#63b8ff" stroke="#63b8ff" points="650.88,-354.59 660.9,-351.15 650.92,-347.59 650.88,-354.59"/>
</g>
<!-- Node140 -->
<g id="node50" class="node">
<title>Node140</title>
<g id="a_node50"><a xlink:href="strings_8h.html#adfd4fc057d3b7ad39c6867928cc44175" target="_top" xlink:title=" ">
<polygon fill="white" stroke="#666666" points="958.5,-361 875.5,-361 875.5,-342 958.5,-342 958.5,-361"/>
<text text-anchor="middle" x="917" y="-349" font-family="Helvetica,sans-Serif" font-size="10.00">my_isnumber</text>
</a>
</g>
</g>
<!-- Node139&#45;&gt;Node140 -->
<g id="edge67" class="edge">
<title>Node139&#45;&gt;Node140</title>
<path fill="none" stroke="#63b8ff" d="M786.15,-351.5C811.69,-351.5 840.96,-351.5 865.24,-351.5"/>
<polygon fill="#63b8ff" stroke="#63b8ff" points="865.31,-355 875.31,-351.5 865.31,-348 865.31,-355"/>
</g>
</g>
</svg>
