<?xml version="1.0" encoding="UTF-8" standalone="no"?>
<!DOCTYPE svg PUBLIC "-//W3C//DTD SVG 1.1//EN"
 "http://www.w3.org/Graphics/SVG/1.1/DTD/svg11.dtd">
<!-- Generated by graphviz version 2.43.0 (0)
 -->
<!-- Title: lexer_next_token Pages: 1 -->
<!--zoomable 736 -->
<svg id="main" version="1.1" xmlns="http://www.w3.org/2000/svg" xmlns:xlink="http://www.w3.org/1999/xlink" xml:space="preserve" onload="init(evt)">
<style type="text/css"><![CDATA[
.edge:hover path { stroke: red; }
.edge:hover polygon { stroke: red; fill: red; }
]]></style>
<script type="text/javascript"><![CDATA[
var edges = document.getElementsByTagName('g');
if (edges && edges.length) {
  for (var i=0;i<edges.length;i++) {
    if (edges[i].id.substr(0,4)=='edge') {
      edges[i].setAttribute('class','edge');
    }
  }
}
]]></script>
        <defs>
                <circle id="rim" cx="0" cy="0" r="7"/>
                <circle id="rim2" cx="0" cy="0" r="3.5"/>
                <g id="zoomPlus">
                        <use xlink:href="#rim" fill="#404040">
                                <set attributeName="fill" to="#808080" begin="zoomplus.mouseover" end="zoomplus.mouseout"/>
                        </use>
                        <path d="M-4,0h8M0,-4v8" fill="none" stroke="white" stroke-width="1.5" pointer-events="none"/>
                </g>
                <g id="zoomMin">
                        <use xlink:href="#rim" fill="#404040">
                                <set attributeName="fill" to="#808080" begin="zoomminus.mouseover" end="zoomminus.mouseout"/>
                        </use>
                        <path d="M-4,0h8" fill="none" stroke="white" stroke-width="1.5" pointer-events="none"/>
                </g>
                <g id="dirArrow">
                        <path fill="none" stroke="white" stroke-width="1.5" d="M0,-3.0v7 M-2.5,-0.5L0,-3.0L2.5,-0.5"/>
                </g>
               <g id="resetDef">
                       <use xlink:href="#rim2" fill="#404040">
                               <set attributeName="fill" to="#808080" begin="reset.mouseover" end="reset.mouseout"/>
                       </use>
               </g>
        </defs>

<script type="text/javascript">
var viewWidth = 1116;
var viewHeight = 736;
var sectionId = 'dynsection-10';
</script>
<script xlink:href="svgpan.js"/>
<svg id="graph" class="graph">
<g id="viewport">
<title>lexer_next_token</title>
<!-- Node1 -->
<g id="node1" class="node">
<title>Node1</title>
<g id="a_node1"><a xlink:title=" ">
<polygon fill="#999999" stroke="#666666" points="100,-448.12 0,-448.12 0,-429.12 100,-429.12 100,-448.12"/>
<text text-anchor="middle" x="50" y="-436.12" font-family="Helvetica,sans-Serif" font-size="10.00">lexer_next_token</text>
</a>
</g>
</g>
<!-- Node2 -->
<g id="node2" class="node">
<title>Node2</title>
<g id="a_node2"><a xlink:href="create__token_8c.html#a15bcfc92177012893c626ce7d2d6bb6b" target="_top" xlink:title=" ">
<polygon fill="white" stroke="#666666" points="572,-509.12 492,-509.12 492,-490.12 572,-490.12 572,-509.12"/>
<text text-anchor="middle" x="532" y="-497.12" font-family="Helvetica,sans-Serif" font-size="10.00">create_token</text>
</a>
</g>
</g>
<!-- Node1&#45;&gt;Node2 -->
<g id="edge1" class="edge">
<title>Node1&#45;&gt;Node2</title>
<path fill="none" stroke="#63b8ff" d="M54.73,-448.34C64.41,-472.31 92.65,-534.75 136,-568.62 195.7,-615.26 222.3,-612 297,-624.62 351.78,-633.87 371.43,-647.62 422,-624.62 470.3,-602.65 505.54,-547.54 521.5,-518.39"/>
<polygon fill="#63b8ff" stroke="#63b8ff" points="524.75,-519.73 526.33,-509.25 518.56,-516.46 524.75,-519.73"/>
</g>
<!-- Node3 -->
<g id="node3" class="node">
<title>Node3</title>
<g id="a_node3"><a xlink:href="lexer__next__token_8c.html#add2e1acaa9518ecf20b6670ad91a5c65" target="_top" xlink:title=" ">
<polygon fill="white" stroke="#666666" points="249.5,-559.12 147.5,-559.12 147.5,-540.12 249.5,-540.12 249.5,-559.12"/>
<text text-anchor="middle" x="198.5" y="-547.12" font-family="Helvetica,sans-Serif" font-size="10.00">get_logical_token</text>
</a>
</g>
</g>
<!-- Node1&#45;&gt;Node3 -->
<g id="edge2" class="edge">
<title>Node1&#45;&gt;Node3</title>
<path fill="none" stroke="#63b8ff" d="M63.74,-448.28C88.96,-467.38 145.45,-510.18 176.34,-533.58"/>
<polygon fill="#63b8ff" stroke="#63b8ff" points="174.6,-536.66 184.68,-539.91 178.82,-531.08 174.6,-536.66"/>
</g>
<!-- Node7 -->
<g id="node7" class="node">
<title>Node7</title>
<g id="a_node7"><a xlink:href="lexer__next__token_8c.html#abcee8a7ba5ea6ca80c0bd7e3dd8d9a32" target="_top" xlink:title=" ">
<polygon fill="white" stroke="#666666" points="259.5,-448.12 137.5,-448.12 137.5,-429.12 259.5,-429.12 259.5,-448.12"/>
<text text-anchor="middle" x="198.5" y="-436.12" font-family="Helvetica,sans-Serif" font-size="10.00">get_redirection_token</text>
</a>
</g>
</g>
<!-- Node1&#45;&gt;Node7 -->
<g id="edge9" class="edge">
<title>Node1&#45;&gt;Node7</title>
<path fill="none" stroke="#63b8ff" d="M100.19,-438.62C108.83,-438.62 117.96,-438.62 127.05,-438.62"/>
<polygon fill="#63b8ff" stroke="#63b8ff" points="127.24,-442.12 137.24,-438.62 127.24,-435.12 127.24,-442.12"/>
</g>
<!-- Node12 -->
<g id="node12" class="node">
<title>Node12</title>
<g id="a_node12"><a xlink:href="lexer__newline_8c.html#a9f60bf18297b9c705fa6cdff027c79fc" target="_top" xlink:title=" ">
<polygon fill="white" stroke="#666666" points="240.5,-401.12 156.5,-401.12 156.5,-382.12 240.5,-382.12 240.5,-401.12"/>
<text text-anchor="middle" x="198.5" y="-389.12" font-family="Helvetica,sans-Serif" font-size="10.00">lexer_newline</text>
</a>
</g>
</g>
<!-- Node1&#45;&gt;Node12 -->
<g id="edge18" class="edge">
<title>Node1&#45;&gt;Node12</title>
<path fill="none" stroke="#63b8ff" d="M80.65,-429.11C102.91,-421.96 133.63,-412.11 157.98,-404.3"/>
<polygon fill="#63b8ff" stroke="#63b8ff" points="159.19,-407.58 167.65,-401.2 157.06,-400.92 159.19,-407.58"/>
</g>
<!-- Node13 -->
<g id="node13" class="node">
<title>Node13</title>
<g id="a_node13"><a xlink:href="lexer__parenthesis_8c.html#a2b13eaa0fee255bea85bd4279f369795" target="_top" xlink:title=" ">
<polygon fill="white" stroke="#666666" points="250,-728.12 147,-728.12 147,-709.12 250,-709.12 250,-728.12"/>
<text text-anchor="middle" x="198.5" y="-716.12" font-family="Helvetica,sans-Serif" font-size="10.00">lexer_parenthesis</text>
</a>
</g>
</g>
<!-- Node1&#45;&gt;Node13 -->
<g id="edge20" class="edge">
<title>Node1&#45;&gt;Node13</title>
<path fill="none" stroke="#63b8ff" d="M51.09,-448.36C52,-486.51 60.54,-627.31 136,-700.62 137.1,-701.68 138.25,-702.69 139.46,-703.63"/>
<polygon fill="#63b8ff" stroke="#63b8ff" points="137.72,-706.67 148.05,-709.05 141.46,-700.75 137.72,-706.67"/>
</g>
<!-- Node14 -->
<g id="node14" class="node">
<title>Node14</title>
<g id="a_node14"><a xlink:href="lexer__semicolon_8c.html#a1612109b245d9780427946e4e33b01b7" target="_top" xlink:title=" ">
<polygon fill="white" stroke="#666666" points="246.5,-691.12 150.5,-691.12 150.5,-672.12 246.5,-672.12 246.5,-691.12"/>
<text text-anchor="middle" x="198.5" y="-679.12" font-family="Helvetica,sans-Serif" font-size="10.00">lexer_semicolon</text>
</a>
</g>
</g>
<!-- Node1&#45;&gt;Node14 -->
<g id="edge22" class="edge">
<title>Node1&#45;&gt;Node14</title>
<path fill="none" stroke="#63b8ff" d="M52.02,-448.42C56.04,-482.23 73.77,-595.27 136,-657.62 139.9,-661.52 144.5,-664.81 149.41,-667.57"/>
<polygon fill="#63b8ff" stroke="#63b8ff" points="147.97,-670.76 158.49,-671.99 151.03,-664.46 147.97,-670.76"/>
</g>
<!-- Node15 -->
<g id="node15" class="node">
<title>Node15</title>
<g id="a_node15"><a xlink:href="lexer__word_8c.html#ac2600a9ba16009c4d8c114a118c54955" target="_top" xlink:title=" ">
<polygon fill="white" stroke="#666666" points="233.5,-345.12 163.5,-345.12 163.5,-326.12 233.5,-326.12 233.5,-345.12"/>
<text text-anchor="middle" x="198.5" y="-333.12" font-family="Helvetica,sans-Serif" font-size="10.00">lexer_word</text>
</a>
</g>
</g>
<!-- Node1&#45;&gt;Node15 -->
<g id="edge24" class="edge">
<title>Node1&#45;&gt;Node15</title>
<path fill="none" stroke="#63b8ff" d="M62.83,-428.98C79,-415.93 109.07,-392.17 136,-373.62 147.63,-365.61 160.91,-357.3 172.15,-350.5"/>
<polygon fill="#63b8ff" stroke="#63b8ff" points="174.25,-353.33 181.03,-345.19 170.65,-347.32 174.25,-353.33"/>
</g>
<!-- Node37 -->
<g id="node37" class="node">
<title>Node37</title>
<g id="a_node37"><a xlink:href="lexer__next__token_8c.html#a7f0a2dd2373821667a4d5381e7711aa0" target="_top" xlink:title=" ">
<polygon fill="white" stroke="#666666" points="243,-308.12 154,-308.12 154,-289.12 243,-289.12 243,-308.12"/>
<text text-anchor="middle" x="198.5" y="-296.12" font-family="Helvetica,sans-Serif" font-size="10.00">skip_comment</text>
</a>
</g>
</g>
<!-- Node1&#45;&gt;Node37 -->
<g id="edge57" class="edge">
<title>Node1&#45;&gt;Node37</title>
<path fill="none" stroke="#63b8ff" d="M54.95,-429.03C64.94,-406 93.46,-347.22 136,-316.62 138.66,-314.7 141.53,-312.99 144.52,-311.46"/>
<polygon fill="#63b8ff" stroke="#63b8ff" points="146.02,-314.62 153.76,-307.38 143.2,-308.21 146.02,-314.62"/>
</g>
<!-- Node38 -->
<g id="node38" class="node">
<title>Node38</title>
<g id="a_node38"><a xlink:href="lexer__next__token_8c.html#a5b2052471d98cef2998e1367f9bf8f6d" target="_top" xlink:title=" ">
<polygon fill="white" stroke="#666666" points="261,-271.12 136,-271.12 136,-252.12 261,-252.12 261,-271.12"/>
<text text-anchor="middle" x="198.5" y="-259.12" font-family="Helvetica,sans-Serif" font-size="10.00">skip_spaces_and_tabs</text>
</a>
</g>
</g>
<!-- Node1&#45;&gt;Node38 -->
<g id="edge58" class="edge">
<title>Node1&#45;&gt;Node38</title>
<path fill="none" stroke="#63b8ff" d="M53.31,-429.08C60.47,-401.51 84.98,-321.07 136,-279.62 137.59,-278.33 139.26,-277.13 141.01,-276.02"/>
<polygon fill="#63b8ff" stroke="#63b8ff" points="143,-278.93 150.2,-271.15 139.72,-272.74 143,-278.93"/>
</g>
<!-- Node4 -->
<g id="node4" class="node">
<title>Node4</title>
<g id="a_node4"><a xlink:href="lexer__logical__and_8c.html#a59e5031d54357d65c6873edc67de2a47" target="_top" xlink:title=" ">
<polygon fill="white" stroke="#666666" points="410,-578.12 309,-578.12 309,-559.12 410,-559.12 410,-578.12"/>
<text text-anchor="middle" x="359.5" y="-566.12" font-family="Helvetica,sans-Serif" font-size="10.00">lexer_logical_and</text>
</a>
</g>
</g>
<!-- Node3&#45;&gt;Node4 -->
<g id="edge3" class="edge">
<title>Node3&#45;&gt;Node4</title>
<path fill="none" stroke="#63b8ff" d="M249.81,-555.63C265.26,-557.48 282.41,-559.53 298.45,-561.44"/>
<polygon fill="#63b8ff" stroke="#63b8ff" points="298.45,-564.97 308.79,-562.68 299.28,-558.02 298.45,-564.97"/>
</g>
<!-- Node5 -->
<g id="node5" class="node">
<title>Node5</title>
<g id="a_node5"><a xlink:href="lexer__logical__or_8c.html#ac3851eaea27bd5774b126b888bdddf93" target="_top" xlink:title=" ">
<polygon fill="white" stroke="#666666" points="406,-541.12 313,-541.12 313,-522.12 406,-522.12 406,-541.12"/>
<text text-anchor="middle" x="359.5" y="-529.12" font-family="Helvetica,sans-Serif" font-size="10.00">lexer_logical_or</text>
</a>
</g>
</g>
<!-- Node3&#45;&gt;Node5 -->
<g id="edge5" class="edge">
<title>Node3&#45;&gt;Node5</title>
<path fill="none" stroke="#63b8ff" d="M249.81,-543.92C266.69,-542.01 285.62,-539.87 302.88,-537.92"/>
<polygon fill="#63b8ff" stroke="#63b8ff" points="303.29,-541.39 312.83,-536.79 302.5,-534.44 303.29,-541.39"/>
</g>
<!-- Node6 -->
<g id="node6" class="node">
<title>Node6</title>
<g id="a_node6"><a xlink:href="lexer__pipe_8c.html#a693816e38802a086de64c09cb7cebeb7" target="_top" xlink:title=" ">
<polygon fill="white" stroke="#666666" points="393,-615.12 326,-615.12 326,-596.12 393,-596.12 393,-615.12"/>
<text text-anchor="middle" x="359.5" y="-603.12" font-family="Helvetica,sans-Serif" font-size="10.00">lexer_pipe</text>
</a>
</g>
</g>
<!-- Node3&#45;&gt;Node6 -->
<g id="edge7" class="edge">
<title>Node3&#45;&gt;Node6</title>
<path fill="none" stroke="#63b8ff" d="M222.54,-559.25C242.16,-567.3 271.2,-578.84 297,-587.62 303.08,-589.69 309.55,-591.74 315.92,-593.68"/>
<polygon fill="#63b8ff" stroke="#63b8ff" points="315.2,-597.12 325.78,-596.61 317.19,-590.41 315.2,-597.12"/>
</g>
<!-- Node4&#45;&gt;Node2 -->
<g id="edge4" class="edge">
<title>Node4&#45;&gt;Node2</title>
<path fill="none" stroke="#63b8ff" d="M396.58,-559.06C405,-556.55 413.88,-553.69 422,-550.62 450.6,-539.81 482.12,-524.7 503.88,-513.73"/>
<polygon fill="#63b8ff" stroke="#63b8ff" points="505.53,-516.81 512.85,-509.16 502.36,-510.58 505.53,-516.81"/>
</g>
<!-- Node5&#45;&gt;Node2 -->
<g id="edge6" class="edge">
<title>Node5&#45;&gt;Node2</title>
<path fill="none" stroke="#63b8ff" d="M406.19,-523.04C429.58,-518.65 458.08,-513.31 481.93,-508.83"/>
<polygon fill="#63b8ff" stroke="#63b8ff" points="482.66,-512.25 491.84,-506.97 481.37,-505.37 482.66,-512.25"/>
</g>
<!-- Node6&#45;&gt;Node2 -->
<g id="edge8" class="edge">
<title>Node6&#45;&gt;Node2</title>
<path fill="none" stroke="#63b8ff" d="M393.03,-598.67C402.67,-595.94 413.03,-592.31 422,-587.62 458.53,-568.51 494.47,-536.13 514.59,-516.43"/>
<polygon fill="#63b8ff" stroke="#63b8ff" points="517.11,-518.85 521.73,-509.31 512.17,-513.89 517.11,-518.85"/>
</g>
<!-- Node8 -->
<g id="node8" class="node">
<title>Node8</title>
<g id="a_node8"><a xlink:href="lexer__heredoc_8c.html#a9db043b0e8df9ad1155a65a8fcf67c11" target="_top" xlink:title=" ">
<polygon fill="white" stroke="#666666" points="402,-504.12 317,-504.12 317,-485.12 402,-485.12 402,-504.12"/>
<text text-anchor="middle" x="359.5" y="-492.12" font-family="Helvetica,sans-Serif" font-size="10.00">lexer_heredoc</text>
</a>
</g>
</g>
<!-- Node7&#45;&gt;Node8 -->
<g id="edge10" class="edge">
<title>Node7&#45;&gt;Node8</title>
<path fill="none" stroke="#63b8ff" d="M222.54,-448.25C242.16,-456.3 271.2,-467.84 297,-476.62 302.53,-478.5 308.38,-480.37 314.19,-482.15"/>
<polygon fill="#63b8ff" stroke="#63b8ff" points="313.27,-485.53 323.86,-485.05 315.28,-478.83 313.27,-485.53"/>
</g>
<!-- Node9 -->
<g id="node9" class="node">
<title>Node9</title>
<g id="a_node9"><a xlink:href="lexer__redirect__append_8c.html#a09beefbfaf132dbe04add1370a6fb2e3" target="_top" xlink:title=" ">
<polygon fill="white" stroke="#666666" points="422,-467.12 297,-467.12 297,-448.12 422,-448.12 422,-467.12"/>
<text text-anchor="middle" x="359.5" y="-455.12" font-family="Helvetica,sans-Serif" font-size="10.00">lexer_redirect_append</text>
</a>
</g>
</g>
<!-- Node7&#45;&gt;Node9 -->
<g id="edge12" class="edge">
<title>Node7&#45;&gt;Node9</title>
<path fill="none" stroke="#63b8ff" d="M259.61,-445.8C268.49,-446.86 277.72,-447.97 286.81,-449.05"/>
<polygon fill="#63b8ff" stroke="#63b8ff" points="286.64,-452.56 296.98,-450.27 287.47,-445.61 286.64,-452.56"/>
</g>
<!-- Node10 -->
<g id="node10" class="node">
<title>Node10</title>
<g id="a_node10"><a xlink:href="lexer__redirect__in_8c.html#ac723d9668329d99b35003ed2423889e5" target="_top" xlink:title=" ">
<polygon fill="white" stroke="#666666" points="408.5,-430.12 310.5,-430.12 310.5,-411.12 408.5,-411.12 408.5,-430.12"/>
<text text-anchor="middle" x="359.5" y="-418.12" font-family="Helvetica,sans-Serif" font-size="10.00">lexer_redirect_in</text>
</a>
</g>
</g>
<!-- Node7&#45;&gt;Node10 -->
<g id="edge14" class="edge">
<title>Node7&#45;&gt;Node10</title>
<path fill="none" stroke="#63b8ff" d="M259.61,-431.81C273,-430.3 287.16,-428.69 300.46,-427.19"/>
<polygon fill="#63b8ff" stroke="#63b8ff" points="300.89,-430.66 310.44,-426.06 300.11,-423.71 300.89,-430.66"/>
</g>
<!-- Node11 -->
<g id="node11" class="node">
<title>Node11</title>
<g id="a_node11"><a xlink:href="lexer__redirect__out_8c.html#a70e2216639c96030b3861405ae3497c6" target="_top" xlink:title=" ">
<polygon fill="white" stroke="#666666" points="411.5,-393.12 307.5,-393.12 307.5,-374.12 411.5,-374.12 411.5,-393.12"/>
<text text-anchor="middle" x="359.5" y="-381.12" font-family="Helvetica,sans-Serif" font-size="10.00">lexer_redirect_out</text>
</a>
</g>
</g>
<!-- Node7&#45;&gt;Node11 -->
<g id="edge16" class="edge">
<title>Node7&#45;&gt;Node11</title>
<path fill="none" stroke="#63b8ff" d="M224.21,-429.07C243.85,-421.59 272.05,-411.07 297,-402.62 303.4,-400.45 310.21,-398.25 316.87,-396.14"/>
<polygon fill="#63b8ff" stroke="#63b8ff" points="317.97,-399.47 326.47,-393.15 315.89,-392.79 317.97,-399.47"/>
</g>
<!-- Node8&#45;&gt;Node2 -->
<g id="edge11" class="edge">
<title>Node8&#45;&gt;Node2</title>
<path fill="none" stroke="#63b8ff" d="M402.21,-495.84C426.21,-496.55 456.51,-497.43 481.68,-498.17"/>
<polygon fill="#63b8ff" stroke="#63b8ff" points="481.67,-501.67 491.77,-498.47 481.88,-494.68 481.67,-501.67"/>
</g>
<!-- Node9&#45;&gt;Node2 -->
<g id="edge13" class="edge">
<title>Node9&#45;&gt;Node2</title>
<path fill="none" stroke="#63b8ff" d="M399.19,-467.15C423.84,-473.22 455.99,-481.14 482.37,-487.64"/>
<polygon fill="#63b8ff" stroke="#63b8ff" points="481.62,-491.06 492.17,-490.05 483.3,-484.26 481.62,-491.06"/>
</g>
<!-- Node10&#45;&gt;Node2 -->
<g id="edge15" class="edge">
<title>Node10&#45;&gt;Node2</title>
<path fill="none" stroke="#63b8ff" d="M398.71,-430.18C406.61,-432.78 414.73,-435.91 422,-439.62 439.82,-448.7 440.78,-456.44 458,-466.62 470.31,-473.9 484.5,-480.65 497.08,-486.13"/>
<polygon fill="#63b8ff" stroke="#63b8ff" points="495.76,-489.37 506.33,-490.05 498.49,-482.92 495.76,-489.37"/>
</g>
<!-- Node11&#45;&gt;Node2 -->
<g id="edge17" class="edge">
<title>Node11&#45;&gt;Node2</title>
<path fill="none" stroke="#63b8ff" d="M405.86,-393.23C411.65,-395.68 417.22,-398.76 422,-402.62 447.4,-423.12 433.93,-444.58 458,-466.62 466.89,-474.76 478.12,-481.16 489.09,-486.08"/>
<polygon fill="#63b8ff" stroke="#63b8ff" points="488.02,-489.43 498.6,-490.03 490.7,-482.96 488.02,-489.43"/>
</g>
<!-- Node12&#45;&gt;Node2 -->
<g id="edge19" class="edge">
<title>Node12&#45;&gt;Node2</title>
<path fill="none" stroke="#63b8ff" d="M217.66,-382C258.39,-361.88 358.43,-320.79 422,-365.62 460.95,-393.08 425.72,-431.57 458,-466.62 465.65,-474.92 475.78,-481.28 486.06,-486.08"/>
<polygon fill="#63b8ff" stroke="#63b8ff" points="484.9,-489.39 495.47,-490.08 487.63,-482.95 484.9,-489.39"/>
</g>
<!-- Node13&#45;&gt;Node2 -->
<g id="edge21" class="edge">
<title>Node13&#45;&gt;Node2</title>
<path fill="none" stroke="#63b8ff" d="M250.33,-723.31C298.56,-725.16 371.03,-720.97 422,-686.62 482.96,-645.54 514.4,-558.06 525.84,-519.07"/>
<polygon fill="#63b8ff" stroke="#63b8ff" points="529.21,-520.01 528.55,-509.44 522.47,-518.12 529.21,-520.01"/>
</g>
<!-- Node14&#45;&gt;Node2 -->
<g id="edge23" class="edge">
<title>Node14&#45;&gt;Node2</title>
<path fill="none" stroke="#63b8ff" d="M246.92,-687.41C294.57,-690.86 368.42,-689.53 422,-657.62 476.75,-625.01 510.52,-552.96 524.11,-518.59"/>
<polygon fill="#63b8ff" stroke="#63b8ff" points="527.39,-519.8 527.68,-509.21 520.85,-517.31 527.39,-519.8"/>
</g>
<!-- Node15&#45;&gt;Node2 -->
<g id="edge25" class="edge">
<title>Node15&#45;&gt;Node2</title>
<path fill="none" stroke="#63b8ff" d="M230.58,-326.04C277.39,-313.7 366.38,-298.57 422,-341.62 467.72,-377 420.17,-422.9 458,-466.62 465.25,-474.99 475.05,-481.35 485.11,-486.14"/>
<polygon fill="#63b8ff" stroke="#63b8ff" points="483.79,-489.38 494.37,-490.1 486.55,-482.94 483.79,-489.38"/>
</g>
<!-- Node16 -->
<g id="node16" class="node">
<title>Node16</title>
<g id="a_node16"><a xlink:href="lexer__word_8c.html#a730574257743b09386cadd2ccbfe4d13" target="_top" xlink:title=" ">
<polygon fill="white" stroke="#666666" points="420.5,-279.12 298.5,-279.12 298.5,-260.12 420.5,-260.12 420.5,-279.12"/>
<text text-anchor="middle" x="359.5" y="-267.12" font-family="Helvetica,sans-Serif" font-size="10.00">handle_current_token</text>
</a>
</g>
</g>
<!-- Node15&#45;&gt;Node16 -->
<g id="edge26" class="edge">
<title>Node15&#45;&gt;Node16</title>
<path fill="none" stroke="#63b8ff" d="M233.63,-326.86C242.71,-324.05 252.38,-320.61 261,-316.62 278.23,-308.63 280.07,-302.22 297,-293.62 304.71,-289.7 313.22,-286 321.39,-282.74"/>
<polygon fill="#63b8ff" stroke="#63b8ff" points="322.68,-286 330.75,-279.13 320.16,-279.47 322.68,-286"/>
</g>
<!-- Node28 -->
<g id="node28" class="node">
<title>Node28</title>
<g id="a_node28"><a xlink:href="lexer__is__word__separator_8c.html#abccfc6fc0cdbd040fc9a7dcbfd207090" target="_top" xlink:title=" ">
<polygon fill="white" stroke="#666666" points="954,-22.12 819,-22.12 819,-3.12 954,-3.12 954,-22.12"/>
<text text-anchor="middle" x="886.5" y="-10.12" font-family="Helvetica,sans-Serif" font-size="10.00">lexer_is_word_separator</text>
</a>
</g>
</g>
<!-- Node15&#45;&gt;Node28 -->
<g id="edge56" class="edge">
<title>Node15&#45;&gt;Node28</title>
<path fill="none" stroke="#63b8ff" d="M233.72,-330.04C243.3,-327.22 253.21,-322.99 261,-316.62 286.86,-295.47 275.92,-276.55 297,-250.62 414.5,-106.07 461.56,-58.89 642,-12.62 696.48,1.35 760.09,0.8 808.64,-2.95"/>
<polygon fill="#63b8ff" stroke="#63b8ff" points="808.5,-6.45 818.76,-3.8 809.09,0.52 808.5,-6.45"/>
</g>
<!-- Node17 -->
<g id="node17" class="node">
<title>Node17</title>
<g id="a_node17"><a xlink:href="lexer__word_8c.html#acd8f2a3c47fa56f87c2792ccefd2ee3e" target="_top" xlink:title=" ">
<polygon fill="white" stroke="#666666" points="592.5,-242.12 471.5,-242.12 471.5,-223.12 592.5,-223.12 592.5,-242.12"/>
<text text-anchor="middle" x="532" y="-230.12" font-family="Helvetica,sans-Serif" font-size="10.00">handle_double_quote</text>
</a>
</g>
</g>
<!-- Node16&#45;&gt;Node17 -->
<g id="edge27" class="edge">
<title>Node16&#45;&gt;Node17</title>
<path fill="none" stroke="#63b8ff" d="M404.41,-260.09C426.6,-255.28 453.71,-249.39 477.15,-244.3"/>
<polygon fill="#63b8ff" stroke="#63b8ff" points="477.91,-247.72 486.94,-242.18 476.43,-240.88 477.91,-247.72"/>
</g>
<!-- Node18 -->
<g id="node18" class="node">
<title>Node18</title>
<g id="a_node18"><a xlink:href="lexer__word_8c.html#a733339142f4677a066646a12a7e5bec4" target="_top" xlink:title=" ">
<polygon fill="white" stroke="#666666" points="783,-467.12 642,-467.12 642,-448.12 783,-448.12 783,-467.12"/>
<text text-anchor="middle" x="712.5" y="-455.12" font-family="Helvetica,sans-Serif" font-size="10.00">handle_escape_sequence</text>
</a>
</g>
</g>
<!-- Node16&#45;&gt;Node18 -->
<g id="edge28" class="edge">
<title>Node16&#45;&gt;Node18</title>
<path fill="none" stroke="#63b8ff" d="M382.24,-279.2C395.39,-285.98 411.58,-296.26 422,-309.62 452.33,-348.52 420.4,-382.68 458,-414.62 505.64,-455.09 577.01,-464.15 631.9,-464.06"/>
<polygon fill="#63b8ff" stroke="#63b8ff" points="631.99,-467.56 641.95,-463.94 631.91,-460.56 631.99,-467.56"/>
</g>
<!-- Node22 -->
<g id="node22" class="node">
<title>Node22</title>
<g id="a_node22"><a xlink:href="lexer__word_8c.html#a3ae03e49183787e7cf32c90ffdef7351" target="_top" xlink:title=" ">
<polygon fill="white" stroke="#666666" points="590.5,-405.12 473.5,-405.12 473.5,-386.12 590.5,-386.12 590.5,-405.12"/>
<text text-anchor="middle" x="532" y="-393.12" font-family="Helvetica,sans-Serif" font-size="10.00">handle_single_quote</text>
</a>
</g>
</g>
<!-- Node16&#45;&gt;Node22 -->
<g id="edge32" class="edge">
<title>Node16&#45;&gt;Node22</title>
<path fill="none" stroke="#63b8ff" d="M394.42,-279.16C403.89,-282.78 413.81,-287.53 422,-293.62 442.83,-309.11 439.55,-321.35 458,-339.62 473.46,-354.93 493.15,-369.81 508.18,-380.38"/>
<polygon fill="#63b8ff" stroke="#63b8ff" points="506.2,-383.27 516.42,-386.07 510.18,-377.51 506.2,-383.27"/>
</g>
<!-- Node23 -->
<g id="node23" class="node">
<title>Node23</title>
<g id="a_node23"><a xlink:href="lexer__utils_8c.html#a2ba6f7e43ecbf713c666ab062eac534c" target="_top" xlink:title=" ">
<polygon fill="white" stroke="#666666" points="606,-331.12 458,-331.12 458,-312.12 606,-312.12 606,-331.12"/>
<text text-anchor="middle" x="532" y="-319.12" font-family="Helvetica,sans-Serif" font-size="10.00">lexer_append_current_char</text>
</a>
</g>
</g>
<!-- Node16&#45;&gt;Node23 -->
<g id="edge34" class="edge">
<title>Node16&#45;&gt;Node23</title>
<path fill="none" stroke="#63b8ff" d="M391.77,-279.16C419.33,-287.56 459.66,-299.86 489.83,-309.06"/>
<polygon fill="#63b8ff" stroke="#63b8ff" points="489.05,-312.48 499.64,-312.05 491.09,-305.79 489.05,-312.48"/>
</g>
<!-- Node24 -->
<g id="node24" class="node">
<title>Node24</title>
<g id="a_node24"><a xlink:href="lexer__expand__tilde_8c.html#ae3c478a10a2764ee7c7f94b42f28ecaf" target="_top" xlink:title=" ">
<polygon fill="white" stroke="#666666" points="586.5,-142.12 477.5,-142.12 477.5,-123.12 586.5,-123.12 586.5,-142.12"/>
<text text-anchor="middle" x="532" y="-130.12" font-family="Helvetica,sans-Serif" font-size="10.00">lexer_expand_tilde</text>
</a>
</g>
</g>
<!-- Node16&#45;&gt;Node24 -->
<g id="edge36" class="edge">
<title>Node16&#45;&gt;Node24</title>
<path fill="none" stroke="#63b8ff" d="M372.49,-259.99C401.4,-236.75 475.21,-177.45 510.97,-148.71"/>
<polygon fill="#63b8ff" stroke="#63b8ff" points="513.19,-151.42 518.8,-142.43 508.81,-145.96 513.19,-151.42"/>
</g>
<!-- Node29 -->
<g id="node29" class="node">
<title>Node29</title>
<g id="a_node29"><a xlink:href="lexer__expand__variable_8c.html#a01ad90eb8460a612626bb33c9e15cd52" target="_top" xlink:title=" ">
<polygon fill="white" stroke="#666666" points="595.5,-279.12 468.5,-279.12 468.5,-260.12 595.5,-260.12 595.5,-279.12"/>
<text text-anchor="middle" x="532" y="-267.12" font-family="Helvetica,sans-Serif" font-size="10.00">lexer_expand_variable</text>
</a>
</g>
</g>
<!-- Node16&#45;&gt;Node29 -->
<g id="edge42" class="edge">
<title>Node16&#45;&gt;Node29</title>
<path fill="none" stroke="#63b8ff" d="M420.61,-269.62C432.67,-269.62 445.47,-269.62 457.91,-269.62"/>
<polygon fill="#63b8ff" stroke="#63b8ff" points="458.26,-273.12 468.26,-269.62 458.26,-266.12 458.26,-273.12"/>
</g>
<!-- Node19 -->
<g id="node19" class="node">
<title>Node19</title>
<g id="a_node19"><a xlink:href="lexer__utils_8c.html#abf1c1b3b6033c8f9c8d1b11cc9e14f75" target="_top" xlink:title=" ">
<polygon fill="white" stroke="#666666" points="936.5,-335.12 836.5,-335.12 836.5,-316.12 936.5,-316.12 936.5,-335.12"/>
<text text-anchor="middle" x="886.5" y="-323.12" font-family="Helvetica,sans-Serif" font-size="10.00">lexer_append_str</text>
</a>
</g>
</g>
<!-- Node18&#45;&gt;Node19 -->
<g id="edge29" class="edge">
<title>Node18&#45;&gt;Node19</title>
<path fill="none" stroke="#63b8ff" d="M751.81,-448.03C762.39,-444.44 773.55,-439.7 783,-433.62 821.35,-408.93 855.53,-366.96 873.07,-343.27"/>
<polygon fill="#63b8ff" stroke="#63b8ff" points="875.92,-345.31 878.95,-335.16 870.25,-341.2 875.92,-345.31"/>
</g>
<!-- Node20 -->
<g id="node20" class="node">
<title>Node20</title>
<g id="a_node20"><a xlink:href="strings_8h.html#a5e1589f073ac32d227dbc6020c376dab" target="_top" xlink:title=" ">
<polygon fill="white" stroke="#666666" points="1099.5,-335.12 998.5,-335.12 998.5,-316.12 1099.5,-316.12 1099.5,-335.12"/>
<text text-anchor="middle" x="1049" y="-323.12" font-family="Helvetica,sans-Serif" font-size="10.00">append_to_buffer</text>
</a>
</g>
</g>
<!-- Node19&#45;&gt;Node20 -->
<g id="edge30" class="edge">
<title>Node19&#45;&gt;Node20</title>
<path fill="none" stroke="#63b8ff" d="M936.53,-325.62C952.79,-325.62 971.08,-325.62 988.06,-325.62"/>
<polygon fill="#63b8ff" stroke="#63b8ff" points="988.44,-329.12 998.44,-325.62 988.44,-322.12 988.44,-329.12"/>
</g>
<!-- Node21 -->
<g id="node21" class="node">
<title>Node21</title>
<g id="a_node21"><a xlink:href="lexer__utils_8c.html#a84e8d5514cfe03a20152ad26f170211f" target="_top" xlink:title=" ">
<polygon fill="white" stroke="#666666" points="1108,-279.12 990,-279.12 990,-260.12 1108,-260.12 1108,-279.12"/>
<text text-anchor="middle" x="1049" y="-267.12" font-family="Helvetica,sans-Serif" font-size="10.00">lexer_set_alloc_error</text>
</a>
</g>
</g>
<!-- Node19&#45;&gt;Node21 -->
<g id="edge31" class="edge">
<title>Node19&#45;&gt;Node21</title>
<path fill="none" stroke="#63b8ff" d="M915.09,-315.99C941.66,-306.72 982.03,-292.64 1011.3,-282.42"/>
<polygon fill="#63b8ff" stroke="#63b8ff" points="1012.48,-285.72 1020.77,-279.12 1010.17,-279.11 1012.48,-285.72"/>
</g>
<!-- Node22&#45;&gt;Node19 -->
<g id="edge33" class="edge">
<title>Node22&#45;&gt;Node19</title>
<path fill="none" stroke="#63b8ff" d="M590.51,-399.09C641.95,-400.58 718.89,-398.79 783,-380.62 812.82,-372.17 843.73,-354.08 863.7,-340.95"/>
<polygon fill="#63b8ff" stroke="#63b8ff" points="865.73,-343.8 872.07,-335.31 861.82,-338 865.73,-343.8"/>
</g>
<!-- Node23&#45;&gt;Node19 -->
<g id="edge35" class="edge">
<title>Node23&#45;&gt;Node19</title>
<path fill="none" stroke="#63b8ff" d="M552.09,-331.22C573.39,-341.34 609.18,-356.65 642,-362.62 703.66,-373.83 721.27,-373.42 783,-362.62 808.62,-358.14 836.29,-347.79 856.42,-339.18"/>
<polygon fill="#63b8ff" stroke="#63b8ff" points="857.9,-342.35 865.65,-335.12 855.08,-335.94 857.9,-342.35"/>
</g>
<!-- Node24&#45;&gt;Node19 -->
<g id="edge39" class="edge">
<title>Node24&#45;&gt;Node19</title>
<path fill="none" stroke="#63b8ff" d="M557.21,-142.23C602.77,-160.7 703.79,-203.53 783,-250.62 813.38,-268.68 845.9,-293.52 865.97,-309.58"/>
<polygon fill="#63b8ff" stroke="#63b8ff" points="864.03,-312.52 874.01,-316.08 868.43,-307.07 864.03,-312.52"/>
</g>
<!-- Node25 -->
<g id="node25" class="node">
<title>Node25</title>
<g id="a_node25"><a xlink:href="get__variable__value_8c.html#a2edd9900f19af236aa05385a789be3d6" target="_top" xlink:title=" ">
<polygon fill="white" stroke="#666666" points="941.5,-101.12 831.5,-101.12 831.5,-82.12 941.5,-82.12 941.5,-101.12"/>
<text text-anchor="middle" x="886.5" y="-89.12" font-family="Helvetica,sans-Serif" font-size="10.00">get_variable_value</text>
</a>
</g>
</g>
<!-- Node24&#45;&gt;Node25 -->
<g id="edge37" class="edge">
<title>Node24&#45;&gt;Node25</title>
<path fill="none" stroke="#63b8ff" d="M550.48,-123.11C571.49,-112.26 608.14,-95.19 642,-88.62 701.86,-76.99 771.57,-79.42 821.02,-83.76"/>
<polygon fill="#63b8ff" stroke="#63b8ff" points="820.98,-87.27 831.26,-84.7 821.62,-80.3 820.98,-87.27"/>
</g>
<!-- Node27 -->
<g id="node27" class="node">
<title>Node27</title>
<g id="a_node27"><a xlink:href="lexer__expand__tilde_8c.html#aa4231a41b1e79447d6a70db7b075f937" target="_top" xlink:title=" ">
<polygon fill="white" stroke="#666666" points="771,-41.12 654,-41.12 654,-22.12 771,-22.12 771,-41.12"/>
<text text-anchor="middle" x="712.5" y="-29.12" font-family="Helvetica,sans-Serif" font-size="10.00">should_expand_tilde</text>
</a>
</g>
</g>
<!-- Node24&#45;&gt;Node27 -->
<g id="edge40" class="edge">
<title>Node24&#45;&gt;Node27</title>
<path fill="none" stroke="#63b8ff" d="M544.39,-122.91C563.49,-107.02 603.65,-75.28 642,-55.62 650.26,-51.38 659.43,-47.62 668.33,-44.4"/>
<polygon fill="#63b8ff" stroke="#63b8ff" points="669.52,-47.69 677.83,-41.12 667.24,-41.08 669.52,-47.69"/>
</g>
<!-- Node26 -->
<g id="node26" class="node">
<title>Node26</title>
<g id="a_node26"><a xlink:href="get__variable_8c.html#a569170390f0edf013bf89c26ef55ea8c" target="_top" xlink:title=" ">
<polygon fill="white" stroke="#666666" points="1087.5,-101.12 1010.5,-101.12 1010.5,-82.12 1087.5,-82.12 1087.5,-101.12"/>
<text text-anchor="middle" x="1049" y="-89.12" font-family="Helvetica,sans-Serif" font-size="10.00">get_variable</text>
</a>
</g>
</g>
<!-- Node25&#45;&gt;Node26 -->
<g id="edge38" class="edge">
<title>Node25&#45;&gt;Node26</title>
<path fill="none" stroke="#63b8ff" d="M941.84,-91.62C960.78,-91.62 981.88,-91.62 1000.25,-91.62"/>
<polygon fill="#63b8ff" stroke="#63b8ff" points="1000.42,-95.12 1010.42,-91.62 1000.42,-88.12 1000.42,-95.12"/>
</g>
<!-- Node27&#45;&gt;Node28 -->
<g id="edge41" class="edge">
<title>Node27&#45;&gt;Node28</title>
<path fill="none" stroke="#63b8ff" d="M771.25,-25.24C783.34,-23.9 796.27,-22.48 808.92,-21.08"/>
<polygon fill="#63b8ff" stroke="#63b8ff" points="809.43,-24.54 818.99,-19.97 808.67,-17.59 809.43,-24.54"/>
</g>
<!-- Node29&#45;&gt;Node21 -->
<g id="edge55" class="edge">
<title>Node29&#45;&gt;Node21</title>
<path fill="none" stroke="#63b8ff" d="M577.32,-260.11C597.02,-256.34 620.57,-252.47 642,-250.62 760.49,-240.37 898.94,-251.85 979.71,-260.89"/>
<polygon fill="#63b8ff" stroke="#63b8ff" points="979.42,-264.38 989.75,-262.04 980.21,-257.43 979.42,-264.38"/>
</g>
<!-- Node30 -->
<g id="node30" class="node">
<title>Node30</title>
<g id="a_node30"><a xlink:href="lexer__expand__variable_8c.html#abe77b7e35b276965b72648d12abae283" target="_top" xlink:title=" ">
<polygon fill="white" stroke="#666666" points="755.5,-316.12 669.5,-316.12 669.5,-297.12 755.5,-297.12 755.5,-316.12"/>
<text text-anchor="middle" x="712.5" y="-304.12" font-family="Helvetica,sans-Serif" font-size="10.00">append_dollar</text>
</a>
</g>
</g>
<!-- Node29&#45;&gt;Node30 -->
<g id="edge43" class="edge">
<title>Node29&#45;&gt;Node30</title>
<path fill="none" stroke="#63b8ff" d="M578.97,-279.15C603.59,-284.25 634.01,-290.56 659.49,-295.84"/>
<polygon fill="#63b8ff" stroke="#63b8ff" points="658.85,-299.28 669.36,-297.88 660.28,-292.43 658.85,-299.28"/>
</g>
<!-- Node31 -->
<g id="node31" class="node">
<title>Node31</title>
<g id="a_node31"><a xlink:href="lexer__expand__variable_8c.html#ab47d31838e3255a1321d85e937919d4e" target="_top" xlink:title=" ">
<polygon fill="white" stroke="#666666" points="768,-279.12 657,-279.12 657,-260.12 768,-260.12 768,-279.12"/>
<text text-anchor="middle" x="712.5" y="-267.12" font-family="Helvetica,sans-Serif" font-size="10.00">append_last_status</text>
</a>
</g>
</g>
<!-- Node29&#45;&gt;Node31 -->
<g id="edge45" class="edge">
<title>Node29&#45;&gt;Node31</title>
<path fill="none" stroke="#63b8ff" d="M595.68,-269.62C612.24,-269.62 630.13,-269.62 646.79,-269.62"/>
<polygon fill="#63b8ff" stroke="#63b8ff" points="646.98,-273.12 656.98,-269.62 646.98,-266.12 646.98,-273.12"/>
</g>
<!-- Node32 -->
<g id="node32" class="node">
<title>Node32</title>
<g id="a_node32"><a xlink:href="lexer__expand__variable_8c.html#a9954e7e26e9570a3c41eed4e16bf6791" target="_top" xlink:title=" ">
<polygon fill="white" stroke="#666666" points="777.5,-353.12 647.5,-353.12 647.5,-334.12 777.5,-334.12 777.5,-353.12"/>
<text text-anchor="middle" x="712.5" y="-341.12" font-family="Helvetica,sans-Serif" font-size="10.00">append_variable_value</text>
</a>
</g>
</g>
<!-- Node29&#45;&gt;Node32 -->
<g id="edge48" class="edge">
<title>Node29&#45;&gt;Node32</title>
<path fill="none" stroke="#63b8ff" d="M556.04,-279.16C570.58,-285.4 589.65,-293.97 606,-302.62 622.58,-311.39 624.79,-317.18 642,-324.62 647.44,-326.97 653.25,-329.1 659.11,-331.02"/>
<polygon fill="#63b8ff" stroke="#63b8ff" points="658.36,-334.45 668.95,-334.03 660.41,-327.75 658.36,-334.45"/>
</g>
<!-- Node33 -->
<g id="node33" class="node">
<title>Node33</title>
<g id="a_node33"><a xlink:href="lexer__expand__variable_8c.html#a1d07a8c171e69a5c58a385a75520e6c0" target="_top" xlink:title=" ">
<polygon fill="white" stroke="#666666" points="770.5,-127.62 654.5,-127.62 654.5,-97.62 770.5,-97.62 770.5,-127.62"/>
<text text-anchor="start" x="662.5" y="-115.62" font-family="Helvetica,sans-Serif" font-size="10.00">get_correct_variable</text>
<text text-anchor="middle" x="712.5" y="-104.62" font-family="Helvetica,sans-Serif" font-size="10.00">_value</text>
</a>
</g>
</g>
<!-- Node29&#45;&gt;Node33 -->
<g id="edge50" class="edge">
<title>Node29&#45;&gt;Node33</title>
<path fill="none" stroke="#63b8ff" d="M592.03,-260.1C597.15,-257.61 601.92,-254.5 606,-250.62 644.52,-214.02 604.93,-174.69 642,-136.62 643.22,-135.36 644.52,-134.17 645.87,-133.04"/>
<polygon fill="#63b8ff" stroke="#63b8ff" points="647.98,-135.83 654.17,-127.23 643.97,-130.1 647.98,-135.83"/>
</g>
<!-- Node34 -->
<g id="node34" class="node">
<title>Node34</title>
<g id="a_node34"><a xlink:href="lexer__expand__variable_8c.html#a3674c7faac945bf9ec05a9dc00c08896" target="_top" xlink:title=" ">
<polygon fill="white" stroke="#666666" points="778,-165.12 647,-165.12 647,-146.12 778,-146.12 778,-165.12"/>
<text text-anchor="middle" x="712.5" y="-153.12" font-family="Helvetica,sans-Serif" font-size="10.00">get_variable_name_len</text>
</a>
</g>
</g>
<!-- Node29&#45;&gt;Node34 -->
<g id="edge52" class="edge">
<title>Node29&#45;&gt;Node34</title>
<path fill="none" stroke="#63b8ff" d="M589.94,-260.03C595.71,-257.56 601.21,-254.48 606,-250.62 633.55,-228.42 615.33,-202.87 642,-179.62 646.74,-175.49 652.22,-172.06 657.99,-169.22"/>
<polygon fill="#63b8ff" stroke="#63b8ff" points="659.44,-172.4 667.22,-165.21 656.66,-165.98 659.44,-172.4"/>
</g>
<!-- Node30&#45;&gt;Node19 -->
<g id="edge44" class="edge">
<title>Node30&#45;&gt;Node19</title>
<path fill="none" stroke="#63b8ff" d="M755.58,-311.27C776.8,-313.61 802.91,-316.5 826.13,-319.06"/>
<polygon fill="#63b8ff" stroke="#63b8ff" points="825.91,-322.56 836.23,-320.18 826.68,-315.6 825.91,-322.56"/>
</g>
<!-- Node31&#45;&gt;Node19 -->
<g id="edge46" class="edge">
<title>Node31&#45;&gt;Node19</title>
<path fill="none" stroke="#63b8ff" d="M753.39,-279.21C763.13,-281.75 773.49,-284.63 783,-287.62 806.39,-294.96 832.27,-304.57 852.18,-312.29"/>
<polygon fill="#63b8ff" stroke="#63b8ff" points="851.13,-315.63 861.71,-316.02 853.68,-309.12 851.13,-315.63"/>
</g>
<!-- Node31&#45;&gt;Node21 -->
<g id="edge47" class="edge">
<title>Node31&#45;&gt;Node21</title>
<path fill="none" stroke="#63b8ff" d="M768.36,-269.62C826.12,-269.62 917.18,-269.62 979.59,-269.62"/>
<polygon fill="#63b8ff" stroke="#63b8ff" points="979.74,-273.12 989.74,-269.62 979.74,-266.12 979.74,-273.12"/>
</g>
<!-- Node32&#45;&gt;Node19 -->
<g id="edge49" class="edge">
<title>Node32&#45;&gt;Node19</title>
<path fill="none" stroke="#63b8ff" d="M777.55,-336.92C793.53,-335.24 810.6,-333.46 826.33,-331.81"/>
<polygon fill="#63b8ff" stroke="#63b8ff" points="826.87,-335.27 836.46,-330.75 826.15,-328.31 826.87,-335.27"/>
</g>
<!-- Node33&#45;&gt;Node25 -->
<g id="edge51" class="edge">
<title>Node33&#45;&gt;Node25</title>
<path fill="none" stroke="#63b8ff" d="M770.77,-105.63C786.96,-103.65 804.68,-101.49 821.25,-99.46"/>
<polygon fill="#63b8ff" stroke="#63b8ff" points="821.89,-102.91 831.39,-98.23 821.04,-95.96 821.89,-102.91"/>
</g>
<!-- Node35 -->
<g id="node35" class="node">
<title>Node35</title>
<g id="a_node35"><a xlink:href="lexer__expand__variable_8c.html#a5067193ac632b7565fd8b9ad405a525f" target="_top" xlink:title=" ">
<polygon fill="white" stroke="#666666" points="949,-165.12 824,-165.12 824,-146.12 949,-146.12 949,-165.12"/>
<text text-anchor="middle" x="886.5" y="-153.12" font-family="Helvetica,sans-Serif" font-size="10.00">is_valid_variable_char</text>
</a>
</g>
</g>
<!-- Node34&#45;&gt;Node35 -->
<g id="edge53" class="edge">
<title>Node34&#45;&gt;Node35</title>
<path fill="none" stroke="#63b8ff" d="M778.04,-155.62C789.61,-155.62 801.74,-155.62 813.51,-155.62"/>
<polygon fill="#63b8ff" stroke="#63b8ff" points="813.74,-159.12 823.74,-155.62 813.74,-152.12 813.74,-159.12"/>
</g>
<!-- Node36 -->
<g id="node36" class="node">
<title>Node36</title>
<g id="a_node36"><a xlink:href="strings_8h.html#adfd4fc057d3b7ad39c6867928cc44175" target="_top" xlink:title=" ">
<polygon fill="white" stroke="#666666" points="1090.5,-165.12 1007.5,-165.12 1007.5,-146.12 1090.5,-146.12 1090.5,-165.12"/>
<text text-anchor="middle" x="1049" y="-153.12" font-family="Helvetica,sans-Serif" font-size="10.00">my_isnumber</text>
</a>
</g>
</g>
<!-- Node35&#45;&gt;Node36 -->
<g id="edge54" class="edge">
<title>Node35&#45;&gt;Node36</title>
<path fill="none" stroke="#63b8ff" d="M949.09,-155.62C964.9,-155.62 981.72,-155.62 996.93,-155.62"/>
<polygon fill="#63b8ff" stroke="#63b8ff" points="997.16,-159.12 1007.16,-155.62 997.16,-152.12 997.16,-159.12"/>
</g>
</g>
</svg>
        <g id="navigator" transform="translate(0 0)" fill="#404254">
                <rect fill="#f2f5e9" fill-opacity="0.5" stroke="#606060" stroke-width=".5" x="0" y="0" width="60" height="60"/>
                <use id="zoomplus" xlink:href="#zoomPlus" x="17" y="9" onmousedown="handleZoom(evt,'in')"/>
                <use id="zoomminus" xlink:href="#zoomMin" x="42" y="9" onmousedown="handleZoom(evt,'out')"/>
                <use id="reset" xlink:href="#resetDef" x="30" y="36" onmousedown="handleReset()"/>
                <g id="arrowUp" xlink:href="#dirArrow" transform="translate(30 24)" onmousedown="handlePan(0,-1)">
                  <use xlink:href="#rim" fill="#404040">
                        <set attributeName="fill" to="#808080" begin="arrowUp.mouseover" end="arrowUp.mouseout"/>
                  </use>
                  <path fill="none" stroke="white" stroke-width="1.5" d="M0,-3.0v7 M-2.5,-0.5L0,-3.0L2.5,-0.5"/>
                </g>
                <g id="arrowRight" xlink:href="#dirArrow" transform="rotate(90) translate(36 -43)" onmousedown="handlePan(1,0)">
                  <use xlink:href="#rim" fill="#404040">
                        <set attributeName="fill" to="#808080" begin="arrowRight.mouseover" end="arrowRight.mouseout"/>
                  </use>
                  <path fill="none" stroke="white" stroke-width="1.5" d="M0,-3.0v7 M-2.5,-0.5L0,-3.0L2.5,-0.5"/>
                </g>
                <g id="arrowDown" xlink:href="#dirArrow" transform="rotate(180) translate(-30 -48)" onmousedown="handlePan(0,1)">
                  <use xlink:href="#rim" fill="#404040">
                        <set attributeName="fill" to="#808080" begin="arrowDown.mouseover" end="arrowDown.mouseout"/>
                  </use>
                  <path fill="none" stroke="white" stroke-width="1.5" d="M0,-3.0v7 M-2.5,-0.5L0,-3.0L2.5,-0.5"/>
                </g>
                <g id="arrowLeft" xlink:href="#dirArrow" transform="rotate(270) translate(-36 17)" onmousedown="handlePan(-1,0)">
                  <use xlink:href="#rim" fill="#404040">
                        <set attributeName="fill" to="#808080" begin="arrowLeft.mouseover" end="arrowLeft.mouseout"/>
                  </use>
                  <path fill="none" stroke="white" stroke-width="1.5" d="M0,-3.0v7 M-2.5,-0.5L0,-3.0L2.5,-0.5"/>
                </g>
        </g>
        <svg viewBox="0 0 15 15" width="100%" height="30px" preserveAspectRatio="xMaxYMin meet">
         <g id="arrow_out" transform="scale(0.3 0.3)">
          <a xlink:href="lexer_8h_a3def5432329709fb4df861d90672c510_cgraph_org.svg" target="_base">
           <rect id="button" ry="5" rx="5" y="6" x="6" height="38" width="38"
                fill="#f2f5e9" fill-opacity="0.5" stroke="#606060" stroke-width="1.0"/>
           <path id="arrow"
             d="M 11.500037,31.436501 C 11.940474,20.09759 22.043105,11.32322 32.158766,21.979434 L 37.068811,17.246167 C 37.068811,17.246167 37.088388,32 37.088388,32 L 22.160133,31.978069 C 22.160133,31.978069 26.997745,27.140456 26.997745,27.140456 C 18.528582,18.264221 13.291696,25.230495 11.500037,31.436501 z"
             style="fill:#404040;"/>
          </a>
         </g>
        </svg>
</svg>
