<?xml version="1.0" encoding="UTF-8" standalone="no"?>
<!DOCTYPE svg PUBLIC "-//W3C//DTD SVG 1.1//EN"
 "http://www.w3.org/Graphics/SVG/1.1/DTD/svg11.dtd">
<!-- Generated by graphviz version 2.43.0 (0)
 -->
<!-- Title: include/lexer.h Pages: 1 -->
<svg width="3279pt" height="159pt"
 viewBox="0.00 0.00 3279.00 159.00" xmlns="http://www.w3.org/2000/svg" xmlns:xlink="http://www.w3.org/1999/xlink">
<g id="graph0" class="graph" transform="scale(1 1) rotate(0) translate(4 155)">
<title>include/lexer.h</title>
<!-- Node1 -->
<g id="node1" class="node">
<title>Node1</title>
<g id="a_node1"><a xlink:title=" ">
<polygon fill="#999999" stroke="#666666" points="1943.5,-151 1856.5,-151 1856.5,-132 1943.5,-132 1943.5,-151"/>
<text text-anchor="middle" x="1900" y="-139" font-family="Helvetica,sans-Serif" font-size="10.00">include/lexer.h</text>
</a>
</g>
</g>
<!-- Node2 -->
<g id="node2" class="node">
<title>Node2</title>
<g id="a_node2"><a xlink:href="parser_8h.html" target="_top" xlink:title=" ">
<polygon fill="white" stroke="#666666" points="1027,-90.5 933,-90.5 933,-71.5 1027,-71.5 1027,-90.5"/>
<text text-anchor="middle" x="980" y="-78.5" font-family="Helvetica,sans-Serif" font-size="10.00">include/parser.h</text>
</a>
</g>
</g>
<!-- Node1&#45;&gt;Node2 -->
<g id="edge1" class="edge">
<title>Node1&#45;&gt;Node2</title>
<path fill="none" stroke="#63b8ff" d="M1846.27,-140.95C1710.57,-141.38 1343.34,-138.2 1041,-96 1031.64,-94.69 1021.59,-92.66 1012.41,-90.54"/>
<polygon fill="#63b8ff" stroke="#63b8ff" points="1846.41,-144.45 1856.39,-140.91 1846.38,-137.45 1846.41,-144.45"/>
</g>
<!-- Node4 -->
<g id="node4" class="node">
<title>Node4</title>
<g id="a_node4"><a xlink:href="parser__init_8c.html" target="_top" xlink:title=" ">
<polygon fill="white" stroke="#666666" points="128,-24.5 0,-24.5 0,-5.5 128,-5.5 128,-24.5"/>
<text text-anchor="middle" x="64" y="-12.5" font-family="Helvetica,sans-Serif" font-size="10.00">src/parser/parser_init.c</text>
</a>
</g>
</g>
<!-- Node1&#45;&gt;Node4 -->
<g id="edge32" class="edge">
<title>Node1&#45;&gt;Node4</title>
<path fill="none" stroke="#63b8ff" d="M1846.21,-140.97C1665.57,-142.06 1064.21,-141.77 570,-96 396.65,-79.94 192.55,-41.67 106.08,-24.54"/>
<polygon fill="#63b8ff" stroke="#63b8ff" points="1846.28,-144.47 1856.26,-140.9 1846.23,-137.47 1846.28,-144.47"/>
</g>
<!-- Node5 -->
<g id="node5" class="node">
<title>Node5</title>
<g id="a_node5"><a xlink:href="parser__next_8c.html" target="_top" xlink:title=" ">
<polygon fill="white" stroke="#666666" points="280,-24.5 146,-24.5 146,-5.5 280,-5.5 280,-24.5"/>
<text text-anchor="middle" x="213" y="-12.5" font-family="Helvetica,sans-Serif" font-size="10.00">src/parser/parser_next.c</text>
</a>
</g>
</g>
<!-- Node1&#45;&gt;Node5 -->
<g id="edge33" class="edge">
<title>Node1&#45;&gt;Node5</title>
<path fill="none" stroke="#63b8ff" d="M1846.02,-139.14C1698.29,-135.17 1275.02,-122.22 924,-96 641.05,-74.86 569.85,-70.4 289,-30 278.24,-28.45 266.69,-26.48 255.91,-24.51"/>
<polygon fill="#63b8ff" stroke="#63b8ff" points="1846.08,-142.64 1856.17,-139.41 1846.27,-135.64 1846.08,-142.64"/>
</g>
<!-- Node16 -->
<g id="node16" class="node">
<title>Node16</title>
<g id="a_node16"><a xlink:href="shell_8c.html" target="_top" xlink:title=" ">
<polygon fill="white" stroke="#666666" points="2014.5,-24.5 1949.5,-24.5 1949.5,-5.5 2014.5,-5.5 2014.5,-24.5"/>
<text text-anchor="middle" x="1982" y="-12.5" font-family="Helvetica,sans-Serif" font-size="10.00">src/shell.c</text>
</a>
</g>
</g>
<!-- Node1&#45;&gt;Node16 -->
<g id="edge34" class="edge">
<title>Node1&#45;&gt;Node16</title>
<path fill="none" stroke="#63b8ff" d="M1846.11,-139.61C1666.88,-136.4 1100.59,-124.06 1074,-96 1064.83,-86.32 1064.77,-75.62 1074,-66 1107.33,-31.25 1892.64,-38.7 1940,-30 1946.65,-28.78 1953.69,-26.74 1960.07,-24.6"/>
<polygon fill="#63b8ff" stroke="#63b8ff" points="1846.29,-143.12 1856.35,-139.79 1846.42,-136.12 1846.29,-143.12"/>
</g>
<!-- Node17 -->
<g id="node17" class="node">
<title>Node17</title>
<g id="a_node17"><a xlink:href="lexer__expand__tilde_8c.html" target="_top" xlink:title=" ">
<polygon fill="white" stroke="#666666" points="1209,-96 1083,-96 1083,-66 1209,-66 1209,-96"/>
<text text-anchor="start" x="1091" y="-84" font-family="Helvetica,sans-Serif" font-size="10.00">src/lexer/lexer_expand</text>
<text text-anchor="middle" x="1146" y="-73" font-family="Helvetica,sans-Serif" font-size="10.00">_tilde.c</text>
</a>
</g>
</g>
<!-- Node1&#45;&gt;Node17 -->
<g id="edge16" class="edge">
<title>Node1&#45;&gt;Node17</title>
<path fill="none" stroke="#63b8ff" d="M1845.99,-139.3C1730.37,-136.23 1450.5,-126.07 1218,-96 1215.1,-95.62 1212.13,-95.2 1209.14,-94.75"/>
<polygon fill="#63b8ff" stroke="#63b8ff" points="1846.24,-142.81 1856.33,-139.57 1846.42,-135.81 1846.24,-142.81"/>
</g>
<!-- Node18 -->
<g id="node18" class="node">
<title>Node18</title>
<g id="a_node18"><a xlink:href="lexer__expand__variable_8c.html" target="_top" xlink:title=" ">
<polygon fill="white" stroke="#666666" points="1353,-96 1227,-96 1227,-66 1353,-66 1353,-96"/>
<text text-anchor="start" x="1235" y="-84" font-family="Helvetica,sans-Serif" font-size="10.00">src/lexer/lexer_expand</text>
<text text-anchor="middle" x="1290" y="-73" font-family="Helvetica,sans-Serif" font-size="10.00">_variable.c</text>
</a>
</g>
</g>
<!-- Node1&#45;&gt;Node18 -->
<g id="edge17" class="edge">
<title>Node1&#45;&gt;Node18</title>
<path fill="none" stroke="#63b8ff" d="M1846.08,-138C1748.94,-133.06 1538.24,-120.35 1362,-96 1359.1,-95.6 1356.14,-95.16 1353.15,-94.69"/>
<polygon fill="#63b8ff" stroke="#63b8ff" points="1846.07,-141.5 1856.24,-138.51 1846.42,-134.51 1846.07,-141.5"/>
</g>
<!-- Node19 -->
<g id="node19" class="node">
<title>Node19</title>
<g id="a_node19"><a xlink:href="lexer__init_8c.html" target="_top" xlink:title=" ">
<polygon fill="white" stroke="#666666" points="1485,-90.5 1371,-90.5 1371,-71.5 1485,-71.5 1485,-90.5"/>
<text text-anchor="middle" x="1428" y="-78.5" font-family="Helvetica,sans-Serif" font-size="10.00">src/lexer/lexer_init.c</text>
</a>
</g>
</g>
<!-- Node1&#45;&gt;Node19 -->
<g id="edge18" class="edge">
<title>Node1&#45;&gt;Node19</title>
<path fill="none" stroke="#63b8ff" d="M1846.18,-136.32C1768.22,-129.88 1619.47,-116.13 1494,-96 1484.52,-94.48 1474.34,-92.5 1464.88,-90.5"/>
<polygon fill="#63b8ff" stroke="#63b8ff" points="1846,-139.82 1856.25,-137.15 1846.57,-132.84 1846,-139.82"/>
</g>
<!-- Node20 -->
<g id="node20" class="node">
<title>Node20</title>
<g id="a_node20"><a xlink:href="lexer__next__token_8c.html" target="_top" xlink:title=" ">
<polygon fill="white" stroke="#666666" points="1615,-96 1503,-96 1503,-66 1615,-66 1615,-96"/>
<text text-anchor="start" x="1511" y="-84" font-family="Helvetica,sans-Serif" font-size="10.00">src/lexer/lexer_next</text>
<text text-anchor="middle" x="1559" y="-73" font-family="Helvetica,sans-Serif" font-size="10.00">_token.c</text>
</a>
</g>
</g>
<!-- Node1&#45;&gt;Node20 -->
<g id="edge19" class="edge">
<title>Node1&#45;&gt;Node20</title>
<path fill="none" stroke="#63b8ff" d="M1846.1,-132.57C1790.56,-124.21 1701.53,-110.3 1625,-96 1621.78,-95.4 1618.47,-94.76 1615.13,-94.1"/>
<polygon fill="#63b8ff" stroke="#63b8ff" points="1845.66,-136.04 1856.07,-134.06 1846.7,-129.12 1845.66,-136.04"/>
</g>
<!-- Node21 -->
<g id="node21" class="node">
<title>Node21</title>
<g id="a_node21"><a xlink:href="lexer__utils_8c.html" target="_top" xlink:title=" ">
<polygon fill="white" stroke="#666666" points="1752.5,-90.5 1633.5,-90.5 1633.5,-71.5 1752.5,-71.5 1752.5,-90.5"/>
<text text-anchor="middle" x="1693" y="-78.5" font-family="Helvetica,sans-Serif" font-size="10.00">src/lexer/lexer_utils.c</text>
</a>
</g>
</g>
<!-- Node1&#45;&gt;Node21 -->
<g id="edge20" class="edge">
<title>Node1&#45;&gt;Node21</title>
<path fill="none" stroke="#63b8ff" d="M1860.2,-129.25C1820.17,-117.94 1759.33,-100.75 1723.14,-90.52"/>
<polygon fill="#63b8ff" stroke="#63b8ff" points="1859.33,-132.64 1869.9,-131.99 1861.23,-125.91 1859.33,-132.64"/>
</g>
<!-- Node22 -->
<g id="node22" class="node">
<title>Node22</title>
<g id="a_node22"><a xlink:href="lexer__heredoc_8c.html" target="_top" xlink:title=" ">
<polygon fill="white" stroke="#666666" points="1891,-96 1771,-96 1771,-66 1891,-66 1891,-96"/>
<text text-anchor="start" x="1779" y="-84" font-family="Helvetica,sans-Serif" font-size="10.00">src/lexer/tokens/lexer</text>
<text text-anchor="middle" x="1831" y="-73" font-family="Helvetica,sans-Serif" font-size="10.00">_heredoc.c</text>
</a>
</g>
</g>
<!-- Node1&#45;&gt;Node22 -->
<g id="edge21" class="edge">
<title>Node1&#45;&gt;Node22</title>
<path fill="none" stroke="#63b8ff" d="M1881.99,-125.23C1871.37,-116.23 1858.02,-104.91 1847.65,-96.11"/>
<polygon fill="#63b8ff" stroke="#63b8ff" points="1879.93,-128.07 1889.82,-131.87 1884.45,-122.73 1879.93,-128.07"/>
</g>
<!-- Node23 -->
<g id="node23" class="node">
<title>Node23</title>
<g id="a_node23"><a xlink:href="lexer__logical__and_8c.html" target="_top" xlink:title=" ">
<polygon fill="white" stroke="#666666" points="2029,-96 1909,-96 1909,-66 2029,-66 2029,-96"/>
<text text-anchor="start" x="1917" y="-84" font-family="Helvetica,sans-Serif" font-size="10.00">src/lexer/tokens/lexer</text>
<text text-anchor="middle" x="1969" y="-73" font-family="Helvetica,sans-Serif" font-size="10.00">_logical_and.c</text>
</a>
</g>
</g>
<!-- Node1&#45;&gt;Node23 -->
<g id="edge22" class="edge">
<title>Node1&#45;&gt;Node23</title>
<path fill="none" stroke="#63b8ff" d="M1918.01,-125.23C1928.63,-116.23 1941.98,-104.91 1952.35,-96.11"/>
<polygon fill="#63b8ff" stroke="#63b8ff" points="1915.55,-122.73 1910.18,-131.87 1920.07,-128.07 1915.55,-122.73"/>
</g>
<!-- Node24 -->
<g id="node24" class="node">
<title>Node24</title>
<g id="a_node24"><a xlink:href="lexer__logical__or_8c.html" target="_top" xlink:title=" ">
<polygon fill="white" stroke="#666666" points="2167,-96 2047,-96 2047,-66 2167,-66 2167,-96"/>
<text text-anchor="start" x="2055" y="-84" font-family="Helvetica,sans-Serif" font-size="10.00">src/lexer/tokens/lexer</text>
<text text-anchor="middle" x="2107" y="-73" font-family="Helvetica,sans-Serif" font-size="10.00">_logical_or.c</text>
</a>
</g>
</g>
<!-- Node1&#45;&gt;Node24 -->
<g id="edge23" class="edge">
<title>Node1&#45;&gt;Node24</title>
<path fill="none" stroke="#63b8ff" d="M1939.99,-129.2C1973.44,-119.75 2021.31,-106.22 2057.23,-96.06"/>
<polygon fill="#63b8ff" stroke="#63b8ff" points="1938.77,-125.91 1930.1,-131.99 1940.67,-132.64 1938.77,-125.91"/>
</g>
<!-- Node25 -->
<g id="node25" class="node">
<title>Node25</title>
<g id="a_node25"><a xlink:href="lexer__newline_8c.html" target="_top" xlink:title=" ">
<polygon fill="white" stroke="#666666" points="2305,-96 2185,-96 2185,-66 2305,-66 2305,-96"/>
<text text-anchor="start" x="2193" y="-84" font-family="Helvetica,sans-Serif" font-size="10.00">src/lexer/tokens/lexer</text>
<text text-anchor="middle" x="2245" y="-73" font-family="Helvetica,sans-Serif" font-size="10.00">_newline.c</text>
</a>
</g>
</g>
<!-- Node1&#45;&gt;Node25 -->
<g id="edge24" class="edge">
<title>Node1&#45;&gt;Node25</title>
<path fill="none" stroke="#63b8ff" d="M1953.59,-132.52C2009.28,-124.06 2098.91,-110.03 2176,-96 2178.89,-95.47 2181.84,-94.92 2184.82,-94.36"/>
<polygon fill="#63b8ff" stroke="#63b8ff" points="1952.96,-129.07 1943.59,-134.03 1954,-135.99 1952.96,-129.07"/>
</g>
<!-- Node26 -->
<g id="node26" class="node">
<title>Node26</title>
<g id="a_node26"><a xlink:href="lexer__parenthesis_8c.html" target="_top" xlink:title=" ">
<polygon fill="white" stroke="#666666" points="2443,-96 2323,-96 2323,-66 2443,-66 2443,-96"/>
<text text-anchor="start" x="2331" y="-84" font-family="Helvetica,sans-Serif" font-size="10.00">src/lexer/tokens/lexer</text>
<text text-anchor="middle" x="2383" y="-73" font-family="Helvetica,sans-Serif" font-size="10.00">_parenthesis.c</text>
</a>
</g>
</g>
<!-- Node1&#45;&gt;Node26 -->
<g id="edge25" class="edge">
<title>Node1&#45;&gt;Node26</title>
<path fill="none" stroke="#63b8ff" d="M1953.9,-136.32C2033.11,-129.81 2185.47,-115.9 2314,-96 2316.9,-95.55 2319.86,-95.06 2322.85,-94.55"/>
<polygon fill="#63b8ff" stroke="#63b8ff" points="1953.37,-132.85 1943.69,-137.15 1953.94,-139.83 1953.37,-132.85"/>
</g>
<!-- Node27 -->
<g id="node27" class="node">
<title>Node27</title>
<g id="a_node27"><a xlink:href="lexer__pipe_8c.html" target="_top" xlink:title=" ">
<polygon fill="white" stroke="#666666" points="2581,-96 2461,-96 2461,-66 2581,-66 2581,-96"/>
<text text-anchor="start" x="2469" y="-84" font-family="Helvetica,sans-Serif" font-size="10.00">src/lexer/tokens/lexer</text>
<text text-anchor="middle" x="2521" y="-73" font-family="Helvetica,sans-Serif" font-size="10.00">_pipe.c</text>
</a>
</g>
</g>
<!-- Node1&#45;&gt;Node27 -->
<g id="edge26" class="edge">
<title>Node1&#45;&gt;Node27</title>
<path fill="none" stroke="#63b8ff" d="M1953.91,-138.3C2052.96,-133.78 2270.41,-121.65 2452,-96 2454.9,-95.59 2457.87,-95.13 2460.86,-94.64"/>
<polygon fill="#63b8ff" stroke="#63b8ff" points="1953.68,-134.81 1943.85,-138.75 1953.99,-141.8 1953.68,-134.81"/>
</g>
<!-- Node28 -->
<g id="node28" class="node">
<title>Node28</title>
<g id="a_node28"><a xlink:href="lexer__redirect__append_8c.html" target="_top" xlink:title=" ">
<polygon fill="white" stroke="#666666" points="2719,-96 2599,-96 2599,-66 2719,-66 2719,-96"/>
<text text-anchor="start" x="2607" y="-84" font-family="Helvetica,sans-Serif" font-size="10.00">src/lexer/tokens/lexer</text>
<text text-anchor="middle" x="2659" y="-73" font-family="Helvetica,sans-Serif" font-size="10.00">_redirect_append.c</text>
</a>
</g>
</g>
<!-- Node1&#45;&gt;Node28 -->
<g id="edge27" class="edge">
<title>Node1&#45;&gt;Node28</title>
<path fill="none" stroke="#63b8ff" d="M1953.88,-139.51C2070.41,-136.83 2354.37,-127.36 2590,-96 2592.91,-95.61 2595.88,-95.18 2598.87,-94.7"/>
<polygon fill="#63b8ff" stroke="#63b8ff" points="1953.72,-136.01 1943.8,-139.74 1953.87,-143.01 1953.72,-136.01"/>
</g>
<!-- Node29 -->
<g id="node29" class="node">
<title>Node29</title>
<g id="a_node29"><a xlink:href="lexer__redirect__in_8c.html" target="_top" xlink:title=" ">
<polygon fill="white" stroke="#666666" points="2857,-96 2737,-96 2737,-66 2857,-66 2857,-96"/>
<text text-anchor="start" x="2745" y="-84" font-family="Helvetica,sans-Serif" font-size="10.00">src/lexer/tokens/lexer</text>
<text text-anchor="middle" x="2797" y="-73" font-family="Helvetica,sans-Serif" font-size="10.00">_redirect_in.c</text>
</a>
</g>
</g>
<!-- Node1&#45;&gt;Node29 -->
<g id="edge28" class="edge">
<title>Node1&#45;&gt;Node29</title>
<path fill="none" stroke="#63b8ff" d="M1954.02,-140.33C2086.47,-139.32 2437.77,-133.04 2728,-96 2730.91,-95.63 2733.88,-95.2 2736.88,-94.74"/>
<polygon fill="#63b8ff" stroke="#63b8ff" points="1953.72,-136.83 1943.74,-140.4 1953.77,-143.83 1953.72,-136.83"/>
</g>
<!-- Node30 -->
<g id="node30" class="node">
<title>Node30</title>
<g id="a_node30"><a xlink:href="lexer__redirect__out_8c.html" target="_top" xlink:title=" ">
<polygon fill="white" stroke="#666666" points="2995,-96 2875,-96 2875,-66 2995,-66 2995,-96"/>
<text text-anchor="start" x="2883" y="-84" font-family="Helvetica,sans-Serif" font-size="10.00">src/lexer/tokens/lexer</text>
<text text-anchor="middle" x="2935" y="-73" font-family="Helvetica,sans-Serif" font-size="10.00">_redirect_out.c</text>
</a>
</g>
</g>
<!-- Node1&#45;&gt;Node30 -->
<g id="edge29" class="edge">
<title>Node1&#45;&gt;Node30</title>
<path fill="none" stroke="#63b8ff" d="M1953.61,-140.92C2100.27,-141.45 2520.24,-138.78 2866,-96 2868.91,-95.64 2871.88,-95.22 2874.88,-94.77"/>
<polygon fill="#63b8ff" stroke="#63b8ff" points="1953.54,-137.42 1943.53,-140.88 1953.51,-144.42 1953.54,-137.42"/>
</g>
<!-- Node31 -->
<g id="node31" class="node">
<title>Node31</title>
<g id="a_node31"><a xlink:href="lexer__semicolon_8c.html" target="_top" xlink:title=" ">
<polygon fill="white" stroke="#666666" points="3133,-96 3013,-96 3013,-66 3133,-66 3133,-96"/>
<text text-anchor="start" x="3021" y="-84" font-family="Helvetica,sans-Serif" font-size="10.00">src/lexer/tokens/lexer</text>
<text text-anchor="middle" x="3073" y="-73" font-family="Helvetica,sans-Serif" font-size="10.00">_semicolon.c</text>
</a>
</g>
</g>
<!-- Node1&#45;&gt;Node31 -->
<g id="edge30" class="edge">
<title>Node1&#45;&gt;Node31</title>
<path fill="none" stroke="#63b8ff" d="M1953.68,-139.47C2145.55,-135.63 2797.02,-121.01 3004,-96 3006.91,-95.65 3009.89,-95.24 3012.88,-94.79"/>
<polygon fill="#63b8ff" stroke="#63b8ff" points="1953.49,-135.98 1943.56,-139.68 1953.62,-142.98 1953.49,-135.98"/>
</g>
<!-- Node32 -->
<g id="node32" class="node">
<title>Node32</title>
<g id="a_node32"><a xlink:href="lexer__word_8c.html" target="_top" xlink:title=" ">
<polygon fill="white" stroke="#666666" points="3271,-96 3151,-96 3151,-66 3271,-66 3271,-96"/>
<text text-anchor="start" x="3159" y="-84" font-family="Helvetica,sans-Serif" font-size="10.00">src/lexer/tokens/lexer</text>
<text text-anchor="middle" x="3211" y="-73" font-family="Helvetica,sans-Serif" font-size="10.00">_word.c</text>
</a>
</g>
</g>
<!-- Node1&#45;&gt;Node32 -->
<g id="edge31" class="edge">
<title>Node1&#45;&gt;Node32</title>
<path fill="none" stroke="#63b8ff" d="M1953.73,-139.75C2160.73,-136.68 2906.67,-123.9 3142,-96 3144.91,-95.65 3147.89,-95.25 3150.88,-94.8"/>
<polygon fill="#63b8ff" stroke="#63b8ff" points="1953.66,-136.25 1943.71,-139.9 1953.76,-143.25 1953.66,-136.25"/>
</g>
<!-- Node3 -->
<g id="node3" class="node">
<title>Node3</title>
<g id="a_node3"><a xlink:href="parser__destroy_8c.html" target="_top" xlink:title=" ">
<polygon fill="white" stroke="#666666" points="745.5,-24.5 598.5,-24.5 598.5,-5.5 745.5,-5.5 745.5,-24.5"/>
<text text-anchor="middle" x="672" y="-12.5" font-family="Helvetica,sans-Serif" font-size="10.00">src/parser/parser_destroy.c</text>
</a>
</g>
</g>
<!-- Node2&#45;&gt;Node3 -->
<g id="edge2" class="edge">
<title>Node2&#45;&gt;Node3</title>
<path fill="none" stroke="#63b8ff" d="M928.68,-69.34C868.11,-56.75 768.63,-36.08 712.97,-24.51"/>
<polygon fill="#63b8ff" stroke="#63b8ff" points="928.28,-72.83 938.78,-71.44 929.7,-65.97 928.28,-72.83"/>
</g>
<!-- Node2&#45;&gt;Node4 -->
<g id="edge3" class="edge">
<title>Node2&#45;&gt;Node4</title>
<path fill="none" stroke="#63b8ff" d="M922.5,-79.17C785.8,-76.63 430.85,-66.73 137,-30 125.99,-28.62 114.14,-26.59 103.25,-24.5"/>
<polygon fill="#63b8ff" stroke="#63b8ff" points="922.67,-82.67 932.73,-79.35 922.8,-75.67 922.67,-82.67"/>
</g>
<!-- Node2&#45;&gt;Node5 -->
<g id="edge4" class="edge">
<title>Node2&#45;&gt;Node5</title>
<path fill="none" stroke="#63b8ff" d="M922.6,-77.98C803.9,-73.34 522.94,-59.92 289,-30 277.82,-28.57 265.8,-26.57 254.68,-24.53"/>
<polygon fill="#63b8ff" stroke="#63b8ff" points="922.78,-81.49 932.9,-78.38 923.05,-74.5 922.78,-81.49"/>
</g>
<!-- Node6 -->
<g id="node6" class="node">
<title>Node6</title>
<g id="a_node6"><a xlink:href="parser__parse_8c.html" target="_top" xlink:title=" ">
<polygon fill="white" stroke="#666666" points="902.5,-24.5 763.5,-24.5 763.5,-5.5 902.5,-5.5 902.5,-24.5"/>
<text text-anchor="middle" x="833" y="-12.5" font-family="Helvetica,sans-Serif" font-size="10.00">src/parser/parser_parse.c</text>
</a>
</g>
</g>
<!-- Node2&#45;&gt;Node6 -->
<g id="edge5" class="edge">
<title>Node2&#45;&gt;Node6</title>
<path fill="none" stroke="#63b8ff" d="M950.96,-67.36C922,-54.75 878.26,-35.71 852.98,-24.7"/>
<polygon fill="#63b8ff" stroke="#63b8ff" points="949.61,-70.59 960.17,-71.37 952.4,-64.17 949.61,-70.59"/>
</g>
<!-- Node7 -->
<g id="node7" class="node">
<title>Node7</title>
<g id="a_node7"><a xlink:href="parser__set__error_8c.html" target="_top" xlink:title=" ">
<polygon fill="white" stroke="#666666" points="1039.5,-30 920.5,-30 920.5,0 1039.5,0 1039.5,-30"/>
<text text-anchor="start" x="928.5" y="-18" font-family="Helvetica,sans-Serif" font-size="10.00">src/parser/parser_set</text>
<text text-anchor="middle" x="980" y="-7" font-family="Helvetica,sans-Serif" font-size="10.00">_error.c</text>
</a>
</g>
</g>
<!-- Node2&#45;&gt;Node7 -->
<g id="edge6" class="edge">
<title>Node2&#45;&gt;Node7</title>
<path fill="none" stroke="#63b8ff" d="M980,-61.35C980,-51.47 980,-39.51 980,-30.36"/>
<polygon fill="#63b8ff" stroke="#63b8ff" points="976.5,-61.37 980,-71.37 983.5,-61.37 976.5,-61.37"/>
</g>
<!-- Node8 -->
<g id="node8" class="node">
<title>Node8</title>
<g id="a_node8"><a xlink:href="parser__utils_8c.html" target="_top" xlink:title=" ">
<polygon fill="white" stroke="#666666" points="1190.5,-24.5 1057.5,-24.5 1057.5,-5.5 1190.5,-5.5 1190.5,-24.5"/>
<text text-anchor="middle" x="1124" y="-12.5" font-family="Helvetica,sans-Serif" font-size="10.00">src/parser/parser_utils.c</text>
</a>
</g>
</g>
<!-- Node2&#45;&gt;Node8 -->
<g id="edge7" class="edge">
<title>Node2&#45;&gt;Node8</title>
<path fill="none" stroke="#63b8ff" d="M1008.81,-67.19C1037.19,-54.58 1079.77,-35.66 1104.43,-24.7"/>
<polygon fill="#63b8ff" stroke="#63b8ff" points="1007.14,-64.11 999.42,-71.37 1009.98,-70.51 1007.14,-64.11"/>
</g>
<!-- Node9 -->
<g id="node9" class="node">
<title>Node9</title>
<g id="a_node9"><a xlink:href="parse__command_8c.html" target="_top" xlink:title=" ">
<polygon fill="white" stroke="#666666" points="1339,-30 1209,-30 1209,0 1339,0 1339,-30"/>
<text text-anchor="start" x="1217" y="-18" font-family="Helvetica,sans-Serif" font-size="10.00">src/parser/tokens/parse</text>
<text text-anchor="middle" x="1274" y="-7" font-family="Helvetica,sans-Serif" font-size="10.00">_command.c</text>
</a>
</g>
</g>
<!-- Node2&#45;&gt;Node9 -->
<g id="edge8" class="edge">
<title>Node2&#45;&gt;Node9</title>
<path fill="none" stroke="#63b8ff" d="M1026.63,-69.23C1031.48,-68.13 1036.34,-67.03 1041,-66 1097.54,-53.45 1161.93,-39.67 1208.66,-29.76"/>
<polygon fill="#63b8ff" stroke="#63b8ff" points="1025.73,-65.84 1016.75,-71.48 1027.28,-72.67 1025.73,-65.84"/>
</g>
<!-- Node10 -->
<g id="node10" class="node">
<title>Node10</title>
<g id="a_node10"><a xlink:href="parse__logical__operator_8c.html" target="_top" xlink:title=" ">
<polygon fill="white" stroke="#666666" points="1487,-30 1357,-30 1357,0 1487,0 1487,-30"/>
<text text-anchor="start" x="1365" y="-18" font-family="Helvetica,sans-Serif" font-size="10.00">src/parser/tokens/parse</text>
<text text-anchor="middle" x="1422" y="-7" font-family="Helvetica,sans-Serif" font-size="10.00">_logical_operator.c</text>
</a>
</g>
</g>
<!-- Node2&#45;&gt;Node10 -->
<g id="edge9" class="edge">
<title>Node2&#45;&gt;Node10</title>
<path fill="none" stroke="#63b8ff" d="M1024.11,-69.28C1029.78,-68.08 1035.51,-66.95 1041,-66 1176.37,-42.6 1212.2,-50.78 1348,-30 1350.84,-29.56 1353.74,-29.1 1356.67,-28.62"/>
<polygon fill="#63b8ff" stroke="#63b8ff" points="1023.08,-65.92 1014.07,-71.49 1024.58,-72.76 1023.08,-65.92"/>
</g>
<!-- Node11 -->
<g id="node11" class="node">
<title>Node11</title>
<g id="a_node11"><a xlink:href="parse__repeat_8c.html" target="_top" xlink:title=" ">
<polygon fill="white" stroke="#666666" points="1635,-30 1505,-30 1505,0 1635,0 1635,-30"/>
<text text-anchor="start" x="1513" y="-18" font-family="Helvetica,sans-Serif" font-size="10.00">src/parser/tokens/parse</text>
<text text-anchor="middle" x="1570" y="-7" font-family="Helvetica,sans-Serif" font-size="10.00">_repeat.c</text>
</a>
</g>
</g>
<!-- Node2&#45;&gt;Node11 -->
<g id="edge10" class="edge">
<title>Node2&#45;&gt;Node11</title>
<path fill="none" stroke="#63b8ff" d="M1023.02,-69.3C1029.03,-68.05 1035.15,-66.9 1041,-66 1241.51,-35.23 1294.94,-56.89 1496,-30 1498.85,-29.62 1501.76,-29.2 1504.69,-28.75"/>
<polygon fill="#63b8ff" stroke="#63b8ff" points="1022.09,-65.92 1013.07,-71.48 1023.59,-72.76 1022.09,-65.92"/>
</g>
<!-- Node12 -->
<g id="node12" class="node">
<title>Node12</title>
<g id="a_node12"><a xlink:href="parse__sequence_8c.html" target="_top" xlink:title=" ">
<polygon fill="white" stroke="#666666" points="1783,-30 1653,-30 1653,0 1783,0 1783,-30"/>
<text text-anchor="start" x="1661" y="-18" font-family="Helvetica,sans-Serif" font-size="10.00">src/parser/tokens/parse</text>
<text text-anchor="middle" x="1718" y="-7" font-family="Helvetica,sans-Serif" font-size="10.00">_sequence.c</text>
</a>
</g>
</g>
<!-- Node2&#45;&gt;Node12 -->
<g id="edge11" class="edge">
<title>Node2&#45;&gt;Node12</title>
<path fill="none" stroke="#63b8ff" d="M1022.79,-69.24C1028.87,-67.98 1035.07,-66.85 1041,-66 1306.75,-27.84 1377.56,-63.02 1644,-30 1646.85,-29.65 1649.77,-29.25 1652.7,-28.82"/>
<polygon fill="#63b8ff" stroke="#63b8ff" points="1021.76,-65.88 1012.74,-71.44 1023.25,-72.72 1021.76,-65.88"/>
</g>
<!-- Node13 -->
<g id="node13" class="node">
<title>Node13</title>
<g id="a_node13"><a xlink:href="parse__sequence__start_8c.html" target="_top" xlink:title=" ">
<polygon fill="white" stroke="#666666" points="1931,-30 1801,-30 1801,0 1931,0 1931,-30"/>
<text text-anchor="start" x="1809" y="-18" font-family="Helvetica,sans-Serif" font-size="10.00">src/parser/tokens/parse</text>
<text text-anchor="middle" x="1866" y="-7" font-family="Helvetica,sans-Serif" font-size="10.00">_sequence_start.c</text>
</a>
</g>
</g>
<!-- Node2&#45;&gt;Node13 -->
<g id="edge12" class="edge">
<title>Node2&#45;&gt;Node13</title>
<path fill="none" stroke="#63b8ff" d="M1022.57,-69.22C1028.72,-67.96 1035,-66.83 1041,-66 1372.04,-20.45 1460.14,-69.15 1792,-30 1794.86,-29.66 1797.77,-29.28 1800.71,-28.86"/>
<polygon fill="#63b8ff" stroke="#63b8ff" points="1021.43,-65.88 1012.41,-71.44 1022.93,-72.72 1021.43,-65.88"/>
</g>
<!-- Node14 -->
<g id="node14" class="node">
<title>Node14</title>
<g id="a_node14"><a xlink:href="parse__subshell_8c.html" target="_top" xlink:title=" ">
<polygon fill="white" stroke="#666666" points="428,-30 298,-30 298,0 428,0 428,-30"/>
<text text-anchor="start" x="306" y="-18" font-family="Helvetica,sans-Serif" font-size="10.00">src/parser/tokens/parse</text>
<text text-anchor="middle" x="363" y="-7" font-family="Helvetica,sans-Serif" font-size="10.00">_subshell.c</text>
</a>
</g>
</g>
<!-- Node2&#45;&gt;Node14 -->
<g id="edge13" class="edge">
<title>Node2&#45;&gt;Node14</title>
<path fill="none" stroke="#63b8ff" d="M922.87,-76.53C823.69,-70.12 613.34,-54.74 437,-30 434.15,-29.6 431.25,-29.17 428.31,-28.71"/>
<polygon fill="#63b8ff" stroke="#63b8ff" points="922.77,-80.04 932.98,-77.18 923.22,-73.05 922.77,-80.04"/>
</g>
<!-- Node15 -->
<g id="node15" class="node">
<title>Node15</title>
<g id="a_node15"><a xlink:href="parser__globbing_8c.html" target="_top" xlink:title=" ">
<polygon fill="white" stroke="#666666" points="580,-30 446,-30 446,0 580,0 580,-30"/>
<text text-anchor="start" x="454" y="-18" font-family="Helvetica,sans-Serif" font-size="10.00">src/parser/tokens/parser</text>
<text text-anchor="middle" x="513" y="-7" font-family="Helvetica,sans-Serif" font-size="10.00">_globbing.c</text>
</a>
</g>
</g>
<!-- Node2&#45;&gt;Node15 -->
<g id="edge14" class="edge">
<title>Node2&#45;&gt;Node15</title>
<path fill="none" stroke="#63b8ff" d="M922.59,-73.66C846.24,-65 707.18,-48.43 589,-30 586.08,-29.55 583.11,-29.07 580.1,-28.57"/>
<polygon fill="#63b8ff" stroke="#63b8ff" points="922.61,-77.18 932.94,-74.83 923.39,-70.23 922.61,-77.18"/>
</g>
<!-- Node2&#45;&gt;Node16 -->
<g id="edge15" class="edge">
<title>Node2&#45;&gt;Node16</title>
<path fill="none" stroke="#63b8ff" d="M1021.9,-69.31C1028.26,-68 1034.78,-66.83 1041,-66 1437.35,-13.05 1546.65,-101.94 1940,-30 1946.65,-28.78 1953.7,-26.75 1960.07,-24.6"/>
<polygon fill="#63b8ff" stroke="#63b8ff" points="1021.11,-65.9 1012.09,-71.46 1022.6,-72.74 1021.11,-65.9"/>
</g>
</g>
</svg>
