<?xml version="1.0" encoding="UTF-8" standalone="no"?>
<!DOCTYPE svg PUBLIC "-//W3C//DTD SVG 1.1//EN"
 "http://www.w3.org/Graphics/SVG/1.1/DTD/svg11.dtd">
<!-- Generated by graphviz version 2.43.0 (0)
 -->
<!-- Title: include/lexer.h Pages: 1 -->
<svg width="246pt" height="192pt"
 viewBox="0.00 0.00 245.50 192.00" xmlns="http://www.w3.org/2000/svg" xmlns:xlink="http://www.w3.org/1999/xlink">
<g id="graph0" class="graph" transform="scale(1 1) rotate(0) translate(4 188)">
<title>include/lexer.h</title>
<!-- Node1 -->
<g id="node1" class="node">
<title>Node1</title>
<g id="a_node1"><a xlink:title=" ">
<polygon fill="#999999" stroke="#666666" points="145.5,-184 58.5,-184 58.5,-165 145.5,-165 145.5,-184"/>
<text text-anchor="middle" x="102" y="-172" font-family="Helvetica,sans-Serif" font-size="10.00">include/lexer.h</text>
</a>
</g>
</g>
<!-- Node2 -->
<g id="node2" class="node">
<title>Node2</title>
<g id="a_node2"><a xlink:title=" ">
<polygon fill="#e0e0e0" stroke="#999999" points="56,-19 0,-19 0,0 56,0 56,-19"/>
<text text-anchor="middle" x="28" y="-7" font-family="Helvetica,sans-Serif" font-size="10.00">stddef.h</text>
</a>
</g>
</g>
<!-- Node1&#45;&gt;Node2 -->
<g id="edge1" class="edge">
<title>Node1&#45;&gt;Node2</title>
<path fill="none" stroke="#63b8ff" d="M68.6,-164.98C50.22,-158.4 28.98,-147.24 18,-129 -0.83,-97.72 11.13,-53.11 20.32,-28.51"/>
<polygon fill="#63b8ff" stroke="#63b8ff" points="23.66,-29.6 24.11,-19.02 17.15,-27.01 23.66,-29.6"/>
</g>
<!-- Node3 -->
<g id="node3" class="node">
<title>Node3</title>
<g id="a_node3"><a xlink:title=" ">
<polygon fill="#e0e0e0" stroke="#999999" points="99,-129 27,-129 27,-110 99,-110 99,-129"/>
<text text-anchor="middle" x="63" y="-117" font-family="Helvetica,sans-Serif" font-size="10.00">sys/types.h</text>
</a>
</g>
</g>
<!-- Node1&#45;&gt;Node3 -->
<g id="edge2" class="edge">
<title>Node1&#45;&gt;Node3</title>
<path fill="none" stroke="#63b8ff" d="M95.56,-164.75C90.11,-157.34 82.14,-146.5 75.44,-137.41"/>
<polygon fill="#63b8ff" stroke="#63b8ff" points="78.07,-135.07 69.32,-129.09 72.43,-139.22 78.07,-135.07"/>
</g>
<!-- Node4 -->
<g id="node4" class="node">
<title>Node4</title>
<g id="a_node4"><a xlink:href="shell_8h.html" target="_top" xlink:title=" ">
<polygon fill="white" stroke="#666666" points="166.5,-129 117.5,-129 117.5,-110 166.5,-110 166.5,-129"/>
<text text-anchor="middle" x="142" y="-117" font-family="Helvetica,sans-Serif" font-size="10.00">shell.h</text>
</a>
</g>
</g>
<!-- Node1&#45;&gt;Node4 -->
<g id="edge3" class="edge">
<title>Node1&#45;&gt;Node4</title>
<path fill="none" stroke="#63b8ff" d="M108.61,-164.75C114.26,-157.26 122.54,-146.28 129.45,-137.13"/>
<polygon fill="#63b8ff" stroke="#63b8ff" points="132.29,-139.18 135.52,-129.09 126.7,-134.96 132.29,-139.18"/>
</g>
<!-- Node6 -->
<g id="node6" class="node">
<title>Node6</title>
<g id="a_node6"><a xlink:href="token_8h.html" target="_top" xlink:title=" ">
<polygon fill="white" stroke="#666666" points="237.5,-129 184.5,-129 184.5,-110 237.5,-110 237.5,-129"/>
<text text-anchor="middle" x="211" y="-117" font-family="Helvetica,sans-Serif" font-size="10.00">token.h</text>
</a>
</g>
</g>
<!-- Node1&#45;&gt;Node6 -->
<g id="edge6" class="edge">
<title>Node1&#45;&gt;Node6</title>
<path fill="none" stroke="#63b8ff" d="M119.51,-164.98C136.97,-156.5 164.01,-143.35 184.17,-133.54"/>
<polygon fill="#63b8ff" stroke="#63b8ff" points="185.71,-136.69 193.17,-129.17 182.64,-130.4 185.71,-136.69"/>
</g>
<!-- Node5 -->
<g id="node5" class="node">
<title>Node5</title>
<g id="a_node5"><a xlink:href="list_8h.html" target="_top" xlink:title=" ">
<polygon fill="white" stroke="#666666" points="128.5,-74 69.5,-74 69.5,-55 128.5,-55 128.5,-74"/>
<text text-anchor="middle" x="99" y="-62" font-family="Helvetica,sans-Serif" font-size="10.00">my/list.h</text>
</a>
</g>
</g>
<!-- Node4&#45;&gt;Node5 -->
<g id="edge4" class="edge">
<title>Node4&#45;&gt;Node5</title>
<path fill="none" stroke="#63b8ff" d="M134.9,-109.75C128.83,-102.26 119.91,-91.28 112.49,-82.13"/>
<polygon fill="#63b8ff" stroke="#63b8ff" points="114.99,-79.65 105.97,-74.09 109.55,-84.06 114.99,-79.65"/>
</g>
<!-- Node5&#45;&gt;Node2 -->
<g id="edge5" class="edge">
<title>Node5&#45;&gt;Node2</title>
<path fill="none" stroke="#63b8ff" d="M87.59,-54.98C76.89,-47 60.66,-34.88 47.84,-25.31"/>
<polygon fill="#63b8ff" stroke="#63b8ff" points="49.72,-22.35 39.61,-19.17 45.53,-27.96 49.72,-22.35"/>
</g>
</g>
</svg>
