<?xml version="1.0" encoding="UTF-8" standalone="no"?>
<!DOCTYPE svg PUBLIC "-//W3C//DTD SVG 1.1//EN"
 "http://www.w3.org/Graphics/SVG/1.1/DTD/svg11.dtd">
<!-- Generated by graphviz version 2.43.0 (0)
 -->
<!-- Title: include/lexer.h Pages: 1 -->
<!--zoomable 159 -->
<svg id="main" version="1.1" xmlns="http://www.w3.org/2000/svg" xmlns:xlink="http://www.w3.org/1999/xlink" xml:space="preserve" onload="init(evt)">
<style type="text/css"><![CDATA[
.edge:hover path { stroke: red; }
.edge:hover polygon { stroke: red; fill: red; }
]]></style>
<script type="text/javascript"><![CDATA[
var edges = document.getElementsByTagName('g');
if (edges && edges.length) {
  for (var i=0;i<edges.length;i++) {
    if (edges[i].id.substr(0,4)=='edge') {
      edges[i].setAttribute('class','edge');
    }
  }
}
]]></script>
        <defs>
                <circle id="rim" cx="0" cy="0" r="7"/>
                <circle id="rim2" cx="0" cy="0" r="3.5"/>
                <g id="zoomPlus">
                        <use xlink:href="#rim" fill="#404040">
                                <set attributeName="fill" to="#808080" begin="zoomplus.mouseover" end="zoomplus.mouseout"/>
                        </use>
                        <path d="M-4,0h8M0,-4v8" fill="none" stroke="white" stroke-width="1.5" pointer-events="none"/>
                </g>
                <g id="zoomMin">
                        <use xlink:href="#rim" fill="#404040">
                                <set attributeName="fill" to="#808080" begin="zoomminus.mouseover" end="zoomminus.mouseout"/>
                        </use>
                        <path d="M-4,0h8" fill="none" stroke="white" stroke-width="1.5" pointer-events="none"/>
                </g>
                <g id="dirArrow">
                        <path fill="none" stroke="white" stroke-width="1.5" d="M0,-3.0v7 M-2.5,-0.5L0,-3.0L2.5,-0.5"/>
                </g>
               <g id="resetDef">
                       <use xlink:href="#rim2" fill="#404040">
                               <set attributeName="fill" to="#808080" begin="reset.mouseover" end="reset.mouseout"/>
                       </use>
               </g>
        </defs>

<script type="text/javascript">
var viewWidth = 3583;
var viewHeight = 159;
var sectionId = 'dynsection-1';
</script>
<script xlink:href="svgpan.js"/>
<svg id="graph" class="graph">
<g id="viewport">
<title>include/lexer.h</title>
<!-- Node1 -->
<g id="node1" class="node">
<title>Node1</title>
<g id="a_node1"><a xlink:title=" ">
<polygon fill="#999999" stroke="#666666" points="2109.5,-151 2022.5,-151 2022.5,-132 2109.5,-132 2109.5,-151"/>
<text text-anchor="middle" x="2066" y="-139" font-family="Helvetica,sans-Serif" font-size="10.00">include/lexer.h</text>
</a>
</g>
</g>
<!-- Node2 -->
<g id="node2" class="node">
<title>Node2</title>
<g id="a_node2"><a xlink:href="parser_8h.html" target="_top" xlink:title=" ">
<polygon fill="white" stroke="#666666" points="1027,-90.5 933,-90.5 933,-71.5 1027,-71.5 1027,-90.5"/>
<text text-anchor="middle" x="980" y="-78.5" font-family="Helvetica,sans-Serif" font-size="10.00">include/parser.h</text>
</a>
</g>
</g>
<!-- Node1&#45;&gt;Node2 -->
<g id="edge1" class="edge">
<title>Node1&#45;&gt;Node2</title>
<path fill="none" stroke="#63b8ff" d="M2012.23,-139.46C1829.23,-135.72 1231.46,-121.77 1041,-96 1031.52,-94.72 1021.36,-92.66 1012.09,-90.52"/>
<polygon fill="#63b8ff" stroke="#63b8ff" points="2012.34,-142.96 2022.41,-139.67 2012.48,-135.96 2012.34,-142.96"/>
</g>
<!-- Node4 -->
<g id="node4" class="node">
<title>Node4</title>
<g id="a_node4"><a xlink:href="parser__init_8c.html" target="_top" xlink:title=" ">
<polygon fill="white" stroke="#666666" points="128,-24.5 0,-24.5 0,-5.5 128,-5.5 128,-24.5"/>
<text text-anchor="middle" x="64" y="-12.5" font-family="Helvetica,sans-Serif" font-size="10.00">src/parser/parser_init.c</text>
</a>
</g>
</g>
<!-- Node1&#45;&gt;Node4 -->
<g id="edge34" class="edge">
<title>Node1&#45;&gt;Node4</title>
<path fill="none" stroke="#63b8ff" d="M2012.08,-139.81C1778.23,-136.7 850.51,-122.85 560,-96 389.77,-80.27 189.46,-41.73 104.91,-24.53"/>
<polygon fill="#63b8ff" stroke="#63b8ff" points="2012.32,-143.32 2022.37,-139.95 2012.41,-136.32 2012.32,-143.32"/>
</g>
<!-- Node5 -->
<g id="node5" class="node">
<title>Node5</title>
<g id="a_node5"><a xlink:href="parser__next_8c.html" target="_top" xlink:title=" ">
<polygon fill="white" stroke="#666666" points="280,-24.5 146,-24.5 146,-5.5 280,-5.5 280,-24.5"/>
<text text-anchor="middle" x="213" y="-12.5" font-family="Helvetica,sans-Serif" font-size="10.00">src/parser/parser_next.c</text>
</a>
</g>
</g>
<!-- Node1&#45;&gt;Node5 -->
<g id="edge35" class="edge">
<title>Node1&#45;&gt;Node5</title>
<path fill="none" stroke="#63b8ff" d="M2012.09,-139.64C1848.33,-136.75 1342.3,-125.86 924,-96 640.98,-75.8 569.85,-70.4 289,-30 278.24,-28.45 266.69,-26.48 255.91,-24.51"/>
<polygon fill="#63b8ff" stroke="#63b8ff" points="2012.32,-143.14 2022.38,-139.82 2012.44,-136.14 2012.32,-143.14"/>
</g>
<!-- Node16 -->
<g id="node16" class="node">
<title>Node16</title>
<g id="a_node16"><a xlink:href="shell_8c.html" target="_top" xlink:title=" ">
<polygon fill="white" stroke="#666666" points="2014.5,-24.5 1949.5,-24.5 1949.5,-5.5 2014.5,-5.5 2014.5,-24.5"/>
<text text-anchor="middle" x="1982" y="-12.5" font-family="Helvetica,sans-Serif" font-size="10.00">src/shell.c</text>
</a>
</g>
</g>
<!-- Node1&#45;&gt;Node16 -->
<g id="edge36" class="edge">
<title>Node1&#45;&gt;Node16</title>
<path fill="none" stroke="#63b8ff" d="M2012.39,-140.12C1810.61,-138.44 1106.64,-130.14 1074,-96 1064.79,-86.36 1064.77,-75.62 1074,-66 1107.33,-31.25 1892.64,-38.7 1940,-30 1946.65,-28.78 1953.69,-26.74 1960.07,-24.6"/>
<polygon fill="#63b8ff" stroke="#63b8ff" points="2012.43,-143.62 2022.45,-140.2 2012.48,-136.62 2012.43,-143.62"/>
</g>
<!-- Node17 -->
<g id="node17" class="node">
<title>Node17</title>
<g id="a_node17"><a xlink:href="lexer__expand__alias_8c.html" target="_top" xlink:title=" ">
<polygon fill="white" stroke="#666666" points="1209,-96 1083,-96 1083,-66 1209,-66 1209,-96"/>
<text text-anchor="start" x="1091" y="-84" font-family="Helvetica,sans-Serif" font-size="10.00">src/lexer/lexer_expand</text>
<text text-anchor="middle" x="1146" y="-73" font-family="Helvetica,sans-Serif" font-size="10.00">_alias.c</text>
</a>
</g>
</g>
<!-- Node1&#45;&gt;Node17 -->
<g id="edge16" class="edge">
<title>Node1&#45;&gt;Node17</title>
<path fill="none" stroke="#63b8ff" d="M2012.07,-140.28C1877.53,-139.15 1516.41,-132.66 1218,-96 1215.09,-95.64 1212.13,-95.24 1209.14,-94.79"/>
<polygon fill="#63b8ff" stroke="#63b8ff" points="2012.1,-143.78 2022.12,-140.35 2012.15,-136.78 2012.1,-143.78"/>
</g>
<!-- Node18 -->
<g id="node18" class="node">
<title>Node18</title>
<g id="a_node18"><a xlink:href="lexer__expand__command__substitution_8c.html" target="_top" xlink:title=" ">
<polygon fill="white" stroke="#666666" points="1369,-96 1227,-96 1227,-66 1369,-66 1369,-96"/>
<text text-anchor="start" x="1235" y="-84" font-family="Helvetica,sans-Serif" font-size="10.00">src/lexer/lexer_expand</text>
<text text-anchor="middle" x="1298" y="-73" font-family="Helvetica,sans-Serif" font-size="10.00">_command_substitution.c</text>
</a>
</g>
</g>
<!-- Node1&#45;&gt;Node18 -->
<g id="edge17" class="edge">
<title>Node1&#45;&gt;Node18</title>
<path fill="none" stroke="#63b8ff" d="M2012.33,-139.01C1896.26,-135.36 1613.35,-124.12 1378,-96 1375.06,-95.65 1372.06,-95.26 1369.04,-94.84"/>
<polygon fill="#63b8ff" stroke="#63b8ff" points="2012.28,-142.51 2022.38,-139.32 2012.5,-135.52 2012.28,-142.51"/>
</g>
<!-- Node19 -->
<g id="node19" class="node">
<title>Node19</title>
<g id="a_node19"><a xlink:href="lexer__expand__tilde_8c.html" target="_top" xlink:title=" ">
<polygon fill="white" stroke="#666666" points="1513,-96 1387,-96 1387,-66 1513,-66 1513,-96"/>
<text text-anchor="start" x="1395" y="-84" font-family="Helvetica,sans-Serif" font-size="10.00">src/lexer/lexer_expand</text>
<text text-anchor="middle" x="1450" y="-73" font-family="Helvetica,sans-Serif" font-size="10.00">_tilde.c</text>
</a>
</g>
</g>
<!-- Node1&#45;&gt;Node19 -->
<g id="edge18" class="edge">
<title>Node1&#45;&gt;Node19</title>
<path fill="none" stroke="#63b8ff" d="M2012.22,-138.07C1914.33,-133.22 1700.66,-120.6 1522,-96 1519.1,-95.6 1516.14,-95.16 1513.15,-94.69"/>
<polygon fill="#63b8ff" stroke="#63b8ff" points="2012.3,-141.58 2022.45,-138.57 2012.64,-134.59 2012.3,-141.58"/>
</g>
<!-- Node20 -->
<g id="node20" class="node">
<title>Node20</title>
<g id="a_node20"><a xlink:href="lexer__expand__variable_8c.html" target="_top" xlink:title=" ">
<polygon fill="white" stroke="#666666" points="1657,-96 1531,-96 1531,-66 1657,-66 1657,-96"/>
<text text-anchor="start" x="1539" y="-84" font-family="Helvetica,sans-Serif" font-size="10.00">src/lexer/lexer_expand</text>
<text text-anchor="middle" x="1594" y="-73" font-family="Helvetica,sans-Serif" font-size="10.00">_variable.c</text>
</a>
</g>
</g>
<!-- Node1&#45;&gt;Node20 -->
<g id="edge19" class="edge">
<title>Node1&#45;&gt;Node20</title>
<path fill="none" stroke="#63b8ff" d="M2011.94,-135.89C1934.9,-129 1789.2,-114.8 1666,-96 1663.1,-95.56 1660.15,-95.08 1657.17,-94.58"/>
<polygon fill="#63b8ff" stroke="#63b8ff" points="2012.07,-139.42 2022.34,-136.81 2012.69,-132.44 2012.07,-139.42"/>
</g>
<!-- Node21 -->
<g id="node21" class="node">
<title>Node21</title>
<g id="a_node21"><a xlink:href="lexer__init_8c.html" target="_top" xlink:title=" ">
<polygon fill="white" stroke="#666666" points="1789,-90.5 1675,-90.5 1675,-71.5 1789,-71.5 1789,-90.5"/>
<text text-anchor="middle" x="1732" y="-78.5" font-family="Helvetica,sans-Serif" font-size="10.00">src/lexer/lexer_init.c</text>
</a>
</g>
</g>
<!-- Node1&#45;&gt;Node21 -->
<g id="edge20" class="edge">
<title>Node1&#45;&gt;Node21</title>
<path fill="none" stroke="#63b8ff" d="M2012.19,-132.29C1957.99,-123.84 1872.02,-109.99 1798,-96 1789.14,-94.33 1779.64,-92.39 1770.68,-90.51"/>
<polygon fill="#63b8ff" stroke="#63b8ff" points="2011.84,-135.77 2022.26,-133.85 2012.92,-128.86 2011.84,-135.77"/>
</g>
<!-- Node22 -->
<g id="node22" class="node">
<title>Node22</title>
<g id="a_node22"><a xlink:href="lexer__next__token_8c.html" target="_top" xlink:title=" ">
<polygon fill="white" stroke="#666666" points="1919,-96 1807,-96 1807,-66 1919,-66 1919,-96"/>
<text text-anchor="start" x="1815" y="-84" font-family="Helvetica,sans-Serif" font-size="10.00">src/lexer/lexer_next</text>
<text text-anchor="middle" x="1863" y="-73" font-family="Helvetica,sans-Serif" font-size="10.00">_token.c</text>
</a>
</g>
</g>
<!-- Node1&#45;&gt;Node22 -->
<g id="edge21" class="edge">
<title>Node1&#45;&gt;Node22</title>
<path fill="none" stroke="#63b8ff" d="M2026.79,-129.2C1993.98,-119.75 1947.03,-106.22 1911.8,-96.06"/>
<polygon fill="#63b8ff" stroke="#63b8ff" points="2025.9,-132.59 2036.48,-131.99 2027.84,-125.86 2025.9,-132.59"/>
</g>
<!-- Node23 -->
<g id="node23" class="node">
<title>Node23</title>
<g id="a_node23"><a xlink:href="lexer__utils_8c.html" target="_top" xlink:title=" ">
<polygon fill="white" stroke="#666666" points="2056.5,-90.5 1937.5,-90.5 1937.5,-71.5 2056.5,-71.5 2056.5,-90.5"/>
<text text-anchor="middle" x="1997" y="-78.5" font-family="Helvetica,sans-Serif" font-size="10.00">src/lexer/lexer_utils.c</text>
</a>
</g>
</g>
<!-- Node1&#45;&gt;Node23 -->
<g id="edge22" class="edge">
<title>Node1&#45;&gt;Node23</title>
<path fill="none" stroke="#63b8ff" d="M2047.98,-125.22C2035,-114.21 2017.94,-99.75 2007.22,-90.67"/>
<polygon fill="#63b8ff" stroke="#63b8ff" points="2045.93,-128.07 2055.82,-131.87 2050.45,-122.73 2045.93,-128.07"/>
</g>
<!-- Node24 -->
<g id="node24" class="node">
<title>Node24</title>
<g id="a_node24"><a xlink:href="lexer__heredoc_8c.html" target="_top" xlink:title=" ">
<polygon fill="white" stroke="#666666" points="2195,-96 2075,-96 2075,-66 2195,-66 2195,-96"/>
<text text-anchor="start" x="2083" y="-84" font-family="Helvetica,sans-Serif" font-size="10.00">src/lexer/tokens/lexer</text>
<text text-anchor="middle" x="2135" y="-73" font-family="Helvetica,sans-Serif" font-size="10.00">_heredoc.c</text>
</a>
</g>
</g>
<!-- Node1&#45;&gt;Node24 -->
<g id="edge23" class="edge">
<title>Node1&#45;&gt;Node24</title>
<path fill="none" stroke="#63b8ff" d="M2084.01,-125.23C2094.63,-116.23 2107.98,-104.91 2118.35,-96.11"/>
<polygon fill="#63b8ff" stroke="#63b8ff" points="2081.55,-122.73 2076.18,-131.87 2086.07,-128.07 2081.55,-122.73"/>
</g>
<!-- Node25 -->
<g id="node25" class="node">
<title>Node25</title>
<g id="a_node25"><a xlink:href="lexer__logical__and_8c.html" target="_top" xlink:title=" ">
<polygon fill="white" stroke="#666666" points="2333,-96 2213,-96 2213,-66 2333,-66 2333,-96"/>
<text text-anchor="start" x="2221" y="-84" font-family="Helvetica,sans-Serif" font-size="10.00">src/lexer/tokens/lexer</text>
<text text-anchor="middle" x="2273" y="-73" font-family="Helvetica,sans-Serif" font-size="10.00">_logical_and.c</text>
</a>
</g>
</g>
<!-- Node1&#45;&gt;Node25 -->
<g id="edge24" class="edge">
<title>Node1&#45;&gt;Node25</title>
<path fill="none" stroke="#63b8ff" d="M2105.99,-129.2C2139.44,-119.75 2187.31,-106.22 2223.23,-96.06"/>
<polygon fill="#63b8ff" stroke="#63b8ff" points="2104.77,-125.91 2096.1,-131.99 2106.67,-132.64 2104.77,-125.91"/>
</g>
<!-- Node26 -->
<g id="node26" class="node">
<title>Node26</title>
<g id="a_node26"><a xlink:href="lexer__logical__or_8c.html" target="_top" xlink:title=" ">
<polygon fill="white" stroke="#666666" points="2471,-96 2351,-96 2351,-66 2471,-66 2471,-96"/>
<text text-anchor="start" x="2359" y="-84" font-family="Helvetica,sans-Serif" font-size="10.00">src/lexer/tokens/lexer</text>
<text text-anchor="middle" x="2411" y="-73" font-family="Helvetica,sans-Serif" font-size="10.00">_logical_or.c</text>
</a>
</g>
</g>
<!-- Node1&#45;&gt;Node26 -->
<g id="edge25" class="edge">
<title>Node1&#45;&gt;Node26</title>
<path fill="none" stroke="#63b8ff" d="M2119.59,-132.52C2175.28,-124.06 2264.91,-110.03 2342,-96 2344.89,-95.47 2347.84,-94.92 2350.82,-94.36"/>
<polygon fill="#63b8ff" stroke="#63b8ff" points="2118.96,-129.07 2109.59,-134.03 2120,-135.99 2118.96,-129.07"/>
</g>
<!-- Node27 -->
<g id="node27" class="node">
<title>Node27</title>
<g id="a_node27"><a xlink:href="lexer__newline_8c.html" target="_top" xlink:title=" ">
<polygon fill="white" stroke="#666666" points="2609,-96 2489,-96 2489,-66 2609,-66 2609,-96"/>
<text text-anchor="start" x="2497" y="-84" font-family="Helvetica,sans-Serif" font-size="10.00">src/lexer/tokens/lexer</text>
<text text-anchor="middle" x="2549" y="-73" font-family="Helvetica,sans-Serif" font-size="10.00">_newline.c</text>
</a>
</g>
</g>
<!-- Node1&#45;&gt;Node27 -->
<g id="edge26" class="edge">
<title>Node1&#45;&gt;Node27</title>
<path fill="none" stroke="#63b8ff" d="M2119.9,-136.32C2199.11,-129.81 2351.47,-115.9 2480,-96 2482.9,-95.55 2485.86,-95.06 2488.85,-94.55"/>
<polygon fill="#63b8ff" stroke="#63b8ff" points="2119.37,-132.85 2109.69,-137.15 2119.94,-139.83 2119.37,-132.85"/>
</g>
<!-- Node28 -->
<g id="node28" class="node">
<title>Node28</title>
<g id="a_node28"><a xlink:href="lexer__parenthesis_8c.html" target="_top" xlink:title=" ">
<polygon fill="white" stroke="#666666" points="2747,-96 2627,-96 2627,-66 2747,-66 2747,-96"/>
<text text-anchor="start" x="2635" y="-84" font-family="Helvetica,sans-Serif" font-size="10.00">src/lexer/tokens/lexer</text>
<text text-anchor="middle" x="2687" y="-73" font-family="Helvetica,sans-Serif" font-size="10.00">_parenthesis.c</text>
</a>
</g>
</g>
<!-- Node1&#45;&gt;Node28 -->
<g id="edge27" class="edge">
<title>Node1&#45;&gt;Node28</title>
<path fill="none" stroke="#63b8ff" d="M2119.91,-138.3C2218.96,-133.78 2436.41,-121.65 2618,-96 2620.9,-95.59 2623.87,-95.13 2626.86,-94.64"/>
<polygon fill="#63b8ff" stroke="#63b8ff" points="2119.68,-134.81 2109.85,-138.75 2119.99,-141.8 2119.68,-134.81"/>
</g>
<!-- Node29 -->
<g id="node29" class="node">
<title>Node29</title>
<g id="a_node29"><a xlink:href="lexer__pipe_8c.html" target="_top" xlink:title=" ">
<polygon fill="white" stroke="#666666" points="2885,-96 2765,-96 2765,-66 2885,-66 2885,-96"/>
<text text-anchor="start" x="2773" y="-84" font-family="Helvetica,sans-Serif" font-size="10.00">src/lexer/tokens/lexer</text>
<text text-anchor="middle" x="2825" y="-73" font-family="Helvetica,sans-Serif" font-size="10.00">_pipe.c</text>
</a>
</g>
</g>
<!-- Node1&#45;&gt;Node29 -->
<g id="edge28" class="edge">
<title>Node1&#45;&gt;Node29</title>
<path fill="none" stroke="#63b8ff" d="M2119.88,-139.51C2236.41,-136.83 2520.37,-127.36 2756,-96 2758.91,-95.61 2761.88,-95.18 2764.87,-94.7"/>
<polygon fill="#63b8ff" stroke="#63b8ff" points="2119.72,-136.01 2109.8,-139.74 2119.87,-143.01 2119.72,-136.01"/>
</g>
<!-- Node30 -->
<g id="node30" class="node">
<title>Node30</title>
<g id="a_node30"><a xlink:href="lexer__redirect__append_8c.html" target="_top" xlink:title=" ">
<polygon fill="white" stroke="#666666" points="3023,-96 2903,-96 2903,-66 3023,-66 3023,-96"/>
<text text-anchor="start" x="2911" y="-84" font-family="Helvetica,sans-Serif" font-size="10.00">src/lexer/tokens/lexer</text>
<text text-anchor="middle" x="2963" y="-73" font-family="Helvetica,sans-Serif" font-size="10.00">_redirect_append.c</text>
</a>
</g>
</g>
<!-- Node1&#45;&gt;Node30 -->
<g id="edge29" class="edge">
<title>Node1&#45;&gt;Node30</title>
<path fill="none" stroke="#63b8ff" d="M2120.02,-140.33C2252.47,-139.32 2603.77,-133.04 2894,-96 2896.91,-95.63 2899.88,-95.2 2902.88,-94.74"/>
<polygon fill="#63b8ff" stroke="#63b8ff" points="2119.72,-136.83 2109.74,-140.4 2119.77,-143.83 2119.72,-136.83"/>
</g>
<!-- Node31 -->
<g id="node31" class="node">
<title>Node31</title>
<g id="a_node31"><a xlink:href="lexer__redirect__in_8c.html" target="_top" xlink:title=" ">
<polygon fill="white" stroke="#666666" points="3161,-96 3041,-96 3041,-66 3161,-66 3161,-96"/>
<text text-anchor="start" x="3049" y="-84" font-family="Helvetica,sans-Serif" font-size="10.00">src/lexer/tokens/lexer</text>
<text text-anchor="middle" x="3101" y="-73" font-family="Helvetica,sans-Serif" font-size="10.00">_redirect_in.c</text>
</a>
</g>
</g>
<!-- Node1&#45;&gt;Node31 -->
<g id="edge30" class="edge">
<title>Node1&#45;&gt;Node31</title>
<path fill="none" stroke="#63b8ff" d="M2119.61,-140.92C2266.27,-141.45 2686.24,-138.78 3032,-96 3034.91,-95.64 3037.88,-95.22 3040.88,-94.77"/>
<polygon fill="#63b8ff" stroke="#63b8ff" points="2119.54,-137.42 2109.53,-140.88 2119.51,-144.42 2119.54,-137.42"/>
</g>
<!-- Node32 -->
<g id="node32" class="node">
<title>Node32</title>
<g id="a_node32"><a xlink:href="lexer__redirect__out_8c.html" target="_top" xlink:title=" ">
<polygon fill="white" stroke="#666666" points="3299,-96 3179,-96 3179,-66 3299,-66 3299,-96"/>
<text text-anchor="start" x="3187" y="-84" font-family="Helvetica,sans-Serif" font-size="10.00">src/lexer/tokens/lexer</text>
<text text-anchor="middle" x="3239" y="-73" font-family="Helvetica,sans-Serif" font-size="10.00">_redirect_out.c</text>
</a>
</g>
</g>
<!-- Node1&#45;&gt;Node32 -->
<g id="edge31" class="edge">
<title>Node1&#45;&gt;Node32</title>
<path fill="none" stroke="#63b8ff" d="M2119.68,-139.47C2311.55,-135.63 2963.02,-121.01 3170,-96 3172.91,-95.65 3175.89,-95.24 3178.88,-94.79"/>
<polygon fill="#63b8ff" stroke="#63b8ff" points="2119.49,-135.98 2109.56,-139.68 2119.62,-142.98 2119.49,-135.98"/>
</g>
<!-- Node33 -->
<g id="node33" class="node">
<title>Node33</title>
<g id="a_node33"><a xlink:href="lexer__semicolon_8c.html" target="_top" xlink:title=" ">
<polygon fill="white" stroke="#666666" points="3437,-96 3317,-96 3317,-66 3437,-66 3437,-96"/>
<text text-anchor="start" x="3325" y="-84" font-family="Helvetica,sans-Serif" font-size="10.00">src/lexer/tokens/lexer</text>
<text text-anchor="middle" x="3377" y="-73" font-family="Helvetica,sans-Serif" font-size="10.00">_semicolon.c</text>
</a>
</g>
</g>
<!-- Node1&#45;&gt;Node33 -->
<g id="edge32" class="edge">
<title>Node1&#45;&gt;Node33</title>
<path fill="none" stroke="#63b8ff" d="M2119.73,-139.75C2326.73,-136.68 3072.67,-123.9 3308,-96 3310.91,-95.65 3313.89,-95.25 3316.88,-94.8"/>
<polygon fill="#63b8ff" stroke="#63b8ff" points="2119.66,-136.25 2109.71,-139.9 2119.76,-143.25 2119.66,-136.25"/>
</g>
<!-- Node34 -->
<g id="node34" class="node">
<title>Node34</title>
<g id="a_node34"><a xlink:href="lexer__word_8c.html" target="_top" xlink:title=" ">
<polygon fill="white" stroke="#666666" points="3575,-96 3455,-96 3455,-66 3575,-66 3575,-96"/>
<text text-anchor="start" x="3463" y="-84" font-family="Helvetica,sans-Serif" font-size="10.00">src/lexer/tokens/lexer</text>
<text text-anchor="middle" x="3515" y="-73" font-family="Helvetica,sans-Serif" font-size="10.00">_word.c</text>
</a>
</g>
</g>
<!-- Node1&#45;&gt;Node34 -->
<g id="edge33" class="edge">
<title>Node1&#45;&gt;Node34</title>
<path fill="none" stroke="#63b8ff" d="M2119.75,-139.97C2341,-137.62 3182.19,-126.8 3446,-96 3448.91,-95.66 3451.89,-95.26 3454.88,-94.82"/>
<polygon fill="#63b8ff" stroke="#63b8ff" points="2119.65,-136.47 2109.68,-140.08 2119.72,-143.47 2119.65,-136.47"/>
</g>
<!-- Node3 -->
<g id="node3" class="node">
<title>Node3</title>
<g id="a_node3"><a xlink:href="parser__destroy_8c.html" target="_top" xlink:title=" ">
<polygon fill="white" stroke="#666666" points="745.5,-24.5 598.5,-24.5 598.5,-5.5 745.5,-5.5 745.5,-24.5"/>
<text text-anchor="middle" x="672" y="-12.5" font-family="Helvetica,sans-Serif" font-size="10.00">src/parser/parser_destroy.c</text>
</a>
</g>
</g>
<!-- Node2&#45;&gt;Node3 -->
<g id="edge2" class="edge">
<title>Node2&#45;&gt;Node3</title>
<path fill="none" stroke="#63b8ff" d="M928.68,-69.34C868.11,-56.75 768.63,-36.08 712.97,-24.51"/>
<polygon fill="#63b8ff" stroke="#63b8ff" points="928.28,-72.83 938.78,-71.44 929.7,-65.97 928.28,-72.83"/>
</g>
<!-- Node2&#45;&gt;Node4 -->
<g id="edge3" class="edge">
<title>Node2&#45;&gt;Node4</title>
<path fill="none" stroke="#63b8ff" d="M922.5,-79.17C785.8,-76.63 430.85,-66.73 137,-30 125.99,-28.62 114.14,-26.59 103.25,-24.5"/>
<polygon fill="#63b8ff" stroke="#63b8ff" points="922.67,-82.67 932.73,-79.35 922.8,-75.67 922.67,-82.67"/>
</g>
<!-- Node2&#45;&gt;Node5 -->
<g id="edge4" class="edge">
<title>Node2&#45;&gt;Node5</title>
<path fill="none" stroke="#63b8ff" d="M922.6,-77.98C803.9,-73.34 522.94,-59.92 289,-30 277.82,-28.57 265.8,-26.57 254.68,-24.53"/>
<polygon fill="#63b8ff" stroke="#63b8ff" points="922.78,-81.49 932.9,-78.38 923.05,-74.5 922.78,-81.49"/>
</g>
<!-- Node6 -->
<g id="node6" class="node">
<title>Node6</title>
<g id="a_node6"><a xlink:href="parser__parse_8c.html" target="_top" xlink:title=" ">
<polygon fill="white" stroke="#666666" points="902.5,-24.5 763.5,-24.5 763.5,-5.5 902.5,-5.5 902.5,-24.5"/>
<text text-anchor="middle" x="833" y="-12.5" font-family="Helvetica,sans-Serif" font-size="10.00">src/parser/parser_parse.c</text>
</a>
</g>
</g>
<!-- Node2&#45;&gt;Node6 -->
<g id="edge5" class="edge">
<title>Node2&#45;&gt;Node6</title>
<path fill="none" stroke="#63b8ff" d="M950.96,-67.36C922,-54.75 878.26,-35.71 852.98,-24.7"/>
<polygon fill="#63b8ff" stroke="#63b8ff" points="949.61,-70.59 960.17,-71.37 952.4,-64.17 949.61,-70.59"/>
</g>
<!-- Node7 -->
<g id="node7" class="node">
<title>Node7</title>
<g id="a_node7"><a xlink:href="parser__set__error_8c.html" target="_top" xlink:title=" ">
<polygon fill="white" stroke="#666666" points="1039.5,-30 920.5,-30 920.5,0 1039.5,0 1039.5,-30"/>
<text text-anchor="start" x="928.5" y="-18" font-family="Helvetica,sans-Serif" font-size="10.00">src/parser/parser_set</text>
<text text-anchor="middle" x="980" y="-7" font-family="Helvetica,sans-Serif" font-size="10.00">_error.c</text>
</a>
</g>
</g>
<!-- Node2&#45;&gt;Node7 -->
<g id="edge6" class="edge">
<title>Node2&#45;&gt;Node7</title>
<path fill="none" stroke="#63b8ff" d="M980,-61.35C980,-51.47 980,-39.51 980,-30.36"/>
<polygon fill="#63b8ff" stroke="#63b8ff" points="976.5,-61.37 980,-71.37 983.5,-61.37 976.5,-61.37"/>
</g>
<!-- Node8 -->
<g id="node8" class="node">
<title>Node8</title>
<g id="a_node8"><a xlink:href="parser__utils_8c.html" target="_top" xlink:title=" ">
<polygon fill="white" stroke="#666666" points="1190.5,-24.5 1057.5,-24.5 1057.5,-5.5 1190.5,-5.5 1190.5,-24.5"/>
<text text-anchor="middle" x="1124" y="-12.5" font-family="Helvetica,sans-Serif" font-size="10.00">src/parser/parser_utils.c</text>
</a>
</g>
</g>
<!-- Node2&#45;&gt;Node8 -->
<g id="edge7" class="edge">
<title>Node2&#45;&gt;Node8</title>
<path fill="none" stroke="#63b8ff" d="M1008.81,-67.19C1037.19,-54.58 1079.77,-35.66 1104.43,-24.7"/>
<polygon fill="#63b8ff" stroke="#63b8ff" points="1007.14,-64.11 999.42,-71.37 1009.98,-70.51 1007.14,-64.11"/>
</g>
<!-- Node9 -->
<g id="node9" class="node">
<title>Node9</title>
<g id="a_node9"><a xlink:href="parse__command_8c.html" target="_top" xlink:title=" ">
<polygon fill="white" stroke="#666666" points="1339,-30 1209,-30 1209,0 1339,0 1339,-30"/>
<text text-anchor="start" x="1217" y="-18" font-family="Helvetica,sans-Serif" font-size="10.00">src/parser/tokens/parse</text>
<text text-anchor="middle" x="1274" y="-7" font-family="Helvetica,sans-Serif" font-size="10.00">_command.c</text>
</a>
</g>
</g>
<!-- Node2&#45;&gt;Node9 -->
<g id="edge8" class="edge">
<title>Node2&#45;&gt;Node9</title>
<path fill="none" stroke="#63b8ff" d="M1026.63,-69.23C1031.48,-68.13 1036.34,-67.03 1041,-66 1097.54,-53.45 1161.93,-39.67 1208.66,-29.76"/>
<polygon fill="#63b8ff" stroke="#63b8ff" points="1025.73,-65.84 1016.75,-71.48 1027.28,-72.67 1025.73,-65.84"/>
</g>
<!-- Node10 -->
<g id="node10" class="node">
<title>Node10</title>
<g id="a_node10"><a xlink:href="parse__logical__operator_8c.html" target="_top" xlink:title=" ">
<polygon fill="white" stroke="#666666" points="1487,-30 1357,-30 1357,0 1487,0 1487,-30"/>
<text text-anchor="start" x="1365" y="-18" font-family="Helvetica,sans-Serif" font-size="10.00">src/parser/tokens/parse</text>
<text text-anchor="middle" x="1422" y="-7" font-family="Helvetica,sans-Serif" font-size="10.00">_logical_operator.c</text>
</a>
</g>
</g>
<!-- Node2&#45;&gt;Node10 -->
<g id="edge9" class="edge">
<title>Node2&#45;&gt;Node10</title>
<path fill="none" stroke="#63b8ff" d="M1024.11,-69.28C1029.78,-68.08 1035.51,-66.95 1041,-66 1176.37,-42.6 1212.2,-50.78 1348,-30 1350.84,-29.56 1353.74,-29.1 1356.67,-28.62"/>
<polygon fill="#63b8ff" stroke="#63b8ff" points="1023.08,-65.92 1014.07,-71.49 1024.58,-72.76 1023.08,-65.92"/>
</g>
<!-- Node11 -->
<g id="node11" class="node">
<title>Node11</title>
<g id="a_node11"><a xlink:href="parse__repeat_8c.html" target="_top" xlink:title=" ">
<polygon fill="white" stroke="#666666" points="1635,-30 1505,-30 1505,0 1635,0 1635,-30"/>
<text text-anchor="start" x="1513" y="-18" font-family="Helvetica,sans-Serif" font-size="10.00">src/parser/tokens/parse</text>
<text text-anchor="middle" x="1570" y="-7" font-family="Helvetica,sans-Serif" font-size="10.00">_repeat.c</text>
</a>
</g>
</g>
<!-- Node2&#45;&gt;Node11 -->
<g id="edge10" class="edge">
<title>Node2&#45;&gt;Node11</title>
<path fill="none" stroke="#63b8ff" d="M1023.02,-69.3C1029.03,-68.05 1035.15,-66.9 1041,-66 1241.51,-35.23 1294.94,-56.89 1496,-30 1498.85,-29.62 1501.76,-29.2 1504.69,-28.75"/>
<polygon fill="#63b8ff" stroke="#63b8ff" points="1022.09,-65.92 1013.07,-71.48 1023.59,-72.76 1022.09,-65.92"/>
</g>
<!-- Node12 -->
<g id="node12" class="node">
<title>Node12</title>
<g id="a_node12"><a xlink:href="parse__sequence_8c.html" target="_top" xlink:title=" ">
<polygon fill="white" stroke="#666666" points="1783,-30 1653,-30 1653,0 1783,0 1783,-30"/>
<text text-anchor="start" x="1661" y="-18" font-family="Helvetica,sans-Serif" font-size="10.00">src/parser/tokens/parse</text>
<text text-anchor="middle" x="1718" y="-7" font-family="Helvetica,sans-Serif" font-size="10.00">_sequence.c</text>
</a>
</g>
</g>
<!-- Node2&#45;&gt;Node12 -->
<g id="edge11" class="edge">
<title>Node2&#45;&gt;Node12</title>
<path fill="none" stroke="#63b8ff" d="M1022.79,-69.24C1028.87,-67.98 1035.07,-66.85 1041,-66 1306.75,-27.84 1377.56,-63.02 1644,-30 1646.85,-29.65 1649.77,-29.25 1652.7,-28.82"/>
<polygon fill="#63b8ff" stroke="#63b8ff" points="1021.76,-65.88 1012.74,-71.44 1023.25,-72.72 1021.76,-65.88"/>
</g>
<!-- Node13 -->
<g id="node13" class="node">
<title>Node13</title>
<g id="a_node13"><a xlink:href="parse__sequence__start_8c.html" target="_top" xlink:title=" ">
<polygon fill="white" stroke="#666666" points="1931,-30 1801,-30 1801,0 1931,0 1931,-30"/>
<text text-anchor="start" x="1809" y="-18" font-family="Helvetica,sans-Serif" font-size="10.00">src/parser/tokens/parse</text>
<text text-anchor="middle" x="1866" y="-7" font-family="Helvetica,sans-Serif" font-size="10.00">_sequence_start.c</text>
</a>
</g>
</g>
<!-- Node2&#45;&gt;Node13 -->
<g id="edge12" class="edge">
<title>Node2&#45;&gt;Node13</title>
<path fill="none" stroke="#63b8ff" d="M1022.57,-69.22C1028.72,-67.96 1035,-66.83 1041,-66 1372.04,-20.45 1460.14,-69.15 1792,-30 1794.86,-29.66 1797.77,-29.28 1800.71,-28.86"/>
<polygon fill="#63b8ff" stroke="#63b8ff" points="1021.43,-65.88 1012.41,-71.44 1022.93,-72.72 1021.43,-65.88"/>
</g>
<!-- Node14 -->
<g id="node14" class="node">
<title>Node14</title>
<g id="a_node14"><a xlink:href="parse__subshell_8c.html" target="_top" xlink:title=" ">
<polygon fill="white" stroke="#666666" points="428,-30 298,-30 298,0 428,0 428,-30"/>
<text text-anchor="start" x="306" y="-18" font-family="Helvetica,sans-Serif" font-size="10.00">src/parser/tokens/parse</text>
<text text-anchor="middle" x="363" y="-7" font-family="Helvetica,sans-Serif" font-size="10.00">_subshell.c</text>
</a>
</g>
</g>
<!-- Node2&#45;&gt;Node14 -->
<g id="edge13" class="edge">
<title>Node2&#45;&gt;Node14</title>
<path fill="none" stroke="#63b8ff" d="M922.87,-76.53C823.69,-70.12 613.34,-54.74 437,-30 434.15,-29.6 431.25,-29.17 428.31,-28.71"/>
<polygon fill="#63b8ff" stroke="#63b8ff" points="922.77,-80.04 932.98,-77.18 923.22,-73.05 922.77,-80.04"/>
</g>
<!-- Node15 -->
<g id="node15" class="node">
<title>Node15</title>
<g id="a_node15"><a xlink:href="parser__globbing_8c.html" target="_top" xlink:title=" ">
<polygon fill="white" stroke="#666666" points="580,-30 446,-30 446,0 580,0 580,-30"/>
<text text-anchor="start" x="454" y="-18" font-family="Helvetica,sans-Serif" font-size="10.00">src/parser/tokens/parser</text>
<text text-anchor="middle" x="513" y="-7" font-family="Helvetica,sans-Serif" font-size="10.00">_globbing.c</text>
</a>
</g>
</g>
<!-- Node2&#45;&gt;Node15 -->
<g id="edge14" class="edge">
<title>Node2&#45;&gt;Node15</title>
<path fill="none" stroke="#63b8ff" d="M922.59,-73.66C846.24,-65 707.18,-48.43 589,-30 586.08,-29.55 583.11,-29.07 580.1,-28.57"/>
<polygon fill="#63b8ff" stroke="#63b8ff" points="922.61,-77.18 932.94,-74.83 923.39,-70.23 922.61,-77.18"/>
</g>
<!-- Node2&#45;&gt;Node16 -->
<g id="edge15" class="edge">
<title>Node2&#45;&gt;Node16</title>
<path fill="none" stroke="#63b8ff" d="M1021.9,-69.31C1028.26,-68 1034.78,-66.83 1041,-66 1437.35,-13.05 1546.65,-101.94 1940,-30 1946.65,-28.78 1953.7,-26.75 1960.07,-24.6"/>
<polygon fill="#63b8ff" stroke="#63b8ff" points="1021.11,-65.9 1012.09,-71.46 1022.6,-72.74 1021.11,-65.9"/>
</g>
</g>
</svg>
        <g id="navigator" transform="translate(0 0)" fill="#404254">
                <rect fill="#f2f5e9" fill-opacity="0.5" stroke="#606060" stroke-width=".5" x="0" y="0" width="60" height="60"/>
                <use id="zoomplus" xlink:href="#zoomPlus" x="17" y="9" onmousedown="handleZoom(evt,'in')"/>
                <use id="zoomminus" xlink:href="#zoomMin" x="42" y="9" onmousedown="handleZoom(evt,'out')"/>
                <use id="reset" xlink:href="#resetDef" x="30" y="36" onmousedown="handleReset()"/>
                <g id="arrowUp" xlink:href="#dirArrow" transform="translate(30 24)" onmousedown="handlePan(0,-1)">
                  <use xlink:href="#rim" fill="#404040">
                        <set attributeName="fill" to="#808080" begin="arrowUp.mouseover" end="arrowUp.mouseout"/>
                  </use>
                  <path fill="none" stroke="white" stroke-width="1.5" d="M0,-3.0v7 M-2.5,-0.5L0,-3.0L2.5,-0.5"/>
                </g>
                <g id="arrowRight" xlink:href="#dirArrow" transform="rotate(90) translate(36 -43)" onmousedown="handlePan(1,0)">
                  <use xlink:href="#rim" fill="#404040">
                        <set attributeName="fill" to="#808080" begin="arrowRight.mouseover" end="arrowRight.mouseout"/>
                  </use>
                  <path fill="none" stroke="white" stroke-width="1.5" d="M0,-3.0v7 M-2.5,-0.5L0,-3.0L2.5,-0.5"/>
                </g>
                <g id="arrowDown" xlink:href="#dirArrow" transform="rotate(180) translate(-30 -48)" onmousedown="handlePan(0,1)">
                  <use xlink:href="#rim" fill="#404040">
                        <set attributeName="fill" to="#808080" begin="arrowDown.mouseover" end="arrowDown.mouseout"/>
                  </use>
                  <path fill="none" stroke="white" stroke-width="1.5" d="M0,-3.0v7 M-2.5,-0.5L0,-3.0L2.5,-0.5"/>
                </g>
                <g id="arrowLeft" xlink:href="#dirArrow" transform="rotate(270) translate(-36 17)" onmousedown="handlePan(-1,0)">
                  <use xlink:href="#rim" fill="#404040">
                        <set attributeName="fill" to="#808080" begin="arrowLeft.mouseover" end="arrowLeft.mouseout"/>
                  </use>
                  <path fill="none" stroke="white" stroke-width="1.5" d="M0,-3.0v7 M-2.5,-0.5L0,-3.0L2.5,-0.5"/>
                </g>
        </g>
        <svg viewBox="0 0 15 15" width="100%" height="30px" preserveAspectRatio="xMaxYMin meet">
         <g id="arrow_out" transform="scale(0.3 0.3)">
          <a xlink:href="lexer_8h__dep__incl_org.svg" target="_base">
           <rect id="button" ry="5" rx="5" y="6" x="6" height="38" width="38"
                fill="#f2f5e9" fill-opacity="0.5" stroke="#606060" stroke-width="1.0"/>
           <path id="arrow"
             d="M 11.500037,31.436501 C 11.940474,20.09759 22.043105,11.32322 32.158766,21.979434 L 37.068811,17.246167 C 37.068811,17.246167 37.088388,32 37.088388,32 L 22.160133,31.978069 C 22.160133,31.978069 26.997745,27.140456 26.997745,27.140456 C 18.528582,18.264221 13.291696,25.230495 11.500037,31.436501 z"
             style="fill:#404040;"/>
          </a>
         </g>
        </svg>
</svg>
