<?xml version="1.0" encoding="UTF-8" standalone="no"?>
<!DOCTYPE svg PUBLIC "-//W3C//DTD SVG 1.1//EN"
 "http://www.w3.org/Graphics/SVG/1.1/DTD/svg11.dtd">
<!-- Generated by graphviz version 2.43.0 (0)
 -->
<!-- Title: src/lexer/lexer_next_token.c Pages: 1 -->
<svg width="246pt" height="258pt"
 viewBox="0.00 0.00 245.50 258.00" xmlns="http://www.w3.org/2000/svg" xmlns:xlink="http://www.w3.org/1999/xlink">
<g id="graph0" class="graph" transform="scale(1 1) rotate(0) translate(4 254)">
<title>src/lexer/lexer_next_token.c</title>
<!-- Node1 -->
<g id="node1" class="node">
<title>Node1</title>
<g id="a_node1"><a xlink:title=" ">
<polygon fill="#999999" stroke="#666666" points="198,-250 86,-250 86,-220 198,-220 198,-250"/>
<text text-anchor="start" x="94" y="-238" font-family="Helvetica,sans-Serif" font-size="10.00">src/lexer/lexer_next</text>
<text text-anchor="middle" x="142" y="-227" font-family="Helvetica,sans-Serif" font-size="10.00">_token.c</text>
</a>
</g>
</g>
<!-- Node2 -->
<g id="node2" class="node">
<title>Node2</title>
<g id="a_node2"><a xlink:title=" ">
<polygon fill="#e0e0e0" stroke="#999999" points="99.5,-184 46.5,-184 46.5,-165 99.5,-165 99.5,-184"/>
<text text-anchor="middle" x="73" y="-172" font-family="Helvetica,sans-Serif" font-size="10.00">string.h</text>
</a>
</g>
</g>
<!-- Node1&#45;&gt;Node2 -->
<g id="edge1" class="edge">
<title>Node1&#45;&gt;Node2</title>
<path fill="none" stroke="#63b8ff" d="M125.3,-219.84C114.97,-211.09 101.72,-199.85 91.14,-190.88"/>
<polygon fill="#63b8ff" stroke="#63b8ff" points="93.23,-188.06 83.34,-184.27 88.7,-193.4 93.23,-188.06"/>
</g>
<!-- Node3 -->
<g id="node3" class="node">
<title>Node3</title>
<g id="a_node3"><a xlink:href="lexer_8h.html" target="_top" xlink:title=" ">
<polygon fill="white" stroke="#666666" points="166.5,-184 117.5,-184 117.5,-165 166.5,-165 166.5,-184"/>
<text text-anchor="middle" x="142" y="-172" font-family="Helvetica,sans-Serif" font-size="10.00">lexer.h</text>
</a>
</g>
</g>
<!-- Node1&#45;&gt;Node3 -->
<g id="edge2" class="edge">
<title>Node1&#45;&gt;Node3</title>
<path fill="none" stroke="#63b8ff" d="M142,-219.84C142,-212.21 142,-202.7 142,-194.45"/>
<polygon fill="#63b8ff" stroke="#63b8ff" points="145.5,-194.27 142,-184.27 138.5,-194.27 145.5,-194.27"/>
</g>
<!-- Node8 -->
<g id="node8" class="node">
<title>Node8</title>
<g id="a_node8"><a xlink:href="token_8h.html" target="_top" xlink:title=" ">
<polygon fill="white" stroke="#666666" points="237.5,-129 184.5,-129 184.5,-110 237.5,-110 237.5,-129"/>
<text text-anchor="middle" x="211" y="-117" font-family="Helvetica,sans-Serif" font-size="10.00">token.h</text>
</a>
</g>
</g>
<!-- Node1&#45;&gt;Node8 -->
<g id="edge9" class="edge">
<title>Node1&#45;&gt;Node8</title>
<path fill="none" stroke="#63b8ff" d="M151.79,-219.73C158.5,-209.81 167.5,-196.24 175,-184 184.3,-168.82 194.23,-151.18 201.3,-138.35"/>
<polygon fill="#63b8ff" stroke="#63b8ff" points="204.56,-139.69 206.29,-129.24 198.42,-136.33 204.56,-139.69"/>
</g>
<!-- Node4 -->
<g id="node4" class="node">
<title>Node4</title>
<g id="a_node4"><a xlink:title=" ">
<polygon fill="#e0e0e0" stroke="#999999" points="56,-19 0,-19 0,0 56,0 56,-19"/>
<text text-anchor="middle" x="28" y="-7" font-family="Helvetica,sans-Serif" font-size="10.00">stddef.h</text>
</a>
</g>
</g>
<!-- Node3&#45;&gt;Node4 -->
<g id="edge3" class="edge">
<title>Node3&#45;&gt;Node4</title>
<path fill="none" stroke="#63b8ff" d="M117.27,-166.29C82.82,-156 23.92,-137.42 18,-129 -3.1,-99.01 9.89,-53.59 19.83,-28.59"/>
<polygon fill="#63b8ff" stroke="#63b8ff" points="23.12,-29.8 23.79,-19.23 16.67,-27.07 23.12,-29.8"/>
</g>
<!-- Node5 -->
<g id="node5" class="node">
<title>Node5</title>
<g id="a_node5"><a xlink:title=" ">
<polygon fill="#e0e0e0" stroke="#999999" points="99,-129 27,-129 27,-110 99,-110 99,-129"/>
<text text-anchor="middle" x="63" y="-117" font-family="Helvetica,sans-Serif" font-size="10.00">sys/types.h</text>
</a>
</g>
</g>
<!-- Node3&#45;&gt;Node5 -->
<g id="edge4" class="edge">
<title>Node3&#45;&gt;Node5</title>
<path fill="none" stroke="#63b8ff" d="M129.31,-164.98C117.17,-156.84 98.64,-144.41 84.25,-134.76"/>
<polygon fill="#63b8ff" stroke="#63b8ff" points="86.18,-131.84 75.92,-129.17 82.28,-137.65 86.18,-131.84"/>
</g>
<!-- Node6 -->
<g id="node6" class="node">
<title>Node6</title>
<g id="a_node6"><a xlink:href="shell_8h.html" target="_top" xlink:title=" ">
<polygon fill="white" stroke="#666666" points="166.5,-129 117.5,-129 117.5,-110 166.5,-110 166.5,-129"/>
<text text-anchor="middle" x="142" y="-117" font-family="Helvetica,sans-Serif" font-size="10.00">shell.h</text>
</a>
</g>
</g>
<!-- Node3&#45;&gt;Node6 -->
<g id="edge5" class="edge">
<title>Node3&#45;&gt;Node6</title>
<path fill="none" stroke="#63b8ff" d="M142,-164.75C142,-157.8 142,-147.85 142,-139.13"/>
<polygon fill="#63b8ff" stroke="#63b8ff" points="145.5,-139.09 142,-129.09 138.5,-139.09 145.5,-139.09"/>
</g>
<!-- Node3&#45;&gt;Node8 -->
<g id="edge8" class="edge">
<title>Node3&#45;&gt;Node8</title>
<path fill="none" stroke="#63b8ff" d="M153.09,-164.98C163.49,-157 179.26,-144.88 191.72,-135.31"/>
<polygon fill="#63b8ff" stroke="#63b8ff" points="193.91,-138.04 199.71,-129.17 189.65,-132.49 193.91,-138.04"/>
</g>
<!-- Node7 -->
<g id="node7" class="node">
<title>Node7</title>
<g id="a_node7"><a xlink:href="list_8h.html" target="_top" xlink:title=" ">
<polygon fill="white" stroke="#666666" points="128.5,-74 69.5,-74 69.5,-55 128.5,-55 128.5,-74"/>
<text text-anchor="middle" x="99" y="-62" font-family="Helvetica,sans-Serif" font-size="10.00">my/list.h</text>
</a>
</g>
</g>
<!-- Node6&#45;&gt;Node7 -->
<g id="edge6" class="edge">
<title>Node6&#45;&gt;Node7</title>
<path fill="none" stroke="#63b8ff" d="M134.9,-109.75C128.83,-102.26 119.91,-91.28 112.49,-82.13"/>
<polygon fill="#63b8ff" stroke="#63b8ff" points="114.99,-79.65 105.97,-74.09 109.55,-84.06 114.99,-79.65"/>
</g>
<!-- Node7&#45;&gt;Node4 -->
<g id="edge7" class="edge">
<title>Node7&#45;&gt;Node4</title>
<path fill="none" stroke="#63b8ff" d="M87.59,-54.98C76.89,-47 60.66,-34.88 47.84,-25.31"/>
<polygon fill="#63b8ff" stroke="#63b8ff" points="49.72,-22.35 39.61,-19.17 45.53,-27.96 49.72,-22.35"/>
</g>
</g>
</svg>
