<?xml version="1.0" encoding="UTF-8" standalone="no"?>
<!DOCTYPE svg PUBLIC "-//W3C//DTD SVG 1.1//EN"
 "http://www.w3.org/Graphics/SVG/1.1/DTD/svg11.dtd">
<!-- Generated by graphviz version 2.43.0 (0)
 -->
<!-- Title: src/lexer/tokens/lexer_word.c Pages: 1 -->
<svg width="335pt" height="258pt"
 viewBox="0.00 0.00 335.00 258.00" xmlns="http://www.w3.org/2000/svg" xmlns:xlink="http://www.w3.org/1999/xlink">
<g id="graph0" class="graph" transform="scale(1 1) rotate(0) translate(4 254)">
<title>src/lexer/tokens/lexer_word.c</title>
<!-- Node1 -->
<g id="node1" class="node">
<title>Node1</title>
<g id="a_node1"><a xlink:title=" ">
<polygon fill="#999999" stroke="#666666" points="212.5,-250 92.5,-250 92.5,-220 212.5,-220 212.5,-250"/>
<text text-anchor="start" x="100.5" y="-238" font-family="Helvetica,sans-Serif" font-size="10.00">src/lexer/tokens/lexer</text>
<text text-anchor="middle" x="152.5" y="-227" font-family="Helvetica,sans-Serif" font-size="10.00">_word.c</text>
</a>
</g>
</g>
<!-- Node2 -->
<g id="node2" class="node">
<title>Node2</title>
<g id="a_node2"><a xlink:title=" ">
<polygon fill="#e0e0e0" stroke="#999999" points="53,-184 0,-184 0,-165 53,-165 53,-184"/>
<text text-anchor="middle" x="26.5" y="-172" font-family="Helvetica,sans-Serif" font-size="10.00">stdlib.h</text>
</a>
</g>
</g>
<!-- Node1&#45;&gt;Node2 -->
<g id="edge1" class="edge">
<title>Node1&#45;&gt;Node2</title>
<path fill="none" stroke="#63b8ff" d="M122.32,-219.99C101.67,-210.4 74.5,-197.79 54.37,-188.44"/>
<polygon fill="#63b8ff" stroke="#63b8ff" points="55.65,-185.18 45.11,-184.14 52.7,-191.52 55.65,-185.18"/>
</g>
<!-- Node3 -->
<g id="node3" class="node">
<title>Node3</title>
<g id="a_node3"><a xlink:title=" ">
<polygon fill="#e0e0e0" stroke="#999999" points="124,-184 71,-184 71,-165 124,-165 124,-184"/>
<text text-anchor="middle" x="97.5" y="-172" font-family="Helvetica,sans-Serif" font-size="10.00">string.h</text>
</a>
</g>
</g>
<!-- Node1&#45;&gt;Node3 -->
<g id="edge2" class="edge">
<title>Node1&#45;&gt;Node3</title>
<path fill="none" stroke="#63b8ff" d="M139.19,-219.84C131.2,-211.35 121.02,-200.52 112.72,-191.69"/>
<polygon fill="#63b8ff" stroke="#63b8ff" points="115.14,-189.15 105.74,-184.27 110.04,-193.95 115.14,-189.15"/>
</g>
<!-- Node4 -->
<g id="node4" class="node">
<title>Node4</title>
<g id="a_node4"><a xlink:title=" ">
<polygon fill="#e0e0e0" stroke="#999999" points="150.5,-129 78.5,-129 78.5,-110 150.5,-110 150.5,-129"/>
<text text-anchor="middle" x="114.5" y="-117" font-family="Helvetica,sans-Serif" font-size="10.00">sys/types.h</text>
</a>
</g>
</g>
<!-- Node1&#45;&gt;Node4 -->
<g id="edge3" class="edge">
<title>Node1&#45;&gt;Node4</title>
<path fill="none" stroke="#63b8ff" d="M148.86,-219.86C145.13,-205.82 138.99,-183.74 132.5,-165 129.47,-156.24 125.67,-146.69 122.35,-138.69"/>
<polygon fill="#63b8ff" stroke="#63b8ff" points="125.48,-137.11 118.36,-129.26 119.03,-139.84 125.48,-137.11"/>
</g>
<!-- Node5 -->
<g id="node5" class="node">
<title>Node5</title>
<g id="a_node5"><a xlink:href="lexer_8h.html" target="_top" xlink:title=" ">
<polygon fill="white" stroke="#666666" points="230,-184 181,-184 181,-165 230,-165 230,-184"/>
<text text-anchor="middle" x="205.5" y="-172" font-family="Helvetica,sans-Serif" font-size="10.00">lexer.h</text>
</a>
</g>
</g>
<!-- Node1&#45;&gt;Node5 -->
<g id="edge4" class="edge">
<title>Node1&#45;&gt;Node5</title>
<path fill="none" stroke="#63b8ff" d="M165.33,-219.84C173.02,-211.35 182.83,-200.52 190.83,-191.69"/>
<polygon fill="#63b8ff" stroke="#63b8ff" points="193.44,-194.03 197.56,-184.27 188.25,-189.33 193.44,-194.03"/>
</g>
<!-- Node9 -->
<g id="node9" class="node">
<title>Node9</title>
<g id="a_node9"><a xlink:href="token_8h.html" target="_top" xlink:title=" ">
<polygon fill="white" stroke="#666666" points="327,-129 274,-129 274,-110 327,-110 327,-129"/>
<text text-anchor="middle" x="300.5" y="-117" font-family="Helvetica,sans-Serif" font-size="10.00">token.h</text>
</a>
</g>
</g>
<!-- Node1&#45;&gt;Node9 -->
<g id="edge11" class="edge">
<title>Node1&#45;&gt;Node9</title>
<path fill="none" stroke="#63b8ff" d="M181.22,-219.83C198.55,-210.67 220.65,-197.91 238.5,-184 256.82,-169.73 275.06,-150.25 286.96,-136.64"/>
<polygon fill="#63b8ff" stroke="#63b8ff" points="289.64,-138.9 293.5,-129.03 284.33,-134.34 289.64,-138.9"/>
</g>
<!-- Node5&#45;&gt;Node4 -->
<g id="edge6" class="edge">
<title>Node5&#45;&gt;Node4</title>
<path fill="none" stroke="#63b8ff" d="M190.88,-164.98C176.64,-156.69 154.75,-143.94 138.05,-134.22"/>
<polygon fill="#63b8ff" stroke="#63b8ff" points="139.79,-131.18 129.39,-129.17 136.27,-137.23 139.79,-131.18"/>
</g>
<!-- Node6 -->
<g id="node6" class="node">
<title>Node6</title>
<g id="a_node6"><a xlink:title=" ">
<polygon fill="#e0e0e0" stroke="#999999" points="235.5,-19 179.5,-19 179.5,0 235.5,0 235.5,-19"/>
<text text-anchor="middle" x="207.5" y="-7" font-family="Helvetica,sans-Serif" font-size="10.00">stddef.h</text>
</a>
</g>
</g>
<!-- Node5&#45;&gt;Node6 -->
<g id="edge5" class="edge">
<title>Node5&#45;&gt;Node6</title>
<path fill="none" stroke="#63b8ff" d="M203.74,-164.68C202.05,-155.73 199.59,-141.47 198.5,-129 195.64,-96.23 193.87,-87.69 197.5,-55 198.46,-46.34 200.44,-36.91 202.39,-28.97"/>
<polygon fill="#63b8ff" stroke="#63b8ff" points="205.78,-29.83 204.93,-19.27 199.01,-28.06 205.78,-29.83"/>
</g>
<!-- Node7 -->
<g id="node7" class="node">
<title>Node7</title>
<g id="a_node7"><a xlink:href="shell_8h.html" target="_top" xlink:title=" ">
<polygon fill="white" stroke="#666666" points="256,-129 207,-129 207,-110 256,-110 256,-129"/>
<text text-anchor="middle" x="231.5" y="-117" font-family="Helvetica,sans-Serif" font-size="10.00">shell.h</text>
</a>
</g>
</g>
<!-- Node5&#45;&gt;Node7 -->
<g id="edge7" class="edge">
<title>Node5&#45;&gt;Node7</title>
<path fill="none" stroke="#63b8ff" d="M209.79,-164.75C213.31,-157.57 218.41,-147.18 222.78,-138.27"/>
<polygon fill="#63b8ff" stroke="#63b8ff" points="226.02,-139.61 227.29,-129.09 219.74,-136.53 226.02,-139.61"/>
</g>
<!-- Node5&#45;&gt;Node9 -->
<g id="edge10" class="edge">
<title>Node5&#45;&gt;Node9</title>
<path fill="none" stroke="#63b8ff" d="M220.76,-164.98C235.63,-156.69 258.48,-143.94 275.92,-134.22"/>
<polygon fill="#63b8ff" stroke="#63b8ff" points="277.93,-137.1 284.96,-129.17 274.52,-130.99 277.93,-137.1"/>
</g>
<!-- Node8 -->
<g id="node8" class="node">
<title>Node8</title>
<g id="a_node8"><a xlink:href="list_8h.html" target="_top" xlink:title=" ">
<polygon fill="white" stroke="#666666" points="266,-74 207,-74 207,-55 266,-55 266,-74"/>
<text text-anchor="middle" x="236.5" y="-62" font-family="Helvetica,sans-Serif" font-size="10.00">my/list.h</text>
</a>
</g>
</g>
<!-- Node7&#45;&gt;Node8 -->
<g id="edge8" class="edge">
<title>Node7&#45;&gt;Node8</title>
<path fill="none" stroke="#63b8ff" d="M232.33,-109.75C232.98,-102.8 233.92,-92.85 234.74,-84.13"/>
<polygon fill="#63b8ff" stroke="#63b8ff" points="238.23,-84.37 235.69,-74.09 231.27,-83.72 238.23,-84.37"/>
</g>
<!-- Node8&#45;&gt;Node6 -->
<g id="edge9" class="edge">
<title>Node8&#45;&gt;Node6</title>
<path fill="none" stroke="#63b8ff" d="M231.71,-54.75C227.74,-47.49 221.97,-36.95 217.07,-27.98"/>
<polygon fill="#63b8ff" stroke="#63b8ff" points="220.07,-26.18 212.2,-19.09 213.93,-29.54 220.07,-26.18"/>
</g>
</g>
</svg>
