<?xml version="1.0" encoding="UTF-8" standalone="no"?>
<!DOCTYPE svg PUBLIC "-//W3C//DTD SVG 1.1//EN"
 "http://www.w3.org/Graphics/SVG/1.1/DTD/svg11.dtd">
<!-- Generated by graphviz version 2.43.0 (0)
 -->
<!-- Title: lexer_expand_tilde Pages: 1 -->
<svg width="441pt" height="138pt"
 viewBox="0.00 0.00 441.00 138.00" xmlns="http://www.w3.org/2000/svg" xmlns:xlink="http://www.w3.org/1999/xlink">
<g id="graph0" class="graph" transform="scale(1 1) rotate(0) translate(4 134)">
<title>lexer_expand_tilde</title>
<!-- Node1 -->
<g id="node1" class="node">
<title>Node1</title>
<g id="a_node1"><a xlink:title=" ">
<polygon fill="#999999" stroke="#666666" points="109,-83 0,-83 0,-64 109,-64 109,-83"/>
<text text-anchor="middle" x="54.5" y="-71" font-family="Helvetica,sans-Serif" font-size="10.00">lexer_expand_tilde</text>
</a>
</g>
</g>
<!-- Node2 -->
<g id="node2" class="node">
<title>Node2</title>
<g id="a_node2"><a xlink:href="get__variable__value_8c.html#a2edd9900f19af236aa05385a789be3d6" target="_top" xlink:title=" ">
<polygon fill="white" stroke="#666666" points="258.5,-125 148.5,-125 148.5,-106 258.5,-106 258.5,-125"/>
<text text-anchor="middle" x="203.5" y="-113" font-family="Helvetica,sans-Serif" font-size="10.00">get_variable_value</text>
</a>
</g>
</g>
<!-- Node1&#45;&gt;Node2 -->
<g id="edge1" class="edge">
<title>Node1&#45;&gt;Node2</title>
<path fill="none" stroke="#63b8ff" d="M88.86,-83.03C109.74,-89 136.86,-96.75 159.37,-103.18"/>
<polygon fill="#63b8ff" stroke="#63b8ff" points="158.44,-106.55 169.02,-105.93 160.37,-99.82 158.44,-106.55"/>
</g>
<!-- Node4 -->
<g id="node4" class="node">
<title>Node4</title>
<g id="a_node4"><a xlink:href="lexer__utils_8c.html#abf1c1b3b6033c8f9c8d1b11cc9e14f75" target="_top" xlink:title=" ">
<polygon fill="white" stroke="#666666" points="253.5,-83 153.5,-83 153.5,-64 253.5,-64 253.5,-83"/>
<text text-anchor="middle" x="203.5" y="-71" font-family="Helvetica,sans-Serif" font-size="10.00">lexer_append_str</text>
</a>
</g>
</g>
<!-- Node1&#45;&gt;Node4 -->
<g id="edge3" class="edge">
<title>Node1&#45;&gt;Node4</title>
<path fill="none" stroke="#63b8ff" d="M109.4,-73.5C120.44,-73.5 132.12,-73.5 143.34,-73.5"/>
<polygon fill="#63b8ff" stroke="#63b8ff" points="143.47,-77 153.47,-73.5 143.47,-70 143.47,-77"/>
</g>
<!-- Node7 -->
<g id="node7" class="node">
<title>Node7</title>
<g id="a_node7"><a xlink:href="lexer__expand__tilde_8c.html#aa4231a41b1e79447d6a70db7b075f937" target="_top" xlink:title=" ">
<polygon fill="white" stroke="#666666" points="262,-37 145,-37 145,-18 262,-18 262,-37"/>
<text text-anchor="middle" x="203.5" y="-25" font-family="Helvetica,sans-Serif" font-size="10.00">should_expand_tilde</text>
</a>
</g>
</g>
<!-- Node1&#45;&gt;Node7 -->
<g id="edge6" class="edge">
<title>Node1&#45;&gt;Node7</title>
<path fill="none" stroke="#63b8ff" d="M85.96,-63.97C108.13,-57.03 138.38,-47.57 162.5,-40.02"/>
<polygon fill="#63b8ff" stroke="#63b8ff" points="163.58,-43.35 172.08,-37.02 161.49,-36.67 163.58,-43.35"/>
</g>
<!-- Node3 -->
<g id="node3" class="node">
<title>Node3</title>
<g id="a_node3"><a xlink:href="get__variable_8c.html#a569170390f0edf013bf89c26ef55ea8c" target="_top" xlink:title=" ">
<polygon fill="white" stroke="#666666" points="404,-130 327,-130 327,-111 404,-111 404,-130"/>
<text text-anchor="middle" x="365.5" y="-118" font-family="Helvetica,sans-Serif" font-size="10.00">get_variable</text>
</a>
</g>
</g>
<!-- Node2&#45;&gt;Node3 -->
<g id="edge2" class="edge">
<title>Node2&#45;&gt;Node3</title>
<path fill="none" stroke="#63b8ff" d="M258.67,-117.19C277.4,-117.78 298.25,-118.43 316.45,-119"/>
<polygon fill="#63b8ff" stroke="#63b8ff" points="316.44,-122.5 326.54,-119.31 316.66,-115.5 316.44,-122.5"/>
</g>
<!-- Node5 -->
<g id="node5" class="node">
<title>Node5</title>
<g id="a_node5"><a xlink:href="strings_8h.html#a5e1589f073ac32d227dbc6020c376dab" target="_top" xlink:title=" ">
<polygon fill="white" stroke="#666666" points="416,-93 315,-93 315,-74 416,-74 416,-93"/>
<text text-anchor="middle" x="365.5" y="-81" font-family="Helvetica,sans-Serif" font-size="10.00">append_to_buffer</text>
</a>
</g>
</g>
<!-- Node4&#45;&gt;Node5 -->
<g id="edge4" class="edge">
<title>Node4&#45;&gt;Node5</title>
<path fill="none" stroke="#63b8ff" d="M253.81,-76.58C269.85,-77.58 287.84,-78.71 304.57,-79.75"/>
<polygon fill="#63b8ff" stroke="#63b8ff" points="304.6,-83.26 314.8,-80.39 305.04,-76.28 304.6,-83.26"/>
</g>
<!-- Node6 -->
<g id="node6" class="node">
<title>Node6</title>
<g id="a_node6"><a xlink:href="lexer__utils_8c.html#a84e8d5514cfe03a20152ad26f170211f" target="_top" xlink:title=" ">
<polygon fill="white" stroke="#666666" points="424.5,-56 306.5,-56 306.5,-37 424.5,-37 424.5,-56"/>
<text text-anchor="middle" x="365.5" y="-44" font-family="Helvetica,sans-Serif" font-size="10.00">lexer_set_alloc_error</text>
</a>
</g>
</g>
<!-- Node4&#45;&gt;Node6 -->
<g id="edge5" class="edge">
<title>Node4&#45;&gt;Node6</title>
<path fill="none" stroke="#63b8ff" d="M253.81,-65.18C267.76,-62.82 283.18,-60.22 297.97,-57.73"/>
<polygon fill="#63b8ff" stroke="#63b8ff" points="298.8,-61.14 308.08,-56.02 297.63,-54.23 298.8,-61.14"/>
</g>
<!-- Node8 -->
<g id="node8" class="node">
<title>Node8</title>
<g id="a_node8"><a xlink:href="lexer__is__word__separator_8c.html#abccfc6fc0cdbd040fc9a7dcbfd207090" target="_top" xlink:title=" ">
<polygon fill="white" stroke="#666666" points="433,-19 298,-19 298,0 433,0 433,-19"/>
<text text-anchor="middle" x="365.5" y="-7" font-family="Helvetica,sans-Serif" font-size="10.00">lexer_is_word_separator</text>
</a>
</g>
</g>
<!-- Node7&#45;&gt;Node8 -->
<g id="edge7" class="edge">
<title>Node7&#45;&gt;Node8</title>
<path fill="none" stroke="#63b8ff" d="M262.26,-21C270.56,-20.07 279.21,-19.1 287.8,-18.13"/>
<polygon fill="#63b8ff" stroke="#63b8ff" points="288.3,-21.59 297.85,-17 287.52,-14.64 288.3,-21.59"/>
</g>
</g>
</svg>
