<?xml version="1.0" encoding="UTF-8" standalone="no"?>
<!DOCTYPE svg PUBLIC "-//W3C//DTD SVG 1.1//EN"
 "http://www.w3.org/Graphics/SVG/1.1/DTD/svg11.dtd">
<!-- Generated by graphviz version 2.43.0 (0)
 -->
<!-- Title: src/lexer/lexer_expand_tilde.c Pages: 1 -->
<svg width="263pt" height="258pt"
 viewBox="0.00 0.00 263.00 258.00" xmlns="http://www.w3.org/2000/svg" xmlns:xlink="http://www.w3.org/1999/xlink">
<g id="graph0" class="graph" transform="scale(1 1) rotate(0) translate(4 254)">
<title>src/lexer/lexer_expand_tilde.c</title>
<!-- Node1 -->
<g id="node1" class="node">
<title>Node1</title>
<g id="a_node1"><a xlink:title=" ">
<polygon fill="#999999" stroke="#666666" points="170.5,-250 44.5,-250 44.5,-220 170.5,-220 170.5,-250"/>
<text text-anchor="start" x="52.5" y="-238" font-family="Helvetica,sans-Serif" font-size="10.00">src/lexer/lexer_expand</text>
<text text-anchor="middle" x="107.5" y="-227" font-family="Helvetica,sans-Serif" font-size="10.00">_tilde.c</text>
</a>
</g>
</g>
<!-- Node2 -->
<g id="node2" class="node">
<title>Node2</title>
<g id="a_node2"><a xlink:title=" ">
<polygon fill="#e0e0e0" stroke="#999999" points="53,-184 0,-184 0,-165 53,-165 53,-184"/>
<text text-anchor="middle" x="26.5" y="-172" font-family="Helvetica,sans-Serif" font-size="10.00">string.h</text>
</a>
</g>
</g>
<!-- Node1&#45;&gt;Node2 -->
<g id="edge1" class="edge">
<title>Node1&#45;&gt;Node2</title>
<path fill="none" stroke="#63b8ff" d="M87.89,-219.84C75.53,-210.91 59.6,-199.41 47.07,-190.35"/>
<polygon fill="#63b8ff" stroke="#63b8ff" points="48.79,-187.28 38.64,-184.27 44.7,-192.96 48.79,-187.28"/>
</g>
<!-- Node3 -->
<g id="node3" class="node">
<title>Node3</title>
<g id="a_node3"><a xlink:title=" ">
<polygon fill="#e0e0e0" stroke="#999999" points="78.5,-129 6.5,-129 6.5,-110 78.5,-110 78.5,-129"/>
<text text-anchor="middle" x="42.5" y="-117" font-family="Helvetica,sans-Serif" font-size="10.00">sys/types.h</text>
</a>
</g>
</g>
<!-- Node1&#45;&gt;Node3 -->
<g id="edge2" class="edge">
<title>Node1&#45;&gt;Node3</title>
<path fill="none" stroke="#63b8ff" d="M99.27,-219.63C87.36,-198.84 65.37,-160.44 52.53,-138.02"/>
<polygon fill="#63b8ff" stroke="#63b8ff" points="55.51,-136.17 47.5,-129.23 49.43,-139.65 55.51,-136.17"/>
</g>
<!-- Node4 -->
<g id="node4" class="node">
<title>Node4</title>
<g id="a_node4"><a xlink:href="lexer_8h.html" target="_top" xlink:title=" ">
<polygon fill="white" stroke="#666666" points="159,-184 110,-184 110,-165 159,-165 159,-184"/>
<text text-anchor="middle" x="134.5" y="-172" font-family="Helvetica,sans-Serif" font-size="10.00">lexer.h</text>
</a>
</g>
</g>
<!-- Node1&#45;&gt;Node4 -->
<g id="edge3" class="edge">
<title>Node1&#45;&gt;Node4</title>
<path fill="none" stroke="#63b8ff" d="M114.04,-219.84C117.68,-211.95 122.24,-202.05 126.14,-193.61"/>
<polygon fill="#63b8ff" stroke="#63b8ff" points="129.44,-194.81 130.45,-184.27 123.09,-191.88 129.44,-194.81"/>
</g>
<!-- Node6 -->
<g id="node6" class="node">
<title>Node6</title>
<g id="a_node6"><a xlink:href="shell_8h.html" target="_top" xlink:title=" ">
<polygon fill="white" stroke="#666666" points="255,-129 206,-129 206,-110 255,-110 255,-129"/>
<text text-anchor="middle" x="230.5" y="-117" font-family="Helvetica,sans-Serif" font-size="10.00">shell.h</text>
</a>
</g>
</g>
<!-- Node1&#45;&gt;Node6 -->
<g id="edge10" class="edge">
<title>Node1&#45;&gt;Node6</title>
<path fill="none" stroke="#63b8ff" d="M125.2,-219.98C137.35,-210.19 153.71,-196.65 167.5,-184 184.37,-168.53 202.7,-149.82 215.22,-136.73"/>
<polygon fill="#63b8ff" stroke="#63b8ff" points="217.84,-139.05 222.19,-129.39 212.77,-134.23 217.84,-139.05"/>
</g>
<!-- Node4&#45;&gt;Node3 -->
<g id="edge5" class="edge">
<title>Node4&#45;&gt;Node3</title>
<path fill="none" stroke="#63b8ff" d="M119.72,-164.98C105.32,-156.69 83.19,-143.94 66.31,-134.22"/>
<polygon fill="#63b8ff" stroke="#63b8ff" points="67.96,-131.13 57.55,-129.17 64.47,-137.19 67.96,-131.13"/>
</g>
<!-- Node5 -->
<g id="node5" class="node">
<title>Node5</title>
<g id="a_node5"><a xlink:title=" ">
<polygon fill="#e0e0e0" stroke="#999999" points="163.5,-19 107.5,-19 107.5,0 163.5,0 163.5,-19"/>
<text text-anchor="middle" x="135.5" y="-7" font-family="Helvetica,sans-Serif" font-size="10.00">stddef.h</text>
</a>
</g>
</g>
<!-- Node4&#45;&gt;Node5 -->
<g id="edge4" class="edge">
<title>Node4&#45;&gt;Node5</title>
<path fill="none" stroke="#63b8ff" d="M132.44,-164.7C130.46,-155.77 127.62,-141.51 126.5,-129 123.35,-93.68 128.49,-52.37 132.2,-29.04"/>
<polygon fill="#63b8ff" stroke="#63b8ff" points="135.66,-29.57 133.87,-19.13 128.76,-28.41 135.66,-29.57"/>
</g>
<!-- Node4&#45;&gt;Node6 -->
<g id="edge6" class="edge">
<title>Node4&#45;&gt;Node6</title>
<path fill="none" stroke="#63b8ff" d="M149.92,-164.98C164.95,-156.69 188.04,-143.94 205.66,-134.22"/>
<polygon fill="#63b8ff" stroke="#63b8ff" points="207.73,-137.07 214.8,-129.17 204.35,-130.94 207.73,-137.07"/>
</g>
<!-- Node8 -->
<g id="node8" class="node">
<title>Node8</title>
<g id="a_node8"><a xlink:href="token_8h.html" target="_top" xlink:title=" ">
<polygon fill="white" stroke="#666666" points="188,-129 135,-129 135,-110 188,-110 188,-129"/>
<text text-anchor="middle" x="161.5" y="-117" font-family="Helvetica,sans-Serif" font-size="10.00">token.h</text>
</a>
</g>
</g>
<!-- Node4&#45;&gt;Node8 -->
<g id="edge9" class="edge">
<title>Node4&#45;&gt;Node8</title>
<path fill="none" stroke="#63b8ff" d="M138.96,-164.75C142.62,-157.57 147.91,-147.18 152.45,-138.27"/>
<polygon fill="#63b8ff" stroke="#63b8ff" points="155.7,-139.59 157.12,-129.09 149.47,-136.41 155.7,-139.59"/>
</g>
<!-- Node7 -->
<g id="node7" class="node">
<title>Node7</title>
<g id="a_node7"><a xlink:href="list_8h.html" target="_top" xlink:title=" ">
<polygon fill="white" stroke="#666666" points="227,-74 168,-74 168,-55 227,-55 227,-74"/>
<text text-anchor="middle" x="197.5" y="-62" font-family="Helvetica,sans-Serif" font-size="10.00">my/list.h</text>
</a>
</g>
</g>
<!-- Node6&#45;&gt;Node7 -->
<g id="edge7" class="edge">
<title>Node6&#45;&gt;Node7</title>
<path fill="none" stroke="#63b8ff" d="M225.05,-109.75C220.49,-102.42 213.83,-91.73 208.21,-82.7"/>
<polygon fill="#63b8ff" stroke="#63b8ff" points="211.1,-80.73 202.85,-74.09 205.16,-84.43 211.1,-80.73"/>
</g>
<!-- Node7&#45;&gt;Node5 -->
<g id="edge8" class="edge">
<title>Node7&#45;&gt;Node5</title>
<path fill="none" stroke="#63b8ff" d="M187.54,-54.98C178.37,-47.15 164.56,-35.34 153.47,-25.86"/>
<polygon fill="#63b8ff" stroke="#63b8ff" points="155.52,-23.01 145.64,-19.17 150.97,-28.33 155.52,-23.01"/>
</g>
</g>
</svg>
