<?xml version="1.0" encoding="UTF-8" standalone="no"?>
<!DOCTYPE svg PUBLIC "-//W3C//DTD SVG 1.1//EN"
 "http://www.w3.org/Graphics/SVG/1.1/DTD/svg11.dtd">
<!-- Generated by graphviz version 2.43.0 (0)
 -->
<!-- Title: append_command_output Pages: 1 -->
<svg width="1450pt" height="891pt"
 viewBox="0.00 0.00 1450.00 891.00" xmlns="http://www.w3.org/2000/svg" xmlns:xlink="http://www.w3.org/1999/xlink">
<g id="graph0" class="graph" transform="scale(1 1) rotate(0) translate(4 887)">
<title>append_command_output</title>
<!-- Node1 -->
<g id="node1" class="node">
<title>Node1</title>
<g id="a_node1"><a xlink:title=" ">
<polygon fill="#999999" stroke="#666666" points="143,-57 0,-57 0,-38 143,-38 143,-57"/>
<text text-anchor="middle" x="71.5" y="-45" font-family="Helvetica,sans-Serif" font-size="10.00">append_command_output</text>
</a>
</g>
</g>
<!-- Node2 -->
<g id="node2" class="node">
<title>Node2</title>
<g id="a_node2"><a xlink:href="execute__command__substitution_8c.html#a44d633c45c6a1c7a82b2fc4f1f3a1b85" target="_top" xlink:title=" ">
<polygon fill="white" stroke="#666666" points="351,-169 179,-169 179,-150 351,-150 351,-169"/>
<text text-anchor="middle" x="265" y="-157" font-family="Helvetica,sans-Serif" font-size="10.00">execute_command_substitution</text>
</a>
</g>
</g>
<!-- Node1&#45;&gt;Node2 -->
<g id="edge1" class="edge">
<title>Node1&#45;&gt;Node2</title>
<path fill="none" stroke="#63b8ff" d="M88.83,-57.05C122.32,-76.64 199,-121.48 238.87,-144.81"/>
<polygon fill="#63b8ff" stroke="#63b8ff" points="237.32,-147.95 247.71,-149.98 240.85,-141.91 237.32,-147.95"/>
</g>
<!-- Node98 -->
<g id="node49" class="node">
<title>Node98</title>
<g id="a_node49"><a xlink:href="lexer__utils_8c.html#abf1c1b3b6033c8f9c8d1b11cc9e14f75" target="_top" xlink:title=" ">
<polygon fill="white" stroke="#666666" points="315,-57 215,-57 215,-38 315,-38 315,-57"/>
<text text-anchor="middle" x="265" y="-45" font-family="Helvetica,sans-Serif" font-size="10.00">lexer_append_str</text>
</a>
</g>
</g>
<!-- Node1&#45;&gt;Node98 -->
<g id="edge65" class="edge">
<title>Node1&#45;&gt;Node98</title>
<path fill="none" stroke="#63b8ff" d="M143.26,-47.5C163.4,-47.5 185.13,-47.5 204.52,-47.5"/>
<polygon fill="#63b8ff" stroke="#63b8ff" points="204.73,-51 214.73,-47.5 204.73,-44 204.73,-51"/>
</g>
<!-- Node99 -->
<g id="node50" class="node">
<title>Node99</title>
<g id="a_node50"><a xlink:href="lexer__utils_8c.html#a84e8d5514cfe03a20152ad26f170211f" target="_top" xlink:title=" ">
<polygon fill="white" stroke="#666666" points="520.5,-19 402.5,-19 402.5,0 520.5,0 520.5,-19"/>
<text text-anchor="middle" x="461.5" y="-7" font-family="Helvetica,sans-Serif" font-size="10.00">lexer_set_alloc_error</text>
</a>
</g>
</g>
<!-- Node1&#45;&gt;Node99 -->
<g id="edge68" class="edge">
<title>Node1&#45;&gt;Node99</title>
<path fill="none" stroke="#63b8ff" d="M119.52,-37.97C137.99,-34.53 159.43,-30.9 179,-28.5 251.58,-19.6 335.24,-14.62 392.37,-12.01"/>
<polygon fill="#63b8ff" stroke="#63b8ff" points="392.53,-15.51 402.37,-11.57 392.22,-8.52 392.53,-15.51"/>
</g>
<!-- Node3 -->
<g id="node3" class="node">
<title>Node3</title>
<g id="a_node3"><a xlink:href="execute__command__substitution_8c.html#a075d95090572b6eefee6062c788e021f" target="_top" xlink:title=" ">
<polygon fill="white" stroke="#666666" points="513,-206 410,-206 410,-187 513,-187 513,-206"/>
<text text-anchor="middle" x="461.5" y="-194" font-family="Helvetica,sans-Serif" font-size="10.00">handle_fork_error</text>
</a>
</g>
</g>
<!-- Node2&#45;&gt;Node3 -->
<g id="edge2" class="edge">
<title>Node2&#45;&gt;Node3</title>
<path fill="none" stroke="#63b8ff" d="M316.09,-169.03C341.74,-173.91 373.16,-179.89 400.14,-185.02"/>
<polygon fill="#63b8ff" stroke="#63b8ff" points="399.77,-188.51 410.24,-186.94 401.07,-181.63 399.77,-188.51"/>
</g>
<!-- Node4 -->
<g id="node4" class="node">
<title>Node4</title>
<g id="a_node4"><a xlink:href="execute__command__substitution_8c.html#af0e085937d4d6fbc3feb274895606e50" target="_top" xlink:title=" ">
<polygon fill="white" stroke="#666666" points="513.5,-169 409.5,-169 409.5,-150 513.5,-150 513.5,-169"/>
<text text-anchor="middle" x="461.5" y="-157" font-family="Helvetica,sans-Serif" font-size="10.00">handle_pipe_error</text>
</a>
</g>
</g>
<!-- Node2&#45;&gt;Node4 -->
<g id="edge3" class="edge">
<title>Node2&#45;&gt;Node4</title>
<path fill="none" stroke="#63b8ff" d="M351.03,-159.5C367.22,-159.5 383.88,-159.5 399.16,-159.5"/>
<polygon fill="#63b8ff" stroke="#63b8ff" points="399.49,-163 409.49,-159.5 399.49,-156 399.49,-163"/>
</g>
<!-- Node5 -->
<g id="node5" class="node">
<title>Node5</title>
<g id="a_node5"><a xlink:href="execute__command__substitution_8c.html#aebaa8b3d8f96bd07e2efb13393b1fa13" target="_top" xlink:title=" ">
<polygon fill="white" stroke="#666666" points="512,-132 411,-132 411,-113 512,-113 512,-132"/>
<text text-anchor="middle" x="461.5" y="-120" font-family="Helvetica,sans-Serif" font-size="10.00">read_pipe_output</text>
</a>
</g>
</g>
<!-- Node2&#45;&gt;Node5 -->
<g id="edge4" class="edge">
<title>Node2&#45;&gt;Node5</title>
<path fill="none" stroke="#63b8ff" d="M316.09,-149.97C341.94,-145.05 373.65,-139.02 400.77,-133.86"/>
<polygon fill="#63b8ff" stroke="#63b8ff" points="401.75,-137.24 410.92,-131.93 400.44,-130.36 401.75,-137.24"/>
</g>
<!-- Node7 -->
<g id="node7" class="node">
<title>Node7</title>
<g id="a_node7"><a xlink:href="execute__command__substitution_8c.html#a49d3b6ea9dfddcfae1e4193b46064722" target="_top" xlink:title=" ">
<polygon fill="white" stroke="#666666" points="524.5,-95 398.5,-95 398.5,-76 524.5,-76 524.5,-95"/>
<text text-anchor="middle" x="461.5" y="-83" font-family="Helvetica,sans-Serif" font-size="10.00">remove_end_newlines</text>
</a>
</g>
</g>
<!-- Node2&#45;&gt;Node7 -->
<g id="edge6" class="edge">
<title>Node2&#45;&gt;Node7</title>
<path fill="none" stroke="#63b8ff" d="M283.99,-149.83C307.23,-137.66 349.2,-116.73 387,-103.5 392.94,-101.42 399.23,-99.49 405.53,-97.72"/>
<polygon fill="#63b8ff" stroke="#63b8ff" points="406.64,-101.05 415.4,-95.09 404.83,-94.29 406.64,-101.05"/>
</g>
<!-- Node8 -->
<g id="node8" class="node">
<title>Node8</title>
<g id="a_node8"><a xlink:href="execute__command__substitution_8c.html#a230d3e2be0c3d7360a8cf2a810878cf2" target="_top" xlink:title=" ">
<polygon fill="white" stroke="#666666" points="536,-526 387,-526 387,-507 536,-507 536,-526"/>
<text text-anchor="middle" x="461.5" y="-514" font-family="Helvetica,sans-Serif" font-size="10.00">run_command_substitution</text>
</a>
</g>
</g>
<!-- Node2&#45;&gt;Node8 -->
<g id="edge7" class="edge">
<title>Node2&#45;&gt;Node8</title>
<path fill="none" stroke="#63b8ff" d="M271.2,-169.05C297.35,-217.04 414.58,-432.21 450.2,-497.6"/>
<polygon fill="#63b8ff" stroke="#63b8ff" points="447.33,-499.65 455.19,-506.75 453.48,-496.3 447.33,-499.65"/>
</g>
<!-- Node24 -->
<g id="node31" class="node">
<title>Node24</title>
<g id="a_node31"><a xlink:href="wait__for__subprocess_8c.html#a1242d78540fd0ddef3d98a9f294cb0d4" target="_top" xlink:title=" ">
<polygon fill="white" stroke="#666666" points="1128,-506 1012,-506 1012,-487 1128,-487 1128,-506"/>
<text text-anchor="middle" x="1070" y="-494" font-family="Helvetica,sans-Serif" font-size="10.00">wait_for_subprocess</text>
</a>
</g>
</g>
<!-- Node2&#45;&gt;Node24 -->
<g id="edge64" class="edge">
<title>Node2&#45;&gt;Node24</title>
<path fill="none" stroke="#63b8ff" d="M282.17,-169.03C304.77,-181.83 347.49,-204.16 387,-214.5 488.2,-240.97 516.9,-234.5 621.5,-234.5 621.5,-234.5 621.5,-234.5 766.5,-234.5 859.11,-234.5 904.01,-192.85 974,-253.5 1026.14,-298.68 983,-341.01 1010,-404.5 1021.76,-432.16 1041.56,-460.81 1054.94,-478.64"/>
<polygon fill="#63b8ff" stroke="#63b8ff" points="1052.42,-481.1 1061.28,-486.91 1057.97,-476.84 1052.42,-481.1"/>
</g>
<!-- Node6 -->
<g id="node6" class="node">
<title>Node6</title>
<g id="a_node6"><a xlink:href="strings_8h.html#a5e1589f073ac32d227dbc6020c376dab" target="_top" xlink:title=" ">
<polygon fill="white" stroke="#666666" points="673,-95 572,-95 572,-76 673,-76 673,-95"/>
<text text-anchor="middle" x="622.5" y="-83" font-family="Helvetica,sans-Serif" font-size="10.00">append_to_buffer</text>
</a>
</g>
</g>
<!-- Node5&#45;&gt;Node6 -->
<g id="edge5" class="edge">
<title>Node5&#45;&gt;Node6</title>
<path fill="none" stroke="#63b8ff" d="M503.45,-112.97C523.86,-108.22 548.75,-102.43 570.4,-97.39"/>
<polygon fill="#63b8ff" stroke="#63b8ff" points="571.47,-100.74 580.42,-95.06 569.88,-93.92 571.47,-100.74"/>
</g>
<!-- Node9 -->
<g id="node9" class="node">
<title>Node9</title>
<g id="a_node9"><a xlink:href="shell_8c.html#afb5215a1775326d8976fd015f7832392" target="_top" xlink:title=" ">
<polygon fill="white" stroke="#666666" points="662.5,-748 582.5,-748 582.5,-729 662.5,-729 662.5,-748"/>
<text text-anchor="middle" x="622.5" y="-736" font-family="Helvetica,sans-Serif" font-size="10.00">handle_input</text>
</a>
</g>
</g>
<!-- Node8&#45;&gt;Node9 -->
<g id="edge8" class="edge">
<title>Node8&#45;&gt;Node9</title>
<path fill="none" stroke="#63b8ff" d="M469.33,-526.04C493.74,-560.12 576.91,-676.24 608.86,-720.84"/>
<polygon fill="#63b8ff" stroke="#63b8ff" points="606.03,-722.9 614.69,-729 611.72,-718.83 606.03,-722.9"/>
</g>
<!-- Node10 -->
<g id="node10" class="node">
<title>Node10</title>
<g id="a_node10"><a xlink:href="ast__destroy_8c.html#a04c67d7ab492f6e1e7bc44dc70faa057" target="_top" xlink:title=" ">
<polygon fill="white" stroke="#666666" points="1264.5,-821 1190.5,-821 1190.5,-802 1264.5,-802 1264.5,-821"/>
<text text-anchor="middle" x="1227.5" y="-809" font-family="Helvetica,sans-Serif" font-size="10.00">ast_destroy</text>
</a>
</g>
</g>
<!-- Node9&#45;&gt;Node10 -->
<g id="edge9" class="edge">
<title>Node9&#45;&gt;Node10</title>
<path fill="none" stroke="#63b8ff" d="M662.59,-743.16C747.61,-753.29 955.71,-778.17 1130,-799.5 1146.36,-801.5 1164.27,-803.72 1180.18,-805.7"/>
<polygon fill="#63b8ff" stroke="#63b8ff" points="1179.95,-809.2 1190.3,-806.97 1180.81,-802.25 1179.95,-809.2"/>
</g>
<!-- Node12 -->
<g id="node12" class="node">
<title>Node12</title>
<g id="a_node12"><a xlink:href="shell_8c.html#a74405478dadd73c0a4d1e5f3e8d2e3ef" target="_top" xlink:title=" ">
<polygon fill="white" stroke="#666666" points="822,-732.5 709,-732.5 709,-702.5 822,-702.5 822,-732.5"/>
<text text-anchor="start" x="717" y="-720.5" font-family="Helvetica,sans-Serif" font-size="10.00">destroy_parser_and</text>
<text text-anchor="middle" x="765.5" y="-709.5" font-family="Helvetica,sans-Serif" font-size="10.00">_lexer</text>
</a>
</g>
</g>
<!-- Node9&#45;&gt;Node12 -->
<g id="edge12" class="edge">
<title>Node9&#45;&gt;Node12</title>
<path fill="none" stroke="#63b8ff" d="M662.78,-732.65C673.92,-730.99 686.36,-729.14 698.62,-727.31"/>
<polygon fill="#63b8ff" stroke="#63b8ff" points="699.46,-730.73 708.84,-725.79 698.43,-723.8 699.46,-730.73"/>
</g>
<!-- Node16 -->
<g id="node16" class="node">
<title>Node16</title>
<g id="a_node16"><a xlink:href="execute__ast_8c.html#ad26a20a665ab7fdeb714ed53c1afd104" target="_top" xlink:title=" ">
<polygon fill="white" stroke="#666666" points="803,-432 728,-432 728,-413 803,-413 803,-432"/>
<text text-anchor="middle" x="765.5" y="-420" font-family="Helvetica,sans-Serif" font-size="10.00">execute_ast</text>
</a>
</g>
</g>
<!-- Node9&#45;&gt;Node16 -->
<g id="edge16" class="edge">
<title>Node9&#45;&gt;Node16</title>
<path fill="none" stroke="#63b8ff" d="M627.87,-728.7C647.69,-684.28 729.26,-501.47 755.98,-441.59"/>
<polygon fill="#63b8ff" stroke="#63b8ff" points="759.3,-442.75 760.18,-432.19 752.91,-439.9 759.3,-442.75"/>
</g>
<!-- Node50 -->
<g id="node40" class="node">
<title>Node50</title>
<g id="a_node40"><a xlink:href="shell_8c.html#a6e35892cfa82c5f227b10f37abc529e9" target="_top" xlink:title=" ">
<polygon fill="white" stroke="#666666" points="811,-846 720,-846 720,-827 811,-827 811,-846"/>
<text text-anchor="middle" x="765.5" y="-834" font-family="Helvetica,sans-Serif" font-size="10.00">handle_parsing</text>
</a>
</g>
</g>
<!-- Node9&#45;&gt;Node50 -->
<g id="edge52" class="edge">
<title>Node9&#45;&gt;Node50</title>
<path fill="none" stroke="#63b8ff" d="M632.73,-748.21C647.62,-763.47 678.41,-793.29 709,-812.5 715.03,-816.29 721.77,-819.76 728.41,-822.8"/>
<polygon fill="#63b8ff" stroke="#63b8ff" points="727.41,-826.19 737.97,-826.96 730.2,-819.77 727.41,-826.19"/>
</g>
<!-- Node138 -->
<g id="node44" class="node">
<title>Node138</title>
<g id="a_node44"><a xlink:href="shell_8c.html#a1ce512725ee0371f8bf608a3ece0c152" target="_top" xlink:title=" ">
<polygon fill="white" stroke="#666666" points="1130,-827 1010,-827 1010,-808 1130,-808 1130,-827"/>
<text text-anchor="middle" x="1070" y="-815" font-family="Helvetica,sans-Serif" font-size="10.00">show_error_message</text>
</a>
</g>
</g>
<!-- Node9&#45;&gt;Node138 -->
<g id="edge63" class="edge">
<title>Node9&#45;&gt;Node138</title>
<path fill="none" stroke="#63b8ff" d="M641.98,-748.07C658.95,-756.42 685.02,-768.15 709,-774.5 807.94,-800.68 926.43,-810.95 999.72,-814.96"/>
<polygon fill="#63b8ff" stroke="#63b8ff" points="999.59,-818.46 1009.75,-815.49 999.95,-811.47 999.59,-818.46"/>
</g>
<!-- Node139 -->
<g id="node45" class="node">
<title>Node139</title>
<g id="a_node45"><a xlink:href="lexer__init_8c.html#aee55447f2c8b083ed2614fa4f439f9cc" target="_top" xlink:title=" ">
<polygon fill="white" stroke="#666666" points="796.5,-883 734.5,-883 734.5,-864 796.5,-864 796.5,-883"/>
<text text-anchor="middle" x="765.5" y="-871" font-family="Helvetica,sans-Serif" font-size="10.00">lexer_init</text>
</a>
</g>
</g>
<!-- Node9&#45;&gt;Node139 -->
<g id="edge58" class="edge">
<title>Node9&#45;&gt;Node139</title>
<path fill="none" stroke="#63b8ff" d="M627.97,-748.27C638.69,-770.63 668.04,-825.84 709,-855.5 713.78,-858.96 719.27,-861.78 724.88,-864.07"/>
<polygon fill="#63b8ff" stroke="#63b8ff" points="723.76,-867.39 734.36,-867.44 726.11,-860.79 723.76,-867.39"/>
</g>
<!-- Node140 -->
<g id="node46" class="node">
<title>Node140</title>
<g id="a_node46"><a xlink:href="parser__init_8c.html#a7a5dc445fa057a393d0b94590acea2f1" target="_top" xlink:title=" ">
<polygon fill="white" stroke="#666666" points="799.5,-671 731.5,-671 731.5,-652 799.5,-652 799.5,-671"/>
<text text-anchor="middle" x="765.5" y="-659" font-family="Helvetica,sans-Serif" font-size="10.00">parser_init</text>
</a>
</g>
</g>
<!-- Node9&#45;&gt;Node140 -->
<g id="edge59" class="edge">
<title>Node9&#45;&gt;Node140</title>
<path fill="none" stroke="#63b8ff" d="M641.07,-728.9C665.35,-715.65 709.35,-691.62 737.73,-676.12"/>
<polygon fill="#63b8ff" stroke="#63b8ff" points="739.61,-679.08 746.71,-671.22 736.25,-672.94 739.61,-679.08"/>
</g>
<!-- Node10&#45;&gt;Node10 -->
<g id="edge10" class="edge">
<title>Node10&#45;&gt;Node10</title>
<path fill="none" stroke="#63b8ff" d="M1203.46,-821.08C1191.76,-829.73 1199.77,-839 1227.5,-839 1245.7,-839 1255.4,-835.01 1256.62,-829.82"/>
<polygon fill="#63b8ff" stroke="#63b8ff" points="1259.59,-827.97 1251.54,-821.08 1253.54,-831.49 1259.59,-827.97"/>
</g>
<!-- Node11 -->
<g id="node11" class="node">
<title>Node11</title>
<g id="a_node11"><a xlink:href="misc_8h.html#a1180cae2875b1fdcd58c9f9175a82c12" target="_top" xlink:title=" ">
<polygon fill="white" stroke="#666666" points="1442,-821 1325,-821 1325,-802 1442,-802 1442,-821"/>
<text text-anchor="middle" x="1383.5" y="-809" font-family="Helvetica,sans-Serif" font-size="10.00">my_free_word_array</text>
</a>
</g>
</g>
<!-- Node10&#45;&gt;Node11 -->
<g id="edge11" class="edge">
<title>Node10&#45;&gt;Node11</title>
<path fill="none" stroke="#63b8ff" d="M1264.61,-811.5C1279.62,-811.5 1297.55,-811.5 1314.85,-811.5"/>
<polygon fill="#63b8ff" stroke="#63b8ff" points="1314.93,-815 1324.93,-811.5 1314.93,-808 1314.93,-815"/>
</g>
<!-- Node13 -->
<g id="node13" class="node">
<title>Node13</title>
<g id="a_node13"><a xlink:href="lexer__init_8c.html#a592247dc9c102c884630b41389a1b38b" target="_top" xlink:title=" ">
<polygon fill="white" stroke="#666666" points="957.5,-695 874.5,-695 874.5,-676 957.5,-676 957.5,-695"/>
<text text-anchor="middle" x="916" y="-683" font-family="Helvetica,sans-Serif" font-size="10.00">lexer_destroy</text>
</a>
</g>
</g>
<!-- Node12&#45;&gt;Node13 -->
<g id="edge13" class="edge">
<title>Node12&#45;&gt;Node13</title>
<path fill="none" stroke="#63b8ff" d="M822.22,-705.49C835.99,-702.53 850.67,-699.36 864.2,-696.45"/>
<polygon fill="#63b8ff" stroke="#63b8ff" points="865.24,-699.8 874.28,-694.27 863.77,-692.96 865.24,-699.8"/>
</g>
<!-- Node14 -->
<g id="node14" class="node">
<title>Node14</title>
<g id="a_node14"><a xlink:href="parser__destroy_8c.html#ae2656460a6fc6b6cd65624312fe0c943" target="_top" xlink:title=" ">
<polygon fill="white" stroke="#666666" points="960.5,-732 871.5,-732 871.5,-713 960.5,-713 960.5,-732"/>
<text text-anchor="middle" x="916" y="-720" font-family="Helvetica,sans-Serif" font-size="10.00">parser_destroy</text>
</a>
</g>
</g>
<!-- Node12&#45;&gt;Node14 -->
<g id="edge14" class="edge">
<title>Node12&#45;&gt;Node14</title>
<path fill="none" stroke="#63b8ff" d="M822.22,-719.38C834.82,-719.8 848.18,-720.25 860.73,-720.67"/>
<polygon fill="#63b8ff" stroke="#63b8ff" points="860.92,-724.18 871.03,-721.02 861.16,-717.18 860.92,-724.18"/>
</g>
<!-- Node15 -->
<g id="node15" class="node">
<title>Node15</title>
<g id="a_node15"><a xlink:href="destroy__token_8c.html#ad1a471ee7b1ccb035d769be1152a370c" target="_top" xlink:title=" ">
<polygon fill="white" stroke="#666666" points="1113,-714 1027,-714 1027,-695 1113,-695 1113,-714"/>
<text text-anchor="middle" x="1070" y="-702" font-family="Helvetica,sans-Serif" font-size="10.00">token_destroy</text>
</a>
</g>
</g>
<!-- Node14&#45;&gt;Node15 -->
<g id="edge15" class="edge">
<title>Node14&#45;&gt;Node15</title>
<path fill="none" stroke="#63b8ff" d="M960.56,-717.34C978.1,-715.26 998.48,-712.85 1016.81,-710.68"/>
<polygon fill="#63b8ff" stroke="#63b8ff" points="1017.23,-714.16 1026.75,-709.5 1016.4,-707.2 1017.23,-714.16"/>
</g>
<!-- Node17 -->
<g id="node17" class="node">
<title>Node17</title>
<g id="a_node17"><a xlink:href="execute__cmd_8c.html#a94ea9cc5a046ce96e36764bf0e4fa2c0" target="_top" xlink:title=" ">
<polygon fill="white" stroke="#666666" points="956.5,-206 875.5,-206 875.5,-187 956.5,-187 956.5,-206"/>
<text text-anchor="middle" x="916" y="-194" font-family="Helvetica,sans-Serif" font-size="10.00">execute_cmd</text>
</a>
</g>
</g>
<!-- Node16&#45;&gt;Node17 -->
<g id="edge17" class="edge">
<title>Node16&#45;&gt;Node17</title>
<path fill="none" stroke="#63b8ff" d="M770.57,-412.77C782.04,-385.93 816.51,-309.13 858,-253.5 869.15,-238.55 884.13,-223.72 895.94,-212.94"/>
<polygon fill="#63b8ff" stroke="#63b8ff" points="898.4,-215.44 903.52,-206.17 893.73,-210.22 898.4,-215.44"/>
</g>
<!-- Node32 -->
<g id="node24" class="node">
<title>Node32</title>
<g id="a_node24"><a xlink:href="execute__logical__and_8c.html#a4f940752faf9f9a258c49810b21efe47" target="_top" xlink:title=" ">
<polygon fill="white" stroke="#666666" points="974,-319 858,-319 858,-300 974,-300 974,-319"/>
<text text-anchor="middle" x="916" y="-307" font-family="Helvetica,sans-Serif" font-size="10.00">execute_logical_and</text>
</a>
</g>
</g>
<!-- Node16&#45;&gt;Node32 -->
<g id="edge25" class="edge">
<title>Node16&#45;&gt;Node32</title>
<path fill="none" stroke="#63b8ff" d="M770.89,-412.8C783.19,-392.8 819.57,-349.95 858,-324.5 858.09,-324.44 858.18,-324.38 858.27,-324.32"/>
<polygon fill="#63b8ff" stroke="#63b8ff" points="860.21,-327.24 867.03,-319.13 856.64,-321.22 860.21,-327.24"/>
</g>
<!-- Node33 -->
<g id="node25" class="node">
<title>Node33</title>
<g id="a_node25"><a xlink:href="execute__logical__or_8c.html#a7e732d7c30b07010fa55850051007dcc" target="_top" xlink:title=" ">
<polygon fill="white" stroke="#666666" points="969.5,-282 862.5,-282 862.5,-263 969.5,-263 969.5,-282"/>
<text text-anchor="middle" x="916" y="-270" font-family="Helvetica,sans-Serif" font-size="10.00">execute_logical_or</text>
</a>
</g>
</g>
<!-- Node16&#45;&gt;Node33 -->
<g id="edge27" class="edge">
<title>Node16&#45;&gt;Node33</title>
<path fill="none" stroke="#63b8ff" d="M768.95,-412.86C777.25,-388.02 806.23,-324.44 854.24,-284.91"/>
<polygon fill="#63b8ff" stroke="#63b8ff" points="856.69,-287.44 862.43,-278.54 852.39,-281.91 856.69,-287.44"/>
</g>
<!-- Node34 -->
<g id="node26" class="node">
<title>Node34</title>
<g id="a_node26"><a xlink:href="execute__pipe_8c.html#a5f3546dc2c7cf06c982afba41e722164" target="_top" xlink:title=" ">
<polygon fill="white" stroke="#666666" points="956.5,-582 875.5,-582 875.5,-563 956.5,-563 956.5,-582"/>
<text text-anchor="middle" x="916" y="-570" font-family="Helvetica,sans-Serif" font-size="10.00">execute_pipe</text>
</a>
</g>
</g>
<!-- Node16&#45;&gt;Node34 -->
<g id="edge29" class="edge">
<title>Node16&#45;&gt;Node34</title>
<path fill="none" stroke="#63b8ff" d="M771.11,-432.08C782.66,-455.15 815,-514.39 858,-548.5 862.97,-552.44 868.68,-555.84 874.52,-558.74"/>
<polygon fill="#63b8ff" stroke="#63b8ff" points="873.18,-561.97 883.73,-562.89 876.05,-555.59 873.18,-561.97"/>
</g>
<!-- Node39 -->
<g id="node33" class="node">
<title>Node39</title>
<g id="a_node33"><a xlink:href="execute__redirect_8c.html#a1004307aba80117ddd99f009e52fb155" target="_top" xlink:title=" ">
<polygon fill="white" stroke="#666666" points="965,-469 867,-469 867,-450 965,-450 965,-469"/>
<text text-anchor="middle" x="916" y="-457" font-family="Helvetica,sans-Serif" font-size="10.00">execute_redirect</text>
</a>
</g>
</g>
<!-- Node16&#45;&gt;Node39 -->
<g id="edge40" class="edge">
<title>Node16&#45;&gt;Node39</title>
<path fill="none" stroke="#63b8ff" d="M803.21,-431.65C822.4,-436.43 846.13,-442.34 866.78,-447.49"/>
<polygon fill="#63b8ff" stroke="#63b8ff" points="866.09,-450.92 876.64,-449.94 867.79,-444.13 866.09,-450.92"/>
</g>
<!-- Node47 -->
<g id="node37" class="node">
<title>Node47</title>
<g id="a_node37"><a xlink:href="execute__repeat_8c.html#a00d48683c54b50130b4a402e6e97fa97" target="_top" xlink:title=" ">
<polygon fill="white" stroke="#666666" points="962,-432 870,-432 870,-413 962,-413 962,-432"/>
<text text-anchor="middle" x="916" y="-420" font-family="Helvetica,sans-Serif" font-size="10.00">execute_repeat</text>
</a>
</g>
</g>
<!-- Node16&#45;&gt;Node47 -->
<g id="edge45" class="edge">
<title>Node16&#45;&gt;Node47</title>
<path fill="none" stroke="#63b8ff" d="M803.21,-416.58C820.32,-415.75 841.03,-415.54 859.96,-415.96"/>
<polygon fill="#63b8ff" stroke="#63b8ff" points="859.87,-419.45 869.96,-416.24 860.07,-412.46 859.87,-419.45"/>
</g>
<!-- Node48 -->
<g id="node38" class="node">
<title>Node48</title>
<g id="a_node38"><a xlink:href="execute__sequence_8c.html#aad2caa5bf50b0752dd8272da477ec231" target="_top" xlink:title=" ">
<polygon fill="white" stroke="#666666" points="969.5,-395 862.5,-395 862.5,-376 969.5,-376 969.5,-395"/>
<text text-anchor="middle" x="916" y="-383" font-family="Helvetica,sans-Serif" font-size="10.00">execute_sequence</text>
</a>
</g>
</g>
<!-- Node16&#45;&gt;Node48 -->
<g id="edge47" class="edge">
<title>Node16&#45;&gt;Node48</title>
<path fill="none" stroke="#63b8ff" d="M785.91,-412.93C802.91,-407.09 828.57,-400.05 852.55,-394.39"/>
<polygon fill="#63b8ff" stroke="#63b8ff" points="853.38,-397.79 862.34,-392.13 851.81,-390.97 853.38,-397.79"/>
</g>
<!-- Node49 -->
<g id="node39" class="node">
<title>Node49</title>
<g id="a_node39"><a xlink:href="execute__subshell_8c.html#a40a27866de012b013a337f794a858d70" target="_top" xlink:title=" ">
<polygon fill="white" stroke="#666666" points="966.5,-506 865.5,-506 865.5,-487 966.5,-487 966.5,-506"/>
<text text-anchor="middle" x="916" y="-494" font-family="Helvetica,sans-Serif" font-size="10.00">execute_subshell</text>
</a>
</g>
</g>
<!-- Node16&#45;&gt;Node49 -->
<g id="edge49" class="edge">
<title>Node16&#45;&gt;Node49</title>
<path fill="none" stroke="#63b8ff" d="M790.84,-432.16C808.77,-442.73 834.1,-458.61 858,-469.5 869.45,-474.72 882.84,-479.03 893.76,-483.08"/>
<polygon fill="#63b8ff" stroke="#63b8ff" points="892.75,-486.45 903.34,-486.91 895.35,-479.95 892.75,-486.45"/>
</g>
<!-- Node18 -->
<g id="node18" class="node">
<title>Node18</title>
<g id="a_node18"><a xlink:href="execute__cmd_8c.html#a0cfd2364134e68efdd39533e00b4b0d9" target="_top" xlink:title=" ">
<polygon fill="white" stroke="#666666" points="1287,-243 1168,-243 1168,-224 1287,-224 1287,-243"/>
<text text-anchor="middle" x="1227.5" y="-231" font-family="Helvetica,sans-Serif" font-size="10.00">execute_local_binary</text>
</a>
</g>
</g>
<!-- Node17&#45;&gt;Node18 -->
<g id="edge18" class="edge">
<title>Node17&#45;&gt;Node18</title>
<path fill="none" stroke="#63b8ff" d="M956.67,-205.12C973.11,-208.44 992.41,-212.03 1010,-214.5 1059.29,-221.41 1115.28,-226.25 1157.96,-229.31"/>
<polygon fill="#63b8ff" stroke="#63b8ff" points="1157.74,-232.8 1167.96,-230.01 1158.23,-225.82 1157.74,-232.8"/>
</g>
<!-- Node26 -->
<g id="node20" class="node">
<title>Node26</title>
<g id="a_node20"><a xlink:href="execute__cmd_8c.html#a460126af28ab29df4340554fae9fc57a" target="_top" xlink:title=" ">
<polygon fill="white" stroke="#666666" points="1129,-169 1011,-169 1011,-150 1129,-150 1129,-169"/>
<text text-anchor="middle" x="1070" y="-157" font-family="Helvetica,sans-Serif" font-size="10.00">execute_path_binary</text>
</a>
</g>
</g>
<!-- Node17&#45;&gt;Node26 -->
<g id="edge20" class="edge">
<title>Node17&#45;&gt;Node26</title>
<path fill="none" stroke="#63b8ff" d="M956.14,-186.97C975.57,-182.24 999.24,-176.48 1019.87,-171.46"/>
<polygon fill="#63b8ff" stroke="#63b8ff" points="1020.84,-174.83 1029.72,-169.06 1019.18,-168.02 1020.84,-174.83"/>
</g>
<!-- Node31 -->
<g id="node23" class="node">
<title>Node31</title>
<g id="a_node23"><a xlink:href="strings_8h.html#a36f055c4e56c8a784629908d0c5b91e5" target="_top" xlink:title=" ">
<polygon fill="white" stroke="#666666" points="1122,-206 1018,-206 1018,-187 1122,-187 1122,-206"/>
<text text-anchor="middle" x="1070" y="-194" font-family="Helvetica,sans-Serif" font-size="10.00">my_is_char_in_str</text>
</a>
</g>
</g>
<!-- Node17&#45;&gt;Node31 -->
<g id="edge24" class="edge">
<title>Node17&#45;&gt;Node31</title>
<path fill="none" stroke="#63b8ff" d="M956.54,-196.5C972.2,-196.5 990.57,-196.5 1007.87,-196.5"/>
<polygon fill="#63b8ff" stroke="#63b8ff" points="1007.9,-200 1017.9,-196.5 1007.9,-193 1007.9,-200"/>
</g>
<!-- Node19 -->
<g id="node19" class="node">
<title>Node19</title>
<g id="a_node19"><a xlink:href="execute__cmd_8c.html#a018afe6a043051ebc2e3dd9412587990" target="_top" xlink:title=" ">
<polygon fill="#fff0f0" stroke="red" points="1429,-206 1338,-206 1338,-187 1429,-187 1429,-206"/>
<text text-anchor="middle" x="1383.5" y="-194" font-family="Helvetica,sans-Serif" font-size="10.00">execute_binary</text>
</a>
</g>
</g>
<!-- Node18&#45;&gt;Node19 -->
<g id="edge19" class="edge">
<title>Node18&#45;&gt;Node19</title>
<path fill="none" stroke="#63b8ff" d="M1268.16,-223.97C1287.84,-219.24 1311.82,-213.48 1332.72,-208.46"/>
<polygon fill="#63b8ff" stroke="#63b8ff" points="1333.8,-211.8 1342.71,-206.06 1332.17,-204.99 1333.8,-211.8"/>
</g>
<!-- Node27 -->
<g id="node21" class="node">
<title>Node27</title>
<g id="a_node21"><a xlink:href="get__variable__value_8c.html#a2edd9900f19af236aa05385a789be3d6" target="_top" xlink:title=" ">
<polygon fill="#fff0f0" stroke="red" points="1282.5,-206 1172.5,-206 1172.5,-187 1282.5,-187 1282.5,-206"/>
<text text-anchor="middle" x="1227.5" y="-194" font-family="Helvetica,sans-Serif" font-size="10.00">get_variable_value</text>
</a>
</g>
</g>
<!-- Node26&#45;&gt;Node27 -->
<g id="edge21" class="edge">
<title>Node26&#45;&gt;Node27</title>
<path fill="none" stroke="#63b8ff" d="M1111.05,-169.03C1131.01,-173.78 1155.35,-179.57 1176.53,-184.61"/>
<polygon fill="#63b8ff" stroke="#63b8ff" points="1175.78,-188.03 1186.32,-186.94 1177.4,-181.22 1175.78,-188.03"/>
</g>
<!-- Node29 -->
<g id="node22" class="node">
<title>Node29</title>
<g id="a_node22"><a xlink:href="execute__cmd_8c.html#aee9e13edede9df28fac066f30e7ae7ed" target="_top" xlink:title=" ">
<polygon fill="#fff0f0" stroke="red" points="1269.5,-169 1185.5,-169 1185.5,-150 1269.5,-150 1269.5,-169"/>
<text text-anchor="middle" x="1227.5" y="-157" font-family="Helvetica,sans-Serif" font-size="10.00">try_command</text>
</a>
</g>
</g>
<!-- Node26&#45;&gt;Node29 -->
<g id="edge22" class="edge">
<title>Node26&#45;&gt;Node29</title>
<path fill="none" stroke="#63b8ff" d="M1129.34,-159.5C1144.32,-159.5 1160.33,-159.5 1174.94,-159.5"/>
<polygon fill="#63b8ff" stroke="#63b8ff" points="1175.29,-163 1185.29,-159.5 1175.29,-156 1175.29,-163"/>
</g>
<!-- Node29&#45;&gt;Node19 -->
<g id="edge23" class="edge">
<title>Node29&#45;&gt;Node19</title>
<path fill="none" stroke="#63b8ff" d="M1268.16,-169.03C1287.84,-173.76 1311.82,-179.52 1332.72,-184.54"/>
<polygon fill="#63b8ff" stroke="#63b8ff" points="1332.17,-188.01 1342.71,-186.94 1333.8,-181.2 1332.17,-188.01"/>
</g>
<!-- Node32&#45;&gt;Node16 -->
<g id="edge26" class="edge">
<title>Node32&#45;&gt;Node16</title>
<path fill="none" stroke="#63b8ff" d="M904.33,-319.21C892.42,-325.49 872.86,-332.66 858,-342.5 830.6,-360.65 804.24,-387.63 786.91,-405.38"/>
<polygon fill="#63b8ff" stroke="#63b8ff" points="784.12,-403.23 779.61,-412.82 789.12,-408.13 784.12,-403.23"/>
</g>
<!-- Node33&#45;&gt;Node16 -->
<g id="edge28" class="edge">
<title>Node33&#45;&gt;Node16</title>
<path fill="none" stroke="#63b8ff" d="M898.72,-282.13C886.56,-286.05 870.03,-290.63 858,-299.5 819.82,-327.65 791.98,-376.67 777.59,-403.76"/>
<polygon fill="#63b8ff" stroke="#63b8ff" points="774.47,-402.19 772.91,-412.67 780.66,-405.44 774.47,-402.19"/>
</g>
<!-- Node35 -->
<g id="node27" class="node">
<title>Node35</title>
<g id="a_node27"><a xlink:href="execute__pipe_8c.html#a723ff799f939872d17f109a82342294e" target="_top" xlink:title=" ">
<polygon fill="white" stroke="#666666" points="1258.5,-582 1196.5,-582 1196.5,-563 1258.5,-563 1258.5,-582"/>
<text text-anchor="middle" x="1227.5" y="-570" font-family="Helvetica,sans-Serif" font-size="10.00">close_fds</text>
</a>
</g>
</g>
<!-- Node34&#45;&gt;Node35 -->
<g id="edge30" class="edge">
<title>Node34&#45;&gt;Node35</title>
<path fill="none" stroke="#63b8ff" d="M956.51,-572.5C1015.7,-572.5 1126.77,-572.5 1186.34,-572.5"/>
<polygon fill="#63b8ff" stroke="#63b8ff" points="1186.49,-576 1196.49,-572.5 1186.49,-569 1186.49,-576"/>
</g>
<!-- Node36 -->
<g id="node28" class="node">
<title>Node36</title>
<g id="a_node28"><a xlink:href="execute__pipe_8c.html#ac529ffc2370b0133613ef8a81e58ed85" target="_top" xlink:title=" ">
<polygon fill="white" stroke="#666666" points="1121,-620 1019,-620 1019,-601 1121,-601 1121,-620"/>
<text text-anchor="middle" x="1070" y="-608" font-family="Helvetica,sans-Serif" font-size="10.00">execute_pipe_left</text>
</a>
</g>
</g>
<!-- Node34&#45;&gt;Node36 -->
<g id="edge31" class="edge">
<title>Node34&#45;&gt;Node36</title>
<path fill="none" stroke="#63b8ff" d="M955.36,-582.09C975.32,-587.08 999.93,-593.23 1021.13,-598.53"/>
<polygon fill="#63b8ff" stroke="#63b8ff" points="1020.37,-601.95 1030.92,-600.98 1022.07,-595.16 1020.37,-601.95"/>
</g>
<!-- Node37 -->
<g id="node29" class="node">
<title>Node37</title>
<g id="a_node29"><a xlink:href="execute__pipe_8c.html#a9ed6eabb8a9f7049f91265a5f45e30c8" target="_top" xlink:title=" ">
<polygon fill="white" stroke="#666666" points="1124.5,-544 1015.5,-544 1015.5,-525 1124.5,-525 1124.5,-544"/>
<text text-anchor="middle" x="1070" y="-532" font-family="Helvetica,sans-Serif" font-size="10.00">execute_pipe_right</text>
</a>
</g>
</g>
<!-- Node34&#45;&gt;Node37 -->
<g id="edge34" class="edge">
<title>Node34&#45;&gt;Node37</title>
<path fill="none" stroke="#63b8ff" d="M955.36,-562.91C975.32,-557.92 999.93,-551.77 1021.13,-546.47"/>
<polygon fill="#63b8ff" stroke="#63b8ff" points="1022.07,-549.84 1030.92,-544.02 1020.37,-543.05 1022.07,-549.84"/>
</g>
<!-- Node34&#45;&gt;Node24 -->
<g id="edge38" class="edge">
<title>Node34&#45;&gt;Node24</title>
<path fill="none" stroke="#63b8ff" d="M930.66,-562.98C948.35,-550.97 980.42,-530.22 1010,-516.5 1015.41,-513.99 1021.22,-511.64 1027.01,-509.49"/>
<polygon fill="#63b8ff" stroke="#63b8ff" points="1028.41,-512.7 1036.66,-506.07 1026.07,-506.11 1028.41,-512.7"/>
</g>
<!-- Node36&#45;&gt;Node16 -->
<g id="edge33" class="edge">
<title>Node36&#45;&gt;Node16</title>
<path fill="none" stroke="#63b8ff" d="M1018.62,-618.6C972.92,-623.2 905.62,-622.85 858,-591.5 804.46,-556.25 779.75,-478.72 770.75,-442.23"/>
<polygon fill="#63b8ff" stroke="#63b8ff" points="774.12,-441.26 768.44,-432.31 767.3,-442.85 774.12,-441.26"/>
</g>
<!-- Node36&#45;&gt;Node35 -->
<g id="edge32" class="edge">
<title>Node36&#45;&gt;Node35</title>
<path fill="none" stroke="#63b8ff" d="M1110.24,-600.91C1133.44,-595.24 1162.76,-588.08 1186.15,-582.36"/>
<polygon fill="#63b8ff" stroke="#63b8ff" points="1187.22,-585.7 1196.1,-579.93 1185.56,-578.9 1187.22,-585.7"/>
</g>
<!-- Node37&#45;&gt;Node16 -->
<g id="edge36" class="edge">
<title>Node37&#45;&gt;Node16</title>
<path fill="none" stroke="#63b8ff" d="M1015.2,-539.59C970.89,-541.52 907.54,-538.93 858,-515.5 822.7,-498.81 793.46,-462.43 778.11,-440.45"/>
<polygon fill="#63b8ff" stroke="#63b8ff" points="780.91,-438.33 772.41,-432 775.11,-442.25 780.91,-438.33"/>
</g>
<!-- Node37&#45;&gt;Node35 -->
<g id="edge35" class="edge">
<title>Node37&#45;&gt;Node35</title>
<path fill="none" stroke="#63b8ff" d="M1110.24,-544.09C1133.44,-549.76 1162.76,-556.92 1186.15,-562.64"/>
<polygon fill="#63b8ff" stroke="#63b8ff" points="1185.56,-566.1 1196.1,-565.07 1187.22,-559.3 1185.56,-566.1"/>
</g>
<!-- Node38 -->
<g id="node30" class="node">
<title>Node38</title>
<g id="a_node30"><a xlink:href="execute__pipe_8c.html#ac3d3a124b262676fa0679720f99a7f83" target="_top" xlink:title=" ">
<polygon fill="white" stroke="#666666" points="1267.5,-544 1187.5,-544 1187.5,-525 1267.5,-525 1267.5,-544"/>
<text text-anchor="middle" x="1227.5" y="-532" font-family="Helvetica,sans-Serif" font-size="10.00">restore_stdin</text>
</a>
</g>
</g>
<!-- Node37&#45;&gt;Node38 -->
<g id="edge37" class="edge">
<title>Node37&#45;&gt;Node38</title>
<path fill="none" stroke="#63b8ff" d="M1124.51,-534.5C1141.54,-534.5 1160.29,-534.5 1177.01,-534.5"/>
<polygon fill="#63b8ff" stroke="#63b8ff" points="1177.13,-538 1187.13,-534.5 1177.13,-531 1177.13,-538"/>
</g>
<!-- Node25 -->
<g id="node32" class="node">
<title>Node25</title>
<g id="a_node32"><a xlink:href="wait__for__subprocess_8c.html#a885766ba6ba593b7cf27b917dd52b1a6" target="_top" xlink:title=" ">
<polygon fill="white" stroke="#666666" points="1289,-506 1166,-506 1166,-487 1289,-487 1289,-506"/>
<text text-anchor="middle" x="1227.5" y="-494" font-family="Helvetica,sans-Serif" font-size="10.00">print_signal_message</text>
</a>
</g>
</g>
<!-- Node24&#45;&gt;Node25 -->
<g id="edge39" class="edge">
<title>Node24&#45;&gt;Node25</title>
<path fill="none" stroke="#63b8ff" d="M1128.02,-496.5C1137.06,-496.5 1146.5,-496.5 1155.81,-496.5"/>
<polygon fill="#63b8ff" stroke="#63b8ff" points="1155.83,-500 1165.83,-496.5 1155.83,-493 1155.83,-500"/>
</g>
<!-- Node40 -->
<g id="node34" class="node">
<title>Node40</title>
<g id="a_node34"><a xlink:href="execute__redirect_8c.html#a5aa0f008806cc0e8a7ba252d61b7001f" target="_top" xlink:title=" ">
<polygon fill="white" stroke="#666666" points="1123.5,-395 1016.5,-395 1016.5,-376 1123.5,-376 1123.5,-395"/>
<text text-anchor="middle" x="1070" y="-383" font-family="Helvetica,sans-Serif" font-size="10.00">redirect_execution</text>
</a>
</g>
</g>
<!-- Node39&#45;&gt;Node40 -->
<g id="edge41" class="edge">
<title>Node39&#45;&gt;Node40</title>
<path fill="none" stroke="#63b8ff" d="M951.53,-449.98C959.06,-447.53 966.89,-444.67 974,-441.5 1000,-429.91 1027.84,-412.9 1046.62,-400.67"/>
<polygon fill="#63b8ff" stroke="#63b8ff" points="1048.64,-403.52 1055.06,-395.09 1044.78,-397.68 1048.64,-403.52"/>
</g>
<!-- Node40&#45;&gt;Node16 -->
<g id="edge42" class="edge">
<title>Node40&#45;&gt;Node16</title>
<path fill="none" stroke="#63b8ff" d="M1037.26,-375.97C995.4,-364.94 919.82,-350.35 858,-367.5 830.78,-375.05 803.53,-393.11 785.94,-406.49"/>
<polygon fill="#63b8ff" stroke="#63b8ff" points="783.38,-404.05 777.68,-412.97 787.71,-409.55 783.38,-404.05"/>
</g>
<!-- Node41 -->
<g id="node35" class="node">
<title>Node41</title>
<g id="a_node35"><a xlink:href="execute__redirect_8c.html#a1b8f325fc375581f81ae47a54e09cf0e" target="_top" xlink:title=" ">
<polygon fill="white" stroke="#666666" points="1260.5,-376 1194.5,-376 1194.5,-357 1260.5,-357 1260.5,-376"/>
<text text-anchor="middle" x="1227.5" y="-364" font-family="Helvetica,sans-Serif" font-size="10.00">restore_fd</text>
</a>
</g>
</g>
<!-- Node40&#45;&gt;Node41 -->
<g id="edge43" class="edge">
<title>Node40&#45;&gt;Node41</title>
<path fill="none" stroke="#63b8ff" d="M1123.65,-379.07C1143.42,-376.65 1165.62,-373.94 1184.32,-371.65"/>
<polygon fill="#63b8ff" stroke="#63b8ff" points="1184.81,-375.12 1194.32,-370.43 1183.96,-368.17 1184.81,-375.12"/>
</g>
<!-- Node42 -->
<g id="node36" class="node">
<title>Node42</title>
<g id="a_node36"><a xlink:href="execute__redirect_8c.html#a6cb002bd51f2009eaacc66d388c5f9a7" target="_top" xlink:title=" ">
<polygon fill="#fff0f0" stroke="red" points="1278,-413 1177,-413 1177,-394 1278,-394 1278,-413"/>
<text text-anchor="middle" x="1227.5" y="-401" font-family="Helvetica,sans-Serif" font-size="10.00">setup_redirection</text>
</a>
</g>
</g>
<!-- Node40&#45;&gt;Node42 -->
<g id="edge44" class="edge">
<title>Node40&#45;&gt;Node42</title>
<path fill="none" stroke="#63b8ff" d="M1123.65,-391.59C1137.47,-393.19 1152.48,-394.93 1166.66,-396.57"/>
<polygon fill="#63b8ff" stroke="#63b8ff" points="1166.46,-400.07 1176.8,-397.75 1167.27,-393.12 1166.46,-400.07"/>
</g>
<!-- Node47&#45;&gt;Node16 -->
<g id="edge46" class="edge">
<title>Node47&#45;&gt;Node16</title>
<path fill="none" stroke="#63b8ff" d="M869.96,-428.76C852.02,-429.39 831.37,-429.41 813.26,-428.82"/>
<polygon fill="#63b8ff" stroke="#63b8ff" points="813.34,-425.32 803.21,-428.42 813.06,-432.32 813.34,-425.32"/>
</g>
<!-- Node48&#45;&gt;Node16 -->
<g id="edge48" class="edge">
<title>Node48&#45;&gt;Node16</title>
<path fill="none" stroke="#63b8ff" d="M895.51,-395.09C874.68,-402.25 840.9,-411.19 813.13,-417.2"/>
<polygon fill="#63b8ff" stroke="#63b8ff" points="812.28,-413.8 803.21,-419.27 813.71,-420.65 812.28,-413.8"/>
</g>
<!-- Node49&#45;&gt;Node16 -->
<g id="edge50" class="edge">
<title>Node49&#45;&gt;Node16</title>
<path fill="none" stroke="#63b8ff" d="M865.29,-490.6C862.8,-489.61 860.36,-488.58 858,-487.5 829.16,-474.36 798.24,-453.95 780.74,-439.09"/>
<polygon fill="#63b8ff" stroke="#63b8ff" points="783.04,-436.46 773.29,-432.3 778.32,-441.63 783.04,-436.46"/>
</g>
<!-- Node49&#45;&gt;Node24 -->
<g id="edge51" class="edge">
<title>Node49&#45;&gt;Node24</title>
<path fill="none" stroke="#63b8ff" d="M966.77,-496.5C977.95,-496.5 990,-496.5 1001.76,-496.5"/>
<polygon fill="#63b8ff" stroke="#63b8ff" points="1002,-500 1012,-496.5 1002,-493 1002,-500"/>
</g>
<!-- Node51 -->
<g id="node41" class="node">
<title>Node51</title>
<g id="a_node41"><a xlink:href="empty__stdin_8c.html#a4c89df10296f2cc245e3a32065e04e7b" target="_top" xlink:title=" ">
<polygon fill="white" stroke="#666666" points="954.5,-846 877.5,-846 877.5,-827 954.5,-827 954.5,-846"/>
<text text-anchor="middle" x="916" y="-834" font-family="Helvetica,sans-Serif" font-size="10.00">empty_stdin</text>
</a>
</g>
</g>
<!-- Node50&#45;&gt;Node51 -->
<g id="edge53" class="edge">
<title>Node50&#45;&gt;Node51</title>
<path fill="none" stroke="#63b8ff" d="M811.05,-836.5C828.85,-836.5 849.37,-836.5 867.45,-836.5"/>
<polygon fill="#63b8ff" stroke="#63b8ff" points="867.49,-840 877.49,-836.5 867.49,-833 867.49,-840"/>
</g>
<!-- Node52 -->
<g id="node42" class="node">
<title>Node52</title>
<g id="a_node42"><a xlink:href="shell_8c.html#a2c9bd51744387dc73763281019d78622" target="_top" xlink:title=" ">
<polygon fill="white" stroke="#666666" points="948,-883 884,-883 884,-864 948,-864 948,-883"/>
<text text-anchor="middle" x="916" y="-871" font-family="Helvetica,sans-Serif" font-size="10.00">parse_ast</text>
</a>
</g>
</g>
<!-- Node50&#45;&gt;Node52 -->
<g id="edge54" class="edge">
<title>Node50&#45;&gt;Node52</title>
<path fill="none" stroke="#63b8ff" d="M804.74,-846.03C825.96,-851.31 852.35,-857.89 874,-863.28"/>
<polygon fill="#63b8ff" stroke="#63b8ff" points="873.33,-866.73 883.88,-865.75 875.03,-859.93 873.33,-866.73"/>
</g>
<!-- Node53 -->
<g id="node43" class="node">
<title>Node53</title>
<g id="a_node43"><a xlink:href="parser__parse_8c.html#ab56c1f0e36fe941facfe258418c2cc72" target="_top" xlink:title=" ">
<polygon fill="#fff0f0" stroke="red" points="1110,-873 1030,-873 1030,-854 1110,-854 1110,-873"/>
<text text-anchor="middle" x="1070" y="-861" font-family="Helvetica,sans-Serif" font-size="10.00">parser_parse</text>
</a>
</g>
</g>
<!-- Node52&#45;&gt;Node53 -->
<g id="edge55" class="edge">
<title>Node52&#45;&gt;Node53</title>
<path fill="none" stroke="#63b8ff" d="M948.13,-871.45C968.71,-870.1 996.12,-868.29 1019.64,-866.75"/>
<polygon fill="#63b8ff" stroke="#63b8ff" points="1020.05,-870.23 1029.79,-866.08 1019.59,-863.24 1020.05,-870.23"/>
</g>
<!-- Node52&#45;&gt;Node138 -->
<g id="edge57" class="edge">
<title>Node52&#45;&gt;Node138</title>
<path fill="none" stroke="#63b8ff" d="M948.2,-864.11C956.62,-861.45 965.69,-858.47 974,-855.5 995.27,-847.9 1018.85,-838.48 1037.19,-830.91"/>
<polygon fill="#63b8ff" stroke="#63b8ff" points="1038.64,-834.1 1046.53,-827.04 1035.95,-827.64 1038.64,-834.1"/>
</g>
<!-- Node53&#45;&gt;Node10 -->
<g id="edge56" class="edge">
<title>Node53&#45;&gt;Node10</title>
<path fill="none" stroke="#63b8ff" d="M1099.52,-853.96C1124.43,-845.63 1160.79,-833.47 1188.23,-824.3"/>
<polygon fill="#63b8ff" stroke="#63b8ff" points="1189.52,-827.56 1197.9,-821.07 1187.3,-820.92 1189.52,-827.56"/>
</g>
<!-- Node77 -->
<g id="node47" class="node">
<title>Node77</title>
<g id="a_node47"><a xlink:href="parser__next_8c.html#ad25986b565a767c6ad7d0b0b8846fca6" target="_top" xlink:title=" ">
<polygon fill="white" stroke="#666666" points="953,-658 879,-658 879,-639 953,-639 953,-658"/>
<text text-anchor="middle" x="916" y="-646" font-family="Helvetica,sans-Serif" font-size="10.00">parser_next</text>
</a>
</g>
</g>
<!-- Node140&#45;&gt;Node77 -->
<g id="edge60" class="edge">
<title>Node140&#45;&gt;Node77</title>
<path fill="none" stroke="#63b8ff" d="M799.83,-658.58C820.13,-656.81 846.36,-654.51 868.67,-652.56"/>
<polygon fill="#63b8ff" stroke="#63b8ff" points="869.27,-656.02 878.93,-651.66 868.66,-649.04 869.27,-656.02"/>
</g>
<!-- Node77&#45;&gt;Node15 -->
<g id="edge62" class="edge">
<title>Node77&#45;&gt;Node15</title>
<path fill="none" stroke="#63b8ff" d="M946.68,-658.08C955.5,-661.02 965.17,-664.31 974,-667.5 994.74,-674.99 1017.8,-683.96 1036,-691.18"/>
<polygon fill="#63b8ff" stroke="#63b8ff" points="1034.72,-694.44 1045.31,-694.9 1037.32,-687.94 1034.72,-694.44"/>
</g>
<!-- Node78 -->
<g id="node48" class="node">
<title>Node78</title>
<g id="a_node48"><a xlink:href="lexer__next__token_8c.html#a3def5432329709fb4df861d90672c510" target="_top" xlink:title=" ">
<polygon fill="#fff0f0" stroke="red" points="1120,-658 1020,-658 1020,-639 1120,-639 1120,-658"/>
<text text-anchor="middle" x="1070" y="-646" font-family="Helvetica,sans-Serif" font-size="10.00">lexer_next_token</text>
</a>
</g>
</g>
<!-- Node77&#45;&gt;Node78 -->
<g id="edge61" class="edge">
<title>Node77&#45;&gt;Node78</title>
<path fill="none" stroke="#63b8ff" d="M953.02,-648.5C969.91,-648.5 990.49,-648.5 1009.6,-648.5"/>
<polygon fill="#63b8ff" stroke="#63b8ff" points="1009.72,-652 1019.72,-648.5 1009.72,-645 1009.72,-652"/>
</g>
<!-- Node98&#45;&gt;Node6 -->
<g id="edge66" class="edge">
<title>Node98&#45;&gt;Node6</title>
<path fill="none" stroke="#63b8ff" d="M315.01,-48.76C369.29,-50.67 459.27,-55.34 536,-66.5 548.46,-68.31 561.81,-70.94 574.16,-73.67"/>
<polygon fill="#63b8ff" stroke="#63b8ff" points="573.74,-77.16 584.27,-75.96 575.29,-70.33 573.74,-77.16"/>
</g>
<!-- Node98&#45;&gt;Node99 -->
<g id="edge67" class="edge">
<title>Node98&#45;&gt;Node99</title>
<path fill="none" stroke="#63b8ff" d="M314.83,-37.96C341.19,-32.81 373.92,-26.42 401.67,-20.99"/>
<polygon fill="#63b8ff" stroke="#63b8ff" points="402.51,-24.4 411.65,-19.04 401.16,-17.53 402.51,-24.4"/>
</g>
</g>
</svg>
