<?xml version="1.0" encoding="UTF-8" standalone="no"?>
<!DOCTYPE svg PUBLIC "-//W3C//DTD SVG 1.1//EN"
 "http://www.w3.org/Graphics/SVG/1.1/DTD/svg11.dtd">
<!-- Generated by graphviz version 2.43.0 (0)
 -->
<!-- Title: src/lexer/lexer_expand_alias.c Pages: 1 -->
<svg width="353pt" height="258pt"
 viewBox="0.00 0.00 353.00 258.00" xmlns="http://www.w3.org/2000/svg" xmlns:xlink="http://www.w3.org/1999/xlink">
<g id="graph0" class="graph" transform="scale(1 1) rotate(0) translate(4 254)">
<title>src/lexer/lexer_expand_alias.c</title>
<!-- Node1 -->
<g id="node1" class="node">
<title>Node1</title>
<g id="a_node1"><a xlink:title=" ">
<polygon fill="#999999" stroke="#666666" points="215.5,-250 89.5,-250 89.5,-220 215.5,-220 215.5,-250"/>
<text text-anchor="start" x="97.5" y="-238" font-family="Helvetica,sans-Serif" font-size="10.00">src/lexer/lexer_expand</text>
<text text-anchor="middle" x="152.5" y="-227" font-family="Helvetica,sans-Serif" font-size="10.00">_alias.c</text>
</a>
</g>
</g>
<!-- Node2 -->
<g id="node2" class="node">
<title>Node2</title>
<g id="a_node2"><a xlink:title=" ">
<polygon fill="#e0e0e0" stroke="#999999" points="53,-184 0,-184 0,-165 53,-165 53,-184"/>
<text text-anchor="middle" x="26.5" y="-172" font-family="Helvetica,sans-Serif" font-size="10.00">stdlib.h</text>
</a>
</g>
</g>
<!-- Node1&#45;&gt;Node2 -->
<g id="edge1" class="edge">
<title>Node1&#45;&gt;Node2</title>
<path fill="none" stroke="#63b8ff" d="M122.32,-219.99C101.67,-210.4 74.5,-197.79 54.37,-188.44"/>
<polygon fill="#63b8ff" stroke="#63b8ff" points="55.65,-185.18 45.11,-184.14 52.7,-191.52 55.65,-185.18"/>
</g>
<!-- Node3 -->
<g id="node3" class="node">
<title>Node3</title>
<g id="a_node3"><a xlink:title=" ">
<polygon fill="#e0e0e0" stroke="#999999" points="124,-184 71,-184 71,-165 124,-165 124,-184"/>
<text text-anchor="middle" x="97.5" y="-172" font-family="Helvetica,sans-Serif" font-size="10.00">string.h</text>
</a>
</g>
</g>
<!-- Node1&#45;&gt;Node3 -->
<g id="edge2" class="edge">
<title>Node1&#45;&gt;Node3</title>
<path fill="none" stroke="#63b8ff" d="M139.19,-219.84C131.2,-211.35 121.02,-200.52 112.72,-191.69"/>
<polygon fill="#63b8ff" stroke="#63b8ff" points="115.14,-189.15 105.74,-184.27 110.04,-193.95 115.14,-189.15"/>
</g>
<!-- Node4 -->
<g id="node4" class="node">
<title>Node4</title>
<g id="a_node4"><a xlink:href="lexer_8h.html" target="_top" xlink:title=" ">
<polygon fill="white" stroke="#666666" points="230,-184 181,-184 181,-165 230,-165 230,-184"/>
<text text-anchor="middle" x="205.5" y="-172" font-family="Helvetica,sans-Serif" font-size="10.00">lexer.h</text>
</a>
</g>
</g>
<!-- Node1&#45;&gt;Node4 -->
<g id="edge3" class="edge">
<title>Node1&#45;&gt;Node4</title>
<path fill="none" stroke="#63b8ff" d="M165.33,-219.84C173.02,-211.35 182.83,-200.52 190.83,-191.69"/>
<polygon fill="#63b8ff" stroke="#63b8ff" points="193.44,-194.03 197.56,-184.27 188.25,-189.33 193.44,-194.03"/>
</g>
<!-- Node7 -->
<g id="node7" class="node">
<title>Node7</title>
<g id="a_node7"><a xlink:href="shell_8h.html" target="_top" xlink:title=" ">
<polygon fill="white" stroke="#666666" points="145,-129 96,-129 96,-110 145,-110 145,-129"/>
<text text-anchor="middle" x="120.5" y="-117" font-family="Helvetica,sans-Serif" font-size="10.00">shell.h</text>
</a>
</g>
</g>
<!-- Node1&#45;&gt;Node7 -->
<g id="edge10" class="edge">
<title>Node1&#45;&gt;Node7</title>
<path fill="none" stroke="#63b8ff" d="M148.45,-219.63C142.67,-199.12 132.05,-161.47 125.7,-138.93"/>
<polygon fill="#63b8ff" stroke="#63b8ff" points="129.04,-137.9 122.96,-129.23 122.31,-139.8 129.04,-137.9"/>
</g>
<!-- Node9 -->
<g id="node9" class="node">
<title>Node9</title>
<g id="a_node9"><a xlink:href="token_8h.html" target="_top" xlink:title=" ">
<polygon fill="white" stroke="#666666" points="345,-129 292,-129 292,-110 345,-110 345,-129"/>
<text text-anchor="middle" x="318.5" y="-117" font-family="Helvetica,sans-Serif" font-size="10.00">token.h</text>
</a>
</g>
</g>
<!-- Node1&#45;&gt;Node9 -->
<g id="edge11" class="edge">
<title>Node1&#45;&gt;Node9</title>
<path fill="none" stroke="#63b8ff" d="M179.42,-219.94C196.95,-210.45 220.08,-197.27 239.5,-184 261.57,-168.92 285.26,-149.39 300.88,-135.99"/>
<polygon fill="#63b8ff" stroke="#63b8ff" points="303.39,-138.44 308.66,-129.24 298.81,-133.15 303.39,-138.44"/>
</g>
<!-- Node5 -->
<g id="node5" class="node">
<title>Node5</title>
<g id="a_node5"><a xlink:title=" ">
<polygon fill="#e0e0e0" stroke="#999999" points="172.5,-19 116.5,-19 116.5,0 172.5,0 172.5,-19"/>
<text text-anchor="middle" x="144.5" y="-7" font-family="Helvetica,sans-Serif" font-size="10.00">stddef.h</text>
</a>
</g>
</g>
<!-- Node4&#45;&gt;Node5 -->
<g id="edge4" class="edge">
<title>Node4&#45;&gt;Node5</title>
<path fill="none" stroke="#63b8ff" d="M202.22,-164.74C192.62,-139.09 164.44,-63.78 151.34,-28.78"/>
<polygon fill="#63b8ff" stroke="#63b8ff" points="154.58,-27.45 147.8,-19.31 148.02,-29.9 154.58,-27.45"/>
</g>
<!-- Node6 -->
<g id="node6" class="node">
<title>Node6</title>
<g id="a_node6"><a xlink:title=" ">
<polygon fill="#e0e0e0" stroke="#999999" points="273.5,-129 201.5,-129 201.5,-110 273.5,-110 273.5,-129"/>
<text text-anchor="middle" x="237.5" y="-117" font-family="Helvetica,sans-Serif" font-size="10.00">sys/types.h</text>
</a>
</g>
</g>
<!-- Node4&#45;&gt;Node6 -->
<g id="edge5" class="edge">
<title>Node4&#45;&gt;Node6</title>
<path fill="none" stroke="#63b8ff" d="M210.78,-164.75C215.21,-157.42 221.66,-146.73 227.12,-137.7"/>
<polygon fill="#63b8ff" stroke="#63b8ff" points="230.14,-139.46 232.31,-129.09 224.15,-135.84 230.14,-139.46"/>
</g>
<!-- Node4&#45;&gt;Node7 -->
<g id="edge6" class="edge">
<title>Node4&#45;&gt;Node7</title>
<path fill="none" stroke="#63b8ff" d="M191.84,-164.98C178.66,-156.77 158.47,-144.18 142.93,-134.49"/>
<polygon fill="#63b8ff" stroke="#63b8ff" points="144.74,-131.49 134.41,-129.17 141.04,-137.43 144.74,-131.49"/>
</g>
<!-- Node4&#45;&gt;Node9 -->
<g id="edge9" class="edge">
<title>Node4&#45;&gt;Node9</title>
<path fill="none" stroke="#63b8ff" d="M223.66,-164.98C241.75,-156.5 269.78,-143.35 290.69,-133.54"/>
<polygon fill="#63b8ff" stroke="#63b8ff" points="292.45,-136.59 300.01,-129.17 289.47,-130.25 292.45,-136.59"/>
</g>
<!-- Node8 -->
<g id="node8" class="node">
<title>Node8</title>
<g id="a_node8"><a xlink:href="list_8h.html" target="_top" xlink:title=" ">
<polygon fill="white" stroke="#666666" points="145,-74 86,-74 86,-55 145,-55 145,-74"/>
<text text-anchor="middle" x="115.5" y="-62" font-family="Helvetica,sans-Serif" font-size="10.00">my/list.h</text>
</a>
</g>
</g>
<!-- Node7&#45;&gt;Node8 -->
<g id="edge7" class="edge">
<title>Node7&#45;&gt;Node8</title>
<path fill="none" stroke="#63b8ff" d="M119.67,-109.75C119.02,-102.8 118.08,-92.85 117.26,-84.13"/>
<polygon fill="#63b8ff" stroke="#63b8ff" points="120.73,-83.72 116.31,-74.09 113.77,-84.37 120.73,-83.72"/>
</g>
<!-- Node8&#45;&gt;Node5 -->
<g id="edge8" class="edge">
<title>Node8&#45;&gt;Node5</title>
<path fill="none" stroke="#63b8ff" d="M120.29,-54.75C124.26,-47.49 130.03,-36.95 134.93,-27.98"/>
<polygon fill="#63b8ff" stroke="#63b8ff" points="138.07,-29.54 139.8,-19.09 131.93,-26.18 138.07,-29.54"/>
</g>
</g>
</svg>
