<?xml version="1.0" encoding="UTF-8" standalone="no"?>
<!DOCTYPE svg PUBLIC "-//W3C//DTD SVG 1.1//EN"
 "http://www.w3.org/Graphics/SVG/1.1/DTD/svg11.dtd">
<!-- Generated by graphviz version 2.43.0 (0)
 -->
<!-- Title: lexer_next_token Pages: 1 -->
<svg width="1455pt" height="1128pt"
 viewBox="0.00 0.00 1455.00 1128.00" xmlns="http://www.w3.org/2000/svg" xmlns:xlink="http://www.w3.org/1999/xlink">
<g id="graph0" class="graph" transform="scale(1 1) rotate(0) translate(4 1124)">
<title>lexer_next_token</title>
<!-- Node1 -->
<g id="node1" class="node">
<title>Node1</title>
<g id="a_node1"><a xlink:title=" ">
<polygon fill="#999999" stroke="#666666" points="100,-784 0,-784 0,-765 100,-765 100,-784"/>
<text text-anchor="middle" x="50" y="-772" font-family="Helvetica,sans-Serif" font-size="10.00">lexer_next_token</text>
</a>
</g>
</g>
<!-- Node2 -->
<g id="node2" class="node">
<title>Node2</title>
<g id="a_node2"><a xlink:href="create__token_8c.html#a15bcfc92177012893c626ce7d2d6bb6b" target="_top" xlink:title=" ">
<polygon fill="white" stroke="#666666" points="572,-915 492,-915 492,-896 572,-896 572,-915"/>
<text text-anchor="middle" x="532" y="-903" font-family="Helvetica,sans-Serif" font-size="10.00">create_token</text>
</a>
</g>
</g>
<!-- Node1&#45;&gt;Node2 -->
<g id="edge1" class="edge">
<title>Node1&#45;&gt;Node2</title>
<path fill="none" stroke="#63b8ff" d="M51.83,-784.09C55.27,-818.19 71.5,-934.87 136,-997.5 190.35,-1050.28 222.3,-1040.88 297,-1053.5 351.78,-1062.75 372.42,-1078.56 422,-1053.5 475.97,-1026.22 509.76,-958.24 523.68,-924.75"/>
<polygon fill="#63b8ff" stroke="#63b8ff" points="527.04,-925.78 527.5,-915.19 520.54,-923.18 527.04,-925.78"/>
</g>
<!-- Node3 -->
<g id="node3" class="node">
<title>Node3</title>
<g id="a_node3"><a xlink:href="lexer__next__token_8c.html#add2e1acaa9518ecf20b6670ad91a5c65" target="_top" xlink:title=" ">
<polygon fill="white" stroke="#666666" points="249.5,-988 147.5,-988 147.5,-969 249.5,-969 249.5,-988"/>
<text text-anchor="middle" x="198.5" y="-976" font-family="Helvetica,sans-Serif" font-size="10.00">get_logical_token</text>
</a>
</g>
</g>
<!-- Node1&#45;&gt;Node3 -->
<g id="edge2" class="edge">
<title>Node1&#45;&gt;Node3</title>
<path fill="none" stroke="#63b8ff" d="M57.87,-784.07C80.74,-815.92 154.57,-918.72 184.61,-960.55"/>
<polygon fill="#63b8ff" stroke="#63b8ff" points="181.8,-962.64 190.47,-968.72 187.48,-958.55 181.8,-962.64"/>
</g>
<!-- Node7 -->
<g id="node7" class="node">
<title>Node7</title>
<g id="a_node7"><a xlink:href="lexer__next__token_8c.html#abcee8a7ba5ea6ca80c0bd7e3dd8d9a32" target="_top" xlink:title=" ">
<polygon fill="white" stroke="#666666" points="259.5,-859 137.5,-859 137.5,-840 259.5,-840 259.5,-859"/>
<text text-anchor="middle" x="198.5" y="-847" font-family="Helvetica,sans-Serif" font-size="10.00">get_redirection_token</text>
</a>
</g>
</g>
<!-- Node1&#45;&gt;Node7 -->
<g id="edge9" class="edge">
<title>Node1&#45;&gt;Node7</title>
<path fill="none" stroke="#63b8ff" d="M69.85,-784.15C95.13,-797.09 140.19,-820.16 169.45,-835.14"/>
<polygon fill="#63b8ff" stroke="#63b8ff" points="168.22,-838.44 178.72,-839.89 171.41,-832.21 168.22,-838.44"/>
</g>
<!-- Node12 -->
<g id="node12" class="node">
<title>Node12</title>
<g id="a_node12"><a xlink:href="lexer__newline_8c.html#a9f60bf18297b9c705fa6cdff027c79fc" target="_top" xlink:title=" ">
<polygon fill="white" stroke="#666666" points="240.5,-784 156.5,-784 156.5,-765 240.5,-765 240.5,-784"/>
<text text-anchor="middle" x="198.5" y="-772" font-family="Helvetica,sans-Serif" font-size="10.00">lexer_newline</text>
</a>
</g>
</g>
<!-- Node1&#45;&gt;Node12 -->
<g id="edge18" class="edge">
<title>Node1&#45;&gt;Node12</title>
<path fill="none" stroke="#63b8ff" d="M100.19,-774.5C115.05,-774.5 131.39,-774.5 146.37,-774.5"/>
<polygon fill="#63b8ff" stroke="#63b8ff" points="146.49,-778 156.49,-774.5 146.49,-771 146.49,-778"/>
</g>
<!-- Node13 -->
<g id="node13" class="node">
<title>Node13</title>
<g id="a_node13"><a xlink:href="lexer__parenthesis_8c.html#a2b13eaa0fee255bea85bd4279f369795" target="_top" xlink:title=" ">
<polygon fill="white" stroke="#666666" points="250,-747 147,-747 147,-728 250,-728 250,-747"/>
<text text-anchor="middle" x="198.5" y="-735" font-family="Helvetica,sans-Serif" font-size="10.00">lexer_parenthesis</text>
</a>
</g>
</g>
<!-- Node1&#45;&gt;Node13 -->
<g id="edge20" class="edge">
<title>Node1&#45;&gt;Node13</title>
<path fill="none" stroke="#63b8ff" d="M88.73,-764.97C107.37,-760.26 130.05,-754.53 149.88,-749.53"/>
<polygon fill="#63b8ff" stroke="#63b8ff" points="150.81,-752.9 159.65,-747.06 149.09,-746.12 150.81,-752.9"/>
</g>
<!-- Node14 -->
<g id="node14" class="node">
<title>Node14</title>
<g id="a_node14"><a xlink:href="lexer__semicolon_8c.html#a1612109b245d9780427946e4e33b01b7" target="_top" xlink:title=" ">
<polygon fill="white" stroke="#666666" points="246.5,-1120 150.5,-1120 150.5,-1101 246.5,-1101 246.5,-1120"/>
<text text-anchor="middle" x="198.5" y="-1108" font-family="Helvetica,sans-Serif" font-size="10.00">lexer_semicolon</text>
</a>
</g>
</g>
<!-- Node1&#45;&gt;Node14 -->
<g id="edge22" class="edge">
<title>Node1&#45;&gt;Node14</title>
<path fill="none" stroke="#63b8ff" d="M50.7,-784.08C49.92,-825.75 52.29,-993.41 136,-1086.5 139.46,-1090.34 143.6,-1093.58 148.09,-1096.3"/>
<polygon fill="#63b8ff" stroke="#63b8ff" points="146.55,-1099.44 157.04,-1100.92 149.76,-1093.22 146.55,-1099.44"/>
</g>
<!-- Node15 -->
<g id="node15" class="node">
<title>Node15</title>
<g id="a_node15"><a xlink:href="lexer__word_8c.html#ac2600a9ba16009c4d8c114a118c54955" target="_top" xlink:title=" ">
<polygon fill="white" stroke="#666666" points="233.5,-709 163.5,-709 163.5,-690 233.5,-690 233.5,-709"/>
<text text-anchor="middle" x="198.5" y="-697" font-family="Helvetica,sans-Serif" font-size="10.00">lexer_word</text>
</a>
</g>
</g>
<!-- Node1&#45;&gt;Node15 -->
<g id="edge24" class="edge">
<title>Node1&#45;&gt;Node15</title>
<path fill="none" stroke="#63b8ff" d="M63.63,-764.82C79.72,-752.86 108.7,-732.5 136,-719.5 141.65,-716.81 147.76,-714.34 153.86,-712.12"/>
<polygon fill="#63b8ff" stroke="#63b8ff" points="155.05,-715.42 163.37,-708.86 152.78,-708.8 155.05,-715.42"/>
</g>
<!-- Node131 -->
<g id="node49" class="node">
<title>Node131</title>
<g id="a_node49"><a xlink:href="lexer__next__token_8c.html#a7f0a2dd2373821667a4d5381e7711aa0" target="_top" xlink:title=" ">
<polygon fill="white" stroke="#666666" points="243,-672 154,-672 154,-653 243,-653 243,-672"/>
<text text-anchor="middle" x="198.5" y="-660" font-family="Helvetica,sans-Serif" font-size="10.00">skip_comment</text>
</a>
</g>
</g>
<!-- Node1&#45;&gt;Node131 -->
<g id="edge74" class="edge">
<title>Node1&#45;&gt;Node131</title>
<path fill="none" stroke="#63b8ff" d="M57.24,-764.78C69.83,-745.91 100.16,-704.22 136,-681.5 139.3,-679.41 142.85,-677.53 146.52,-675.85"/>
<polygon fill="#63b8ff" stroke="#63b8ff" points="147.86,-679.08 155.8,-672.07 145.22,-672.6 147.86,-679.08"/>
</g>
<!-- Node132 -->
<g id="node50" class="node">
<title>Node132</title>
<g id="a_node50"><a xlink:href="lexer__next__token_8c.html#a5b2052471d98cef2998e1367f9bf8f6d" target="_top" xlink:title=" ">
<polygon fill="white" stroke="#666666" points="261,-635 136,-635 136,-616 261,-616 261,-635"/>
<text text-anchor="middle" x="198.5" y="-623" font-family="Helvetica,sans-Serif" font-size="10.00">skip_spaces_and_tabs</text>
</a>
</g>
</g>
<!-- Node1&#45;&gt;Node132 -->
<g id="edge75" class="edge">
<title>Node1&#45;&gt;Node132</title>
<path fill="none" stroke="#63b8ff" d="M54.66,-764.69C64.18,-740.5 92.06,-677.6 136,-644.5 138.51,-642.61 141.21,-640.91 144.02,-639.37"/>
<polygon fill="#63b8ff" stroke="#63b8ff" points="145.76,-642.42 153.33,-635.02 142.79,-636.08 145.76,-642.42"/>
</g>
<!-- Node4 -->
<g id="node4" class="node">
<title>Node4</title>
<g id="a_node4"><a xlink:href="lexer__logical__and_8c.html#a59e5031d54357d65c6873edc67de2a47" target="_top" xlink:title=" ">
<polygon fill="white" stroke="#666666" points="410,-970 309,-970 309,-951 410,-951 410,-970"/>
<text text-anchor="middle" x="359.5" y="-958" font-family="Helvetica,sans-Serif" font-size="10.00">lexer_logical_and</text>
</a>
</g>
</g>
<!-- Node3&#45;&gt;Node4 -->
<g id="edge3" class="edge">
<title>Node3&#45;&gt;Node4</title>
<path fill="none" stroke="#63b8ff" d="M249.81,-972.8C265.26,-971.06 282.41,-969.11 298.45,-967.3"/>
<polygon fill="#63b8ff" stroke="#63b8ff" points="299.25,-970.73 308.79,-966.13 298.46,-963.77 299.25,-970.73"/>
</g>
<!-- Node5 -->
<g id="node5" class="node">
<title>Node5</title>
<g id="a_node5"><a xlink:href="lexer__logical__or_8c.html#ac3851eaea27bd5774b126b888bdddf93" target="_top" xlink:title=" ">
<polygon fill="white" stroke="#666666" points="406,-1044 313,-1044 313,-1025 406,-1025 406,-1044"/>
<text text-anchor="middle" x="359.5" y="-1032" font-family="Helvetica,sans-Serif" font-size="10.00">lexer_logical_or</text>
</a>
</g>
</g>
<!-- Node3&#45;&gt;Node5 -->
<g id="edge5" class="edge">
<title>Node3&#45;&gt;Node5</title>
<path fill="none" stroke="#63b8ff" d="M222.54,-988.13C242.16,-996.18 271.2,-1007.72 297,-1016.5 302.53,-1018.38 308.38,-1020.25 314.19,-1022.03"/>
<polygon fill="#63b8ff" stroke="#63b8ff" points="313.27,-1025.41 323.86,-1024.93 315.28,-1018.71 313.27,-1025.41"/>
</g>
<!-- Node6 -->
<g id="node6" class="node">
<title>Node6</title>
<g id="a_node6"><a xlink:href="lexer__pipe_8c.html#a693816e38802a086de64c09cb7cebeb7" target="_top" xlink:title=" ">
<polygon fill="white" stroke="#666666" points="393,-1007 326,-1007 326,-988 393,-988 393,-1007"/>
<text text-anchor="middle" x="359.5" y="-995" font-family="Helvetica,sans-Serif" font-size="10.00">lexer_pipe</text>
</a>
</g>
</g>
<!-- Node3&#45;&gt;Node6 -->
<g id="edge7" class="edge">
<title>Node3&#45;&gt;Node6</title>
<path fill="none" stroke="#63b8ff" d="M249.81,-984.51C270.88,-987.03 295.13,-989.93 315.37,-992.35"/>
<polygon fill="#63b8ff" stroke="#63b8ff" points="315.21,-995.85 325.56,-993.56 316.04,-988.9 315.21,-995.85"/>
</g>
<!-- Node4&#45;&gt;Node2 -->
<g id="edge4" class="edge">
<title>Node4&#45;&gt;Node2</title>
<path fill="none" stroke="#63b8ff" d="M394.09,-950.95C403.17,-948.29 412.98,-945.35 422,-942.5 446.18,-934.86 473.17,-925.7 494.25,-918.41"/>
<polygon fill="#63b8ff" stroke="#63b8ff" points="495.48,-921.69 503.78,-915.1 493.19,-915.07 495.48,-921.69"/>
</g>
<!-- Node5&#45;&gt;Node2 -->
<g id="edge6" class="edge">
<title>Node5&#45;&gt;Node2</title>
<path fill="none" stroke="#63b8ff" d="M403.7,-1024.92C410.07,-1022.65 416.37,-1019.87 422,-1016.5 463.27,-991.78 499.88,-947.72 518.33,-923.2"/>
<polygon fill="#63b8ff" stroke="#63b8ff" points="521.17,-925.25 524.29,-915.13 515.54,-921.1 521.17,-925.25"/>
</g>
<!-- Node6&#45;&gt;Node2 -->
<g id="edge8" class="edge">
<title>Node6&#45;&gt;Node2</title>
<path fill="none" stroke="#63b8ff" d="M393.12,-990C402.65,-987.26 412.94,-983.77 422,-979.5 455.82,-963.55 490.9,-937.8 511.83,-921.26"/>
<polygon fill="#63b8ff" stroke="#63b8ff" points="514.03,-923.99 519.64,-915 509.65,-918.53 514.03,-923.99"/>
</g>
<!-- Node8 -->
<g id="node8" class="node">
<title>Node8</title>
<g id="a_node8"><a xlink:href="lexer__heredoc_8c.html#a9db043b0e8df9ad1155a65a8fcf67c11" target="_top" xlink:title=" ">
<polygon fill="white" stroke="#666666" points="402,-859 317,-859 317,-840 402,-840 402,-859"/>
<text text-anchor="middle" x="359.5" y="-847" font-family="Helvetica,sans-Serif" font-size="10.00">lexer_heredoc</text>
</a>
</g>
</g>
<!-- Node7&#45;&gt;Node8 -->
<g id="edge10" class="edge">
<title>Node7&#45;&gt;Node8</title>
<path fill="none" stroke="#63b8ff" d="M259.61,-849.5C275.04,-849.5 291.52,-849.5 306.5,-849.5"/>
<polygon fill="#63b8ff" stroke="#63b8ff" points="306.61,-853 316.61,-849.5 306.61,-846 306.61,-853"/>
</g>
<!-- Node9 -->
<g id="node9" class="node">
<title>Node9</title>
<g id="a_node9"><a xlink:href="lexer__redirect__append_8c.html#a09beefbfaf132dbe04add1370a6fb2e3" target="_top" xlink:title=" ">
<polygon fill="white" stroke="#666666" points="422,-822 297,-822 297,-803 422,-803 422,-822"/>
<text text-anchor="middle" x="359.5" y="-810" font-family="Helvetica,sans-Serif" font-size="10.00">lexer_redirect_append</text>
</a>
</g>
</g>
<!-- Node7&#45;&gt;Node9 -->
<g id="edge12" class="edge">
<title>Node7&#45;&gt;Node9</title>
<path fill="none" stroke="#63b8ff" d="M240.45,-839.97C260.86,-835.22 285.75,-829.43 307.4,-824.39"/>
<polygon fill="#63b8ff" stroke="#63b8ff" points="308.47,-827.74 317.42,-822.06 306.88,-820.92 308.47,-827.74"/>
</g>
<!-- Node10 -->
<g id="node10" class="node">
<title>Node10</title>
<g id="a_node10"><a xlink:href="lexer__redirect__in_8c.html#ac723d9668329d99b35003ed2423889e5" target="_top" xlink:title=" ">
<polygon fill="white" stroke="#666666" points="408.5,-933 310.5,-933 310.5,-914 408.5,-914 408.5,-933"/>
<text text-anchor="middle" x="359.5" y="-921" font-family="Helvetica,sans-Serif" font-size="10.00">lexer_redirect_in</text>
</a>
</g>
</g>
<!-- Node7&#45;&gt;Node10 -->
<g id="edge14" class="edge">
<title>Node7&#45;&gt;Node10</title>
<path fill="none" stroke="#63b8ff" d="M213.8,-859.17C232.33,-871.34 265.94,-892.25 297,-905.5 301.44,-907.39 306.13,-909.16 310.87,-910.79"/>
<polygon fill="#63b8ff" stroke="#63b8ff" points="310.01,-914.19 320.6,-913.94 312.17,-907.53 310.01,-914.19"/>
</g>
<!-- Node11 -->
<g id="node11" class="node">
<title>Node11</title>
<g id="a_node11"><a xlink:href="lexer__redirect__out_8c.html#a70e2216639c96030b3861405ae3497c6" target="_top" xlink:title=" ">
<polygon fill="white" stroke="#666666" points="411.5,-896 307.5,-896 307.5,-877 411.5,-877 411.5,-896"/>
<text text-anchor="middle" x="359.5" y="-884" font-family="Helvetica,sans-Serif" font-size="10.00">lexer_redirect_out</text>
</a>
</g>
</g>
<!-- Node7&#45;&gt;Node11 -->
<g id="edge16" class="edge">
<title>Node7&#45;&gt;Node11</title>
<path fill="none" stroke="#63b8ff" d="M240.45,-859.03C260.86,-863.78 285.75,-869.57 307.4,-874.61"/>
<polygon fill="#63b8ff" stroke="#63b8ff" points="306.88,-878.08 317.42,-876.94 308.47,-871.26 306.88,-878.08"/>
</g>
<!-- Node8&#45;&gt;Node2 -->
<g id="edge11" class="edge">
<title>Node8&#45;&gt;Node2</title>
<path fill="none" stroke="#63b8ff" d="M392.16,-859.1C401.76,-862.06 412.33,-865.36 422,-868.5 445.96,-876.27 472.75,-885.35 493.77,-892.58"/>
<polygon fill="#63b8ff" stroke="#63b8ff" points="492.7,-895.91 503.29,-895.86 494.98,-889.29 492.7,-895.91"/>
</g>
<!-- Node9&#45;&gt;Node2 -->
<g id="edge13" class="edge">
<title>Node9&#45;&gt;Node2</title>
<path fill="none" stroke="#63b8ff" d="M397.6,-822.01C405.82,-824.65 414.35,-827.82 422,-831.5 455.52,-847.61 490.43,-873.11 511.44,-889.57"/>
<polygon fill="#63b8ff" stroke="#63b8ff" points="509.29,-892.33 519.3,-895.81 513.65,-886.85 509.29,-892.33"/>
</g>
<!-- Node10&#45;&gt;Node2 -->
<g id="edge15" class="edge">
<title>Node10&#45;&gt;Node2</title>
<path fill="none" stroke="#63b8ff" d="M408.9,-918.39C431.7,-915.98 458.85,-913.12 481.75,-910.7"/>
<polygon fill="#63b8ff" stroke="#63b8ff" points="482.36,-914.15 491.94,-909.62 481.63,-907.19 482.36,-914.15"/>
</g>
<!-- Node11&#45;&gt;Node2 -->
<g id="edge17" class="edge">
<title>Node11&#45;&gt;Node2</title>
<path fill="none" stroke="#63b8ff" d="M411.66,-892.2C433.84,-894.67 459.72,-897.56 481.69,-900.01"/>
<polygon fill="#63b8ff" stroke="#63b8ff" points="481.48,-903.5 491.81,-901.13 482.26,-896.55 481.48,-903.5"/>
</g>
<!-- Node12&#45;&gt;Node2 -->
<g id="edge19" class="edge">
<title>Node12&#45;&gt;Node2</title>
<path fill="none" stroke="#63b8ff" d="M240.67,-769.99C287.07,-766.72 363.63,-766.87 422,-794.5 465.92,-815.29 501.94,-861.68 519.47,-887.42"/>
<polygon fill="#63b8ff" stroke="#63b8ff" points="516.64,-889.48 525.08,-895.88 522.48,-885.61 516.64,-889.48"/>
</g>
<!-- Node13&#45;&gt;Node2 -->
<g id="edge21" class="edge">
<title>Node13&#45;&gt;Node2</title>
<path fill="none" stroke="#63b8ff" d="M250.21,-732.93C297.69,-731.02 369.05,-734.41 422,-764.5 472.27,-793.07 507.23,-855.06 522.45,-886.46"/>
<polygon fill="#63b8ff" stroke="#63b8ff" points="519.43,-888.27 526.84,-895.84 525.77,-885.3 519.43,-888.27"/>
</g>
<!-- Node14&#45;&gt;Node2 -->
<g id="edge23" class="edge">
<title>Node14&#45;&gt;Node2</title>
<path fill="none" stroke="#63b8ff" d="M246.9,-1116.94C294.86,-1120.97 369.27,-1120.16 422,-1086.5 482.22,-1048.06 513.9,-963.34 525.61,-925.01"/>
<polygon fill="#63b8ff" stroke="#63b8ff" points="529.06,-925.69 528.5,-915.11 522.34,-923.72 529.06,-925.69"/>
</g>
<!-- Node15&#45;&gt;Node2 -->
<g id="edge25" class="edge">
<title>Node15&#45;&gt;Node2</title>
<path fill="none" stroke="#63b8ff" d="M233.84,-695.35C280.38,-691.52 364.27,-691.15 422,-728.5 480.74,-766.5 513.02,-848.45 525.23,-886"/>
<polygon fill="#63b8ff" stroke="#63b8ff" points="521.95,-887.23 528.27,-895.73 528.63,-885.14 521.95,-887.23"/>
</g>
<!-- Node16 -->
<g id="node16" class="node">
<title>Node16</title>
<g id="a_node16"><a xlink:href="lexer__word_8c.html#a730574257743b09386cadd2ccbfe4d13" target="_top" xlink:title=" ">
<polygon fill="white" stroke="#666666" points="420.5,-367 298.5,-367 298.5,-348 420.5,-348 420.5,-367"/>
<text text-anchor="middle" x="359.5" y="-355" font-family="Helvetica,sans-Serif" font-size="10.00">handle_current_token</text>
</a>
</g>
</g>
<!-- Node15&#45;&gt;Node16 -->
<g id="edge26" class="edge">
<title>Node15&#45;&gt;Node16</title>
<path fill="none" stroke="#63b8ff" d="M233.62,-695.76C243.53,-693.16 253.66,-688.79 261,-681.5 348.19,-594.97 357.99,-433.6 358.66,-377.41"/>
<polygon fill="#63b8ff" stroke="#63b8ff" points="362.16,-377.09 358.69,-367.08 355.16,-377.07 362.16,-377.09"/>
</g>
<!-- Node122 -->
<g id="node40" class="node">
<title>Node122</title>
<g id="a_node40"><a xlink:href="lexer__is__word__separator_8c.html#abccfc6fc0cdbd040fc9a7dcbfd207090" target="_top" xlink:title=" ">
<polygon fill="white" stroke="#666666" points="974.5,-651 839.5,-651 839.5,-632 974.5,-632 974.5,-651"/>
<text text-anchor="middle" x="907" y="-639" font-family="Helvetica,sans-Serif" font-size="10.00">lexer_is_word_separator</text>
</a>
</g>
</g>
<!-- Node15&#45;&gt;Node122 -->
<g id="edge73" class="edge">
<title>Node15&#45;&gt;Node122</title>
<path fill="none" stroke="#63b8ff" d="M233.77,-695.79C252.45,-693.81 275.99,-691.41 297,-689.5 488.22,-672.16 713.54,-655.34 829.11,-646.98"/>
<polygon fill="#63b8ff" stroke="#63b8ff" points="829.55,-650.45 839.27,-646.24 829.04,-643.47 829.55,-650.45"/>
</g>
<!-- Node17 -->
<g id="node17" class="node">
<title>Node17</title>
<g id="a_node17"><a xlink:href="lexer__word_8c.html#acd8f2a3c47fa56f87c2792ccefd2ee3e" target="_top" xlink:title=" ">
<polygon fill="white" stroke="#666666" points="592.5,-423 471.5,-423 471.5,-404 592.5,-404 592.5,-423"/>
<text text-anchor="middle" x="532" y="-411" font-family="Helvetica,sans-Serif" font-size="10.00">handle_double_quote</text>
</a>
</g>
</g>
<!-- Node16&#45;&gt;Node17 -->
<g id="edge27" class="edge">
<title>Node16&#45;&gt;Node17</title>
<path fill="none" stroke="#63b8ff" d="M382.67,-367.09C402.24,-375.33 431.67,-387.16 458,-395.5 464.52,-397.57 471.43,-399.54 478.3,-401.37"/>
<polygon fill="#63b8ff" stroke="#63b8ff" points="477.72,-404.84 488.28,-403.95 479.47,-398.06 477.72,-404.84"/>
</g>
<!-- Node18 -->
<g id="node18" class="node">
<title>Node18</title>
<g id="a_node18"><a xlink:href="lexer__word_8c.html#a733339142f4677a066646a12a7e5bec4" target="_top" xlink:title=" ">
<polygon fill="white" stroke="#666666" points="784,-321 643,-321 643,-302 784,-302 784,-321"/>
<text text-anchor="middle" x="713.5" y="-309" font-family="Helvetica,sans-Serif" font-size="10.00">handle_escape_sequence</text>
</a>
</g>
</g>
<!-- Node16&#45;&gt;Node18 -->
<g id="edge28" class="edge">
<title>Node16&#45;&gt;Node18</title>
<path fill="none" stroke="#63b8ff" d="M420.61,-349.64C479.14,-342 568.44,-330.33 632.85,-321.91"/>
<polygon fill="#63b8ff" stroke="#63b8ff" points="633.51,-325.35 642.97,-320.59 632.6,-318.41 633.51,-325.35"/>
</g>
<!-- Node22 -->
<g id="node22" class="node">
<title>Node22</title>
<g id="a_node22"><a xlink:href="lexer__word_8c.html#a3ae03e49183787e7cf32c90ffdef7351" target="_top" xlink:title=" ">
<polygon fill="white" stroke="#666666" points="590.5,-274 473.5,-274 473.5,-255 590.5,-255 590.5,-274"/>
<text text-anchor="middle" x="532" y="-262" font-family="Helvetica,sans-Serif" font-size="10.00">handle_single_quote</text>
</a>
</g>
</g>
<!-- Node16&#45;&gt;Node22 -->
<g id="edge32" class="edge">
<title>Node16&#45;&gt;Node22</title>
<path fill="none" stroke="#63b8ff" d="M378.1,-347.9C408.05,-331.57 469.06,-298.29 504.29,-279.07"/>
<polygon fill="#63b8ff" stroke="#63b8ff" points="506.39,-281.91 513.49,-274.05 503.04,-275.77 506.39,-281.91"/>
</g>
<!-- Node23 -->
<g id="node23" class="node">
<title>Node23</title>
<g id="a_node23"><a xlink:href="lexer__utils_8c.html#a2ba6f7e43ecbf713c666ab062eac534c" target="_top" xlink:title=" ">
<polygon fill="white" stroke="#666666" points="606,-229 458,-229 458,-210 606,-210 606,-229"/>
<text text-anchor="middle" x="532" y="-217" font-family="Helvetica,sans-Serif" font-size="10.00">lexer_append_current_char</text>
</a>
</g>
</g>
<!-- Node16&#45;&gt;Node23 -->
<g id="edge34" class="edge">
<title>Node16&#45;&gt;Node23</title>
<path fill="none" stroke="#63b8ff" d="M366.59,-347.74C380.35,-326.45 415.94,-275.41 458,-246.5 466.1,-240.93 475.49,-236.35 484.78,-232.64"/>
<polygon fill="#63b8ff" stroke="#63b8ff" points="486.21,-235.84 494.37,-229.09 483.78,-229.28 486.21,-235.84"/>
</g>
<!-- Node24 -->
<g id="node24" class="node">
<title>Node24</title>
<g id="a_node24"><a xlink:href="lexer__expand__command__substitution_8c.html#aad26825e6ecc7617687abd601366b15d" target="_top" xlink:title=" ">
<polygon fill="white" stroke="#666666" points="600,-174.5 464,-174.5 464,-144.5 600,-144.5 600,-174.5"/>
<text text-anchor="start" x="472" y="-162.5" font-family="Helvetica,sans-Serif" font-size="10.00">lexer_expand_command</text>
<text text-anchor="middle" x="532" y="-151.5" font-family="Helvetica,sans-Serif" font-size="10.00">_substitution</text>
</a>
</g>
</g>
<!-- Node16&#45;&gt;Node24 -->
<g id="edge36" class="edge">
<title>Node16&#45;&gt;Node24</title>
<path fill="none" stroke="#63b8ff" d="M364.41,-347.88C375.55,-321.45 409.78,-246.64 458,-200.5 466.45,-192.42 476.79,-185.36 487.01,-179.49"/>
<polygon fill="#63b8ff" stroke="#63b8ff" points="488.8,-182.5 495.91,-174.64 485.45,-176.36 488.8,-182.5"/>
</g>
<!-- Node120 -->
<g id="node36" class="node">
<title>Node120</title>
<g id="a_node36"><a xlink:href="lexer__expand__tilde_8c.html#ae3c478a10a2764ee7c7f94b42f28ecaf" target="_top" xlink:title=" ">
<polygon fill="white" stroke="#666666" points="586.5,-514 477.5,-514 477.5,-495 586.5,-495 586.5,-514"/>
<text text-anchor="middle" x="532" y="-502" font-family="Helvetica,sans-Serif" font-size="10.00">lexer_expand_tilde</text>
</a>
</g>
</g>
<!-- Node16&#45;&gt;Node120 -->
<g id="edge53" class="edge">
<title>Node16&#45;&gt;Node120</title>
<path fill="none" stroke="#63b8ff" d="M371.69,-367.15C400.22,-391.74 475.97,-457.05 511.76,-487.91"/>
<polygon fill="#63b8ff" stroke="#63b8ff" points="509.69,-490.75 519.55,-494.63 514.26,-485.45 509.69,-490.75"/>
</g>
<!-- Node123 -->
<g id="node41" class="node">
<title>Node123</title>
<g id="a_node41"><a xlink:href="lexer__expand__variable_8c.html#a01ad90eb8460a612626bb33c9e15cd52" target="_top" xlink:title=" ">
<polygon fill="white" stroke="#666666" points="595.5,-386 468.5,-386 468.5,-367 595.5,-367 595.5,-386"/>
<text text-anchor="middle" x="532" y="-374" font-family="Helvetica,sans-Serif" font-size="10.00">lexer_expand_variable</text>
</a>
</g>
</g>
<!-- Node16&#45;&gt;Node123 -->
<g id="edge59" class="edge">
<title>Node16&#45;&gt;Node123</title>
<path fill="none" stroke="#63b8ff" d="M420.61,-364.2C432.79,-365.56 445.72,-367 458.28,-368.4"/>
<polygon fill="#63b8ff" stroke="#63b8ff" points="457.93,-371.88 468.26,-369.51 458.71,-364.92 457.93,-371.88"/>
</g>
<!-- Node19 -->
<g id="node19" class="node">
<title>Node19</title>
<g id="a_node19"><a xlink:href="lexer__utils_8c.html#abf1c1b3b6033c8f9c8d1b11cc9e14f75" target="_top" xlink:title=" ">
<polygon fill="white" stroke="#666666" points="957,-321 857,-321 857,-302 957,-302 957,-321"/>
<text text-anchor="middle" x="907" y="-309" font-family="Helvetica,sans-Serif" font-size="10.00">lexer_append_str</text>
</a>
</g>
</g>
<!-- Node18&#45;&gt;Node19 -->
<g id="edge29" class="edge">
<title>Node18&#45;&gt;Node19</title>
<path fill="none" stroke="#63b8ff" d="M784.18,-311.5C804.67,-311.5 826.88,-311.5 846.66,-311.5"/>
<polygon fill="#63b8ff" stroke="#63b8ff" points="846.76,-315 856.76,-311.5 846.76,-308 846.76,-315"/>
</g>
<!-- Node20 -->
<g id="node20" class="node">
<title>Node20</title>
<g id="a_node20"><a xlink:href="strings_8h.html#a5e1589f073ac32d227dbc6020c376dab" target="_top" xlink:title=" ">
<polygon fill="white" stroke="#666666" points="1326,-273 1225,-273 1225,-254 1326,-254 1326,-273"/>
<text text-anchor="middle" x="1275.5" y="-261" font-family="Helvetica,sans-Serif" font-size="10.00">append_to_buffer</text>
</a>
</g>
</g>
<!-- Node19&#45;&gt;Node20 -->
<g id="edge30" class="edge">
<title>Node19&#45;&gt;Node20</title>
<path fill="none" stroke="#63b8ff" d="M957.18,-311.3C1011.62,-310.32 1101.73,-306.46 1178,-292.5 1198.47,-288.75 1220.76,-282.22 1238.75,-276.31"/>
<polygon fill="#63b8ff" stroke="#63b8ff" points="1239.9,-279.62 1248.26,-273.11 1237.67,-272.98 1239.9,-279.62"/>
</g>
<!-- Node21 -->
<g id="node21" class="node">
<title>Node21</title>
<g id="a_node21"><a xlink:href="lexer__utils_8c.html#a84e8d5514cfe03a20152ad26f170211f" target="_top" xlink:title=" ">
<polygon fill="white" stroke="#666666" points="1162.5,-283 1044.5,-283 1044.5,-264 1162.5,-264 1162.5,-283"/>
<text text-anchor="middle" x="1103.5" y="-271" font-family="Helvetica,sans-Serif" font-size="10.00">lexer_set_alloc_error</text>
</a>
</g>
</g>
<!-- Node19&#45;&gt;Node21 -->
<g id="edge31" class="edge">
<title>Node19&#45;&gt;Node21</title>
<path fill="none" stroke="#63b8ff" d="M956.83,-301.96C983.19,-296.81 1015.92,-290.42 1043.67,-284.99"/>
<polygon fill="#63b8ff" stroke="#63b8ff" points="1044.51,-288.4 1053.65,-283.04 1043.16,-281.53 1044.51,-288.4"/>
</g>
<!-- Node22&#45;&gt;Node19 -->
<g id="edge33" class="edge">
<title>Node22&#45;&gt;Node19</title>
<path fill="none" stroke="#63b8ff" d="M590.62,-270.58C641.74,-276.11 718.42,-284.72 785,-293.5 805.17,-296.16 827.19,-299.35 846.85,-302.3"/>
<polygon fill="#63b8ff" stroke="#63b8ff" points="846.48,-305.79 856.89,-303.82 847.53,-298.86 846.48,-305.79"/>
</g>
<!-- Node23&#45;&gt;Node19 -->
<g id="edge35" class="edge">
<title>Node23&#45;&gt;Node19</title>
<path fill="none" stroke="#63b8ff" d="M586.48,-229.07C637.75,-238.63 717.16,-254.49 785,-272.5 813.56,-280.08 845.34,-290.4 869.16,-298.52"/>
<polygon fill="#63b8ff" stroke="#63b8ff" points="868.25,-301.91 878.85,-301.85 870.53,-295.29 868.25,-301.91"/>
</g>
<!-- Node24&#45;&gt;Node21 -->
<g id="edge52" class="edge">
<title>Node24&#45;&gt;Node21</title>
<path fill="none" stroke="#63b8ff" d="M600.04,-172.89C689.61,-190.78 853.26,-223.49 993,-251.5 1009.85,-254.88 1028.15,-258.55 1044.88,-261.91"/>
<polygon fill="#63b8ff" stroke="#63b8ff" points="1044.58,-265.42 1055.07,-263.96 1045.96,-258.56 1044.58,-265.42"/>
</g>
<!-- Node25 -->
<g id="node25" class="node">
<title>Node25</title>
<g id="a_node25"><a xlink:href="lexer__expand__command__substitution_8c.html#ad31353a5e4ff94d4ffc515367ef29625" target="_top" xlink:title=" ">
<polygon fill="white" stroke="#666666" points="785,-131 642,-131 642,-112 785,-112 785,-131"/>
<text text-anchor="middle" x="713.5" y="-119" font-family="Helvetica,sans-Serif" font-size="10.00">append_command_output</text>
</a>
</g>
</g>
<!-- Node24&#45;&gt;Node25 -->
<g id="edge37" class="edge">
<title>Node24&#45;&gt;Node25</title>
<path fill="none" stroke="#63b8ff" d="M600.09,-145.3C619.08,-141.28 639.52,-136.95 657.69,-133.1"/>
<polygon fill="#63b8ff" stroke="#63b8ff" points="658.47,-136.52 667.53,-131.02 657.02,-129.67 658.47,-136.52"/>
</g>
<!-- Node25&#45;&gt;Node19 -->
<g id="edge50" class="edge">
<title>Node25&#45;&gt;Node19</title>
<path fill="none" stroke="#63b8ff" d="M726.27,-131.28C740.51,-143.23 765.06,-164.26 785,-183.5 824.55,-221.65 868.19,-269.31 890.7,-294.33"/>
<polygon fill="#63b8ff" stroke="#63b8ff" points="888.2,-296.79 897.48,-301.9 893.41,-292.12 888.2,-296.79"/>
</g>
<!-- Node25&#45;&gt;Node21 -->
<g id="edge51" class="edge">
<title>Node25&#45;&gt;Node21</title>
<path fill="none" stroke="#63b8ff" d="M760.24,-111.99C819.93,-102.33 924.79,-95.11 993,-145.5 1027.32,-170.85 1000.43,-202.81 1029,-234.5 1038.63,-245.19 1051.9,-253.46 1064.51,-259.58"/>
<polygon fill="#63b8ff" stroke="#63b8ff" points="1063.4,-262.92 1073.96,-263.85 1066.28,-256.54 1063.4,-262.92"/>
</g>
<!-- Node26 -->
<g id="node26" class="node">
<title>Node26</title>
<g id="a_node26"><a xlink:href="execute__command__substitution_8c.html#a44d633c45c6a1c7a82b2fc4f1f3a1b85" target="_top" xlink:title=" ">
<polygon fill="white" stroke="#666666" points="993,-93 821,-93 821,-74 993,-74 993,-93"/>
<text text-anchor="middle" x="907" y="-81" font-family="Helvetica,sans-Serif" font-size="10.00">execute_command_substitution</text>
</a>
</g>
</g>
<!-- Node25&#45;&gt;Node26 -->
<g id="edge38" class="edge">
<title>Node25&#45;&gt;Node26</title>
<path fill="none" stroke="#63b8ff" d="M762.82,-111.91C788.66,-106.78 820.67,-100.43 847.86,-95.04"/>
<polygon fill="#63b8ff" stroke="#63b8ff" points="848.9,-98.4 858.02,-93.02 847.53,-91.53 848.9,-98.4"/>
</g>
<!-- Node27 -->
<g id="node27" class="node">
<title>Node27</title>
<g id="a_node27"><a xlink:href="execute__command__substitution_8c.html#a075d95090572b6eefee6062c788e021f" target="_top" xlink:title=" ">
<polygon fill="white" stroke="#666666" points="1155,-130 1052,-130 1052,-111 1155,-111 1155,-130"/>
<text text-anchor="middle" x="1103.5" y="-118" font-family="Helvetica,sans-Serif" font-size="10.00">handle_fork_error</text>
</a>
</g>
</g>
<!-- Node26&#45;&gt;Node27 -->
<g id="edge39" class="edge">
<title>Node26&#45;&gt;Node27</title>
<path fill="none" stroke="#63b8ff" d="M958.09,-93.03C983.74,-97.91 1015.16,-103.89 1042.14,-109.02"/>
<polygon fill="#63b8ff" stroke="#63b8ff" points="1041.77,-112.51 1052.24,-110.94 1043.07,-105.63 1041.77,-112.51"/>
</g>
<!-- Node28 -->
<g id="node28" class="node">
<title>Node28</title>
<g id="a_node28"><a xlink:href="execute__command__substitution_8c.html#af0e085937d4d6fbc3feb274895606e50" target="_top" xlink:title=" ">
<polygon fill="white" stroke="#666666" points="1155.5,-93 1051.5,-93 1051.5,-74 1155.5,-74 1155.5,-93"/>
<text text-anchor="middle" x="1103.5" y="-81" font-family="Helvetica,sans-Serif" font-size="10.00">handle_pipe_error</text>
</a>
</g>
</g>
<!-- Node26&#45;&gt;Node28 -->
<g id="edge40" class="edge">
<title>Node26&#45;&gt;Node28</title>
<path fill="none" stroke="#63b8ff" d="M993.03,-83.5C1009.22,-83.5 1025.88,-83.5 1041.16,-83.5"/>
<polygon fill="#63b8ff" stroke="#63b8ff" points="1041.49,-87 1051.49,-83.5 1041.49,-80 1041.49,-87"/>
</g>
<!-- Node29 -->
<g id="node29" class="node">
<title>Node29</title>
<g id="a_node29"><a xlink:href="execute__command__substitution_8c.html#aebaa8b3d8f96bd07e2efb13393b1fa13" target="_top" xlink:title=" ">
<polygon fill="white" stroke="#666666" points="1154,-225 1053,-225 1053,-206 1154,-206 1154,-225"/>
<text text-anchor="middle" x="1103.5" y="-213" font-family="Helvetica,sans-Serif" font-size="10.00">read_pipe_output</text>
</a>
</g>
</g>
<!-- Node26&#45;&gt;Node29 -->
<g id="edge41" class="edge">
<title>Node26&#45;&gt;Node29</title>
<path fill="none" stroke="#63b8ff" d="M965.95,-93.03C975.66,-96.46 985.13,-101.14 993,-107.5 1019.6,-128.99 1004.96,-151.18 1029,-175.5 1039.77,-186.39 1054.13,-195.09 1067.3,-201.57"/>
<polygon fill="#63b8ff" stroke="#63b8ff" points="1066.07,-204.85 1076.61,-205.88 1069.01,-198.5 1066.07,-204.85"/>
</g>
<!-- Node30 -->
<g id="node30" class="node">
<title>Node30</title>
<g id="a_node30"><a xlink:href="execute__command__substitution_8c.html#a49d3b6ea9dfddcfae1e4193b46064722" target="_top" xlink:title=" ">
<polygon fill="white" stroke="#666666" points="1166.5,-56 1040.5,-56 1040.5,-37 1166.5,-37 1166.5,-56"/>
<text text-anchor="middle" x="1103.5" y="-44" font-family="Helvetica,sans-Serif" font-size="10.00">remove_end_newlines</text>
</a>
</g>
</g>
<!-- Node26&#45;&gt;Node30 -->
<g id="edge43" class="edge">
<title>Node26&#45;&gt;Node30</title>
<path fill="none" stroke="#63b8ff" d="M958.09,-73.97C983.74,-69.09 1015.16,-63.11 1042.14,-57.98"/>
<polygon fill="#63b8ff" stroke="#63b8ff" points="1043.07,-61.37 1052.24,-56.06 1041.77,-54.49 1043.07,-61.37"/>
</g>
<!-- Node31 -->
<g id="node31" class="node">
<title>Node31</title>
<g id="a_node31"><a xlink:href="execute__command__substitution_8c.html#a230d3e2be0c3d7360a8cf2a810878cf2" target="_top" xlink:title=" ">
<polygon fill="white" stroke="#666666" points="1178,-19 1029,-19 1029,0 1178,0 1178,-19"/>
<text text-anchor="middle" x="1103.5" y="-7" font-family="Helvetica,sans-Serif" font-size="10.00">run_command_substitution</text>
</a>
</g>
</g>
<!-- Node26&#45;&gt;Node31 -->
<g id="edge44" class="edge">
<title>Node26&#45;&gt;Node31</title>
<path fill="none" stroke="#63b8ff" d="M925.99,-73.83C949.23,-61.66 991.2,-40.73 1029,-27.5 1034.94,-25.42 1041.23,-23.49 1047.53,-21.72"/>
<polygon fill="#63b8ff" stroke="#63b8ff" points="1048.64,-25.05 1057.4,-19.09 1046.83,-18.29 1048.64,-25.05"/>
</g>
<!-- Node43 -->
<g id="node34" class="node">
<title>Node43</title>
<g id="a_node34"><a xlink:href="wait__for__subprocess_8c.html#a1242d78540fd0ddef3d98a9f294cb0d4" target="_top" xlink:title=" ">
<polygon fill="white" stroke="#666666" points="1161.5,-167 1045.5,-167 1045.5,-148 1161.5,-148 1161.5,-167"/>
<text text-anchor="middle" x="1103.5" y="-155" font-family="Helvetica,sans-Serif" font-size="10.00">wait_for_subprocess</text>
</a>
</g>
</g>
<!-- Node26&#45;&gt;Node43 -->
<g id="edge48" class="edge">
<title>Node26&#45;&gt;Node43</title>
<path fill="none" stroke="#63b8ff" d="M955.74,-93.06C968.29,-96.61 981.52,-101.33 993,-107.5 1011.6,-117.49 1010.29,-128.71 1029,-138.5 1033.48,-140.85 1038.28,-142.91 1043.18,-144.74"/>
<polygon fill="#63b8ff" stroke="#63b8ff" points="1042.11,-148.07 1052.71,-147.95 1044.35,-141.44 1042.11,-148.07"/>
</g>
<!-- Node29&#45;&gt;Node20 -->
<g id="edge42" class="edge">
<title>Node29&#45;&gt;Node20</title>
<path fill="none" stroke="#63b8ff" d="M1138.49,-225.1C1165.02,-232.59 1202.05,-243.04 1230.78,-251.16"/>
<polygon fill="#63b8ff" stroke="#63b8ff" points="1229.99,-254.57 1240.57,-253.92 1231.89,-247.83 1229.99,-254.57"/>
</g>
<!-- Node32 -->
<g id="node32" class="node">
<title>Node32</title>
<g id="a_node32"><a xlink:href="shell_8c.html#afb5215a1775326d8976fd015f7832392" target="_top" xlink:title=" ">
<polygon fill="#fff0f0" stroke="red" points="1315.5,-19 1235.5,-19 1235.5,0 1315.5,0 1315.5,-19"/>
<text text-anchor="middle" x="1275.5" y="-7" font-family="Helvetica,sans-Serif" font-size="10.00">handle_input</text>
</a>
</g>
</g>
<!-- Node31&#45;&gt;Node32 -->
<g id="edge45" class="edge">
<title>Node31&#45;&gt;Node32</title>
<path fill="none" stroke="#63b8ff" d="M1178.08,-9.5C1193.96,-9.5 1210.39,-9.5 1225.09,-9.5"/>
<polygon fill="#63b8ff" stroke="#63b8ff" points="1225.45,-13 1235.45,-9.5 1225.45,-6 1225.45,-13"/>
</g>
<!-- Node33 -->
<g id="node33" class="node">
<title>Node33</title>
<g id="a_node33"><a xlink:href="ast__destroy_8c.html#a04c67d7ab492f6e1e7bc44dc70faa057" target="_top" xlink:title=" ">
<polygon fill="#fff0f0" stroke="red" points="1447,-19 1373,-19 1373,0 1447,0 1447,-19"/>
<text text-anchor="middle" x="1410" y="-7" font-family="Helvetica,sans-Serif" font-size="10.00">ast_destroy</text>
</a>
</g>
</g>
<!-- Node32&#45;&gt;Node33 -->
<g id="edge46" class="edge">
<title>Node32&#45;&gt;Node33</title>
<path fill="none" stroke="#63b8ff" d="M1315.54,-9.5C1330.3,-9.5 1347.24,-9.5 1362.61,-9.5"/>
<polygon fill="#63b8ff" stroke="#63b8ff" points="1362.96,-13 1372.96,-9.5 1362.96,-6 1362.96,-13"/>
</g>
<!-- Node33&#45;&gt;Node33 -->
<g id="edge47" class="edge">
<title>Node33&#45;&gt;Node33</title>
<path fill="none" stroke="#63b8ff" d="M1389.35,-19.08C1379.3,-27.73 1386.18,-37 1410,-37 1425.26,-37 1433.57,-33.2 1434.93,-28.19"/>
<polygon fill="#63b8ff" stroke="#63b8ff" points="1438.07,-26.65 1430.65,-19.08 1431.73,-29.62 1438.07,-26.65"/>
</g>
<!-- Node44 -->
<g id="node35" class="node">
<title>Node44</title>
<g id="a_node35"><a xlink:href="wait__for__subprocess_8c.html#a885766ba6ba593b7cf27b917dd52b1a6" target="_top" xlink:title=" ">
<polygon fill="white" stroke="#666666" points="1337,-167 1214,-167 1214,-148 1337,-148 1337,-167"/>
<text text-anchor="middle" x="1275.5" y="-155" font-family="Helvetica,sans-Serif" font-size="10.00">print_signal_message</text>
</a>
</g>
</g>
<!-- Node43&#45;&gt;Node44 -->
<g id="edge49" class="edge">
<title>Node43&#45;&gt;Node44</title>
<path fill="none" stroke="#63b8ff" d="M1161.58,-157.5C1175.09,-157.5 1189.65,-157.5 1203.68,-157.5"/>
<polygon fill="#63b8ff" stroke="#63b8ff" points="1203.78,-161 1213.78,-157.5 1203.78,-154 1203.78,-161"/>
</g>
<!-- Node120&#45;&gt;Node19 -->
<g id="edge56" class="edge">
<title>Node120&#45;&gt;Node19</title>
<path fill="none" stroke="#63b8ff" d="M547.58,-494.81C567.97,-481.63 606.47,-458.03 642,-443.5 702.97,-418.56 734.17,-446.4 785,-404.5 812.91,-381.49 792.69,-354.02 821,-331.5 828.57,-325.48 837.65,-321.21 847.02,-318.21"/>
<polygon fill="#63b8ff" stroke="#63b8ff" points="848.12,-321.54 856.83,-315.51 846.26,-314.79 848.12,-321.54"/>
</g>
<!-- Node46 -->
<g id="node37" class="node">
<title>Node46</title>
<g id="a_node37"><a xlink:href="get__variable__value_8c.html#a2edd9900f19af236aa05385a789be3d6" target="_top" xlink:title=" ">
<polygon fill="white" stroke="#666666" points="962,-573 852,-573 852,-554 962,-554 962,-573"/>
<text text-anchor="middle" x="907" y="-561" font-family="Helvetica,sans-Serif" font-size="10.00">get_variable_value</text>
</a>
</g>
</g>
<!-- Node120&#45;&gt;Node46 -->
<g id="edge54" class="edge">
<title>Node120&#45;&gt;Node46</title>
<path fill="none" stroke="#63b8ff" d="M545.17,-514.11C564.4,-528.62 603.6,-555.49 642,-565.5 708.46,-582.83 787.56,-579.19 841.74,-573.19"/>
<polygon fill="#63b8ff" stroke="#63b8ff" points="842.37,-576.64 851.9,-572 841.56,-569.68 842.37,-576.64"/>
</g>
<!-- Node121 -->
<g id="node39" class="node">
<title>Node121</title>
<g id="a_node39"><a xlink:href="lexer__expand__tilde_8c.html#aa4231a41b1e79447d6a70db7b075f937" target="_top" xlink:title=" ">
<polygon fill="white" stroke="#666666" points="772,-632 655,-632 655,-613 772,-613 772,-632"/>
<text text-anchor="middle" x="713.5" y="-620" font-family="Helvetica,sans-Serif" font-size="10.00">should_expand_tilde</text>
</a>
</g>
</g>
<!-- Node120&#45;&gt;Node121 -->
<g id="edge57" class="edge">
<title>Node120&#45;&gt;Node121</title>
<path fill="none" stroke="#63b8ff" d="M541.68,-514.13C559.02,-532.85 599.93,-574.42 642,-598.5 649.5,-602.79 657.89,-606.48 666.19,-609.59"/>
<polygon fill="#63b8ff" stroke="#63b8ff" points="665.25,-612.96 675.84,-612.97 667.56,-606.36 665.25,-612.96"/>
</g>
<!-- Node47 -->
<g id="node38" class="node">
<title>Node47</title>
<g id="a_node38"><a xlink:href="get__variable_8c.html#a569170390f0edf013bf89c26ef55ea8c" target="_top" xlink:title=" ">
<polygon fill="white" stroke="#666666" points="1142,-573 1065,-573 1065,-554 1142,-554 1142,-573"/>
<text text-anchor="middle" x="1103.5" y="-561" font-family="Helvetica,sans-Serif" font-size="10.00">get_variable</text>
</a>
</g>
</g>
<!-- Node46&#45;&gt;Node47 -->
<g id="edge55" class="edge">
<title>Node46&#45;&gt;Node47</title>
<path fill="none" stroke="#63b8ff" d="M962.18,-563.5C991.18,-563.5 1026.59,-563.5 1054.58,-563.5"/>
<polygon fill="#63b8ff" stroke="#63b8ff" points="1054.92,-567 1064.92,-563.5 1054.92,-560 1054.92,-567"/>
</g>
<!-- Node121&#45;&gt;Node122 -->
<g id="edge58" class="edge">
<title>Node121&#45;&gt;Node122</title>
<path fill="none" stroke="#63b8ff" d="M772.22,-628.23C790.14,-630 810.19,-631.99 829.19,-633.88"/>
<polygon fill="#63b8ff" stroke="#63b8ff" points="829.03,-637.38 839.33,-634.88 829.72,-630.41 829.03,-637.38"/>
</g>
<!-- Node123&#45;&gt;Node21 -->
<g id="edge72" class="edge">
<title>Node123&#45;&gt;Node21</title>
<path fill="none" stroke="#63b8ff" d="M541.71,-366.73C558.8,-348.36 598.83,-309.12 642,-293.5 774.37,-245.62 942.25,-254.09 1034.35,-264.09"/>
<polygon fill="#63b8ff" stroke="#63b8ff" points="1034.05,-267.57 1044.38,-265.21 1034.83,-260.62 1034.05,-267.57"/>
</g>
<!-- Node124 -->
<g id="node42" class="node">
<title>Node124</title>
<g id="a_node42"><a xlink:href="lexer__expand__variable_8c.html#abe77b7e35b276965b72648d12abae283" target="_top" xlink:title=" ">
<polygon fill="white" stroke="#666666" points="756.5,-395 670.5,-395 670.5,-376 756.5,-376 756.5,-395"/>
<text text-anchor="middle" x="713.5" y="-383" font-family="Helvetica,sans-Serif" font-size="10.00">append_dollar</text>
</a>
</g>
</g>
<!-- Node123&#45;&gt;Node124 -->
<g id="edge60" class="edge">
<title>Node123&#45;&gt;Node124</title>
<path fill="none" stroke="#63b8ff" d="M595.53,-379.64C616.73,-380.7 640.18,-381.87 660.48,-382.89"/>
<polygon fill="#63b8ff" stroke="#63b8ff" points="660.31,-386.39 670.47,-383.39 660.66,-379.4 660.31,-386.39"/>
</g>
<!-- Node125 -->
<g id="node43" class="node">
<title>Node125</title>
<g id="a_node43"><a xlink:href="lexer__expand__variable_8c.html#ab47d31838e3255a1321d85e937919d4e" target="_top" xlink:title=" ">
<polygon fill="white" stroke="#666666" points="769,-471 658,-471 658,-452 769,-452 769,-471"/>
<text text-anchor="middle" x="713.5" y="-459" font-family="Helvetica,sans-Serif" font-size="10.00">append_last_status</text>
</a>
</g>
</g>
<!-- Node123&#45;&gt;Node125 -->
<g id="edge62" class="edge">
<title>Node123&#45;&gt;Node125</title>
<path fill="none" stroke="#63b8ff" d="M578.49,-386.08C587.77,-388.66 597.33,-391.79 606,-395.5 637.53,-409 670.62,-430.91 691.39,-445.74"/>
<polygon fill="#63b8ff" stroke="#63b8ff" points="689.6,-448.78 699.75,-451.82 693.71,-443.11 689.6,-448.78"/>
</g>
<!-- Node126 -->
<g id="node44" class="node">
<title>Node126</title>
<g id="a_node44"><a xlink:href="lexer__expand__variable_8c.html#a9954e7e26e9570a3c41eed4e16bf6791" target="_top" xlink:title=" ">
<polygon fill="white" stroke="#666666" points="778.5,-358 648.5,-358 648.5,-339 778.5,-339 778.5,-358"/>
<text text-anchor="middle" x="713.5" y="-346" font-family="Helvetica,sans-Serif" font-size="10.00">append_variable_value</text>
</a>
</g>
</g>
<!-- Node123&#45;&gt;Node126 -->
<g id="edge65" class="edge">
<title>Node123&#45;&gt;Node126</title>
<path fill="none" stroke="#63b8ff" d="M594.02,-366.98C609.19,-364.61 625.59,-362.06 641.21,-359.62"/>
<polygon fill="#63b8ff" stroke="#63b8ff" points="642,-363.04 651.34,-358.04 640.92,-356.12 642,-363.04"/>
</g>
<!-- Node127 -->
<g id="node45" class="node">
<title>Node127</title>
<g id="a_node45"><a xlink:href="lexer__expand__variable_8c.html#a1d07a8c171e69a5c58a385a75520e6c0" target="_top" xlink:title=" ">
<polygon fill="white" stroke="#666666" points="771.5,-556.5 655.5,-556.5 655.5,-526.5 771.5,-526.5 771.5,-556.5"/>
<text text-anchor="start" x="663.5" y="-544.5" font-family="Helvetica,sans-Serif" font-size="10.00">get_correct_variable</text>
<text text-anchor="middle" x="713.5" y="-533.5" font-family="Helvetica,sans-Serif" font-size="10.00">_value</text>
</a>
</g>
</g>
<!-- Node123&#45;&gt;Node127 -->
<g id="edge67" class="edge">
<title>Node123&#45;&gt;Node127</title>
<path fill="none" stroke="#63b8ff" d="M592.47,-386.11C597.43,-388.59 602.05,-391.67 606,-395.5 646.62,-434.82 602.86,-476.71 642,-517.5 643.44,-519 644.98,-520.41 646.61,-521.74"/>
<polygon fill="#63b8ff" stroke="#63b8ff" points="645.05,-524.91 655.29,-527.63 648.99,-519.12 645.05,-524.91"/>
</g>
<!-- Node128 -->
<g id="node46" class="node">
<title>Node128</title>
<g id="a_node46"><a xlink:href="lexer__expand__variable_8c.html#a3674c7faac945bf9ec05a9dc00c08896" target="_top" xlink:title=" ">
<polygon fill="white" stroke="#666666" points="779,-508 648,-508 648,-489 779,-489 779,-508"/>
<text text-anchor="middle" x="713.5" y="-496" font-family="Helvetica,sans-Serif" font-size="10.00">get_variable_name_len</text>
</a>
</g>
</g>
<!-- Node123&#45;&gt;Node128 -->
<g id="edge69" class="edge">
<title>Node123&#45;&gt;Node128</title>
<path fill="none" stroke="#63b8ff" d="M590.94,-386.09C596.39,-388.56 601.54,-391.65 606,-395.5 637.05,-422.32 610.89,-453.76 642,-480.5 643.35,-481.66 644.77,-482.75 646.23,-483.77"/>
<polygon fill="#63b8ff" stroke="#63b8ff" points="644.74,-486.94 655.16,-488.88 648.22,-480.87 644.74,-486.94"/>
</g>
<!-- Node124&#45;&gt;Node19 -->
<g id="edge61" class="edge">
<title>Node124&#45;&gt;Node19</title>
<path fill="none" stroke="#63b8ff" d="M756.63,-376.09C766.07,-373.61 775.95,-370.72 785,-367.5 818.31,-355.65 854.94,-338.01 879.07,-325.7"/>
<polygon fill="#63b8ff" stroke="#63b8ff" points="880.7,-328.8 887.99,-321.11 877.5,-322.58 880.7,-328.8"/>
</g>
<!-- Node125&#45;&gt;Node19 -->
<g id="edge63" class="edge">
<title>Node125&#45;&gt;Node19</title>
<path fill="none" stroke="#63b8ff" d="M755.59,-451.94C765.76,-448.42 776.25,-443.71 785,-437.5 806.17,-422.47 803.5,-410.67 821,-391.5 842.25,-368.22 869.06,-343.7 886.82,-328.03"/>
<polygon fill="#63b8ff" stroke="#63b8ff" points="889.53,-330.32 894.76,-321.1 884.92,-325.05 889.53,-330.32"/>
</g>
<!-- Node125&#45;&gt;Node21 -->
<g id="edge64" class="edge">
<title>Node125&#45;&gt;Node21</title>
<path fill="none" stroke="#63b8ff" d="M745.76,-451.95C758.13,-447.89 772.39,-442.86 785,-437.5 897.32,-389.8 1024.47,-318.58 1077.36,-288.15"/>
<polygon fill="#63b8ff" stroke="#63b8ff" points="1079.15,-291.15 1086.06,-283.12 1075.65,-285.09 1079.15,-291.15"/>
</g>
<!-- Node126&#45;&gt;Node19 -->
<g id="edge66" class="edge">
<title>Node126&#45;&gt;Node19</title>
<path fill="none" stroke="#63b8ff" d="M763.82,-338.97C789.17,-334.07 820.25,-328.07 846.88,-322.92"/>
<polygon fill="#63b8ff" stroke="#63b8ff" points="847.7,-326.33 856.85,-321 846.37,-319.46 847.7,-326.33"/>
</g>
<!-- Node127&#45;&gt;Node46 -->
<g id="edge68" class="edge">
<title>Node127&#45;&gt;Node46</title>
<path fill="none" stroke="#63b8ff" d="M771.7,-548.07C793.68,-550.6 818.92,-553.5 841.54,-556.09"/>
<polygon fill="#63b8ff" stroke="#63b8ff" points="841.39,-559.6 851.72,-557.26 842.19,-552.65 841.39,-559.6"/>
</g>
<!-- Node129 -->
<g id="node47" class="node">
<title>Node129</title>
<g id="a_node47"><a xlink:href="lexer__expand__variable_8c.html#a5067193ac632b7565fd8b9ad405a525f" target="_top" xlink:title=" ">
<polygon fill="white" stroke="#666666" points="969.5,-508 844.5,-508 844.5,-489 969.5,-489 969.5,-508"/>
<text text-anchor="middle" x="907" y="-496" font-family="Helvetica,sans-Serif" font-size="10.00">is_valid_variable_char</text>
</a>
</g>
</g>
<!-- Node128&#45;&gt;Node129 -->
<g id="edge70" class="edge">
<title>Node128&#45;&gt;Node129</title>
<path fill="none" stroke="#63b8ff" d="M779.07,-498.5C796.76,-498.5 816.04,-498.5 834.12,-498.5"/>
<polygon fill="#63b8ff" stroke="#63b8ff" points="834.31,-502 844.31,-498.5 834.31,-495 834.31,-502"/>
</g>
<!-- Node130 -->
<g id="node48" class="node">
<title>Node130</title>
<g id="a_node48"><a xlink:href="strings_8h.html#adfd4fc057d3b7ad39c6867928cc44175" target="_top" xlink:title=" ">
<polygon fill="white" stroke="#666666" points="1145,-508 1062,-508 1062,-489 1145,-489 1145,-508"/>
<text text-anchor="middle" x="1103.5" y="-496" font-family="Helvetica,sans-Serif" font-size="10.00">my_isnumber</text>
</a>
</g>
</g>
<!-- Node129&#45;&gt;Node130 -->
<g id="edge71" class="edge">
<title>Node129&#45;&gt;Node130</title>
<path fill="none" stroke="#63b8ff" d="M969.54,-498.5C996.05,-498.5 1026.67,-498.5 1051.84,-498.5"/>
<polygon fill="#63b8ff" stroke="#63b8ff" points="1051.9,-502 1061.9,-498.5 1051.9,-495 1051.9,-502"/>
</g>
</g>
</svg>
