<?xml version="1.0" encoding="UTF-8" standalone="no"?>
<!DOCTYPE svg PUBLIC "-//W3C//DTD SVG 1.1//EN"
 "http://www.w3.org/Graphics/SVG/1.1/DTD/svg11.dtd">
<!-- Generated by graphviz version 2.43.0 (0)
 -->
<!-- Title: append_name Pages: 1 -->
<svg width="560pt" height="114pt"
 viewBox="0.00 0.00 560.00 113.50" xmlns="http://www.w3.org/2000/svg" xmlns:xlink="http://www.w3.org/1999/xlink">
<g id="graph0" class="graph" transform="scale(1 1) rotate(0) translate(4 109.5)">
<title>append_name</title>
<!-- Node1 -->
<g id="node1" class="node">
<title>Node1</title>
<g id="a_node1"><a xlink:title=" ">
<polygon fill="#999999" stroke="#666666" points="86,-67.5 0,-67.5 0,-48.5 86,-48.5 86,-67.5"/>
<text text-anchor="middle" x="43" y="-55.5" font-family="Helvetica,sans-Serif" font-size="10.00">append_name</text>
</a>
</g>
</g>
<!-- Node2 -->
<g id="node2" class="node">
<title>Node2</title>
<g id="a_node2"><a xlink:href="lexer__expand__variable_8c.html#a9954e7e26e9570a3c41eed4e16bf6791" target="_top" xlink:title=" ">
<polygon fill="white" stroke="#666666" points="252,-105.5 122,-105.5 122,-86.5 252,-86.5 252,-105.5"/>
<text text-anchor="middle" x="187" y="-93.5" font-family="Helvetica,sans-Serif" font-size="10.00">append_variable_value</text>
</a>
</g>
</g>
<!-- Node1&#45;&gt;Node2 -->
<g id="edge1" class="edge">
<title>Node1&#45;&gt;Node2</title>
<path fill="none" stroke="#63b8ff" d="M79.83,-67.59C98.16,-72.49 120.68,-78.52 140.25,-83.76"/>
<polygon fill="#63b8ff" stroke="#63b8ff" points="139.61,-87.21 150.18,-86.41 141.42,-80.45 139.61,-87.21"/>
</g>
<!-- Node5 -->
<g id="node5" class="node">
<title>Node5</title>
<g id="a_node5"><a xlink:href="lexer__utils_8c.html#a84e8d5514cfe03a20152ad26f170211f" target="_top" xlink:title=" ">
<polygon fill="white" stroke="#666666" points="552,-67.5 434,-67.5 434,-48.5 552,-48.5 552,-67.5"/>
<text text-anchor="middle" x="493" y="-55.5" font-family="Helvetica,sans-Serif" font-size="10.00">lexer_set_alloc_error</text>
</a>
</g>
</g>
<!-- Node1&#45;&gt;Node5 -->
<g id="edge8" class="edge">
<title>Node1&#45;&gt;Node5</title>
<path fill="none" stroke="#63b8ff" d="M86.15,-58C163.72,-58 329.75,-58 423.64,-58"/>
<polygon fill="#63b8ff" stroke="#63b8ff" points="423.89,-61.5 433.89,-58 423.89,-54.5 423.89,-61.5"/>
</g>
<!-- Node6 -->
<g id="node6" class="node">
<title>Node6</title>
<g id="a_node6"><a xlink:href="lexer__expand__variable_8c.html#a1d07a8c171e69a5c58a385a75520e6c0" target="_top" xlink:title=" ">
<polygon fill="white" stroke="#666666" points="245,-30 129,-30 129,0 245,0 245,-30"/>
<text text-anchor="start" x="137" y="-18" font-family="Helvetica,sans-Serif" font-size="10.00">get_correct_variable</text>
<text text-anchor="middle" x="187" y="-7" font-family="Helvetica,sans-Serif" font-size="10.00">_value</text>
</a>
</g>
</g>
<!-- Node1&#45;&gt;Node6 -->
<g id="edge5" class="edge">
<title>Node1&#45;&gt;Node6</title>
<path fill="none" stroke="#63b8ff" d="M75.51,-48.46C90.61,-43.88 109.2,-38.26 126.8,-32.93"/>
<polygon fill="#63b8ff" stroke="#63b8ff" points="127.89,-36.25 136.44,-30.01 125.86,-29.55 127.89,-36.25"/>
</g>
<!-- Node3 -->
<g id="node3" class="node">
<title>Node3</title>
<g id="a_node3"><a xlink:href="lexer__utils_8c.html#abf1c1b3b6033c8f9c8d1b11cc9e14f75" target="_top" xlink:title=" ">
<polygon fill="white" stroke="#666666" points="393,-105.5 293,-105.5 293,-86.5 393,-86.5 393,-105.5"/>
<text text-anchor="middle" x="343" y="-93.5" font-family="Helvetica,sans-Serif" font-size="10.00">lexer_append_str</text>
</a>
</g>
</g>
<!-- Node2&#45;&gt;Node3 -->
<g id="edge2" class="edge">
<title>Node2&#45;&gt;Node3</title>
<path fill="none" stroke="#63b8ff" d="M252.42,-96C262.45,-96 272.78,-96 282.69,-96"/>
<polygon fill="#63b8ff" stroke="#63b8ff" points="282.84,-99.5 292.84,-96 282.84,-92.5 282.84,-99.5"/>
</g>
<!-- Node4 -->
<g id="node4" class="node">
<title>Node4</title>
<g id="a_node4"><a xlink:href="strings_8h.html#a5e1589f073ac32d227dbc6020c376dab" target="_top" xlink:title=" ">
<polygon fill="white" stroke="#666666" points="543.5,-105.5 442.5,-105.5 442.5,-86.5 543.5,-86.5 543.5,-105.5"/>
<text text-anchor="middle" x="493" y="-93.5" font-family="Helvetica,sans-Serif" font-size="10.00">append_to_buffer</text>
</a>
</g>
</g>
<!-- Node3&#45;&gt;Node4 -->
<g id="edge3" class="edge">
<title>Node3&#45;&gt;Node4</title>
<path fill="none" stroke="#63b8ff" d="M393.28,-96C405.76,-96 419.29,-96 432.22,-96"/>
<polygon fill="#63b8ff" stroke="#63b8ff" points="432.43,-99.5 442.43,-96 432.43,-92.5 432.43,-99.5"/>
</g>
<!-- Node3&#45;&gt;Node5 -->
<g id="edge4" class="edge">
<title>Node3&#45;&gt;Node5</title>
<path fill="none" stroke="#63b8ff" d="M381.35,-86.41C400.7,-81.44 424.53,-75.32 445.11,-70.04"/>
<polygon fill="#63b8ff" stroke="#63b8ff" points="446.11,-73.4 454.92,-67.52 444.37,-66.62 446.11,-73.4"/>
</g>
<!-- Node7 -->
<g id="node7" class="node">
<title>Node7</title>
<g id="a_node7"><a xlink:href="get__variable__value_8c.html#a2edd9900f19af236aa05385a789be3d6" target="_top" xlink:title=" ">
<polygon fill="white" stroke="#666666" points="398,-24.5 288,-24.5 288,-5.5 398,-5.5 398,-24.5"/>
<text text-anchor="middle" x="343" y="-12.5" font-family="Helvetica,sans-Serif" font-size="10.00">get_variable_value</text>
</a>
</g>
</g>
<!-- Node6&#45;&gt;Node7 -->
<g id="edge6" class="edge">
<title>Node6&#45;&gt;Node7</title>
<path fill="none" stroke="#63b8ff" d="M245.34,-15C255.91,-15 267,-15 277.75,-15"/>
<polygon fill="#63b8ff" stroke="#63b8ff" points="277.93,-18.5 287.93,-15 277.93,-11.5 277.93,-18.5"/>
</g>
<!-- Node8 -->
<g id="node8" class="node">
<title>Node8</title>
<g id="a_node8"><a xlink:href="get__variable_8c.html#a569170390f0edf013bf89c26ef55ea8c" target="_top" xlink:title=" ">
<polygon fill="white" stroke="#666666" points="531.5,-24.5 454.5,-24.5 454.5,-5.5 531.5,-5.5 531.5,-24.5"/>
<text text-anchor="middle" x="493" y="-12.5" font-family="Helvetica,sans-Serif" font-size="10.00">get_variable</text>
</a>
</g>
</g>
<!-- Node7&#45;&gt;Node8 -->
<g id="edge7" class="edge">
<title>Node7&#45;&gt;Node8</title>
<path fill="none" stroke="#63b8ff" d="M398.27,-15C413.27,-15 429.44,-15 444.06,-15"/>
<polygon fill="#63b8ff" stroke="#63b8ff" points="444.39,-18.5 454.39,-15 444.39,-11.5 444.39,-18.5"/>
</g>
</g>
</svg>
