<?xml version="1.0" encoding="UTF-8" standalone="no"?>
<!DOCTYPE svg PUBLIC "-//W3C//DTD SVG 1.1//EN"
 "http://www.w3.org/Graphics/SVG/1.1/DTD/svg11.dtd">
<!-- Generated by graphviz version 2.43.0 (0)
 -->
<!-- Title: src/lexer/lexer_init.c Pages: 1 -->
<svg width="246pt" height="247pt"
 viewBox="0.00 0.00 245.50 247.00" xmlns="http://www.w3.org/2000/svg" xmlns:xlink="http://www.w3.org/1999/xlink">
<g id="graph0" class="graph" transform="scale(1 1) rotate(0) translate(4 243)">
<title>src/lexer/lexer_init.c</title>
<!-- Node1 -->
<g id="node1" class="node">
<title>Node1</title>
<g id="a_node1"><a xlink:title=" ">
<polygon fill="#999999" stroke="#666666" points="227,-239 113,-239 113,-220 227,-220 227,-239"/>
<text text-anchor="middle" x="170" y="-227" font-family="Helvetica,sans-Serif" font-size="10.00">src/lexer/lexer_init.c</text>
</a>
</g>
</g>
<!-- Node2 -->
<g id="node2" class="node">
<title>Node2</title>
<g id="a_node2"><a xlink:href="lexer_8h.html" target="_top" xlink:title=" ">
<polygon fill="white" stroke="#666666" points="168.5,-184 119.5,-184 119.5,-165 168.5,-165 168.5,-184"/>
<text text-anchor="middle" x="144" y="-172" font-family="Helvetica,sans-Serif" font-size="10.00">lexer.h</text>
</a>
</g>
</g>
<!-- Node1&#45;&gt;Node2 -->
<g id="edge1" class="edge">
<title>Node1&#45;&gt;Node2</title>
<path fill="none" stroke="#63b8ff" d="M165.71,-219.75C162.19,-212.57 157.09,-202.18 152.72,-193.27"/>
<polygon fill="#63b8ff" stroke="#63b8ff" points="155.76,-191.53 148.21,-184.09 149.48,-194.61 155.76,-191.53"/>
</g>
<!-- Node5 -->
<g id="node5" class="node">
<title>Node5</title>
<g id="a_node5"><a xlink:href="shell_8h.html" target="_top" xlink:title=" ">
<polygon fill="white" stroke="#666666" points="237.5,-129 188.5,-129 188.5,-110 237.5,-110 237.5,-129"/>
<text text-anchor="middle" x="213" y="-117" font-family="Helvetica,sans-Serif" font-size="10.00">shell.h</text>
</a>
</g>
</g>
<!-- Node1&#45;&gt;Node5 -->
<g id="edge8" class="edge">
<title>Node1&#45;&gt;Node5</title>
<path fill="none" stroke="#63b8ff" d="M173.52,-219.66C180.55,-202.01 196.44,-162.09 205.78,-138.64"/>
<polygon fill="#63b8ff" stroke="#63b8ff" points="209.11,-139.74 209.55,-129.16 202.6,-137.15 209.11,-139.74"/>
</g>
<!-- Node3 -->
<g id="node3" class="node">
<title>Node3</title>
<g id="a_node3"><a xlink:title=" ">
<polygon fill="#e0e0e0" stroke="#999999" points="56,-19 0,-19 0,0 56,0 56,-19"/>
<text text-anchor="middle" x="28" y="-7" font-family="Helvetica,sans-Serif" font-size="10.00">stddef.h</text>
</a>
</g>
</g>
<!-- Node2&#45;&gt;Node3 -->
<g id="edge2" class="edge">
<title>Node2&#45;&gt;Node3</title>
<path fill="none" stroke="#63b8ff" d="M119.39,-172.77C89.72,-170.41 40.98,-161.48 18,-129 -3.18,-99.06 9.85,-53.62 19.81,-28.6"/>
<polygon fill="#63b8ff" stroke="#63b8ff" points="23.1,-29.81 23.78,-19.23 16.65,-27.07 23.1,-29.81"/>
</g>
<!-- Node4 -->
<g id="node4" class="node">
<title>Node4</title>
<g id="a_node4"><a xlink:title=" ">
<polygon fill="#e0e0e0" stroke="#999999" points="99,-129 27,-129 27,-110 99,-110 99,-129"/>
<text text-anchor="middle" x="63" y="-117" font-family="Helvetica,sans-Serif" font-size="10.00">sys/types.h</text>
</a>
</g>
</g>
<!-- Node2&#45;&gt;Node4 -->
<g id="edge3" class="edge">
<title>Node2&#45;&gt;Node4</title>
<path fill="none" stroke="#63b8ff" d="M130.99,-164.98C118.54,-156.84 99.54,-144.41 84.79,-134.76"/>
<polygon fill="#63b8ff" stroke="#63b8ff" points="86.54,-131.72 76.25,-129.17 82.7,-137.57 86.54,-131.72"/>
</g>
<!-- Node2&#45;&gt;Node5 -->
<g id="edge4" class="edge">
<title>Node2&#45;&gt;Node5</title>
<path fill="none" stroke="#63b8ff" d="M155.09,-164.98C165.49,-157 181.26,-144.88 193.72,-135.31"/>
<polygon fill="#63b8ff" stroke="#63b8ff" points="195.91,-138.04 201.71,-129.17 191.65,-132.49 195.91,-138.04"/>
</g>
<!-- Node7 -->
<g id="node7" class="node">
<title>Node7</title>
<g id="a_node7"><a xlink:href="token_8h.html" target="_top" xlink:title=" ">
<polygon fill="white" stroke="#666666" points="170.5,-129 117.5,-129 117.5,-110 170.5,-110 170.5,-129"/>
<text text-anchor="middle" x="144" y="-117" font-family="Helvetica,sans-Serif" font-size="10.00">token.h</text>
</a>
</g>
</g>
<!-- Node2&#45;&gt;Node7 -->
<g id="edge7" class="edge">
<title>Node2&#45;&gt;Node7</title>
<path fill="none" stroke="#63b8ff" d="M144,-164.75C144,-157.8 144,-147.85 144,-139.13"/>
<polygon fill="#63b8ff" stroke="#63b8ff" points="147.5,-139.09 144,-129.09 140.5,-139.09 147.5,-139.09"/>
</g>
<!-- Node6 -->
<g id="node6" class="node">
<title>Node6</title>
<g id="a_node6"><a xlink:href="list_8h.html" target="_top" xlink:title=" ">
<polygon fill="white" stroke="#666666" points="164.5,-74 105.5,-74 105.5,-55 164.5,-55 164.5,-74"/>
<text text-anchor="middle" x="135" y="-62" font-family="Helvetica,sans-Serif" font-size="10.00">my/list.h</text>
</a>
</g>
</g>
<!-- Node5&#45;&gt;Node6 -->
<g id="edge5" class="edge">
<title>Node5&#45;&gt;Node6</title>
<path fill="none" stroke="#63b8ff" d="M200.47,-109.98C188.6,-101.92 170.54,-89.65 156.39,-80.03"/>
<polygon fill="#63b8ff" stroke="#63b8ff" points="158,-76.9 147.76,-74.17 154.06,-82.69 158,-76.9"/>
</g>
<!-- Node6&#45;&gt;Node3 -->
<g id="edge6" class="edge">
<title>Node6&#45;&gt;Node3</title>
<path fill="none" stroke="#63b8ff" d="M117.81,-54.98C100.75,-46.54 74.37,-33.47 54.6,-23.68"/>
<polygon fill="#63b8ff" stroke="#63b8ff" points="56.02,-20.47 45.5,-19.17 52.91,-26.75 56.02,-20.47"/>
</g>
</g>
</svg>
