<?xml version="1.0" encoding="UTF-8" standalone="no"?>
<!DOCTYPE svg PUBLIC "-//W3C//DTD SVG 1.1//EN"
 "http://www.w3.org/Graphics/SVG/1.1/DTD/svg11.dtd">
<!-- Generated by graphviz version 2.43.0 (0)
 -->
<!-- Title: get_redirection_token Pages: 1 -->
<svg width="407pt" height="138pt"
 viewBox="0.00 0.00 407.00 138.00" xmlns="http://www.w3.org/2000/svg" xmlns:xlink="http://www.w3.org/1999/xlink">
<g id="graph0" class="graph" transform="scale(1 1) rotate(0) translate(4 134)">
<title>get_redirection_token</title>
<!-- Node1 -->
<g id="node1" class="node">
<title>Node1</title>
<g id="a_node1"><a xlink:title=" ">
<polygon fill="#999999" stroke="#666666" points="122,-74 0,-74 0,-55 122,-55 122,-74"/>
<text text-anchor="middle" x="61" y="-62" font-family="Helvetica,sans-Serif" font-size="10.00">get_redirection_token</text>
</a>
</g>
</g>
<!-- Node2 -->
<g id="node2" class="node">
<title>Node2</title>
<g id="a_node2"><a xlink:href="lexer__heredoc_8c.html#a9db043b0e8df9ad1155a65a8fcf67c11" target="_top" xlink:title=" ">
<polygon fill="white" stroke="#666666" points="263,-130 178,-130 178,-111 263,-111 263,-130"/>
<text text-anchor="middle" x="220.5" y="-118" font-family="Helvetica,sans-Serif" font-size="10.00">lexer_heredoc</text>
</a>
</g>
</g>
<!-- Node1&#45;&gt;Node2 -->
<g id="edge1" class="edge">
<title>Node1&#45;&gt;Node2</title>
<path fill="none" stroke="#63b8ff" d="M84.67,-74.16C103.98,-82.22 132.57,-93.77 158,-102.5 163.53,-104.4 169.38,-106.28 175.18,-108.06"/>
<polygon fill="#63b8ff" stroke="#63b8ff" points="174.26,-111.44 184.84,-110.96 176.28,-104.73 174.26,-111.44"/>
</g>
<!-- Node4 -->
<g id="node4" class="node">
<title>Node4</title>
<g id="a_node4"><a xlink:href="lexer__redirect__append_8c.html#a09beefbfaf132dbe04add1370a6fb2e3" target="_top" xlink:title=" ">
<polygon fill="white" stroke="#666666" points="283,-93 158,-93 158,-74 283,-74 283,-93"/>
<text text-anchor="middle" x="220.5" y="-81" font-family="Helvetica,sans-Serif" font-size="10.00">lexer_redirect_append</text>
</a>
</g>
</g>
<!-- Node1&#45;&gt;Node4 -->
<g id="edge3" class="edge">
<title>Node1&#45;&gt;Node4</title>
<path fill="none" stroke="#63b8ff" d="M122.44,-71.79C130.8,-72.8 139.44,-73.84 147.98,-74.87"/>
<polygon fill="#63b8ff" stroke="#63b8ff" points="147.57,-78.35 157.92,-76.07 148.41,-71.4 147.57,-78.35"/>
</g>
<!-- Node5 -->
<g id="node5" class="node">
<title>Node5</title>
<g id="a_node5"><a xlink:href="lexer__redirect__in_8c.html#ac723d9668329d99b35003ed2423889e5" target="_top" xlink:title=" ">
<polygon fill="white" stroke="#666666" points="269.5,-56 171.5,-56 171.5,-37 269.5,-37 269.5,-56"/>
<text text-anchor="middle" x="220.5" y="-44" font-family="Helvetica,sans-Serif" font-size="10.00">lexer_redirect_in</text>
</a>
</g>
</g>
<!-- Node1&#45;&gt;Node5 -->
<g id="edge5" class="edge">
<title>Node1&#45;&gt;Node5</title>
<path fill="none" stroke="#63b8ff" d="M122.44,-57.59C135.18,-56.14 148.58,-54.6 161.23,-53.16"/>
<polygon fill="#63b8ff" stroke="#63b8ff" points="161.65,-56.63 171.19,-52.02 160.86,-49.68 161.65,-56.63"/>
</g>
<!-- Node6 -->
<g id="node6" class="node">
<title>Node6</title>
<g id="a_node6"><a xlink:href="lexer__redirect__out_8c.html#a70e2216639c96030b3861405ae3497c6" target="_top" xlink:title=" ">
<polygon fill="white" stroke="#666666" points="272.5,-19 168.5,-19 168.5,0 272.5,0 272.5,-19"/>
<text text-anchor="middle" x="220.5" y="-7" font-family="Helvetica,sans-Serif" font-size="10.00">lexer_redirect_out</text>
</a>
</g>
</g>
<!-- Node1&#45;&gt;Node6 -->
<g id="edge7" class="edge">
<title>Node1&#45;&gt;Node6</title>
<path fill="none" stroke="#63b8ff" d="M86.32,-54.93C105.64,-47.43 133.41,-36.9 158,-28.5 164.39,-26.32 171.2,-24.1 177.86,-22"/>
<polygon fill="#63b8ff" stroke="#63b8ff" points="178.96,-25.32 187.46,-19 176.88,-18.64 178.96,-25.32"/>
</g>
<!-- Node3 -->
<g id="node3" class="node">
<title>Node3</title>
<g id="a_node3"><a xlink:href="create__token_8c.html#a15bcfc92177012893c626ce7d2d6bb6b" target="_top" xlink:title=" ">
<polygon fill="white" stroke="#666666" points="399,-74 319,-74 319,-55 399,-55 399,-74"/>
<text text-anchor="middle" x="359" y="-62" font-family="Helvetica,sans-Serif" font-size="10.00">create_token</text>
</a>
</g>
</g>
<!-- Node2&#45;&gt;Node3 -->
<g id="edge2" class="edge">
<title>Node2&#45;&gt;Node3</title>
<path fill="none" stroke="#63b8ff" d="M258.3,-110.93C266.52,-108.46 275.14,-105.61 283,-102.5 299.87,-95.82 318.04,-86.67 332.27,-79.02"/>
<polygon fill="#63b8ff" stroke="#63b8ff" points="334.34,-81.88 341.43,-74.01 330.98,-75.74 334.34,-81.88"/>
</g>
<!-- Node4&#45;&gt;Node3 -->
<g id="edge4" class="edge">
<title>Node4&#45;&gt;Node3</title>
<path fill="none" stroke="#63b8ff" d="M283.36,-74.89C291.79,-73.72 300.35,-72.52 308.53,-71.39"/>
<polygon fill="#63b8ff" stroke="#63b8ff" points="309.21,-74.82 318.63,-69.98 308.25,-67.89 309.21,-74.82"/>
</g>
<!-- Node5&#45;&gt;Node3 -->
<g id="edge6" class="edge">
<title>Node5&#45;&gt;Node3</title>
<path fill="none" stroke="#63b8ff" d="M269.62,-52.85C282.34,-54.52 296.09,-56.34 308.86,-58.02"/>
<polygon fill="#63b8ff" stroke="#63b8ff" points="308.48,-61.5 318.85,-59.34 309.4,-54.56 308.48,-61.5"/>
</g>
<!-- Node6&#45;&gt;Node3 -->
<g id="edge8" class="edge">
<title>Node6&#45;&gt;Node3</title>
<path fill="none" stroke="#63b8ff" d="M255.65,-19.07C264.63,-21.85 274.26,-25.07 283,-28.5 299.17,-34.84 316.7,-43.17 330.74,-50.21"/>
<polygon fill="#63b8ff" stroke="#63b8ff" points="329.34,-53.43 339.84,-54.85 332.52,-47.19 329.34,-53.43"/>
</g>
</g>
</svg>
