<?xml version="1.0" encoding="UTF-8" standalone="no"?>
<!DOCTYPE svg PUBLIC "-//W3C//DTD SVG 1.1//EN"
 "http://www.w3.org/Graphics/SVG/1.1/DTD/svg11.dtd">
<!-- Generated by graphviz version 2.43.0 (0)
 -->
<!-- Title: include/lexer.h Pages: 1 -->
<svg width="3439pt" height="159pt"
 viewBox="0.00 0.00 3439.00 159.00" xmlns="http://www.w3.org/2000/svg" xmlns:xlink="http://www.w3.org/1999/xlink">
<g id="graph0" class="graph" transform="scale(1 1) rotate(0) translate(4 155)">
<title>include/lexer.h</title>
<!-- Node1 -->
<g id="node1" class="node">
<title>Node1</title>
<g id="a_node1"><a xlink:title=" ">
<polygon fill="#999999" stroke="#666666" points="2034.5,-151 1947.5,-151 1947.5,-132 2034.5,-132 2034.5,-151"/>
<text text-anchor="middle" x="1991" y="-139" font-family="Helvetica,sans-Serif" font-size="10.00">include/lexer.h</text>
</a>
</g>
</g>
<!-- Node2 -->
<g id="node2" class="node">
<title>Node2</title>
<g id="a_node2"><a xlink:href="parser_8h.html" target="_top" xlink:title=" ">
<polygon fill="white" stroke="#666666" points="1027,-90.5 933,-90.5 933,-71.5 1027,-71.5 1027,-90.5"/>
<text text-anchor="middle" x="980" y="-78.5" font-family="Helvetica,sans-Serif" font-size="10.00">include/parser.h</text>
</a>
</g>
</g>
<!-- Node1&#45;&gt;Node2 -->
<g id="edge1" class="edge">
<title>Node1&#45;&gt;Node2</title>
<path fill="none" stroke="#63b8ff" d="M1937.12,-139.24C1762.93,-134.99 1216.14,-120 1041,-96 1031.63,-94.72 1021.59,-92.69 1012.41,-90.57"/>
<polygon fill="#63b8ff" stroke="#63b8ff" points="1937.24,-142.75 1947.32,-139.49 1937.41,-135.75 1937.24,-142.75"/>
</g>
<!-- Node4 -->
<g id="node4" class="node">
<title>Node4</title>
<g id="a_node4"><a xlink:href="parser__init_8c.html" target="_top" xlink:title=" ">
<polygon fill="white" stroke="#666666" points="128,-24.5 0,-24.5 0,-5.5 128,-5.5 128,-24.5"/>
<text text-anchor="middle" x="64" y="-12.5" font-family="Helvetica,sans-Serif" font-size="10.00">src/parser/parser_init.c</text>
</a>
</g>
</g>
<!-- Node1&#45;&gt;Node4 -->
<g id="edge33" class="edge">
<title>Node1&#45;&gt;Node4</title>
<path fill="none" stroke="#63b8ff" d="M1937.2,-139.68C1711.86,-136.11 842.95,-120.99 570,-96 396.41,-80.11 192.02,-41.66 105.75,-24.51"/>
<polygon fill="#63b8ff" stroke="#63b8ff" points="1937.39,-143.18 1947.44,-139.84 1937.5,-136.18 1937.39,-143.18"/>
</g>
<!-- Node5 -->
<g id="node5" class="node">
<title>Node5</title>
<g id="a_node5"><a xlink:href="parser__next_8c.html" target="_top" xlink:title=" ">
<polygon fill="white" stroke="#666666" points="280,-24.5 146,-24.5 146,-5.5 280,-5.5 280,-24.5"/>
<text text-anchor="middle" x="213" y="-12.5" font-family="Helvetica,sans-Serif" font-size="10.00">src/parser/parser_next.c</text>
</a>
</g>
</g>
<!-- Node1&#45;&gt;Node5 -->
<g id="edge34" class="edge">
<title>Node1&#45;&gt;Node5</title>
<path fill="none" stroke="#63b8ff" d="M1937.21,-139.43C1780.68,-136.08 1311.96,-124.22 924,-96 641.01,-75.41 569.85,-70.4 289,-30 278.24,-28.45 266.69,-26.48 255.91,-24.51"/>
<polygon fill="#63b8ff" stroke="#63b8ff" points="1937.42,-142.94 1947.5,-139.65 1937.57,-135.94 1937.42,-142.94"/>
</g>
<!-- Node16 -->
<g id="node16" class="node">
<title>Node16</title>
<g id="a_node16"><a xlink:href="shell_8c.html" target="_top" xlink:title=" ">
<polygon fill="white" stroke="#666666" points="2014.5,-24.5 1949.5,-24.5 1949.5,-5.5 2014.5,-5.5 2014.5,-24.5"/>
<text text-anchor="middle" x="1982" y="-12.5" font-family="Helvetica,sans-Serif" font-size="10.00">src/shell.c</text>
</a>
</g>
</g>
<!-- Node1&#45;&gt;Node16 -->
<g id="edge35" class="edge">
<title>Node1&#45;&gt;Node16</title>
<path fill="none" stroke="#63b8ff" d="M1937.37,-139.92C1745.63,-137.57 1103.91,-127.39 1074,-96 1064.8,-86.35 1064.77,-75.62 1074,-66 1107.33,-31.25 1892.64,-38.7 1940,-30 1946.65,-28.78 1953.69,-26.74 1960.07,-24.6"/>
<polygon fill="#63b8ff" stroke="#63b8ff" points="1937.44,-143.42 1947.49,-140.04 1937.53,-136.42 1937.44,-143.42"/>
</g>
<!-- Node17 -->
<g id="node17" class="node">
<title>Node17</title>
<g id="a_node17"><a xlink:href="lexer__expand__command__substitution_8c.html" target="_top" xlink:title=" ">
<polygon fill="white" stroke="#666666" points="1225,-96 1083,-96 1083,-66 1225,-66 1225,-96"/>
<text text-anchor="start" x="1091" y="-84" font-family="Helvetica,sans-Serif" font-size="10.00">src/lexer/lexer_expand</text>
<text text-anchor="middle" x="1154" y="-73" font-family="Helvetica,sans-Serif" font-size="10.00">_command_substitution.c</text>
</a>
</g>
</g>
<!-- Node1&#45;&gt;Node17 -->
<g id="edge16" class="edge">
<title>Node1&#45;&gt;Node17</title>
<path fill="none" stroke="#63b8ff" d="M1937.31,-139.45C1813.15,-136.58 1496.65,-126.6 1234,-96 1231.06,-95.66 1228.06,-95.28 1225.04,-94.87"/>
<polygon fill="#63b8ff" stroke="#63b8ff" points="1937.25,-142.95 1947.33,-139.68 1937.41,-135.96 1937.25,-142.95"/>
</g>
<!-- Node18 -->
<g id="node18" class="node">
<title>Node18</title>
<g id="a_node18"><a xlink:href="lexer__expand__tilde_8c.html" target="_top" xlink:title=" ">
<polygon fill="white" stroke="#666666" points="1369,-96 1243,-96 1243,-66 1369,-66 1369,-96"/>
<text text-anchor="start" x="1251" y="-84" font-family="Helvetica,sans-Serif" font-size="10.00">src/lexer/lexer_expand</text>
<text text-anchor="middle" x="1306" y="-73" font-family="Helvetica,sans-Serif" font-size="10.00">_tilde.c</text>
</a>
</g>
</g>
<!-- Node1&#45;&gt;Node18 -->
<g id="edge17" class="edge">
<title>Node1&#45;&gt;Node18</title>
<path fill="none" stroke="#63b8ff" d="M1937.12,-138.75C1830.14,-134.81 1583.49,-123.34 1378,-96 1375.1,-95.61 1372.13,-95.18 1369.15,-94.72"/>
<polygon fill="#63b8ff" stroke="#63b8ff" points="1937.22,-142.26 1947.34,-139.12 1937.47,-135.26 1937.22,-142.26"/>
</g>
<!-- Node19 -->
<g id="node19" class="node">
<title>Node19</title>
<g id="a_node19"><a xlink:href="lexer__expand__variable_8c.html" target="_top" xlink:title=" ">
<polygon fill="white" stroke="#666666" points="1513,-96 1387,-96 1387,-66 1513,-66 1513,-96"/>
<text text-anchor="start" x="1395" y="-84" font-family="Helvetica,sans-Serif" font-size="10.00">src/lexer/lexer_expand</text>
<text text-anchor="middle" x="1450" y="-73" font-family="Helvetica,sans-Serif" font-size="10.00">_variable.c</text>
</a>
</g>
</g>
<!-- Node1&#45;&gt;Node19 -->
<g id="edge18" class="edge">
<title>Node1&#45;&gt;Node19</title>
<path fill="none" stroke="#63b8ff" d="M1936.97,-137.09C1849.5,-131.19 1671.55,-117.58 1522,-96 1519.1,-95.58 1516.14,-95.13 1513.16,-94.64"/>
<polygon fill="#63b8ff" stroke="#63b8ff" points="1936.98,-140.6 1947.19,-137.77 1937.44,-133.62 1936.98,-140.6"/>
</g>
<!-- Node20 -->
<g id="node20" class="node">
<title>Node20</title>
<g id="a_node20"><a xlink:href="lexer__init_8c.html" target="_top" xlink:title=" ">
<polygon fill="white" stroke="#666666" points="1645,-90.5 1531,-90.5 1531,-71.5 1645,-71.5 1645,-90.5"/>
<text text-anchor="middle" x="1588" y="-78.5" font-family="Helvetica,sans-Serif" font-size="10.00">src/lexer/lexer_init.c</text>
</a>
</g>
</g>
<!-- Node1&#45;&gt;Node20 -->
<g id="edge19" class="edge">
<title>Node1&#45;&gt;Node20</title>
<path fill="none" stroke="#63b8ff" d="M1937.22,-134.7C1870.54,-127.22 1753.51,-113.1 1654,-96 1644.76,-94.41 1634.86,-92.45 1625.6,-90.5"/>
<polygon fill="#63b8ff" stroke="#63b8ff" points="1937.15,-138.22 1947.48,-135.85 1937.93,-131.26 1937.15,-138.22"/>
</g>
<!-- Node21 -->
<g id="node21" class="node">
<title>Node21</title>
<g id="a_node21"><a xlink:href="lexer__next__token_8c.html" target="_top" xlink:title=" ">
<polygon fill="white" stroke="#666666" points="1775,-96 1663,-96 1663,-66 1775,-66 1775,-96"/>
<text text-anchor="start" x="1671" y="-84" font-family="Helvetica,sans-Serif" font-size="10.00">src/lexer/lexer_next</text>
<text text-anchor="middle" x="1719" y="-73" font-family="Helvetica,sans-Serif" font-size="10.00">_token.c</text>
</a>
</g>
</g>
<!-- Node1&#45;&gt;Node21 -->
<g id="edge20" class="edge">
<title>Node1&#45;&gt;Node21</title>
<path fill="none" stroke="#63b8ff" d="M1941.52,-129.86C1894.59,-119.76 1824.15,-104.62 1775.14,-94.07"/>
<polygon fill="#63b8ff" stroke="#63b8ff" points="1940.94,-133.31 1951.45,-131.99 1942.41,-126.47 1940.94,-133.31"/>
</g>
<!-- Node22 -->
<g id="node22" class="node">
<title>Node22</title>
<g id="a_node22"><a xlink:href="lexer__utils_8c.html" target="_top" xlink:title=" ">
<polygon fill="white" stroke="#666666" points="1912.5,-90.5 1793.5,-90.5 1793.5,-71.5 1912.5,-71.5 1912.5,-90.5"/>
<text text-anchor="middle" x="1853" y="-78.5" font-family="Helvetica,sans-Serif" font-size="10.00">src/lexer/lexer_utils.c</text>
</a>
</g>
</g>
<!-- Node1&#45;&gt;Node22 -->
<g id="edge21" class="edge">
<title>Node1&#45;&gt;Node22</title>
<path fill="none" stroke="#63b8ff" d="M1961.71,-128.08C1935.05,-116.78 1896.4,-100.4 1873.09,-90.52"/>
<polygon fill="#63b8ff" stroke="#63b8ff" points="1960.36,-131.31 1970.93,-131.99 1963.09,-124.87 1960.36,-131.31"/>
</g>
<!-- Node23 -->
<g id="node23" class="node">
<title>Node23</title>
<g id="a_node23"><a xlink:href="lexer__heredoc_8c.html" target="_top" xlink:title=" ">
<polygon fill="white" stroke="#666666" points="2051,-96 1931,-96 1931,-66 2051,-66 2051,-96"/>
<text text-anchor="start" x="1939" y="-84" font-family="Helvetica,sans-Serif" font-size="10.00">src/lexer/tokens/lexer</text>
<text text-anchor="middle" x="1991" y="-73" font-family="Helvetica,sans-Serif" font-size="10.00">_heredoc.c</text>
</a>
</g>
</g>
<!-- Node1&#45;&gt;Node23 -->
<g id="edge22" class="edge">
<title>Node1&#45;&gt;Node23</title>
<path fill="none" stroke="#63b8ff" d="M1991,-121.65C1991,-113.36 1991,-103.78 1991,-96.11"/>
<polygon fill="#63b8ff" stroke="#63b8ff" points="1987.5,-121.87 1991,-131.87 1994.5,-121.87 1987.5,-121.87"/>
</g>
<!-- Node24 -->
<g id="node24" class="node">
<title>Node24</title>
<g id="a_node24"><a xlink:href="lexer__logical__and_8c.html" target="_top" xlink:title=" ">
<polygon fill="white" stroke="#666666" points="2189,-96 2069,-96 2069,-66 2189,-66 2189,-96"/>
<text text-anchor="start" x="2077" y="-84" font-family="Helvetica,sans-Serif" font-size="10.00">src/lexer/tokens/lexer</text>
<text text-anchor="middle" x="2129" y="-73" font-family="Helvetica,sans-Serif" font-size="10.00">_logical_and.c</text>
</a>
</g>
</g>
<!-- Node1&#45;&gt;Node24 -->
<g id="edge23" class="edge">
<title>Node1&#45;&gt;Node24</title>
<path fill="none" stroke="#63b8ff" d="M2020.3,-128.08C2042.42,-118.7 2072.8,-105.82 2095.82,-96.06"/>
<polygon fill="#63b8ff" stroke="#63b8ff" points="2018.91,-124.87 2011.07,-131.99 2021.64,-131.31 2018.91,-124.87"/>
</g>
<!-- Node25 -->
<g id="node25" class="node">
<title>Node25</title>
<g id="a_node25"><a xlink:href="lexer__logical__or_8c.html" target="_top" xlink:title=" ">
<polygon fill="white" stroke="#666666" points="2327,-96 2207,-96 2207,-66 2327,-66 2327,-96"/>
<text text-anchor="start" x="2215" y="-84" font-family="Helvetica,sans-Serif" font-size="10.00">src/lexer/tokens/lexer</text>
<text text-anchor="middle" x="2267" y="-73" font-family="Helvetica,sans-Serif" font-size="10.00">_logical_or.c</text>
</a>
</g>
</g>
<!-- Node1&#45;&gt;Node25 -->
<g id="edge24" class="edge">
<title>Node1&#45;&gt;Node25</title>
<path fill="none" stroke="#63b8ff" d="M2041.01,-129.9C2087.66,-120.01 2157.32,-105.25 2206.95,-94.73"/>
<polygon fill="#63b8ff" stroke="#63b8ff" points="2040.19,-126.5 2031.13,-131.99 2041.64,-133.34 2040.19,-126.5"/>
</g>
<!-- Node26 -->
<g id="node26" class="node">
<title>Node26</title>
<g id="a_node26"><a xlink:href="lexer__newline_8c.html" target="_top" xlink:title=" ">
<polygon fill="white" stroke="#666666" points="2465,-96 2345,-96 2345,-66 2465,-66 2465,-96"/>
<text text-anchor="start" x="2353" y="-84" font-family="Helvetica,sans-Serif" font-size="10.00">src/lexer/tokens/lexer</text>
<text text-anchor="middle" x="2405" y="-73" font-family="Helvetica,sans-Serif" font-size="10.00">_newline.c</text>
</a>
</g>
</g>
<!-- Node1&#45;&gt;Node26 -->
<g id="edge25" class="edge">
<title>Node1&#45;&gt;Node26</title>
<path fill="none" stroke="#63b8ff" d="M2044.77,-134.78C2112.78,-127.26 2233.43,-113 2336,-96 2338.89,-95.52 2341.85,-95.01 2344.84,-94.47"/>
<polygon fill="#63b8ff" stroke="#63b8ff" points="2044.27,-131.31 2034.72,-135.88 2045.04,-138.27 2044.27,-131.31"/>
</g>
<!-- Node27 -->
<g id="node27" class="node">
<title>Node27</title>
<g id="a_node27"><a xlink:href="lexer__parenthesis_8c.html" target="_top" xlink:title=" ">
<polygon fill="white" stroke="#666666" points="2603,-96 2483,-96 2483,-66 2603,-66 2603,-96"/>
<text text-anchor="start" x="2491" y="-84" font-family="Helvetica,sans-Serif" font-size="10.00">src/lexer/tokens/lexer</text>
<text text-anchor="middle" x="2543" y="-73" font-family="Helvetica,sans-Serif" font-size="10.00">_parenthesis.c</text>
</a>
</g>
</g>
<!-- Node1&#45;&gt;Node27 -->
<g id="edge26" class="edge">
<title>Node1&#45;&gt;Node27</title>
<path fill="none" stroke="#63b8ff" d="M2044.99,-137.44C2134.5,-131.94 2319.13,-118.78 2474,-96 2476.9,-95.57 2479.87,-95.1 2482.86,-94.6"/>
<polygon fill="#63b8ff" stroke="#63b8ff" points="2044.58,-133.96 2034.81,-138.06 2045.01,-140.95 2044.58,-133.96"/>
</g>
<!-- Node28 -->
<g id="node28" class="node">
<title>Node28</title>
<g id="a_node28"><a xlink:href="lexer__pipe_8c.html" target="_top" xlink:title=" ">
<polygon fill="white" stroke="#666666" points="2741,-96 2621,-96 2621,-66 2741,-66 2741,-96"/>
<text text-anchor="start" x="2629" y="-84" font-family="Helvetica,sans-Serif" font-size="10.00">src/lexer/tokens/lexer</text>
<text text-anchor="middle" x="2681" y="-73" font-family="Helvetica,sans-Serif" font-size="10.00">_pipe.c</text>
</a>
</g>
</g>
<!-- Node1&#45;&gt;Node28 -->
<g id="edge27" class="edge">
<title>Node1&#45;&gt;Node28</title>
<path fill="none" stroke="#63b8ff" d="M2044.87,-138.97C2152.89,-135.39 2403.47,-124.51 2612,-96 2614.91,-95.6 2617.87,-95.16 2620.87,-94.67"/>
<polygon fill="#63b8ff" stroke="#63b8ff" points="2044.75,-135.47 2034.87,-139.3 2044.98,-142.47 2044.75,-135.47"/>
</g>
<!-- Node29 -->
<g id="node29" class="node">
<title>Node29</title>
<g id="a_node29"><a xlink:href="lexer__redirect__append_8c.html" target="_top" xlink:title=" ">
<polygon fill="white" stroke="#666666" points="2879,-96 2759,-96 2759,-66 2879,-66 2879,-96"/>
<text text-anchor="start" x="2767" y="-84" font-family="Helvetica,sans-Serif" font-size="10.00">src/lexer/tokens/lexer</text>
<text text-anchor="middle" x="2819" y="-73" font-family="Helvetica,sans-Serif" font-size="10.00">_redirect_append.c</text>
</a>
</g>
</g>
<!-- Node1&#45;&gt;Node29 -->
<g id="edge28" class="edge">
<title>Node1&#45;&gt;Node29</title>
<path fill="none" stroke="#63b8ff" d="M2044.89,-139.96C2169.51,-138.13 2487.09,-130.2 2750,-96 2752.91,-95.62 2755.88,-95.19 2758.87,-94.72"/>
<polygon fill="#63b8ff" stroke="#63b8ff" points="2044.79,-136.46 2034.84,-140.1 2044.89,-143.46 2044.79,-136.46"/>
</g>
<!-- Node30 -->
<g id="node30" class="node">
<title>Node30</title>
<g id="a_node30"><a xlink:href="lexer__redirect__in_8c.html" target="_top" xlink:title=" ">
<polygon fill="white" stroke="#666666" points="3017,-96 2897,-96 2897,-66 3017,-66 3017,-96"/>
<text text-anchor="start" x="2905" y="-84" font-family="Helvetica,sans-Serif" font-size="10.00">src/lexer/tokens/lexer</text>
<text text-anchor="middle" x="2957" y="-73" font-family="Helvetica,sans-Serif" font-size="10.00">_redirect_in.c</text>
</a>
</g>
</g>
<!-- Node1&#45;&gt;Node30 -->
<g id="edge29" class="edge">
<title>Node1&#45;&gt;Node30</title>
<path fill="none" stroke="#63b8ff" d="M2044.62,-140.65C2184.17,-140.42 2569.92,-135.93 2888,-96 2890.91,-95.63 2893.88,-95.21 2896.88,-94.75"/>
<polygon fill="#63b8ff" stroke="#63b8ff" points="2044.61,-137.15 2034.61,-140.66 2044.61,-144.15 2044.61,-137.15"/>
</g>
<!-- Node31 -->
<g id="node31" class="node">
<title>Node31</title>
<g id="a_node31"><a xlink:href="lexer__redirect__out_8c.html" target="_top" xlink:title=" ">
<polygon fill="white" stroke="#666666" points="3155,-96 3035,-96 3035,-66 3155,-66 3155,-96"/>
<text text-anchor="start" x="3043" y="-84" font-family="Helvetica,sans-Serif" font-size="10.00">src/lexer/tokens/lexer</text>
<text text-anchor="middle" x="3095" y="-73" font-family="Helvetica,sans-Serif" font-size="10.00">_redirect_out.c</text>
</a>
</g>
</g>
<!-- Node1&#45;&gt;Node31 -->
<g id="edge30" class="edge">
<title>Node1&#45;&gt;Node31</title>
<path fill="none" stroke="#63b8ff" d="M2044.69,-141.16C2198.31,-142.4 2652.54,-141.63 3026,-96 3028.91,-95.64 3031.88,-95.23 3034.88,-94.78"/>
<polygon fill="#63b8ff" stroke="#63b8ff" points="2044.61,-137.66 2034.58,-141.07 2044.55,-144.66 2044.61,-137.66"/>
</g>
<!-- Node32 -->
<g id="node32" class="node">
<title>Node32</title>
<g id="a_node32"><a xlink:href="lexer__semicolon_8c.html" target="_top" xlink:title=" ">
<polygon fill="white" stroke="#666666" points="3293,-96 3173,-96 3173,-66 3293,-66 3293,-96"/>
<text text-anchor="start" x="3181" y="-84" font-family="Helvetica,sans-Serif" font-size="10.00">src/lexer/tokens/lexer</text>
<text text-anchor="middle" x="3233" y="-73" font-family="Helvetica,sans-Serif" font-size="10.00">_semicolon.c</text>
</a>
</g>
</g>
<!-- Node1&#45;&gt;Node32 -->
<g id="edge31" class="edge">
<title>Node1&#45;&gt;Node32</title>
<path fill="none" stroke="#63b8ff" d="M2045,-139.62C2244.93,-136.16 2942.97,-122.44 3164,-96 3166.91,-95.65 3169.89,-95.25 3172.88,-94.8"/>
<polygon fill="#63b8ff" stroke="#63b8ff" points="2044.69,-136.12 2034.75,-139.79 2044.81,-143.12 2044.69,-136.12"/>
</g>
<!-- Node33 -->
<g id="node33" class="node">
<title>Node33</title>
<g id="a_node33"><a xlink:href="lexer__word_8c.html" target="_top" xlink:title=" ">
<polygon fill="white" stroke="#666666" points="3431,-96 3311,-96 3311,-66 3431,-66 3431,-96"/>
<text text-anchor="start" x="3319" y="-84" font-family="Helvetica,sans-Serif" font-size="10.00">src/lexer/tokens/lexer</text>
<text text-anchor="middle" x="3371" y="-73" font-family="Helvetica,sans-Serif" font-size="10.00">_word.c</text>
</a>
</g>
</g>
<!-- Node1&#45;&gt;Node33 -->
<g id="edge32" class="edge">
<title>Node1&#45;&gt;Node33</title>
<path fill="none" stroke="#63b8ff" d="M2044.85,-139.87C2259.25,-137.16 3052.49,-125.34 3302,-96 3304.91,-95.66 3307.89,-95.26 3310.88,-94.81"/>
<polygon fill="#63b8ff" stroke="#63b8ff" points="2044.75,-136.37 2034.79,-139.99 2044.84,-143.37 2044.75,-136.37"/>
</g>
<!-- Node3 -->
<g id="node3" class="node">
<title>Node3</title>
<g id="a_node3"><a xlink:href="parser__destroy_8c.html" target="_top" xlink:title=" ">
<polygon fill="white" stroke="#666666" points="745.5,-24.5 598.5,-24.5 598.5,-5.5 745.5,-5.5 745.5,-24.5"/>
<text text-anchor="middle" x="672" y="-12.5" font-family="Helvetica,sans-Serif" font-size="10.00">src/parser/parser_destroy.c</text>
</a>
</g>
</g>
<!-- Node2&#45;&gt;Node3 -->
<g id="edge2" class="edge">
<title>Node2&#45;&gt;Node3</title>
<path fill="none" stroke="#63b8ff" d="M928.68,-69.34C868.11,-56.75 768.63,-36.08 712.97,-24.51"/>
<polygon fill="#63b8ff" stroke="#63b8ff" points="928.28,-72.83 938.78,-71.44 929.7,-65.97 928.28,-72.83"/>
</g>
<!-- Node2&#45;&gt;Node4 -->
<g id="edge3" class="edge">
<title>Node2&#45;&gt;Node4</title>
<path fill="none" stroke="#63b8ff" d="M922.5,-79.17C785.8,-76.63 430.85,-66.73 137,-30 125.99,-28.62 114.14,-26.59 103.25,-24.5"/>
<polygon fill="#63b8ff" stroke="#63b8ff" points="922.67,-82.67 932.73,-79.35 922.8,-75.67 922.67,-82.67"/>
</g>
<!-- Node2&#45;&gt;Node5 -->
<g id="edge4" class="edge">
<title>Node2&#45;&gt;Node5</title>
<path fill="none" stroke="#63b8ff" d="M922.6,-77.98C803.9,-73.34 522.94,-59.92 289,-30 277.82,-28.57 265.8,-26.57 254.68,-24.53"/>
<polygon fill="#63b8ff" stroke="#63b8ff" points="922.78,-81.49 932.9,-78.38 923.05,-74.5 922.78,-81.49"/>
</g>
<!-- Node6 -->
<g id="node6" class="node">
<title>Node6</title>
<g id="a_node6"><a xlink:href="parser__parse_8c.html" target="_top" xlink:title=" ">
<polygon fill="white" stroke="#666666" points="902.5,-24.5 763.5,-24.5 763.5,-5.5 902.5,-5.5 902.5,-24.5"/>
<text text-anchor="middle" x="833" y="-12.5" font-family="Helvetica,sans-Serif" font-size="10.00">src/parser/parser_parse.c</text>
</a>
</g>
</g>
<!-- Node2&#45;&gt;Node6 -->
<g id="edge5" class="edge">
<title>Node2&#45;&gt;Node6</title>
<path fill="none" stroke="#63b8ff" d="M950.96,-67.36C922,-54.75 878.26,-35.71 852.98,-24.7"/>
<polygon fill="#63b8ff" stroke="#63b8ff" points="949.61,-70.59 960.17,-71.37 952.4,-64.17 949.61,-70.59"/>
</g>
<!-- Node7 -->
<g id="node7" class="node">
<title>Node7</title>
<g id="a_node7"><a xlink:href="parser__set__error_8c.html" target="_top" xlink:title=" ">
<polygon fill="white" stroke="#666666" points="1039.5,-30 920.5,-30 920.5,0 1039.5,0 1039.5,-30"/>
<text text-anchor="start" x="928.5" y="-18" font-family="Helvetica,sans-Serif" font-size="10.00">src/parser/parser_set</text>
<text text-anchor="middle" x="980" y="-7" font-family="Helvetica,sans-Serif" font-size="10.00">_error.c</text>
</a>
</g>
</g>
<!-- Node2&#45;&gt;Node7 -->
<g id="edge6" class="edge">
<title>Node2&#45;&gt;Node7</title>
<path fill="none" stroke="#63b8ff" d="M980,-61.35C980,-51.47 980,-39.51 980,-30.36"/>
<polygon fill="#63b8ff" stroke="#63b8ff" points="976.5,-61.37 980,-71.37 983.5,-61.37 976.5,-61.37"/>
</g>
<!-- Node8 -->
<g id="node8" class="node">
<title>Node8</title>
<g id="a_node8"><a xlink:href="parser__utils_8c.html" target="_top" xlink:title=" ">
<polygon fill="white" stroke="#666666" points="1190.5,-24.5 1057.5,-24.5 1057.5,-5.5 1190.5,-5.5 1190.5,-24.5"/>
<text text-anchor="middle" x="1124" y="-12.5" font-family="Helvetica,sans-Serif" font-size="10.00">src/parser/parser_utils.c</text>
</a>
</g>
</g>
<!-- Node2&#45;&gt;Node8 -->
<g id="edge7" class="edge">
<title>Node2&#45;&gt;Node8</title>
<path fill="none" stroke="#63b8ff" d="M1008.81,-67.19C1037.19,-54.58 1079.77,-35.66 1104.43,-24.7"/>
<polygon fill="#63b8ff" stroke="#63b8ff" points="1007.14,-64.11 999.42,-71.37 1009.98,-70.51 1007.14,-64.11"/>
</g>
<!-- Node9 -->
<g id="node9" class="node">
<title>Node9</title>
<g id="a_node9"><a xlink:href="parse__command_8c.html" target="_top" xlink:title=" ">
<polygon fill="white" stroke="#666666" points="1339,-30 1209,-30 1209,0 1339,0 1339,-30"/>
<text text-anchor="start" x="1217" y="-18" font-family="Helvetica,sans-Serif" font-size="10.00">src/parser/tokens/parse</text>
<text text-anchor="middle" x="1274" y="-7" font-family="Helvetica,sans-Serif" font-size="10.00">_command.c</text>
</a>
</g>
</g>
<!-- Node2&#45;&gt;Node9 -->
<g id="edge8" class="edge">
<title>Node2&#45;&gt;Node9</title>
<path fill="none" stroke="#63b8ff" d="M1026.63,-69.23C1031.48,-68.13 1036.34,-67.03 1041,-66 1097.54,-53.45 1161.93,-39.67 1208.66,-29.76"/>
<polygon fill="#63b8ff" stroke="#63b8ff" points="1025.73,-65.84 1016.75,-71.48 1027.28,-72.67 1025.73,-65.84"/>
</g>
<!-- Node10 -->
<g id="node10" class="node">
<title>Node10</title>
<g id="a_node10"><a xlink:href="parse__logical__operator_8c.html" target="_top" xlink:title=" ">
<polygon fill="white" stroke="#666666" points="1487,-30 1357,-30 1357,0 1487,0 1487,-30"/>
<text text-anchor="start" x="1365" y="-18" font-family="Helvetica,sans-Serif" font-size="10.00">src/parser/tokens/parse</text>
<text text-anchor="middle" x="1422" y="-7" font-family="Helvetica,sans-Serif" font-size="10.00">_logical_operator.c</text>
</a>
</g>
</g>
<!-- Node2&#45;&gt;Node10 -->
<g id="edge9" class="edge">
<title>Node2&#45;&gt;Node10</title>
<path fill="none" stroke="#63b8ff" d="M1024.11,-69.28C1029.78,-68.08 1035.51,-66.95 1041,-66 1176.37,-42.6 1212.2,-50.78 1348,-30 1350.84,-29.56 1353.74,-29.1 1356.67,-28.62"/>
<polygon fill="#63b8ff" stroke="#63b8ff" points="1023.08,-65.92 1014.07,-71.49 1024.58,-72.76 1023.08,-65.92"/>
</g>
<!-- Node11 -->
<g id="node11" class="node">
<title>Node11</title>
<g id="a_node11"><a xlink:href="parse__repeat_8c.html" target="_top" xlink:title=" ">
<polygon fill="white" stroke="#666666" points="1635,-30 1505,-30 1505,0 1635,0 1635,-30"/>
<text text-anchor="start" x="1513" y="-18" font-family="Helvetica,sans-Serif" font-size="10.00">src/parser/tokens/parse</text>
<text text-anchor="middle" x="1570" y="-7" font-family="Helvetica,sans-Serif" font-size="10.00">_repeat.c</text>
</a>
</g>
</g>
<!-- Node2&#45;&gt;Node11 -->
<g id="edge10" class="edge">
<title>Node2&#45;&gt;Node11</title>
<path fill="none" stroke="#63b8ff" d="M1023.02,-69.3C1029.03,-68.05 1035.15,-66.9 1041,-66 1241.51,-35.23 1294.94,-56.89 1496,-30 1498.85,-29.62 1501.76,-29.2 1504.69,-28.75"/>
<polygon fill="#63b8ff" stroke="#63b8ff" points="1022.09,-65.92 1013.07,-71.48 1023.59,-72.76 1022.09,-65.92"/>
</g>
<!-- Node12 -->
<g id="node12" class="node">
<title>Node12</title>
<g id="a_node12"><a xlink:href="parse__sequence_8c.html" target="_top" xlink:title=" ">
<polygon fill="white" stroke="#666666" points="1783,-30 1653,-30 1653,0 1783,0 1783,-30"/>
<text text-anchor="start" x="1661" y="-18" font-family="Helvetica,sans-Serif" font-size="10.00">src/parser/tokens/parse</text>
<text text-anchor="middle" x="1718" y="-7" font-family="Helvetica,sans-Serif" font-size="10.00">_sequence.c</text>
</a>
</g>
</g>
<!-- Node2&#45;&gt;Node12 -->
<g id="edge11" class="edge">
<title>Node2&#45;&gt;Node12</title>
<path fill="none" stroke="#63b8ff" d="M1022.79,-69.24C1028.87,-67.98 1035.07,-66.85 1041,-66 1306.75,-27.84 1377.56,-63.02 1644,-30 1646.85,-29.65 1649.77,-29.25 1652.7,-28.82"/>
<polygon fill="#63b8ff" stroke="#63b8ff" points="1021.76,-65.88 1012.74,-71.44 1023.25,-72.72 1021.76,-65.88"/>
</g>
<!-- Node13 -->
<g id="node13" class="node">
<title>Node13</title>
<g id="a_node13"><a xlink:href="parse__sequence__start_8c.html" target="_top" xlink:title=" ">
<polygon fill="white" stroke="#666666" points="1931,-30 1801,-30 1801,0 1931,0 1931,-30"/>
<text text-anchor="start" x="1809" y="-18" font-family="Helvetica,sans-Serif" font-size="10.00">src/parser/tokens/parse</text>
<text text-anchor="middle" x="1866" y="-7" font-family="Helvetica,sans-Serif" font-size="10.00">_sequence_start.c</text>
</a>
</g>
</g>
<!-- Node2&#45;&gt;Node13 -->
<g id="edge12" class="edge">
<title>Node2&#45;&gt;Node13</title>
<path fill="none" stroke="#63b8ff" d="M1022.57,-69.22C1028.72,-67.96 1035,-66.83 1041,-66 1372.04,-20.45 1460.14,-69.15 1792,-30 1794.86,-29.66 1797.77,-29.28 1800.71,-28.86"/>
<polygon fill="#63b8ff" stroke="#63b8ff" points="1021.43,-65.88 1012.41,-71.44 1022.93,-72.72 1021.43,-65.88"/>
</g>
<!-- Node14 -->
<g id="node14" class="node">
<title>Node14</title>
<g id="a_node14"><a xlink:href="parse__subshell_8c.html" target="_top" xlink:title=" ">
<polygon fill="white" stroke="#666666" points="428,-30 298,-30 298,0 428,0 428,-30"/>
<text text-anchor="start" x="306" y="-18" font-family="Helvetica,sans-Serif" font-size="10.00">src/parser/tokens/parse</text>
<text text-anchor="middle" x="363" y="-7" font-family="Helvetica,sans-Serif" font-size="10.00">_subshell.c</text>
</a>
</g>
</g>
<!-- Node2&#45;&gt;Node14 -->
<g id="edge13" class="edge">
<title>Node2&#45;&gt;Node14</title>
<path fill="none" stroke="#63b8ff" d="M922.87,-76.53C823.69,-70.12 613.34,-54.74 437,-30 434.15,-29.6 431.25,-29.17 428.31,-28.71"/>
<polygon fill="#63b8ff" stroke="#63b8ff" points="922.77,-80.04 932.98,-77.18 923.22,-73.05 922.77,-80.04"/>
</g>
<!-- Node15 -->
<g id="node15" class="node">
<title>Node15</title>
<g id="a_node15"><a xlink:href="parser__globbing_8c.html" target="_top" xlink:title=" ">
<polygon fill="white" stroke="#666666" points="580,-30 446,-30 446,0 580,0 580,-30"/>
<text text-anchor="start" x="454" y="-18" font-family="Helvetica,sans-Serif" font-size="10.00">src/parser/tokens/parser</text>
<text text-anchor="middle" x="513" y="-7" font-family="Helvetica,sans-Serif" font-size="10.00">_globbing.c</text>
</a>
</g>
</g>
<!-- Node2&#45;&gt;Node15 -->
<g id="edge14" class="edge">
<title>Node2&#45;&gt;Node15</title>
<path fill="none" stroke="#63b8ff" d="M922.59,-73.66C846.24,-65 707.18,-48.43 589,-30 586.08,-29.55 583.11,-29.07 580.1,-28.57"/>
<polygon fill="#63b8ff" stroke="#63b8ff" points="922.61,-77.18 932.94,-74.83 923.39,-70.23 922.61,-77.18"/>
</g>
<!-- Node2&#45;&gt;Node16 -->
<g id="edge15" class="edge">
<title>Node2&#45;&gt;Node16</title>
<path fill="none" stroke="#63b8ff" d="M1021.9,-69.31C1028.26,-68 1034.78,-66.83 1041,-66 1437.35,-13.05 1546.65,-101.94 1940,-30 1946.65,-28.78 1953.7,-26.75 1960.07,-24.6"/>
<polygon fill="#63b8ff" stroke="#63b8ff" points="1021.11,-65.9 1012.09,-71.46 1022.6,-72.74 1021.11,-65.9"/>
</g>
</g>
</svg>
