<?xml version="1.0" encoding="UTF-8" standalone="no"?>
<!DOCTYPE svg PUBLIC "-//W3C//DTD SVG 1.1//EN"
 "http://www.w3.org/Graphics/SVG/1.1/DTD/svg11.dtd">
<!-- Generated by graphviz version 2.43.0 (0)
 -->
<!-- Title: src/lexer/lexer_expand_command_substitution.c Pages: 1 -->
<svg width="387pt" height="258pt"
 viewBox="0.00 0.00 386.78 258.00" xmlns="http://www.w3.org/2000/svg" xmlns:xlink="http://www.w3.org/1999/xlink">
<g id="graph0" class="graph" transform="scale(1 1) rotate(0) translate(4 254)">
<title>src/lexer/lexer_expand_command_substitution.c</title>
<!-- Node1 -->
<g id="node1" class="node">
<title>Node1</title>
<g id="a_node1"><a xlink:title=" ">
<polygon fill="#999999" stroke="#666666" points="246.5,-250 104.5,-250 104.5,-220 246.5,-220 246.5,-250"/>
<text text-anchor="start" x="112.5" y="-238" font-family="Helvetica,sans-Serif" font-size="10.00">src/lexer/lexer_expand</text>
<text text-anchor="middle" x="175.5" y="-227" font-family="Helvetica,sans-Serif" font-size="10.00">_command_substitution.c</text>
</a>
</g>
</g>
<!-- Node2 -->
<g id="node2" class="node">
<title>Node2</title>
<g id="a_node2"><a xlink:title=" ">
<polygon fill="#e0e0e0" stroke="#999999" points="53,-184 0,-184 0,-165 53,-165 53,-184"/>
<text text-anchor="middle" x="26.5" y="-172" font-family="Helvetica,sans-Serif" font-size="10.00">stdlib.h</text>
</a>
</g>
</g>
<!-- Node1&#45;&gt;Node2 -->
<g id="edge1" class="edge">
<title>Node1&#45;&gt;Node2</title>
<path fill="none" stroke="#63b8ff" d="M139.81,-219.99C114.84,-210.18 81.8,-197.21 57.84,-187.81"/>
<polygon fill="#63b8ff" stroke="#63b8ff" points="59.09,-184.54 48.5,-184.14 56.53,-191.05 59.09,-184.54"/>
</g>
<!-- Node3 -->
<g id="node3" class="node">
<title>Node3</title>
<g id="a_node3"><a xlink:title=" ">
<polygon fill="#e0e0e0" stroke="#999999" points="124,-184 71,-184 71,-165 124,-165 124,-184"/>
<text text-anchor="middle" x="97.5" y="-172" font-family="Helvetica,sans-Serif" font-size="10.00">string.h</text>
</a>
</g>
</g>
<!-- Node1&#45;&gt;Node3 -->
<g id="edge2" class="edge">
<title>Node1&#45;&gt;Node3</title>
<path fill="none" stroke="#63b8ff" d="M156.62,-219.84C144.72,-210.91 129.38,-199.41 117.3,-190.35"/>
<polygon fill="#63b8ff" stroke="#63b8ff" points="119.29,-187.47 109.19,-184.27 115.09,-193.07 119.29,-187.47"/>
</g>
<!-- Node4 -->
<g id="node4" class="node">
<title>Node4</title>
<g id="a_node4"><a xlink:title=" ">
<polygon fill="#e0e0e0" stroke="#999999" points="229.5,-129 157.5,-129 157.5,-110 229.5,-110 229.5,-129"/>
<text text-anchor="middle" x="193.5" y="-117" font-family="Helvetica,sans-Serif" font-size="10.00">sys/types.h</text>
</a>
</g>
</g>
<!-- Node1&#45;&gt;Node4 -->
<g id="edge3" class="edge">
<title>Node1&#45;&gt;Node4</title>
<path fill="none" stroke="#63b8ff" d="M192.34,-219.65C201.7,-210.52 212.46,-197.85 217.5,-184 223.28,-168.14 215.08,-150.15 206.73,-137.38"/>
<polygon fill="#63b8ff" stroke="#63b8ff" points="209.48,-135.21 200.83,-129.1 203.79,-139.28 209.48,-135.21"/>
</g>
<!-- Node5 -->
<g id="node5" class="node">
<title>Node5</title>
<g id="a_node5"><a xlink:href="executer_8h.html" target="_top" xlink:title=" ">
<polygon fill="white" stroke="#666666" points="209,-184 142,-184 142,-165 209,-165 209,-184"/>
<text text-anchor="middle" x="175.5" y="-172" font-family="Helvetica,sans-Serif" font-size="10.00">executer.h</text>
</a>
</g>
</g>
<!-- Node1&#45;&gt;Node5 -->
<g id="edge4" class="edge">
<title>Node1&#45;&gt;Node5</title>
<path fill="none" stroke="#63b8ff" d="M175.5,-219.84C175.5,-212.21 175.5,-202.7 175.5,-194.45"/>
<polygon fill="#63b8ff" stroke="#63b8ff" points="179,-194.27 175.5,-184.27 172,-194.27 179,-194.27"/>
</g>
<!-- Node10 -->
<g id="node10" class="node">
<title>Node10</title>
<g id="a_node10"><a xlink:href="lexer_8h.html" target="_top" xlink:title=" ">
<polygon fill="white" stroke="#666666" points="315,-184 266,-184 266,-165 315,-165 315,-184"/>
<text text-anchor="middle" x="290.5" y="-172" font-family="Helvetica,sans-Serif" font-size="10.00">lexer.h</text>
</a>
</g>
</g>
<!-- Node1&#45;&gt;Node10 -->
<g id="edge11" class="edge">
<title>Node1&#45;&gt;Node10</title>
<path fill="none" stroke="#63b8ff" d="M203.05,-219.99C221.72,-210.49 246.24,-198.02 264.56,-188.69"/>
<polygon fill="#63b8ff" stroke="#63b8ff" points="266.19,-191.79 273.52,-184.14 263.02,-185.55 266.19,-191.79"/>
</g>
<!-- Node5&#45;&gt;Node4 -->
<g id="edge10" class="edge">
<title>Node5&#45;&gt;Node4</title>
<path fill="none" stroke="#63b8ff" d="M178.47,-164.75C180.86,-157.72 184.29,-147.62 187.27,-138.84"/>
<polygon fill="#63b8ff" stroke="#63b8ff" points="190.68,-139.68 190.58,-129.09 184.05,-137.43 190.68,-139.68"/>
</g>
<!-- Node6 -->
<g id="node6" class="node">
<title>Node6</title>
<g id="a_node6"><a xlink:href="ast_8h.html" target="_top" xlink:title=" ">
<polygon fill="white" stroke="#666666" points="188,-74 147,-74 147,-55 188,-55 188,-74"/>
<text text-anchor="middle" x="167.5" y="-62" font-family="Helvetica,sans-Serif" font-size="10.00">ast.h</text>
</a>
</g>
</g>
<!-- Node5&#45;&gt;Node6 -->
<g id="edge5" class="edge">
<title>Node5&#45;&gt;Node6</title>
<path fill="none" stroke="#63b8ff" d="M168.35,-164.97C161.73,-156.48 152.35,-142.75 148.5,-129 144.15,-113.43 150.29,-95.84 156.72,-83.12"/>
<polygon fill="#63b8ff" stroke="#63b8ff" points="159.94,-84.54 161.75,-74.1 153.82,-81.13 159.94,-84.54"/>
</g>
<!-- Node8 -->
<g id="node8" class="node">
<title>Node8</title>
<g id="a_node8"><a xlink:href="shell_8h.html" target="_top" xlink:title=" ">
<polygon fill="white" stroke="#666666" points="297,-129 248,-129 248,-110 297,-110 297,-129"/>
<text text-anchor="middle" x="272.5" y="-117" font-family="Helvetica,sans-Serif" font-size="10.00">shell.h</text>
</a>
</g>
</g>
<!-- Node5&#45;&gt;Node8 -->
<g id="edge7" class="edge">
<title>Node5&#45;&gt;Node8</title>
<path fill="none" stroke="#63b8ff" d="M191.08,-164.98C206.27,-156.69 229.6,-143.94 247.4,-134.22"/>
<polygon fill="#63b8ff" stroke="#63b8ff" points="249.53,-137.04 256.63,-129.17 246.18,-130.89 249.53,-137.04"/>
</g>
<!-- Node7 -->
<g id="node7" class="node">
<title>Node7</title>
<g id="a_node7"><a xlink:title=" ">
<polygon fill="#e0e0e0" stroke="#999999" points="300.5,-19 244.5,-19 244.5,0 300.5,0 300.5,-19"/>
<text text-anchor="middle" x="272.5" y="-7" font-family="Helvetica,sans-Serif" font-size="10.00">stddef.h</text>
</a>
</g>
</g>
<!-- Node6&#45;&gt;Node7 -->
<g id="edge6" class="edge">
<title>Node6&#45;&gt;Node7</title>
<path fill="none" stroke="#63b8ff" d="M184.37,-54.98C201.11,-46.54 227,-33.47 246.39,-23.68"/>
<polygon fill="#63b8ff" stroke="#63b8ff" points="247.97,-26.8 255.32,-19.17 244.82,-20.55 247.97,-26.8"/>
</g>
<!-- Node9 -->
<g id="node9" class="node">
<title>Node9</title>
<g id="a_node9"><a xlink:href="list_8h.html" target="_top" xlink:title=" ">
<polygon fill="white" stroke="#666666" points="302,-74 243,-74 243,-55 302,-55 302,-74"/>
<text text-anchor="middle" x="272.5" y="-62" font-family="Helvetica,sans-Serif" font-size="10.00">my/list.h</text>
</a>
</g>
</g>
<!-- Node8&#45;&gt;Node9 -->
<g id="edge8" class="edge">
<title>Node8&#45;&gt;Node9</title>
<path fill="none" stroke="#63b8ff" d="M272.5,-109.75C272.5,-102.8 272.5,-92.85 272.5,-84.13"/>
<polygon fill="#63b8ff" stroke="#63b8ff" points="276,-84.09 272.5,-74.09 269,-84.09 276,-84.09"/>
</g>
<!-- Node9&#45;&gt;Node7 -->
<g id="edge9" class="edge">
<title>Node9&#45;&gt;Node7</title>
<path fill="none" stroke="#63b8ff" d="M272.5,-54.75C272.5,-47.8 272.5,-37.85 272.5,-29.13"/>
<polygon fill="#63b8ff" stroke="#63b8ff" points="276,-29.09 272.5,-19.09 269,-29.09 276,-29.09"/>
</g>
<!-- Node10&#45;&gt;Node4 -->
<g id="edge13" class="edge">
<title>Node10&#45;&gt;Node4</title>
<path fill="none" stroke="#63b8ff" d="M274.92,-164.98C259.73,-156.69 236.4,-143.94 218.6,-134.22"/>
<polygon fill="#63b8ff" stroke="#63b8ff" points="219.82,-130.89 209.37,-129.17 216.47,-137.04 219.82,-130.89"/>
</g>
<!-- Node10&#45;&gt;Node7 -->
<g id="edge12" class="edge">
<title>Node10&#45;&gt;Node7</title>
<path fill="none" stroke="#63b8ff" d="M315.22,-167.27C344.9,-158.36 389.19,-139.7 376.5,-110 360.24,-71.93 321.47,-41.47 296.14,-24.71"/>
<polygon fill="#63b8ff" stroke="#63b8ff" points="297.79,-21.61 287.48,-19.16 294.01,-27.5 297.79,-21.61"/>
</g>
<!-- Node10&#45;&gt;Node8 -->
<g id="edge14" class="edge">
<title>Node10&#45;&gt;Node8</title>
<path fill="none" stroke="#63b8ff" d="M287.53,-164.75C285.14,-157.72 281.71,-147.62 278.73,-138.84"/>
<polygon fill="#63b8ff" stroke="#63b8ff" points="281.95,-137.43 275.42,-129.09 275.32,-139.68 281.95,-137.43"/>
</g>
<!-- Node11 -->
<g id="node11" class="node">
<title>Node11</title>
<g id="a_node11"><a xlink:href="token_8h.html" target="_top" xlink:title=" ">
<polygon fill="white" stroke="#666666" points="368,-129 315,-129 315,-110 368,-110 368,-129"/>
<text text-anchor="middle" x="341.5" y="-117" font-family="Helvetica,sans-Serif" font-size="10.00">token.h</text>
</a>
</g>
</g>
<!-- Node10&#45;&gt;Node11 -->
<g id="edge15" class="edge">
<title>Node10&#45;&gt;Node11</title>
<path fill="none" stroke="#63b8ff" d="M298.92,-164.75C306.27,-157.11 317.13,-145.82 326.04,-136.56"/>
<polygon fill="#63b8ff" stroke="#63b8ff" points="328.82,-138.72 333.24,-129.09 323.78,-133.87 328.82,-138.72"/>
</g>
</g>
</svg>
