<?xml version="1.0" encoding="UTF-8" standalone="no"?>
<!DOCTYPE svg PUBLIC "-//W3C//DTD SVG 1.1//EN"
 "http://www.w3.org/Graphics/SVG/1.1/DTD/svg11.dtd">
<!-- Generated by graphviz version 2.43.0 (0)
 -->
<!-- Title: lexer_word Pages: 1 -->
<svg width="912pt" height="472pt"
 viewBox="0.00 0.00 912.00 472.00" xmlns="http://www.w3.org/2000/svg" xmlns:xlink="http://www.w3.org/1999/xlink">
<g id="graph0" class="graph" transform="scale(1 1) rotate(0) translate(4 468)">
<title>lexer_word</title>
<!-- Node1 -->
<g id="node1" class="node">
<title>Node1</title>
<g id="a_node1"><a xlink:title=" ">
<polygon fill="#999999" stroke="#666666" points="70,-189 0,-189 0,-170 70,-170 70,-189"/>
<text text-anchor="middle" x="35" y="-177" font-family="Helvetica,sans-Serif" font-size="10.00">lexer_word</text>
</a>
</g>
</g>
<!-- Node2 -->
<g id="node2" class="node">
<title>Node2</title>
<g id="a_node2"><a xlink:href="create__token_8c.html#a15bcfc92177012893c626ce7d2d6bb6b" target="_top" xlink:title=" ">
<polygon fill="white" stroke="#666666" points="207,-226 127,-226 127,-207 207,-207 207,-226"/>
<text text-anchor="middle" x="167" y="-214" font-family="Helvetica,sans-Serif" font-size="10.00">create_token</text>
</a>
</g>
</g>
<!-- Node1&#45;&gt;Node2 -->
<g id="edge1" class="edge">
<title>Node1&#45;&gt;Node2</title>
<path fill="none" stroke="#63b8ff" d="M69.48,-189.03C85.58,-193.61 105.08,-199.16 122.33,-204.07"/>
<polygon fill="#63b8ff" stroke="#63b8ff" points="121.61,-207.5 132.18,-206.88 123.52,-200.77 121.61,-207.5"/>
</g>
<!-- Node3 -->
<g id="node3" class="node">
<title>Node3</title>
<g id="a_node3"><a xlink:href="lexer__word_8c.html#a730574257743b09386cadd2ccbfe4d13" target="_top" xlink:title=" ">
<polygon fill="white" stroke="#666666" points="228,-189 106,-189 106,-170 228,-170 228,-189"/>
<text text-anchor="middle" x="167" y="-177" font-family="Helvetica,sans-Serif" font-size="10.00">handle_current_token</text>
</a>
</g>
</g>
<!-- Node1&#45;&gt;Node3 -->
<g id="edge2" class="edge">
<title>Node1&#45;&gt;Node3</title>
<path fill="none" stroke="#63b8ff" d="M70.16,-179.5C78.14,-179.5 86.92,-179.5 95.84,-179.5"/>
<polygon fill="#63b8ff" stroke="#63b8ff" points="95.93,-183 105.93,-179.5 95.93,-176 95.93,-183"/>
</g>
<!-- Node15 -->
<g id="node15" class="node">
<title>Node15</title>
<g id="a_node15"><a xlink:href="lexer__is__word__separator_8c.html#abccfc6fc0cdbd040fc9a7dcbfd207090" target="_top" xlink:title=" ">
<polygon fill="white" stroke="#666666" points="750,-19 615,-19 615,0 750,0 750,-19"/>
<text text-anchor="middle" x="682.5" y="-7" font-family="Helvetica,sans-Serif" font-size="10.00">lexer_is_word_separator</text>
</a>
</g>
</g>
<!-- Node1&#45;&gt;Node15 -->
<g id="edge32" class="edge">
<title>Node1&#45;&gt;Node15</title>
<path fill="none" stroke="#63b8ff" d="M51.29,-169.96C103.88,-137.86 283.13,-34.45 448,-9.5 499.89,-1.65 559.01,-1.74 604.78,-3.74"/>
<polygon fill="#63b8ff" stroke="#63b8ff" points="604.77,-7.25 614.93,-4.23 605.11,-0.26 604.77,-7.25"/>
</g>
<!-- Node4 -->
<g id="node4" class="node">
<title>Node4</title>
<g id="a_node4"><a xlink:href="lexer__word_8c.html#acd8f2a3c47fa56f87c2792ccefd2ee3e" target="_top" xlink:title=" ">
<polygon fill="white" stroke="#666666" points="398.5,-263 277.5,-263 277.5,-244 398.5,-244 398.5,-263"/>
<text text-anchor="middle" x="338" y="-251" font-family="Helvetica,sans-Serif" font-size="10.00">handle_double_quote</text>
</a>
</g>
</g>
<!-- Node3&#45;&gt;Node4 -->
<g id="edge3" class="edge">
<title>Node3&#45;&gt;Node4</title>
<path fill="none" stroke="#63b8ff" d="M207.95,-189.1C214.9,-191.62 221.86,-194.71 228,-198.5 247.53,-210.55 244.09,-224.09 264,-235.5 267.19,-237.33 270.56,-238.97 274.03,-240.45"/>
<polygon fill="#63b8ff" stroke="#63b8ff" points="272.82,-243.73 283.41,-243.98 275.29,-237.18 272.82,-243.73"/>
</g>
<!-- Node5 -->
<g id="node5" class="node">
<title>Node5</title>
<g id="a_node5"><a xlink:href="lexer__word_8c.html#a733339142f4677a066646a12a7e5bec4" target="_top" xlink:title=" ">
<polygon fill="white" stroke="#666666" points="408.5,-226 267.5,-226 267.5,-207 408.5,-207 408.5,-226"/>
<text text-anchor="middle" x="338" y="-214" font-family="Helvetica,sans-Serif" font-size="10.00">handle_escape_sequence</text>
</a>
</g>
</g>
<!-- Node3&#45;&gt;Node5 -->
<g id="edge4" class="edge">
<title>Node3&#45;&gt;Node5</title>
<path fill="none" stroke="#63b8ff" d="M211.52,-189.03C233.42,-193.82 260.15,-199.68 283.31,-204.75"/>
<polygon fill="#63b8ff" stroke="#63b8ff" points="282.82,-208.22 293.33,-206.94 284.31,-201.38 282.82,-208.22"/>
</g>
<!-- Node9 -->
<g id="node9" class="node">
<title>Node9</title>
<g id="a_node9"><a xlink:href="lexer__word_8c.html#a3ae03e49183787e7cf32c90ffdef7351" target="_top" xlink:title=" ">
<polygon fill="white" stroke="#666666" points="396.5,-189 279.5,-189 279.5,-170 396.5,-170 396.5,-189"/>
<text text-anchor="middle" x="338" y="-177" font-family="Helvetica,sans-Serif" font-size="10.00">handle_single_quote</text>
</a>
</g>
</g>
<!-- Node3&#45;&gt;Node9 -->
<g id="edge8" class="edge">
<title>Node3&#45;&gt;Node9</title>
<path fill="none" stroke="#63b8ff" d="M228.06,-179.5C241.36,-179.5 255.56,-179.5 269.15,-179.5"/>
<polygon fill="#63b8ff" stroke="#63b8ff" points="269.4,-183 279.4,-179.5 269.4,-176 269.4,-183"/>
</g>
<!-- Node10 -->
<g id="node10" class="node">
<title>Node10</title>
<g id="a_node10"><a xlink:href="lexer__utils_8c.html#a2ba6f7e43ecbf713c666ab062eac534c" target="_top" xlink:title=" ">
<polygon fill="white" stroke="#666666" points="412,-152 264,-152 264,-133 412,-133 412,-152"/>
<text text-anchor="middle" x="338" y="-140" font-family="Helvetica,sans-Serif" font-size="10.00">lexer_append_current_char</text>
</a>
</g>
</g>
<!-- Node3&#45;&gt;Node10 -->
<g id="edge10" class="edge">
<title>Node3&#45;&gt;Node10</title>
<path fill="none" stroke="#63b8ff" d="M211.52,-169.97C233.42,-165.18 260.15,-159.32 283.31,-154.25"/>
<polygon fill="#63b8ff" stroke="#63b8ff" points="284.31,-157.62 293.33,-152.06 282.82,-150.78 284.31,-157.62"/>
</g>
<!-- Node11 -->
<g id="node11" class="node">
<title>Node11</title>
<g id="a_node11"><a xlink:href="lexer__expand__tilde_8c.html#ae3c478a10a2764ee7c7f94b42f28ecaf" target="_top" xlink:title=" ">
<polygon fill="white" stroke="#666666" points="392.5,-95 283.5,-95 283.5,-76 392.5,-76 392.5,-95"/>
<text text-anchor="middle" x="338" y="-83" font-family="Helvetica,sans-Serif" font-size="10.00">lexer_expand_tilde</text>
</a>
</g>
</g>
<!-- Node3&#45;&gt;Node11 -->
<g id="edge12" class="edge">
<title>Node3&#45;&gt;Node11</title>
<path fill="none" stroke="#63b8ff" d="M183.83,-169.95C202.75,-158.61 235.45,-139.25 264,-123.5 278.74,-115.37 295.37,-106.68 309.04,-99.66"/>
<polygon fill="#63b8ff" stroke="#63b8ff" points="310.65,-102.76 317.96,-95.09 307.46,-96.53 310.65,-102.76"/>
</g>
<!-- Node16 -->
<g id="node16" class="node">
<title>Node16</title>
<g id="a_node16"><a xlink:href="lexer__expand__variable_8c.html#a01ad90eb8460a612626bb33c9e15cd52" target="_top" xlink:title=" ">
<polygon fill="white" stroke="#666666" points="401.5,-351 274.5,-351 274.5,-332 401.5,-332 401.5,-351"/>
<text text-anchor="middle" x="338" y="-339" font-family="Helvetica,sans-Serif" font-size="10.00">lexer_expand_variable</text>
</a>
</g>
</g>
<!-- Node3&#45;&gt;Node16 -->
<g id="edge18" class="edge">
<title>Node3&#45;&gt;Node16</title>
<path fill="none" stroke="#63b8ff" d="M212.78,-189.12C218.28,-191.57 223.53,-194.64 228,-198.5 255.68,-222.41 242.36,-243.02 264,-272.5 278.98,-292.9 300.43,-312.35 316.21,-325.36"/>
<polygon fill="#63b8ff" stroke="#63b8ff" points="314.33,-328.35 324.31,-331.9 318.72,-322.9 314.33,-328.35"/>
</g>
<!-- Node6 -->
<g id="node6" class="node">
<title>Node6</title>
<g id="a_node6"><a xlink:href="lexer__utils_8c.html#abf1c1b3b6033c8f9c8d1b11cc9e14f75" target="_top" xlink:title=" ">
<polygon fill="white" stroke="#666666" points="732.5,-271 632.5,-271 632.5,-252 732.5,-252 732.5,-271"/>
<text text-anchor="middle" x="682.5" y="-259" font-family="Helvetica,sans-Serif" font-size="10.00">lexer_append_str</text>
</a>
</g>
</g>
<!-- Node5&#45;&gt;Node6 -->
<g id="edge5" class="edge">
<title>Node5&#45;&gt;Node6</title>
<path fill="none" stroke="#63b8ff" d="M408.64,-219.96C456.72,-222.99 522.01,-228.38 579,-237.5 597.86,-240.52 618.4,-245.07 636.11,-249.4"/>
<polygon fill="#63b8ff" stroke="#63b8ff" points="635.62,-252.89 646.17,-251.91 637.32,-246.1 635.62,-252.89"/>
</g>
<!-- Node7 -->
<g id="node7" class="node">
<title>Node7</title>
<g id="a_node7"><a xlink:href="strings_8h.html#a5e1589f073ac32d227dbc6020c376dab" target="_top" xlink:title=" ">
<polygon fill="white" stroke="#666666" points="895.5,-271 794.5,-271 794.5,-252 895.5,-252 895.5,-271"/>
<text text-anchor="middle" x="845" y="-259" font-family="Helvetica,sans-Serif" font-size="10.00">append_to_buffer</text>
</a>
</g>
</g>
<!-- Node6&#45;&gt;Node7 -->
<g id="edge6" class="edge">
<title>Node6&#45;&gt;Node7</title>
<path fill="none" stroke="#63b8ff" d="M732.53,-261.5C748.79,-261.5 767.08,-261.5 784.06,-261.5"/>
<polygon fill="#63b8ff" stroke="#63b8ff" points="784.44,-265 794.44,-261.5 784.44,-258 784.44,-265"/>
</g>
<!-- Node8 -->
<g id="node8" class="node">
<title>Node8</title>
<g id="a_node8"><a xlink:href="lexer__utils_8c.html#a84e8d5514cfe03a20152ad26f170211f" target="_top" xlink:title=" ">
<polygon fill="white" stroke="#666666" points="904,-388 786,-388 786,-369 904,-369 904,-388"/>
<text text-anchor="middle" x="845" y="-376" font-family="Helvetica,sans-Serif" font-size="10.00">lexer_set_alloc_error</text>
</a>
</g>
</g>
<!-- Node6&#45;&gt;Node8 -->
<g id="edge7" class="edge">
<title>Node6&#45;&gt;Node8</title>
<path fill="none" stroke="#63b8ff" d="M696.63,-271.07C724.26,-291.21 788.62,-338.13 822.41,-362.76"/>
<polygon fill="#63b8ff" stroke="#63b8ff" points="820.54,-365.73 830.68,-368.79 824.67,-360.07 820.54,-365.73"/>
</g>
<!-- Node9&#45;&gt;Node6 -->
<g id="edge9" class="edge">
<title>Node9&#45;&gt;Node6</title>
<path fill="none" stroke="#63b8ff" d="M396.57,-184.99C445.72,-190.59 517.93,-200.99 579,-218.5 604.83,-225.9 632.88,-237.97 653.09,-247.44"/>
<polygon fill="#63b8ff" stroke="#63b8ff" points="651.81,-250.71 662.35,-251.85 654.82,-244.39 651.81,-250.71"/>
</g>
<!-- Node10&#45;&gt;Node6 -->
<g id="edge11" class="edge">
<title>Node10&#45;&gt;Node6</title>
<path fill="none" stroke="#63b8ff" d="M412.03,-147.82C460.88,-153.36 525.73,-164.64 579,-187.5 612,-201.66 644.69,-227.95 663.98,-245.08"/>
<polygon fill="#63b8ff" stroke="#63b8ff" points="661.64,-247.67 671.4,-251.8 666.34,-242.49 661.64,-247.67"/>
</g>
<!-- Node11&#45;&gt;Node6 -->
<g id="edge15" class="edge">
<title>Node11&#45;&gt;Node6</title>
<path fill="none" stroke="#63b8ff" d="M392.97,-90.74C444.01,-97.67 521.18,-113.41 579,-148.5 619.36,-172.99 653.2,-218.15 670.04,-243.33"/>
<polygon fill="#63b8ff" stroke="#63b8ff" points="667.25,-245.45 675.64,-251.92 673.11,-241.63 667.25,-245.45"/>
</g>
<!-- Node12 -->
<g id="node12" class="node">
<title>Node12</title>
<g id="a_node12"><a xlink:href="get__variable__value_8c.html#a2edd9900f19af236aa05385a789be3d6" target="_top" xlink:title=" ">
<polygon fill="white" stroke="#666666" points="737.5,-155 627.5,-155 627.5,-136 737.5,-136 737.5,-155"/>
<text text-anchor="middle" x="682.5" y="-143" font-family="Helvetica,sans-Serif" font-size="10.00">get_variable_value</text>
</a>
</g>
</g>
<!-- Node11&#45;&gt;Node12 -->
<g id="edge13" class="edge">
<title>Node11&#45;&gt;Node12</title>
<path fill="none" stroke="#63b8ff" d="M392.9,-79.53C442.2,-75.72 516.72,-74.15 579,-90.5 609.15,-98.41 640.21,-116.78 660.12,-130.12"/>
<polygon fill="#63b8ff" stroke="#63b8ff" points="658.21,-133.05 668.44,-135.84 662.18,-127.29 658.21,-133.05"/>
</g>
<!-- Node14 -->
<g id="node14" class="node">
<title>Node14</title>
<g id="a_node14"><a xlink:href="lexer__expand__tilde_8c.html#aa4231a41b1e79447d6a70db7b075f937" target="_top" xlink:title=" ">
<polygon fill="white" stroke="#666666" points="572,-38 455,-38 455,-19 572,-19 572,-38"/>
<text text-anchor="middle" x="513.5" y="-26" font-family="Helvetica,sans-Serif" font-size="10.00">should_expand_tilde</text>
</a>
</g>
</g>
<!-- Node11&#45;&gt;Node14 -->
<g id="edge16" class="edge">
<title>Node11&#45;&gt;Node14</title>
<path fill="none" stroke="#63b8ff" d="M368.04,-75.96C396.94,-66.47 441.48,-51.83 473.46,-41.33"/>
<polygon fill="#63b8ff" stroke="#63b8ff" points="474.96,-44.52 483.37,-38.07 472.77,-37.87 474.96,-44.52"/>
</g>
<!-- Node13 -->
<g id="node13" class="node">
<title>Node13</title>
<g id="a_node13"><a xlink:href="get__variable_8c.html#a569170390f0edf013bf89c26ef55ea8c" target="_top" xlink:title=" ">
<polygon fill="white" stroke="#666666" points="883.5,-155 806.5,-155 806.5,-136 883.5,-136 883.5,-155"/>
<text text-anchor="middle" x="845" y="-143" font-family="Helvetica,sans-Serif" font-size="10.00">get_variable</text>
</a>
</g>
</g>
<!-- Node12&#45;&gt;Node13 -->
<g id="edge14" class="edge">
<title>Node12&#45;&gt;Node13</title>
<path fill="none" stroke="#63b8ff" d="M737.84,-145.5C756.78,-145.5 777.88,-145.5 796.25,-145.5"/>
<polygon fill="#63b8ff" stroke="#63b8ff" points="796.42,-149 806.42,-145.5 796.42,-142 796.42,-149"/>
</g>
<!-- Node14&#45;&gt;Node15 -->
<g id="edge17" class="edge">
<title>Node14&#45;&gt;Node15</title>
<path fill="none" stroke="#63b8ff" d="M572.44,-21.91C582.9,-20.72 593.95,-19.46 604.84,-18.22"/>
<polygon fill="#63b8ff" stroke="#63b8ff" points="605.24,-21.7 614.78,-17.09 604.45,-14.74 605.24,-21.7"/>
</g>
<!-- Node16&#45;&gt;Node8 -->
<g id="edge31" class="edge">
<title>Node16&#45;&gt;Node8</title>
<path fill="none" stroke="#63b8ff" d="M352.61,-351.22C372.44,-364.74 410.98,-388.55 448,-397.5 569.01,-426.77 716.71,-405.19 792.98,-390.01"/>
<polygon fill="#63b8ff" stroke="#63b8ff" points="793.71,-393.43 802.81,-388.01 792.31,-386.57 793.71,-393.43"/>
</g>
<!-- Node17 -->
<g id="node17" class="node">
<title>Node17</title>
<g id="a_node17"><a xlink:href="lexer__expand__variable_8c.html#abe77b7e35b276965b72648d12abae283" target="_top" xlink:title=" ">
<polygon fill="white" stroke="#666666" points="556.5,-351 470.5,-351 470.5,-332 556.5,-332 556.5,-351"/>
<text text-anchor="middle" x="513.5" y="-339" font-family="Helvetica,sans-Serif" font-size="10.00">append_dollar</text>
</a>
</g>
</g>
<!-- Node16&#45;&gt;Node17 -->
<g id="edge19" class="edge">
<title>Node16&#45;&gt;Node17</title>
<path fill="none" stroke="#63b8ff" d="M401.64,-341.5C420.79,-341.5 441.66,-341.5 460.06,-341.5"/>
<polygon fill="#63b8ff" stroke="#63b8ff" points="460.29,-345 470.29,-341.5 460.29,-338 460.29,-345"/>
</g>
<!-- Node18 -->
<g id="node18" class="node">
<title>Node18</title>
<g id="a_node18"><a xlink:href="lexer__expand__variable_8c.html#ab47d31838e3255a1321d85e937919d4e" target="_top" xlink:title=" ">
<polygon fill="white" stroke="#666666" points="569,-388 458,-388 458,-369 569,-369 569,-388"/>
<text text-anchor="middle" x="513.5" y="-376" font-family="Helvetica,sans-Serif" font-size="10.00">append_last_status</text>
</a>
</g>
</g>
<!-- Node16&#45;&gt;Node18 -->
<g id="edge21" class="edge">
<title>Node16&#45;&gt;Node18</title>
<path fill="none" stroke="#63b8ff" d="M383.68,-351.03C406.26,-355.84 433.85,-361.73 457.7,-366.81"/>
<polygon fill="#63b8ff" stroke="#63b8ff" points="457.16,-370.28 467.67,-368.94 458.62,-363.43 457.16,-370.28"/>
</g>
<!-- Node19 -->
<g id="node19" class="node">
<title>Node19</title>
<g id="a_node19"><a xlink:href="lexer__expand__variable_8c.html#a9954e7e26e9570a3c41eed4e16bf6791" target="_top" xlink:title=" ">
<polygon fill="white" stroke="#666666" points="578.5,-314 448.5,-314 448.5,-295 578.5,-295 578.5,-314"/>
<text text-anchor="middle" x="513.5" y="-302" font-family="Helvetica,sans-Serif" font-size="10.00">append_variable_value</text>
</a>
</g>
</g>
<!-- Node16&#45;&gt;Node19 -->
<g id="edge24" class="edge">
<title>Node16&#45;&gt;Node19</title>
<path fill="none" stroke="#63b8ff" d="M383.68,-331.97C406.26,-327.16 433.85,-321.27 457.7,-316.19"/>
<polygon fill="#63b8ff" stroke="#63b8ff" points="458.62,-319.57 467.67,-314.06 457.16,-312.72 458.62,-319.57"/>
</g>
<!-- Node20 -->
<g id="node20" class="node">
<title>Node20</title>
<g id="a_node20"><a xlink:href="lexer__expand__variable_8c.html#a1d07a8c171e69a5c58a385a75520e6c0" target="_top" xlink:title=" ">
<polygon fill="white" stroke="#666666" points="571.5,-276.5 455.5,-276.5 455.5,-246.5 571.5,-246.5 571.5,-276.5"/>
<text text-anchor="start" x="463.5" y="-264.5" font-family="Helvetica,sans-Serif" font-size="10.00">get_correct_variable</text>
<text text-anchor="middle" x="513.5" y="-253.5" font-family="Helvetica,sans-Serif" font-size="10.00">_value</text>
</a>
</g>
</g>
<!-- Node16&#45;&gt;Node20 -->
<g id="edge26" class="edge">
<title>Node16&#45;&gt;Node20</title>
<path fill="none" stroke="#63b8ff" d="M356.87,-331.81C378.25,-320.36 415.27,-301.06 448,-286.5 452.68,-284.42 457.59,-282.34 462.53,-280.31"/>
<polygon fill="#63b8ff" stroke="#63b8ff" points="464.02,-283.48 471.99,-276.5 461.41,-276.99 464.02,-283.48"/>
</g>
<!-- Node21 -->
<g id="node21" class="node">
<title>Node21</title>
<g id="a_node21"><a xlink:href="lexer__expand__variable_8c.html#a3674c7faac945bf9ec05a9dc00c08896" target="_top" xlink:title=" ">
<polygon fill="white" stroke="#666666" points="579,-464 448,-464 448,-445 579,-445 579,-464"/>
<text text-anchor="middle" x="513.5" y="-452" font-family="Helvetica,sans-Serif" font-size="10.00">get_variable_name_len</text>
</a>
</g>
</g>
<!-- Node16&#45;&gt;Node21 -->
<g id="edge28" class="edge">
<title>Node16&#45;&gt;Node21</title>
<path fill="none" stroke="#63b8ff" d="M348.4,-351.03C366.34,-368.77 407.3,-407.17 448,-430.5 455.15,-434.6 463.13,-438.23 470.97,-441.35"/>
<polygon fill="#63b8ff" stroke="#63b8ff" points="469.81,-444.65 480.4,-444.9 472.27,-438.1 469.81,-444.65"/>
</g>
<!-- Node17&#45;&gt;Node6 -->
<g id="edge20" class="edge">
<title>Node17&#45;&gt;Node6</title>
<path fill="none" stroke="#63b8ff" d="M555.34,-331.92C563.32,-329.54 571.53,-326.73 579,-323.5 608.47,-310.76 639.66,-290.84 659.79,-277.03"/>
<polygon fill="#63b8ff" stroke="#63b8ff" points="662.01,-279.76 668.22,-271.17 658.01,-274.01 662.01,-279.76"/>
</g>
<!-- Node18&#45;&gt;Node6 -->
<g id="edge22" class="edge">
<title>Node18&#45;&gt;Node6</title>
<path fill="none" stroke="#63b8ff" d="M559.73,-368.98C566.41,-366.7 573.05,-363.91 579,-360.5 616.15,-339.23 649.91,-301.48 667.89,-279.25"/>
<polygon fill="#63b8ff" stroke="#63b8ff" points="670.72,-281.31 674.18,-271.29 665.23,-276.96 670.72,-281.31"/>
</g>
<!-- Node18&#45;&gt;Node8 -->
<g id="edge23" class="edge">
<title>Node18&#45;&gt;Node8</title>
<path fill="none" stroke="#63b8ff" d="M569.28,-378.5C625.85,-378.5 714.25,-378.5 775.42,-378.5"/>
<polygon fill="#63b8ff" stroke="#63b8ff" points="775.76,-382 785.76,-378.5 775.76,-375 775.76,-382"/>
</g>
<!-- Node19&#45;&gt;Node6 -->
<g id="edge25" class="edge">
<title>Node19&#45;&gt;Node6</title>
<path fill="none" stroke="#63b8ff" d="M551.56,-294.96C576.1,-288.64 608.49,-280.3 634.79,-273.53"/>
<polygon fill="#63b8ff" stroke="#63b8ff" points="635.73,-276.9 644.54,-271.02 633.98,-270.12 635.73,-276.9"/>
</g>
<!-- Node20&#45;&gt;Node12 -->
<g id="edge27" class="edge">
<title>Node20&#45;&gt;Node12</title>
<path fill="none" stroke="#63b8ff" d="M536.33,-246.34C568.17,-224.22 627.05,-183.32 659.17,-161.01"/>
<polygon fill="#63b8ff" stroke="#63b8ff" points="661.26,-163.82 667.47,-155.24 657.26,-158.07 661.26,-163.82"/>
</g>
<!-- Node22 -->
<g id="node22" class="node">
<title>Node22</title>
<g id="a_node22"><a xlink:href="lexer__expand__variable_8c.html#a5067193ac632b7565fd8b9ad405a525f" target="_top" xlink:title=" ">
<polygon fill="white" stroke="#666666" points="745,-464 620,-464 620,-445 745,-445 745,-464"/>
<text text-anchor="middle" x="682.5" y="-452" font-family="Helvetica,sans-Serif" font-size="10.00">is_valid_variable_char</text>
</a>
</g>
</g>
<!-- Node21&#45;&gt;Node22 -->
<g id="edge29" class="edge">
<title>Node21&#45;&gt;Node22</title>
<path fill="none" stroke="#63b8ff" d="M579.07,-454.5C589.12,-454.5 599.55,-454.5 609.75,-454.5"/>
<polygon fill="#63b8ff" stroke="#63b8ff" points="609.85,-458 619.85,-454.5 609.85,-451 609.85,-458"/>
</g>
<!-- Node23 -->
<g id="node23" class="node">
<title>Node23</title>
<g id="a_node23"><a xlink:href="strings_8h.html#adfd4fc057d3b7ad39c6867928cc44175" target="_top" xlink:title=" ">
<polygon fill="white" stroke="#666666" points="886.5,-464 803.5,-464 803.5,-445 886.5,-445 886.5,-464"/>
<text text-anchor="middle" x="845" y="-452" font-family="Helvetica,sans-Serif" font-size="10.00">my_isnumber</text>
</a>
</g>
</g>
<!-- Node22&#45;&gt;Node23 -->
<g id="edge30" class="edge">
<title>Node22&#45;&gt;Node23</title>
<path fill="none" stroke="#63b8ff" d="M745.09,-454.5C760.9,-454.5 777.72,-454.5 792.93,-454.5"/>
<polygon fill="#63b8ff" stroke="#63b8ff" points="793.16,-458 803.16,-454.5 793.16,-451 793.16,-458"/>
</g>
</g>
</svg>
