<?xml version="1.0" encoding="UTF-8" standalone="no"?>
<!DOCTYPE svg PUBLIC "-//W3C//DTD SVG 1.1//EN"
 "http://www.w3.org/Graphics/SVG/1.1/DTD/svg11.dtd">
<!-- Generated by graphviz version 2.43.0 (0)
 -->
<!-- Title: src/lexer/lexer_utils.c Pages: 1 -->
<svg width="321pt" height="247pt"
 viewBox="0.00 0.00 321.00 247.00" xmlns="http://www.w3.org/2000/svg" xmlns:xlink="http://www.w3.org/1999/xlink">
<g id="graph0" class="graph" transform="scale(1 1) rotate(0) translate(4 243)">
<title>src/lexer/lexer_utils.c</title>
<!-- Node1 -->
<g id="node1" class="node">
<title>Node1</title>
<g id="a_node1"><a xlink:title=" ">
<polygon fill="#999999" stroke="#666666" points="165,-239 46,-239 46,-220 165,-220 165,-239"/>
<text text-anchor="middle" x="105.5" y="-227" font-family="Helvetica,sans-Serif" font-size="10.00">src/lexer/lexer_utils.c</text>
</a>
</g>
</g>
<!-- Node2 -->
<g id="node2" class="node">
<title>Node2</title>
<g id="a_node2"><a xlink:title=" ">
<polygon fill="#e0e0e0" stroke="#999999" points="125.5,-129 53.5,-129 53.5,-110 125.5,-110 125.5,-129"/>
<text text-anchor="middle" x="89.5" y="-117" font-family="Helvetica,sans-Serif" font-size="10.00">sys/types.h</text>
</a>
</g>
</g>
<!-- Node1&#45;&gt;Node2 -->
<g id="edge1" class="edge">
<title>Node1&#45;&gt;Node2</title>
<path fill="none" stroke="#63b8ff" d="M104.19,-219.66C101.6,-202.17 95.77,-162.8 92.28,-139.27"/>
<polygon fill="#63b8ff" stroke="#63b8ff" points="95.71,-138.54 90.78,-129.16 88.79,-139.56 95.71,-138.54"/>
</g>
<!-- Node3 -->
<g id="node3" class="node">
<title>Node3</title>
<g id="a_node3"><a xlink:href="strings_8h.html" target="_top" xlink:title=" ">
<polygon fill="white" stroke="#666666" points="77,-184 0,-184 0,-165 77,-165 77,-184"/>
<text text-anchor="middle" x="38.5" y="-172" font-family="Helvetica,sans-Serif" font-size="10.00">my/strings.h</text>
</a>
</g>
</g>
<!-- Node1&#45;&gt;Node3 -->
<g id="edge2" class="edge">
<title>Node1&#45;&gt;Node3</title>
<path fill="none" stroke="#63b8ff" d="M94.74,-219.98C84.73,-212.07 69.61,-200.11 57.57,-190.58"/>
<polygon fill="#63b8ff" stroke="#63b8ff" points="59.47,-187.63 49.46,-184.17 55.13,-193.12 59.47,-187.63"/>
</g>
<!-- Node5 -->
<g id="node5" class="node">
<title>Node5</title>
<g id="a_node5"><a xlink:href="lexer_8h.html" target="_top" xlink:title=" ">
<polygon fill="white" stroke="#666666" points="195,-184 146,-184 146,-165 195,-165 195,-184"/>
<text text-anchor="middle" x="170.5" y="-172" font-family="Helvetica,sans-Serif" font-size="10.00">lexer.h</text>
</a>
</g>
</g>
<!-- Node1&#45;&gt;Node5 -->
<g id="edge5" class="edge">
<title>Node1&#45;&gt;Node5</title>
<path fill="none" stroke="#63b8ff" d="M115.94,-219.98C125.65,-212.07 140.32,-200.11 152,-190.58"/>
<polygon fill="#63b8ff" stroke="#63b8ff" points="154.33,-193.2 159.87,-184.17 149.9,-187.78 154.33,-193.2"/>
</g>
<!-- Node3&#45;&gt;Node2 -->
<g id="edge4" class="edge">
<title>Node3&#45;&gt;Node2</title>
<path fill="none" stroke="#63b8ff" d="M46.92,-164.75C54.27,-157.11 65.13,-145.82 74.04,-136.56"/>
<polygon fill="#63b8ff" stroke="#63b8ff" points="76.82,-138.72 81.24,-129.09 71.78,-133.87 76.82,-138.72"/>
</g>
<!-- Node4 -->
<g id="node4" class="node">
<title>Node4</title>
<g id="a_node4"><a xlink:title=" ">
<polygon fill="#e0e0e0" stroke="#999999" points="253.5,-19 197.5,-19 197.5,0 253.5,0 253.5,-19"/>
<text text-anchor="middle" x="225.5" y="-7" font-family="Helvetica,sans-Serif" font-size="10.00">stddef.h</text>
</a>
</g>
</g>
<!-- Node3&#45;&gt;Node4 -->
<g id="edge3" class="edge">
<title>Node3&#45;&gt;Node4</title>
<path fill="none" stroke="#63b8ff" d="M36.94,-164.87C35.07,-151.83 33.44,-126.84 44.5,-110 77.49,-59.78 144.84,-32.67 187.44,-19.94"/>
<polygon fill="#63b8ff" stroke="#63b8ff" points="188.52,-23.27 197.17,-17.15 186.59,-16.54 188.52,-23.27"/>
</g>
<!-- Node5&#45;&gt;Node2 -->
<g id="edge7" class="edge">
<title>Node5&#45;&gt;Node2</title>
<path fill="none" stroke="#63b8ff" d="M157.49,-164.98C145.04,-156.84 126.04,-144.41 111.29,-134.76"/>
<polygon fill="#63b8ff" stroke="#63b8ff" points="113.04,-131.72 102.75,-129.17 109.2,-137.57 113.04,-131.72"/>
</g>
<!-- Node5&#45;&gt;Node4 -->
<g id="edge6" class="edge">
<title>Node5&#45;&gt;Node4</title>
<path fill="none" stroke="#63b8ff" d="M179.51,-164.85C187.65,-156.48 199.29,-143.02 205.5,-129 220.09,-96.05 224.1,-53.61 225.16,-29.5"/>
<polygon fill="#63b8ff" stroke="#63b8ff" points="228.67,-29.35 225.48,-19.25 221.67,-29.14 228.67,-29.35"/>
</g>
<!-- Node6 -->
<g id="node6" class="node">
<title>Node6</title>
<g id="a_node6"><a xlink:href="shell_8h.html" target="_top" xlink:title=" ">
<polygon fill="white" stroke="#666666" points="306,-129 257,-129 257,-110 306,-110 306,-129"/>
<text text-anchor="middle" x="281.5" y="-117" font-family="Helvetica,sans-Serif" font-size="10.00">shell.h</text>
</a>
</g>
</g>
<!-- Node5&#45;&gt;Node6 -->
<g id="edge8" class="edge">
<title>Node5&#45;&gt;Node6</title>
<path fill="none" stroke="#63b8ff" d="M188.33,-164.98C206.11,-156.5 233.65,-143.35 254.18,-133.54"/>
<polygon fill="#63b8ff" stroke="#63b8ff" points="255.83,-136.64 263.34,-129.17 252.81,-130.32 255.83,-136.64"/>
</g>
<!-- Node8 -->
<g id="node8" class="node">
<title>Node8</title>
<g id="a_node8"><a xlink:href="token_8h.html" target="_top" xlink:title=" ">
<polygon fill="white" stroke="#666666" points="197,-129 144,-129 144,-110 197,-110 197,-129"/>
<text text-anchor="middle" x="170.5" y="-117" font-family="Helvetica,sans-Serif" font-size="10.00">token.h</text>
</a>
</g>
</g>
<!-- Node5&#45;&gt;Node8 -->
<g id="edge11" class="edge">
<title>Node5&#45;&gt;Node8</title>
<path fill="none" stroke="#63b8ff" d="M170.5,-164.75C170.5,-157.8 170.5,-147.85 170.5,-139.13"/>
<polygon fill="#63b8ff" stroke="#63b8ff" points="174,-139.09 170.5,-129.09 167,-139.09 174,-139.09"/>
</g>
<!-- Node7 -->
<g id="node7" class="node">
<title>Node7</title>
<g id="a_node7"><a xlink:href="list_8h.html" target="_top" xlink:title=" ">
<polygon fill="white" stroke="#666666" points="313,-74 254,-74 254,-55 313,-55 313,-74"/>
<text text-anchor="middle" x="283.5" y="-62" font-family="Helvetica,sans-Serif" font-size="10.00">my/list.h</text>
</a>
</g>
</g>
<!-- Node6&#45;&gt;Node7 -->
<g id="edge9" class="edge">
<title>Node6&#45;&gt;Node7</title>
<path fill="none" stroke="#63b8ff" d="M281.83,-109.75C282.09,-102.8 282.47,-92.85 282.8,-84.13"/>
<polygon fill="#63b8ff" stroke="#63b8ff" points="286.3,-84.21 283.18,-74.09 279.3,-83.95 286.3,-84.21"/>
</g>
<!-- Node7&#45;&gt;Node4 -->
<g id="edge10" class="edge">
<title>Node7&#45;&gt;Node4</title>
<path fill="none" stroke="#63b8ff" d="M274.18,-54.98C265.69,-47.23 252.94,-35.58 242.62,-26.14"/>
<polygon fill="#63b8ff" stroke="#63b8ff" points="244.73,-23.33 234.99,-19.17 240.01,-28.5 244.73,-23.33"/>
</g>
</g>
</svg>
