<?xml version="1.0" encoding="UTF-8" standalone="no"?>
<!DOCTYPE svg PUBLIC "-//W3C//DTD SVG 1.1//EN"
 "http://www.w3.org/Graphics/SVG/1.1/DTD/svg11.dtd">
<!-- Generated by graphviz version 2.43.0 (0)
 -->
<!-- Title: lexer_expand_variable Pages: 1 -->
<svg width="617pt" height="225pt"
 viewBox="0.00 0.00 617.00 225.00" xmlns="http://www.w3.org/2000/svg" xmlns:xlink="http://www.w3.org/1999/xlink">
<g id="graph0" class="graph" transform="scale(1 1) rotate(0) translate(4 221)">
<title>lexer_expand_variable</title>
<!-- Node1 -->
<g id="node1" class="node">
<title>Node1</title>
<g id="a_node1"><a xlink:title=" ">
<polygon fill="#999999" stroke="#666666" points="127,-124 0,-124 0,-105 127,-105 127,-124"/>
<text text-anchor="middle" x="63.5" y="-112" font-family="Helvetica,sans-Serif" font-size="10.00">lexer_expand_variable</text>
</a>
</g>
</g>
<!-- Node2 -->
<g id="node2" class="node">
<title>Node2</title>
<g id="a_node2"><a xlink:href="lexer__expand__variable_8c.html#abe77b7e35b276965b72648d12abae283" target="_top" xlink:title=" ">
<polygon fill="white" stroke="#666666" points="271.5,-217 185.5,-217 185.5,-198 271.5,-198 271.5,-217"/>
<text text-anchor="middle" x="228.5" y="-205" font-family="Helvetica,sans-Serif" font-size="10.00">append_dollar</text>
</a>
</g>
</g>
<!-- Node1&#45;&gt;Node2 -->
<g id="edge1" class="edge">
<title>Node1&#45;&gt;Node2</title>
<path fill="none" stroke="#63b8ff" d="M74.27,-124.01C91.04,-139.83 127.01,-171.6 163,-189.5 167.03,-191.51 171.32,-193.32 175.7,-194.94"/>
<polygon fill="#63b8ff" stroke="#63b8ff" points="174.75,-198.32 185.35,-198.22 177,-191.69 174.75,-198.32"/>
</g>
<!-- Node5 -->
<g id="node5" class="node">
<title>Node5</title>
<g id="a_node5"><a xlink:href="lexer__utils_8c.html#a84e8d5514cfe03a20152ad26f170211f" target="_top" xlink:title=" ">
<polygon fill="white" stroke="#666666" points="609,-143 491,-143 491,-124 609,-124 609,-143"/>
<text text-anchor="middle" x="550" y="-131" font-family="Helvetica,sans-Serif" font-size="10.00">lexer_set_alloc_error</text>
</a>
</g>
</g>
<!-- Node1&#45;&gt;Node5 -->
<g id="edge16" class="edge">
<title>Node1&#45;&gt;Node5</title>
<path fill="none" stroke="#63b8ff" d="M127.35,-113.66C173.49,-113.31 237.66,-113.39 294,-115.5 357.41,-117.87 429.52,-123.21 480.85,-127.46"/>
<polygon fill="#63b8ff" stroke="#63b8ff" points="480.57,-130.95 490.82,-128.29 481.15,-123.97 480.57,-130.95"/>
</g>
<!-- Node6 -->
<g id="node6" class="node">
<title>Node6</title>
<g id="a_node6"><a xlink:href="lexer__expand__variable_8c.html#ab47d31838e3255a1321d85e937919d4e" target="_top" xlink:title=" ">
<polygon fill="white" stroke="#666666" points="284,-143 173,-143 173,-124 284,-124 284,-143"/>
<text text-anchor="middle" x="228.5" y="-131" font-family="Helvetica,sans-Serif" font-size="10.00">append_last_status</text>
</a>
</g>
</g>
<!-- Node1&#45;&gt;Node6 -->
<g id="edge5" class="edge">
<title>Node1&#45;&gt;Node6</title>
<path fill="none" stroke="#63b8ff" d="M127.05,-121.79C138.72,-123.15 150.93,-124.58 162.67,-125.94"/>
<polygon fill="#63b8ff" stroke="#63b8ff" points="162.49,-129.45 172.83,-127.13 163.3,-122.49 162.49,-129.45"/>
</g>
<!-- Node7 -->
<g id="node7" class="node">
<title>Node7</title>
<g id="a_node7"><a xlink:href="lexer__expand__variable_8c.html#a9954e7e26e9570a3c41eed4e16bf6791" target="_top" xlink:title=" ">
<polygon fill="white" stroke="#666666" points="293.5,-180 163.5,-180 163.5,-161 293.5,-161 293.5,-180"/>
<text text-anchor="middle" x="228.5" y="-168" font-family="Helvetica,sans-Serif" font-size="10.00">append_variable_value</text>
</a>
</g>
</g>
<!-- Node1&#45;&gt;Node7 -->
<g id="edge8" class="edge">
<title>Node1&#45;&gt;Node7</title>
<path fill="none" stroke="#63b8ff" d="M87.36,-124.04C107.18,-132.13 136.73,-143.79 163,-152.5 168.73,-154.4 174.78,-156.27 180.8,-158.04"/>
<polygon fill="#63b8ff" stroke="#63b8ff" points="180.24,-161.52 190.82,-160.92 182.17,-154.79 180.24,-161.52"/>
</g>
<!-- Node8 -->
<g id="node8" class="node">
<title>Node8</title>
<g id="a_node8"><a xlink:href="lexer__expand__variable_8c.html#a1d07a8c171e69a5c58a385a75520e6c0" target="_top" xlink:title=" ">
<polygon fill="white" stroke="#666666" points="286.5,-67.5 170.5,-67.5 170.5,-37.5 286.5,-37.5 286.5,-67.5"/>
<text text-anchor="start" x="178.5" y="-55.5" font-family="Helvetica,sans-Serif" font-size="10.00">get_correct_variable</text>
<text text-anchor="middle" x="228.5" y="-44.5" font-family="Helvetica,sans-Serif" font-size="10.00">_value</text>
</a>
</g>
</g>
<!-- Node1&#45;&gt;Node8 -->
<g id="edge10" class="edge">
<title>Node1&#45;&gt;Node8</title>
<path fill="none" stroke="#63b8ff" d="M89.61,-104.95C113.12,-96.01 148.9,-82.4 178.13,-71.28"/>
<polygon fill="#63b8ff" stroke="#63b8ff" points="179.66,-74.44 187.76,-67.62 177.17,-67.9 179.66,-74.44"/>
</g>
<!-- Node11 -->
<g id="node11" class="node">
<title>Node11</title>
<g id="a_node11"><a xlink:href="lexer__expand__variable_8c.html#a3674c7faac945bf9ec05a9dc00c08896" target="_top" xlink:title=" ">
<polygon fill="white" stroke="#666666" points="294,-19 163,-19 163,0 294,0 294,-19"/>
<text text-anchor="middle" x="228.5" y="-7" font-family="Helvetica,sans-Serif" font-size="10.00">get_variable_name_len</text>
</a>
</g>
</g>
<!-- Node1&#45;&gt;Node11 -->
<g id="edge13" class="edge">
<title>Node1&#45;&gt;Node11</title>
<path fill="none" stroke="#63b8ff" d="M72.73,-105C88.49,-87.36 124.79,-49.48 163,-28.5 167.02,-26.29 171.33,-24.31 175.74,-22.55"/>
<polygon fill="#63b8ff" stroke="#63b8ff" points="177.29,-25.71 185.49,-19.01 174.9,-19.13 177.29,-25.71"/>
</g>
<!-- Node3 -->
<g id="node3" class="node">
<title>Node3</title>
<g id="a_node3"><a xlink:href="lexer__utils_8c.html#abf1c1b3b6033c8f9c8d1b11cc9e14f75" target="_top" xlink:title=" ">
<polygon fill="white" stroke="#666666" points="442.5,-181 342.5,-181 342.5,-162 442.5,-162 442.5,-181"/>
<text text-anchor="middle" x="392.5" y="-169" font-family="Helvetica,sans-Serif" font-size="10.00">lexer_append_str</text>
</a>
</g>
</g>
<!-- Node2&#45;&gt;Node3 -->
<g id="edge2" class="edge">
<title>Node2&#45;&gt;Node3</title>
<path fill="none" stroke="#63b8ff" d="M271.64,-198.14C292.21,-193.56 317.16,-188.02 338.96,-183.18"/>
<polygon fill="#63b8ff" stroke="#63b8ff" points="339.72,-186.59 348.73,-181.01 338.2,-179.76 339.72,-186.59"/>
</g>
<!-- Node4 -->
<g id="node4" class="node">
<title>Node4</title>
<g id="a_node4"><a xlink:href="strings_8h.html#a5e1589f073ac32d227dbc6020c376dab" target="_top" xlink:title=" ">
<polygon fill="white" stroke="#666666" points="600.5,-181 499.5,-181 499.5,-162 600.5,-162 600.5,-181"/>
<text text-anchor="middle" x="550" y="-169" font-family="Helvetica,sans-Serif" font-size="10.00">append_to_buffer</text>
</a>
</g>
</g>
<!-- Node3&#45;&gt;Node4 -->
<g id="edge3" class="edge">
<title>Node3&#45;&gt;Node4</title>
<path fill="none" stroke="#63b8ff" d="M442.7,-171.5C457.38,-171.5 473.63,-171.5 488.92,-171.5"/>
<polygon fill="#63b8ff" stroke="#63b8ff" points="489.32,-175 499.32,-171.5 489.32,-168 489.32,-175"/>
</g>
<!-- Node3&#45;&gt;Node5 -->
<g id="edge4" class="edge">
<title>Node3&#45;&gt;Node5</title>
<path fill="none" stroke="#63b8ff" d="M432.74,-161.91C453.26,-156.9 478.57,-150.71 500.33,-145.39"/>
<polygon fill="#63b8ff" stroke="#63b8ff" points="501.16,-148.79 510.04,-143.02 499.5,-141.99 501.16,-148.79"/>
</g>
<!-- Node6&#45;&gt;Node3 -->
<g id="edge6" class="edge">
<title>Node6&#45;&gt;Node3</title>
<path fill="none" stroke="#63b8ff" d="M270.38,-143.09C291.85,-148.13 318.36,-154.34 341.1,-159.68"/>
<polygon fill="#63b8ff" stroke="#63b8ff" points="340.38,-163.1 350.91,-161.98 341.98,-156.29 340.38,-163.1"/>
</g>
<!-- Node6&#45;&gt;Node5 -->
<g id="edge7" class="edge">
<title>Node6&#45;&gt;Node5</title>
<path fill="none" stroke="#63b8ff" d="M284.06,-133.5C338.37,-133.5 421.87,-133.5 480.59,-133.5"/>
<polygon fill="#63b8ff" stroke="#63b8ff" points="480.88,-137 490.88,-133.5 480.88,-130 480.88,-137"/>
</g>
<!-- Node7&#45;&gt;Node3 -->
<g id="edge9" class="edge">
<title>Node7&#45;&gt;Node3</title>
<path fill="none" stroke="#63b8ff" d="M293.53,-170.9C306.24,-170.97 319.54,-171.06 332.09,-171.13"/>
<polygon fill="#63b8ff" stroke="#63b8ff" points="332.41,-174.64 342.43,-171.2 332.45,-167.64 332.41,-174.64"/>
</g>
<!-- Node9 -->
<g id="node9" class="node">
<title>Node9</title>
<g id="a_node9"><a xlink:href="get__variable__value_8c.html#a2edd9900f19af236aa05385a789be3d6" target="_top" xlink:title=" ">
<polygon fill="white" stroke="#666666" points="447.5,-62 337.5,-62 337.5,-43 447.5,-43 447.5,-62"/>
<text text-anchor="middle" x="392.5" y="-50" font-family="Helvetica,sans-Serif" font-size="10.00">get_variable_value</text>
</a>
</g>
</g>
<!-- Node8&#45;&gt;Node9 -->
<g id="edge11" class="edge">
<title>Node8&#45;&gt;Node9</title>
<path fill="none" stroke="#63b8ff" d="M286.62,-52.5C299.75,-52.5 313.81,-52.5 327.23,-52.5"/>
<polygon fill="#63b8ff" stroke="#63b8ff" points="327.34,-56 337.34,-52.5 327.34,-49 327.34,-56"/>
</g>
<!-- Node10 -->
<g id="node10" class="node">
<title>Node10</title>
<g id="a_node10"><a xlink:href="get__variable_8c.html#a569170390f0edf013bf89c26ef55ea8c" target="_top" xlink:title=" ">
<polygon fill="white" stroke="#666666" points="588.5,-62 511.5,-62 511.5,-43 588.5,-43 588.5,-62"/>
<text text-anchor="middle" x="550" y="-50" font-family="Helvetica,sans-Serif" font-size="10.00">get_variable</text>
</a>
</g>
</g>
<!-- Node9&#45;&gt;Node10 -->
<g id="edge12" class="edge">
<title>Node9&#45;&gt;Node10</title>
<path fill="none" stroke="#63b8ff" d="M447.89,-52.5C465.15,-52.5 484.1,-52.5 500.89,-52.5"/>
<polygon fill="#63b8ff" stroke="#63b8ff" points="501.03,-56 511.03,-52.5 501.03,-49 501.03,-56"/>
</g>
<!-- Node12 -->
<g id="node12" class="node">
<title>Node12</title>
<g id="a_node12"><a xlink:href="lexer__expand__variable_8c.html#a5067193ac632b7565fd8b9ad405a525f" target="_top" xlink:title=" ">
<polygon fill="white" stroke="#666666" points="455,-19 330,-19 330,0 455,0 455,-19"/>
<text text-anchor="middle" x="392.5" y="-7" font-family="Helvetica,sans-Serif" font-size="10.00">is_valid_variable_char</text>
</a>
</g>
</g>
<!-- Node11&#45;&gt;Node12 -->
<g id="edge14" class="edge">
<title>Node11&#45;&gt;Node12</title>
<path fill="none" stroke="#63b8ff" d="M294.46,-9.5C302.78,-9.5 311.34,-9.5 319.76,-9.5"/>
<polygon fill="#63b8ff" stroke="#63b8ff" points="319.95,-13 329.95,-9.5 319.95,-6 319.95,-13"/>
</g>
<!-- Node13 -->
<g id="node13" class="node">
<title>Node13</title>
<g id="a_node13"><a xlink:href="strings_8h.html#adfd4fc057d3b7ad39c6867928cc44175" target="_top" xlink:title=" ">
<polygon fill="white" stroke="#666666" points="591.5,-19 508.5,-19 508.5,0 591.5,0 591.5,-19"/>
<text text-anchor="middle" x="550" y="-7" font-family="Helvetica,sans-Serif" font-size="10.00">my_isnumber</text>
</a>
</g>
</g>
<!-- Node12&#45;&gt;Node13 -->
<g id="edge15" class="edge">
<title>Node12&#45;&gt;Node13</title>
<path fill="none" stroke="#63b8ff" d="M455.4,-9.5C469.58,-9.5 484.48,-9.5 498.13,-9.5"/>
<polygon fill="#63b8ff" stroke="#63b8ff" points="498.29,-13 508.29,-9.5 498.29,-6 498.29,-13"/>
</g>
</g>
</svg>
