<?xml version="1.0" encoding="UTF-8" standalone="no"?>
<!DOCTYPE svg PUBLIC "-//W3C//DTD SVG 1.1//EN"
 "http://www.w3.org/Graphics/SVG/1.1/DTD/svg11.dtd">
<!-- Generated by graphviz version 2.43.0 (0)
 -->
<!-- Title: handle_current_token Pages: 1 -->
<svg width="813pt" height="377pt"
 viewBox="0.00 0.00 813.00 377.00" xmlns="http://www.w3.org/2000/svg" xmlns:xlink="http://www.w3.org/1999/xlink">
<g id="graph0" class="graph" transform="scale(1 1) rotate(0) translate(4 373)">
<title>handle_current_token</title>
<!-- Node1 -->
<g id="node1" class="node">
<title>Node1</title>
<g id="a_node1"><a xlink:title=" ">
<polygon fill="#999999" stroke="#666666" points="122,-263 0,-263 0,-244 122,-244 122,-263"/>
<text text-anchor="middle" x="61" y="-251" font-family="Helvetica,sans-Serif" font-size="10.00">handle_current_token</text>
</a>
</g>
</g>
<!-- Node2 -->
<g id="node2" class="node">
<title>Node2</title>
<g id="a_node2"><a xlink:href="lexer__word_8c.html#acd8f2a3c47fa56f87c2792ccefd2ee3e" target="_top" xlink:title=" ">
<polygon fill="white" stroke="#666666" points="292.5,-358 171.5,-358 171.5,-339 292.5,-339 292.5,-358"/>
<text text-anchor="middle" x="232" y="-346" font-family="Helvetica,sans-Serif" font-size="10.00">handle_double_quote</text>
</a>
</g>
</g>
<!-- Node1&#45;&gt;Node2 -->
<g id="edge1" class="edge">
<title>Node1&#45;&gt;Node2</title>
<path fill="none" stroke="#63b8ff" d="M72.47,-263.03C89.35,-277.97 124.12,-306.98 158,-324.5 166.35,-328.82 175.64,-332.58 184.72,-335.76"/>
<polygon fill="#63b8ff" stroke="#63b8ff" points="183.84,-339.16 194.43,-338.99 186.04,-332.51 183.84,-339.16"/>
</g>
<!-- Node3 -->
<g id="node3" class="node">
<title>Node3</title>
<g id="a_node3"><a xlink:href="lexer__word_8c.html#a733339142f4677a066646a12a7e5bec4" target="_top" xlink:title=" ">
<polygon fill="white" stroke="#666666" points="302.5,-207 161.5,-207 161.5,-188 302.5,-188 302.5,-207"/>
<text text-anchor="middle" x="232" y="-195" font-family="Helvetica,sans-Serif" font-size="10.00">handle_escape_sequence</text>
</a>
</g>
</g>
<!-- Node1&#45;&gt;Node3 -->
<g id="edge2" class="edge">
<title>Node1&#45;&gt;Node3</title>
<path fill="none" stroke="#63b8ff" d="M84.63,-243.94C103.92,-236 132.49,-224.71 158,-216.5 165.45,-214.1 173.4,-211.79 181.21,-209.65"/>
<polygon fill="#63b8ff" stroke="#63b8ff" points="182.22,-213 190.98,-207.04 180.42,-206.24 182.22,-213"/>
</g>
<!-- Node7 -->
<g id="node7" class="node">
<title>Node7</title>
<g id="a_node7"><a xlink:href="lexer__word_8c.html#a3ae03e49183787e7cf32c90ffdef7351" target="_top" xlink:title=" ">
<polygon fill="white" stroke="#666666" points="290.5,-245 173.5,-245 173.5,-226 290.5,-226 290.5,-245"/>
<text text-anchor="middle" x="232" y="-233" font-family="Helvetica,sans-Serif" font-size="10.00">handle_single_quote</text>
</a>
</g>
</g>
<!-- Node1&#45;&gt;Node7 -->
<g id="edge6" class="edge">
<title>Node1&#45;&gt;Node7</title>
<path fill="none" stroke="#63b8ff" d="M122.06,-247.1C135.36,-245.69 149.56,-244.17 163.15,-242.73"/>
<polygon fill="#63b8ff" stroke="#63b8ff" points="163.83,-246.17 173.4,-241.63 163.09,-239.21 163.83,-246.17"/>
</g>
<!-- Node8 -->
<g id="node8" class="node">
<title>Node8</title>
<g id="a_node8"><a xlink:href="lexer__utils_8c.html#a2ba6f7e43ecbf713c666ab062eac534c" target="_top" xlink:title=" ">
<polygon fill="white" stroke="#666666" points="306,-282 158,-282 158,-263 306,-263 306,-282"/>
<text text-anchor="middle" x="232" y="-270" font-family="Helvetica,sans-Serif" font-size="10.00">lexer_append_current_char</text>
</a>
</g>
</g>
<!-- Node1&#45;&gt;Node8 -->
<g id="edge8" class="edge">
<title>Node1&#45;&gt;Node8</title>
<path fill="none" stroke="#63b8ff" d="M122.06,-260.25C130.38,-261.19 139.04,-262.16 147.69,-263.13"/>
<polygon fill="#63b8ff" stroke="#63b8ff" points="147.49,-266.63 157.81,-264.27 148.27,-259.68 147.49,-266.63"/>
</g>
<!-- Node9 -->
<g id="node9" class="node">
<title>Node9</title>
<g id="a_node9"><a xlink:href="lexer__expand__tilde_8c.html#ae3c478a10a2764ee7c7f94b42f28ecaf" target="_top" xlink:title=" ">
<polygon fill="white" stroke="#666666" points="462,-369 353,-369 353,-350 462,-350 462,-369"/>
<text text-anchor="middle" x="407.5" y="-357" font-family="Helvetica,sans-Serif" font-size="10.00">lexer_expand_tilde</text>
</a>
</g>
</g>
<!-- Node1&#45;&gt;Node9 -->
<g id="edge10" class="edge">
<title>Node1&#45;&gt;Node9</title>
<path fill="none" stroke="#63b8ff" d="M83.84,-263.01C103.12,-271.2 132.11,-283 158,-291.5 222.63,-312.72 240.43,-312.4 306,-330.5 325.2,-335.8 346.4,-341.88 364.36,-347.1"/>
<polygon fill="#63b8ff" stroke="#63b8ff" points="363.39,-350.47 373.97,-349.9 365.35,-343.75 363.39,-350.47"/>
</g>
<!-- Node14 -->
<g id="node14" class="node">
<title>Node14</title>
<g id="a_node14"><a xlink:href="lexer__expand__variable_8c.html#a01ad90eb8460a612626bb33c9e15cd52" target="_top" xlink:title=" ">
<polygon fill="white" stroke="#666666" points="295.5,-132 168.5,-132 168.5,-113 295.5,-113 295.5,-132"/>
<text text-anchor="middle" x="232" y="-120" font-family="Helvetica,sans-Serif" font-size="10.00">lexer_expand_variable</text>
</a>
</g>
</g>
<!-- Node1&#45;&gt;Node14 -->
<g id="edge16" class="edge">
<title>Node1&#45;&gt;Node14</title>
<path fill="none" stroke="#63b8ff" d="M74.1,-243.99C92.27,-229.72 127.73,-201.93 158,-178.5 175.47,-164.98 195.37,-149.72 209.97,-138.55"/>
<polygon fill="#63b8ff" stroke="#63b8ff" points="212.49,-141.03 218.31,-132.18 208.24,-135.47 212.49,-141.03"/>
</g>
<!-- Node4 -->
<g id="node4" class="node">
<title>Node4</title>
<g id="a_node4"><a xlink:href="lexer__utils_8c.html#abf1c1b3b6033c8f9c8d1b11cc9e14f75" target="_top" xlink:title=" ">
<polygon fill="white" stroke="#666666" points="621.5,-188 521.5,-188 521.5,-169 621.5,-169 621.5,-188"/>
<text text-anchor="middle" x="571.5" y="-176" font-family="Helvetica,sans-Serif" font-size="10.00">lexer_append_str</text>
</a>
</g>
</g>
<!-- Node3&#45;&gt;Node4 -->
<g id="edge3" class="edge">
<title>Node3&#45;&gt;Node4</title>
<path fill="none" stroke="#63b8ff" d="M302.52,-193.59C364.05,-190.12 452.87,-185.12 511.13,-181.84"/>
<polygon fill="#63b8ff" stroke="#63b8ff" points="511.5,-185.33 521.28,-181.27 511.1,-178.34 511.5,-185.33"/>
</g>
<!-- Node5 -->
<g id="node5" class="node">
<title>Node5</title>
<g id="a_node5"><a xlink:href="strings_8h.html#a5e1589f073ac32d227dbc6020c376dab" target="_top" xlink:title=" ">
<polygon fill="white" stroke="#666666" points="788,-188 687,-188 687,-169 788,-169 788,-188"/>
<text text-anchor="middle" x="737.5" y="-176" font-family="Helvetica,sans-Serif" font-size="10.00">append_to_buffer</text>
</a>
</g>
</g>
<!-- Node4&#45;&gt;Node5 -->
<g id="edge4" class="edge">
<title>Node4&#45;&gt;Node5</title>
<path fill="none" stroke="#63b8ff" d="M621.71,-178.5C638.98,-178.5 658.58,-178.5 676.63,-178.5"/>
<polygon fill="#63b8ff" stroke="#63b8ff" points="676.76,-182 686.76,-178.5 676.76,-175 676.76,-182"/>
</g>
<!-- Node6 -->
<g id="node6" class="node">
<title>Node6</title>
<g id="a_node6"><a xlink:href="lexer__utils_8c.html#a84e8d5514cfe03a20152ad26f170211f" target="_top" xlink:title=" ">
<polygon fill="white" stroke="#666666" points="796.5,-95 678.5,-95 678.5,-76 796.5,-76 796.5,-95"/>
<text text-anchor="middle" x="737.5" y="-83" font-family="Helvetica,sans-Serif" font-size="10.00">lexer_set_alloc_error</text>
</a>
</g>
</g>
<!-- Node4&#45;&gt;Node6 -->
<g id="edge5" class="edge">
<title>Node4&#45;&gt;Node6</title>
<path fill="none" stroke="#63b8ff" d="M589.43,-168.9C618.16,-152.61 676.62,-119.46 710.54,-100.22"/>
<polygon fill="#63b8ff" stroke="#63b8ff" points="712.44,-103.17 719.41,-95.19 708.99,-97.08 712.44,-103.17"/>
</g>
<!-- Node7&#45;&gt;Node4 -->
<g id="edge7" class="edge">
<title>Node7&#45;&gt;Node4</title>
<path fill="none" stroke="#63b8ff" d="M290.98,-229.25C339.77,-223.58 411.24,-214.31 473,-202.5 490.3,-199.19 509.13,-194.76 525.59,-190.6"/>
<polygon fill="#63b8ff" stroke="#63b8ff" points="526.68,-193.93 535.49,-188.06 524.94,-187.15 526.68,-193.93"/>
</g>
<!-- Node8&#45;&gt;Node4 -->
<g id="edge9" class="edge">
<title>Node8&#45;&gt;Node4</title>
<path fill="none" stroke="#63b8ff" d="M306.02,-264.22C354.29,-257.44 418.47,-245.9 473,-227.5 499.07,-218.7 526.94,-204.11 546.18,-193.14"/>
<polygon fill="#63b8ff" stroke="#63b8ff" points="547.99,-196.13 554.88,-188.08 544.48,-190.08 547.99,-196.13"/>
</g>
<!-- Node9&#45;&gt;Node4 -->
<g id="edge13" class="edge">
<title>Node9&#45;&gt;Node4</title>
<path fill="none" stroke="#63b8ff" d="M456.28,-349.88C462.26,-347.43 468.01,-344.35 473,-340.5 498.52,-320.79 542.28,-235.94 561.27,-197.52"/>
<polygon fill="#63b8ff" stroke="#63b8ff" points="564.47,-198.94 565.73,-188.42 558.19,-195.85 564.47,-198.94"/>
</g>
<!-- Node10 -->
<g id="node10" class="node">
<title>Node10</title>
<g id="a_node10"><a xlink:href="get__variable__value_8c.html#a2edd9900f19af236aa05385a789be3d6" target="_top" xlink:title=" ">
<polygon fill="white" stroke="#666666" points="626.5,-329 516.5,-329 516.5,-310 626.5,-310 626.5,-329"/>
<text text-anchor="middle" x="571.5" y="-317" font-family="Helvetica,sans-Serif" font-size="10.00">get_variable_value</text>
</a>
</g>
</g>
<!-- Node9&#45;&gt;Node10 -->
<g id="edge11" class="edge">
<title>Node9&#45;&gt;Node10</title>
<path fill="none" stroke="#63b8ff" d="M447.3,-349.92C469.75,-344.38 498.18,-337.36 522.08,-331.46"/>
<polygon fill="#63b8ff" stroke="#63b8ff" points="523.14,-334.8 532.01,-329 521.47,-328 523.14,-334.8"/>
</g>
<!-- Node12 -->
<g id="node12" class="node">
<title>Node12</title>
<g id="a_node12"><a xlink:href="lexer__expand__tilde_8c.html#aa4231a41b1e79447d6a70db7b075f937" target="_top" xlink:title=" ">
<polygon fill="white" stroke="#666666" points="630,-369 513,-369 513,-350 630,-350 630,-369"/>
<text text-anchor="middle" x="571.5" y="-357" font-family="Helvetica,sans-Serif" font-size="10.00">should_expand_tilde</text>
</a>
</g>
</g>
<!-- Node9&#45;&gt;Node12 -->
<g id="edge14" class="edge">
<title>Node9&#45;&gt;Node12</title>
<path fill="none" stroke="#63b8ff" d="M462.44,-359.5C475.35,-359.5 489.3,-359.5 502.74,-359.5"/>
<polygon fill="#63b8ff" stroke="#63b8ff" points="502.9,-363 512.9,-359.5 502.9,-356 502.9,-363"/>
</g>
<!-- Node11 -->
<g id="node11" class="node">
<title>Node11</title>
<g id="a_node11"><a xlink:href="get__variable_8c.html#a569170390f0edf013bf89c26ef55ea8c" target="_top" xlink:title=" ">
<polygon fill="white" stroke="#666666" points="776,-329 699,-329 699,-310 776,-310 776,-329"/>
<text text-anchor="middle" x="737.5" y="-317" font-family="Helvetica,sans-Serif" font-size="10.00">get_variable</text>
</a>
</g>
</g>
<!-- Node10&#45;&gt;Node11 -->
<g id="edge12" class="edge">
<title>Node10&#45;&gt;Node11</title>
<path fill="none" stroke="#63b8ff" d="M626.65,-319.5C646.74,-319.5 669.36,-319.5 688.83,-319.5"/>
<polygon fill="#63b8ff" stroke="#63b8ff" points="688.99,-323 698.99,-319.5 688.99,-316 688.99,-323"/>
</g>
<!-- Node13 -->
<g id="node13" class="node">
<title>Node13</title>
<g id="a_node13"><a xlink:href="lexer__is__word__separator_8c.html#abccfc6fc0cdbd040fc9a7dcbfd207090" target="_top" xlink:title=" ">
<polygon fill="white" stroke="#666666" points="805,-369 670,-369 670,-350 805,-350 805,-369"/>
<text text-anchor="middle" x="737.5" y="-357" font-family="Helvetica,sans-Serif" font-size="10.00">lexer_is_word_separator</text>
</a>
</g>
</g>
<!-- Node12&#45;&gt;Node13 -->
<g id="edge15" class="edge">
<title>Node12&#45;&gt;Node13</title>
<path fill="none" stroke="#63b8ff" d="M630.32,-359.5C639.83,-359.5 649.82,-359.5 659.71,-359.5"/>
<polygon fill="#63b8ff" stroke="#63b8ff" points="659.96,-363 669.96,-359.5 659.96,-356 659.96,-363"/>
</g>
<!-- Node14&#45;&gt;Node6 -->
<g id="edge29" class="edge">
<title>Node14&#45;&gt;Node6</title>
<path fill="none" stroke="#63b8ff" d="M246.61,-112.78C266.44,-99.26 304.98,-75.45 342,-66.5 462.39,-37.38 609.3,-58.82 685.37,-73.96"/>
<polygon fill="#63b8ff" stroke="#63b8ff" points="684.68,-77.39 695.17,-75.96 686.07,-70.53 684.68,-77.39"/>
</g>
<!-- Node15 -->
<g id="node15" class="node">
<title>Node15</title>
<g id="a_node15"><a xlink:href="lexer__expand__variable_8c.html#abe77b7e35b276965b72648d12abae283" target="_top" xlink:title=" ">
<polygon fill="white" stroke="#666666" points="450.5,-132 364.5,-132 364.5,-113 450.5,-113 450.5,-132"/>
<text text-anchor="middle" x="407.5" y="-120" font-family="Helvetica,sans-Serif" font-size="10.00">append_dollar</text>
</a>
</g>
</g>
<!-- Node14&#45;&gt;Node15 -->
<g id="edge17" class="edge">
<title>Node14&#45;&gt;Node15</title>
<path fill="none" stroke="#63b8ff" d="M295.64,-122.5C314.79,-122.5 335.66,-122.5 354.06,-122.5"/>
<polygon fill="#63b8ff" stroke="#63b8ff" points="354.29,-126 364.29,-122.5 354.29,-119 354.29,-126"/>
</g>
<!-- Node16 -->
<g id="node16" class="node">
<title>Node16</title>
<g id="a_node16"><a xlink:href="lexer__expand__variable_8c.html#ab47d31838e3255a1321d85e937919d4e" target="_top" xlink:title=" ">
<polygon fill="white" stroke="#666666" points="463,-95 352,-95 352,-76 463,-76 463,-95"/>
<text text-anchor="middle" x="407.5" y="-83" font-family="Helvetica,sans-Serif" font-size="10.00">append_last_status</text>
</a>
</g>
</g>
<!-- Node14&#45;&gt;Node16 -->
<g id="edge19" class="edge">
<title>Node14&#45;&gt;Node16</title>
<path fill="none" stroke="#63b8ff" d="M277.68,-112.97C300.26,-108.16 327.85,-102.27 351.7,-97.19"/>
<polygon fill="#63b8ff" stroke="#63b8ff" points="352.62,-100.57 361.67,-95.06 351.16,-93.72 352.62,-100.57"/>
</g>
<!-- Node17 -->
<g id="node17" class="node">
<title>Node17</title>
<g id="a_node17"><a xlink:href="lexer__expand__variable_8c.html#a9954e7e26e9570a3c41eed4e16bf6791" target="_top" xlink:title=" ">
<polygon fill="white" stroke="#666666" points="472.5,-169 342.5,-169 342.5,-150 472.5,-150 472.5,-169"/>
<text text-anchor="middle" x="407.5" y="-157" font-family="Helvetica,sans-Serif" font-size="10.00">append_variable_value</text>
</a>
</g>
</g>
<!-- Node14&#45;&gt;Node17 -->
<g id="edge22" class="edge">
<title>Node14&#45;&gt;Node17</title>
<path fill="none" stroke="#63b8ff" d="M277.68,-132.03C300.26,-136.84 327.85,-142.73 351.7,-147.81"/>
<polygon fill="#63b8ff" stroke="#63b8ff" points="351.16,-151.28 361.67,-149.94 352.62,-144.43 351.16,-151.28"/>
</g>
<!-- Node18 -->
<g id="node18" class="node">
<title>Node18</title>
<g id="a_node18"><a xlink:href="lexer__expand__variable_8c.html#a1d07a8c171e69a5c58a385a75520e6c0" target="_top" xlink:title=" ">
<polygon fill="white" stroke="#666666" points="465.5,-331.5 349.5,-331.5 349.5,-301.5 465.5,-301.5 465.5,-331.5"/>
<text text-anchor="start" x="357.5" y="-319.5" font-family="Helvetica,sans-Serif" font-size="10.00">get_correct_variable</text>
<text text-anchor="middle" x="407.5" y="-308.5" font-family="Helvetica,sans-Serif" font-size="10.00">_value</text>
</a>
</g>
</g>
<!-- Node14&#45;&gt;Node18 -->
<g id="edge24" class="edge">
<title>Node14&#45;&gt;Node18</title>
<path fill="none" stroke="#63b8ff" d="M247.99,-132.11C263.5,-142.47 287.93,-159.98 306,-178.5 341.29,-214.68 374.16,-263.9 392.18,-292.73"/>
<polygon fill="#63b8ff" stroke="#63b8ff" points="389.26,-294.66 397.49,-301.33 395.21,-290.98 389.26,-294.66"/>
</g>
<!-- Node19 -->
<g id="node19" class="node">
<title>Node19</title>
<g id="a_node19"><a xlink:href="lexer__expand__variable_8c.html#a3674c7faac945bf9ec05a9dc00c08896" target="_top" xlink:title=" ">
<polygon fill="white" stroke="#666666" points="473,-19 342,-19 342,0 473,0 473,-19"/>
<text text-anchor="middle" x="407.5" y="-7" font-family="Helvetica,sans-Serif" font-size="10.00">get_variable_name_len</text>
</a>
</g>
</g>
<!-- Node14&#45;&gt;Node19 -->
<g id="edge26" class="edge">
<title>Node14&#45;&gt;Node19</title>
<path fill="none" stroke="#63b8ff" d="M242.4,-112.97C260.34,-95.23 301.3,-56.83 342,-33.5 349.15,-29.4 357.13,-25.77 364.97,-22.65"/>
<polygon fill="#63b8ff" stroke="#63b8ff" points="366.27,-25.9 374.4,-19.1 363.81,-19.35 366.27,-25.9"/>
</g>
<!-- Node15&#45;&gt;Node4 -->
<g id="edge18" class="edge">
<title>Node15&#45;&gt;Node4</title>
<path fill="none" stroke="#63b8ff" d="M445.19,-132.06C454.33,-134.62 464.07,-137.52 473,-140.5 495.16,-147.89 519.66,-157.44 538.55,-165.12"/>
<polygon fill="#63b8ff" stroke="#63b8ff" points="537.3,-168.39 547.88,-168.95 539.96,-161.91 537.3,-168.39"/>
</g>
<!-- Node16&#45;&gt;Node4 -->
<g id="edge20" class="edge">
<title>Node16&#45;&gt;Node4</title>
<path fill="none" stroke="#63b8ff" d="M451.69,-95.07C458.99,-97.38 466.35,-100.17 473,-103.5 504.11,-119.07 535.11,-145.19 553.54,-162.13"/>
<polygon fill="#63b8ff" stroke="#63b8ff" points="551.16,-164.7 560.85,-168.99 555.95,-159.59 551.16,-164.7"/>
</g>
<!-- Node16&#45;&gt;Node6 -->
<g id="edge21" class="edge">
<title>Node16&#45;&gt;Node6</title>
<path fill="none" stroke="#63b8ff" d="M463.03,-85.5C519.25,-85.5 607.07,-85.5 667.96,-85.5"/>
<polygon fill="#63b8ff" stroke="#63b8ff" points="668.24,-89 678.24,-85.5 668.24,-82 668.24,-89"/>
</g>
<!-- Node17&#45;&gt;Node4 -->
<g id="edge23" class="edge">
<title>Node17&#45;&gt;Node4</title>
<path fill="none" stroke="#63b8ff" d="M472.53,-167.01C485.37,-168.52 498.8,-170.09 511.47,-171.58"/>
<polygon fill="#63b8ff" stroke="#63b8ff" points="511.09,-175.06 521.43,-172.74 511.9,-168.1 511.09,-175.06"/>
</g>
<!-- Node18&#45;&gt;Node10 -->
<g id="edge25" class="edge">
<title>Node18&#45;&gt;Node10</title>
<path fill="none" stroke="#63b8ff" d="M465.62,-317.56C478.75,-317.8 492.81,-318.06 506.23,-318.31"/>
<polygon fill="#63b8ff" stroke="#63b8ff" points="506.28,-321.81 516.34,-318.5 506.41,-314.81 506.28,-321.81"/>
</g>
<!-- Node20 -->
<g id="node20" class="node">
<title>Node20</title>
<g id="a_node20"><a xlink:href="lexer__expand__variable_8c.html#a5067193ac632b7565fd8b9ad405a525f" target="_top" xlink:title=" ">
<polygon fill="white" stroke="#666666" points="634,-19 509,-19 509,0 634,0 634,-19"/>
<text text-anchor="middle" x="571.5" y="-7" font-family="Helvetica,sans-Serif" font-size="10.00">is_valid_variable_char</text>
</a>
</g>
</g>
<!-- Node19&#45;&gt;Node20 -->
<g id="edge27" class="edge">
<title>Node19&#45;&gt;Node20</title>
<path fill="none" stroke="#63b8ff" d="M473.46,-9.5C481.78,-9.5 490.34,-9.5 498.76,-9.5"/>
<polygon fill="#63b8ff" stroke="#63b8ff" points="498.95,-13 508.95,-9.5 498.95,-6 498.95,-13"/>
</g>
<!-- Node21 -->
<g id="node21" class="node">
<title>Node21</title>
<g id="a_node21"><a xlink:href="strings_8h.html#adfd4fc057d3b7ad39c6867928cc44175" target="_top" xlink:title=" ">
<polygon fill="white" stroke="#666666" points="779,-19 696,-19 696,0 779,0 779,-19"/>
<text text-anchor="middle" x="737.5" y="-7" font-family="Helvetica,sans-Serif" font-size="10.00">my_isnumber</text>
</a>
</g>
</g>
<!-- Node20&#45;&gt;Node21 -->
<g id="edge28" class="edge">
<title>Node20&#45;&gt;Node21</title>
<path fill="none" stroke="#63b8ff" d="M634.03,-9.5C650.88,-9.5 668.97,-9.5 685.18,-9.5"/>
<polygon fill="#63b8ff" stroke="#63b8ff" points="685.53,-13 695.53,-9.5 685.53,-6 685.53,-13"/>
</g>
</g>
</svg>
