<?xml version="1.0" encoding="UTF-8" standalone="no"?>
<!DOCTYPE svg PUBLIC "-//W3C//DTD SVG 1.1//EN"
 "http://www.w3.org/Graphics/SVG/1.1/DTD/svg11.dtd">
<!-- Generated by graphviz version 2.43.0 (0)
 -->
<!-- Title: append_command_output Pages: 1 -->
<svg width="1555pt" height="884pt"
 viewBox="0.00 0.00 1555.00 883.50" xmlns="http://www.w3.org/2000/svg" xmlns:xlink="http://www.w3.org/1999/xlink">
<g id="graph0" class="graph" transform="scale(1 1) rotate(0) translate(4 879.5)">
<title>append_command_output</title>
<!-- Node1 -->
<g id="node1" class="node">
<title>Node1</title>
<g id="a_node1"><a xlink:title=" ">
<polygon fill="#999999" stroke="#666666" points="143,-57 0,-57 0,-38 143,-38 143,-57"/>
<text text-anchor="middle" x="71.5" y="-45" font-family="Helvetica,sans-Serif" font-size="10.00">append_command_output</text>
</a>
</g>
</g>
<!-- Node2 -->
<g id="node2" class="node">
<title>Node2</title>
<g id="a_node2"><a xlink:href="execute__command__substitution_8c.html#a44d633c45c6a1c7a82b2fc4f1f3a1b85" target="_top" xlink:title=" ">
<polygon fill="white" stroke="#666666" points="351,-169 179,-169 179,-150 351,-150 351,-169"/>
<text text-anchor="middle" x="265" y="-157" font-family="Helvetica,sans-Serif" font-size="10.00">execute_command_substitution</text>
</a>
</g>
</g>
<!-- Node1&#45;&gt;Node2 -->
<g id="edge1" class="edge">
<title>Node1&#45;&gt;Node2</title>
<path fill="none" stroke="#63b8ff" d="M88.83,-57.05C122.32,-76.64 199,-121.48 238.87,-144.81"/>
<polygon fill="#63b8ff" stroke="#63b8ff" points="237.32,-147.95 247.71,-149.98 240.85,-141.91 237.32,-147.95"/>
</g>
<!-- Node92 -->
<g id="node49" class="node">
<title>Node92</title>
<g id="a_node49"><a xlink:href="lexer__utils_8c.html#abf1c1b3b6033c8f9c8d1b11cc9e14f75" target="_top" xlink:title=" ">
<polygon fill="white" stroke="#666666" points="315,-57 215,-57 215,-38 315,-38 315,-57"/>
<text text-anchor="middle" x="265" y="-45" font-family="Helvetica,sans-Serif" font-size="10.00">lexer_append_str</text>
</a>
</g>
</g>
<!-- Node1&#45;&gt;Node92 -->
<g id="edge66" class="edge">
<title>Node1&#45;&gt;Node92</title>
<path fill="none" stroke="#63b8ff" d="M143.26,-47.5C163.4,-47.5 185.13,-47.5 204.52,-47.5"/>
<polygon fill="#63b8ff" stroke="#63b8ff" points="204.73,-51 214.73,-47.5 204.73,-44 204.73,-51"/>
</g>
<!-- Node93 -->
<g id="node50" class="node">
<title>Node93</title>
<g id="a_node50"><a xlink:href="lexer__utils_8c.html#a84e8d5514cfe03a20152ad26f170211f" target="_top" xlink:title=" ">
<polygon fill="white" stroke="#666666" points="520.5,-19 402.5,-19 402.5,0 520.5,0 520.5,-19"/>
<text text-anchor="middle" x="461.5" y="-7" font-family="Helvetica,sans-Serif" font-size="10.00">lexer_set_alloc_error</text>
</a>
</g>
</g>
<!-- Node1&#45;&gt;Node93 -->
<g id="edge69" class="edge">
<title>Node1&#45;&gt;Node93</title>
<path fill="none" stroke="#63b8ff" d="M119.52,-37.97C137.99,-34.53 159.43,-30.9 179,-28.5 251.58,-19.6 335.24,-14.62 392.37,-12.01"/>
<polygon fill="#63b8ff" stroke="#63b8ff" points="392.53,-15.51 402.37,-11.57 392.22,-8.52 392.53,-15.51"/>
</g>
<!-- Node3 -->
<g id="node3" class="node">
<title>Node3</title>
<g id="a_node3"><a xlink:href="execute__command__substitution_8c.html#a075d95090572b6eefee6062c788e021f" target="_top" xlink:title=" ">
<polygon fill="white" stroke="#666666" points="513,-206 410,-206 410,-187 513,-187 513,-206"/>
<text text-anchor="middle" x="461.5" y="-194" font-family="Helvetica,sans-Serif" font-size="10.00">handle_fork_error</text>
</a>
</g>
</g>
<!-- Node2&#45;&gt;Node3 -->
<g id="edge2" class="edge">
<title>Node2&#45;&gt;Node3</title>
<path fill="none" stroke="#63b8ff" d="M316.09,-169.03C341.74,-173.91 373.16,-179.89 400.14,-185.02"/>
<polygon fill="#63b8ff" stroke="#63b8ff" points="399.77,-188.51 410.24,-186.94 401.07,-181.63 399.77,-188.51"/>
</g>
<!-- Node4 -->
<g id="node4" class="node">
<title>Node4</title>
<g id="a_node4"><a xlink:href="execute__command__substitution_8c.html#af0e085937d4d6fbc3feb274895606e50" target="_top" xlink:title=" ">
<polygon fill="white" stroke="#666666" points="513.5,-169 409.5,-169 409.5,-150 513.5,-150 513.5,-169"/>
<text text-anchor="middle" x="461.5" y="-157" font-family="Helvetica,sans-Serif" font-size="10.00">handle_pipe_error</text>
</a>
</g>
</g>
<!-- Node2&#45;&gt;Node4 -->
<g id="edge3" class="edge">
<title>Node2&#45;&gt;Node4</title>
<path fill="none" stroke="#63b8ff" d="M351.03,-159.5C367.22,-159.5 383.88,-159.5 399.16,-159.5"/>
<polygon fill="#63b8ff" stroke="#63b8ff" points="399.49,-163 409.49,-159.5 399.49,-156 399.49,-163"/>
</g>
<!-- Node5 -->
<g id="node5" class="node">
<title>Node5</title>
<g id="a_node5"><a xlink:href="execute__command__substitution_8c.html#aebaa8b3d8f96bd07e2efb13393b1fa13" target="_top" xlink:title=" ">
<polygon fill="white" stroke="#666666" points="512,-132 411,-132 411,-113 512,-113 512,-132"/>
<text text-anchor="middle" x="461.5" y="-120" font-family="Helvetica,sans-Serif" font-size="10.00">read_pipe_output</text>
</a>
</g>
</g>
<!-- Node2&#45;&gt;Node5 -->
<g id="edge4" class="edge">
<title>Node2&#45;&gt;Node5</title>
<path fill="none" stroke="#63b8ff" d="M316.09,-149.97C341.94,-145.05 373.65,-139.02 400.77,-133.86"/>
<polygon fill="#63b8ff" stroke="#63b8ff" points="401.75,-137.24 410.92,-131.93 400.44,-130.36 401.75,-137.24"/>
</g>
<!-- Node7 -->
<g id="node7" class="node">
<title>Node7</title>
<g id="a_node7"><a xlink:href="execute__command__substitution_8c.html#a49d3b6ea9dfddcfae1e4193b46064722" target="_top" xlink:title=" ">
<polygon fill="white" stroke="#666666" points="524.5,-95 398.5,-95 398.5,-76 524.5,-76 524.5,-95"/>
<text text-anchor="middle" x="461.5" y="-83" font-family="Helvetica,sans-Serif" font-size="10.00">remove_end_newlines</text>
</a>
</g>
</g>
<!-- Node2&#45;&gt;Node7 -->
<g id="edge6" class="edge">
<title>Node2&#45;&gt;Node7</title>
<path fill="none" stroke="#63b8ff" d="M283.99,-149.83C307.23,-137.66 349.2,-116.73 387,-103.5 392.94,-101.42 399.23,-99.49 405.53,-97.72"/>
<polygon fill="#63b8ff" stroke="#63b8ff" points="406.64,-101.05 415.4,-95.09 404.83,-94.29 406.64,-101.05"/>
</g>
<!-- Node8 -->
<g id="node8" class="node">
<title>Node8</title>
<g id="a_node8"><a xlink:href="execute__command__substitution_8c.html#a230d3e2be0c3d7360a8cf2a810878cf2" target="_top" xlink:title=" ">
<polygon fill="white" stroke="#666666" points="536,-508 387,-508 387,-489 536,-489 536,-508"/>
<text text-anchor="middle" x="461.5" y="-496" font-family="Helvetica,sans-Serif" font-size="10.00">run_command_substitution</text>
</a>
</g>
</g>
<!-- Node2&#45;&gt;Node8 -->
<g id="edge7" class="edge">
<title>Node2&#45;&gt;Node8</title>
<path fill="none" stroke="#63b8ff" d="M271.61,-169.28C298.45,-216.06 413.93,-417.33 449.82,-479.88"/>
<polygon fill="#63b8ff" stroke="#63b8ff" points="446.85,-481.75 454.87,-488.68 452.93,-478.26 446.85,-481.75"/>
</g>
<!-- Node20 -->
<g id="node27" class="node">
<title>Node20</title>
<g id="a_node27"><a xlink:href="wait__for__subprocess_8c.html#a1242d78540fd0ddef3d98a9f294cb0d4" target="_top" xlink:title=" ">
<polygon fill="white" stroke="#666666" points="1106,-282 990,-282 990,-263 1106,-263 1106,-282"/>
<text text-anchor="middle" x="1048" y="-270" font-family="Helvetica,sans-Serif" font-size="10.00">wait_for_subprocess</text>
</a>
</g>
</g>
<!-- Node2&#45;&gt;Node20 -->
<g id="edge65" class="edge">
<title>Node2&#45;&gt;Node20</title>
<path fill="none" stroke="#63b8ff" d="M282.17,-169.03C304.77,-181.83 347.49,-204.16 387,-214.5 488.2,-240.97 516.9,-234.5 621.5,-234.5 621.5,-234.5 621.5,-234.5 755.5,-234.5 843.24,-234.5 865.2,-240.66 952,-253.5 965.66,-255.52 980.32,-258.2 993.94,-260.9"/>
<polygon fill="#63b8ff" stroke="#63b8ff" points="993.63,-264.41 1004.13,-262.97 995.02,-257.55 993.63,-264.41"/>
</g>
<!-- Node6 -->
<g id="node6" class="node">
<title>Node6</title>
<g id="a_node6"><a xlink:href="strings_8h.html#a5e1589f073ac32d227dbc6020c376dab" target="_top" xlink:title=" ">
<polygon fill="white" stroke="#666666" points="673,-95 572,-95 572,-76 673,-76 673,-95"/>
<text text-anchor="middle" x="622.5" y="-83" font-family="Helvetica,sans-Serif" font-size="10.00">append_to_buffer</text>
</a>
</g>
</g>
<!-- Node5&#45;&gt;Node6 -->
<g id="edge5" class="edge">
<title>Node5&#45;&gt;Node6</title>
<path fill="none" stroke="#63b8ff" d="M503.45,-112.97C523.86,-108.22 548.75,-102.43 570.4,-97.39"/>
<polygon fill="#63b8ff" stroke="#63b8ff" points="571.47,-100.74 580.42,-95.06 569.88,-93.92 571.47,-100.74"/>
</g>
<!-- Node9 -->
<g id="node9" class="node">
<title>Node9</title>
<g id="a_node9"><a xlink:href="shell_8c.html#afb5215a1775326d8976fd015f7832392" target="_top" xlink:title=" ">
<polygon fill="white" stroke="#666666" points="662.5,-715 582.5,-715 582.5,-696 662.5,-696 662.5,-715"/>
<text text-anchor="middle" x="622.5" y="-703" font-family="Helvetica,sans-Serif" font-size="10.00">handle_input</text>
</a>
</g>
</g>
<!-- Node8&#45;&gt;Node9 -->
<g id="edge8" class="edge">
<title>Node8&#45;&gt;Node9</title>
<path fill="none" stroke="#63b8ff" d="M469.96,-508.21C494.83,-540.59 575.24,-645.28 607.71,-687.55"/>
<polygon fill="#63b8ff" stroke="#63b8ff" points="605.01,-689.78 613.88,-695.57 610.56,-685.51 605.01,-689.78"/>
</g>
<!-- Node10 -->
<g id="node10" class="node">
<title>Node10</title>
<g id="a_node10"><a xlink:href="ast__destroy_8c.html#a04c67d7ab492f6e1e7bc44dc70faa057" target="_top" xlink:title=" ">
<polygon fill="white" stroke="#666666" points="1385.5,-847 1311.5,-847 1311.5,-828 1385.5,-828 1385.5,-847"/>
<text text-anchor="middle" x="1348.5" y="-835" font-family="Helvetica,sans-Serif" font-size="10.00">ast_destroy</text>
</a>
</g>
</g>
<!-- Node9&#45;&gt;Node10 -->
<g id="edge9" class="edge">
<title>Node9&#45;&gt;Node10</title>
<path fill="none" stroke="#63b8ff" d="M628.2,-715.3C639.19,-737.17 668.72,-790.24 709,-818.5 779.09,-867.67 807.39,-875.5 893,-875.5 893,-875.5 893,-875.5 1049,-875.5 1138.94,-875.5 1242.91,-858.31 1301.37,-847.06"/>
<polygon fill="#63b8ff" stroke="#63b8ff" points="1302.25,-850.45 1311.39,-845.1 1300.9,-843.58 1302.25,-850.45"/>
</g>
<!-- Node12 -->
<g id="node12" class="node">
<title>Node12</title>
<g id="a_node12"><a xlink:href="execute__ast_8c.html#ad26a20a665ab7fdeb714ed53c1afd104" target="_top" xlink:title=" ">
<polygon fill="white" stroke="#666666" points="792,-470 717,-470 717,-451 792,-451 792,-470"/>
<text text-anchor="middle" x="754.5" y="-458" font-family="Helvetica,sans-Serif" font-size="10.00">execute_ast</text>
</a>
</g>
</g>
<!-- Node9&#45;&gt;Node12 -->
<g id="edge12" class="edge">
<title>Node9&#45;&gt;Node12</title>
<path fill="none" stroke="#63b8ff" d="M628.6,-695.9C648.05,-659.23 717.85,-527.68 743.74,-478.89"/>
<polygon fill="#63b8ff" stroke="#63b8ff" points="746.84,-480.51 748.44,-470.04 740.66,-477.23 746.84,-480.51"/>
</g>
<!-- Node46 -->
<g id="node36" class="node">
<title>Node46</title>
<g id="a_node36"><a xlink:href="shell_8c.html#a6e35892cfa82c5f227b10f37abc529e9" target="_top" xlink:title=" ">
<polygon fill="white" stroke="#666666" points="800,-810 709,-810 709,-791 800,-791 800,-810"/>
<text text-anchor="middle" x="754.5" y="-798" font-family="Helvetica,sans-Serif" font-size="10.00">handle_parsing</text>
</a>
</g>
</g>
<!-- Node9&#45;&gt;Node46 -->
<g id="edge48" class="edge">
<title>Node9&#45;&gt;Node46</title>
<path fill="none" stroke="#63b8ff" d="M633.76,-715.18C649.3,-729.56 680.06,-756.96 709,-776.5 713.82,-779.75 719.13,-782.93 724.34,-785.85"/>
<polygon fill="#63b8ff" stroke="#63b8ff" points="723.05,-789.13 733.51,-790.8 726.37,-782.97 723.05,-789.13"/>
</g>
<!-- Node129 -->
<g id="node42" class="node">
<title>Node129</title>
<g id="a_node42"><a xlink:href="shell_8c.html#a1ce512725ee0371f8bf608a3ece0c152" target="_top" xlink:title=" ">
<polygon fill="white" stroke="#666666" points="1108,-781 988,-781 988,-762 1108,-762 1108,-781"/>
<text text-anchor="middle" x="1048" y="-769" font-family="Helvetica,sans-Serif" font-size="10.00">show_error_message</text>
</a>
</g>
</g>
<!-- Node9&#45;&gt;Node129 -->
<g id="edge64" class="edge">
<title>Node9&#45;&gt;Node129</title>
<path fill="none" stroke="#63b8ff" d="M640.92,-715.03C657.8,-723.78 684.38,-736.29 709,-742.5 799.85,-765.41 908.31,-771.04 977.41,-772.03"/>
<polygon fill="#63b8ff" stroke="#63b8ff" points="977.7,-775.53 987.74,-772.14 977.78,-768.53 977.7,-775.53"/>
</g>
<!-- Node130 -->
<g id="node43" class="node">
<title>Node130</title>
<g id="a_node43"><a xlink:href="lexer__init_8c.html#aee55447f2c8b083ed2614fa4f439f9cc" target="_top" xlink:title=" ">
<polygon fill="white" stroke="#666666" points="785.5,-660 723.5,-660 723.5,-641 785.5,-641 785.5,-660"/>
<text text-anchor="middle" x="754.5" y="-648" font-family="Helvetica,sans-Serif" font-size="10.00">lexer_init</text>
</a>
</g>
</g>
<!-- Node9&#45;&gt;Node130 -->
<g id="edge57" class="edge">
<title>Node9&#45;&gt;Node130</title>
<path fill="none" stroke="#63b8ff" d="M645.23,-695.93C662.47,-688.37 687.22,-677.62 709,-668.5 712.51,-667.03 716.19,-665.51 719.86,-664.01"/>
<polygon fill="#63b8ff" stroke="#63b8ff" points="721.49,-667.12 729.44,-660.11 718.86,-660.64 721.49,-667.12"/>
</g>
<!-- Node131 -->
<g id="node44" class="node">
<title>Node131</title>
<g id="a_node44"><a xlink:href="parser__destroy_8c.html#ae2656460a6fc6b6cd65624312fe0c943" target="_top" xlink:title=" ">
<polygon fill="white" stroke="#666666" points="799,-697 710,-697 710,-678 799,-678 799,-697"/>
<text text-anchor="middle" x="754.5" y="-685" font-family="Helvetica,sans-Serif" font-size="10.00">parser_destroy</text>
</a>
</g>
</g>
<!-- Node9&#45;&gt;Node131 -->
<g id="edge58" class="edge">
<title>Node9&#45;&gt;Node131</title>
<path fill="none" stroke="#63b8ff" d="M662.5,-700.1C674.31,-698.47 687.48,-696.64 700.05,-694.9"/>
<polygon fill="#63b8ff" stroke="#63b8ff" points="700.55,-698.37 709.97,-693.53 699.59,-691.43 700.55,-698.37"/>
</g>
<!-- Node132 -->
<g id="node46" class="node">
<title>Node132</title>
<g id="a_node46"><a xlink:href="parser__init_8c.html#a7a5dc445fa057a393d0b94590acea2f1" target="_top" xlink:title=" ">
<polygon fill="white" stroke="#666666" points="788.5,-734 720.5,-734 720.5,-715 788.5,-715 788.5,-734"/>
<text text-anchor="middle" x="754.5" y="-722" font-family="Helvetica,sans-Serif" font-size="10.00">parser_init</text>
</a>
</g>
</g>
<!-- Node9&#45;&gt;Node132 -->
<g id="edge60" class="edge">
<title>Node9&#45;&gt;Node132</title>
<path fill="none" stroke="#63b8ff" d="M662.5,-711.2C677.45,-713.39 694.6,-715.89 709.95,-718.13"/>
<polygon fill="#63b8ff" stroke="#63b8ff" points="709.83,-721.66 720.24,-719.64 710.85,-714.73 709.83,-721.66"/>
</g>
<!-- Node10&#45;&gt;Node10 -->
<g id="edge10" class="edge">
<title>Node10&#45;&gt;Node10</title>
<path fill="none" stroke="#63b8ff" d="M1326.92,-847.08C1316.42,-855.73 1323.62,-865 1348.5,-865 1364.44,-865 1373.12,-861.2 1374.54,-856.19"/>
<polygon fill="#63b8ff" stroke="#63b8ff" points="1377.62,-854.52 1370.08,-847.08 1371.34,-857.6 1377.62,-854.52"/>
</g>
<!-- Node11 -->
<g id="node11" class="node">
<title>Node11</title>
<g id="a_node11"><a xlink:href="misc_8h.html#a1180cae2875b1fdcd58c9f9175a82c12" target="_top" xlink:title=" ">
<polygon fill="white" stroke="#666666" points="1547,-847 1430,-847 1430,-828 1547,-828 1547,-847"/>
<text text-anchor="middle" x="1488.5" y="-835" font-family="Helvetica,sans-Serif" font-size="10.00">my_free_word_array</text>
</a>
</g>
</g>
<!-- Node10&#45;&gt;Node11 -->
<g id="edge11" class="edge">
<title>Node10&#45;&gt;Node11</title>
<path fill="none" stroke="#63b8ff" d="M1385.76,-837.5C1396.2,-837.5 1407.94,-837.5 1419.63,-837.5"/>
<polygon fill="#63b8ff" stroke="#63b8ff" points="1419.87,-841 1429.87,-837.5 1419.87,-834 1419.87,-841"/>
</g>
<!-- Node13 -->
<g id="node13" class="node">
<title>Node13</title>
<g id="a_node13"><a xlink:href="execute__cmd_8c.html#a94ea9cc5a046ce96e36764bf0e4fa2c0" target="_top" xlink:title=" ">
<polygon fill="white" stroke="#666666" points="934.5,-582 853.5,-582 853.5,-563 934.5,-563 934.5,-582"/>
<text text-anchor="middle" x="894" y="-570" font-family="Helvetica,sans-Serif" font-size="10.00">execute_cmd</text>
</a>
</g>
</g>
<!-- Node12&#45;&gt;Node13 -->
<g id="edge13" class="edge">
<title>Node12&#45;&gt;Node13</title>
<path fill="none" stroke="#63b8ff" d="M761.32,-470.17C773.09,-488.94 801.57,-530.47 836,-553.5 838.95,-555.47 842.12,-557.26 845.41,-558.87"/>
<polygon fill="#63b8ff" stroke="#63b8ff" points="844.3,-562.2 854.87,-562.96 847.08,-555.78 844.3,-562.2"/>
</g>
<!-- Node28 -->
<g id="node20" class="node">
<title>Node28</title>
<g id="a_node20"><a xlink:href="execute__logical__and_8c.html#a4f940752faf9f9a258c49810b21efe47" target="_top" xlink:title=" ">
<polygon fill="white" stroke="#666666" points="952,-432 836,-432 836,-413 952,-413 952,-432"/>
<text text-anchor="middle" x="894" y="-420" font-family="Helvetica,sans-Serif" font-size="10.00">execute_logical_and</text>
</a>
</g>
</g>
<!-- Node12&#45;&gt;Node28 -->
<g id="edge21" class="edge">
<title>Node12&#45;&gt;Node28</title>
<path fill="none" stroke="#63b8ff" d="M773.19,-450.91C786.78,-445.75 806.47,-439.62 825.97,-434.28"/>
<polygon fill="#63b8ff" stroke="#63b8ff" points="827.05,-437.61 835.81,-431.64 825.24,-430.85 827.05,-437.61"/>
</g>
<!-- Node29 -->
<g id="node21" class="node">
<title>Node29</title>
<g id="a_node21"><a xlink:href="execute__logical__or_8c.html#a7e732d7c30b07010fa55850051007dcc" target="_top" xlink:title=" ">
<polygon fill="white" stroke="#666666" points="947.5,-395 840.5,-395 840.5,-376 947.5,-376 947.5,-395"/>
<text text-anchor="middle" x="894" y="-383" font-family="Helvetica,sans-Serif" font-size="10.00">execute_logical_or</text>
</a>
</g>
</g>
<!-- Node12&#45;&gt;Node29 -->
<g id="edge23" class="edge">
<title>Node12&#45;&gt;Node29</title>
<path fill="none" stroke="#63b8ff" d="M760.97,-450.99C772.37,-437.25 799.99,-414.16 831.34,-397.12"/>
<polygon fill="#63b8ff" stroke="#63b8ff" points="833.01,-400.19 840.27,-392.48 829.78,-393.98 833.01,-400.19"/>
</g>
<!-- Node30 -->
<g id="node22" class="node">
<title>Node30</title>
<g id="a_node22"><a xlink:href="execute__pipe_8c.html#a5f3546dc2c7cf06c982afba41e722164" target="_top" xlink:title=" ">
<polygon fill="white" stroke="#666666" points="934.5,-358 853.5,-358 853.5,-339 934.5,-339 934.5,-358"/>
<text text-anchor="middle" x="894" y="-346" font-family="Helvetica,sans-Serif" font-size="10.00">execute_pipe</text>
</a>
</g>
</g>
<!-- Node12&#45;&gt;Node30 -->
<g id="edge25" class="edge">
<title>Node12&#45;&gt;Node30</title>
<path fill="none" stroke="#63b8ff" d="M761.08,-450.97C772.64,-432.05 801.05,-389.61 836,-366.5 838.56,-364.81 841.28,-363.27 844.11,-361.87"/>
<polygon fill="#63b8ff" stroke="#63b8ff" points="845.58,-365.04 853.36,-357.84 842.79,-358.62 845.58,-365.04"/>
</g>
<!-- Node35 -->
<g id="node29" class="node">
<title>Node35</title>
<g id="a_node29"><a xlink:href="execute__redirect_8c.html#a1004307aba80117ddd99f009e52fb155" target="_top" xlink:title=" ">
<polygon fill="white" stroke="#666666" points="943,-658 845,-658 845,-639 943,-639 943,-658"/>
<text text-anchor="middle" x="894" y="-646" font-family="Helvetica,sans-Serif" font-size="10.00">execute_redirect</text>
</a>
</g>
</g>
<!-- Node12&#45;&gt;Node35 -->
<g id="edge36" class="edge">
<title>Node12&#45;&gt;Node35</title>
<path fill="none" stroke="#63b8ff" d="M757.67,-470.05C764.42,-497.71 787.56,-578.78 836,-624.5 840.1,-628.37 844.91,-631.66 849.98,-634.45"/>
<polygon fill="#63b8ff" stroke="#63b8ff" points="848.74,-637.74 859.27,-638.94 851.79,-631.44 848.74,-637.74"/>
</g>
<!-- Node43 -->
<g id="node33" class="node">
<title>Node43</title>
<g id="a_node33"><a xlink:href="execute__repeat_8c.html#a00d48683c54b50130b4a402e6e97fa97" target="_top" xlink:title=" ">
<polygon fill="white" stroke="#666666" points="940,-545 848,-545 848,-526 940,-526 940,-545"/>
<text text-anchor="middle" x="894" y="-533" font-family="Helvetica,sans-Serif" font-size="10.00">execute_repeat</text>
</a>
</g>
</g>
<!-- Node12&#45;&gt;Node43 -->
<g id="edge41" class="edge">
<title>Node12&#45;&gt;Node43</title>
<path fill="none" stroke="#63b8ff" d="M776.32,-470.01C791.98,-480.62 814.39,-496.66 836,-507.5 847.42,-513.23 860.97,-517.82 871.98,-522.05"/>
<polygon fill="#63b8ff" stroke="#63b8ff" points="870.68,-525.29 881.26,-525.84 873.33,-518.82 870.68,-525.29"/>
</g>
<!-- Node44 -->
<g id="node34" class="node">
<title>Node44</title>
<g id="a_node34"><a xlink:href="execute__sequence_8c.html#aad2caa5bf50b0752dd8272da477ec231" target="_top" xlink:title=" ">
<polygon fill="white" stroke="#666666" points="947.5,-508 840.5,-508 840.5,-489 947.5,-489 947.5,-508"/>
<text text-anchor="middle" x="894" y="-496" font-family="Helvetica,sans-Serif" font-size="10.00">execute_sequence</text>
</a>
</g>
</g>
<!-- Node12&#45;&gt;Node44 -->
<g id="edge43" class="edge">
<title>Node12&#45;&gt;Node44</title>
<path fill="none" stroke="#63b8ff" d="M792.35,-464.63C815.45,-469.93 844.74,-478.21 865.75,-485.46"/>
<polygon fill="#63b8ff" stroke="#63b8ff" points="864.75,-488.82 875.34,-488.92 867.13,-482.23 864.75,-488.82"/>
</g>
<!-- Node45 -->
<g id="node35" class="node">
<title>Node45</title>
<g id="a_node35"><a xlink:href="execute__subshell_8c.html#a40a27866de012b013a337f794a858d70" target="_top" xlink:title=" ">
<polygon fill="white" stroke="#666666" points="944.5,-282 843.5,-282 843.5,-263 944.5,-263 944.5,-282"/>
<text text-anchor="middle" x="894" y="-270" font-family="Helvetica,sans-Serif" font-size="10.00">execute_subshell</text>
</a>
</g>
</g>
<!-- Node12&#45;&gt;Node45 -->
<g id="edge45" class="edge">
<title>Node12&#45;&gt;Node45</title>
<path fill="none" stroke="#63b8ff" d="M756.89,-450.84C762.25,-422.57 783.54,-342.47 836.1,-288.69"/>
<polygon fill="#63b8ff" stroke="#63b8ff" points="838.65,-291.1 843.37,-281.62 833.76,-286.09 838.65,-291.1"/>
</g>
<!-- Node14 -->
<g id="node14" class="node">
<title>Node14</title>
<g id="a_node14"><a xlink:href="execute__cmd_8c.html#a0cfd2364134e68efdd39533e00b4b0d9" target="_top" xlink:title=" ">
<polygon fill="white" stroke="#666666" points="1265,-620 1146,-620 1146,-601 1265,-601 1265,-620"/>
<text text-anchor="middle" x="1205.5" y="-608" font-family="Helvetica,sans-Serif" font-size="10.00">execute_local_binary</text>
</a>
</g>
</g>
<!-- Node13&#45;&gt;Node14 -->
<g id="edge14" class="edge">
<title>Node13&#45;&gt;Node14</title>
<path fill="none" stroke="#63b8ff" d="M934.68,-581.08C951.12,-584.4 970.42,-587.99 988,-590.5 1037.3,-597.53 1093.28,-602.63 1135.97,-605.91"/>
<polygon fill="#63b8ff" stroke="#63b8ff" points="1135.73,-609.41 1145.97,-606.67 1136.26,-602.43 1135.73,-609.41"/>
</g>
<!-- Node22 -->
<g id="node16" class="node">
<title>Node22</title>
<g id="a_node16"><a xlink:href="execute__cmd_8c.html#a460126af28ab29df4340554fae9fc57a" target="_top" xlink:title=" ">
<polygon fill="white" stroke="#666666" points="1107,-582 989,-582 989,-563 1107,-563 1107,-582"/>
<text text-anchor="middle" x="1048" y="-570" font-family="Helvetica,sans-Serif" font-size="10.00">execute_path_binary</text>
</a>
</g>
</g>
<!-- Node13&#45;&gt;Node22 -->
<g id="edge16" class="edge">
<title>Node13&#45;&gt;Node22</title>
<path fill="none" stroke="#63b8ff" d="M934.54,-572.5C947.98,-572.5 963.4,-572.5 978.44,-572.5"/>
<polygon fill="#63b8ff" stroke="#63b8ff" points="978.76,-576 988.76,-572.5 978.76,-569 978.76,-576"/>
</g>
<!-- Node27 -->
<g id="node19" class="node">
<title>Node27</title>
<g id="a_node19"><a xlink:href="strings_8h.html#a36f055c4e56c8a784629908d0c5b91e5" target="_top" xlink:title=" ">
<polygon fill="white" stroke="#666666" points="1100,-545 996,-545 996,-526 1100,-526 1100,-545"/>
<text text-anchor="middle" x="1048" y="-533" font-family="Helvetica,sans-Serif" font-size="10.00">my_is_char_in_str</text>
</a>
</g>
</g>
<!-- Node13&#45;&gt;Node27 -->
<g id="edge20" class="edge">
<title>Node13&#45;&gt;Node27</title>
<path fill="none" stroke="#63b8ff" d="M934.14,-562.97C953.57,-558.24 977.24,-552.48 997.87,-547.46"/>
<polygon fill="#63b8ff" stroke="#63b8ff" points="998.84,-550.83 1007.72,-545.06 997.18,-544.02 998.84,-550.83"/>
</g>
<!-- Node15 -->
<g id="node15" class="node">
<title>Node15</title>
<g id="a_node15"><a xlink:href="execute__cmd_8c.html#a0f1b711370b175e42e583b75daacf41e" target="_top" xlink:title=" ">
<polygon fill="#fff0f0" stroke="red" points="1394,-583 1303,-583 1303,-564 1394,-564 1394,-583"/>
<text text-anchor="middle" x="1348.5" y="-571" font-family="Helvetica,sans-Serif" font-size="10.00">execute_binary</text>
</a>
</g>
</g>
<!-- Node14&#45;&gt;Node15 -->
<g id="edge15" class="edge">
<title>Node14&#45;&gt;Node15</title>
<path fill="none" stroke="#63b8ff" d="M1242.81,-600.97C1260.52,-596.33 1282.02,-590.68 1300.92,-585.72"/>
<polygon fill="#63b8ff" stroke="#63b8ff" points="1302.04,-589.05 1310.82,-583.12 1300.26,-582.28 1302.04,-589.05"/>
</g>
<!-- Node23 -->
<g id="node17" class="node">
<title>Node23</title>
<g id="a_node17"><a xlink:href="get__variable__value_8c.html#a2edd9900f19af236aa05385a789be3d6" target="_top" xlink:title=" ">
<polygon fill="#fff0f0" stroke="red" points="1260.5,-583 1150.5,-583 1150.5,-564 1260.5,-564 1260.5,-583"/>
<text text-anchor="middle" x="1205.5" y="-571" font-family="Helvetica,sans-Serif" font-size="10.00">get_variable_value</text>
</a>
</g>
</g>
<!-- Node22&#45;&gt;Node23 -->
<g id="edge17" class="edge">
<title>Node22&#45;&gt;Node23</title>
<path fill="none" stroke="#63b8ff" d="M1107.34,-572.88C1118.06,-572.94 1129.29,-573.02 1140.16,-573.09"/>
<polygon fill="#63b8ff" stroke="#63b8ff" points="1140.43,-576.59 1150.45,-573.15 1140.47,-569.59 1140.43,-576.59"/>
</g>
<!-- Node25 -->
<g id="node18" class="node">
<title>Node25</title>
<g id="a_node18"><a xlink:href="execute__cmd_8c.html#aee9e13edede9df28fac066f30e7ae7ed" target="_top" xlink:title=" ">
<polygon fill="#fff0f0" stroke="red" points="1247.5,-546 1163.5,-546 1163.5,-527 1247.5,-527 1247.5,-546"/>
<text text-anchor="middle" x="1205.5" y="-534" font-family="Helvetica,sans-Serif" font-size="10.00">try_command</text>
</a>
</g>
</g>
<!-- Node22&#45;&gt;Node25 -->
<g id="edge18" class="edge">
<title>Node22&#45;&gt;Node25</title>
<path fill="none" stroke="#63b8ff" d="M1090.26,-562.95C1109.67,-558.45 1133,-553.05 1153.51,-548.31"/>
<polygon fill="#63b8ff" stroke="#63b8ff" points="1154.36,-551.7 1163.31,-546.03 1152.78,-544.88 1154.36,-551.7"/>
</g>
<!-- Node25&#45;&gt;Node15 -->
<g id="edge19" class="edge">
<title>Node25&#45;&gt;Node15</title>
<path fill="none" stroke="#63b8ff" d="M1242.81,-546.03C1260.52,-550.67 1282.02,-556.32 1300.92,-561.28"/>
<polygon fill="#63b8ff" stroke="#63b8ff" points="1300.26,-564.72 1310.82,-563.88 1302.04,-557.95 1300.26,-564.72"/>
</g>
<!-- Node28&#45;&gt;Node12 -->
<g id="edge22" class="edge">
<title>Node28&#45;&gt;Node12</title>
<path fill="none" stroke="#63b8ff" d="M875.34,-432.08C856.93,-439.08 827.3,-447.84 802.11,-454.05"/>
<polygon fill="#63b8ff" stroke="#63b8ff" points="801.26,-450.65 792.35,-456.37 802.89,-457.46 801.26,-450.65"/>
</g>
<!-- Node29&#45;&gt;Node12 -->
<g id="edge24" class="edge">
<title>Node29&#45;&gt;Node12</title>
<path fill="none" stroke="#63b8ff" d="M880.79,-395.07C868.96,-400.06 850.68,-405.21 836,-412.5 817.67,-421.61 798.9,-434.64 784.11,-445.02"/>
<polygon fill="#63b8ff" stroke="#63b8ff" points="782.07,-442.18 775.89,-450.79 786.09,-447.91 782.07,-442.18"/>
</g>
<!-- Node31 -->
<g id="node23" class="node">
<title>Node31</title>
<g id="a_node23"><a xlink:href="execute__pipe_8c.html#a723ff799f939872d17f109a82342294e" target="_top" xlink:title=" ">
<polygon fill="white" stroke="#666666" points="1236.5,-358 1174.5,-358 1174.5,-339 1236.5,-339 1236.5,-358"/>
<text text-anchor="middle" x="1205.5" y="-346" font-family="Helvetica,sans-Serif" font-size="10.00">close_fds</text>
</a>
</g>
</g>
<!-- Node30&#45;&gt;Node31 -->
<g id="edge26" class="edge">
<title>Node30&#45;&gt;Node31</title>
<path fill="none" stroke="#63b8ff" d="M934.51,-348.5C993.7,-348.5 1104.77,-348.5 1164.34,-348.5"/>
<polygon fill="#63b8ff" stroke="#63b8ff" points="1164.49,-352 1174.49,-348.5 1164.49,-345 1164.49,-352"/>
</g>
<!-- Node32 -->
<g id="node24" class="node">
<title>Node32</title>
<g id="a_node24"><a xlink:href="execute__pipe_8c.html#ac529ffc2370b0133613ef8a81e58ed85" target="_top" xlink:title=" ">
<polygon fill="white" stroke="#666666" points="1099,-320 997,-320 997,-301 1099,-301 1099,-320"/>
<text text-anchor="middle" x="1048" y="-308" font-family="Helvetica,sans-Serif" font-size="10.00">execute_pipe_left</text>
</a>
</g>
</g>
<!-- Node30&#45;&gt;Node32 -->
<g id="edge27" class="edge">
<title>Node30&#45;&gt;Node32</title>
<path fill="none" stroke="#63b8ff" d="M933.36,-338.91C953.32,-333.92 977.93,-327.77 999.13,-322.47"/>
<polygon fill="#63b8ff" stroke="#63b8ff" points="1000.07,-325.84 1008.92,-320.02 998.37,-319.05 1000.07,-325.84"/>
</g>
<!-- Node33 -->
<g id="node25" class="node">
<title>Node33</title>
<g id="a_node25"><a xlink:href="execute__pipe_8c.html#a9ed6eabb8a9f7049f91265a5f45e30c8" target="_top" xlink:title=" ">
<polygon fill="white" stroke="#666666" points="1102.5,-396 993.5,-396 993.5,-377 1102.5,-377 1102.5,-396"/>
<text text-anchor="middle" x="1048" y="-384" font-family="Helvetica,sans-Serif" font-size="10.00">execute_pipe_right</text>
</a>
</g>
</g>
<!-- Node30&#45;&gt;Node33 -->
<g id="edge30" class="edge">
<title>Node30&#45;&gt;Node33</title>
<path fill="none" stroke="#63b8ff" d="M933.36,-358.09C953.32,-363.08 977.93,-369.23 999.13,-374.53"/>
<polygon fill="#63b8ff" stroke="#63b8ff" points="998.37,-377.95 1008.92,-376.98 1000.07,-371.16 998.37,-377.95"/>
</g>
<!-- Node30&#45;&gt;Node20 -->
<g id="edge34" class="edge">
<title>Node30&#45;&gt;Node20</title>
<path fill="none" stroke="#63b8ff" d="M908.3,-338.94C925.86,-326.65 958.06,-305.26 988,-291.5 992.71,-289.34 997.73,-287.32 1002.78,-285.46"/>
<polygon fill="#63b8ff" stroke="#63b8ff" points="1004.17,-288.68 1012.47,-282.1 1001.87,-282.07 1004.17,-288.68"/>
</g>
<!-- Node32&#45;&gt;Node12 -->
<g id="edge29" class="edge">
<title>Node32&#45;&gt;Node12</title>
<path fill="none" stroke="#63b8ff" d="M996.57,-302.98C951.15,-298.84 884.3,-299.57 836,-329.5 794.37,-355.3 771.06,-411.4 761.2,-441.12"/>
<polygon fill="#63b8ff" stroke="#63b8ff" points="757.83,-440.19 758.16,-450.78 764.5,-442.29 757.83,-440.19"/>
</g>
<!-- Node32&#45;&gt;Node31 -->
<g id="edge28" class="edge">
<title>Node32&#45;&gt;Node31</title>
<path fill="none" stroke="#63b8ff" d="M1088.24,-320.09C1111.44,-325.76 1140.76,-332.92 1164.15,-338.64"/>
<polygon fill="#63b8ff" stroke="#63b8ff" points="1163.56,-342.1 1174.1,-341.07 1165.22,-335.3 1163.56,-342.1"/>
</g>
<!-- Node33&#45;&gt;Node12 -->
<g id="edge32" class="edge">
<title>Node33&#45;&gt;Node12</title>
<path fill="none" stroke="#63b8ff" d="M1034.28,-396.05C1016.78,-408.63 983.81,-430.34 952,-440.5 902.57,-456.29 842.92,-460.4 802.4,-461.12"/>
<polygon fill="#63b8ff" stroke="#63b8ff" points="802.23,-457.62 792.27,-461.24 802.31,-464.62 802.23,-457.62"/>
</g>
<!-- Node33&#45;&gt;Node31 -->
<g id="edge31" class="edge">
<title>Node33&#45;&gt;Node31</title>
<path fill="none" stroke="#63b8ff" d="M1088.24,-376.91C1111.44,-371.24 1140.76,-364.08 1164.15,-358.36"/>
<polygon fill="#63b8ff" stroke="#63b8ff" points="1165.22,-361.7 1174.1,-355.93 1163.56,-354.9 1165.22,-361.7"/>
</g>
<!-- Node34 -->
<g id="node26" class="node">
<title>Node34</title>
<g id="a_node26"><a xlink:href="execute__pipe_8c.html#ac3d3a124b262676fa0679720f99a7f83" target="_top" xlink:title=" ">
<polygon fill="white" stroke="#666666" points="1245.5,-396 1165.5,-396 1165.5,-377 1245.5,-377 1245.5,-396"/>
<text text-anchor="middle" x="1205.5" y="-384" font-family="Helvetica,sans-Serif" font-size="10.00">restore_stdin</text>
</a>
</g>
</g>
<!-- Node33&#45;&gt;Node34 -->
<g id="edge33" class="edge">
<title>Node33&#45;&gt;Node34</title>
<path fill="none" stroke="#63b8ff" d="M1102.51,-386.5C1119.54,-386.5 1138.29,-386.5 1155.01,-386.5"/>
<polygon fill="#63b8ff" stroke="#63b8ff" points="1155.13,-390 1165.13,-386.5 1155.13,-383 1155.13,-390"/>
</g>
<!-- Node21 -->
<g id="node28" class="node">
<title>Node21</title>
<g id="a_node28"><a xlink:href="wait__for__subprocess_8c.html#a885766ba6ba593b7cf27b917dd52b1a6" target="_top" xlink:title=" ">
<polygon fill="white" stroke="#666666" points="1267,-282 1144,-282 1144,-263 1267,-263 1267,-282"/>
<text text-anchor="middle" x="1205.5" y="-270" font-family="Helvetica,sans-Serif" font-size="10.00">print_signal_message</text>
</a>
</g>
</g>
<!-- Node20&#45;&gt;Node21 -->
<g id="edge35" class="edge">
<title>Node20&#45;&gt;Node21</title>
<path fill="none" stroke="#63b8ff" d="M1106.02,-272.5C1115.06,-272.5 1124.5,-272.5 1133.81,-272.5"/>
<polygon fill="#63b8ff" stroke="#63b8ff" points="1133.83,-276 1143.83,-272.5 1133.83,-269 1133.83,-276"/>
</g>
<!-- Node36 -->
<g id="node30" class="node">
<title>Node36</title>
<g id="a_node30"><a xlink:href="execute__redirect_8c.html#a5aa0f008806cc0e8a7ba252d61b7001f" target="_top" xlink:title=" ">
<polygon fill="white" stroke="#666666" points="1101.5,-658 994.5,-658 994.5,-639 1101.5,-639 1101.5,-658"/>
<text text-anchor="middle" x="1048" y="-646" font-family="Helvetica,sans-Serif" font-size="10.00">redirect_execution</text>
</a>
</g>
</g>
<!-- Node35&#45;&gt;Node36 -->
<g id="edge37" class="edge">
<title>Node35&#45;&gt;Node36</title>
<path fill="none" stroke="#63b8ff" d="M943.09,-648.5C956.12,-648.5 970.42,-648.5 984.14,-648.5"/>
<polygon fill="#63b8ff" stroke="#63b8ff" points="984.48,-652 994.48,-648.5 984.48,-645 984.48,-652"/>
</g>
<!-- Node36&#45;&gt;Node12 -->
<g id="edge38" class="edge">
<title>Node36&#45;&gt;Node12</title>
<path fill="none" stroke="#63b8ff" d="M995.97,-638.94C941.98,-628.06 861.17,-609.33 836,-590.5 797.36,-561.59 773.01,-508.19 762.13,-479.66"/>
<polygon fill="#63b8ff" stroke="#63b8ff" points="765.34,-478.24 758.62,-470.04 758.76,-480.64 765.34,-478.24"/>
</g>
<!-- Node37 -->
<g id="node31" class="node">
<title>Node37</title>
<g id="a_node31"><a xlink:href="execute__redirect_8c.html#a1b8f325fc375581f81ae47a54e09cf0e" target="_top" xlink:title=" ">
<polygon fill="white" stroke="#666666" points="1238.5,-695 1172.5,-695 1172.5,-676 1238.5,-676 1238.5,-695"/>
<text text-anchor="middle" x="1205.5" y="-683" font-family="Helvetica,sans-Serif" font-size="10.00">restore_fd</text>
</a>
</g>
</g>
<!-- Node36&#45;&gt;Node37 -->
<g id="edge39" class="edge">
<title>Node36&#45;&gt;Node37</title>
<path fill="none" stroke="#63b8ff" d="M1089.05,-658.03C1111.62,-663.4 1139.79,-670.1 1162.66,-675.54"/>
<polygon fill="#63b8ff" stroke="#63b8ff" points="1161.88,-678.96 1172.42,-677.87 1163.5,-672.15 1161.88,-678.96"/>
</g>
<!-- Node38 -->
<g id="node32" class="node">
<title>Node38</title>
<g id="a_node32"><a xlink:href="execute__redirect_8c.html#a6cb002bd51f2009eaacc66d388c5f9a7" target="_top" xlink:title=" ">
<polygon fill="#fff0f0" stroke="red" points="1256,-658 1155,-658 1155,-639 1256,-639 1256,-658"/>
<text text-anchor="middle" x="1205.5" y="-646" font-family="Helvetica,sans-Serif" font-size="10.00">setup_redirection</text>
</a>
</g>
</g>
<!-- Node36&#45;&gt;Node38 -->
<g id="edge40" class="edge">
<title>Node36&#45;&gt;Node38</title>
<path fill="none" stroke="#63b8ff" d="M1101.65,-648.5C1115.47,-648.5 1130.48,-648.5 1144.66,-648.5"/>
<polygon fill="#63b8ff" stroke="#63b8ff" points="1144.8,-652 1154.8,-648.5 1144.8,-645 1144.8,-652"/>
</g>
<!-- Node43&#45;&gt;Node12 -->
<g id="edge42" class="edge">
<title>Node43&#45;&gt;Node12</title>
<path fill="none" stroke="#63b8ff" d="M847.71,-530.71C843.69,-529.12 839.73,-527.37 836,-525.5 810.58,-512.75 784.05,-492.79 768.69,-477.96"/>
<polygon fill="#63b8ff" stroke="#63b8ff" points="770.83,-475.13 761.38,-470.33 765.77,-479.97 770.83,-475.13"/>
</g>
<!-- Node44&#45;&gt;Node12 -->
<g id="edge44" class="edge">
<title>Node44&#45;&gt;Node12</title>
<path fill="none" stroke="#63b8ff" d="M840.41,-490.55C820.73,-485.53 799.19,-479.22 782.73,-473.53"/>
<polygon fill="#63b8ff" stroke="#63b8ff" points="783.79,-470.19 773.19,-470.09 781.41,-476.78 783.79,-470.19"/>
</g>
<!-- Node45&#45;&gt;Node12 -->
<g id="edge46" class="edge">
<title>Node45&#45;&gt;Node12</title>
<path fill="none" stroke="#63b8ff" d="M879.76,-282.12C867.16,-287.44 848.34,-293.86 836,-305.5 794.76,-344.42 771.86,-408.97 761.8,-441.3"/>
<polygon fill="#63b8ff" stroke="#63b8ff" points="758.42,-440.36 758.87,-450.95 765.12,-442.39 758.42,-440.36"/>
</g>
<!-- Node45&#45;&gt;Node20 -->
<g id="edge47" class="edge">
<title>Node45&#45;&gt;Node20</title>
<path fill="none" stroke="#63b8ff" d="M944.77,-272.5C955.95,-272.5 968,-272.5 979.76,-272.5"/>
<polygon fill="#63b8ff" stroke="#63b8ff" points="980,-276 990,-272.5 980,-269 980,-276"/>
</g>
<!-- Node47 -->
<g id="node37" class="node">
<title>Node47</title>
<g id="a_node37"><a xlink:href="empty__stdin_8c.html#a4c89df10296f2cc245e3a32065e04e7b" target="_top" xlink:title=" ">
<polygon fill="white" stroke="#666666" points="932.5,-810 855.5,-810 855.5,-791 932.5,-791 932.5,-810"/>
<text text-anchor="middle" x="894" y="-798" font-family="Helvetica,sans-Serif" font-size="10.00">empty_stdin</text>
</a>
</g>
</g>
<!-- Node46&#45;&gt;Node47 -->
<g id="edge49" class="edge">
<title>Node46&#45;&gt;Node47</title>
<path fill="none" stroke="#63b8ff" d="M800.14,-800.5C814.53,-800.5 830.53,-800.5 845.14,-800.5"/>
<polygon fill="#63b8ff" stroke="#63b8ff" points="845.49,-804 855.49,-800.5 845.49,-797 845.49,-804"/>
</g>
<!-- Node48 -->
<g id="node38" class="node">
<title>Node48</title>
<g id="a_node38"><a xlink:href="shell_8c.html#a2c9bd51744387dc73763281019d78622" target="_top" xlink:title=" ">
<polygon fill="white" stroke="#666666" points="926,-847 862,-847 862,-828 926,-828 926,-847"/>
<text text-anchor="middle" x="894" y="-835" font-family="Helvetica,sans-Serif" font-size="10.00">parse_ast</text>
</a>
</g>
</g>
<!-- Node46&#45;&gt;Node48 -->
<g id="edge50" class="edge">
<title>Node46&#45;&gt;Node48</title>
<path fill="none" stroke="#63b8ff" d="M790.91,-810.03C809.61,-815.06 832.66,-821.26 852.12,-826.5"/>
<polygon fill="#63b8ff" stroke="#63b8ff" points="851.36,-829.92 861.92,-829.14 853.18,-823.16 851.36,-829.92"/>
</g>
<!-- Node49 -->
<g id="node39" class="node">
<title>Node49</title>
<g id="a_node39"><a xlink:href="parser__parse_8c.html#ab56c1f0e36fe941facfe258418c2cc72" target="_top" xlink:title=" ">
<polygon fill="#fff0f0" stroke="red" points="1088,-828 1008,-828 1008,-809 1088,-809 1088,-828"/>
<text text-anchor="middle" x="1048" y="-816" font-family="Helvetica,sans-Serif" font-size="10.00">parser_parse</text>
</a>
</g>
</g>
<!-- Node48&#45;&gt;Node49 -->
<g id="edge51" class="edge">
<title>Node48&#45;&gt;Node49</title>
<path fill="none" stroke="#63b8ff" d="M926.13,-833.61C946.71,-831.04 974.12,-827.61 997.64,-824.67"/>
<polygon fill="#63b8ff" stroke="#63b8ff" points="998.31,-828.11 1007.79,-823.4 997.44,-821.17 998.31,-828.11"/>
</g>
<!-- Node48&#45;&gt;Node129 -->
<g id="edge56" class="edge">
<title>Node48&#45;&gt;Node129</title>
<path fill="none" stroke="#63b8ff" d="M926.11,-828.15C934.61,-825.32 943.75,-822.02 952,-818.5 968.64,-811.39 971.82,-807.6 988,-799.5 997.4,-794.79 1007.74,-789.82 1017.1,-785.39"/>
<polygon fill="#63b8ff" stroke="#63b8ff" points="1018.86,-788.43 1026.42,-781.01 1015.88,-782.09 1018.86,-788.43"/>
</g>
<!-- Node49&#45;&gt;Node10 -->
<g id="edge52" class="edge">
<title>Node49&#45;&gt;Node10</title>
<path fill="none" stroke="#63b8ff" d="M1088.02,-820.98C1142.89,-824.48 1242.64,-830.83 1301.19,-834.55"/>
<polygon fill="#63b8ff" stroke="#63b8ff" points="1301.07,-838.05 1311.27,-835.19 1301.51,-831.07 1301.07,-838.05"/>
</g>
<!-- Node50 -->
<g id="node40" class="node">
<title>Node50</title>
<g id="a_node40"><a xlink:href="parse__sequence_8c.html#a1b3273ce0047a9f5b34da07c8ba9eb3e" target="_top" xlink:title=" ">
<polygon fill="#fff0f0" stroke="red" points="1253,-809 1158,-809 1158,-790 1253,-790 1253,-809"/>
<text text-anchor="middle" x="1205.5" y="-797" font-family="Helvetica,sans-Serif" font-size="10.00">parse_sequence</text>
</a>
</g>
</g>
<!-- Node49&#45;&gt;Node50 -->
<g id="edge53" class="edge">
<title>Node49&#45;&gt;Node50</title>
<path fill="none" stroke="#63b8ff" d="M1088.24,-813.71C1106.24,-811.51 1127.94,-808.86 1147.68,-806.44"/>
<polygon fill="#63b8ff" stroke="#63b8ff" points="1148.3,-809.89 1157.8,-805.21 1147.45,-802.95 1148.3,-809.89"/>
</g>
<!-- Node57 -->
<g id="node41" class="node">
<title>Node57</title>
<g id="a_node41"><a xlink:href="parser__set__error_8c.html#adcfabdb026b94fdbe4b6cbf5cb16522a" target="_top" xlink:title=" ">
<polygon fill="white" stroke="#666666" points="1253.5,-772 1157.5,-772 1157.5,-753 1253.5,-753 1253.5,-772"/>
<text text-anchor="middle" x="1205.5" y="-760" font-family="Helvetica,sans-Serif" font-size="10.00">parser_set_error</text>
</a>
</g>
</g>
<!-- Node49&#45;&gt;Node57 -->
<g id="edge55" class="edge">
<title>Node49&#45;&gt;Node57</title>
<path fill="none" stroke="#63b8ff" d="M1071.43,-808.85C1090.54,-800.8 1118.83,-789.26 1144,-780.5 1149.3,-778.65 1154.91,-776.83 1160.48,-775.08"/>
<polygon fill="#63b8ff" stroke="#63b8ff" points="1161.87,-778.32 1170.41,-772.05 1159.82,-771.63 1161.87,-778.32"/>
</g>
<!-- Node50&#45;&gt;Node10 -->
<g id="edge54" class="edge">
<title>Node50&#45;&gt;Node10</title>
<path fill="none" stroke="#63b8ff" d="M1242.08,-809.09C1260.28,-813.99 1282.64,-820.02 1302.07,-825.26"/>
<polygon fill="#63b8ff" stroke="#63b8ff" points="1301.36,-828.69 1311.93,-827.91 1303.19,-821.93 1301.36,-828.69"/>
</g>
<!-- Node110 -->
<g id="node45" class="node">
<title>Node110</title>
<g id="a_node45"><a xlink:href="destroy__token_8c.html#ad1a471ee7b1ccb035d769be1152a370c" target="_top" xlink:title=" ">
<polygon fill="white" stroke="#666666" points="1091,-696 1005,-696 1005,-677 1091,-677 1091,-696"/>
<text text-anchor="middle" x="1048" y="-684" font-family="Helvetica,sans-Serif" font-size="10.00">token_destroy</text>
</a>
</g>
</g>
<!-- Node131&#45;&gt;Node110 -->
<g id="edge59" class="edge">
<title>Node131&#45;&gt;Node110</title>
<path fill="none" stroke="#63b8ff" d="M799.14,-687.35C851.47,-687.17 939.1,-686.87 994.92,-686.68"/>
<polygon fill="#63b8ff" stroke="#63b8ff" points="994.97,-690.18 1004.96,-686.64 994.94,-683.18 994.97,-690.18"/>
</g>
<!-- Node73 -->
<g id="node47" class="node">
<title>Node73</title>
<g id="a_node47"><a xlink:href="parser__next_8c.html#ad25986b565a767c6ad7d0b0b8846fca6" target="_top" xlink:title=" ">
<polygon fill="white" stroke="#666666" points="931,-734 857,-734 857,-715 931,-715 931,-734"/>
<text text-anchor="middle" x="894" y="-722" font-family="Helvetica,sans-Serif" font-size="10.00">parser_next</text>
</a>
</g>
</g>
<!-- Node132&#45;&gt;Node73 -->
<g id="edge61" class="edge">
<title>Node132&#45;&gt;Node73</title>
<path fill="none" stroke="#63b8ff" d="M788.78,-724.5C806.09,-724.5 827.51,-724.5 846.43,-724.5"/>
<polygon fill="#63b8ff" stroke="#63b8ff" points="846.64,-728 856.64,-724.5 846.64,-721 846.64,-728"/>
</g>
<!-- Node73&#45;&gt;Node110 -->
<g id="edge63" class="edge">
<title>Node73&#45;&gt;Node110</title>
<path fill="none" stroke="#63b8ff" d="M931.02,-715.49C951.35,-710.41 977.01,-704 999.02,-698.49"/>
<polygon fill="#63b8ff" stroke="#63b8ff" points="1000,-701.86 1008.85,-696.04 998.3,-695.07 1000,-701.86"/>
</g>
<!-- Node74 -->
<g id="node48" class="node">
<title>Node74</title>
<g id="a_node48"><a xlink:href="lexer__next__token_8c.html#a3def5432329709fb4df861d90672c510" target="_top" xlink:title=" ">
<polygon fill="#fff0f0" stroke="red" points="1098,-734 998,-734 998,-715 1098,-715 1098,-734"/>
<text text-anchor="middle" x="1048" y="-722" font-family="Helvetica,sans-Serif" font-size="10.00">lexer_next_token</text>
</a>
</g>
</g>
<!-- Node73&#45;&gt;Node74 -->
<g id="edge62" class="edge">
<title>Node73&#45;&gt;Node74</title>
<path fill="none" stroke="#63b8ff" d="M931.02,-724.5C947.91,-724.5 968.49,-724.5 987.6,-724.5"/>
<polygon fill="#63b8ff" stroke="#63b8ff" points="987.72,-728 997.72,-724.5 987.72,-721 987.72,-728"/>
</g>
<!-- Node92&#45;&gt;Node6 -->
<g id="edge67" class="edge">
<title>Node92&#45;&gt;Node6</title>
<path fill="none" stroke="#63b8ff" d="M315.01,-48.76C369.29,-50.67 459.27,-55.34 536,-66.5 548.46,-68.31 561.81,-70.94 574.16,-73.67"/>
<polygon fill="#63b8ff" stroke="#63b8ff" points="573.74,-77.16 584.27,-75.96 575.29,-70.33 573.74,-77.16"/>
</g>
<!-- Node92&#45;&gt;Node93 -->
<g id="edge68" class="edge">
<title>Node92&#45;&gt;Node93</title>
<path fill="none" stroke="#63b8ff" d="M314.83,-37.96C341.19,-32.81 373.92,-26.42 401.67,-20.99"/>
<polygon fill="#63b8ff" stroke="#63b8ff" points="402.51,-24.4 411.65,-19.04 401.16,-17.53 402.51,-24.4"/>
</g>
</g>
</svg>
