<?xml version="1.0" encoding="UTF-8" standalone="no"?>
<!DOCTYPE svg PUBLIC "-//W3C//DTD SVG 1.1//EN"
 "http://www.w3.org/Graphics/SVG/1.1/DTD/svg11.dtd">
<!-- Generated by graphviz version 2.43.0 (0)
 -->
<!-- Title: main Pages: 1 -->
<!--zoomable 955 -->
<svg id="main" version="1.1" xmlns="http://www.w3.org/2000/svg" xmlns:xlink="http://www.w3.org/1999/xlink" xml:space="preserve" onload="init(evt)">
<style type="text/css"><![CDATA[
.edge:hover path { stroke: red; }
.edge:hover polygon { stroke: red; fill: red; }
]]></style>
<script type="text/javascript"><![CDATA[
var edges = document.getElementsByTagName('g');
if (edges && edges.length) {
  for (var i=0;i<edges.length;i++) {
    if (edges[i].id.substr(0,4)=='edge') {
      edges[i].setAttribute('class','edge');
    }
  }
}
]]></script>
        <defs>
                <circle id="rim" cx="0" cy="0" r="7"/>
                <circle id="rim2" cx="0" cy="0" r="3.5"/>
                <g id="zoomPlus">
                        <use xlink:href="#rim" fill="#404040">
                                <set attributeName="fill" to="#808080" begin="zoomplus.mouseover" end="zoomplus.mouseout"/>
                        </use>
                        <path d="M-4,0h8M0,-4v8" fill="none" stroke="white" stroke-width="1.5" pointer-events="none"/>
                </g>
                <g id="zoomMin">
                        <use xlink:href="#rim" fill="#404040">
                                <set attributeName="fill" to="#808080" begin="zoomminus.mouseover" end="zoomminus.mouseout"/>
                        </use>
                        <path d="M-4,0h8" fill="none" stroke="white" stroke-width="1.5" pointer-events="none"/>
                </g>
                <g id="dirArrow">
                        <path fill="none" stroke="white" stroke-width="1.5" d="M0,-3.0v7 M-2.5,-0.5L0,-3.0L2.5,-0.5"/>
                </g>
               <g id="resetDef">
                       <use xlink:href="#rim2" fill="#404040">
                               <set attributeName="fill" to="#808080" begin="reset.mouseover" end="reset.mouseout"/>
                       </use>
               </g>
        </defs>

<script type="text/javascript">
var viewWidth = 904;
var viewHeight = 955;
var sectionId = 'dynsection-1';
</script>
<script xlink:href="svgpan.js"/>
<svg id="graph" class="graph">
<g id="viewport">
<title>main</title>
<!-- Node1 -->
<g id="node1" class="node">
<title>Node1</title>
<g id="a_node1"><a xlink:title=" ">
<polygon fill="#999999" stroke="#666666" points="41,-592 0,-592 0,-573 41,-573 41,-592"/>
<text text-anchor="middle" x="20.5" y="-580" font-family="Helvetica,sans-Serif" font-size="10.00">main</text>
</a>
</g>
</g>
<!-- Node2 -->
<g id="node2" class="node">
<title>Node2</title>
<g id="a_node2"><a xlink:href="main_8c.html#a47e2a08216f6362d8656efaac70e4a95" target="_top" xlink:title=" ">
<polygon fill="white" stroke="#666666" points="138,-611 77,-611 77,-592 138,-592 138,-611"/>
<text text-anchor="middle" x="107.5" y="-599" font-family="Helvetica,sans-Serif" font-size="10.00">open_file</text>
</a>
</g>
</g>
<!-- Node1&#45;&gt;Node2 -->
<g id="edge1" class="edge">
<title>Node1&#45;&gt;Node2</title>
<path fill="none" stroke="#63b8ff" d="M41.21,-586.91C48.91,-588.63 58.02,-590.66 66.96,-592.66"/>
<polygon fill="#63b8ff" stroke="#63b8ff" points="66.37,-596.12 76.89,-594.88 67.89,-589.28 66.37,-596.12"/>
</g>
<!-- Node3 -->
<g id="node3" class="node">
<title>Node3</title>
<g id="a_node3"><a xlink:href="shell_8c.html#ad0c642810cef7d35602fd99eaec9e3de" target="_top" xlink:title=" ">
<polygon fill="white" stroke="#666666" points="138,-574 77,-574 77,-555 138,-555 138,-574"/>
<text text-anchor="middle" x="107.5" y="-562" font-family="Helvetica,sans-Serif" font-size="10.00">shell_run</text>
</a>
</g>
</g>
<!-- Node1&#45;&gt;Node3 -->
<g id="edge2" class="edge">
<title>Node1&#45;&gt;Node3</title>
<path fill="none" stroke="#63b8ff" d="M41.21,-578.33C48.91,-576.7 58.02,-574.77 66.96,-572.87"/>
<polygon fill="#63b8ff" stroke="#63b8ff" points="67.83,-576.27 76.89,-570.77 66.38,-569.42 67.83,-576.27"/>
</g>
<!-- Node4 -->
<g id="node4" class="node">
<title>Node4</title>
<g id="a_node4"><a xlink:href="shell_8c.html#afb5215a1775326d8976fd015f7832392" target="_top" xlink:title=" ">
<polygon fill="white" stroke="#666666" points="254,-330 174,-330 174,-311 254,-311 254,-330"/>
<text text-anchor="middle" x="214" y="-318" font-family="Helvetica,sans-Serif" font-size="10.00">handle_input</text>
</a>
</g>
</g>
<!-- Node3&#45;&gt;Node4 -->
<g id="edge3" class="edge">
<title>Node3&#45;&gt;Node4</title>
<path fill="none" stroke="#63b8ff" d="M112.6,-554.93C128.14,-518.65 183.63,-389.09 204.75,-339.76"/>
<polygon fill="#63b8ff" stroke="#63b8ff" points="208.1,-340.83 208.82,-330.26 201.66,-338.08 208.1,-340.83"/>
</g>
<!-- Node143 -->
<g id="node33" class="node">
<title>Node143</title>
<g id="a_node33"><a xlink:href="shell_8c.html#a97dcf9b752b6ad482f8da89b8340b5af" target="_top" xlink:title=" ">
<polygon fill="white" stroke="#666666" points="244.5,-816 183.5,-816 183.5,-797 244.5,-797 244.5,-816"/>
<text text-anchor="middle" x="214" y="-804" font-family="Helvetica,sans-Serif" font-size="10.00">init_shell</text>
</a>
</g>
</g>
<!-- Node3&#45;&gt;Node143 -->
<g id="edge42" class="edge">
<title>Node3&#45;&gt;Node143</title>
<path fill="none" stroke="#63b8ff" d="M127.53,-574.05C131.4,-576.69 135.16,-579.85 138,-583.5 187.54,-647.13 205.28,-745.26 210.8,-786.82"/>
<polygon fill="#63b8ff" stroke="#63b8ff" points="207.35,-787.47 212.05,-796.97 214.3,-786.61 207.35,-787.47"/>
</g>
<!-- Node153 -->
<g id="node42" class="node">
<title>Node153</title>
<g id="a_node42"><a xlink:href="read__input_8c.html#a2fe39fff6bf08a12813712b31615a1fb" target="_top" xlink:title=" ">
<polygon fill="white" stroke="#666666" points="248,-93 180,-93 180,-74 248,-74 248,-93"/>
<text text-anchor="middle" x="214" y="-81" font-family="Helvetica,sans-Serif" font-size="10.00">read_input</text>
</a>
</g>
</g>
<!-- Node3&#45;&gt;Node153 -->
<g id="edge54" class="edge">
<title>Node3&#45;&gt;Node153</title>
<path fill="none" stroke="#63b8ff" d="M110.59,-554.89C123.36,-496.09 191.03,-184.63 208.75,-103.06"/>
<polygon fill="#63b8ff" stroke="#63b8ff" points="212.2,-103.65 210.91,-93.13 205.36,-102.16 212.2,-103.65"/>
</g>
<!-- Node160 -->
<g id="node50" class="node">
<title>Node160</title>
<g id="a_node50"><a xlink:href="shell_8c.html#a352d0fde24e5d22d7e92d3fcb05dab19" target="_top" xlink:title=" ">
<polygon fill="white" stroke="#666666" points="559.5,-911 477.5,-911 477.5,-892 559.5,-892 559.5,-911"/>
<text text-anchor="middle" x="518.5" y="-899" font-family="Helvetica,sans-Serif" font-size="10.00">shell_destroy</text>
</a>
</g>
</g>
<!-- Node3&#45;&gt;Node160 -->
<g id="edge64" class="edge">
<title>Node3&#45;&gt;Node160</title>
<path fill="none" stroke="#63b8ff" d="M128.63,-574.13C132.25,-576.7 135.62,-579.81 138,-583.5 196.97,-674.86 105.16,-741.33 174,-825.5 244.81,-912.08 390.1,-913.68 467.07,-907.58"/>
<polygon fill="#63b8ff" stroke="#63b8ff" points="467.8,-911.03 477.46,-906.67 467.2,-904.05 467.8,-911.03"/>
</g>
<!-- Node5 -->
<g id="node5" class="node">
<title>Node5</title>
<g id="a_node5"><a xlink:href="ast__destroy_8c.html#a04c67d7ab492f6e1e7bc44dc70faa057" target="_top" xlink:title=" ">
<polygon fill="white" stroke="#666666" points="385.5,-211 311.5,-211 311.5,-192 385.5,-192 385.5,-211"/>
<text text-anchor="middle" x="348.5" y="-199" font-family="Helvetica,sans-Serif" font-size="10.00">ast_destroy</text>
</a>
</g>
</g>
<!-- Node4&#45;&gt;Node5 -->
<g id="edge4" class="edge">
<title>Node4&#45;&gt;Node5</title>
<path fill="none" stroke="#63b8ff" d="M222.4,-310.91C235.12,-294.8 262.43,-261.77 290,-238.5 299.59,-230.41 311.05,-222.7 321.22,-216.43"/>
<polygon fill="#63b8ff" stroke="#63b8ff" points="323.32,-219.25 330.09,-211.1 319.72,-213.24 323.32,-219.25"/>
</g>
<!-- Node7 -->
<g id="node7" class="node">
<title>Node7</title>
<g id="a_node7"><a xlink:href="shell_8c.html#a74405478dadd73c0a4d1e5f3e8d2e3ef" target="_top" xlink:title=" ">
<polygon fill="white" stroke="#666666" points="405,-314.5 292,-314.5 292,-284.5 405,-284.5 405,-314.5"/>
<text text-anchor="start" x="300" y="-302.5" font-family="Helvetica,sans-Serif" font-size="10.00">destroy_parser_and</text>
<text text-anchor="middle" x="348.5" y="-291.5" font-family="Helvetica,sans-Serif" font-size="10.00">_lexer</text>
</a>
</g>
</g>
<!-- Node4&#45;&gt;Node7 -->
<g id="edge7" class="edge">
<title>Node4&#45;&gt;Node7</title>
<path fill="none" stroke="#63b8ff" d="M254.04,-314.31C262.67,-312.94 272.05,-311.46 281.42,-309.97"/>
<polygon fill="#63b8ff" stroke="#63b8ff" points="282.23,-313.39 291.56,-308.37 281.14,-306.47 282.23,-313.39"/>
</g>
<!-- Node11 -->
<g id="node11" class="node">
<title>Node11</title>
<g id="a_node11"><a xlink:href="execute__ast_8c.html#ad26a20a665ab7fdeb714ed53c1afd104" target="_top" xlink:title=" ">
<polygon fill="white" stroke="#666666" points="386,-573 311,-573 311,-554 386,-554 386,-573"/>
<text text-anchor="middle" x="348.5" y="-561" font-family="Helvetica,sans-Serif" font-size="10.00">execute_ast</text>
</a>
</g>
</g>
<!-- Node4&#45;&gt;Node11 -->
<g id="edge11" class="edge">
<title>Node4&#45;&gt;Node11</title>
<path fill="none" stroke="#63b8ff" d="M220.19,-330.03C239.98,-366.31 310.85,-496.28 337.38,-544.93"/>
<polygon fill="#63b8ff" stroke="#63b8ff" points="334.34,-546.67 342.2,-553.78 340.48,-543.32 334.34,-546.67"/>
</g>
<!-- Node45 -->
<g id="node26" class="node">
<title>Node45</title>
<g id="a_node26"><a xlink:href="shell_8c.html#a6e35892cfa82c5f227b10f37abc529e9" target="_top" xlink:title=" ">
<polygon fill="white" stroke="#666666" points="394,-390 303,-390 303,-371 394,-371 394,-390"/>
<text text-anchor="middle" x="348.5" y="-378" font-family="Helvetica,sans-Serif" font-size="10.00">handle_parsing</text>
</a>
</g>
</g>
<!-- Node4&#45;&gt;Node45 -->
<g id="edge33" class="edge">
<title>Node4&#45;&gt;Node45</title>
<path fill="none" stroke="#63b8ff" d="M234.3,-330.1C249.37,-337.52 270.89,-347.93 290,-356.5 297.86,-360.02 306.39,-363.68 314.42,-367.04"/>
<polygon fill="#63b8ff" stroke="#63b8ff" points="313.3,-370.37 323.88,-370.97 315.99,-363.9 313.3,-370.37"/>
</g>
<!-- Node140 -->
<g id="node29" class="node">
<title>Node140</title>
<g id="a_node29"><a xlink:href="shell_8c.html#a1ce512725ee0371f8bf608a3ece0c152" target="_top" xlink:title=" ">
<polygon fill="white" stroke="#666666" points="750,-387 630,-387 630,-368 750,-368 750,-387"/>
<text text-anchor="middle" x="690" y="-375" font-family="Helvetica,sans-Serif" font-size="10.00">show_error_message</text>
</a>
</g>
</g>
<!-- Node4&#45;&gt;Node140 -->
<g id="edge41" class="edge">
<title>Node4&#45;&gt;Node140</title>
<path fill="none" stroke="#63b8ff" d="M254.12,-323.69C323.01,-329.53 470.36,-342.94 594,-360.5 605.42,-362.12 617.57,-364.1 629.22,-366.13"/>
<polygon fill="#63b8ff" stroke="#63b8ff" points="628.85,-369.62 639.31,-367.91 630.07,-362.72 628.85,-369.62"/>
</g>
<!-- Node141 -->
<g id="node30" class="node">
<title>Node141</title>
<g id="a_node30"><a xlink:href="lexer__init_8c.html#aee55447f2c8b083ed2614fa4f439f9cc" target="_top" xlink:title=" ">
<polygon fill="white" stroke="#666666" points="379.5,-266 317.5,-266 317.5,-247 379.5,-247 379.5,-266"/>
<text text-anchor="middle" x="348.5" y="-254" font-family="Helvetica,sans-Serif" font-size="10.00">lexer_init</text>
</a>
</g>
</g>
<!-- Node4&#45;&gt;Node141 -->
<g id="edge37" class="edge">
<title>Node4&#45;&gt;Node141</title>
<path fill="none" stroke="#63b8ff" d="M228.86,-310.9C243.54,-301.05 267.64,-285.75 290,-275.5 295.71,-272.88 301.88,-270.45 307.99,-268.27"/>
<polygon fill="#63b8ff" stroke="#63b8ff" points="309.13,-271.58 317.47,-265.04 306.88,-264.95 309.13,-271.58"/>
</g>
<!-- Node142 -->
<g id="node31" class="node">
<title>Node142</title>
<g id="a_node31"><a xlink:href="parser__init_8c.html#a7a5dc445fa057a393d0b94590acea2f1" target="_top" xlink:title=" ">
<polygon fill="white" stroke="#666666" points="382.5,-174 314.5,-174 314.5,-155 382.5,-155 382.5,-174"/>
<text text-anchor="middle" x="348.5" y="-162" font-family="Helvetica,sans-Serif" font-size="10.00">parser_init</text>
</a>
</g>
</g>
<!-- Node4&#45;&gt;Node142 -->
<g id="edge38" class="edge">
<title>Node4&#45;&gt;Node142</title>
<path fill="none" stroke="#63b8ff" d="M217.5,-310.85C224.49,-285.79 246.61,-218.18 290,-182.5 294.34,-178.93 299.4,-176.06 304.67,-173.77"/>
<polygon fill="#63b8ff" stroke="#63b8ff" points="306.13,-176.96 314.3,-170.21 303.71,-170.39 306.13,-176.96"/>
</g>
<!-- Node5&#45;&gt;Node5 -->
<g id="edge5" class="edge">
<title>Node5&#45;&gt;Node5</title>
<path fill="none" stroke="#63b8ff" d="M327.85,-211.08C317.8,-219.73 324.68,-229 348.5,-229 363.76,-229 372.07,-225.2 373.43,-220.19"/>
<polygon fill="#63b8ff" stroke="#63b8ff" points="376.57,-218.65 369.15,-211.08 370.23,-221.62 376.57,-218.65"/>
</g>
<!-- Node6 -->
<g id="node6" class="node">
<title>Node6</title>
<g id="a_node6"><a xlink:href="misc_8h.html#a1180cae2875b1fdcd58c9f9175a82c12" target="_top" xlink:title=" ">
<polygon fill="white" stroke="#666666" points="577,-236 460,-236 460,-217 577,-217 577,-236"/>
<text text-anchor="middle" x="518.5" y="-224" font-family="Helvetica,sans-Serif" font-size="10.00">my_free_word_array</text>
</a>
</g>
</g>
<!-- Node5&#45;&gt;Node6 -->
<g id="edge6" class="edge">
<title>Node5&#45;&gt;Node6</title>
<path fill="none" stroke="#63b8ff" d="M385.54,-206.86C404.27,-209.65 427.78,-213.15 449.75,-216.42"/>
<polygon fill="#63b8ff" stroke="#63b8ff" points="449.31,-219.89 459.71,-217.9 450.34,-212.97 449.31,-219.89"/>
</g>
<!-- Node8 -->
<g id="node8" class="node">
<title>Node8</title>
<g id="a_node8"><a xlink:href="lexer__init_8c.html#a592247dc9c102c884630b41389a1b38b" target="_top" xlink:title=" ">
<polygon fill="white" stroke="#666666" points="560,-310 477,-310 477,-291 560,-291 560,-310"/>
<text text-anchor="middle" x="518.5" y="-298" font-family="Helvetica,sans-Serif" font-size="10.00">lexer_destroy</text>
</a>
</g>
</g>
<!-- Node7&#45;&gt;Node8 -->
<g id="edge8" class="edge">
<title>Node7&#45;&gt;Node8</title>
<path fill="none" stroke="#63b8ff" d="M405.44,-299.83C425.26,-299.95 447.44,-300.08 466.8,-300.2"/>
<polygon fill="#63b8ff" stroke="#63b8ff" points="466.92,-303.7 476.94,-300.26 466.96,-296.7 466.92,-303.7"/>
</g>
<!-- Node9 -->
<g id="node9" class="node">
<title>Node9</title>
<g id="a_node9"><a xlink:href="parser__destroy_8c.html#ae2656460a6fc6b6cd65624312fe0c943" target="_top" xlink:title=" ">
<polygon fill="white" stroke="#666666" points="563,-273 474,-273 474,-254 563,-254 563,-273"/>
<text text-anchor="middle" x="518.5" y="-261" font-family="Helvetica,sans-Serif" font-size="10.00">parser_destroy</text>
</a>
</g>
</g>
<!-- Node7&#45;&gt;Node9 -->
<g id="edge9" class="edge">
<title>Node7&#45;&gt;Node9</title>
<path fill="none" stroke="#63b8ff" d="M405.44,-287.51C424.29,-283.47 445.28,-278.98 463.94,-274.98"/>
<polygon fill="#63b8ff" stroke="#63b8ff" points="464.71,-278.39 473.75,-272.87 463.24,-271.55 464.71,-278.39"/>
</g>
<!-- Node10 -->
<g id="node10" class="node">
<title>Node10</title>
<g id="a_node10"><a xlink:href="destroy__token_8c.html#ad1a471ee7b1ccb035d769be1152a370c" target="_top" xlink:title=" ">
<polygon fill="white" stroke="#666666" points="733,-256 647,-256 647,-237 733,-237 733,-256"/>
<text text-anchor="middle" x="690" y="-244" font-family="Helvetica,sans-Serif" font-size="10.00">token_destroy</text>
</a>
</g>
</g>
<!-- Node9&#45;&gt;Node10 -->
<g id="edge10" class="edge">
<title>Node9&#45;&gt;Node10</title>
<path fill="none" stroke="#63b8ff" d="M563.15,-259.12C585.62,-256.87 613.18,-254.1 636.78,-251.74"/>
<polygon fill="#63b8ff" stroke="#63b8ff" points="637.36,-255.2 646.96,-250.72 636.66,-248.23 637.36,-255.2"/>
</g>
<!-- Node12 -->
<g id="node12" class="node">
<title>Node12</title>
<g id="a_node12"><a xlink:href="execute__cmd_8c.html#a94ea9cc5a046ce96e36764bf0e4fa2c0" target="_top" xlink:title=" ">
<polygon fill="white" stroke="#666666" points="559,-760 478,-760 478,-741 559,-741 559,-760"/>
<text text-anchor="middle" x="518.5" y="-748" font-family="Helvetica,sans-Serif" font-size="10.00">execute_cmd</text>
</a>
</g>
</g>
<!-- Node11&#45;&gt;Node12 -->
<g id="edge12" class="edge">
<title>Node11&#45;&gt;Node12</title>
<path fill="none" stroke="#63b8ff" d="M351.94,-573.35C359.7,-602.61 386.73,-689.61 443,-732.5 450.23,-738.01 458.9,-741.86 467.73,-744.54"/>
<polygon fill="#63b8ff" stroke="#63b8ff" points="467.15,-748.01 477.71,-747.11 468.89,-741.23 467.15,-748.01"/>
</g>
<!-- Node27 -->
<g id="node17" class="node">
<title>Node27</title>
<g id="a_node17"><a xlink:href="execute__logical__and_8c.html#a4f940752faf9f9a258c49810b21efe47" target="_top" xlink:title=" ">
<polygon fill="white" stroke="#666666" points="576.5,-536 460.5,-536 460.5,-517 576.5,-517 576.5,-536"/>
<text text-anchor="middle" x="518.5" y="-524" font-family="Helvetica,sans-Serif" font-size="10.00">execute_logical_and</text>
</a>
</g>
</g>
<!-- Node11&#45;&gt;Node27 -->
<g id="edge17" class="edge">
<title>Node11&#45;&gt;Node27</title>
<path fill="none" stroke="#63b8ff" d="M371.46,-553.93C391.59,-547.82 422.46,-540.39 450.64,-534.6"/>
<polygon fill="#63b8ff" stroke="#63b8ff" points="451.36,-538.03 460.47,-532.63 449.98,-531.16 451.36,-538.03"/>
</g>
<!-- Node28 -->
<g id="node18" class="node">
<title>Node28</title>
<g id="a_node18"><a xlink:href="execute__logical__or_8c.html#a7e732d7c30b07010fa55850051007dcc" target="_top" xlink:title=" ">
<polygon fill="white" stroke="#666666" points="572,-499 465,-499 465,-480 572,-480 572,-499"/>
<text text-anchor="middle" x="518.5" y="-487" font-family="Helvetica,sans-Serif" font-size="10.00">execute_logical_or</text>
</a>
</g>
</g>
<!-- Node11&#45;&gt;Node28 -->
<g id="edge19" class="edge">
<title>Node11&#45;&gt;Node28</title>
<path fill="none" stroke="#63b8ff" d="M356.41,-553.66C371.44,-538.84 408.52,-513.7 443,-499.5 446.89,-497.9 450.95,-496.4 455.08,-495.03"/>
<polygon fill="#63b8ff" stroke="#63b8ff" points="456.26,-498.33 464.79,-492.05 454.2,-491.64 456.26,-498.33"/>
</g>
<!-- Node29 -->
<g id="node19" class="node">
<title>Node29</title>
<g id="a_node19"><a xlink:href="execute__pipe_8c.html#a5f3546dc2c7cf06c982afba41e722164" target="_top" xlink:title=" ">
<polygon fill="#fff0f0" stroke="red" points="559,-462 478,-462 478,-443 559,-443 559,-462"/>
<text text-anchor="middle" x="518.5" y="-450" font-family="Helvetica,sans-Serif" font-size="10.00">execute_pipe</text>
</a>
</g>
</g>
<!-- Node11&#45;&gt;Node29 -->
<g id="edge21" class="edge">
<title>Node11&#45;&gt;Node29</title>
<path fill="none" stroke="#63b8ff" d="M356.52,-553.74C370.67,-534.85 404.52,-493.2 443,-471.5 450.69,-467.16 459.37,-463.8 468.03,-461.2"/>
<polygon fill="#63b8ff" stroke="#63b8ff" points="469,-464.56 477.73,-458.57 467.17,-457.8 469,-464.56"/>
</g>
<!-- Node34 -->
<g id="node22" class="node">
<title>Node34</title>
<g id="a_node22"><a xlink:href="execute__redirect_8c.html#a1004307aba80117ddd99f009e52fb155" target="_top" xlink:title=" ">
<polygon fill="#fff0f0" stroke="red" points="567.5,-723 469.5,-723 469.5,-704 567.5,-704 567.5,-723"/>
<text text-anchor="middle" x="518.5" y="-711" font-family="Helvetica,sans-Serif" font-size="10.00">execute_redirect</text>
</a>
</g>
</g>
<!-- Node11&#45;&gt;Node34 -->
<g id="edge26" class="edge">
<title>Node11&#45;&gt;Node34</title>
<path fill="none" stroke="#63b8ff" d="M353.48,-573.28C364.06,-597.98 395.35,-663.19 443,-695.5 448.01,-698.9 453.59,-701.65 459.38,-703.89"/>
<polygon fill="#63b8ff" stroke="#63b8ff" points="458.67,-707.34 469.26,-707.19 460.89,-700.7 458.67,-707.34"/>
</g>
<!-- Node42 -->
<g id="node23" class="node">
<title>Node42</title>
<g id="a_node23"><a xlink:href="execute__repeat_8c.html#a00d48683c54b50130b4a402e6e97fa97" target="_top" xlink:title=" ">
<polygon fill="white" stroke="#666666" points="564.5,-686 472.5,-686 472.5,-667 564.5,-667 564.5,-686"/>
<text text-anchor="middle" x="518.5" y="-674" font-family="Helvetica,sans-Serif" font-size="10.00">execute_repeat</text>
</a>
</g>
</g>
<!-- Node11&#45;&gt;Node42 -->
<g id="edge27" class="edge">
<title>Node11&#45;&gt;Node42</title>
<path fill="none" stroke="#63b8ff" d="M362.1,-573.03C378.69,-590.01 409.67,-623.69 443,-643.5 458.38,-652.64 477.64,-658.72 492.72,-663.7"/>
<polygon fill="#63b8ff" stroke="#63b8ff" points="491.8,-667.09 502.4,-667 494.06,-660.46 491.8,-667.09"/>
</g>
<!-- Node43 -->
<g id="node24" class="node">
<title>Node43</title>
<g id="a_node24"><a xlink:href="execute__sequence_8c.html#aad2caa5bf50b0752dd8272da477ec231" target="_top" xlink:title=" ">
<polygon fill="white" stroke="#666666" points="572,-610 465,-610 465,-591 572,-591 572,-610"/>
<text text-anchor="middle" x="518.5" y="-598" font-family="Helvetica,sans-Serif" font-size="10.00">execute_sequence</text>
</a>
</g>
</g>
<!-- Node11&#45;&gt;Node43 -->
<g id="edge29" class="edge">
<title>Node11&#45;&gt;Node43</title>
<path fill="none" stroke="#63b8ff" d="M386.37,-565.92C416.13,-570.99 457.57,-580.21 485.85,-588.11"/>
<polygon fill="#63b8ff" stroke="#63b8ff" points="485.04,-591.53 495.62,-590.96 487,-584.8 485.04,-591.53"/>
</g>
<!-- Node44 -->
<g id="node25" class="node">
<title>Node44</title>
<g id="a_node25"><a xlink:href="execute__subshell_8c.html#a40a27866de012b013a337f794a858d70" target="_top" xlink:title=" ">
<polygon fill="#fff0f0" stroke="red" points="569,-573 468,-573 468,-554 569,-554 569,-573"/>
<text text-anchor="middle" x="518.5" y="-561" font-family="Helvetica,sans-Serif" font-size="10.00">execute_subshell</text>
</a>
</g>
</g>
<!-- Node11&#45;&gt;Node44 -->
<g id="edge31" class="edge">
<title>Node11&#45;&gt;Node44</title>
<path fill="none" stroke="#63b8ff" d="M386.37,-557.8C407.33,-556.75 434.08,-556.49 457.94,-557.01"/>
<polygon fill="#63b8ff" stroke="#63b8ff" points="457.88,-560.51 467.97,-557.28 458.07,-553.51 457.88,-560.51"/>
</g>
<!-- Node13 -->
<g id="node13" class="node">
<title>Node13</title>
<g id="a_node13"><a xlink:href="execute__cmd_8c.html#a0cfd2364134e68efdd39533e00b4b0d9" target="_top" xlink:title=" ">
<polygon fill="#fff0f0" stroke="red" points="749.5,-686 630.5,-686 630.5,-667 749.5,-667 749.5,-686"/>
<text text-anchor="middle" x="690" y="-674" font-family="Helvetica,sans-Serif" font-size="10.00">execute_local_binary</text>
</a>
</g>
</g>
<!-- Node12&#45;&gt;Node13 -->
<g id="edge13" class="edge">
<title>Node12&#45;&gt;Node13</title>
<path fill="none" stroke="#63b8ff" d="M559.34,-745.18C571.03,-742.5 583.48,-738.5 594,-732.5 613.93,-721.14 610.5,-707.6 630,-695.5 633.35,-693.42 636.95,-691.55 640.66,-689.86"/>
<polygon fill="#63b8ff" stroke="#63b8ff" points="642.08,-693.07 650.03,-686.06 639.44,-686.58 642.08,-693.07"/>
</g>
<!-- Node21 -->
<g id="node14" class="node">
<title>Node21</title>
<g id="a_node14"><a xlink:href="execute__cmd_8c.html#a460126af28ab29df4340554fae9fc57a" target="_top" xlink:title=" ">
<polygon fill="#fff0f0" stroke="red" points="749,-760 631,-760 631,-741 749,-741 749,-760"/>
<text text-anchor="middle" x="690" y="-748" font-family="Helvetica,sans-Serif" font-size="10.00">execute_path_binary</text>
</a>
</g>
</g>
<!-- Node12&#45;&gt;Node21 -->
<g id="edge14" class="edge">
<title>Node12&#45;&gt;Node21</title>
<path fill="none" stroke="#63b8ff" d="M559.24,-750.5C577.57,-750.5 599.86,-750.5 620.76,-750.5"/>
<polygon fill="#63b8ff" stroke="#63b8ff" points="620.88,-754 630.88,-750.5 620.88,-747 620.88,-754"/>
</g>
<!-- Node26 -->
<g id="node16" class="node">
<title>Node26</title>
<g id="a_node16"><a xlink:href="strings_8h.html#a36f055c4e56c8a784629908d0c5b91e5" target="_top" xlink:title=" ">
<polygon fill="white" stroke="#666666" points="742,-723 638,-723 638,-704 742,-704 742,-723"/>
<text text-anchor="middle" x="690" y="-711" font-family="Helvetica,sans-Serif" font-size="10.00">my_is_char_in_str</text>
</a>
</g>
</g>
<!-- Node12&#45;&gt;Node26 -->
<g id="edge16" class="edge">
<title>Node12&#45;&gt;Node26</title>
<path fill="none" stroke="#63b8ff" d="M559.24,-741.83C581.94,-736.87 610.72,-730.59 635.4,-725.2"/>
<polygon fill="#63b8ff" stroke="#63b8ff" points="636.32,-728.58 645.34,-723.03 634.83,-721.74 636.32,-728.58"/>
</g>
<!-- Node22 -->
<g id="node15" class="node">
<title>Node22</title>
<g id="a_node15"><a xlink:href="get__variable__value_8c.html#a2edd9900f19af236aa05385a789be3d6" target="_top" xlink:title=" ">
<polygon fill="#fff0f0" stroke="red" points="896,-760 786,-760 786,-741 896,-741 896,-760"/>
<text text-anchor="middle" x="841" y="-748" font-family="Helvetica,sans-Serif" font-size="10.00">get_variable_value</text>
</a>
</g>
</g>
<!-- Node21&#45;&gt;Node22 -->
<g id="edge15" class="edge">
<title>Node21&#45;&gt;Node22</title>
<path fill="none" stroke="#63b8ff" d="M749.03,-750.5C757.73,-750.5 766.73,-750.5 775.55,-750.5"/>
<polygon fill="#63b8ff" stroke="#63b8ff" points="775.78,-754 785.78,-750.5 775.78,-747 775.78,-754"/>
</g>
<!-- Node27&#45;&gt;Node11 -->
<g id="edge18" class="edge">
<title>Node27&#45;&gt;Node11</title>
<path fill="none" stroke="#63b8ff" d="M495.62,-536.04C470.63,-543.64 428.99,-553.28 396.55,-559.27"/>
<polygon fill="#63b8ff" stroke="#63b8ff" points="395.6,-555.88 386.37,-561.08 396.83,-562.78 395.6,-555.88"/>
</g>
<!-- Node28&#45;&gt;Node11 -->
<g id="edge20" class="edge">
<title>Node28&#45;&gt;Node11</title>
<path fill="none" stroke="#63b8ff" d="M501.68,-499.07C486.31,-504.11 462.5,-509.47 443,-517.5 422.28,-526.03 400.63,-538.51 383.38,-548.53"/>
<polygon fill="#63b8ff" stroke="#63b8ff" points="381.19,-545.75 374.29,-553.79 384.7,-551.81 381.19,-545.75"/>
</g>
<!-- Node30 -->
<g id="node20" class="node">
<title>Node30</title>
<g id="a_node20"><a xlink:href="execute__pipe_8c.html#a723ff799f939872d17f109a82342294e" target="_top" xlink:title=" ">
<polygon fill="white" stroke="#666666" points="872,-481 810,-481 810,-462 872,-462 872,-481"/>
<text text-anchor="middle" x="841" y="-469" font-family="Helvetica,sans-Serif" font-size="10.00">close_fds</text>
</a>
</g>
</g>
<!-- Node29&#45;&gt;Node30 -->
<g id="edge22" class="edge">
<title>Node29&#45;&gt;Node30</title>
<path fill="none" stroke="#63b8ff" d="M559.12,-454.85C620.55,-458.49 738.11,-465.46 799.86,-469.12"/>
<polygon fill="#63b8ff" stroke="#63b8ff" points="799.8,-472.62 809.99,-469.72 800.21,-465.64 799.8,-472.62"/>
</g>
<!-- Node31 -->
<g id="node21" class="node">
<title>Node31</title>
<g id="a_node21"><a xlink:href="execute__pipe_8c.html#ac529ffc2370b0133613ef8a81e58ed85" target="_top" xlink:title=" ">
<polygon fill="white" stroke="#666666" points="741,-500 639,-500 639,-481 741,-481 741,-500"/>
<text text-anchor="middle" x="690" y="-488" font-family="Helvetica,sans-Serif" font-size="10.00">execute_pipe_left</text>
</a>
</g>
</g>
<!-- Node29&#45;&gt;Node31 -->
<g id="edge23" class="edge">
<title>Node29&#45;&gt;Node31</title>
<path fill="none" stroke="#63b8ff" d="M559.24,-461.41C582.29,-466.58 611.59,-473.15 636.52,-478.73"/>
<polygon fill="#63b8ff" stroke="#63b8ff" points="636.02,-482.21 646.55,-480.98 637.55,-475.38 636.02,-482.21"/>
</g>
<!-- Node31&#45;&gt;Node11 -->
<g id="edge25" class="edge">
<title>Node31&#45;&gt;Node11</title>
<path fill="none" stroke="#63b8ff" d="M685.54,-500.01C675.78,-525.21 645.38,-593.53 594,-619.5 534.11,-649.77 507.68,-637.39 443,-619.5 414.95,-611.74 386.85,-593.09 368.89,-579.43"/>
<polygon fill="#63b8ff" stroke="#63b8ff" points="370.96,-576.61 360.93,-573.2 366.64,-582.12 370.96,-576.61"/>
</g>
<!-- Node31&#45;&gt;Node30 -->
<g id="edge24" class="edge">
<title>Node31&#45;&gt;Node30</title>
<path fill="none" stroke="#63b8ff" d="M741.03,-484.12C760.2,-481.68 781.8,-478.92 799.92,-476.61"/>
<polygon fill="#63b8ff" stroke="#63b8ff" points="800.39,-480.08 809.87,-475.34 799.51,-473.14 800.39,-480.08"/>
</g>
<!-- Node42&#45;&gt;Node11 -->
<g id="edge28" class="edge">
<title>Node42&#45;&gt;Node11</title>
<path fill="none" stroke="#63b8ff" d="M472.36,-674.3C462.32,-671.15 451.99,-666.85 443,-661.5 407.77,-640.56 375.16,-604.12 359.4,-581.73"/>
<polygon fill="#63b8ff" stroke="#63b8ff" points="362.14,-579.52 353.73,-573.08 356.29,-583.36 362.14,-579.52"/>
</g>
<!-- Node43&#45;&gt;Node11 -->
<g id="edge30" class="edge">
<title>Node43&#45;&gt;Node11</title>
<path fill="none" stroke="#63b8ff" d="M464.79,-595.21C437.38,-589.97 404.79,-582.49 381.27,-575.92"/>
<polygon fill="#63b8ff" stroke="#63b8ff" points="382.04,-572.5 371.46,-573.07 380.09,-579.22 382.04,-572.5"/>
</g>
<!-- Node44&#45;&gt;Node11 -->
<g id="edge32" class="edge">
<title>Node44&#45;&gt;Node11</title>
<path fill="none" stroke="#63b8ff" d="M467.97,-569.72C445.41,-570.45 418.84,-570.43 396.58,-569.63"/>
<polygon fill="#63b8ff" stroke="#63b8ff" points="396.51,-566.13 386.37,-569.2 396.21,-573.12 396.51,-566.13"/>
</g>
<!-- Node46 -->
<g id="node27" class="node">
<title>Node46</title>
<g id="a_node27"><a xlink:href="empty__stdin_8c.html#a4c89df10296f2cc245e3a32065e04e7b" target="_top" xlink:title=" ">
<polygon fill="white" stroke="#666666" points="557,-388 480,-388 480,-369 557,-369 557,-388"/>
<text text-anchor="middle" x="518.5" y="-376" font-family="Helvetica,sans-Serif" font-size="10.00">empty_stdin</text>
</a>
</g>
</g>
<!-- Node45&#45;&gt;Node46 -->
<g id="edge34" class="edge">
<title>Node45&#45;&gt;Node46</title>
<path fill="none" stroke="#63b8ff" d="M394.08,-379.97C417.37,-379.69 445.88,-379.35 469.63,-379.07"/>
<polygon fill="#63b8ff" stroke="#63b8ff" points="469.87,-382.57 479.83,-378.95 469.79,-375.57 469.87,-382.57"/>
</g>
<!-- Node47 -->
<g id="node28" class="node">
<title>Node47</title>
<g id="a_node28"><a xlink:href="shell_8c.html#a2c9bd51744387dc73763281019d78622" target="_top" xlink:title=" ">
<polygon fill="#fff0f0" stroke="red" points="550.5,-425 486.5,-425 486.5,-406 550.5,-406 550.5,-425"/>
<text text-anchor="middle" x="518.5" y="-413" font-family="Helvetica,sans-Serif" font-size="10.00">parse_ast</text>
</a>
</g>
</g>
<!-- Node45&#45;&gt;Node47 -->
<g id="edge35" class="edge">
<title>Node45&#45;&gt;Node47</title>
<path fill="none" stroke="#63b8ff" d="M394.08,-389.79C419.63,-395.11 451.46,-401.74 476.4,-406.94"/>
<polygon fill="#63b8ff" stroke="#63b8ff" points="475.78,-410.38 486.28,-409 477.21,-403.53 475.78,-410.38"/>
</g>
<!-- Node47&#45;&gt;Node140 -->
<g id="edge36" class="edge">
<title>Node47&#45;&gt;Node140</title>
<path fill="none" stroke="#63b8ff" d="M550.59,-408.53C574.59,-403.15 608.35,-395.58 636.52,-389.27"/>
<polygon fill="#63b8ff" stroke="#63b8ff" points="637.63,-392.6 646.62,-387 636.09,-385.77 637.63,-392.6"/>
</g>
<!-- Node72 -->
<g id="node32" class="node">
<title>Node72</title>
<g id="a_node32"><a xlink:href="parser__next_8c.html#ad25986b565a767c6ad7d0b0b8846fca6" target="_top" xlink:title=" ">
<polygon fill="#fff0f0" stroke="red" points="555.5,-199 481.5,-199 481.5,-180 555.5,-180 555.5,-199"/>
<text text-anchor="middle" x="518.5" y="-187" font-family="Helvetica,sans-Serif" font-size="10.00">parser_next</text>
</a>
</g>
</g>
<!-- Node142&#45;&gt;Node72 -->
<g id="edge39" class="edge">
<title>Node142&#45;&gt;Node72</title>
<path fill="none" stroke="#63b8ff" d="M382.69,-169.44C408.07,-173.22 443.36,-178.47 471.47,-182.65"/>
<polygon fill="#63b8ff" stroke="#63b8ff" points="471.06,-186.13 481.47,-184.14 472.09,-179.2 471.06,-186.13"/>
</g>
<!-- Node72&#45;&gt;Node10 -->
<g id="edge40" class="edge">
<title>Node72&#45;&gt;Node10</title>
<path fill="none" stroke="#63b8ff" d="M555.81,-197.1C568.05,-199.97 581.72,-203.52 594,-207.5 616.14,-214.67 640.4,-224.67 658.87,-232.75"/>
<polygon fill="#63b8ff" stroke="#63b8ff" points="657.65,-236.04 668.21,-236.89 660.49,-229.64 657.65,-236.04"/>
</g>
<!-- Node144 -->
<g id="node34" class="node">
<title>Node144</title>
<g id="a_node34"><a xlink:href="env__to__list_8c.html#a11c46ed192ca0ad8a479ed9a317f135e" target="_top" xlink:title=" ">
<polygon fill="white" stroke="#666666" points="553.5,-873 483.5,-873 483.5,-854 553.5,-854 553.5,-873"/>
<text text-anchor="middle" x="518.5" y="-861" font-family="Helvetica,sans-Serif" font-size="10.00">env_to_list</text>
</a>
</g>
</g>
<!-- Node143&#45;&gt;Node144 -->
<g id="edge43" class="edge">
<title>Node143&#45;&gt;Node144</title>
<path fill="none" stroke="#63b8ff" d="M229.53,-816.01C244.15,-825.05 267.67,-838.17 290,-844.5 351.86,-862.03 426.68,-864.97 473.19,-864.78"/>
<polygon fill="#63b8ff" stroke="#63b8ff" points="473.27,-868.28 483.24,-864.68 473.21,-861.28 473.27,-868.28"/>
</g>
<!-- Node148 -->
<g id="node39" class="node">
<title>Node148</title>
<g id="a_node39"><a xlink:href="shell_8c.html#a2f5ec52df28b796cf8cd9edfc2f60913" target="_top" xlink:title=" ">
<polygon fill="white" stroke="#666666" points="389.5,-835 307.5,-835 307.5,-816 389.5,-816 389.5,-835"/>
<text text-anchor="middle" x="348.5" y="-823" font-family="Helvetica,sans-Serif" font-size="10.00">handle_sigint</text>
</a>
</g>
</g>
<!-- Node143&#45;&gt;Node148 -->
<g id="edge48" class="edge">
<title>Node143&#45;&gt;Node148</title>
<path fill="none" stroke="#63b8ff" d="M244.74,-810.76C260.17,-812.98 279.45,-815.74 297.13,-818.28"/>
<polygon fill="#63b8ff" stroke="#63b8ff" points="296.92,-821.78 307.31,-819.74 297.91,-814.85 296.92,-821.78"/>
</g>
<!-- Node149 -->
<g id="node40" class="node">
<title>Node149</title>
<g id="a_node40"><a xlink:href="shell_8c.html#ac1b8a9f89fea6c5f3626971f15195680" target="_top" xlink:title=" ">
<polygon fill="white" stroke="#666666" points="390,-798 307,-798 307,-779 390,-779 390,-798"/>
<text text-anchor="middle" x="348.5" y="-786" font-family="Helvetica,sans-Serif" font-size="10.00">init_variables</text>
</a>
</g>
</g>
<!-- Node143&#45;&gt;Node149 -->
<g id="edge49" class="edge">
<title>Node143&#45;&gt;Node149</title>
<path fill="none" stroke="#63b8ff" d="M244.74,-802.46C260.04,-800.38 279.13,-797.79 296.69,-795.4"/>
<polygon fill="#63b8ff" stroke="#63b8ff" points="297.37,-798.84 306.81,-794.03 296.43,-791.91 297.37,-798.84"/>
</g>
<!-- Node145 -->
<g id="node35" class="node">
<title>Node145</title>
<g id="a_node35"><a xlink:href="free__variable_8c.html#a6cfba30b5c98d6fa7663b6bc29fe01cc" target="_top" xlink:title=" ">
<polygon fill="white" stroke="#666666" points="730.5,-910 649.5,-910 649.5,-891 730.5,-891 730.5,-910"/>
<text text-anchor="middle" x="690" y="-898" font-family="Helvetica,sans-Serif" font-size="10.00">free_variable</text>
</a>
</g>
</g>
<!-- Node144&#45;&gt;Node145 -->
<g id="edge44" class="edge">
<title>Node144&#45;&gt;Node145</title>
<path fill="none" stroke="#63b8ff" d="M553.8,-870.99C578.44,-876.37 612.03,-883.7 639.56,-889.71"/>
<polygon fill="#63b8ff" stroke="#63b8ff" points="638.88,-893.14 649.4,-891.86 640.38,-886.3 638.88,-893.14"/>
</g>
<!-- Node146 -->
<g id="node36" class="node">
<title>Node146</title>
<g id="a_node36"><a xlink:href="list_8h.html#a56c2e407458d3d071ab549938bc5a7c1" target="_top" xlink:title=" ">
<polygon fill="white" stroke="#666666" points="735.5,-836 644.5,-836 644.5,-817 735.5,-817 735.5,-836"/>
<text text-anchor="middle" x="690" y="-824" font-family="Helvetica,sans-Serif" font-size="10.00">my_add_to_list</text>
</a>
</g>
</g>
<!-- Node144&#45;&gt;Node146 -->
<g id="edge45" class="edge">
<title>Node144&#45;&gt;Node146</title>
<path fill="none" stroke="#63b8ff" d="M553.8,-856.01C577.22,-850.9 608.71,-844.03 635.42,-838.2"/>
<polygon fill="#63b8ff" stroke="#63b8ff" points="636.36,-841.57 645.39,-836.02 634.87,-834.73 636.36,-841.57"/>
</g>
<!-- Node63 -->
<g id="node37" class="node">
<title>Node63</title>
<g id="a_node37"><a xlink:href="list_8h.html#a68908a98f87b64d0b0fa9ac090a70cad" target="_top" xlink:title=" ">
<polygon fill="white" stroke="#666666" points="728.5,-947 651.5,-947 651.5,-928 728.5,-928 728.5,-947"/>
<text text-anchor="middle" x="690" y="-935" font-family="Helvetica,sans-Serif" font-size="10.00">my_free_list</text>
</a>
</g>
</g>
<!-- Node144&#45;&gt;Node63 -->
<g id="edge46" class="edge">
<title>Node144&#45;&gt;Node63</title>
<path fill="none" stroke="#63b8ff" d="M553.6,-868.74C566.82,-871.75 581.71,-876.4 594,-883.5 613.59,-894.82 610.6,-907.85 630,-919.5 633.67,-921.7 637.63,-923.65 641.7,-925.38"/>
<polygon fill="#63b8ff" stroke="#63b8ff" points="640.72,-928.75 651.31,-929.02 643.19,-922.21 640.72,-928.75"/>
</g>
<!-- Node147 -->
<g id="node38" class="node">
<title>Node147</title>
<g id="a_node38"><a xlink:href="strings_8h.html#a27d061f38fee80ecc582a343015ebc5c" target="_top" xlink:title=" ">
<polygon fill="white" stroke="#666666" points="730,-873 650,-873 650,-854 730,-854 730,-873"/>
<text text-anchor="middle" x="690" y="-861" font-family="Helvetica,sans-Serif" font-size="10.00">my_getindex</text>
</a>
</g>
</g>
<!-- Node144&#45;&gt;Node147 -->
<g id="edge47" class="edge">
<title>Node144&#45;&gt;Node147</title>
<path fill="none" stroke="#63b8ff" d="M553.8,-863.5C578.42,-863.5 611.97,-863.5 639.48,-863.5"/>
<polygon fill="#63b8ff" stroke="#63b8ff" points="639.7,-867 649.7,-863.5 639.7,-860 639.7,-867"/>
</g>
<!-- Node149&#45;&gt;Node22 -->
<g id="edge50" class="edge">
<title>Node149&#45;&gt;Node22</title>
<path fill="none" stroke="#63b8ff" d="M390.05,-788.72C462.57,-788.64 619.16,-786.3 750,-769.5 763.63,-767.75 778.27,-765.03 791.7,-762.19"/>
<polygon fill="#63b8ff" stroke="#63b8ff" points="792.67,-765.56 801.69,-760.01 791.17,-758.72 792.67,-765.56"/>
</g>
<!-- Node150 -->
<g id="node41" class="node">
<title>Node150</title>
<g id="a_node41"><a xlink:href="set__variable_8c.html#a47afbd80fec3464fe83979a24adb4290" target="_top" xlink:title=" ">
<polygon fill="#fff0f0" stroke="red" points="557,-836 480,-836 480,-817 557,-817 557,-836"/>
<text text-anchor="middle" x="518.5" y="-824" font-family="Helvetica,sans-Serif" font-size="10.00">set_variable</text>
</a>
</g>
</g>
<!-- Node149&#45;&gt;Node150 -->
<g id="edge51" class="edge">
<title>Node149&#45;&gt;Node150</title>
<path fill="none" stroke="#63b8ff" d="M390.17,-797.7C414.15,-803.12 444.62,-810.02 469.75,-815.7"/>
<polygon fill="#63b8ff" stroke="#63b8ff" points="469.27,-819.18 479.79,-817.97 470.81,-812.35 469.27,-819.18"/>
</g>
<!-- Node150&#45;&gt;Node145 -->
<g id="edge52" class="edge">
<title>Node150&#45;&gt;Node145</title>
<path fill="none" stroke="#63b8ff" d="M557.05,-831.88C569.38,-834.72 582.79,-839.02 594,-845.5 613.86,-856.99 610.41,-870.55 630,-882.5 633.16,-884.43 636.54,-886.16 640.02,-887.72"/>
<polygon fill="#63b8ff" stroke="#63b8ff" points="638.82,-891.01 649.4,-891.44 641.4,-884.5 638.82,-891.01"/>
</g>
<!-- Node150&#45;&gt;Node146 -->
<g id="edge53" class="edge">
<title>Node150&#45;&gt;Node146</title>
<path fill="none" stroke="#63b8ff" d="M557.12,-826.5C579.75,-826.5 608.95,-826.5 634.12,-826.5"/>
<polygon fill="#63b8ff" stroke="#63b8ff" points="634.27,-830 644.27,-826.5 634.27,-823 634.27,-830"/>
</g>
<!-- Node94 -->
<g id="node43" class="node">
<title>Node94</title>
<g id="a_node43"><a xlink:href="strings_8h.html#a5e1589f073ac32d227dbc6020c376dab" target="_top" xlink:title=" ">
<polygon fill="white" stroke="#666666" points="399,-19 298,-19 298,0 399,0 399,-19"/>
<text text-anchor="middle" x="348.5" y="-7" font-family="Helvetica,sans-Serif" font-size="10.00">append_to_buffer</text>
</a>
</g>
</g>
<!-- Node153&#45;&gt;Node94 -->
<g id="edge55" class="edge">
<title>Node153&#45;&gt;Node94</title>
<path fill="none" stroke="#63b8ff" d="M225.41,-73.9C239.22,-61.61 264.82,-40.37 290,-27.5 293.51,-25.7 297.24,-24.05 301.04,-22.53"/>
<polygon fill="#63b8ff" stroke="#63b8ff" points="302.39,-25.76 310.57,-19.03 299.97,-19.19 302.39,-25.76"/>
</g>
<!-- Node154 -->
<g id="node44" class="node">
<title>Node154</title>
<g id="a_node44"><a xlink:href="read__input_8c.html#ab8f53813e21230b48d9ccdc4032c6bee" target="_top" xlink:title=" ">
<polygon fill="white" stroke="#666666" points="406.5,-93 290.5,-93 290.5,-74 406.5,-74 406.5,-93"/>
<text text-anchor="middle" x="348.5" y="-81" font-family="Helvetica,sans-Serif" font-size="10.00">handle_continuation</text>
</a>
</g>
</g>
<!-- Node153&#45;&gt;Node154 -->
<g id="edge56" class="edge">
<title>Node153&#45;&gt;Node154</title>
<path fill="none" stroke="#63b8ff" d="M248.09,-83.5C257.89,-83.5 269,-83.5 280.15,-83.5"/>
<polygon fill="#63b8ff" stroke="#63b8ff" points="280.36,-87 290.36,-83.5 280.36,-80 280.36,-87"/>
</g>
<!-- Node156 -->
<g id="node46" class="node">
<title>Node156</title>
<g id="a_node46"><a xlink:href="read__input_8c.html#a3282822bc1e8642066f4f88116a7a6cc" target="_top" xlink:title=" ">
<polygon fill="white" stroke="#666666" points="407,-56 290,-56 290,-37 407,-37 407,-56"/>
<text text-anchor="middle" x="348.5" y="-44" font-family="Helvetica,sans-Serif" font-size="10.00">handle_getline_error</text>
</a>
</g>
</g>
<!-- Node153&#45;&gt;Node156 -->
<g id="edge58" class="edge">
<title>Node153&#45;&gt;Node156</title>
<path fill="none" stroke="#63b8ff" d="M248.09,-74.26C264.91,-69.56 285.56,-63.8 303.68,-58.74"/>
<polygon fill="#63b8ff" stroke="#63b8ff" points="304.76,-62.07 313.45,-56.01 302.87,-55.33 304.76,-62.07"/>
</g>
<!-- Node157 -->
<g id="node47" class="node">
<title>Node157</title>
<g id="a_node47"><a xlink:href="read__input_8c.html#a274fec2b4095d4827436685c0b6b4afa" target="_top" xlink:title=" ">
<polygon fill="white" stroke="#666666" points="390,-130 307,-130 307,-111 390,-111 390,-130"/>
<text text-anchor="middle" x="348.5" y="-118" font-family="Helvetica,sans-Serif" font-size="10.00">show_prompt</text>
</a>
</g>
</g>
<!-- Node153&#45;&gt;Node157 -->
<g id="edge59" class="edge">
<title>Node153&#45;&gt;Node157</title>
<path fill="none" stroke="#63b8ff" d="M248.09,-92.74C264.91,-97.44 285.56,-103.2 303.68,-108.26"/>
<polygon fill="#63b8ff" stroke="#63b8ff" points="302.87,-111.67 313.45,-110.99 304.76,-104.93 302.87,-111.67"/>
</g>
<!-- Node155 -->
<g id="node45" class="node">
<title>Node155</title>
<g id="a_node45"><a xlink:href="read__input_8c.html#ab1d0f5b306ce10bb8fff68a7a4aaf428" target="_top" xlink:title=" ">
<polygon fill="white" stroke="#666666" points="566.5,-86 470.5,-86 470.5,-67 566.5,-67 566.5,-86"/>
<text text-anchor="middle" x="518.5" y="-74" font-family="Helvetica,sans-Serif" font-size="10.00">should_continue</text>
</a>
</g>
</g>
<!-- Node154&#45;&gt;Node155 -->
<g id="edge57" class="edge">
<title>Node154&#45;&gt;Node155</title>
<path fill="none" stroke="#63b8ff" d="M406.85,-81.11C424.01,-80.4 442.82,-79.61 459.99,-78.9"/>
<polygon fill="#63b8ff" stroke="#63b8ff" points="460.6,-82.37 470.44,-78.46 460.31,-75.38 460.6,-82.37"/>
</g>
<!-- Node158 -->
<g id="node48" class="node">
<title>Node158</title>
<g id="a_node48"><a xlink:href="read__input_8c.html#a6a144d0d5270ba0d210fcb5f39d7fc63" target="_top" xlink:title=" ">
<polygon fill="white" stroke="#666666" points="746.5,-143 633.5,-143 633.5,-124 746.5,-124 746.5,-143"/>
<text text-anchor="middle" x="690" y="-131" font-family="Helvetica,sans-Serif" font-size="10.00">print_prompt_prefix</text>
</a>
</g>
</g>
<!-- Node157&#45;&gt;Node158 -->
<g id="edge60" class="edge">
<title>Node157&#45;&gt;Node158</title>
<path fill="none" stroke="#63b8ff" d="M390.11,-122.06C447.79,-124.26 554.06,-128.33 623.11,-130.98"/>
<polygon fill="#63b8ff" stroke="#63b8ff" points="623.31,-134.49 633.43,-131.37 623.57,-127.49 623.31,-134.49"/>
</g>
<!-- Node159 -->
<g id="node49" class="node">
<title>Node159</title>
<g id="a_node49"><a xlink:href="read__input_8c.html#a95fff78135b5c85ed0ff754f303e28f7" target="_top" xlink:title=" ">
<polygon fill="white" stroke="#666666" points="594,-162 443,-162 443,-143 594,-143 594,-162"/>
<text text-anchor="middle" x="518.5" y="-150" font-family="Helvetica,sans-Serif" font-size="10.00">show_prompt_with_curr_dir</text>
</a>
</g>
</g>
<!-- Node157&#45;&gt;Node159 -->
<g id="edge61" class="edge">
<title>Node157&#45;&gt;Node159</title>
<path fill="none" stroke="#63b8ff" d="M390.17,-128.25C410.38,-132.1 435.2,-136.82 457.54,-141.08"/>
<polygon fill="#63b8ff" stroke="#63b8ff" points="457.13,-144.56 467.61,-143 458.44,-137.69 457.13,-144.56"/>
</g>
<!-- Node159&#45;&gt;Node22 -->
<g id="edge62" class="edge">
<title>Node159&#45;&gt;Node22</title>
<path fill="none" stroke="#63b8ff" d="M594.21,-156.59C646.22,-163.67 712.71,-181.98 750,-228.5 786.76,-274.36 776.02,-432.58 786,-490.5 801.56,-580.78 825.5,-687.55 835.43,-730.82"/>
<polygon fill="#63b8ff" stroke="#63b8ff" points="832.04,-731.67 837.7,-740.63 838.86,-730.1 832.04,-731.67"/>
</g>
<!-- Node159&#45;&gt;Node158 -->
<g id="edge63" class="edge">
<title>Node159&#45;&gt;Node158</title>
<path fill="none" stroke="#63b8ff" d="M594.34,-144.11C603.98,-143.03 613.79,-141.93 623.27,-140.87"/>
<polygon fill="#63b8ff" stroke="#63b8ff" points="623.85,-144.33 633.4,-139.73 623.07,-137.37 623.85,-144.33"/>
</g>
<!-- Node160&#45;&gt;Node145 -->
<g id="edge65" class="edge">
<title>Node160&#45;&gt;Node145</title>
<path fill="none" stroke="#63b8ff" d="M559.67,-901.26C583.5,-901.12 613.91,-900.94 639.26,-900.79"/>
<polygon fill="#63b8ff" stroke="#63b8ff" points="639.43,-904.29 649.41,-900.73 639.39,-897.29 639.43,-904.29"/>
</g>
<!-- Node160&#45;&gt;Node63 -->
<g id="edge66" class="edge">
<title>Node160&#45;&gt;Node63</title>
<path fill="none" stroke="#63b8ff" d="M559.67,-910.03C584.21,-915.24 615.73,-921.94 641.51,-927.41"/>
<polygon fill="#63b8ff" stroke="#63b8ff" points="640.93,-930.87 651.44,-929.52 642.39,-924.02 640.93,-930.87"/>
</g>
</g>
</svg>
        <g id="navigator" transform="translate(0 0)" fill="#404254">
                <rect fill="#f2f5e9" fill-opacity="0.5" stroke="#606060" stroke-width=".5" x="0" y="0" width="60" height="60"/>
                <use id="zoomplus" xlink:href="#zoomPlus" x="17" y="9" onmousedown="handleZoom(evt,'in')"/>
                <use id="zoomminus" xlink:href="#zoomMin" x="42" y="9" onmousedown="handleZoom(evt,'out')"/>
                <use id="reset" xlink:href="#resetDef" x="30" y="36" onmousedown="handleReset()"/>
                <g id="arrowUp" xlink:href="#dirArrow" transform="translate(30 24)" onmousedown="handlePan(0,-1)">
                  <use xlink:href="#rim" fill="#404040">
                        <set attributeName="fill" to="#808080" begin="arrowUp.mouseover" end="arrowUp.mouseout"/>
                  </use>
                  <path fill="none" stroke="white" stroke-width="1.5" d="M0,-3.0v7 M-2.5,-0.5L0,-3.0L2.5,-0.5"/>
                </g>
                <g id="arrowRight" xlink:href="#dirArrow" transform="rotate(90) translate(36 -43)" onmousedown="handlePan(1,0)">
                  <use xlink:href="#rim" fill="#404040">
                        <set attributeName="fill" to="#808080" begin="arrowRight.mouseover" end="arrowRight.mouseout"/>
                  </use>
                  <path fill="none" stroke="white" stroke-width="1.5" d="M0,-3.0v7 M-2.5,-0.5L0,-3.0L2.5,-0.5"/>
                </g>
                <g id="arrowDown" xlink:href="#dirArrow" transform="rotate(180) translate(-30 -48)" onmousedown="handlePan(0,1)">
                  <use xlink:href="#rim" fill="#404040">
                        <set attributeName="fill" to="#808080" begin="arrowDown.mouseover" end="arrowDown.mouseout"/>
                  </use>
                  <path fill="none" stroke="white" stroke-width="1.5" d="M0,-3.0v7 M-2.5,-0.5L0,-3.0L2.5,-0.5"/>
                </g>
                <g id="arrowLeft" xlink:href="#dirArrow" transform="rotate(270) translate(-36 17)" onmousedown="handlePan(-1,0)">
                  <use xlink:href="#rim" fill="#404040">
                        <set attributeName="fill" to="#808080" begin="arrowLeft.mouseover" end="arrowLeft.mouseout"/>
                  </use>
                  <path fill="none" stroke="white" stroke-width="1.5" d="M0,-3.0v7 M-2.5,-0.5L0,-3.0L2.5,-0.5"/>
                </g>
        </g>
        <svg viewBox="0 0 15 15" width="100%" height="30px" preserveAspectRatio="xMaxYMin meet">
         <g id="arrow_out" transform="scale(0.3 0.3)">
          <a xlink:href="main_8c_aee7801bc627f70f446a37ec861000c35_cgraph_org.svg" target="_base">
           <rect id="button" ry="5" rx="5" y="6" x="6" height="38" width="38"
                fill="#f2f5e9" fill-opacity="0.5" stroke="#606060" stroke-width="1.0"/>
           <path id="arrow"
             d="M 11.500037,31.436501 C 11.940474,20.09759 22.043105,11.32322 32.158766,21.979434 L 37.068811,17.246167 C 37.068811,17.246167 37.088388,32 37.088388,32 L 22.160133,31.978069 C 22.160133,31.978069 26.997745,27.140456 26.997745,27.140456 C 18.528582,18.264221 13.291696,25.230495 11.500037,31.436501 z"
             style="fill:#404040;"/>
          </a>
         </g>
        </svg>
</svg>
