<?xml version="1.0" encoding="UTF-8" standalone="no"?>
<!DOCTYPE svg PUBLIC "-//W3C//DTD SVG 1.1//EN"
 "http://www.w3.org/Graphics/SVG/1.1/DTD/svg11.dtd">
<!-- Generated by graphviz version 2.43.0 (0)
 -->
<!-- Title: src/main.c Pages: 1 -->
<svg width="358pt" height="192pt"
 viewBox="0.00 0.00 358.00 192.00" xmlns="http://www.w3.org/2000/svg" xmlns:xlink="http://www.w3.org/1999/xlink">
<g id="graph0" class="graph" transform="scale(1 1) rotate(0) translate(4 188)">
<title>src/main.c</title>
<!-- Node1 -->
<g id="node1" class="node">
<title>Node1</title>
<g id="a_node1"><a xlink:title=" ">
<polygon fill="#999999" stroke="#666666" points="198,-184 131,-184 131,-165 198,-165 198,-184"/>
<text text-anchor="middle" x="164.5" y="-172" font-family="Helvetica,sans-Serif" font-size="10.00">src/main.c</text>
</a>
</g>
</g>
<!-- Node2 -->
<g id="node2" class="node">
<title>Node2</title>
<g id="a_node2"><a xlink:title=" ">
<polygon fill="#e0e0e0" stroke="#999999" points="51,-129 0,-129 0,-110 51,-110 51,-129"/>
<text text-anchor="middle" x="25.5" y="-117" font-family="Helvetica,sans-Serif" font-size="10.00">errno.h</text>
</a>
</g>
</g>
<!-- Node1&#45;&gt;Node2 -->
<g id="edge1" class="edge">
<title>Node1&#45;&gt;Node2</title>
<path fill="none" stroke="#63b8ff" d="M142.17,-164.98C119.3,-156.27 83.54,-142.63 57.64,-132.75"/>
<polygon fill="#63b8ff" stroke="#63b8ff" points="58.83,-129.46 48.24,-129.17 56.34,-136 58.83,-129.46"/>
</g>
<!-- Node3 -->
<g id="node3" class="node">
<title>Node3</title>
<g id="a_node3"><a xlink:title=" ">
<polygon fill="#e0e0e0" stroke="#999999" points="119.5,-129 69.5,-129 69.5,-110 119.5,-110 119.5,-129"/>
<text text-anchor="middle" x="94.5" y="-117" font-family="Helvetica,sans-Serif" font-size="10.00">stdio.h</text>
</a>
</g>
</g>
<!-- Node1&#45;&gt;Node3 -->
<g id="edge2" class="edge">
<title>Node1&#45;&gt;Node3</title>
<path fill="none" stroke="#63b8ff" d="M153.25,-164.98C142.7,-157 126.7,-144.88 114.06,-135.31"/>
<polygon fill="#63b8ff" stroke="#63b8ff" points="116.04,-132.42 105.95,-129.17 111.81,-138 116.04,-132.42"/>
</g>
<!-- Node4 -->
<g id="node4" class="node">
<title>Node4</title>
<g id="a_node4"><a xlink:title=" ">
<polygon fill="#e0e0e0" stroke="#999999" points="191,-129 138,-129 138,-110 191,-110 191,-129"/>
<text text-anchor="middle" x="164.5" y="-117" font-family="Helvetica,sans-Serif" font-size="10.00">string.h</text>
</a>
</g>
</g>
<!-- Node1&#45;&gt;Node4 -->
<g id="edge3" class="edge">
<title>Node1&#45;&gt;Node4</title>
<path fill="none" stroke="#63b8ff" d="M164.5,-164.75C164.5,-157.8 164.5,-147.85 164.5,-139.13"/>
<polygon fill="#63b8ff" stroke="#63b8ff" points="168,-139.09 164.5,-129.09 161,-139.09 168,-139.09"/>
</g>
<!-- Node5 -->
<g id="node5" class="node">
<title>Node5</title>
<g id="a_node5"><a xlink:href="misc_8h.html" target="_top" xlink:title=" ">
<polygon fill="white" stroke="#666666" points="277.5,-129 209.5,-129 209.5,-110 277.5,-110 277.5,-129"/>
<text text-anchor="middle" x="243.5" y="-117" font-family="Helvetica,sans-Serif" font-size="10.00">my/misc.h</text>
</a>
</g>
</g>
<!-- Node1&#45;&gt;Node5 -->
<g id="edge4" class="edge">
<title>Node1&#45;&gt;Node5</title>
<path fill="none" stroke="#63b8ff" d="M177.19,-164.98C189.33,-156.84 207.86,-144.41 222.25,-134.76"/>
<polygon fill="#63b8ff" stroke="#63b8ff" points="224.22,-137.65 230.58,-129.17 220.32,-131.84 224.22,-137.65"/>
</g>
<!-- Node6 -->
<g id="node6" class="node">
<title>Node6</title>
<g id="a_node6"><a xlink:href="shell_8h.html" target="_top" xlink:title=" ">
<polygon fill="white" stroke="#666666" points="345,-129 296,-129 296,-110 345,-110 345,-129"/>
<text text-anchor="middle" x="320.5" y="-117" font-family="Helvetica,sans-Serif" font-size="10.00">shell.h</text>
</a>
</g>
</g>
<!-- Node1&#45;&gt;Node6 -->
<g id="edge5" class="edge">
<title>Node1&#45;&gt;Node6</title>
<path fill="none" stroke="#63b8ff" d="M189.56,-164.98C215.68,-156.11 256.79,-142.14 285.98,-132.23"/>
<polygon fill="#63b8ff" stroke="#63b8ff" points="287.41,-135.44 295.76,-128.91 285.16,-128.81 287.41,-135.44"/>
</g>
<!-- Node7 -->
<g id="node7" class="node">
<title>Node7</title>
<g id="a_node7"><a xlink:href="list_8h.html" target="_top" xlink:title=" ">
<polygon fill="white" stroke="#666666" points="350,-74 291,-74 291,-55 350,-55 350,-74"/>
<text text-anchor="middle" x="320.5" y="-62" font-family="Helvetica,sans-Serif" font-size="10.00">my/list.h</text>
</a>
</g>
</g>
<!-- Node6&#45;&gt;Node7 -->
<g id="edge6" class="edge">
<title>Node6&#45;&gt;Node7</title>
<path fill="none" stroke="#63b8ff" d="M320.5,-109.75C320.5,-102.8 320.5,-92.85 320.5,-84.13"/>
<polygon fill="#63b8ff" stroke="#63b8ff" points="324,-84.09 320.5,-74.09 317,-84.09 324,-84.09"/>
</g>
<!-- Node8 -->
<g id="node8" class="node">
<title>Node8</title>
<g id="a_node8"><a xlink:title=" ">
<polygon fill="#e0e0e0" stroke="#999999" points="348.5,-19 292.5,-19 292.5,0 348.5,0 348.5,-19"/>
<text text-anchor="middle" x="320.5" y="-7" font-family="Helvetica,sans-Serif" font-size="10.00">stddef.h</text>
</a>
</g>
</g>
<!-- Node7&#45;&gt;Node8 -->
<g id="edge7" class="edge">
<title>Node7&#45;&gt;Node8</title>
<path fill="none" stroke="#63b8ff" d="M320.5,-54.75C320.5,-47.8 320.5,-37.85 320.5,-29.13"/>
<polygon fill="#63b8ff" stroke="#63b8ff" points="324,-29.09 320.5,-19.09 317,-29.09 324,-29.09"/>
</g>
</g>
</svg>
