<?xml version="1.0" encoding="UTF-8" standalone="no"?>
<!DOCTYPE svg PUBLIC "-//W3C//DTD SVG 1.1//EN"
 "http://www.w3.org/Graphics/SVG/1.1/DTD/svg11.dtd">
<!-- Generated by graphviz version 2.43.0 (0)
 -->
<!-- Title: main Pages: 1 -->
<!--zoomable 923 -->
<svg id="main" version="1.1" xmlns="http://www.w3.org/2000/svg" xmlns:xlink="http://www.w3.org/1999/xlink" xml:space="preserve" onload="init(evt)">
<style type="text/css"><![CDATA[
.edge:hover path { stroke: red; }
.edge:hover polygon { stroke: red; fill: red; }
]]></style>
<script type="text/javascript"><![CDATA[
var edges = document.getElementsByTagName('g');
if (edges && edges.length) {
  for (var i=0;i<edges.length;i++) {
    if (edges[i].id.substr(0,4)=='edge') {
      edges[i].setAttribute('class','edge');
    }
  }
}
]]></script>
        <defs>
                <circle id="rim" cx="0" cy="0" r="7"/>
                <circle id="rim2" cx="0" cy="0" r="3.5"/>
                <g id="zoomPlus">
                        <use xlink:href="#rim" fill="#404040">
                                <set attributeName="fill" to="#808080" begin="zoomplus.mouseover" end="zoomplus.mouseout"/>
                        </use>
                        <path d="M-4,0h8M0,-4v8" fill="none" stroke="white" stroke-width="1.5" pointer-events="none"/>
                </g>
                <g id="zoomMin">
                        <use xlink:href="#rim" fill="#404040">
                                <set attributeName="fill" to="#808080" begin="zoomminus.mouseover" end="zoomminus.mouseout"/>
                        </use>
                        <path d="M-4,0h8" fill="none" stroke="white" stroke-width="1.5" pointer-events="none"/>
                </g>
                <g id="dirArrow">
                        <path fill="none" stroke="white" stroke-width="1.5" d="M0,-3.0v7 M-2.5,-0.5L0,-3.0L2.5,-0.5"/>
                </g>
               <g id="resetDef">
                       <use xlink:href="#rim2" fill="#404040">
                               <set attributeName="fill" to="#808080" begin="reset.mouseover" end="reset.mouseout"/>
                       </use>
               </g>
        </defs>

<script type="text/javascript">
var viewWidth = 904;
var viewHeight = 923;
var sectionId = 'dynsection-1';
</script>
<script xlink:href="svgpan.js"/>
<svg id="graph" class="graph">
<g id="viewport">
<title>main</title>
<!-- Node1 -->
<g id="node1" class="node">
<title>Node1</title>
<g id="a_node1"><a xlink:title=" ">
<polygon fill="#999999" stroke="#666666" points="41,-746 0,-746 0,-727 41,-727 41,-746"/>
<text text-anchor="middle" x="20.5" y="-734" font-family="Helvetica,sans-Serif" font-size="10.00">main</text>
</a>
</g>
</g>
<!-- Node2 -->
<g id="node2" class="node">
<title>Node2</title>
<g id="a_node2"><a xlink:href="main_8c.html#a47e2a08216f6362d8656efaac70e4a95" target="_top" xlink:title=" ">
<polygon fill="white" stroke="#666666" points="138,-765 77,-765 77,-746 138,-746 138,-765"/>
<text text-anchor="middle" x="107.5" y="-753" font-family="Helvetica,sans-Serif" font-size="10.00">open_file</text>
</a>
</g>
</g>
<!-- Node1&#45;&gt;Node2 -->
<g id="edge1" class="edge">
<title>Node1&#45;&gt;Node2</title>
<path fill="none" stroke="#63b8ff" d="M41.21,-740.91C48.91,-742.63 58.02,-744.66 66.96,-746.66"/>
<polygon fill="#63b8ff" stroke="#63b8ff" points="66.37,-750.12 76.89,-748.88 67.89,-743.28 66.37,-750.12"/>
</g>
<!-- Node3 -->
<g id="node3" class="node">
<title>Node3</title>
<g id="a_node3"><a xlink:href="shell_8c.html#ad0c642810cef7d35602fd99eaec9e3de" target="_top" xlink:title=" ">
<polygon fill="white" stroke="#666666" points="138,-728 77,-728 77,-709 138,-709 138,-728"/>
<text text-anchor="middle" x="107.5" y="-716" font-family="Helvetica,sans-Serif" font-size="10.00">shell_run</text>
</a>
</g>
</g>
<!-- Node1&#45;&gt;Node3 -->
<g id="edge2" class="edge">
<title>Node1&#45;&gt;Node3</title>
<path fill="none" stroke="#63b8ff" d="M41.21,-732.33C48.91,-730.7 58.02,-728.77 66.96,-726.87"/>
<polygon fill="#63b8ff" stroke="#63b8ff" points="67.83,-730.27 76.89,-724.77 66.38,-723.42 67.83,-730.27"/>
</g>
<!-- Node4 -->
<g id="node4" class="node">
<title>Node4</title>
<g id="a_node4"><a xlink:href="shell_8c.html#afb5215a1775326d8976fd015f7832392" target="_top" xlink:title=" ">
<polygon fill="white" stroke="#666666" points="254,-152 174,-152 174,-133 254,-133 254,-152"/>
<text text-anchor="middle" x="214" y="-140" font-family="Helvetica,sans-Serif" font-size="10.00">handle_input</text>
</a>
</g>
</g>
<!-- Node3&#45;&gt;Node4 -->
<g id="edge3" class="edge">
<title>Node3&#45;&gt;Node4</title>
<path fill="none" stroke="#63b8ff" d="M110.23,-708.98C122.17,-643.13 192.58,-255.06 209.39,-162.38"/>
<polygon fill="#63b8ff" stroke="#63b8ff" points="212.87,-162.83 211.21,-152.36 205.98,-161.58 212.87,-162.83"/>
</g>
<!-- Node136 -->
<g id="node33" class="node">
<title>Node136</title>
<g id="a_node33"><a xlink:href="shell_8c.html#a97dcf9b752b6ad482f8da89b8340b5af" target="_top" xlink:title=" ">
<polygon fill="white" stroke="#666666" points="244.5,-822 183.5,-822 183.5,-803 244.5,-803 244.5,-822"/>
<text text-anchor="middle" x="214" y="-810" font-family="Helvetica,sans-Serif" font-size="10.00">init_shell</text>
</a>
</g>
</g>
<!-- Node3&#45;&gt;Node136 -->
<g id="edge45" class="edge">
<title>Node3&#45;&gt;Node136</title>
<path fill="none" stroke="#63b8ff" d="M124.85,-728.16C129.26,-730.99 133.92,-734.21 138,-737.5 150.04,-747.21 178.58,-776.48 196.77,-795.45"/>
<polygon fill="#63b8ff" stroke="#63b8ff" points="194.42,-798.05 203.86,-802.86 199.48,-793.22 194.42,-798.05"/>
</g>
<!-- Node146 -->
<g id="node42" class="node">
<title>Node146</title>
<g id="a_node42"><a xlink:href="read__input_8c.html#a2fe39fff6bf08a12813712b31615a1fb" target="_top" xlink:title=" ">
<polygon fill="white" stroke="#666666" points="248,-691 180,-691 180,-672 248,-672 248,-691"/>
<text text-anchor="middle" x="214" y="-679" font-family="Helvetica,sans-Serif" font-size="10.00">read_input</text>
</a>
</g>
</g>
<!-- Node3&#45;&gt;Node146 -->
<g id="edge57" class="edge">
<title>Node3&#45;&gt;Node146</title>
<path fill="none" stroke="#63b8ff" d="M135.41,-708.97C147.87,-704.56 162.86,-699.25 176.33,-694.48"/>
<polygon fill="#63b8ff" stroke="#63b8ff" points="177.56,-697.76 185.82,-691.12 175.22,-691.16 177.56,-697.76"/>
</g>
<!-- Node153 -->
<g id="node50" class="node">
<title>Node153</title>
<g id="a_node50"><a xlink:href="shell_8c.html#a352d0fde24e5d22d7e92d3fcb05dab19" target="_top" xlink:title=" ">
<polygon fill="white" stroke="#666666" points="559.5,-804 477.5,-804 477.5,-785 559.5,-785 559.5,-804"/>
<text text-anchor="middle" x="518.5" y="-792" font-family="Helvetica,sans-Serif" font-size="10.00">shell_destroy</text>
</a>
</g>
</g>
<!-- Node3&#45;&gt;Node153 -->
<g id="edge67" class="edge">
<title>Node3&#45;&gt;Node153</title>
<path fill="none" stroke="#63b8ff" d="M138.24,-724.03C207.66,-736.93 381.01,-769.14 467.2,-785.15"/>
<polygon fill="#63b8ff" stroke="#63b8ff" points="466.8,-788.64 477.27,-787.02 468.08,-781.76 466.8,-788.64"/>
</g>
<!-- Node5 -->
<g id="node5" class="node">
<title>Node5</title>
<g id="a_node5"><a xlink:href="ast__destroy_8c.html#a04c67d7ab492f6e1e7bc44dc70faa057" target="_top" xlink:title=" ">
<polygon fill="white" stroke="#666666" points="385.5,-497 311.5,-497 311.5,-478 385.5,-478 385.5,-497"/>
<text text-anchor="middle" x="348.5" y="-485" font-family="Helvetica,sans-Serif" font-size="10.00">ast_destroy</text>
</a>
</g>
</g>
<!-- Node4&#45;&gt;Node5 -->
<g id="edge4" class="edge">
<title>Node4&#45;&gt;Node5</title>
<path fill="none" stroke="#63b8ff" d="M216.63,-152.43C222.72,-187.98 246.05,-311.71 290,-404.5 301.52,-428.83 319.91,-453.84 332.78,-469.95"/>
<polygon fill="#63b8ff" stroke="#63b8ff" points="330.26,-472.39 339.29,-477.93 335.68,-467.97 330.26,-472.39"/>
</g>
<!-- Node7 -->
<g id="node7" class="node">
<title>Node7</title>
<g id="a_node7"><a xlink:href="execute__ast_8c.html#ad26a20a665ab7fdeb714ed53c1afd104" target="_top" xlink:title=" ">
<polygon fill="white" stroke="#666666" points="386,-395 311,-395 311,-376 386,-376 386,-395"/>
<text text-anchor="middle" x="348.5" y="-383" font-family="Helvetica,sans-Serif" font-size="10.00">execute_ast</text>
</a>
</g>
</g>
<!-- Node4&#45;&gt;Node7 -->
<g id="edge7" class="edge">
<title>Node4&#45;&gt;Node7</title>
<path fill="none" stroke="#63b8ff" d="M220.19,-152.03C239.98,-188.31 310.85,-318.28 337.38,-366.93"/>
<polygon fill="#63b8ff" stroke="#63b8ff" points="334.34,-368.67 342.2,-375.78 340.48,-365.32 334.34,-368.67"/>
</g>
<!-- Node41 -->
<g id="node24" class="node">
<title>Node41</title>
<g id="a_node24"><a xlink:href="shell_8c.html#a6e35892cfa82c5f227b10f37abc529e9" target="_top" xlink:title=" ">
<polygon fill="white" stroke="#666666" points="394,-56 303,-56 303,-37 394,-37 394,-56"/>
<text text-anchor="middle" x="348.5" y="-44" font-family="Helvetica,sans-Serif" font-size="10.00">handle_parsing</text>
</a>
</g>
</g>
<!-- Node4&#45;&gt;Node41 -->
<g id="edge34" class="edge">
<title>Node4&#45;&gt;Node41</title>
<path fill="none" stroke="#63b8ff" d="M222.87,-132.94C235.63,-117.94 262.22,-88.71 290,-70.5 295.96,-66.6 302.65,-63.11 309.31,-60.09"/>
<polygon fill="#63b8ff" stroke="#63b8ff" points="311.12,-63.13 318.96,-56 308.39,-56.68 311.12,-63.13"/>
</g>
<!-- Node132 -->
<g id="node27" class="node">
<title>Node132</title>
<g id="a_node27"><a xlink:href="shell_8c.html#a1ce512725ee0371f8bf608a3ece0c152" target="_top" xlink:title=" ">
<polygon fill="white" stroke="#666666" points="750,-57 630,-57 630,-38 750,-38 750,-57"/>
<text text-anchor="middle" x="690" y="-45" font-family="Helvetica,sans-Serif" font-size="10.00">show_error_message</text>
</a>
</g>
</g>
<!-- Node4&#45;&gt;Node132 -->
<g id="edge44" class="edge">
<title>Node4&#45;&gt;Node132</title>
<path fill="none" stroke="#63b8ff" d="M230.47,-132.98C245.22,-124.38 268.33,-112.08 290,-105.5 420.41,-65.94 459.44,-87.08 594,-65.5 606.04,-63.57 618.9,-61.28 631.14,-59"/>
<polygon fill="#63b8ff" stroke="#63b8ff" points="632.07,-62.39 641.25,-57.09 630.77,-55.51 632.07,-62.39"/>
</g>
<!-- Node133 -->
<g id="node28" class="node">
<title>Node133</title>
<g id="a_node28"><a xlink:href="lexer__init_8c.html#aee55447f2c8b083ed2614fa4f439f9cc" target="_top" xlink:title=" ">
<polygon fill="white" stroke="#666666" points="379.5,-19 317.5,-19 317.5,0 379.5,0 379.5,-19"/>
<text text-anchor="middle" x="348.5" y="-7" font-family="Helvetica,sans-Serif" font-size="10.00">lexer_init</text>
</a>
</g>
</g>
<!-- Node4&#45;&gt;Node133 -->
<g id="edge38" class="edge">
<title>Node4&#45;&gt;Node133</title>
<path fill="none" stroke="#63b8ff" d="M218.61,-132.86C227.35,-110.82 251.81,-56.42 290,-27.5 295.2,-23.56 301.28,-20.48 307.49,-18.06"/>
<polygon fill="#63b8ff" stroke="#63b8ff" points="308.91,-21.28 317.28,-14.78 306.68,-14.64 308.91,-21.28"/>
</g>
<!-- Node134 -->
<g id="node29" class="node">
<title>Node134</title>
<g id="a_node29"><a xlink:href="parser__destroy_8c.html#ae2656460a6fc6b6cd65624312fe0c943" target="_top" xlink:title=" ">
<polygon fill="white" stroke="#666666" points="393,-133 304,-133 304,-114 393,-114 393,-133"/>
<text text-anchor="middle" x="348.5" y="-121" font-family="Helvetica,sans-Serif" font-size="10.00">parser_destroy</text>
</a>
</g>
</g>
<!-- Node4&#45;&gt;Node134 -->
<g id="edge39" class="edge">
<title>Node4&#45;&gt;Node134</title>
<path fill="none" stroke="#63b8ff" d="M254.04,-136.9C266.45,-135.12 280.4,-133.12 293.66,-131.22"/>
<polygon fill="#63b8ff" stroke="#63b8ff" points="294.23,-134.67 303.63,-129.79 293.24,-127.75 294.23,-134.67"/>
</g>
<!-- Node135 -->
<g id="node31" class="node">
<title>Node135</title>
<g id="a_node31"><a xlink:href="parser__init_8c.html#a7a5dc445fa057a393d0b94590acea2f1" target="_top" xlink:title=" ">
<polygon fill="white" stroke="#666666" points="382.5,-170 314.5,-170 314.5,-151 382.5,-151 382.5,-170"/>
<text text-anchor="middle" x="348.5" y="-158" font-family="Helvetica,sans-Serif" font-size="10.00">parser_init</text>
</a>
</g>
</g>
<!-- Node4&#45;&gt;Node135 -->
<g id="edge41" class="edge">
<title>Node4&#45;&gt;Node135</title>
<path fill="none" stroke="#63b8ff" d="M254.04,-147.8C269.69,-149.93 287.8,-152.39 303.89,-154.58"/>
<polygon fill="#63b8ff" stroke="#63b8ff" points="303.74,-158.09 314.12,-155.97 304.68,-151.15 303.74,-158.09"/>
</g>
<!-- Node5&#45;&gt;Node5 -->
<g id="edge5" class="edge">
<title>Node5&#45;&gt;Node5</title>
<path fill="none" stroke="#63b8ff" d="M327.85,-497.08C317.8,-505.73 324.68,-515 348.5,-515 363.76,-515 372.07,-511.2 373.43,-506.19"/>
<polygon fill="#63b8ff" stroke="#63b8ff" points="376.57,-504.65 369.15,-497.08 370.23,-507.62 376.57,-504.65"/>
</g>
<!-- Node6 -->
<g id="node6" class="node">
<title>Node6</title>
<g id="a_node6"><a xlink:href="misc_8h.html#a1180cae2875b1fdcd58c9f9175a82c12" target="_top" xlink:title=" ">
<polygon fill="white" stroke="#666666" points="577,-580 460,-580 460,-561 577,-561 577,-580"/>
<text text-anchor="middle" x="518.5" y="-568" font-family="Helvetica,sans-Serif" font-size="10.00">my_free_word_array</text>
</a>
</g>
</g>
<!-- Node5&#45;&gt;Node6 -->
<g id="edge6" class="edge">
<title>Node5&#45;&gt;Node6</title>
<path fill="none" stroke="#63b8ff" d="M360.47,-497.19C377.13,-511.41 410.36,-537.83 443,-552.5 447.59,-554.56 452.44,-556.4 457.39,-558.05"/>
<polygon fill="#63b8ff" stroke="#63b8ff" points="456.37,-561.4 466.96,-560.98 458.42,-554.71 456.37,-561.4"/>
</g>
<!-- Node8 -->
<g id="node8" class="node">
<title>Node8</title>
<g id="a_node8"><a xlink:href="execute__cmd_8c.html#a94ea9cc5a046ce96e36764bf0e4fa2c0" target="_top" xlink:title=" ">
<polygon fill="white" stroke="#666666" points="559,-358 478,-358 478,-339 559,-339 559,-358"/>
<text text-anchor="middle" x="518.5" y="-346" font-family="Helvetica,sans-Serif" font-size="10.00">execute_cmd</text>
</a>
</g>
</g>
<!-- Node7&#45;&gt;Node8 -->
<g id="edge8" class="edge">
<title>Node7&#45;&gt;Node8</title>
<path fill="none" stroke="#63b8ff" d="M386.37,-377.38C410.24,-372.12 441.63,-365.21 467.71,-359.47"/>
<polygon fill="#63b8ff" stroke="#63b8ff" points="468.77,-362.82 477.79,-357.25 467.27,-355.98 468.77,-362.82"/>
</g>
<!-- Node23 -->
<g id="node13" class="node">
<title>Node23</title>
<g id="a_node13"><a xlink:href="execute__logical__and_8c.html#a4f940752faf9f9a258c49810b21efe47" target="_top" xlink:title=" ">
<polygon fill="white" stroke="#666666" points="576.5,-432 460.5,-432 460.5,-413 576.5,-413 576.5,-432"/>
<text text-anchor="middle" x="518.5" y="-420" font-family="Helvetica,sans-Serif" font-size="10.00">execute_logical_and</text>
</a>
</g>
</g>
<!-- Node7&#45;&gt;Node23 -->
<g id="edge13" class="edge">
<title>Node7&#45;&gt;Node23</title>
<path fill="none" stroke="#63b8ff" d="M386.37,-387.92C416.13,-392.99 457.57,-402.21 485.85,-410.11"/>
<polygon fill="#63b8ff" stroke="#63b8ff" points="485.04,-413.53 495.62,-412.96 487,-406.8 485.04,-413.53"/>
</g>
<!-- Node24 -->
<g id="node14" class="node">
<title>Node24</title>
<g id="a_node14"><a xlink:href="execute__logical__or_8c.html#a7e732d7c30b07010fa55850051007dcc" target="_top" xlink:title=" ">
<polygon fill="white" stroke="#666666" points="572,-395 465,-395 465,-376 572,-376 572,-395"/>
<text text-anchor="middle" x="518.5" y="-383" font-family="Helvetica,sans-Serif" font-size="10.00">execute_logical_or</text>
</a>
</g>
</g>
<!-- Node7&#45;&gt;Node24 -->
<g id="edge15" class="edge">
<title>Node7&#45;&gt;Node24</title>
<path fill="none" stroke="#63b8ff" d="M386.37,-379.8C406.39,-378.8 431.7,-378.51 454.73,-378.95"/>
<polygon fill="#63b8ff" stroke="#63b8ff" points="454.7,-382.45 464.78,-379.18 454.87,-375.45 454.7,-382.45"/>
</g>
<!-- Node25 -->
<g id="node15" class="node">
<title>Node25</title>
<g id="a_node15"><a xlink:href="execute__pipe_8c.html#a5f3546dc2c7cf06c982afba41e722164" target="_top" xlink:title=" ">
<polygon fill="white" stroke="#666666" points="559,-244 478,-244 478,-225 559,-225 559,-244"/>
<text text-anchor="middle" x="518.5" y="-232" font-family="Helvetica,sans-Serif" font-size="10.00">execute_pipe</text>
</a>
</g>
</g>
<!-- Node7&#45;&gt;Node25 -->
<g id="edge17" class="edge">
<title>Node7&#45;&gt;Node25</title>
<path fill="none" stroke="#63b8ff" d="M353.9,-375.95C365.21,-352.4 397.67,-291.13 443,-258.5 450.53,-253.08 459.35,-248.84 468.23,-245.54"/>
<polygon fill="#63b8ff" stroke="#63b8ff" points="469.46,-248.82 477.83,-242.32 467.23,-242.18 469.46,-248.82"/>
</g>
<!-- Node30 -->
<g id="node20" class="node">
<title>Node30</title>
<g id="a_node20"><a xlink:href="execute__redirect_8c.html#a1004307aba80117ddd99f009e52fb155" target="_top" xlink:title=" ">
<polygon fill="#fff0f0" stroke="red" points="567.5,-543 469.5,-543 469.5,-524 567.5,-524 567.5,-543"/>
<text text-anchor="middle" x="518.5" y="-531" font-family="Helvetica,sans-Serif" font-size="10.00">execute_redirect</text>
</a>
</g>
</g>
<!-- Node7&#45;&gt;Node30 -->
<g id="edge26" class="edge">
<title>Node7&#45;&gt;Node30</title>
<path fill="none" stroke="#63b8ff" d="M356.3,-395.34C376.78,-424.93 436.89,-511.39 443,-515.5 448.02,-518.88 453.61,-521.62 459.41,-523.86"/>
<polygon fill="#63b8ff" stroke="#63b8ff" points="458.7,-527.31 469.29,-527.15 460.91,-520.67 458.7,-527.31"/>
</g>
<!-- Node38 -->
<g id="node21" class="node">
<title>Node38</title>
<g id="a_node21"><a xlink:href="execute__repeat_8c.html#a00d48683c54b50130b4a402e6e97fa97" target="_top" xlink:title=" ">
<polygon fill="white" stroke="#666666" points="564.5,-506 472.5,-506 472.5,-487 564.5,-487 564.5,-506"/>
<text text-anchor="middle" x="518.5" y="-494" font-family="Helvetica,sans-Serif" font-size="10.00">execute_repeat</text>
</a>
</g>
</g>
<!-- Node7&#45;&gt;Node38 -->
<g id="edge27" class="edge">
<title>Node7&#45;&gt;Node38</title>
<path fill="none" stroke="#63b8ff" d="M360.88,-395.23C376.83,-413.25 407.83,-449.83 443,-469.5 456.14,-476.85 472.22,-481.22 486.07,-484.58"/>
<polygon fill="#63b8ff" stroke="#63b8ff" points="485.61,-488.07 496.15,-486.99 487.24,-481.26 485.61,-488.07"/>
</g>
<!-- Node39 -->
<g id="node22" class="node">
<title>Node39</title>
<g id="a_node22"><a xlink:href="execute__sequence_8c.html#aad2caa5bf50b0752dd8272da477ec231" target="_top" xlink:title=" ">
<polygon fill="white" stroke="#666666" points="572,-469 465,-469 465,-450 572,-450 572,-469"/>
<text text-anchor="middle" x="518.5" y="-457" font-family="Helvetica,sans-Serif" font-size="10.00">execute_sequence</text>
</a>
</g>
</g>
<!-- Node7&#45;&gt;Node39 -->
<g id="edge29" class="edge">
<title>Node7&#45;&gt;Node39</title>
<path fill="none" stroke="#63b8ff" d="M373.43,-395.18C391.72,-405.98 417.96,-422.25 443,-432.5 458.36,-438.78 476.44,-443.22 490.94,-447.15"/>
<polygon fill="#63b8ff" stroke="#63b8ff" points="490.2,-450.58 500.78,-449.95 492.11,-443.85 490.2,-450.58"/>
</g>
<!-- Node40 -->
<g id="node23" class="node">
<title>Node40</title>
<g id="a_node23"><a xlink:href="execute__subshell_8c.html#a40a27866de012b013a337f794a858d70" target="_top" xlink:title=" ">
<polygon fill="white" stroke="#666666" points="569,-207 468,-207 468,-188 569,-188 569,-207"/>
<text text-anchor="middle" x="518.5" y="-195" font-family="Helvetica,sans-Serif" font-size="10.00">execute_subshell</text>
</a>
</g>
</g>
<!-- Node7&#45;&gt;Node40 -->
<g id="edge31" class="edge">
<title>Node7&#45;&gt;Node40</title>
<path fill="none" stroke="#63b8ff" d="M351.06,-375.8C357.53,-344.99 384.61,-252.59 443,-207.5 447.67,-203.89 452.95,-200.97 458.49,-198.64"/>
<polygon fill="#63b8ff" stroke="#63b8ff" points="459.73,-201.91 467.99,-195.27 457.39,-195.31 459.73,-201.91"/>
</g>
<!-- Node9 -->
<g id="node9" class="node">
<title>Node9</title>
<g id="a_node9"><a xlink:href="execute__cmd_8c.html#a0cfd2364134e68efdd39533e00b4b0d9" target="_top" xlink:title=" ">
<polygon fill="#fff0f0" stroke="red" points="749.5,-394 630.5,-394 630.5,-375 749.5,-375 749.5,-394"/>
<text text-anchor="middle" x="690" y="-382" font-family="Helvetica,sans-Serif" font-size="10.00">execute_local_binary</text>
</a>
</g>
</g>
<!-- Node8&#45;&gt;Node9 -->
<g id="edge9" class="edge">
<title>Node8&#45;&gt;Node9</title>
<path fill="none" stroke="#63b8ff" d="M559.24,-356.94C581.6,-361.69 609.85,-367.69 634.28,-372.88"/>
<polygon fill="#63b8ff" stroke="#63b8ff" points="633.62,-376.32 644.13,-374.97 635.08,-369.47 633.62,-376.32"/>
</g>
<!-- Node17 -->
<g id="node10" class="node">
<title>Node17</title>
<g id="a_node10"><a xlink:href="execute__cmd_8c.html#a460126af28ab29df4340554fae9fc57a" target="_top" xlink:title=" ">
<polygon fill="#fff0f0" stroke="red" points="749,-505 631,-505 631,-486 749,-486 749,-505"/>
<text text-anchor="middle" x="690" y="-493" font-family="Helvetica,sans-Serif" font-size="10.00">execute_path_binary</text>
</a>
</g>
</g>
<!-- Node8&#45;&gt;Node17 -->
<g id="edge10" class="edge">
<title>Node8&#45;&gt;Node17</title>
<path fill="none" stroke="#63b8ff" d="M559.11,-353.39C571.04,-356.18 583.69,-360.58 594,-367.5 615.76,-382.1 657.33,-445.17 677.48,-476.99"/>
<polygon fill="#63b8ff" stroke="#63b8ff" points="674.71,-479.17 683,-485.77 680.64,-475.44 674.71,-479.17"/>
</g>
<!-- Node22 -->
<g id="node12" class="node">
<title>Node22</title>
<g id="a_node12"><a xlink:href="strings_8h.html#a36f055c4e56c8a784629908d0c5b91e5" target="_top" xlink:title=" ">
<polygon fill="white" stroke="#666666" points="742,-357 638,-357 638,-338 742,-338 742,-357"/>
<text text-anchor="middle" x="690" y="-345" font-family="Helvetica,sans-Serif" font-size="10.00">my_is_char_in_str</text>
</a>
</g>
</g>
<!-- Node8&#45;&gt;Node22 -->
<g id="edge12" class="edge">
<title>Node8&#45;&gt;Node22</title>
<path fill="none" stroke="#63b8ff" d="M559.24,-348.27C579.61,-348.15 604.85,-348 627.65,-347.86"/>
<polygon fill="#63b8ff" stroke="#63b8ff" points="627.95,-351.36 637.93,-347.8 627.91,-344.36 627.95,-351.36"/>
</g>
<!-- Node18 -->
<g id="node11" class="node">
<title>Node18</title>
<g id="a_node11"><a xlink:href="get__variable__value_8c.html#a2edd9900f19af236aa05385a789be3d6" target="_top" xlink:title=" ">
<polygon fill="#fff0f0" stroke="red" points="896,-617 786,-617 786,-598 896,-598 896,-617"/>
<text text-anchor="middle" x="841" y="-605" font-family="Helvetica,sans-Serif" font-size="10.00">get_variable_value</text>
</a>
</g>
</g>
<!-- Node17&#45;&gt;Node18 -->
<g id="edge11" class="edge">
<title>Node17&#45;&gt;Node18</title>
<path fill="none" stroke="#63b8ff" d="M703.7,-505.05C729.43,-524.39 787.92,-568.35 819.26,-591.91"/>
<polygon fill="#63b8ff" stroke="#63b8ff" points="817.23,-594.76 827.33,-597.98 821.44,-589.17 817.23,-594.76"/>
</g>
<!-- Node23&#45;&gt;Node7 -->
<g id="edge14" class="edge">
<title>Node23&#45;&gt;Node7</title>
<path fill="none" stroke="#63b8ff" d="M460.47,-416.37C433.95,-411.18 403.41,-404.11 381.1,-397.87"/>
<polygon fill="#63b8ff" stroke="#63b8ff" points="382.04,-394.5 371.46,-395.07 380.09,-401.22 382.04,-394.5"/>
</g>
<!-- Node24&#45;&gt;Node7 -->
<g id="edge16" class="edge">
<title>Node24&#45;&gt;Node7</title>
<path fill="none" stroke="#63b8ff" d="M464.78,-391.82C442.89,-392.45 417.69,-392.39 396.45,-391.63"/>
<polygon fill="#63b8ff" stroke="#63b8ff" points="396.51,-388.13 386.37,-391.2 396.21,-395.12 396.51,-388.13"/>
</g>
<!-- Node26 -->
<g id="node16" class="node">
<title>Node26</title>
<g id="a_node16"><a xlink:href="execute__pipe_8c.html#a723ff799f939872d17f109a82342294e" target="_top" xlink:title=" ">
<polygon fill="white" stroke="#666666" points="872,-282 810,-282 810,-263 872,-263 872,-282"/>
<text text-anchor="middle" x="841" y="-270" font-family="Helvetica,sans-Serif" font-size="10.00">close_fds</text>
</a>
</g>
</g>
<!-- Node25&#45;&gt;Node26 -->
<g id="edge18" class="edge">
<title>Node25&#45;&gt;Node26</title>
<path fill="none" stroke="#63b8ff" d="M559.22,-236.6C605.27,-239.36 683.4,-244.98 750,-254.5 766.43,-256.85 784.4,-260.27 799.92,-263.5"/>
<polygon fill="#63b8ff" stroke="#63b8ff" points="799.22,-266.92 809.73,-265.58 800.68,-260.08 799.22,-266.92"/>
</g>
<!-- Node27 -->
<g id="node17" class="node">
<title>Node27</title>
<g id="a_node17"><a xlink:href="execute__pipe_8c.html#ac529ffc2370b0133613ef8a81e58ed85" target="_top" xlink:title=" ">
<polygon fill="white" stroke="#666666" points="741,-319 639,-319 639,-300 741,-300 741,-319"/>
<text text-anchor="middle" x="690" y="-307" font-family="Helvetica,sans-Serif" font-size="10.00">execute_pipe_left</text>
</a>
</g>
</g>
<!-- Node25&#45;&gt;Node27 -->
<g id="edge19" class="edge">
<title>Node25&#45;&gt;Node27</title>
<path fill="none" stroke="#63b8ff" d="M535.91,-244.15C557.11,-256.35 595.41,-277.43 630,-291.5 634.54,-293.34 639.33,-295.1 644.15,-296.75"/>
<polygon fill="#63b8ff" stroke="#63b8ff" points="643.41,-300.19 654.01,-299.96 645.58,-293.53 643.41,-300.19"/>
</g>
<!-- Node28 -->
<g id="node18" class="node">
<title>Node28</title>
<g id="a_node18"><a xlink:href="execute__pipe_8c.html#a9ed6eabb8a9f7049f91265a5f45e30c8" target="_top" xlink:title=" ">
<polygon fill="#fff0f0" stroke="red" points="744.5,-282 635.5,-282 635.5,-263 744.5,-263 744.5,-282"/>
<text text-anchor="middle" x="690" y="-270" font-family="Helvetica,sans-Serif" font-size="10.00">execute_pipe_right</text>
</a>
</g>
</g>
<!-- Node25&#45;&gt;Node28 -->
<g id="edge22" class="edge">
<title>Node25&#45;&gt;Node28</title>
<path fill="none" stroke="#63b8ff" d="M559.24,-243.41C582.29,-248.58 611.59,-255.15 636.52,-260.73"/>
<polygon fill="#63b8ff" stroke="#63b8ff" points="636.02,-264.21 646.55,-262.98 637.55,-257.38 636.02,-264.21"/>
</g>
<!-- Node15 -->
<g id="node19" class="node">
<title>Node15</title>
<g id="a_node19"><a xlink:href="wait__for__subprocess_8c.html#a1242d78540fd0ddef3d98a9f294cb0d4" target="_top" xlink:title=" ">
<polygon fill="#fff0f0" stroke="red" points="748,-206 632,-206 632,-187 748,-187 748,-206"/>
<text text-anchor="middle" x="690" y="-194" font-family="Helvetica,sans-Serif" font-size="10.00">wait_for_subprocess</text>
</a>
</g>
</g>
<!-- Node25&#45;&gt;Node15 -->
<g id="edge25" class="edge">
<title>Node25&#45;&gt;Node15</title>
<path fill="none" stroke="#63b8ff" d="M559.24,-225.59C582.29,-220.42 611.59,-213.85 636.52,-208.27"/>
<polygon fill="#63b8ff" stroke="#63b8ff" points="637.55,-211.62 646.55,-206.02 636.02,-204.79 637.55,-211.62"/>
</g>
<!-- Node27&#45;&gt;Node7 -->
<g id="edge21" class="edge">
<title>Node27&#45;&gt;Node7</title>
<path fill="none" stroke="#63b8ff" d="M638.73,-307.36C588.1,-306.68 508.35,-309.68 443,-330.5 415.71,-339.2 387.84,-356.98 369.71,-369.97"/>
<polygon fill="#63b8ff" stroke="#63b8ff" points="367.62,-367.17 361.64,-375.91 371.77,-372.8 367.62,-367.17"/>
</g>
<!-- Node27&#45;&gt;Node26 -->
<g id="edge20" class="edge">
<title>Node27&#45;&gt;Node26</title>
<path fill="none" stroke="#63b8ff" d="M729.37,-299.97C750.96,-294.61 777.88,-287.92 799.77,-282.49"/>
<polygon fill="#63b8ff" stroke="#63b8ff" points="800.88,-285.82 809.74,-280.01 799.2,-279.03 800.88,-285.82"/>
</g>
<!-- Node28&#45;&gt;Node7 -->
<g id="edge24" class="edge">
<title>Node28&#45;&gt;Node7</title>
<path fill="none" stroke="#63b8ff" d="M635.23,-270.39C583.7,-270.37 504.83,-275.69 443,-303.5 410.07,-318.31 380.26,-348.77 363.55,-368.11"/>
<polygon fill="#63b8ff" stroke="#63b8ff" points="360.77,-365.97 357.02,-375.88 366.13,-370.47 360.77,-365.97"/>
</g>
<!-- Node28&#45;&gt;Node26 -->
<g id="edge23" class="edge">
<title>Node28&#45;&gt;Node26</title>
<path fill="none" stroke="#63b8ff" d="M744.79,-272.5C762.88,-272.5 782.73,-272.5 799.61,-272.5"/>
<polygon fill="#63b8ff" stroke="#63b8ff" points="799.69,-276 809.69,-272.5 799.69,-269 799.69,-276"/>
</g>
<!-- Node38&#45;&gt;Node7 -->
<g id="edge28" class="edge">
<title>Node38&#45;&gt;Node7</title>
<path fill="none" stroke="#63b8ff" d="M472.28,-498.5C462.25,-496.12 451.94,-492.5 443,-487.5 406.12,-466.87 373.82,-427.65 358.66,-403.99"/>
<polygon fill="#63b8ff" stroke="#63b8ff" points="361.54,-401.98 353.41,-395.19 355.53,-405.57 361.54,-401.98"/>
</g>
<!-- Node39&#45;&gt;Node7 -->
<g id="edge30" class="edge">
<title>Node39&#45;&gt;Node7</title>
<path fill="none" stroke="#63b8ff" d="M464.76,-457.78C457.34,-455.77 449.9,-453.32 443,-450.5 412.9,-438.19 381.07,-417.16 363.4,-401.95"/>
<polygon fill="#63b8ff" stroke="#63b8ff" points="365.65,-399.26 355.94,-395.02 360.88,-404.39 365.65,-399.26"/>
</g>
<!-- Node40&#45;&gt;Node7 -->
<g id="edge32" class="edge">
<title>Node40&#45;&gt;Node7</title>
<path fill="none" stroke="#63b8ff" d="M490.39,-207.04C475.15,-210.31 456.52,-215.06 443,-225.5 394.87,-262.67 368,-332 356.43,-366.06"/>
<polygon fill="#63b8ff" stroke="#63b8ff" points="353.03,-365.2 353.21,-375.8 359.68,-367.41 353.03,-365.2"/>
</g>
<!-- Node40&#45;&gt;Node15 -->
<g id="edge33" class="edge">
<title>Node40&#45;&gt;Node15</title>
<path fill="none" stroke="#63b8ff" d="M569.44,-197.21C585.85,-197.11 604.36,-197 621.83,-196.9"/>
<polygon fill="#63b8ff" stroke="#63b8ff" points="622,-200.4 631.98,-196.84 621.96,-193.4 622,-200.4"/>
</g>
<!-- Node42 -->
<g id="node25" class="node">
<title>Node42</title>
<g id="a_node25"><a xlink:href="empty__stdin_8c.html#a4c89df10296f2cc245e3a32065e04e7b" target="_top" xlink:title=" ">
<polygon fill="white" stroke="#666666" points="557,-56 480,-56 480,-37 557,-37 557,-56"/>
<text text-anchor="middle" x="518.5" y="-44" font-family="Helvetica,sans-Serif" font-size="10.00">empty_stdin</text>
</a>
</g>
</g>
<!-- Node41&#45;&gt;Node42 -->
<g id="edge35" class="edge">
<title>Node41&#45;&gt;Node42</title>
<path fill="none" stroke="#63b8ff" d="M394.08,-46.5C417.37,-46.5 445.88,-46.5 469.63,-46.5"/>
<polygon fill="#63b8ff" stroke="#63b8ff" points="469.83,-50 479.83,-46.5 469.83,-43 469.83,-50"/>
</g>
<!-- Node43 -->
<g id="node26" class="node">
<title>Node43</title>
<g id="a_node26"><a xlink:href="shell_8c.html#a2c9bd51744387dc73763281019d78622" target="_top" xlink:title=" ">
<polygon fill="#fff0f0" stroke="red" points="550.5,-19 486.5,-19 486.5,0 550.5,0 550.5,-19"/>
<text text-anchor="middle" x="518.5" y="-7" font-family="Helvetica,sans-Serif" font-size="10.00">parse_ast</text>
</a>
</g>
</g>
<!-- Node41&#45;&gt;Node43 -->
<g id="edge36" class="edge">
<title>Node41&#45;&gt;Node43</title>
<path fill="none" stroke="#63b8ff" d="M392.76,-36.97C418.48,-31.31 450.93,-24.16 476.28,-18.58"/>
<polygon fill="#63b8ff" stroke="#63b8ff" points="477.3,-21.94 486.32,-16.37 475.8,-15.1 477.3,-21.94"/>
</g>
<!-- Node43&#45;&gt;Node132 -->
<g id="edge37" class="edge">
<title>Node43&#45;&gt;Node132</title>
<path fill="none" stroke="#63b8ff" d="M550.59,-16.47C574.59,-21.85 608.35,-29.42 636.52,-35.73"/>
<polygon fill="#63b8ff" stroke="#63b8ff" points="636.09,-39.23 646.62,-38 637.63,-32.4 636.09,-39.23"/>
</g>
<!-- Node113 -->
<g id="node30" class="node">
<title>Node113</title>
<g id="a_node30"><a xlink:href="destroy__token_8c.html#ad1a471ee7b1ccb035d769be1152a370c" target="_top" xlink:title=" ">
<polygon fill="white" stroke="#666666" points="733,-150 647,-150 647,-131 733,-131 733,-150"/>
<text text-anchor="middle" x="690" y="-138" font-family="Helvetica,sans-Serif" font-size="10.00">token_destroy</text>
</a>
</g>
</g>
<!-- Node134&#45;&gt;Node113 -->
<g id="edge40" class="edge">
<title>Node134&#45;&gt;Node113</title>
<path fill="none" stroke="#63b8ff" d="M393.19,-125.69C455.49,-128.81 569.7,-134.53 636.51,-137.87"/>
<polygon fill="#63b8ff" stroke="#63b8ff" points="636.65,-141.38 646.81,-138.39 637,-134.39 636.65,-141.38"/>
</g>
<!-- Node68 -->
<g id="node32" class="node">
<title>Node68</title>
<g id="a_node32"><a xlink:href="parser__next_8c.html#ad25986b565a767c6ad7d0b0b8846fca6" target="_top" xlink:title=" ">
<polygon fill="#fff0f0" stroke="red" points="555.5,-170 481.5,-170 481.5,-151 555.5,-151 555.5,-170"/>
<text text-anchor="middle" x="518.5" y="-158" font-family="Helvetica,sans-Serif" font-size="10.00">parser_next</text>
</a>
</g>
</g>
<!-- Node135&#45;&gt;Node68 -->
<g id="edge42" class="edge">
<title>Node135&#45;&gt;Node68</title>
<path fill="none" stroke="#63b8ff" d="M382.69,-160.5C407.96,-160.5 443.05,-160.5 471.1,-160.5"/>
<polygon fill="#63b8ff" stroke="#63b8ff" points="471.47,-164 481.47,-160.5 471.47,-157 471.47,-164"/>
</g>
<!-- Node68&#45;&gt;Node113 -->
<g id="edge43" class="edge">
<title>Node68&#45;&gt;Node113</title>
<path fill="none" stroke="#63b8ff" d="M555.86,-156.21C579.39,-153.43 610.41,-149.77 636.58,-146.69"/>
<polygon fill="#63b8ff" stroke="#63b8ff" points="637.2,-150.14 646.72,-145.49 636.38,-143.19 637.2,-150.14"/>
</g>
<!-- Node137 -->
<g id="node34" class="node">
<title>Node137</title>
<g id="a_node34"><a xlink:href="env__to__list_8c.html#a11c46ed192ca0ad8a479ed9a317f135e" target="_top" xlink:title=" ">
<polygon fill="white" stroke="#666666" points="553.5,-878 483.5,-878 483.5,-859 553.5,-859 553.5,-878"/>
<text text-anchor="middle" x="518.5" y="-866" font-family="Helvetica,sans-Serif" font-size="10.00">env_to_list</text>
</a>
</g>
</g>
<!-- Node136&#45;&gt;Node137 -->
<g id="edge46" class="edge">
<title>Node136&#45;&gt;Node137</title>
<path fill="none" stroke="#63b8ff" d="M229.52,-822.03C244.14,-831.08 267.66,-844.22 290,-850.5 351.88,-867.89 426.69,-870.47 473.2,-870.02"/>
<polygon fill="#63b8ff" stroke="#63b8ff" points="473.3,-873.52 483.25,-869.88 473.2,-866.52 473.3,-873.52"/>
</g>
<!-- Node141 -->
<g id="node39" class="node">
<title>Node141</title>
<g id="a_node39"><a xlink:href="shell_8c.html#a2f5ec52df28b796cf8cd9edfc2f60913" target="_top" xlink:title=" ">
<polygon fill="white" stroke="#666666" points="389.5,-804 307.5,-804 307.5,-785 389.5,-785 389.5,-804"/>
<text text-anchor="middle" x="348.5" y="-792" font-family="Helvetica,sans-Serif" font-size="10.00">handle_sigint</text>
</a>
</g>
</g>
<!-- Node136&#45;&gt;Node141 -->
<g id="edge51" class="edge">
<title>Node136&#45;&gt;Node141</title>
<path fill="none" stroke="#63b8ff" d="M244.74,-808.46C260.17,-806.36 279.45,-803.74 297.13,-801.34"/>
<polygon fill="#63b8ff" stroke="#63b8ff" points="297.87,-804.77 307.31,-799.96 296.93,-797.84 297.87,-804.77"/>
</g>
<!-- Node142 -->
<g id="node40" class="node">
<title>Node142</title>
<g id="a_node40"><a xlink:href="shell_8c.html#ac1b8a9f89fea6c5f3626971f15195680" target="_top" xlink:title=" ">
<polygon fill="white" stroke="#666666" points="390,-841 307,-841 307,-822 390,-822 390,-841"/>
<text text-anchor="middle" x="348.5" y="-829" font-family="Helvetica,sans-Serif" font-size="10.00">init_variables</text>
</a>
</g>
</g>
<!-- Node136&#45;&gt;Node142 -->
<g id="edge52" class="edge">
<title>Node136&#45;&gt;Node142</title>
<path fill="none" stroke="#63b8ff" d="M244.74,-816.76C260.04,-818.96 279.13,-821.7 296.69,-824.21"/>
<polygon fill="#63b8ff" stroke="#63b8ff" points="296.42,-827.71 306.81,-825.67 297.41,-820.78 296.42,-827.71"/>
</g>
<!-- Node138 -->
<g id="node35" class="node">
<title>Node138</title>
<g id="a_node35"><a xlink:href="free__variable_8c.html#a6cfba30b5c98d6fa7663b6bc29fe01cc" target="_top" xlink:title=" ">
<polygon fill="white" stroke="#666666" points="730.5,-804 649.5,-804 649.5,-785 730.5,-785 730.5,-804"/>
<text text-anchor="middle" x="690" y="-792" font-family="Helvetica,sans-Serif" font-size="10.00">free_variable</text>
</a>
</g>
</g>
<!-- Node137&#45;&gt;Node138 -->
<g id="edge47" class="edge">
<title>Node137&#45;&gt;Node138</title>
<path fill="none" stroke="#63b8ff" d="M553.64,-864.4C566.87,-861.77 581.75,-857.48 594,-850.5 613.93,-839.14 610.5,-825.6 630,-813.5 633.35,-811.42 636.95,-809.55 640.66,-807.86"/>
<polygon fill="#63b8ff" stroke="#63b8ff" points="642.08,-811.07 650.03,-804.06 639.44,-804.58 642.08,-811.07"/>
</g>
<!-- Node139 -->
<g id="node36" class="node">
<title>Node139</title>
<g id="a_node36"><a xlink:href="list_8h.html#a56c2e407458d3d071ab549938bc5a7c1" target="_top" xlink:title=" ">
<polygon fill="white" stroke="#666666" points="735.5,-878 644.5,-878 644.5,-859 735.5,-859 735.5,-878"/>
<text text-anchor="middle" x="690" y="-866" font-family="Helvetica,sans-Serif" font-size="10.00">my_add_to_list</text>
</a>
</g>
</g>
<!-- Node137&#45;&gt;Node139 -->
<g id="edge48" class="edge">
<title>Node137&#45;&gt;Node139</title>
<path fill="none" stroke="#63b8ff" d="M553.8,-868.5C576.86,-868.5 607.75,-868.5 634.18,-868.5"/>
<polygon fill="#63b8ff" stroke="#63b8ff" points="634.45,-872 644.45,-868.5 634.45,-865 634.45,-872"/>
</g>
<!-- Node59 -->
<g id="node37" class="node">
<title>Node59</title>
<g id="a_node37"><a xlink:href="list_8h.html#a68908a98f87b64d0b0fa9ac090a70cad" target="_top" xlink:title=" ">
<polygon fill="white" stroke="#666666" points="728.5,-841 651.5,-841 651.5,-822 728.5,-822 728.5,-841"/>
<text text-anchor="middle" x="690" y="-829" font-family="Helvetica,sans-Serif" font-size="10.00">my_free_list</text>
</a>
</g>
</g>
<!-- Node137&#45;&gt;Node59 -->
<g id="edge49" class="edge">
<title>Node137&#45;&gt;Node59</title>
<path fill="none" stroke="#63b8ff" d="M553.8,-861.01C578.96,-855.52 613.44,-847.99 641.28,-841.92"/>
<polygon fill="#63b8ff" stroke="#63b8ff" points="642.19,-845.3 651.21,-839.75 640.69,-838.46 642.19,-845.3"/>
</g>
<!-- Node140 -->
<g id="node38" class="node">
<title>Node140</title>
<g id="a_node38"><a xlink:href="strings_8h.html#a27d061f38fee80ecc582a343015ebc5c" target="_top" xlink:title=" ">
<polygon fill="white" stroke="#666666" points="730,-915 650,-915 650,-896 730,-896 730,-915"/>
<text text-anchor="middle" x="690" y="-903" font-family="Helvetica,sans-Serif" font-size="10.00">my_getindex</text>
</a>
</g>
</g>
<!-- Node137&#45;&gt;Node140 -->
<g id="edge50" class="edge">
<title>Node137&#45;&gt;Node140</title>
<path fill="none" stroke="#63b8ff" d="M553.8,-875.99C578.53,-881.39 612.26,-888.75 639.85,-894.77"/>
<polygon fill="#63b8ff" stroke="#63b8ff" points="639.19,-898.21 649.7,-896.92 640.68,-891.37 639.19,-898.21"/>
</g>
<!-- Node142&#45;&gt;Node18 -->
<g id="edge53" class="edge">
<title>Node142&#45;&gt;Node18</title>
<path fill="none" stroke="#63b8ff" d="M389.3,-821.9C395.45,-819.61 401.56,-816.84 407,-813.5 426.55,-801.48 423.74,-788.97 443,-776.5 564.93,-697.58 619.68,-728.61 750,-664.5 774.45,-652.47 800.56,-635.41 818.33,-623.09"/>
<polygon fill="#63b8ff" stroke="#63b8ff" points="820.64,-625.75 826.81,-617.14 816.61,-620.02 820.64,-625.75"/>
</g>
<!-- Node143 -->
<g id="node41" class="node">
<title>Node143</title>
<g id="a_node41"><a xlink:href="set__variable_8c.html#a47afbd80fec3464fe83979a24adb4290" target="_top" xlink:title=" ">
<polygon fill="#fff0f0" stroke="red" points="557,-841 480,-841 480,-822 557,-822 557,-841"/>
<text text-anchor="middle" x="518.5" y="-829" font-family="Helvetica,sans-Serif" font-size="10.00">set_variable</text>
</a>
</g>
</g>
<!-- Node142&#45;&gt;Node143 -->
<g id="edge54" class="edge">
<title>Node142&#45;&gt;Node143</title>
<path fill="none" stroke="#63b8ff" d="M390.17,-831.5C414.15,-831.5 444.62,-831.5 469.75,-831.5"/>
<polygon fill="#63b8ff" stroke="#63b8ff" points="469.79,-835 479.79,-831.5 469.79,-828 469.79,-835"/>
</g>
<!-- Node143&#45;&gt;Node138 -->
<g id="edge55" class="edge">
<title>Node143&#45;&gt;Node138</title>
<path fill="none" stroke="#63b8ff" d="M557.12,-823.29C581.42,-817.98 613.3,-811.02 639.63,-805.28"/>
<polygon fill="#63b8ff" stroke="#63b8ff" points="640.4,-808.69 649.42,-803.14 638.91,-801.85 640.4,-808.69"/>
</g>
<!-- Node143&#45;&gt;Node139 -->
<g id="edge56" class="edge">
<title>Node143&#45;&gt;Node139</title>
<path fill="none" stroke="#63b8ff" d="M557.12,-839.71C580.11,-844.73 609.88,-851.23 635.32,-856.78"/>
<polygon fill="#63b8ff" stroke="#63b8ff" points="634.68,-860.22 645.19,-858.94 636.17,-853.39 634.68,-860.22"/>
</g>
<!-- Node88 -->
<g id="node43" class="node">
<title>Node88</title>
<g id="a_node43"><a xlink:href="strings_8h.html#a5e1589f073ac32d227dbc6020c376dab" target="_top" xlink:title=" ">
<polygon fill="white" stroke="#666666" points="399,-728 298,-728 298,-709 399,-709 399,-728"/>
<text text-anchor="middle" x="348.5" y="-716" font-family="Helvetica,sans-Serif" font-size="10.00">append_to_buffer</text>
</a>
</g>
</g>
<!-- Node146&#45;&gt;Node88 -->
<g id="edge58" class="edge">
<title>Node146&#45;&gt;Node88</title>
<path fill="none" stroke="#63b8ff" d="M248.09,-690.74C264.91,-695.44 285.56,-701.2 303.68,-706.26"/>
<polygon fill="#63b8ff" stroke="#63b8ff" points="302.87,-709.67 313.45,-708.99 304.76,-702.93 302.87,-709.67"/>
</g>
<!-- Node147 -->
<g id="node44" class="node">
<title>Node147</title>
<g id="a_node44"><a xlink:href="read__input_8c.html#ab8f53813e21230b48d9ccdc4032c6bee" target="_top" xlink:title=" ">
<polygon fill="white" stroke="#666666" points="406.5,-691 290.5,-691 290.5,-672 406.5,-672 406.5,-691"/>
<text text-anchor="middle" x="348.5" y="-679" font-family="Helvetica,sans-Serif" font-size="10.00">handle_continuation</text>
</a>
</g>
</g>
<!-- Node146&#45;&gt;Node147 -->
<g id="edge59" class="edge">
<title>Node146&#45;&gt;Node147</title>
<path fill="none" stroke="#63b8ff" d="M248.09,-681.5C257.89,-681.5 269,-681.5 280.15,-681.5"/>
<polygon fill="#63b8ff" stroke="#63b8ff" points="280.36,-685 290.36,-681.5 280.36,-678 280.36,-685"/>
</g>
<!-- Node149 -->
<g id="node46" class="node">
<title>Node149</title>
<g id="a_node46"><a xlink:href="read__input_8c.html#a3282822bc1e8642066f4f88116a7a6cc" target="_top" xlink:title=" ">
<polygon fill="white" stroke="#666666" points="407,-654 290,-654 290,-635 407,-635 407,-654"/>
<text text-anchor="middle" x="348.5" y="-642" font-family="Helvetica,sans-Serif" font-size="10.00">handle_getline_error</text>
</a>
</g>
</g>
<!-- Node146&#45;&gt;Node149 -->
<g id="edge61" class="edge">
<title>Node146&#45;&gt;Node149</title>
<path fill="none" stroke="#63b8ff" d="M248.09,-672.26C264.91,-667.56 285.56,-661.8 303.68,-656.74"/>
<polygon fill="#63b8ff" stroke="#63b8ff" points="304.76,-660.07 313.45,-654.01 302.87,-653.33 304.76,-660.07"/>
</g>
<!-- Node150 -->
<g id="node47" class="node">
<title>Node150</title>
<g id="a_node47"><a xlink:href="read__input_8c.html#a274fec2b4095d4827436685c0b6b4afa" target="_top" xlink:title=" ">
<polygon fill="white" stroke="#666666" points="390,-617 307,-617 307,-598 390,-598 390,-617"/>
<text text-anchor="middle" x="348.5" y="-605" font-family="Helvetica,sans-Serif" font-size="10.00">show_prompt</text>
</a>
</g>
</g>
<!-- Node146&#45;&gt;Node150 -->
<g id="edge62" class="edge">
<title>Node146&#45;&gt;Node150</title>
<path fill="none" stroke="#63b8ff" d="M225.95,-671.73C239.94,-659.68 265.31,-639.22 290,-626.5 294.22,-624.33 298.73,-622.33 303.31,-620.51"/>
<polygon fill="#63b8ff" stroke="#63b8ff" points="304.56,-623.78 312.73,-617.04 302.13,-617.22 304.56,-623.78"/>
</g>
<!-- Node148 -->
<g id="node45" class="node">
<title>Node148</title>
<g id="a_node45"><a xlink:href="read__input_8c.html#ab1d0f5b306ce10bb8fff68a7a4aaf428" target="_top" xlink:title=" ">
<polygon fill="white" stroke="#666666" points="566.5,-693 470.5,-693 470.5,-674 566.5,-674 566.5,-693"/>
<text text-anchor="middle" x="518.5" y="-681" font-family="Helvetica,sans-Serif" font-size="10.00">should_continue</text>
</a>
</g>
</g>
<!-- Node147&#45;&gt;Node148 -->
<g id="edge60" class="edge">
<title>Node147&#45;&gt;Node148</title>
<path fill="none" stroke="#63b8ff" d="M406.85,-682.18C424.01,-682.39 442.82,-682.61 459.99,-682.82"/>
<polygon fill="#63b8ff" stroke="#63b8ff" points="460.4,-686.32 470.44,-682.94 460.48,-679.32 460.4,-686.32"/>
</g>
<!-- Node151 -->
<g id="node48" class="node">
<title>Node151</title>
<g id="a_node48"><a xlink:href="read__input_8c.html#a6a144d0d5270ba0d210fcb5f39d7fc63" target="_top" xlink:title=" ">
<polygon fill="white" stroke="#666666" points="746.5,-655 633.5,-655 633.5,-636 746.5,-636 746.5,-655"/>
<text text-anchor="middle" x="690" y="-643" font-family="Helvetica,sans-Serif" font-size="10.00">print_prompt_prefix</text>
</a>
</g>
</g>
<!-- Node150&#45;&gt;Node151 -->
<g id="edge63" class="edge">
<title>Node150&#45;&gt;Node151</title>
<path fill="none" stroke="#63b8ff" d="M390.27,-616.92C406.59,-620.4 425.61,-624.07 443,-626.5 503.6,-634.96 573.16,-639.9 622.82,-642.61"/>
<polygon fill="#63b8ff" stroke="#63b8ff" points="622.93,-646.12 633.1,-643.15 623.3,-639.13 622.93,-646.12"/>
</g>
<!-- Node152 -->
<g id="node49" class="node">
<title>Node152</title>
<g id="a_node49"><a xlink:href="read__input_8c.html#a95fff78135b5c85ed0ff754f303e28f7" target="_top" xlink:title=" ">
<polygon fill="white" stroke="#666666" points="594,-617 443,-617 443,-598 594,-598 594,-617"/>
<text text-anchor="middle" x="518.5" y="-605" font-family="Helvetica,sans-Serif" font-size="10.00">show_prompt_with_curr_dir</text>
</a>
</g>
</g>
<!-- Node150&#45;&gt;Node152 -->
<g id="edge64" class="edge">
<title>Node150&#45;&gt;Node152</title>
<path fill="none" stroke="#63b8ff" d="M390.17,-607.5C403.03,-607.5 417.76,-607.5 432.52,-607.5"/>
<polygon fill="#63b8ff" stroke="#63b8ff" points="432.73,-611 442.73,-607.5 432.73,-604 432.73,-611"/>
</g>
<!-- Node152&#45;&gt;Node18 -->
<g id="edge65" class="edge">
<title>Node152&#45;&gt;Node18</title>
<path fill="none" stroke="#63b8ff" d="M594.24,-607.5C649.21,-607.5 723.17,-607.5 775.55,-607.5"/>
<polygon fill="#63b8ff" stroke="#63b8ff" points="775.72,-611 785.72,-607.5 775.72,-604 775.72,-611"/>
</g>
<!-- Node152&#45;&gt;Node151 -->
<g id="edge66" class="edge">
<title>Node152&#45;&gt;Node151</title>
<path fill="none" stroke="#63b8ff" d="M562.27,-617.09C584.84,-622.15 612.72,-628.4 636.58,-633.75"/>
<polygon fill="#63b8ff" stroke="#63b8ff" points="636.01,-637.21 646.54,-635.98 637.54,-630.38 636.01,-637.21"/>
</g>
<!-- Node153&#45;&gt;Node138 -->
<g id="edge68" class="edge">
<title>Node153&#45;&gt;Node138</title>
<path fill="none" stroke="#63b8ff" d="M559.67,-794.5C583.5,-794.5 613.91,-794.5 639.26,-794.5"/>
<polygon fill="#63b8ff" stroke="#63b8ff" points="639.41,-798 649.41,-794.5 639.41,-791 639.41,-798"/>
</g>
<!-- Node153&#45;&gt;Node59 -->
<g id="edge69" class="edge">
<title>Node153&#45;&gt;Node59</title>
<path fill="none" stroke="#63b8ff" d="M559.67,-803.27C584.21,-808.63 615.73,-815.51 641.51,-821.13"/>
<polygon fill="#63b8ff" stroke="#63b8ff" points="640.93,-824.59 651.44,-823.3 642.42,-817.75 640.93,-824.59"/>
</g>
</g>
</svg>
        <g id="navigator" transform="translate(0 0)" fill="#404254">
                <rect fill="#f2f5e9" fill-opacity="0.5" stroke="#606060" stroke-width=".5" x="0" y="0" width="60" height="60"/>
                <use id="zoomplus" xlink:href="#zoomPlus" x="17" y="9" onmousedown="handleZoom(evt,'in')"/>
                <use id="zoomminus" xlink:href="#zoomMin" x="42" y="9" onmousedown="handleZoom(evt,'out')"/>
                <use id="reset" xlink:href="#resetDef" x="30" y="36" onmousedown="handleReset()"/>
                <g id="arrowUp" xlink:href="#dirArrow" transform="translate(30 24)" onmousedown="handlePan(0,-1)">
                  <use xlink:href="#rim" fill="#404040">
                        <set attributeName="fill" to="#808080" begin="arrowUp.mouseover" end="arrowUp.mouseout"/>
                  </use>
                  <path fill="none" stroke="white" stroke-width="1.5" d="M0,-3.0v7 M-2.5,-0.5L0,-3.0L2.5,-0.5"/>
                </g>
                <g id="arrowRight" xlink:href="#dirArrow" transform="rotate(90) translate(36 -43)" onmousedown="handlePan(1,0)">
                  <use xlink:href="#rim" fill="#404040">
                        <set attributeName="fill" to="#808080" begin="arrowRight.mouseover" end="arrowRight.mouseout"/>
                  </use>
                  <path fill="none" stroke="white" stroke-width="1.5" d="M0,-3.0v7 M-2.5,-0.5L0,-3.0L2.5,-0.5"/>
                </g>
                <g id="arrowDown" xlink:href="#dirArrow" transform="rotate(180) translate(-30 -48)" onmousedown="handlePan(0,1)">
                  <use xlink:href="#rim" fill="#404040">
                        <set attributeName="fill" to="#808080" begin="arrowDown.mouseover" end="arrowDown.mouseout"/>
                  </use>
                  <path fill="none" stroke="white" stroke-width="1.5" d="M0,-3.0v7 M-2.5,-0.5L0,-3.0L2.5,-0.5"/>
                </g>
                <g id="arrowLeft" xlink:href="#dirArrow" transform="rotate(270) translate(-36 17)" onmousedown="handlePan(-1,0)">
                  <use xlink:href="#rim" fill="#404040">
                        <set attributeName="fill" to="#808080" begin="arrowLeft.mouseover" end="arrowLeft.mouseout"/>
                  </use>
                  <path fill="none" stroke="white" stroke-width="1.5" d="M0,-3.0v7 M-2.5,-0.5L0,-3.0L2.5,-0.5"/>
                </g>
        </g>
        <svg viewBox="0 0 15 15" width="100%" height="30px" preserveAspectRatio="xMaxYMin meet">
         <g id="arrow_out" transform="scale(0.3 0.3)">
          <a xlink:href="main_8c_aee7801bc627f70f446a37ec861000c35_cgraph_org.svg" target="_base">
           <rect id="button" ry="5" rx="5" y="6" x="6" height="38" width="38"
                fill="#f2f5e9" fill-opacity="0.5" stroke="#606060" stroke-width="1.0"/>
           <path id="arrow"
             d="M 11.500037,31.436501 C 11.940474,20.09759 22.043105,11.32322 32.158766,21.979434 L 37.068811,17.246167 C 37.068811,17.246167 37.088388,32 37.088388,32 L 22.160133,31.978069 C 22.160133,31.978069 26.997745,27.140456 26.997745,27.140456 C 18.528582,18.264221 13.291696,25.230495 11.500037,31.436501 z"
             style="fill:#404040;"/>
          </a>
         </g>
        </svg>
</svg>
