<?xml version="1.0" encoding="UTF-8" standalone="no"?>
<!DOCTYPE svg PUBLIC "-//W3C//DTD SVG 1.1//EN"
 "http://www.w3.org/Graphics/SVG/1.1/DTD/svg11.dtd">
<!-- Generated by graphviz version 2.43.0 (0)
 -->
<!-- Title: main Pages: 1 -->
<!--zoomable 849 -->
<svg id="main" version="1.1" xmlns="http://www.w3.org/2000/svg" xmlns:xlink="http://www.w3.org/1999/xlink" xml:space="preserve" onload="init(evt)">
<style type="text/css"><![CDATA[
.edge:hover path { stroke: red; }
.edge:hover polygon { stroke: red; fill: red; }
]]></style>
<script type="text/javascript"><![CDATA[
var edges = document.getElementsByTagName('g');
if (edges && edges.length) {
  for (var i=0;i<edges.length;i++) {
    if (edges[i].id.substr(0,4)=='edge') {
      edges[i].setAttribute('class','edge');
    }
  }
}
]]></script>
        <defs>
                <circle id="rim" cx="0" cy="0" r="7"/>
                <circle id="rim2" cx="0" cy="0" r="3.5"/>
                <g id="zoomPlus">
                        <use xlink:href="#rim" fill="#404040">
                                <set attributeName="fill" to="#808080" begin="zoomplus.mouseover" end="zoomplus.mouseout"/>
                        </use>
                        <path d="M-4,0h8M0,-4v8" fill="none" stroke="white" stroke-width="1.5" pointer-events="none"/>
                </g>
                <g id="zoomMin">
                        <use xlink:href="#rim" fill="#404040">
                                <set attributeName="fill" to="#808080" begin="zoomminus.mouseover" end="zoomminus.mouseout"/>
                        </use>
                        <path d="M-4,0h8" fill="none" stroke="white" stroke-width="1.5" pointer-events="none"/>
                </g>
                <g id="dirArrow">
                        <path fill="none" stroke="white" stroke-width="1.5" d="M0,-3.0v7 M-2.5,-0.5L0,-3.0L2.5,-0.5"/>
                </g>
               <g id="resetDef">
                       <use xlink:href="#rim2" fill="#404040">
                               <set attributeName="fill" to="#808080" begin="reset.mouseover" end="reset.mouseout"/>
                       </use>
               </g>
        </defs>

<script type="text/javascript">
var viewWidth = 1235;
var viewHeight = 849;
var sectionId = 'dynsection-1';
</script>
<script xlink:href="svgpan.js"/>
<svg id="graph" class="graph">
<g id="viewport">
<title>main</title>
<!-- Node1 -->
<g id="node1" class="node">
<title>Node1</title>
<g id="a_node1"><a xlink:title=" ">
<polygon fill="#999999" stroke="#666666" points="41,-653 0,-653 0,-634 41,-634 41,-653"/>
<text text-anchor="middle" x="20.5" y="-641" font-family="Helvetica,sans-Serif" font-size="10.00">main</text>
</a>
</g>
</g>
<!-- Node2 -->
<g id="node2" class="node">
<title>Node2</title>
<g id="a_node2"><a xlink:href="main_8c.html#a47e2a08216f6362d8656efaac70e4a95" target="_top" xlink:title=" ">
<polygon fill="white" stroke="#666666" points="138,-672 77,-672 77,-653 138,-653 138,-672"/>
<text text-anchor="middle" x="107.5" y="-660" font-family="Helvetica,sans-Serif" font-size="10.00">open_file</text>
</a>
</g>
</g>
<!-- Node1&#45;&gt;Node2 -->
<g id="edge1" class="edge">
<title>Node1&#45;&gt;Node2</title>
<path fill="none" stroke="#63b8ff" d="M41.21,-647.91C48.91,-649.63 58.02,-651.66 66.96,-653.66"/>
<polygon fill="#63b8ff" stroke="#63b8ff" points="66.37,-657.12 76.89,-655.88 67.89,-650.28 66.37,-657.12"/>
</g>
<!-- Node3 -->
<g id="node3" class="node">
<title>Node3</title>
<g id="a_node3"><a xlink:href="shell_8c.html#ad0c642810cef7d35602fd99eaec9e3de" target="_top" xlink:title=" ">
<polygon fill="white" stroke="#666666" points="138,-635 77,-635 77,-616 138,-616 138,-635"/>
<text text-anchor="middle" x="107.5" y="-623" font-family="Helvetica,sans-Serif" font-size="10.00">shell_run</text>
</a>
</g>
</g>
<!-- Node1&#45;&gt;Node3 -->
<g id="edge2" class="edge">
<title>Node1&#45;&gt;Node3</title>
<path fill="none" stroke="#63b8ff" d="M41.21,-639.33C48.91,-637.7 58.02,-635.77 66.96,-633.87"/>
<polygon fill="#63b8ff" stroke="#63b8ff" points="67.83,-637.27 76.89,-631.77 66.38,-630.42 67.83,-637.27"/>
</g>
<!-- Node4 -->
<g id="node4" class="node">
<title>Node4</title>
<g id="a_node4"><a xlink:href="shell_8c.html#afb5215a1775326d8976fd015f7832392" target="_top" xlink:title=" ">
<polygon fill="white" stroke="#666666" points="752.5,-428 672.5,-428 672.5,-409 752.5,-409 752.5,-428"/>
<text text-anchor="middle" x="712.5" y="-416" font-family="Helvetica,sans-Serif" font-size="10.00">handle_input</text>
</a>
</g>
</g>
<!-- Node3&#45;&gt;Node4 -->
<g id="edge3" class="edge">
<title>Node3&#45;&gt;Node4</title>
<path fill="none" stroke="#63b8ff" d="M112.13,-615.7C120.29,-594.76 141.94,-545.08 174,-514.5 225.64,-465.24 248.05,-461.35 316,-439.5 435.56,-401.05 585.86,-406.78 662.16,-413.21"/>
<polygon fill="#63b8ff" stroke="#63b8ff" points="662.15,-416.73 672.42,-414.12 662.77,-409.76 662.15,-416.73"/>
</g>
<!-- Node144 -->
<g id="node28" class="node">
<title>Node144</title>
<g id="a_node28"><a xlink:href="shell_8c.html#a983eddd5d67b74ffafb49f66b1b5e17f" target="_top" xlink:title=" ">
<polygon fill="white" stroke="#666666" points="257.5,-711 196.5,-711 196.5,-692 257.5,-692 257.5,-711"/>
<text text-anchor="middle" x="227" y="-699" font-family="Helvetica,sans-Serif" font-size="10.00">init_shell</text>
</a>
</g>
</g>
<!-- Node3&#45;&gt;Node144 -->
<g id="edge35" class="edge">
<title>Node3&#45;&gt;Node144</title>
<path fill="none" stroke="#63b8ff" d="M123.51,-635.16C128.16,-638.15 133.29,-641.46 138,-644.5 159.88,-658.63 184.78,-674.77 202.5,-686.26"/>
<polygon fill="#63b8ff" stroke="#63b8ff" points="200.77,-689.3 211.06,-691.81 204.57,-683.43 200.77,-689.3"/>
</g>
<!-- Node154 -->
<g id="node39" class="node">
<title>Node154</title>
<g id="a_node39"><a xlink:href="read__input_8c.html#a68810824934adf0e714171083b86a740" target="_top" xlink:title=" ">
<polygon fill="white" stroke="#666666" points="261,-542 193,-542 193,-523 261,-523 261,-542"/>
<text text-anchor="middle" x="227" y="-530" font-family="Helvetica,sans-Serif" font-size="10.00">read_input</text>
</a>
</g>
</g>
<!-- Node3&#45;&gt;Node154 -->
<g id="edge49" class="edge">
<title>Node3&#45;&gt;Node154</title>
<path fill="none" stroke="#63b8ff" d="M120.63,-615.9C140.77,-599.96 181.32,-567.87 205.82,-548.47"/>
<polygon fill="#63b8ff" stroke="#63b8ff" points="208.09,-551.14 213.76,-542.19 203.74,-545.65 208.09,-551.14"/>
</g>
<!-- Node162 -->
<g id="node48" class="node">
<title>Node162</title>
<g id="a_node48"><a xlink:href="shell_8c.html#a352d0fde24e5d22d7e92d3fcb05dab19" target="_top" xlink:title=" ">
<polygon fill="white" stroke="#666666" points="585.5,-806 503.5,-806 503.5,-787 585.5,-787 585.5,-806"/>
<text text-anchor="middle" x="544.5" y="-794" font-family="Helvetica,sans-Serif" font-size="10.00">shell_destroy</text>
</a>
</g>
</g>
<!-- Node3&#45;&gt;Node162 -->
<g id="edge62" class="edge">
<title>Node3&#45;&gt;Node162</title>
<path fill="none" stroke="#63b8ff" d="M126.91,-635.1C130.9,-637.77 134.87,-640.93 138,-644.5 162.66,-672.59 146.78,-694.88 174,-720.5 261.75,-803.08 414.23,-806.22 493.07,-801.45"/>
<polygon fill="#63b8ff" stroke="#63b8ff" points="493.49,-804.93 503.23,-800.76 493.02,-797.94 493.49,-804.93"/>
</g>
<!-- Node163 -->
<g id="node49" class="node">
<title>Node163</title>
<g id="a_node49"><a xlink:href="should__exit__if__eof_8c.html#abdbeabfd4b1e040ffa3f495bf7575d39" target="_top" xlink:title=" ">
<polygon fill="white" stroke="#666666" points="280,-635 174,-635 174,-616 280,-616 280,-635"/>
<text text-anchor="middle" x="227" y="-623" font-family="Helvetica,sans-Serif" font-size="10.00">should_exit_if_eof</text>
</a>
</g>
</g>
<!-- Node3&#45;&gt;Node163 -->
<g id="edge65" class="edge">
<title>Node3&#45;&gt;Node163</title>
<path fill="none" stroke="#63b8ff" d="M138.15,-625.5C146.05,-625.5 154.9,-625.5 163.85,-625.5"/>
<polygon fill="#63b8ff" stroke="#63b8ff" points="163.95,-629 173.95,-625.5 163.95,-622 163.95,-629"/>
</g>
<!-- Node5 -->
<g id="node5" class="node">
<title>Node5</title>
<g id="a_node5"><a xlink:href="ast__destroy_8c.html#a04c67d7ab492f6e1e7bc44dc70faa057" target="_top" xlink:title=" ">
<polygon fill="white" stroke="#666666" points="898.5,-508 824.5,-508 824.5,-489 898.5,-489 898.5,-508"/>
<text text-anchor="middle" x="861.5" y="-496" font-family="Helvetica,sans-Serif" font-size="10.00">ast_destroy</text>
</a>
</g>
</g>
<!-- Node4&#45;&gt;Node5 -->
<g id="edge4" class="edge">
<title>Node4&#45;&gt;Node5</title>
<path fill="none" stroke="#63b8ff" d="M725.26,-428.08C742.06,-441.39 774.31,-465.5 805,-480.5 808.58,-482.25 812.38,-483.89 816.23,-485.41"/>
<polygon fill="#63b8ff" stroke="#63b8ff" points="815.26,-488.78 825.86,-488.93 817.67,-482.21 815.26,-488.78"/>
</g>
<!-- Node7 -->
<g id="node7" class="node">
<title>Node7</title>
<g id="a_node7"><a xlink:href="shell_8c.html#a74405478dadd73c0a4d1e5f3e8d2e3ef" target="_top" xlink:title=" ">
<polygon fill="white" stroke="#666666" points="918,-433.5 805,-433.5 805,-403.5 918,-403.5 918,-433.5"/>
<text text-anchor="start" x="813" y="-421.5" font-family="Helvetica,sans-Serif" font-size="10.00">destroy_parser_and</text>
<text text-anchor="middle" x="861.5" y="-410.5" font-family="Helvetica,sans-Serif" font-size="10.00">_lexer</text>
</a>
</g>
</g>
<!-- Node4&#45;&gt;Node7 -->
<g id="edge7" class="edge">
<title>Node4&#45;&gt;Node7</title>
<path fill="none" stroke="#63b8ff" d="M752.51,-418.5C765.44,-418.5 780.22,-418.5 794.61,-418.5"/>
<polygon fill="#63b8ff" stroke="#63b8ff" points="794.98,-422 804.98,-418.5 794.98,-415 794.98,-422"/>
</g>
<!-- Node11 -->
<g id="node11" class="node">
<title>Node11</title>
<g id="a_node11"><a xlink:href="execute__ast_8c.html#ad26a20a665ab7fdeb714ed53c1afd104" target="_top" xlink:title=" ">
<polygon fill="white" stroke="#666666" points="899,-261 824,-261 824,-242 899,-242 899,-261"/>
<text text-anchor="middle" x="861.5" y="-249" font-family="Helvetica,sans-Serif" font-size="10.00">execute_ast</text>
</a>
</g>
</g>
<!-- Node4&#45;&gt;Node11 -->
<g id="edge11" class="edge">
<title>Node4&#45;&gt;Node11</title>
<path fill="none" stroke="#63b8ff" d="M722.26,-408.55C746.42,-381.11 814.26,-304.03 845.01,-269.1"/>
<polygon fill="#63b8ff" stroke="#63b8ff" points="847.99,-271 851.97,-261.19 842.74,-266.38 847.99,-271"/>
</g>
<!-- Node45 -->
<g id="node21" class="node">
<title>Node45</title>
<g id="a_node21"><a xlink:href="shell_8c.html#a6e35892cfa82c5f227b10f37abc529e9" target="_top" xlink:title=" ">
<polygon fill="white" stroke="#666666" points="907,-56 816,-56 816,-37 907,-37 907,-56"/>
<text text-anchor="middle" x="861.5" y="-44" font-family="Helvetica,sans-Serif" font-size="10.00">handle_parsing</text>
</a>
</g>
</g>
<!-- Node4&#45;&gt;Node45 -->
<g id="edge26" class="edge">
<title>Node4&#45;&gt;Node45</title>
<path fill="none" stroke="#63b8ff" d="M713.16,-408.82C712.14,-364.3 713.6,-176.87 805,-70.5 808.21,-66.77 812.11,-63.59 816.33,-60.9"/>
<polygon fill="#63b8ff" stroke="#63b8ff" points="818.21,-63.87 825.35,-56.03 814.88,-57.71 818.21,-63.87"/>
</g>
<!-- Node141 -->
<g id="node24" class="node">
<title>Node141</title>
<g id="a_node24"><a xlink:href="shell_8c.html#a1ce512725ee0371f8bf608a3ece0c152" target="_top" xlink:title=" ">
<polygon fill="white" stroke="#666666" points="1227,-75 1107,-75 1107,-56 1227,-56 1227,-75"/>
<text text-anchor="middle" x="1167" y="-63" font-family="Helvetica,sans-Serif" font-size="10.00">show_error_message</text>
</a>
</g>
</g>
<!-- Node4&#45;&gt;Node141 -->
<g id="edge34" class="edge">
<title>Node4&#45;&gt;Node141</title>
<path fill="none" stroke="#63b8ff" d="M716.69,-408.85C726.53,-379.99 758.61,-292.62 805,-232.5 858.51,-163.15 874.96,-141.24 954,-103.5 998.67,-82.17 1053.84,-72.74 1096.69,-68.6"/>
<polygon fill="#63b8ff" stroke="#63b8ff" points="1097.1,-72.08 1106.75,-67.71 1096.48,-65.11 1097.1,-72.08"/>
</g>
<!-- Node142 -->
<g id="node25" class="node">
<title>Node142</title>
<g id="a_node25"><a xlink:href="lexer__init_8c.html#aee55447f2c8b083ed2614fa4f439f9cc" target="_top" xlink:title=" ">
<polygon fill="white" stroke="#666666" points="892.5,-563 830.5,-563 830.5,-544 892.5,-544 892.5,-563"/>
<text text-anchor="middle" x="861.5" y="-551" font-family="Helvetica,sans-Serif" font-size="10.00">lexer_init</text>
</a>
</g>
</g>
<!-- Node4&#45;&gt;Node142 -->
<g id="edge30" class="edge">
<title>Node4&#45;&gt;Node142</title>
<path fill="none" stroke="#63b8ff" d="M724.03,-428.17C735.75,-439.22 754.9,-458.16 769,-476.5 787.73,-500.85 780.89,-516.47 805,-535.5 809.69,-539.2 815.16,-542.15 820.8,-544.5"/>
<polygon fill="#63b8ff" stroke="#63b8ff" points="819.76,-547.84 830.36,-547.91 822.12,-541.25 819.76,-547.84"/>
</g>
<!-- Node143 -->
<g id="node26" class="node">
<title>Node143</title>
<g id="a_node26"><a xlink:href="parser__init_8c.html#a7a5dc445fa057a393d0b94590acea2f1" target="_top" xlink:title=" ">
<polygon fill="white" stroke="#666666" points="895.5,-471 827.5,-471 827.5,-452 895.5,-452 895.5,-471"/>
<text text-anchor="middle" x="861.5" y="-459" font-family="Helvetica,sans-Serif" font-size="10.00">parser_init</text>
</a>
</g>
</g>
<!-- Node4&#45;&gt;Node143 -->
<g id="edge31" class="edge">
<title>Node4&#45;&gt;Node143</title>
<path fill="none" stroke="#63b8ff" d="M746.12,-428.04C767.34,-434.25 795.23,-442.41 818.15,-449.11"/>
<polygon fill="#63b8ff" stroke="#63b8ff" points="817.39,-452.54 827.97,-451.98 819.35,-445.82 817.39,-452.54"/>
</g>
<!-- Node5&#45;&gt;Node5 -->
<g id="edge5" class="edge">
<title>Node5&#45;&gt;Node5</title>
<path fill="none" stroke="#63b8ff" d="M838.69,-508.08C827.59,-516.73 835.2,-526 861.5,-526 878.35,-526 887.53,-522.2 889.03,-517.19"/>
<polygon fill="#63b8ff" stroke="#63b8ff" points="892.02,-515.35 884.31,-508.08 885.8,-518.57 892.02,-515.35"/>
</g>
<!-- Node6 -->
<g id="node6" class="node">
<title>Node6</title>
<g id="a_node6"><a xlink:href="misc_8h.html#a1180cae2875b1fdcd58c9f9175a82c12" target="_top" xlink:title=" ">
<polygon fill="white" stroke="#666666" points="1071,-539 954,-539 954,-520 1071,-520 1071,-539"/>
<text text-anchor="middle" x="1012.5" y="-527" font-family="Helvetica,sans-Serif" font-size="10.00">my_free_word_array</text>
</a>
</g>
</g>
<!-- Node5&#45;&gt;Node6 -->
<g id="edge6" class="edge">
<title>Node5&#45;&gt;Node6</title>
<path fill="none" stroke="#63b8ff" d="M898.57,-506C915.73,-509.57 936.64,-513.93 955.78,-517.91"/>
<polygon fill="#63b8ff" stroke="#63b8ff" points="955.1,-521.34 965.6,-519.95 956.52,-514.49 955.1,-521.34"/>
</g>
<!-- Node8 -->
<g id="node8" class="node">
<title>Node8</title>
<g id="a_node8"><a xlink:href="lexer__init_8c.html#a592247dc9c102c884630b41389a1b38b" target="_top" xlink:title=" ">
<polygon fill="white" stroke="#666666" points="1054,-428 971,-428 971,-409 1054,-409 1054,-428"/>
<text text-anchor="middle" x="1012.5" y="-416" font-family="Helvetica,sans-Serif" font-size="10.00">lexer_destroy</text>
</a>
</g>
</g>
<!-- Node7&#45;&gt;Node8 -->
<g id="edge8" class="edge">
<title>Node7&#45;&gt;Node8</title>
<path fill="none" stroke="#63b8ff" d="M918.41,-418.5C932.22,-418.5 946.96,-418.5 960.53,-418.5"/>
<polygon fill="#63b8ff" stroke="#63b8ff" points="960.64,-422 970.64,-418.5 960.64,-415 960.64,-422"/>
</g>
<!-- Node9 -->
<g id="node9" class="node">
<title>Node9</title>
<g id="a_node9"><a xlink:href="parser__destroy_8c.html#ae2656460a6fc6b6cd65624312fe0c943" target="_top" xlink:title=" ">
<polygon fill="white" stroke="#666666" points="1057,-465 968,-465 968,-446 1057,-446 1057,-465"/>
<text text-anchor="middle" x="1012.5" y="-453" font-family="Helvetica,sans-Serif" font-size="10.00">parser_destroy</text>
</a>
</g>
</g>
<!-- Node7&#45;&gt;Node9 -->
<g id="edge9" class="edge">
<title>Node7&#45;&gt;Node9</title>
<path fill="none" stroke="#63b8ff" d="M918.41,-432.38C933.02,-436.01 948.66,-439.9 962.87,-443.42"/>
<polygon fill="#63b8ff" stroke="#63b8ff" points="962.38,-446.91 972.93,-445.92 964.06,-440.11 962.38,-446.91"/>
</g>
<!-- Node10 -->
<g id="node10" class="node">
<title>Node10</title>
<g id="a_node10"><a xlink:href="destroy__token_8c.html#ad1a471ee7b1ccb035d769be1152a370c" target="_top" xlink:title=" ">
<polygon fill="white" stroke="#666666" points="1210,-483 1124,-483 1124,-464 1210,-464 1210,-483"/>
<text text-anchor="middle" x="1167" y="-471" font-family="Helvetica,sans-Serif" font-size="10.00">token_destroy</text>
</a>
</g>
</g>
<!-- Node9&#45;&gt;Node10 -->
<g id="edge10" class="edge">
<title>Node9&#45;&gt;Node10</title>
<path fill="none" stroke="#63b8ff" d="M1057.2,-460.66C1074.87,-462.74 1095.42,-465.17 1113.87,-467.35"/>
<polygon fill="#63b8ff" stroke="#63b8ff" points="1113.53,-470.83 1123.87,-468.53 1114.35,-463.88 1113.53,-470.83"/>
</g>
<!-- Node12 -->
<g id="node12" class="node">
<title>Node12</title>
<g id="a_node12"><a xlink:href="execute__cmd_8c.html#a94ea9cc5a046ce96e36764bf0e4fa2c0" target="_top" xlink:title=" ">
<polygon fill="#fff0f0" stroke="red" points="1053,-169 972,-169 972,-150 1053,-150 1053,-169"/>
<text text-anchor="middle" x="1012.5" y="-157" font-family="Helvetica,sans-Serif" font-size="10.00">execute_cmd</text>
</a>
</g>
</g>
<!-- Node11&#45;&gt;Node12 -->
<g id="edge12" class="edge">
<title>Node11&#45;&gt;Node12</title>
<path fill="none" stroke="#63b8ff" d="M871.77,-241.95C887.38,-226.38 920.5,-195.44 954,-177.5 957.28,-175.74 960.76,-174.13 964.32,-172.64"/>
<polygon fill="#63b8ff" stroke="#63b8ff" points="965.74,-175.85 973.86,-169.04 963.26,-169.3 965.74,-175.85"/>
</g>
<!-- Node27 -->
<g id="node14" class="node">
<title>Node27</title>
<g id="a_node14"><a xlink:href="execute__logical__and_8c.html#a4f940752faf9f9a258c49810b21efe47" target="_top" xlink:title=" ">
<polygon fill="white" stroke="#666666" points="1070.5,-132 954.5,-132 954.5,-113 1070.5,-113 1070.5,-132"/>
<text text-anchor="middle" x="1012.5" y="-120" font-family="Helvetica,sans-Serif" font-size="10.00">execute_logical_and</text>
</a>
</g>
</g>
<!-- Node11&#45;&gt;Node27 -->
<g id="edge14" class="edge">
<title>Node11&#45;&gt;Node27</title>
<path fill="none" stroke="#63b8ff" d="M865.64,-241.85C875.19,-219.79 905.71,-168.21 946.06,-137.23"/>
<polygon fill="#63b8ff" stroke="#63b8ff" points="948.19,-140.01 954.26,-131.33 944.1,-134.33 948.19,-140.01"/>
</g>
<!-- Node28 -->
<g id="node15" class="node">
<title>Node28</title>
<g id="a_node15"><a xlink:href="execute__logical__or_8c.html#a7e732d7c30b07010fa55850051007dcc" target="_top" xlink:title=" ">
<polygon fill="white" stroke="#666666" points="1066,-391 959,-391 959,-372 1066,-372 1066,-391"/>
<text text-anchor="middle" x="1012.5" y="-379" font-family="Helvetica,sans-Serif" font-size="10.00">execute_logical_or</text>
</a>
</g>
</g>
<!-- Node11&#45;&gt;Node28 -->
<g id="edge16" class="edge">
<title>Node11&#45;&gt;Node28</title>
<path fill="none" stroke="#63b8ff" d="M871.14,-261.08C885.4,-281.56 916.08,-327.54 954,-353.5 963.99,-360.34 976.63,-364.87 987.52,-368.61"/>
<polygon fill="#63b8ff" stroke="#63b8ff" points="986.68,-372.02 997.27,-371.99 988.97,-365.41 986.68,-372.02"/>
</g>
<!-- Node29 -->
<g id="node16" class="node">
<title>Node29</title>
<g id="a_node16"><a xlink:href="execute__pipe_8c.html#a5f3546dc2c7cf06c982afba41e722164" target="_top" xlink:title=" ">
<polygon fill="#fff0f0" stroke="red" points="1053,-354 972,-354 972,-335 1053,-335 1053,-354"/>
<text text-anchor="middle" x="1012.5" y="-342" font-family="Helvetica,sans-Serif" font-size="10.00">execute_pipe</text>
</a>
</g>
</g>
<!-- Node11&#45;&gt;Node29 -->
<g id="edge18" class="edge">
<title>Node11&#45;&gt;Node29</title>
<path fill="none" stroke="#63b8ff" d="M872.31,-261.49C888.17,-277.14 921,-307.49 954,-325.5 957.95,-327.65 962.18,-329.62 966.5,-331.4"/>
<polygon fill="#63b8ff" stroke="#63b8ff" points="965.4,-334.73 975.99,-335 967.88,-328.18 965.4,-334.73"/>
</g>
<!-- Node34 -->
<g id="node17" class="node">
<title>Node34</title>
<g id="a_node17"><a xlink:href="execute__redirect_8c.html#a1004307aba80117ddd99f009e52fb155" target="_top" xlink:title=" ">
<polygon fill="#fff0f0" stroke="red" points="1061.5,-317 963.5,-317 963.5,-298 1061.5,-298 1061.5,-317"/>
<text text-anchor="middle" x="1012.5" y="-305" font-family="Helvetica,sans-Serif" font-size="10.00">execute_redirect</text>
</a>
</g>
</g>
<!-- Node11&#45;&gt;Node34 -->
<g id="edge19" class="edge">
<title>Node11&#45;&gt;Node34</title>
<path fill="none" stroke="#63b8ff" d="M884.9,-261.03C903.33,-268.76 930.19,-279.76 954,-288.5 959.63,-290.57 965.6,-292.65 971.49,-294.65"/>
<polygon fill="#63b8ff" stroke="#63b8ff" points="970.64,-298.06 981.23,-297.91 972.86,-291.42 970.64,-298.06"/>
</g>
<!-- Node42 -->
<g id="node18" class="node">
<title>Node42</title>
<g id="a_node18"><a xlink:href="execute__repeat_8c.html#a00d48683c54b50130b4a402e6e97fa97" target="_top" xlink:title=" ">
<polygon fill="white" stroke="#666666" points="1058.5,-280 966.5,-280 966.5,-261 1058.5,-261 1058.5,-280"/>
<text text-anchor="middle" x="1012.5" y="-268" font-family="Helvetica,sans-Serif" font-size="10.00">execute_repeat</text>
</a>
</g>
</g>
<!-- Node11&#45;&gt;Node42 -->
<g id="edge20" class="edge">
<title>Node11&#45;&gt;Node42</title>
<path fill="none" stroke="#63b8ff" d="M899.33,-250.28C921,-251.99 948.45,-255.44 970.76,-259.21"/>
<polygon fill="#63b8ff" stroke="#63b8ff" points="970.16,-262.66 980.62,-260.97 971.39,-255.77 970.16,-262.66"/>
</g>
<!-- Node43 -->
<g id="node19" class="node">
<title>Node43</title>
<g id="a_node19"><a xlink:href="execute__sequence_8c.html#aad2caa5bf50b0752dd8272da477ec231" target="_top" xlink:title=" ">
<polygon fill="white" stroke="#666666" points="1066,-243 959,-243 959,-224 1066,-224 1066,-243"/>
<text text-anchor="middle" x="1012.5" y="-231" font-family="Helvetica,sans-Serif" font-size="10.00">execute_sequence</text>
</a>
</g>
</g>
<!-- Node11&#45;&gt;Node43 -->
<g id="edge22" class="edge">
<title>Node11&#45;&gt;Node43</title>
<path fill="none" stroke="#63b8ff" d="M894.46,-241.98C910.34,-239.14 930.09,-236.42 948.81,-234.4"/>
<polygon fill="#63b8ff" stroke="#63b8ff" points="949.19,-237.88 958.78,-233.38 948.48,-230.91 949.19,-237.88"/>
</g>
<!-- Node44 -->
<g id="node20" class="node">
<title>Node44</title>
<g id="a_node20"><a xlink:href="execute__subshell_8c.html#a40a27866de012b013a337f794a858d70" target="_top" xlink:title=" ">
<polygon fill="#fff0f0" stroke="red" points="1063,-206 962,-206 962,-187 1063,-187 1063,-206"/>
<text text-anchor="middle" x="1012.5" y="-194" font-family="Helvetica,sans-Serif" font-size="10.00">execute_subshell</text>
</a>
</g>
</g>
<!-- Node11&#45;&gt;Node44 -->
<g id="edge24" class="edge">
<title>Node11&#45;&gt;Node44</title>
<path fill="none" stroke="#63b8ff" d="M872.02,-241.92C887.12,-232.14 917.77,-218.88 952.09,-206.3"/>
<polygon fill="#63b8ff" stroke="#63b8ff" points="953.64,-209.46 961.86,-202.77 951.26,-202.88 953.64,-209.46"/>
</g>
<!-- Node13 -->
<g id="node13" class="node">
<title>Node13</title>
<g id="a_node13"><a xlink:href="execute__cmd_8c.html#a0cfd2364134e68efdd39533e00b4b0d9" target="_top" xlink:title=" ">
<polygon fill="#fff0f0" stroke="red" points="1226.5,-169 1107.5,-169 1107.5,-150 1226.5,-150 1226.5,-169"/>
<text text-anchor="middle" x="1167" y="-157" font-family="Helvetica,sans-Serif" font-size="10.00">execute_local_binary</text>
</a>
</g>
</g>
<!-- Node12&#45;&gt;Node13 -->
<g id="edge13" class="edge">
<title>Node12&#45;&gt;Node13</title>
<path fill="none" stroke="#63b8ff" d="M1053.17,-159.5C1066.58,-159.5 1081.96,-159.5 1096.97,-159.5"/>
<polygon fill="#63b8ff" stroke="#63b8ff" points="1097.28,-163 1107.28,-159.5 1097.28,-156 1097.28,-163"/>
</g>
<!-- Node27&#45;&gt;Node11 -->
<g id="edge15" class="edge">
<title>Node27&#45;&gt;Node11</title>
<path fill="none" stroke="#63b8ff" d="M996.29,-132.05C984.05,-136.19 966.84,-140.86 954,-149.5 920.49,-172.05 892.81,-210.41 876.96,-233.33"/>
<polygon fill="#63b8ff" stroke="#63b8ff" points="873.88,-231.62 871.1,-241.84 879.65,-235.59 873.88,-231.62"/>
</g>
<!-- Node28&#45;&gt;Node11 -->
<g id="edge17" class="edge">
<title>Node28&#45;&gt;Node11</title>
<path fill="none" stroke="#63b8ff" d="M958.86,-374.54C957.19,-373.58 955.56,-372.57 954,-371.5 915.08,-344.86 883.78,-297.11 870.05,-270.28"/>
<polygon fill="#63b8ff" stroke="#63b8ff" points="873.13,-268.63 865.66,-261.12 866.82,-271.65 873.13,-268.63"/>
</g>
<!-- Node42&#45;&gt;Node11 -->
<g id="edge21" class="edge">
<title>Node42&#45;&gt;Node11</title>
<path fill="none" stroke="#63b8ff" d="M966.24,-270.99C946.25,-269.14 922.92,-266.11 903.45,-262.82"/>
<polygon fill="#63b8ff" stroke="#63b8ff" points="903.83,-259.34 893.37,-261.03 902.61,-266.23 903.83,-259.34"/>
</g>
<!-- Node43&#45;&gt;Node11 -->
<g id="edge23" class="edge">
<title>Node43&#45;&gt;Node11</title>
<path fill="none" stroke="#63b8ff" d="M979.64,-243C959.22,-246.66 932.36,-250.13 909.51,-252.14"/>
<polygon fill="#63b8ff" stroke="#63b8ff" points="909.02,-248.67 899.33,-252.97 909.58,-255.65 909.02,-248.67"/>
</g>
<!-- Node44&#45;&gt;Node11 -->
<g id="edge25" class="edge">
<title>Node44&#45;&gt;Node11</title>
<path fill="none" stroke="#63b8ff" d="M1000.82,-206.2C989.21,-211.96 970.15,-217.72 954,-223.5 939.19,-228.8 923.23,-235.06 908.86,-240.49"/>
<polygon fill="#63b8ff" stroke="#63b8ff" points="907.34,-237.32 899.19,-244.1 909.78,-243.88 907.34,-237.32"/>
</g>
<!-- Node46 -->
<g id="node22" class="node">
<title>Node46</title>
<g id="a_node22"><a xlink:href="empty__stdin_8c.html#a4c89df10296f2cc245e3a32065e04e7b" target="_top" xlink:title=" ">
<polygon fill="white" stroke="#666666" points="1051,-19 974,-19 974,0 1051,0 1051,-19"/>
<text text-anchor="middle" x="1012.5" y="-7" font-family="Helvetica,sans-Serif" font-size="10.00">empty_stdin</text>
</a>
</g>
</g>
<!-- Node45&#45;&gt;Node46 -->
<g id="edge27" class="edge">
<title>Node45&#45;&gt;Node46</title>
<path fill="none" stroke="#63b8ff" d="M900.87,-36.97C920.14,-32.19 943.66,-26.35 964.05,-21.28"/>
<polygon fill="#63b8ff" stroke="#63b8ff" points="964.91,-24.67 973.77,-18.87 963.23,-17.88 964.91,-24.67"/>
</g>
<!-- Node47 -->
<g id="node23" class="node">
<title>Node47</title>
<g id="a_node23"><a xlink:href="shell_8c.html#a2c9bd51744387dc73763281019d78622" target="_top" xlink:title=" ">
<polygon fill="#fff0f0" stroke="red" points="1044.5,-56 980.5,-56 980.5,-37 1044.5,-37 1044.5,-56"/>
<text text-anchor="middle" x="1012.5" y="-44" font-family="Helvetica,sans-Serif" font-size="10.00">parse_ast</text>
</a>
</g>
</g>
<!-- Node45&#45;&gt;Node47 -->
<g id="edge28" class="edge">
<title>Node45&#45;&gt;Node47</title>
<path fill="none" stroke="#63b8ff" d="M907.2,-46.5C927.11,-46.5 950.42,-46.5 969.95,-46.5"/>
<polygon fill="#63b8ff" stroke="#63b8ff" points="970.07,-50 980.07,-46.5 970.07,-43 970.07,-50"/>
</g>
<!-- Node47&#45;&gt;Node141 -->
<g id="edge29" class="edge">
<title>Node47&#45;&gt;Node141</title>
<path fill="none" stroke="#63b8ff" d="M1044.73,-50.39C1059.8,-52.27 1078.53,-54.6 1096.73,-56.87"/>
<polygon fill="#63b8ff" stroke="#63b8ff" points="1096.4,-60.36 1106.75,-58.12 1097.26,-53.41 1096.4,-60.36"/>
</g>
<!-- Node72 -->
<g id="node27" class="node">
<title>Node72</title>
<g id="a_node27"><a xlink:href="parser__next_8c.html#ad25986b565a767c6ad7d0b0b8846fca6" target="_top" xlink:title=" ">
<polygon fill="#fff0f0" stroke="red" points="1049.5,-502 975.5,-502 975.5,-483 1049.5,-483 1049.5,-502"/>
<text text-anchor="middle" x="1012.5" y="-490" font-family="Helvetica,sans-Serif" font-size="10.00">parser_next</text>
</a>
</g>
</g>
<!-- Node143&#45;&gt;Node72 -->
<g id="edge32" class="edge">
<title>Node143&#45;&gt;Node72</title>
<path fill="none" stroke="#63b8ff" d="M895.57,-468.38C916.09,-472.65 942.76,-478.2 965.34,-482.9"/>
<polygon fill="#63b8ff" stroke="#63b8ff" points="964.89,-486.38 975.4,-484.99 966.32,-479.52 964.89,-486.38"/>
</g>
<!-- Node72&#45;&gt;Node10 -->
<g id="edge33" class="edge">
<title>Node72&#45;&gt;Node10</title>
<path fill="none" stroke="#63b8ff" d="M1049.64,-488C1068.79,-485.61 1092.66,-482.64 1113.79,-480.01"/>
<polygon fill="#63b8ff" stroke="#63b8ff" points="1114.41,-483.45 1123.9,-478.74 1113.55,-476.51 1114.41,-483.45"/>
</g>
<!-- Node145 -->
<g id="node29" class="node">
<title>Node145</title>
<g id="a_node29"><a xlink:href="env__to__list_8c.html#a11c46ed192ca0ad8a479ed9a317f135e" target="_top" xlink:title=" ">
<polygon fill="white" stroke="#666666" points="579.5,-767 509.5,-767 509.5,-748 579.5,-748 579.5,-767"/>
<text text-anchor="middle" x="544.5" y="-755" font-family="Helvetica,sans-Serif" font-size="10.00">env_to_list</text>
</a>
</g>
</g>
<!-- Node144&#45;&gt;Node145 -->
<g id="edge36" class="edge">
<title>Node144&#45;&gt;Node145</title>
<path fill="none" stroke="#63b8ff" d="M257.68,-706.77C313.45,-716.67 434.13,-738.09 499.42,-749.68"/>
<polygon fill="#63b8ff" stroke="#63b8ff" points="498.94,-753.15 509.4,-751.45 500.17,-746.25 498.94,-753.15"/>
</g>
<!-- Node149 -->
<g id="node34" class="node">
<title>Node149</title>
<g id="a_node34"><a xlink:href="shell_8c.html#a2f3ef7bd282a23f9a3c63eadf5b60657" target="_top" xlink:title=" ">
<polygon fill="white" stroke="#666666" points="415.5,-768 333.5,-768 333.5,-749 415.5,-749 415.5,-768"/>
<text text-anchor="middle" x="374.5" y="-756" font-family="Helvetica,sans-Serif" font-size="10.00">handle_sigint</text>
</a>
</g>
</g>
<!-- Node144&#45;&gt;Node149 -->
<g id="edge41" class="edge">
<title>Node144&#45;&gt;Node149</title>
<path fill="none" stroke="#63b8ff" d="M252.35,-711.04C276.27,-720.41 312.97,-734.79 339.71,-745.26"/>
<polygon fill="#63b8ff" stroke="#63b8ff" points="338.48,-748.54 349.07,-748.93 341.03,-742.02 338.48,-748.54"/>
</g>
<!-- Node150 -->
<g id="node35" class="node">
<title>Node150</title>
<g id="a_node35"><a xlink:href="shell_8c.html#ad4e9c36df0b2cc333b20e6b743722899" target="_top" xlink:title=" ">
<polygon fill="white" stroke="#666666" points="416,-692 333,-692 333,-673 416,-673 416,-692"/>
<text text-anchor="middle" x="374.5" y="-680" font-family="Helvetica,sans-Serif" font-size="10.00">init_variables</text>
</a>
</g>
</g>
<!-- Node144&#45;&gt;Node150 -->
<g id="edge42" class="edge">
<title>Node144&#45;&gt;Node150</title>
<path fill="none" stroke="#63b8ff" d="M257.8,-697.61C276.53,-695.16 301.18,-691.94 322.92,-689.11"/>
<polygon fill="#63b8ff" stroke="#63b8ff" points="323.52,-692.56 332.99,-687.79 322.62,-685.61 323.52,-692.56"/>
</g>
<!-- Node146 -->
<g id="node30" class="node">
<title>Node146</title>
<g id="a_node30"><a xlink:href="free__variable_8c.html#a6cfba30b5c98d6fa7663b6bc29fe01cc" target="_top" xlink:title=" ">
<polygon fill="white" stroke="#666666" points="753,-804 672,-804 672,-785 753,-785 753,-804"/>
<text text-anchor="middle" x="712.5" y="-792" font-family="Helvetica,sans-Serif" font-size="10.00">free_variable</text>
</a>
</g>
</g>
<!-- Node145&#45;&gt;Node146 -->
<g id="edge37" class="edge">
<title>Node145&#45;&gt;Node146</title>
<path fill="none" stroke="#63b8ff" d="M579.9,-765.17C603.64,-770.46 635.58,-777.58 662.05,-783.48"/>
<polygon fill="#63b8ff" stroke="#63b8ff" points="661.38,-786.91 671.9,-785.67 662.9,-780.08 661.38,-786.91"/>
</g>
<!-- Node147 -->
<g id="node31" class="node">
<title>Node147</title>
<g id="a_node31"><a xlink:href="list_8h.html#a56c2e407458d3d071ab549938bc5a7c1" target="_top" xlink:title=" ">
<polygon fill="white" stroke="#666666" points="758,-730 667,-730 667,-711 758,-711 758,-730"/>
<text text-anchor="middle" x="712.5" y="-718" font-family="Helvetica,sans-Serif" font-size="10.00">my_add_to_list</text>
</a>
</g>
</g>
<!-- Node145&#45;&gt;Node147 -->
<g id="edge38" class="edge">
<title>Node145&#45;&gt;Node147</title>
<path fill="none" stroke="#63b8ff" d="M579.9,-749.83C602.62,-744.77 632.84,-738.03 658.59,-732.29"/>
<polygon fill="#63b8ff" stroke="#63b8ff" points="659.58,-735.66 668.58,-730.07 658.06,-728.83 659.58,-735.66"/>
</g>
<!-- Node63 -->
<g id="node32" class="node">
<title>Node63</title>
<g id="a_node32"><a xlink:href="list_8h.html#a68908a98f87b64d0b0fa9ac090a70cad" target="_top" xlink:title=" ">
<polygon fill="white" stroke="#666666" points="751,-841 674,-841 674,-822 751,-822 751,-841"/>
<text text-anchor="middle" x="712.5" y="-829" font-family="Helvetica,sans-Serif" font-size="10.00">my_free_list</text>
</a>
</g>
</g>
<!-- Node145&#45;&gt;Node63 -->
<g id="edge39" class="edge">
<title>Node145&#45;&gt;Node63</title>
<path fill="none" stroke="#63b8ff" d="M579.55,-763.35C592.77,-766.56 607.66,-771.38 620,-778.5 639.33,-789.65 636.89,-801.98 656,-813.5 658.78,-815.17 661.73,-816.71 664.76,-818.12"/>
<polygon fill="#63b8ff" stroke="#63b8ff" points="663.46,-821.37 674.04,-821.96 666.14,-814.9 663.46,-821.37"/>
</g>
<!-- Node148 -->
<g id="node33" class="node">
<title>Node148</title>
<g id="a_node33"><a xlink:href="strings_8h.html#a27d061f38fee80ecc582a343015ebc5c" target="_top" xlink:title=" ">
<polygon fill="white" stroke="#666666" points="752.5,-767 672.5,-767 672.5,-748 752.5,-748 752.5,-767"/>
<text text-anchor="middle" x="712.5" y="-755" font-family="Helvetica,sans-Serif" font-size="10.00">my_getindex</text>
</a>
</g>
</g>
<!-- Node145&#45;&gt;Node148 -->
<g id="edge40" class="edge">
<title>Node145&#45;&gt;Node148</title>
<path fill="none" stroke="#63b8ff" d="M579.9,-757.5C603.7,-757.5 635.75,-757.5 662.26,-757.5"/>
<polygon fill="#63b8ff" stroke="#63b8ff" points="662.5,-761 672.5,-757.5 662.5,-754 662.5,-761"/>
</g>
<!-- Node22 -->
<g id="node36" class="node">
<title>Node22</title>
<g id="a_node36"><a xlink:href="get__variable__value_8c.html#a2edd9900f19af236aa05385a789be3d6" target="_top" xlink:title=" ">
<polygon fill="white" stroke="#666666" points="767.5,-654 657.5,-654 657.5,-635 767.5,-635 767.5,-654"/>
<text text-anchor="middle" x="712.5" y="-642" font-family="Helvetica,sans-Serif" font-size="10.00">get_variable_value</text>
</a>
</g>
</g>
<!-- Node150&#45;&gt;Node22 -->
<g id="edge43" class="edge">
<title>Node150&#45;&gt;Node22</title>
<path fill="none" stroke="#63b8ff" d="M416.24,-679.18C464.83,-675.06 548.48,-667.48 620,-658.5 628.9,-657.38 638.27,-656.09 647.48,-654.75"/>
<polygon fill="#63b8ff" stroke="#63b8ff" points="648,-658.21 657.38,-653.28 646.97,-651.28 648,-658.21"/>
</g>
<!-- Node151 -->
<g id="node38" class="node">
<title>Node151</title>
<g id="a_node38"><a xlink:href="set__variable_8c.html#a47afbd80fec3464fe83979a24adb4290" target="_top" xlink:title=" ">
<polygon fill="#fff0f0" stroke="red" points="583,-730 506,-730 506,-711 583,-711 583,-730"/>
<text text-anchor="middle" x="544.5" y="-718" font-family="Helvetica,sans-Serif" font-size="10.00">set_variable</text>
</a>
</g>
</g>
<!-- Node150&#45;&gt;Node151 -->
<g id="edge45" class="edge">
<title>Node150&#45;&gt;Node151</title>
<path fill="none" stroke="#63b8ff" d="M416.17,-691.7C440.15,-697.12 470.62,-704.02 495.75,-709.7"/>
<polygon fill="#63b8ff" stroke="#63b8ff" points="495.27,-713.18 505.79,-711.97 496.81,-706.35 495.27,-713.18"/>
</g>
<!-- Node23 -->
<g id="node37" class="node">
<title>Node23</title>
<g id="a_node37"><a xlink:href="get__variable_8c.html#a569170390f0edf013bf89c26ef55ea8c" target="_top" xlink:title=" ">
<polygon fill="white" stroke="#666666" points="900,-673 823,-673 823,-654 900,-654 900,-673"/>
<text text-anchor="middle" x="861.5" y="-661" font-family="Helvetica,sans-Serif" font-size="10.00">get_variable</text>
</a>
</g>
</g>
<!-- Node22&#45;&gt;Node23 -->
<g id="edge44" class="edge">
<title>Node22&#45;&gt;Node23</title>
<path fill="none" stroke="#63b8ff" d="M767.82,-651.52C782.56,-653.43 798.41,-655.47 812.76,-657.33"/>
<polygon fill="#63b8ff" stroke="#63b8ff" points="812.54,-660.83 822.91,-658.64 813.44,-653.89 812.54,-660.83"/>
</g>
<!-- Node151&#45;&gt;Node146 -->
<g id="edge46" class="edge">
<title>Node151&#45;&gt;Node146</title>
<path fill="none" stroke="#63b8ff" d="M583.05,-725.88C595.38,-728.72 608.79,-733.02 620,-739.5 639.86,-750.99 636.52,-764.38 656,-776.5 658.62,-778.13 661.41,-779.63 664.29,-781.01"/>
<polygon fill="#63b8ff" stroke="#63b8ff" points="663.1,-784.3 673.67,-784.98 665.83,-777.86 663.1,-784.3"/>
</g>
<!-- Node151&#45;&gt;Node147 -->
<g id="edge48" class="edge">
<title>Node151&#45;&gt;Node147</title>
<path fill="none" stroke="#63b8ff" d="M583.17,-720.5C604.93,-720.5 632.69,-720.5 656.82,-720.5"/>
<polygon fill="#63b8ff" stroke="#63b8ff" points="656.91,-724 666.91,-720.5 656.91,-717 656.91,-724"/>
</g>
<!-- Node151&#45;&gt;Node23 -->
<g id="edge47" class="edge">
<title>Node151&#45;&gt;Node23</title>
<path fill="none" stroke="#63b8ff" d="M583.18,-713.68C640.57,-703.3 749.83,-683.53 812.72,-672.15"/>
<polygon fill="#63b8ff" stroke="#63b8ff" points="813.56,-675.55 822.77,-670.33 812.31,-668.66 813.56,-675.55"/>
</g>
<!-- Node94 -->
<g id="node40" class="node">
<title>Node94</title>
<g id="a_node40"><a xlink:href="strings_8h.html#a5e1589f073ac32d227dbc6020c376dab" target="_top" xlink:title=" ">
<polygon fill="white" stroke="#666666" points="425,-542 324,-542 324,-523 425,-523 425,-542"/>
<text text-anchor="middle" x="374.5" y="-530" font-family="Helvetica,sans-Serif" font-size="10.00">append_to_buffer</text>
</a>
</g>
</g>
<!-- Node154&#45;&gt;Node94 -->
<g id="edge50" class="edge">
<title>Node154&#45;&gt;Node94</title>
<path fill="none" stroke="#63b8ff" d="M261.02,-532.5C276.58,-532.5 295.64,-532.5 313.62,-532.5"/>
<polygon fill="#63b8ff" stroke="#63b8ff" points="313.75,-536 323.75,-532.5 313.75,-529 313.75,-536"/>
</g>
<!-- Node155 -->
<g id="node41" class="node">
<title>Node155</title>
<g id="a_node41"><a xlink:href="read__input_8c.html#ab8f53813e21230b48d9ccdc4032c6bee" target="_top" xlink:title=" ">
<polygon fill="white" stroke="#666666" points="432.5,-505 316.5,-505 316.5,-486 432.5,-486 432.5,-505"/>
<text text-anchor="middle" x="374.5" y="-493" font-family="Helvetica,sans-Serif" font-size="10.00">handle_continuation</text>
</a>
</g>
</g>
<!-- Node154&#45;&gt;Node155 -->
<g id="edge51" class="edge">
<title>Node154&#45;&gt;Node155</title>
<path fill="none" stroke="#63b8ff" d="M261.02,-524.1C280.27,-519.21 304.88,-512.95 326.17,-507.54"/>
<polygon fill="#63b8ff" stroke="#63b8ff" points="327.17,-510.89 336,-505.04 325.44,-504.11 327.17,-510.89"/>
</g>
<!-- Node157 -->
<g id="node43" class="node">
<title>Node157</title>
<g id="a_node43"><a xlink:href="read__input_8c.html#a3282822bc1e8642066f4f88116a7a6cc" target="_top" xlink:title=" ">
<polygon fill="white" stroke="#666666" points="433,-579 316,-579 316,-560 433,-560 433,-579"/>
<text text-anchor="middle" x="374.5" y="-567" font-family="Helvetica,sans-Serif" font-size="10.00">handle_getline_error</text>
</a>
</g>
</g>
<!-- Node154&#45;&gt;Node157 -->
<g id="edge53" class="edge">
<title>Node154&#45;&gt;Node157</title>
<path fill="none" stroke="#63b8ff" d="M261.02,-540.9C280.27,-545.79 304.88,-552.05 326.17,-557.46"/>
<polygon fill="#63b8ff" stroke="#63b8ff" points="325.44,-560.89 336,-559.96 327.17,-554.11 325.44,-560.89"/>
</g>
<!-- Node158 -->
<g id="node44" class="node">
<title>Node158</title>
<g id="a_node44"><a xlink:href="read__input_8c.html#a9b0be933113dce6cb33ad0e4dbc89018" target="_top" xlink:title=" ">
<polygon fill="white" stroke="#666666" points="416,-468 333,-468 333,-449 416,-449 416,-468"/>
<text text-anchor="middle" x="374.5" y="-456" font-family="Helvetica,sans-Serif" font-size="10.00">show_prompt</text>
</a>
</g>
</g>
<!-- Node154&#45;&gt;Node158 -->
<g id="edge54" class="edge">
<title>Node154&#45;&gt;Node158</title>
<path fill="none" stroke="#63b8ff" d="M241.15,-522.87C257.87,-510.97 287.95,-490.67 316,-477.5 320.64,-475.32 325.6,-473.28 330.58,-471.41"/>
<polygon fill="#63b8ff" stroke="#63b8ff" points="331.88,-474.67 340.13,-468.03 329.54,-468.07 331.88,-474.67"/>
</g>
<!-- Node156 -->
<g id="node42" class="node">
<title>Node156</title>
<g id="a_node42"><a xlink:href="read__input_8c.html#ab1d0f5b306ce10bb8fff68a7a4aaf428" target="_top" xlink:title=" ">
<polygon fill="white" stroke="#666666" points="592.5,-599 496.5,-599 496.5,-580 592.5,-580 592.5,-599"/>
<text text-anchor="middle" x="544.5" y="-587" font-family="Helvetica,sans-Serif" font-size="10.00">should_continue</text>
</a>
</g>
</g>
<!-- Node155&#45;&gt;Node156 -->
<g id="edge52" class="edge">
<title>Node155&#45;&gt;Node156</title>
<path fill="none" stroke="#63b8ff" d="M415.49,-505.01C421.69,-507.5 427.76,-510.62 433,-514.5 455.29,-531.02 446.65,-549.07 469,-565.5 474.87,-569.82 481.55,-573.38 488.44,-576.31"/>
<polygon fill="#63b8ff" stroke="#63b8ff" points="487.33,-579.63 497.92,-579.93 489.83,-573.09 487.33,-579.63"/>
</g>
<!-- Node158&#45;&gt;Node22 -->
<g id="edge57" class="edge">
<title>Node158&#45;&gt;Node22</title>
<path fill="none" stroke="#63b8ff" d="M416.21,-468.1C422.18,-470.57 428,-473.66 433,-477.5 456.17,-495.3 445.26,-515.48 469,-532.5 525.33,-572.89 557.99,-540.54 620,-571.5 649.06,-586.01 677.5,-610.86 694.77,-627.48"/>
<polygon fill="#63b8ff" stroke="#63b8ff" points="692.72,-630.38 702.3,-634.9 697.63,-625.39 692.72,-630.38"/>
</g>
<!-- Node159 -->
<g id="node45" class="node">
<title>Node159</title>
<g id="a_node45"><a xlink:href="read__input_8c.html#a06d0ee3bb45a86c56f9a8fcf208b182f" target="_top" xlink:title=" ">
<polygon fill="white" stroke="#666666" points="593,-447 496,-447 496,-428 593,-428 593,-447"/>
<text text-anchor="middle" x="544.5" y="-435" font-family="Helvetica,sans-Serif" font-size="10.00">execute_precmd</text>
</a>
</g>
</g>
<!-- Node158&#45;&gt;Node159 -->
<g id="edge55" class="edge">
<title>Node158&#45;&gt;Node159</title>
<path fill="none" stroke="#63b8ff" d="M416.17,-453.42C437.06,-450.8 462.88,-447.58 485.8,-444.71"/>
<polygon fill="#63b8ff" stroke="#63b8ff" points="486.27,-448.18 495.75,-443.47 485.4,-441.24 486.27,-448.18"/>
</g>
<!-- Node160 -->
<g id="node46" class="node">
<title>Node160</title>
<g id="a_node46"><a xlink:href="read__input_8c.html#a6a144d0d5270ba0d210fcb5f39d7fc63" target="_top" xlink:title=" ">
<polygon fill="white" stroke="#666666" points="769,-504 656,-504 656,-485 769,-485 769,-504"/>
<text text-anchor="middle" x="712.5" y="-492" font-family="Helvetica,sans-Serif" font-size="10.00">print_prompt_prefix</text>
</a>
</g>
</g>
<!-- Node158&#45;&gt;Node160 -->
<g id="edge58" class="edge">
<title>Node158&#45;&gt;Node160</title>
<path fill="none" stroke="#63b8ff" d="M416.03,-462.84C472.97,-468.94 577.32,-480.12 645.54,-487.43"/>
<polygon fill="#63b8ff" stroke="#63b8ff" points="645.43,-490.94 655.74,-488.53 646.17,-483.98 645.43,-490.94"/>
</g>
<!-- Node161 -->
<g id="node47" class="node">
<title>Node161</title>
<g id="a_node47"><a xlink:href="read__input_8c.html#a95fff78135b5c85ed0ff754f303e28f7" target="_top" xlink:title=" ">
<polygon fill="white" stroke="#666666" points="620,-523 469,-523 469,-504 620,-504 620,-523"/>
<text text-anchor="middle" x="544.5" y="-511" font-family="Helvetica,sans-Serif" font-size="10.00">show_prompt_with_curr_dir</text>
</a>
</g>
</g>
<!-- Node158&#45;&gt;Node161 -->
<g id="edge59" class="edge">
<title>Node158&#45;&gt;Node161</title>
<path fill="none" stroke="#63b8ff" d="M404.46,-468.05C413.59,-471.07 423.72,-474.42 433,-477.5 449.01,-482.81 452.97,-484.25 469,-489.5 480.39,-493.23 492.77,-497.24 504.11,-500.89"/>
<polygon fill="#63b8ff" stroke="#63b8ff" points="503.16,-504.26 513.75,-503.99 505.3,-497.6 503.16,-504.26"/>
</g>
<!-- Node159&#45;&gt;Node4 -->
<g id="edge56" class="edge">
<title>Node159&#45;&gt;Node4</title>
<path fill="none" stroke="#63b8ff" d="M593.07,-432.06C614.74,-429.58 640.37,-426.64 662.24,-424.14"/>
<polygon fill="#63b8ff" stroke="#63b8ff" points="662.78,-427.6 672.32,-422.98 661.99,-420.64 662.78,-427.6"/>
</g>
<!-- Node161&#45;&gt;Node22 -->
<g id="edge60" class="edge">
<title>Node161&#45;&gt;Node22</title>
<path fill="none" stroke="#63b8ff" d="M588.72,-523C599.48,-526.53 610.61,-531.25 620,-537.5 655.58,-561.2 685.25,-602.46 700.48,-626.22"/>
<polygon fill="#63b8ff" stroke="#63b8ff" points="697.67,-628.33 705.93,-634.96 703.61,-624.62 697.67,-628.33"/>
</g>
<!-- Node161&#45;&gt;Node160 -->
<g id="edge61" class="edge">
<title>Node161&#45;&gt;Node160</title>
<path fill="none" stroke="#63b8ff" d="M620.24,-504.94C628.69,-503.98 637.25,-503 645.56,-502.05"/>
<polygon fill="#63b8ff" stroke="#63b8ff" points="646.03,-505.52 655.57,-500.9 645.24,-498.56 646.03,-505.52"/>
</g>
<!-- Node162&#45;&gt;Node146 -->
<g id="edge63" class="edge">
<title>Node162&#45;&gt;Node146</title>
<path fill="none" stroke="#63b8ff" d="M585.68,-796.02C608.6,-795.74 637.52,-795.39 661.86,-795.1"/>
<polygon fill="#63b8ff" stroke="#63b8ff" points="662.02,-798.6 671.97,-794.98 661.93,-791.6 662.02,-798.6"/>
</g>
<!-- Node162&#45;&gt;Node63 -->
<g id="edge64" class="edge">
<title>Node162&#45;&gt;Node63</title>
<path fill="none" stroke="#63b8ff" d="M585.68,-804.97C609.3,-809.95 639.28,-816.27 664.05,-821.5"/>
<polygon fill="#63b8ff" stroke="#63b8ff" points="663.45,-824.95 673.96,-823.59 664.9,-818.1 663.45,-824.95"/>
</g>
<!-- Node163&#45;&gt;Node22 -->
<g id="edge66" class="edge">
<title>Node163&#45;&gt;Node22</title>
<path fill="none" stroke="#63b8ff" d="M280.2,-627.55C369.26,-631.05 550.29,-638.16 647.07,-641.97"/>
<polygon fill="#63b8ff" stroke="#63b8ff" points="647.17,-645.47 657.3,-642.37 647.45,-638.48 647.17,-645.47"/>
</g>
<!-- Node131 -->
<g id="node50" class="node">
<title>Node131</title>
<g id="a_node50"><a xlink:href="strings_8h.html#a323aa24048c4eb482546b0ac2ad9f414" target="_top" xlink:title=" ">
<polygon fill="white" stroke="#666666" points="417.5,-616 331.5,-616 331.5,-597 417.5,-597 417.5,-616"/>
<text text-anchor="middle" x="374.5" y="-604" font-family="Helvetica,sans-Serif" font-size="10.00">my_str_isnum</text>
</a>
</g>
</g>
<!-- Node163&#45;&gt;Node131 -->
<g id="edge67" class="edge">
<title>Node163&#45;&gt;Node131</title>
<path fill="none" stroke="#63b8ff" d="M280.12,-618.69C293.5,-616.95 307.91,-615.07 321.3,-613.32"/>
<polygon fill="#63b8ff" stroke="#63b8ff" points="321.84,-616.78 331.3,-612.01 320.93,-609.83 321.84,-616.78"/>
</g>
</g>
</svg>
        <g id="navigator" transform="translate(0 0)" fill="#404254">
                <rect fill="#f2f5e9" fill-opacity="0.5" stroke="#606060" stroke-width=".5" x="0" y="0" width="60" height="60"/>
                <use id="zoomplus" xlink:href="#zoomPlus" x="17" y="9" onmousedown="handleZoom(evt,'in')"/>
                <use id="zoomminus" xlink:href="#zoomMin" x="42" y="9" onmousedown="handleZoom(evt,'out')"/>
                <use id="reset" xlink:href="#resetDef" x="30" y="36" onmousedown="handleReset()"/>
                <g id="arrowUp" xlink:href="#dirArrow" transform="translate(30 24)" onmousedown="handlePan(0,-1)">
                  <use xlink:href="#rim" fill="#404040">
                        <set attributeName="fill" to="#808080" begin="arrowUp.mouseover" end="arrowUp.mouseout"/>
                  </use>
                  <path fill="none" stroke="white" stroke-width="1.5" d="M0,-3.0v7 M-2.5,-0.5L0,-3.0L2.5,-0.5"/>
                </g>
                <g id="arrowRight" xlink:href="#dirArrow" transform="rotate(90) translate(36 -43)" onmousedown="handlePan(1,0)">
                  <use xlink:href="#rim" fill="#404040">
                        <set attributeName="fill" to="#808080" begin="arrowRight.mouseover" end="arrowRight.mouseout"/>
                  </use>
                  <path fill="none" stroke="white" stroke-width="1.5" d="M0,-3.0v7 M-2.5,-0.5L0,-3.0L2.5,-0.5"/>
                </g>
                <g id="arrowDown" xlink:href="#dirArrow" transform="rotate(180) translate(-30 -48)" onmousedown="handlePan(0,1)">
                  <use xlink:href="#rim" fill="#404040">
                        <set attributeName="fill" to="#808080" begin="arrowDown.mouseover" end="arrowDown.mouseout"/>
                  </use>
                  <path fill="none" stroke="white" stroke-width="1.5" d="M0,-3.0v7 M-2.5,-0.5L0,-3.0L2.5,-0.5"/>
                </g>
                <g id="arrowLeft" xlink:href="#dirArrow" transform="rotate(270) translate(-36 17)" onmousedown="handlePan(-1,0)">
                  <use xlink:href="#rim" fill="#404040">
                        <set attributeName="fill" to="#808080" begin="arrowLeft.mouseover" end="arrowLeft.mouseout"/>
                  </use>
                  <path fill="none" stroke="white" stroke-width="1.5" d="M0,-3.0v7 M-2.5,-0.5L0,-3.0L2.5,-0.5"/>
                </g>
        </g>
        <svg viewBox="0 0 15 15" width="100%" height="30px" preserveAspectRatio="xMaxYMin meet">
         <g id="arrow_out" transform="scale(0.3 0.3)">
          <a xlink:href="main_8c_aee7801bc627f70f446a37ec861000c35_cgraph_org.svg" target="_base">
           <rect id="button" ry="5" rx="5" y="6" x="6" height="38" width="38"
                fill="#f2f5e9" fill-opacity="0.5" stroke="#606060" stroke-width="1.0"/>
           <path id="arrow"
             d="M 11.500037,31.436501 C 11.940474,20.09759 22.043105,11.32322 32.158766,21.979434 L 37.068811,17.246167 C 37.068811,17.246167 37.088388,32 37.088388,32 L 22.160133,31.978069 C 22.160133,31.978069 26.997745,27.140456 26.997745,27.140456 C 18.528582,18.264221 13.291696,25.230495 11.500037,31.436501 z"
             style="fill:#404040;"/>
          </a>
         </g>
        </svg>
</svg>
