<?xml version="1.0" encoding="UTF-8" standalone="no"?>
<!DOCTYPE svg PUBLIC "-//W3C//DTD SVG 1.1//EN"
 "http://www.w3.org/Graphics/SVG/1.1/DTD/svg11.dtd">
<!-- Generated by graphviz version 2.43.0 (0)
 -->
<!-- Title: main Pages: 1 -->
<svg width="1343pt" height="801pt"
 viewBox="0.00 0.00 1343.00 800.78" xmlns="http://www.w3.org/2000/svg" xmlns:xlink="http://www.w3.org/1999/xlink">
<g id="graph0" class="graph" transform="scale(1 1) rotate(0) translate(4 796.78)">
<title>main</title>
<!-- Node1 -->
<g id="node1" class="node">
<title>Node1</title>
<g id="a_node1"><a xlink:title=" ">
<polygon fill="#999999" stroke="#666666" points="41,-525.78 0,-525.78 0,-506.78 41,-506.78 41,-525.78"/>
<text text-anchor="middle" x="20.5" y="-513.78" font-family="Helvetica,sans-Serif" font-size="10.00">main</text>
</a>
</g>
</g>
<!-- Node2 -->
<g id="node2" class="node">
<title>Node2</title>
<g id="a_node2"><a xlink:href="main_8c.html#a47e2a08216f6362d8656efaac70e4a95" target="_top" xlink:title=" ">
<polygon fill="white" stroke="#666666" points="138,-544.78 77,-544.78 77,-525.78 138,-525.78 138,-544.78"/>
<text text-anchor="middle" x="107.5" y="-532.78" font-family="Helvetica,sans-Serif" font-size="10.00">open_file</text>
</a>
</g>
</g>
<!-- Node1&#45;&gt;Node2 -->
<g id="edge1" class="edge">
<title>Node1&#45;&gt;Node2</title>
<path fill="none" stroke="#63b8ff" d="M41.21,-520.68C48.91,-522.4 58.02,-524.44 66.96,-526.44"/>
<polygon fill="#63b8ff" stroke="#63b8ff" points="66.37,-529.89 76.89,-528.66 67.89,-523.06 66.37,-529.89"/>
</g>
<!-- Node3 -->
<g id="node3" class="node">
<title>Node3</title>
<g id="a_node3"><a xlink:href="shell_8c.html#ad0c642810cef7d35602fd99eaec9e3de" target="_top" xlink:title=" ">
<polygon fill="white" stroke="#666666" points="138,-507.78 77,-507.78 77,-488.78 138,-488.78 138,-507.78"/>
<text text-anchor="middle" x="107.5" y="-495.78" font-family="Helvetica,sans-Serif" font-size="10.00">shell_run</text>
</a>
</g>
</g>
<!-- Node1&#45;&gt;Node3 -->
<g id="edge2" class="edge">
<title>Node1&#45;&gt;Node3</title>
<path fill="none" stroke="#63b8ff" d="M41.21,-512.1C48.91,-510.47 58.02,-508.54 66.96,-506.65"/>
<polygon fill="#63b8ff" stroke="#63b8ff" points="67.83,-510.04 76.89,-504.55 66.38,-503.2 67.83,-510.04"/>
</g>
<!-- Node4 -->
<g id="node4" class="node">
<title>Node4</title>
<g id="a_node4"><a xlink:href="shell_8c.html#afb5215a1775326d8976fd015f7832392" target="_top" xlink:title=" ">
<polygon fill="white" stroke="#666666" points="714.5,-346.78 634.5,-346.78 634.5,-327.78 714.5,-327.78 714.5,-346.78"/>
<text text-anchor="middle" x="674.5" y="-334.78" font-family="Helvetica,sans-Serif" font-size="10.00">handle_input</text>
</a>
</g>
</g>
<!-- Node3&#45;&gt;Node4 -->
<g id="edge3" class="edge">
<title>Node3&#45;&gt;Node4</title>
<path fill="none" stroke="#63b8ff" d="M138.08,-489.85C231.44,-463.25 520.14,-380.98 630.24,-349.6"/>
<polygon fill="#63b8ff" stroke="#63b8ff" points="631.36,-352.92 640.02,-346.82 629.44,-346.19 631.36,-352.92"/>
</g>
<!-- Node143 -->
<g id="node32" class="node">
<title>Node143</title>
<g id="a_node32"><a xlink:href="shell_8c.html#a983eddd5d67b74ffafb49f66b1b5e17f" target="_top" xlink:title=" ">
<polygon fill="white" stroke="#666666" points="238.5,-670.78 177.5,-670.78 177.5,-651.78 238.5,-651.78 238.5,-670.78"/>
<text text-anchor="middle" x="208" y="-658.78" font-family="Helvetica,sans-Serif" font-size="10.00">init_shell</text>
</a>
</g>
</g>
<!-- Node3&#45;&gt;Node143 -->
<g id="edge39" class="edge">
<title>Node3&#45;&gt;Node143</title>
<path fill="none" stroke="#63b8ff" d="M126.89,-507.89C130.89,-510.56 134.86,-513.71 138,-517.28 171.33,-555.07 192.12,-611.8 201.37,-641.51"/>
<polygon fill="#63b8ff" stroke="#63b8ff" points="198.13,-642.91 204.35,-651.48 204.84,-640.9 198.13,-642.91"/>
</g>
<!-- Node153 -->
<g id="node41" class="node">
<title>Node153</title>
<g id="a_node41"><a xlink:href="read__input_8c.html#a68810824934adf0e714171083b86a740" target="_top" xlink:title=" ">
<polygon fill="white" stroke="#666666" points="242,-267.78 174,-267.78 174,-248.78 242,-248.78 242,-267.78"/>
<text text-anchor="middle" x="208" y="-255.78" font-family="Helvetica,sans-Serif" font-size="10.00">read_input</text>
</a>
</g>
</g>
<!-- Node3&#45;&gt;Node153 -->
<g id="edge51" class="edge">
<title>Node3&#45;&gt;Node153</title>
<path fill="none" stroke="#63b8ff" d="M112.48,-488.57C127.3,-452.46 179.42,-325.47 199.26,-277.14"/>
<polygon fill="#63b8ff" stroke="#63b8ff" points="202.52,-278.42 203.08,-267.84 196.04,-275.76 202.52,-278.42"/>
</g>
<!-- Node161 -->
<g id="node50" class="node">
<title>Node161</title>
<g id="a_node50"><a xlink:href="shell_8c.html#a352d0fde24e5d22d7e92d3fcb05dab19" target="_top" xlink:title=" ">
<polygon fill="white" stroke="#666666" points="547.5,-681.78 465.5,-681.78 465.5,-662.78 547.5,-662.78 547.5,-681.78"/>
<text text-anchor="middle" x="506.5" y="-669.78" font-family="Helvetica,sans-Serif" font-size="10.00">shell_destroy</text>
</a>
</g>
</g>
<!-- Node3&#45;&gt;Node161 -->
<g id="edge64" class="edge">
<title>Node3&#45;&gt;Node161</title>
<path fill="none" stroke="#63b8ff" d="M130.41,-507.88C196.97,-537.05 396.99,-624.72 474.42,-658.65"/>
<polygon fill="#63b8ff" stroke="#63b8ff" points="473.09,-661.9 483.66,-662.7 475.9,-655.48 473.09,-661.9"/>
</g>
<!-- Node5 -->
<g id="node5" class="node">
<title>Node5</title>
<g id="a_node5"><a xlink:href="ast__destroy_8c.html#a04c67d7ab492f6e1e7bc44dc70faa057" target="_top" xlink:title=" ">
<polygon fill="white" stroke="#666666" points="860.5,-581.78 786.5,-581.78 786.5,-562.78 860.5,-562.78 860.5,-581.78"/>
<text text-anchor="middle" x="823.5" y="-569.78" font-family="Helvetica,sans-Serif" font-size="10.00">ast_destroy</text>
</a>
</g>
</g>
<!-- Node4&#45;&gt;Node5 -->
<g id="edge4" class="edge">
<title>Node4&#45;&gt;Node5</title>
<path fill="none" stroke="#63b8ff" d="M677.21,-346.95C683.42,-379.33 707.55,-485.3 767,-546.28 771.53,-550.93 777.06,-554.84 782.85,-558.1"/>
<polygon fill="#63b8ff" stroke="#63b8ff" points="781.54,-561.36 792.05,-562.7 784.67,-555.1 781.54,-561.36"/>
</g>
<!-- Node7 -->
<g id="node7" class="node">
<title>Node7</title>
<g id="a_node7"><a xlink:href="shell_8c.html#a74405478dadd73c0a4d1e5f3e8d2e3ef" target="_top" xlink:title=" ">
<polygon fill="white" stroke="#666666" points="880,-537.28 767,-537.28 767,-507.28 880,-507.28 880,-537.28"/>
<text text-anchor="start" x="775" y="-525.28" font-family="Helvetica,sans-Serif" font-size="10.00">destroy_parser_and</text>
<text text-anchor="middle" x="823.5" y="-514.28" font-family="Helvetica,sans-Serif" font-size="10.00">_lexer</text>
</a>
</g>
</g>
<!-- Node4&#45;&gt;Node7 -->
<g id="edge7" class="edge">
<title>Node4&#45;&gt;Node7</title>
<path fill="none" stroke="#63b8ff" d="M683.2,-346.96C705.7,-375.28 771.82,-458.5 804.2,-499.25"/>
<polygon fill="#63b8ff" stroke="#63b8ff" points="801.61,-501.62 810.58,-507.27 807.09,-497.26 801.61,-501.62"/>
</g>
<!-- Node11 -->
<g id="node11" class="node">
<title>Node11</title>
<g id="a_node11"><a xlink:href="execute__ast_8c.html#ad26a20a665ab7fdeb714ed53c1afd104" target="_top" xlink:title=" ">
<polygon fill="white" stroke="#666666" points="861,-346.78 786,-346.78 786,-327.78 861,-327.78 861,-346.78"/>
<text text-anchor="middle" x="823.5" y="-334.78" font-family="Helvetica,sans-Serif" font-size="10.00">execute_ast</text>
</a>
</g>
</g>
<!-- Node4&#45;&gt;Node11 -->
<g id="edge11" class="edge">
<title>Node4&#45;&gt;Node11</title>
<path fill="none" stroke="#63b8ff" d="M714.51,-337.28C733.34,-337.28 756.08,-337.28 775.82,-337.28"/>
<polygon fill="#63b8ff" stroke="#63b8ff" points="775.84,-340.78 785.84,-337.28 775.84,-333.78 775.84,-340.78"/>
</g>
<!-- Node45 -->
<g id="node25" class="node">
<title>Node45</title>
<g id="a_node25"><a xlink:href="shell_8c.html#a6e35892cfa82c5f227b10f37abc529e9" target="_top" xlink:title=" ">
<polygon fill="white" stroke="#666666" points="869,-85.78 778,-85.78 778,-66.78 869,-66.78 869,-85.78"/>
<text text-anchor="middle" x="823.5" y="-73.78" font-family="Helvetica,sans-Serif" font-size="10.00">handle_parsing</text>
</a>
</g>
</g>
<!-- Node4&#45;&gt;Node45 -->
<g id="edge30" class="edge">
<title>Node4&#45;&gt;Node45</title>
<path fill="none" stroke="#63b8ff" d="M679,-327.68C695.22,-283.28 762.46,-99.67 767,-95.28 768.63,-93.69 770.41,-92.24 772.28,-90.91"/>
<polygon fill="#63b8ff" stroke="#63b8ff" points="774.15,-93.87 781.02,-85.81 770.62,-87.83 774.15,-93.87"/>
</g>
<!-- Node140 -->
<g id="node28" class="node">
<title>Node140</title>
<g id="a_node28"><a xlink:href="shell_8c.html#a1ce512725ee0371f8bf608a3ece0c152" target="_top" xlink:title=" ">
<polygon fill="white" stroke="#666666" points="1189,-123.78 1069,-123.78 1069,-104.78 1189,-104.78 1189,-123.78"/>
<text text-anchor="middle" x="1129" y="-111.78" font-family="Helvetica,sans-Serif" font-size="10.00">show_error_message</text>
</a>
</g>
</g>
<!-- Node4&#45;&gt;Node140 -->
<g id="edge38" class="edge">
<title>Node4&#45;&gt;Node140</title>
<path fill="none" stroke="#63b8ff" d="M686.64,-327.46C719.42,-299.06 819.31,-216.02 916,-171.28 962.75,-149.64 1019.23,-134.96 1062.14,-125.93"/>
<polygon fill="#63b8ff" stroke="#63b8ff" points="1063.09,-129.3 1072.18,-123.86 1061.68,-122.45 1063.09,-129.3"/>
</g>
<!-- Node141 -->
<g id="node29" class="node">
<title>Node141</title>
<g id="a_node29"><a xlink:href="lexer__init_8c.html#aee55447f2c8b083ed2614fa4f439f9cc" target="_top" xlink:title=" ">
<polygon fill="white" stroke="#666666" points="854.5,-122.78 792.5,-122.78 792.5,-103.78 854.5,-103.78 854.5,-122.78"/>
<text text-anchor="middle" x="823.5" y="-110.78" font-family="Helvetica,sans-Serif" font-size="10.00">lexer_init</text>
</a>
</g>
</g>
<!-- Node4&#45;&gt;Node141 -->
<g id="edge34" class="edge">
<title>Node4&#45;&gt;Node141</title>
<path fill="none" stroke="#63b8ff" d="M677.37,-327.51C683.9,-295.8 708.62,-194.45 767,-137.28 771.63,-132.75 777.25,-129.01 783.11,-125.94"/>
<polygon fill="#63b8ff" stroke="#63b8ff" points="784.8,-129.01 792.42,-121.65 781.88,-122.65 784.8,-129.01"/>
</g>
<!-- Node142 -->
<g id="node30" class="node">
<title>Node142</title>
<g id="a_node30"><a xlink:href="parser__init_8c.html#a7a5dc445fa057a393d0b94590acea2f1" target="_top" xlink:title=" ">
<polygon fill="white" stroke="#666666" points="857.5,-436.78 789.5,-436.78 789.5,-417.78 857.5,-417.78 857.5,-436.78"/>
<text text-anchor="middle" x="823.5" y="-424.78" font-family="Helvetica,sans-Serif" font-size="10.00">parser_init</text>
</a>
</g>
</g>
<!-- Node4&#45;&gt;Node142 -->
<g id="edge35" class="edge">
<title>Node4&#45;&gt;Node142</title>
<path fill="none" stroke="#63b8ff" d="M691.23,-346.91C716.87,-362.61 767.85,-393.82 798.18,-412.39"/>
<polygon fill="#63b8ff" stroke="#63b8ff" points="796.53,-415.48 806.88,-417.71 800.18,-409.51 796.53,-415.48"/>
</g>
<!-- Node5&#45;&gt;Node5 -->
<g id="edge5" class="edge">
<title>Node5&#45;&gt;Node5</title>
<path fill="none" stroke="#63b8ff" d="M800.69,-581.86C789.59,-590.51 797.2,-599.78 823.5,-599.78 840.35,-599.78 849.53,-595.97 851.03,-590.97"/>
<polygon fill="#63b8ff" stroke="#63b8ff" points="854.02,-589.13 846.31,-581.86 847.8,-592.35 854.02,-589.13"/>
</g>
<!-- Node6 -->
<g id="node6" class="node">
<title>Node6</title>
<g id="a_node6"><a xlink:href="misc_8h.html#a1180cae2875b1fdcd58c9f9175a82c12" target="_top" xlink:title=" ">
<polygon fill="white" stroke="#666666" points="1033,-605.78 916,-605.78 916,-586.78 1033,-586.78 1033,-605.78"/>
<text text-anchor="middle" x="974.5" y="-593.78" font-family="Helvetica,sans-Serif" font-size="10.00">my_free_word_array</text>
</a>
</g>
</g>
<!-- Node5&#45;&gt;Node6 -->
<g id="edge6" class="edge">
<title>Node5&#45;&gt;Node6</title>
<path fill="none" stroke="#63b8ff" d="M860.57,-578.09C874.2,-580.28 890.21,-582.86 905.8,-585.37"/>
<polygon fill="#63b8ff" stroke="#63b8ff" points="905.54,-588.88 915.97,-587.01 906.65,-581.96 905.54,-588.88"/>
</g>
<!-- Node8 -->
<g id="node8" class="node">
<title>Node8</title>
<g id="a_node8"><a xlink:href="lexer__init_8c.html#a592247dc9c102c884630b41389a1b38b" target="_top" xlink:title=" ">
<polygon fill="white" stroke="#666666" points="1016,-568.78 933,-568.78 933,-549.78 1016,-549.78 1016,-568.78"/>
<text text-anchor="middle" x="974.5" y="-556.78" font-family="Helvetica,sans-Serif" font-size="10.00">lexer_destroy</text>
</a>
</g>
</g>
<!-- Node7&#45;&gt;Node8 -->
<g id="edge8" class="edge">
<title>Node7&#45;&gt;Node8</title>
<path fill="none" stroke="#63b8ff" d="M880.41,-536.16C895.02,-539.79 910.66,-543.67 924.87,-547.2"/>
<polygon fill="#63b8ff" stroke="#63b8ff" points="924.38,-550.69 934.93,-549.7 926.06,-543.89 924.38,-550.69"/>
</g>
<!-- Node9 -->
<g id="node9" class="node">
<title>Node9</title>
<g id="a_node9"><a xlink:href="parser__destroy_8c.html#ae2656460a6fc6b6cd65624312fe0c943" target="_top" xlink:title=" ">
<polygon fill="white" stroke="#666666" points="1019,-531.78 930,-531.78 930,-512.78 1019,-512.78 1019,-531.78"/>
<text text-anchor="middle" x="974.5" y="-519.78" font-family="Helvetica,sans-Serif" font-size="10.00">parser_destroy</text>
</a>
</g>
</g>
<!-- Node7&#45;&gt;Node9 -->
<g id="edge9" class="edge">
<title>Node7&#45;&gt;Node9</title>
<path fill="none" stroke="#63b8ff" d="M880.41,-522.28C893.31,-522.28 907,-522.28 919.81,-522.28"/>
<polygon fill="#63b8ff" stroke="#63b8ff" points="919.85,-525.78 929.85,-522.28 919.85,-518.78 919.85,-525.78"/>
</g>
<!-- Node10 -->
<g id="node10" class="node">
<title>Node10</title>
<g id="a_node10"><a xlink:href="destroy__token_8c.html#ad1a471ee7b1ccb035d769be1152a370c" target="_top" xlink:title=" ">
<polygon fill="white" stroke="#666666" points="1172,-512.78 1086,-512.78 1086,-493.78 1172,-493.78 1172,-512.78"/>
<text text-anchor="middle" x="1129" y="-500.78" font-family="Helvetica,sans-Serif" font-size="10.00">token_destroy</text>
</a>
</g>
</g>
<!-- Node9&#45;&gt;Node10 -->
<g id="edge10" class="edge">
<title>Node9&#45;&gt;Node10</title>
<path fill="none" stroke="#63b8ff" d="M1019.2,-516.83C1036.87,-514.63 1057.42,-512.07 1075.87,-509.77"/>
<polygon fill="#63b8ff" stroke="#63b8ff" points="1076.38,-513.24 1085.87,-508.53 1075.51,-506.29 1076.38,-513.24"/>
</g>
<!-- Node12 -->
<g id="node12" class="node">
<title>Node12</title>
<g id="a_node12"><a xlink:href="execute__cmd_8c.html#a94ea9cc5a046ce96e36764bf0e4fa2c0" target="_top" xlink:title=" ">
<polygon fill="white" stroke="#666666" points="1015,-272.78 934,-272.78 934,-253.78 1015,-253.78 1015,-272.78"/>
<text text-anchor="middle" x="974.5" y="-260.78" font-family="Helvetica,sans-Serif" font-size="10.00">execute_cmd</text>
</a>
</g>
</g>
<!-- Node11&#45;&gt;Node12 -->
<g id="edge12" class="edge">
<title>Node11&#45;&gt;Node12</title>
<path fill="none" stroke="#63b8ff" d="M838.23,-327.69C855.68,-315.83 887.03,-295.57 916,-282.28 920.72,-280.11 925.75,-278.08 930.81,-276.2"/>
<polygon fill="#63b8ff" stroke="#63b8ff" points="932.21,-279.42 940.48,-272.8 929.88,-272.82 932.21,-279.42"/>
</g>
<!-- Node27 -->
<g id="node17" class="node">
<title>Node27</title>
<g id="a_node17"><a xlink:href="execute__logical__and_8c.html#a4f940752faf9f9a258c49810b21efe47" target="_top" xlink:title=" ">
<polygon fill="white" stroke="#666666" points="1032.5,-457.78 916.5,-457.78 916.5,-438.78 1032.5,-438.78 1032.5,-457.78"/>
<text text-anchor="middle" x="974.5" y="-445.78" font-family="Helvetica,sans-Serif" font-size="10.00">execute_logical_and</text>
</a>
</g>
</g>
<!-- Node11&#45;&gt;Node27 -->
<g id="edge17" class="edge">
<title>Node11&#45;&gt;Node27</title>
<path fill="none" stroke="#63b8ff" d="M836.03,-346.99C851.84,-364.74 882.18,-400.61 916,-421.28 926.28,-427.56 938.95,-431.83 949.78,-435.45"/>
<polygon fill="#63b8ff" stroke="#63b8ff" points="948.86,-438.84 959.46,-438.77 951.13,-432.22 948.86,-438.84"/>
</g>
<!-- Node28 -->
<g id="node18" class="node">
<title>Node28</title>
<g id="a_node18"><a xlink:href="execute__logical__or_8c.html#a7e732d7c30b07010fa55850051007dcc" target="_top" xlink:title=" ">
<polygon fill="white" stroke="#666666" points="1028,-420.78 921,-420.78 921,-401.78 1028,-401.78 1028,-420.78"/>
<text text-anchor="middle" x="974.5" y="-408.78" font-family="Helvetica,sans-Serif" font-size="10.00">execute_logical_or</text>
</a>
</g>
</g>
<!-- Node11&#45;&gt;Node28 -->
<g id="edge19" class="edge">
<title>Node11&#45;&gt;Node28</title>
<path fill="none" stroke="#63b8ff" d="M848.83,-346.96C866.76,-357.53 892.09,-373.42 916,-384.28 927.67,-389.58 941.33,-393.93 952.42,-398.01"/>
<polygon fill="#63b8ff" stroke="#63b8ff" points="951.15,-401.27 961.74,-401.7 953.73,-394.76 951.15,-401.27"/>
</g>
<!-- Node29 -->
<g id="node19" class="node">
<title>Node29</title>
<g id="a_node19"><a xlink:href="execute__pipe_8c.html#a5f3546dc2c7cf06c982afba41e722164" target="_top" xlink:title=" ">
<polygon fill="#fff0f0" stroke="red" points="1015,-198.78 934,-198.78 934,-179.78 1015,-179.78 1015,-198.78"/>
<text text-anchor="middle" x="974.5" y="-186.78" font-family="Helvetica,sans-Serif" font-size="10.00">execute_pipe</text>
</a>
</g>
</g>
<!-- Node11&#45;&gt;Node29 -->
<g id="edge21" class="edge">
<title>Node11&#45;&gt;Node29</title>
<path fill="none" stroke="#63b8ff" d="M828.72,-327.59C839.6,-303.72 870.95,-241.57 916,-208.28 918.66,-206.31 921.54,-204.54 924.54,-202.94"/>
<polygon fill="#63b8ff" stroke="#63b8ff" points="926.19,-206.04 933.82,-198.68 923.27,-199.68 926.19,-206.04"/>
</g>
<!-- Node34 -->
<g id="node21" class="node">
<title>Node34</title>
<g id="a_node21"><a xlink:href="execute__redirect_8c.html#a1004307aba80117ddd99f009e52fb155" target="_top" xlink:title=" ">
<polygon fill="#fff0f0" stroke="red" points="1023.5,-383.78 925.5,-383.78 925.5,-364.78 1023.5,-364.78 1023.5,-383.78"/>
<text text-anchor="middle" x="974.5" y="-371.78" font-family="Helvetica,sans-Serif" font-size="10.00">execute_redirect</text>
</a>
</g>
</g>
<!-- Node11&#45;&gt;Node34 -->
<g id="edge23" class="edge">
<title>Node11&#45;&gt;Node34</title>
<path fill="none" stroke="#63b8ff" d="M861.33,-346.42C880.59,-351.2 904.4,-357.12 925.12,-362.26"/>
<polygon fill="#63b8ff" stroke="#63b8ff" points="924.46,-365.71 935.01,-364.72 926.15,-358.91 924.46,-365.71"/>
</g>
<!-- Node42 -->
<g id="node22" class="node">
<title>Node42</title>
<g id="a_node22"><a xlink:href="execute__repeat_8c.html#a00d48683c54b50130b4a402e6e97fa97" target="_top" xlink:title=" ">
<polygon fill="white" stroke="#666666" points="1020.5,-346.78 928.5,-346.78 928.5,-327.78 1020.5,-327.78 1020.5,-346.78"/>
<text text-anchor="middle" x="974.5" y="-334.78" font-family="Helvetica,sans-Serif" font-size="10.00">execute_repeat</text>
</a>
</g>
</g>
<!-- Node11&#45;&gt;Node42 -->
<g id="edge24" class="edge">
<title>Node11&#45;&gt;Node42</title>
<path fill="none" stroke="#63b8ff" d="M861.33,-331.36C878.5,-330.53 899.29,-330.32 918.28,-330.73"/>
<polygon fill="#63b8ff" stroke="#63b8ff" points="918.22,-334.23 928.31,-331.01 918.42,-327.23 918.22,-334.23"/>
</g>
<!-- Node43 -->
<g id="node23" class="node">
<title>Node43</title>
<g id="a_node23"><a xlink:href="execute__sequence_8c.html#aad2caa5bf50b0752dd8272da477ec231" target="_top" xlink:title=" ">
<polygon fill="white" stroke="#666666" points="1028,-309.78 921,-309.78 921,-290.78 1028,-290.78 1028,-309.78"/>
<text text-anchor="middle" x="974.5" y="-297.78" font-family="Helvetica,sans-Serif" font-size="10.00">execute_sequence</text>
</a>
</g>
</g>
<!-- Node11&#45;&gt;Node43 -->
<g id="edge26" class="edge">
<title>Node11&#45;&gt;Node43</title>
<path fill="none" stroke="#63b8ff" d="M843.98,-327.71C861.1,-321.84 886.99,-314.77 911.13,-309.09"/>
<polygon fill="#63b8ff" stroke="#63b8ff" points="912.02,-312.48 920.98,-306.84 910.46,-305.66 912.02,-312.48"/>
</g>
<!-- Node44 -->
<g id="node24" class="node">
<title>Node44</title>
<g id="a_node24"><a xlink:href="execute__subshell_8c.html#a40a27866de012b013a337f794a858d70" target="_top" xlink:title=" ">
<polygon fill="#fff0f0" stroke="red" points="1025,-235.78 924,-235.78 924,-216.78 1025,-216.78 1025,-235.78"/>
<text text-anchor="middle" x="974.5" y="-223.78" font-family="Helvetica,sans-Serif" font-size="10.00">execute_subshell</text>
</a>
</g>
</g>
<!-- Node11&#45;&gt;Node44 -->
<g id="edge28" class="edge">
<title>Node11&#45;&gt;Node44</title>
<path fill="none" stroke="#63b8ff" d="M828.57,-327.51C839.6,-307.95 871.72,-266.47 915.31,-237.43"/>
<polygon fill="#63b8ff" stroke="#63b8ff" points="917.31,-240.3 923.87,-231.97 913.56,-234.39 917.31,-240.3"/>
</g>
<!-- Node13 -->
<g id="node13" class="node">
<title>Node13</title>
<g id="a_node13"><a xlink:href="execute__cmd_8c.html#a0cfd2364134e68efdd39533e00b4b0d9" target="_top" xlink:title=" ">
<polygon fill="#fff0f0" stroke="red" points="1188.5,-235.78 1069.5,-235.78 1069.5,-216.78 1188.5,-216.78 1188.5,-235.78"/>
<text text-anchor="middle" x="1129" y="-223.78" font-family="Helvetica,sans-Serif" font-size="10.00">execute_local_binary</text>
</a>
</g>
</g>
<!-- Node12&#45;&gt;Node13 -->
<g id="edge13" class="edge">
<title>Node12&#45;&gt;Node13</title>
<path fill="none" stroke="#63b8ff" d="M1014.77,-253.75C1034.26,-249.02 1058.01,-243.26 1078.71,-238.24"/>
<polygon fill="#63b8ff" stroke="#63b8ff" points="1079.7,-241.6 1088.6,-235.84 1078.05,-234.79 1079.7,-241.6"/>
</g>
<!-- Node21 -->
<g id="node14" class="node">
<title>Node21</title>
<g id="a_node14"><a xlink:href="execute__cmd_8c.html#a460126af28ab29df4340554fae9fc57a" target="_top" xlink:title=" ">
<polygon fill="#fff0f0" stroke="red" points="1188,-272.78 1070,-272.78 1070,-253.78 1188,-253.78 1188,-272.78"/>
<text text-anchor="middle" x="1129" y="-260.78" font-family="Helvetica,sans-Serif" font-size="10.00">execute_path_binary</text>
</a>
</g>
</g>
<!-- Node12&#45;&gt;Node21 -->
<g id="edge14" class="edge">
<title>Node12&#45;&gt;Node21</title>
<path fill="none" stroke="#63b8ff" d="M1015.17,-263.28C1028.72,-263.28 1044.29,-263.28 1059.46,-263.28"/>
<polygon fill="#63b8ff" stroke="#63b8ff" points="1059.86,-266.78 1069.86,-263.28 1059.86,-259.78 1059.86,-266.78"/>
</g>
<!-- Node26 -->
<g id="node16" class="node">
<title>Node26</title>
<g id="a_node16"><a xlink:href="strings_8h.html#a36f055c4e56c8a784629908d0c5b91e5" target="_top" xlink:title=" ">
<polygon fill="white" stroke="#666666" points="1181,-309.78 1077,-309.78 1077,-290.78 1181,-290.78 1181,-309.78"/>
<text text-anchor="middle" x="1129" y="-297.78" font-family="Helvetica,sans-Serif" font-size="10.00">my_is_char_in_str</text>
</a>
</g>
</g>
<!-- Node12&#45;&gt;Node26 -->
<g id="edge16" class="edge">
<title>Node12&#45;&gt;Node26</title>
<path fill="none" stroke="#63b8ff" d="M1014.77,-272.81C1034.26,-277.53 1058.01,-283.3 1078.71,-288.32"/>
<polygon fill="#63b8ff" stroke="#63b8ff" points="1078.05,-291.76 1088.6,-290.72 1079.7,-284.96 1078.05,-291.76"/>
</g>
<!-- Node22 -->
<g id="node15" class="node">
<title>Node22</title>
<g id="a_node15"><a xlink:href="get__variable__value_8c.html#a2edd9900f19af236aa05385a789be3d6" target="_top" xlink:title=" ">
<polygon fill="#fff0f0" stroke="red" points="1335,-159.78 1225,-159.78 1225,-140.78 1335,-140.78 1335,-159.78"/>
<text text-anchor="middle" x="1280" y="-147.78" font-family="Helvetica,sans-Serif" font-size="10.00">get_variable_value</text>
</a>
</g>
</g>
<!-- Node21&#45;&gt;Node22 -->
<g id="edge15" class="edge">
<title>Node21&#45;&gt;Node22</title>
<path fill="none" stroke="#63b8ff" d="M1171.19,-253.73C1177.39,-251.44 1183.54,-248.66 1189,-245.28 1221.96,-224.87 1250.97,-189.47 1266.64,-168.12"/>
<polygon fill="#63b8ff" stroke="#63b8ff" points="1269.54,-170.08 1272.52,-159.92 1263.85,-166.01 1269.54,-170.08"/>
</g>
<!-- Node27&#45;&gt;Node11 -->
<g id="edge18" class="edge">
<title>Node27&#45;&gt;Node11</title>
<path fill="none" stroke="#63b8ff" d="M916.27,-439.44C916.18,-439.39 916.09,-439.33 916,-439.28 880.33,-417.48 848.53,-378.77 833.56,-355.49"/>
<polygon fill="#63b8ff" stroke="#63b8ff" points="836.52,-353.61 828.37,-346.84 830.51,-357.21 836.52,-353.61"/>
</g>
<!-- Node28&#45;&gt;Node11 -->
<g id="edge20" class="edge">
<title>Node28&#45;&gt;Node11</title>
<path fill="none" stroke="#63b8ff" d="M920.96,-404.42C919.28,-403.73 917.62,-403.01 916,-402.28 887.15,-389.17 856.22,-368.75 838.73,-353.88"/>
<polygon fill="#63b8ff" stroke="#63b8ff" points="841.04,-351.25 831.29,-347.09 836.32,-356.41 841.04,-351.25"/>
</g>
<!-- Node30 -->
<g id="node20" class="node">
<title>Node30</title>
<g id="a_node20"><a xlink:href="execute__pipe_8c.html#a723ff799f939872d17f109a82342294e" target="_top" xlink:title=" ">
<polygon fill="white" stroke="#666666" points="1160,-198.78 1098,-198.78 1098,-179.78 1160,-179.78 1160,-198.78"/>
<text text-anchor="middle" x="1129" y="-186.78" font-family="Helvetica,sans-Serif" font-size="10.00">close_fds</text>
</a>
</g>
</g>
<!-- Node29&#45;&gt;Node30 -->
<g id="edge22" class="edge">
<title>Node29&#45;&gt;Node30</title>
<path fill="none" stroke="#63b8ff" d="M1015.17,-189.28C1037.42,-189.28 1065.11,-189.28 1087.49,-189.28"/>
<polygon fill="#63b8ff" stroke="#63b8ff" points="1087.68,-192.78 1097.68,-189.28 1087.68,-185.78 1087.68,-192.78"/>
</g>
<!-- Node42&#45;&gt;Node11 -->
<g id="edge25" class="edge">
<title>Node42&#45;&gt;Node11</title>
<path fill="none" stroke="#63b8ff" d="M928.31,-343.54C910.31,-344.17 889.59,-344.19 871.41,-343.6"/>
<polygon fill="#63b8ff" stroke="#63b8ff" points="871.46,-340.1 861.33,-343.19 871.18,-347.09 871.46,-340.1"/>
</g>
<!-- Node43&#45;&gt;Node11 -->
<g id="edge27" class="edge">
<title>Node43&#45;&gt;Node11</title>
<path fill="none" stroke="#63b8ff" d="M953.95,-309.87C933.05,-317.02 899.15,-325.97 871.29,-331.98"/>
<polygon fill="#63b8ff" stroke="#63b8ff" points="870.41,-328.58 861.33,-334.05 871.83,-335.44 870.41,-328.58"/>
</g>
<!-- Node44&#45;&gt;Node11 -->
<g id="edge29" class="edge">
<title>Node44&#45;&gt;Node11</title>
<path fill="none" stroke="#63b8ff" d="M959.95,-235.91C947.78,-240.62 929.77,-245.76 916,-254.28 886.96,-272.23 860.23,-301.17 843.26,-319.93"/>
<polygon fill="#63b8ff" stroke="#63b8ff" points="840.5,-317.76 836.39,-327.52 845.69,-322.46 840.5,-317.76"/>
</g>
<!-- Node46 -->
<g id="node26" class="node">
<title>Node46</title>
<g id="a_node26"><a xlink:href="empty__stdin_8c.html#a4c89df10296f2cc245e3a32065e04e7b" target="_top" xlink:title=" ">
<polygon fill="white" stroke="#666666" points="1013,-122.78 936,-122.78 936,-103.78 1013,-103.78 1013,-122.78"/>
<text text-anchor="middle" x="974.5" y="-110.78" font-family="Helvetica,sans-Serif" font-size="10.00">empty_stdin</text>
</a>
</g>
</g>
<!-- Node45&#45;&gt;Node46 -->
<g id="edge31" class="edge">
<title>Node45&#45;&gt;Node46</title>
<path fill="none" stroke="#63b8ff" d="M862.87,-85.81C882.14,-90.59 905.66,-96.43 926.05,-101.49"/>
<polygon fill="#63b8ff" stroke="#63b8ff" points="925.23,-104.9 935.77,-103.91 926.91,-98.1 925.23,-104.9"/>
</g>
<!-- Node47 -->
<g id="node27" class="node">
<title>Node47</title>
<g id="a_node27"><a xlink:href="shell_8c.html#a2c9bd51744387dc73763281019d78622" target="_top" xlink:title=" ">
<polygon fill="#fff0f0" stroke="red" points="1006.5,-85.78 942.5,-85.78 942.5,-66.78 1006.5,-66.78 1006.5,-85.78"/>
<text text-anchor="middle" x="974.5" y="-73.78" font-family="Helvetica,sans-Serif" font-size="10.00">parse_ast</text>
</a>
</g>
</g>
<!-- Node45&#45;&gt;Node47 -->
<g id="edge32" class="edge">
<title>Node45&#45;&gt;Node47</title>
<path fill="none" stroke="#63b8ff" d="M869.2,-76.28C889.11,-76.28 912.42,-76.28 931.95,-76.28"/>
<polygon fill="#63b8ff" stroke="#63b8ff" points="932.07,-79.78 942.07,-76.28 932.07,-72.78 932.07,-79.78"/>
</g>
<!-- Node47&#45;&gt;Node140 -->
<g id="edge33" class="edge">
<title>Node47&#45;&gt;Node140</title>
<path fill="none" stroke="#63b8ff" d="M1006.73,-84.06C1027.77,-89.3 1055.95,-96.32 1079.84,-102.28"/>
<polygon fill="#63b8ff" stroke="#63b8ff" points="1079.24,-105.73 1089.79,-104.75 1080.93,-98.94 1079.24,-105.73"/>
</g>
<!-- Node72 -->
<g id="node31" class="node">
<title>Node72</title>
<g id="a_node31"><a xlink:href="parser__next_8c.html#ad25986b565a767c6ad7d0b0b8846fca6" target="_top" xlink:title=" ">
<polygon fill="#fff0f0" stroke="red" points="1011.5,-494.78 937.5,-494.78 937.5,-475.78 1011.5,-475.78 1011.5,-494.78"/>
<text text-anchor="middle" x="974.5" y="-482.78" font-family="Helvetica,sans-Serif" font-size="10.00">parser_next</text>
</a>
</g>
</g>
<!-- Node142&#45;&gt;Node72 -->
<g id="edge36" class="edge">
<title>Node142&#45;&gt;Node72</title>
<path fill="none" stroke="#63b8ff" d="M844.59,-436.81C862.96,-445.35 890.99,-457.93 916,-467.28 920.84,-469.09 925.95,-470.87 931.04,-472.56"/>
<polygon fill="#63b8ff" stroke="#63b8ff" points="930.16,-475.95 940.75,-475.7 932.32,-469.29 930.16,-475.95"/>
</g>
<!-- Node72&#45;&gt;Node10 -->
<g id="edge37" class="edge">
<title>Node72&#45;&gt;Node10</title>
<path fill="none" stroke="#63b8ff" d="M1011.64,-489.54C1030.79,-491.8 1054.66,-494.62 1075.79,-497.11"/>
<polygon fill="#63b8ff" stroke="#63b8ff" points="1075.56,-500.61 1085.9,-498.31 1076.38,-493.66 1075.56,-500.61"/>
</g>
<!-- Node144 -->
<g id="node33" class="node">
<title>Node144</title>
<g id="a_node33"><a xlink:href="env__to__list_8c.html#a11c46ed192ca0ad8a479ed9a317f135e" target="_top" xlink:title=" ">
<polygon fill="white" stroke="#666666" points="541.5,-755.78 471.5,-755.78 471.5,-736.78 541.5,-736.78 541.5,-755.78"/>
<text text-anchor="middle" x="506.5" y="-743.78" font-family="Helvetica,sans-Serif" font-size="10.00">env_to_list</text>
</a>
</g>
</g>
<!-- Node143&#45;&gt;Node144 -->
<g id="edge40" class="edge">
<title>Node143&#45;&gt;Node144</title>
<path fill="none" stroke="#63b8ff" d="M223.46,-670.93C237.01,-679.56 258.11,-691.94 278,-699.28 339.56,-722 414.76,-734.82 461.4,-741.15"/>
<polygon fill="#63b8ff" stroke="#63b8ff" points="461.1,-744.64 471.47,-742.48 462.01,-737.7 461.1,-744.64"/>
</g>
<!-- Node148 -->
<g id="node38" class="node">
<title>Node148</title>
<g id="a_node38"><a xlink:href="shell_8c.html#a2f3ef7bd282a23f9a3c63eadf5b60657" target="_top" xlink:title=" ">
<polygon fill="white" stroke="#666666" points="377.5,-689.78 295.5,-689.78 295.5,-670.78 377.5,-670.78 377.5,-689.78"/>
<text text-anchor="middle" x="336.5" y="-677.78" font-family="Helvetica,sans-Serif" font-size="10.00">handle_sigint</text>
</a>
</g>
</g>
<!-- Node143&#45;&gt;Node148 -->
<g id="edge45" class="edge">
<title>Node143&#45;&gt;Node148</title>
<path fill="none" stroke="#63b8ff" d="M238.66,-665.73C252.56,-667.82 269.5,-670.36 285.31,-672.74"/>
<polygon fill="#63b8ff" stroke="#63b8ff" points="285.08,-676.24 295.49,-674.27 286.12,-669.32 285.08,-676.24"/>
</g>
<!-- Node149 -->
<g id="node39" class="node">
<title>Node149</title>
<g id="a_node39"><a xlink:href="shell_8c.html#ad4e9c36df0b2cc333b20e6b743722899" target="_top" xlink:title=" ">
<polygon fill="white" stroke="#666666" points="378,-652.78 295,-652.78 295,-633.78 378,-633.78 378,-652.78"/>
<text text-anchor="middle" x="336.5" y="-640.78" font-family="Helvetica,sans-Serif" font-size="10.00">init_variables</text>
</a>
</g>
</g>
<!-- Node143&#45;&gt;Node149 -->
<g id="edge46" class="edge">
<title>Node143&#45;&gt;Node149</title>
<path fill="none" stroke="#63b8ff" d="M238.66,-657.06C252.32,-655.11 268.92,-652.75 284.49,-650.54"/>
<polygon fill="#63b8ff" stroke="#63b8ff" points="285.13,-653.98 294.54,-649.11 284.14,-647.05 285.13,-653.98"/>
</g>
<!-- Node145 -->
<g id="node34" class="node">
<title>Node145</title>
<g id="a_node34"><a xlink:href="free__variable_8c.html#a6cfba30b5c98d6fa7663b6bc29fe01cc" target="_top" xlink:title=" ">
<polygon fill="white" stroke="#666666" points="715,-718.78 634,-718.78 634,-699.78 715,-699.78 715,-718.78"/>
<text text-anchor="middle" x="674.5" y="-706.78" font-family="Helvetica,sans-Serif" font-size="10.00">free_variable</text>
</a>
</g>
</g>
<!-- Node144&#45;&gt;Node145 -->
<g id="edge41" class="edge">
<title>Node144&#45;&gt;Node145</title>
<path fill="none" stroke="#63b8ff" d="M541.9,-738.61C565.64,-733.32 597.58,-726.2 624.05,-720.3"/>
<polygon fill="#63b8ff" stroke="#63b8ff" points="624.9,-723.7 633.9,-718.1 623.38,-716.86 624.9,-723.7"/>
</g>
<!-- Node146 -->
<g id="node35" class="node">
<title>Node146</title>
<g id="a_node35"><a xlink:href="list_8h.html#a56c2e407458d3d071ab549938bc5a7c1" target="_top" xlink:title=" ">
<polygon fill="white" stroke="#666666" points="720,-755.78 629,-755.78 629,-736.78 720,-736.78 720,-755.78"/>
<text text-anchor="middle" x="674.5" y="-743.78" font-family="Helvetica,sans-Serif" font-size="10.00">my_add_to_list</text>
</a>
</g>
</g>
<!-- Node144&#45;&gt;Node146 -->
<g id="edge42" class="edge">
<title>Node144&#45;&gt;Node146</title>
<path fill="none" stroke="#63b8ff" d="M541.9,-746.28C564.01,-746.28 593.24,-746.28 618.54,-746.28"/>
<polygon fill="#63b8ff" stroke="#63b8ff" points="618.74,-749.78 628.74,-746.28 618.74,-742.78 618.74,-749.78"/>
</g>
<!-- Node63 -->
<g id="node36" class="node">
<title>Node63</title>
<g id="a_node36"><a xlink:href="list_8h.html#a68908a98f87b64d0b0fa9ac090a70cad" target="_top" xlink:title=" ">
<polygon fill="white" stroke="#666666" points="713,-681.78 636,-681.78 636,-662.78 713,-662.78 713,-681.78"/>
<text text-anchor="middle" x="674.5" y="-669.78" font-family="Helvetica,sans-Serif" font-size="10.00">my_free_list</text>
</a>
</g>
</g>
<!-- Node144&#45;&gt;Node63 -->
<g id="edge43" class="edge">
<title>Node144&#45;&gt;Node63</title>
<path fill="none" stroke="#63b8ff" d="M541.64,-742.17C554.87,-739.55 569.75,-735.26 582,-728.28 601.93,-716.92 598.62,-703.55 618,-691.28 621.15,-689.28 624.54,-687.47 628.03,-685.82"/>
<polygon fill="#63b8ff" stroke="#63b8ff" points="629.57,-688.97 637.43,-681.86 626.85,-682.52 629.57,-688.97"/>
</g>
<!-- Node147 -->
<g id="node37" class="node">
<title>Node147</title>
<g id="a_node37"><a xlink:href="strings_8h.html#a27d061f38fee80ecc582a343015ebc5c" target="_top" xlink:title=" ">
<polygon fill="white" stroke="#666666" points="714.5,-792.78 634.5,-792.78 634.5,-773.78 714.5,-773.78 714.5,-792.78"/>
<text text-anchor="middle" x="674.5" y="-780.78" font-family="Helvetica,sans-Serif" font-size="10.00">my_getindex</text>
</a>
</g>
</g>
<!-- Node144&#45;&gt;Node147 -->
<g id="edge44" class="edge">
<title>Node144&#45;&gt;Node147</title>
<path fill="none" stroke="#63b8ff" d="M541.9,-753.94C565.81,-759.27 598.04,-766.46 624.61,-772.38"/>
<polygon fill="#63b8ff" stroke="#63b8ff" points="623.97,-775.82 634.5,-774.58 625.5,-768.99 623.97,-775.82"/>
</g>
<!-- Node149&#45;&gt;Node22 -->
<g id="edge47" class="edge">
<title>Node149&#45;&gt;Node22</title>
<path fill="none" stroke="#63b8ff" d="M378.09,-641.49C441.24,-638.86 566.86,-634.28 673.5,-634.28 673.5,-634.28 673.5,-634.28 975.5,-634.28 1048.27,-634.28 1178.57,-536.43 1189,-522.28 1272.17,-409.46 1279.39,-230 1279.35,-170.31"/>
<polygon fill="#63b8ff" stroke="#63b8ff" points="1282.84,-170 1279.26,-160.03 1275.85,-170.06 1282.84,-170"/>
</g>
<!-- Node150 -->
<g id="node40" class="node">
<title>Node150</title>
<g id="a_node40"><a xlink:href="set__variable_8c.html#a47afbd80fec3464fe83979a24adb4290" target="_top" xlink:title=" ">
<polygon fill="#fff0f0" stroke="red" points="545,-718.78 468,-718.78 468,-699.78 545,-699.78 545,-718.78"/>
<text text-anchor="middle" x="506.5" y="-706.78" font-family="Helvetica,sans-Serif" font-size="10.00">set_variable</text>
</a>
</g>
</g>
<!-- Node149&#45;&gt;Node150 -->
<g id="edge48" class="edge">
<title>Node149&#45;&gt;Node150</title>
<path fill="none" stroke="#63b8ff" d="M373,-652.79C380.48,-655.4 388.17,-658.56 395,-662.28 413.04,-672.1 412.57,-682.2 431,-691.28 439.33,-695.38 448.65,-698.58 457.81,-701.07"/>
<polygon fill="#63b8ff" stroke="#63b8ff" points="457.07,-704.49 467.62,-703.5 458.75,-697.7 457.07,-704.49"/>
</g>
<!-- Node150&#45;&gt;Node145 -->
<g id="edge49" class="edge">
<title>Node150&#45;&gt;Node145</title>
<path fill="none" stroke="#63b8ff" d="M545.17,-709.28C568.46,-709.28 598.61,-709.28 623.84,-709.28"/>
<polygon fill="#63b8ff" stroke="#63b8ff" points="623.96,-712.78 633.96,-709.28 623.96,-705.78 623.96,-712.78"/>
</g>
<!-- Node150&#45;&gt;Node146 -->
<g id="edge50" class="edge">
<title>Node150&#45;&gt;Node146</title>
<path fill="none" stroke="#63b8ff" d="M545.17,-717.67C567.53,-722.66 596.23,-729.05 620.81,-734.53"/>
<polygon fill="#63b8ff" stroke="#63b8ff" points="620.19,-737.98 630.71,-736.74 621.71,-731.15 620.19,-737.98"/>
</g>
<!-- Node94 -->
<g id="node42" class="node">
<title>Node94</title>
<g id="a_node42"><a xlink:href="strings_8h.html#a5e1589f073ac32d227dbc6020c376dab" target="_top" xlink:title=" ">
<polygon fill="white" stroke="#666666" points="387,-174.78 286,-174.78 286,-155.78 387,-155.78 387,-174.78"/>
<text text-anchor="middle" x="336.5" y="-162.78" font-family="Helvetica,sans-Serif" font-size="10.00">append_to_buffer</text>
</a>
</g>
</g>
<!-- Node153&#45;&gt;Node94 -->
<g id="edge52" class="edge">
<title>Node153&#45;&gt;Node94</title>
<path fill="none" stroke="#63b8ff" d="M215.48,-248.66C226.53,-232.98 250.49,-201.9 278,-184.28 281.15,-182.26 284.54,-180.43 288.03,-178.79"/>
<polygon fill="#63b8ff" stroke="#63b8ff" points="289.58,-181.93 297.45,-174.84 286.88,-175.48 289.58,-181.93"/>
</g>
<!-- Node154 -->
<g id="node43" class="node">
<title>Node154</title>
<g id="a_node43"><a xlink:href="read__input_8c.html#ab8f53813e21230b48d9ccdc4032c6bee" target="_top" xlink:title=" ">
<polygon fill="white" stroke="#666666" points="394.5,-267.78 278.5,-267.78 278.5,-248.78 394.5,-248.78 394.5,-267.78"/>
<text text-anchor="middle" x="336.5" y="-255.78" font-family="Helvetica,sans-Serif" font-size="10.00">handle_continuation</text>
</a>
</g>
</g>
<!-- Node153&#45;&gt;Node154 -->
<g id="edge53" class="edge">
<title>Node153&#45;&gt;Node154</title>
<path fill="none" stroke="#63b8ff" d="M242.24,-258.28C250.21,-258.28 259.02,-258.28 267.94,-258.28"/>
<polygon fill="#63b8ff" stroke="#63b8ff" points="268.03,-261.78 278.03,-258.28 268.03,-254.78 268.03,-261.78"/>
</g>
<!-- Node156 -->
<g id="node45" class="node">
<title>Node156</title>
<g id="a_node45"><a xlink:href="read__input_8c.html#a3282822bc1e8642066f4f88116a7a6cc" target="_top" xlink:title=" ">
<polygon fill="white" stroke="#666666" points="395,-304.78 278,-304.78 278,-285.78 395,-285.78 395,-304.78"/>
<text text-anchor="middle" x="336.5" y="-292.78" font-family="Helvetica,sans-Serif" font-size="10.00">handle_getline_error</text>
</a>
</g>
</g>
<!-- Node153&#45;&gt;Node156 -->
<g id="edge55" class="edge">
<title>Node153&#45;&gt;Node156</title>
<path fill="none" stroke="#63b8ff" d="M241.58,-267.81C257.1,-272.35 275.87,-277.84 292.53,-282.71"/>
<polygon fill="#63b8ff" stroke="#63b8ff" points="292.01,-286.2 302.59,-285.65 293.98,-279.49 292.01,-286.2"/>
</g>
<!-- Node157 -->
<g id="node46" class="node">
<title>Node157</title>
<g id="a_node46"><a xlink:href="read__input_8c.html#a9b0be933113dce6cb33ad0e4dbc89018" target="_top" xlink:title=" ">
<polygon fill="white" stroke="#666666" points="378,-211.78 295,-211.78 295,-192.78 378,-192.78 378,-211.78"/>
<text text-anchor="middle" x="336.5" y="-199.78" font-family="Helvetica,sans-Serif" font-size="10.00">show_prompt</text>
</a>
</g>
</g>
<!-- Node153&#45;&gt;Node157 -->
<g id="edge56" class="edge">
<title>Node153&#45;&gt;Node157</title>
<path fill="none" stroke="#63b8ff" d="M230.75,-248.65C251.14,-239.62 281.85,-226.03 304.75,-215.89"/>
<polygon fill="#63b8ff" stroke="#63b8ff" points="306.31,-219.03 314.04,-211.78 303.48,-212.63 306.31,-219.03"/>
</g>
<!-- Node155 -->
<g id="node44" class="node">
<title>Node155</title>
<g id="a_node44"><a xlink:href="read__input_8c.html#ab1d0f5b306ce10bb8fff68a7a4aaf428" target="_top" xlink:title=" ">
<polygon fill="white" stroke="#666666" points="554.5,-267.78 458.5,-267.78 458.5,-248.78 554.5,-248.78 554.5,-267.78"/>
<text text-anchor="middle" x="506.5" y="-255.78" font-family="Helvetica,sans-Serif" font-size="10.00">should_continue</text>
</a>
</g>
</g>
<!-- Node154&#45;&gt;Node155 -->
<g id="edge54" class="edge">
<title>Node154&#45;&gt;Node155</title>
<path fill="none" stroke="#63b8ff" d="M394.85,-258.28C412.01,-258.28 430.82,-258.28 447.99,-258.28"/>
<polygon fill="#63b8ff" stroke="#63b8ff" points="448.44,-261.78 458.44,-258.28 448.44,-254.78 448.44,-261.78"/>
</g>
<!-- Node157&#45;&gt;Node22 -->
<g id="edge59" class="edge">
<title>Node157&#45;&gt;Node22</title>
<path fill="none" stroke="#63b8ff" d="M378.25,-193.51C384.22,-191.12 390.02,-188.1 395,-184.28 418.75,-166.01 408.97,-147.59 431,-127.28 520.44,-44.8 551.84,-0.28 673.5,-0.28 673.5,-0.28 673.5,-0.28 975.5,-0.28 1072.47,-0.28 1105.57,4.16 1189,-45.28 1225.13,-66.69 1253.9,-107.85 1268.5,-131.79"/>
<polygon fill="#63b8ff" stroke="#63b8ff" points="1265.61,-133.77 1273.71,-140.6 1271.64,-130.21 1265.61,-133.77"/>
</g>
<!-- Node158 -->
<g id="node47" class="node">
<title>Node158</title>
<g id="a_node47"><a xlink:href="read__input_8c.html#a06d0ee3bb45a86c56f9a8fcf208b182f" target="_top" xlink:title=" ">
<polygon fill="white" stroke="#666666" points="555,-230.78 458,-230.78 458,-211.78 555,-211.78 555,-230.78"/>
<text text-anchor="middle" x="506.5" y="-218.78" font-family="Helvetica,sans-Serif" font-size="10.00">execute_precmd</text>
</a>
</g>
</g>
<!-- Node157&#45;&gt;Node158 -->
<g id="edge57" class="edge">
<title>Node157&#45;&gt;Node158</title>
<path fill="none" stroke="#63b8ff" d="M378.17,-206.88C399.06,-209.24 424.88,-212.16 447.8,-214.75"/>
<polygon fill="#63b8ff" stroke="#63b8ff" points="447.42,-218.23 457.75,-215.88 448.21,-211.28 447.42,-218.23"/>
</g>
<!-- Node159 -->
<g id="node48" class="node">
<title>Node159</title>
<g id="a_node48"><a xlink:href="read__input_8c.html#a6a144d0d5270ba0d210fcb5f39d7fc63" target="_top" xlink:title=" ">
<polygon fill="white" stroke="#666666" points="731,-173.78 618,-173.78 618,-154.78 731,-154.78 731,-173.78"/>
<text text-anchor="middle" x="674.5" y="-161.78" font-family="Helvetica,sans-Serif" font-size="10.00">print_prompt_prefix</text>
</a>
</g>
</g>
<!-- Node157&#45;&gt;Node159 -->
<g id="edge60" class="edge">
<title>Node157&#45;&gt;Node159</title>
<path fill="none" stroke="#63b8ff" d="M378.03,-197.69C434.97,-191.25 539.32,-179.45 607.54,-171.74"/>
<polygon fill="#63b8ff" stroke="#63b8ff" points="608.2,-175.18 617.74,-170.58 607.41,-168.23 608.2,-175.18"/>
</g>
<!-- Node160 -->
<g id="node49" class="node">
<title>Node160</title>
<g id="a_node49"><a xlink:href="read__input_8c.html#a95fff78135b5c85ed0ff754f303e28f7" target="_top" xlink:title=" ">
<polygon fill="white" stroke="#666666" points="582,-154.78 431,-154.78 431,-135.78 582,-135.78 582,-154.78"/>
<text text-anchor="middle" x="506.5" y="-142.78" font-family="Helvetica,sans-Serif" font-size="10.00">show_prompt_with_curr_dir</text>
</a>
</g>
</g>
<!-- Node157&#45;&gt;Node160 -->
<g id="edge61" class="edge">
<title>Node157&#45;&gt;Node160</title>
<path fill="none" stroke="#63b8ff" d="M369.91,-192.7C378.14,-190.11 386.94,-187.21 395,-184.28 411.29,-178.35 414.74,-175.27 431,-169.28 441.64,-165.35 453.26,-161.44 464.09,-157.94"/>
<polygon fill="#63b8ff" stroke="#63b8ff" points="465.3,-161.23 473.76,-154.86 463.17,-154.56 465.3,-161.23"/>
</g>
<!-- Node158&#45;&gt;Node4 -->
<g id="edge58" class="edge">
<title>Node158&#45;&gt;Node4</title>
<path fill="none" stroke="#63b8ff" d="M555.19,-229.17C564.47,-231.87 573.83,-235.47 582,-240.28 616.21,-260.42 645.65,-297.11 661.36,-319.13"/>
<polygon fill="#63b8ff" stroke="#63b8ff" points="658.64,-321.36 667.22,-327.58 664.39,-317.37 658.64,-321.36"/>
</g>
<!-- Node160&#45;&gt;Node22 -->
<g id="edge62" class="edge">
<title>Node160&#45;&gt;Node22</title>
<path fill="none" stroke="#63b8ff" d="M523.57,-135.59C568.86,-109.25 702.08,-38.28 822.5,-38.28 822.5,-38.28 822.5,-38.28 975.5,-38.28 1073.83,-38.28 1098.54,-57.73 1189,-96.28 1213.55,-106.74 1239.47,-122.91 1257.16,-134.83"/>
<polygon fill="#63b8ff" stroke="#63b8ff" points="1255.38,-137.85 1265.6,-140.62 1259.33,-132.08 1255.38,-137.85"/>
</g>
<!-- Node160&#45;&gt;Node159 -->
<g id="edge63" class="edge">
<title>Node160&#45;&gt;Node159</title>
<path fill="none" stroke="#63b8ff" d="M582.24,-153.83C590.69,-154.8 599.25,-155.78 607.56,-156.73"/>
<polygon fill="#63b8ff" stroke="#63b8ff" points="607.24,-160.22 617.57,-157.88 608.03,-153.26 607.24,-160.22"/>
</g>
<!-- Node161&#45;&gt;Node145 -->
<g id="edge65" class="edge">
<title>Node161&#45;&gt;Node145</title>
<path fill="none" stroke="#63b8ff" d="M547.68,-681.23C570.71,-686.37 599.78,-692.85 624.18,-698.28"/>
<polygon fill="#63b8ff" stroke="#63b8ff" points="623.45,-701.71 633.97,-700.47 624.97,-694.88 623.45,-701.71"/>
</g>
<!-- Node161&#45;&gt;Node63 -->
<g id="edge66" class="edge">
<title>Node161&#45;&gt;Node63</title>
<path fill="none" stroke="#63b8ff" d="M547.68,-672.28C571.19,-672.28 601.01,-672.28 625.72,-672.28"/>
<polygon fill="#63b8ff" stroke="#63b8ff" points="625.96,-675.78 635.96,-672.28 625.96,-668.78 625.96,-675.78"/>
</g>
</g>
</svg>
