<?xml version="1.0" encoding="UTF-8" standalone="no"?>
<!DOCTYPE svg PUBLIC "-//W3C//DTD SVG 1.1//EN"
 "http://www.w3.org/Graphics/SVG/1.1/DTD/svg11.dtd">
<!-- Generated by graphviz version 2.43.0 (0)
 -->
<!-- Title: include/my/misc.h Pages: 1 -->
<svg width="3073pt" height="93pt"
 viewBox="0.00 0.00 3072.50 93.00" xmlns="http://www.w3.org/2000/svg" xmlns:xlink="http://www.w3.org/1999/xlink">
<g id="graph0" class="graph" transform="scale(1 1) rotate(0) translate(4 89)">
<title>include/my/misc.h</title>
<!-- Node1 -->
<g id="node1" class="node">
<title>Node1</title>
<g id="a_node1"><a xlink:title=" ">
<polygon fill="#999999" stroke="#666666" points="1566,-85 1460,-85 1460,-66 1566,-66 1566,-85"/>
<text text-anchor="middle" x="1513" y="-73" font-family="Helvetica,sans-Serif" font-size="10.00">include/my/misc.h</text>
</a>
</g>
</g>
<!-- Node2 -->
<g id="node2" class="node">
<title>Node2</title>
<g id="a_node2"><a xlink:href="ast__destroy_8c.html" target="_top" xlink:title=" ">
<polygon fill="white" stroke="#666666" points="116,-24.5 0,-24.5 0,-5.5 116,-5.5 116,-24.5"/>
<text text-anchor="middle" x="58" y="-12.5" font-family="Helvetica,sans-Serif" font-size="10.00">src/ast/ast_destroy.c</text>
</a>
</g>
</g>
<!-- Node1&#45;&gt;Node2 -->
<g id="edge1" class="edge">
<title>Node1&#45;&gt;Node2</title>
<path fill="none" stroke="#63b8ff" d="M1449.62,-73.93C1213.71,-71.59 386.68,-61.29 125,-30 114.62,-28.76 103.46,-26.72 93.28,-24.57"/>
<polygon fill="#63b8ff" stroke="#63b8ff" points="1449.71,-77.43 1459.74,-74.03 1449.78,-70.43 1449.71,-77.43"/>
</g>
<!-- Node3 -->
<g id="node3" class="node">
<title>Node3</title>
<g id="a_node3"><a xlink:href="builtins_8c.html" target="_top" xlink:title=" ">
<polygon fill="white" stroke="#666666" points="251.5,-24.5 134.5,-24.5 134.5,-5.5 251.5,-5.5 251.5,-24.5"/>
<text text-anchor="middle" x="193" y="-12.5" font-family="Helvetica,sans-Serif" font-size="10.00">src/builtins/builtins.c</text>
</a>
</g>
</g>
<!-- Node1&#45;&gt;Node3 -->
<g id="edge2" class="edge">
<title>Node1&#45;&gt;Node3</title>
<path fill="none" stroke="#63b8ff" d="M1449.66,-73.65C1229.01,-70.48 494.84,-58.03 261,-30 250.47,-28.74 239.14,-26.69 228.81,-24.54"/>
<polygon fill="#63b8ff" stroke="#63b8ff" points="1449.73,-77.15 1459.78,-73.8 1449.83,-70.15 1449.73,-77.15"/>
</g>
<!-- Node4 -->
<g id="node4" class="node">
<title>Node4</title>
<g id="a_node4"><a xlink:href="cd_8c.html" target="_top" xlink:title=" ">
<polygon fill="white" stroke="#666666" points="362,-24.5 270,-24.5 270,-5.5 362,-5.5 362,-24.5"/>
<text text-anchor="middle" x="316" y="-12.5" font-family="Helvetica,sans-Serif" font-size="10.00">src/builtins/cd.c</text>
</a>
</g>
</g>
<!-- Node1&#45;&gt;Node4 -->
<g id="edge3" class="edge">
<title>Node1&#45;&gt;Node4</title>
<path fill="none" stroke="#63b8ff" d="M1449.67,-73.78C1241.81,-71.16 581.72,-60.58 371,-30 362.42,-28.75 353.24,-26.71 344.88,-24.57"/>
<polygon fill="#63b8ff" stroke="#63b8ff" points="1449.76,-77.29 1459.8,-73.91 1449.85,-70.29 1449.76,-77.29"/>
</g>
<!-- Node5 -->
<g id="node5" class="node">
<title>Node5</title>
<g id="a_node5"><a xlink:href="env_8c.html" target="_top" xlink:title=" ">
<polygon fill="white" stroke="#666666" points="478,-24.5 380,-24.5 380,-5.5 478,-5.5 478,-24.5"/>
<text text-anchor="middle" x="429" y="-12.5" font-family="Helvetica,sans-Serif" font-size="10.00">src/builtins/env.c</text>
</a>
</g>
</g>
<!-- Node1&#45;&gt;Node5 -->
<g id="edge4" class="edge">
<title>Node1&#45;&gt;Node5</title>
<path fill="none" stroke="#63b8ff" d="M1449.68,-73.36C1256.16,-69.62 674.33,-56.42 487,-30 477.97,-28.73 468.3,-26.68 459.49,-24.53"/>
<polygon fill="#63b8ff" stroke="#63b8ff" points="1449.9,-76.86 1459.96,-73.56 1450.03,-69.86 1449.9,-76.86"/>
</g>
<!-- Node6 -->
<g id="node6" class="node">
<title>Node6</title>
<g id="a_node6"><a xlink:href="exit_8c.html" target="_top" xlink:title=" ">
<polygon fill="white" stroke="#666666" points="596,-24.5 496,-24.5 496,-5.5 596,-5.5 596,-24.5"/>
<text text-anchor="middle" x="546" y="-12.5" font-family="Helvetica,sans-Serif" font-size="10.00">src/builtins/exit.c</text>
</a>
</g>
</g>
<!-- Node1&#45;&gt;Node6 -->
<g id="edge5" class="edge">
<title>Node1&#45;&gt;Node6</title>
<path fill="none" stroke="#63b8ff" d="M1449.73,-72.92C1271.66,-68.21 768.54,-53.21 605,-30 595.93,-28.71 586.21,-26.68 577.33,-24.57"/>
<polygon fill="#63b8ff" stroke="#63b8ff" points="1449.64,-76.41 1459.73,-73.18 1449.82,-69.42 1449.64,-76.41"/>
</g>
<!-- Node7 -->
<g id="node7" class="node">
<title>Node7</title>
<g id="a_node7"><a xlink:href="set_8c.html" target="_top" xlink:title=" ">
<polygon fill="white" stroke="#666666" points="710,-24.5 614,-24.5 614,-5.5 710,-5.5 710,-24.5"/>
<text text-anchor="middle" x="662" y="-12.5" font-family="Helvetica,sans-Serif" font-size="10.00">src/builtins/set.c</text>
</a>
</g>
</g>
<!-- Node1&#45;&gt;Node7 -->
<g id="edge6" class="edge">
<title>Node1&#45;&gt;Node7</title>
<path fill="none" stroke="#63b8ff" d="M1449.52,-74.91C1314.36,-74.91 988.48,-70.29 719,-30 710.23,-28.69 700.84,-26.65 692.26,-24.53"/>
<polygon fill="#63b8ff" stroke="#63b8ff" points="1449.69,-78.41 1459.69,-74.9 1449.69,-71.41 1449.69,-78.41"/>
</g>
<!-- Node8 -->
<g id="node8" class="node">
<title>Node8</title>
<g id="a_node8"><a xlink:href="setenv_8c.html" target="_top" xlink:title=" ">
<polygon fill="white" stroke="#666666" points="841.5,-24.5 728.5,-24.5 728.5,-5.5 841.5,-5.5 841.5,-24.5"/>
<text text-anchor="middle" x="785" y="-12.5" font-family="Helvetica,sans-Serif" font-size="10.00">src/builtins/setenv.c</text>
</a>
</g>
</g>
<!-- Node1&#45;&gt;Node8 -->
<g id="edge7" class="edge">
<title>Node1&#45;&gt;Node8</title>
<path fill="none" stroke="#63b8ff" d="M1449.66,-73.23C1331.46,-70.2 1069.46,-60.36 851,-30 841.14,-28.63 830.55,-26.63 820.8,-24.56"/>
<polygon fill="#63b8ff" stroke="#63b8ff" points="1449.88,-76.74 1459.96,-73.49 1450.05,-69.74 1449.88,-76.74"/>
</g>
<!-- Node9 -->
<g id="node9" class="node">
<title>Node9</title>
<g id="a_node9"><a xlink:href="unset_8c.html" target="_top" xlink:title=" ">
<polygon fill="white" stroke="#666666" points="968,-24.5 860,-24.5 860,-5.5 968,-5.5 968,-24.5"/>
<text text-anchor="middle" x="914" y="-12.5" font-family="Helvetica,sans-Serif" font-size="10.00">src/builtins/unset.c</text>
</a>
</g>
</g>
<!-- Node1&#45;&gt;Node9 -->
<g id="edge8" class="edge">
<title>Node1&#45;&gt;Node9</title>
<path fill="none" stroke="#63b8ff" d="M1449.85,-72.04C1349.3,-67.49 1146.8,-55.79 977,-30 967.7,-28.59 957.71,-26.59 948.5,-24.55"/>
<polygon fill="#63b8ff" stroke="#63b8ff" points="1449.7,-75.53 1459.85,-72.48 1450.01,-68.54 1449.7,-75.53"/>
</g>
<!-- Node10 -->
<g id="node10" class="node">
<title>Node10</title>
<g id="a_node10"><a xlink:href="unsetenv_8c.html" target="_top" xlink:title=" ">
<polygon fill="white" stroke="#666666" points="1111.5,-24.5 986.5,-24.5 986.5,-5.5 1111.5,-5.5 1111.5,-24.5"/>
<text text-anchor="middle" x="1049" y="-12.5" font-family="Helvetica,sans-Serif" font-size="10.00">src/builtins/unsetenv.c</text>
</a>
</g>
</g>
<!-- Node1&#45;&gt;Node10 -->
<g id="edge9" class="edge">
<title>Node1&#45;&gt;Node10</title>
<path fill="none" stroke="#63b8ff" d="M1449.61,-68.93C1371.75,-61.73 1235.76,-47.94 1120,-30 1110.07,-28.46 1099.41,-26.52 1089.45,-24.57"/>
<polygon fill="#63b8ff" stroke="#63b8ff" points="1449.46,-72.44 1459.74,-69.87 1450.1,-65.46 1449.46,-72.44"/>
</g>
<!-- Node11 -->
<g id="node11" class="node">
<title>Node11</title>
<g id="a_node11"><a xlink:href="where_8c.html" target="_top" xlink:title=" ">
<polygon fill="white" stroke="#666666" points="1240.5,-24.5 1129.5,-24.5 1129.5,-5.5 1240.5,-5.5 1240.5,-24.5"/>
<text text-anchor="middle" x="1185" y="-12.5" font-family="Helvetica,sans-Serif" font-size="10.00">src/builtins/where.c</text>
</a>
</g>
</g>
<!-- Node1&#45;&gt;Node11 -->
<g id="edge10" class="edge">
<title>Node1&#45;&gt;Node11</title>
<path fill="none" stroke="#63b8ff" d="M1449.99,-64.65C1396.62,-56.11 1318.14,-43.1 1250,-30 1241.27,-28.32 1231.91,-26.39 1223.09,-24.5"/>
<polygon fill="#63b8ff" stroke="#63b8ff" points="1449.56,-68.12 1459.98,-66.24 1450.66,-61.21 1449.56,-68.12"/>
</g>
<!-- Node12 -->
<g id="node12" class="node">
<title>Node12</title>
<g id="a_node12"><a xlink:href="which_8c.html" target="_top" xlink:title=" ">
<polygon fill="white" stroke="#666666" points="1369,-24.5 1259,-24.5 1259,-5.5 1369,-5.5 1369,-24.5"/>
<text text-anchor="middle" x="1314" y="-12.5" font-family="Helvetica,sans-Serif" font-size="10.00">src/builtins/which.c</text>
</a>
</g>
</g>
<!-- Node1&#45;&gt;Node12 -->
<g id="edge11" class="edge">
<title>Node1&#45;&gt;Node12</title>
<path fill="none" stroke="#63b8ff" d="M1474.25,-63.11C1435.76,-51.79 1377.62,-34.7 1342.97,-24.52"/>
<polygon fill="#63b8ff" stroke="#63b8ff" points="1473.48,-66.53 1484.06,-65.99 1475.46,-59.82 1473.48,-66.53"/>
</g>
<!-- Node13 -->
<g id="node13" class="node">
<title>Node13</title>
<g id="a_node13"><a xlink:href="env__to__word__array_8c.html" target="_top" xlink:title=" ">
<polygon fill="white" stroke="#666666" points="1504.5,-30 1387.5,-30 1387.5,0 1504.5,0 1504.5,-30"/>
<text text-anchor="start" x="1395.5" y="-18" font-family="Helvetica,sans-Serif" font-size="10.00">src/env/env_to_word</text>
<text text-anchor="middle" x="1446" y="-7" font-family="Helvetica,sans-Serif" font-size="10.00">_array.c</text>
</a>
</g>
</g>
<!-- Node1&#45;&gt;Node13 -->
<g id="edge12" class="edge">
<title>Node1&#45;&gt;Node13</title>
<path fill="none" stroke="#63b8ff" d="M1495.52,-59.23C1485.2,-50.23 1472.24,-38.91 1462.17,-30.11"/>
<polygon fill="#63b8ff" stroke="#63b8ff" points="1493.28,-61.93 1503.11,-65.87 1497.88,-56.65 1493.28,-61.93"/>
</g>
<!-- Node14 -->
<g id="node14" class="node">
<title>Node14</title>
<g id="a_node14"><a xlink:href="execute__ast_8c.html" target="_top" xlink:title=" ">
<polygon fill="white" stroke="#666666" points="1639.5,-30 1522.5,-30 1522.5,0 1639.5,0 1639.5,-30"/>
<text text-anchor="start" x="1530.5" y="-18" font-family="Helvetica,sans-Serif" font-size="10.00">src/executer/execute</text>
<text text-anchor="middle" x="1581" y="-7" font-family="Helvetica,sans-Serif" font-size="10.00">_ast.c</text>
</a>
</g>
</g>
<!-- Node1&#45;&gt;Node14 -->
<g id="edge13" class="edge">
<title>Node1&#45;&gt;Node14</title>
<path fill="none" stroke="#63b8ff" d="M1530.74,-59.23C1541.21,-50.23 1554.37,-38.91 1564.59,-30.11"/>
<polygon fill="#63b8ff" stroke="#63b8ff" points="1528.33,-56.69 1523.03,-65.87 1532.9,-62 1528.33,-56.69"/>
</g>
<!-- Node15 -->
<g id="node15" class="node">
<title>Node15</title>
<g id="a_node15"><a xlink:href="execute__cmd_8c.html" target="_top" xlink:title=" ">
<polygon fill="white" stroke="#666666" points="1774.5,-30 1657.5,-30 1657.5,0 1774.5,0 1774.5,-30"/>
<text text-anchor="start" x="1665.5" y="-18" font-family="Helvetica,sans-Serif" font-size="10.00">src/executer/execute</text>
<text text-anchor="middle" x="1716" y="-7" font-family="Helvetica,sans-Serif" font-size="10.00">_cmd.c</text>
</a>
</g>
</g>
<!-- Node1&#45;&gt;Node15 -->
<g id="edge14" class="edge">
<title>Node1&#45;&gt;Node15</title>
<path fill="none" stroke="#63b8ff" d="M1552.21,-63.2C1585.02,-53.75 1631.97,-40.22 1667.2,-30.06"/>
<polygon fill="#63b8ff" stroke="#63b8ff" points="1551.16,-59.86 1542.52,-65.99 1553.1,-66.59 1551.16,-59.86"/>
</g>
<!-- Node16 -->
<g id="node16" class="node">
<title>Node16</title>
<g id="a_node16"><a xlink:href="execute__command__substitution_8c.html" target="_top" xlink:title=" ">
<polygon fill="white" stroke="#666666" points="1935,-30 1793,-30 1793,0 1935,0 1935,-30"/>
<text text-anchor="start" x="1801" y="-18" font-family="Helvetica,sans-Serif" font-size="10.00">src/executer/execute</text>
<text text-anchor="middle" x="1864" y="-7" font-family="Helvetica,sans-Serif" font-size="10.00">_command_substitution.c</text>
</a>
</g>
</g>
<!-- Node1&#45;&gt;Node16 -->
<g id="edge15" class="edge">
<title>Node1&#45;&gt;Node16</title>
<path fill="none" stroke="#63b8ff" d="M1575.93,-64.36C1630.88,-55.46 1712.75,-42.08 1784,-30 1786.92,-29.5 1789.9,-29 1792.91,-28.48"/>
<polygon fill="#63b8ff" stroke="#63b8ff" points="1575.31,-60.91 1565.99,-65.97 1576.42,-67.82 1575.31,-60.91"/>
</g>
<!-- Node17 -->
<g id="node17" class="node">
<title>Node17</title>
<g id="a_node17"><a xlink:href="execute__logical__and_8c.html" target="_top" xlink:title=" ">
<polygon fill="white" stroke="#666666" points="2070.5,-30 1953.5,-30 1953.5,0 2070.5,0 2070.5,-30"/>
<text text-anchor="start" x="1961.5" y="-18" font-family="Helvetica,sans-Serif" font-size="10.00">src/executer/execute</text>
<text text-anchor="middle" x="2012" y="-7" font-family="Helvetica,sans-Serif" font-size="10.00">_logical_and.c</text>
</a>
</g>
</g>
<!-- Node1&#45;&gt;Node17 -->
<g id="edge16" class="edge">
<title>Node1&#45;&gt;Node17</title>
<path fill="none" stroke="#63b8ff" d="M1576.48,-69.95C1660.77,-63.44 1814.11,-50.03 1944,-30 1947.1,-29.52 1950.27,-29 1953.46,-28.44"/>
<polygon fill="#63b8ff" stroke="#63b8ff" points="1576.01,-66.47 1566.3,-70.72 1576.54,-73.45 1576.01,-66.47"/>
</g>
<!-- Node18 -->
<g id="node18" class="node">
<title>Node18</title>
<g id="a_node18"><a xlink:href="execute__logical__or_8c.html" target="_top" xlink:title=" ">
<polygon fill="white" stroke="#666666" points="2205.5,-30 2088.5,-30 2088.5,0 2205.5,0 2205.5,-30"/>
<text text-anchor="start" x="2096.5" y="-18" font-family="Helvetica,sans-Serif" font-size="10.00">src/executer/execute</text>
<text text-anchor="middle" x="2147" y="-7" font-family="Helvetica,sans-Serif" font-size="10.00">_logical_or.c</text>
</a>
</g>
</g>
<!-- Node1&#45;&gt;Node18 -->
<g id="edge17" class="edge">
<title>Node1&#45;&gt;Node18</title>
<path fill="none" stroke="#63b8ff" d="M1576.12,-72.18C1681.13,-67.73 1898.14,-56.03 2080,-30 2082.71,-29.61 2085.47,-29.18 2088.25,-28.72"/>
<polygon fill="#63b8ff" stroke="#63b8ff" points="1575.86,-68.69 1566.01,-72.6 1576.15,-75.68 1575.86,-68.69"/>
</g>
<!-- Node19 -->
<g id="node19" class="node">
<title>Node19</title>
<g id="a_node19"><a xlink:href="execute__pipe_8c.html" target="_top" xlink:title=" ">
<polygon fill="white" stroke="#666666" points="2340.5,-30 2223.5,-30 2223.5,0 2340.5,0 2340.5,-30"/>
<text text-anchor="start" x="2231.5" y="-18" font-family="Helvetica,sans-Serif" font-size="10.00">src/executer/execute</text>
<text text-anchor="middle" x="2282" y="-7" font-family="Helvetica,sans-Serif" font-size="10.00">_pipe.c</text>
</a>
</g>
</g>
<!-- Node1&#45;&gt;Node19 -->
<g id="edge18" class="edge">
<title>Node1&#45;&gt;Node19</title>
<path fill="none" stroke="#63b8ff" d="M1576.11,-73.51C1699.42,-70.92 1980.77,-61.73 2215,-30 2217.71,-29.63 2220.47,-29.22 2223.26,-28.77"/>
<polygon fill="#63b8ff" stroke="#63b8ff" points="1576.02,-70.01 1566.09,-73.72 1576.16,-77.01 1576.02,-70.01"/>
</g>
<!-- Node20 -->
<g id="node20" class="node">
<title>Node20</title>
<g id="a_node20"><a xlink:href="execute__redirect_8c.html" target="_top" xlink:title=" ">
<polygon fill="white" stroke="#666666" points="2475.5,-30 2358.5,-30 2358.5,0 2475.5,0 2475.5,-30"/>
<text text-anchor="start" x="2366.5" y="-18" font-family="Helvetica,sans-Serif" font-size="10.00">src/executer/execute</text>
<text text-anchor="middle" x="2417" y="-7" font-family="Helvetica,sans-Serif" font-size="10.00">_redirect.c</text>
</a>
</g>
</g>
<!-- Node1&#45;&gt;Node20 -->
<g id="edge19" class="edge">
<title>Node1&#45;&gt;Node20</title>
<path fill="none" stroke="#63b8ff" d="M1576.26,-74.43C1716.29,-73.55 2062.82,-67.42 2350,-30 2352.71,-29.65 2355.47,-29.24 2358.26,-28.8"/>
<polygon fill="#63b8ff" stroke="#63b8ff" points="1576.12,-70.93 1566.14,-74.48 1576.16,-77.93 1576.12,-70.93"/>
</g>
<!-- Node21 -->
<g id="node21" class="node">
<title>Node21</title>
<g id="a_node21"><a xlink:href="execute__subshell_8c.html" target="_top" xlink:title=" ">
<polygon fill="white" stroke="#666666" points="2610.5,-30 2493.5,-30 2493.5,0 2610.5,0 2610.5,-30"/>
<text text-anchor="start" x="2501.5" y="-18" font-family="Helvetica,sans-Serif" font-size="10.00">src/executer/execute</text>
<text text-anchor="middle" x="2552" y="-7" font-family="Helvetica,sans-Serif" font-size="10.00">_subshell.c</text>
</a>
</g>
</g>
<!-- Node1&#45;&gt;Node21 -->
<g id="edge20" class="edge">
<title>Node1&#45;&gt;Node21</title>
<path fill="none" stroke="#63b8ff" d="M1576.52,-75.1C1732.1,-75.81 2144.45,-73.09 2485,-30 2487.71,-29.66 2490.48,-29.26 2493.26,-28.83"/>
<polygon fill="#63b8ff" stroke="#63b8ff" points="1576.22,-71.6 1566.2,-75.05 1576.18,-78.6 1576.22,-71.6"/>
</g>
<!-- Node22 -->
<g id="node22" class="node">
<title>Node22</title>
<g id="a_node22"><a xlink:href="wait__for__subprocess_8c.html" target="_top" xlink:title=" ">
<polygon fill="white" stroke="#666666" points="2747.5,-30 2628.5,-30 2628.5,0 2747.5,0 2747.5,-30"/>
<text text-anchor="start" x="2636.5" y="-18" font-family="Helvetica,sans-Serif" font-size="10.00">src/executer/wait_for</text>
<text text-anchor="middle" x="2688" y="-7" font-family="Helvetica,sans-Serif" font-size="10.00">_subprocess.c</text>
</a>
</g>
</g>
<!-- Node1&#45;&gt;Node22 -->
<g id="edge21" class="edge">
<title>Node1&#45;&gt;Node22</title>
<path fill="none" stroke="#63b8ff" d="M1576.39,-73.31C1779.97,-69.28 2415.8,-54.96 2620,-30 2622.75,-29.66 2625.56,-29.27 2628.39,-28.85"/>
<polygon fill="#63b8ff" stroke="#63b8ff" points="1576.09,-69.82 1566.16,-73.51 1576.23,-76.81 1576.09,-69.82"/>
</g>
<!-- Node23 -->
<g id="node23" class="node">
<title>Node23</title>
<g id="a_node23"><a xlink:href="main_8c.html" target="_top" xlink:title=" ">
<polygon fill="white" stroke="#666666" points="2832.5,-24.5 2765.5,-24.5 2765.5,-5.5 2832.5,-5.5 2832.5,-24.5"/>
<text text-anchor="middle" x="2799" y="-12.5" font-family="Helvetica,sans-Serif" font-size="10.00">src/main.c</text>
</a>
</g>
</g>
<!-- Node1&#45;&gt;Node23 -->
<g id="edge22" class="edge">
<title>Node1&#45;&gt;Node23</title>
<path fill="none" stroke="#63b8ff" d="M1576.08,-74.62C1795.81,-74.66 2526.72,-71.61 2757,-30 2763.66,-28.8 2770.7,-26.77 2777.08,-24.62"/>
<polygon fill="#63b8ff" stroke="#63b8ff" points="1576.01,-71.12 1566,-74.62 1576,-78.12 1576.01,-71.12"/>
</g>
<!-- Node24 -->
<g id="node24" class="node">
<title>Node24</title>
<g id="a_node24"><a xlink:href="parse__command_8c.html" target="_top" xlink:title=" ">
<polygon fill="white" stroke="#666666" points="2981,-30 2851,-30 2851,0 2981,0 2981,-30"/>
<text text-anchor="start" x="2859" y="-18" font-family="Helvetica,sans-Serif" font-size="10.00">src/parser/tokens/parse</text>
<text text-anchor="middle" x="2916" y="-7" font-family="Helvetica,sans-Serif" font-size="10.00">_command.c</text>
</a>
</g>
</g>
<!-- Node1&#45;&gt;Node24 -->
<g id="edge23" class="edge">
<title>Node1&#45;&gt;Node24</title>
<path fill="none" stroke="#63b8ff" d="M1576.32,-73.67C1805.62,-70.46 2592.15,-57.65 2842,-30 2844.86,-29.68 2847.77,-29.32 2850.71,-28.91"/>
<polygon fill="#63b8ff" stroke="#63b8ff" points="1576.1,-70.17 1566.15,-73.81 1576.2,-77.17 1576.1,-70.17"/>
</g>
<!-- Node25 -->
<g id="node25" class="node">
<title>Node25</title>
<g id="a_node25"><a xlink:href="shell_8c.html" target="_top" xlink:title=" ">
<polygon fill="white" stroke="#666666" points="3064.5,-24.5 2999.5,-24.5 2999.5,-5.5 3064.5,-5.5 3064.5,-24.5"/>
<text text-anchor="middle" x="3032" y="-12.5" font-family="Helvetica,sans-Serif" font-size="10.00">src/shell.c</text>
</a>
</g>
</g>
<!-- Node1&#45;&gt;Node25 -->
<g id="edge24" class="edge">
<title>Node1&#45;&gt;Node25</title>
<path fill="none" stroke="#63b8ff" d="M1576.26,-73.68C1840.61,-70.11 2849.72,-54.94 2990,-30 2996.66,-28.82 3003.7,-26.79 3010.08,-24.64"/>
<polygon fill="#63b8ff" stroke="#63b8ff" points="1576.02,-70.18 1566.07,-73.82 1576.11,-77.18 1576.02,-70.18"/>
</g>
</g>
</svg>
