<?xml version="1.0" encoding="UTF-8" standalone="no"?>
<!DOCTYPE svg PUBLIC "-//W3C//DTD SVG 1.1//EN"
 "http://www.w3.org/Graphics/SVG/1.1/DTD/svg11.dtd">
<!-- Generated by graphviz version 2.43.0 (0)
 -->
<!-- Title: include/my/misc.h Pages: 1 -->
<svg width="3059pt" height="93pt"
 viewBox="0.00 0.00 3058.50 93.00" xmlns="http://www.w3.org/2000/svg" xmlns:xlink="http://www.w3.org/1999/xlink">
<g id="graph0" class="graph" transform="scale(1 1) rotate(0) translate(4 89)">
<title>include/my/misc.h</title>
<!-- Node1 -->
<g id="node1" class="node">
<title>Node1</title>
<g id="a_node1"><a xlink:title=" ">
<polygon fill="#999999" stroke="#666666" points="1552,-85 1446,-85 1446,-66 1552,-66 1552,-85"/>
<text text-anchor="middle" x="1499" y="-73" font-family="Helvetica,sans-Serif" font-size="10.00">include/my/misc.h</text>
</a>
</g>
</g>
<!-- Node2 -->
<g id="node2" class="node">
<title>Node2</title>
<g id="a_node2"><a xlink:href="ast__destroy_8c.html" target="_top" xlink:title=" ">
<polygon fill="white" stroke="#666666" points="116,-24.5 0,-24.5 0,-5.5 116,-5.5 116,-24.5"/>
<text text-anchor="middle" x="58" y="-12.5" font-family="Helvetica,sans-Serif" font-size="10.00">src/ast/ast_destroy.c</text>
</a>
</g>
</g>
<!-- Node1&#45;&gt;Node2 -->
<g id="edge1" class="edge">
<title>Node1&#45;&gt;Node2</title>
<path fill="none" stroke="#63b8ff" d="M1435.86,-73.91C1201.8,-71.5 383.9,-61 125,-30 114.62,-28.76 103.46,-26.71 93.28,-24.57"/>
<polygon fill="#63b8ff" stroke="#63b8ff" points="1435.87,-77.41 1445.91,-74.01 1435.94,-70.41 1435.87,-77.41"/>
</g>
<!-- Node3 -->
<g id="node3" class="node">
<title>Node3</title>
<g id="a_node3"><a xlink:href="builtin__where_8c.html" target="_top" xlink:title=" ">
<polygon fill="white" stroke="#666666" points="238,-30 134,-30 134,0 238,0 238,-30"/>
<text text-anchor="start" x="142" y="-18" font-family="Helvetica,sans-Serif" font-size="10.00">src/builtins/builtin</text>
<text text-anchor="middle" x="186" y="-7" font-family="Helvetica,sans-Serif" font-size="10.00">_where.c</text>
</a>
</g>
</g>
<!-- Node1&#45;&gt;Node3 -->
<g id="edge2" class="edge">
<title>Node1&#45;&gt;Node3</title>
<path fill="none" stroke="#63b8ff" d="M1435.64,-73.84C1214.91,-71.29 480.51,-60.66 247,-30 244.09,-29.62 241.12,-29.16 238.12,-28.65"/>
<polygon fill="#63b8ff" stroke="#63b8ff" points="1435.72,-77.34 1445.76,-73.96 1435.8,-70.34 1435.72,-77.34"/>
</g>
<!-- Node4 -->
<g id="node4" class="node">
<title>Node4</title>
<g id="a_node4"><a xlink:href="builtin__which_8c.html" target="_top" xlink:title=" ">
<polygon fill="white" stroke="#666666" points="360,-30 256,-30 256,0 360,0 360,-30"/>
<text text-anchor="start" x="264" y="-18" font-family="Helvetica,sans-Serif" font-size="10.00">src/builtins/builtin</text>
<text text-anchor="middle" x="308" y="-7" font-family="Helvetica,sans-Serif" font-size="10.00">_which.c</text>
</a>
</g>
</g>
<!-- Node1&#45;&gt;Node4 -->
<g id="edge3" class="edge">
<title>Node1&#45;&gt;Node4</title>
<path fill="none" stroke="#63b8ff" d="M1435.65,-73.56C1229.28,-70.25 577.61,-57.8 369,-30 366.09,-29.61 363.12,-29.15 360.13,-28.64"/>
<polygon fill="#63b8ff" stroke="#63b8ff" points="1435.66,-77.06 1445.72,-73.72 1435.78,-70.06 1435.66,-77.06"/>
</g>
<!-- Node5 -->
<g id="node5" class="node">
<title>Node5</title>
<g id="a_node5"><a xlink:href="builtins_8c.html" target="_top" xlink:title=" ">
<polygon fill="white" stroke="#666666" points="495.5,-24.5 378.5,-24.5 378.5,-5.5 495.5,-5.5 495.5,-24.5"/>
<text text-anchor="middle" x="437" y="-12.5" font-family="Helvetica,sans-Serif" font-size="10.00">src/builtins/builtins.c</text>
</a>
</g>
</g>
<!-- Node1&#45;&gt;Node5 -->
<g id="edge4" class="edge">
<title>Node1&#45;&gt;Node5</title>
<path fill="none" stroke="#63b8ff" d="M1435.48,-75.13C1277.5,-75.94 854.38,-73.51 505,-30 494.59,-28.7 483.41,-26.67 473.17,-24.55"/>
<polygon fill="#63b8ff" stroke="#63b8ff" points="1435.97,-78.63 1445.95,-75.07 1435.93,-71.63 1435.97,-78.63"/>
</g>
<!-- Node6 -->
<g id="node6" class="node">
<title>Node6</title>
<g id="a_node6"><a xlink:href="cd_8c.html" target="_top" xlink:title=" ">
<polygon fill="white" stroke="#666666" points="606,-24.5 514,-24.5 514,-5.5 606,-5.5 606,-24.5"/>
<text text-anchor="middle" x="560" y="-12.5" font-family="Helvetica,sans-Serif" font-size="10.00">src/builtins/cd.c</text>
</a>
</g>
</g>
<!-- Node1&#45;&gt;Node6 -->
<g id="edge5" class="edge">
<title>Node1&#45;&gt;Node6</title>
<path fill="none" stroke="#63b8ff" d="M1435.9,-72.96C1261.18,-68.42 773.57,-53.93 615,-30 606.43,-28.71 597.25,-26.65 588.89,-24.5"/>
<polygon fill="#63b8ff" stroke="#63b8ff" points="1435.88,-76.46 1445.96,-73.21 1436.06,-69.46 1435.88,-76.46"/>
</g>
<!-- Node7 -->
<g id="node7" class="node">
<title>Node7</title>
<g id="a_node7"><a xlink:href="env_8c.html" target="_top" xlink:title=" ">
<polygon fill="white" stroke="#666666" points="722,-24.5 624,-24.5 624,-5.5 722,-5.5 722,-24.5"/>
<text text-anchor="middle" x="673" y="-12.5" font-family="Helvetica,sans-Serif" font-size="10.00">src/builtins/env.c</text>
</a>
</g>
</g>
<!-- Node1&#45;&gt;Node7 -->
<g id="edge6" class="edge">
<title>Node1&#45;&gt;Node7</title>
<path fill="none" stroke="#63b8ff" d="M1435.26,-74.65C1303.16,-74.11 990.18,-68.47 731,-30 722.09,-28.68 712.53,-26.64 703.8,-24.52"/>
<polygon fill="#63b8ff" stroke="#63b8ff" points="1435.58,-78.15 1445.59,-74.68 1435.6,-71.15 1435.58,-78.15"/>
</g>
<!-- Node8 -->
<g id="node8" class="node">
<title>Node8</title>
<g id="a_node8"><a xlink:href="exit_8c.html" target="_top" xlink:title=" ">
<polygon fill="white" stroke="#666666" points="840,-24.5 740,-24.5 740,-5.5 840,-5.5 840,-24.5"/>
<text text-anchor="middle" x="790" y="-12.5" font-family="Helvetica,sans-Serif" font-size="10.00">src/builtins/exit.c</text>
</a>
</g>
</g>
<!-- Node1&#45;&gt;Node8 -->
<g id="edge7" class="edge">
<title>Node1&#45;&gt;Node8</title>
<path fill="none" stroke="#63b8ff" d="M1435.41,-73.61C1318.6,-71.21 1062.31,-62.38 849,-30 840.05,-28.64 830.45,-26.62 821.66,-24.52"/>
<polygon fill="#63b8ff" stroke="#63b8ff" points="1435.53,-77.12 1445.6,-73.81 1435.67,-70.12 1435.53,-77.12"/>
</g>
<!-- Node9 -->
<g id="node9" class="node">
<title>Node9</title>
<g id="a_node9"><a xlink:href="set_8c.html" target="_top" xlink:title=" ">
<polygon fill="white" stroke="#666666" points="954,-24.5 858,-24.5 858,-5.5 954,-5.5 954,-24.5"/>
<text text-anchor="middle" x="906" y="-12.5" font-family="Helvetica,sans-Serif" font-size="10.00">src/builtins/set.c</text>
</a>
</g>
</g>
<!-- Node1&#45;&gt;Node9 -->
<g id="edge8" class="edge">
<title>Node1&#45;&gt;Node9</title>
<path fill="none" stroke="#63b8ff" d="M1435.78,-72.49C1335.13,-68.55 1132.5,-57.67 963,-30 954.45,-28.6 945.3,-26.59 936.88,-24.53"/>
<polygon fill="#63b8ff" stroke="#63b8ff" points="1435.66,-75.98 1445.79,-72.87 1435.93,-68.99 1435.66,-75.98"/>
</g>
<!-- Node10 -->
<g id="node10" class="node">
<title>Node10</title>
<g id="a_node10"><a xlink:href="setenv_8c.html" target="_top" xlink:title=" ">
<polygon fill="white" stroke="#666666" points="1085.5,-24.5 972.5,-24.5 972.5,-5.5 1085.5,-5.5 1085.5,-24.5"/>
<text text-anchor="middle" x="1029" y="-12.5" font-family="Helvetica,sans-Serif" font-size="10.00">src/builtins/setenv.c</text>
</a>
</g>
</g>
<!-- Node1&#45;&gt;Node10 -->
<g id="edge9" class="edge">
<title>Node1&#45;&gt;Node10</title>
<path fill="none" stroke="#63b8ff" d="M1435.46,-69.47C1355.66,-62.69 1214.68,-49.24 1095,-30 1085.63,-28.49 1075.59,-26.54 1066.23,-24.57"/>
<polygon fill="#63b8ff" stroke="#63b8ff" points="1435.58,-72.99 1445.83,-70.34 1436.16,-66.01 1435.58,-72.99"/>
</g>
<!-- Node11 -->
<g id="node11" class="node">
<title>Node11</title>
<g id="a_node11"><a xlink:href="unset_8c.html" target="_top" xlink:title=" ">
<polygon fill="white" stroke="#666666" points="1212,-24.5 1104,-24.5 1104,-5.5 1212,-5.5 1212,-24.5"/>
<text text-anchor="middle" x="1158" y="-12.5" font-family="Helvetica,sans-Serif" font-size="10.00">src/builtins/unset.c</text>
</a>
</g>
</g>
<!-- Node1&#45;&gt;Node11 -->
<g id="edge10" class="edge">
<title>Node1&#45;&gt;Node11</title>
<path fill="none" stroke="#63b8ff" d="M1435.59,-65.46C1379.12,-57.14 1294.33,-44 1221,-30 1212.42,-28.36 1203.21,-26.42 1194.57,-24.52"/>
<polygon fill="#63b8ff" stroke="#63b8ff" points="1435.4,-68.96 1445.8,-66.95 1436.41,-62.04 1435.4,-68.96"/>
</g>
<!-- Node12 -->
<g id="node12" class="node">
<title>Node12</title>
<g id="a_node12"><a xlink:href="unsetenv_8c.html" target="_top" xlink:title=" ">
<polygon fill="white" stroke="#666666" points="1355.5,-24.5 1230.5,-24.5 1230.5,-5.5 1355.5,-5.5 1355.5,-24.5"/>
<text text-anchor="middle" x="1293" y="-12.5" font-family="Helvetica,sans-Serif" font-size="10.00">src/builtins/unsetenv.c</text>
</a>
</g>
</g>
<!-- Node1&#45;&gt;Node12 -->
<g id="edge11" class="edge">
<title>Node1&#45;&gt;Node12</title>
<path fill="none" stroke="#63b8ff" d="M1459.39,-63.25C1419.55,-51.94 1359.01,-34.75 1322.99,-24.52"/>
<polygon fill="#63b8ff" stroke="#63b8ff" points="1458.47,-66.63 1469.05,-65.99 1460.38,-59.89 1458.47,-66.63"/>
</g>
<!-- Node13 -->
<g id="node13" class="node">
<title>Node13</title>
<g id="a_node13"><a xlink:href="env__to__word__array_8c.html" target="_top" xlink:title=" ">
<polygon fill="white" stroke="#666666" points="1490.5,-30 1373.5,-30 1373.5,0 1490.5,0 1490.5,-30"/>
<text text-anchor="start" x="1381.5" y="-18" font-family="Helvetica,sans-Serif" font-size="10.00">src/env/env_to_word</text>
<text text-anchor="middle" x="1432" y="-7" font-family="Helvetica,sans-Serif" font-size="10.00">_array.c</text>
</a>
</g>
</g>
<!-- Node1&#45;&gt;Node13 -->
<g id="edge12" class="edge">
<title>Node1&#45;&gt;Node13</title>
<path fill="none" stroke="#63b8ff" d="M1481.52,-59.23C1471.2,-50.23 1458.24,-38.91 1448.17,-30.11"/>
<polygon fill="#63b8ff" stroke="#63b8ff" points="1479.28,-61.93 1489.11,-65.87 1483.88,-56.65 1479.28,-61.93"/>
</g>
<!-- Node14 -->
<g id="node14" class="node">
<title>Node14</title>
<g id="a_node14"><a xlink:href="execute__ast_8c.html" target="_top" xlink:title=" ">
<polygon fill="white" stroke="#666666" points="1625.5,-30 1508.5,-30 1508.5,0 1625.5,0 1625.5,-30"/>
<text text-anchor="start" x="1516.5" y="-18" font-family="Helvetica,sans-Serif" font-size="10.00">src/executer/execute</text>
<text text-anchor="middle" x="1567" y="-7" font-family="Helvetica,sans-Serif" font-size="10.00">_ast.c</text>
</a>
</g>
</g>
<!-- Node1&#45;&gt;Node14 -->
<g id="edge13" class="edge">
<title>Node1&#45;&gt;Node14</title>
<path fill="none" stroke="#63b8ff" d="M1516.74,-59.23C1527.21,-50.23 1540.37,-38.91 1550.59,-30.11"/>
<polygon fill="#63b8ff" stroke="#63b8ff" points="1514.33,-56.69 1509.03,-65.87 1518.9,-62 1514.33,-56.69"/>
</g>
<!-- Node15 -->
<g id="node15" class="node">
<title>Node15</title>
<g id="a_node15"><a xlink:href="execute__cmd_8c.html" target="_top" xlink:title=" ">
<polygon fill="white" stroke="#666666" points="1760.5,-30 1643.5,-30 1643.5,0 1760.5,0 1760.5,-30"/>
<text text-anchor="start" x="1651.5" y="-18" font-family="Helvetica,sans-Serif" font-size="10.00">src/executer/execute</text>
<text text-anchor="middle" x="1702" y="-7" font-family="Helvetica,sans-Serif" font-size="10.00">_cmd.c</text>
</a>
</g>
</g>
<!-- Node1&#45;&gt;Node15 -->
<g id="edge14" class="edge">
<title>Node1&#45;&gt;Node15</title>
<path fill="none" stroke="#63b8ff" d="M1538.21,-63.2C1571.02,-53.75 1617.97,-40.22 1653.2,-30.06"/>
<polygon fill="#63b8ff" stroke="#63b8ff" points="1537.16,-59.86 1528.52,-65.99 1539.1,-66.59 1537.16,-59.86"/>
</g>
<!-- Node16 -->
<g id="node16" class="node">
<title>Node16</title>
<g id="a_node16"><a xlink:href="execute__command__substitution_8c.html" target="_top" xlink:title=" ">
<polygon fill="white" stroke="#666666" points="1921,-30 1779,-30 1779,0 1921,0 1921,-30"/>
<text text-anchor="start" x="1787" y="-18" font-family="Helvetica,sans-Serif" font-size="10.00">src/executer/execute</text>
<text text-anchor="middle" x="1850" y="-7" font-family="Helvetica,sans-Serif" font-size="10.00">_command_substitution.c</text>
</a>
</g>
</g>
<!-- Node1&#45;&gt;Node16 -->
<g id="edge15" class="edge">
<title>Node1&#45;&gt;Node16</title>
<path fill="none" stroke="#63b8ff" d="M1561.93,-64.36C1616.88,-55.46 1698.75,-42.08 1770,-30 1772.92,-29.5 1775.9,-29 1778.91,-28.48"/>
<polygon fill="#63b8ff" stroke="#63b8ff" points="1561.31,-60.91 1551.99,-65.97 1562.42,-67.82 1561.31,-60.91"/>
</g>
<!-- Node17 -->
<g id="node17" class="node">
<title>Node17</title>
<g id="a_node17"><a xlink:href="execute__logical__and_8c.html" target="_top" xlink:title=" ">
<polygon fill="white" stroke="#666666" points="2056.5,-30 1939.5,-30 1939.5,0 2056.5,0 2056.5,-30"/>
<text text-anchor="start" x="1947.5" y="-18" font-family="Helvetica,sans-Serif" font-size="10.00">src/executer/execute</text>
<text text-anchor="middle" x="1998" y="-7" font-family="Helvetica,sans-Serif" font-size="10.00">_logical_and.c</text>
</a>
</g>
</g>
<!-- Node1&#45;&gt;Node17 -->
<g id="edge16" class="edge">
<title>Node1&#45;&gt;Node17</title>
<path fill="none" stroke="#63b8ff" d="M1562.48,-69.95C1646.77,-63.44 1800.11,-50.03 1930,-30 1933.1,-29.52 1936.27,-29 1939.46,-28.44"/>
<polygon fill="#63b8ff" stroke="#63b8ff" points="1562.01,-66.47 1552.3,-70.72 1562.54,-73.45 1562.01,-66.47"/>
</g>
<!-- Node18 -->
<g id="node18" class="node">
<title>Node18</title>
<g id="a_node18"><a xlink:href="execute__logical__or_8c.html" target="_top" xlink:title=" ">
<polygon fill="white" stroke="#666666" points="2191.5,-30 2074.5,-30 2074.5,0 2191.5,0 2191.5,-30"/>
<text text-anchor="start" x="2082.5" y="-18" font-family="Helvetica,sans-Serif" font-size="10.00">src/executer/execute</text>
<text text-anchor="middle" x="2133" y="-7" font-family="Helvetica,sans-Serif" font-size="10.00">_logical_or.c</text>
</a>
</g>
</g>
<!-- Node1&#45;&gt;Node18 -->
<g id="edge17" class="edge">
<title>Node1&#45;&gt;Node18</title>
<path fill="none" stroke="#63b8ff" d="M1562.12,-72.18C1667.13,-67.73 1884.14,-56.03 2066,-30 2068.71,-29.61 2071.47,-29.18 2074.25,-28.72"/>
<polygon fill="#63b8ff" stroke="#63b8ff" points="1561.86,-68.69 1552.01,-72.6 1562.15,-75.68 1561.86,-68.69"/>
</g>
<!-- Node19 -->
<g id="node19" class="node">
<title>Node19</title>
<g id="a_node19"><a xlink:href="execute__pipe_8c.html" target="_top" xlink:title=" ">
<polygon fill="white" stroke="#666666" points="2326.5,-30 2209.5,-30 2209.5,0 2326.5,0 2326.5,-30"/>
<text text-anchor="start" x="2217.5" y="-18" font-family="Helvetica,sans-Serif" font-size="10.00">src/executer/execute</text>
<text text-anchor="middle" x="2268" y="-7" font-family="Helvetica,sans-Serif" font-size="10.00">_pipe.c</text>
</a>
</g>
</g>
<!-- Node1&#45;&gt;Node19 -->
<g id="edge18" class="edge">
<title>Node1&#45;&gt;Node19</title>
<path fill="none" stroke="#63b8ff" d="M1562.11,-73.51C1685.42,-70.92 1966.77,-61.73 2201,-30 2203.71,-29.63 2206.47,-29.22 2209.26,-28.77"/>
<polygon fill="#63b8ff" stroke="#63b8ff" points="1562.02,-70.01 1552.09,-73.72 1562.16,-77.01 1562.02,-70.01"/>
</g>
<!-- Node20 -->
<g id="node20" class="node">
<title>Node20</title>
<g id="a_node20"><a xlink:href="execute__redirect_8c.html" target="_top" xlink:title=" ">
<polygon fill="white" stroke="#666666" points="2461.5,-30 2344.5,-30 2344.5,0 2461.5,0 2461.5,-30"/>
<text text-anchor="start" x="2352.5" y="-18" font-family="Helvetica,sans-Serif" font-size="10.00">src/executer/execute</text>
<text text-anchor="middle" x="2403" y="-7" font-family="Helvetica,sans-Serif" font-size="10.00">_redirect.c</text>
</a>
</g>
</g>
<!-- Node1&#45;&gt;Node20 -->
<g id="edge19" class="edge">
<title>Node1&#45;&gt;Node20</title>
<path fill="none" stroke="#63b8ff" d="M1562.26,-74.43C1702.29,-73.55 2048.82,-67.42 2336,-30 2338.71,-29.65 2341.47,-29.24 2344.26,-28.8"/>
<polygon fill="#63b8ff" stroke="#63b8ff" points="1562.12,-70.93 1552.14,-74.48 1562.16,-77.93 1562.12,-70.93"/>
</g>
<!-- Node21 -->
<g id="node21" class="node">
<title>Node21</title>
<g id="a_node21"><a xlink:href="execute__subshell_8c.html" target="_top" xlink:title=" ">
<polygon fill="white" stroke="#666666" points="2596.5,-30 2479.5,-30 2479.5,0 2596.5,0 2596.5,-30"/>
<text text-anchor="start" x="2487.5" y="-18" font-family="Helvetica,sans-Serif" font-size="10.00">src/executer/execute</text>
<text text-anchor="middle" x="2538" y="-7" font-family="Helvetica,sans-Serif" font-size="10.00">_subshell.c</text>
</a>
</g>
</g>
<!-- Node1&#45;&gt;Node21 -->
<g id="edge20" class="edge">
<title>Node1&#45;&gt;Node21</title>
<path fill="none" stroke="#63b8ff" d="M1562.52,-75.1C1718.1,-75.81 2130.45,-73.09 2471,-30 2473.71,-29.66 2476.48,-29.26 2479.26,-28.83"/>
<polygon fill="#63b8ff" stroke="#63b8ff" points="1562.22,-71.6 1552.2,-75.05 1562.18,-78.6 1562.22,-71.6"/>
</g>
<!-- Node22 -->
<g id="node22" class="node">
<title>Node22</title>
<g id="a_node22"><a xlink:href="wait__for__subprocess_8c.html" target="_top" xlink:title=" ">
<polygon fill="white" stroke="#666666" points="2733.5,-30 2614.5,-30 2614.5,0 2733.5,0 2733.5,-30"/>
<text text-anchor="start" x="2622.5" y="-18" font-family="Helvetica,sans-Serif" font-size="10.00">src/executer/wait_for</text>
<text text-anchor="middle" x="2674" y="-7" font-family="Helvetica,sans-Serif" font-size="10.00">_subprocess.c</text>
</a>
</g>
</g>
<!-- Node1&#45;&gt;Node22 -->
<g id="edge21" class="edge">
<title>Node1&#45;&gt;Node22</title>
<path fill="none" stroke="#63b8ff" d="M1562.39,-73.31C1765.97,-69.28 2401.8,-54.96 2606,-30 2608.75,-29.66 2611.56,-29.27 2614.39,-28.85"/>
<polygon fill="#63b8ff" stroke="#63b8ff" points="1562.09,-69.82 1552.16,-73.51 1562.23,-76.81 1562.09,-69.82"/>
</g>
<!-- Node23 -->
<g id="node23" class="node">
<title>Node23</title>
<g id="a_node23"><a xlink:href="main_8c.html" target="_top" xlink:title=" ">
<polygon fill="white" stroke="#666666" points="2818.5,-24.5 2751.5,-24.5 2751.5,-5.5 2818.5,-5.5 2818.5,-24.5"/>
<text text-anchor="middle" x="2785" y="-12.5" font-family="Helvetica,sans-Serif" font-size="10.00">src/main.c</text>
</a>
</g>
</g>
<!-- Node1&#45;&gt;Node23 -->
<g id="edge22" class="edge">
<title>Node1&#45;&gt;Node23</title>
<path fill="none" stroke="#63b8ff" d="M1562.08,-74.62C1781.81,-74.66 2512.72,-71.61 2743,-30 2749.66,-28.8 2756.7,-26.77 2763.08,-24.62"/>
<polygon fill="#63b8ff" stroke="#63b8ff" points="1562.01,-71.12 1552,-74.62 1562,-78.12 1562.01,-71.12"/>
</g>
<!-- Node24 -->
<g id="node24" class="node">
<title>Node24</title>
<g id="a_node24"><a xlink:href="parse__command_8c.html" target="_top" xlink:title=" ">
<polygon fill="white" stroke="#666666" points="2967,-30 2837,-30 2837,0 2967,0 2967,-30"/>
<text text-anchor="start" x="2845" y="-18" font-family="Helvetica,sans-Serif" font-size="10.00">src/parser/tokens/parse</text>
<text text-anchor="middle" x="2902" y="-7" font-family="Helvetica,sans-Serif" font-size="10.00">_command.c</text>
</a>
</g>
</g>
<!-- Node1&#45;&gt;Node24 -->
<g id="edge23" class="edge">
<title>Node1&#45;&gt;Node24</title>
<path fill="none" stroke="#63b8ff" d="M1562.32,-73.67C1791.62,-70.46 2578.15,-57.65 2828,-30 2830.86,-29.68 2833.77,-29.32 2836.71,-28.91"/>
<polygon fill="#63b8ff" stroke="#63b8ff" points="1562.1,-70.17 1552.15,-73.81 1562.2,-77.17 1562.1,-70.17"/>
</g>
<!-- Node25 -->
<g id="node25" class="node">
<title>Node25</title>
<g id="a_node25"><a xlink:href="shell_8c.html" target="_top" xlink:title=" ">
<polygon fill="white" stroke="#666666" points="3050.5,-24.5 2985.5,-24.5 2985.5,-5.5 3050.5,-5.5 3050.5,-24.5"/>
<text text-anchor="middle" x="3018" y="-12.5" font-family="Helvetica,sans-Serif" font-size="10.00">src/shell.c</text>
</a>
</g>
</g>
<!-- Node1&#45;&gt;Node25 -->
<g id="edge24" class="edge">
<title>Node1&#45;&gt;Node25</title>
<path fill="none" stroke="#63b8ff" d="M1562.26,-73.68C1826.61,-70.11 2835.72,-54.94 2976,-30 2982.66,-28.82 2989.7,-26.79 2996.08,-24.64"/>
<polygon fill="#63b8ff" stroke="#63b8ff" points="1562.02,-70.18 1552.07,-73.82 1562.11,-77.18 1562.02,-70.18"/>
</g>
</g>
</svg>
