<?xml version="1.0" encoding="UTF-8" standalone="no"?>
<!DOCTYPE svg PUBLIC "-//W3C//DTD SVG 1.1//EN"
 "http://www.w3.org/Graphics/SVG/1.1/DTD/svg11.dtd">
<!-- Generated by graphviz version 2.43.0 (0)
 -->
<!-- Title: include/my/misc.h Pages: 1 -->
<!--zoomable 93 -->
<svg id="main" version="1.1" xmlns="http://www.w3.org/2000/svg" xmlns:xlink="http://www.w3.org/1999/xlink" xml:space="preserve" onload="init(evt)">
<style type="text/css"><![CDATA[
.edge:hover path { stroke: red; }
.edge:hover polygon { stroke: red; fill: red; }
]]></style>
<script type="text/javascript"><![CDATA[
var edges = document.getElementsByTagName('g');
if (edges && edges.length) {
  for (var i=0;i<edges.length;i++) {
    if (edges[i].id.substr(0,4)=='edge') {
      edges[i].setAttribute('class','edge');
    }
  }
}
]]></script>
        <defs>
                <circle id="rim" cx="0" cy="0" r="7"/>
                <circle id="rim2" cx="0" cy="0" r="3.5"/>
                <g id="zoomPlus">
                        <use xlink:href="#rim" fill="#404040">
                                <set attributeName="fill" to="#808080" begin="zoomplus.mouseover" end="zoomplus.mouseout"/>
                        </use>
                        <path d="M-4,0h8M0,-4v8" fill="none" stroke="white" stroke-width="1.5" pointer-events="none"/>
                </g>
                <g id="zoomMin">
                        <use xlink:href="#rim" fill="#404040">
                                <set attributeName="fill" to="#808080" begin="zoomminus.mouseover" end="zoomminus.mouseout"/>
                        </use>
                        <path d="M-4,0h8" fill="none" stroke="white" stroke-width="1.5" pointer-events="none"/>
                </g>
                <g id="dirArrow">
                        <path fill="none" stroke="white" stroke-width="1.5" d="M0,-3.0v7 M-2.5,-0.5L0,-3.0L2.5,-0.5"/>
                </g>
               <g id="resetDef">
                       <use xlink:href="#rim2" fill="#404040">
                               <set attributeName="fill" to="#808080" begin="reset.mouseover" end="reset.mouseout"/>
                       </use>
               </g>
        </defs>

<script type="text/javascript">
var viewWidth = 2654;
var viewHeight = 93;
var sectionId = 'dynsection-0';
</script>
<script xlink:href="svgpan.js"/>
<svg id="graph" class="graph">
<g id="viewport">
<title>include/my/misc.h</title>
<!-- Node1 -->
<g id="node1" class="node">
<title>Node1</title>
<g id="a_node1"><a xlink:title=" ">
<polygon fill="#999999" stroke="#666666" points="1376,-85 1270,-85 1270,-66 1376,-66 1376,-85"/>
<text text-anchor="middle" x="1323" y="-73" font-family="Helvetica,sans-Serif" font-size="10.00">include/my/misc.h</text>
</a>
</g>
</g>
<!-- Node2 -->
<g id="node2" class="node">
<title>Node2</title>
<g id="a_node2"><a xlink:href="ast__destroy_8c.html" target="_top" xlink:title=" ">
<polygon fill="white" stroke="#666666" points="116,-24.5 0,-24.5 0,-5.5 116,-5.5 116,-24.5"/>
<text text-anchor="middle" x="58" y="-12.5" font-family="Helvetica,sans-Serif" font-size="10.00">src/ast/ast_destroy.c</text>
</a>
</g>
</g>
<!-- Node1&#45;&gt;Node2 -->
<g id="edge1" class="edge">
<title>Node1&#45;&gt;Node2</title>
<path fill="none" stroke="#63b8ff" d="M1259.53,-73.56C1044.97,-70.15 347.7,-57.21 125,-30 114.62,-28.73 103.46,-26.68 93.28,-24.54"/>
<polygon fill="#63b8ff" stroke="#63b8ff" points="1259.63,-77.06 1269.68,-73.72 1259.74,-70.06 1259.63,-77.06"/>
</g>
<!-- Node3 -->
<g id="node3" class="node">
<title>Node3</title>
<g id="a_node3"><a xlink:href="builtins_8c.html" target="_top" xlink:title=" ">
<polygon fill="white" stroke="#666666" points="251.5,-24.5 134.5,-24.5 134.5,-5.5 251.5,-5.5 251.5,-24.5"/>
<text text-anchor="middle" x="193" y="-12.5" font-family="Helvetica,sans-Serif" font-size="10.00">src/builtins/builtins.c</text>
</a>
</g>
</g>
<!-- Node1&#45;&gt;Node3 -->
<g id="edge2" class="edge">
<title>Node1&#45;&gt;Node3</title>
<path fill="none" stroke="#63b8ff" d="M1259.52,-73.18C1061.38,-68.86 456,-54 261,-30 250.47,-28.7 239.15,-26.65 228.82,-24.5"/>
<polygon fill="#63b8ff" stroke="#63b8ff" points="1259.69,-76.69 1269.76,-73.41 1259.84,-69.69 1259.69,-76.69"/>
</g>
<!-- Node4 -->
<g id="node4" class="node">
<title>Node4</title>
<g id="a_node4"><a xlink:href="cd_8c.html" target="_top" xlink:title=" ">
<polygon fill="white" stroke="#666666" points="362,-24.5 270,-24.5 270,-5.5 362,-5.5 362,-24.5"/>
<text text-anchor="middle" x="316" y="-12.5" font-family="Helvetica,sans-Serif" font-size="10.00">src/builtins/cd.c</text>
</a>
</g>
</g>
<!-- Node1&#45;&gt;Node4 -->
<g id="edge3" class="edge">
<title>Node1&#45;&gt;Node4</title>
<path fill="none" stroke="#63b8ff" d="M1259.85,-73.22C1075.99,-69.22 543.26,-55.68 371,-30 362.42,-28.72 353.25,-26.67 344.89,-24.52"/>
<polygon fill="#63b8ff" stroke="#63b8ff" points="1259.82,-76.72 1269.89,-73.43 1259.97,-69.72 1259.82,-76.72"/>
</g>
<!-- Node5 -->
<g id="node5" class="node">
<title>Node5</title>
<g id="a_node5"><a xlink:href="env_8c.html" target="_top" xlink:title=" ">
<polygon fill="white" stroke="#666666" points="478,-24.5 380,-24.5 380,-5.5 478,-5.5 478,-24.5"/>
<text text-anchor="middle" x="429" y="-12.5" font-family="Helvetica,sans-Serif" font-size="10.00">src/builtins/env.c</text>
</a>
</g>
</g>
<!-- Node1&#45;&gt;Node5 -->
<g id="edge4" class="edge">
<title>Node1&#45;&gt;Node5</title>
<path fill="none" stroke="#63b8ff" d="M1259.73,-75.08C1119.68,-75.5 773.23,-71.8 487,-30 478.08,-28.7 468.53,-26.66 459.8,-24.55"/>
<polygon fill="#63b8ff" stroke="#63b8ff" points="1259.86,-78.58 1269.85,-75.04 1259.84,-71.58 1259.86,-78.58"/>
</g>
<!-- Node6 -->
<g id="node6" class="node">
<title>Node6</title>
<g id="a_node6"><a xlink:href="exit_8c.html" target="_top" xlink:title=" ">
<polygon fill="white" stroke="#666666" points="596,-24.5 496,-24.5 496,-5.5 596,-5.5 596,-24.5"/>
<text text-anchor="middle" x="546" y="-12.5" font-family="Helvetica,sans-Serif" font-size="10.00">src/builtins/exit.c</text>
</a>
</g>
</g>
<!-- Node1&#45;&gt;Node6 -->
<g id="edge5" class="edge">
<title>Node1&#45;&gt;Node6</title>
<path fill="none" stroke="#63b8ff" d="M1259.79,-74.2C1134.28,-72.82 845.02,-65.65 605,-30 596.04,-28.67 586.45,-26.65 577.65,-24.56"/>
<polygon fill="#63b8ff" stroke="#63b8ff" points="1259.95,-77.7 1269.98,-74.31 1260.02,-70.71 1259.95,-77.7"/>
</g>
<!-- Node7 -->
<g id="node7" class="node">
<title>Node7</title>
<g id="a_node7"><a xlink:href="set_8c.html" target="_top" xlink:title=" ">
<polygon fill="white" stroke="#666666" points="710,-24.5 614,-24.5 614,-5.5 710,-5.5 710,-24.5"/>
<text text-anchor="middle" x="662" y="-12.5" font-family="Helvetica,sans-Serif" font-size="10.00">src/builtins/set.c</text>
</a>
</g>
</g>
<!-- Node1&#45;&gt;Node7 -->
<g id="edge6" class="edge">
<title>Node1&#45;&gt;Node7</title>
<path fill="none" stroke="#63b8ff" d="M1259.43,-73.31C1148.91,-70.46 914.42,-60.97 719,-30 710.34,-28.63 701.07,-26.6 692.57,-24.51"/>
<polygon fill="#63b8ff" stroke="#63b8ff" points="1259.65,-76.81 1269.74,-73.56 1259.83,-69.82 1259.65,-76.81"/>
</g>
<!-- Node8 -->
<g id="node8" class="node">
<title>Node8</title>
<g id="a_node8"><a xlink:href="setenv_8c.html" target="_top" xlink:title=" ">
<polygon fill="white" stroke="#666666" points="841.5,-24.5 728.5,-24.5 728.5,-5.5 841.5,-5.5 841.5,-24.5"/>
<text text-anchor="middle" x="785" y="-12.5" font-family="Helvetica,sans-Serif" font-size="10.00">src/builtins/setenv.c</text>
</a>
</g>
</g>
<!-- Node1&#45;&gt;Node8 -->
<g id="edge7" class="edge">
<title>Node1&#45;&gt;Node8</title>
<path fill="none" stroke="#63b8ff" d="M1259.53,-70.84C1168.64,-65.08 996.33,-52.19 851,-30 841.39,-28.53 831.07,-26.55 821.52,-24.53"/>
<polygon fill="#63b8ff" stroke="#63b8ff" points="1259.47,-74.35 1269.67,-71.48 1259.9,-67.36 1259.47,-74.35"/>
</g>
<!-- Node9 -->
<g id="node9" class="node">
<title>Node9</title>
<g id="a_node9"><a xlink:href="unset_8c.html" target="_top" xlink:title=" ">
<polygon fill="white" stroke="#666666" points="968,-24.5 860,-24.5 860,-5.5 968,-5.5 968,-24.5"/>
<text text-anchor="middle" x="914" y="-12.5" font-family="Helvetica,sans-Serif" font-size="10.00">src/builtins/unset.c</text>
</a>
</g>
</g>
<!-- Node1&#45;&gt;Node9 -->
<g id="edge8" class="edge">
<title>Node1&#45;&gt;Node9</title>
<path fill="none" stroke="#63b8ff" d="M1259.37,-68.07C1189.76,-60.62 1075.03,-47.16 977,-30 968.17,-28.45 958.71,-26.51 949.87,-24.56"/>
<polygon fill="#63b8ff" stroke="#63b8ff" points="1259.41,-71.59 1269.72,-69.17 1260.15,-64.63 1259.41,-71.59"/>
</g>
<!-- Node10 -->
<g id="node10" class="node">
<title>Node10</title>
<g id="a_node10"><a xlink:href="unsetenv_8c.html" target="_top" xlink:title=" ">
<polygon fill="white" stroke="#666666" points="1111.5,-24.5 986.5,-24.5 986.5,-5.5 1111.5,-5.5 1111.5,-24.5"/>
<text text-anchor="middle" x="1049" y="-12.5" font-family="Helvetica,sans-Serif" font-size="10.00">src/builtins/unsetenv.c</text>
</a>
</g>
</g>
<!-- Node1&#45;&gt;Node10 -->
<g id="edge9" class="edge">
<title>Node1&#45;&gt;Node10</title>
<path fill="none" stroke="#63b8ff" d="M1273.32,-63.89C1220.41,-52.6 1137.72,-34.94 1088.89,-24.52"/>
<polygon fill="#63b8ff" stroke="#63b8ff" points="1272.65,-67.33 1283.16,-65.99 1274.11,-60.48 1272.65,-67.33"/>
</g>
<!-- Node11 -->
<g id="node11" class="node">
<title>Node11</title>
<g id="a_node11"><a xlink:href="env__to__word__array_8c.html" target="_top" xlink:title=" ">
<polygon fill="white" stroke="#666666" points="1246.5,-30 1129.5,-30 1129.5,0 1246.5,0 1246.5,-30"/>
<text text-anchor="start" x="1137.5" y="-18" font-family="Helvetica,sans-Serif" font-size="10.00">src/env/env_to_word</text>
<text text-anchor="middle" x="1188" y="-7" font-family="Helvetica,sans-Serif" font-size="10.00">_array.c</text>
</a>
</g>
</g>
<!-- Node1&#45;&gt;Node11 -->
<g id="edge10" class="edge">
<title>Node1&#45;&gt;Node11</title>
<path fill="none" stroke="#63b8ff" d="M1294.05,-61.95C1272.43,-52.59 1242.87,-39.78 1220.46,-30.06"/>
<polygon fill="#63b8ff" stroke="#63b8ff" points="1292.8,-65.23 1303.37,-65.99 1295.59,-58.81 1292.8,-65.23"/>
</g>
<!-- Node12 -->
<g id="node12" class="node">
<title>Node12</title>
<g id="a_node12"><a xlink:href="execute__ast_8c.html" target="_top" xlink:title=" ">
<polygon fill="white" stroke="#666666" points="1381.5,-30 1264.5,-30 1264.5,0 1381.5,0 1381.5,-30"/>
<text text-anchor="start" x="1272.5" y="-18" font-family="Helvetica,sans-Serif" font-size="10.00">src/executer/execute</text>
<text text-anchor="middle" x="1323" y="-7" font-family="Helvetica,sans-Serif" font-size="10.00">_ast.c</text>
</a>
</g>
</g>
<!-- Node1&#45;&gt;Node12 -->
<g id="edge11" class="edge">
<title>Node1&#45;&gt;Node12</title>
<path fill="none" stroke="#63b8ff" d="M1323,-55.65C1323,-47.36 1323,-37.78 1323,-30.11"/>
<polygon fill="#63b8ff" stroke="#63b8ff" points="1319.5,-55.87 1323,-65.87 1326.5,-55.87 1319.5,-55.87"/>
</g>
<!-- Node13 -->
<g id="node13" class="node">
<title>Node13</title>
<g id="a_node13"><a xlink:href="execute__cmd_8c.html" target="_top" xlink:title=" ">
<polygon fill="white" stroke="#666666" points="1516.5,-30 1399.5,-30 1399.5,0 1516.5,0 1516.5,-30"/>
<text text-anchor="start" x="1407.5" y="-18" font-family="Helvetica,sans-Serif" font-size="10.00">src/executer/execute</text>
<text text-anchor="middle" x="1458" y="-7" font-family="Helvetica,sans-Serif" font-size="10.00">_cmd.c</text>
</a>
</g>
</g>
<!-- Node1&#45;&gt;Node13 -->
<g id="edge12" class="edge">
<title>Node1&#45;&gt;Node13</title>
<path fill="none" stroke="#63b8ff" d="M1351.95,-61.95C1373.57,-52.59 1403.13,-39.78 1425.54,-30.06"/>
<polygon fill="#63b8ff" stroke="#63b8ff" points="1350.41,-58.81 1342.63,-65.99 1353.2,-65.23 1350.41,-58.81"/>
</g>
<!-- Node14 -->
<g id="node14" class="node">
<title>Node14</title>
<g id="a_node14"><a xlink:href="execute__logical__and_8c.html" target="_top" xlink:title=" ">
<polygon fill="white" stroke="#666666" points="1651.5,-30 1534.5,-30 1534.5,0 1651.5,0 1651.5,-30"/>
<text text-anchor="start" x="1542.5" y="-18" font-family="Helvetica,sans-Serif" font-size="10.00">src/executer/execute</text>
<text text-anchor="middle" x="1593" y="-7" font-family="Helvetica,sans-Serif" font-size="10.00">_logical_and.c</text>
</a>
</g>
</g>
<!-- Node1&#45;&gt;Node14 -->
<g id="edge13" class="edge">
<title>Node1&#45;&gt;Node14</title>
<path fill="none" stroke="#63b8ff" d="M1372.21,-63.84C1417.85,-53.95 1485.8,-39.23 1534.26,-28.73"/>
<polygon fill="#63b8ff" stroke="#63b8ff" points="1371.29,-60.46 1362.26,-65.99 1372.77,-67.3 1371.29,-60.46"/>
</g>
<!-- Node15 -->
<g id="node15" class="node">
<title>Node15</title>
<g id="a_node15"><a xlink:href="execute__logical__or_8c.html" target="_top" xlink:title=" ">
<polygon fill="white" stroke="#666666" points="1786.5,-30 1669.5,-30 1669.5,0 1786.5,0 1786.5,-30"/>
<text text-anchor="start" x="1677.5" y="-18" font-family="Helvetica,sans-Serif" font-size="10.00">src/executer/execute</text>
<text text-anchor="middle" x="1728" y="-7" font-family="Helvetica,sans-Serif" font-size="10.00">_logical_or.c</text>
</a>
</g>
</g>
<!-- Node1&#45;&gt;Node15 -->
<g id="edge14" class="edge">
<title>Node1&#45;&gt;Node15</title>
<path fill="none" stroke="#63b8ff" d="M1386.3,-67.6C1454.37,-59.85 1565.68,-46.21 1661,-30 1663.69,-29.54 1666.45,-29.05 1669.22,-28.54"/>
<polygon fill="#63b8ff" stroke="#63b8ff" points="1385.71,-64.15 1376.17,-68.75 1386.5,-71.1 1385.71,-64.15"/>
</g>
<!-- Node16 -->
<g id="node16" class="node">
<title>Node16</title>
<g id="a_node16"><a xlink:href="execute__pipe_8c.html" target="_top" xlink:title=" ">
<polygon fill="white" stroke="#666666" points="1921.5,-30 1804.5,-30 1804.5,0 1921.5,0 1921.5,-30"/>
<text text-anchor="start" x="1812.5" y="-18" font-family="Helvetica,sans-Serif" font-size="10.00">src/executer/execute</text>
<text text-anchor="middle" x="1863" y="-7" font-family="Helvetica,sans-Serif" font-size="10.00">_pipe.c</text>
</a>
</g>
</g>
<!-- Node1&#45;&gt;Node16 -->
<g id="edge15" class="edge">
<title>Node1&#45;&gt;Node16</title>
<path fill="none" stroke="#63b8ff" d="M1386.23,-70.81C1477.2,-65 1650.13,-52.03 1796,-30 1798.7,-29.59 1801.46,-29.14 1804.24,-28.67"/>
<polygon fill="#63b8ff" stroke="#63b8ff" points="1385.84,-67.33 1376.08,-71.45 1386.28,-74.32 1385.84,-67.33"/>
</g>
<!-- Node17 -->
<g id="node17" class="node">
<title>Node17</title>
<g id="a_node17"><a xlink:href="execute__redirect_8c.html" target="_top" xlink:title=" ">
<polygon fill="white" stroke="#666666" points="2056.5,-30 1939.5,-30 1939.5,0 2056.5,0 2056.5,-30"/>
<text text-anchor="start" x="1947.5" y="-18" font-family="Helvetica,sans-Serif" font-size="10.00">src/executer/execute</text>
<text text-anchor="middle" x="1998" y="-7" font-family="Helvetica,sans-Serif" font-size="10.00">_redirect.c</text>
</a>
</g>
</g>
<!-- Node1&#45;&gt;Node17 -->
<g id="edge16" class="edge">
<title>Node1&#45;&gt;Node17</title>
<path fill="none" stroke="#63b8ff" d="M1386.12,-72.64C1496.89,-68.77 1733.32,-57.76 1931,-30 1933.71,-29.62 1936.47,-29.2 1939.25,-28.74"/>
<polygon fill="#63b8ff" stroke="#63b8ff" points="1385.99,-69.15 1376.11,-72.99 1386.23,-76.14 1385.99,-69.15"/>
</g>
<!-- Node18 -->
<g id="node18" class="node">
<title>Node18</title>
<g id="a_node18"><a xlink:href="execute__subshell_8c.html" target="_top" xlink:title=" ">
<polygon fill="white" stroke="#666666" points="2191.5,-30 2074.5,-30 2074.5,0 2191.5,0 2191.5,-30"/>
<text text-anchor="start" x="2082.5" y="-18" font-family="Helvetica,sans-Serif" font-size="10.00">src/executer/execute</text>
<text text-anchor="middle" x="2133" y="-7" font-family="Helvetica,sans-Serif" font-size="10.00">_subshell.c</text>
</a>
</g>
</g>
<!-- Node1&#45;&gt;Node18 -->
<g id="edge17" class="edge">
<title>Node1&#45;&gt;Node18</title>
<path fill="none" stroke="#63b8ff" d="M1386.49,-73.82C1515.21,-71.75 1815.96,-63.43 2066,-30 2068.71,-29.64 2071.47,-29.23 2074.26,-28.78"/>
<polygon fill="#63b8ff" stroke="#63b8ff" points="1386.36,-70.32 1376.41,-73.97 1386.46,-77.32 1386.36,-70.32"/>
</g>
<!-- Node19 -->
<g id="node19" class="node">
<title>Node19</title>
<g id="a_node19"><a xlink:href="wait__for__subprocess_8c.html" target="_top" xlink:title=" ">
<polygon fill="white" stroke="#666666" points="2328.5,-30 2209.5,-30 2209.5,0 2328.5,0 2328.5,-30"/>
<text text-anchor="start" x="2217.5" y="-18" font-family="Helvetica,sans-Serif" font-size="10.00">src/executer/wait_for</text>
<text text-anchor="middle" x="2269" y="-7" font-family="Helvetica,sans-Serif" font-size="10.00">_subprocess.c</text>
</a>
</g>
</g>
<!-- Node1&#45;&gt;Node19 -->
<g id="edge18" class="edge">
<title>Node1&#45;&gt;Node19</title>
<path fill="none" stroke="#63b8ff" d="M1386.24,-74.59C1531.03,-74.08 1897.53,-68.7 2201,-30 2203.75,-29.65 2206.55,-29.25 2209.38,-28.81"/>
<polygon fill="#63b8ff" stroke="#63b8ff" points="1386.19,-71.09 1376.2,-74.62 1386.21,-78.09 1386.19,-71.09"/>
</g>
<!-- Node20 -->
<g id="node20" class="node">
<title>Node20</title>
<g id="a_node20"><a xlink:href="main_8c.html" target="_top" xlink:title=" ">
<polygon fill="white" stroke="#666666" points="2413.5,-24.5 2346.5,-24.5 2346.5,-5.5 2413.5,-5.5 2413.5,-24.5"/>
<text text-anchor="middle" x="2380" y="-12.5" font-family="Helvetica,sans-Serif" font-size="10.00">src/main.c</text>
</a>
</g>
</g>
<!-- Node1&#45;&gt;Node20 -->
<g id="edge19" class="edge">
<title>Node1&#45;&gt;Node20</title>
<path fill="none" stroke="#63b8ff" d="M1386.42,-74.02C1578.86,-72.2 2154.17,-63.98 2338,-30 2344.65,-28.77 2351.69,-26.73 2358.07,-24.59"/>
<polygon fill="#63b8ff" stroke="#63b8ff" points="1386.16,-70.52 1376.19,-74.11 1386.22,-77.52 1386.16,-70.52"/>
</g>
<!-- Node21 -->
<g id="node21" class="node">
<title>Node21</title>
<g id="a_node21"><a xlink:href="parse__command_8c.html" target="_top" xlink:title=" ">
<polygon fill="white" stroke="#666666" points="2562,-30 2432,-30 2432,0 2562,0 2562,-30"/>
<text text-anchor="start" x="2440" y="-18" font-family="Helvetica,sans-Serif" font-size="10.00">src/parser/tokens/parse</text>
<text text-anchor="middle" x="2497" y="-7" font-family="Helvetica,sans-Serif" font-size="10.00">_command.c</text>
</a>
</g>
</g>
<!-- Node1&#45;&gt;Node21 -->
<g id="edge20" class="edge">
<title>Node1&#45;&gt;Node21</title>
<path fill="none" stroke="#63b8ff" d="M1386.37,-75.17C1555.39,-76.27 2030.77,-74.79 2423,-30 2425.86,-29.67 2428.77,-29.3 2431.71,-28.89"/>
<polygon fill="#63b8ff" stroke="#63b8ff" points="1386.18,-71.67 1376.16,-75.1 1386.13,-78.67 1386.18,-71.67"/>
</g>
<!-- Node22 -->
<g id="node22" class="node">
<title>Node22</title>
<g id="a_node22"><a xlink:href="shell_8c.html" target="_top" xlink:title=" ">
<polygon fill="white" stroke="#666666" points="2645.5,-24.5 2580.5,-24.5 2580.5,-5.5 2645.5,-5.5 2645.5,-24.5"/>
<text text-anchor="middle" x="2613" y="-12.5" font-family="Helvetica,sans-Serif" font-size="10.00">src/shell.c</text>
</a>
</g>
</g>
<!-- Node1&#45;&gt;Node22 -->
<g id="edge21" class="edge">
<title>Node1&#45;&gt;Node22</title>
<path fill="none" stroke="#63b8ff" d="M1386.28,-74.63C1606.72,-74.7 2339.98,-71.73 2571,-30 2577.66,-28.8 2584.7,-26.77 2591.08,-24.62"/>
<polygon fill="#63b8ff" stroke="#63b8ff" points="1386.18,-71.13 1376.17,-74.62 1386.17,-78.13 1386.18,-71.13"/>
</g>
</g>
</svg>
        <g id="navigator" transform="translate(0 0)" fill="#404254">
                <rect fill="#f2f5e9" fill-opacity="0.5" stroke="#606060" stroke-width=".5" x="0" y="0" width="60" height="60"/>
                <use id="zoomplus" xlink:href="#zoomPlus" x="17" y="9" onmousedown="handleZoom(evt,'in')"/>
                <use id="zoomminus" xlink:href="#zoomMin" x="42" y="9" onmousedown="handleZoom(evt,'out')"/>
                <use id="reset" xlink:href="#resetDef" x="30" y="36" onmousedown="handleReset()"/>
                <g id="arrowUp" xlink:href="#dirArrow" transform="translate(30 24)" onmousedown="handlePan(0,-1)">
                  <use xlink:href="#rim" fill="#404040">
                        <set attributeName="fill" to="#808080" begin="arrowUp.mouseover" end="arrowUp.mouseout"/>
                  </use>
                  <path fill="none" stroke="white" stroke-width="1.5" d="M0,-3.0v7 M-2.5,-0.5L0,-3.0L2.5,-0.5"/>
                </g>
                <g id="arrowRight" xlink:href="#dirArrow" transform="rotate(90) translate(36 -43)" onmousedown="handlePan(1,0)">
                  <use xlink:href="#rim" fill="#404040">
                        <set attributeName="fill" to="#808080" begin="arrowRight.mouseover" end="arrowRight.mouseout"/>
                  </use>
                  <path fill="none" stroke="white" stroke-width="1.5" d="M0,-3.0v7 M-2.5,-0.5L0,-3.0L2.5,-0.5"/>
                </g>
                <g id="arrowDown" xlink:href="#dirArrow" transform="rotate(180) translate(-30 -48)" onmousedown="handlePan(0,1)">
                  <use xlink:href="#rim" fill="#404040">
                        <set attributeName="fill" to="#808080" begin="arrowDown.mouseover" end="arrowDown.mouseout"/>
                  </use>
                  <path fill="none" stroke="white" stroke-width="1.5" d="M0,-3.0v7 M-2.5,-0.5L0,-3.0L2.5,-0.5"/>
                </g>
                <g id="arrowLeft" xlink:href="#dirArrow" transform="rotate(270) translate(-36 17)" onmousedown="handlePan(-1,0)">
                  <use xlink:href="#rim" fill="#404040">
                        <set attributeName="fill" to="#808080" begin="arrowLeft.mouseover" end="arrowLeft.mouseout"/>
                  </use>
                  <path fill="none" stroke="white" stroke-width="1.5" d="M0,-3.0v7 M-2.5,-0.5L0,-3.0L2.5,-0.5"/>
                </g>
        </g>
        <svg viewBox="0 0 15 15" width="100%" height="30px" preserveAspectRatio="xMaxYMin meet">
         <g id="arrow_out" transform="scale(0.3 0.3)">
          <a xlink:href="misc_8h__dep__incl_org.svg" target="_base">
           <rect id="button" ry="5" rx="5" y="6" x="6" height="38" width="38"
                fill="#f2f5e9" fill-opacity="0.5" stroke="#606060" stroke-width="1.0"/>
           <path id="arrow"
             d="M 11.500037,31.436501 C 11.940474,20.09759 22.043105,11.32322 32.158766,21.979434 L 37.068811,17.246167 C 37.068811,17.246167 37.088388,32 37.088388,32 L 22.160133,31.978069 C 22.160133,31.978069 26.997745,27.140456 26.997745,27.140456 C 18.528582,18.264221 13.291696,25.230495 11.500037,31.436501 z"
             style="fill:#404040;"/>
          </a>
         </g>
        </svg>
</svg>
