<?xml version="1.0" encoding="UTF-8" standalone="no"?>
<!DOCTYPE svg PUBLIC "-//W3C//DTD SVG 1.1//EN"
 "http://www.w3.org/Graphics/SVG/1.1/DTD/svg11.dtd">
<!-- Generated by graphviz version 2.43.0 (0)
 -->
<!-- Title: include/my/misc.h Pages: 1 -->
<svg width="3301pt" height="93pt"
 viewBox="0.00 0.00 3300.50 93.00" xmlns="http://www.w3.org/2000/svg" xmlns:xlink="http://www.w3.org/1999/xlink">
<g id="graph0" class="graph" transform="scale(1 1) rotate(0) translate(4 89)">
<title>include/my/misc.h</title>
<!-- Node1 -->
<g id="node1" class="node">
<title>Node1</title>
<g id="a_node1"><a xlink:title=" ">
<polygon fill="#999999" stroke="#666666" points="1661,-85 1555,-85 1555,-66 1661,-66 1661,-85"/>
<text text-anchor="middle" x="1608" y="-73" font-family="Helvetica,sans-Serif" font-size="10.00">include/my/misc.h</text>
</a>
</g>
</g>
<!-- Node2 -->
<g id="node2" class="node">
<title>Node2</title>
<g id="a_node2"><a xlink:href="ast__destroy_8c.html" target="_top" xlink:title=" ">
<polygon fill="white" stroke="#666666" points="116,-24.5 0,-24.5 0,-5.5 116,-5.5 116,-24.5"/>
<text text-anchor="middle" x="58" y="-12.5" font-family="Helvetica,sans-Serif" font-size="10.00">src/ast/ast_destroy.c</text>
</a>
</g>
</g>
<!-- Node1&#45;&gt;Node2 -->
<g id="edge1" class="edge">
<title>Node1&#45;&gt;Node2</title>
<path fill="none" stroke="#63b8ff" d="M1544.43,-74.08C1298.09,-72.23 406.17,-63.33 125,-30 114.5,-28.75 103.2,-26.68 92.93,-24.51"/>
<polygon fill="#63b8ff" stroke="#63b8ff" points="1544.62,-77.58 1554.64,-74.16 1544.67,-70.58 1544.62,-77.58"/>
</g>
<!-- Node3 -->
<g id="node3" class="node">
<title>Node3</title>
<g id="a_node3"><a xlink:href="alias_8c.html" target="_top" xlink:title=" ">
<polygon fill="white" stroke="#666666" points="230,-30 134,-30 134,0 230,0 230,-30"/>
<text text-anchor="start" x="142" y="-18" font-family="Helvetica,sans-Serif" font-size="10.00">src/builtins/alias</text>
<text text-anchor="middle" x="182" y="-7" font-family="Helvetica,sans-Serif" font-size="10.00">/alias.c</text>
</a>
</g>
</g>
<!-- Node1&#45;&gt;Node3 -->
<g id="edge2" class="edge">
<title>Node1&#45;&gt;Node3</title>
<path fill="none" stroke="#63b8ff" d="M1544.66,-74.19C1310.8,-72.78 496.23,-65.38 239,-30 236.07,-29.6 233.08,-29.11 230.07,-28.55"/>
<polygon fill="#63b8ff" stroke="#63b8ff" points="1544.68,-77.69 1554.7,-74.25 1544.72,-70.69 1544.68,-77.69"/>
</g>
<!-- Node4 -->
<g id="node4" class="node">
<title>Node4</title>
<g id="a_node4"><a xlink:href="unalias_8c.html" target="_top" xlink:title=" ">
<polygon fill="white" stroke="#666666" points="344,-30 248,-30 248,0 344,0 344,-30"/>
<text text-anchor="start" x="256" y="-18" font-family="Helvetica,sans-Serif" font-size="10.00">src/builtins/alias</text>
<text text-anchor="middle" x="296" y="-7" font-family="Helvetica,sans-Serif" font-size="10.00">/unalias.c</text>
</a>
</g>
</g>
<!-- Node1&#45;&gt;Node4 -->
<g id="edge3" class="edge">
<title>Node1&#45;&gt;Node4</title>
<path fill="none" stroke="#63b8ff" d="M1544.85,-73.98C1323.99,-71.87 586.96,-62.53 353,-30 350.07,-29.59 347.08,-29.1 344.07,-28.54"/>
<polygon fill="#63b8ff" stroke="#63b8ff" points="1544.94,-77.48 1554.97,-74.07 1545.01,-70.48 1544.94,-77.48"/>
</g>
<!-- Node5 -->
<g id="node5" class="node">
<title>Node5</title>
<g id="a_node5"><a xlink:href="builtins_8c.html" target="_top" xlink:title=" ">
<polygon fill="white" stroke="#666666" points="479.5,-24.5 362.5,-24.5 362.5,-5.5 479.5,-5.5 479.5,-24.5"/>
<text text-anchor="middle" x="421" y="-12.5" font-family="Helvetica,sans-Serif" font-size="10.00">src/builtins/builtins.c</text>
</a>
</g>
</g>
<!-- Node1&#45;&gt;Node5 -->
<g id="edge4" class="edge">
<title>Node1&#45;&gt;Node5</title>
<path fill="none" stroke="#63b8ff" d="M1544.64,-73.34C1339.62,-69.38 695.65,-55.21 489,-30 478.47,-28.72 467.15,-26.66 456.82,-24.51"/>
<polygon fill="#63b8ff" stroke="#63b8ff" points="1544.86,-76.85 1554.93,-73.54 1545,-69.85 1544.86,-76.85"/>
</g>
<!-- Node6 -->
<g id="node6" class="node">
<title>Node6</title>
<g id="a_node6"><a xlink:href="cd_8c.html" target="_top" xlink:title=" ">
<polygon fill="white" stroke="#666666" points="590,-24.5 498,-24.5 498,-5.5 590,-5.5 590,-24.5"/>
<text text-anchor="middle" x="544" y="-12.5" font-family="Helvetica,sans-Serif" font-size="10.00">src/builtins/cd.c</text>
</a>
</g>
</g>
<!-- Node1&#45;&gt;Node6 -->
<g id="edge5" class="edge">
<title>Node1&#45;&gt;Node6</title>
<path fill="none" stroke="#63b8ff" d="M1544.72,-73.41C1353.37,-69.84 782.74,-57.14 599,-30 590.42,-28.73 581.24,-26.68 572.89,-24.54"/>
<polygon fill="#63b8ff" stroke="#63b8ff" points="1544.83,-76.91 1554.89,-73.6 1544.96,-69.91 1544.83,-76.91"/>
</g>
<!-- Node7 -->
<g id="node7" class="node">
<title>Node7</title>
<g id="a_node7"><a xlink:href="env_8c.html" target="_top" xlink:title=" ">
<polygon fill="white" stroke="#666666" points="706,-24.5 608,-24.5 608,-5.5 706,-5.5 706,-24.5"/>
<text text-anchor="middle" x="657" y="-12.5" font-family="Helvetica,sans-Serif" font-size="10.00">src/builtins/env.c</text>
</a>
</g>
</g>
<!-- Node1&#45;&gt;Node7 -->
<g id="edge6" class="edge">
<title>Node1&#45;&gt;Node7</title>
<path fill="none" stroke="#63b8ff" d="M1544.58,-72.88C1368.4,-68.14 875.43,-53.15 715,-30 706.08,-28.71 696.52,-26.68 687.8,-24.57"/>
<polygon fill="#63b8ff" stroke="#63b8ff" points="1544.64,-76.39 1554.73,-73.15 1544.83,-69.39 1544.64,-76.39"/>
</g>
<!-- Node8 -->
<g id="node8" class="node">
<title>Node8</title>
<g id="a_node8"><a xlink:href="exit_8c.html" target="_top" xlink:title=" ">
<polygon fill="white" stroke="#666666" points="824,-24.5 724,-24.5 724,-5.5 824,-5.5 824,-24.5"/>
<text text-anchor="middle" x="774" y="-12.5" font-family="Helvetica,sans-Serif" font-size="10.00">src/builtins/exit.c</text>
</a>
</g>
</g>
<!-- Node1&#45;&gt;Node8 -->
<g id="edge7" class="edge">
<title>Node1&#45;&gt;Node8</title>
<path fill="none" stroke="#63b8ff" d="M1544.19,-74.61C1411.19,-74.02 1094.95,-68.3 833,-30 823.94,-28.68 814.22,-26.63 805.34,-24.52"/>
<polygon fill="#63b8ff" stroke="#63b8ff" points="1544.57,-78.11 1554.59,-74.65 1544.6,-71.11 1544.57,-78.11"/>
</g>
<!-- Node9 -->
<g id="node9" class="node">
<title>Node9</title>
<g id="a_node9"><a xlink:href="set_8c.html" target="_top" xlink:title=" ">
<polygon fill="white" stroke="#666666" points="938,-24.5 842,-24.5 842,-5.5 938,-5.5 938,-24.5"/>
<text text-anchor="middle" x="890" y="-12.5" font-family="Helvetica,sans-Serif" font-size="10.00">src/builtins/set.c</text>
</a>
</g>
</g>
<!-- Node1&#45;&gt;Node9 -->
<g id="edge8" class="edge">
<title>Node1&#45;&gt;Node9</title>
<path fill="none" stroke="#63b8ff" d="M1544.66,-73.88C1426.47,-71.93 1164.62,-63.79 947,-30 938.34,-28.66 929.07,-26.63 920.57,-24.54"/>
<polygon fill="#63b8ff" stroke="#63b8ff" points="1544.91,-77.39 1554.96,-74.04 1545.02,-70.39 1544.91,-77.39"/>
</g>
<!-- Node10 -->
<g id="node10" class="node">
<title>Node10</title>
<g id="a_node10"><a xlink:href="setenv_8c.html" target="_top" xlink:title=" ">
<polygon fill="white" stroke="#666666" points="1069.5,-24.5 956.5,-24.5 956.5,-5.5 1069.5,-5.5 1069.5,-24.5"/>
<text text-anchor="middle" x="1013" y="-12.5" font-family="Helvetica,sans-Serif" font-size="10.00">src/builtins/setenv.c</text>
</a>
</g>
</g>
<!-- Node1&#45;&gt;Node10 -->
<g id="edge9" class="edge">
<title>Node1&#45;&gt;Node10</title>
<path fill="none" stroke="#63b8ff" d="M1544.62,-71.73C1445.05,-66.81 1246.1,-54.65 1079,-30 1069.27,-28.56 1058.81,-26.56 1049.16,-24.52"/>
<polygon fill="#63b8ff" stroke="#63b8ff" points="1544.65,-75.24 1554.81,-72.23 1544.99,-68.25 1544.65,-75.24"/>
</g>
<!-- Node11 -->
<g id="node11" class="node">
<title>Node11</title>
<g id="a_node11"><a xlink:href="unset_8c.html" target="_top" xlink:title=" ">
<polygon fill="white" stroke="#666666" points="1196,-24.5 1088,-24.5 1088,-5.5 1196,-5.5 1196,-24.5"/>
<text text-anchor="middle" x="1142" y="-12.5" font-family="Helvetica,sans-Serif" font-size="10.00">src/builtins/unset.c</text>
</a>
</g>
</g>
<!-- Node1&#45;&gt;Node11 -->
<g id="edge10" class="edge">
<title>Node1&#45;&gt;Node11</title>
<path fill="none" stroke="#63b8ff" d="M1544.59,-69.64C1464.96,-63.05 1324.29,-49.78 1205,-30 1195.94,-28.5 1186.22,-26.52 1177.19,-24.53"/>
<polygon fill="#63b8ff" stroke="#63b8ff" points="1544.69,-73.16 1554.94,-70.49 1545.26,-66.19 1544.69,-73.16"/>
</g>
<!-- Node12 -->
<g id="node12" class="node">
<title>Node12</title>
<g id="a_node12"><a xlink:href="unsetenv_8c.html" target="_top" xlink:title=" ">
<polygon fill="white" stroke="#666666" points="1339.5,-24.5 1214.5,-24.5 1214.5,-5.5 1339.5,-5.5 1339.5,-24.5"/>
<text text-anchor="middle" x="1277" y="-12.5" font-family="Helvetica,sans-Serif" font-size="10.00">src/builtins/unsetenv.c</text>
</a>
</g>
</g>
<!-- Node1&#45;&gt;Node12 -->
<g id="edge11" class="edge">
<title>Node1&#45;&gt;Node12</title>
<path fill="none" stroke="#63b8ff" d="M1545.77,-64.3C1493.05,-55.55 1415.49,-42.43 1348,-30 1338.73,-28.29 1328.8,-26.39 1319.39,-24.54"/>
<polygon fill="#63b8ff" stroke="#63b8ff" points="1545.2,-67.76 1555.64,-65.94 1546.35,-60.85 1545.2,-67.76"/>
</g>
<!-- Node13 -->
<g id="node13" class="node">
<title>Node13</title>
<g id="a_node13"><a xlink:href="where_8c.html" target="_top" xlink:title=" ">
<polygon fill="white" stroke="#666666" points="1468.5,-24.5 1357.5,-24.5 1357.5,-5.5 1468.5,-5.5 1468.5,-24.5"/>
<text text-anchor="middle" x="1413" y="-12.5" font-family="Helvetica,sans-Serif" font-size="10.00">src/builtins/where.c</text>
</a>
</g>
</g>
<!-- Node1&#45;&gt;Node13 -->
<g id="edge12" class="edge">
<title>Node1&#45;&gt;Node13</title>
<path fill="none" stroke="#63b8ff" d="M1570.03,-63.11C1532.31,-51.79 1475.34,-34.7 1441.39,-24.52"/>
<polygon fill="#63b8ff" stroke="#63b8ff" points="1569.06,-66.47 1579.65,-65.99 1571.07,-59.77 1569.06,-66.47"/>
</g>
<!-- Node14 -->
<g id="node14" class="node">
<title>Node14</title>
<g id="a_node14"><a xlink:href="which_8c.html" target="_top" xlink:title=" ">
<polygon fill="white" stroke="#666666" points="1597,-24.5 1487,-24.5 1487,-5.5 1597,-5.5 1597,-24.5"/>
<text text-anchor="middle" x="1542" y="-12.5" font-family="Helvetica,sans-Serif" font-size="10.00">src/builtins/which.c</text>
</a>
</g>
</g>
<!-- Node1&#45;&gt;Node14 -->
<g id="edge13" class="edge">
<title>Node1&#45;&gt;Node14</title>
<path fill="none" stroke="#63b8ff" d="M1590.76,-59.22C1578.34,-48.21 1562.03,-33.75 1551.78,-24.67"/>
<polygon fill="#63b8ff" stroke="#63b8ff" points="1588.46,-61.85 1598.26,-65.87 1593.1,-56.62 1588.46,-61.85"/>
</g>
<!-- Node15 -->
<g id="node15" class="node">
<title>Node15</title>
<g id="a_node15"><a xlink:href="env__to__word__array_8c.html" target="_top" xlink:title=" ">
<polygon fill="white" stroke="#666666" points="1732.5,-30 1615.5,-30 1615.5,0 1732.5,0 1732.5,-30"/>
<text text-anchor="start" x="1623.5" y="-18" font-family="Helvetica,sans-Serif" font-size="10.00">src/env/env_to_word</text>
<text text-anchor="middle" x="1674" y="-7" font-family="Helvetica,sans-Serif" font-size="10.00">_array.c</text>
</a>
</g>
</g>
<!-- Node1&#45;&gt;Node15 -->
<g id="edge14" class="edge">
<title>Node1&#45;&gt;Node15</title>
<path fill="none" stroke="#63b8ff" d="M1625.22,-59.23C1635.38,-50.23 1648.15,-38.91 1658.08,-30.11"/>
<polygon fill="#63b8ff" stroke="#63b8ff" points="1622.9,-56.62 1617.74,-65.87 1627.54,-61.85 1622.9,-56.62"/>
</g>
<!-- Node16 -->
<g id="node16" class="node">
<title>Node16</title>
<g id="a_node16"><a xlink:href="execute__ast_8c.html" target="_top" xlink:title=" ">
<polygon fill="white" stroke="#666666" points="1867.5,-30 1750.5,-30 1750.5,0 1867.5,0 1867.5,-30"/>
<text text-anchor="start" x="1758.5" y="-18" font-family="Helvetica,sans-Serif" font-size="10.00">src/executer/execute</text>
<text text-anchor="middle" x="1809" y="-7" font-family="Helvetica,sans-Serif" font-size="10.00">_ast.c</text>
</a>
</g>
</g>
<!-- Node1&#45;&gt;Node16 -->
<g id="edge15" class="edge">
<title>Node1&#45;&gt;Node16</title>
<path fill="none" stroke="#63b8ff" d="M1647.25,-63.08C1679.71,-53.63 1725.94,-40.17 1760.68,-30.06"/>
<polygon fill="#63b8ff" stroke="#63b8ff" points="1645.85,-59.84 1637.23,-65.99 1647.81,-66.56 1645.85,-59.84"/>
</g>
<!-- Node17 -->
<g id="node17" class="node">
<title>Node17</title>
<g id="a_node17"><a xlink:href="execute__cmd_8c.html" target="_top" xlink:title=" ">
<polygon fill="white" stroke="#666666" points="2002.5,-30 1885.5,-30 1885.5,0 2002.5,0 2002.5,-30"/>
<text text-anchor="start" x="1893.5" y="-18" font-family="Helvetica,sans-Serif" font-size="10.00">src/executer/execute</text>
<text text-anchor="middle" x="1944" y="-7" font-family="Helvetica,sans-Serif" font-size="10.00">_cmd.c</text>
</a>
</g>
</g>
<!-- Node1&#45;&gt;Node17 -->
<g id="edge16" class="edge">
<title>Node1&#45;&gt;Node17</title>
<path fill="none" stroke="#63b8ff" d="M1671.42,-64.78C1726.01,-56.23 1806.84,-43.13 1877,-30 1879.69,-29.5 1882.43,-28.97 1885.2,-28.43"/>
<polygon fill="#63b8ff" stroke="#63b8ff" points="1670.54,-61.37 1661.2,-66.38 1671.62,-68.29 1670.54,-61.37"/>
</g>
<!-- Node18 -->
<g id="node18" class="node">
<title>Node18</title>
<g id="a_node18"><a xlink:href="execute__command__substitution_8c.html" target="_top" xlink:title=" ">
<polygon fill="white" stroke="#666666" points="2163,-30 2021,-30 2021,0 2163,0 2163,-30"/>
<text text-anchor="start" x="2029" y="-18" font-family="Helvetica,sans-Serif" font-size="10.00">src/executer/execute</text>
<text text-anchor="middle" x="2092" y="-7" font-family="Helvetica,sans-Serif" font-size="10.00">_command_substitution.c</text>
</a>
</g>
</g>
<!-- Node1&#45;&gt;Node18 -->
<g id="edge17" class="edge">
<title>Node1&#45;&gt;Node18</title>
<path fill="none" stroke="#63b8ff" d="M1671.43,-68.77C1751.12,-61.28 1891.99,-47.09 2012,-30 2014.93,-29.58 2017.92,-29.14 2020.94,-28.68"/>
<polygon fill="#63b8ff" stroke="#63b8ff" points="1670.71,-65.32 1661.08,-69.74 1671.36,-72.29 1670.71,-65.32"/>
</g>
<!-- Node19 -->
<g id="node19" class="node">
<title>Node19</title>
<g id="a_node19"><a xlink:href="execute__logical__and_8c.html" target="_top" xlink:title=" ">
<polygon fill="white" stroke="#666666" points="2298.5,-30 2181.5,-30 2181.5,0 2298.5,0 2298.5,-30"/>
<text text-anchor="start" x="2189.5" y="-18" font-family="Helvetica,sans-Serif" font-size="10.00">src/executer/execute</text>
<text text-anchor="middle" x="2240" y="-7" font-family="Helvetica,sans-Serif" font-size="10.00">_logical_and.c</text>
</a>
</g>
</g>
<!-- Node1&#45;&gt;Node19 -->
<g id="edge18" class="edge">
<title>Node1&#45;&gt;Node19</title>
<path fill="none" stroke="#63b8ff" d="M1671.19,-72.08C1775.78,-67.5 1991.3,-55.63 2172,-30 2175.1,-29.56 2178.28,-29.06 2181.48,-28.53"/>
<polygon fill="#63b8ff" stroke="#63b8ff" points="1670.96,-68.59 1661.12,-72.51 1671.26,-75.58 1670.96,-68.59"/>
</g>
<!-- Node20 -->
<g id="node20" class="node">
<title>Node20</title>
<g id="a_node20"><a xlink:href="execute__logical__or_8c.html" target="_top" xlink:title=" ">
<polygon fill="white" stroke="#666666" points="2433.5,-30 2316.5,-30 2316.5,0 2433.5,0 2433.5,-30"/>
<text text-anchor="start" x="2324.5" y="-18" font-family="Helvetica,sans-Serif" font-size="10.00">src/executer/execute</text>
<text text-anchor="middle" x="2375" y="-7" font-family="Helvetica,sans-Serif" font-size="10.00">_logical_or.c</text>
</a>
</g>
</g>
<!-- Node1&#45;&gt;Node20 -->
<g id="edge19" class="edge">
<title>Node1&#45;&gt;Node20</title>
<path fill="none" stroke="#63b8ff" d="M1671.4,-73.49C1794.6,-70.86 2074.73,-61.62 2308,-30 2310.71,-29.63 2313.47,-29.22 2316.26,-28.77"/>
<polygon fill="#63b8ff" stroke="#63b8ff" points="1671.31,-69.99 1661.38,-73.7 1671.45,-76.99 1671.31,-69.99"/>
</g>
<!-- Node21 -->
<g id="node21" class="node">
<title>Node21</title>
<g id="a_node21"><a xlink:href="execute__pipe_8c.html" target="_top" xlink:title=" ">
<polygon fill="white" stroke="#666666" points="2568.5,-30 2451.5,-30 2451.5,0 2568.5,0 2568.5,-30"/>
<text text-anchor="start" x="2459.5" y="-18" font-family="Helvetica,sans-Serif" font-size="10.00">src/executer/execute</text>
<text text-anchor="middle" x="2510" y="-7" font-family="Helvetica,sans-Serif" font-size="10.00">_pipe.c</text>
</a>
</g>
</g>
<!-- Node1&#45;&gt;Node21 -->
<g id="edge20" class="edge">
<title>Node1&#45;&gt;Node21</title>
<path fill="none" stroke="#63b8ff" d="M1671.11,-74.42C1810.8,-73.52 2156.5,-67.34 2443,-30 2445.71,-29.65 2448.47,-29.24 2451.26,-28.8"/>
<polygon fill="#63b8ff" stroke="#63b8ff" points="1670.99,-70.92 1661.01,-74.48 1671.03,-77.92 1670.99,-70.92"/>
</g>
<!-- Node22 -->
<g id="node22" class="node">
<title>Node22</title>
<g id="a_node22"><a xlink:href="execute__redirect_8c.html" target="_top" xlink:title=" ">
<polygon fill="white" stroke="#666666" points="2703.5,-30 2586.5,-30 2586.5,0 2703.5,0 2703.5,-30"/>
<text text-anchor="start" x="2594.5" y="-18" font-family="Helvetica,sans-Serif" font-size="10.00">src/executer/execute</text>
<text text-anchor="middle" x="2645" y="-7" font-family="Helvetica,sans-Serif" font-size="10.00">_redirect.c</text>
</a>
</g>
</g>
<!-- Node1&#45;&gt;Node22 -->
<g id="edge21" class="edge">
<title>Node1&#45;&gt;Node22</title>
<path fill="none" stroke="#63b8ff" d="M1671.38,-75.09C1826.65,-75.78 2238.15,-73.02 2578,-30 2580.71,-29.66 2583.48,-29.26 2586.26,-28.83"/>
<polygon fill="#63b8ff" stroke="#63b8ff" points="1671.11,-71.59 1661.09,-75.04 1671.07,-78.59 1671.11,-71.59"/>
</g>
<!-- Node23 -->
<g id="node23" class="node">
<title>Node23</title>
<g id="a_node23"><a xlink:href="execute__subshell_8c.html" target="_top" xlink:title=" ">
<polygon fill="white" stroke="#666666" points="2838.5,-30 2721.5,-30 2721.5,0 2838.5,0 2838.5,-30"/>
<text text-anchor="start" x="2729.5" y="-18" font-family="Helvetica,sans-Serif" font-size="10.00">src/executer/execute</text>
<text text-anchor="middle" x="2780" y="-7" font-family="Helvetica,sans-Serif" font-size="10.00">_subshell.c</text>
</a>
</g>
</g>
<!-- Node1&#45;&gt;Node23 -->
<g id="edge22" class="edge">
<title>Node1&#45;&gt;Node23</title>
<path fill="none" stroke="#63b8ff" d="M1671.27,-73.33C1874.5,-69.36 2509.21,-55.22 2713,-30 2715.71,-29.66 2718.48,-29.28 2721.27,-28.85"/>
<polygon fill="#63b8ff" stroke="#63b8ff" points="1671,-69.84 1661.07,-73.53 1671.14,-76.83 1671,-69.84"/>
</g>
<!-- Node24 -->
<g id="node24" class="node">
<title>Node24</title>
<g id="a_node24"><a xlink:href="wait__for__subprocess_8c.html" target="_top" xlink:title=" ">
<polygon fill="white" stroke="#666666" points="2975.5,-30 2856.5,-30 2856.5,0 2975.5,0 2975.5,-30"/>
<text text-anchor="start" x="2864.5" y="-18" font-family="Helvetica,sans-Serif" font-size="10.00">src/executer/wait_for</text>
<text text-anchor="middle" x="2916" y="-7" font-family="Helvetica,sans-Serif" font-size="10.00">_subprocess.c</text>
</a>
</g>
</g>
<!-- Node1&#45;&gt;Node24 -->
<g id="edge23" class="edge">
<title>Node1&#45;&gt;Node24</title>
<path fill="none" stroke="#63b8ff" d="M1671.1,-73.63C1890.09,-70.4 2616.54,-57.78 2848,-30 2850.75,-29.67 2853.56,-29.29 2856.39,-28.86"/>
<polygon fill="#63b8ff" stroke="#63b8ff" points="1671.01,-70.13 1661.06,-73.78 1671.11,-77.13 1671.01,-70.13"/>
</g>
<!-- Node25 -->
<g id="node25" class="node">
<title>Node25</title>
<g id="a_node25"><a xlink:href="main_8c.html" target="_top" xlink:title=" ">
<polygon fill="white" stroke="#666666" points="3060.5,-24.5 2993.5,-24.5 2993.5,-5.5 3060.5,-5.5 3060.5,-24.5"/>
<text text-anchor="middle" x="3027" y="-12.5" font-family="Helvetica,sans-Serif" font-size="10.00">src/main.c</text>
</a>
</g>
</g>
<!-- Node1&#45;&gt;Node25 -->
<g id="edge24" class="edge">
<title>Node1&#45;&gt;Node25</title>
<path fill="none" stroke="#63b8ff" d="M1671.42,-74.88C1906.5,-75.9 2727.77,-76.02 2985,-30 2991.66,-28.81 2998.7,-26.78 3005.08,-24.64"/>
<polygon fill="#63b8ff" stroke="#63b8ff" points="1671.35,-71.38 1661.33,-74.83 1671.31,-78.38 1671.35,-71.38"/>
</g>
<!-- Node26 -->
<g id="node26" class="node">
<title>Node26</title>
<g id="a_node26"><a xlink:href="parse__command_8c.html" target="_top" xlink:title=" ">
<polygon fill="white" stroke="#666666" points="3209,-30 3079,-30 3079,0 3209,0 3209,-30"/>
<text text-anchor="start" x="3087" y="-18" font-family="Helvetica,sans-Serif" font-size="10.00">src/parser/tokens/parse</text>
<text text-anchor="middle" x="3144" y="-7" font-family="Helvetica,sans-Serif" font-size="10.00">_command.c</text>
</a>
</g>
</g>
<!-- Node1&#45;&gt;Node26 -->
<g id="edge25" class="edge">
<title>Node1&#45;&gt;Node26</title>
<path fill="none" stroke="#63b8ff" d="M1671.47,-73.89C1915.41,-71.35 2792.83,-60.25 3070,-30 3072.86,-29.69 3075.77,-29.33 3078.71,-28.93"/>
<polygon fill="#63b8ff" stroke="#63b8ff" points="1671.32,-70.39 1661.35,-74 1671.39,-77.39 1671.32,-70.39"/>
</g>
<!-- Node27 -->
<g id="node27" class="node">
<title>Node27</title>
<g id="a_node27"><a xlink:href="shell_8c.html" target="_top" xlink:title=" ">
<polygon fill="white" stroke="#666666" points="3292.5,-24.5 3227.5,-24.5 3227.5,-5.5 3292.5,-5.5 3292.5,-24.5"/>
<text text-anchor="middle" x="3260" y="-12.5" font-family="Helvetica,sans-Serif" font-size="10.00">src/shell.c</text>
</a>
</g>
</g>
<!-- Node1&#45;&gt;Node27 -->
<g id="edge26" class="edge">
<title>Node1&#45;&gt;Node27</title>
<path fill="none" stroke="#63b8ff" d="M1671.81,-73.84C1951.76,-70.81 3064.14,-57.16 3218,-30 3224.81,-28.8 3232.03,-26.71 3238.52,-24.51"/>
<polygon fill="#63b8ff" stroke="#63b8ff" points="1671.39,-70.35 1661.43,-73.96 1671.47,-77.35 1671.39,-70.35"/>
</g>
</g>
</svg>
