<?xml version="1.0" encoding="UTF-8" standalone="no"?>
<!DOCTYPE svg PUBLIC "-//W3C//DTD SVG 1.1//EN"
 "http://www.w3.org/Graphics/SVG/1.1/DTD/svg11.dtd">
<!-- Generated by graphviz version 2.43.0 (0)
 -->
<!-- Title: include/my/misc.h Pages: 1 -->
<!--zoomable 93 -->
<svg id="main" version="1.1" xmlns="http://www.w3.org/2000/svg" xmlns:xlink="http://www.w3.org/1999/xlink" xml:space="preserve" onload="init(evt)">
<style type="text/css"><![CDATA[
.edge:hover path { stroke: red; }
.edge:hover polygon { stroke: red; fill: red; }
]]></style>
<script type="text/javascript"><![CDATA[
var edges = document.getElementsByTagName('g');
if (edges && edges.length) {
  for (var i=0;i<edges.length;i++) {
    if (edges[i].id.substr(0,4)=='edge') {
      edges[i].setAttribute('class','edge');
    }
  }
}
]]></script>
        <defs>
                <circle id="rim" cx="0" cy="0" r="7"/>
                <circle id="rim2" cx="0" cy="0" r="3.5"/>
                <g id="zoomPlus">
                        <use xlink:href="#rim" fill="#404040">
                                <set attributeName="fill" to="#808080" begin="zoomplus.mouseover" end="zoomplus.mouseout"/>
                        </use>
                        <path d="M-4,0h8M0,-4v8" fill="none" stroke="white" stroke-width="1.5" pointer-events="none"/>
                </g>
                <g id="zoomMin">
                        <use xlink:href="#rim" fill="#404040">
                                <set attributeName="fill" to="#808080" begin="zoomminus.mouseover" end="zoomminus.mouseout"/>
                        </use>
                        <path d="M-4,0h8" fill="none" stroke="white" stroke-width="1.5" pointer-events="none"/>
                </g>
                <g id="dirArrow">
                        <path fill="none" stroke="white" stroke-width="1.5" d="M0,-3.0v7 M-2.5,-0.5L0,-3.0L2.5,-0.5"/>
                </g>
               <g id="resetDef">
                       <use xlink:href="#rim2" fill="#404040">
                               <set attributeName="fill" to="#808080" begin="reset.mouseover" end="reset.mouseout"/>
                       </use>
               </g>
        </defs>

<script type="text/javascript">
var viewWidth = 2815;
var viewHeight = 93;
var sectionId = 'dynsection-0';
</script>
<script xlink:href="svgpan.js"/>
<svg id="graph" class="graph">
<g id="viewport">
<title>include/my/misc.h</title>
<!-- Node1 -->
<g id="node1" class="node">
<title>Node1</title>
<g id="a_node1"><a xlink:title=" ">
<polygon fill="#999999" stroke="#666666" points="1443,-85 1337,-85 1337,-66 1443,-66 1443,-85"/>
<text text-anchor="middle" x="1390" y="-73" font-family="Helvetica,sans-Serif" font-size="10.00">include/my/misc.h</text>
</a>
</g>
</g>
<!-- Node2 -->
<g id="node2" class="node">
<title>Node2</title>
<g id="a_node2"><a xlink:href="ast__destroy_8c.html" target="_top" xlink:title=" ">
<polygon fill="white" stroke="#666666" points="116,-24.5 0,-24.5 0,-5.5 116,-5.5 116,-24.5"/>
<text text-anchor="middle" x="58" y="-12.5" font-family="Helvetica,sans-Serif" font-size="10.00">src/ast/ast_destroy.c</text>
</a>
</g>
</g>
<!-- Node1&#45;&gt;Node2 -->
<g id="edge1" class="edge">
<title>Node1&#45;&gt;Node2</title>
<path fill="none" stroke="#63b8ff" d="M1326.76,-73.71C1104.74,-70.69 361.49,-58.65 125,-30 114.62,-28.74 103.46,-26.69 93.28,-24.55"/>
<polygon fill="#63b8ff" stroke="#63b8ff" points="1326.89,-77.21 1336.94,-73.84 1326.98,-70.21 1326.89,-77.21"/>
</g>
<!-- Node3 -->
<g id="node3" class="node">
<title>Node3</title>
<g id="a_node3"><a xlink:href="builtins_8c.html" target="_top" xlink:title=" ">
<polygon fill="white" stroke="#666666" points="251.5,-24.5 134.5,-24.5 134.5,-5.5 251.5,-5.5 251.5,-24.5"/>
<text text-anchor="middle" x="193" y="-12.5" font-family="Helvetica,sans-Serif" font-size="10.00">src/builtins/builtins.c</text>
</a>
</g>
</g>
<!-- Node1&#45;&gt;Node3 -->
<g id="edge2" class="edge">
<title>Node1&#45;&gt;Node3</title>
<path fill="none" stroke="#63b8ff" d="M1326.73,-73.37C1120.61,-69.47 469.72,-55.43 261,-30 250.47,-28.72 239.15,-26.66 228.82,-24.52"/>
<polygon fill="#63b8ff" stroke="#63b8ff" points="1326.72,-76.87 1336.79,-73.56 1326.85,-69.87 1326.72,-76.87"/>
</g>
<!-- Node4 -->
<g id="node4" class="node">
<title>Node4</title>
<g id="a_node4"><a xlink:href="cd_8c.html" target="_top" xlink:title=" ">
<polygon fill="white" stroke="#666666" points="362,-24.5 270,-24.5 270,-5.5 362,-5.5 362,-24.5"/>
<text text-anchor="middle" x="316" y="-12.5" font-family="Helvetica,sans-Serif" font-size="10.00">src/builtins/cd.c</text>
</a>
</g>
</g>
<!-- Node1&#45;&gt;Node4 -->
<g id="edge3" class="edge">
<title>Node1&#45;&gt;Node4</title>
<path fill="none" stroke="#63b8ff" d="M1326.76,-73.44C1134.18,-69.94 556.78,-57.4 371,-30 362.42,-28.73 353.24,-26.69 344.89,-24.54"/>
<polygon fill="#63b8ff" stroke="#63b8ff" points="1326.94,-76.94 1337,-73.62 1327.06,-69.95 1326.94,-76.94"/>
</g>
<!-- Node5 -->
<g id="node5" class="node">
<title>Node5</title>
<g id="a_node5"><a xlink:href="env_8c.html" target="_top" xlink:title=" ">
<polygon fill="white" stroke="#666666" points="478,-24.5 380,-24.5 380,-5.5 478,-5.5 478,-24.5"/>
<text text-anchor="middle" x="429" y="-12.5" font-family="Helvetica,sans-Serif" font-size="10.00">src/builtins/env.c</text>
</a>
</g>
</g>
<!-- Node1&#45;&gt;Node5 -->
<g id="edge4" class="edge">
<title>Node1&#45;&gt;Node5</title>
<path fill="none" stroke="#63b8ff" d="M1326.5,-72.92C1148.89,-68.26 649.42,-53.39 487,-30 478.08,-28.72 468.52,-26.69 459.79,-24.57"/>
<polygon fill="#63b8ff" stroke="#63b8ff" points="1326.64,-76.43 1336.72,-73.19 1326.82,-69.43 1326.64,-76.43"/>
</g>
<!-- Node6 -->
<g id="node6" class="node">
<title>Node6</title>
<g id="a_node6"><a xlink:href="exit_8c.html" target="_top" xlink:title=" ">
<polygon fill="white" stroke="#666666" points="596,-24.5 496,-24.5 496,-5.5 596,-5.5 596,-24.5"/>
<text text-anchor="middle" x="546" y="-12.5" font-family="Helvetica,sans-Serif" font-size="10.00">src/builtins/exit.c</text>
</a>
</g>
</g>
<!-- Node1&#45;&gt;Node6 -->
<g id="edge5" class="edge">
<title>Node1&#45;&gt;Node6</title>
<path fill="none" stroke="#63b8ff" d="M1326.77,-74.68C1192.89,-74.24 871.25,-68.83 605,-30 595.94,-28.68 586.22,-26.64 577.34,-24.52"/>
<polygon fill="#63b8ff" stroke="#63b8ff" points="1326.84,-78.18 1336.84,-74.71 1326.85,-71.18 1326.84,-78.18"/>
</g>
<!-- Node7 -->
<g id="node7" class="node">
<title>Node7</title>
<g id="a_node7"><a xlink:href="set_8c.html" target="_top" xlink:title=" ">
<polygon fill="white" stroke="#666666" points="710,-24.5 614,-24.5 614,-5.5 710,-5.5 710,-24.5"/>
<text text-anchor="middle" x="662" y="-12.5" font-family="Helvetica,sans-Serif" font-size="10.00">src/builtins/set.c</text>
</a>
</g>
</g>
<!-- Node1&#45;&gt;Node7 -->
<g id="edge6" class="edge">
<title>Node1&#45;&gt;Node7</title>
<path fill="none" stroke="#63b8ff" d="M1326.52,-73.97C1206.94,-72.16 940.41,-64.26 719,-30 710.34,-28.66 701.07,-26.64 692.57,-24.55"/>
<polygon fill="#63b8ff" stroke="#63b8ff" points="1326.54,-77.47 1336.59,-74.11 1326.64,-70.47 1326.54,-77.47"/>
</g>
<!-- Node8 -->
<g id="node8" class="node">
<title>Node8</title>
<g id="a_node8"><a xlink:href="setenv_8c.html" target="_top" xlink:title=" ">
<polygon fill="white" stroke="#666666" points="841.5,-24.5 728.5,-24.5 728.5,-5.5 841.5,-5.5 841.5,-24.5"/>
<text text-anchor="middle" x="785" y="-12.5" font-family="Helvetica,sans-Serif" font-size="10.00">src/builtins/setenv.c</text>
</a>
</g>
</g>
<!-- Node1&#45;&gt;Node8 -->
<g id="edge7" class="edge">
<title>Node1&#45;&gt;Node8</title>
<path fill="none" stroke="#63b8ff" d="M1326.93,-71.89C1225.99,-67.12 1022.1,-55.11 851,-30 841.27,-28.57 830.81,-26.57 821.16,-24.53"/>
<polygon fill="#63b8ff" stroke="#63b8ff" points="1326.81,-75.38 1336.96,-72.35 1327.13,-68.39 1326.81,-75.38"/>
</g>
<!-- Node9 -->
<g id="node9" class="node">
<title>Node9</title>
<g id="a_node9"><a xlink:href="unset_8c.html" target="_top" xlink:title=" ">
<polygon fill="white" stroke="#666666" points="968,-24.5 860,-24.5 860,-5.5 968,-5.5 968,-24.5"/>
<text text-anchor="middle" x="914" y="-12.5" font-family="Helvetica,sans-Serif" font-size="10.00">src/builtins/unset.c</text>
</a>
</g>
</g>
<!-- Node1&#45;&gt;Node9 -->
<g id="edge8" class="edge">
<title>Node1&#45;&gt;Node9</title>
<path fill="none" stroke="#63b8ff" d="M1326.87,-69.9C1245.6,-63.47 1100.18,-50.26 977,-30 967.93,-28.51 958.21,-26.54 949.19,-24.54"/>
<polygon fill="#63b8ff" stroke="#63b8ff" points="1326.7,-73.39 1336.94,-70.68 1327.24,-66.41 1326.7,-73.39"/>
</g>
<!-- Node10 -->
<g id="node10" class="node">
<title>Node10</title>
<g id="a_node10"><a xlink:href="unsetenv_8c.html" target="_top" xlink:title=" ">
<polygon fill="white" stroke="#666666" points="1111.5,-24.5 986.5,-24.5 986.5,-5.5 1111.5,-5.5 1111.5,-24.5"/>
<text text-anchor="middle" x="1049" y="-12.5" font-family="Helvetica,sans-Serif" font-size="10.00">src/builtins/unsetenv.c</text>
</a>
</g>
</g>
<!-- Node1&#45;&gt;Node10 -->
<g id="edge9" class="edge">
<title>Node1&#45;&gt;Node10</title>
<path fill="none" stroke="#63b8ff" d="M1326.98,-64.69C1272.2,-56.02 1190.74,-42.8 1120,-30 1110.6,-28.3 1100.53,-26.38 1091.01,-24.51"/>
<polygon fill="#63b8ff" stroke="#63b8ff" points="1326.47,-68.15 1336.89,-66.25 1327.56,-61.23 1326.47,-68.15"/>
</g>
<!-- Node11 -->
<g id="node11" class="node">
<title>Node11</title>
<g id="a_node11"><a xlink:href="env__to__word__array_8c.html" target="_top" xlink:title=" ">
<polygon fill="white" stroke="#666666" points="1246.5,-30 1129.5,-30 1129.5,0 1246.5,0 1246.5,-30"/>
<text text-anchor="start" x="1137.5" y="-18" font-family="Helvetica,sans-Serif" font-size="10.00">src/env/env_to_word</text>
<text text-anchor="middle" x="1188" y="-7" font-family="Helvetica,sans-Serif" font-size="10.00">_array.c</text>
</a>
</g>
</g>
<!-- Node1&#45;&gt;Node11 -->
<g id="edge10" class="edge">
<title>Node1&#45;&gt;Node11</title>
<path fill="none" stroke="#63b8ff" d="M1350.98,-63.2C1318.34,-53.75 1271.62,-40.22 1236.56,-30.06"/>
<polygon fill="#63b8ff" stroke="#63b8ff" points="1350.05,-66.57 1360.63,-65.99 1352,-59.85 1350.05,-66.57"/>
</g>
<!-- Node12 -->
<g id="node12" class="node">
<title>Node12</title>
<g id="a_node12"><a xlink:href="execute__ast_8c.html" target="_top" xlink:title=" ">
<polygon fill="white" stroke="#666666" points="1381.5,-30 1264.5,-30 1264.5,0 1381.5,0 1381.5,-30"/>
<text text-anchor="start" x="1272.5" y="-18" font-family="Helvetica,sans-Serif" font-size="10.00">src/executer/execute</text>
<text text-anchor="middle" x="1323" y="-7" font-family="Helvetica,sans-Serif" font-size="10.00">_ast.c</text>
</a>
</g>
</g>
<!-- Node1&#45;&gt;Node12 -->
<g id="edge11" class="edge">
<title>Node1&#45;&gt;Node12</title>
<path fill="none" stroke="#63b8ff" d="M1372.52,-59.23C1362.2,-50.23 1349.24,-38.91 1339.17,-30.11"/>
<polygon fill="#63b8ff" stroke="#63b8ff" points="1370.28,-61.93 1380.11,-65.87 1374.88,-56.65 1370.28,-61.93"/>
</g>
<!-- Node13 -->
<g id="node13" class="node">
<title>Node13</title>
<g id="a_node13"><a xlink:href="execute__cmd_8c.html" target="_top" xlink:title=" ">
<polygon fill="white" stroke="#666666" points="1516.5,-30 1399.5,-30 1399.5,0 1516.5,0 1516.5,-30"/>
<text text-anchor="start" x="1407.5" y="-18" font-family="Helvetica,sans-Serif" font-size="10.00">src/executer/execute</text>
<text text-anchor="middle" x="1458" y="-7" font-family="Helvetica,sans-Serif" font-size="10.00">_cmd.c</text>
</a>
</g>
</g>
<!-- Node1&#45;&gt;Node13 -->
<g id="edge12" class="edge">
<title>Node1&#45;&gt;Node13</title>
<path fill="none" stroke="#63b8ff" d="M1407.74,-59.23C1418.21,-50.23 1431.37,-38.91 1441.59,-30.11"/>
<polygon fill="#63b8ff" stroke="#63b8ff" points="1405.33,-56.69 1400.03,-65.87 1409.9,-62 1405.33,-56.69"/>
</g>
<!-- Node14 -->
<g id="node14" class="node">
<title>Node14</title>
<g id="a_node14"><a xlink:href="execute__command__substitution_8c.html" target="_top" xlink:title=" ">
<polygon fill="white" stroke="#666666" points="1677,-30 1535,-30 1535,0 1677,0 1677,-30"/>
<text text-anchor="start" x="1543" y="-18" font-family="Helvetica,sans-Serif" font-size="10.00">src/executer/execute</text>
<text text-anchor="middle" x="1606" y="-7" font-family="Helvetica,sans-Serif" font-size="10.00">_command_substitution.c</text>
</a>
</g>
</g>
<!-- Node1&#45;&gt;Node14 -->
<g id="edge13" class="edge">
<title>Node1&#45;&gt;Node14</title>
<path fill="none" stroke="#63b8ff" d="M1431.28,-63.32C1466.2,-53.86 1516.42,-40.26 1554.07,-30.06"/>
<polygon fill="#63b8ff" stroke="#63b8ff" points="1430.15,-60 1421.41,-65.99 1431.98,-66.76 1430.15,-60"/>
</g>
<!-- Node15 -->
<g id="node15" class="node">
<title>Node15</title>
<g id="a_node15"><a xlink:href="execute__logical__and_8c.html" target="_top" xlink:title=" ">
<polygon fill="white" stroke="#666666" points="1812.5,-30 1695.5,-30 1695.5,0 1812.5,0 1812.5,-30"/>
<text text-anchor="start" x="1703.5" y="-18" font-family="Helvetica,sans-Serif" font-size="10.00">src/executer/execute</text>
<text text-anchor="middle" x="1754" y="-7" font-family="Helvetica,sans-Serif" font-size="10.00">_logical_and.c</text>
</a>
</g>
</g>
<!-- Node1&#45;&gt;Node15 -->
<g id="edge14" class="edge">
<title>Node1&#45;&gt;Node15</title>
<path fill="none" stroke="#63b8ff" d="M1453.16,-66.01C1513.2,-57.7 1605.96,-44.25 1686,-30 1689.09,-29.45 1692.25,-28.87 1695.43,-28.27"/>
<polygon fill="#63b8ff" stroke="#63b8ff" points="1452.5,-62.57 1443.08,-67.4 1453.46,-69.5 1452.5,-62.57"/>
</g>
<!-- Node16 -->
<g id="node16" class="node">
<title>Node16</title>
<g id="a_node16"><a xlink:href="execute__logical__or_8c.html" target="_top" xlink:title=" ">
<polygon fill="white" stroke="#666666" points="1947.5,-30 1830.5,-30 1830.5,0 1947.5,0 1947.5,-30"/>
<text text-anchor="start" x="1838.5" y="-18" font-family="Helvetica,sans-Serif" font-size="10.00">src/executer/execute</text>
<text text-anchor="middle" x="1889" y="-7" font-family="Helvetica,sans-Serif" font-size="10.00">_logical_or.c</text>
</a>
</g>
</g>
<!-- Node1&#45;&gt;Node16 -->
<g id="edge15" class="edge">
<title>Node1&#45;&gt;Node16</title>
<path fill="none" stroke="#63b8ff" d="M1453.29,-70.04C1537.71,-63.62 1691.66,-50.28 1822,-30 1824.7,-29.58 1827.46,-29.12 1830.24,-28.64"/>
<polygon fill="#63b8ff" stroke="#63b8ff" points="1452.81,-66.57 1443.1,-70.81 1453.33,-73.55 1452.81,-66.57"/>
</g>
<!-- Node17 -->
<g id="node17" class="node">
<title>Node17</title>
<g id="a_node17"><a xlink:href="execute__pipe_8c.html" target="_top" xlink:title=" ">
<polygon fill="white" stroke="#666666" points="2082.5,-30 1965.5,-30 1965.5,0 2082.5,0 2082.5,-30"/>
<text text-anchor="start" x="1973.5" y="-18" font-family="Helvetica,sans-Serif" font-size="10.00">src/executer/execute</text>
<text text-anchor="middle" x="2024" y="-7" font-family="Helvetica,sans-Serif" font-size="10.00">_pipe.c</text>
</a>
</g>
</g>
<!-- Node1&#45;&gt;Node17 -->
<g id="edge16" class="edge">
<title>Node1&#45;&gt;Node17</title>
<path fill="none" stroke="#63b8ff" d="M1453.12,-72.18C1558.13,-67.73 1775.14,-56.03 1957,-30 1959.71,-29.61 1962.47,-29.18 1965.25,-28.72"/>
<polygon fill="#63b8ff" stroke="#63b8ff" points="1452.86,-68.69 1443.01,-72.6 1453.15,-75.68 1452.86,-68.69"/>
</g>
<!-- Node18 -->
<g id="node18" class="node">
<title>Node18</title>
<g id="a_node18"><a xlink:href="execute__redirect_8c.html" target="_top" xlink:title=" ">
<polygon fill="white" stroke="#666666" points="2217.5,-30 2100.5,-30 2100.5,0 2217.5,0 2217.5,-30"/>
<text text-anchor="start" x="2108.5" y="-18" font-family="Helvetica,sans-Serif" font-size="10.00">src/executer/execute</text>
<text text-anchor="middle" x="2159" y="-7" font-family="Helvetica,sans-Serif" font-size="10.00">_redirect.c</text>
</a>
</g>
</g>
<!-- Node1&#45;&gt;Node18 -->
<g id="edge17" class="edge">
<title>Node1&#45;&gt;Node18</title>
<path fill="none" stroke="#63b8ff" d="M1453.11,-73.51C1576.42,-70.92 1857.77,-61.73 2092,-30 2094.71,-29.63 2097.47,-29.22 2100.26,-28.77"/>
<polygon fill="#63b8ff" stroke="#63b8ff" points="1453.02,-70.01 1443.09,-73.72 1453.16,-77.01 1453.02,-70.01"/>
</g>
<!-- Node19 -->
<g id="node19" class="node">
<title>Node19</title>
<g id="a_node19"><a xlink:href="execute__subshell_8c.html" target="_top" xlink:title=" ">
<polygon fill="white" stroke="#666666" points="2352.5,-30 2235.5,-30 2235.5,0 2352.5,0 2352.5,-30"/>
<text text-anchor="start" x="2243.5" y="-18" font-family="Helvetica,sans-Serif" font-size="10.00">src/executer/execute</text>
<text text-anchor="middle" x="2294" y="-7" font-family="Helvetica,sans-Serif" font-size="10.00">_subshell.c</text>
</a>
</g>
</g>
<!-- Node1&#45;&gt;Node19 -->
<g id="edge18" class="edge">
<title>Node1&#45;&gt;Node19</title>
<path fill="none" stroke="#63b8ff" d="M1453.26,-74.43C1593.29,-73.55 1939.82,-67.42 2227,-30 2229.71,-29.65 2232.47,-29.24 2235.26,-28.8"/>
<polygon fill="#63b8ff" stroke="#63b8ff" points="1453.12,-70.93 1443.14,-74.48 1453.16,-77.93 1453.12,-70.93"/>
</g>
<!-- Node20 -->
<g id="node20" class="node">
<title>Node20</title>
<g id="a_node20"><a xlink:href="wait__for__subprocess_8c.html" target="_top" xlink:title=" ">
<polygon fill="white" stroke="#666666" points="2489.5,-30 2370.5,-30 2370.5,0 2489.5,0 2489.5,-30"/>
<text text-anchor="start" x="2378.5" y="-18" font-family="Helvetica,sans-Serif" font-size="10.00">src/executer/wait_for</text>
<text text-anchor="middle" x="2430" y="-7" font-family="Helvetica,sans-Serif" font-size="10.00">_subprocess.c</text>
</a>
</g>
</g>
<!-- Node1&#45;&gt;Node20 -->
<g id="edge19" class="edge">
<title>Node1&#45;&gt;Node20</title>
<path fill="none" stroke="#63b8ff" d="M1453.51,-75.04C1609.08,-75.61 2021.38,-72.59 2362,-30 2364.75,-29.66 2367.56,-29.26 2370.38,-28.83"/>
<polygon fill="#63b8ff" stroke="#63b8ff" points="1453.21,-71.54 1443.19,-74.99 1453.18,-78.54 1453.21,-71.54"/>
</g>
<!-- Node21 -->
<g id="node21" class="node">
<title>Node21</title>
<g id="a_node21"><a xlink:href="main_8c.html" target="_top" xlink:title=" ">
<polygon fill="white" stroke="#666666" points="2574.5,-24.5 2507.5,-24.5 2507.5,-5.5 2574.5,-5.5 2574.5,-24.5"/>
<text text-anchor="middle" x="2541" y="-12.5" font-family="Helvetica,sans-Serif" font-size="10.00">src/main.c</text>
</a>
</g>
</g>
<!-- Node1&#45;&gt;Node21 -->
<g id="edge20" class="edge">
<title>Node1&#45;&gt;Node21</title>
<path fill="none" stroke="#63b8ff" d="M1453.3,-74.3C1657.32,-73.27 2296.16,-67.11 2499,-30 2505.65,-28.78 2512.7,-26.75 2519.07,-24.6"/>
<polygon fill="#63b8ff" stroke="#63b8ff" points="1453.04,-70.8 1443.05,-74.34 1453.07,-77.8 1453.04,-70.8"/>
</g>
<!-- Node22 -->
<g id="node22" class="node">
<title>Node22</title>
<g id="a_node22"><a xlink:href="parse__command_8c.html" target="_top" xlink:title=" ">
<polygon fill="white" stroke="#666666" points="2723,-30 2593,-30 2593,0 2723,0 2723,-30"/>
<text text-anchor="start" x="2601" y="-18" font-family="Helvetica,sans-Serif" font-size="10.00">src/parser/tokens/parse</text>
<text text-anchor="middle" x="2658" y="-7" font-family="Helvetica,sans-Serif" font-size="10.00">_command.c</text>
</a>
</g>
</g>
<!-- Node1&#45;&gt;Node22 -->
<g id="edge21" class="edge">
<title>Node1&#45;&gt;Node22</title>
<path fill="none" stroke="#63b8ff" d="M1453.24,-73.39C1667.02,-69.46 2361.79,-55.02 2584,-30 2586.86,-29.68 2589.77,-29.31 2592.71,-28.9"/>
<polygon fill="#63b8ff" stroke="#63b8ff" points="1453.06,-69.9 1443.13,-73.58 1453.19,-76.9 1453.06,-69.9"/>
</g>
<!-- Node23 -->
<g id="node23" class="node">
<title>Node23</title>
<g id="a_node23"><a xlink:href="shell_8c.html" target="_top" xlink:title=" ">
<polygon fill="white" stroke="#666666" points="2806.5,-24.5 2741.5,-24.5 2741.5,-5.5 2806.5,-5.5 2806.5,-24.5"/>
<text text-anchor="middle" x="2774" y="-12.5" font-family="Helvetica,sans-Serif" font-size="10.00">src/shell.c</text>
</a>
</g>
</g>
<!-- Node1&#45;&gt;Node23 -->
<g id="edge22" class="edge">
<title>Node1&#45;&gt;Node23</title>
<path fill="none" stroke="#63b8ff" d="M1453.32,-74.81C1684.41,-75.59 2481.87,-74.86 2732,-30 2738.66,-28.81 2745.7,-26.78 2752.08,-24.63"/>
<polygon fill="#63b8ff" stroke="#63b8ff" points="1453.08,-71.31 1443.07,-74.78 1453.06,-78.31 1453.08,-71.31"/>
</g>
</g>
</svg>
        <g id="navigator" transform="translate(0 0)" fill="#404254">
                <rect fill="#f2f5e9" fill-opacity="0.5" stroke="#606060" stroke-width=".5" x="0" y="0" width="60" height="60"/>
                <use id="zoomplus" xlink:href="#zoomPlus" x="17" y="9" onmousedown="handleZoom(evt,'in')"/>
                <use id="zoomminus" xlink:href="#zoomMin" x="42" y="9" onmousedown="handleZoom(evt,'out')"/>
                <use id="reset" xlink:href="#resetDef" x="30" y="36" onmousedown="handleReset()"/>
                <g id="arrowUp" xlink:href="#dirArrow" transform="translate(30 24)" onmousedown="handlePan(0,-1)">
                  <use xlink:href="#rim" fill="#404040">
                        <set attributeName="fill" to="#808080" begin="arrowUp.mouseover" end="arrowUp.mouseout"/>
                  </use>
                  <path fill="none" stroke="white" stroke-width="1.5" d="M0,-3.0v7 M-2.5,-0.5L0,-3.0L2.5,-0.5"/>
                </g>
                <g id="arrowRight" xlink:href="#dirArrow" transform="rotate(90) translate(36 -43)" onmousedown="handlePan(1,0)">
                  <use xlink:href="#rim" fill="#404040">
                        <set attributeName="fill" to="#808080" begin="arrowRight.mouseover" end="arrowRight.mouseout"/>
                  </use>
                  <path fill="none" stroke="white" stroke-width="1.5" d="M0,-3.0v7 M-2.5,-0.5L0,-3.0L2.5,-0.5"/>
                </g>
                <g id="arrowDown" xlink:href="#dirArrow" transform="rotate(180) translate(-30 -48)" onmousedown="handlePan(0,1)">
                  <use xlink:href="#rim" fill="#404040">
                        <set attributeName="fill" to="#808080" begin="arrowDown.mouseover" end="arrowDown.mouseout"/>
                  </use>
                  <path fill="none" stroke="white" stroke-width="1.5" d="M0,-3.0v7 M-2.5,-0.5L0,-3.0L2.5,-0.5"/>
                </g>
                <g id="arrowLeft" xlink:href="#dirArrow" transform="rotate(270) translate(-36 17)" onmousedown="handlePan(-1,0)">
                  <use xlink:href="#rim" fill="#404040">
                        <set attributeName="fill" to="#808080" begin="arrowLeft.mouseover" end="arrowLeft.mouseout"/>
                  </use>
                  <path fill="none" stroke="white" stroke-width="1.5" d="M0,-3.0v7 M-2.5,-0.5L0,-3.0L2.5,-0.5"/>
                </g>
        </g>
        <svg viewBox="0 0 15 15" width="100%" height="30px" preserveAspectRatio="xMaxYMin meet">
         <g id="arrow_out" transform="scale(0.3 0.3)">
          <a xlink:href="misc_8h__dep__incl_org.svg" target="_base">
           <rect id="button" ry="5" rx="5" y="6" x="6" height="38" width="38"
                fill="#f2f5e9" fill-opacity="0.5" stroke="#606060" stroke-width="1.0"/>
           <path id="arrow"
             d="M 11.500037,31.436501 C 11.940474,20.09759 22.043105,11.32322 32.158766,21.979434 L 37.068811,17.246167 C 37.068811,17.246167 37.088388,32 37.088388,32 L 22.160133,31.978069 C 22.160133,31.978069 26.997745,27.140456 26.997745,27.140456 C 18.528582,18.264221 13.291696,25.230495 11.500037,31.436501 z"
             style="fill:#404040;"/>
          </a>
         </g>
        </svg>
</svg>
