<?xml version="1.0" encoding="UTF-8" standalone="no"?>
<!DOCTYPE svg PUBLIC "-//W3C//DTD SVG 1.1//EN"
 "http://www.w3.org/Graphics/SVG/1.1/DTD/svg11.dtd">
<!-- Generated by graphviz version 2.43.0 (0)
 -->
<!-- Title: apply_redirects Pages: 1 -->
<svg width="236pt" height="101pt"
 viewBox="0.00 0.00 236.00 101.00" xmlns="http://www.w3.org/2000/svg" xmlns:xlink="http://www.w3.org/1999/xlink">
<g id="graph0" class="graph" transform="scale(1 1) rotate(0) translate(4 97)">
<title>apply_redirects</title>
<!-- Node1 -->
<g id="node1" class="node">
<title>Node1</title>
<g id="a_node1"><a xlink:title=" ">
<polygon fill="#999999" stroke="#666666" points="92,-56 0,-56 0,-37 92,-37 92,-56"/>
<text text-anchor="middle" x="46" y="-44" font-family="Helvetica,sans-Serif" font-size="10.00">apply_redirects</text>
</a>
</g>
</g>
<!-- Node2 -->
<g id="node2" class="node">
<title>Node2</title>
<g id="a_node2"><a xlink:href="ast__new__redirect_8c.html#aae99986c9d10db89d56c310f77b3490d" target="_top" xlink:title=" ">
<polygon fill="white" stroke="#666666" points="228,-93 128,-93 128,-74 228,-74 228,-93"/>
<text text-anchor="middle" x="178" y="-81" font-family="Helvetica,sans-Serif" font-size="10.00">ast_new_redirect</text>
</a>
</g>
</g>
<!-- Node1&#45;&gt;Node2 -->
<g id="edge1" class="edge">
<title>Node1&#45;&gt;Node2</title>
<path fill="none" stroke="#63b8ff" d="M80.48,-56.03C96.58,-60.61 116.08,-66.16 133.33,-71.07"/>
<polygon fill="#63b8ff" stroke="#63b8ff" points="132.61,-74.5 143.18,-73.88 134.52,-67.77 132.61,-74.5"/>
</g>
<!-- Node3 -->
<g id="node3" class="node">
<title>Node3</title>
<g id="a_node3"><a xlink:href="parse__command_8c.html#a7dbef10d59c414dc5337f293697588b4" target="_top" xlink:title=" ">
<polygon fill="white" stroke="#666666" points="223.5,-56 132.5,-56 132.5,-37 223.5,-37 223.5,-56"/>
<text text-anchor="middle" x="178" y="-44" font-family="Helvetica,sans-Serif" font-size="10.00">free_redir_data</text>
</a>
</g>
</g>
<!-- Node1&#45;&gt;Node3 -->
<g id="edge2" class="edge">
<title>Node1&#45;&gt;Node3</title>
<path fill="none" stroke="#63b8ff" d="M92.1,-46.5C101.79,-46.5 112.13,-46.5 122.14,-46.5"/>
<polygon fill="#63b8ff" stroke="#63b8ff" points="122.42,-50 132.42,-46.5 122.42,-43 122.42,-50"/>
</g>
<!-- Node4 -->
<g id="node4" class="node">
<title>Node4</title>
<g id="a_node4"><a xlink:href="list_8h.html#a68908a98f87b64d0b0fa9ac090a70cad" target="_top" xlink:title=" ">
<polygon fill="white" stroke="#666666" points="216.5,-19 139.5,-19 139.5,0 216.5,0 216.5,-19"/>
<text text-anchor="middle" x="178" y="-7" font-family="Helvetica,sans-Serif" font-size="10.00">my_free_list</text>
</a>
</g>
</g>
<!-- Node1&#45;&gt;Node4 -->
<g id="edge3" class="edge">
<title>Node1&#45;&gt;Node4</title>
<path fill="none" stroke="#63b8ff" d="M80.48,-36.97C96.58,-32.39 116.08,-26.84 133.33,-21.93"/>
<polygon fill="#63b8ff" stroke="#63b8ff" points="134.52,-25.23 143.18,-19.12 132.61,-18.5 134.52,-25.23"/>
</g>
</g>
</svg>
