<?xml version="1.0" encoding="UTF-8" standalone="no"?>
<!DOCTYPE svg PUBLIC "-//W3C//DTD SVG 1.1//EN"
 "http://www.w3.org/Graphics/SVG/1.1/DTD/svg11.dtd">
<!-- Generated by graphviz version 2.43.0 (0)
 -->
<!-- Title: src/parser/parser_destroy.c Pages: 1 -->
<svg width="318pt" height="302pt"
 viewBox="0.00 0.00 318.00 302.00" xmlns="http://www.w3.org/2000/svg" xmlns:xlink="http://www.w3.org/1999/xlink">
<g id="graph0" class="graph" transform="scale(1 1) rotate(0) translate(4 298)">
<title>src/parser/parser_destroy.c</title>
<!-- Node1 -->
<g id="node1" class="node">
<title>Node1</title>
<g id="a_node1"><a xlink:title=" ">
<polygon fill="#999999" stroke="#666666" points="310,-294 163,-294 163,-275 310,-275 310,-294"/>
<text text-anchor="middle" x="236.5" y="-282" font-family="Helvetica,sans-Serif" font-size="10.00">src/parser/parser_destroy.c</text>
</a>
</g>
</g>
<!-- Node2 -->
<g id="node2" class="node">
<title>Node2</title>
<g id="a_node2"><a xlink:href="parser_8h.html" target="_top" xlink:title=" ">
<polygon fill="white" stroke="#666666" points="236.5,-239 180.5,-239 180.5,-220 236.5,-220 236.5,-239"/>
<text text-anchor="middle" x="208.5" y="-227" font-family="Helvetica,sans-Serif" font-size="10.00">parser.h</text>
</a>
</g>
</g>
<!-- Node1&#45;&gt;Node2 -->
<g id="edge1" class="edge">
<title>Node1&#45;&gt;Node2</title>
<path fill="none" stroke="#63b8ff" d="M231.88,-274.75C228.04,-267.49 222.48,-256.95 217.74,-247.98"/>
<polygon fill="#63b8ff" stroke="#63b8ff" points="220.8,-246.3 213.04,-239.09 214.61,-249.57 220.8,-246.3"/>
</g>
<!-- Node9 -->
<g id="node9" class="node">
<title>Node9</title>
<g id="a_node9"><a xlink:href="token_8h.html" target="_top" xlink:title=" ">
<polygon fill="white" stroke="#666666" points="308,-129 255,-129 255,-110 308,-110 308,-129"/>
<text text-anchor="middle" x="281.5" y="-117" font-family="Helvetica,sans-Serif" font-size="10.00">token.h</text>
</a>
</g>
</g>
<!-- Node1&#45;&gt;Node9 -->
<g id="edge12" class="edge">
<title>Node1&#45;&gt;Node9</title>
<path fill="none" stroke="#63b8ff" d="M238.92,-274.74C245.97,-249.2 266.61,-174.43 276.33,-139.23"/>
<polygon fill="#63b8ff" stroke="#63b8ff" points="279.78,-139.88 279.07,-129.31 273.03,-138.01 279.78,-139.88"/>
</g>
<!-- Node3 -->
<g id="node3" class="node">
<title>Node3</title>
<g id="a_node3"><a xlink:href="ast_8h.html" target="_top" xlink:title=" ">
<polygon fill="white" stroke="#666666" points="41,-74 0,-74 0,-55 41,-55 41,-74"/>
<text text-anchor="middle" x="20.5" y="-62" font-family="Helvetica,sans-Serif" font-size="10.00">ast.h</text>
</a>
</g>
</g>
<!-- Node2&#45;&gt;Node3 -->
<g id="edge2" class="edge">
<title>Node2&#45;&gt;Node3</title>
<path fill="none" stroke="#63b8ff" d="M194.79,-219.83C169.61,-203.59 114.9,-166.82 74.5,-129 59.05,-114.54 43.63,-95.87 33.25,-82.53"/>
<polygon fill="#63b8ff" stroke="#63b8ff" points="35.78,-80.08 26.92,-74.26 30.22,-84.33 35.78,-80.08"/>
</g>
<!-- Node5 -->
<g id="node5" class="node">
<title>Node5</title>
<g id="a_node5"><a xlink:href="lexer_8h.html" target="_top" xlink:title=" ">
<polygon fill="white" stroke="#666666" points="215,-184 166,-184 166,-165 215,-165 215,-184"/>
<text text-anchor="middle" x="190.5" y="-172" font-family="Helvetica,sans-Serif" font-size="10.00">lexer.h</text>
</a>
</g>
</g>
<!-- Node2&#45;&gt;Node5 -->
<g id="edge4" class="edge">
<title>Node2&#45;&gt;Node5</title>
<path fill="none" stroke="#63b8ff" d="M205.53,-219.75C203.14,-212.72 199.71,-202.62 196.73,-193.84"/>
<polygon fill="#63b8ff" stroke="#63b8ff" points="199.95,-192.43 193.42,-184.09 193.32,-194.68 199.95,-192.43"/>
</g>
<!-- Node2&#45;&gt;Node9 -->
<g id="edge11" class="edge">
<title>Node2&#45;&gt;Node9</title>
<path fill="none" stroke="#63b8ff" d="M214.47,-219.66C226.56,-201.77 254.12,-161 269.88,-137.69"/>
<polygon fill="#63b8ff" stroke="#63b8ff" points="272.95,-139.4 275.65,-129.16 267.15,-135.48 272.95,-139.4"/>
</g>
<!-- Node4 -->
<g id="node4" class="node">
<title>Node4</title>
<g id="a_node4"><a xlink:title=" ">
<polygon fill="#e0e0e0" stroke="#999999" points="97.5,-19 41.5,-19 41.5,0 97.5,0 97.5,-19"/>
<text text-anchor="middle" x="69.5" y="-7" font-family="Helvetica,sans-Serif" font-size="10.00">stddef.h</text>
</a>
</g>
</g>
<!-- Node3&#45;&gt;Node4 -->
<g id="edge3" class="edge">
<title>Node3&#45;&gt;Node4</title>
<path fill="none" stroke="#63b8ff" d="M28.59,-54.75C35.66,-47.11 46.09,-35.82 54.65,-26.56"/>
<polygon fill="#63b8ff" stroke="#63b8ff" points="57.34,-28.81 61.56,-19.09 52.2,-24.06 57.34,-28.81"/>
</g>
<!-- Node5&#45;&gt;Node4 -->
<g id="edge5" class="edge">
<title>Node5&#45;&gt;Node4</title>
<path fill="none" stroke="#63b8ff" d="M165.77,-169.63C142.11,-164.57 107.32,-153.28 88.5,-129 65.92,-99.86 65.48,-54.41 67.36,-29.1"/>
<polygon fill="#63b8ff" stroke="#63b8ff" points="70.85,-29.31 68.31,-19.02 63.88,-28.65 70.85,-29.31"/>
</g>
<!-- Node6 -->
<g id="node6" class="node">
<title>Node6</title>
<g id="a_node6"><a xlink:title=" ">
<polygon fill="#e0e0e0" stroke="#999999" points="169.5,-129 97.5,-129 97.5,-110 169.5,-110 169.5,-129"/>
<text text-anchor="middle" x="133.5" y="-117" font-family="Helvetica,sans-Serif" font-size="10.00">sys/types.h</text>
</a>
</g>
</g>
<!-- Node5&#45;&gt;Node6 -->
<g id="edge6" class="edge">
<title>Node5&#45;&gt;Node6</title>
<path fill="none" stroke="#63b8ff" d="M181.34,-164.98C173,-157.23 160.47,-145.58 150.32,-136.14"/>
<polygon fill="#63b8ff" stroke="#63b8ff" points="152.53,-133.42 142.82,-129.17 147.76,-138.54 152.53,-133.42"/>
</g>
<!-- Node7 -->
<g id="node7" class="node">
<title>Node7</title>
<g id="a_node7"><a xlink:href="shell_8h.html" target="_top" xlink:title=" ">
<polygon fill="white" stroke="#666666" points="237,-129 188,-129 188,-110 237,-110 237,-129"/>
<text text-anchor="middle" x="212.5" y="-117" font-family="Helvetica,sans-Serif" font-size="10.00">shell.h</text>
</a>
</g>
</g>
<!-- Node5&#45;&gt;Node7 -->
<g id="edge7" class="edge">
<title>Node5&#45;&gt;Node7</title>
<path fill="none" stroke="#63b8ff" d="M194.13,-164.75C197.08,-157.65 201.33,-147.4 205.01,-138.56"/>
<polygon fill="#63b8ff" stroke="#63b8ff" points="208.33,-139.67 208.93,-129.09 201.87,-136.98 208.33,-139.67"/>
</g>
<!-- Node5&#45;&gt;Node9 -->
<g id="edge10" class="edge">
<title>Node5&#45;&gt;Node9</title>
<path fill="none" stroke="#63b8ff" d="M205.12,-164.98C219.36,-156.69 241.25,-143.94 257.95,-134.22"/>
<polygon fill="#63b8ff" stroke="#63b8ff" points="259.73,-137.23 266.61,-129.17 256.21,-131.18 259.73,-137.23"/>
</g>
<!-- Node8 -->
<g id="node8" class="node">
<title>Node8</title>
<g id="a_node8"><a xlink:href="list_8h.html" target="_top" xlink:title=" ">
<polygon fill="white" stroke="#666666" points="199,-74 140,-74 140,-55 199,-55 199,-74"/>
<text text-anchor="middle" x="169.5" y="-62" font-family="Helvetica,sans-Serif" font-size="10.00">my/list.h</text>
</a>
</g>
</g>
<!-- Node7&#45;&gt;Node8 -->
<g id="edge8" class="edge">
<title>Node7&#45;&gt;Node8</title>
<path fill="none" stroke="#63b8ff" d="M205.4,-109.75C199.33,-102.26 190.41,-91.28 182.99,-82.13"/>
<polygon fill="#63b8ff" stroke="#63b8ff" points="185.49,-79.65 176.47,-74.09 180.05,-84.06 185.49,-79.65"/>
</g>
<!-- Node8&#45;&gt;Node4 -->
<g id="edge9" class="edge">
<title>Node8&#45;&gt;Node4</title>
<path fill="none" stroke="#63b8ff" d="M153.43,-54.98C137.64,-46.61 113.28,-33.7 94.87,-23.95"/>
<polygon fill="#63b8ff" stroke="#63b8ff" points="96.33,-20.76 85.86,-19.17 93.06,-26.95 96.33,-20.76"/>
</g>
</g>
</svg>
