<?xml version="1.0" encoding="UTF-8" standalone="no"?>
<!DOCTYPE svg PUBLIC "-//W3C//DTD SVG 1.1//EN"
 "http://www.w3.org/Graphics/SVG/1.1/DTD/svg11.dtd">
<!-- Generated by graphviz version 2.43.0 (0)
 -->
<!-- Title: parser_next Pages: 1 -->
<svg width="1226pt" height="736pt"
 viewBox="0.00 0.00 1226.00 736.12" xmlns="http://www.w3.org/2000/svg" xmlns:xlink="http://www.w3.org/1999/xlink">
<g id="graph0" class="graph" transform="scale(1 1) rotate(0) translate(4 732.12)">
<title>parser_next</title>
<!-- Node1 -->
<g id="node1" class="node">
<title>Node1</title>
<g id="a_node1"><a xlink:title=" ">
<polygon fill="#999999" stroke="#666666" points="74,-429.12 0,-429.12 0,-410.12 74,-410.12 74,-429.12"/>
<text text-anchor="middle" x="37" y="-417.12" font-family="Helvetica,sans-Serif" font-size="10.00">parser_next</text>
</a>
</g>
</g>
<!-- Node2 -->
<g id="node2" class="node">
<title>Node2</title>
<g id="a_node2"><a xlink:href="lexer__next__token_8c.html#a3def5432329709fb4df861d90672c510" target="_top" xlink:title=" ">
<polygon fill="white" stroke="#666666" points="210,-448.12 110,-448.12 110,-429.12 210,-429.12 210,-448.12"/>
<text text-anchor="middle" x="160" y="-436.12" font-family="Helvetica,sans-Serif" font-size="10.00">lexer_next_token</text>
</a>
</g>
</g>
<!-- Node1&#45;&gt;Node2 -->
<g id="edge1" class="edge">
<title>Node1&#45;&gt;Node2</title>
<path fill="none" stroke="#63b8ff" d="M74.3,-425.32C82.31,-426.58 90.99,-427.94 99.64,-429.3"/>
<polygon fill="#63b8ff" stroke="#63b8ff" points="99.32,-432.79 109.74,-430.88 100.41,-425.88 99.32,-432.79"/>
</g>
<!-- Node40 -->
<g id="node40" class="node">
<title>Node40</title>
<g id="a_node40"><a xlink:href="destroy__token_8c.html#ad1a471ee7b1ccb035d769be1152a370c" target="_top" xlink:title=" ">
<polygon fill="white" stroke="#666666" points="203,-411.12 117,-411.12 117,-392.12 203,-392.12 203,-411.12"/>
<text text-anchor="middle" x="160" y="-399.12" font-family="Helvetica,sans-Serif" font-size="10.00">token_destroy</text>
</a>
</g>
</g>
<!-- Node1&#45;&gt;Node40 -->
<g id="edge60" class="edge">
<title>Node1&#45;&gt;Node40</title>
<path fill="none" stroke="#63b8ff" d="M74.3,-414.22C84.54,-412.7 95.88,-411.01 106.84,-409.38"/>
<polygon fill="#63b8ff" stroke="#63b8ff" points="107.39,-412.84 116.77,-407.9 106.36,-405.91 107.39,-412.84"/>
</g>
<!-- Node3 -->
<g id="node3" class="node">
<title>Node3</title>
<g id="a_node3"><a xlink:href="create__token_8c.html#a15bcfc92177012893c626ce7d2d6bb6b" target="_top" xlink:title=" ">
<polygon fill="white" stroke="#666666" points="682,-509.12 602,-509.12 602,-490.12 682,-490.12 682,-509.12"/>
<text text-anchor="middle" x="642" y="-497.12" font-family="Helvetica,sans-Serif" font-size="10.00">create_token</text>
</a>
</g>
</g>
<!-- Node2&#45;&gt;Node3 -->
<g id="edge2" class="edge">
<title>Node2&#45;&gt;Node3</title>
<path fill="none" stroke="#63b8ff" d="M164.73,-448.34C174.41,-472.31 202.65,-534.75 246,-568.62 305.7,-615.26 332.3,-612 407,-624.62 461.78,-633.87 481.43,-647.62 532,-624.62 580.3,-602.65 615.54,-547.54 631.5,-518.39"/>
<polygon fill="#63b8ff" stroke="#63b8ff" points="634.75,-519.73 636.33,-509.25 628.56,-516.46 634.75,-519.73"/>
</g>
<!-- Node4 -->
<g id="node4" class="node">
<title>Node4</title>
<g id="a_node4"><a xlink:href="lexer__next__token_8c.html#add2e1acaa9518ecf20b6670ad91a5c65" target="_top" xlink:title=" ">
<polygon fill="white" stroke="#666666" points="359.5,-559.12 257.5,-559.12 257.5,-540.12 359.5,-540.12 359.5,-559.12"/>
<text text-anchor="middle" x="308.5" y="-547.12" font-family="Helvetica,sans-Serif" font-size="10.00">get_logical_token</text>
</a>
</g>
</g>
<!-- Node2&#45;&gt;Node4 -->
<g id="edge3" class="edge">
<title>Node2&#45;&gt;Node4</title>
<path fill="none" stroke="#63b8ff" d="M173.74,-448.28C198.96,-467.38 255.45,-510.18 286.34,-533.58"/>
<polygon fill="#63b8ff" stroke="#63b8ff" points="284.6,-536.66 294.68,-539.91 288.82,-531.08 284.6,-536.66"/>
</g>
<!-- Node8 -->
<g id="node8" class="node">
<title>Node8</title>
<g id="a_node8"><a xlink:href="lexer__next__token_8c.html#abcee8a7ba5ea6ca80c0bd7e3dd8d9a32" target="_top" xlink:title=" ">
<polygon fill="white" stroke="#666666" points="369.5,-448.12 247.5,-448.12 247.5,-429.12 369.5,-429.12 369.5,-448.12"/>
<text text-anchor="middle" x="308.5" y="-436.12" font-family="Helvetica,sans-Serif" font-size="10.00">get_redirection_token</text>
</a>
</g>
</g>
<!-- Node2&#45;&gt;Node8 -->
<g id="edge10" class="edge">
<title>Node2&#45;&gt;Node8</title>
<path fill="none" stroke="#63b8ff" d="M210.19,-438.62C218.83,-438.62 227.96,-438.62 237.05,-438.62"/>
<polygon fill="#63b8ff" stroke="#63b8ff" points="237.24,-442.12 247.24,-438.62 237.24,-435.12 237.24,-442.12"/>
</g>
<!-- Node13 -->
<g id="node13" class="node">
<title>Node13</title>
<g id="a_node13"><a xlink:href="lexer__newline_8c.html#a9f60bf18297b9c705fa6cdff027c79fc" target="_top" xlink:title=" ">
<polygon fill="white" stroke="#666666" points="350.5,-401.12 266.5,-401.12 266.5,-382.12 350.5,-382.12 350.5,-401.12"/>
<text text-anchor="middle" x="308.5" y="-389.12" font-family="Helvetica,sans-Serif" font-size="10.00">lexer_newline</text>
</a>
</g>
</g>
<!-- Node2&#45;&gt;Node13 -->
<g id="edge19" class="edge">
<title>Node2&#45;&gt;Node13</title>
<path fill="none" stroke="#63b8ff" d="M190.65,-429.11C212.91,-421.96 243.63,-412.11 267.98,-404.3"/>
<polygon fill="#63b8ff" stroke="#63b8ff" points="269.19,-407.58 277.65,-401.2 267.06,-400.92 269.19,-407.58"/>
</g>
<!-- Node14 -->
<g id="node14" class="node">
<title>Node14</title>
<g id="a_node14"><a xlink:href="lexer__parenthesis_8c.html#a2b13eaa0fee255bea85bd4279f369795" target="_top" xlink:title=" ">
<polygon fill="white" stroke="#666666" points="360,-728.12 257,-728.12 257,-709.12 360,-709.12 360,-728.12"/>
<text text-anchor="middle" x="308.5" y="-716.12" font-family="Helvetica,sans-Serif" font-size="10.00">lexer_parenthesis</text>
</a>
</g>
</g>
<!-- Node2&#45;&gt;Node14 -->
<g id="edge21" class="edge">
<title>Node2&#45;&gt;Node14</title>
<path fill="none" stroke="#63b8ff" d="M161.09,-448.36C162,-486.51 170.54,-627.31 246,-700.62 247.1,-701.68 248.25,-702.69 249.46,-703.63"/>
<polygon fill="#63b8ff" stroke="#63b8ff" points="247.72,-706.67 258.05,-709.05 251.46,-700.75 247.72,-706.67"/>
</g>
<!-- Node15 -->
<g id="node15" class="node">
<title>Node15</title>
<g id="a_node15"><a xlink:href="lexer__semicolon_8c.html#a1612109b245d9780427946e4e33b01b7" target="_top" xlink:title=" ">
<polygon fill="white" stroke="#666666" points="356.5,-691.12 260.5,-691.12 260.5,-672.12 356.5,-672.12 356.5,-691.12"/>
<text text-anchor="middle" x="308.5" y="-679.12" font-family="Helvetica,sans-Serif" font-size="10.00">lexer_semicolon</text>
</a>
</g>
</g>
<!-- Node2&#45;&gt;Node15 -->
<g id="edge23" class="edge">
<title>Node2&#45;&gt;Node15</title>
<path fill="none" stroke="#63b8ff" d="M162.02,-448.42C166.04,-482.23 183.77,-595.27 246,-657.62 249.9,-661.52 254.5,-664.81 259.41,-667.57"/>
<polygon fill="#63b8ff" stroke="#63b8ff" points="257.97,-670.76 268.49,-671.99 261.03,-664.46 257.97,-670.76"/>
</g>
<!-- Node16 -->
<g id="node16" class="node">
<title>Node16</title>
<g id="a_node16"><a xlink:href="lexer__word_8c.html#ac2600a9ba16009c4d8c114a118c54955" target="_top" xlink:title=" ">
<polygon fill="white" stroke="#666666" points="343.5,-345.12 273.5,-345.12 273.5,-326.12 343.5,-326.12 343.5,-345.12"/>
<text text-anchor="middle" x="308.5" y="-333.12" font-family="Helvetica,sans-Serif" font-size="10.00">lexer_word</text>
</a>
</g>
</g>
<!-- Node2&#45;&gt;Node16 -->
<g id="edge25" class="edge">
<title>Node2&#45;&gt;Node16</title>
<path fill="none" stroke="#63b8ff" d="M194.97,-429.01C200.27,-426.72 205.48,-423.95 210,-420.62 231.19,-405.02 226.49,-391.27 246,-373.62 255.96,-364.61 268.34,-356.49 279.38,-350.09"/>
<polygon fill="#63b8ff" stroke="#63b8ff" points="281.23,-353.07 288.25,-345.14 277.82,-346.96 281.23,-353.07"/>
</g>
<!-- Node38 -->
<g id="node38" class="node">
<title>Node38</title>
<g id="a_node38"><a xlink:href="lexer__next__token_8c.html#a7f0a2dd2373821667a4d5381e7711aa0" target="_top" xlink:title=" ">
<polygon fill="white" stroke="#666666" points="353,-308.12 264,-308.12 264,-289.12 353,-289.12 353,-308.12"/>
<text text-anchor="middle" x="308.5" y="-296.12" font-family="Helvetica,sans-Serif" font-size="10.00">skip_comment</text>
</a>
</g>
</g>
<!-- Node2&#45;&gt;Node38 -->
<g id="edge58" class="edge">
<title>Node2&#45;&gt;Node38</title>
<path fill="none" stroke="#63b8ff" d="M198.47,-428.95C202.72,-426.72 206.7,-423.98 210,-420.62 244.26,-385.71 210.58,-350.36 246,-316.62 248.62,-314.13 251.56,-311.98 254.7,-310.12"/>
<polygon fill="#63b8ff" stroke="#63b8ff" points="256.51,-313.14 263.99,-305.64 253.47,-306.83 256.51,-313.14"/>
</g>
<!-- Node39 -->
<g id="node39" class="node">
<title>Node39</title>
<g id="a_node39"><a xlink:href="lexer__next__token_8c.html#a5b2052471d98cef2998e1367f9bf8f6d" target="_top" xlink:title=" ">
<polygon fill="white" stroke="#666666" points="371,-271.12 246,-271.12 246,-252.12 371,-252.12 371,-271.12"/>
<text text-anchor="middle" x="308.5" y="-259.12" font-family="Helvetica,sans-Serif" font-size="10.00">skip_spaces_and_tabs</text>
</a>
</g>
</g>
<!-- Node2&#45;&gt;Node39 -->
<g id="edge59" class="edge">
<title>Node2&#45;&gt;Node39</title>
<path fill="none" stroke="#63b8ff" d="M199.22,-428.94C203.24,-426.72 206.96,-423.98 210,-420.62 253.34,-372.61 201.07,-326.14 246,-279.62 246.93,-278.65 247.92,-277.73 248.94,-276.87"/>
<polygon fill="#63b8ff" stroke="#63b8ff" points="251.16,-279.59 257.52,-271.12 247.27,-273.78 251.16,-279.59"/>
</g>
<!-- Node5 -->
<g id="node5" class="node">
<title>Node5</title>
<g id="a_node5"><a xlink:href="lexer__logical__and_8c.html#a59e5031d54357d65c6873edc67de2a47" target="_top" xlink:title=" ">
<polygon fill="white" stroke="#666666" points="520,-578.12 419,-578.12 419,-559.12 520,-559.12 520,-578.12"/>
<text text-anchor="middle" x="469.5" y="-566.12" font-family="Helvetica,sans-Serif" font-size="10.00">lexer_logical_and</text>
</a>
</g>
</g>
<!-- Node4&#45;&gt;Node5 -->
<g id="edge4" class="edge">
<title>Node4&#45;&gt;Node5</title>
<path fill="none" stroke="#63b8ff" d="M359.81,-555.63C375.26,-557.48 392.41,-559.53 408.45,-561.44"/>
<polygon fill="#63b8ff" stroke="#63b8ff" points="408.45,-564.97 418.79,-562.68 409.28,-558.02 408.45,-564.97"/>
</g>
<!-- Node6 -->
<g id="node6" class="node">
<title>Node6</title>
<g id="a_node6"><a xlink:href="lexer__logical__or_8c.html#ac3851eaea27bd5774b126b888bdddf93" target="_top" xlink:title=" ">
<polygon fill="white" stroke="#666666" points="516,-541.12 423,-541.12 423,-522.12 516,-522.12 516,-541.12"/>
<text text-anchor="middle" x="469.5" y="-529.12" font-family="Helvetica,sans-Serif" font-size="10.00">lexer_logical_or</text>
</a>
</g>
</g>
<!-- Node4&#45;&gt;Node6 -->
<g id="edge6" class="edge">
<title>Node4&#45;&gt;Node6</title>
<path fill="none" stroke="#63b8ff" d="M359.81,-543.92C376.69,-542.01 395.62,-539.87 412.88,-537.92"/>
<polygon fill="#63b8ff" stroke="#63b8ff" points="413.29,-541.39 422.83,-536.79 412.5,-534.44 413.29,-541.39"/>
</g>
<!-- Node7 -->
<g id="node7" class="node">
<title>Node7</title>
<g id="a_node7"><a xlink:href="lexer__pipe_8c.html#a693816e38802a086de64c09cb7cebeb7" target="_top" xlink:title=" ">
<polygon fill="white" stroke="#666666" points="503,-615.12 436,-615.12 436,-596.12 503,-596.12 503,-615.12"/>
<text text-anchor="middle" x="469.5" y="-603.12" font-family="Helvetica,sans-Serif" font-size="10.00">lexer_pipe</text>
</a>
</g>
</g>
<!-- Node4&#45;&gt;Node7 -->
<g id="edge8" class="edge">
<title>Node4&#45;&gt;Node7</title>
<path fill="none" stroke="#63b8ff" d="M332.54,-559.25C352.16,-567.3 381.2,-578.84 407,-587.62 413.08,-589.69 419.55,-591.74 425.92,-593.68"/>
<polygon fill="#63b8ff" stroke="#63b8ff" points="425.2,-597.12 435.78,-596.61 427.19,-590.41 425.2,-597.12"/>
</g>
<!-- Node5&#45;&gt;Node3 -->
<g id="edge5" class="edge">
<title>Node5&#45;&gt;Node3</title>
<path fill="none" stroke="#63b8ff" d="M506.58,-559.06C515,-556.55 523.88,-553.69 532,-550.62 560.6,-539.81 592.12,-524.7 613.88,-513.73"/>
<polygon fill="#63b8ff" stroke="#63b8ff" points="615.53,-516.81 622.85,-509.16 612.36,-510.58 615.53,-516.81"/>
</g>
<!-- Node6&#45;&gt;Node3 -->
<g id="edge7" class="edge">
<title>Node6&#45;&gt;Node3</title>
<path fill="none" stroke="#63b8ff" d="M516.19,-523.04C539.58,-518.65 568.08,-513.31 591.93,-508.83"/>
<polygon fill="#63b8ff" stroke="#63b8ff" points="592.66,-512.25 601.84,-506.97 591.37,-505.37 592.66,-512.25"/>
</g>
<!-- Node7&#45;&gt;Node3 -->
<g id="edge9" class="edge">
<title>Node7&#45;&gt;Node3</title>
<path fill="none" stroke="#63b8ff" d="M503.03,-598.67C512.67,-595.94 523.03,-592.31 532,-587.62 568.53,-568.51 604.47,-536.13 624.59,-516.43"/>
<polygon fill="#63b8ff" stroke="#63b8ff" points="627.11,-518.85 631.73,-509.31 622.17,-513.89 627.11,-518.85"/>
</g>
<!-- Node9 -->
<g id="node9" class="node">
<title>Node9</title>
<g id="a_node9"><a xlink:href="lexer__heredoc_8c.html#a9db043b0e8df9ad1155a65a8fcf67c11" target="_top" xlink:title=" ">
<polygon fill="white" stroke="#666666" points="512,-504.12 427,-504.12 427,-485.12 512,-485.12 512,-504.12"/>
<text text-anchor="middle" x="469.5" y="-492.12" font-family="Helvetica,sans-Serif" font-size="10.00">lexer_heredoc</text>
</a>
</g>
</g>
<!-- Node8&#45;&gt;Node9 -->
<g id="edge11" class="edge">
<title>Node8&#45;&gt;Node9</title>
<path fill="none" stroke="#63b8ff" d="M332.54,-448.25C352.16,-456.3 381.2,-467.84 407,-476.62 412.53,-478.5 418.38,-480.37 424.19,-482.15"/>
<polygon fill="#63b8ff" stroke="#63b8ff" points="423.27,-485.53 433.86,-485.05 425.28,-478.83 423.27,-485.53"/>
</g>
<!-- Node10 -->
<g id="node10" class="node">
<title>Node10</title>
<g id="a_node10"><a xlink:href="lexer__redirect__append_8c.html#a09beefbfaf132dbe04add1370a6fb2e3" target="_top" xlink:title=" ">
<polygon fill="white" stroke="#666666" points="532,-467.12 407,-467.12 407,-448.12 532,-448.12 532,-467.12"/>
<text text-anchor="middle" x="469.5" y="-455.12" font-family="Helvetica,sans-Serif" font-size="10.00">lexer_redirect_append</text>
</a>
</g>
</g>
<!-- Node8&#45;&gt;Node10 -->
<g id="edge13" class="edge">
<title>Node8&#45;&gt;Node10</title>
<path fill="none" stroke="#63b8ff" d="M369.61,-445.8C378.49,-446.86 387.72,-447.97 396.81,-449.05"/>
<polygon fill="#63b8ff" stroke="#63b8ff" points="396.64,-452.56 406.98,-450.27 397.47,-445.61 396.64,-452.56"/>
</g>
<!-- Node11 -->
<g id="node11" class="node">
<title>Node11</title>
<g id="a_node11"><a xlink:href="lexer__redirect__in_8c.html#ac723d9668329d99b35003ed2423889e5" target="_top" xlink:title=" ">
<polygon fill="white" stroke="#666666" points="518.5,-430.12 420.5,-430.12 420.5,-411.12 518.5,-411.12 518.5,-430.12"/>
<text text-anchor="middle" x="469.5" y="-418.12" font-family="Helvetica,sans-Serif" font-size="10.00">lexer_redirect_in</text>
</a>
</g>
</g>
<!-- Node8&#45;&gt;Node11 -->
<g id="edge15" class="edge">
<title>Node8&#45;&gt;Node11</title>
<path fill="none" stroke="#63b8ff" d="M369.61,-431.81C383,-430.3 397.16,-428.69 410.46,-427.19"/>
<polygon fill="#63b8ff" stroke="#63b8ff" points="410.89,-430.66 420.44,-426.06 410.11,-423.71 410.89,-430.66"/>
</g>
<!-- Node12 -->
<g id="node12" class="node">
<title>Node12</title>
<g id="a_node12"><a xlink:href="lexer__redirect__out_8c.html#a70e2216639c96030b3861405ae3497c6" target="_top" xlink:title=" ">
<polygon fill="white" stroke="#666666" points="521.5,-393.12 417.5,-393.12 417.5,-374.12 521.5,-374.12 521.5,-393.12"/>
<text text-anchor="middle" x="469.5" y="-381.12" font-family="Helvetica,sans-Serif" font-size="10.00">lexer_redirect_out</text>
</a>
</g>
</g>
<!-- Node8&#45;&gt;Node12 -->
<g id="edge17" class="edge">
<title>Node8&#45;&gt;Node12</title>
<path fill="none" stroke="#63b8ff" d="M334.21,-429.07C353.85,-421.59 382.05,-411.07 407,-402.62 413.4,-400.45 420.21,-398.25 426.87,-396.14"/>
<polygon fill="#63b8ff" stroke="#63b8ff" points="427.97,-399.47 436.47,-393.15 425.89,-392.79 427.97,-399.47"/>
</g>
<!-- Node9&#45;&gt;Node3 -->
<g id="edge12" class="edge">
<title>Node9&#45;&gt;Node3</title>
<path fill="none" stroke="#63b8ff" d="M512.21,-495.84C536.21,-496.55 566.51,-497.43 591.68,-498.17"/>
<polygon fill="#63b8ff" stroke="#63b8ff" points="591.67,-501.67 601.77,-498.47 591.88,-494.68 591.67,-501.67"/>
</g>
<!-- Node10&#45;&gt;Node3 -->
<g id="edge14" class="edge">
<title>Node10&#45;&gt;Node3</title>
<path fill="none" stroke="#63b8ff" d="M509.19,-467.15C533.84,-473.22 565.99,-481.14 592.37,-487.64"/>
<polygon fill="#63b8ff" stroke="#63b8ff" points="591.62,-491.06 602.17,-490.05 593.3,-484.26 591.62,-491.06"/>
</g>
<!-- Node11&#45;&gt;Node3 -->
<g id="edge16" class="edge">
<title>Node11&#45;&gt;Node3</title>
<path fill="none" stroke="#63b8ff" d="M508.71,-430.18C516.61,-432.78 524.73,-435.91 532,-439.62 549.82,-448.7 550.78,-456.44 568,-466.62 580.31,-473.9 594.5,-480.65 607.08,-486.13"/>
<polygon fill="#63b8ff" stroke="#63b8ff" points="605.76,-489.37 616.33,-490.05 608.49,-482.92 605.76,-489.37"/>
</g>
<!-- Node12&#45;&gt;Node3 -->
<g id="edge18" class="edge">
<title>Node12&#45;&gt;Node3</title>
<path fill="none" stroke="#63b8ff" d="M515.86,-393.23C521.65,-395.68 527.22,-398.76 532,-402.62 557.4,-423.12 543.93,-444.58 568,-466.62 576.89,-474.76 588.12,-481.16 599.09,-486.08"/>
<polygon fill="#63b8ff" stroke="#63b8ff" points="598.02,-489.43 608.6,-490.03 600.7,-482.96 598.02,-489.43"/>
</g>
<!-- Node13&#45;&gt;Node3 -->
<g id="edge20" class="edge">
<title>Node13&#45;&gt;Node3</title>
<path fill="none" stroke="#63b8ff" d="M327.66,-382C368.39,-361.88 468.43,-320.79 532,-365.62 570.95,-393.08 535.72,-431.57 568,-466.62 575.65,-474.92 585.78,-481.28 596.06,-486.08"/>
<polygon fill="#63b8ff" stroke="#63b8ff" points="594.9,-489.39 605.47,-490.08 597.63,-482.95 594.9,-489.39"/>
</g>
<!-- Node14&#45;&gt;Node3 -->
<g id="edge22" class="edge">
<title>Node14&#45;&gt;Node3</title>
<path fill="none" stroke="#63b8ff" d="M360.33,-723.31C408.56,-725.16 481.03,-720.97 532,-686.62 592.96,-645.54 624.4,-558.06 635.84,-519.07"/>
<polygon fill="#63b8ff" stroke="#63b8ff" points="639.21,-520.01 638.55,-509.44 632.47,-518.12 639.21,-520.01"/>
</g>
<!-- Node15&#45;&gt;Node3 -->
<g id="edge24" class="edge">
<title>Node15&#45;&gt;Node3</title>
<path fill="none" stroke="#63b8ff" d="M356.92,-687.41C404.57,-690.86 478.42,-689.53 532,-657.62 586.75,-625.01 620.52,-552.96 634.11,-518.59"/>
<polygon fill="#63b8ff" stroke="#63b8ff" points="637.39,-519.8 637.68,-509.21 630.85,-517.31 637.39,-519.8"/>
</g>
<!-- Node16&#45;&gt;Node3 -->
<g id="edge26" class="edge">
<title>Node16&#45;&gt;Node3</title>
<path fill="none" stroke="#63b8ff" d="M340.58,-326.04C387.39,-313.7 476.38,-298.57 532,-341.62 577.72,-377 530.17,-422.9 568,-466.62 575.25,-474.99 585.05,-481.35 595.11,-486.14"/>
<polygon fill="#63b8ff" stroke="#63b8ff" points="593.79,-489.38 604.37,-490.1 596.55,-482.94 593.79,-489.38"/>
</g>
<!-- Node17 -->
<g id="node17" class="node">
<title>Node17</title>
<g id="a_node17"><a xlink:href="lexer__word_8c.html#a730574257743b09386cadd2ccbfe4d13" target="_top" xlink:title=" ">
<polygon fill="white" stroke="#666666" points="530.5,-279.12 408.5,-279.12 408.5,-260.12 530.5,-260.12 530.5,-279.12"/>
<text text-anchor="middle" x="469.5" y="-267.12" font-family="Helvetica,sans-Serif" font-size="10.00">handle_current_token</text>
</a>
</g>
</g>
<!-- Node16&#45;&gt;Node17 -->
<g id="edge27" class="edge">
<title>Node16&#45;&gt;Node17</title>
<path fill="none" stroke="#63b8ff" d="M343.63,-326.86C352.71,-324.05 362.38,-320.61 371,-316.62 388.23,-308.63 390.07,-302.22 407,-293.62 414.71,-289.7 423.22,-286 431.39,-282.74"/>
<polygon fill="#63b8ff" stroke="#63b8ff" points="432.68,-286 440.75,-279.13 430.16,-279.47 432.68,-286"/>
</g>
<!-- Node29 -->
<g id="node29" class="node">
<title>Node29</title>
<g id="a_node29"><a xlink:href="lexer__is__word__separator_8c.html#abccfc6fc0cdbd040fc9a7dcbfd207090" target="_top" xlink:title=" ">
<polygon fill="white" stroke="#666666" points="1064,-22.12 929,-22.12 929,-3.12 1064,-3.12 1064,-22.12"/>
<text text-anchor="middle" x="996.5" y="-10.12" font-family="Helvetica,sans-Serif" font-size="10.00">lexer_is_word_separator</text>
</a>
</g>
</g>
<!-- Node16&#45;&gt;Node29 -->
<g id="edge57" class="edge">
<title>Node16&#45;&gt;Node29</title>
<path fill="none" stroke="#63b8ff" d="M343.72,-330.04C353.3,-327.22 363.21,-322.99 371,-316.62 396.86,-295.47 385.92,-276.55 407,-250.62 524.5,-106.07 571.56,-58.89 752,-12.62 806.48,1.35 870.09,0.8 918.64,-2.95"/>
<polygon fill="#63b8ff" stroke="#63b8ff" points="918.5,-6.45 928.76,-3.8 919.09,0.52 918.5,-6.45"/>
</g>
<!-- Node18 -->
<g id="node18" class="node">
<title>Node18</title>
<g id="a_node18"><a xlink:href="lexer__word_8c.html#acd8f2a3c47fa56f87c2792ccefd2ee3e" target="_top" xlink:title=" ">
<polygon fill="white" stroke="#666666" points="702.5,-242.12 581.5,-242.12 581.5,-223.12 702.5,-223.12 702.5,-242.12"/>
<text text-anchor="middle" x="642" y="-230.12" font-family="Helvetica,sans-Serif" font-size="10.00">handle_double_quote</text>
</a>
</g>
</g>
<!-- Node17&#45;&gt;Node18 -->
<g id="edge28" class="edge">
<title>Node17&#45;&gt;Node18</title>
<path fill="none" stroke="#63b8ff" d="M514.41,-260.09C536.6,-255.28 563.71,-249.39 587.15,-244.3"/>
<polygon fill="#63b8ff" stroke="#63b8ff" points="587.91,-247.72 596.94,-242.18 586.43,-240.88 587.91,-247.72"/>
</g>
<!-- Node19 -->
<g id="node19" class="node">
<title>Node19</title>
<g id="a_node19"><a xlink:href="lexer__word_8c.html#a733339142f4677a066646a12a7e5bec4" target="_top" xlink:title=" ">
<polygon fill="white" stroke="#666666" points="893,-467.12 752,-467.12 752,-448.12 893,-448.12 893,-467.12"/>
<text text-anchor="middle" x="822.5" y="-455.12" font-family="Helvetica,sans-Serif" font-size="10.00">handle_escape_sequence</text>
</a>
</g>
</g>
<!-- Node17&#45;&gt;Node19 -->
<g id="edge29" class="edge">
<title>Node17&#45;&gt;Node19</title>
<path fill="none" stroke="#63b8ff" d="M492.24,-279.2C505.39,-285.98 521.58,-296.26 532,-309.62 562.33,-348.52 530.4,-382.68 568,-414.62 615.64,-455.09 687.01,-464.15 741.9,-464.06"/>
<polygon fill="#63b8ff" stroke="#63b8ff" points="741.99,-467.56 751.95,-463.94 741.91,-460.56 741.99,-467.56"/>
</g>
<!-- Node23 -->
<g id="node23" class="node">
<title>Node23</title>
<g id="a_node23"><a xlink:href="lexer__word_8c.html#a3ae03e49183787e7cf32c90ffdef7351" target="_top" xlink:title=" ">
<polygon fill="white" stroke="#666666" points="700.5,-405.12 583.5,-405.12 583.5,-386.12 700.5,-386.12 700.5,-405.12"/>
<text text-anchor="middle" x="642" y="-393.12" font-family="Helvetica,sans-Serif" font-size="10.00">handle_single_quote</text>
</a>
</g>
</g>
<!-- Node17&#45;&gt;Node23 -->
<g id="edge33" class="edge">
<title>Node17&#45;&gt;Node23</title>
<path fill="none" stroke="#63b8ff" d="M504.42,-279.16C513.89,-282.78 523.81,-287.53 532,-293.62 552.83,-309.11 549.55,-321.35 568,-339.62 583.46,-354.93 603.15,-369.81 618.18,-380.38"/>
<polygon fill="#63b8ff" stroke="#63b8ff" points="616.2,-383.27 626.42,-386.07 620.18,-377.51 616.2,-383.27"/>
</g>
<!-- Node24 -->
<g id="node24" class="node">
<title>Node24</title>
<g id="a_node24"><a xlink:href="lexer__utils_8c.html#a2ba6f7e43ecbf713c666ab062eac534c" target="_top" xlink:title=" ">
<polygon fill="white" stroke="#666666" points="716,-331.12 568,-331.12 568,-312.12 716,-312.12 716,-331.12"/>
<text text-anchor="middle" x="642" y="-319.12" font-family="Helvetica,sans-Serif" font-size="10.00">lexer_append_current_char</text>
</a>
</g>
</g>
<!-- Node17&#45;&gt;Node24 -->
<g id="edge35" class="edge">
<title>Node17&#45;&gt;Node24</title>
<path fill="none" stroke="#63b8ff" d="M501.77,-279.16C529.33,-287.56 569.66,-299.86 599.83,-309.06"/>
<polygon fill="#63b8ff" stroke="#63b8ff" points="599.05,-312.48 609.64,-312.05 601.09,-305.79 599.05,-312.48"/>
</g>
<!-- Node25 -->
<g id="node25" class="node">
<title>Node25</title>
<g id="a_node25"><a xlink:href="lexer__expand__tilde_8c.html#ae3c478a10a2764ee7c7f94b42f28ecaf" target="_top" xlink:title=" ">
<polygon fill="white" stroke="#666666" points="696.5,-142.12 587.5,-142.12 587.5,-123.12 696.5,-123.12 696.5,-142.12"/>
<text text-anchor="middle" x="642" y="-130.12" font-family="Helvetica,sans-Serif" font-size="10.00">lexer_expand_tilde</text>
</a>
</g>
</g>
<!-- Node17&#45;&gt;Node25 -->
<g id="edge37" class="edge">
<title>Node17&#45;&gt;Node25</title>
<path fill="none" stroke="#63b8ff" d="M482.49,-259.99C511.4,-236.75 585.21,-177.45 620.97,-148.71"/>
<polygon fill="#63b8ff" stroke="#63b8ff" points="623.19,-151.42 628.8,-142.43 618.81,-145.96 623.19,-151.42"/>
</g>
<!-- Node30 -->
<g id="node30" class="node">
<title>Node30</title>
<g id="a_node30"><a xlink:href="lexer__expand__variable_8c.html#a01ad90eb8460a612626bb33c9e15cd52" target="_top" xlink:title=" ">
<polygon fill="white" stroke="#666666" points="705.5,-279.12 578.5,-279.12 578.5,-260.12 705.5,-260.12 705.5,-279.12"/>
<text text-anchor="middle" x="642" y="-267.12" font-family="Helvetica,sans-Serif" font-size="10.00">lexer_expand_variable</text>
</a>
</g>
</g>
<!-- Node17&#45;&gt;Node30 -->
<g id="edge43" class="edge">
<title>Node17&#45;&gt;Node30</title>
<path fill="none" stroke="#63b8ff" d="M530.61,-269.62C542.67,-269.62 555.47,-269.62 567.91,-269.62"/>
<polygon fill="#63b8ff" stroke="#63b8ff" points="568.26,-273.12 578.26,-269.62 568.26,-266.12 568.26,-273.12"/>
</g>
<!-- Node20 -->
<g id="node20" class="node">
<title>Node20</title>
<g id="a_node20"><a xlink:href="lexer__utils_8c.html#abf1c1b3b6033c8f9c8d1b11cc9e14f75" target="_top" xlink:title=" ">
<polygon fill="white" stroke="#666666" points="1046.5,-335.12 946.5,-335.12 946.5,-316.12 1046.5,-316.12 1046.5,-335.12"/>
<text text-anchor="middle" x="996.5" y="-323.12" font-family="Helvetica,sans-Serif" font-size="10.00">lexer_append_str</text>
</a>
</g>
</g>
<!-- Node19&#45;&gt;Node20 -->
<g id="edge30" class="edge">
<title>Node19&#45;&gt;Node20</title>
<path fill="none" stroke="#63b8ff" d="M861.81,-448.03C872.39,-444.44 883.55,-439.7 893,-433.62 931.35,-408.93 965.53,-366.96 983.07,-343.27"/>
<polygon fill="#63b8ff" stroke="#63b8ff" points="985.92,-345.31 988.95,-335.16 980.25,-341.2 985.92,-345.31"/>
</g>
<!-- Node21 -->
<g id="node21" class="node">
<title>Node21</title>
<g id="a_node21"><a xlink:href="strings_8h.html#a5e1589f073ac32d227dbc6020c376dab" target="_top" xlink:title=" ">
<polygon fill="white" stroke="#666666" points="1209.5,-335.12 1108.5,-335.12 1108.5,-316.12 1209.5,-316.12 1209.5,-335.12"/>
<text text-anchor="middle" x="1159" y="-323.12" font-family="Helvetica,sans-Serif" font-size="10.00">append_to_buffer</text>
</a>
</g>
</g>
<!-- Node20&#45;&gt;Node21 -->
<g id="edge31" class="edge">
<title>Node20&#45;&gt;Node21</title>
<path fill="none" stroke="#63b8ff" d="M1046.53,-325.62C1062.79,-325.62 1081.08,-325.62 1098.06,-325.62"/>
<polygon fill="#63b8ff" stroke="#63b8ff" points="1098.44,-329.12 1108.44,-325.62 1098.44,-322.12 1098.44,-329.12"/>
</g>
<!-- Node22 -->
<g id="node22" class="node">
<title>Node22</title>
<g id="a_node22"><a xlink:href="lexer__utils_8c.html#a84e8d5514cfe03a20152ad26f170211f" target="_top" xlink:title=" ">
<polygon fill="white" stroke="#666666" points="1218,-279.12 1100,-279.12 1100,-260.12 1218,-260.12 1218,-279.12"/>
<text text-anchor="middle" x="1159" y="-267.12" font-family="Helvetica,sans-Serif" font-size="10.00">lexer_set_alloc_error</text>
</a>
</g>
</g>
<!-- Node20&#45;&gt;Node22 -->
<g id="edge32" class="edge">
<title>Node20&#45;&gt;Node22</title>
<path fill="none" stroke="#63b8ff" d="M1025.09,-315.99C1051.66,-306.72 1092.03,-292.64 1121.3,-282.42"/>
<polygon fill="#63b8ff" stroke="#63b8ff" points="1122.48,-285.72 1130.77,-279.12 1120.17,-279.11 1122.48,-285.72"/>
</g>
<!-- Node23&#45;&gt;Node20 -->
<g id="edge34" class="edge">
<title>Node23&#45;&gt;Node20</title>
<path fill="none" stroke="#63b8ff" d="M700.51,-399.09C751.95,-400.58 828.89,-398.79 893,-380.62 922.82,-372.17 953.73,-354.08 973.7,-340.95"/>
<polygon fill="#63b8ff" stroke="#63b8ff" points="975.73,-343.8 982.07,-335.31 971.82,-338 975.73,-343.8"/>
</g>
<!-- Node24&#45;&gt;Node20 -->
<g id="edge36" class="edge">
<title>Node24&#45;&gt;Node20</title>
<path fill="none" stroke="#63b8ff" d="M662.09,-331.22C683.39,-341.34 719.18,-356.65 752,-362.62 813.66,-373.83 831.27,-373.42 893,-362.62 918.62,-358.14 946.29,-347.79 966.42,-339.18"/>
<polygon fill="#63b8ff" stroke="#63b8ff" points="967.9,-342.35 975.65,-335.12 965.08,-335.94 967.9,-342.35"/>
</g>
<!-- Node25&#45;&gt;Node20 -->
<g id="edge40" class="edge">
<title>Node25&#45;&gt;Node20</title>
<path fill="none" stroke="#63b8ff" d="M667.21,-142.23C712.77,-160.7 813.79,-203.53 893,-250.62 923.38,-268.68 955.9,-293.52 975.97,-309.58"/>
<polygon fill="#63b8ff" stroke="#63b8ff" points="974.03,-312.52 984.01,-316.08 978.43,-307.07 974.03,-312.52"/>
</g>
<!-- Node26 -->
<g id="node26" class="node">
<title>Node26</title>
<g id="a_node26"><a xlink:href="get__variable__value_8c.html#a2edd9900f19af236aa05385a789be3d6" target="_top" xlink:title=" ">
<polygon fill="white" stroke="#666666" points="1051.5,-101.12 941.5,-101.12 941.5,-82.12 1051.5,-82.12 1051.5,-101.12"/>
<text text-anchor="middle" x="996.5" y="-89.12" font-family="Helvetica,sans-Serif" font-size="10.00">get_variable_value</text>
</a>
</g>
</g>
<!-- Node25&#45;&gt;Node26 -->
<g id="edge38" class="edge">
<title>Node25&#45;&gt;Node26</title>
<path fill="none" stroke="#63b8ff" d="M660.48,-123.11C681.49,-112.26 718.14,-95.19 752,-88.62 811.86,-76.99 881.57,-79.42 931.02,-83.76"/>
<polygon fill="#63b8ff" stroke="#63b8ff" points="930.98,-87.27 941.26,-84.7 931.62,-80.3 930.98,-87.27"/>
</g>
<!-- Node28 -->
<g id="node28" class="node">
<title>Node28</title>
<g id="a_node28"><a xlink:href="lexer__expand__tilde_8c.html#aa4231a41b1e79447d6a70db7b075f937" target="_top" xlink:title=" ">
<polygon fill="white" stroke="#666666" points="881,-41.12 764,-41.12 764,-22.12 881,-22.12 881,-41.12"/>
<text text-anchor="middle" x="822.5" y="-29.12" font-family="Helvetica,sans-Serif" font-size="10.00">should_expand_tilde</text>
</a>
</g>
</g>
<!-- Node25&#45;&gt;Node28 -->
<g id="edge41" class="edge">
<title>Node25&#45;&gt;Node28</title>
<path fill="none" stroke="#63b8ff" d="M654.39,-122.91C673.49,-107.02 713.65,-75.28 752,-55.62 760.26,-51.38 769.43,-47.62 778.33,-44.4"/>
<polygon fill="#63b8ff" stroke="#63b8ff" points="779.52,-47.69 787.83,-41.12 777.24,-41.08 779.52,-47.69"/>
</g>
<!-- Node27 -->
<g id="node27" class="node">
<title>Node27</title>
<g id="a_node27"><a xlink:href="get__variable_8c.html#a569170390f0edf013bf89c26ef55ea8c" target="_top" xlink:title=" ">
<polygon fill="white" stroke="#666666" points="1197.5,-101.12 1120.5,-101.12 1120.5,-82.12 1197.5,-82.12 1197.5,-101.12"/>
<text text-anchor="middle" x="1159" y="-89.12" font-family="Helvetica,sans-Serif" font-size="10.00">get_variable</text>
</a>
</g>
</g>
<!-- Node26&#45;&gt;Node27 -->
<g id="edge39" class="edge">
<title>Node26&#45;&gt;Node27</title>
<path fill="none" stroke="#63b8ff" d="M1051.84,-91.62C1070.78,-91.62 1091.88,-91.62 1110.25,-91.62"/>
<polygon fill="#63b8ff" stroke="#63b8ff" points="1110.42,-95.12 1120.42,-91.62 1110.42,-88.12 1110.42,-95.12"/>
</g>
<!-- Node28&#45;&gt;Node29 -->
<g id="edge42" class="edge">
<title>Node28&#45;&gt;Node29</title>
<path fill="none" stroke="#63b8ff" d="M881.25,-25.24C893.34,-23.9 906.27,-22.48 918.92,-21.08"/>
<polygon fill="#63b8ff" stroke="#63b8ff" points="919.43,-24.54 928.99,-19.97 918.67,-17.59 919.43,-24.54"/>
</g>
<!-- Node30&#45;&gt;Node22 -->
<g id="edge56" class="edge">
<title>Node30&#45;&gt;Node22</title>
<path fill="none" stroke="#63b8ff" d="M687.32,-260.11C707.02,-256.34 730.57,-252.47 752,-250.62 870.49,-240.37 1008.94,-251.85 1089.71,-260.89"/>
<polygon fill="#63b8ff" stroke="#63b8ff" points="1089.42,-264.38 1099.75,-262.04 1090.21,-257.43 1089.42,-264.38"/>
</g>
<!-- Node31 -->
<g id="node31" class="node">
<title>Node31</title>
<g id="a_node31"><a xlink:href="lexer__expand__variable_8c.html#abe77b7e35b276965b72648d12abae283" target="_top" xlink:title=" ">
<polygon fill="white" stroke="#666666" points="865.5,-316.12 779.5,-316.12 779.5,-297.12 865.5,-297.12 865.5,-316.12"/>
<text text-anchor="middle" x="822.5" y="-304.12" font-family="Helvetica,sans-Serif" font-size="10.00">append_dollar</text>
</a>
</g>
</g>
<!-- Node30&#45;&gt;Node31 -->
<g id="edge44" class="edge">
<title>Node30&#45;&gt;Node31</title>
<path fill="none" stroke="#63b8ff" d="M688.97,-279.15C713.59,-284.25 744.01,-290.56 769.49,-295.84"/>
<polygon fill="#63b8ff" stroke="#63b8ff" points="768.85,-299.28 779.36,-297.88 770.28,-292.43 768.85,-299.28"/>
</g>
<!-- Node32 -->
<g id="node32" class="node">
<title>Node32</title>
<g id="a_node32"><a xlink:href="lexer__expand__variable_8c.html#ab47d31838e3255a1321d85e937919d4e" target="_top" xlink:title=" ">
<polygon fill="white" stroke="#666666" points="878,-279.12 767,-279.12 767,-260.12 878,-260.12 878,-279.12"/>
<text text-anchor="middle" x="822.5" y="-267.12" font-family="Helvetica,sans-Serif" font-size="10.00">append_last_status</text>
</a>
</g>
</g>
<!-- Node30&#45;&gt;Node32 -->
<g id="edge46" class="edge">
<title>Node30&#45;&gt;Node32</title>
<path fill="none" stroke="#63b8ff" d="M705.68,-269.62C722.24,-269.62 740.13,-269.62 756.79,-269.62"/>
<polygon fill="#63b8ff" stroke="#63b8ff" points="756.98,-273.12 766.98,-269.62 756.98,-266.12 756.98,-273.12"/>
</g>
<!-- Node33 -->
<g id="node33" class="node">
<title>Node33</title>
<g id="a_node33"><a xlink:href="lexer__expand__variable_8c.html#a9954e7e26e9570a3c41eed4e16bf6791" target="_top" xlink:title=" ">
<polygon fill="white" stroke="#666666" points="887.5,-353.12 757.5,-353.12 757.5,-334.12 887.5,-334.12 887.5,-353.12"/>
<text text-anchor="middle" x="822.5" y="-341.12" font-family="Helvetica,sans-Serif" font-size="10.00">append_variable_value</text>
</a>
</g>
</g>
<!-- Node30&#45;&gt;Node33 -->
<g id="edge49" class="edge">
<title>Node30&#45;&gt;Node33</title>
<path fill="none" stroke="#63b8ff" d="M666.04,-279.16C680.58,-285.4 699.65,-293.97 716,-302.62 732.58,-311.39 734.79,-317.18 752,-324.62 757.44,-326.97 763.25,-329.1 769.11,-331.02"/>
<polygon fill="#63b8ff" stroke="#63b8ff" points="768.36,-334.45 778.95,-334.03 770.41,-327.75 768.36,-334.45"/>
</g>
<!-- Node34 -->
<g id="node34" class="node">
<title>Node34</title>
<g id="a_node34"><a xlink:href="lexer__expand__variable_8c.html#a1d07a8c171e69a5c58a385a75520e6c0" target="_top" xlink:title=" ">
<polygon fill="white" stroke="#666666" points="880.5,-127.62 764.5,-127.62 764.5,-97.62 880.5,-97.62 880.5,-127.62"/>
<text text-anchor="start" x="772.5" y="-115.62" font-family="Helvetica,sans-Serif" font-size="10.00">get_correct_variable</text>
<text text-anchor="middle" x="822.5" y="-104.62" font-family="Helvetica,sans-Serif" font-size="10.00">_value</text>
</a>
</g>
</g>
<!-- Node30&#45;&gt;Node34 -->
<g id="edge51" class="edge">
<title>Node30&#45;&gt;Node34</title>
<path fill="none" stroke="#63b8ff" d="M702.03,-260.1C707.15,-257.61 711.92,-254.5 716,-250.62 754.52,-214.02 714.93,-174.69 752,-136.62 753.22,-135.36 754.52,-134.17 755.87,-133.04"/>
<polygon fill="#63b8ff" stroke="#63b8ff" points="757.98,-135.83 764.17,-127.23 753.97,-130.1 757.98,-135.83"/>
</g>
<!-- Node35 -->
<g id="node35" class="node">
<title>Node35</title>
<g id="a_node35"><a xlink:href="lexer__expand__variable_8c.html#a3674c7faac945bf9ec05a9dc00c08896" target="_top" xlink:title=" ">
<polygon fill="white" stroke="#666666" points="888,-165.12 757,-165.12 757,-146.12 888,-146.12 888,-165.12"/>
<text text-anchor="middle" x="822.5" y="-153.12" font-family="Helvetica,sans-Serif" font-size="10.00">get_variable_name_len</text>
</a>
</g>
</g>
<!-- Node30&#45;&gt;Node35 -->
<g id="edge53" class="edge">
<title>Node30&#45;&gt;Node35</title>
<path fill="none" stroke="#63b8ff" d="M699.94,-260.03C705.71,-257.56 711.21,-254.48 716,-250.62 743.55,-228.42 725.33,-202.87 752,-179.62 756.74,-175.49 762.22,-172.06 767.99,-169.22"/>
<polygon fill="#63b8ff" stroke="#63b8ff" points="769.44,-172.4 777.22,-165.21 766.66,-165.98 769.44,-172.4"/>
</g>
<!-- Node31&#45;&gt;Node20 -->
<g id="edge45" class="edge">
<title>Node31&#45;&gt;Node20</title>
<path fill="none" stroke="#63b8ff" d="M865.58,-311.27C886.8,-313.61 912.91,-316.5 936.13,-319.06"/>
<polygon fill="#63b8ff" stroke="#63b8ff" points="935.91,-322.56 946.23,-320.18 936.68,-315.6 935.91,-322.56"/>
</g>
<!-- Node32&#45;&gt;Node20 -->
<g id="edge47" class="edge">
<title>Node32&#45;&gt;Node20</title>
<path fill="none" stroke="#63b8ff" d="M863.39,-279.21C873.13,-281.75 883.49,-284.63 893,-287.62 916.39,-294.96 942.27,-304.57 962.18,-312.29"/>
<polygon fill="#63b8ff" stroke="#63b8ff" points="961.13,-315.63 971.71,-316.02 963.68,-309.12 961.13,-315.63"/>
</g>
<!-- Node32&#45;&gt;Node22 -->
<g id="edge48" class="edge">
<title>Node32&#45;&gt;Node22</title>
<path fill="none" stroke="#63b8ff" d="M878.36,-269.62C936.12,-269.62 1027.18,-269.62 1089.59,-269.62"/>
<polygon fill="#63b8ff" stroke="#63b8ff" points="1089.74,-273.12 1099.74,-269.62 1089.74,-266.12 1089.74,-273.12"/>
</g>
<!-- Node33&#45;&gt;Node20 -->
<g id="edge50" class="edge">
<title>Node33&#45;&gt;Node20</title>
<path fill="none" stroke="#63b8ff" d="M887.55,-336.92C903.53,-335.24 920.6,-333.46 936.33,-331.81"/>
<polygon fill="#63b8ff" stroke="#63b8ff" points="936.87,-335.27 946.46,-330.75 936.15,-328.31 936.87,-335.27"/>
</g>
<!-- Node34&#45;&gt;Node26 -->
<g id="edge52" class="edge">
<title>Node34&#45;&gt;Node26</title>
<path fill="none" stroke="#63b8ff" d="M880.77,-105.63C896.96,-103.65 914.68,-101.49 931.25,-99.46"/>
<polygon fill="#63b8ff" stroke="#63b8ff" points="931.89,-102.91 941.39,-98.23 931.04,-95.96 931.89,-102.91"/>
</g>
<!-- Node36 -->
<g id="node36" class="node">
<title>Node36</title>
<g id="a_node36"><a xlink:href="lexer__expand__variable_8c.html#a5067193ac632b7565fd8b9ad405a525f" target="_top" xlink:title=" ">
<polygon fill="white" stroke="#666666" points="1059,-165.12 934,-165.12 934,-146.12 1059,-146.12 1059,-165.12"/>
<text text-anchor="middle" x="996.5" y="-153.12" font-family="Helvetica,sans-Serif" font-size="10.00">is_valid_variable_char</text>
</a>
</g>
</g>
<!-- Node35&#45;&gt;Node36 -->
<g id="edge54" class="edge">
<title>Node35&#45;&gt;Node36</title>
<path fill="none" stroke="#63b8ff" d="M888.04,-155.62C899.61,-155.62 911.74,-155.62 923.51,-155.62"/>
<polygon fill="#63b8ff" stroke="#63b8ff" points="923.74,-159.12 933.74,-155.62 923.74,-152.12 923.74,-159.12"/>
</g>
<!-- Node37 -->
<g id="node37" class="node">
<title>Node37</title>
<g id="a_node37"><a xlink:href="strings_8h.html#adfd4fc057d3b7ad39c6867928cc44175" target="_top" xlink:title=" ">
<polygon fill="white" stroke="#666666" points="1200.5,-165.12 1117.5,-165.12 1117.5,-146.12 1200.5,-146.12 1200.5,-165.12"/>
<text text-anchor="middle" x="1159" y="-153.12" font-family="Helvetica,sans-Serif" font-size="10.00">my_isnumber</text>
</a>
</g>
</g>
<!-- Node36&#45;&gt;Node37 -->
<g id="edge55" class="edge">
<title>Node36&#45;&gt;Node37</title>
<path fill="none" stroke="#63b8ff" d="M1059.09,-155.62C1074.9,-155.62 1091.72,-155.62 1106.93,-155.62"/>
<polygon fill="#63b8ff" stroke="#63b8ff" points="1107.16,-159.12 1117.16,-155.62 1107.16,-152.12 1107.16,-159.12"/>
</g>
</g>
</svg>
