<?xml version="1.0" encoding="UTF-8" standalone="no"?>
<!DOCTYPE svg PUBLIC "-//W3C//DTD SVG 1.1//EN"
 "http://www.w3.org/Graphics/SVG/1.1/DTD/svg11.dtd">
<!-- Generated by graphviz version 2.43.0 (0)
 -->
<!-- Title: parse_sequence_start Pages: 1 -->
<svg width="1355pt" height="1132pt"
 viewBox="0.00 0.00 1355.00 1131.50" xmlns="http://www.w3.org/2000/svg" xmlns:xlink="http://www.w3.org/1999/xlink">
<g id="graph0" class="graph" transform="scale(1 1) rotate(0) translate(4 1127.5)">
<title>parse_sequence_start</title>
<!-- Node1 -->
<g id="node1" class="node">
<title>Node1</title>
<g id="a_node1"><a xlink:title=" ">
<polygon fill="#999999" stroke="#666666" points="123,-540.5 0,-540.5 0,-521.5 123,-521.5 123,-540.5"/>
<text text-anchor="middle" x="61.5" y="-528.5" font-family="Helvetica,sans-Serif" font-size="10.00">parse_sequence_start</text>
</a>
</g>
</g>
<!-- Node2 -->
<g id="node2" class="node">
<title>Node2</title>
<g id="a_node2"><a xlink:href="parse__sequence__start_8c.html#a0e3a99ca004123ac0d21254878ed52b9" target="_top" xlink:title=" ">
<polygon fill="white" stroke="#666666" points="259,-654.5 159,-654.5 159,-635.5 259,-635.5 259,-654.5"/>
<text text-anchor="middle" x="209" y="-642.5" font-family="Helvetica,sans-Serif" font-size="10.00">is_redirect_token</text>
</a>
</g>
</g>
<!-- Node1&#45;&gt;Node2 -->
<g id="edge1" class="edge">
<title>Node1&#45;&gt;Node2</title>
<path fill="none" stroke="#63b8ff" d="M71.03,-540.66C86.98,-558.3 122.96,-596.19 159,-621 164.1,-624.51 169.79,-627.79 175.43,-630.73"/>
<polygon fill="#63b8ff" stroke="#63b8ff" points="174.26,-634.06 184.78,-635.34 177.36,-627.78 174.26,-634.06"/>
</g>
<!-- Node3 -->
<g id="node3" class="node">
<title>Node3</title>
<g id="a_node3"><a xlink:href="parse__command_8c.html#a44257532dfa27a6e1f69b911a8d06b8c" target="_top" xlink:title=" ">
<polygon fill="white" stroke="#666666" points="395.5,-786.5 297.5,-786.5 297.5,-767.5 395.5,-767.5 395.5,-786.5"/>
<text text-anchor="middle" x="346.5" y="-774.5" font-family="Helvetica,sans-Serif" font-size="10.00">parse_command</text>
</a>
</g>
</g>
<!-- Node1&#45;&gt;Node3 -->
<g id="edge2" class="edge">
<title>Node1&#45;&gt;Node3</title>
<path fill="none" stroke="#63b8ff" d="M79.37,-540.62C98.47,-551.39 130.61,-569.13 159,-583 202.63,-604.31 222.85,-594.58 259,-627 300.44,-664.17 327.19,-726.04 338.82,-757.44"/>
<polygon fill="#63b8ff" stroke="#63b8ff" points="335.64,-758.95 342.3,-767.18 342.23,-756.59 335.64,-758.95"/>
</g>
<!-- Node11 -->
<g id="node11" class="node">
<title>Node11</title>
<g id="a_node11"><a xlink:href="parser__set__error_8c.html#adcfabdb026b94fdbe4b6cbf5cb16522a" target="_top" xlink:title=" ">
<polygon fill="white" stroke="#666666" points="894,-559.5 798,-559.5 798,-540.5 894,-540.5 894,-559.5"/>
<text text-anchor="middle" x="846" y="-547.5" font-family="Helvetica,sans-Serif" font-size="10.00">parser_set_error</text>
</a>
</g>
</g>
<!-- Node1&#45;&gt;Node11 -->
<g id="edge80" class="edge">
<title>Node1&#45;&gt;Node11</title>
<path fill="none" stroke="#63b8ff" d="M123.23,-531C180.53,-531 268.85,-531 345.5,-531 345.5,-531 345.5,-531 502.5,-531 603.05,-531 719.94,-539.26 787.89,-544.89"/>
<polygon fill="#63b8ff" stroke="#63b8ff" points="787.7,-548.39 797.95,-545.74 788.28,-541.41 787.7,-548.39"/>
</g>
<!-- Node64 -->
<g id="node34" class="node">
<title>Node64</title>
<g id="a_node34"><a xlink:href="parse__repeat_8c.html#ae5f68a24a046c684473e834ed270b2b1" target="_top" xlink:title=" ">
<polygon fill="white" stroke="#666666" points="541.5,-578.5 461.5,-578.5 461.5,-559.5 541.5,-559.5 541.5,-578.5"/>
<text text-anchor="middle" x="501.5" y="-566.5" font-family="Helvetica,sans-Serif" font-size="10.00">parse_repeat</text>
</a>
</g>
</g>
<!-- Node1&#45;&gt;Node64 -->
<g id="edge42" class="edge">
<title>Node1&#45;&gt;Node64</title>
<path fill="none" stroke="#63b8ff" d="M123.16,-540.5C135.02,-542.16 147.39,-543.75 159,-545 262.77,-556.16 384.87,-563.3 451.32,-566.69"/>
<polygon fill="#63b8ff" stroke="#63b8ff" points="451.33,-570.19 461.49,-567.2 451.68,-563.2 451.33,-570.19"/>
</g>
<!-- Node70 -->
<g id="node40" class="node">
<title>Node70</title>
<g id="a_node40"><a xlink:href="parse__subshell_8c.html#a7880d16a42ebd13ffbab4b7c2d08ac63" target="_top" xlink:title=" ">
<polygon fill="white" stroke="#666666" points="253.5,-483.5 164.5,-483.5 164.5,-464.5 253.5,-464.5 253.5,-483.5"/>
<text text-anchor="middle" x="209" y="-471.5" font-family="Helvetica,sans-Serif" font-size="10.00">parse_subshell</text>
</a>
</g>
</g>
<!-- Node1&#45;&gt;Node70 -->
<g id="edge53" class="edge">
<title>Node1&#45;&gt;Node70</title>
<path fill="none" stroke="#63b8ff" d="M86.85,-521.46C110.77,-512.09 147.47,-497.71 174.21,-487.24"/>
<polygon fill="#63b8ff" stroke="#63b8ff" points="175.53,-490.48 183.57,-483.57 172.98,-483.96 175.53,-490.48"/>
</g>
<!-- Node4 -->
<g id="node4" class="node">
<title>Node4</title>
<g id="a_node4"><a xlink:href="parse__command_8c.html#ae89fa0d22da2bcaee6c11579cafa87c6" target="_top" xlink:title=" ">
<polygon fill="white" stroke="#666666" points="547.5,-880.5 455.5,-880.5 455.5,-861.5 547.5,-861.5 547.5,-880.5"/>
<text text-anchor="middle" x="501.5" y="-868.5" font-family="Helvetica,sans-Serif" font-size="10.00">apply_redirects</text>
</a>
</g>
</g>
<!-- Node3&#45;&gt;Node4 -->
<g id="edge3" class="edge">
<title>Node3&#45;&gt;Node4</title>
<path fill="none" stroke="#63b8ff" d="M355.79,-786.73C370.09,-802.92 401.06,-835.32 434,-853 437.73,-855 441.71,-856.8 445.79,-858.4"/>
<polygon fill="#63b8ff" stroke="#63b8ff" points="444.83,-861.78 455.42,-861.81 447.16,-855.18 444.83,-861.78"/>
</g>
<!-- Node8 -->
<g id="node8" class="node">
<title>Node8</title>
<g id="a_node8"><a xlink:href="ast__new__cmd_8c.html#adeeaa39d90e239f73b73a02bbdbbe1ab" target="_top" xlink:title=" ">
<polygon fill="white" stroke="#666666" points="543,-805.5 460,-805.5 460,-786.5 543,-786.5 543,-805.5"/>
<text text-anchor="middle" x="501.5" y="-793.5" font-family="Helvetica,sans-Serif" font-size="10.00">ast_new_cmd</text>
</a>
</g>
</g>
<!-- Node3&#45;&gt;Node8 -->
<g id="edge7" class="edge">
<title>Node3&#45;&gt;Node8</title>
<path fill="none" stroke="#63b8ff" d="M395.91,-783.01C413.11,-785.15 432.51,-787.56 449.88,-789.71"/>
<polygon fill="#63b8ff" stroke="#63b8ff" points="449.5,-793.19 459.85,-790.95 450.36,-786.25 449.5,-793.19"/>
</g>
<!-- Node9 -->
<g id="node9" class="node">
<title>Node9</title>
<g id="a_node9"><a xlink:href="parse__command_8c.html#a672046cbfdfec32bb8ed3deec121a5f4" target="_top" xlink:title=" ">
<polygon fill="white" stroke="#666666" points="548,-730.5 455,-730.5 455,-711.5 548,-711.5 548,-730.5"/>
<text text-anchor="middle" x="501.5" y="-718.5" font-family="Helvetica,sans-Serif" font-size="10.00">check_redirects</text>
</a>
</g>
</g>
<!-- Node3&#45;&gt;Node9 -->
<g id="edge8" class="edge">
<title>Node3&#45;&gt;Node9</title>
<path fill="none" stroke="#63b8ff" d="M368.95,-767.36C386.3,-759.72 411.48,-749.05 434,-741 441.26,-738.4 449.05,-735.86 456.64,-733.5"/>
<polygon fill="#63b8ff" stroke="#63b8ff" points="457.9,-736.77 466.45,-730.51 455.87,-730.07 457.9,-736.77"/>
</g>
<!-- Node3&#45;&gt;Node11 -->
<g id="edge41" class="edge">
<title>Node3&#45;&gt;Node11</title>
<path fill="none" stroke="#63b8ff" d="M355.38,-767.3C369.31,-750.91 400.04,-718.06 434,-703 558.93,-647.6 617.44,-726.43 739,-664 782.25,-641.79 817.06,-594.49 833.94,-568.34"/>
<polygon fill="#63b8ff" stroke="#63b8ff" points="836.98,-570.08 839.32,-559.75 831.05,-566.36 836.98,-570.08"/>
</g>
<!-- Node12 -->
<g id="node12" class="node">
<title>Node12</title>
<g id="a_node12"><a xlink:href="empty__stdin_8c.html#a4c89df10296f2cc245e3a32065e04e7b" target="_top" xlink:title=" ">
<polygon fill="white" stroke="#666666" points="540,-768.5 463,-768.5 463,-749.5 540,-749.5 540,-768.5"/>
<text text-anchor="middle" x="501.5" y="-756.5" font-family="Helvetica,sans-Serif" font-size="10.00">empty_stdin</text>
</a>
</g>
</g>
<!-- Node3&#45;&gt;Node12 -->
<g id="edge11" class="edge">
<title>Node3&#45;&gt;Node12</title>
<path fill="none" stroke="#63b8ff" d="M395.91,-771.3C414,-769.18 434.52,-766.76 452.56,-764.64"/>
<polygon fill="#63b8ff" stroke="#63b8ff" points="453.06,-768.11 462.58,-763.46 452.24,-761.15 453.06,-768.11"/>
</g>
<!-- Node13 -->
<g id="node13" class="node">
<title>Node13</title>
<g id="a_node13"><a xlink:href="parse__command_8c.html#ac67a0768cb7890fe1566b68252b9240d" target="_top" xlink:title=" ">
<polygon fill="white" stroke="#666666" points="561,-843.5 442,-843.5 442,-824.5 561,-824.5 561,-843.5"/>
<text text-anchor="middle" x="501.5" y="-831.5" font-family="Helvetica,sans-Serif" font-size="10.00">free_redirs_and_argv</text>
</a>
</g>
</g>
<!-- Node3&#45;&gt;Node13 -->
<g id="edge12" class="edge">
<title>Node3&#45;&gt;Node13</title>
<path fill="none" stroke="#63b8ff" d="M367.12,-786.53C384.45,-794.73 410.55,-806.54 434,-815 440.37,-817.3 447.17,-819.51 453.89,-821.55"/>
<polygon fill="#63b8ff" stroke="#63b8ff" points="453.05,-824.95 463.63,-824.43 455.03,-818.24 453.05,-824.95"/>
</g>
<!-- Node15 -->
<g id="node15" class="node">
<title>Node15</title>
<g id="a_node15"><a xlink:href="parse__command_8c.html#a8840f41f4fb4f5cd6b85713c18d2eda3" target="_top" xlink:title=" ">
<polygon fill="white" stroke="#666666" points="569,-1012.5 434,-1012.5 434,-993.5 569,-993.5 569,-1012.5"/>
<text text-anchor="middle" x="501.5" y="-1000.5" font-family="Helvetica,sans-Serif" font-size="10.00">parse_command_tokens</text>
</a>
</g>
</g>
<!-- Node3&#45;&gt;Node15 -->
<g id="edge16" class="edge">
<title>Node3&#45;&gt;Node15</title>
<path fill="none" stroke="#63b8ff" d="M354.07,-786.71C377.57,-821.41 457.59,-939.61 488.33,-985.03"/>
<polygon fill="#63b8ff" stroke="#63b8ff" points="485.45,-987.01 493.95,-993.33 491.24,-983.08 485.45,-987.01"/>
</g>
<!-- Node5 -->
<g id="node5" class="node">
<title>Node5</title>
<g id="a_node5"><a xlink:href="ast__new__redirect_8c.html#aae99986c9d10db89d56c310f77b3490d" target="_top" xlink:title=" ">
<polygon fill="white" stroke="#666666" points="722,-918.5 622,-918.5 622,-899.5 722,-899.5 722,-918.5"/>
<text text-anchor="middle" x="672" y="-906.5" font-family="Helvetica,sans-Serif" font-size="10.00">ast_new_redirect</text>
</a>
</g>
</g>
<!-- Node4&#45;&gt;Node5 -->
<g id="edge4" class="edge">
<title>Node4&#45;&gt;Node5</title>
<path fill="none" stroke="#63b8ff" d="M545.02,-880.59C567.46,-885.65 595.17,-891.9 618.89,-897.25"/>
<polygon fill="#63b8ff" stroke="#63b8ff" points="618.26,-900.69 628.79,-899.48 619.8,-893.87 618.26,-900.69"/>
</g>
<!-- Node6 -->
<g id="node6" class="node">
<title>Node6</title>
<g id="a_node6"><a xlink:href="parse__command_8c.html#a7dbef10d59c414dc5337f293697588b4" target="_top" xlink:title=" ">
<polygon fill="white" stroke="#666666" points="717.5,-881.5 626.5,-881.5 626.5,-862.5 717.5,-862.5 717.5,-881.5"/>
<text text-anchor="middle" x="672" y="-869.5" font-family="Helvetica,sans-Serif" font-size="10.00">free_redir_data</text>
</a>
</g>
</g>
<!-- Node4&#45;&gt;Node6 -->
<g id="edge5" class="edge">
<title>Node4&#45;&gt;Node6</title>
<path fill="none" stroke="#63b8ff" d="M547.65,-871.27C568.69,-871.39 593.91,-871.54 616.05,-871.67"/>
<polygon fill="#63b8ff" stroke="#63b8ff" points="616.28,-875.18 626.3,-871.73 616.33,-868.18 616.28,-875.18"/>
</g>
<!-- Node7 -->
<g id="node7" class="node">
<title>Node7</title>
<g id="a_node7"><a xlink:href="list_8h.html#a68908a98f87b64d0b0fa9ac090a70cad" target="_top" xlink:title=" ">
<polygon fill="white" stroke="#666666" points="710.5,-844.5 633.5,-844.5 633.5,-825.5 710.5,-825.5 710.5,-844.5"/>
<text text-anchor="middle" x="672" y="-832.5" font-family="Helvetica,sans-Serif" font-size="10.00">my_free_list</text>
</a>
</g>
</g>
<!-- Node4&#45;&gt;Node7 -->
<g id="edge6" class="edge">
<title>Node4&#45;&gt;Node7</title>
<path fill="none" stroke="#63b8ff" d="M547.21,-861.45C570.76,-856.42 599.63,-850.25 623.57,-845.13"/>
<polygon fill="#63b8ff" stroke="#63b8ff" points="624.45,-848.52 633.5,-843.01 622.99,-841.68 624.45,-848.52"/>
</g>
<!-- Node10 -->
<g id="node10" class="node">
<title>Node10</title>
<g id="a_node10"><a xlink:href="parse__command_8c.html#abc5df8494b113888ca215c412a63e364" target="_top" xlink:title=" ">
<polygon fill="white" stroke="#666666" points="719.5,-730.5 624.5,-730.5 624.5,-711.5 719.5,-711.5 719.5,-730.5"/>
<text text-anchor="middle" x="672" y="-718.5" font-family="Helvetica,sans-Serif" font-size="10.00">redirect_conflict</text>
</a>
</g>
</g>
<!-- Node9&#45;&gt;Node10 -->
<g id="edge9" class="edge">
<title>Node9&#45;&gt;Node10</title>
<path fill="none" stroke="#63b8ff" d="M548.1,-721C568.54,-721 592.87,-721 614.46,-721"/>
<polygon fill="#63b8ff" stroke="#63b8ff" points="614.49,-724.5 624.49,-721 614.49,-717.5 614.49,-724.5"/>
</g>
<!-- Node10&#45;&gt;Node11 -->
<g id="edge10" class="edge">
<title>Node10&#45;&gt;Node11</title>
<path fill="none" stroke="#63b8ff" d="M711.28,-711.42C720.92,-707.88 730.83,-703.18 739,-697 785.67,-661.71 820.48,-600.11 836.02,-569.06"/>
<polygon fill="#63b8ff" stroke="#63b8ff" points="839.31,-570.3 840.55,-559.78 833.02,-567.23 839.31,-570.3"/>
</g>
<!-- Node13&#45;&gt;Node6 -->
<g id="edge13" class="edge">
<title>Node13&#45;&gt;Node6</title>
<path fill="none" stroke="#63b8ff" d="M545.02,-843.59C567.46,-848.65 595.17,-854.9 618.89,-860.25"/>
<polygon fill="#63b8ff" stroke="#63b8ff" points="618.26,-863.69 628.79,-862.48 619.8,-856.87 618.26,-863.69"/>
</g>
<!-- Node13&#45;&gt;Node7 -->
<g id="edge14" class="edge">
<title>Node13&#45;&gt;Node7</title>
<path fill="none" stroke="#63b8ff" d="M561.43,-834.35C581.71,-834.47 604.13,-834.6 623.39,-834.72"/>
<polygon fill="#63b8ff" stroke="#63b8ff" points="623.41,-838.22 633.43,-834.78 623.46,-831.22 623.41,-838.22"/>
</g>
<!-- Node14 -->
<g id="node14" class="node">
<title>Node14</title>
<g id="a_node14"><a xlink:href="misc_8h.html#a1180cae2875b1fdcd58c9f9175a82c12" target="_top" xlink:title=" ">
<polygon fill="white" stroke="#666666" points="1070,-484.5 953,-484.5 953,-465.5 1070,-465.5 1070,-484.5"/>
<text text-anchor="middle" x="1011.5" y="-472.5" font-family="Helvetica,sans-Serif" font-size="10.00">my_free_word_array</text>
</a>
</g>
</g>
<!-- Node13&#45;&gt;Node14 -->
<g id="edge15" class="edge">
<title>Node13&#45;&gt;Node14</title>
<path fill="none" stroke="#63b8ff" d="M540.09,-824.42C588.83,-810.84 675.14,-782.8 739,-740 851.83,-664.39 959.05,-538.64 996.49,-492.59"/>
<polygon fill="#63b8ff" stroke="#63b8ff" points="999.29,-494.7 1002.84,-484.72 993.84,-490.3 999.29,-494.7"/>
</g>
<!-- Node16 -->
<g id="node16" class="node">
<title>Node16</title>
<g id="a_node16"><a xlink:href="parse__command_8c.html#a0e3a99ca004123ac0d21254878ed52b9" target="_top" xlink:title=" ">
<polygon fill="white" stroke="#666666" points="722,-994.5 622,-994.5 622,-975.5 722,-975.5 722,-994.5"/>
<text text-anchor="middle" x="672" y="-982.5" font-family="Helvetica,sans-Serif" font-size="10.00">is_redirect_token</text>
</a>
</g>
</g>
<!-- Node15&#45;&gt;Node16 -->
<g id="edge17" class="edge">
<title>Node15&#45;&gt;Node16</title>
<path fill="none" stroke="#63b8ff" d="M569.1,-995.89C583.1,-994.39 597.78,-992.82 611.5,-991.36"/>
<polygon fill="#63b8ff" stroke="#63b8ff" points="612.21,-994.8 621.78,-990.26 611.46,-987.84 612.21,-994.8"/>
</g>
<!-- Node17 -->
<g id="node17" class="node">
<title>Node17</title>
<g id="a_node17"><a xlink:href="parse__command_8c.html#a4266be6fcfc7d05d42f865fa0cf07412" target="_top" xlink:title=" ">
<polygon fill="white" stroke="#666666" points="739,-1031.5 605,-1031.5 605,-1012.5 739,-1012.5 739,-1031.5"/>
<text text-anchor="middle" x="672" y="-1019.5" font-family="Helvetica,sans-Serif" font-size="10.00">parse_redirection_token</text>
</a>
</g>
</g>
<!-- Node15&#45;&gt;Node17 -->
<g id="edge18" class="edge">
<title>Node15&#45;&gt;Node17</title>
<path fill="none" stroke="#63b8ff" d="M569.1,-1010.51C577.56,-1011.46 586.27,-1012.45 594.87,-1013.42"/>
<polygon fill="#63b8ff" stroke="#63b8ff" points="594.56,-1016.9 604.89,-1014.55 595.34,-1009.95 594.56,-1016.9"/>
</g>
<!-- Node59 -->
<g id="node31" class="node">
<title>Node59</title>
<g id="a_node31"><a xlink:href="parse__command_8c.html#a9e6378c3e784ff75e9265f1dec09190b" target="_top" xlink:title=" ">
<polygon fill="white" stroke="#666666" points="724.5,-1068.5 619.5,-1068.5 619.5,-1049.5 724.5,-1049.5 724.5,-1068.5"/>
<text text-anchor="middle" x="672" y="-1056.5" font-family="Helvetica,sans-Serif" font-size="10.00">parse_word_token</text>
</a>
</g>
</g>
<!-- Node15&#45;&gt;Node59 -->
<g id="edge37" class="edge">
<title>Node15&#45;&gt;Node59</title>
<path fill="none" stroke="#63b8ff" d="M526.31,-1012.51C546.96,-1020.59 577.71,-1032.24 605,-1041 611.09,-1042.95 617.53,-1044.88 623.91,-1046.71"/>
<polygon fill="#63b8ff" stroke="#63b8ff" points="623.25,-1050.16 633.83,-1049.48 625.14,-1043.42 623.25,-1050.16"/>
</g>
<!-- Node17&#45;&gt;Node11 -->
<g id="edge36" class="edge">
<title>Node17&#45;&gt;Node11</title>
<path fill="none" stroke="#63b8ff" d="M727.63,-1012.49C731.83,-1010.21 735.7,-1007.42 739,-1004 770.25,-971.58 827.27,-652.47 841.64,-569.59"/>
<polygon fill="#63b8ff" stroke="#63b8ff" points="845.13,-569.96 843.38,-559.51 838.23,-568.77 845.13,-569.96"/>
</g>
<!-- Node18 -->
<g id="node18" class="node">
<title>Node18</title>
<g id="a_node18"><a xlink:href="list_8h.html#a18e592f6f160bc93dbb7e5d788a6f2e1" target="_top" xlink:title=" ">
<polygon fill="white" stroke="#666666" points="903,-1031.5 789,-1031.5 789,-1012.5 903,-1012.5 903,-1031.5"/>
<text text-anchor="middle" x="846" y="-1019.5" font-family="Helvetica,sans-Serif" font-size="10.00">my_add_to_list_end</text>
</a>
</g>
</g>
<!-- Node17&#45;&gt;Node18 -->
<g id="edge19" class="edge">
<title>Node17&#45;&gt;Node18</title>
<path fill="none" stroke="#63b8ff" d="M739.01,-1022C752.01,-1022 765.67,-1022 778.68,-1022"/>
<polygon fill="#63b8ff" stroke="#63b8ff" points="778.96,-1025.5 788.96,-1022 778.96,-1018.5 778.96,-1025.5"/>
</g>
<!-- Node19 -->
<g id="node19" class="node">
<title>Node19</title>
<g id="a_node19"><a xlink:href="parser__next_8c.html#ad25986b565a767c6ad7d0b0b8846fca6" target="_top" xlink:title=" ">
<polygon fill="white" stroke="#666666" points="883,-956.5 809,-956.5 809,-937.5 883,-937.5 883,-956.5"/>
<text text-anchor="middle" x="846" y="-944.5" font-family="Helvetica,sans-Serif" font-size="10.00">parser_next</text>
</a>
</g>
</g>
<!-- Node17&#45;&gt;Node19 -->
<g id="edge20" class="edge">
<title>Node17&#45;&gt;Node19</title>
<path fill="none" stroke="#63b8ff" d="M713.62,-1012.48C722.12,-1010.06 730.95,-1007.21 739,-1004 768.41,-992.26 800.16,-974.44 821.16,-961.86"/>
<polygon fill="#63b8ff" stroke="#63b8ff" points="823,-964.83 829.73,-956.65 819.37,-958.85 823,-964.83"/>
</g>
<!-- Node20 -->
<g id="node20" class="node">
<title>Node20</title>
<g id="a_node20"><a xlink:href="lexer__next__token_8c.html#a3def5432329709fb4df861d90672c510" target="_top" xlink:title=" ">
<polygon fill="white" stroke="#666666" points="1061.5,-974.5 961.5,-974.5 961.5,-955.5 1061.5,-955.5 1061.5,-974.5"/>
<text text-anchor="middle" x="1011.5" y="-962.5" font-family="Helvetica,sans-Serif" font-size="10.00">lexer_next_token</text>
</a>
</g>
</g>
<!-- Node19&#45;&gt;Node20 -->
<g id="edge21" class="edge">
<title>Node19&#45;&gt;Node20</title>
<path fill="none" stroke="#63b8ff" d="M883.29,-950.99C903.19,-953.19 928.37,-955.96 951.07,-958.46"/>
<polygon fill="#63b8ff" stroke="#63b8ff" points="950.97,-961.97 961.29,-959.58 951.74,-955.01 950.97,-961.97"/>
</g>
<!-- Node58 -->
<g id="node30" class="node">
<title>Node58</title>
<g id="a_node30"><a xlink:href="destroy__token_8c.html#ad1a471ee7b1ccb035d769be1152a370c" target="_top" xlink:title=" ">
<polygon fill="white" stroke="#666666" points="1054.5,-937.5 968.5,-937.5 968.5,-918.5 1054.5,-918.5 1054.5,-937.5"/>
<text text-anchor="middle" x="1011.5" y="-925.5" font-family="Helvetica,sans-Serif" font-size="10.00">token_destroy</text>
</a>
</g>
</g>
<!-- Node19&#45;&gt;Node58 -->
<g id="edge35" class="edge">
<title>Node19&#45;&gt;Node58</title>
<path fill="none" stroke="#63b8ff" d="M883.29,-942.78C905.27,-940.23 933.67,-936.93 958.07,-934.09"/>
<polygon fill="#63b8ff" stroke="#63b8ff" points="958.72,-937.54 968.25,-932.91 957.91,-930.59 958.72,-937.54"/>
</g>
<!-- Node21 -->
<g id="node21" class="node">
<title>Node21</title>
<g id="a_node21"><a xlink:href="create__token_8c.html#a15bcfc92177012893c626ce7d2d6bb6b" target="_top" xlink:title=" ">
<polygon fill="white" stroke="#666666" points="1347,-1049.5 1267,-1049.5 1267,-1030.5 1347,-1030.5 1347,-1049.5"/>
<text text-anchor="middle" x="1307" y="-1037.5" font-family="Helvetica,sans-Serif" font-size="10.00">create_token</text>
</a>
</g>
</g>
<!-- Node20&#45;&gt;Node21 -->
<g id="edge22" class="edge">
<title>Node20&#45;&gt;Node21</title>
<path fill="none" stroke="#63b8ff" d="M1061.91,-962.12C1107.33,-961.17 1175.78,-964.09 1231,-985 1253.22,-993.41 1274.67,-1010.32 1288.9,-1023.18"/>
<polygon fill="#63b8ff" stroke="#63b8ff" points="1286.7,-1025.92 1296.39,-1030.19 1291.48,-1020.81 1286.7,-1025.92"/>
</g>
<!-- Node22 -->
<g id="node22" class="node">
<title>Node22</title>
<g id="a_node22"><a xlink:href="lexer__next__token_8c.html#add2e1acaa9518ecf20b6670ad91a5c65" target="_top" xlink:title=" ">
<polygon fill="#fff0f0" stroke="red" points="1219.5,-936.5 1117.5,-936.5 1117.5,-917.5 1219.5,-917.5 1219.5,-936.5"/>
<text text-anchor="middle" x="1168.5" y="-924.5" font-family="Helvetica,sans-Serif" font-size="10.00">get_logical_token</text>
</a>
</g>
</g>
<!-- Node20&#45;&gt;Node22 -->
<g id="edge23" class="edge">
<title>Node20&#45;&gt;Node22</title>
<path fill="none" stroke="#63b8ff" d="M1051.61,-955.41C1071.97,-950.42 1097.07,-944.27 1118.69,-938.97"/>
<polygon fill="#63b8ff" stroke="#63b8ff" points="1119.79,-942.3 1128.67,-936.52 1118.12,-935.5 1119.79,-942.3"/>
</g>
<!-- Node26 -->
<g id="node23" class="node">
<title>Node26</title>
<g id="a_node23"><a xlink:href="lexer__next__token_8c.html#abcee8a7ba5ea6ca80c0bd7e3dd8d9a32" target="_top" xlink:title=" ">
<polygon fill="#fff0f0" stroke="red" points="1229.5,-899.5 1107.5,-899.5 1107.5,-880.5 1229.5,-880.5 1229.5,-899.5"/>
<text text-anchor="middle" x="1168.5" y="-887.5" font-family="Helvetica,sans-Serif" font-size="10.00">get_redirection_token</text>
</a>
</g>
</g>
<!-- Node20&#45;&gt;Node26 -->
<g id="edge24" class="edge">
<title>Node20&#45;&gt;Node26</title>
<path fill="none" stroke="#63b8ff" d="M1052.34,-955.46C1058.49,-953.17 1064.59,-950.38 1070,-947 1089.74,-934.68 1086.24,-921.28 1106,-909 1109.37,-906.9 1113,-905.02 1116.73,-903.34"/>
<polygon fill="#63b8ff" stroke="#63b8ff" points="1118.21,-906.52 1126.18,-899.54 1115.6,-900.02 1118.21,-906.52"/>
</g>
<!-- Node31 -->
<g id="node24" class="node">
<title>Node31</title>
<g id="a_node24"><a xlink:href="lexer__newline_8c.html#a9f60bf18297b9c705fa6cdff027c79fc" target="_top" xlink:title=" ">
<polygon fill="white" stroke="#666666" points="1210.5,-1123.5 1126.5,-1123.5 1126.5,-1104.5 1210.5,-1104.5 1210.5,-1123.5"/>
<text text-anchor="middle" x="1168.5" y="-1111.5" font-family="Helvetica,sans-Serif" font-size="10.00">lexer_newline</text>
</a>
</g>
</g>
<!-- Node20&#45;&gt;Node31 -->
<g id="edge25" class="edge">
<title>Node20&#45;&gt;Node31</title>
<path fill="none" stroke="#63b8ff" d="M1020.16,-974.68C1031.39,-988.97 1052.85,-1016.65 1070,-1041 1086.82,-1064.89 1082.53,-1078.6 1106,-1096 1109.37,-1098.5 1113.08,-1100.65 1116.95,-1102.5"/>
<polygon fill="#63b8ff" stroke="#63b8ff" points="1115.64,-1105.75 1126.22,-1106.31 1118.3,-1099.27 1115.64,-1105.75"/>
</g>
<!-- Node32 -->
<g id="node25" class="node">
<title>Node32</title>
<g id="a_node25"><a xlink:href="lexer__parenthesis_8c.html#a2b13eaa0fee255bea85bd4279f369795" target="_top" xlink:title=" ">
<polygon fill="white" stroke="#666666" points="1220,-1086.5 1117,-1086.5 1117,-1067.5 1220,-1067.5 1220,-1086.5"/>
<text text-anchor="middle" x="1168.5" y="-1074.5" font-family="Helvetica,sans-Serif" font-size="10.00">lexer_parenthesis</text>
</a>
</g>
</g>
<!-- Node20&#45;&gt;Node32 -->
<g id="edge27" class="edge">
<title>Node20&#45;&gt;Node32</title>
<path fill="none" stroke="#63b8ff" d="M1019.32,-974.56C1033.36,-993.53 1067.42,-1036.06 1106,-1059 1108.82,-1060.68 1111.81,-1062.21 1114.89,-1063.6"/>
<polygon fill="#63b8ff" stroke="#63b8ff" points="1113.73,-1066.91 1124.32,-1067.39 1116.34,-1060.41 1113.73,-1066.91"/>
</g>
<!-- Node33 -->
<g id="node26" class="node">
<title>Node33</title>
<g id="a_node26"><a xlink:href="lexer__semicolon_8c.html#a1612109b245d9780427946e4e33b01b7" target="_top" xlink:title=" ">
<polygon fill="white" stroke="#666666" points="1216.5,-1049.5 1120.5,-1049.5 1120.5,-1030.5 1216.5,-1030.5 1216.5,-1049.5"/>
<text text-anchor="middle" x="1168.5" y="-1037.5" font-family="Helvetica,sans-Serif" font-size="10.00">lexer_semicolon</text>
</a>
</g>
</g>
<!-- Node20&#45;&gt;Node33 -->
<g id="edge29" class="edge">
<title>Node20&#45;&gt;Node33</title>
<path fill="none" stroke="#63b8ff" d="M1025.82,-974.68C1043.42,-987.1 1075.74,-1008.63 1106,-1022 1110.35,-1023.92 1114.96,-1025.7 1119.63,-1027.34"/>
<polygon fill="#63b8ff" stroke="#63b8ff" points="1118.62,-1030.69 1129.21,-1030.49 1120.8,-1024.04 1118.62,-1030.69"/>
</g>
<!-- Node34 -->
<g id="node27" class="node">
<title>Node34</title>
<g id="a_node27"><a xlink:href="lexer__word_8c.html#ac2600a9ba16009c4d8c114a118c54955" target="_top" xlink:title=" ">
<polygon fill="#fff0f0" stroke="red" points="1203.5,-1012.5 1133.5,-1012.5 1133.5,-993.5 1203.5,-993.5 1203.5,-1012.5"/>
<text text-anchor="middle" x="1168.5" y="-1000.5" font-family="Helvetica,sans-Serif" font-size="10.00">lexer_word</text>
</a>
</g>
</g>
<!-- Node20&#45;&gt;Node34 -->
<g id="edge31" class="edge">
<title>Node20&#45;&gt;Node34</title>
<path fill="none" stroke="#63b8ff" d="M1051.61,-974.59C1073.57,-979.97 1101.01,-986.7 1123.69,-992.26"/>
<polygon fill="#63b8ff" stroke="#63b8ff" points="1122.86,-995.66 1133.41,-994.64 1124.53,-988.86 1122.86,-995.66"/>
</g>
<!-- Node56 -->
<g id="node28" class="node">
<title>Node56</title>
<g id="a_node28"><a xlink:href="lexer__next__token_8c.html#a7f0a2dd2373821667a4d5381e7711aa0" target="_top" xlink:title=" ">
<polygon fill="white" stroke="#666666" points="1213,-862.5 1124,-862.5 1124,-843.5 1213,-843.5 1213,-862.5"/>
<text text-anchor="middle" x="1168.5" y="-850.5" font-family="Helvetica,sans-Serif" font-size="10.00">skip_comment</text>
</a>
</g>
</g>
<!-- Node20&#45;&gt;Node56 -->
<g id="edge33" class="edge">
<title>Node20&#45;&gt;Node56</title>
<path fill="none" stroke="#63b8ff" d="M1056.59,-955.44C1061.44,-953.19 1066.05,-950.42 1070,-947 1097.96,-922.81 1078,-896.14 1106,-872 1108.66,-869.7 1111.6,-867.69 1114.7,-865.91"/>
<polygon fill="#63b8ff" stroke="#63b8ff" points="1116.31,-869.02 1123.8,-861.53 1113.27,-862.72 1116.31,-869.02"/>
</g>
<!-- Node57 -->
<g id="node29" class="node">
<title>Node57</title>
<g id="a_node29"><a xlink:href="lexer__next__token_8c.html#a5b2052471d98cef2998e1367f9bf8f6d" target="_top" xlink:title=" ">
<polygon fill="white" stroke="#666666" points="1231,-825.5 1106,-825.5 1106,-806.5 1231,-806.5 1231,-825.5"/>
<text text-anchor="middle" x="1168.5" y="-813.5" font-family="Helvetica,sans-Serif" font-size="10.00">skip_spaces_and_tabs</text>
</a>
</g>
</g>
<!-- Node20&#45;&gt;Node57 -->
<g id="edge34" class="edge">
<title>Node20&#45;&gt;Node57</title>
<path fill="none" stroke="#63b8ff" d="M1058.2,-955.38C1062.54,-953.14 1066.58,-950.39 1070,-947 1107.11,-910.17 1068.82,-871.76 1106,-835 1107.46,-833.56 1109.03,-832.22 1110.68,-830.99"/>
<polygon fill="#63b8ff" stroke="#63b8ff" points="1112.79,-833.8 1119.53,-825.63 1109.17,-827.81 1112.79,-833.8"/>
</g>
<!-- Node31&#45;&gt;Node21 -->
<g id="edge26" class="edge">
<title>Node31&#45;&gt;Node21</title>
<path fill="none" stroke="#63b8ff" d="M1209.66,-1104.5C1216.94,-1102.15 1224.33,-1099.33 1231,-1096 1252.15,-1085.44 1273.48,-1068.8 1287.95,-1056.4"/>
<polygon fill="#63b8ff" stroke="#63b8ff" points="1290.42,-1058.89 1295.63,-1049.67 1285.8,-1053.63 1290.42,-1058.89"/>
</g>
<!-- Node32&#45;&gt;Node21 -->
<g id="edge28" class="edge">
<title>Node32&#45;&gt;Node21</title>
<path fill="none" stroke="#63b8ff" d="M1204.65,-1067.47C1221.71,-1062.85 1242.42,-1057.23 1260.65,-1052.29"/>
<polygon fill="#63b8ff" stroke="#63b8ff" points="1261.76,-1055.62 1270.49,-1049.62 1259.93,-1048.86 1261.76,-1055.62"/>
</g>
<!-- Node33&#45;&gt;Node21 -->
<g id="edge30" class="edge">
<title>Node33&#45;&gt;Node21</title>
<path fill="none" stroke="#63b8ff" d="M1216.86,-1040C1229.74,-1040 1243.72,-1040 1256.7,-1040"/>
<polygon fill="#63b8ff" stroke="#63b8ff" points="1256.86,-1043.5 1266.86,-1040 1256.86,-1036.5 1256.86,-1043.5"/>
</g>
<!-- Node34&#45;&gt;Node21 -->
<g id="edge32" class="edge">
<title>Node34&#45;&gt;Node21</title>
<path fill="none" stroke="#63b8ff" d="M1203.59,-1012.24C1221,-1016.96 1242.39,-1022.76 1261.12,-1027.83"/>
<polygon fill="#63b8ff" stroke="#63b8ff" points="1260.35,-1031.25 1270.92,-1030.49 1262.18,-1024.5 1260.35,-1031.25"/>
</g>
<!-- Node59&#45;&gt;Node19 -->
<g id="edge40" class="edge">
<title>Node59&#45;&gt;Node19</title>
<path fill="none" stroke="#63b8ff" d="M720.42,-1049.39C726.89,-1047.14 733.27,-1044.38 739,-1041 758.77,-1029.35 758.08,-1019.49 775,-1004 790.89,-989.45 809.9,-974.09 824.1,-962.99"/>
<polygon fill="#63b8ff" stroke="#63b8ff" points="826.49,-965.56 832.24,-956.67 822.2,-960.03 826.49,-965.56"/>
</g>
<!-- Node60 -->
<g id="node32" class="node">
<title>Node60</title>
<g id="a_node32"><a xlink:href="parser__globbing_8c.html#a89bf1b81ac8c9637cbe152bab8467dd7" target="_top" xlink:title=" ">
<polygon fill="#fff0f0" stroke="red" points="883,-1068.5 809,-1068.5 809,-1049.5 883,-1049.5 883,-1068.5"/>
<text text-anchor="middle" x="846" y="-1056.5" font-family="Helvetica,sans-Serif" font-size="10.00">parser_glob</text>
</a>
</g>
</g>
<!-- Node59&#45;&gt;Node60 -->
<g id="edge38" class="edge">
<title>Node59&#45;&gt;Node60</title>
<path fill="none" stroke="#63b8ff" d="M724.61,-1059C748.2,-1059 775.94,-1059 798.84,-1059"/>
<polygon fill="#63b8ff" stroke="#63b8ff" points="798.98,-1062.5 808.98,-1059 798.98,-1055.5 798.98,-1062.5"/>
</g>
<!-- Node61 -->
<g id="node33" class="node">
<title>Node61</title>
<g id="a_node33"><a xlink:href="parser__globbing_8c.html#a0c56750379c92ca65af3924a1358871d" target="_top" xlink:title=" ">
<polygon fill="#fff0f0" stroke="red" points="1058,-1068.5 965,-1068.5 965,-1049.5 1058,-1049.5 1058,-1068.5"/>
<text text-anchor="middle" x="1011.5" y="-1056.5" font-family="Helvetica,sans-Serif" font-size="10.00">add_glob_paths</text>
</a>
</g>
</g>
<!-- Node60&#45;&gt;Node61 -->
<g id="edge39" class="edge">
<title>Node60&#45;&gt;Node61</title>
<path fill="none" stroke="#63b8ff" d="M883.29,-1059C904.27,-1059 931.1,-1059 954.71,-1059"/>
<polygon fill="#63b8ff" stroke="#63b8ff" points="954.96,-1062.5 964.96,-1059 954.96,-1055.5 954.96,-1062.5"/>
</g>
<!-- Node64&#45;&gt;Node11 -->
<g id="edge52" class="edge">
<title>Node64&#45;&gt;Node11</title>
<path fill="none" stroke="#63b8ff" d="M541.7,-578.14C588.84,-587.75 670.21,-599.96 739,-588 765.77,-583.35 794.72,-572.54 815.59,-563.64"/>
<polygon fill="#63b8ff" stroke="#63b8ff" points="817.09,-566.8 824.85,-559.59 814.29,-560.39 817.09,-566.8"/>
</g>
<!-- Node64&#45;&gt;Node19 -->
<g id="edge51" class="edge">
<title>Node64&#45;&gt;Node19</title>
<path fill="none" stroke="#63b8ff" d="M506.21,-578.65C517.39,-606.63 553.13,-689.08 605,-740 654.02,-788.12 686.65,-772.53 739,-817 779.11,-851.07 815.41,-901.81 833.29,-928.71"/>
<polygon fill="#63b8ff" stroke="#63b8ff" points="830.42,-930.72 838.83,-937.17 836.28,-926.89 830.42,-930.72"/>
</g>
<!-- Node65 -->
<g id="node35" class="node">
<title>Node65</title>
<g id="a_node35"><a xlink:href="parse__repeat_8c.html#a0a32d8d269598695f2c1494ec2f0e078" target="_top" xlink:title=" ">
<polygon fill="white" stroke="#666666" points="715,-578.5 629,-578.5 629,-559.5 715,-559.5 715,-578.5"/>
<text text-anchor="middle" x="672" y="-566.5" font-family="Helvetica,sans-Serif" font-size="10.00">error_memory</text>
</a>
</g>
</g>
<!-- Node64&#45;&gt;Node65 -->
<g id="edge43" class="edge">
<title>Node64&#45;&gt;Node65</title>
<path fill="none" stroke="#63b8ff" d="M541.58,-569C564.57,-569 593.92,-569 618.86,-569"/>
<polygon fill="#63b8ff" stroke="#63b8ff" points="618.89,-572.5 628.89,-569 618.89,-565.5 618.89,-572.5"/>
</g>
<!-- Node66 -->
<g id="node36" class="node">
<title>Node66</title>
<g id="a_node36"><a xlink:href="parse__repeat_8c.html#a97ed6fd9ebaa31aca6181d065f712ef5" target="_top" xlink:title=" ">
<polygon fill="white" stroke="#666666" points="917,-388.5 775,-388.5 775,-369.5 917,-369.5 917,-388.5"/>
<text text-anchor="middle" x="846" y="-376.5" font-family="Helvetica,sans-Serif" font-size="10.00">error_too_few_arguments</text>
</a>
</g>
</g>
<!-- Node64&#45;&gt;Node66 -->
<g id="edge45" class="edge">
<title>Node64&#45;&gt;Node66</title>
<path fill="none" stroke="#63b8ff" d="M519.96,-559.32C575.95,-528.25 751.34,-430.96 818.49,-393.71"/>
<polygon fill="#63b8ff" stroke="#63b8ff" points="820.53,-396.58 827.58,-388.66 817.14,-390.45 820.53,-396.58"/>
</g>
<!-- Node67 -->
<g id="node37" class="node">
<title>Node67</title>
<g id="a_node37"><a xlink:href="strings_8h.html#a323aa24048c4eb482546b0ac2ad9f414" target="_top" xlink:title=" ">
<polygon fill="white" stroke="#666666" points="715,-654.5 629,-654.5 629,-635.5 715,-635.5 715,-654.5"/>
<text text-anchor="middle" x="672" y="-642.5" font-family="Helvetica,sans-Serif" font-size="10.00">my_str_isnum</text>
</a>
</g>
</g>
<!-- Node64&#45;&gt;Node67 -->
<g id="edge46" class="edge">
<title>Node64&#45;&gt;Node67</title>
<path fill="none" stroke="#63b8ff" d="M519.97,-578.68C540.12,-589.65 574.43,-607.74 605,-621 613.87,-624.85 623.58,-628.61 632.76,-631.98"/>
<polygon fill="#63b8ff" stroke="#63b8ff" points="631.85,-635.37 642.44,-635.46 634.22,-628.79 631.85,-635.37"/>
</g>
<!-- Node68 -->
<g id="node38" class="node">
<title>Node68</title>
<g id="a_node38"><a xlink:href="parse__repeat_8c.html#a0273b684efbdf444b9f131b68dc50979" target="_top" xlink:title=" ">
<polygon fill="white" stroke="#666666" points="722.5,-350.5 621.5,-350.5 621.5,-331.5 722.5,-331.5 722.5,-350.5"/>
<text text-anchor="middle" x="672" y="-338.5" font-family="Helvetica,sans-Serif" font-size="10.00">parse_repeat_ast</text>
</a>
</g>
</g>
<!-- Node64&#45;&gt;Node68 -->
<g id="edge47" class="edge">
<title>Node64&#45;&gt;Node68</title>
<path fill="none" stroke="#63b8ff" d="M504.65,-559.34C512.31,-527.03 541.33,-421.64 605,-365 609.55,-360.95 614.84,-357.57 620.41,-354.75"/>
<polygon fill="#63b8ff" stroke="#63b8ff" points="622.23,-357.76 629.95,-350.51 619.39,-351.37 622.23,-357.76"/>
</g>
<!-- Node65&#45;&gt;Node11 -->
<g id="edge44" class="edge">
<title>Node65&#45;&gt;Node11</title>
<path fill="none" stroke="#63b8ff" d="M715.08,-564.35C737.01,-561.93 764.14,-558.93 787.94,-556.3"/>
<polygon fill="#63b8ff" stroke="#63b8ff" points="788.35,-559.78 797.9,-555.2 787.58,-552.82 788.35,-559.78"/>
</g>
<!-- Node68&#45;&gt;Node1 -->
<g id="edge50" class="edge">
<title>Node68&#45;&gt;Node1</title>
<path fill="none" stroke="#63b8ff" d="M621.29,-335.17C547.73,-328.41 406.57,-322.6 295,-361 201.37,-393.22 113.48,-477.31 78.47,-513.75"/>
<polygon fill="#63b8ff" stroke="#63b8ff" points="75.79,-511.49 71.45,-521.16 80.87,-516.3 75.79,-511.49"/>
</g>
<!-- Node68&#45;&gt;Node66 -->
<g id="edge49" class="edge">
<title>Node68&#45;&gt;Node66</title>
<path fill="none" stroke="#63b8ff" d="M716.4,-350.59C739.41,-355.67 767.85,-361.96 792.13,-367.32"/>
<polygon fill="#63b8ff" stroke="#63b8ff" points="791.39,-370.74 801.91,-369.48 792.9,-363.91 791.39,-370.74"/>
</g>
<!-- Node69 -->
<g id="node39" class="node">
<title>Node69</title>
<g id="a_node39"><a xlink:href="ast__new__repeat_8c.html#af59c5154c726d4bd98250be6706a7cb9" target="_top" xlink:title=" ">
<polygon fill="white" stroke="#666666" points="893,-350.5 799,-350.5 799,-331.5 893,-331.5 893,-350.5"/>
<text text-anchor="middle" x="846" y="-338.5" font-family="Helvetica,sans-Serif" font-size="10.00">ast_new_repeat</text>
</a>
</g>
</g>
<!-- Node68&#45;&gt;Node69 -->
<g id="edge48" class="edge">
<title>Node68&#45;&gt;Node69</title>
<path fill="none" stroke="#63b8ff" d="M722.75,-341C743.38,-341 767.42,-341 788.7,-341"/>
<polygon fill="#63b8ff" stroke="#63b8ff" points="788.9,-344.5 798.9,-341 788.9,-337.5 788.9,-344.5"/>
</g>
<!-- Node70&#45;&gt;Node11 -->
<g id="edge79" class="edge">
<title>Node70&#45;&gt;Node11</title>
<path fill="none" stroke="#63b8ff" d="M253.74,-472.78C291.87,-472.07 348.65,-471.84 398,-475 550.39,-484.76 589.72,-484.84 739,-517 762.8,-522.13 788.93,-530.23 809.28,-537.12"/>
<polygon fill="#63b8ff" stroke="#63b8ff" points="808.18,-540.45 818.78,-540.39 810.46,-533.83 808.18,-540.45"/>
</g>
<!-- Node70&#45;&gt;Node19 -->
<g id="edge58" class="edge">
<title>Node70&#45;&gt;Node19</title>
<path fill="none" stroke="#63b8ff" d="M213.43,-483.57C221.94,-507.5 244.38,-572.01 259,-627 278.74,-701.22 252.08,-732.32 295,-796 407.45,-962.85 687.89,-959.96 798.8,-951.67"/>
<polygon fill="#63b8ff" stroke="#63b8ff" points="799.31,-955.14 809,-950.86 798.75,-948.17 799.31,-955.14"/>
</g>
<!-- Node71 -->
<g id="node41" class="node">
<title>Node71</title>
<g id="a_node41"><a xlink:href="ast__destroy_8c.html#a04c67d7ab492f6e1e7bc44dc70faa057" target="_top" xlink:title=" ">
<polygon fill="white" stroke="#666666" points="883,-161.5 809,-161.5 809,-142.5 883,-142.5 883,-161.5"/>
<text text-anchor="middle" x="846" y="-149.5" font-family="Helvetica,sans-Serif" font-size="10.00">ast_destroy</text>
</a>
</g>
</g>
<!-- Node70&#45;&gt;Node71 -->
<g id="edge54" class="edge">
<title>Node70&#45;&gt;Node71</title>
<path fill="none" stroke="#63b8ff" d="M214.67,-464.47C235.08,-423.73 320.47,-262.09 434,-171 542.96,-83.57 603.53,-60.89 739,-95 770.77,-103 803.39,-122.58 823.9,-136.56"/>
<polygon fill="#63b8ff" stroke="#63b8ff" points="821.96,-139.48 832.16,-142.34 825.97,-133.74 821.96,-139.48"/>
</g>
<!-- Node72 -->
<g id="node42" class="node">
<title>Node72</title>
<g id="a_node42"><a xlink:href="ast__new__subshell_8c.html#a43881f7fd9b7c05854a8f8fdc69bb81d" target="_top" xlink:title=" ">
<polygon fill="white" stroke="#666666" points="398,-502.5 295,-502.5 295,-483.5 398,-483.5 398,-502.5"/>
<text text-anchor="middle" x="346.5" y="-490.5" font-family="Helvetica,sans-Serif" font-size="10.00">ast_new_subshell</text>
</a>
</g>
</g>
<!-- Node70&#45;&gt;Node72 -->
<g id="edge57" class="edge">
<title>Node70&#45;&gt;Node72</title>
<path fill="none" stroke="#63b8ff" d="M253.62,-480.12C263.59,-481.51 274.35,-483.02 284.89,-484.5"/>
<polygon fill="#63b8ff" stroke="#63b8ff" points="284.5,-487.98 294.89,-485.9 285.47,-481.05 284.5,-487.98"/>
</g>
<!-- Node73 -->
<g id="node43" class="node">
<title>Node73</title>
<g id="a_node43"><a xlink:href="parser__parse_8c.html#ab56c1f0e36fe941facfe258418c2cc72" target="_top" xlink:title=" ">
<polygon fill="white" stroke="#666666" points="386.5,-389.5 306.5,-389.5 306.5,-370.5 386.5,-370.5 386.5,-389.5"/>
<text text-anchor="middle" x="346.5" y="-377.5" font-family="Helvetica,sans-Serif" font-size="10.00">parser_parse</text>
</a>
</g>
</g>
<!-- Node70&#45;&gt;Node73 -->
<g id="edge59" class="edge">
<title>Node70&#45;&gt;Node73</title>
<path fill="none" stroke="#63b8ff" d="M223.74,-464.47C247.17,-448.21 295.07,-414.98 323.31,-395.4"/>
<polygon fill="#63b8ff" stroke="#63b8ff" points="325.5,-398.13 331.73,-389.56 321.51,-392.38 325.5,-398.13"/>
</g>
<!-- Node71&#45;&gt;Node14 -->
<g id="edge56" class="edge">
<title>Node71&#45;&gt;Node14</title>
<path fill="none" stroke="#63b8ff" d="M855.42,-161.71C869.53,-178.31 898.23,-213.6 917,-247 958.29,-320.45 991.39,-415.83 1004.46,-455.92"/>
<polygon fill="#63b8ff" stroke="#63b8ff" points="1001.15,-457.05 1007.54,-465.5 1007.81,-454.91 1001.15,-457.05"/>
</g>
<!-- Node71&#45;&gt;Node71 -->
<g id="edge55" class="edge">
<title>Node71&#45;&gt;Node71</title>
<path fill="none" stroke="#63b8ff" d="M820.72,-161.58C808.43,-170.23 816.85,-179.5 846,-179.5 865.13,-179.5 875.33,-175.51 876.61,-170.32"/>
<polygon fill="#63b8ff" stroke="#63b8ff" points="879.48,-168.29 871.28,-161.58 873.5,-171.94 879.48,-168.29"/>
</g>
<!-- Node73&#45;&gt;Node11 -->
<g id="edge74" class="edge">
<title>Node73&#45;&gt;Node11</title>
<path fill="none" stroke="#63b8ff" d="M386.63,-388.11C472.53,-406.21 675.03,-450.52 739,-479 771.75,-493.59 805.47,-518.11 825.83,-534.18"/>
<polygon fill="#63b8ff" stroke="#63b8ff" points="823.71,-536.96 833.7,-540.49 828.09,-531.5 823.71,-536.96"/>
</g>
<!-- Node73&#45;&gt;Node71 -->
<g id="edge60" class="edge">
<title>Node73&#45;&gt;Node71</title>
<path fill="none" stroke="#63b8ff" d="M370.82,-370.49C379.62,-366.5 389.54,-361.51 398,-356 415.69,-344.48 415.87,-335.83 434,-325 558.63,-250.53 606.8,-268.02 739,-208 767.23,-195.18 798.5,-178.32 819.71,-166.46"/>
<polygon fill="#63b8ff" stroke="#63b8ff" points="821.42,-169.51 828.42,-161.56 817.99,-163.41 821.42,-169.51"/>
</g>
<!-- Node74 -->
<g id="node44" class="node">
<title>Node74</title>
<g id="a_node44"><a xlink:href="parse__sequence_8c.html#a1b3273ce0047a9f5b34da07c8ba9eb3e" target="_top" xlink:title=" ">
<polygon fill="white" stroke="#666666" points="549,-199.5 454,-199.5 454,-180.5 549,-180.5 549,-199.5"/>
<text text-anchor="middle" x="501.5" y="-187.5" font-family="Helvetica,sans-Serif" font-size="10.00">parse_sequence</text>
</a>
</g>
</g>
<!-- Node73&#45;&gt;Node74 -->
<g id="edge61" class="edge">
<title>Node73&#45;&gt;Node74</title>
<path fill="none" stroke="#63b8ff" d="M377.63,-370.41C385.08,-366.86 392.5,-362.15 398,-356 430.63,-319.56 407.32,-293 434,-252 445.87,-233.75 464.26,-217.17 478.69,-205.75"/>
<polygon fill="#63b8ff" stroke="#63b8ff" points="480.84,-208.52 486.65,-199.66 476.58,-202.96 480.84,-208.52"/>
</g>
<!-- Node84 -->
<g id="node49" class="node">
<title>Node84</title>
<g id="a_node49"><a xlink:href="parser__utils_8c.html#aef41660a9d240250899e27f88cd21e2c" target="_top" xlink:title=" ">
<polygon fill="white" stroke="#666666" points="719,-313.5 625,-313.5 625,-294.5 719,-294.5 719,-313.5"/>
<text text-anchor="middle" x="672" y="-301.5" font-family="Helvetica,sans-Serif" font-size="10.00">skip_separators</text>
</a>
</g>
</g>
<!-- Node73&#45;&gt;Node84 -->
<g id="edge78" class="edge">
<title>Node73&#45;&gt;Node84</title>
<path fill="none" stroke="#63b8ff" d="M386.52,-370.83C445.06,-357.08 555.64,-331.1 620.34,-315.9"/>
<polygon fill="#63b8ff" stroke="#63b8ff" points="621.38,-319.25 630.31,-313.56 619.78,-312.44 621.38,-319.25"/>
</g>
<!-- Node85 -->
<g id="node50" class="node">
<title>Node85</title>
<g id="a_node50"><a xlink:href="parser__parse_8c.html#ade740e98de82dc19569de5885d2950d1" target="_top" xlink:title=" ">
<polygon fill="white" stroke="#666666" points="546.5,-389.5 456.5,-389.5 456.5,-370.5 546.5,-370.5 546.5,-389.5"/>
<text text-anchor="middle" x="501.5" y="-377.5" font-family="Helvetica,sans-Serif" font-size="10.00">prepare_parser</text>
</a>
</g>
</g>
<!-- Node73&#45;&gt;Node85 -->
<g id="edge75" class="edge">
<title>Node73&#45;&gt;Node85</title>
<path fill="none" stroke="#63b8ff" d="M386.5,-380C404.67,-380 426.59,-380 446.34,-380"/>
<polygon fill="#63b8ff" stroke="#63b8ff" points="446.43,-383.5 456.43,-380 446.43,-376.5 446.43,-383.5"/>
</g>
<!-- Node74&#45;&gt;Node71 -->
<g id="edge67" class="edge">
<title>Node74&#45;&gt;Node71</title>
<path fill="none" stroke="#63b8ff" d="M548.26,-180.46C565.92,-177.06 586.34,-173.46 605,-171 671.98,-162.17 750.06,-156.91 798.52,-154.24"/>
<polygon fill="#63b8ff" stroke="#63b8ff" points="798.89,-157.73 808.69,-153.69 798.52,-150.74 798.89,-157.73"/>
</g>
<!-- Node75 -->
<g id="node45" class="node">
<title>Node75</title>
<g id="a_node45"><a xlink:href="parse__sequence_8c.html#a91144039e02d1b427e77fa8da5d55cef" target="_top" xlink:title=" ">
<polygon fill="#fff0f0" stroke="red" points="730,-123.5 614,-123.5 614,-104.5 730,-104.5 730,-123.5"/>
<text text-anchor="middle" x="672" y="-111.5" font-family="Helvetica,sans-Serif" font-size="10.00">add_sequence_node</text>
</a>
</g>
</g>
<!-- Node74&#45;&gt;Node75 -->
<g id="edge62" class="edge">
<title>Node74&#45;&gt;Node75</title>
<path fill="none" stroke="#63b8ff" d="M519.97,-180.32C540.12,-169.35 574.43,-151.26 605,-138 613.87,-134.15 623.58,-130.39 632.76,-127.02"/>
<polygon fill="#63b8ff" stroke="#63b8ff" points="634.22,-130.21 642.44,-123.54 631.85,-123.63 634.22,-130.21"/>
</g>
<!-- Node77 -->
<g id="node46" class="node">
<title>Node77</title>
<g id="a_node46"><a xlink:href="parse__logical__operator_8c.html#a0edc0de9f064d4908881e4c614efd7eb" target="_top" xlink:title=" ">
<polygon fill="#fff0f0" stroke="red" points="910,-85.5 782,-85.5 782,-66.5 910,-66.5 910,-85.5"/>
<text text-anchor="middle" x="846" y="-73.5" font-family="Helvetica,sans-Serif" font-size="10.00">parse_logical_operator</text>
</a>
</g>
</g>
<!-- Node74&#45;&gt;Node77 -->
<g id="edge70" class="edge">
<title>Node74&#45;&gt;Node77</title>
<path fill="none" stroke="#63b8ff" d="M509.35,-180.25C524.12,-160.1 561.23,-114.19 605,-95 657.44,-72 722.49,-68.18 771.64,-69.59"/>
<polygon fill="#63b8ff" stroke="#63b8ff" points="771.75,-73.1 781.87,-69.97 772.01,-66.11 771.75,-73.1"/>
</g>
<!-- Node82 -->
<g id="node47" class="node">
<title>Node82</title>
<g id="a_node47"><a xlink:href="parser__utils_8c.html#a58d1fcbbbf31e24aab676f2ba794b440" target="_top" xlink:title=" ">
<polygon fill="white" stroke="#666666" points="884.5,-275.5 807.5,-275.5 807.5,-256.5 884.5,-256.5 884.5,-275.5"/>
<text text-anchor="middle" x="846" y="-263.5" font-family="Helvetica,sans-Serif" font-size="10.00">is_separator</text>
</a>
</g>
</g>
<!-- Node74&#45;&gt;Node82 -->
<g id="edge68" class="edge">
<title>Node74&#45;&gt;Node82</title>
<path fill="none" stroke="#63b8ff" d="M545.53,-199.55C609.87,-213.83 730.71,-240.64 797.54,-255.47"/>
<polygon fill="#63b8ff" stroke="#63b8ff" points="796.87,-258.91 807.39,-257.65 798.39,-252.07 796.87,-258.91"/>
</g>
<!-- Node83 -->
<g id="node48" class="node">
<title>Node83</title>
<g id="a_node48"><a xlink:href="parser__utils_8c.html#a553f7ea17dfde0955c289f6e7a5fa23a" target="_top" xlink:title=" ">
<polygon fill="white" stroke="#666666" points="722,-199.5 622,-199.5 622,-180.5 722,-180.5 722,-199.5"/>
<text text-anchor="middle" x="672" y="-187.5" font-family="Helvetica,sans-Serif" font-size="10.00">is_sequence_end</text>
</a>
</g>
</g>
<!-- Node74&#45;&gt;Node83 -->
<g id="edge69" class="edge">
<title>Node74&#45;&gt;Node83</title>
<path fill="none" stroke="#63b8ff" d="M549.44,-190C568.76,-190 591.37,-190 611.82,-190"/>
<polygon fill="#63b8ff" stroke="#63b8ff" points="611.97,-193.5 621.97,-190 611.97,-186.5 611.97,-193.5"/>
</g>
<!-- Node74&#45;&gt;Node84 -->
<g id="edge71" class="edge">
<title>Node74&#45;&gt;Node84</title>
<path fill="none" stroke="#63b8ff" d="M516.58,-199.52C545.62,-219.17 612.43,-264.37 647.9,-288.37"/>
<polygon fill="#63b8ff" stroke="#63b8ff" points="646.36,-291.56 656.61,-294.26 650.29,-285.76 646.36,-291.56"/>
</g>
<!-- Node75&#45;&gt;Node11 -->
<g id="edge66" class="edge">
<title>Node75&#45;&gt;Node11</title>
<path fill="none" stroke="#63b8ff" d="M689.79,-123.66C705.23,-133.5 727.43,-150.23 739,-171 788.49,-259.86 745.57,-299.64 775,-397 790.28,-447.55 818.89,-503.01 834.38,-531.23"/>
<polygon fill="#63b8ff" stroke="#63b8ff" points="831.53,-533.3 839.45,-540.34 837.65,-529.9 831.53,-533.3"/>
</g>
<!-- Node75&#45;&gt;Node71 -->
<g id="edge63" class="edge">
<title>Node75&#45;&gt;Node71</title>
<path fill="none" stroke="#63b8ff" d="M716.4,-123.59C741.62,-129.16 773.37,-136.17 799.01,-141.84"/>
<polygon fill="#63b8ff" stroke="#63b8ff" points="798.35,-145.28 808.87,-144.02 799.86,-138.44 798.35,-145.28"/>
</g>
<!-- Node75&#45;&gt;Node77 -->
<g id="edge64" class="edge">
<title>Node75&#45;&gt;Node77</title>
<path fill="none" stroke="#63b8ff" d="M716.4,-104.41C739.41,-99.33 767.85,-93.04 792.13,-87.68"/>
<polygon fill="#63b8ff" stroke="#63b8ff" points="792.9,-91.09 801.91,-85.52 791.39,-84.26 792.9,-91.09"/>
</g>
<!-- Node77&#45;&gt;Node1 -->
<g id="edge65" class="edge">
<title>Node77&#45;&gt;Node1</title>
<path fill="none" stroke="#63b8ff" d="M819.65,-66.37C763.44,-45.92 623.71,0 502.5,0 345.5,0 345.5,0 345.5,0 109.1,0 69.5,-414.94 63.5,-511.22"/>
<polygon fill="#63b8ff" stroke="#63b8ff" points="60,-511.15 62.92,-521.33 66.98,-511.55 60,-511.15"/>
</g>
<!-- Node84&#45;&gt;Node19 -->
<g id="edge73" class="edge">
<title>Node84&#45;&gt;Node19</title>
<path fill="none" stroke="#63b8ff" d="M719.18,-309.2C726.69,-311.97 733.73,-316.04 739,-322 775.77,-363.53 765.95,-514.27 775,-569 797.77,-706.68 830.04,-871.63 841.1,-927.45"/>
<polygon fill="#63b8ff" stroke="#63b8ff" points="837.7,-928.26 843.08,-937.39 844.56,-926.9 837.7,-928.26"/>
</g>
<!-- Node84&#45;&gt;Node82 -->
<g id="edge72" class="edge">
<title>Node84&#45;&gt;Node82</title>
<path fill="none" stroke="#63b8ff" d="M716.4,-294.41C741.18,-288.94 772.26,-282.07 797.67,-276.46"/>
<polygon fill="#63b8ff" stroke="#63b8ff" points="798.44,-279.87 807.45,-274.3 796.93,-273.04 798.44,-279.87"/>
</g>
<!-- Node85&#45;&gt;Node11 -->
<g id="edge76" class="edge">
<title>Node85&#45;&gt;Node11</title>
<path fill="none" stroke="#63b8ff" d="M546.62,-384.16C596.26,-390.42 677.94,-405.56 739,-441 779.49,-464.5 814.75,-507.75 832.6,-532.11"/>
<polygon fill="#63b8ff" stroke="#63b8ff" points="829.89,-534.34 838.56,-540.44 835.58,-530.27 829.89,-534.34"/>
</g>
<!-- Node85&#45;&gt;Node84 -->
<g id="edge77" class="edge">
<title>Node85&#45;&gt;Node84</title>
<path fill="none" stroke="#63b8ff" d="M537.22,-370.48C547.84,-366.78 559.28,-361.98 569,-356 587.74,-344.47 585.81,-332.77 605,-322 608.25,-320.18 611.69,-318.53 615.23,-317.05"/>
<polygon fill="#63b8ff" stroke="#63b8ff" points="616.62,-320.26 624.76,-313.48 614.16,-313.71 616.62,-320.26"/>
</g>
</g>
</svg>
