<?xml version="1.0" encoding="UTF-8" standalone="no"?>
<!DOCTYPE svg PUBLIC "-//W3C//DTD SVG 1.1//EN"
 "http://www.w3.org/Graphics/SVG/1.1/DTD/svg11.dtd">
<!-- Generated by graphviz version 2.43.0 (0)
 -->
<!-- Title: src/parser/tokens/parse_sequence.c Pages: 1 -->
<svg width="275pt" height="313pt"
 viewBox="0.00 0.00 274.50 313.00" xmlns="http://www.w3.org/2000/svg" xmlns:xlink="http://www.w3.org/1999/xlink">
<g id="graph0" class="graph" transform="scale(1 1) rotate(0) translate(4 309)">
<title>src/parser/tokens/parse_sequence.c</title>
<!-- Node1 -->
<g id="node1" class="node">
<title>Node1</title>
<g id="a_node1"><a xlink:title=" ">
<polygon fill="#999999" stroke="#666666" points="149,-305 19,-305 19,-275 149,-275 149,-305"/>
<text text-anchor="start" x="27" y="-293" font-family="Helvetica,sans-Serif" font-size="10.00">src/parser/tokens/parse</text>
<text text-anchor="middle" x="84" y="-282" font-family="Helvetica,sans-Serif" font-size="10.00">_sequence.c</text>
</a>
</g>
</g>
<!-- Node2 -->
<g id="node2" class="node">
<title>Node2</title>
<g id="a_node2"><a xlink:href="ast_8h.html" target="_top" xlink:title=" ">
<polygon fill="white" stroke="#666666" points="73.5,-184 32.5,-184 32.5,-165 73.5,-165 73.5,-184"/>
<text text-anchor="middle" x="53" y="-172" font-family="Helvetica,sans-Serif" font-size="10.00">ast.h</text>
</a>
</g>
</g>
<!-- Node1&#45;&gt;Node2 -->
<g id="edge1" class="edge">
<title>Node1&#45;&gt;Node2</title>
<path fill="none" stroke="#63b8ff" d="M80.07,-274.63C74.47,-254.12 64.19,-216.47 58.04,-193.93"/>
<polygon fill="#63b8ff" stroke="#63b8ff" points="61.4,-192.95 55.38,-184.23 54.64,-194.8 61.4,-192.95"/>
</g>
<!-- Node4 -->
<g id="node4" class="node">
<title>Node4</title>
<g id="a_node4"><a xlink:href="parser_8h.html" target="_top" xlink:title=" ">
<polygon fill="white" stroke="#666666" points="142,-239 86,-239 86,-220 142,-220 142,-239"/>
<text text-anchor="middle" x="114" y="-227" font-family="Helvetica,sans-Serif" font-size="10.00">parser.h</text>
</a>
</g>
</g>
<!-- Node1&#45;&gt;Node4 -->
<g id="edge3" class="edge">
<title>Node1&#45;&gt;Node4</title>
<path fill="none" stroke="#63b8ff" d="M91.26,-274.84C95.35,-266.87 100.49,-256.84 104.86,-248.33"/>
<polygon fill="#63b8ff" stroke="#63b8ff" points="108.06,-249.76 109.5,-239.27 101.83,-246.57 108.06,-249.76"/>
</g>
<!-- Node3 -->
<g id="node3" class="node">
<title>Node3</title>
<g id="a_node3"><a xlink:title=" ">
<polygon fill="#e0e0e0" stroke="#999999" points="56,-19 0,-19 0,0 56,0 56,-19"/>
<text text-anchor="middle" x="28" y="-7" font-family="Helvetica,sans-Serif" font-size="10.00">stddef.h</text>
</a>
</g>
</g>
<!-- Node2&#45;&gt;Node3 -->
<g id="edge2" class="edge">
<title>Node2&#45;&gt;Node3</title>
<path fill="none" stroke="#63b8ff" d="M42.01,-164.99C32.55,-156.9 19.57,-143.81 14,-129 1.29,-95.2 12.38,-52.49 20.75,-28.68"/>
<polygon fill="#63b8ff" stroke="#63b8ff" points="24.08,-29.75 24.31,-19.16 17.53,-27.3 24.08,-29.75"/>
</g>
<!-- Node4&#45;&gt;Node2 -->
<g id="edge4" class="edge">
<title>Node4&#45;&gt;Node2</title>
<path fill="none" stroke="#63b8ff" d="M104.2,-219.98C95.18,-212.15 81.59,-200.34 70.68,-190.86"/>
<polygon fill="#63b8ff" stroke="#63b8ff" points="72.82,-188.09 62.98,-184.17 68.23,-193.37 72.82,-188.09"/>
</g>
<!-- Node5 -->
<g id="node5" class="node">
<title>Node5</title>
<g id="a_node5"><a xlink:href="lexer_8h.html" target="_top" xlink:title=" ">
<polygon fill="white" stroke="#666666" points="140.5,-184 91.5,-184 91.5,-165 140.5,-165 140.5,-184"/>
<text text-anchor="middle" x="116" y="-172" font-family="Helvetica,sans-Serif" font-size="10.00">lexer.h</text>
</a>
</g>
</g>
<!-- Node4&#45;&gt;Node5 -->
<g id="edge5" class="edge">
<title>Node4&#45;&gt;Node5</title>
<path fill="none" stroke="#63b8ff" d="M114.33,-219.75C114.59,-212.8 114.97,-202.85 115.3,-194.13"/>
<polygon fill="#63b8ff" stroke="#63b8ff" points="118.8,-194.21 115.68,-184.09 111.8,-193.95 118.8,-194.21"/>
</g>
<!-- Node9 -->
<g id="node9" class="node">
<title>Node9</title>
<g id="a_node9"><a xlink:href="token_8h.html" target="_top" xlink:title=" ">
<polygon fill="white" stroke="#666666" points="266.5,-129 213.5,-129 213.5,-110 266.5,-110 266.5,-129"/>
<text text-anchor="middle" x="240" y="-117" font-family="Helvetica,sans-Serif" font-size="10.00">token.h</text>
</a>
</g>
</g>
<!-- Node4&#45;&gt;Node9 -->
<g id="edge12" class="edge">
<title>Node4&#45;&gt;Node9</title>
<path fill="none" stroke="#63b8ff" d="M124.31,-219.66C145.74,-201.3 195.3,-158.81 222.07,-135.87"/>
<polygon fill="#63b8ff" stroke="#63b8ff" points="224.58,-138.32 229.9,-129.16 220.03,-133.01 224.58,-138.32"/>
</g>
<!-- Node5&#45;&gt;Node3 -->
<g id="edge6" class="edge">
<title>Node5&#45;&gt;Node3</title>
<path fill="none" stroke="#63b8ff" d="M93.72,-164.97C78.09,-157.79 58.07,-145.95 47,-129 27.04,-98.43 25.5,-54.18 26.52,-29.31"/>
<polygon fill="#63b8ff" stroke="#63b8ff" points="30.03,-29.27 27.13,-19.08 23.04,-28.85 30.03,-29.27"/>
</g>
<!-- Node6 -->
<g id="node6" class="node">
<title>Node6</title>
<g id="a_node6"><a xlink:title=" ">
<polygon fill="#e0e0e0" stroke="#999999" points="128,-129 56,-129 56,-110 128,-110 128,-129"/>
<text text-anchor="middle" x="92" y="-117" font-family="Helvetica,sans-Serif" font-size="10.00">sys/types.h</text>
</a>
</g>
</g>
<!-- Node5&#45;&gt;Node6 -->
<g id="edge7" class="edge">
<title>Node5&#45;&gt;Node6</title>
<path fill="none" stroke="#63b8ff" d="M112.04,-164.75C108.79,-157.57 104.08,-147.18 100.05,-138.27"/>
<polygon fill="#63b8ff" stroke="#63b8ff" points="103.2,-136.75 95.89,-129.09 96.83,-139.64 103.2,-136.75"/>
</g>
<!-- Node7 -->
<g id="node7" class="node">
<title>Node7</title>
<g id="a_node7"><a xlink:href="shell_8h.html" target="_top" xlink:title=" ">
<polygon fill="white" stroke="#666666" points="195.5,-129 146.5,-129 146.5,-110 195.5,-110 195.5,-129"/>
<text text-anchor="middle" x="171" y="-117" font-family="Helvetica,sans-Serif" font-size="10.00">shell.h</text>
</a>
</g>
</g>
<!-- Node5&#45;&gt;Node7 -->
<g id="edge8" class="edge">
<title>Node5&#45;&gt;Node7</title>
<path fill="none" stroke="#63b8ff" d="M125.08,-164.75C133.09,-157.03 144.96,-145.6 154.62,-136.28"/>
<polygon fill="#63b8ff" stroke="#63b8ff" points="157.31,-138.55 162.09,-129.09 152.46,-133.51 157.31,-138.55"/>
</g>
<!-- Node5&#45;&gt;Node9 -->
<g id="edge11" class="edge">
<title>Node5&#45;&gt;Node9</title>
<path fill="none" stroke="#63b8ff" d="M135.92,-164.98C156.05,-156.38 187.38,-142.99 210.41,-133.15"/>
<polygon fill="#63b8ff" stroke="#63b8ff" points="211.9,-136.32 219.71,-129.17 209.14,-129.88 211.9,-136.32"/>
</g>
<!-- Node8 -->
<g id="node8" class="node">
<title>Node8</title>
<g id="a_node8"><a xlink:href="list_8h.html" target="_top" xlink:title=" ">
<polygon fill="white" stroke="#666666" points="157.5,-74 98.5,-74 98.5,-55 157.5,-55 157.5,-74"/>
<text text-anchor="middle" x="128" y="-62" font-family="Helvetica,sans-Serif" font-size="10.00">my/list.h</text>
</a>
</g>
</g>
<!-- Node7&#45;&gt;Node8 -->
<g id="edge9" class="edge">
<title>Node7&#45;&gt;Node8</title>
<path fill="none" stroke="#63b8ff" d="M163.9,-109.75C157.83,-102.26 148.91,-91.28 141.49,-82.13"/>
<polygon fill="#63b8ff" stroke="#63b8ff" points="143.99,-79.65 134.97,-74.09 138.55,-84.06 143.99,-79.65"/>
</g>
<!-- Node8&#45;&gt;Node3 -->
<g id="edge10" class="edge">
<title>Node8&#45;&gt;Node3</title>
<path fill="none" stroke="#63b8ff" d="M111.93,-54.98C96.14,-46.61 71.78,-33.7 53.37,-23.95"/>
<polygon fill="#63b8ff" stroke="#63b8ff" points="54.83,-20.76 44.36,-19.17 51.56,-26.95 54.83,-20.76"/>
</g>
</g>
</svg>
