<?xml version="1.0" encoding="UTF-8" standalone="no"?>
<!DOCTYPE svg PUBLIC "-//W3C//DTD SVG 1.1//EN"
 "http://www.w3.org/Graphics/SVG/1.1/DTD/svg11.dtd">
<!-- Generated by graphviz version 2.43.0 (0)
 -->
<!-- Title: parse_command Pages: 1 -->
<svg width="1385pt" height="715pt"
 viewBox="0.00 0.00 1385.00 715.00" xmlns="http://www.w3.org/2000/svg" xmlns:xlink="http://www.w3.org/1999/xlink">
<g id="graph0" class="graph" transform="scale(1 1) rotate(0) translate(4 711)">
<title>parse_command</title>
<!-- Node1 -->
<g id="node1" class="node">
<title>Node1</title>
<g id="a_node1"><a xlink:title=" ">
<polygon fill="#999999" stroke="#666666" points="98,-558 0,-558 0,-539 98,-539 98,-558"/>
<text text-anchor="middle" x="49" y="-546" font-family="Helvetica,sans-Serif" font-size="10.00">parse_command</text>
</a>
</g>
</g>
<!-- Node2 -->
<g id="node2" class="node">
<title>Node2</title>
<g id="a_node2"><a xlink:href="parse__command_8c.html#ae89fa0d22da2bcaee6c11579cafa87c6" target="_top" xlink:title=" ">
<polygon fill="white" stroke="#666666" points="247.5,-670 155.5,-670 155.5,-651 247.5,-651 247.5,-670"/>
<text text-anchor="middle" x="201.5" y="-658" font-family="Helvetica,sans-Serif" font-size="10.00">apply_redirects</text>
</a>
</g>
</g>
<!-- Node1&#45;&gt;Node2 -->
<g id="edge1" class="edge">
<title>Node1&#45;&gt;Node2</title>
<path fill="none" stroke="#63b8ff" d="M55.85,-558.15C67.95,-577.28 97.68,-620.09 134,-642.5 137.66,-644.76 141.61,-646.74 145.69,-648.48"/>
<polygon fill="#63b8ff" stroke="#63b8ff" points="144.79,-651.88 155.38,-652.1 147.24,-645.32 144.79,-651.88"/>
</g>
<!-- Node6 -->
<g id="node6" class="node">
<title>Node6</title>
<g id="a_node6"><a xlink:href="ast__new__cmd_8c.html#adeeaa39d90e239f73b73a02bbdbbe1ab" target="_top" xlink:title=" ">
<polygon fill="white" stroke="#666666" points="243,-596 160,-596 160,-577 243,-577 243,-596"/>
<text text-anchor="middle" x="201.5" y="-584" font-family="Helvetica,sans-Serif" font-size="10.00">ast_new_cmd</text>
</a>
</g>
</g>
<!-- Node1&#45;&gt;Node6 -->
<g id="edge5" class="edge">
<title>Node1&#45;&gt;Node6</title>
<path fill="none" stroke="#63b8ff" d="M87.98,-558.09C107.66,-563.06 131.89,-569.18 152.82,-574.46"/>
<polygon fill="#63b8ff" stroke="#63b8ff" points="152.24,-577.93 162.8,-576.98 153.96,-571.14 152.24,-577.93"/>
</g>
<!-- Node7 -->
<g id="node7" class="node">
<title>Node7</title>
<g id="a_node7"><a xlink:href="parse__command_8c.html#a672046cbfdfec32bb8ed3deec121a5f4" target="_top" xlink:title=" ">
<polygon fill="white" stroke="#666666" points="248,-520 155,-520 155,-501 248,-501 248,-520"/>
<text text-anchor="middle" x="201.5" y="-508" font-family="Helvetica,sans-Serif" font-size="10.00">check_redirects</text>
</a>
</g>
</g>
<!-- Node1&#45;&gt;Node7 -->
<g id="edge6" class="edge">
<title>Node1&#45;&gt;Node7</title>
<path fill="none" stroke="#63b8ff" d="M87.98,-538.91C107.66,-533.94 131.89,-527.82 152.82,-522.54"/>
<polygon fill="#63b8ff" stroke="#63b8ff" points="153.96,-525.86 162.8,-520.02 152.24,-519.07 153.96,-525.86"/>
</g>
<!-- Node9 -->
<g id="node9" class="node">
<title>Node9</title>
<g id="a_node9"><a xlink:href="parser__set__error_8c.html#adcfabdb026b94fdbe4b6cbf5cb16522a" target="_top" xlink:title=" ">
<polygon fill="white" stroke="#666666" points="871.5,-538 775.5,-538 775.5,-519 871.5,-519 871.5,-538"/>
<text text-anchor="middle" x="823.5" y="-526" font-family="Helvetica,sans-Serif" font-size="10.00">parser_set_error</text>
</a>
</g>
</g>
<!-- Node1&#45;&gt;Node9 -->
<g id="edge70" class="edge">
<title>Node1&#45;&gt;Node9</title>
<path fill="none" stroke="#63b8ff" d="M98.13,-548.5C160.91,-548.5 274.17,-548.5 371,-548.5 371,-548.5 371,-548.5 533,-548.5 613.8,-548.5 706.97,-540.65 765.31,-534.79"/>
<polygon fill="#63b8ff" stroke="#63b8ff" points="765.84,-538.25 775.43,-533.75 765.13,-531.29 765.84,-538.25"/>
</g>
<!-- Node10 -->
<g id="node10" class="node">
<title>Node10</title>
<g id="a_node10"><a xlink:href="empty__stdin_8c.html#a4c89df10296f2cc245e3a32065e04e7b" target="_top" xlink:title=" ">
<polygon fill="white" stroke="#666666" points="240,-407 163,-407 163,-388 240,-388 240,-407"/>
<text text-anchor="middle" x="201.5" y="-395" font-family="Helvetica,sans-Serif" font-size="10.00">empty_stdin</text>
</a>
</g>
</g>
<!-- Node1&#45;&gt;Node10 -->
<g id="edge9" class="edge">
<title>Node1&#45;&gt;Node10</title>
<path fill="none" stroke="#63b8ff" d="M53.36,-538.84C62.35,-514.42 89.37,-449.81 134,-416.5 139.62,-412.3 146.15,-409.03 152.87,-406.48"/>
<polygon fill="#63b8ff" stroke="#63b8ff" points="154.35,-409.68 162.77,-403.24 152.17,-403.03 154.35,-409.68"/>
</g>
<!-- Node11 -->
<g id="node11" class="node">
<title>Node11</title>
<g id="a_node11"><a xlink:href="parse__command_8c.html#ac67a0768cb7890fe1566b68252b9240d" target="_top" xlink:title=" ">
<polygon fill="white" stroke="#666666" points="261,-633 142,-633 142,-614 261,-614 261,-633"/>
<text text-anchor="middle" x="201.5" y="-621" font-family="Helvetica,sans-Serif" font-size="10.00">free_redirs_and_argv</text>
</a>
</g>
</g>
<!-- Node1&#45;&gt;Node11 -->
<g id="edge10" class="edge">
<title>Node1&#45;&gt;Node11</title>
<path fill="none" stroke="#63b8ff" d="M61.49,-558.14C77.01,-570.72 105.97,-592.64 134,-605.5 138.15,-607.4 142.54,-609.14 147,-610.72"/>
<polygon fill="#63b8ff" stroke="#63b8ff" points="146.24,-614.15 156.84,-613.91 148.41,-607.49 146.24,-614.15"/>
</g>
<!-- Node13 -->
<g id="node13" class="node">
<title>Node13</title>
<g id="a_node13"><a xlink:href="parse__command_8c.html#a8840f41f4fb4f5cd6b85713c18d2eda3" target="_top" xlink:title=" ">
<polygon fill="white" stroke="#666666" points="269,-444 134,-444 134,-425 269,-425 269,-444"/>
<text text-anchor="middle" x="201.5" y="-432" font-family="Helvetica,sans-Serif" font-size="10.00">parse_command_tokens</text>
</a>
</g>
</g>
<!-- Node1&#45;&gt;Node13 -->
<g id="edge14" class="edge">
<title>Node1&#45;&gt;Node13</title>
<path fill="none" stroke="#63b8ff" d="M62.57,-538.98C88.4,-519.41 147.68,-474.51 179.46,-450.44"/>
<polygon fill="#63b8ff" stroke="#63b8ff" points="181.79,-453.07 187.64,-444.24 177.56,-447.49 181.79,-453.07"/>
</g>
<!-- Node3 -->
<g id="node3" class="node">
<title>Node3</title>
<g id="a_node3"><a xlink:href="ast__new__redirect_8c.html#aae99986c9d10db89d56c310f77b3490d" target="_top" xlink:title=" ">
<polygon fill="white" stroke="#666666" points="422,-707 322,-707 322,-688 422,-688 422,-707"/>
<text text-anchor="middle" x="372" y="-695" font-family="Helvetica,sans-Serif" font-size="10.00">ast_new_redirect</text>
</a>
</g>
</g>
<!-- Node2&#45;&gt;Node3 -->
<g id="edge2" class="edge">
<title>Node2&#45;&gt;Node3</title>
<path fill="none" stroke="#63b8ff" d="M245.89,-670.03C267.72,-674.82 294.38,-680.68 317.47,-685.75"/>
<polygon fill="#63b8ff" stroke="#63b8ff" points="316.94,-689.21 327.46,-687.94 318.44,-682.38 316.94,-689.21"/>
</g>
<!-- Node4 -->
<g id="node4" class="node">
<title>Node4</title>
<g id="a_node4"><a xlink:href="parse__command_8c.html#a7dbef10d59c414dc5337f293697588b4" target="_top" xlink:title=" ">
<polygon fill="white" stroke="#666666" points="417.5,-670 326.5,-670 326.5,-651 417.5,-651 417.5,-670"/>
<text text-anchor="middle" x="372" y="-658" font-family="Helvetica,sans-Serif" font-size="10.00">free_redir_data</text>
</a>
</g>
</g>
<!-- Node2&#45;&gt;Node4 -->
<g id="edge3" class="edge">
<title>Node2&#45;&gt;Node4</title>
<path fill="none" stroke="#63b8ff" d="M247.65,-660.5C268.69,-660.5 293.91,-660.5 316.05,-660.5"/>
<polygon fill="#63b8ff" stroke="#63b8ff" points="316.3,-664 326.3,-660.5 316.3,-657 316.3,-664"/>
</g>
<!-- Node5 -->
<g id="node5" class="node">
<title>Node5</title>
<g id="a_node5"><a xlink:href="list_8h.html#a68908a98f87b64d0b0fa9ac090a70cad" target="_top" xlink:title=" ">
<polygon fill="white" stroke="#666666" points="410.5,-633 333.5,-633 333.5,-614 410.5,-614 410.5,-633"/>
<text text-anchor="middle" x="372" y="-621" font-family="Helvetica,sans-Serif" font-size="10.00">my_free_list</text>
</a>
</g>
</g>
<!-- Node2&#45;&gt;Node5 -->
<g id="edge4" class="edge">
<title>Node2&#45;&gt;Node5</title>
<path fill="none" stroke="#63b8ff" d="M245.89,-650.97C269.72,-645.74 299.3,-639.25 323.71,-633.88"/>
<polygon fill="#63b8ff" stroke="#63b8ff" points="324.46,-637.3 333.48,-631.74 322.96,-630.47 324.46,-637.3"/>
</g>
<!-- Node8 -->
<g id="node8" class="node">
<title>Node8</title>
<g id="a_node8"><a xlink:href="parse__command_8c.html#abc5df8494b113888ca215c412a63e364" target="_top" xlink:title=" ">
<polygon fill="white" stroke="#666666" points="579.5,-520 484.5,-520 484.5,-501 579.5,-501 579.5,-520"/>
<text text-anchor="middle" x="532" y="-508" font-family="Helvetica,sans-Serif" font-size="10.00">redirect_conflict</text>
</a>
</g>
</g>
<!-- Node7&#45;&gt;Node8 -->
<g id="edge7" class="edge">
<title>Node7&#45;&gt;Node8</title>
<path fill="none" stroke="#63b8ff" d="M248.18,-510.5C307.21,-510.5 410,-510.5 474.06,-510.5"/>
<polygon fill="#63b8ff" stroke="#63b8ff" points="474.39,-514 484.39,-510.5 474.39,-507 474.39,-514"/>
</g>
<!-- Node8&#45;&gt;Node9 -->
<g id="edge8" class="edge">
<title>Node8&#45;&gt;Node9</title>
<path fill="none" stroke="#63b8ff" d="M579.51,-513.39C629.97,-516.53 710.57,-521.54 764.96,-524.92"/>
<polygon fill="#63b8ff" stroke="#63b8ff" points="764.94,-528.43 775.14,-525.56 765.38,-521.44 764.94,-528.43"/>
</g>
<!-- Node11&#45;&gt;Node4 -->
<g id="edge11" class="edge">
<title>Node11&#45;&gt;Node4</title>
<path fill="none" stroke="#63b8ff" d="M245.89,-633.03C267.72,-637.82 294.38,-643.68 317.47,-648.75"/>
<polygon fill="#63b8ff" stroke="#63b8ff" points="316.94,-652.21 327.46,-650.94 318.44,-645.38 316.94,-652.21"/>
</g>
<!-- Node11&#45;&gt;Node5 -->
<g id="edge12" class="edge">
<title>Node11&#45;&gt;Node5</title>
<path fill="none" stroke="#63b8ff" d="M261.43,-623.5C281.71,-623.5 304.13,-623.5 323.39,-623.5"/>
<polygon fill="#63b8ff" stroke="#63b8ff" points="323.43,-627 333.43,-623.5 323.43,-620 323.43,-627"/>
</g>
<!-- Node12 -->
<g id="node12" class="node">
<title>Node12</title>
<g id="a_node12"><a xlink:href="misc_8h.html#a1180cae2875b1fdcd58c9f9175a82c12" target="_top" xlink:title=" ">
<polygon fill="white" stroke="#666666" points="430.5,-596 313.5,-596 313.5,-577 430.5,-577 430.5,-596"/>
<text text-anchor="middle" x="372" y="-584" font-family="Helvetica,sans-Serif" font-size="10.00">my_free_word_array</text>
</a>
</g>
</g>
<!-- Node11&#45;&gt;Node12 -->
<g id="edge13" class="edge">
<title>Node11&#45;&gt;Node12</title>
<path fill="none" stroke="#63b8ff" d="M245.89,-613.97C267.72,-609.18 294.38,-603.32 317.47,-598.25"/>
<polygon fill="#63b8ff" stroke="#63b8ff" points="318.44,-601.62 327.46,-596.06 316.94,-594.79 318.44,-601.62"/>
</g>
<!-- Node14 -->
<g id="node14" class="node">
<title>Node14</title>
<g id="a_node14"><a xlink:href="parse__command_8c.html#a0e3a99ca004123ac0d21254878ed52b9" target="_top" xlink:title=" ">
<polygon fill="white" stroke="#666666" points="422,-370 322,-370 322,-351 422,-351 422,-370"/>
<text text-anchor="middle" x="372" y="-358" font-family="Helvetica,sans-Serif" font-size="10.00">is_redirect_token</text>
</a>
</g>
</g>
<!-- Node13&#45;&gt;Node14 -->
<g id="edge15" class="edge">
<title>Node13&#45;&gt;Node14</title>
<path fill="none" stroke="#63b8ff" d="M250.32,-425C256.83,-422.73 263.25,-419.93 269,-416.5 288.97,-404.57 285.04,-390.45 305,-378.5 307.85,-376.79 310.87,-375.24 313.99,-373.84"/>
<polygon fill="#63b8ff" stroke="#63b8ff" points="315.54,-376.98 323.54,-370.04 312.96,-370.48 315.54,-376.98"/>
</g>
<!-- Node15 -->
<g id="node15" class="node">
<title>Node15</title>
<g id="a_node15"><a xlink:href="parse__command_8c.html#a4266be6fcfc7d05d42f865fa0cf07412" target="_top" xlink:title=" ">
<polygon fill="white" stroke="#666666" points="439,-444 305,-444 305,-425 439,-425 439,-444"/>
<text text-anchor="middle" x="372" y="-432" font-family="Helvetica,sans-Serif" font-size="10.00">parse_redirection_token</text>
</a>
</g>
</g>
<!-- Node13&#45;&gt;Node15 -->
<g id="edge16" class="edge">
<title>Node13&#45;&gt;Node15</title>
<path fill="none" stroke="#63b8ff" d="M269.1,-434.5C277.56,-434.5 286.27,-434.5 294.87,-434.5"/>
<polygon fill="#63b8ff" stroke="#63b8ff" points="294.89,-438 304.89,-434.5 294.89,-431 294.89,-438"/>
</g>
<!-- Node128 -->
<g id="node46" class="node">
<title>Node128</title>
<g id="a_node46"><a xlink:href="parse__command_8c.html#a9e6378c3e784ff75e9265f1dec09190b" target="_top" xlink:title=" ">
<polygon fill="white" stroke="#666666" points="424.5,-407 319.5,-407 319.5,-388 424.5,-388 424.5,-407"/>
<text text-anchor="middle" x="372" y="-395" font-family="Helvetica,sans-Serif" font-size="10.00">parse_word_token</text>
</a>
</g>
</g>
<!-- Node13&#45;&gt;Node128 -->
<g id="edge62" class="edge">
<title>Node13&#45;&gt;Node128</title>
<path fill="none" stroke="#63b8ff" d="M245.89,-424.97C267.72,-420.18 294.38,-414.32 317.47,-409.25"/>
<polygon fill="#63b8ff" stroke="#63b8ff" points="318.44,-412.62 327.46,-407.06 316.94,-405.79 318.44,-412.62"/>
</g>
<!-- Node15&#45;&gt;Node9 -->
<g id="edge61" class="edge">
<title>Node15&#45;&gt;Node9</title>
<path fill="none" stroke="#63b8ff" d="M418.57,-444.03C501.53,-461.38 676.9,-498.05 766.8,-516.85"/>
<polygon fill="#63b8ff" stroke="#63b8ff" points="766.3,-520.32 776.81,-518.94 767.73,-513.47 766.3,-520.32"/>
</g>
<!-- Node16 -->
<g id="node16" class="node">
<title>Node16</title>
<g id="a_node16"><a xlink:href="list_8h.html#a18e592f6f160bc93dbb7e5d788a6f2e1" target="_top" xlink:title=" ">
<polygon fill="white" stroke="#666666" points="589,-444 475,-444 475,-425 589,-425 589,-444"/>
<text text-anchor="middle" x="532" y="-432" font-family="Helvetica,sans-Serif" font-size="10.00">my_add_to_list_end</text>
</a>
</g>
</g>
<!-- Node15&#45;&gt;Node16 -->
<g id="edge17" class="edge">
<title>Node15&#45;&gt;Node16</title>
<path fill="none" stroke="#63b8ff" d="M439.09,-434.5C447.51,-434.5 456.12,-434.5 464.55,-434.5"/>
<polygon fill="#63b8ff" stroke="#63b8ff" points="464.7,-438 474.7,-434.5 464.7,-431 464.7,-438"/>
</g>
<!-- Node17 -->
<g id="node17" class="node">
<title>Node17</title>
<g id="a_node17"><a xlink:href="parser__next_8c.html#ad25986b565a767c6ad7d0b0b8846fca6" target="_top" xlink:title=" ">
<polygon fill="white" stroke="#666666" points="569,-407 495,-407 495,-388 569,-388 569,-407"/>
<text text-anchor="middle" x="532" y="-395" font-family="Helvetica,sans-Serif" font-size="10.00">parser_next</text>
</a>
</g>
</g>
<!-- Node15&#45;&gt;Node17 -->
<g id="edge18" class="edge">
<title>Node15&#45;&gt;Node17</title>
<path fill="none" stroke="#63b8ff" d="M413.69,-424.97C435.41,-419.88 462.24,-413.6 484.75,-408.33"/>
<polygon fill="#63b8ff" stroke="#63b8ff" points="485.82,-411.67 494.76,-405.99 484.23,-404.86 485.82,-411.67"/>
</g>
<!-- Node18 -->
<g id="node18" class="node">
<title>Node18</title>
<g id="a_node18"><a xlink:href="lexer__next__token_8c.html#a3def5432329709fb4df861d90672c510" target="_top" xlink:title=" ">
<polygon fill="white" stroke="#666666" points="725,-352 625,-352 625,-333 725,-333 725,-352"/>
<text text-anchor="middle" x="675" y="-340" font-family="Helvetica,sans-Serif" font-size="10.00">lexer_next_token</text>
</a>
</g>
</g>
<!-- Node17&#45;&gt;Node18 -->
<g id="edge19" class="edge">
<title>Node17&#45;&gt;Node18</title>
<path fill="none" stroke="#63b8ff" d="M556.37,-387.87C574.92,-380.29 601.54,-369.52 625,-360.5 629.21,-358.88 633.63,-357.21 638.02,-355.58"/>
<polygon fill="#63b8ff" stroke="#63b8ff" points="639.33,-358.82 647.5,-352.07 636.9,-352.26 639.33,-358.82"/>
</g>
<!-- Node113 -->
<g id="node45" class="node">
<title>Node113</title>
<g id="a_node45"><a xlink:href="destroy__token_8c.html#ad1a471ee7b1ccb035d769be1152a370c" target="_top" xlink:title=" ">
<polygon fill="white" stroke="#666666" points="718,-426 632,-426 632,-407 718,-407 718,-426"/>
<text text-anchor="middle" x="675" y="-414" font-family="Helvetica,sans-Serif" font-size="10.00">token_destroy</text>
</a>
</g>
</g>
<!-- Node17&#45;&gt;Node113 -->
<g id="edge60" class="edge">
<title>Node17&#45;&gt;Node113</title>
<path fill="none" stroke="#63b8ff" d="M569.31,-402.39C585.27,-404.54 604.32,-407.11 621.76,-409.46"/>
<polygon fill="#63b8ff" stroke="#63b8ff" points="621.43,-412.95 631.81,-410.82 622.37,-406.01 621.43,-412.95"/>
</g>
<!-- Node19 -->
<g id="node19" class="node">
<title>Node19</title>
<g id="a_node19"><a xlink:href="create__token_8c.html#a15bcfc92177012893c626ce7d2d6bb6b" target="_top" xlink:title=" ">
<polygon fill="white" stroke="#666666" points="1207,-223 1127,-223 1127,-204 1207,-204 1207,-223"/>
<text text-anchor="middle" x="1167" y="-211" font-family="Helvetica,sans-Serif" font-size="10.00">create_token</text>
</a>
</g>
</g>
<!-- Node18&#45;&gt;Node19 -->
<g id="edge20" class="edge">
<title>Node18&#45;&gt;Node19</title>
<path fill="none" stroke="#63b8ff" d="M686.61,-332.92C701.84,-319.77 731.35,-296.52 761,-285.5 885.22,-239.33 927.67,-278.42 1057,-249.5 1082.69,-243.76 1110.88,-234.36 1132.16,-226.6"/>
<polygon fill="#63b8ff" stroke="#63b8ff" points="1133.55,-229.82 1141.71,-223.06 1131.12,-223.25 1133.55,-229.82"/>
</g>
<!-- Node20 -->
<g id="node20" class="node">
<title>Node20</title>
<g id="a_node20"><a xlink:href="lexer__next__token_8c.html#add2e1acaa9518ecf20b6670ad91a5c65" target="_top" xlink:title=" ">
<polygon fill="white" stroke="#666666" points="874.5,-220 772.5,-220 772.5,-201 874.5,-201 874.5,-220"/>
<text text-anchor="middle" x="823.5" y="-208" font-family="Helvetica,sans-Serif" font-size="10.00">get_logical_token</text>
</a>
</g>
</g>
<!-- Node18&#45;&gt;Node20 -->
<g id="edge21" class="edge">
<title>Node18&#45;&gt;Node20</title>
<path fill="none" stroke="#63b8ff" d="M683.84,-332.92C698.16,-315.75 729.94,-279.01 761,-252.5 772.41,-242.76 786.1,-233.23 797.67,-225.71"/>
<polygon fill="#63b8ff" stroke="#63b8ff" points="799.85,-228.47 806.41,-220.15 796.09,-222.57 799.85,-228.47"/>
</g>
<!-- Node24 -->
<g id="node24" class="node">
<title>Node24</title>
<g id="a_node24"><a xlink:href="lexer__next__token_8c.html#abcee8a7ba5ea6ca80c0bd7e3dd8d9a32" target="_top" xlink:title=" ">
<polygon fill="white" stroke="#666666" points="884.5,-130 762.5,-130 762.5,-111 884.5,-111 884.5,-130"/>
<text text-anchor="middle" x="823.5" y="-118" font-family="Helvetica,sans-Serif" font-size="10.00">get_redirection_token</text>
</a>
</g>
</g>
<!-- Node18&#45;&gt;Node24 -->
<g id="edge28" class="edge">
<title>Node18&#45;&gt;Node24</title>
<path fill="none" stroke="#63b8ff" d="M685.28,-332.62C695.93,-320.9 713.42,-300.43 725,-280.5 746.45,-243.61 738.73,-227.9 761,-191.5 773.38,-171.27 791.55,-151.11 804.93,-137.47"/>
<polygon fill="#63b8ff" stroke="#63b8ff" points="807.56,-139.78 812.17,-130.24 802.62,-134.82 807.56,-139.78"/>
</g>
<!-- Node29 -->
<g id="node29" class="node">
<title>Node29</title>
<g id="a_node29"><a xlink:href="lexer__newline_8c.html#a9f60bf18297b9c705fa6cdff027c79fc" target="_top" xlink:title=" ">
<polygon fill="white" stroke="#666666" points="1031.5,-355 947.5,-355 947.5,-336 1031.5,-336 1031.5,-355"/>
<text text-anchor="middle" x="989.5" y="-343" font-family="Helvetica,sans-Serif" font-size="10.00">lexer_newline</text>
</a>
</g>
</g>
<!-- Node18&#45;&gt;Node29 -->
<g id="edge37" class="edge">
<title>Node18&#45;&gt;Node29</title>
<path fill="none" stroke="#63b8ff" d="M725.17,-342.97C782.9,-343.53 878.19,-344.44 936.93,-345"/>
<polygon fill="#63b8ff" stroke="#63b8ff" points="937.07,-348.51 947.1,-345.1 937.13,-341.51 937.07,-348.51"/>
</g>
<!-- Node30 -->
<g id="node30" class="node">
<title>Node30</title>
<g id="a_node30"><a xlink:href="lexer__parenthesis_8c.html#a2b13eaa0fee255bea85bd4279f369795" target="_top" xlink:title=" ">
<polygon fill="white" stroke="#666666" points="875,-464 772,-464 772,-445 875,-445 875,-464"/>
<text text-anchor="middle" x="823.5" y="-452" font-family="Helvetica,sans-Serif" font-size="10.00">lexer_parenthesis</text>
</a>
</g>
</g>
<!-- Node18&#45;&gt;Node30 -->
<g id="edge39" class="edge">
<title>Node18&#45;&gt;Node30</title>
<path fill="none" stroke="#63b8ff" d="M712.13,-352.03C716.8,-354.29 721.25,-357.08 725,-360.5 752.59,-385.71 732.57,-412.23 761,-436.5 762.37,-437.67 763.81,-438.76 765.3,-439.78"/>
<polygon fill="#63b8ff" stroke="#63b8ff" points="763.98,-443.05 774.41,-444.89 767.4,-436.94 763.98,-443.05"/>
</g>
<!-- Node31 -->
<g id="node31" class="node">
<title>Node31</title>
<g id="a_node31"><a xlink:href="lexer__semicolon_8c.html#a1612109b245d9780427946e4e33b01b7" target="_top" xlink:title=" ">
<polygon fill="white" stroke="#666666" points="871.5,-314 775.5,-314 775.5,-295 871.5,-295 871.5,-314"/>
<text text-anchor="middle" x="823.5" y="-302" font-family="Helvetica,sans-Serif" font-size="10.00">lexer_semicolon</text>
</a>
</g>
</g>
<!-- Node18&#45;&gt;Node31 -->
<g id="edge41" class="edge">
<title>Node18&#45;&gt;Node31</title>
<path fill="none" stroke="#63b8ff" d="M712.97,-332.91C732.13,-327.94 755.71,-321.82 776.09,-316.54"/>
<polygon fill="#63b8ff" stroke="#63b8ff" points="777,-319.92 785.8,-314.02 775.24,-313.14 777,-319.92"/>
</g>
<!-- Node32 -->
<g id="node32" class="node">
<title>Node32</title>
<g id="a_node32"><a xlink:href="lexer__word_8c.html#ac2600a9ba16009c4d8c114a118c54955" target="_top" xlink:title=" ">
<polygon fill="white" stroke="#666666" points="858.5,-501 788.5,-501 788.5,-482 858.5,-482 858.5,-501"/>
<text text-anchor="middle" x="823.5" y="-489" font-family="Helvetica,sans-Serif" font-size="10.00">lexer_word</text>
</a>
</g>
</g>
<!-- Node18&#45;&gt;Node32 -->
<g id="edge43" class="edge">
<title>Node18&#45;&gt;Node32</title>
<path fill="none" stroke="#63b8ff" d="M713.55,-352.09C717.78,-354.33 721.74,-357.1 725,-360.5 761.45,-398.58 723.29,-436.67 761,-473.5 765.97,-478.36 772.18,-481.92 778.73,-484.52"/>
<polygon fill="#63b8ff" stroke="#63b8ff" points="777.86,-487.92 788.45,-487.69 780.03,-481.26 777.86,-487.92"/>
</g>
<!-- Node126 -->
<g id="node43" class="node">
<title>Node126</title>
<g id="a_node43"><a xlink:href="lexer__next__token_8c.html#a7f0a2dd2373821667a4d5381e7711aa0" target="_top" xlink:title=" ">
<polygon fill="white" stroke="#666666" points="868,-427 779,-427 779,-408 868,-408 868,-427"/>
<text text-anchor="middle" x="823.5" y="-415" font-family="Helvetica,sans-Serif" font-size="10.00">skip_comment</text>
</a>
</g>
</g>
<!-- Node18&#45;&gt;Node126 -->
<g id="edge58" class="edge">
<title>Node18&#45;&gt;Node126</title>
<path fill="none" stroke="#63b8ff" d="M708.69,-352.04C714.36,-354.37 720.03,-357.18 725,-360.5 744.62,-373.6 740.95,-387.07 761,-399.5 763.66,-401.15 766.47,-402.65 769.38,-404.02"/>
<polygon fill="#63b8ff" stroke="#63b8ff" points="768.3,-407.36 778.88,-407.96 770.98,-400.9 768.3,-407.36"/>
</g>
<!-- Node127 -->
<g id="node44" class="node">
<title>Node127</title>
<g id="a_node44"><a xlink:href="lexer__next__token_8c.html#a5b2052471d98cef2998e1367f9bf8f6d" target="_top" xlink:title=" ">
<polygon fill="white" stroke="#666666" points="886,-390 761,-390 761,-371 886,-371 886,-390"/>
<text text-anchor="middle" x="823.5" y="-378" font-family="Helvetica,sans-Serif" font-size="10.00">skip_spaces_and_tabs</text>
</a>
</g>
</g>
<!-- Node18&#45;&gt;Node127 -->
<g id="edge59" class="edge">
<title>Node18&#45;&gt;Node127</title>
<path fill="none" stroke="#63b8ff" d="M712.97,-352.09C732.13,-357.06 755.71,-363.18 776.09,-368.46"/>
<polygon fill="#63b8ff" stroke="#63b8ff" points="775.24,-371.86 785.8,-370.98 777,-365.08 775.24,-371.86"/>
</g>
<!-- Node21 -->
<g id="node21" class="node">
<title>Node21</title>
<g id="a_node21"><a xlink:href="lexer__logical__and_8c.html#a59e5031d54357d65c6873edc67de2a47" target="_top" xlink:title=" ">
<polygon fill="white" stroke="#666666" points="1040,-241 939,-241 939,-222 1040,-222 1040,-241"/>
<text text-anchor="middle" x="989.5" y="-229" font-family="Helvetica,sans-Serif" font-size="10.00">lexer_logical_and</text>
</a>
</g>
</g>
<!-- Node20&#45;&gt;Node21 -->
<g id="edge22" class="edge">
<title>Node20&#45;&gt;Node21</title>
<path fill="none" stroke="#63b8ff" d="M874.6,-216.91C891.68,-219.1 910.96,-221.57 928.73,-223.85"/>
<polygon fill="#63b8ff" stroke="#63b8ff" points="928.63,-227.36 938.99,-225.16 929.52,-220.42 928.63,-227.36"/>
</g>
<!-- Node22 -->
<g id="node22" class="node">
<title>Node22</title>
<g id="a_node22"><a xlink:href="lexer__logical__or_8c.html#ac3851eaea27bd5774b126b888bdddf93" target="_top" xlink:title=" ">
<polygon fill="white" stroke="#666666" points="1036,-204 943,-204 943,-185 1036,-185 1036,-204"/>
<text text-anchor="middle" x="989.5" y="-192" font-family="Helvetica,sans-Serif" font-size="10.00">lexer_logical_or</text>
</a>
</g>
</g>
<!-- Node20&#45;&gt;Node22 -->
<g id="edge24" class="edge">
<title>Node20&#45;&gt;Node22</title>
<path fill="none" stroke="#63b8ff" d="M874.6,-205.61C893.04,-203.81 914.04,-201.76 932.94,-199.92"/>
<polygon fill="#63b8ff" stroke="#63b8ff" points="933.28,-203.4 942.9,-198.95 932.6,-196.44 933.28,-203.4"/>
</g>
<!-- Node23 -->
<g id="node23" class="node">
<title>Node23</title>
<g id="a_node23"><a xlink:href="lexer__pipe_8c.html#a693816e38802a086de64c09cb7cebeb7" target="_top" xlink:title=" ">
<polygon fill="white" stroke="#666666" points="1023,-167 956,-167 956,-148 1023,-148 1023,-167"/>
<text text-anchor="middle" x="989.5" y="-155" font-family="Helvetica,sans-Serif" font-size="10.00">lexer_pipe</text>
</a>
</g>
</g>
<!-- Node20&#45;&gt;Node23 -->
<g id="edge26" class="edge">
<title>Node20&#45;&gt;Node23</title>
<path fill="none" stroke="#63b8ff" d="M849.56,-200.88C869.15,-193.51 897.12,-183.32 922,-175.5 929.79,-173.05 938.15,-170.63 946.23,-168.39"/>
<polygon fill="#63b8ff" stroke="#63b8ff" points="947.15,-171.77 955.88,-165.77 945.31,-165.02 947.15,-171.77"/>
</g>
<!-- Node21&#45;&gt;Node19 -->
<g id="edge23" class="edge">
<title>Node21&#45;&gt;Node19</title>
<path fill="none" stroke="#63b8ff" d="M1040.32,-226.39C1064.24,-223.94 1092.82,-221.01 1116.68,-218.56"/>
<polygon fill="#63b8ff" stroke="#63b8ff" points="1117.34,-222.01 1126.93,-217.51 1116.63,-215.05 1117.34,-222.01"/>
</g>
<!-- Node22&#45;&gt;Node19 -->
<g id="edge25" class="edge">
<title>Node22&#45;&gt;Node19</title>
<path fill="none" stroke="#63b8ff" d="M1036.15,-199.44C1060.88,-202.12 1091.45,-205.43 1116.71,-208.16"/>
<polygon fill="#63b8ff" stroke="#63b8ff" points="1116.51,-211.66 1126.83,-209.26 1117.26,-204.7 1116.51,-211.66"/>
</g>
<!-- Node23&#45;&gt;Node19 -->
<g id="edge27" class="edge">
<title>Node23&#45;&gt;Node19</title>
<path fill="none" stroke="#63b8ff" d="M1023.1,-165.83C1033.94,-168.73 1046.03,-172.11 1057,-175.5 1081.79,-183.17 1109.39,-192.8 1130.62,-200.45"/>
<polygon fill="#63b8ff" stroke="#63b8ff" points="1129.59,-203.8 1140.18,-203.92 1131.98,-197.22 1129.59,-203.8"/>
</g>
<!-- Node25 -->
<g id="node25" class="node">
<title>Node25</title>
<g id="a_node25"><a xlink:href="lexer__heredoc_8c.html#a9db043b0e8df9ad1155a65a8fcf67c11" target="_top" xlink:title=" ">
<polygon fill="white" stroke="#666666" points="1032,-93 947,-93 947,-74 1032,-74 1032,-93"/>
<text text-anchor="middle" x="989.5" y="-81" font-family="Helvetica,sans-Serif" font-size="10.00">lexer_heredoc</text>
</a>
</g>
</g>
<!-- Node24&#45;&gt;Node25 -->
<g id="edge29" class="edge">
<title>Node24&#45;&gt;Node25</title>
<path fill="none" stroke="#63b8ff" d="M866.73,-110.97C888.23,-106.12 914.53,-100.19 937.19,-95.08"/>
<polygon fill="#63b8ff" stroke="#63b8ff" points="937.99,-98.48 946.98,-92.87 936.45,-91.65 937.99,-98.48"/>
</g>
<!-- Node26 -->
<g id="node26" class="node">
<title>Node26</title>
<g id="a_node26"><a xlink:href="lexer__redirect__append_8c.html#a09beefbfaf132dbe04add1370a6fb2e3" target="_top" xlink:title=" ">
<polygon fill="white" stroke="#666666" points="1052,-56 927,-56 927,-37 1052,-37 1052,-56"/>
<text text-anchor="middle" x="989.5" y="-44" font-family="Helvetica,sans-Serif" font-size="10.00">lexer_redirect_append</text>
</a>
</g>
</g>
<!-- Node24&#45;&gt;Node26 -->
<g id="edge31" class="edge">
<title>Node24&#45;&gt;Node26</title>
<path fill="none" stroke="#63b8ff" d="M865.77,-110.89C872.79,-108.38 879.81,-105.29 886,-101.5 905.57,-89.52 902.22,-76.13 922,-64.5 924.98,-62.75 928.13,-61.16 931.38,-59.73"/>
<polygon fill="#63b8ff" stroke="#63b8ff" points="932.69,-62.98 940.73,-56.07 930.14,-56.46 932.69,-62.98"/>
</g>
<!-- Node27 -->
<g id="node27" class="node">
<title>Node27</title>
<g id="a_node27"><a xlink:href="lexer__redirect__in_8c.html#ac723d9668329d99b35003ed2423889e5" target="_top" xlink:title=" ">
<polygon fill="white" stroke="#666666" points="1038.5,-19 940.5,-19 940.5,0 1038.5,0 1038.5,-19"/>
<text text-anchor="middle" x="989.5" y="-7" font-family="Helvetica,sans-Serif" font-size="10.00">lexer_redirect_in</text>
</a>
</g>
</g>
<!-- Node24&#45;&gt;Node27 -->
<g id="edge33" class="edge">
<title>Node24&#45;&gt;Node27</title>
<path fill="none" stroke="#63b8ff" d="M870.7,-110.88C876.23,-108.43 881.5,-105.36 886,-101.5 913.76,-77.69 893.82,-50.81 922,-27.5 924.76,-25.22 927.78,-23.23 930.96,-21.48"/>
<polygon fill="#63b8ff" stroke="#63b8ff" points="932.65,-24.56 940.29,-17.21 929.74,-18.2 932.65,-24.56"/>
</g>
<!-- Node28 -->
<g id="node28" class="node">
<title>Node28</title>
<g id="a_node28"><a xlink:href="lexer__redirect__out_8c.html#a70e2216639c96030b3861405ae3497c6" target="_top" xlink:title=" ">
<polygon fill="white" stroke="#666666" points="1041.5,-130 937.5,-130 937.5,-111 1041.5,-111 1041.5,-130"/>
<text text-anchor="middle" x="989.5" y="-118" font-family="Helvetica,sans-Serif" font-size="10.00">lexer_redirect_out</text>
</a>
</g>
</g>
<!-- Node24&#45;&gt;Node28 -->
<g id="edge35" class="edge">
<title>Node24&#45;&gt;Node28</title>
<path fill="none" stroke="#63b8ff" d="M884.64,-120.5C898.4,-120.5 913.06,-120.5 926.89,-120.5"/>
<polygon fill="#63b8ff" stroke="#63b8ff" points="927.28,-124 937.28,-120.5 927.28,-117 927.28,-124"/>
</g>
<!-- Node25&#45;&gt;Node19 -->
<g id="edge30" class="edge">
<title>Node25&#45;&gt;Node19</title>
<path fill="none" stroke="#63b8ff" d="M1032.32,-91.16C1040.83,-93.71 1049.47,-97.07 1057,-101.5 1098.66,-126 1135.12,-170.63 1153.44,-195.51"/>
<polygon fill="#63b8ff" stroke="#63b8ff" points="1150.66,-197.65 1159.35,-203.72 1156.34,-193.56 1150.66,-197.65"/>
</g>
<!-- Node26&#45;&gt;Node19 -->
<g id="edge32" class="edge">
<title>Node26&#45;&gt;Node19</title>
<path fill="none" stroke="#63b8ff" d="M1040.8,-56.13C1046.53,-58.36 1052.07,-61.11 1057,-64.5 1106.59,-98.55 1142.05,-162.76 1157.45,-194.61"/>
<polygon fill="#63b8ff" stroke="#63b8ff" points="1154.32,-196.17 1161.74,-203.73 1160.65,-193.19 1154.32,-196.17"/>
</g>
<!-- Node27&#45;&gt;Node19 -->
<g id="edge34" class="edge">
<title>Node27&#45;&gt;Node19</title>
<path fill="none" stroke="#63b8ff" d="M1038.76,-17.72C1045.28,-20.17 1051.58,-23.36 1057,-27.5 1114.65,-71.56 1147.49,-155.55 1160.04,-193.73"/>
<polygon fill="#63b8ff" stroke="#63b8ff" points="1156.82,-195.14 1163.17,-203.62 1163.49,-193.03 1156.82,-195.14"/>
</g>
<!-- Node28&#45;&gt;Node19 -->
<g id="edge36" class="edge">
<title>Node28&#45;&gt;Node19</title>
<path fill="none" stroke="#63b8ff" d="M1034.18,-130.05C1041.95,-132.38 1049.84,-135.18 1057,-138.5 1091.08,-154.27 1126.08,-180.49 1146.93,-197.37"/>
<polygon fill="#63b8ff" stroke="#63b8ff" points="1144.76,-200.12 1154.7,-203.77 1149.21,-194.71 1144.76,-200.12"/>
</g>
<!-- Node29&#45;&gt;Node19 -->
<g id="edge38" class="edge">
<title>Node29&#45;&gt;Node19</title>
<path fill="none" stroke="#63b8ff" d="M1025.65,-336C1036.18,-332.33 1047.45,-327.53 1057,-321.5 1096.54,-296.51 1133.11,-255 1152.19,-231.38"/>
<polygon fill="#63b8ff" stroke="#63b8ff" points="1155.15,-233.29 1158.62,-223.28 1149.66,-228.94 1155.15,-233.29"/>
</g>
<!-- Node30&#45;&gt;Node19 -->
<g id="edge40" class="edge">
<title>Node30&#45;&gt;Node19</title>
<path fill="none" stroke="#63b8ff" d="M871,-444.97C921.14,-432.84 1001.24,-407.94 1057,-363.5 1104.02,-326.02 1140.45,-263.38 1156.72,-232.25"/>
<polygon fill="#63b8ff" stroke="#63b8ff" points="1159.85,-233.82 1161.28,-223.32 1153.61,-230.63 1159.85,-233.82"/>
</g>
<!-- Node31&#45;&gt;Node19 -->
<g id="edge42" class="edge">
<title>Node31&#45;&gt;Node19</title>
<path fill="none" stroke="#63b8ff" d="M871.74,-306.73C919.7,-307.5 995.47,-304.61 1057,-283.5 1091.81,-271.56 1126.65,-246.29 1147.26,-229.6"/>
<polygon fill="#63b8ff" stroke="#63b8ff" points="1149.71,-232.11 1155.18,-223.04 1145.25,-226.72 1149.71,-232.11"/>
</g>
<!-- Node32&#45;&gt;Node19 -->
<g id="edge44" class="edge">
<title>Node32&#45;&gt;Node19</title>
<path fill="none" stroke="#63b8ff" d="M858.54,-482.93C915.41,-468.08 1026.51,-436.67 1057,-410.5 1115.02,-360.71 1148.01,-271.99 1160.35,-232.9"/>
<polygon fill="#63b8ff" stroke="#63b8ff" points="1163.72,-233.85 1163.29,-223.27 1157.02,-231.81 1163.72,-233.85"/>
</g>
<!-- Node33 -->
<g id="node33" class="node">
<title>Node33</title>
<g id="a_node33"><a xlink:href="lexer__word_8c.html#a730574257743b09386cadd2ccbfe4d13" target="_top" xlink:title=" ">
<polygon fill="white" stroke="#666666" points="1050.5,-536 928.5,-536 928.5,-517 1050.5,-517 1050.5,-536"/>
<text text-anchor="middle" x="989.5" y="-524" font-family="Helvetica,sans-Serif" font-size="10.00">handle_current_token</text>
</a>
</g>
</g>
<!-- Node32&#45;&gt;Node33 -->
<g id="edge45" class="edge">
<title>Node32&#45;&gt;Node33</title>
<path fill="none" stroke="#63b8ff" d="M858.88,-498.84C880.59,-503.47 909.12,-509.56 933.88,-514.84"/>
<polygon fill="#63b8ff" stroke="#63b8ff" points="933.36,-518.31 943.87,-516.98 934.83,-511.47 933.36,-518.31"/>
</g>
<!-- Node117 -->
<g id="node42" class="node">
<title>Node117</title>
<g id="a_node42"><a xlink:href="lexer__is__word__separator_8c.html#abccfc6fc0cdbd040fc9a7dcbfd207090" target="_top" xlink:title=" ">
<polygon fill="white" stroke="#666666" points="1057,-499 922,-499 922,-480 1057,-480 1057,-499"/>
<text text-anchor="middle" x="989.5" y="-487" font-family="Helvetica,sans-Serif" font-size="10.00">lexer_is_word_separator</text>
</a>
</g>
</g>
<!-- Node32&#45;&gt;Node117 -->
<g id="edge57" class="edge">
<title>Node32&#45;&gt;Node117</title>
<path fill="none" stroke="#63b8ff" d="M858.88,-491.08C874.25,-490.89 893.05,-490.66 911.5,-490.44"/>
<polygon fill="#63b8ff" stroke="#63b8ff" points="911.74,-493.94 921.69,-490.31 911.65,-486.94 911.74,-493.94"/>
</g>
<!-- Node34 -->
<g id="node34" class="node">
<title>Node34</title>
<g id="a_node34"><a xlink:href="lexer__word_8c.html#acd8f2a3c47fa56f87c2792ccefd2ee3e" target="_top" xlink:title=" ">
<polygon fill="white" stroke="#666666" points="1227.5,-573 1106.5,-573 1106.5,-554 1227.5,-554 1227.5,-573"/>
<text text-anchor="middle" x="1167" y="-561" font-family="Helvetica,sans-Serif" font-size="10.00">handle_double_quote</text>
</a>
</g>
</g>
<!-- Node33&#45;&gt;Node34 -->
<g id="edge46" class="edge">
<title>Node33&#45;&gt;Node34</title>
<path fill="none" stroke="#63b8ff" d="M1035.7,-536.03C1058.53,-540.84 1086.45,-546.73 1110.57,-551.81"/>
<polygon fill="#63b8ff" stroke="#63b8ff" points="1110.15,-555.3 1120.65,-553.94 1111.59,-548.45 1110.15,-555.3"/>
</g>
<!-- Node35 -->
<g id="node35" class="node">
<title>Node35</title>
<g id="a_node35"><a xlink:href="lexer__word_8c.html#a733339142f4677a066646a12a7e5bec4" target="_top" xlink:title=" ">
<polygon fill="white" stroke="#666666" points="1237.5,-536 1096.5,-536 1096.5,-517 1237.5,-517 1237.5,-536"/>
<text text-anchor="middle" x="1167" y="-524" font-family="Helvetica,sans-Serif" font-size="10.00">handle_escape_sequence</text>
</a>
</g>
</g>
<!-- Node33&#45;&gt;Node35 -->
<g id="edge47" class="edge">
<title>Node33&#45;&gt;Node35</title>
<path fill="none" stroke="#63b8ff" d="M1050.9,-526.5C1062.25,-526.5 1074.28,-526.5 1086.11,-526.5"/>
<polygon fill="#63b8ff" stroke="#63b8ff" points="1086.44,-530 1096.44,-526.5 1086.44,-523 1086.44,-530"/>
</g>
<!-- Node39 -->
<g id="node37" class="node">
<title>Node39</title>
<g id="a_node37"><a xlink:href="lexer__word_8c.html#a3ae03e49183787e7cf32c90ffdef7351" target="_top" xlink:title=" ">
<polygon fill="white" stroke="#666666" points="1225.5,-499 1108.5,-499 1108.5,-480 1225.5,-480 1225.5,-499"/>
<text text-anchor="middle" x="1167" y="-487" font-family="Helvetica,sans-Serif" font-size="10.00">handle_single_quote</text>
</a>
</g>
</g>
<!-- Node33&#45;&gt;Node39 -->
<g id="edge49" class="edge">
<title>Node33&#45;&gt;Node39</title>
<path fill="none" stroke="#63b8ff" d="M1035.7,-516.97C1058.53,-512.16 1086.45,-506.27 1110.57,-501.19"/>
<polygon fill="#63b8ff" stroke="#63b8ff" points="1111.59,-504.55 1120.65,-499.06 1110.15,-497.7 1111.59,-504.55"/>
</g>
<!-- Node40 -->
<g id="node38" class="node">
<title>Node40</title>
<g id="a_node38"><a xlink:href="lexer__utils_8c.html#a2ba6f7e43ecbf713c666ab062eac534c" target="_top" xlink:title=" ">
<polygon fill="white" stroke="#666666" points="1241,-462 1093,-462 1093,-443 1241,-443 1241,-462"/>
<text text-anchor="middle" x="1167" y="-450" font-family="Helvetica,sans-Serif" font-size="10.00">lexer_append_current_char</text>
</a>
</g>
</g>
<!-- Node33&#45;&gt;Node40 -->
<g id="edge51" class="edge">
<title>Node33&#45;&gt;Node40</title>
<path fill="none" stroke="#63b8ff" d="M1038.27,-516.93C1044.8,-514.67 1051.23,-511.9 1057,-508.5 1076.78,-496.87 1073.17,-483.04 1093,-471.5 1096.86,-469.25 1100.99,-467.27 1105.24,-465.52"/>
<polygon fill="#63b8ff" stroke="#63b8ff" points="1106.53,-468.77 1114.71,-462.04 1104.12,-462.2 1106.53,-468.77"/>
</g>
<!-- Node41 -->
<g id="node39" class="node">
<title>Node41</title>
<g id="a_node39"><a xlink:href="lexer__expand__command__substitution_8c.html#aad26825e6ecc7617687abd601366b15d" target="_top" xlink:title=" ">
<polygon fill="#fff0f0" stroke="red" points="1235,-658.5 1099,-658.5 1099,-628.5 1235,-628.5 1235,-658.5"/>
<text text-anchor="start" x="1107" y="-646.5" font-family="Helvetica,sans-Serif" font-size="10.00">lexer_expand_command</text>
<text text-anchor="middle" x="1167" y="-635.5" font-family="Helvetica,sans-Serif" font-size="10.00">_substitution</text>
</a>
</g>
</g>
<!-- Node33&#45;&gt;Node41 -->
<g id="edge53" class="edge">
<title>Node33&#45;&gt;Node41</title>
<path fill="none" stroke="#63b8ff" d="M998.54,-536.1C1014.62,-554.73 1052.72,-596.05 1093,-619.5 1095.97,-621.23 1099.09,-622.86 1102.28,-624.38"/>
<polygon fill="#63b8ff" stroke="#63b8ff" points="1100.9,-627.6 1111.46,-628.41 1103.71,-621.19 1100.9,-627.6"/>
</g>
<!-- Node115 -->
<g id="node40" class="node">
<title>Node115</title>
<g id="a_node40"><a xlink:href="lexer__expand__tilde_8c.html#ae3c478a10a2764ee7c7f94b42f28ecaf" target="_top" xlink:title=" ">
<polygon fill="#fff0f0" stroke="red" points="1221.5,-425 1112.5,-425 1112.5,-406 1221.5,-406 1221.5,-425"/>
<text text-anchor="middle" x="1167" y="-413" font-family="Helvetica,sans-Serif" font-size="10.00">lexer_expand_tilde</text>
</a>
</g>
</g>
<!-- Node33&#45;&gt;Node115 -->
<g id="edge54" class="edge">
<title>Node33&#45;&gt;Node115</title>
<path fill="none" stroke="#63b8ff" d="M1043.11,-516.97C1048.11,-514.71 1052.85,-511.93 1057,-508.5 1085.18,-485.19 1064.71,-457.68 1093,-434.5 1096.1,-431.96 1099.51,-429.75 1103.1,-427.84"/>
<polygon fill="#63b8ff" stroke="#63b8ff" points="1104.67,-430.97 1112.34,-423.66 1101.79,-424.59 1104.67,-430.97"/>
</g>
<!-- Node118 -->
<g id="node41" class="node">
<title>Node118</title>
<g id="a_node41"><a xlink:href="lexer__expand__variable_8c.html#a01ad90eb8460a612626bb33c9e15cd52" target="_top" xlink:title=" ">
<polygon fill="#fff0f0" stroke="red" points="1230.5,-610 1103.5,-610 1103.5,-591 1230.5,-591 1230.5,-610"/>
<text text-anchor="middle" x="1167" y="-598" font-family="Helvetica,sans-Serif" font-size="10.00">lexer_expand_variable</text>
</a>
</g>
</g>
<!-- Node33&#45;&gt;Node118 -->
<g id="edge56" class="edge">
<title>Node33&#45;&gt;Node118</title>
<path fill="none" stroke="#63b8ff" d="M1005.19,-536.12C1024.58,-548.44 1060.12,-569.71 1093,-582.5 1098.38,-584.59 1104.07,-586.5 1109.82,-588.22"/>
<polygon fill="#63b8ff" stroke="#63b8ff" points="1108.91,-591.6 1119.49,-590.94 1110.81,-584.86 1108.91,-591.6"/>
</g>
<!-- Node36 -->
<g id="node36" class="node">
<title>Node36</title>
<g id="a_node36"><a xlink:href="lexer__utils_8c.html#abf1c1b3b6033c8f9c8d1b11cc9e14f75" target="_top" xlink:title=" ">
<polygon fill="#fff0f0" stroke="red" points="1377,-480 1277,-480 1277,-461 1377,-461 1377,-480"/>
<text text-anchor="middle" x="1327" y="-468" font-family="Helvetica,sans-Serif" font-size="10.00">lexer_append_str</text>
</a>
</g>
</g>
<!-- Node35&#45;&gt;Node36 -->
<g id="edge48" class="edge">
<title>Node35&#45;&gt;Node36</title>
<path fill="none" stroke="#63b8ff" d="M1212.38,-516.9C1221.91,-514.47 1231.87,-511.64 1241,-508.5 1260.55,-501.78 1281.78,-492.29 1298.14,-484.47"/>
<polygon fill="#63b8ff" stroke="#63b8ff" points="1299.68,-487.61 1307.15,-480.1 1296.63,-481.32 1299.68,-487.61"/>
</g>
<!-- Node39&#45;&gt;Node36 -->
<g id="edge50" class="edge">
<title>Node39&#45;&gt;Node36</title>
<path fill="none" stroke="#63b8ff" d="M1225.94,-482.53C1239.27,-480.93 1253.47,-479.22 1266.85,-477.61"/>
<polygon fill="#63b8ff" stroke="#63b8ff" points="1267.39,-481.07 1276.9,-476.4 1266.56,-474.12 1267.39,-481.07"/>
</g>
<!-- Node40&#45;&gt;Node36 -->
<g id="edge52" class="edge">
<title>Node40&#45;&gt;Node36</title>
<path fill="none" stroke="#63b8ff" d="M1241.45,-460.87C1249.84,-461.82 1258.31,-462.79 1266.48,-463.72"/>
<polygon fill="#63b8ff" stroke="#63b8ff" points="1266.31,-467.22 1276.64,-464.88 1267.1,-460.27 1266.31,-467.22"/>
</g>
<!-- Node115&#45;&gt;Node36 -->
<g id="edge55" class="edge">
<title>Node115&#45;&gt;Node36</title>
<path fill="none" stroke="#63b8ff" d="M1208.86,-425.01C1219.42,-427.78 1230.71,-431 1241,-434.5 1259.72,-440.86 1280.14,-449.46 1296.28,-456.65"/>
<polygon fill="#63b8ff" stroke="#63b8ff" points="1295.16,-459.99 1305.71,-460.92 1298.04,-453.61 1295.16,-459.99"/>
</g>
<!-- Node128&#45;&gt;Node17 -->
<g id="edge69" class="edge">
<title>Node128&#45;&gt;Node17</title>
<path fill="none" stroke="#63b8ff" d="M424.74,-397.5C444.02,-397.5 465.78,-397.5 484.56,-397.5"/>
<polygon fill="#63b8ff" stroke="#63b8ff" points="484.66,-401 494.66,-397.5 484.66,-394 484.66,-401"/>
</g>
<!-- Node129 -->
<g id="node47" class="node">
<title>Node129</title>
<g id="a_node47"><a xlink:href="parser__globbing_8c.html#a89bf1b81ac8c9637cbe152bab8467dd7" target="_top" xlink:title=" ">
<polygon fill="white" stroke="#666666" points="569,-351 495,-351 495,-332 569,-332 569,-351"/>
<text text-anchor="middle" x="532" y="-339" font-family="Helvetica,sans-Serif" font-size="10.00">parser_glob</text>
</a>
</g>
</g>
<!-- Node128&#45;&gt;Node129 -->
<g id="edge63" class="edge">
<title>Node128&#45;&gt;Node129</title>
<path fill="none" stroke="#63b8ff" d="M408.83,-387.91C418.67,-385.07 429.3,-381.84 439,-378.5 459.47,-371.46 482.02,-362.41 499.67,-355.02"/>
<polygon fill="#63b8ff" stroke="#63b8ff" points="501.08,-358.23 508.93,-351.11 498.36,-351.78 501.08,-358.23"/>
</g>
<!-- Node130 -->
<g id="node48" class="node">
<title>Node130</title>
<g id="a_node48"><a xlink:href="parser__globbing_8c.html#a0c56750379c92ca65af3924a1358871d" target="_top" xlink:title=" ">
<polygon fill="white" stroke="#666666" points="721.5,-163 628.5,-163 628.5,-144 721.5,-144 721.5,-163"/>
<text text-anchor="middle" x="675" y="-151" font-family="Helvetica,sans-Serif" font-size="10.00">add_glob_paths</text>
</a>
</g>
</g>
<!-- Node129&#45;&gt;Node130 -->
<g id="edge64" class="edge">
<title>Node129&#45;&gt;Node130</title>
<path fill="none" stroke="#63b8ff" d="M540.19,-331.92C562.53,-302.13 631.02,-210.81 660.39,-171.64"/>
<polygon fill="#63b8ff" stroke="#63b8ff" points="663.46,-173.39 666.66,-163.29 657.86,-169.19 663.46,-173.39"/>
</g>
<!-- Node131 -->
<g id="node49" class="node">
<title>Node131</title>
<g id="a_node49"><a xlink:href="parser__globbing_8c.html#a0fc94c1eba37fdbe32c9843dba97659b" target="_top" xlink:title=" ">
<polygon fill="white" stroke="#666666" points="873.5,-93 773.5,-93 773.5,-74 873.5,-74 873.5,-93"/>
<text text-anchor="middle" x="823.5" y="-81" font-family="Helvetica,sans-Serif" font-size="10.00">append_cmd_arg</text>
</a>
</g>
</g>
<!-- Node129&#45;&gt;Node131 -->
<g id="edge66" class="edge">
<title>Node129&#45;&gt;Node131</title>
<path fill="none" stroke="#63b8ff" d="M547.15,-331.83C581.31,-307.95 669.55,-242.87 725,-171.5 746.46,-143.87 734.02,-123.78 761,-101.5 762.54,-100.22 764.18,-99.04 765.87,-97.94"/>
<polygon fill="#63b8ff" stroke="#63b8ff" points="767.69,-100.93 774.83,-93.1 764.37,-94.77 767.69,-100.93"/>
</g>
<!-- Node132 -->
<g id="node50" class="node">
<title>Node132</title>
<g id="a_node50"><a xlink:href="parser__globbing_8c.html#af186620151b6b4726e68024a21185ba7" target="_top" xlink:title=" ">
<polygon fill="white" stroke="#666666" points="720.5,-389 629.5,-389 629.5,-370 720.5,-370 720.5,-389"/>
<text text-anchor="middle" x="675" y="-377" font-family="Helvetica,sans-Serif" font-size="10.00">get_glob_paths</text>
</a>
</g>
</g>
<!-- Node129&#45;&gt;Node132 -->
<g id="edge67" class="edge">
<title>Node129&#45;&gt;Node132</title>
<path fill="none" stroke="#63b8ff" d="M568.58,-351.09C586.78,-355.99 609.14,-362.02 628.57,-367.26"/>
<polygon fill="#63b8ff" stroke="#63b8ff" points="627.86,-370.69 638.43,-369.91 629.69,-363.93 627.86,-370.69"/>
</g>
<!-- Node130&#45;&gt;Node131 -->
<g id="edge65" class="edge">
<title>Node130&#45;&gt;Node131</title>
<path fill="none" stroke="#63b8ff" d="M689.23,-143.87C705.45,-132.43 734.11,-113.41 761,-101.5 765.35,-99.57 769.96,-97.79 774.62,-96.15"/>
<polygon fill="#63b8ff" stroke="#63b8ff" points="775.8,-99.45 784.21,-93 773.62,-92.8 775.8,-99.45"/>
</g>
<!-- Node132&#45;&gt;Node9 -->
<g id="edge68" class="edge">
<title>Node132&#45;&gt;Node9</title>
<path fill="none" stroke="#63b8ff" d="M712.08,-389.11C716.87,-391.57 721.37,-394.65 725,-398.5 760.87,-436.54 723.55,-474.02 761,-510.5 762.68,-512.14 764.51,-513.63 766.44,-514.99"/>
<polygon fill="#63b8ff" stroke="#63b8ff" points="765.05,-518.23 775.48,-520.12 768.51,-512.14 765.05,-518.23"/>
</g>
</g>
</svg>
