<?xml version="1.0" encoding="UTF-8" standalone="no"?>
<!DOCTYPE svg PUBLIC "-//W3C//DTD SVG 1.1//EN"
 "http://www.w3.org/Graphics/SVG/1.1/DTD/svg11.dtd">
<!-- Generated by graphviz version 2.43.0 (0)
 -->
<!-- Title: parse_command_tokens Pages: 1 -->
<svg width="1607pt" height="988pt"
 viewBox="0.00 0.00 1607.00 988.00" xmlns="http://www.w3.org/2000/svg" xmlns:xlink="http://www.w3.org/1999/xlink">
<g id="graph0" class="graph" transform="scale(1 1) rotate(0) translate(4 984)">
<title>parse_command_tokens</title>
<!-- Node1 -->
<g id="node1" class="node">
<title>Node1</title>
<g id="a_node1"><a xlink:title=" ">
<polygon fill="#999999" stroke="#666666" points="135,-169 0,-169 0,-150 135,-150 135,-169"/>
<text text-anchor="middle" x="67.5" y="-157" font-family="Helvetica,sans-Serif" font-size="10.00">parse_command_tokens</text>
</a>
</g>
</g>
<!-- Node2 -->
<g id="node2" class="node">
<title>Node2</title>
<g id="a_node2"><a xlink:href="parse__command_8c.html#a0e3a99ca004123ac0d21254878ed52b9" target="_top" xlink:title=" ">
<polygon fill="white" stroke="#666666" points="288,-206 188,-206 188,-187 288,-187 288,-206"/>
<text text-anchor="middle" x="238" y="-194" font-family="Helvetica,sans-Serif" font-size="10.00">is_redirect_token</text>
</a>
</g>
</g>
<!-- Node1&#45;&gt;Node2 -->
<g id="edge1" class="edge">
<title>Node1&#45;&gt;Node2</title>
<path fill="none" stroke="#63b8ff" d="M111.89,-169.03C133.72,-173.82 160.38,-179.68 183.47,-184.75"/>
<polygon fill="#63b8ff" stroke="#63b8ff" points="182.94,-188.21 193.46,-186.94 184.44,-181.38 182.94,-188.21"/>
</g>
<!-- Node3 -->
<g id="node3" class="node">
<title>Node3</title>
<g id="a_node3"><a xlink:href="parse__command_8c.html#a4266be6fcfc7d05d42f865fa0cf07412" target="_top" xlink:title=" ">
<polygon fill="white" stroke="#666666" points="305,-169 171,-169 171,-150 305,-150 305,-169"/>
<text text-anchor="middle" x="238" y="-157" font-family="Helvetica,sans-Serif" font-size="10.00">parse_redirection_token</text>
</a>
</g>
</g>
<!-- Node1&#45;&gt;Node3 -->
<g id="edge2" class="edge">
<title>Node1&#45;&gt;Node3</title>
<path fill="none" stroke="#63b8ff" d="M135.1,-159.5C143.56,-159.5 152.27,-159.5 160.87,-159.5"/>
<polygon fill="#63b8ff" stroke="#63b8ff" points="160.89,-163 170.89,-159.5 160.89,-156 160.89,-163"/>
</g>
<!-- Node46 -->
<g id="node46" class="node">
<title>Node46</title>
<g id="a_node46"><a xlink:href="parse__command_8c.html#a9e6378c3e784ff75e9265f1dec09190b" target="_top" xlink:title=" ">
<polygon fill="white" stroke="#666666" points="290.5,-132 185.5,-132 185.5,-113 290.5,-113 290.5,-132"/>
<text text-anchor="middle" x="238" y="-120" font-family="Helvetica,sans-Serif" font-size="10.00">parse_word_token</text>
</a>
</g>
</g>
<!-- Node1&#45;&gt;Node46 -->
<g id="edge66" class="edge">
<title>Node1&#45;&gt;Node46</title>
<path fill="none" stroke="#63b8ff" d="M111.89,-149.97C133.72,-145.18 160.38,-139.32 183.47,-134.25"/>
<polygon fill="#63b8ff" stroke="#63b8ff" points="184.44,-137.62 193.46,-132.06 182.94,-130.79 184.44,-137.62"/>
</g>
<!-- Node4 -->
<g id="node4" class="node">
<title>Node4</title>
<g id="a_node4"><a xlink:href="list_8h.html#a18e592f6f160bc93dbb7e5d788a6f2e1" target="_top" xlink:title=" ">
<polygon fill="white" stroke="#666666" points="455,-208 341,-208 341,-189 455,-189 455,-208"/>
<text text-anchor="middle" x="398" y="-196" font-family="Helvetica,sans-Serif" font-size="10.00">my_add_to_list_end</text>
</a>
</g>
</g>
<!-- Node3&#45;&gt;Node4 -->
<g id="edge3" class="edge">
<title>Node3&#45;&gt;Node4</title>
<path fill="none" stroke="#63b8ff" d="M277.65,-169.04C299.06,-174.32 325.87,-180.94 348.65,-186.57"/>
<polygon fill="#63b8ff" stroke="#63b8ff" points="347.93,-189.99 358.47,-188.99 349.6,-183.2 347.93,-189.99"/>
</g>
<!-- Node5 -->
<g id="node5" class="node">
<title>Node5</title>
<g id="a_node5"><a xlink:href="parser__next_8c.html#ad25986b565a767c6ad7d0b0b8846fca6" target="_top" xlink:title=" ">
<polygon fill="white" stroke="#666666" points="435,-132 361,-132 361,-113 435,-113 435,-132"/>
<text text-anchor="middle" x="398" y="-120" font-family="Helvetica,sans-Serif" font-size="10.00">parser_next</text>
</a>
</g>
</g>
<!-- Node3&#45;&gt;Node5 -->
<g id="edge4" class="edge">
<title>Node3&#45;&gt;Node5</title>
<path fill="none" stroke="#63b8ff" d="M279.69,-149.97C301.41,-144.88 328.24,-138.6 350.75,-133.33"/>
<polygon fill="#63b8ff" stroke="#63b8ff" points="351.82,-136.67 360.76,-130.99 350.23,-129.86 351.82,-136.67"/>
</g>
<!-- Node45 -->
<g id="node45" class="node">
<title>Node45</title>
<g id="a_node45"><a xlink:href="parser__set__error_8c.html#adcfabdb026b94fdbe4b6cbf5cb16522a" target="_top" xlink:title=" ">
<polygon fill="white" stroke="#666666" points="737.5,-95 641.5,-95 641.5,-76 737.5,-76 737.5,-95"/>
<text text-anchor="middle" x="689.5" y="-83" font-family="Helvetica,sans-Serif" font-size="10.00">parser_set_error</text>
</a>
</g>
</g>
<!-- Node3&#45;&gt;Node45 -->
<g id="edge65" class="edge">
<title>Node3&#45;&gt;Node45</title>
<path fill="none" stroke="#63b8ff" d="M295.69,-169.02C367.9,-178.45 494.85,-185.8 591,-141.5 612.13,-131.76 607.15,-115.63 627,-103.5 629.67,-101.87 632.49,-100.38 635.4,-99.02"/>
<polygon fill="#63b8ff" stroke="#63b8ff" points="637,-102.15 644.92,-95.11 634.34,-95.67 637,-102.15"/>
</g>
<!-- Node6 -->
<g id="node6" class="node">
<title>Node6</title>
<g id="a_node6"><a xlink:href="lexer__next__token_8c.html#a3def5432329709fb4df861d90672c510" target="_top" xlink:title=" ">
<polygon fill="white" stroke="#666666" points="591,-356 491,-356 491,-337 591,-337 591,-356"/>
<text text-anchor="middle" x="541" y="-344" font-family="Helvetica,sans-Serif" font-size="10.00">lexer_next_token</text>
</a>
</g>
</g>
<!-- Node5&#45;&gt;Node6 -->
<g id="edge5" class="edge">
<title>Node5&#45;&gt;Node6</title>
<path fill="none" stroke="#63b8ff" d="M410.33,-132.35C422.42,-143.27 441.65,-161.82 455,-180.5 490.18,-229.73 519.29,-295.54 532.45,-327.49"/>
<polygon fill="#63b8ff" stroke="#63b8ff" points="529.29,-329.01 536.29,-336.96 535.77,-326.38 529.29,-329.01"/>
</g>
<!-- Node44 -->
<g id="node44" class="node">
<title>Node44</title>
<g id="a_node44"><a xlink:href="destroy__token_8c.html#ad1a471ee7b1ccb035d769be1152a370c" target="_top" xlink:title=" ">
<polygon fill="white" stroke="#666666" points="584,-132 498,-132 498,-113 584,-113 584,-132"/>
<text text-anchor="middle" x="541" y="-120" font-family="Helvetica,sans-Serif" font-size="10.00">token_destroy</text>
</a>
</g>
</g>
<!-- Node5&#45;&gt;Node44 -->
<g id="edge64" class="edge">
<title>Node5&#45;&gt;Node44</title>
<path fill="none" stroke="#63b8ff" d="M435.31,-122.5C451.27,-122.5 470.32,-122.5 487.76,-122.5"/>
<polygon fill="#63b8ff" stroke="#63b8ff" points="487.81,-126 497.81,-122.5 487.81,-119 487.81,-126"/>
</g>
<!-- Node7 -->
<g id="node7" class="node">
<title>Node7</title>
<g id="a_node7"><a xlink:href="create__token_8c.html#a15bcfc92177012893c626ce7d2d6bb6b" target="_top" xlink:title=" ">
<polygon fill="white" stroke="#666666" points="1063,-244 983,-244 983,-225 1063,-225 1063,-244"/>
<text text-anchor="middle" x="1023" y="-232" font-family="Helvetica,sans-Serif" font-size="10.00">create_token</text>
</a>
</g>
</g>
<!-- Node6&#45;&gt;Node7 -->
<g id="edge6" class="edge">
<title>Node6&#45;&gt;Node7</title>
<path fill="none" stroke="#63b8ff" d="M560.72,-336.86C577.61,-328.59 603.36,-316.99 627,-310.5 750.71,-276.52 788.13,-300.92 913,-271.5 938.86,-265.41 967.26,-255.66 988.58,-247.71"/>
<polygon fill="#63b8ff" stroke="#63b8ff" points="990.03,-250.9 998.14,-244.08 987.55,-244.35 990.03,-250.9"/>
</g>
<!-- Node8 -->
<g id="node8" class="node">
<title>Node8</title>
<g id="a_node8"><a xlink:href="lexer__next__token_8c.html#add2e1acaa9518ecf20b6670ad91a5c65" target="_top" xlink:title=" ">
<polygon fill="white" stroke="#666666" points="740.5,-243 638.5,-243 638.5,-224 740.5,-224 740.5,-243"/>
<text text-anchor="middle" x="689.5" y="-231" font-family="Helvetica,sans-Serif" font-size="10.00">get_logical_token</text>
</a>
</g>
</g>
<!-- Node6&#45;&gt;Node8 -->
<g id="edge7" class="edge">
<title>Node6&#45;&gt;Node8</title>
<path fill="none" stroke="#63b8ff" d="M553.05,-336.93C569.05,-323.17 599.75,-297.2 627,-276.5 639.57,-266.96 654.01,-256.82 665.74,-248.78"/>
<polygon fill="#63b8ff" stroke="#63b8ff" points="667.8,-251.61 674.11,-243.09 663.87,-245.82 667.8,-251.61"/>
</g>
<!-- Node12 -->
<g id="node12" class="node">
<title>Node12</title>
<g id="a_node12"><a xlink:href="lexer__next__token_8c.html#abcee8a7ba5ea6ca80c0bd7e3dd8d9a32" target="_top" xlink:title=" ">
<polygon fill="white" stroke="#666666" points="750.5,-132 628.5,-132 628.5,-113 750.5,-113 750.5,-132"/>
<text text-anchor="middle" x="689.5" y="-120" font-family="Helvetica,sans-Serif" font-size="10.00">get_redirection_token</text>
</a>
</g>
</g>
<!-- Node6&#45;&gt;Node12 -->
<g id="edge14" class="edge">
<title>Node6&#45;&gt;Node12</title>
<path fill="none" stroke="#63b8ff" d="M548.16,-336.95C562.12,-315.3 597.29,-260.86 627,-215.5 644.06,-189.46 663.96,-159.43 676.39,-140.71"/>
<polygon fill="#63b8ff" stroke="#63b8ff" points="679.39,-142.52 682.01,-132.26 673.56,-138.65 679.39,-142.52"/>
</g>
<!-- Node17 -->
<g id="node17" class="node">
<title>Node17</title>
<g id="a_node17"><a xlink:href="lexer__newline_8c.html#a9f60bf18297b9c705fa6cdff027c79fc" target="_top" xlink:title=" ">
<polygon fill="white" stroke="#666666" points="892.5,-414 808.5,-414 808.5,-395 892.5,-395 892.5,-414"/>
<text text-anchor="middle" x="850.5" y="-402" font-family="Helvetica,sans-Serif" font-size="10.00">lexer_newline</text>
</a>
</g>
</g>
<!-- Node6&#45;&gt;Node17 -->
<g id="edge23" class="edge">
<title>Node6&#45;&gt;Node17</title>
<path fill="none" stroke="#63b8ff" d="M558.97,-356.11C575.7,-365.09 602.29,-378.06 627,-384.5 684.28,-399.43 752.34,-403.67 797.97,-404.65"/>
<polygon fill="#63b8ff" stroke="#63b8ff" points="798.15,-408.16 808.21,-404.83 798.27,-401.16 798.15,-408.16"/>
</g>
<!-- Node18 -->
<g id="node18" class="node">
<title>Node18</title>
<g id="a_node18"><a xlink:href="lexer__parenthesis_8c.html#a2b13eaa0fee255bea85bd4279f369795" target="_top" xlink:title=" ">
<polygon fill="white" stroke="#666666" points="741,-375 638,-375 638,-356 741,-356 741,-375"/>
<text text-anchor="middle" x="689.5" y="-363" font-family="Helvetica,sans-Serif" font-size="10.00">lexer_parenthesis</text>
</a>
</g>
</g>
<!-- Node6&#45;&gt;Node18 -->
<g id="edge25" class="edge">
<title>Node6&#45;&gt;Node18</title>
<path fill="none" stroke="#63b8ff" d="M591.19,-352.88C602.94,-354.4 615.63,-356.05 627.83,-357.63"/>
<polygon fill="#63b8ff" stroke="#63b8ff" points="627.57,-361.13 637.94,-358.94 628.47,-354.19 627.57,-361.13"/>
</g>
<!-- Node19 -->
<g id="node19" class="node">
<title>Node19</title>
<g id="a_node19"><a xlink:href="lexer__semicolon_8c.html#a1612109b245d9780427946e4e33b01b7" target="_top" xlink:title=" ">
<polygon fill="white" stroke="#666666" points="737.5,-338 641.5,-338 641.5,-319 737.5,-319 737.5,-338"/>
<text text-anchor="middle" x="689.5" y="-326" font-family="Helvetica,sans-Serif" font-size="10.00">lexer_semicolon</text>
</a>
</g>
</g>
<!-- Node6&#45;&gt;Node19 -->
<g id="edge27" class="edge">
<title>Node6&#45;&gt;Node19</title>
<path fill="none" stroke="#63b8ff" d="M591.19,-340.46C604.04,-338.88 618,-337.16 631.23,-335.54"/>
<polygon fill="#63b8ff" stroke="#63b8ff" points="631.68,-339.01 641.18,-334.31 630.83,-332.06 631.68,-339.01"/>
</g>
<!-- Node20 -->
<g id="node20" class="node">
<title>Node20</title>
<g id="a_node20"><a xlink:href="lexer__word_8c.html#ac2600a9ba16009c4d8c114a118c54955" target="_top" xlink:title=" ">
<polygon fill="white" stroke="#666666" points="724.5,-525 654.5,-525 654.5,-506 724.5,-506 724.5,-525"/>
<text text-anchor="middle" x="689.5" y="-513" font-family="Helvetica,sans-Serif" font-size="10.00">lexer_word</text>
</a>
</g>
</g>
<!-- Node6&#45;&gt;Node20 -->
<g id="edge29" class="edge">
<title>Node6&#45;&gt;Node20</title>
<path fill="none" stroke="#63b8ff" d="M544.68,-356.33C552.51,-383.22 578.01,-458.57 627,-497.5 632.14,-501.59 638.19,-504.75 644.44,-507.19"/>
<polygon fill="#63b8ff" stroke="#63b8ff" points="643.75,-510.65 654.35,-510.47 645.95,-504 643.75,-510.65"/>
</g>
<!-- Node42 -->
<g id="node42" class="node">
<title>Node42</title>
<g id="a_node42"><a xlink:href="lexer__next__token_8c.html#a7f0a2dd2373821667a4d5381e7711aa0" target="_top" xlink:title=" ">
<polygon fill="white" stroke="#666666" points="734,-488 645,-488 645,-469 734,-469 734,-488"/>
<text text-anchor="middle" x="689.5" y="-476" font-family="Helvetica,sans-Serif" font-size="10.00">skip_comment</text>
</a>
</g>
</g>
<!-- Node6&#45;&gt;Node42 -->
<g id="edge62" class="edge">
<title>Node6&#45;&gt;Node42</title>
<path fill="none" stroke="#63b8ff" d="M546.44,-356.1C557.09,-378.05 586.25,-432.18 627,-460.5 629.69,-462.37 632.59,-464.05 635.59,-465.56"/>
<polygon fill="#63b8ff" stroke="#63b8ff" points="634.3,-468.82 644.87,-469.58 637.09,-462.39 634.3,-468.82"/>
</g>
<!-- Node43 -->
<g id="node43" class="node">
<title>Node43</title>
<g id="a_node43"><a xlink:href="lexer__next__token_8c.html#a5b2052471d98cef2998e1367f9bf8f6d" target="_top" xlink:title=" ">
<polygon fill="white" stroke="#666666" points="752,-451 627,-451 627,-432 752,-432 752,-451"/>
<text text-anchor="middle" x="689.5" y="-439" font-family="Helvetica,sans-Serif" font-size="10.00">skip_spaces_and_tabs</text>
</a>
</g>
</g>
<!-- Node6&#45;&gt;Node43 -->
<g id="edge63" class="edge">
<title>Node6&#45;&gt;Node43</title>
<path fill="none" stroke="#63b8ff" d="M551.65,-356.4C566.62,-371.32 596.88,-399.69 627,-417.5 633.8,-421.52 641.39,-425.11 648.86,-428.22"/>
<polygon fill="#63b8ff" stroke="#63b8ff" points="647.6,-431.49 658.19,-431.89 650.16,-424.97 647.6,-431.49"/>
</g>
<!-- Node9 -->
<g id="node9" class="node">
<title>Node9</title>
<g id="a_node9"><a xlink:href="lexer__logical__and_8c.html#a59e5031d54357d65c6873edc67de2a47" target="_top" xlink:title=" ">
<polygon fill="white" stroke="#666666" points="901,-225 800,-225 800,-206 901,-206 901,-225"/>
<text text-anchor="middle" x="850.5" y="-213" font-family="Helvetica,sans-Serif" font-size="10.00">lexer_logical_and</text>
</a>
</g>
</g>
<!-- Node8&#45;&gt;Node9 -->
<g id="edge8" class="edge">
<title>Node8&#45;&gt;Node9</title>
<path fill="none" stroke="#63b8ff" d="M740.81,-227.8C756.26,-226.06 773.41,-224.11 789.45,-222.3"/>
<polygon fill="#63b8ff" stroke="#63b8ff" points="790.25,-225.73 799.79,-221.13 789.46,-218.77 790.25,-225.73"/>
</g>
<!-- Node10 -->
<g id="node10" class="node">
<title>Node10</title>
<g id="a_node10"><a xlink:href="lexer__logical__or_8c.html#ac3851eaea27bd5774b126b888bdddf93" target="_top" xlink:title=" ">
<polygon fill="white" stroke="#666666" points="897,-188 804,-188 804,-169 897,-169 897,-188"/>
<text text-anchor="middle" x="850.5" y="-176" font-family="Helvetica,sans-Serif" font-size="10.00">lexer_logical_or</text>
</a>
</g>
</g>
<!-- Node8&#45;&gt;Node10 -->
<g id="edge10" class="edge">
<title>Node8&#45;&gt;Node10</title>
<path fill="none" stroke="#63b8ff" d="M715.21,-223.95C734.85,-216.47 763.05,-205.95 788,-197.5 794.4,-195.33 801.21,-193.13 807.87,-191.03"/>
<polygon fill="#63b8ff" stroke="#63b8ff" points="808.97,-194.35 817.47,-188.04 806.89,-187.67 808.97,-194.35"/>
</g>
<!-- Node11 -->
<g id="node11" class="node">
<title>Node11</title>
<g id="a_node11"><a xlink:href="lexer__pipe_8c.html#a693816e38802a086de64c09cb7cebeb7" target="_top" xlink:title=" ">
<polygon fill="white" stroke="#666666" points="884,-262 817,-262 817,-243 884,-243 884,-262"/>
<text text-anchor="middle" x="850.5" y="-250" font-family="Helvetica,sans-Serif" font-size="10.00">lexer_pipe</text>
</a>
</g>
</g>
<!-- Node8&#45;&gt;Node11 -->
<g id="edge12" class="edge">
<title>Node8&#45;&gt;Node11</title>
<path fill="none" stroke="#63b8ff" d="M740.81,-239.51C761.88,-242.03 786.13,-244.93 806.37,-247.35"/>
<polygon fill="#63b8ff" stroke="#63b8ff" points="806.21,-250.85 816.56,-248.56 807.04,-243.9 806.21,-250.85"/>
</g>
<!-- Node9&#45;&gt;Node7 -->
<g id="edge9" class="edge">
<title>Node9&#45;&gt;Node7</title>
<path fill="none" stroke="#63b8ff" d="M901.27,-221.05C923.78,-223.55 950.29,-226.51 972.73,-229.01"/>
<polygon fill="#63b8ff" stroke="#63b8ff" points="972.4,-232.49 982.73,-230.12 973.18,-225.54 972.4,-232.49"/>
</g>
<!-- Node10&#45;&gt;Node7 -->
<g id="edge11" class="edge">
<title>Node10&#45;&gt;Node7</title>
<path fill="none" stroke="#63b8ff" d="M883.16,-188.1C892.76,-191.06 903.33,-194.36 913,-197.5 936.96,-205.27 963.75,-214.35 984.77,-221.58"/>
<polygon fill="#63b8ff" stroke="#63b8ff" points="983.7,-224.91 994.29,-224.86 985.98,-218.29 983.7,-224.91"/>
</g>
<!-- Node11&#45;&gt;Node7 -->
<g id="edge13" class="edge">
<title>Node11&#45;&gt;Node7</title>
<path fill="none" stroke="#63b8ff" d="M884.37,-249.03C909.45,-246.38 944.41,-242.69 972.81,-239.69"/>
<polygon fill="#63b8ff" stroke="#63b8ff" points="973.37,-243.15 982.95,-238.62 972.64,-236.19 973.37,-243.15"/>
</g>
<!-- Node13 -->
<g id="node13" class="node">
<title>Node13</title>
<g id="a_node13"><a xlink:href="lexer__heredoc_8c.html#a9db043b0e8df9ad1155a65a8fcf67c11" target="_top" xlink:title=" ">
<polygon fill="white" stroke="#666666" points="893,-114 808,-114 808,-95 893,-95 893,-114"/>
<text text-anchor="middle" x="850.5" y="-102" font-family="Helvetica,sans-Serif" font-size="10.00">lexer_heredoc</text>
</a>
</g>
</g>
<!-- Node12&#45;&gt;Node13 -->
<g id="edge15" class="edge">
<title>Node12&#45;&gt;Node13</title>
<path fill="none" stroke="#63b8ff" d="M750.61,-115.69C766.04,-113.95 782.52,-112.08 797.5,-110.39"/>
<polygon fill="#63b8ff" stroke="#63b8ff" points="798.06,-113.85 807.61,-109.24 797.28,-106.89 798.06,-113.85"/>
</g>
<!-- Node14 -->
<g id="node14" class="node">
<title>Node14</title>
<g id="a_node14"><a xlink:href="lexer__redirect__append_8c.html#a09beefbfaf132dbe04add1370a6fb2e3" target="_top" xlink:title=" ">
<polygon fill="white" stroke="#666666" points="913,-77 788,-77 788,-58 913,-58 913,-77"/>
<text text-anchor="middle" x="850.5" y="-65" font-family="Helvetica,sans-Serif" font-size="10.00">lexer_redirect_append</text>
</a>
</g>
</g>
<!-- Node12&#45;&gt;Node14 -->
<g id="edge17" class="edge">
<title>Node12&#45;&gt;Node14</title>
<path fill="none" stroke="#63b8ff" d="M725,-112.93C733.9,-110.17 743.39,-106.95 752,-103.5 768.6,-96.84 771.35,-92.04 788,-85.5 792.86,-83.59 798,-81.78 803.16,-80.09"/>
<polygon fill="#63b8ff" stroke="#63b8ff" points="804.54,-83.33 813.04,-77 802.45,-76.65 804.54,-83.33"/>
</g>
<!-- Node15 -->
<g id="node15" class="node">
<title>Node15</title>
<g id="a_node15"><a xlink:href="lexer__redirect__in_8c.html#ac723d9668329d99b35003ed2423889e5" target="_top" xlink:title=" ">
<polygon fill="white" stroke="#666666" points="899.5,-40 801.5,-40 801.5,-21 899.5,-21 899.5,-40"/>
<text text-anchor="middle" x="850.5" y="-28" font-family="Helvetica,sans-Serif" font-size="10.00">lexer_redirect_in</text>
</a>
</g>
</g>
<!-- Node12&#45;&gt;Node15 -->
<g id="edge19" class="edge">
<title>Node12&#45;&gt;Node15</title>
<path fill="none" stroke="#63b8ff" d="M734.67,-112.98C740.83,-110.51 746.82,-107.4 752,-103.5 775.34,-85.93 764.53,-65.9 788,-48.5 789.89,-47.1 791.88,-45.81 793.95,-44.62"/>
<polygon fill="#63b8ff" stroke="#63b8ff" points="795.97,-47.53 803.43,-40.01 792.91,-41.23 795.97,-47.53"/>
</g>
<!-- Node16 -->
<g id="node16" class="node">
<title>Node16</title>
<g id="a_node16"><a xlink:href="lexer__redirect__out_8c.html#a70e2216639c96030b3861405ae3497c6" target="_top" xlink:title=" ">
<polygon fill="white" stroke="#666666" points="902.5,-151 798.5,-151 798.5,-132 902.5,-132 902.5,-151"/>
<text text-anchor="middle" x="850.5" y="-139" font-family="Helvetica,sans-Serif" font-size="10.00">lexer_redirect_out</text>
</a>
</g>
</g>
<!-- Node12&#45;&gt;Node16 -->
<g id="edge21" class="edge">
<title>Node12&#45;&gt;Node16</title>
<path fill="none" stroke="#63b8ff" d="M750.61,-129.68C762.91,-131.15 775.87,-132.7 788.21,-134.18"/>
<polygon fill="#63b8ff" stroke="#63b8ff" points="788.05,-137.68 798.4,-135.39 788.88,-130.73 788.05,-137.68"/>
</g>
<!-- Node13&#45;&gt;Node7 -->
<g id="edge16" class="edge">
<title>Node13&#45;&gt;Node7</title>
<path fill="none" stroke="#63b8ff" d="M892.44,-114.02C899.56,-116.54 906.7,-119.66 913,-123.5 954.09,-148.53 990.77,-192.46 1009.28,-216.88"/>
<polygon fill="#63b8ff" stroke="#63b8ff" points="1006.48,-218.98 1015.26,-224.92 1012.1,-214.81 1006.48,-218.98"/>
</g>
<!-- Node14&#45;&gt;Node7 -->
<g id="edge18" class="edge">
<title>Node14&#45;&gt;Node7</title>
<path fill="none" stroke="#63b8ff" d="M897.08,-77.12C902.71,-79.36 908.17,-82.11 913,-85.5 962.24,-120.06 997.87,-184.03 1013.38,-215.72"/>
<polygon fill="#63b8ff" stroke="#63b8ff" points="1010.24,-217.26 1017.7,-224.79 1016.56,-214.26 1010.24,-217.26"/>
</g>
<!-- Node15&#45;&gt;Node7 -->
<g id="edge20" class="edge">
<title>Node15&#45;&gt;Node7</title>
<path fill="none" stroke="#63b8ff" d="M898.36,-40.06C903.6,-42.31 908.61,-45.08 913,-48.5 970.2,-93.14 1003.28,-176.84 1015.96,-214.84"/>
<polygon fill="#63b8ff" stroke="#63b8ff" points="1012.73,-216.22 1019.13,-224.67 1019.4,-214.08 1012.73,-216.22"/>
</g>
<!-- Node16&#45;&gt;Node7 -->
<g id="edge22" class="edge">
<title>Node16&#45;&gt;Node7</title>
<path fill="none" stroke="#63b8ff" d="M888.6,-151.01C896.82,-153.65 905.35,-156.82 913,-160.5 946.52,-176.61 981.43,-202.11 1002.44,-218.57"/>
<polygon fill="#63b8ff" stroke="#63b8ff" points="1000.29,-221.33 1010.3,-224.81 1004.65,-215.85 1000.29,-221.33"/>
</g>
<!-- Node17&#45;&gt;Node7 -->
<g id="edge24" class="edge">
<title>Node17&#45;&gt;Node7</title>
<path fill="none" stroke="#63b8ff" d="M885.83,-394.95C895.2,-391.36 904.98,-386.61 913,-380.5 959.8,-344.86 996.13,-283.95 1012.5,-253.3"/>
<polygon fill="#63b8ff" stroke="#63b8ff" points="1015.76,-254.62 1017.27,-244.14 1009.55,-251.39 1015.76,-254.62"/>
</g>
<!-- Node18&#45;&gt;Node7 -->
<g id="edge26" class="edge">
<title>Node18&#45;&gt;Node7</title>
<path fill="none" stroke="#63b8ff" d="M741.43,-365.14C788.11,-363.02 858.09,-355.26 913,-329.5 952.32,-311.05 988.28,-274.14 1007.46,-252.15"/>
<polygon fill="#63b8ff" stroke="#63b8ff" points="1010.36,-254.15 1014.18,-244.27 1005.04,-249.61 1010.36,-254.15"/>
</g>
<!-- Node19&#45;&gt;Node7 -->
<g id="edge28" class="edge">
<title>Node19&#45;&gt;Node7</title>
<path fill="none" stroke="#63b8ff" d="M737.9,-329.62C783.92,-329.28 855.11,-324.92 913,-304.5 947.52,-292.32 982.2,-267.34 1002.89,-250.75"/>
<polygon fill="#63b8ff" stroke="#63b8ff" points="1005.34,-253.26 1010.86,-244.22 1000.9,-247.85 1005.34,-253.26"/>
</g>
<!-- Node20&#45;&gt;Node7 -->
<g id="edge30" class="edge">
<title>Node20&#45;&gt;Node7</title>
<path fill="none" stroke="#63b8ff" d="M724.57,-509.04C771.92,-498.53 858.02,-473.63 913,-423.5 967.26,-374.03 1001.85,-291.1 1015.44,-253.75"/>
<polygon fill="#63b8ff" stroke="#63b8ff" points="1018.82,-254.7 1018.85,-244.1 1012.22,-252.37 1018.82,-254.7"/>
</g>
<!-- Node21 -->
<g id="node21" class="node">
<title>Node21</title>
<g id="a_node21"><a xlink:href="lexer__word_8c.html#a730574257743b09386cadd2ccbfe4d13" target="_top" xlink:title=" ">
<polygon fill="white" stroke="#666666" points="911.5,-792 789.5,-792 789.5,-773 911.5,-773 911.5,-792"/>
<text text-anchor="middle" x="850.5" y="-780" font-family="Helvetica,sans-Serif" font-size="10.00">handle_current_token</text>
</a>
</g>
</g>
<!-- Node20&#45;&gt;Node21 -->
<g id="edge31" class="edge">
<title>Node20&#45;&gt;Node21</title>
<path fill="none" stroke="#63b8ff" d="M696.16,-525C719.34,-563.93 807.27,-711.59 838.45,-763.95"/>
<polygon fill="#63b8ff" stroke="#63b8ff" points="835.62,-766.03 843.74,-772.83 841.63,-762.45 835.62,-766.03"/>
</g>
<!-- Node33 -->
<g id="node33" class="node">
<title>Node33</title>
<g id="a_node33"><a xlink:href="lexer__is__word__separator_8c.html#abccfc6fc0cdbd040fc9a7dcbfd207090" target="_top" xlink:title=" ">
<polygon fill="white" stroke="#666666" points="1445,-535 1310,-535 1310,-516 1445,-516 1445,-535"/>
<text text-anchor="middle" x="1377.5" y="-523" font-family="Helvetica,sans-Serif" font-size="10.00">lexer_is_word_separator</text>
</a>
</g>
</g>
<!-- Node20&#45;&gt;Node33 -->
<g id="edge61" class="edge">
<title>Node20&#45;&gt;Node33</title>
<path fill="none" stroke="#63b8ff" d="M724.52,-516C829.6,-517.53 1150.86,-522.21 1299.53,-524.38"/>
<polygon fill="#63b8ff" stroke="#63b8ff" points="1299.88,-527.88 1309.93,-524.53 1299.98,-520.88 1299.88,-527.88"/>
</g>
<!-- Node22 -->
<g id="node22" class="node">
<title>Node22</title>
<g id="a_node22"><a xlink:href="lexer__word_8c.html#acd8f2a3c47fa56f87c2792ccefd2ee3e" target="_top" xlink:title=" ">
<polygon fill="white" stroke="#666666" points="1083.5,-755 962.5,-755 962.5,-736 1083.5,-736 1083.5,-755"/>
<text text-anchor="middle" x="1023" y="-743" font-family="Helvetica,sans-Serif" font-size="10.00">handle_double_quote</text>
</a>
</g>
</g>
<!-- Node21&#45;&gt;Node22 -->
<g id="edge32" class="edge">
<title>Node21&#45;&gt;Node22</title>
<path fill="none" stroke="#63b8ff" d="M895.41,-772.97C917.6,-768.16 944.71,-762.27 968.15,-757.19"/>
<polygon fill="#63b8ff" stroke="#63b8ff" points="968.91,-760.6 977.94,-755.06 967.43,-753.76 968.91,-760.6"/>
</g>
<!-- Node23 -->
<g id="node23" class="node">
<title>Node23</title>
<g id="a_node23"><a xlink:href="lexer__word_8c.html#a733339142f4677a066646a12a7e5bec4" target="_top" xlink:title=" ">
<polygon fill="white" stroke="#666666" points="1274,-980 1133,-980 1133,-961 1274,-961 1274,-980"/>
<text text-anchor="middle" x="1203.5" y="-968" font-family="Helvetica,sans-Serif" font-size="10.00">handle_escape_sequence</text>
</a>
</g>
</g>
<!-- Node21&#45;&gt;Node23 -->
<g id="edge33" class="edge">
<title>Node21&#45;&gt;Node23</title>
<path fill="none" stroke="#63b8ff" d="M854.66,-792.19C864.07,-819.35 894.67,-896.53 949,-931.5 1000.44,-964.62 1069.68,-973.42 1122.8,-974.47"/>
<polygon fill="#63b8ff" stroke="#63b8ff" points="1122.83,-977.97 1132.87,-974.58 1122.9,-970.97 1122.83,-977.97"/>
</g>
<!-- Node27 -->
<g id="node27" class="node">
<title>Node27</title>
<g id="a_node27"><a xlink:href="lexer__word_8c.html#a3ae03e49183787e7cf32c90ffdef7351" target="_top" xlink:title=" ">
<polygon fill="white" stroke="#666666" points="1081.5,-922 964.5,-922 964.5,-903 1081.5,-903 1081.5,-922"/>
<text text-anchor="middle" x="1023" y="-910" font-family="Helvetica,sans-Serif" font-size="10.00">handle_single_quote</text>
</a>
</g>
</g>
<!-- Node21&#45;&gt;Node27 -->
<g id="edge37" class="edge">
<title>Node21&#45;&gt;Node27</title>
<path fill="none" stroke="#63b8ff" d="M859.86,-792.17C875.82,-810.22 912.33,-849.57 949,-875.5 961.6,-884.41 976.66,-892.42 989.81,-898.69"/>
<polygon fill="#63b8ff" stroke="#63b8ff" points="988.44,-901.92 998.99,-902.94 991.38,-895.56 988.44,-901.92"/>
</g>
<!-- Node28 -->
<g id="node28" class="node">
<title>Node28</title>
<g id="a_node28"><a xlink:href="lexer__utils_8c.html#a2ba6f7e43ecbf713c666ab062eac534c" target="_top" xlink:title=" ">
<polygon fill="white" stroke="#666666" points="1097,-866 949,-866 949,-847 1097,-847 1097,-866"/>
<text text-anchor="middle" x="1023" y="-854" font-family="Helvetica,sans-Serif" font-size="10.00">lexer_append_current_char</text>
</a>
</g>
</g>
<!-- Node21&#45;&gt;Node28 -->
<g id="edge39" class="edge">
<title>Node21&#45;&gt;Node28</title>
<path fill="none" stroke="#63b8ff" d="M873.44,-792.02C903.16,-804.92 956.38,-828.02 990.4,-842.79"/>
<polygon fill="#63b8ff" stroke="#63b8ff" points="989.31,-846.13 999.87,-846.9 992.09,-839.7 989.31,-846.13"/>
</g>
<!-- Node29 -->
<g id="node29" class="node">
<title>Node29</title>
<g id="a_node29"><a xlink:href="lexer__expand__tilde_8c.html#ae3c478a10a2764ee7c7f94b42f28ecaf" target="_top" xlink:title=" ">
<polygon fill="white" stroke="#666666" points="1077.5,-655 968.5,-655 968.5,-636 1077.5,-636 1077.5,-655"/>
<text text-anchor="middle" x="1023" y="-643" font-family="Helvetica,sans-Serif" font-size="10.00">lexer_expand_tilde</text>
</a>
</g>
</g>
<!-- Node21&#45;&gt;Node29 -->
<g id="edge41" class="edge">
<title>Node21&#45;&gt;Node29</title>
<path fill="none" stroke="#63b8ff" d="M863.49,-772.87C892.4,-749.64 966.21,-690.33 1001.97,-661.59"/>
<polygon fill="#63b8ff" stroke="#63b8ff" points="1004.19,-664.3 1009.8,-655.31 999.81,-658.84 1004.19,-664.3"/>
</g>
<!-- Node34 -->
<g id="node34" class="node">
<title>Node34</title>
<g id="a_node34"><a xlink:href="lexer__expand__variable_8c.html#a01ad90eb8460a612626bb33c9e15cd52" target="_top" xlink:title=" ">
<polygon fill="white" stroke="#666666" points="1086.5,-792 959.5,-792 959.5,-773 1086.5,-773 1086.5,-792"/>
<text text-anchor="middle" x="1023" y="-780" font-family="Helvetica,sans-Serif" font-size="10.00">lexer_expand_variable</text>
</a>
</g>
</g>
<!-- Node21&#45;&gt;Node34 -->
<g id="edge47" class="edge">
<title>Node21&#45;&gt;Node34</title>
<path fill="none" stroke="#63b8ff" d="M911.61,-782.5C923.67,-782.5 936.47,-782.5 948.91,-782.5"/>
<polygon fill="#63b8ff" stroke="#63b8ff" points="949.26,-786 959.26,-782.5 949.26,-779 949.26,-786"/>
</g>
<!-- Node24 -->
<g id="node24" class="node">
<title>Node24</title>
<g id="a_node24"><a xlink:href="lexer__utils_8c.html#abf1c1b3b6033c8f9c8d1b11cc9e14f75" target="_top" xlink:title=" ">
<polygon fill="white" stroke="#666666" points="1427.5,-848 1327.5,-848 1327.5,-829 1427.5,-829 1427.5,-848"/>
<text text-anchor="middle" x="1377.5" y="-836" font-family="Helvetica,sans-Serif" font-size="10.00">lexer_append_str</text>
</a>
</g>
</g>
<!-- Node23&#45;&gt;Node24 -->
<g id="edge34" class="edge">
<title>Node23&#45;&gt;Node24</title>
<path fill="none" stroke="#63b8ff" d="M1242.81,-960.91C1253.39,-957.32 1264.55,-952.58 1274,-946.5 1312.35,-921.81 1346.53,-879.84 1364.07,-856.15"/>
<polygon fill="#63b8ff" stroke="#63b8ff" points="1366.92,-858.19 1369.95,-848.04 1361.25,-854.08 1366.92,-858.19"/>
</g>
<!-- Node25 -->
<g id="node25" class="node">
<title>Node25</title>
<g id="a_node25"><a xlink:href="strings_8h.html#a5e1589f073ac32d227dbc6020c376dab" target="_top" xlink:title=" ">
<polygon fill="white" stroke="#666666" points="1590.5,-848 1489.5,-848 1489.5,-829 1590.5,-829 1590.5,-848"/>
<text text-anchor="middle" x="1540" y="-836" font-family="Helvetica,sans-Serif" font-size="10.00">append_to_buffer</text>
</a>
</g>
</g>
<!-- Node24&#45;&gt;Node25 -->
<g id="edge35" class="edge">
<title>Node24&#45;&gt;Node25</title>
<path fill="none" stroke="#63b8ff" d="M1427.53,-838.5C1443.79,-838.5 1462.08,-838.5 1479.06,-838.5"/>
<polygon fill="#63b8ff" stroke="#63b8ff" points="1479.44,-842 1489.44,-838.5 1479.44,-835 1479.44,-842"/>
</g>
<!-- Node26 -->
<g id="node26" class="node">
<title>Node26</title>
<g id="a_node26"><a xlink:href="lexer__utils_8c.html#a84e8d5514cfe03a20152ad26f170211f" target="_top" xlink:title=" ">
<polygon fill="white" stroke="#666666" points="1599,-792 1481,-792 1481,-773 1599,-773 1599,-792"/>
<text text-anchor="middle" x="1540" y="-780" font-family="Helvetica,sans-Serif" font-size="10.00">lexer_set_alloc_error</text>
</a>
</g>
</g>
<!-- Node24&#45;&gt;Node26 -->
<g id="edge36" class="edge">
<title>Node24&#45;&gt;Node26</title>
<path fill="none" stroke="#63b8ff" d="M1406.09,-828.87C1432.66,-819.6 1473.03,-805.52 1502.3,-795.3"/>
<polygon fill="#63b8ff" stroke="#63b8ff" points="1503.48,-798.6 1511.77,-792 1501.17,-791.99 1503.48,-798.6"/>
</g>
<!-- Node27&#45;&gt;Node24 -->
<g id="edge38" class="edge">
<title>Node27&#45;&gt;Node24</title>
<path fill="none" stroke="#63b8ff" d="M1081.75,-914C1133.17,-913.85 1209.96,-909.95 1274,-891.5 1303.21,-883.08 1333.81,-866.02 1353.89,-853.52"/>
<polygon fill="#63b8ff" stroke="#63b8ff" points="1355.77,-856.47 1362.33,-848.15 1352.01,-850.56 1355.77,-856.47"/>
</g>
<!-- Node28&#45;&gt;Node24 -->
<g id="edge40" class="edge">
<title>Node28&#45;&gt;Node24</title>
<path fill="none" stroke="#63b8ff" d="M1066.33,-866.07C1116.3,-875.91 1201.75,-888.14 1274,-875.5 1299.62,-871.02 1327.29,-860.68 1347.42,-852.06"/>
<polygon fill="#63b8ff" stroke="#63b8ff" points="1348.9,-855.23 1356.65,-848.01 1346.08,-848.82 1348.9,-855.23"/>
</g>
<!-- Node29&#45;&gt;Node24 -->
<g id="edge44" class="edge">
<title>Node29&#45;&gt;Node24</title>
<path fill="none" stroke="#63b8ff" d="M1047.82,-655.13C1093.15,-673.82 1194.39,-717.34 1274,-764.5 1304.1,-782.33 1336.46,-806.65 1356.59,-822.46"/>
<polygon fill="#63b8ff" stroke="#63b8ff" points="1354.67,-825.4 1364.68,-828.87 1359.02,-819.92 1354.67,-825.4"/>
</g>
<!-- Node30 -->
<g id="node30" class="node">
<title>Node30</title>
<g id="a_node30"><a xlink:href="get__variable__value_8c.html#a2edd9900f19af236aa05385a789be3d6" target="_top" xlink:title=" ">
<polygon fill="white" stroke="#666666" points="1432.5,-614 1322.5,-614 1322.5,-595 1432.5,-595 1432.5,-614"/>
<text text-anchor="middle" x="1377.5" y="-602" font-family="Helvetica,sans-Serif" font-size="10.00">get_variable_value</text>
</a>
</g>
</g>
<!-- Node29&#45;&gt;Node30 -->
<g id="edge42" class="edge">
<title>Node29&#45;&gt;Node30</title>
<path fill="none" stroke="#63b8ff" d="M1041.48,-635.99C1062.49,-625.14 1099.14,-608.08 1133,-601.5 1192.86,-589.87 1262.57,-592.3 1312.02,-596.64"/>
<polygon fill="#63b8ff" stroke="#63b8ff" points="1311.98,-600.15 1322.26,-597.59 1312.62,-593.18 1311.98,-600.15"/>
</g>
<!-- Node32 -->
<g id="node32" class="node">
<title>Node32</title>
<g id="a_node32"><a xlink:href="lexer__expand__tilde_8c.html#aa4231a41b1e79447d6a70db7b075f937" target="_top" xlink:title=" ">
<polygon fill="white" stroke="#666666" points="1262,-554 1145,-554 1145,-535 1262,-535 1262,-554"/>
<text text-anchor="middle" x="1203.5" y="-542" font-family="Helvetica,sans-Serif" font-size="10.00">should_expand_tilde</text>
</a>
</g>
</g>
<!-- Node29&#45;&gt;Node32 -->
<g id="edge45" class="edge">
<title>Node29&#45;&gt;Node32</title>
<path fill="none" stroke="#63b8ff" d="M1035.39,-635.79C1054.49,-619.9 1094.65,-588.16 1133,-568.5 1141.26,-564.27 1150.43,-560.5 1159.33,-557.28"/>
<polygon fill="#63b8ff" stroke="#63b8ff" points="1160.52,-560.57 1168.83,-554 1158.24,-553.96 1160.52,-560.57"/>
</g>
<!-- Node31 -->
<g id="node31" class="node">
<title>Node31</title>
<g id="a_node31"><a xlink:href="get__variable_8c.html#a569170390f0edf013bf89c26ef55ea8c" target="_top" xlink:title=" ">
<polygon fill="white" stroke="#666666" points="1578.5,-614 1501.5,-614 1501.5,-595 1578.5,-595 1578.5,-614"/>
<text text-anchor="middle" x="1540" y="-602" font-family="Helvetica,sans-Serif" font-size="10.00">get_variable</text>
</a>
</g>
</g>
<!-- Node30&#45;&gt;Node31 -->
<g id="edge43" class="edge">
<title>Node30&#45;&gt;Node31</title>
<path fill="none" stroke="#63b8ff" d="M1432.84,-604.5C1451.78,-604.5 1472.88,-604.5 1491.25,-604.5"/>
<polygon fill="#63b8ff" stroke="#63b8ff" points="1491.42,-608 1501.42,-604.5 1491.42,-601 1491.42,-608"/>
</g>
<!-- Node32&#45;&gt;Node33 -->
<g id="edge46" class="edge">
<title>Node32&#45;&gt;Node33</title>
<path fill="none" stroke="#63b8ff" d="M1262.25,-538.12C1274.34,-536.78 1287.27,-535.36 1299.92,-533.96"/>
<polygon fill="#63b8ff" stroke="#63b8ff" points="1300.43,-537.42 1309.99,-532.85 1299.67,-530.47 1300.43,-537.42"/>
</g>
<!-- Node34&#45;&gt;Node26 -->
<g id="edge60" class="edge">
<title>Node34&#45;&gt;Node26</title>
<path fill="none" stroke="#63b8ff" d="M1071.27,-772.96C1090.36,-769.57 1112.64,-766.17 1133,-764.5 1251.52,-754.78 1389.96,-765.66 1470.72,-774.23"/>
<polygon fill="#63b8ff" stroke="#63b8ff" points="1470.44,-777.72 1480.76,-775.31 1471.19,-770.76 1470.44,-777.72"/>
</g>
<!-- Node35 -->
<g id="node35" class="node">
<title>Node35</title>
<g id="a_node35"><a xlink:href="lexer__expand__variable_8c.html#abe77b7e35b276965b72648d12abae283" target="_top" xlink:title=" ">
<polygon fill="white" stroke="#666666" points="1246.5,-829 1160.5,-829 1160.5,-810 1246.5,-810 1246.5,-829"/>
<text text-anchor="middle" x="1203.5" y="-817" font-family="Helvetica,sans-Serif" font-size="10.00">append_dollar</text>
</a>
</g>
</g>
<!-- Node34&#45;&gt;Node35 -->
<g id="edge48" class="edge">
<title>Node34&#45;&gt;Node35</title>
<path fill="none" stroke="#63b8ff" d="M1069.97,-792.03C1094.59,-797.13 1125.01,-803.44 1150.49,-808.72"/>
<polygon fill="#63b8ff" stroke="#63b8ff" points="1149.85,-812.16 1160.36,-810.76 1151.28,-805.31 1149.85,-812.16"/>
</g>
<!-- Node36 -->
<g id="node36" class="node">
<title>Node36</title>
<g id="a_node36"><a xlink:href="lexer__expand__variable_8c.html#ab47d31838e3255a1321d85e937919d4e" target="_top" xlink:title=" ">
<polygon fill="white" stroke="#666666" points="1259,-792 1148,-792 1148,-773 1259,-773 1259,-792"/>
<text text-anchor="middle" x="1203.5" y="-780" font-family="Helvetica,sans-Serif" font-size="10.00">append_last_status</text>
</a>
</g>
</g>
<!-- Node34&#45;&gt;Node36 -->
<g id="edge50" class="edge">
<title>Node34&#45;&gt;Node36</title>
<path fill="none" stroke="#63b8ff" d="M1086.68,-782.5C1103.24,-782.5 1121.13,-782.5 1137.79,-782.5"/>
<polygon fill="#63b8ff" stroke="#63b8ff" points="1137.98,-786 1147.98,-782.5 1137.98,-779 1137.98,-786"/>
</g>
<!-- Node37 -->
<g id="node37" class="node">
<title>Node37</title>
<g id="a_node37"><a xlink:href="lexer__expand__variable_8c.html#a9954e7e26e9570a3c41eed4e16bf6791" target="_top" xlink:title=" ">
<polygon fill="white" stroke="#666666" points="1268.5,-866 1138.5,-866 1138.5,-847 1268.5,-847 1268.5,-866"/>
<text text-anchor="middle" x="1203.5" y="-854" font-family="Helvetica,sans-Serif" font-size="10.00">append_variable_value</text>
</a>
</g>
</g>
<!-- Node34&#45;&gt;Node37 -->
<g id="edge53" class="edge">
<title>Node34&#45;&gt;Node37</title>
<path fill="none" stroke="#63b8ff" d="M1040.1,-792.21C1060.92,-804.43 1098.61,-825.4 1133,-838.5 1138.24,-840.5 1143.79,-842.35 1149.37,-844.04"/>
<polygon fill="#63b8ff" stroke="#63b8ff" points="1148.82,-847.53 1159.4,-846.92 1150.75,-840.8 1148.82,-847.53"/>
</g>
<!-- Node38 -->
<g id="node38" class="node">
<title>Node38</title>
<g id="a_node38"><a xlink:href="lexer__expand__variable_8c.html#a1d07a8c171e69a5c58a385a75520e6c0" target="_top" xlink:title=" ">
<polygon fill="white" stroke="#666666" points="1261.5,-640.5 1145.5,-640.5 1145.5,-610.5 1261.5,-610.5 1261.5,-640.5"/>
<text text-anchor="start" x="1153.5" y="-628.5" font-family="Helvetica,sans-Serif" font-size="10.00">get_correct_variable</text>
<text text-anchor="middle" x="1203.5" y="-617.5" font-family="Helvetica,sans-Serif" font-size="10.00">_value</text>
</a>
</g>
</g>
<!-- Node34&#45;&gt;Node38 -->
<g id="edge55" class="edge">
<title>Node34&#45;&gt;Node38</title>
<path fill="none" stroke="#63b8ff" d="M1084.78,-772.95C1089.23,-770.68 1093.38,-767.89 1097,-764.5 1135.76,-728.15 1096.18,-688.8 1133,-650.5 1134.4,-649.04 1135.89,-647.67 1137.46,-646.38"/>
<polygon fill="#63b8ff" stroke="#63b8ff" points="1139.61,-649.15 1145.82,-640.56 1135.61,-643.4 1139.61,-649.15"/>
</g>
<!-- Node39 -->
<g id="node39" class="node">
<title>Node39</title>
<g id="a_node39"><a xlink:href="lexer__expand__variable_8c.html#a3674c7faac945bf9ec05a9dc00c08896" target="_top" xlink:title=" ">
<polygon fill="white" stroke="#666666" points="1269,-678 1138,-678 1138,-659 1269,-659 1269,-678"/>
<text text-anchor="middle" x="1203.5" y="-666" font-family="Helvetica,sans-Serif" font-size="10.00">get_variable_name_len</text>
</a>
</g>
</g>
<!-- Node34&#45;&gt;Node39 -->
<g id="edge57" class="edge">
<title>Node34&#45;&gt;Node39</title>
<path fill="none" stroke="#63b8ff" d="M1082.77,-772.97C1087.88,-770.71 1092.72,-767.92 1097,-764.5 1124.94,-742.16 1106.1,-716.09 1133,-692.5 1137.72,-688.36 1143.2,-684.92 1148.97,-682.07"/>
<polygon fill="#63b8ff" stroke="#63b8ff" points="1150.42,-685.26 1158.2,-678.06 1147.63,-678.84 1150.42,-685.26"/>
</g>
<!-- Node35&#45;&gt;Node24 -->
<g id="edge49" class="edge">
<title>Node35&#45;&gt;Node24</title>
<path fill="none" stroke="#63b8ff" d="M1246.58,-824.15C1267.8,-826.49 1293.91,-829.38 1317.13,-831.94"/>
<polygon fill="#63b8ff" stroke="#63b8ff" points="1316.91,-835.44 1327.23,-833.06 1317.68,-828.48 1316.91,-835.44"/>
</g>
<!-- Node36&#45;&gt;Node24 -->
<g id="edge51" class="edge">
<title>Node36&#45;&gt;Node24</title>
<path fill="none" stroke="#63b8ff" d="M1241.45,-792.02C1252.01,-794.89 1263.51,-798.18 1274,-801.5 1296.99,-808.78 1322.5,-817.98 1342.32,-825.39"/>
<polygon fill="#63b8ff" stroke="#63b8ff" points="1341.24,-828.72 1351.83,-828.97 1343.71,-822.17 1341.24,-828.72"/>
</g>
<!-- Node36&#45;&gt;Node26 -->
<g id="edge52" class="edge">
<title>Node36&#45;&gt;Node26</title>
<path fill="none" stroke="#63b8ff" d="M1259.36,-782.5C1317.12,-782.5 1408.18,-782.5 1470.59,-782.5"/>
<polygon fill="#63b8ff" stroke="#63b8ff" points="1470.74,-786 1480.74,-782.5 1470.74,-779 1470.74,-786"/>
</g>
<!-- Node37&#45;&gt;Node24 -->
<g id="edge54" class="edge">
<title>Node37&#45;&gt;Node24</title>
<path fill="none" stroke="#63b8ff" d="M1268.55,-849.8C1284.53,-848.12 1301.6,-846.34 1317.33,-844.69"/>
<polygon fill="#63b8ff" stroke="#63b8ff" points="1317.87,-848.15 1327.46,-843.63 1317.15,-841.19 1317.87,-848.15"/>
</g>
<!-- Node38&#45;&gt;Node30 -->
<g id="edge56" class="edge">
<title>Node38&#45;&gt;Node30</title>
<path fill="none" stroke="#63b8ff" d="M1261.77,-618.51C1277.96,-616.53 1295.68,-614.37 1312.25,-612.35"/>
<polygon fill="#63b8ff" stroke="#63b8ff" points="1312.89,-615.79 1322.39,-611.11 1312.04,-608.84 1312.89,-615.79"/>
</g>
<!-- Node40 -->
<g id="node40" class="node">
<title>Node40</title>
<g id="a_node40"><a xlink:href="lexer__expand__variable_8c.html#a5067193ac632b7565fd8b9ad405a525f" target="_top" xlink:title=" ">
<polygon fill="white" stroke="#666666" points="1440,-678 1315,-678 1315,-659 1440,-659 1440,-678"/>
<text text-anchor="middle" x="1377.5" y="-666" font-family="Helvetica,sans-Serif" font-size="10.00">is_valid_variable_char</text>
</a>
</g>
</g>
<!-- Node39&#45;&gt;Node40 -->
<g id="edge58" class="edge">
<title>Node39&#45;&gt;Node40</title>
<path fill="none" stroke="#63b8ff" d="M1269.04,-668.5C1280.61,-668.5 1292.74,-668.5 1304.51,-668.5"/>
<polygon fill="#63b8ff" stroke="#63b8ff" points="1304.74,-672 1314.74,-668.5 1304.74,-665 1304.74,-672"/>
</g>
<!-- Node41 -->
<g id="node41" class="node">
<title>Node41</title>
<g id="a_node41"><a xlink:href="strings_8h.html#adfd4fc057d3b7ad39c6867928cc44175" target="_top" xlink:title=" ">
<polygon fill="white" stroke="#666666" points="1581.5,-678 1498.5,-678 1498.5,-659 1581.5,-659 1581.5,-678"/>
<text text-anchor="middle" x="1540" y="-666" font-family="Helvetica,sans-Serif" font-size="10.00">my_isnumber</text>
</a>
</g>
</g>
<!-- Node40&#45;&gt;Node41 -->
<g id="edge59" class="edge">
<title>Node40&#45;&gt;Node41</title>
<path fill="none" stroke="#63b8ff" d="M1440.09,-668.5C1455.9,-668.5 1472.72,-668.5 1487.93,-668.5"/>
<polygon fill="#63b8ff" stroke="#63b8ff" points="1488.16,-672 1498.16,-668.5 1488.16,-665 1488.16,-672"/>
</g>
<!-- Node46&#45;&gt;Node5 -->
<g id="edge73" class="edge">
<title>Node46&#45;&gt;Node5</title>
<path fill="none" stroke="#63b8ff" d="M290.74,-122.5C310.02,-122.5 331.78,-122.5 350.56,-122.5"/>
<polygon fill="#63b8ff" stroke="#63b8ff" points="350.66,-126 360.66,-122.5 350.66,-119 350.66,-126"/>
</g>
<!-- Node47 -->
<g id="node47" class="node">
<title>Node47</title>
<g id="a_node47"><a xlink:href="parser__globbing_8c.html#a89bf1b81ac8c9637cbe152bab8467dd7" target="_top" xlink:title=" ">
<polygon fill="white" stroke="#666666" points="435,-76 361,-76 361,-57 435,-57 435,-76"/>
<text text-anchor="middle" x="398" y="-64" font-family="Helvetica,sans-Serif" font-size="10.00">parser_glob</text>
</a>
</g>
</g>
<!-- Node46&#45;&gt;Node47 -->
<g id="edge67" class="edge">
<title>Node46&#45;&gt;Node47</title>
<path fill="none" stroke="#63b8ff" d="M266.16,-112.87C292.21,-103.64 331.71,-89.64 360.5,-79.44"/>
<polygon fill="#63b8ff" stroke="#63b8ff" points="361.94,-82.64 370.19,-76 359.6,-76.04 361.94,-82.64"/>
</g>
<!-- Node48 -->
<g id="node48" class="node">
<title>Node48</title>
<g id="a_node48"><a xlink:href="parser__globbing_8c.html#a0c56750379c92ca65af3924a1358871d" target="_top" xlink:title=" ">
<polygon fill="white" stroke="#666666" points="587.5,-19 494.5,-19 494.5,0 587.5,0 587.5,-19"/>
<text text-anchor="middle" x="541" y="-7" font-family="Helvetica,sans-Serif" font-size="10.00">add_glob_paths</text>
</a>
</g>
</g>
<!-- Node47&#45;&gt;Node48 -->
<g id="edge68" class="edge">
<title>Node47&#45;&gt;Node48</title>
<path fill="none" stroke="#63b8ff" d="M422.6,-56.96C445.68,-47.63 481.03,-33.34 506.91,-22.88"/>
<polygon fill="#63b8ff" stroke="#63b8ff" points="508.36,-26.06 516.32,-19.07 505.74,-19.57 508.36,-26.06"/>
</g>
<!-- Node49 -->
<g id="node49" class="node">
<title>Node49</title>
<g id="a_node49"><a xlink:href="parser__globbing_8c.html#a0fc94c1eba37fdbe32c9843dba97659b" target="_top" xlink:title=" ">
<polygon fill="white" stroke="#666666" points="739.5,-38 639.5,-38 639.5,-19 739.5,-19 739.5,-38"/>
<text text-anchor="middle" x="689.5" y="-26" font-family="Helvetica,sans-Serif" font-size="10.00">append_cmd_arg</text>
</a>
</g>
</g>
<!-- Node47&#45;&gt;Node49 -->
<g id="edge70" class="edge">
<title>Node47&#45;&gt;Node49</title>
<path fill="none" stroke="#63b8ff" d="M435.08,-61.76C483.7,-55.38 570.85,-43.94 629.18,-36.29"/>
<polygon fill="#63b8ff" stroke="#63b8ff" points="629.91,-39.72 639.36,-34.95 628.99,-32.78 629.91,-39.72"/>
</g>
<!-- Node50 -->
<g id="node50" class="node">
<title>Node50</title>
<g id="a_node50"><a xlink:href="parser__globbing_8c.html#af186620151b6b4726e68024a21185ba7" target="_top" xlink:title=" ">
<polygon fill="white" stroke="#666666" points="586.5,-95 495.5,-95 495.5,-76 586.5,-76 586.5,-95"/>
<text text-anchor="middle" x="541" y="-83" font-family="Helvetica,sans-Serif" font-size="10.00">get_glob_paths</text>
</a>
</g>
</g>
<!-- Node47&#45;&gt;Node50 -->
<g id="edge71" class="edge">
<title>Node47&#45;&gt;Node50</title>
<path fill="none" stroke="#63b8ff" d="M435.31,-71.39C450.45,-73.43 468.36,-75.85 485.04,-78.09"/>
<polygon fill="#63b8ff" stroke="#63b8ff" points="484.86,-81.6 495.24,-79.47 485.8,-74.66 484.86,-81.6"/>
</g>
<!-- Node48&#45;&gt;Node49 -->
<g id="edge69" class="edge">
<title>Node48&#45;&gt;Node49</title>
<path fill="none" stroke="#63b8ff" d="M587.55,-15.41C600.8,-17.13 615.46,-19.03 629.42,-20.84"/>
<polygon fill="#63b8ff" stroke="#63b8ff" points="629.05,-24.32 639.42,-22.13 629.95,-17.38 629.05,-24.32"/>
</g>
<!-- Node50&#45;&gt;Node45 -->
<g id="edge72" class="edge">
<title>Node50&#45;&gt;Node45</title>
<path fill="none" stroke="#63b8ff" d="M586.75,-85.5C600.83,-85.5 616.58,-85.5 631.4,-85.5"/>
<polygon fill="#63b8ff" stroke="#63b8ff" points="631.49,-89 641.49,-85.5 631.49,-82 631.49,-89"/>
</g>
</g>
</svg>
