<?xml version="1.0" encoding="UTF-8" standalone="no"?>
<!DOCTYPE svg PUBLIC "-//W3C//DTD SVG 1.1//EN"
 "http://www.w3.org/Graphics/SVG/1.1/DTD/svg11.dtd">
<!-- Generated by graphviz version 2.43.0 (0)
 -->
<!-- Title: parse_word_token Pages: 1 -->
<!--zoomable 972 -->
<svg id="main" version="1.1" xmlns="http://www.w3.org/2000/svg" xmlns:xlink="http://www.w3.org/1999/xlink" xml:space="preserve" onload="init(evt)">
<style type="text/css"><![CDATA[
.edge:hover path { stroke: red; }
.edge:hover polygon { stroke: red; fill: red; }
]]></style>
<script type="text/javascript"><![CDATA[
var edges = document.getElementsByTagName('g');
if (edges && edges.length) {
  for (var i=0;i<edges.length;i++) {
    if (edges[i].id.substr(0,4)=='edge') {
      edges[i].setAttribute('class','edge');
    }
  }
}
]]></script>
        <defs>
                <circle id="rim" cx="0" cy="0" r="7"/>
                <circle id="rim2" cx="0" cy="0" r="3.5"/>
                <g id="zoomPlus">
                        <use xlink:href="#rim" fill="#404040">
                                <set attributeName="fill" to="#808080" begin="zoomplus.mouseover" end="zoomplus.mouseout"/>
                        </use>
                        <path d="M-4,0h8M0,-4v8" fill="none" stroke="white" stroke-width="1.5" pointer-events="none"/>
                </g>
                <g id="zoomMin">
                        <use xlink:href="#rim" fill="#404040">
                                <set attributeName="fill" to="#808080" begin="zoomminus.mouseover" end="zoomminus.mouseout"/>
                        </use>
                        <path d="M-4,0h8" fill="none" stroke="white" stroke-width="1.5" pointer-events="none"/>
                </g>
                <g id="dirArrow">
                        <path fill="none" stroke="white" stroke-width="1.5" d="M0,-3.0v7 M-2.5,-0.5L0,-3.0L2.5,-0.5"/>
                </g>
               <g id="resetDef">
                       <use xlink:href="#rim2" fill="#404040">
                               <set attributeName="fill" to="#808080" begin="reset.mouseover" end="reset.mouseout"/>
                       </use>
               </g>
        </defs>

<script type="text/javascript">
var viewWidth = 1367;
var viewHeight = 972;
var sectionId = 'dynsection-7';
</script>
<script xlink:href="svgpan.js"/>
<svg id="graph" class="graph">
<g id="viewport">
<title>parse_word_token</title>
<!-- Node1 -->
<g id="node1" class="node">
<title>Node1</title>
<g id="a_node1"><a xlink:title=" ">
<polygon fill="#999999" stroke="#666666" points="105,-457 0,-457 0,-438 105,-438 105,-457"/>
<text text-anchor="middle" x="52.5" y="-445" font-family="Helvetica,sans-Serif" font-size="10.00">parse_word_token</text>
</a>
</g>
</g>
<!-- Node2 -->
<g id="node2" class="node">
<title>Node2</title>
<g id="a_node2"><a xlink:href="parser__globbing_8c.html#a89bf1b81ac8c9637cbe152bab8467dd7" target="_top" xlink:title=" ">
<polygon fill="white" stroke="#666666" points="215,-549 141,-549 141,-530 215,-530 215,-549"/>
<text text-anchor="middle" x="178" y="-537" font-family="Helvetica,sans-Serif" font-size="10.00">parser_glob</text>
</a>
</g>
</g>
<!-- Node1&#45;&gt;Node2 -->
<g id="edge1" class="edge">
<title>Node1&#45;&gt;Node2</title>
<path fill="none" stroke="#63b8ff" d="M66.72,-457.35C87.98,-473.19 129.98,-504.48 155.57,-523.54"/>
<polygon fill="#63b8ff" stroke="#63b8ff" points="153.77,-526.56 163.88,-529.73 157.95,-520.94 153.77,-526.56"/>
</g>
<!-- Node7 -->
<g id="node7" class="node">
<title>Node7</title>
<g id="a_node7"><a xlink:href="parser__next_8c.html#ad25986b565a767c6ad7d0b0b8846fca6" target="_top" xlink:title=" ">
<polygon fill="white" stroke="#666666" points="215,-374 141,-374 141,-355 215,-355 215,-374"/>
<text text-anchor="middle" x="178" y="-362" font-family="Helvetica,sans-Serif" font-size="10.00">parser_next</text>
</a>
</g>
</g>
<!-- Node1&#45;&gt;Node7 -->
<g id="edge7" class="edge">
<title>Node1&#45;&gt;Node7</title>
<path fill="none" stroke="#63b8ff" d="M67.67,-437.98C88.77,-423.8 128.69,-396.97 154.01,-379.95"/>
<polygon fill="#63b8ff" stroke="#63b8ff" points="156.27,-382.65 162.62,-374.17 152.37,-376.84 156.27,-382.65"/>
</g>
<!-- Node3 -->
<g id="node3" class="node">
<title>Node3</title>
<g id="a_node3"><a xlink:href="parser__globbing_8c.html#a0c56750379c92ca65af3924a1358871d" target="_top" xlink:title=" ">
<polygon fill="white" stroke="#666666" points="347.5,-568 254.5,-568 254.5,-549 347.5,-549 347.5,-568"/>
<text text-anchor="middle" x="301" y="-556" font-family="Helvetica,sans-Serif" font-size="10.00">add_glob_paths</text>
</a>
</g>
</g>
<!-- Node2&#45;&gt;Node3 -->
<g id="edge2" class="edge">
<title>Node2&#45;&gt;Node3</title>
<path fill="none" stroke="#63b8ff" d="M215.3,-545.2C224.4,-546.63 234.36,-548.19 244.17,-549.73"/>
<polygon fill="#63b8ff" stroke="#63b8ff" points="243.85,-553.23 254.28,-551.32 244.94,-546.31 243.85,-553.23"/>
</g>
<!-- Node4 -->
<g id="node4" class="node">
<title>Node4</title>
<g id="a_node4"><a xlink:href="parser__globbing_8c.html#a0fc94c1eba37fdbe32c9843dba97659b" target="_top" xlink:title=" ">
<polygon fill="white" stroke="#666666" points="499.5,-597 399.5,-597 399.5,-578 499.5,-578 499.5,-597"/>
<text text-anchor="middle" x="449.5" y="-585" font-family="Helvetica,sans-Serif" font-size="10.00">append_cmd_arg</text>
</a>
</g>
</g>
<!-- Node2&#45;&gt;Node4 -->
<g id="edge4" class="edge">
<title>Node2&#45;&gt;Node4</title>
<path fill="none" stroke="#63b8ff" d="M193.15,-549.06C207.17,-557.95 229.57,-570.68 251,-576.5 296.27,-588.79 349.47,-591.1 389.24,-590.58"/>
<polygon fill="#63b8ff" stroke="#63b8ff" points="389.38,-594.07 399.3,-590.38 389.24,-587.08 389.38,-594.07"/>
</g>
<!-- Node5 -->
<g id="node5" class="node">
<title>Node5</title>
<g id="a_node5"><a xlink:href="parser__globbing_8c.html#af186620151b6b4726e68024a21185ba7" target="_top" xlink:title=" ">
<polygon fill="white" stroke="#666666" points="346.5,-531 255.5,-531 255.5,-512 346.5,-512 346.5,-531"/>
<text text-anchor="middle" x="301" y="-519" font-family="Helvetica,sans-Serif" font-size="10.00">get_glob_paths</text>
</a>
</g>
</g>
<!-- Node2&#45;&gt;Node5 -->
<g id="edge5" class="edge">
<title>Node2&#45;&gt;Node5</title>
<path fill="none" stroke="#63b8ff" d="M215.3,-534.1C224.7,-532.7 235.03,-531.16 245.15,-529.66"/>
<polygon fill="#63b8ff" stroke="#63b8ff" points="245.78,-533.1 255.15,-528.17 244.75,-526.18 245.78,-533.1"/>
</g>
<!-- Node3&#45;&gt;Node4 -->
<g id="edge3" class="edge">
<title>Node3&#45;&gt;Node4</title>
<path fill="none" stroke="#63b8ff" d="M347.55,-567.52C361.07,-570.19 376.06,-573.16 390.27,-575.97"/>
<polygon fill="#63b8ff" stroke="#63b8ff" points="389.95,-579.48 400.44,-577.99 391.31,-572.61 389.95,-579.48"/>
</g>
<!-- Node6 -->
<g id="node6" class="node">
<title>Node6</title>
<g id="a_node6"><a xlink:href="parser__set__error_8c.html#adcfabdb026b94fdbe4b6cbf5cb16522a" target="_top" xlink:title=" ">
<polygon fill="white" stroke="#666666" points="497.5,-541 401.5,-541 401.5,-522 497.5,-522 497.5,-541"/>
<text text-anchor="middle" x="449.5" y="-529" font-family="Helvetica,sans-Serif" font-size="10.00">parser_set_error</text>
</a>
</g>
</g>
<!-- Node5&#45;&gt;Node6 -->
<g id="edge6" class="edge">
<title>Node5&#45;&gt;Node6</title>
<path fill="none" stroke="#63b8ff" d="M346.75,-524.55C360.83,-525.52 376.58,-526.59 391.4,-527.6"/>
<polygon fill="#63b8ff" stroke="#63b8ff" points="391.27,-531.1 401.49,-528.29 391.75,-524.12 391.27,-531.1"/>
</g>
<!-- Node8 -->
<g id="node8" class="node">
<title>Node8</title>
<g id="a_node8"><a xlink:href="lexer__next__token_8c.html#a3def5432329709fb4df861d90672c510" target="_top" xlink:title=" ">
<polygon fill="white" stroke="#666666" points="351,-374 251,-374 251,-355 351,-355 351,-374"/>
<text text-anchor="middle" x="301" y="-362" font-family="Helvetica,sans-Serif" font-size="10.00">lexer_next_token</text>
</a>
</g>
</g>
<!-- Node7&#45;&gt;Node8 -->
<g id="edge8" class="edge">
<title>Node7&#45;&gt;Node8</title>
<path fill="none" stroke="#63b8ff" d="M215.3,-364.5C223.31,-364.5 231.99,-364.5 240.64,-364.5"/>
<polygon fill="#63b8ff" stroke="#63b8ff" points="240.74,-368 250.74,-364.5 240.74,-361 240.74,-368"/>
</g>
<!-- Node46 -->
<g id="node46" class="node">
<title>Node46</title>
<g id="a_node46"><a xlink:href="destroy__token_8c.html#ad1a471ee7b1ccb035d769be1152a370c" target="_top" xlink:title=" ">
<polygon fill="white" stroke="#666666" points="344,-337 258,-337 258,-318 344,-318 344,-337"/>
<text text-anchor="middle" x="301" y="-325" font-family="Helvetica,sans-Serif" font-size="10.00">token_destroy</text>
</a>
</g>
</g>
<!-- Node7&#45;&gt;Node46 -->
<g id="edge67" class="edge">
<title>Node7&#45;&gt;Node46</title>
<path fill="none" stroke="#63b8ff" d="M210.16,-354.97C225.01,-350.43 242.96,-344.94 258.9,-340.07"/>
<polygon fill="#63b8ff" stroke="#63b8ff" points="259.99,-343.4 268.52,-337.12 257.94,-336.7 259.99,-343.4"/>
</g>
<!-- Node9 -->
<g id="node9" class="node">
<title>Node9</title>
<g id="a_node9"><a xlink:href="create__token_8c.html#a15bcfc92177012893c626ce7d2d6bb6b" target="_top" xlink:title=" ">
<polygon fill="white" stroke="#666666" points="823,-223 743,-223 743,-204 823,-204 823,-223"/>
<text text-anchor="middle" x="783" y="-211" font-family="Helvetica,sans-Serif" font-size="10.00">create_token</text>
</a>
</g>
</g>
<!-- Node8&#45;&gt;Node9 -->
<g id="edge9" class="edge">
<title>Node8&#45;&gt;Node9</title>
<path fill="none" stroke="#63b8ff" d="M335.23,-354.96C340.84,-352.44 346.35,-349.33 351,-345.5 374.13,-326.46 361.8,-304.71 387,-288.5 494.9,-219.11 548.01,-278.4 673,-249.5 698.48,-243.61 726.48,-234.3 747.71,-226.62"/>
<polygon fill="#63b8ff" stroke="#63b8ff" points="749.08,-229.85 757.26,-223.12 746.67,-223.28 749.08,-229.85"/>
</g>
<!-- Node10 -->
<g id="node10" class="node">
<title>Node10</title>
<g id="a_node10"><a xlink:href="lexer__next__token_8c.html#add2e1acaa9518ecf20b6670ad91a5c65" target="_top" xlink:title=" ">
<polygon fill="white" stroke="#666666" points="500.5,-222 398.5,-222 398.5,-203 500.5,-203 500.5,-222"/>
<text text-anchor="middle" x="449.5" y="-210" font-family="Helvetica,sans-Serif" font-size="10.00">get_logical_token</text>
</a>
</g>
</g>
<!-- Node8&#45;&gt;Node10 -->
<g id="edge10" class="edge">
<title>Node8&#45;&gt;Node10</title>
<path fill="none" stroke="#63b8ff" d="M337.34,-354.91C342.35,-352.44 347.11,-349.35 351,-345.5 381.62,-315.2 360.23,-289.25 387,-255.5 396.01,-244.14 408.8,-234.54 420.39,-227.3"/>
<polygon fill="#63b8ff" stroke="#63b8ff" points="422.5,-230.12 429.33,-222.02 418.94,-224.1 422.5,-230.12"/>
</g>
<!-- Node14 -->
<g id="node14" class="node">
<title>Node14</title>
<g id="a_node14"><a xlink:href="lexer__next__token_8c.html#abcee8a7ba5ea6ca80c0bd7e3dd8d9a32" target="_top" xlink:title=" ">
<polygon fill="white" stroke="#666666" points="510.5,-93 388.5,-93 388.5,-74 510.5,-74 510.5,-93"/>
<text text-anchor="middle" x="449.5" y="-81" font-family="Helvetica,sans-Serif" font-size="10.00">get_redirection_token</text>
</a>
</g>
</g>
<!-- Node8&#45;&gt;Node14 -->
<g id="edge17" class="edge">
<title>Node8&#45;&gt;Node14</title>
<path fill="none" stroke="#63b8ff" d="M338.85,-354.88C343.41,-352.43 347.64,-349.35 351,-345.5 396.61,-293.16 361.82,-258.2 387,-193.5 400.28,-159.37 422.48,-122.85 436.27,-101.65"/>
<polygon fill="#63b8ff" stroke="#63b8ff" points="439.35,-103.33 441.94,-93.06 433.51,-99.47 439.35,-103.33"/>
</g>
<!-- Node19 -->
<g id="node19" class="node">
<title>Node19</title>
<g id="a_node19"><a xlink:href="lexer__newline_8c.html#a9f60bf18297b9c705fa6cdff027c79fc" target="_top" xlink:title=" ">
<polygon fill="white" stroke="#666666" points="652.5,-355 568.5,-355 568.5,-336 652.5,-336 652.5,-355"/>
<text text-anchor="middle" x="610.5" y="-343" font-family="Helvetica,sans-Serif" font-size="10.00">lexer_newline</text>
</a>
</g>
</g>
<!-- Node8&#45;&gt;Node19 -->
<g id="edge26" class="edge">
<title>Node8&#45;&gt;Node19</title>
<path fill="none" stroke="#63b8ff" d="M351.06,-361.47C407.73,-357.97 500.53,-352.23 558.15,-348.67"/>
<polygon fill="#63b8ff" stroke="#63b8ff" points="558.72,-352.14 568.48,-348.03 558.29,-345.16 558.72,-352.14"/>
</g>
<!-- Node20 -->
<g id="node20" class="node">
<title>Node20</title>
<g id="a_node20"><a xlink:href="lexer__parenthesis_8c.html#a2b13eaa0fee255bea85bd4279f369795" target="_top" xlink:title=" ">
<polygon fill="white" stroke="#666666" points="501,-467 398,-467 398,-448 501,-448 501,-467"/>
<text text-anchor="middle" x="449.5" y="-455" font-family="Helvetica,sans-Serif" font-size="10.00">lexer_parenthesis</text>
</a>
</g>
</g>
<!-- Node8&#45;&gt;Node20 -->
<g id="edge28" class="edge">
<title>Node8&#45;&gt;Node20</title>
<path fill="none" stroke="#63b8ff" d="M310.46,-374.1C324.74,-389.76 355.2,-420.8 387,-438.5 390.89,-440.67 395.07,-442.62 399.34,-444.38"/>
<polygon fill="#63b8ff" stroke="#63b8ff" points="398.19,-447.68 408.78,-447.9 400.64,-441.12 398.19,-447.68"/>
</g>
<!-- Node21 -->
<g id="node21" class="node">
<title>Node21</title>
<g id="a_node21"><a xlink:href="lexer__semicolon_8c.html#a1612109b245d9780427946e4e33b01b7" target="_top" xlink:title=" ">
<polygon fill="white" stroke="#666666" points="497.5,-317 401.5,-317 401.5,-298 497.5,-298 497.5,-317"/>
<text text-anchor="middle" x="449.5" y="-305" font-family="Helvetica,sans-Serif" font-size="10.00">lexer_semicolon</text>
</a>
</g>
</g>
<!-- Node8&#45;&gt;Node21 -->
<g id="edge30" class="edge">
<title>Node8&#45;&gt;Node21</title>
<path fill="none" stroke="#63b8ff" d="M326.68,-354.94C334.46,-351.92 343.09,-348.57 351,-345.5 372.2,-337.26 395.98,-327.99 414.74,-320.67"/>
<polygon fill="#63b8ff" stroke="#63b8ff" points="416.02,-323.93 424.06,-317.04 413.47,-317.41 416.02,-323.93"/>
</g>
<!-- Node22 -->
<g id="node22" class="node">
<title>Node22</title>
<g id="a_node22"><a xlink:href="lexer__word_8c.html#ac2600a9ba16009c4d8c114a118c54955" target="_top" xlink:title=" ">
<polygon fill="white" stroke="#666666" points="484.5,-504 414.5,-504 414.5,-485 484.5,-485 484.5,-504"/>
<text text-anchor="middle" x="449.5" y="-492" font-family="Helvetica,sans-Serif" font-size="10.00">lexer_word</text>
</a>
</g>
</g>
<!-- Node8&#45;&gt;Node22 -->
<g id="edge32" class="edge">
<title>Node8&#45;&gt;Node22</title>
<path fill="none" stroke="#63b8ff" d="M306.7,-374.13C317.69,-395.61 347.17,-447.75 387,-475.5 392.3,-479.19 398.33,-482.18 404.5,-484.6"/>
<polygon fill="#63b8ff" stroke="#63b8ff" points="403.64,-488 414.23,-487.95 405.92,-481.39 403.64,-488"/>
</g>
<!-- Node44 -->
<g id="node44" class="node">
<title>Node44</title>
<g id="a_node44"><a xlink:href="lexer__next__token_8c.html#a7f0a2dd2373821667a4d5381e7711aa0" target="_top" xlink:title=" ">
<polygon fill="white" stroke="#666666" points="494,-430 405,-430 405,-411 494,-411 494,-430"/>
<text text-anchor="middle" x="449.5" y="-418" font-family="Helvetica,sans-Serif" font-size="10.00">skip_comment</text>
</a>
</g>
</g>
<!-- Node8&#45;&gt;Node44 -->
<g id="edge65" class="edge">
<title>Node8&#45;&gt;Node44</title>
<path fill="none" stroke="#63b8ff" d="M322.35,-374.12C339.41,-382 364.52,-393.16 387,-401.5 392.91,-403.69 399.21,-405.84 405.43,-407.86"/>
<polygon fill="#63b8ff" stroke="#63b8ff" points="404.49,-411.23 415.08,-410.91 406.6,-404.56 404.49,-411.23"/>
</g>
<!-- Node45 -->
<g id="node45" class="node">
<title>Node45</title>
<g id="a_node45"><a xlink:href="lexer__next__token_8c.html#a5b2052471d98cef2998e1367f9bf8f6d" target="_top" xlink:title=" ">
<polygon fill="white" stroke="#666666" points="512,-393 387,-393 387,-374 512,-374 512,-393"/>
<text text-anchor="middle" x="449.5" y="-381" font-family="Helvetica,sans-Serif" font-size="10.00">skip_spaces_and_tabs</text>
</a>
</g>
</g>
<!-- Node8&#45;&gt;Node45 -->
<g id="edge66" class="edge">
<title>Node8&#45;&gt;Node45</title>
<path fill="none" stroke="#63b8ff" d="M351.19,-370.88C359.43,-371.95 368.14,-373.08 376.81,-374.2"/>
<polygon fill="#63b8ff" stroke="#63b8ff" points="376.58,-377.7 386.95,-375.52 377.48,-370.76 376.58,-377.7"/>
</g>
<!-- Node11 -->
<g id="node11" class="node">
<title>Node11</title>
<g id="a_node11"><a xlink:href="lexer__logical__and_8c.html#a59e5031d54357d65c6873edc67de2a47" target="_top" xlink:title=" ">
<polygon fill="white" stroke="#666666" points="661,-241 560,-241 560,-222 661,-222 661,-241"/>
<text text-anchor="middle" x="610.5" y="-229" font-family="Helvetica,sans-Serif" font-size="10.00">lexer_logical_and</text>
</a>
</g>
</g>
<!-- Node10&#45;&gt;Node11 -->
<g id="edge11" class="edge">
<title>Node10&#45;&gt;Node11</title>
<path fill="none" stroke="#63b8ff" d="M500.81,-218.51C516.26,-220.36 533.41,-222.41 549.45,-224.32"/>
<polygon fill="#63b8ff" stroke="#63b8ff" points="549.45,-227.85 559.79,-225.56 550.28,-220.9 549.45,-227.85"/>
</g>
<!-- Node12 -->
<g id="node12" class="node">
<title>Node12</title>
<g id="a_node12"><a xlink:href="lexer__logical__or_8c.html#ac3851eaea27bd5774b126b888bdddf93" target="_top" xlink:title=" ">
<polygon fill="white" stroke="#666666" points="657,-204 564,-204 564,-185 657,-185 657,-204"/>
<text text-anchor="middle" x="610.5" y="-192" font-family="Helvetica,sans-Serif" font-size="10.00">lexer_logical_or</text>
</a>
</g>
</g>
<!-- Node10&#45;&gt;Node12 -->
<g id="edge13" class="edge">
<title>Node10&#45;&gt;Node12</title>
<path fill="none" stroke="#63b8ff" d="M500.81,-206.8C517.69,-204.89 536.62,-202.75 553.88,-200.8"/>
<polygon fill="#63b8ff" stroke="#63b8ff" points="554.29,-204.27 563.83,-199.67 553.5,-197.32 554.29,-204.27"/>
</g>
<!-- Node13 -->
<g id="node13" class="node">
<title>Node13</title>
<g id="a_node13"><a xlink:href="lexer__pipe_8c.html#a693816e38802a086de64c09cb7cebeb7" target="_top" xlink:title=" ">
<polygon fill="white" stroke="#666666" points="644,-167 577,-167 577,-148 644,-148 644,-167"/>
<text text-anchor="middle" x="610.5" y="-155" font-family="Helvetica,sans-Serif" font-size="10.00">lexer_pipe</text>
</a>
</g>
</g>
<!-- Node10&#45;&gt;Node13 -->
<g id="edge15" class="edge">
<title>Node10&#45;&gt;Node13</title>
<path fill="none" stroke="#63b8ff" d="M474.35,-202.85C493.98,-195.06 522.6,-184.02 548,-175.5 554.09,-173.46 560.56,-171.42 566.94,-169.49"/>
<polygon fill="#63b8ff" stroke="#63b8ff" points="568.21,-172.76 576.8,-166.56 566.21,-166.05 568.21,-172.76"/>
</g>
<!-- Node11&#45;&gt;Node9 -->
<g id="edge12" class="edge">
<title>Node11&#45;&gt;Node9</title>
<path fill="none" stroke="#63b8ff" d="M661.27,-226.25C683.78,-223.87 710.29,-221.07 732.73,-218.7"/>
<polygon fill="#63b8ff" stroke="#63b8ff" points="733.15,-222.18 742.73,-217.65 732.42,-215.22 733.15,-222.18"/>
</g>
<!-- Node12&#45;&gt;Node9 -->
<g id="edge14" class="edge">
<title>Node12&#45;&gt;Node9</title>
<path fill="none" stroke="#63b8ff" d="M657.19,-199.59C680.48,-202.19 708.82,-205.35 732.61,-208"/>
<polygon fill="#63b8ff" stroke="#63b8ff" points="732.52,-211.51 742.84,-209.14 733.29,-204.55 732.52,-211.51"/>
</g>
<!-- Node13&#45;&gt;Node9 -->
<g id="edge16" class="edge">
<title>Node13&#45;&gt;Node9</title>
<path fill="none" stroke="#63b8ff" d="M644.15,-166.72C653.5,-169.45 663.68,-172.51 673,-175.5 697.55,-183.37 724.95,-192.92 746.13,-200.48"/>
<polygon fill="#63b8ff" stroke="#63b8ff" points="745.1,-203.83 755.7,-203.91 747.46,-197.24 745.1,-203.83"/>
</g>
<!-- Node15 -->
<g id="node15" class="node">
<title>Node15</title>
<g id="a_node15"><a xlink:href="lexer__heredoc_8c.html#a9db043b0e8df9ad1155a65a8fcf67c11" target="_top" xlink:title=" ">
<polygon fill="white" stroke="#666666" points="653,-93 568,-93 568,-74 653,-74 653,-93"/>
<text text-anchor="middle" x="610.5" y="-81" font-family="Helvetica,sans-Serif" font-size="10.00">lexer_heredoc</text>
</a>
</g>
</g>
<!-- Node14&#45;&gt;Node15 -->
<g id="edge18" class="edge">
<title>Node14&#45;&gt;Node15</title>
<path fill="none" stroke="#63b8ff" d="M510.61,-83.5C526.04,-83.5 542.52,-83.5 557.5,-83.5"/>
<polygon fill="#63b8ff" stroke="#63b8ff" points="557.61,-87 567.61,-83.5 557.61,-80 557.61,-87"/>
</g>
<!-- Node16 -->
<g id="node16" class="node">
<title>Node16</title>
<g id="a_node16"><a xlink:href="lexer__redirect__append_8c.html#a09beefbfaf132dbe04add1370a6fb2e3" target="_top" xlink:title=" ">
<polygon fill="white" stroke="#666666" points="673,-56 548,-56 548,-37 673,-37 673,-56"/>
<text text-anchor="middle" x="610.5" y="-44" font-family="Helvetica,sans-Serif" font-size="10.00">lexer_redirect_append</text>
</a>
</g>
</g>
<!-- Node14&#45;&gt;Node16 -->
<g id="edge20" class="edge">
<title>Node14&#45;&gt;Node16</title>
<path fill="none" stroke="#63b8ff" d="M491.45,-73.97C511.86,-69.22 536.75,-63.43 558.4,-58.39"/>
<polygon fill="#63b8ff" stroke="#63b8ff" points="559.47,-61.74 568.42,-56.06 557.88,-54.92 559.47,-61.74"/>
</g>
<!-- Node17 -->
<g id="node17" class="node">
<title>Node17</title>
<g id="a_node17"><a xlink:href="lexer__redirect__in_8c.html#ac723d9668329d99b35003ed2423889e5" target="_top" xlink:title=" ">
<polygon fill="white" stroke="#666666" points="659.5,-19 561.5,-19 561.5,0 659.5,0 659.5,-19"/>
<text text-anchor="middle" x="610.5" y="-7" font-family="Helvetica,sans-Serif" font-size="10.00">lexer_redirect_in</text>
</a>
</g>
</g>
<!-- Node14&#45;&gt;Node17 -->
<g id="edge22" class="edge">
<title>Node14&#45;&gt;Node17</title>
<path fill="none" stroke="#63b8ff" d="M464.8,-73.83C483.33,-61.66 516.94,-40.75 548,-27.5 552.44,-25.61 557.13,-23.84 561.87,-22.21"/>
<polygon fill="#63b8ff" stroke="#63b8ff" points="563.17,-25.47 571.6,-19.06 561.01,-18.81 563.17,-25.47"/>
</g>
<!-- Node18 -->
<g id="node18" class="node">
<title>Node18</title>
<g id="a_node18"><a xlink:href="lexer__redirect__out_8c.html#a70e2216639c96030b3861405ae3497c6" target="_top" xlink:title=" ">
<polygon fill="white" stroke="#666666" points="662.5,-130 558.5,-130 558.5,-111 662.5,-111 662.5,-130"/>
<text text-anchor="middle" x="610.5" y="-118" font-family="Helvetica,sans-Serif" font-size="10.00">lexer_redirect_out</text>
</a>
</g>
</g>
<!-- Node14&#45;&gt;Node18 -->
<g id="edge24" class="edge">
<title>Node14&#45;&gt;Node18</title>
<path fill="none" stroke="#63b8ff" d="M491.45,-93.03C511.86,-97.78 536.75,-103.57 558.4,-108.61"/>
<polygon fill="#63b8ff" stroke="#63b8ff" points="557.88,-112.08 568.42,-110.94 559.47,-105.26 557.88,-112.08"/>
</g>
<!-- Node15&#45;&gt;Node9 -->
<g id="edge19" class="edge">
<title>Node15&#45;&gt;Node9</title>
<path fill="none" stroke="#63b8ff" d="M653.1,-92.49C660.01,-94.87 666.9,-97.83 673,-101.5 714.41,-126.43 750.96,-170.89 769.37,-195.63"/>
<polygon fill="#63b8ff" stroke="#63b8ff" points="766.59,-197.76 775.31,-203.78 772.25,-193.64 766.59,-197.76"/>
</g>
<!-- Node16&#45;&gt;Node9 -->
<g id="edge21" class="edge">
<title>Node16&#45;&gt;Node9</title>
<path fill="none" stroke="#63b8ff" d="M657.08,-56.12C662.71,-58.36 668.17,-61.11 673,-64.5 722.24,-99.06 757.87,-163.03 773.38,-194.72"/>
<polygon fill="#63b8ff" stroke="#63b8ff" points="770.24,-196.26 777.7,-203.79 776.56,-193.26 770.24,-196.26"/>
</g>
<!-- Node17&#45;&gt;Node9 -->
<g id="edge23" class="edge">
<title>Node17&#45;&gt;Node9</title>
<path fill="none" stroke="#63b8ff" d="M658.36,-19.06C663.6,-21.31 668.61,-24.08 673,-27.5 730.2,-72.14 763.28,-155.84 775.96,-193.84"/>
<polygon fill="#63b8ff" stroke="#63b8ff" points="772.73,-195.22 779.13,-203.67 779.4,-193.08 772.73,-195.22"/>
</g>
<!-- Node18&#45;&gt;Node9 -->
<g id="edge25" class="edge">
<title>Node18&#45;&gt;Node9</title>
<path fill="none" stroke="#63b8ff" d="M650.91,-130.01C658.4,-132.38 666.07,-135.2 673,-138.5 706.92,-154.62 741.96,-180.74 762.87,-197.51"/>
<polygon fill="#63b8ff" stroke="#63b8ff" points="760.7,-200.26 770.66,-203.86 765.12,-194.83 760.7,-200.26"/>
</g>
<!-- Node19&#45;&gt;Node9 -->
<g id="edge27" class="edge">
<title>Node19&#45;&gt;Node9</title>
<path fill="none" stroke="#63b8ff" d="M643.36,-335.89C653.28,-332.17 663.97,-327.37 673,-321.5 712.21,-296.01 748.91,-254.68 768.1,-231.23"/>
<polygon fill="#63b8ff" stroke="#63b8ff" points="771.02,-233.18 774.56,-223.19 765.57,-228.79 771.02,-233.18"/>
</g>
<!-- Node20&#45;&gt;Node9 -->
<g id="edge29" class="edge">
<title>Node20&#45;&gt;Node9</title>
<path fill="none" stroke="#63b8ff" d="M484.3,-447.96C493.38,-445.16 503.14,-441.92 512,-438.5 585.66,-410.12 612.08,-413.7 673,-363.5 719.2,-325.43 755.8,-263.51 772.37,-232.48"/>
<polygon fill="#63b8ff" stroke="#63b8ff" points="775.67,-233.71 777.2,-223.23 769.47,-230.47 775.67,-233.71"/>
</g>
<!-- Node21&#45;&gt;Node9 -->
<g id="edge31" class="edge">
<title>Node21&#45;&gt;Node9</title>
<path fill="none" stroke="#63b8ff" d="M497.9,-308.62C543.92,-308.28 615.11,-303.92 673,-283.5 707.52,-271.32 742.2,-246.34 762.89,-229.75"/>
<polygon fill="#63b8ff" stroke="#63b8ff" points="765.34,-232.26 770.86,-223.22 760.9,-226.85 765.34,-232.26"/>
</g>
<!-- Node22&#45;&gt;Node9 -->
<g id="edge33" class="edge">
<title>Node22&#45;&gt;Node9</title>
<path fill="none" stroke="#63b8ff" d="M484.55,-489.07C531.89,-479.96 617.96,-457.53 673,-408.5 729.41,-358.25 763.08,-271.59 775.96,-233"/>
<polygon fill="#63b8ff" stroke="#63b8ff" points="779.42,-233.66 779.17,-223.07 772.76,-231.51 779.42,-233.66"/>
</g>
<!-- Node23 -->
<g id="node23" class="node">
<title>Node23</title>
<g id="a_node23"><a xlink:href="lexer__word_8c.html#a730574257743b09386cadd2ccbfe4d13" target="_top" xlink:title=" ">
<polygon fill="white" stroke="#666666" points="671.5,-776 549.5,-776 549.5,-757 671.5,-757 671.5,-776"/>
<text text-anchor="middle" x="610.5" y="-764" font-family="Helvetica,sans-Serif" font-size="10.00">handle_current_token</text>
</a>
</g>
</g>
<!-- Node22&#45;&gt;Node23 -->
<g id="edge34" class="edge">
<title>Node22&#45;&gt;Node23</title>
<path fill="none" stroke="#63b8ff" d="M484.61,-498.66C494.41,-501.29 504.47,-505.56 512,-512.5 582.44,-577.4 602.46,-698.85 607.74,-746.55"/>
<polygon fill="#63b8ff" stroke="#63b8ff" points="604.29,-747.17 608.77,-756.77 611.25,-746.47 604.29,-747.17"/>
</g>
<!-- Node35 -->
<g id="node35" class="node">
<title>Node35</title>
<g id="a_node35"><a xlink:href="lexer__is__word__separator_8c.html#abccfc6fc0cdbd040fc9a7dcbfd207090" target="_top" xlink:title=" ">
<polygon fill="white" stroke="#666666" points="1205,-519 1070,-519 1070,-500 1205,-500 1205,-519"/>
<text text-anchor="middle" x="1137.5" y="-507" font-family="Helvetica,sans-Serif" font-size="10.00">lexer_is_word_separator</text>
</a>
</g>
</g>
<!-- Node22&#45;&gt;Node35 -->
<g id="edge64" class="edge">
<title>Node22&#45;&gt;Node35</title>
<path fill="none" stroke="#63b8ff" d="M484.52,-495.24C589.6,-497.54 910.86,-504.57 1059.53,-507.82"/>
<polygon fill="#63b8ff" stroke="#63b8ff" points="1059.86,-511.32 1069.93,-508.04 1060.01,-504.33 1059.86,-511.32"/>
</g>
<!-- Node24 -->
<g id="node24" class="node">
<title>Node24</title>
<g id="a_node24"><a xlink:href="lexer__word_8c.html#acd8f2a3c47fa56f87c2792ccefd2ee3e" target="_top" xlink:title=" ">
<polygon fill="white" stroke="#666666" points="843.5,-739 722.5,-739 722.5,-720 843.5,-720 843.5,-739"/>
<text text-anchor="middle" x="783" y="-727" font-family="Helvetica,sans-Serif" font-size="10.00">handle_double_quote</text>
</a>
</g>
</g>
<!-- Node23&#45;&gt;Node24 -->
<g id="edge35" class="edge">
<title>Node23&#45;&gt;Node24</title>
<path fill="none" stroke="#63b8ff" d="M655.41,-756.97C677.6,-752.16 704.71,-746.27 728.15,-741.19"/>
<polygon fill="#63b8ff" stroke="#63b8ff" points="728.91,-744.6 737.94,-739.06 727.43,-737.76 728.91,-744.6"/>
</g>
<!-- Node25 -->
<g id="node25" class="node">
<title>Node25</title>
<g id="a_node25"><a xlink:href="lexer__word_8c.html#a733339142f4677a066646a12a7e5bec4" target="_top" xlink:title=" ">
<polygon fill="white" stroke="#666666" points="1034,-964 893,-964 893,-945 1034,-945 1034,-964"/>
<text text-anchor="middle" x="963.5" y="-952" font-family="Helvetica,sans-Serif" font-size="10.00">handle_escape_sequence</text>
</a>
</g>
</g>
<!-- Node23&#45;&gt;Node25 -->
<g id="edge36" class="edge">
<title>Node23&#45;&gt;Node25</title>
<path fill="none" stroke="#63b8ff" d="M614.66,-776.19C624.07,-803.35 654.67,-880.53 709,-915.5 760.44,-948.62 829.68,-957.42 882.8,-958.47"/>
<polygon fill="#63b8ff" stroke="#63b8ff" points="882.83,-961.97 892.87,-958.58 882.9,-954.97 882.83,-961.97"/>
</g>
<!-- Node29 -->
<g id="node29" class="node">
<title>Node29</title>
<g id="a_node29"><a xlink:href="lexer__word_8c.html#a3ae03e49183787e7cf32c90ffdef7351" target="_top" xlink:title=" ">
<polygon fill="white" stroke="#666666" points="841.5,-906 724.5,-906 724.5,-887 841.5,-887 841.5,-906"/>
<text text-anchor="middle" x="783" y="-894" font-family="Helvetica,sans-Serif" font-size="10.00">handle_single_quote</text>
</a>
</g>
</g>
<!-- Node23&#45;&gt;Node29 -->
<g id="edge40" class="edge">
<title>Node23&#45;&gt;Node29</title>
<path fill="none" stroke="#63b8ff" d="M619.91,-776.02C635.95,-793.8 672.58,-832.6 709,-858.5 721.84,-867.63 737.15,-875.94 750.44,-882.45"/>
<polygon fill="#63b8ff" stroke="#63b8ff" points="749.15,-885.71 759.68,-886.85 752.16,-879.39 749.15,-885.71"/>
</g>
<!-- Node30 -->
<g id="node30" class="node">
<title>Node30</title>
<g id="a_node30"><a xlink:href="lexer__utils_8c.html#a2ba6f7e43ecbf713c666ab062eac534c" target="_top" xlink:title=" ">
<polygon fill="white" stroke="#666666" points="857,-850 709,-850 709,-831 857,-831 857,-850"/>
<text text-anchor="middle" x="783" y="-838" font-family="Helvetica,sans-Serif" font-size="10.00">lexer_append_current_char</text>
</a>
</g>
</g>
<!-- Node23&#45;&gt;Node30 -->
<g id="edge42" class="edge">
<title>Node23&#45;&gt;Node30</title>
<path fill="none" stroke="#63b8ff" d="M633.44,-776.02C663.16,-788.92 716.38,-812.02 750.4,-826.79"/>
<polygon fill="#63b8ff" stroke="#63b8ff" points="749.31,-830.13 759.87,-830.9 752.09,-823.7 749.31,-830.13"/>
</g>
<!-- Node31 -->
<g id="node31" class="node">
<title>Node31</title>
<g id="a_node31"><a xlink:href="lexer__expand__tilde_8c.html#ae3c478a10a2764ee7c7f94b42f28ecaf" target="_top" xlink:title=" ">
<polygon fill="white" stroke="#666666" points="837.5,-639 728.5,-639 728.5,-620 837.5,-620 837.5,-639"/>
<text text-anchor="middle" x="783" y="-627" font-family="Helvetica,sans-Serif" font-size="10.00">lexer_expand_tilde</text>
</a>
</g>
</g>
<!-- Node23&#45;&gt;Node31 -->
<g id="edge44" class="edge">
<title>Node23&#45;&gt;Node31</title>
<path fill="none" stroke="#63b8ff" d="M623.49,-756.87C652.4,-733.64 726.21,-674.33 761.97,-645.59"/>
<polygon fill="#63b8ff" stroke="#63b8ff" points="764.19,-648.3 769.8,-639.31 759.81,-642.84 764.19,-648.3"/>
</g>
<!-- Node36 -->
<g id="node36" class="node">
<title>Node36</title>
<g id="a_node36"><a xlink:href="lexer__expand__variable_8c.html#a01ad90eb8460a612626bb33c9e15cd52" target="_top" xlink:title=" ">
<polygon fill="white" stroke="#666666" points="846.5,-776 719.5,-776 719.5,-757 846.5,-757 846.5,-776"/>
<text text-anchor="middle" x="783" y="-764" font-family="Helvetica,sans-Serif" font-size="10.00">lexer_expand_variable</text>
</a>
</g>
</g>
<!-- Node23&#45;&gt;Node36 -->
<g id="edge50" class="edge">
<title>Node23&#45;&gt;Node36</title>
<path fill="none" stroke="#63b8ff" d="M671.61,-766.5C683.67,-766.5 696.47,-766.5 708.91,-766.5"/>
<polygon fill="#63b8ff" stroke="#63b8ff" points="709.26,-770 719.26,-766.5 709.26,-763 709.26,-770"/>
</g>
<!-- Node26 -->
<g id="node26" class="node">
<title>Node26</title>
<g id="a_node26"><a xlink:href="lexer__utils_8c.html#abf1c1b3b6033c8f9c8d1b11cc9e14f75" target="_top" xlink:title=" ">
<polygon fill="white" stroke="#666666" points="1187.5,-832 1087.5,-832 1087.5,-813 1187.5,-813 1187.5,-832"/>
<text text-anchor="middle" x="1137.5" y="-820" font-family="Helvetica,sans-Serif" font-size="10.00">lexer_append_str</text>
</a>
</g>
</g>
<!-- Node25&#45;&gt;Node26 -->
<g id="edge37" class="edge">
<title>Node25&#45;&gt;Node26</title>
<path fill="none" stroke="#63b8ff" d="M1002.81,-944.91C1013.39,-941.32 1024.55,-936.58 1034,-930.5 1072.35,-905.81 1106.53,-863.84 1124.07,-840.15"/>
<polygon fill="#63b8ff" stroke="#63b8ff" points="1126.92,-842.19 1129.95,-832.04 1121.25,-838.08 1126.92,-842.19"/>
</g>
<!-- Node27 -->
<g id="node27" class="node">
<title>Node27</title>
<g id="a_node27"><a xlink:href="strings_8h.html#a5e1589f073ac32d227dbc6020c376dab" target="_top" xlink:title=" ">
<polygon fill="white" stroke="#666666" points="1350.5,-832 1249.5,-832 1249.5,-813 1350.5,-813 1350.5,-832"/>
<text text-anchor="middle" x="1300" y="-820" font-family="Helvetica,sans-Serif" font-size="10.00">append_to_buffer</text>
</a>
</g>
</g>
<!-- Node26&#45;&gt;Node27 -->
<g id="edge38" class="edge">
<title>Node26&#45;&gt;Node27</title>
<path fill="none" stroke="#63b8ff" d="M1187.53,-822.5C1203.79,-822.5 1222.08,-822.5 1239.06,-822.5"/>
<polygon fill="#63b8ff" stroke="#63b8ff" points="1239.44,-826 1249.44,-822.5 1239.44,-819 1239.44,-826"/>
</g>
<!-- Node28 -->
<g id="node28" class="node">
<title>Node28</title>
<g id="a_node28"><a xlink:href="lexer__utils_8c.html#a84e8d5514cfe03a20152ad26f170211f" target="_top" xlink:title=" ">
<polygon fill="white" stroke="#666666" points="1359,-776 1241,-776 1241,-757 1359,-757 1359,-776"/>
<text text-anchor="middle" x="1300" y="-764" font-family="Helvetica,sans-Serif" font-size="10.00">lexer_set_alloc_error</text>
</a>
</g>
</g>
<!-- Node26&#45;&gt;Node28 -->
<g id="edge39" class="edge">
<title>Node26&#45;&gt;Node28</title>
<path fill="none" stroke="#63b8ff" d="M1166.09,-812.87C1192.66,-803.6 1233.03,-789.52 1262.3,-779.3"/>
<polygon fill="#63b8ff" stroke="#63b8ff" points="1263.48,-782.6 1271.77,-776 1261.17,-775.99 1263.48,-782.6"/>
</g>
<!-- Node29&#45;&gt;Node26 -->
<g id="edge41" class="edge">
<title>Node29&#45;&gt;Node26</title>
<path fill="none" stroke="#63b8ff" d="M841.75,-898C893.17,-897.85 969.96,-893.95 1034,-875.5 1063.21,-867.08 1093.81,-850.02 1113.89,-837.52"/>
<polygon fill="#63b8ff" stroke="#63b8ff" points="1115.77,-840.47 1122.33,-832.15 1112.01,-834.56 1115.77,-840.47"/>
</g>
<!-- Node30&#45;&gt;Node26 -->
<g id="edge43" class="edge">
<title>Node30&#45;&gt;Node26</title>
<path fill="none" stroke="#63b8ff" d="M828.12,-850.03C878.31,-859.4 962.58,-870.68 1034,-858.5 1059.25,-854.2 1086.55,-844.33 1106.62,-836.01"/>
<polygon fill="#63b8ff" stroke="#63b8ff" points="1108.02,-839.22 1115.85,-832.09 1105.28,-832.78 1108.02,-839.22"/>
</g>
<!-- Node31&#45;&gt;Node26 -->
<g id="edge47" class="edge">
<title>Node31&#45;&gt;Node26</title>
<path fill="none" stroke="#63b8ff" d="M808.21,-639.11C853.77,-657.58 954.79,-700.41 1034,-747.5 1064.38,-765.56 1096.9,-790.41 1116.97,-806.46"/>
<polygon fill="#63b8ff" stroke="#63b8ff" points="1115.03,-809.4 1125.01,-812.96 1119.43,-803.95 1115.03,-809.4"/>
</g>
<!-- Node32 -->
<g id="node32" class="node">
<title>Node32</title>
<g id="a_node32"><a xlink:href="get__variable__value_8c.html#a2edd9900f19af236aa05385a789be3d6" target="_top" xlink:title=" ">
<polygon fill="white" stroke="#666666" points="1192.5,-598 1082.5,-598 1082.5,-579 1192.5,-579 1192.5,-598"/>
<text text-anchor="middle" x="1137.5" y="-586" font-family="Helvetica,sans-Serif" font-size="10.00">get_variable_value</text>
</a>
</g>
</g>
<!-- Node31&#45;&gt;Node32 -->
<g id="edge45" class="edge">
<title>Node31&#45;&gt;Node32</title>
<path fill="none" stroke="#63b8ff" d="M801.48,-619.99C822.49,-609.14 859.14,-592.08 893,-585.5 952.86,-573.87 1022.57,-576.3 1072.02,-580.64"/>
<polygon fill="#63b8ff" stroke="#63b8ff" points="1071.98,-584.15 1082.26,-581.59 1072.62,-577.18 1071.98,-584.15"/>
</g>
<!-- Node34 -->
<g id="node34" class="node">
<title>Node34</title>
<g id="a_node34"><a xlink:href="lexer__expand__tilde_8c.html#aa4231a41b1e79447d6a70db7b075f937" target="_top" xlink:title=" ">
<polygon fill="white" stroke="#666666" points="1022,-538 905,-538 905,-519 1022,-519 1022,-538"/>
<text text-anchor="middle" x="963.5" y="-526" font-family="Helvetica,sans-Serif" font-size="10.00">should_expand_tilde</text>
</a>
</g>
</g>
<!-- Node31&#45;&gt;Node34 -->
<g id="edge48" class="edge">
<title>Node31&#45;&gt;Node34</title>
<path fill="none" stroke="#63b8ff" d="M795.39,-619.79C814.49,-603.9 854.65,-572.16 893,-552.5 901.26,-548.27 910.43,-544.5 919.33,-541.28"/>
<polygon fill="#63b8ff" stroke="#63b8ff" points="920.52,-544.57 928.83,-538 918.24,-537.96 920.52,-544.57"/>
</g>
<!-- Node33 -->
<g id="node33" class="node">
<title>Node33</title>
<g id="a_node33"><a xlink:href="get__variable_8c.html#a569170390f0edf013bf89c26ef55ea8c" target="_top" xlink:title=" ">
<polygon fill="white" stroke="#666666" points="1338.5,-598 1261.5,-598 1261.5,-579 1338.5,-579 1338.5,-598"/>
<text text-anchor="middle" x="1300" y="-586" font-family="Helvetica,sans-Serif" font-size="10.00">get_variable</text>
</a>
</g>
</g>
<!-- Node32&#45;&gt;Node33 -->
<g id="edge46" class="edge">
<title>Node32&#45;&gt;Node33</title>
<path fill="none" stroke="#63b8ff" d="M1192.84,-588.5C1211.78,-588.5 1232.88,-588.5 1251.25,-588.5"/>
<polygon fill="#63b8ff" stroke="#63b8ff" points="1251.42,-592 1261.42,-588.5 1251.42,-585 1251.42,-592"/>
</g>
<!-- Node34&#45;&gt;Node35 -->
<g id="edge49" class="edge">
<title>Node34&#45;&gt;Node35</title>
<path fill="none" stroke="#63b8ff" d="M1022.25,-522.12C1034.34,-520.78 1047.27,-519.36 1059.92,-517.96"/>
<polygon fill="#63b8ff" stroke="#63b8ff" points="1060.43,-521.42 1069.99,-516.85 1059.67,-514.47 1060.43,-521.42"/>
</g>
<!-- Node36&#45;&gt;Node28 -->
<g id="edge63" class="edge">
<title>Node36&#45;&gt;Node28</title>
<path fill="none" stroke="#63b8ff" d="M828.32,-756.99C848.02,-753.22 871.57,-749.35 893,-747.5 1011.49,-737.25 1149.94,-748.73 1230.71,-757.77"/>
<polygon fill="#63b8ff" stroke="#63b8ff" points="1230.42,-761.26 1240.75,-758.92 1231.21,-754.31 1230.42,-761.26"/>
</g>
<!-- Node37 -->
<g id="node37" class="node">
<title>Node37</title>
<g id="a_node37"><a xlink:href="lexer__expand__variable_8c.html#abe77b7e35b276965b72648d12abae283" target="_top" xlink:title=" ">
<polygon fill="white" stroke="#666666" points="1006.5,-813 920.5,-813 920.5,-794 1006.5,-794 1006.5,-813"/>
<text text-anchor="middle" x="963.5" y="-801" font-family="Helvetica,sans-Serif" font-size="10.00">append_dollar</text>
</a>
</g>
</g>
<!-- Node36&#45;&gt;Node37 -->
<g id="edge51" class="edge">
<title>Node36&#45;&gt;Node37</title>
<path fill="none" stroke="#63b8ff" d="M829.97,-776.03C854.59,-781.13 885.01,-787.44 910.49,-792.72"/>
<polygon fill="#63b8ff" stroke="#63b8ff" points="909.85,-796.16 920.36,-794.76 911.28,-789.31 909.85,-796.16"/>
</g>
<!-- Node38 -->
<g id="node38" class="node">
<title>Node38</title>
<g id="a_node38"><a xlink:href="lexer__expand__variable_8c.html#ab47d31838e3255a1321d85e937919d4e" target="_top" xlink:title=" ">
<polygon fill="white" stroke="#666666" points="1019,-776 908,-776 908,-757 1019,-757 1019,-776"/>
<text text-anchor="middle" x="963.5" y="-764" font-family="Helvetica,sans-Serif" font-size="10.00">append_last_status</text>
</a>
</g>
</g>
<!-- Node36&#45;&gt;Node38 -->
<g id="edge53" class="edge">
<title>Node36&#45;&gt;Node38</title>
<path fill="none" stroke="#63b8ff" d="M846.68,-766.5C863.24,-766.5 881.13,-766.5 897.79,-766.5"/>
<polygon fill="#63b8ff" stroke="#63b8ff" points="897.98,-770 907.98,-766.5 897.98,-763 897.98,-770"/>
</g>
<!-- Node39 -->
<g id="node39" class="node">
<title>Node39</title>
<g id="a_node39"><a xlink:href="lexer__expand__variable_8c.html#a9954e7e26e9570a3c41eed4e16bf6791" target="_top" xlink:title=" ">
<polygon fill="white" stroke="#666666" points="1028.5,-850 898.5,-850 898.5,-831 1028.5,-831 1028.5,-850"/>
<text text-anchor="middle" x="963.5" y="-838" font-family="Helvetica,sans-Serif" font-size="10.00">append_variable_value</text>
</a>
</g>
</g>
<!-- Node36&#45;&gt;Node39 -->
<g id="edge56" class="edge">
<title>Node36&#45;&gt;Node39</title>
<path fill="none" stroke="#63b8ff" d="M800.51,-776.15C821.46,-788.09 858.97,-808.42 893,-821.5 899.28,-823.91 905.98,-826.15 912.66,-828.18"/>
<polygon fill="#63b8ff" stroke="#63b8ff" points="911.78,-831.57 922.36,-831 913.74,-824.85 911.78,-831.57"/>
</g>
<!-- Node40 -->
<g id="node40" class="node">
<title>Node40</title>
<g id="a_node40"><a xlink:href="lexer__expand__variable_8c.html#a1d07a8c171e69a5c58a385a75520e6c0" target="_top" xlink:title=" ">
<polygon fill="white" stroke="#666666" points="1021.5,-624.5 905.5,-624.5 905.5,-594.5 1021.5,-594.5 1021.5,-624.5"/>
<text text-anchor="start" x="913.5" y="-612.5" font-family="Helvetica,sans-Serif" font-size="10.00">get_correct_variable</text>
<text text-anchor="middle" x="963.5" y="-601.5" font-family="Helvetica,sans-Serif" font-size="10.00">_value</text>
</a>
</g>
</g>
<!-- Node36&#45;&gt;Node40 -->
<g id="edge58" class="edge">
<title>Node36&#45;&gt;Node40</title>
<path fill="none" stroke="#63b8ff" d="M843.03,-756.98C848.15,-754.49 852.92,-751.38 857,-747.5 895.52,-710.9 855.93,-671.57 893,-633.5 894.22,-632.24 895.52,-631.05 896.87,-629.92"/>
<polygon fill="#63b8ff" stroke="#63b8ff" points="898.98,-632.71 905.17,-624.11 894.97,-626.98 898.98,-632.71"/>
</g>
<!-- Node41 -->
<g id="node41" class="node">
<title>Node41</title>
<g id="a_node41"><a xlink:href="lexer__expand__variable_8c.html#a3674c7faac945bf9ec05a9dc00c08896" target="_top" xlink:title=" ">
<polygon fill="white" stroke="#666666" points="1029,-662 898,-662 898,-643 1029,-643 1029,-662"/>
<text text-anchor="middle" x="963.5" y="-650" font-family="Helvetica,sans-Serif" font-size="10.00">get_variable_name_len</text>
</a>
</g>
</g>
<!-- Node36&#45;&gt;Node41 -->
<g id="edge60" class="edge">
<title>Node36&#45;&gt;Node41</title>
<path fill="none" stroke="#63b8ff" d="M840.94,-756.91C846.71,-754.44 852.21,-751.36 857,-747.5 884.55,-725.31 866.33,-699.75 893,-676.5 897.74,-672.37 903.22,-668.94 908.99,-666.1"/>
<polygon fill="#63b8ff" stroke="#63b8ff" points="910.44,-669.28 918.22,-662.09 907.66,-662.86 910.44,-669.28"/>
</g>
<!-- Node37&#45;&gt;Node26 -->
<g id="edge52" class="edge">
<title>Node37&#45;&gt;Node26</title>
<path fill="none" stroke="#63b8ff" d="M1006.58,-808.15C1027.8,-810.49 1053.91,-813.38 1077.13,-815.94"/>
<polygon fill="#63b8ff" stroke="#63b8ff" points="1076.91,-819.44 1087.23,-817.06 1077.68,-812.48 1076.91,-819.44"/>
</g>
<!-- Node38&#45;&gt;Node26 -->
<g id="edge54" class="edge">
<title>Node38&#45;&gt;Node26</title>
<path fill="none" stroke="#63b8ff" d="M1004.39,-776.09C1014.13,-778.64 1024.49,-781.51 1034,-784.5 1057.39,-791.84 1083.27,-801.45 1103.18,-809.17"/>
<polygon fill="#63b8ff" stroke="#63b8ff" points="1102.13,-812.52 1112.71,-812.9 1104.68,-806 1102.13,-812.52"/>
</g>
<!-- Node38&#45;&gt;Node28 -->
<g id="edge55" class="edge">
<title>Node38&#45;&gt;Node28</title>
<path fill="none" stroke="#63b8ff" d="M1019.36,-766.5C1077.12,-766.5 1168.18,-766.5 1230.59,-766.5"/>
<polygon fill="#63b8ff" stroke="#63b8ff" points="1230.74,-770 1240.74,-766.5 1230.74,-763 1230.74,-770"/>
</g>
<!-- Node39&#45;&gt;Node26 -->
<g id="edge57" class="edge">
<title>Node39&#45;&gt;Node26</title>
<path fill="none" stroke="#63b8ff" d="M1028.55,-833.8C1044.53,-832.12 1061.6,-830.34 1077.33,-828.69"/>
<polygon fill="#63b8ff" stroke="#63b8ff" points="1077.87,-832.15 1087.46,-827.63 1077.15,-825.19 1077.87,-832.15"/>
</g>
<!-- Node40&#45;&gt;Node32 -->
<g id="edge59" class="edge">
<title>Node40&#45;&gt;Node32</title>
<path fill="none" stroke="#63b8ff" d="M1021.77,-602.51C1037.96,-600.53 1055.68,-598.37 1072.25,-596.35"/>
<polygon fill="#63b8ff" stroke="#63b8ff" points="1072.89,-599.79 1082.39,-595.11 1072.04,-592.84 1072.89,-599.79"/>
</g>
<!-- Node42 -->
<g id="node42" class="node">
<title>Node42</title>
<g id="a_node42"><a xlink:href="lexer__expand__variable_8c.html#a5067193ac632b7565fd8b9ad405a525f" target="_top" xlink:title=" ">
<polygon fill="white" stroke="#666666" points="1200,-662 1075,-662 1075,-643 1200,-643 1200,-662"/>
<text text-anchor="middle" x="1137.5" y="-650" font-family="Helvetica,sans-Serif" font-size="10.00">is_valid_variable_char</text>
</a>
</g>
</g>
<!-- Node41&#45;&gt;Node42 -->
<g id="edge61" class="edge">
<title>Node41&#45;&gt;Node42</title>
<path fill="none" stroke="#63b8ff" d="M1029.04,-652.5C1040.61,-652.5 1052.74,-652.5 1064.51,-652.5"/>
<polygon fill="#63b8ff" stroke="#63b8ff" points="1064.74,-656 1074.74,-652.5 1064.74,-649 1064.74,-656"/>
</g>
<!-- Node43 -->
<g id="node43" class="node">
<title>Node43</title>
<g id="a_node43"><a xlink:href="strings_8h.html#adfd4fc057d3b7ad39c6867928cc44175" target="_top" xlink:title=" ">
<polygon fill="white" stroke="#666666" points="1341.5,-662 1258.5,-662 1258.5,-643 1341.5,-643 1341.5,-662"/>
<text text-anchor="middle" x="1300" y="-650" font-family="Helvetica,sans-Serif" font-size="10.00">my_isnumber</text>
</a>
</g>
</g>
<!-- Node42&#45;&gt;Node43 -->
<g id="edge62" class="edge">
<title>Node42&#45;&gt;Node43</title>
<path fill="none" stroke="#63b8ff" d="M1200.09,-652.5C1215.9,-652.5 1232.72,-652.5 1247.93,-652.5"/>
<polygon fill="#63b8ff" stroke="#63b8ff" points="1248.16,-656 1258.16,-652.5 1248.16,-649 1248.16,-656"/>
</g>
</g>
</svg>
        <g id="navigator" transform="translate(0 0)" fill="#404254">
                <rect fill="#f2f5e9" fill-opacity="0.5" stroke="#606060" stroke-width=".5" x="0" y="0" width="60" height="60"/>
                <use id="zoomplus" xlink:href="#zoomPlus" x="17" y="9" onmousedown="handleZoom(evt,'in')"/>
                <use id="zoomminus" xlink:href="#zoomMin" x="42" y="9" onmousedown="handleZoom(evt,'out')"/>
                <use id="reset" xlink:href="#resetDef" x="30" y="36" onmousedown="handleReset()"/>
                <g id="arrowUp" xlink:href="#dirArrow" transform="translate(30 24)" onmousedown="handlePan(0,-1)">
                  <use xlink:href="#rim" fill="#404040">
                        <set attributeName="fill" to="#808080" begin="arrowUp.mouseover" end="arrowUp.mouseout"/>
                  </use>
                  <path fill="none" stroke="white" stroke-width="1.5" d="M0,-3.0v7 M-2.5,-0.5L0,-3.0L2.5,-0.5"/>
                </g>
                <g id="arrowRight" xlink:href="#dirArrow" transform="rotate(90) translate(36 -43)" onmousedown="handlePan(1,0)">
                  <use xlink:href="#rim" fill="#404040">
                        <set attributeName="fill" to="#808080" begin="arrowRight.mouseover" end="arrowRight.mouseout"/>
                  </use>
                  <path fill="none" stroke="white" stroke-width="1.5" d="M0,-3.0v7 M-2.5,-0.5L0,-3.0L2.5,-0.5"/>
                </g>
                <g id="arrowDown" xlink:href="#dirArrow" transform="rotate(180) translate(-30 -48)" onmousedown="handlePan(0,1)">
                  <use xlink:href="#rim" fill="#404040">
                        <set attributeName="fill" to="#808080" begin="arrowDown.mouseover" end="arrowDown.mouseout"/>
                  </use>
                  <path fill="none" stroke="white" stroke-width="1.5" d="M0,-3.0v7 M-2.5,-0.5L0,-3.0L2.5,-0.5"/>
                </g>
                <g id="arrowLeft" xlink:href="#dirArrow" transform="rotate(270) translate(-36 17)" onmousedown="handlePan(-1,0)">
                  <use xlink:href="#rim" fill="#404040">
                        <set attributeName="fill" to="#808080" begin="arrowLeft.mouseover" end="arrowLeft.mouseout"/>
                  </use>
                  <path fill="none" stroke="white" stroke-width="1.5" d="M0,-3.0v7 M-2.5,-0.5L0,-3.0L2.5,-0.5"/>
                </g>
        </g>
        <svg viewBox="0 0 15 15" width="100%" height="30px" preserveAspectRatio="xMaxYMin meet">
         <g id="arrow_out" transform="scale(0.3 0.3)">
          <a xlink:href="parse__command_8c_a9e6378c3e784ff75e9265f1dec09190b_cgraph_org.svg" target="_base">
           <rect id="button" ry="5" rx="5" y="6" x="6" height="38" width="38"
                fill="#f2f5e9" fill-opacity="0.5" stroke="#606060" stroke-width="1.0"/>
           <path id="arrow"
             d="M 11.500037,31.436501 C 11.940474,20.09759 22.043105,11.32322 32.158766,21.979434 L 37.068811,17.246167 C 37.068811,17.246167 37.088388,32 37.088388,32 L 22.160133,31.978069 C 22.160133,31.978069 26.997745,27.140456 26.997745,27.140456 C 18.528582,18.264221 13.291696,25.230495 11.500037,31.436501 z"
             style="fill:#404040;"/>
          </a>
         </g>
        </svg>
</svg>
