<?xml version="1.0" encoding="UTF-8" standalone="no"?>
<!DOCTYPE svg PUBLIC "-//W3C//DTD SVG 1.1//EN"
 "http://www.w3.org/Graphics/SVG/1.1/DTD/svg11.dtd">
<!-- Generated by graphviz version 2.43.0 (0)
 -->
<!-- Title: prepare_parser Pages: 1 -->
<svg width="1839pt" height="709pt"
 viewBox="0.00 0.00 1839.00 709.10" xmlns="http://www.w3.org/2000/svg" xmlns:xlink="http://www.w3.org/1999/xlink">
<g id="graph0" class="graph" transform="scale(1 1) rotate(0) translate(4 705.1)">
<title>prepare_parser</title>
<!-- Node1 -->
<g id="node1" class="node">
<title>Node1</title>
<g id="a_node1"><a xlink:title=" ">
<polygon fill="#999999" stroke="#666666" points="90,-245 0,-245 0,-226 90,-226 90,-245"/>
<text text-anchor="middle" x="45" y="-233" font-family="Helvetica,sans-Serif" font-size="10.00">prepare_parser</text>
</a>
</g>
</g>
<!-- Node2 -->
<g id="node2" class="node">
<title>Node2</title>
<g id="a_node2"><a xlink:href="parser__set__error_8c.html#adcfabdb026b94fdbe4b6cbf5cb16522a" target="_top" xlink:title=" ">
<polygon fill="white" stroke="#666666" points="222,-264 126,-264 126,-245 222,-245 222,-264"/>
<text text-anchor="middle" x="174" y="-252" font-family="Helvetica,sans-Serif" font-size="10.00">parser_set_error</text>
</a>
</g>
</g>
<!-- Node1&#45;&gt;Node2 -->
<g id="edge1" class="edge">
<title>Node1&#45;&gt;Node2</title>
<path fill="none" stroke="#63b8ff" d="M90.06,-242.09C98.4,-243.34 107.24,-244.66 115.92,-245.96"/>
<polygon fill="#63b8ff" stroke="#63b8ff" points="115.58,-249.45 125.99,-247.47 116.62,-242.53 115.58,-249.45"/>
</g>
<!-- Node3 -->
<g id="node3" class="node">
<title>Node3</title>
<g id="a_node3"><a xlink:href="parser__utils_8c.html#aef41660a9d240250899e27f88cd21e2c" target="_top" xlink:title=" ">
<polygon fill="white" stroke="#666666" points="221,-227 127,-227 127,-208 221,-208 221,-227"/>
<text text-anchor="middle" x="174" y="-215" font-family="Helvetica,sans-Serif" font-size="10.00">skip_separators</text>
</a>
</g>
</g>
<!-- Node1&#45;&gt;Node3 -->
<g id="edge2" class="edge">
<title>Node1&#45;&gt;Node3</title>
<path fill="none" stroke="#63b8ff" d="M90.06,-229.25C98.7,-228.03 107.87,-226.73 116.85,-225.46"/>
<polygon fill="#63b8ff" stroke="#63b8ff" points="117.45,-228.91 126.86,-224.04 116.46,-221.98 117.45,-228.91"/>
</g>
<!-- Node4 -->
<g id="node4" class="node">
<title>Node4</title>
<g id="a_node4"><a xlink:href="parser__utils_8c.html#a58d1fcbbbf31e24aab676f2ba794b440" target="_top" xlink:title=" ">
<polygon fill="white" stroke="#666666" points="335,-246 258,-246 258,-227 335,-227 335,-246"/>
<text text-anchor="middle" x="296.5" y="-234" font-family="Helvetica,sans-Serif" font-size="10.00">is_separator</text>
</a>
</g>
</g>
<!-- Node3&#45;&gt;Node4 -->
<g id="edge3" class="edge">
<title>Node3&#45;&gt;Node4</title>
<path fill="none" stroke="#63b8ff" d="M221.24,-224.79C229.93,-226.16 239.02,-227.59 247.75,-228.97"/>
<polygon fill="#63b8ff" stroke="#63b8ff" points="247.35,-232.45 257.78,-230.55 248.44,-225.54 247.35,-232.45"/>
</g>
<!-- Node5 -->
<g id="node5" class="node">
<title>Node5</title>
<g id="a_node5"><a xlink:href="parser__next_8c.html#ad25986b565a767c6ad7d0b0b8846fca6" target="_top" xlink:title=" ">
<polygon fill="white" stroke="#666666" points="333.5,-209 259.5,-209 259.5,-190 333.5,-190 333.5,-209"/>
<text text-anchor="middle" x="296.5" y="-197" font-family="Helvetica,sans-Serif" font-size="10.00">parser_next</text>
</a>
</g>
</g>
<!-- Node3&#45;&gt;Node5 -->
<g id="edge4" class="edge">
<title>Node3&#45;&gt;Node5</title>
<path fill="none" stroke="#63b8ff" d="M221.24,-210.59C230.41,-209.22 240.03,-207.79 249.19,-206.42"/>
<polygon fill="#63b8ff" stroke="#63b8ff" points="249.92,-209.85 259.29,-204.91 248.89,-202.92 249.92,-209.85"/>
</g>
<!-- Node6 -->
<g id="node6" class="node">
<title>Node6</title>
<g id="a_node6"><a xlink:href="lexer__next__token_8c.html#a3def5432329709fb4df861d90672c510" target="_top" xlink:title=" ">
<polygon fill="white" stroke="#666666" points="471,-228 371,-228 371,-209 471,-209 471,-228"/>
<text text-anchor="middle" x="421" y="-216" font-family="Helvetica,sans-Serif" font-size="10.00">lexer_next_token</text>
</a>
</g>
</g>
<!-- Node5&#45;&gt;Node6 -->
<g id="edge5" class="edge">
<title>Node5&#45;&gt;Node6</title>
<path fill="none" stroke="#63b8ff" d="M333.59,-205.1C342.09,-206.42 351.37,-207.86 360.6,-209.29"/>
<polygon fill="#63b8ff" stroke="#63b8ff" points="360.13,-212.76 370.55,-210.83 361.2,-205.84 360.13,-212.76"/>
</g>
<!-- Node46 -->
<g id="node50" class="node">
<title>Node46</title>
<g id="a_node50"><a xlink:href="destroy__token_8c.html#ad1a471ee7b1ccb035d769be1152a370c" target="_top" xlink:title=" ">
<polygon fill="white" stroke="#666666" points="464,-191 378,-191 378,-172 464,-172 464,-191"/>
<text text-anchor="middle" x="421" y="-179" font-family="Helvetica,sans-Serif" font-size="10.00">token_destroy</text>
</a>
</g>
</g>
<!-- Node5&#45;&gt;Node46 -->
<g id="edge76" class="edge">
<title>Node5&#45;&gt;Node46</title>
<path fill="none" stroke="#63b8ff" d="M333.59,-194.2C344.29,-192.62 356.23,-190.87 367.73,-189.18"/>
<polygon fill="#63b8ff" stroke="#63b8ff" points="368.31,-192.63 377.69,-187.72 367.29,-185.71 368.31,-192.63"/>
</g>
<!-- Node7 -->
<g id="node7" class="node">
<title>Node7</title>
<g id="a_node7"><a xlink:href="create__token_8c.html#a15bcfc92177012893c626ce7d2d6bb6b" target="_top" xlink:title=" ">
<polygon fill="white" stroke="#666666" points="928.5,-376 848.5,-376 848.5,-357 928.5,-357 928.5,-376"/>
<text text-anchor="middle" x="888.5" y="-364" font-family="Helvetica,sans-Serif" font-size="10.00">create_token</text>
</a>
</g>
</g>
<!-- Node6&#45;&gt;Node7 -->
<g id="edge6" class="edge">
<title>Node6&#45;&gt;Node7</title>
<path fill="none" stroke="#63b8ff" d="M422.53,-228.34C425.01,-264.48 438.46,-391.26 507,-459.5 560.69,-512.95 593.3,-502.88 668,-515.5 722.78,-524.75 744.32,-542.27 793,-515.5 843.86,-487.53 871.2,-419.33 881.98,-385.78"/>
<polygon fill="#63b8ff" stroke="#63b8ff" points="885.33,-386.79 884.9,-376.2 878.64,-384.74 885.33,-386.79"/>
</g>
<!-- Node8 -->
<g id="node8" class="node">
<title>Node8</title>
<g id="a_node8"><a xlink:href="lexer__next__token_8c.html#add2e1acaa9518ecf20b6670ad91a5c65" target="_top" xlink:title=" ">
<polygon fill="white" stroke="#666666" points="620.5,-450 518.5,-450 518.5,-431 620.5,-431 620.5,-450"/>
<text text-anchor="middle" x="569.5" y="-438" font-family="Helvetica,sans-Serif" font-size="10.00">get_logical_token</text>
</a>
</g>
</g>
<!-- Node6&#45;&gt;Node8 -->
<g id="edge7" class="edge">
<title>Node6&#45;&gt;Node8</title>
<path fill="none" stroke="#63b8ff" d="M428.29,-228.04C450.74,-262.05 527.09,-377.75 556.66,-422.56"/>
<polygon fill="#63b8ff" stroke="#63b8ff" points="553.8,-424.58 562.23,-431 559.64,-420.72 553.8,-424.58"/>
</g>
<!-- Node12 -->
<g id="node12" class="node">
<title>Node12</title>
<g id="a_node12"><a xlink:href="lexer__next__token_8c.html#abcee8a7ba5ea6ca80c0bd7e3dd8d9a32" target="_top" xlink:title=" ">
<polygon fill="white" stroke="#666666" points="630.5,-321 508.5,-321 508.5,-302 630.5,-302 630.5,-321"/>
<text text-anchor="middle" x="569.5" y="-309" font-family="Helvetica,sans-Serif" font-size="10.00">get_redirection_token</text>
</a>
</g>
</g>
<!-- Node6&#45;&gt;Node12 -->
<g id="edge14" class="edge">
<title>Node6&#45;&gt;Node12</title>
<path fill="none" stroke="#63b8ff" d="M437.13,-228.1C462.57,-244.25 514.12,-276.98 544.53,-296.28"/>
<polygon fill="#63b8ff" stroke="#63b8ff" points="542.92,-299.41 553.24,-301.81 546.67,-293.5 542.92,-299.41"/>
</g>
<!-- Node17 -->
<g id="node17" class="node">
<title>Node17</title>
<g id="a_node17"><a xlink:href="lexer__newline_8c.html#a9f60bf18297b9c705fa6cdff027c79fc" target="_top" xlink:title=" ">
<polygon fill="white" stroke="#666666" points="772.5,-247 688.5,-247 688.5,-228 772.5,-228 772.5,-247"/>
<text text-anchor="middle" x="730.5" y="-235" font-family="Helvetica,sans-Serif" font-size="10.00">lexer_newline</text>
</a>
</g>
</g>
<!-- Node6&#45;&gt;Node17 -->
<g id="edge23" class="edge">
<title>Node6&#45;&gt;Node17</title>
<path fill="none" stroke="#63b8ff" d="M471.06,-221.53C527.73,-225.03 620.53,-230.77 678.15,-234.33"/>
<polygon fill="#63b8ff" stroke="#63b8ff" points="678.29,-237.84 688.48,-234.97 678.72,-230.86 678.29,-237.84"/>
</g>
<!-- Node18 -->
<g id="node18" class="node">
<title>Node18</title>
<g id="a_node18"><a xlink:href="lexer__parenthesis_8c.html#a2b13eaa0fee255bea85bd4279f369795" target="_top" xlink:title=" ">
<polygon fill="white" stroke="#666666" points="621,-209 518,-209 518,-190 621,-190 621,-209"/>
<text text-anchor="middle" x="569.5" y="-197" font-family="Helvetica,sans-Serif" font-size="10.00">lexer_parenthesis</text>
</a>
</g>
</g>
<!-- Node6&#45;&gt;Node18 -->
<g id="edge25" class="edge">
<title>Node6&#45;&gt;Node18</title>
<path fill="none" stroke="#63b8ff" d="M471.19,-212.12C482.94,-210.6 495.63,-208.95 507.83,-207.37"/>
<polygon fill="#63b8ff" stroke="#63b8ff" points="508.47,-210.81 517.94,-206.06 507.57,-203.87 508.47,-210.81"/>
</g>
<!-- Node19 -->
<g id="node19" class="node">
<title>Node19</title>
<g id="a_node19"><a xlink:href="lexer__semicolon_8c.html#a1612109b245d9780427946e4e33b01b7" target="_top" xlink:title=" ">
<polygon fill="white" stroke="#666666" points="617.5,-582 521.5,-582 521.5,-563 617.5,-563 617.5,-582"/>
<text text-anchor="middle" x="569.5" y="-570" font-family="Helvetica,sans-Serif" font-size="10.00">lexer_semicolon</text>
</a>
</g>
</g>
<!-- Node6&#45;&gt;Node19 -->
<g id="edge27" class="edge">
<title>Node6&#45;&gt;Node19</title>
<path fill="none" stroke="#63b8ff" d="M421.53,-228.03C419.94,-271.05 419.08,-449.34 507,-548.5 510.43,-552.37 514.56,-555.62 519.03,-558.35"/>
<polygon fill="#63b8ff" stroke="#63b8ff" points="517.49,-561.49 527.98,-562.98 520.71,-555.27 517.49,-561.49"/>
</g>
<!-- Node20 -->
<g id="node20" class="node">
<title>Node20</title>
<g id="a_node20"><a xlink:href="lexer__word_8c.html#ac2600a9ba16009c4d8c114a118c54955" target="_top" xlink:title=" ">
<polygon fill="white" stroke="#666666" points="604.5,-172 534.5,-172 534.5,-153 604.5,-153 604.5,-172"/>
<text text-anchor="middle" x="569.5" y="-160" font-family="Helvetica,sans-Serif" font-size="10.00">lexer_word</text>
</a>
</g>
</g>
<!-- Node6&#45;&gt;Node20 -->
<g id="edge29" class="edge">
<title>Node6&#45;&gt;Node20</title>
<path fill="none" stroke="#63b8ff" d="M449.99,-208.95C456.93,-206.38 464.29,-203.49 471,-200.5 487.53,-193.14 490.29,-188.42 507,-181.5 512.56,-179.2 518.49,-177.03 524.41,-175.03"/>
<polygon fill="#63b8ff" stroke="#63b8ff" points="525.83,-178.25 534.26,-171.84 523.67,-171.59 525.83,-178.25"/>
</g>
<!-- Node137 -->
<g id="node47" class="node">
<title>Node137</title>
<g id="a_node47"><a xlink:href="lexer__next__token_8c.html#acbf7d728a3a47bb6afba90556ceed465" target="_top" xlink:title=" ">
<polygon fill="white" stroke="#666666" points="608.5,-135 530.5,-135 530.5,-116 608.5,-116 608.5,-135"/>
<text text-anchor="middle" x="569.5" y="-123" font-family="Helvetica,sans-Serif" font-size="10.00">return_token</text>
</a>
</g>
</g>
<!-- Node6&#45;&gt;Node137 -->
<g id="edge73" class="edge">
<title>Node6&#45;&gt;Node137</title>
<path fill="none" stroke="#63b8ff" d="M456.73,-208.98C461.81,-206.7 466.76,-203.9 471,-200.5 494.09,-181.99 483.44,-162.4 507,-144.5 511.18,-141.33 515.89,-138.68 520.8,-136.47"/>
<polygon fill="#63b8ff" stroke="#63b8ff" points="522.34,-139.63 530.4,-132.74 519.81,-133.1 522.34,-139.63"/>
</g>
<!-- Node138 -->
<g id="node48" class="node">
<title>Node138</title>
<g id="a_node48"><a xlink:href="lexer__next__token_8c.html#a7f0a2dd2373821667a4d5381e7711aa0" target="_top" xlink:title=" ">
<polygon fill="white" stroke="#666666" points="614,-98 525,-98 525,-79 614,-79 614,-98"/>
<text text-anchor="middle" x="569.5" y="-86" font-family="Helvetica,sans-Serif" font-size="10.00">skip_comment</text>
</a>
</g>
</g>
<!-- Node6&#45;&gt;Node138 -->
<g id="edge74" class="edge">
<title>Node6&#45;&gt;Node138</title>
<path fill="none" stroke="#63b8ff" d="M458.86,-208.97C463.31,-206.71 467.51,-203.93 471,-200.5 502.61,-169.43 474.59,-137.73 507,-107.5 509.61,-105.06 512.53,-102.94 515.64,-101.09"/>
<polygon fill="#63b8ff" stroke="#63b8ff" points="517.39,-104.13 524.8,-96.56 514.29,-97.85 517.39,-104.13"/>
</g>
<!-- Node139 -->
<g id="node49" class="node">
<title>Node139</title>
<g id="a_node49"><a xlink:href="lexer__next__token_8c.html#a5b2052471d98cef2998e1367f9bf8f6d" target="_top" xlink:title=" ">
<polygon fill="white" stroke="#666666" points="632,-61 507,-61 507,-42 632,-42 632,-61"/>
<text text-anchor="middle" x="569.5" y="-49" font-family="Helvetica,sans-Serif" font-size="10.00">skip_spaces_and_tabs</text>
</a>
</g>
</g>
<!-- Node6&#45;&gt;Node139 -->
<g id="edge75" class="edge">
<title>Node6&#45;&gt;Node139</title>
<path fill="none" stroke="#63b8ff" d="M460.16,-208.77C464.19,-206.55 467.93,-203.84 471,-200.5 511.87,-156.05 464.66,-112.55 507,-69.5 507.94,-68.54 508.94,-67.63 509.97,-66.77"/>
<polygon fill="#63b8ff" stroke="#63b8ff" points="512.18,-69.5 518.59,-61.06 508.32,-63.67 512.18,-69.5"/>
</g>
<!-- Node9 -->
<g id="node9" class="node">
<title>Node9</title>
<g id="a_node9"><a xlink:href="lexer__logical__and_8c.html#a59e5031d54357d65c6873edc67de2a47" target="_top" xlink:title=" ">
<polygon fill="white" stroke="#666666" points="781,-432 680,-432 680,-413 781,-413 781,-432"/>
<text text-anchor="middle" x="730.5" y="-420" font-family="Helvetica,sans-Serif" font-size="10.00">lexer_logical_and</text>
</a>
</g>
</g>
<!-- Node8&#45;&gt;Node9 -->
<g id="edge8" class="edge">
<title>Node8&#45;&gt;Node9</title>
<path fill="none" stroke="#63b8ff" d="M620.81,-434.8C636.26,-433.06 653.41,-431.11 669.45,-429.3"/>
<polygon fill="#63b8ff" stroke="#63b8ff" points="670.25,-432.73 679.79,-428.13 669.46,-425.77 670.25,-432.73"/>
</g>
<!-- Node10 -->
<g id="node10" class="node">
<title>Node10</title>
<g id="a_node10"><a xlink:href="lexer__logical__or_8c.html#ac3851eaea27bd5774b126b888bdddf93" target="_top" xlink:title=" ">
<polygon fill="white" stroke="#666666" points="777,-506 684,-506 684,-487 777,-487 777,-506"/>
<text text-anchor="middle" x="730.5" y="-494" font-family="Helvetica,sans-Serif" font-size="10.00">lexer_logical_or</text>
</a>
</g>
</g>
<!-- Node8&#45;&gt;Node10 -->
<g id="edge10" class="edge">
<title>Node8&#45;&gt;Node10</title>
<path fill="none" stroke="#63b8ff" d="M593.54,-450.13C613.16,-458.18 642.2,-469.72 668,-478.5 673.53,-480.38 679.38,-482.25 685.19,-484.03"/>
<polygon fill="#63b8ff" stroke="#63b8ff" points="684.27,-487.41 694.86,-486.93 686.28,-480.71 684.27,-487.41"/>
</g>
<!-- Node11 -->
<g id="node11" class="node">
<title>Node11</title>
<g id="a_node11"><a xlink:href="lexer__pipe_8c.html#a693816e38802a086de64c09cb7cebeb7" target="_top" xlink:title=" ">
<polygon fill="white" stroke="#666666" points="764,-469 697,-469 697,-450 764,-450 764,-469"/>
<text text-anchor="middle" x="730.5" y="-457" font-family="Helvetica,sans-Serif" font-size="10.00">lexer_pipe</text>
</a>
</g>
</g>
<!-- Node8&#45;&gt;Node11 -->
<g id="edge12" class="edge">
<title>Node8&#45;&gt;Node11</title>
<path fill="none" stroke="#63b8ff" d="M620.81,-446.51C641.88,-449.03 666.13,-451.93 686.37,-454.35"/>
<polygon fill="#63b8ff" stroke="#63b8ff" points="686.21,-457.85 696.56,-455.56 687.04,-450.9 686.21,-457.85"/>
</g>
<!-- Node9&#45;&gt;Node7 -->
<g id="edge9" class="edge">
<title>Node9&#45;&gt;Node7</title>
<path fill="none" stroke="#63b8ff" d="M766.17,-413C774.97,-410.41 784.38,-407.49 793,-404.5 814.39,-397.09 838.01,-387.59 856.29,-379.94"/>
<polygon fill="#63b8ff" stroke="#63b8ff" points="857.73,-383.13 865.58,-376.02 855.01,-376.69 857.73,-383.13"/>
</g>
<!-- Node10&#45;&gt;Node7 -->
<g id="edge11" class="edge">
<title>Node10&#45;&gt;Node7</title>
<path fill="none" stroke="#63b8ff" d="M775.9,-486.93C781.9,-484.67 787.78,-481.9 793,-478.5 830.64,-453.98 861.31,-410.01 876.72,-385.08"/>
<polygon fill="#63b8ff" stroke="#63b8ff" points="879.88,-386.62 882.03,-376.25 873.88,-383.01 879.88,-386.62"/>
</g>
<!-- Node11&#45;&gt;Node7 -->
<g id="edge13" class="edge">
<title>Node11&#45;&gt;Node7</title>
<path fill="none" stroke="#63b8ff" d="M764.01,-452.51C773.64,-449.78 784.01,-446.16 793,-441.5 823,-425.97 852.71,-400.23 870.59,-383.32"/>
<polygon fill="#63b8ff" stroke="#63b8ff" points="873.16,-385.7 877.93,-376.24 868.3,-380.66 873.16,-385.7"/>
</g>
<!-- Node13 -->
<g id="node13" class="node">
<title>Node13</title>
<g id="a_node13"><a xlink:href="lexer__heredoc_8c.html#a9db043b0e8df9ad1155a65a8fcf67c11" target="_top" xlink:title=" ">
<polygon fill="white" stroke="#666666" points="773,-321 688,-321 688,-302 773,-302 773,-321"/>
<text text-anchor="middle" x="730.5" y="-309" font-family="Helvetica,sans-Serif" font-size="10.00">lexer_heredoc</text>
</a>
</g>
</g>
<!-- Node12&#45;&gt;Node13 -->
<g id="edge15" class="edge">
<title>Node12&#45;&gt;Node13</title>
<path fill="none" stroke="#63b8ff" d="M630.61,-311.5C646.04,-311.5 662.52,-311.5 677.5,-311.5"/>
<polygon fill="#63b8ff" stroke="#63b8ff" points="677.61,-315 687.61,-311.5 677.61,-308 677.61,-315"/>
</g>
<!-- Node14 -->
<g id="node14" class="node">
<title>Node14</title>
<g id="a_node14"><a xlink:href="lexer__redirect__append_8c.html#a09beefbfaf132dbe04add1370a6fb2e3" target="_top" xlink:title=" ">
<polygon fill="white" stroke="#666666" points="793,-284 668,-284 668,-265 793,-265 793,-284"/>
<text text-anchor="middle" x="730.5" y="-272" font-family="Helvetica,sans-Serif" font-size="10.00">lexer_redirect_append</text>
</a>
</g>
</g>
<!-- Node12&#45;&gt;Node14 -->
<g id="edge17" class="edge">
<title>Node12&#45;&gt;Node14</title>
<path fill="none" stroke="#63b8ff" d="M611.45,-301.97C631.86,-297.22 656.75,-291.43 678.4,-286.39"/>
<polygon fill="#63b8ff" stroke="#63b8ff" points="679.47,-289.74 688.42,-284.06 677.88,-282.92 679.47,-289.74"/>
</g>
<!-- Node15 -->
<g id="node15" class="node">
<title>Node15</title>
<g id="a_node15"><a xlink:href="lexer__redirect__in_8c.html#ac723d9668329d99b35003ed2423889e5" target="_top" xlink:title=" ">
<polygon fill="white" stroke="#666666" points="779.5,-395 681.5,-395 681.5,-376 779.5,-376 779.5,-395"/>
<text text-anchor="middle" x="730.5" y="-383" font-family="Helvetica,sans-Serif" font-size="10.00">lexer_redirect_in</text>
</a>
</g>
</g>
<!-- Node12&#45;&gt;Node15 -->
<g id="edge19" class="edge">
<title>Node12&#45;&gt;Node15</title>
<path fill="none" stroke="#63b8ff" d="M584.8,-321.17C603.33,-333.34 636.94,-354.25 668,-367.5 672.44,-369.39 677.13,-371.16 681.87,-372.79"/>
<polygon fill="#63b8ff" stroke="#63b8ff" points="681.01,-376.19 691.6,-375.94 683.17,-369.53 681.01,-376.19"/>
</g>
<!-- Node16 -->
<g id="node16" class="node">
<title>Node16</title>
<g id="a_node16"><a xlink:href="lexer__redirect__out_8c.html#a70e2216639c96030b3861405ae3497c6" target="_top" xlink:title=" ">
<polygon fill="white" stroke="#666666" points="782.5,-358 678.5,-358 678.5,-339 782.5,-339 782.5,-358"/>
<text text-anchor="middle" x="730.5" y="-346" font-family="Helvetica,sans-Serif" font-size="10.00">lexer_redirect_out</text>
</a>
</g>
</g>
<!-- Node12&#45;&gt;Node16 -->
<g id="edge21" class="edge">
<title>Node12&#45;&gt;Node16</title>
<path fill="none" stroke="#63b8ff" d="M611.45,-321.03C631.86,-325.78 656.75,-331.57 678.4,-336.61"/>
<polygon fill="#63b8ff" stroke="#63b8ff" points="677.88,-340.08 688.42,-338.94 679.47,-333.26 677.88,-340.08"/>
</g>
<!-- Node13&#45;&gt;Node7 -->
<g id="edge16" class="edge">
<title>Node13&#45;&gt;Node7</title>
<path fill="none" stroke="#63b8ff" d="M763.86,-321.07C773.3,-323.98 783.6,-327.26 793,-330.5 813.45,-337.55 836.1,-346.15 854.1,-353.17"/>
<polygon fill="#63b8ff" stroke="#63b8ff" points="852.99,-356.5 863.57,-356.9 855.55,-349.98 852.99,-356.5"/>
</g>
<!-- Node14&#45;&gt;Node7 -->
<g id="edge18" class="edge">
<title>Node14&#45;&gt;Node7</title>
<path fill="none" stroke="#63b8ff" d="M770.07,-284.09C777.87,-286.67 785.86,-289.79 793,-293.5 822.52,-308.82 852.15,-333.61 870.17,-349.98"/>
<polygon fill="#63b8ff" stroke="#63b8ff" points="867.87,-352.62 877.58,-356.85 872.62,-347.48 867.87,-352.62"/>
</g>
<!-- Node15&#45;&gt;Node7 -->
<g id="edge20" class="edge">
<title>Node15&#45;&gt;Node7</title>
<path fill="none" stroke="#63b8ff" d="M779.58,-379.64C798.24,-377.37 819.59,-374.77 838.34,-372.49"/>
<polygon fill="#63b8ff" stroke="#63b8ff" points="838.96,-375.94 848.47,-371.25 838.12,-368.99 838.96,-375.94"/>
</g>
<!-- Node16&#45;&gt;Node7 -->
<g id="edge22" class="edge">
<title>Node16&#45;&gt;Node7</title>
<path fill="none" stroke="#63b8ff" d="M782.58,-354.39C800.41,-356.45 820.37,-358.75 838.06,-360.8"/>
<polygon fill="#63b8ff" stroke="#63b8ff" points="837.85,-364.29 848.18,-361.96 838.65,-357.34 837.85,-364.29"/>
</g>
<!-- Node17&#45;&gt;Node7 -->
<g id="edge24" class="edge">
<title>Node17&#45;&gt;Node7</title>
<path fill="none" stroke="#63b8ff" d="M772.65,-246.68C779.76,-249.23 786.83,-252.46 793,-256.5 830.17,-280.87 861.02,-323.95 876.59,-348.34"/>
<polygon fill="#63b8ff" stroke="#63b8ff" points="873.7,-350.33 881.96,-356.98 879.65,-346.63 873.7,-350.33"/>
</g>
<!-- Node18&#45;&gt;Node7 -->
<g id="edge26" class="edge">
<title>Node18&#45;&gt;Node7</title>
<path fill="none" stroke="#63b8ff" d="M621.22,-192.01C669.03,-187.58 740.92,-187.96 793,-219.5 841.73,-249.01 869.82,-314.32 881.32,-347.03"/>
<polygon fill="#63b8ff" stroke="#63b8ff" points="878.1,-348.41 884.6,-356.78 884.73,-346.18 878.1,-348.41"/>
</g>
<!-- Node19&#45;&gt;Node7 -->
<g id="edge28" class="edge">
<title>Node19&#45;&gt;Node7</title>
<path fill="none" stroke="#63b8ff" d="M617.9,-579.58C666.21,-584.2 741.2,-583.91 793,-548.5 850.25,-509.36 875.09,-424.43 883.69,-386.04"/>
<polygon fill="#63b8ff" stroke="#63b8ff" points="887.15,-386.62 885.78,-376.12 880.3,-385.18 887.15,-386.62"/>
</g>
<!-- Node20&#45;&gt;Node7 -->
<g id="edge30" class="edge">
<title>Node20&#45;&gt;Node7</title>
<path fill="none" stroke="#63b8ff" d="M604.74,-156.69C651.53,-150.68 736.13,-146.9 793,-185.5 850.13,-224.28 875.03,-308.82 883.67,-347.05"/>
<polygon fill="#63b8ff" stroke="#63b8ff" points="880.27,-347.87 885.77,-356.92 887.12,-346.41 880.27,-347.87"/>
</g>
<!-- Node21 -->
<g id="node21" class="node">
<title>Node21</title>
<g id="a_node21"><a xlink:href="lexer__expand__alias_8c.html#a782a761cdb9088ea2b14b7a97eb85377" target="_top" xlink:title=" ">
<polygon fill="white" stroke="#666666" points="785.5,-95 675.5,-95 675.5,-76 785.5,-76 785.5,-95"/>
<text text-anchor="middle" x="730.5" y="-83" font-family="Helvetica,sans-Serif" font-size="10.00">lexer_expand_alias</text>
</a>
</g>
</g>
<!-- Node20&#45;&gt;Node21 -->
<g id="edge31" class="edge">
<title>Node20&#45;&gt;Node21</title>
<path fill="none" stroke="#63b8ff" d="M604.59,-155.7C613.86,-153.02 623.64,-149.38 632,-144.5 651.28,-133.26 649.23,-121.57 668,-109.5 674.3,-105.45 681.38,-101.9 688.45,-98.87"/>
<polygon fill="#63b8ff" stroke="#63b8ff" points="690.01,-102.01 697.99,-95.05 687.4,-95.52 690.01,-102.01"/>
</g>
<!-- Node23 -->
<g id="node23" class="node">
<title>Node23</title>
<g id="a_node23"><a xlink:href="lexer__word_8c.html#a17ec284a75275629329e3d5699a635d7" target="_top" xlink:title=" ">
<polygon fill="white" stroke="#666666" points="937,-133 840,-133 840,-114 937,-114 937,-133"/>
<text text-anchor="middle" x="888.5" y="-121" font-family="Helvetica,sans-Serif" font-size="10.00">lexer_read_word</text>
</a>
</g>
</g>
<!-- Node20&#45;&gt;Node23 -->
<g id="edge72" class="edge">
<title>Node20&#45;&gt;Node23</title>
<path fill="none" stroke="#63b8ff" d="M604.74,-156.86C623.41,-153.88 646.94,-150.27 668,-147.5 722.83,-140.29 785.57,-133.58 829.89,-129.1"/>
<polygon fill="#63b8ff" stroke="#63b8ff" points="830.3,-132.58 839.9,-128.1 829.6,-125.62 830.3,-132.58"/>
</g>
<!-- Node22 -->
<g id="node22" class="node">
<title>Node22</title>
<g id="a_node22"><a xlink:href="get__variable_8c.html#a569170390f0edf013bf89c26ef55ea8c" target="_top" xlink:title=" ">
<polygon fill="white" stroke="#666666" points="1810.5,-133 1733.5,-133 1733.5,-114 1810.5,-114 1810.5,-133"/>
<text text-anchor="middle" x="1772" y="-121" font-family="Helvetica,sans-Serif" font-size="10.00">get_variable</text>
</a>
</g>
</g>
<!-- Node21&#45;&gt;Node22 -->
<g id="edge32" class="edge">
<title>Node21&#45;&gt;Node22</title>
<path fill="none" stroke="#63b8ff" d="M779.73,-75.96C840.93,-64.7 949.86,-47.5 1044,-47.5 1044,-47.5 1044,-47.5 1398.5,-47.5 1522.74,-47.5 1558.15,-35.3 1677,-71.5 1703.56,-79.59 1731.01,-95.85 1749.34,-108.05"/>
<polygon fill="#63b8ff" stroke="#63b8ff" points="1747.57,-111.08 1757.8,-113.82 1751.51,-105.29 1747.57,-111.08"/>
</g>
<!-- Node21&#45;&gt;Node23 -->
<g id="edge33" class="edge">
<title>Node21&#45;&gt;Node23</title>
<path fill="none" stroke="#63b8ff" d="M770.87,-95.09C791.45,-100.1 816.84,-106.29 838.67,-111.61"/>
<polygon fill="#63b8ff" stroke="#63b8ff" points="837.87,-115.01 848.42,-113.98 839.53,-108.21 837.87,-115.01"/>
</g>
<!-- Node135 -->
<g id="node45" class="node">
<title>Node135</title>
<g id="a_node45"><a xlink:href="lexer__expand__alias_8c.html#a98f32d0d302fe57a01c46b72c25132a1" target="_top" xlink:title=" ">
<polygon fill="white" stroke="#666666" points="1086,-95 1004,-95 1004,-76 1086,-76 1086,-95"/>
<text text-anchor="middle" x="1045" y="-83" font-family="Helvetica,sans-Serif" font-size="10.00">replace_word</text>
</a>
</g>
</g>
<!-- Node21&#45;&gt;Node135 -->
<g id="edge69" class="edge">
<title>Node21&#45;&gt;Node135</title>
<path fill="none" stroke="#63b8ff" d="M785.58,-85.5C844.12,-85.5 936.75,-85.5 993.75,-85.5"/>
<polygon fill="#63b8ff" stroke="#63b8ff" points="993.97,-89 1003.97,-85.5 993.97,-82 993.97,-89"/>
</g>
<!-- Node136 -->
<g id="node46" class="node">
<title>Node136</title>
<g id="a_node46"><a xlink:href="lexer__expand__alias_8c.html#ae7957e63e1f19d95a69563aaab318ad4" target="_top" xlink:title=" ">
<polygon fill="white" stroke="#666666" points="948,-19 829,-19 829,0 948,0 948,-19"/>
<text text-anchor="middle" x="888.5" y="-7" font-family="Helvetica,sans-Serif" font-size="10.00">should_expand_alias</text>
</a>
</g>
</g>
<!-- Node21&#45;&gt;Node136 -->
<g id="edge71" class="edge">
<title>Node21&#45;&gt;Node136</title>
<path fill="none" stroke="#63b8ff" d="M748.15,-75.96C767.35,-65.11 800.01,-47.14 829,-33.5 836.7,-29.88 845.1,-26.25 853.06,-22.95"/>
<polygon fill="#63b8ff" stroke="#63b8ff" points="854.55,-26.13 862.5,-19.11 851.91,-19.64 854.55,-26.13"/>
</g>
<!-- Node24 -->
<g id="node24" class="node">
<title>Node24</title>
<g id="a_node24"><a xlink:href="lexer__word_8c.html#a730574257743b09386cadd2ccbfe4d13" target="_top" xlink:title=" ">
<polygon fill="white" stroke="#666666" points="1106,-390 984,-390 984,-371 1106,-371 1106,-390"/>
<text text-anchor="middle" x="1045" y="-378" font-family="Helvetica,sans-Serif" font-size="10.00">handle_current_token</text>
</a>
</g>
</g>
<!-- Node23&#45;&gt;Node24 -->
<g id="edge34" class="edge">
<title>Node23&#45;&gt;Node24</title>
<path fill="none" stroke="#63b8ff" d="M895.37,-133.26C918.36,-171.51 1002.54,-311.53 1032.95,-362.11"/>
<polygon fill="#63b8ff" stroke="#63b8ff" points="1029.97,-363.96 1038.13,-370.73 1035.97,-360.36 1029.97,-363.96"/>
</g>
<!-- Node126 -->
<g id="node38" class="node">
<title>Node126</title>
<g id="a_node38"><a xlink:href="lexer__is__word__separator_8c.html#abccfc6fc0cdbd040fc9a7dcbfd207090" target="_top" xlink:title=" ">
<polygon fill="white" stroke="#666666" points="1658.5,-152 1523.5,-152 1523.5,-133 1658.5,-133 1658.5,-152"/>
<text text-anchor="middle" x="1591" y="-140" font-family="Helvetica,sans-Serif" font-size="10.00">lexer_is_word_separator</text>
</a>
</g>
</g>
<!-- Node23&#45;&gt;Node126 -->
<g id="edge68" class="edge">
<title>Node23&#45;&gt;Node126</title>
<path fill="none" stroke="#63b8ff" d="M937.1,-124.79C1056.18,-128.02 1367.85,-136.47 1513.25,-140.42"/>
<polygon fill="#63b8ff" stroke="#63b8ff" points="1513.33,-143.92 1523.42,-140.69 1513.52,-136.92 1513.33,-143.92"/>
</g>
<!-- Node25 -->
<g id="node25" class="node">
<title>Node25</title>
<g id="a_node25"><a xlink:href="lexer__word_8c.html#acd8f2a3c47fa56f87c2792ccefd2ee3e" target="_top" xlink:title=" ">
<polygon fill="white" stroke="#666666" points="1276.5,-503 1155.5,-503 1155.5,-484 1276.5,-484 1276.5,-503"/>
<text text-anchor="middle" x="1216" y="-491" font-family="Helvetica,sans-Serif" font-size="10.00">handle_double_quote</text>
</a>
</g>
</g>
<!-- Node24&#45;&gt;Node25 -->
<g id="edge35" class="edge">
<title>Node24&#45;&gt;Node25</title>
<path fill="none" stroke="#63b8ff" d="M1052.74,-390.01C1066.94,-409.28 1101.91,-453.03 1142,-475.5 1145.21,-477.3 1148.59,-478.92 1152.07,-480.38"/>
<polygon fill="#63b8ff" stroke="#63b8ff" points="1150.88,-483.67 1161.47,-483.88 1153.32,-477.11 1150.88,-483.67"/>
</g>
<!-- Node26 -->
<g id="node26" class="node">
<title>Node26</title>
<g id="a_node26"><a xlink:href="lexer__word_8c.html#a733339142f4677a066646a12a7e5bec4" target="_top" xlink:title=" ">
<polygon fill="white" stroke="#666666" points="1286.5,-409 1145.5,-409 1145.5,-390 1286.5,-390 1286.5,-409"/>
<text text-anchor="middle" x="1216" y="-397" font-family="Helvetica,sans-Serif" font-size="10.00">handle_escape_sequence</text>
</a>
</g>
</g>
<!-- Node24&#45;&gt;Node26 -->
<g id="edge36" class="edge">
<title>Node24&#45;&gt;Node26</title>
<path fill="none" stroke="#63b8ff" d="M1106.06,-387.25C1115.49,-388.31 1125.37,-389.42 1135.17,-390.53"/>
<polygon fill="#63b8ff" stroke="#63b8ff" points="1135,-394.03 1145.33,-391.67 1135.78,-387.07 1135,-394.03"/>
</g>
<!-- Node30 -->
<g id="node30" class="node">
<title>Node30</title>
<g id="a_node30"><a xlink:href="lexer__word_8c.html#a3ae03e49183787e7cf32c90ffdef7351" target="_top" xlink:title=" ">
<polygon fill="white" stroke="#666666" points="1274.5,-371 1157.5,-371 1157.5,-352 1274.5,-352 1274.5,-371"/>
<text text-anchor="middle" x="1216" y="-359" font-family="Helvetica,sans-Serif" font-size="10.00">handle_single_quote</text>
</a>
</g>
</g>
<!-- Node24&#45;&gt;Node30 -->
<g id="edge40" class="edge">
<title>Node24&#45;&gt;Node30</title>
<path fill="none" stroke="#63b8ff" d="M1106.06,-373.75C1119.36,-372.25 1133.56,-370.66 1147.15,-369.13"/>
<polygon fill="#63b8ff" stroke="#63b8ff" points="1147.85,-372.57 1157.4,-367.98 1147.07,-365.61 1147.85,-372.57"/>
</g>
<!-- Node31 -->
<g id="node31" class="node">
<title>Node31</title>
<g id="a_node31"><a xlink:href="lexer__utils_8c.html#a2ba6f7e43ecbf713c666ab062eac534c" target="_top" xlink:title=" ">
<polygon fill="white" stroke="#666666" points="1290,-310 1142,-310 1142,-291 1290,-291 1290,-310"/>
<text text-anchor="middle" x="1216" y="-298" font-family="Helvetica,sans-Serif" font-size="10.00">lexer_append_current_char</text>
</a>
</g>
</g>
<!-- Node24&#45;&gt;Node31 -->
<g id="edge42" class="edge">
<title>Node24&#45;&gt;Node31</title>
<path fill="none" stroke="#63b8ff" d="M1066.39,-370.85C1096.03,-356.82 1151.21,-330.7 1185.35,-314.53"/>
<polygon fill="#63b8ff" stroke="#63b8ff" points="1187.26,-317.5 1194.81,-310.06 1184.27,-311.17 1187.26,-317.5"/>
</g>
<!-- Node32 -->
<g id="node32" class="node">
<title>Node32</title>
<g id="a_node32"><a xlink:href="lexer__expand__command__substitution_8c.html#aad26825e6ecc7617687abd601366b15d" target="_top" xlink:title=" ">
<polygon fill="white" stroke="#666666" points="1284,-639.5 1148,-639.5 1148,-609.5 1284,-609.5 1284,-639.5"/>
<text text-anchor="start" x="1156" y="-627.5" font-family="Helvetica,sans-Serif" font-size="10.00">lexer_expand_command</text>
<text text-anchor="middle" x="1216" y="-616.5" font-family="Helvetica,sans-Serif" font-size="10.00">_substitution</text>
</a>
</g>
</g>
<!-- Node24&#45;&gt;Node32 -->
<g id="edge44" class="edge">
<title>Node24&#45;&gt;Node32</title>
<path fill="none" stroke="#63b8ff" d="M1052.63,-390.07C1077.09,-425.38 1162.76,-549.07 1198.81,-601.13"/>
<polygon fill="#63b8ff" stroke="#63b8ff" points="1195.98,-603.19 1204.55,-609.42 1201.74,-599.2 1195.98,-603.19"/>
</g>
<!-- Node124 -->
<g id="node35" class="node">
<title>Node124</title>
<g id="a_node35"><a xlink:href="lexer__expand__tilde_8c.html#ae3c478a10a2764ee7c7f94b42f28ecaf" target="_top" xlink:title=" ">
<polygon fill="white" stroke="#666666" points="1270.5,-228 1161.5,-228 1161.5,-209 1270.5,-209 1270.5,-228"/>
<text text-anchor="middle" x="1216" y="-216" font-family="Helvetica,sans-Serif" font-size="10.00">lexer_expand_tilde</text>
</a>
</g>
</g>
<!-- Node24&#45;&gt;Node124 -->
<g id="edge50" class="edge">
<title>Node24&#45;&gt;Node124</title>
<path fill="none" stroke="#63b8ff" d="M1055.03,-370.8C1071.78,-352.93 1108.96,-313.77 1142,-282.5 1159.71,-265.75 1180.7,-247.5 1195.62,-234.79"/>
<polygon fill="#63b8ff" stroke="#63b8ff" points="1198.27,-237.14 1203.63,-228 1193.74,-231.8 1198.27,-237.14"/>
</g>
<!-- Node127 -->
<g id="node39" class="node">
<title>Node127</title>
<g id="a_node39"><a xlink:href="lexer__expand__variable_8c.html#a01ad90eb8460a612626bb33c9e15cd52" target="_top" xlink:title=" ">
<polygon fill="white" stroke="#666666" points="1279.5,-466 1152.5,-466 1152.5,-447 1279.5,-447 1279.5,-466"/>
<text text-anchor="middle" x="1216" y="-454" font-family="Helvetica,sans-Serif" font-size="10.00">lexer_expand_variable</text>
</a>
</g>
</g>
<!-- Node24&#45;&gt;Node127 -->
<g id="edge56" class="edge">
<title>Node24&#45;&gt;Node127</title>
<path fill="none" stroke="#63b8ff" d="M1067.4,-390.13C1096.99,-403.43 1150.56,-427.52 1184.37,-442.73"/>
<polygon fill="#63b8ff" stroke="#63b8ff" points="1183.21,-446.04 1193.77,-446.95 1186.09,-439.66 1183.21,-446.04"/>
</g>
<!-- Node27 -->
<g id="node27" class="node">
<title>Node27</title>
<g id="a_node27"><a xlink:href="lexer__utils_8c.html#abf1c1b3b6033c8f9c8d1b11cc9e14f75" target="_top" xlink:title=" ">
<polygon fill="white" stroke="#666666" points="1641,-447 1541,-447 1541,-428 1641,-428 1641,-447"/>
<text text-anchor="middle" x="1591" y="-435" font-family="Helvetica,sans-Serif" font-size="10.00">lexer_append_str</text>
</a>
</g>
</g>
<!-- Node26&#45;&gt;Node27 -->
<g id="edge37" class="edge">
<title>Node26&#45;&gt;Node27</title>
<path fill="none" stroke="#63b8ff" d="M1286.65,-403.74C1337.31,-407.14 1407.52,-412.5 1469,-419.5 1489.22,-421.8 1511.25,-424.9 1530.9,-427.88"/>
<polygon fill="#63b8ff" stroke="#63b8ff" points="1530.53,-431.36 1540.94,-429.42 1531.59,-424.45 1530.53,-431.36"/>
</g>
<!-- Node28 -->
<g id="node28" class="node">
<title>Node28</title>
<g id="a_node28"><a xlink:href="strings_8h.html#a5e1589f073ac32d227dbc6020c376dab" target="_top" xlink:title=" ">
<polygon fill="white" stroke="#666666" points="1822.5,-447 1721.5,-447 1721.5,-428 1822.5,-428 1822.5,-447"/>
<text text-anchor="middle" x="1772" y="-435" font-family="Helvetica,sans-Serif" font-size="10.00">append_to_buffer</text>
</a>
</g>
</g>
<!-- Node27&#45;&gt;Node28 -->
<g id="edge38" class="edge">
<title>Node27&#45;&gt;Node28</title>
<path fill="none" stroke="#63b8ff" d="M1641.39,-437.5C1663.01,-437.5 1688.58,-437.5 1711.27,-437.5"/>
<polygon fill="#63b8ff" stroke="#63b8ff" points="1711.46,-441 1721.46,-437.5 1711.46,-434 1711.46,-441"/>
</g>
<!-- Node29 -->
<g id="node29" class="node">
<title>Node29</title>
<g id="a_node29"><a xlink:href="lexer__utils_8c.html#a84e8d5514cfe03a20152ad26f170211f" target="_top" xlink:title=" ">
<polygon fill="white" stroke="#666666" points="1831,-577 1713,-577 1713,-558 1831,-558 1831,-577"/>
<text text-anchor="middle" x="1772" y="-565" font-family="Helvetica,sans-Serif" font-size="10.00">lexer_set_alloc_error</text>
</a>
</g>
</g>
<!-- Node27&#45;&gt;Node29 -->
<g id="edge39" class="edge">
<title>Node27&#45;&gt;Node29</title>
<path fill="none" stroke="#63b8ff" d="M1605.16,-447.06C1635.81,-469.32 1712.16,-524.77 1749.61,-551.96"/>
<polygon fill="#63b8ff" stroke="#63b8ff" points="1747.67,-554.88 1757.82,-557.93 1751.78,-549.22 1747.67,-554.88"/>
</g>
<!-- Node30&#45;&gt;Node27 -->
<g id="edge41" class="edge">
<title>Node30&#45;&gt;Node27</title>
<path fill="none" stroke="#63b8ff" d="M1274.68,-368.87C1326,-375.91 1402.95,-387.63 1469,-402.5 1496.63,-408.72 1527.27,-417.6 1550.8,-424.86"/>
<polygon fill="#63b8ff" stroke="#63b8ff" points="1549.83,-428.23 1560.42,-427.86 1551.92,-421.55 1549.83,-428.23"/>
</g>
<!-- Node31&#45;&gt;Node27 -->
<g id="edge43" class="edge">
<title>Node31&#45;&gt;Node27</title>
<path fill="none" stroke="#63b8ff" d="M1249.47,-290.99C1299.33,-278.25 1396.55,-260.9 1469,-294.5 1524.64,-320.31 1563.97,-385.7 1580.82,-418.34"/>
<polygon fill="#63b8ff" stroke="#63b8ff" points="1577.9,-420.32 1585.5,-427.7 1584.16,-417.19 1577.9,-420.32"/>
</g>
<!-- Node32&#45;&gt;Node29 -->
<g id="edge49" class="edge">
<title>Node32&#45;&gt;Node29</title>
<path fill="none" stroke="#63b8ff" d="M1284,-626.93C1374.22,-628.87 1539.31,-627.68 1677,-600.5 1698.62,-596.23 1722,-588.04 1740.04,-580.88"/>
<polygon fill="#63b8ff" stroke="#63b8ff" points="1741.52,-584.06 1749.46,-577.05 1738.88,-577.58 1741.52,-584.06"/>
</g>
<!-- Node33 -->
<g id="node33" class="node">
<title>Node33</title>
<g id="a_node33"><a xlink:href="lexer__expand__command__substitution_8c.html#ad31353a5e4ff94d4ffc515367ef29625" target="_top" xlink:title=" ">
<polygon fill="white" stroke="#666666" points="1469,-672 1326,-672 1326,-653 1469,-653 1469,-672"/>
<text text-anchor="middle" x="1397.5" y="-660" font-family="Helvetica,sans-Serif" font-size="10.00">append_command_output</text>
</a>
</g>
</g>
<!-- Node32&#45;&gt;Node33 -->
<g id="edge45" class="edge">
<title>Node32&#45;&gt;Node33</title>
<path fill="none" stroke="#63b8ff" d="M1284.09,-638.7C1303.08,-642.72 1323.52,-647.05 1341.69,-650.9"/>
<polygon fill="#63b8ff" stroke="#63b8ff" points="1341.02,-654.33 1351.53,-652.98 1342.47,-647.48 1341.02,-654.33"/>
</g>
<!-- Node33&#45;&gt;Node27 -->
<g id="edge47" class="edge">
<title>Node33&#45;&gt;Node27</title>
<path fill="none" stroke="#63b8ff" d="M1406.73,-652.83C1436.25,-618.14 1537.13,-499.62 1575.25,-454.83"/>
<polygon fill="#63b8ff" stroke="#63b8ff" points="1577.99,-457.02 1581.8,-447.13 1572.66,-452.48 1577.99,-457.02"/>
</g>
<!-- Node33&#45;&gt;Node29 -->
<g id="edge48" class="edge">
<title>Node33&#45;&gt;Node29</title>
<path fill="none" stroke="#63b8ff" d="M1423.84,-672.09C1474.68,-689.68 1591.52,-721.81 1677,-681.5 1718.76,-661.81 1748.27,-613.44 1762.11,-586.47"/>
<polygon fill="#63b8ff" stroke="#63b8ff" points="1765.36,-587.8 1766.64,-577.28 1759.08,-584.7 1765.36,-587.8"/>
</g>
<!-- Node34 -->
<g id="node34" class="node">
<title>Node34</title>
<g id="a_node34"><a xlink:href="execute__command__substitution_8c.html#a44d633c45c6a1c7a82b2fc4f1f3a1b85" target="_top" xlink:title=" ">
<polygon fill="#fff0f0" stroke="red" points="1677,-672 1505,-672 1505,-653 1677,-653 1677,-672"/>
<text text-anchor="middle" x="1591" y="-660" font-family="Helvetica,sans-Serif" font-size="10.00">execute_command_substitution</text>
</a>
</g>
</g>
<!-- Node33&#45;&gt;Node34 -->
<g id="edge46" class="edge">
<title>Node33&#45;&gt;Node34</title>
<path fill="none" stroke="#63b8ff" d="M1469.26,-662.5C1477.61,-662.5 1486.23,-662.5 1494.84,-662.5"/>
<polygon fill="#63b8ff" stroke="#63b8ff" points="1494.93,-666 1504.93,-662.5 1494.93,-659 1494.93,-666"/>
</g>
<!-- Node124&#45;&gt;Node27 -->
<g id="edge53" class="edge">
<title>Node124&#45;&gt;Node27</title>
<path fill="none" stroke="#63b8ff" d="M1270.73,-224.96C1334.66,-233.44 1436.83,-249.71 1469,-270.5 1526.75,-307.81 1565.95,-383.12 1581.93,-418.42"/>
<polygon fill="#63b8ff" stroke="#63b8ff" points="1578.75,-419.89 1585.98,-427.63 1585.16,-417.07 1578.75,-419.89"/>
</g>
<!-- Node58 -->
<g id="node36" class="node">
<title>Node58</title>
<g id="a_node36"><a xlink:href="get__variable__value_8c.html#a2edd9900f19af236aa05385a789be3d6" target="_top" xlink:title=" ">
<polygon fill="white" stroke="#666666" points="1646,-209 1536,-209 1536,-190 1646,-190 1646,-209"/>
<text text-anchor="middle" x="1591" y="-197" font-family="Helvetica,sans-Serif" font-size="10.00">get_variable_value</text>
</a>
</g>
</g>
<!-- Node124&#45;&gt;Node58 -->
<g id="edge51" class="edge">
<title>Node124&#45;&gt;Node58</title>
<path fill="none" stroke="#63b8ff" d="M1270.84,-215.76C1338.24,-212.32 1453.56,-206.45 1525.57,-202.78"/>
<polygon fill="#63b8ff" stroke="#63b8ff" points="1526.07,-206.26 1535.87,-202.26 1525.71,-199.27 1526.07,-206.26"/>
</g>
<!-- Node125 -->
<g id="node37" class="node">
<title>Node125</title>
<g id="a_node37"><a xlink:href="lexer__expand__tilde_8c.html#aa4231a41b1e79447d6a70db7b075f937" target="_top" xlink:title=" ">
<polygon fill="white" stroke="#666666" points="1456,-171 1339,-171 1339,-152 1456,-152 1456,-171"/>
<text text-anchor="middle" x="1397.5" y="-159" font-family="Helvetica,sans-Serif" font-size="10.00">should_expand_tilde</text>
</a>
</g>
</g>
<!-- Node124&#45;&gt;Node125 -->
<g id="edge54" class="edge">
<title>Node124&#45;&gt;Node125</title>
<path fill="none" stroke="#63b8ff" d="M1247.04,-208.96C1277.07,-199.42 1323.42,-184.71 1356.54,-174.19"/>
<polygon fill="#63b8ff" stroke="#63b8ff" points="1357.89,-177.43 1366.36,-171.07 1355.77,-170.76 1357.89,-177.43"/>
</g>
<!-- Node58&#45;&gt;Node22 -->
<g id="edge52" class="edge">
<title>Node58&#45;&gt;Node22</title>
<path fill="none" stroke="#63b8ff" d="M1614.67,-189.87C1646.14,-176.51 1703.23,-152.27 1739.02,-137.08"/>
<polygon fill="#63b8ff" stroke="#63b8ff" points="1740.68,-140.18 1748.51,-133.05 1737.94,-133.73 1740.68,-140.18"/>
</g>
<!-- Node125&#45;&gt;Node126 -->
<g id="edge55" class="edge">
<title>Node125&#45;&gt;Node126</title>
<path fill="none" stroke="#63b8ff" d="M1456.22,-155.77C1474.14,-154 1494.19,-152.01 1513.19,-150.12"/>
<polygon fill="#63b8ff" stroke="#63b8ff" points="1513.72,-153.59 1523.33,-149.12 1513.03,-146.62 1513.72,-153.59"/>
</g>
<!-- Node127&#45;&gt;Node29 -->
<g id="edge67" class="edge">
<title>Node127&#45;&gt;Node29</title>
<path fill="none" stroke="#63b8ff" d="M1275.41,-466.14C1280.71,-468.6 1285.69,-471.67 1290,-475.5 1322.83,-504.66 1290.01,-542.34 1326,-567.5 1384.95,-608.71 1593.54,-589.97 1702.92,-576.69"/>
<polygon fill="#63b8ff" stroke="#63b8ff" points="1703.37,-580.16 1712.87,-575.47 1702.51,-573.22 1703.37,-580.16"/>
</g>
<!-- Node128 -->
<g id="node40" class="node">
<title>Node128</title>
<g id="a_node40"><a xlink:href="lexer__expand__variable_8c.html#abe77b7e35b276965b72648d12abae283" target="_top" xlink:title=" ">
<polygon fill="white" stroke="#666666" points="1440.5,-484 1354.5,-484 1354.5,-465 1440.5,-465 1440.5,-484"/>
<text text-anchor="middle" x="1397.5" y="-472" font-family="Helvetica,sans-Serif" font-size="10.00">append_dollar</text>
</a>
</g>
</g>
<!-- Node127&#45;&gt;Node128 -->
<g id="edge57" class="edge">
<title>Node127&#45;&gt;Node128</title>
<path fill="none" stroke="#63b8ff" d="M1279.53,-462.77C1300.73,-464.9 1324.18,-467.25 1344.48,-469.28"/>
<polygon fill="#63b8ff" stroke="#63b8ff" points="1344.17,-472.77 1354.47,-470.29 1344.87,-465.8 1344.17,-472.77"/>
</g>
<!-- Node129 -->
<g id="node41" class="node">
<title>Node129</title>
<g id="a_node41"><a xlink:href="lexer__expand__variable_8c.html#ab47d31838e3255a1321d85e937919d4e" target="_top" xlink:title=" ">
<polygon fill="white" stroke="#666666" points="1453,-558 1342,-558 1342,-539 1453,-539 1453,-558"/>
<text text-anchor="middle" x="1397.5" y="-546" font-family="Helvetica,sans-Serif" font-size="10.00">append_last_status</text>
</a>
</g>
</g>
<!-- Node127&#45;&gt;Node129 -->
<g id="edge59" class="edge">
<title>Node127&#45;&gt;Node129</title>
<path fill="none" stroke="#63b8ff" d="M1272.03,-466.04C1278.42,-468.51 1284.58,-471.6 1290,-475.5 1313.73,-492.54 1302.23,-513.51 1326,-530.5 1328.11,-532.01 1330.34,-533.39 1332.65,-534.66"/>
<polygon fill="#63b8ff" stroke="#63b8ff" points="1331.37,-537.93 1341.91,-539 1334.34,-531.59 1331.37,-537.93"/>
</g>
<!-- Node130 -->
<g id="node42" class="node">
<title>Node130</title>
<g id="a_node42"><a xlink:href="lexer__expand__variable_8c.html#a9954e7e26e9570a3c41eed4e16bf6791" target="_top" xlink:title=" ">
<polygon fill="white" stroke="#666666" points="1462.5,-447 1332.5,-447 1332.5,-428 1462.5,-428 1462.5,-447"/>
<text text-anchor="middle" x="1397.5" y="-435" font-family="Helvetica,sans-Serif" font-size="10.00">append_variable_value</text>
</a>
</g>
</g>
<!-- Node127&#45;&gt;Node130 -->
<g id="edge62" class="edge">
<title>Node127&#45;&gt;Node130</title>
<path fill="none" stroke="#63b8ff" d="M1279.53,-449.88C1293.29,-448.42 1307.99,-446.87 1322.16,-445.37"/>
<polygon fill="#63b8ff" stroke="#63b8ff" points="1322.79,-448.82 1332.37,-444.29 1322.06,-441.86 1322.79,-448.82"/>
</g>
<!-- Node131 -->
<g id="node43" class="node">
<title>Node131</title>
<g id="a_node43"><a xlink:href="lexer__expand__variable_8c.html#a1d07a8c171e69a5c58a385a75520e6c0" target="_top" xlink:title=" ">
<polygon fill="white" stroke="#666666" points="1455.5,-333.5 1339.5,-333.5 1339.5,-303.5 1455.5,-303.5 1455.5,-333.5"/>
<text text-anchor="start" x="1347.5" y="-321.5" font-family="Helvetica,sans-Serif" font-size="10.00">get_correct_variable</text>
<text text-anchor="middle" x="1397.5" y="-310.5" font-family="Helvetica,sans-Serif" font-size="10.00">_value</text>
</a>
</g>
</g>
<!-- Node127&#45;&gt;Node131 -->
<g id="edge64" class="edge">
<title>Node127&#45;&gt;Node131</title>
<path fill="none" stroke="#63b8ff" d="M1238.98,-446.99C1253.96,-440.06 1273.92,-429.91 1290,-418.5 1322.61,-395.37 1355.44,-362.81 1375.86,-341.2"/>
<polygon fill="#63b8ff" stroke="#63b8ff" points="1378.53,-343.47 1382.79,-333.77 1373.41,-338.69 1378.53,-343.47"/>
</g>
<!-- Node132 -->
<g id="node44" class="node">
<title>Node132</title>
<g id="a_node44"><a xlink:href="lexer__expand__variable_8c.html#a3674c7faac945bf9ec05a9dc00c08896" target="_top" xlink:title=" ">
<polygon fill="#fff0f0" stroke="red" points="1463,-521 1332,-521 1332,-502 1463,-502 1463,-521"/>
<text text-anchor="middle" x="1397.5" y="-509" font-family="Helvetica,sans-Serif" font-size="10.00">get_variable_name_len</text>
</a>
</g>
</g>
<!-- Node127&#45;&gt;Node132 -->
<g id="edge66" class="edge">
<title>Node127&#45;&gt;Node132</title>
<path fill="none" stroke="#63b8ff" d="M1259.93,-466.08C1269.92,-468.74 1280.44,-471.91 1290,-475.5 1306.75,-481.79 1309.24,-487.25 1326,-493.5 1331.54,-495.56 1337.4,-497.47 1343.29,-499.22"/>
<polygon fill="#63b8ff" stroke="#63b8ff" points="1342.6,-502.66 1353.17,-501.99 1344.49,-495.92 1342.6,-502.66"/>
</g>
<!-- Node128&#45;&gt;Node27 -->
<g id="edge58" class="edge">
<title>Node128&#45;&gt;Node27</title>
<path fill="none" stroke="#63b8ff" d="M1440.53,-466.38C1467.02,-461.26 1501.63,-454.58 1530.87,-448.93"/>
<polygon fill="#63b8ff" stroke="#63b8ff" points="1531.81,-452.31 1540.96,-446.97 1530.48,-445.43 1531.81,-452.31"/>
</g>
<!-- Node129&#45;&gt;Node27 -->
<g id="edge60" class="edge">
<title>Node129&#45;&gt;Node27</title>
<path fill="none" stroke="#63b8ff" d="M1446.84,-538.94C1454.44,-536.66 1462.07,-533.87 1469,-530.5 1510.17,-510.48 1550.88,-475.12 1573,-454.25"/>
<polygon fill="#63b8ff" stroke="#63b8ff" points="1575.49,-456.72 1580.28,-447.27 1570.64,-451.66 1575.49,-456.72"/>
</g>
<!-- Node129&#45;&gt;Node29 -->
<g id="edge61" class="edge">
<title>Node129&#45;&gt;Node29</title>
<path fill="none" stroke="#63b8ff" d="M1453.06,-551.28C1519.22,-554.66 1630.78,-560.35 1702.61,-564.01"/>
<polygon fill="#63b8ff" stroke="#63b8ff" points="1702.75,-567.52 1712.91,-564.54 1703.11,-560.53 1702.75,-567.52"/>
</g>
<!-- Node130&#45;&gt;Node27 -->
<g id="edge63" class="edge">
<title>Node130&#45;&gt;Node27</title>
<path fill="none" stroke="#63b8ff" d="M1462.53,-437.5C1484.59,-437.5 1509.18,-437.5 1530.83,-437.5"/>
<polygon fill="#63b8ff" stroke="#63b8ff" points="1530.88,-441 1540.88,-437.5 1530.88,-434 1530.88,-441"/>
</g>
<!-- Node131&#45;&gt;Node58 -->
<g id="edge65" class="edge">
<title>Node131&#45;&gt;Node58</title>
<path fill="none" stroke="#63b8ff" d="M1422.75,-303.43C1459.59,-280.54 1529.22,-237.27 1565.94,-214.45"/>
<polygon fill="#63b8ff" stroke="#63b8ff" points="1567.88,-217.37 1574.53,-209.12 1564.18,-211.42 1567.88,-217.37"/>
</g>
<!-- Node135&#45;&gt;Node29 -->
<g id="edge70" class="edge">
<title>Node135&#45;&gt;Node29</title>
<path fill="none" stroke="#63b8ff" d="M1086.27,-81.6C1211.77,-70.38 1592.45,-43.78 1677,-124.5 1730.67,-175.75 1691.44,-385.49 1713,-456.5 1723.57,-491.32 1745.11,-528.06 1758.76,-549.32"/>
<polygon fill="#63b8ff" stroke="#63b8ff" points="1756,-551.49 1764.41,-557.94 1761.85,-547.65 1756,-551.49"/>
</g>
</g>
</svg>
