<?xml version="1.0" encoding="UTF-8" standalone="no"?>
<!DOCTYPE svg PUBLIC "-//W3C//DTD SVG 1.1//EN"
 "http://www.w3.org/Graphics/SVG/1.1/DTD/svg11.dtd">
<!-- Generated by graphviz version 2.43.0 (0)
 -->
<!-- Title: src/parser/parser_next.c Pages: 1 -->
<svg width="278pt" height="302pt"
 viewBox="0.00 0.00 278.25 302.00" xmlns="http://www.w3.org/2000/svg" xmlns:xlink="http://www.w3.org/1999/xlink">
<g id="graph0" class="graph" transform="scale(1 1) rotate(0) translate(4 298)">
<title>src/parser/parser_next.c</title>
<!-- Node1 -->
<g id="node1" class="node">
<title>Node1</title>
<g id="a_node1"><a xlink:title=" ">
<polygon fill="#999999" stroke="#666666" points="255.75,-294 121.75,-294 121.75,-275 255.75,-275 255.75,-294"/>
<text text-anchor="middle" x="188.75" y="-282" font-family="Helvetica,sans-Serif" font-size="10.00">src/parser/parser_next.c</text>
</a>
</g>
</g>
<!-- Node2 -->
<g id="node2" class="node">
<title>Node2</title>
<g id="a_node2"><a xlink:href="lexer_8h.html" target="_top" xlink:title=" ">
<polygon fill="white" stroke="#666666" points="151.25,-184 102.25,-184 102.25,-165 151.25,-165 151.25,-184"/>
<text text-anchor="middle" x="126.75" y="-172" font-family="Helvetica,sans-Serif" font-size="10.00">lexer.h</text>
</a>
</g>
</g>
<!-- Node1&#45;&gt;Node2 -->
<g id="edge1" class="edge">
<title>Node1&#45;&gt;Node2</title>
<path fill="none" stroke="#63b8ff" d="M180.19,-274.94C172.04,-266.41 159.84,-252.66 151.75,-239 143.27,-224.66 136.56,-206.91 132.24,-193.83"/>
<polygon fill="#63b8ff" stroke="#63b8ff" points="135.52,-192.6 129.18,-184.11 128.84,-194.7 135.52,-192.6"/>
</g>
<!-- Node7 -->
<g id="node7" class="node">
<title>Node7</title>
<g id="a_node7"><a xlink:href="token_8h.html" target="_top" xlink:title=" ">
<polygon fill="white" stroke="#666666" points="270.25,-129 217.25,-129 217.25,-110 270.25,-110 270.25,-129"/>
<text text-anchor="middle" x="243.75" y="-117" font-family="Helvetica,sans-Serif" font-size="10.00">token.h</text>
</a>
</g>
</g>
<!-- Node1&#45;&gt;Node7 -->
<g id="edge13" class="edge">
<title>Node1&#45;&gt;Node7</title>
<path fill="none" stroke="#63b8ff" d="M198.34,-274.98C207,-266.69 219.33,-253.3 225.75,-239 240.48,-206.21 243.53,-163.72 243.95,-139.55"/>
<polygon fill="#63b8ff" stroke="#63b8ff" points="247.45,-139.29 243.99,-129.28 240.45,-139.26 247.45,-139.29"/>
</g>
<!-- Node8 -->
<g id="node8" class="node">
<title>Node8</title>
<g id="a_node8"><a xlink:href="parser_8h.html" target="_top" xlink:title=" ">
<polygon fill="white" stroke="#666666" points="216.75,-239 160.75,-239 160.75,-220 216.75,-220 216.75,-239"/>
<text text-anchor="middle" x="188.75" y="-227" font-family="Helvetica,sans-Serif" font-size="10.00">parser.h</text>
</a>
</g>
</g>
<!-- Node1&#45;&gt;Node8 -->
<g id="edge8" class="edge">
<title>Node1&#45;&gt;Node8</title>
<path fill="none" stroke="#63b8ff" d="M188.75,-274.75C188.75,-267.8 188.75,-257.85 188.75,-249.13"/>
<polygon fill="#63b8ff" stroke="#63b8ff" points="192.25,-249.09 188.75,-239.09 185.25,-249.09 192.25,-249.09"/>
</g>
<!-- Node3 -->
<g id="node3" class="node">
<title>Node3</title>
<g id="a_node3"><a xlink:title=" ">
<polygon fill="#e0e0e0" stroke="#999999" points="78.75,-19 22.75,-19 22.75,0 78.75,0 78.75,-19"/>
<text text-anchor="middle" x="50.75" y="-7" font-family="Helvetica,sans-Serif" font-size="10.00">stddef.h</text>
</a>
</g>
</g>
<!-- Node2&#45;&gt;Node3 -->
<g id="edge2" class="edge">
<title>Node2&#45;&gt;Node3</title>
<path fill="none" stroke="#63b8ff" d="M102.05,-171.8C74.74,-168.44 31.96,-158.49 11.75,-129 -6.84,-101.87 0.17,-85.78 11.75,-55 15.93,-43.89 24.28,-33.75 32.18,-25.96"/>
<polygon fill="#63b8ff" stroke="#63b8ff" points="34.76,-28.35 39.77,-19.01 30.03,-23.19 34.76,-28.35"/>
</g>
<!-- Node4 -->
<g id="node4" class="node">
<title>Node4</title>
<g id="a_node4"><a xlink:title=" ">
<polygon fill="#e0e0e0" stroke="#999999" points="160.75,-129 88.75,-129 88.75,-110 160.75,-110 160.75,-129"/>
<text text-anchor="middle" x="124.75" y="-117" font-family="Helvetica,sans-Serif" font-size="10.00">sys/types.h</text>
</a>
</g>
</g>
<!-- Node2&#45;&gt;Node4 -->
<g id="edge3" class="edge">
<title>Node2&#45;&gt;Node4</title>
<path fill="none" stroke="#63b8ff" d="M126.42,-164.75C126.16,-157.8 125.78,-147.85 125.46,-139.13"/>
<polygon fill="#63b8ff" stroke="#63b8ff" points="128.95,-138.95 125.08,-129.09 121.96,-139.21 128.95,-138.95"/>
</g>
<!-- Node5 -->
<g id="node5" class="node">
<title>Node5</title>
<g id="a_node5"><a xlink:href="shell_8h.html" target="_top" xlink:title=" ">
<polygon fill="white" stroke="#666666" points="70.25,-129 21.25,-129 21.25,-110 70.25,-110 70.25,-129"/>
<text text-anchor="middle" x="45.75" y="-117" font-family="Helvetica,sans-Serif" font-size="10.00">shell.h</text>
</a>
</g>
</g>
<!-- Node2&#45;&gt;Node5 -->
<g id="edge4" class="edge">
<title>Node2&#45;&gt;Node5</title>
<path fill="none" stroke="#63b8ff" d="M113.74,-164.98C101.3,-156.84 82.3,-144.41 67.54,-134.76"/>
<polygon fill="#63b8ff" stroke="#63b8ff" points="69.29,-131.72 59,-129.17 65.46,-137.57 69.29,-131.72"/>
</g>
<!-- Node2&#45;&gt;Node7 -->
<g id="edge7" class="edge">
<title>Node2&#45;&gt;Node7</title>
<path fill="none" stroke="#63b8ff" d="M145.55,-164.98C164.37,-156.46 193.58,-143.23 215.25,-133.41"/>
<polygon fill="#63b8ff" stroke="#63b8ff" points="216.95,-136.48 224.61,-129.17 214.06,-130.11 216.95,-136.48"/>
</g>
<!-- Node6 -->
<g id="node6" class="node">
<title>Node6</title>
<g id="a_node6"><a xlink:href="list_8h.html" target="_top" xlink:title=" ">
<polygon fill="white" stroke="#666666" points="80.25,-74 21.25,-74 21.25,-55 80.25,-55 80.25,-74"/>
<text text-anchor="middle" x="50.75" y="-62" font-family="Helvetica,sans-Serif" font-size="10.00">my/list.h</text>
</a>
</g>
</g>
<!-- Node5&#45;&gt;Node6 -->
<g id="edge5" class="edge">
<title>Node5&#45;&gt;Node6</title>
<path fill="none" stroke="#63b8ff" d="M46.58,-109.75C47.23,-102.8 48.17,-92.85 48.99,-84.13"/>
<polygon fill="#63b8ff" stroke="#63b8ff" points="52.49,-84.37 49.94,-74.09 45.52,-83.72 52.49,-84.37"/>
</g>
<!-- Node6&#45;&gt;Node3 -->
<g id="edge6" class="edge">
<title>Node6&#45;&gt;Node3</title>
<path fill="none" stroke="#63b8ff" d="M50.75,-54.75C50.75,-47.8 50.75,-37.85 50.75,-29.13"/>
<polygon fill="#63b8ff" stroke="#63b8ff" points="54.25,-29.09 50.75,-19.09 47.25,-29.09 54.25,-29.09"/>
</g>
<!-- Node8&#45;&gt;Node2 -->
<g id="edge11" class="edge">
<title>Node8&#45;&gt;Node2</title>
<path fill="none" stroke="#63b8ff" d="M178.79,-219.98C169.63,-212.15 155.82,-200.34 144.72,-190.86"/>
<polygon fill="#63b8ff" stroke="#63b8ff" points="146.77,-188.01 136.9,-184.17 142.22,-193.33 146.77,-188.01"/>
</g>
<!-- Node8&#45;&gt;Node7 -->
<g id="edge12" class="edge">
<title>Node8&#45;&gt;Node7</title>
<path fill="none" stroke="#63b8ff" d="M193.25,-219.66C202.28,-201.93 222.76,-161.73 234.68,-138.32"/>
<polygon fill="#63b8ff" stroke="#63b8ff" points="237.92,-139.66 239.34,-129.16 231.69,-136.48 237.92,-139.66"/>
</g>
<!-- Node9 -->
<g id="node9" class="node">
<title>Node9</title>
<g id="a_node9"><a xlink:href="ast_8h.html" target="_top" xlink:title=" ">
<polygon fill="white" stroke="#666666" points="174.25,-74 133.25,-74 133.25,-55 174.25,-55 174.25,-74"/>
<text text-anchor="middle" x="153.75" y="-62" font-family="Helvetica,sans-Serif" font-size="10.00">ast.h</text>
</a>
</g>
</g>
<!-- Node8&#45;&gt;Node9 -->
<g id="edge9" class="edge">
<title>Node8&#45;&gt;Node9</title>
<path fill="none" stroke="#63b8ff" d="M187.92,-219.76C185.9,-199.98 180.15,-150.35 169.75,-110 167.47,-101.16 164.16,-91.59 161.13,-83.61"/>
<polygon fill="#63b8ff" stroke="#63b8ff" points="164.35,-82.24 157.43,-74.21 157.84,-84.8 164.35,-82.24"/>
</g>
<!-- Node9&#45;&gt;Node3 -->
<g id="edge10" class="edge">
<title>Node9&#45;&gt;Node3</title>
<path fill="none" stroke="#63b8ff" d="M137.2,-54.98C120.86,-46.57 95.62,-33.59 76.62,-23.81"/>
<polygon fill="#63b8ff" stroke="#63b8ff" points="78.1,-20.63 67.6,-19.17 74.89,-26.86 78.1,-20.63"/>
</g>
</g>
</svg>
