<?xml version="1.0" encoding="UTF-8" standalone="no"?>
<!DOCTYPE svg PUBLIC "-//W3C//DTD SVG 1.1//EN"
 "http://www.w3.org/Graphics/SVG/1.1/DTD/svg11.dtd">
<!-- Generated by graphviz version 2.43.0 (0)
 -->
<!-- Title: prepare_parser Pages: 1 -->
<svg width="1671pt" height="1053pt"
 viewBox="0.00 0.00 1671.00 1053.00" xmlns="http://www.w3.org/2000/svg" xmlns:xlink="http://www.w3.org/1999/xlink">
<g id="graph0" class="graph" transform="scale(1 1) rotate(0) translate(4 1049)">
<title>prepare_parser</title>
<!-- Node1 -->
<g id="node1" class="node">
<title>Node1</title>
<g id="a_node1"><a xlink:title=" ">
<polygon fill="#999999" stroke="#666666" points="90,-726 0,-726 0,-707 90,-707 90,-726"/>
<text text-anchor="middle" x="45" y="-714" font-family="Helvetica,sans-Serif" font-size="10.00">prepare_parser</text>
</a>
</g>
</g>
<!-- Node2 -->
<g id="node2" class="node">
<title>Node2</title>
<g id="a_node2"><a xlink:href="parser__set__error_8c.html#adcfabdb026b94fdbe4b6cbf5cb16522a" target="_top" xlink:title=" ">
<polygon fill="white" stroke="#666666" points="222,-745 126,-745 126,-726 222,-726 222,-745"/>
<text text-anchor="middle" x="174" y="-733" font-family="Helvetica,sans-Serif" font-size="10.00">parser_set_error</text>
</a>
</g>
</g>
<!-- Node1&#45;&gt;Node2 -->
<g id="edge1" class="edge">
<title>Node1&#45;&gt;Node2</title>
<path fill="none" stroke="#63b8ff" d="M90.06,-723.09C98.4,-724.34 107.24,-725.66 115.92,-726.96"/>
<polygon fill="#63b8ff" stroke="#63b8ff" points="115.58,-730.45 125.99,-728.47 116.62,-723.53 115.58,-730.45"/>
</g>
<!-- Node3 -->
<g id="node3" class="node">
<title>Node3</title>
<g id="a_node3"><a xlink:href="parser__utils_8c.html#aef41660a9d240250899e27f88cd21e2c" target="_top" xlink:title=" ">
<polygon fill="white" stroke="#666666" points="221,-708 127,-708 127,-689 221,-689 221,-708"/>
<text text-anchor="middle" x="174" y="-696" font-family="Helvetica,sans-Serif" font-size="10.00">skip_separators</text>
</a>
</g>
</g>
<!-- Node1&#45;&gt;Node3 -->
<g id="edge2" class="edge">
<title>Node1&#45;&gt;Node3</title>
<path fill="none" stroke="#63b8ff" d="M90.06,-710.25C98.7,-709.03 107.87,-707.73 116.85,-706.46"/>
<polygon fill="#63b8ff" stroke="#63b8ff" points="117.45,-709.91 126.86,-705.04 116.46,-702.98 117.45,-709.91"/>
</g>
<!-- Node4 -->
<g id="node4" class="node">
<title>Node4</title>
<g id="a_node4"><a xlink:href="parser__utils_8c.html#a58d1fcbbbf31e24aab676f2ba794b440" target="_top" xlink:title=" ">
<polygon fill="white" stroke="#666666" points="335,-727 258,-727 258,-708 335,-708 335,-727"/>
<text text-anchor="middle" x="296.5" y="-715" font-family="Helvetica,sans-Serif" font-size="10.00">is_separator</text>
</a>
</g>
</g>
<!-- Node3&#45;&gt;Node4 -->
<g id="edge3" class="edge">
<title>Node3&#45;&gt;Node4</title>
<path fill="none" stroke="#63b8ff" d="M221.24,-705.79C229.93,-707.16 239.02,-708.59 247.75,-709.97"/>
<polygon fill="#63b8ff" stroke="#63b8ff" points="247.35,-713.45 257.78,-711.55 248.44,-706.54 247.35,-713.45"/>
</g>
<!-- Node5 -->
<g id="node5" class="node">
<title>Node5</title>
<g id="a_node5"><a xlink:href="parser__next_8c.html#ad25986b565a767c6ad7d0b0b8846fca6" target="_top" xlink:title=" ">
<polygon fill="white" stroke="#666666" points="333.5,-690 259.5,-690 259.5,-671 333.5,-671 333.5,-690"/>
<text text-anchor="middle" x="296.5" y="-678" font-family="Helvetica,sans-Serif" font-size="10.00">parser_next</text>
</a>
</g>
</g>
<!-- Node3&#45;&gt;Node5 -->
<g id="edge4" class="edge">
<title>Node3&#45;&gt;Node5</title>
<path fill="none" stroke="#63b8ff" d="M221.24,-691.59C230.41,-690.22 240.03,-688.79 249.19,-687.42"/>
<polygon fill="#63b8ff" stroke="#63b8ff" points="249.92,-690.85 259.29,-685.91 248.89,-683.92 249.92,-690.85"/>
</g>
<!-- Node6 -->
<g id="node6" class="node">
<title>Node6</title>
<g id="a_node6"><a xlink:href="lexer__next__token_8c.html#a3def5432329709fb4df861d90672c510" target="_top" xlink:title=" ">
<polygon fill="white" stroke="#666666" points="471,-709 371,-709 371,-690 471,-690 471,-709"/>
<text text-anchor="middle" x="421" y="-697" font-family="Helvetica,sans-Serif" font-size="10.00">lexer_next_token</text>
</a>
</g>
</g>
<!-- Node5&#45;&gt;Node6 -->
<g id="edge5" class="edge">
<title>Node5&#45;&gt;Node6</title>
<path fill="none" stroke="#63b8ff" d="M333.59,-686.1C342.09,-687.42 351.37,-688.86 360.6,-690.29"/>
<polygon fill="#63b8ff" stroke="#63b8ff" points="360.13,-693.76 370.55,-691.83 361.2,-686.84 360.13,-693.76"/>
</g>
<!-- Node118 -->
<g id="node50" class="node">
<title>Node118</title>
<g id="a_node50"><a xlink:href="destroy__token_8c.html#ad1a471ee7b1ccb035d769be1152a370c" target="_top" xlink:title=" ">
<polygon fill="white" stroke="#666666" points="464,-672 378,-672 378,-653 464,-653 464,-672"/>
<text text-anchor="middle" x="421" y="-660" font-family="Helvetica,sans-Serif" font-size="10.00">token_destroy</text>
</a>
</g>
</g>
<!-- Node5&#45;&gt;Node118 -->
<g id="edge74" class="edge">
<title>Node5&#45;&gt;Node118</title>
<path fill="none" stroke="#63b8ff" d="M333.59,-675.2C344.29,-673.62 356.23,-671.87 367.73,-670.18"/>
<polygon fill="#63b8ff" stroke="#63b8ff" points="368.31,-673.63 377.69,-668.72 367.29,-666.71 368.31,-673.63"/>
</g>
<!-- Node7 -->
<g id="node7" class="node">
<title>Node7</title>
<g id="a_node7"><a xlink:href="create__token_8c.html#a15bcfc92177012893c626ce7d2d6bb6b" target="_top" xlink:title=" ">
<polygon fill="white" stroke="#666666" points="943,-840 863,-840 863,-821 943,-821 943,-840"/>
<text text-anchor="middle" x="903" y="-828" font-family="Helvetica,sans-Serif" font-size="10.00">create_token</text>
</a>
</g>
</g>
<!-- Node6&#45;&gt;Node7 -->
<g id="edge6" class="edge">
<title>Node6&#45;&gt;Node7</title>
<path fill="none" stroke="#63b8ff" d="M422.83,-709.09C426.27,-743.19 442.5,-859.87 507,-922.5 561.35,-975.28 593.3,-965.88 668,-978.5 722.78,-987.75 743.42,-1003.56 793,-978.5 846.97,-951.22 880.76,-883.24 894.68,-849.75"/>
<polygon fill="#63b8ff" stroke="#63b8ff" points="898.04,-850.78 898.5,-840.19 891.54,-848.18 898.04,-850.78"/>
</g>
<!-- Node8 -->
<g id="node8" class="node">
<title>Node8</title>
<g id="a_node8"><a xlink:href="lexer__next__token_8c.html#add2e1acaa9518ecf20b6670ad91a5c65" target="_top" xlink:title=" ">
<polygon fill="white" stroke="#666666" points="620.5,-913 518.5,-913 518.5,-894 620.5,-894 620.5,-913"/>
<text text-anchor="middle" x="569.5" y="-901" font-family="Helvetica,sans-Serif" font-size="10.00">get_logical_token</text>
</a>
</g>
</g>
<!-- Node6&#45;&gt;Node8 -->
<g id="edge7" class="edge">
<title>Node6&#45;&gt;Node8</title>
<path fill="none" stroke="#63b8ff" d="M428.87,-709.07C451.74,-740.92 525.57,-843.72 555.61,-885.55"/>
<polygon fill="#63b8ff" stroke="#63b8ff" points="552.8,-887.64 561.47,-893.72 558.48,-883.55 552.8,-887.64"/>
</g>
<!-- Node12 -->
<g id="node12" class="node">
<title>Node12</title>
<g id="a_node12"><a xlink:href="lexer__next__token_8c.html#abcee8a7ba5ea6ca80c0bd7e3dd8d9a32" target="_top" xlink:title=" ">
<polygon fill="white" stroke="#666666" points="630.5,-784 508.5,-784 508.5,-765 630.5,-765 630.5,-784"/>
<text text-anchor="middle" x="569.5" y="-772" font-family="Helvetica,sans-Serif" font-size="10.00">get_redirection_token</text>
</a>
</g>
</g>
<!-- Node6&#45;&gt;Node12 -->
<g id="edge14" class="edge">
<title>Node6&#45;&gt;Node12</title>
<path fill="none" stroke="#63b8ff" d="M440.85,-709.15C466.13,-722.09 511.19,-745.16 540.45,-760.14"/>
<polygon fill="#63b8ff" stroke="#63b8ff" points="539.22,-763.44 549.72,-764.89 542.41,-757.21 539.22,-763.44"/>
</g>
<!-- Node17 -->
<g id="node17" class="node">
<title>Node17</title>
<g id="a_node17"><a xlink:href="lexer__newline_8c.html#a9f60bf18297b9c705fa6cdff027c79fc" target="_top" xlink:title=" ">
<polygon fill="white" stroke="#666666" points="611.5,-709 527.5,-709 527.5,-690 611.5,-690 611.5,-709"/>
<text text-anchor="middle" x="569.5" y="-697" font-family="Helvetica,sans-Serif" font-size="10.00">lexer_newline</text>
</a>
</g>
</g>
<!-- Node6&#45;&gt;Node17 -->
<g id="edge23" class="edge">
<title>Node6&#45;&gt;Node17</title>
<path fill="none" stroke="#63b8ff" d="M471.19,-699.5C486.05,-699.5 502.39,-699.5 517.37,-699.5"/>
<polygon fill="#63b8ff" stroke="#63b8ff" points="517.49,-703 527.49,-699.5 517.49,-696 517.49,-703"/>
</g>
<!-- Node18 -->
<g id="node18" class="node">
<title>Node18</title>
<g id="a_node18"><a xlink:href="lexer__parenthesis_8c.html#a2b13eaa0fee255bea85bd4279f369795" target="_top" xlink:title=" ">
<polygon fill="white" stroke="#666666" points="621,-672 518,-672 518,-653 621,-653 621,-672"/>
<text text-anchor="middle" x="569.5" y="-660" font-family="Helvetica,sans-Serif" font-size="10.00">lexer_parenthesis</text>
</a>
</g>
</g>
<!-- Node6&#45;&gt;Node18 -->
<g id="edge25" class="edge">
<title>Node6&#45;&gt;Node18</title>
<path fill="none" stroke="#63b8ff" d="M459.73,-689.97C478.37,-685.26 501.05,-679.53 520.88,-674.53"/>
<polygon fill="#63b8ff" stroke="#63b8ff" points="521.81,-677.9 530.65,-672.06 520.09,-671.12 521.81,-677.9"/>
</g>
<!-- Node19 -->
<g id="node19" class="node">
<title>Node19</title>
<g id="a_node19"><a xlink:href="lexer__semicolon_8c.html#a1612109b245d9780427946e4e33b01b7" target="_top" xlink:title=" ">
<polygon fill="white" stroke="#666666" points="617.5,-1045 521.5,-1045 521.5,-1026 617.5,-1026 617.5,-1045"/>
<text text-anchor="middle" x="569.5" y="-1033" font-family="Helvetica,sans-Serif" font-size="10.00">lexer_semicolon</text>
</a>
</g>
</g>
<!-- Node6&#45;&gt;Node19 -->
<g id="edge27" class="edge">
<title>Node6&#45;&gt;Node19</title>
<path fill="none" stroke="#63b8ff" d="M421.7,-709.08C420.92,-750.75 423.29,-918.41 507,-1011.5 510.46,-1015.34 514.6,-1018.58 519.09,-1021.3"/>
<polygon fill="#63b8ff" stroke="#63b8ff" points="517.55,-1024.44 528.04,-1025.92 520.76,-1018.22 517.55,-1024.44"/>
</g>
<!-- Node20 -->
<g id="node20" class="node">
<title>Node20</title>
<g id="a_node20"><a xlink:href="lexer__word_8c.html#ac2600a9ba16009c4d8c114a118c54955" target="_top" xlink:title=" ">
<polygon fill="white" stroke="#666666" points="604.5,-634 534.5,-634 534.5,-615 604.5,-615 604.5,-634"/>
<text text-anchor="middle" x="569.5" y="-622" font-family="Helvetica,sans-Serif" font-size="10.00">lexer_word</text>
</a>
</g>
</g>
<!-- Node6&#45;&gt;Node20 -->
<g id="edge29" class="edge">
<title>Node6&#45;&gt;Node20</title>
<path fill="none" stroke="#63b8ff" d="M454.36,-689.96C460.12,-687.61 465.91,-684.81 471,-681.5 490.25,-669.01 487.52,-656.62 507,-644.5 512.44,-641.11 518.52,-638.24 524.67,-635.82"/>
<polygon fill="#63b8ff" stroke="#63b8ff" points="526.07,-639.04 534.32,-632.39 523.73,-632.44 526.07,-639.04"/>
</g>
<!-- Node131 -->
<g id="node48" class="node">
<title>Node131</title>
<g id="a_node48"><a xlink:href="lexer__next__token_8c.html#a7f0a2dd2373821667a4d5381e7711aa0" target="_top" xlink:title=" ">
<polygon fill="white" stroke="#666666" points="614,-597 525,-597 525,-578 614,-578 614,-597"/>
<text text-anchor="middle" x="569.5" y="-585" font-family="Helvetica,sans-Serif" font-size="10.00">skip_comment</text>
</a>
</g>
</g>
<!-- Node6&#45;&gt;Node131 -->
<g id="edge72" class="edge">
<title>Node6&#45;&gt;Node131</title>
<path fill="none" stroke="#63b8ff" d="M458.11,-689.96C462.79,-687.69 467.24,-684.91 471,-681.5 498.36,-656.63 479,-630.64 507,-606.5 509.66,-604.2 512.6,-602.19 515.7,-600.41"/>
<polygon fill="#63b8ff" stroke="#63b8ff" points="517.31,-603.52 524.8,-596.03 514.27,-597.22 517.31,-603.52"/>
</g>
<!-- Node132 -->
<g id="node49" class="node">
<title>Node132</title>
<g id="a_node49"><a xlink:href="lexer__next__token_8c.html#a5b2052471d98cef2998e1367f9bf8f6d" target="_top" xlink:title=" ">
<polygon fill="white" stroke="#666666" points="632,-560 507,-560 507,-541 632,-541 632,-560"/>
<text text-anchor="middle" x="569.5" y="-548" font-family="Helvetica,sans-Serif" font-size="10.00">skip_spaces_and_tabs</text>
</a>
</g>
</g>
<!-- Node6&#45;&gt;Node132 -->
<g id="edge73" class="edge">
<title>Node6&#45;&gt;Node132</title>
<path fill="none" stroke="#63b8ff" d="M459.54,-689.9C463.78,-687.66 467.74,-684.9 471,-681.5 507.21,-643.78 469.82,-606.26 507,-569.5 508.46,-568.06 510.03,-566.72 511.68,-565.49"/>
<polygon fill="#63b8ff" stroke="#63b8ff" points="513.79,-568.3 520.53,-560.13 510.17,-562.31 513.79,-568.3"/>
</g>
<!-- Node9 -->
<g id="node9" class="node">
<title>Node9</title>
<g id="a_node9"><a xlink:href="lexer__logical__and_8c.html#a59e5031d54357d65c6873edc67de2a47" target="_top" xlink:title=" ">
<polygon fill="white" stroke="#666666" points="781,-895 680,-895 680,-876 781,-876 781,-895"/>
<text text-anchor="middle" x="730.5" y="-883" font-family="Helvetica,sans-Serif" font-size="10.00">lexer_logical_and</text>
</a>
</g>
</g>
<!-- Node8&#45;&gt;Node9 -->
<g id="edge8" class="edge">
<title>Node8&#45;&gt;Node9</title>
<path fill="none" stroke="#63b8ff" d="M620.81,-897.8C636.26,-896.06 653.41,-894.11 669.45,-892.3"/>
<polygon fill="#63b8ff" stroke="#63b8ff" points="670.25,-895.73 679.79,-891.13 669.46,-888.77 670.25,-895.73"/>
</g>
<!-- Node10 -->
<g id="node10" class="node">
<title>Node10</title>
<g id="a_node10"><a xlink:href="lexer__logical__or_8c.html#ac3851eaea27bd5774b126b888bdddf93" target="_top" xlink:title=" ">
<polygon fill="white" stroke="#666666" points="777,-969 684,-969 684,-950 777,-950 777,-969"/>
<text text-anchor="middle" x="730.5" y="-957" font-family="Helvetica,sans-Serif" font-size="10.00">lexer_logical_or</text>
</a>
</g>
</g>
<!-- Node8&#45;&gt;Node10 -->
<g id="edge10" class="edge">
<title>Node8&#45;&gt;Node10</title>
<path fill="none" stroke="#63b8ff" d="M593.54,-913.13C613.16,-921.18 642.2,-932.72 668,-941.5 673.53,-943.38 679.38,-945.25 685.19,-947.03"/>
<polygon fill="#63b8ff" stroke="#63b8ff" points="684.27,-950.41 694.86,-949.93 686.28,-943.71 684.27,-950.41"/>
</g>
<!-- Node11 -->
<g id="node11" class="node">
<title>Node11</title>
<g id="a_node11"><a xlink:href="lexer__pipe_8c.html#a693816e38802a086de64c09cb7cebeb7" target="_top" xlink:title=" ">
<polygon fill="white" stroke="#666666" points="764,-932 697,-932 697,-913 764,-913 764,-932"/>
<text text-anchor="middle" x="730.5" y="-920" font-family="Helvetica,sans-Serif" font-size="10.00">lexer_pipe</text>
</a>
</g>
</g>
<!-- Node8&#45;&gt;Node11 -->
<g id="edge12" class="edge">
<title>Node8&#45;&gt;Node11</title>
<path fill="none" stroke="#63b8ff" d="M620.81,-909.51C641.88,-912.03 666.13,-914.93 686.37,-917.35"/>
<polygon fill="#63b8ff" stroke="#63b8ff" points="686.21,-920.85 696.56,-918.56 687.04,-913.9 686.21,-920.85"/>
</g>
<!-- Node9&#45;&gt;Node7 -->
<g id="edge9" class="edge">
<title>Node9&#45;&gt;Node7</title>
<path fill="none" stroke="#63b8ff" d="M765.09,-875.95C774.17,-873.29 783.98,-870.35 793,-867.5 817.18,-859.86 844.17,-850.7 865.25,-843.41"/>
<polygon fill="#63b8ff" stroke="#63b8ff" points="866.48,-846.69 874.78,-840.1 864.19,-840.07 866.48,-846.69"/>
</g>
<!-- Node10&#45;&gt;Node7 -->
<g id="edge11" class="edge">
<title>Node10&#45;&gt;Node7</title>
<path fill="none" stroke="#63b8ff" d="M774.7,-949.92C781.07,-947.65 787.37,-944.87 793,-941.5 834.27,-916.78 870.88,-872.72 889.33,-848.2"/>
<polygon fill="#63b8ff" stroke="#63b8ff" points="892.17,-850.25 895.29,-840.13 886.54,-846.1 892.17,-850.25"/>
</g>
<!-- Node11&#45;&gt;Node7 -->
<g id="edge13" class="edge">
<title>Node11&#45;&gt;Node7</title>
<path fill="none" stroke="#63b8ff" d="M764.12,-915C773.65,-912.26 783.94,-908.77 793,-904.5 826.82,-888.55 861.9,-862.8 882.83,-846.26"/>
<polygon fill="#63b8ff" stroke="#63b8ff" points="885.03,-848.99 890.64,-840 880.65,-843.53 885.03,-848.99"/>
</g>
<!-- Node13 -->
<g id="node13" class="node">
<title>Node13</title>
<g id="a_node13"><a xlink:href="lexer__heredoc_8c.html#a9db043b0e8df9ad1155a65a8fcf67c11" target="_top" xlink:title=" ">
<polygon fill="white" stroke="#666666" points="773,-784 688,-784 688,-765 773,-765 773,-784"/>
<text text-anchor="middle" x="730.5" y="-772" font-family="Helvetica,sans-Serif" font-size="10.00">lexer_heredoc</text>
</a>
</g>
</g>
<!-- Node12&#45;&gt;Node13 -->
<g id="edge15" class="edge">
<title>Node12&#45;&gt;Node13</title>
<path fill="none" stroke="#63b8ff" d="M630.61,-774.5C646.04,-774.5 662.52,-774.5 677.5,-774.5"/>
<polygon fill="#63b8ff" stroke="#63b8ff" points="677.61,-778 687.61,-774.5 677.61,-771 677.61,-778"/>
</g>
<!-- Node14 -->
<g id="node14" class="node">
<title>Node14</title>
<g id="a_node14"><a xlink:href="lexer__redirect__append_8c.html#a09beefbfaf132dbe04add1370a6fb2e3" target="_top" xlink:title=" ">
<polygon fill="white" stroke="#666666" points="793,-747 668,-747 668,-728 793,-728 793,-747"/>
<text text-anchor="middle" x="730.5" y="-735" font-family="Helvetica,sans-Serif" font-size="10.00">lexer_redirect_append</text>
</a>
</g>
</g>
<!-- Node12&#45;&gt;Node14 -->
<g id="edge17" class="edge">
<title>Node12&#45;&gt;Node14</title>
<path fill="none" stroke="#63b8ff" d="M611.45,-764.97C631.86,-760.22 656.75,-754.43 678.4,-749.39"/>
<polygon fill="#63b8ff" stroke="#63b8ff" points="679.47,-752.74 688.42,-747.06 677.88,-745.92 679.47,-752.74"/>
</g>
<!-- Node15 -->
<g id="node15" class="node">
<title>Node15</title>
<g id="a_node15"><a xlink:href="lexer__redirect__in_8c.html#ac723d9668329d99b35003ed2423889e5" target="_top" xlink:title=" ">
<polygon fill="white" stroke="#666666" points="779.5,-858 681.5,-858 681.5,-839 779.5,-839 779.5,-858"/>
<text text-anchor="middle" x="730.5" y="-846" font-family="Helvetica,sans-Serif" font-size="10.00">lexer_redirect_in</text>
</a>
</g>
</g>
<!-- Node12&#45;&gt;Node15 -->
<g id="edge19" class="edge">
<title>Node12&#45;&gt;Node15</title>
<path fill="none" stroke="#63b8ff" d="M584.8,-784.17C603.33,-796.34 636.94,-817.25 668,-830.5 672.44,-832.39 677.13,-834.16 681.87,-835.79"/>
<polygon fill="#63b8ff" stroke="#63b8ff" points="681.01,-839.19 691.6,-838.94 683.17,-832.53 681.01,-839.19"/>
</g>
<!-- Node16 -->
<g id="node16" class="node">
<title>Node16</title>
<g id="a_node16"><a xlink:href="lexer__redirect__out_8c.html#a70e2216639c96030b3861405ae3497c6" target="_top" xlink:title=" ">
<polygon fill="white" stroke="#666666" points="782.5,-821 678.5,-821 678.5,-802 782.5,-802 782.5,-821"/>
<text text-anchor="middle" x="730.5" y="-809" font-family="Helvetica,sans-Serif" font-size="10.00">lexer_redirect_out</text>
</a>
</g>
</g>
<!-- Node12&#45;&gt;Node16 -->
<g id="edge21" class="edge">
<title>Node12&#45;&gt;Node16</title>
<path fill="none" stroke="#63b8ff" d="M611.45,-784.03C631.86,-788.78 656.75,-794.57 678.4,-799.61"/>
<polygon fill="#63b8ff" stroke="#63b8ff" points="677.88,-803.08 688.42,-801.94 679.47,-796.26 677.88,-803.08"/>
</g>
<!-- Node13&#45;&gt;Node7 -->
<g id="edge16" class="edge">
<title>Node13&#45;&gt;Node7</title>
<path fill="none" stroke="#63b8ff" d="M763.16,-784.1C772.76,-787.06 783.33,-790.36 793,-793.5 816.96,-801.27 843.75,-810.35 864.77,-817.58"/>
<polygon fill="#63b8ff" stroke="#63b8ff" points="863.7,-820.91 874.29,-820.86 865.98,-814.29 863.7,-820.91"/>
</g>
<!-- Node14&#45;&gt;Node7 -->
<g id="edge18" class="edge">
<title>Node14&#45;&gt;Node7</title>
<path fill="none" stroke="#63b8ff" d="M768.6,-747.01C776.82,-749.65 785.35,-752.82 793,-756.5 826.52,-772.61 861.43,-798.11 882.44,-814.57"/>
<polygon fill="#63b8ff" stroke="#63b8ff" points="880.29,-817.33 890.3,-820.81 884.65,-811.85 880.29,-817.33"/>
</g>
<!-- Node15&#45;&gt;Node7 -->
<g id="edge20" class="edge">
<title>Node15&#45;&gt;Node7</title>
<path fill="none" stroke="#63b8ff" d="M779.9,-843.39C802.7,-840.98 829.85,-838.12 852.75,-835.7"/>
<polygon fill="#63b8ff" stroke="#63b8ff" points="853.36,-839.15 862.94,-834.62 852.63,-832.19 853.36,-839.15"/>
</g>
<!-- Node16&#45;&gt;Node7 -->
<g id="edge22" class="edge">
<title>Node16&#45;&gt;Node7</title>
<path fill="none" stroke="#63b8ff" d="M782.66,-817.2C804.84,-819.67 830.72,-822.56 852.69,-825.01"/>
<polygon fill="#63b8ff" stroke="#63b8ff" points="852.48,-828.5 862.81,-826.13 853.26,-821.55 852.48,-828.5"/>
</g>
<!-- Node17&#45;&gt;Node7 -->
<g id="edge24" class="edge">
<title>Node17&#45;&gt;Node7</title>
<path fill="none" stroke="#63b8ff" d="M611.67,-694.99C658.07,-691.72 734.63,-691.87 793,-719.5 836.92,-740.29 872.94,-786.68 890.47,-812.42"/>
<polygon fill="#63b8ff" stroke="#63b8ff" points="887.64,-814.48 896.08,-820.88 893.48,-810.61 887.64,-814.48"/>
</g>
<!-- Node18&#45;&gt;Node7 -->
<g id="edge26" class="edge">
<title>Node18&#45;&gt;Node7</title>
<path fill="none" stroke="#63b8ff" d="M621.21,-657.93C668.69,-656.02 740.05,-659.41 793,-689.5 843.27,-718.07 878.23,-780.06 893.45,-811.46"/>
<polygon fill="#63b8ff" stroke="#63b8ff" points="890.43,-813.27 897.84,-820.84 896.77,-810.3 890.43,-813.27"/>
</g>
<!-- Node19&#45;&gt;Node7 -->
<g id="edge28" class="edge">
<title>Node19&#45;&gt;Node7</title>
<path fill="none" stroke="#63b8ff" d="M617.9,-1041.94C665.86,-1045.97 740.27,-1045.16 793,-1011.5 853.22,-973.06 884.9,-888.34 896.61,-850.01"/>
<polygon fill="#63b8ff" stroke="#63b8ff" points="900.06,-850.69 899.5,-840.11 893.34,-848.72 900.06,-850.69"/>
</g>
<!-- Node20&#45;&gt;Node7 -->
<g id="edge30" class="edge">
<title>Node20&#45;&gt;Node7</title>
<path fill="none" stroke="#63b8ff" d="M604.84,-620.35C651.38,-616.52 735.27,-616.15 793,-653.5 851.74,-691.5 884.02,-773.45 896.23,-811"/>
<polygon fill="#63b8ff" stroke="#63b8ff" points="892.95,-812.23 899.27,-820.73 899.63,-810.14 892.95,-812.23"/>
</g>
<!-- Node21 -->
<g id="node21" class="node">
<title>Node21</title>
<g id="a_node21"><a xlink:href="lexer__word_8c.html#a730574257743b09386cadd2ccbfe4d13" target="_top" xlink:title=" ">
<polygon fill="white" stroke="#666666" points="791.5,-278 669.5,-278 669.5,-259 791.5,-259 791.5,-278"/>
<text text-anchor="middle" x="730.5" y="-266" font-family="Helvetica,sans-Serif" font-size="10.00">handle_current_token</text>
</a>
</g>
</g>
<!-- Node20&#45;&gt;Node21 -->
<g id="edge31" class="edge">
<title>Node20&#45;&gt;Node21</title>
<path fill="none" stroke="#63b8ff" d="M604.67,-620.82C614.59,-618.21 624.7,-613.83 632,-606.5 722.53,-515.62 730.14,-346.35 729.95,-288.49"/>
<polygon fill="#63b8ff" stroke="#63b8ff" points="733.45,-288.14 729.83,-278.18 726.45,-288.22 733.45,-288.14"/>
</g>
<!-- Node122 -->
<g id="node40" class="node">
<title>Node122</title>
<g id="a_node40"><a xlink:href="lexer__is__word__separator_8c.html#abccfc6fc0cdbd040fc9a7dcbfd207090" target="_top" xlink:title=" ">
<polygon fill="white" stroke="#666666" points="1345.5,-576 1210.5,-576 1210.5,-557 1345.5,-557 1345.5,-576"/>
<text text-anchor="middle" x="1278" y="-564" font-family="Helvetica,sans-Serif" font-size="10.00">lexer_is_word_separator</text>
</a>
</g>
</g>
<!-- Node20&#45;&gt;Node122 -->
<g id="edge71" class="edge">
<title>Node20&#45;&gt;Node122</title>
<path fill="none" stroke="#63b8ff" d="M604.77,-620.79C623.45,-618.81 646.99,-616.41 668,-614.5 859.22,-597.16 1084.54,-580.34 1200.11,-571.98"/>
<polygon fill="#63b8ff" stroke="#63b8ff" points="1200.55,-575.45 1210.27,-571.24 1200.04,-568.47 1200.55,-575.45"/>
</g>
<!-- Node22 -->
<g id="node22" class="node">
<title>Node22</title>
<g id="a_node22"><a xlink:href="lexer__word_8c.html#acd8f2a3c47fa56f87c2792ccefd2ee3e" target="_top" xlink:title=" ">
<polygon fill="white" stroke="#666666" points="963.5,-337 842.5,-337 842.5,-318 963.5,-318 963.5,-337"/>
<text text-anchor="middle" x="903" y="-325" font-family="Helvetica,sans-Serif" font-size="10.00">handle_double_quote</text>
</a>
</g>
</g>
<!-- Node21&#45;&gt;Node22 -->
<g id="edge32" class="edge">
<title>Node21&#45;&gt;Node22</title>
<path fill="none" stroke="#63b8ff" d="M751.69,-278.08C771.16,-287.07 801.63,-300.43 829,-309.5 835.33,-311.6 842.03,-313.57 848.72,-315.39"/>
<polygon fill="#63b8ff" stroke="#63b8ff" points="847.89,-318.79 858.45,-317.94 849.66,-312.02 847.89,-318.79"/>
</g>
<!-- Node23 -->
<g id="node23" class="node">
<title>Node23</title>
<g id="a_node23"><a xlink:href="lexer__word_8c.html#a733339142f4677a066646a12a7e5bec4" target="_top" xlink:title=" ">
<polygon fill="white" stroke="#666666" points="1155,-208 1014,-208 1014,-189 1155,-189 1155,-208"/>
<text text-anchor="middle" x="1084.5" y="-196" font-family="Helvetica,sans-Serif" font-size="10.00">handle_escape_sequence</text>
</a>
</g>
</g>
<!-- Node21&#45;&gt;Node23 -->
<g id="edge33" class="edge">
<title>Node21&#45;&gt;Node23</title>
<path fill="none" stroke="#63b8ff" d="M779.34,-258.99C843.39,-246.25 956.9,-223.68 1025.67,-210"/>
<polygon fill="#63b8ff" stroke="#63b8ff" points="1026.36,-213.43 1035.48,-208.05 1024.99,-206.57 1026.36,-213.43"/>
</g>
<!-- Node27 -->
<g id="node27" class="node">
<title>Node27</title>
<g id="a_node27"><a xlink:href="lexer__word_8c.html#a3ae03e49183787e7cf32c90ffdef7351" target="_top" xlink:title=" ">
<polygon fill="white" stroke="#666666" points="961.5,-193 844.5,-193 844.5,-174 961.5,-174 961.5,-193"/>
<text text-anchor="middle" x="903" y="-181" font-family="Helvetica,sans-Serif" font-size="10.00">handle_single_quote</text>
</a>
</g>
</g>
<!-- Node21&#45;&gt;Node27 -->
<g id="edge37" class="edge">
<title>Node21&#45;&gt;Node27</title>
<path fill="none" stroke="#63b8ff" d="M747.05,-258.93C766.03,-247.44 799.28,-227.92 829,-213.5 841.26,-207.55 855,-201.7 867.23,-196.77"/>
<polygon fill="#63b8ff" stroke="#63b8ff" points="868.66,-199.97 876.66,-193.02 866.08,-193.46 868.66,-199.97"/>
</g>
<!-- Node28 -->
<g id="node28" class="node">
<title>Node28</title>
<g id="a_node28"><a xlink:href="lexer__utils_8c.html#a2ba6f7e43ecbf713c666ab062eac534c" target="_top" xlink:title=" ">
<polygon fill="white" stroke="#666666" points="977,-94 829,-94 829,-75 977,-75 977,-94"/>
<text text-anchor="middle" x="903" y="-82" font-family="Helvetica,sans-Serif" font-size="10.00">lexer_append_current_char</text>
</a>
</g>
</g>
<!-- Node21&#45;&gt;Node28 -->
<g id="edge39" class="edge">
<title>Node21&#45;&gt;Node28</title>
<path fill="none" stroke="#63b8ff" d="M734.28,-258.91C743.05,-230.45 772.93,-145.76 829,-103.5 831.48,-101.63 834.13,-99.94 836.9,-98.42"/>
<polygon fill="#63b8ff" stroke="#63b8ff" points="838.5,-101.53 846.05,-94.1 835.51,-95.2 838.5,-101.53"/>
</g>
<!-- Node29 -->
<g id="node29" class="node">
<title>Node29</title>
<g id="a_node29"><a xlink:href="lexer__expand__command__substitution_8c.html#aad26825e6ecc7617687abd601366b15d" target="_top" xlink:title=" ">
<polygon fill="white" stroke="#666666" points="971,-142.5 835,-142.5 835,-112.5 971,-112.5 971,-142.5"/>
<text text-anchor="start" x="843" y="-130.5" font-family="Helvetica,sans-Serif" font-size="10.00">lexer_expand_command</text>
<text text-anchor="middle" x="903" y="-119.5" font-family="Helvetica,sans-Serif" font-size="10.00">_substitution</text>
</a>
</g>
</g>
<!-- Node21&#45;&gt;Node29 -->
<g id="edge41" class="edge">
<title>Node21&#45;&gt;Node29</title>
<path fill="none" stroke="#63b8ff" d="M738.71,-258.97C753.79,-239.5 790.47,-194.57 829,-165.5 837.91,-158.78 848.17,-152.62 858.14,-147.31"/>
<polygon fill="#63b8ff" stroke="#63b8ff" points="859.86,-150.36 867.16,-142.68 856.67,-144.13 859.86,-150.36"/>
</g>
<!-- Node120 -->
<g id="node36" class="node">
<title>Node120</title>
<g id="a_node36"><a xlink:href="lexer__expand__tilde_8c.html#ae3c478a10a2764ee7c7f94b42f28ecaf" target="_top" xlink:title=" ">
<polygon fill="white" stroke="#666666" points="957.5,-500 848.5,-500 848.5,-481 957.5,-481 957.5,-500"/>
<text text-anchor="middle" x="903" y="-488" font-family="Helvetica,sans-Serif" font-size="10.00">lexer_expand_tilde</text>
</a>
</g>
</g>
<!-- Node21&#45;&gt;Node120 -->
<g id="edge52" class="edge">
<title>Node21&#45;&gt;Node120</title>
<path fill="none" stroke="#63b8ff" d="M738.83,-278.04C765,-312.12 854.18,-428.24 888.44,-472.84"/>
<polygon fill="#63b8ff" stroke="#63b8ff" points="885.83,-475.2 894.7,-481 891.39,-470.93 885.83,-475.2"/>
</g>
<!-- Node123 -->
<g id="node41" class="node">
<title>Node123</title>
<g id="a_node41"><a xlink:href="lexer__expand__variable_8c.html#a01ad90eb8460a612626bb33c9e15cd52" target="_top" xlink:title=" ">
<polygon fill="white" stroke="#666666" points="966.5,-300 839.5,-300 839.5,-281 966.5,-281 966.5,-300"/>
<text text-anchor="middle" x="903" y="-288" font-family="Helvetica,sans-Serif" font-size="10.00">lexer_expand_variable</text>
</a>
</g>
</g>
<!-- Node21&#45;&gt;Node123 -->
<g id="edge58" class="edge">
<title>Node21&#45;&gt;Node123</title>
<path fill="none" stroke="#63b8ff" d="M791.61,-276.26C803.79,-277.83 816.72,-279.5 829.28,-281.12"/>
<polygon fill="#63b8ff" stroke="#63b8ff" points="828.89,-284.6 839.26,-282.4 829.79,-277.65 828.89,-284.6"/>
</g>
<!-- Node24 -->
<g id="node24" class="node">
<title>Node24</title>
<g id="a_node24"><a xlink:href="lexer__utils_8c.html#abf1c1b3b6033c8f9c8d1b11cc9e14f75" target="_top" xlink:title=" ">
<polygon fill="white" stroke="#666666" points="1328,-208 1228,-208 1228,-189 1328,-189 1328,-208"/>
<text text-anchor="middle" x="1278" y="-196" font-family="Helvetica,sans-Serif" font-size="10.00">lexer_append_str</text>
</a>
</g>
</g>
<!-- Node23&#45;&gt;Node24 -->
<g id="edge34" class="edge">
<title>Node23&#45;&gt;Node24</title>
<path fill="none" stroke="#63b8ff" d="M1155.18,-198.5C1175.67,-198.5 1197.88,-198.5 1217.66,-198.5"/>
<polygon fill="#63b8ff" stroke="#63b8ff" points="1217.76,-202 1227.76,-198.5 1217.76,-195 1217.76,-202"/>
</g>
<!-- Node25 -->
<g id="node25" class="node">
<title>Node25</title>
<g id="a_node25"><a xlink:href="strings_8h.html#a5e1589f073ac32d227dbc6020c376dab" target="_top" xlink:title=" ">
<polygon fill="white" stroke="#666666" points="1663,-150 1562,-150 1562,-131 1663,-131 1663,-150"/>
<text text-anchor="middle" x="1612.5" y="-138" font-family="Helvetica,sans-Serif" font-size="10.00">append_to_buffer</text>
</a>
</g>
</g>
<!-- Node24&#45;&gt;Node25 -->
<g id="edge35" class="edge">
<title>Node24&#45;&gt;Node25</title>
<path fill="none" stroke="#63b8ff" d="M1328.06,-189.94C1387.65,-179.55 1488.1,-162.03 1552.03,-150.87"/>
<polygon fill="#63b8ff" stroke="#63b8ff" points="1552.72,-154.31 1561.97,-149.14 1551.51,-147.41 1552.72,-154.31"/>
</g>
<!-- Node26 -->
<g id="node26" class="node">
<title>Node26</title>
<g id="a_node26"><a xlink:href="lexer__utils_8c.html#a84e8d5514cfe03a20152ad26f170211f" target="_top" xlink:title=" ">
<polygon fill="white" stroke="#666666" points="1522,-208 1404,-208 1404,-189 1522,-189 1522,-208"/>
<text text-anchor="middle" x="1463" y="-196" font-family="Helvetica,sans-Serif" font-size="10.00">lexer_set_alloc_error</text>
</a>
</g>
</g>
<!-- Node24&#45;&gt;Node26 -->
<g id="edge36" class="edge">
<title>Node24&#45;&gt;Node26</title>
<path fill="none" stroke="#63b8ff" d="M1328.04,-198.5C1348.15,-198.5 1371.77,-198.5 1393.53,-198.5"/>
<polygon fill="#63b8ff" stroke="#63b8ff" points="1393.71,-202 1403.71,-198.5 1393.71,-195 1393.71,-202"/>
</g>
<!-- Node27&#45;&gt;Node24 -->
<g id="edge38" class="edge">
<title>Node27&#45;&gt;Node24</title>
<path fill="none" stroke="#63b8ff" d="M961.69,-181.62C978.26,-181.16 996.34,-180.73 1013,-180.5 1076.55,-179.63 1092.62,-175.81 1156,-180.5 1176.2,-181.99 1198.14,-184.87 1217.73,-187.9"/>
<polygon fill="#63b8ff" stroke="#63b8ff" points="1217.31,-191.38 1227.73,-189.49 1218.41,-184.46 1217.31,-191.38"/>
</g>
<!-- Node28&#45;&gt;Node24 -->
<g id="edge40" class="edge">
<title>Node28&#45;&gt;Node24</title>
<path fill="none" stroke="#63b8ff" d="M942.37,-94.09C953.57,-96.99 965.8,-100.27 977,-103.5 1071.83,-130.84 1182.22,-166.9 1238.98,-185.76"/>
<polygon fill="#63b8ff" stroke="#63b8ff" points="1238.02,-189.13 1248.61,-188.97 1240.23,-182.49 1238.02,-189.13"/>
</g>
<!-- Node29&#45;&gt;Node26 -->
<g id="edge51" class="edge">
<title>Node29&#45;&gt;Node26</title>
<path fill="none" stroke="#63b8ff" d="M971.22,-133.82C1060.99,-142.59 1224.86,-159.73 1364,-180.5 1376.95,-182.43 1390.81,-184.8 1403.91,-187.17"/>
<polygon fill="#63b8ff" stroke="#63b8ff" points="1403.29,-190.61 1413.76,-188.98 1404.55,-183.73 1403.29,-190.61"/>
</g>
<!-- Node30 -->
<g id="node30" class="node">
<title>Node30</title>
<g id="a_node30"><a xlink:href="lexer__expand__command__substitution_8c.html#ad31353a5e4ff94d4ffc515367ef29625" target="_top" xlink:title=" ">
<polygon fill="white" stroke="#666666" points="1156,-56 1013,-56 1013,-37 1156,-37 1156,-56"/>
<text text-anchor="middle" x="1084.5" y="-44" font-family="Helvetica,sans-Serif" font-size="10.00">append_command_output</text>
</a>
</g>
</g>
<!-- Node29&#45;&gt;Node30 -->
<g id="edge42" class="edge">
<title>Node29&#45;&gt;Node30</title>
<path fill="none" stroke="#63b8ff" d="M951.53,-112.41C960.1,-109.36 968.88,-106 977,-102.5 1005.74,-90.11 1037.32,-73.04 1058.57,-61.01"/>
<polygon fill="#63b8ff" stroke="#63b8ff" points="1060.34,-64.04 1067.28,-56.04 1056.86,-57.96 1060.34,-64.04"/>
</g>
<!-- Node30&#45;&gt;Node24 -->
<g id="edge49" class="edge">
<title>Node30&#45;&gt;Node24</title>
<path fill="none" stroke="#63b8ff" d="M1124.73,-56.12C1135.36,-59.7 1146.53,-64.42 1156,-70.5 1180.58,-86.28 1235.86,-149.79 1262.33,-181.01"/>
<polygon fill="#63b8ff" stroke="#63b8ff" points="1259.86,-183.5 1268.98,-188.89 1265.21,-178.99 1259.86,-183.5"/>
</g>
<!-- Node30&#45;&gt;Node26 -->
<g id="edge50" class="edge">
<title>Node30&#45;&gt;Node26</title>
<path fill="none" stroke="#63b8ff" d="M1134.71,-56.01C1209.13,-70.62 1343.83,-97.97 1364,-108.5 1368.71,-110.96 1417.26,-156.36 1444.21,-181.72"/>
<polygon fill="#63b8ff" stroke="#63b8ff" points="1442.13,-184.56 1451.81,-188.87 1446.93,-179.47 1442.13,-184.56"/>
</g>
<!-- Node31 -->
<g id="node31" class="node">
<title>Node31</title>
<g id="a_node31"><a xlink:href="execute__command__substitution_8c.html#a44d633c45c6a1c7a82b2fc4f1f3a1b85" target="_top" xlink:title=" ">
<polygon fill="#fff0f0" stroke="red" points="1364,-56 1192,-56 1192,-37 1364,-37 1364,-56"/>
<text text-anchor="middle" x="1278" y="-44" font-family="Helvetica,sans-Serif" font-size="10.00">execute_command_substitution</text>
</a>
</g>
</g>
<!-- Node30&#45;&gt;Node31 -->
<g id="edge43" class="edge">
<title>Node30&#45;&gt;Node31</title>
<path fill="none" stroke="#63b8ff" d="M1156.26,-46.5C1164.61,-46.5 1173.23,-46.5 1181.84,-46.5"/>
<polygon fill="#63b8ff" stroke="#63b8ff" points="1181.93,-50 1191.93,-46.5 1181.93,-43 1181.93,-50"/>
</g>
<!-- Node32 -->
<g id="node32" class="node">
<title>Node32</title>
<g id="a_node32"><a xlink:href="execute__command__substitution_8c.html#a075d95090572b6eefee6062c788e021f" target="_top" xlink:title=" ">
<polygon fill="white" stroke="#666666" points="1514.5,-56 1411.5,-56 1411.5,-37 1514.5,-37 1514.5,-56"/>
<text text-anchor="middle" x="1463" y="-44" font-family="Helvetica,sans-Serif" font-size="10.00">handle_fork_error</text>
</a>
</g>
</g>
<!-- Node31&#45;&gt;Node32 -->
<g id="edge44" class="edge">
<title>Node31&#45;&gt;Node32</title>
<path fill="none" stroke="#63b8ff" d="M1364.07,-46.5C1376.56,-46.5 1389.21,-46.5 1401.08,-46.5"/>
<polygon fill="#63b8ff" stroke="#63b8ff" points="1401.29,-50 1411.29,-46.5 1401.29,-43 1401.29,-50"/>
</g>
<!-- Node33 -->
<g id="node33" class="node">
<title>Node33</title>
<g id="a_node33"><a xlink:href="execute__command__substitution_8c.html#af0e085937d4d6fbc3feb274895606e50" target="_top" xlink:title=" ">
<polygon fill="white" stroke="#666666" points="1515,-19 1411,-19 1411,0 1515,0 1515,-19"/>
<text text-anchor="middle" x="1463" y="-7" font-family="Helvetica,sans-Serif" font-size="10.00">handle_pipe_error</text>
</a>
</g>
</g>
<!-- Node31&#45;&gt;Node33 -->
<g id="edge45" class="edge">
<title>Node31&#45;&gt;Node33</title>
<path fill="none" stroke="#63b8ff" d="M1326.13,-36.97C1350.15,-32.11 1379.57,-26.17 1404.88,-21.05"/>
<polygon fill="#63b8ff" stroke="#63b8ff" points="1405.61,-24.47 1414.71,-19.06 1404.22,-17.61 1405.61,-24.47"/>
</g>
<!-- Node34 -->
<g id="node34" class="node">
<title>Node34</title>
<g id="a_node34"><a xlink:href="execute__command__substitution_8c.html#aebaa8b3d8f96bd07e2efb13393b1fa13" target="_top" xlink:title=" ">
<polygon fill="white" stroke="#666666" points="1513.5,-131 1412.5,-131 1412.5,-112 1513.5,-112 1513.5,-131"/>
<text text-anchor="middle" x="1463" y="-119" font-family="Helvetica,sans-Serif" font-size="10.00">read_pipe_output</text>
</a>
</g>
</g>
<!-- Node31&#45;&gt;Node34 -->
<g id="edge46" class="edge">
<title>Node31&#45;&gt;Node34</title>
<path fill="none" stroke="#63b8ff" d="M1326.74,-56.06C1339.29,-59.61 1352.52,-64.33 1364,-70.5 1382.6,-80.49 1381.59,-91.17 1400,-101.5 1404.57,-104.06 1409.51,-106.35 1414.55,-108.39"/>
<polygon fill="#63b8ff" stroke="#63b8ff" points="1413.67,-111.8 1424.27,-111.98 1416.1,-105.23 1413.67,-111.8"/>
</g>
<!-- Node35 -->
<g id="node35" class="node">
<title>Node35</title>
<g id="a_node35"><a xlink:href="execute__command__substitution_8c.html#a49d3b6ea9dfddcfae1e4193b46064722" target="_top" xlink:title=" ">
<polygon fill="white" stroke="#666666" points="1526,-93 1400,-93 1400,-74 1526,-74 1526,-93"/>
<text text-anchor="middle" x="1463" y="-81" font-family="Helvetica,sans-Serif" font-size="10.00">remove_end_newlines</text>
</a>
</g>
</g>
<!-- Node31&#45;&gt;Node35 -->
<g id="edge48" class="edge">
<title>Node31&#45;&gt;Node35</title>
<path fill="none" stroke="#63b8ff" d="M1326.13,-56.03C1350.15,-60.89 1379.57,-66.83 1404.88,-71.95"/>
<polygon fill="#63b8ff" stroke="#63b8ff" points="1404.22,-75.39 1414.71,-73.94 1405.61,-68.53 1404.22,-75.39"/>
</g>
<!-- Node34&#45;&gt;Node25 -->
<g id="edge47" class="edge">
<title>Node34&#45;&gt;Node25</title>
<path fill="none" stroke="#63b8ff" d="M1513.53,-127.88C1525.81,-129.46 1539.1,-131.17 1551.81,-132.81"/>
<polygon fill="#63b8ff" stroke="#63b8ff" points="1551.49,-136.3 1561.85,-134.1 1552.38,-129.36 1551.49,-136.3"/>
</g>
<!-- Node120&#45;&gt;Node24 -->
<g id="edge55" class="edge">
<title>Node120&#45;&gt;Node24</title>
<path fill="none" stroke="#63b8ff" d="M957.6,-488.46C1022.21,-484.99 1125.89,-475.86 1156,-452.5 1188.41,-427.35 1174.77,-404.73 1192,-367.5 1217.52,-312.33 1250.57,-248.6 1266.92,-217.52"/>
<polygon fill="#63b8ff" stroke="#63b8ff" points="1270.22,-218.77 1271.79,-208.3 1264.03,-215.51 1270.22,-218.77"/>
</g>
<!-- Node51 -->
<g id="node37" class="node">
<title>Node51</title>
<g id="a_node37"><a xlink:href="get__variable__value_8c.html#a2edd9900f19af236aa05385a789be3d6" target="_top" xlink:title=" ">
<polygon fill="white" stroke="#666666" points="1333,-478 1223,-478 1223,-459 1333,-459 1333,-478"/>
<text text-anchor="middle" x="1278" y="-466" font-family="Helvetica,sans-Serif" font-size="10.00">get_variable_value</text>
</a>
</g>
</g>
<!-- Node120&#45;&gt;Node51 -->
<g id="edge53" class="edge">
<title>Node120&#45;&gt;Node51</title>
<path fill="none" stroke="#63b8ff" d="M957.68,-491.29C1008.76,-491.61 1087.74,-490.95 1156,-485.5 1174.56,-484.02 1194.61,-481.55 1212.95,-478.96"/>
<polygon fill="#63b8ff" stroke="#63b8ff" points="1213.55,-482.41 1222.94,-477.5 1212.54,-475.48 1213.55,-482.41"/>
</g>
<!-- Node121 -->
<g id="node39" class="node">
<title>Node121</title>
<g id="a_node39"><a xlink:href="lexer__expand__tilde_8c.html#aa4231a41b1e79447d6a70db7b075f937" target="_top" xlink:title=" ">
<polygon fill="white" stroke="#666666" points="1143,-557 1026,-557 1026,-538 1143,-538 1143,-557"/>
<text text-anchor="middle" x="1084.5" y="-545" font-family="Helvetica,sans-Serif" font-size="10.00">should_expand_tilde</text>
</a>
</g>
</g>
<!-- Node120&#45;&gt;Node121 -->
<g id="edge56" class="edge">
<title>Node120&#45;&gt;Node121</title>
<path fill="none" stroke="#63b8ff" d="M934.04,-500.04C964.07,-509.58 1010.42,-524.29 1043.54,-534.81"/>
<polygon fill="#63b8ff" stroke="#63b8ff" points="1042.77,-538.24 1053.36,-537.93 1044.89,-531.57 1042.77,-538.24"/>
</g>
<!-- Node52 -->
<g id="node38" class="node">
<title>Node52</title>
<g id="a_node38"><a xlink:href="get__variable_8c.html#a569170390f0edf013bf89c26ef55ea8c" target="_top" xlink:title=" ">
<polygon fill="white" stroke="#666666" points="1501.5,-478 1424.5,-478 1424.5,-459 1501.5,-459 1501.5,-478"/>
<text text-anchor="middle" x="1463" y="-466" font-family="Helvetica,sans-Serif" font-size="10.00">get_variable</text>
</a>
</g>
</g>
<!-- Node51&#45;&gt;Node52 -->
<g id="edge54" class="edge">
<title>Node51&#45;&gt;Node52</title>
<path fill="none" stroke="#63b8ff" d="M1333.41,-468.5C1359.04,-468.5 1389.34,-468.5 1414.09,-468.5"/>
<polygon fill="#63b8ff" stroke="#63b8ff" points="1414.33,-472 1424.33,-468.5 1414.33,-465 1414.33,-472"/>
</g>
<!-- Node121&#45;&gt;Node122 -->
<g id="edge57" class="edge">
<title>Node121&#45;&gt;Node122</title>
<path fill="none" stroke="#63b8ff" d="M1143.22,-553.23C1161.14,-555 1181.19,-556.99 1200.19,-558.88"/>
<polygon fill="#63b8ff" stroke="#63b8ff" points="1200.03,-562.38 1210.33,-559.88 1200.72,-555.41 1200.03,-562.38"/>
</g>
<!-- Node123&#45;&gt;Node26 -->
<g id="edge70" class="edge">
<title>Node123&#45;&gt;Node26</title>
<path fill="none" stroke="#63b8ff" d="M947.37,-300.03C957.25,-302.68 967.6,-305.85 977,-309.5 993.87,-316.04 995.44,-324.15 1013,-328.5 1074.69,-343.78 1093.07,-337.4 1156,-328.5 1251.27,-315.03 1277.39,-310.4 1364,-268.5 1394.03,-253.97 1424.7,-230.36 1443.54,-214.63"/>
<polygon fill="#63b8ff" stroke="#63b8ff" points="1445.97,-217.16 1451.32,-208.02 1441.44,-211.83 1445.97,-217.16"/>
</g>
<!-- Node124 -->
<g id="node42" class="node">
<title>Node124</title>
<g id="a_node42"><a xlink:href="lexer__expand__variable_8c.html#abe77b7e35b276965b72648d12abae283" target="_top" xlink:title=" ">
<polygon fill="white" stroke="#666666" points="1127.5,-282 1041.5,-282 1041.5,-263 1127.5,-263 1127.5,-282"/>
<text text-anchor="middle" x="1084.5" y="-270" font-family="Helvetica,sans-Serif" font-size="10.00">append_dollar</text>
</a>
</g>
</g>
<!-- Node123&#45;&gt;Node124 -->
<g id="edge59" class="edge">
<title>Node123&#45;&gt;Node124</title>
<path fill="none" stroke="#63b8ff" d="M966.53,-284.23C987.73,-282.1 1011.18,-279.75 1031.48,-277.72"/>
<polygon fill="#63b8ff" stroke="#63b8ff" points="1031.87,-281.2 1041.47,-276.71 1031.17,-274.23 1031.87,-281.2"/>
</g>
<!-- Node125 -->
<g id="node43" class="node">
<title>Node125</title>
<g id="a_node43"><a xlink:href="lexer__expand__variable_8c.html#ab47d31838e3255a1321d85e937919d4e" target="_top" xlink:title=" ">
<polygon fill="white" stroke="#666666" points="1140,-319 1029,-319 1029,-300 1140,-300 1140,-319"/>
<text text-anchor="middle" x="1084.5" y="-307" font-family="Helvetica,sans-Serif" font-size="10.00">append_last_status</text>
</a>
</g>
</g>
<!-- Node123&#45;&gt;Node125 -->
<g id="edge61" class="edge">
<title>Node123&#45;&gt;Node125</title>
<path fill="none" stroke="#63b8ff" d="M966.53,-297.12C983.37,-298.9 1001.62,-300.83 1018.59,-302.63"/>
<polygon fill="#63b8ff" stroke="#63b8ff" points="1018.65,-306.16 1028.97,-303.73 1019.39,-299.19 1018.65,-306.16"/>
</g>
<!-- Node126 -->
<g id="node44" class="node">
<title>Node126</title>
<g id="a_node44"><a xlink:href="lexer__expand__variable_8c.html#a9954e7e26e9570a3c41eed4e16bf6791" target="_top" xlink:title=" ">
<polygon fill="white" stroke="#666666" points="1149.5,-245 1019.5,-245 1019.5,-226 1149.5,-226 1149.5,-245"/>
<text text-anchor="middle" x="1084.5" y="-233" font-family="Helvetica,sans-Serif" font-size="10.00">append_variable_value</text>
</a>
</g>
</g>
<!-- Node123&#45;&gt;Node126 -->
<g id="edge64" class="edge">
<title>Node123&#45;&gt;Node126</title>
<path fill="none" stroke="#63b8ff" d="M931.64,-280.9C953.59,-273.39 985.13,-262.85 1013,-254.5 1020.6,-252.22 1028.7,-249.92 1036.59,-247.75"/>
<polygon fill="#63b8ff" stroke="#63b8ff" points="1037.7,-251.07 1046.44,-245.07 1035.87,-244.32 1037.7,-251.07"/>
</g>
<!-- Node127 -->
<g id="node45" class="node">
<title>Node127</title>
<g id="a_node45"><a xlink:href="lexer__expand__variable_8c.html#a1d07a8c171e69a5c58a385a75520e6c0" target="_top" xlink:title=" ">
<polygon fill="white" stroke="#666666" points="1142.5,-443.5 1026.5,-443.5 1026.5,-413.5 1142.5,-413.5 1142.5,-443.5"/>
<text text-anchor="start" x="1034.5" y="-431.5" font-family="Helvetica,sans-Serif" font-size="10.00">get_correct_variable</text>
<text text-anchor="middle" x="1084.5" y="-420.5" font-family="Helvetica,sans-Serif" font-size="10.00">_value</text>
</a>
</g>
</g>
<!-- Node123&#45;&gt;Node127 -->
<g id="edge66" class="edge">
<title>Node123&#45;&gt;Node127</title>
<path fill="none" stroke="#63b8ff" d="M962.45,-300.09C967.74,-302.56 972.71,-305.65 977,-309.5 1010.6,-339.66 980.53,-373.12 1013,-404.5 1014.46,-405.92 1016.02,-407.25 1017.64,-408.5"/>
<polygon fill="#63b8ff" stroke="#63b8ff" points="1015.97,-411.59 1026.26,-414.14 1019.8,-405.73 1015.97,-411.59"/>
</g>
<!-- Node128 -->
<g id="node46" class="node">
<title>Node128</title>
<g id="a_node46"><a xlink:href="lexer__expand__variable_8c.html#a3674c7faac945bf9ec05a9dc00c08896" target="_top" xlink:title=" ">
<polygon fill="white" stroke="#666666" points="1150,-395 1019,-395 1019,-376 1150,-376 1150,-395"/>
<text text-anchor="middle" x="1084.5" y="-383" font-family="Helvetica,sans-Serif" font-size="10.00">get_variable_name_len</text>
</a>
</g>
</g>
<!-- Node123&#45;&gt;Node128 -->
<g id="edge68" class="edge">
<title>Node123&#45;&gt;Node128</title>
<path fill="none" stroke="#63b8ff" d="M958.55,-300.04C965.09,-302.5 971.42,-305.6 977,-309.5 1000.04,-325.6 990.57,-344.56 1013,-361.5 1018.55,-365.69 1024.87,-369.17 1031.4,-372.07"/>
<polygon fill="#63b8ff" stroke="#63b8ff" points="1030.47,-375.47 1041.06,-375.9 1033.05,-368.96 1030.47,-375.47"/>
</g>
<!-- Node124&#45;&gt;Node24 -->
<g id="edge60" class="edge">
<title>Node124&#45;&gt;Node24</title>
<path fill="none" stroke="#63b8ff" d="M1127.63,-263.09C1137.07,-260.61 1146.95,-257.72 1156,-254.5 1189.31,-242.65 1225.94,-225.01 1250.07,-212.7"/>
<polygon fill="#63b8ff" stroke="#63b8ff" points="1251.7,-215.8 1258.99,-208.11 1248.5,-209.58 1251.7,-215.8"/>
</g>
<!-- Node125&#45;&gt;Node24 -->
<g id="edge62" class="edge">
<title>Node125&#45;&gt;Node24</title>
<path fill="none" stroke="#63b8ff" d="M1135.54,-299.9C1142.62,-297.64 1149.64,-294.88 1156,-291.5 1174.91,-281.46 1175.28,-272.87 1192,-259.5 1212.42,-243.17 1236.74,-225.93 1254.13,-213.95"/>
<polygon fill="#63b8ff" stroke="#63b8ff" points="1256.25,-216.74 1262.53,-208.2 1252.3,-210.96 1256.25,-216.74"/>
</g>
<!-- Node125&#45;&gt;Node26 -->
<g id="edge63" class="edge">
<title>Node125&#45;&gt;Node26</title>
<path fill="none" stroke="#63b8ff" d="M1124.37,-299.91C1134.68,-297.28 1145.78,-294.36 1156,-291.5 1252.1,-264.64 1364.07,-229.66 1422.27,-211.2"/>
<polygon fill="#63b8ff" stroke="#63b8ff" points="1423.69,-214.42 1432.16,-208.06 1421.57,-207.75 1423.69,-214.42"/>
</g>
<!-- Node126&#45;&gt;Node24 -->
<g id="edge65" class="edge">
<title>Node126&#45;&gt;Node24</title>
<path fill="none" stroke="#63b8ff" d="M1134.82,-225.97C1160.17,-221.07 1191.25,-215.07 1217.88,-209.92"/>
<polygon fill="#63b8ff" stroke="#63b8ff" points="1218.7,-213.33 1227.85,-208 1217.37,-206.46 1218.7,-213.33"/>
</g>
<!-- Node127&#45;&gt;Node51 -->
<g id="edge67" class="edge">
<title>Node127&#45;&gt;Node51</title>
<path fill="none" stroke="#63b8ff" d="M1142.7,-440.45C1167.59,-445.65 1196.66,-451.72 1221.37,-456.88"/>
<polygon fill="#63b8ff" stroke="#63b8ff" points="1220.82,-460.34 1231.32,-458.96 1222.25,-453.49 1220.82,-460.34"/>
</g>
<!-- Node129 -->
<g id="node47" class="node">
<title>Node129</title>
<g id="a_node47"><a xlink:href="lexer__expand__variable_8c.html#a5067193ac632b7565fd8b9ad405a525f" target="_top" xlink:title=" ">
<polygon fill="#fff0f0" stroke="red" points="1340.5,-395 1215.5,-395 1215.5,-376 1340.5,-376 1340.5,-395"/>
<text text-anchor="middle" x="1278" y="-383" font-family="Helvetica,sans-Serif" font-size="10.00">is_valid_variable_char</text>
</a>
</g>
</g>
<!-- Node128&#45;&gt;Node129 -->
<g id="edge69" class="edge">
<title>Node128&#45;&gt;Node129</title>
<path fill="none" stroke="#63b8ff" d="M1150.07,-385.5C1167.76,-385.5 1187.04,-385.5 1205.12,-385.5"/>
<polygon fill="#63b8ff" stroke="#63b8ff" points="1205.31,-389 1215.31,-385.5 1205.31,-382 1205.31,-389"/>
</g>
</g>
</svg>
