<?xml version="1.0" encoding="UTF-8" standalone="no"?>
<!DOCTYPE svg PUBLIC "-//W3C//DTD SVG 1.1//EN"
 "http://www.w3.org/Graphics/SVG/1.1/DTD/svg11.dtd">
<!-- Generated by graphviz version 2.43.0 (0)
 -->
<!-- Title: src/parser/parser_set_error.c Pages: 1 -->
<svg width="316pt" height="313pt"
 viewBox="0.00 0.00 316.00 313.00" xmlns="http://www.w3.org/2000/svg" xmlns:xlink="http://www.w3.org/1999/xlink">
<g id="graph0" class="graph" transform="scale(1 1) rotate(0) translate(4 309)">
<title>src/parser/parser_set_error.c</title>
<!-- Node1 -->
<g id="node1" class="node">
<title>Node1</title>
<g id="a_node1"><a xlink:title=" ">
<polygon fill="#999999" stroke="#666666" points="217,-305 98,-305 98,-275 217,-275 217,-305"/>
<text text-anchor="start" x="106" y="-293" font-family="Helvetica,sans-Serif" font-size="10.00">src/parser/parser_set</text>
<text text-anchor="middle" x="157.5" y="-282" font-family="Helvetica,sans-Serif" font-size="10.00">_error.c</text>
</a>
</g>
</g>
<!-- Node2 -->
<g id="node2" class="node">
<title>Node2</title>
<g id="a_node2"><a xlink:href="parser_8h.html" target="_top" xlink:title=" ">
<polygon fill="white" stroke="#666666" points="185.5,-239 129.5,-239 129.5,-220 185.5,-220 185.5,-239"/>
<text text-anchor="middle" x="157.5" y="-227" font-family="Helvetica,sans-Serif" font-size="10.00">parser.h</text>
</a>
</g>
</g>
<!-- Node1&#45;&gt;Node2 -->
<g id="edge1" class="edge">
<title>Node1&#45;&gt;Node2</title>
<path fill="none" stroke="#63b8ff" d="M157.5,-274.84C157.5,-267.21 157.5,-257.7 157.5,-249.45"/>
<polygon fill="#63b8ff" stroke="#63b8ff" points="161,-249.27 157.5,-239.27 154,-249.27 161,-249.27"/>
</g>
<!-- Node3 -->
<g id="node3" class="node">
<title>Node3</title>
<g id="a_node3"><a xlink:href="ast_8h.html" target="_top" xlink:title=" ">
<polygon fill="white" stroke="#666666" points="41,-74 0,-74 0,-55 41,-55 41,-74"/>
<text text-anchor="middle" x="20.5" y="-62" font-family="Helvetica,sans-Serif" font-size="10.00">ast.h</text>
</a>
</g>
</g>
<!-- Node2&#45;&gt;Node3 -->
<g id="edge2" class="edge">
<title>Node2&#45;&gt;Node3</title>
<path fill="none" stroke="#63b8ff" d="M150.13,-219.74C128.21,-193.65 63.09,-116.17 34.37,-82"/>
<polygon fill="#63b8ff" stroke="#63b8ff" points="37.02,-79.71 27.9,-74.31 31.66,-84.21 37.02,-79.71"/>
</g>
<!-- Node5 -->
<g id="node5" class="node">
<title>Node5</title>
<g id="a_node5"><a xlink:href="lexer_8h.html" target="_top" xlink:title=" ">
<polygon fill="white" stroke="#666666" points="182,-184 133,-184 133,-165 182,-165 182,-184"/>
<text text-anchor="middle" x="157.5" y="-172" font-family="Helvetica,sans-Serif" font-size="10.00">lexer.h</text>
</a>
</g>
</g>
<!-- Node2&#45;&gt;Node5 -->
<g id="edge4" class="edge">
<title>Node2&#45;&gt;Node5</title>
<path fill="none" stroke="#63b8ff" d="M157.5,-219.75C157.5,-212.8 157.5,-202.85 157.5,-194.13"/>
<polygon fill="#63b8ff" stroke="#63b8ff" points="161,-194.09 157.5,-184.09 154,-194.09 161,-194.09"/>
</g>
<!-- Node9 -->
<g id="node9" class="node">
<title>Node9</title>
<g id="a_node9"><a xlink:href="token_8h.html" target="_top" xlink:title=" ">
<polygon fill="white" stroke="#666666" points="308,-129 255,-129 255,-110 308,-110 308,-129"/>
<text text-anchor="middle" x="281.5" y="-117" font-family="Helvetica,sans-Serif" font-size="10.00">token.h</text>
</a>
</g>
</g>
<!-- Node2&#45;&gt;Node9 -->
<g id="edge11" class="edge">
<title>Node2&#45;&gt;Node9</title>
<path fill="none" stroke="#63b8ff" d="M167.65,-219.66C188.73,-201.3 237.51,-158.81 263.86,-135.87"/>
<polygon fill="#63b8ff" stroke="#63b8ff" points="266.32,-138.37 271.56,-129.16 261.72,-133.09 266.32,-138.37"/>
</g>
<!-- Node4 -->
<g id="node4" class="node">
<title>Node4</title>
<g id="a_node4"><a xlink:title=" ">
<polygon fill="#e0e0e0" stroke="#999999" points="97.5,-19 41.5,-19 41.5,0 97.5,0 97.5,-19"/>
<text text-anchor="middle" x="69.5" y="-7" font-family="Helvetica,sans-Serif" font-size="10.00">stddef.h</text>
</a>
</g>
</g>
<!-- Node3&#45;&gt;Node4 -->
<g id="edge3" class="edge">
<title>Node3&#45;&gt;Node4</title>
<path fill="none" stroke="#63b8ff" d="M28.59,-54.75C35.66,-47.11 46.09,-35.82 54.65,-26.56"/>
<polygon fill="#63b8ff" stroke="#63b8ff" points="57.34,-28.81 61.56,-19.09 52.2,-24.06 57.34,-28.81"/>
</g>
<!-- Node5&#45;&gt;Node4 -->
<g id="edge5" class="edge">
<title>Node5&#45;&gt;Node4</title>
<path fill="none" stroke="#63b8ff" d="M135.22,-164.97C119.59,-157.79 99.57,-145.95 88.5,-129 68.54,-98.43 67,-54.18 68.02,-29.31"/>
<polygon fill="#63b8ff" stroke="#63b8ff" points="71.53,-29.27 68.63,-19.08 64.54,-28.85 71.53,-29.27"/>
</g>
<!-- Node6 -->
<g id="node6" class="node">
<title>Node6</title>
<g id="a_node6"><a xlink:title=" ">
<polygon fill="#e0e0e0" stroke="#999999" points="169.5,-129 97.5,-129 97.5,-110 169.5,-110 169.5,-129"/>
<text text-anchor="middle" x="133.5" y="-117" font-family="Helvetica,sans-Serif" font-size="10.00">sys/types.h</text>
</a>
</g>
</g>
<!-- Node5&#45;&gt;Node6 -->
<g id="edge6" class="edge">
<title>Node5&#45;&gt;Node6</title>
<path fill="none" stroke="#63b8ff" d="M153.54,-164.75C150.29,-157.57 145.58,-147.18 141.55,-138.27"/>
<polygon fill="#63b8ff" stroke="#63b8ff" points="144.7,-136.75 137.39,-129.09 138.33,-139.64 144.7,-136.75"/>
</g>
<!-- Node7 -->
<g id="node7" class="node">
<title>Node7</title>
<g id="a_node7"><a xlink:href="shell_8h.html" target="_top" xlink:title=" ">
<polygon fill="white" stroke="#666666" points="237,-129 188,-129 188,-110 237,-110 237,-129"/>
<text text-anchor="middle" x="212.5" y="-117" font-family="Helvetica,sans-Serif" font-size="10.00">shell.h</text>
</a>
</g>
</g>
<!-- Node5&#45;&gt;Node7 -->
<g id="edge7" class="edge">
<title>Node5&#45;&gt;Node7</title>
<path fill="none" stroke="#63b8ff" d="M166.58,-164.75C174.59,-157.03 186.46,-145.6 196.12,-136.28"/>
<polygon fill="#63b8ff" stroke="#63b8ff" points="198.81,-138.55 203.59,-129.09 193.96,-133.51 198.81,-138.55"/>
</g>
<!-- Node5&#45;&gt;Node9 -->
<g id="edge10" class="edge">
<title>Node5&#45;&gt;Node9</title>
<path fill="none" stroke="#63b8ff" d="M177.42,-164.98C197.55,-156.38 228.88,-142.99 251.91,-133.15"/>
<polygon fill="#63b8ff" stroke="#63b8ff" points="253.4,-136.32 261.21,-129.17 250.64,-129.88 253.4,-136.32"/>
</g>
<!-- Node8 -->
<g id="node8" class="node">
<title>Node8</title>
<g id="a_node8"><a xlink:href="list_8h.html" target="_top" xlink:title=" ">
<polygon fill="white" stroke="#666666" points="199,-74 140,-74 140,-55 199,-55 199,-74"/>
<text text-anchor="middle" x="169.5" y="-62" font-family="Helvetica,sans-Serif" font-size="10.00">my/list.h</text>
</a>
</g>
</g>
<!-- Node7&#45;&gt;Node8 -->
<g id="edge8" class="edge">
<title>Node7&#45;&gt;Node8</title>
<path fill="none" stroke="#63b8ff" d="M205.4,-109.75C199.33,-102.26 190.41,-91.28 182.99,-82.13"/>
<polygon fill="#63b8ff" stroke="#63b8ff" points="185.49,-79.65 176.47,-74.09 180.05,-84.06 185.49,-79.65"/>
</g>
<!-- Node8&#45;&gt;Node4 -->
<g id="edge9" class="edge">
<title>Node8&#45;&gt;Node4</title>
<path fill="none" stroke="#63b8ff" d="M153.43,-54.98C137.64,-46.61 113.28,-33.7 94.87,-23.95"/>
<polygon fill="#63b8ff" stroke="#63b8ff" points="96.33,-20.76 85.86,-19.17 93.06,-26.95 96.33,-20.76"/>
</g>
</g>
</svg>
