<?xml version="1.0" encoding="UTF-8" standalone="no"?>
<!DOCTYPE svg PUBLIC "-//W3C//DTD SVG 1.1//EN"
 "http://www.w3.org/Graphics/SVG/1.1/DTD/svg11.dtd">
<!-- Generated by graphviz version 2.43.0 (0)
 -->
<!-- Title: src/parser/parser_init.c Pages: 1 -->
<svg width="256pt" height="302pt"
 viewBox="0.00 0.00 256.31 302.00" xmlns="http://www.w3.org/2000/svg" xmlns:xlink="http://www.w3.org/1999/xlink">
<g id="graph0" class="graph" transform="scale(1 1) rotate(0) translate(4 298)">
<title>src/parser/parser_init.c</title>
<!-- Node1 -->
<g id="node1" class="node">
<title>Node1</title>
<g id="a_node1"><a xlink:title=" ">
<polygon fill="#999999" stroke="#666666" points="226.81,-294 98.81,-294 98.81,-275 226.81,-275 226.81,-294"/>
<text text-anchor="middle" x="162.81" y="-282" font-family="Helvetica,sans-Serif" font-size="10.00">src/parser/parser_init.c</text>
</a>
</g>
</g>
<!-- Node2 -->
<g id="node2" class="node">
<title>Node2</title>
<g id="a_node2"><a xlink:href="lexer_8h.html" target="_top" xlink:title=" ">
<polygon fill="white" stroke="#666666" points="158.31,-184 109.31,-184 109.31,-165 158.31,-165 158.31,-184"/>
<text text-anchor="middle" x="133.81" y="-172" font-family="Helvetica,sans-Serif" font-size="10.00">lexer.h</text>
</a>
</g>
</g>
<!-- Node1&#45;&gt;Node2 -->
<g id="edge1" class="edge">
<title>Node1&#45;&gt;Node2</title>
<path fill="none" stroke="#63b8ff" d="M160.44,-274.66C155.72,-257.09 145.07,-217.45 138.77,-193.95"/>
<polygon fill="#63b8ff" stroke="#63b8ff" points="142.11,-192.91 136.14,-184.16 135.35,-194.72 142.11,-192.91"/>
</g>
<!-- Node8 -->
<g id="node8" class="node">
<title>Node8</title>
<g id="a_node8"><a xlink:href="parser_8h.html" target="_top" xlink:title=" ">
<polygon fill="white" stroke="#666666" points="221.81,-239 165.81,-239 165.81,-220 221.81,-220 221.81,-239"/>
<text text-anchor="middle" x="193.81" y="-227" font-family="Helvetica,sans-Serif" font-size="10.00">parser.h</text>
</a>
</g>
</g>
<!-- Node1&#45;&gt;Node8 -->
<g id="edge8" class="edge">
<title>Node1&#45;&gt;Node8</title>
<path fill="none" stroke="#63b8ff" d="M167.93,-274.75C172.17,-267.49 178.34,-256.95 183.59,-247.98"/>
<polygon fill="#63b8ff" stroke="#63b8ff" points="186.76,-249.49 188.79,-239.09 180.72,-245.95 186.76,-249.49"/>
</g>
<!-- Node3 -->
<g id="node3" class="node">
<title>Node3</title>
<g id="a_node3"><a xlink:title=" ">
<polygon fill="#e0e0e0" stroke="#999999" points="159.81,-19 103.81,-19 103.81,0 159.81,0 159.81,-19"/>
<text text-anchor="middle" x="131.81" y="-7" font-family="Helvetica,sans-Serif" font-size="10.00">stddef.h</text>
</a>
</g>
</g>
<!-- Node2&#45;&gt;Node3 -->
<g id="edge2" class="edge">
<title>Node2&#45;&gt;Node3</title>
<path fill="none" stroke="#63b8ff" d="M109.2,-172.77C79.53,-170.41 30.79,-161.48 7.81,-129 -23.65,-84.52 53.22,-43.08 99.62,-23.06"/>
<polygon fill="#63b8ff" stroke="#63b8ff" points="101.15,-26.22 109.02,-19.12 98.44,-19.77 101.15,-26.22"/>
</g>
<!-- Node4 -->
<g id="node4" class="node">
<title>Node4</title>
<g id="a_node4"><a xlink:title=" ">
<polygon fill="#e0e0e0" stroke="#999999" points="88.81,-129 16.81,-129 16.81,-110 88.81,-110 88.81,-129"/>
<text text-anchor="middle" x="52.81" y="-117" font-family="Helvetica,sans-Serif" font-size="10.00">sys/types.h</text>
</a>
</g>
</g>
<!-- Node2&#45;&gt;Node4 -->
<g id="edge3" class="edge">
<title>Node2&#45;&gt;Node4</title>
<path fill="none" stroke="#63b8ff" d="M120.8,-164.98C108.35,-156.84 89.36,-144.41 74.6,-134.76"/>
<polygon fill="#63b8ff" stroke="#63b8ff" points="76.35,-131.72 66.06,-129.17 72.51,-137.57 76.35,-131.72"/>
</g>
<!-- Node5 -->
<g id="node5" class="node">
<title>Node5</title>
<g id="a_node5"><a xlink:href="shell_8h.html" target="_top" xlink:title=" ">
<polygon fill="white" stroke="#666666" points="156.31,-129 107.31,-129 107.31,-110 156.31,-110 156.31,-129"/>
<text text-anchor="middle" x="131.81" y="-117" font-family="Helvetica,sans-Serif" font-size="10.00">shell.h</text>
</a>
</g>
</g>
<!-- Node2&#45;&gt;Node5 -->
<g id="edge4" class="edge">
<title>Node2&#45;&gt;Node5</title>
<path fill="none" stroke="#63b8ff" d="M133.48,-164.75C133.22,-157.8 132.84,-147.85 132.51,-139.13"/>
<polygon fill="#63b8ff" stroke="#63b8ff" points="136.01,-138.95 132.14,-129.09 129.02,-139.21 136.01,-138.95"/>
</g>
<!-- Node7 -->
<g id="node7" class="node">
<title>Node7</title>
<g id="a_node7"><a xlink:href="token_8h.html" target="_top" xlink:title=" ">
<polygon fill="white" stroke="#666666" points="227.31,-129 174.31,-129 174.31,-110 227.31,-110 227.31,-129"/>
<text text-anchor="middle" x="200.81" y="-117" font-family="Helvetica,sans-Serif" font-size="10.00">token.h</text>
</a>
</g>
</g>
<!-- Node2&#45;&gt;Node7 -->
<g id="edge7" class="edge">
<title>Node2&#45;&gt;Node7</title>
<path fill="none" stroke="#63b8ff" d="M144.58,-164.98C154.58,-157.07 169.7,-145.11 181.74,-135.58"/>
<polygon fill="#63b8ff" stroke="#63b8ff" points="184.18,-138.12 189.85,-129.17 179.84,-132.63 184.18,-138.12"/>
</g>
<!-- Node6 -->
<g id="node6" class="node">
<title>Node6</title>
<g id="a_node6"><a xlink:href="list_8h.html" target="_top" xlink:title=" ">
<polygon fill="white" stroke="#666666" points="161.31,-74 102.31,-74 102.31,-55 161.31,-55 161.31,-74"/>
<text text-anchor="middle" x="131.81" y="-62" font-family="Helvetica,sans-Serif" font-size="10.00">my/list.h</text>
</a>
</g>
</g>
<!-- Node5&#45;&gt;Node6 -->
<g id="edge5" class="edge">
<title>Node5&#45;&gt;Node6</title>
<path fill="none" stroke="#63b8ff" d="M131.81,-109.75C131.81,-102.8 131.81,-92.85 131.81,-84.13"/>
<polygon fill="#63b8ff" stroke="#63b8ff" points="135.31,-84.09 131.81,-74.09 128.31,-84.09 135.31,-84.09"/>
</g>
<!-- Node6&#45;&gt;Node3 -->
<g id="edge6" class="edge">
<title>Node6&#45;&gt;Node3</title>
<path fill="none" stroke="#63b8ff" d="M131.81,-54.75C131.81,-47.8 131.81,-37.85 131.81,-29.13"/>
<polygon fill="#63b8ff" stroke="#63b8ff" points="135.31,-29.09 131.81,-19.09 128.31,-29.09 135.31,-29.09"/>
</g>
<!-- Node8&#45;&gt;Node2 -->
<g id="edge11" class="edge">
<title>Node8&#45;&gt;Node2</title>
<path fill="none" stroke="#63b8ff" d="M184.17,-219.98C175.3,-212.15 161.94,-200.34 151.2,-190.86"/>
<polygon fill="#63b8ff" stroke="#63b8ff" points="153.44,-188.17 143.63,-184.17 148.8,-193.41 153.44,-188.17"/>
</g>
<!-- Node8&#45;&gt;Node7 -->
<g id="edge12" class="edge">
<title>Node8&#45;&gt;Node7</title>
<path fill="none" stroke="#63b8ff" d="M194.38,-219.66C195.52,-202.17 198.07,-162.8 199.59,-139.27"/>
<polygon fill="#63b8ff" stroke="#63b8ff" points="203.1,-139.36 200.25,-129.16 196.11,-138.91 203.1,-139.36"/>
</g>
<!-- Node9 -->
<g id="node9" class="node">
<title>Node9</title>
<g id="a_node9"><a xlink:href="ast_8h.html" target="_top" xlink:title=" ">
<polygon fill="white" stroke="#666666" points="248.31,-74 207.31,-74 207.31,-55 248.31,-55 248.31,-74"/>
<text text-anchor="middle" x="227.81" y="-62" font-family="Helvetica,sans-Serif" font-size="10.00">ast.h</text>
</a>
</g>
</g>
<!-- Node8&#45;&gt;Node9 -->
<g id="edge9" class="edge">
<title>Node8&#45;&gt;Node9</title>
<path fill="none" stroke="#63b8ff" d="M199.01,-219.85C208.75,-203.06 229.45,-164.57 236.81,-129 239.92,-113.99 237.08,-96.76 233.79,-84.04"/>
<polygon fill="#63b8ff" stroke="#63b8ff" points="237.08,-82.81 230.93,-74.19 230.36,-84.77 237.08,-82.81"/>
</g>
<!-- Node9&#45;&gt;Node3 -->
<g id="edge10" class="edge">
<title>Node9&#45;&gt;Node3</title>
<path fill="none" stroke="#63b8ff" d="M212.39,-54.98C197.36,-46.69 174.27,-33.94 156.65,-24.22"/>
<polygon fill="#63b8ff" stroke="#63b8ff" points="157.96,-20.94 147.52,-19.17 154.58,-27.07 157.96,-20.94"/>
</g>
</g>
</svg>
