<?xml version="1.0" encoding="UTF-8" standalone="no"?>
<!DOCTYPE svg PUBLIC "-//W3C//DTD SVG 1.1//EN"
 "http://www.w3.org/Graphics/SVG/1.1/DTD/svg11.dtd">
<!-- Generated by graphviz version 2.43.0 (0)
 -->
<!-- Title: parser_init Pages: 1 -->
<svg width="1682pt" height="736pt"
 viewBox="0.00 0.00 1682.00 736.00" xmlns="http://www.w3.org/2000/svg" xmlns:xlink="http://www.w3.org/1999/xlink">
<g id="graph0" class="graph" transform="scale(1 1) rotate(0) translate(4 732)">
<title>parser_init</title>
<!-- Node1 -->
<g id="node1" class="node">
<title>Node1</title>
<g id="a_node1"><a xlink:title=" ">
<polygon fill="#999999" stroke="#666666" points="68,-209 0,-209 0,-190 68,-190 68,-209"/>
<text text-anchor="middle" x="34" y="-197" font-family="Helvetica,sans-Serif" font-size="10.00">parser_init</text>
</a>
</g>
</g>
<!-- Node2 -->
<g id="node2" class="node">
<title>Node2</title>
<g id="a_node2"><a xlink:href="parser__next_8c.html#ad25986b565a767c6ad7d0b0b8846fca6" target="_top" xlink:title=" ">
<polygon fill="white" stroke="#666666" points="178,-209 104,-209 104,-190 178,-190 178,-209"/>
<text text-anchor="middle" x="141" y="-197" font-family="Helvetica,sans-Serif" font-size="10.00">parser_next</text>
</a>
</g>
</g>
<!-- Node1&#45;&gt;Node2 -->
<g id="edge1" class="edge">
<title>Node1&#45;&gt;Node2</title>
<path fill="none" stroke="#63b8ff" d="M68.22,-199.5C76.25,-199.5 84.98,-199.5 93.5,-199.5"/>
<polygon fill="#63b8ff" stroke="#63b8ff" points="93.72,-203 103.72,-199.5 93.72,-196 93.72,-203"/>
</g>
<!-- Node3 -->
<g id="node3" class="node">
<title>Node3</title>
<g id="a_node3"><a xlink:href="lexer__next__token_8c.html#a3def5432329709fb4df861d90672c510" target="_top" xlink:title=" ">
<polygon fill="white" stroke="#666666" points="314,-228 214,-228 214,-209 314,-209 314,-228"/>
<text text-anchor="middle" x="264" y="-216" font-family="Helvetica,sans-Serif" font-size="10.00">lexer_next_token</text>
</a>
</g>
</g>
<!-- Node2&#45;&gt;Node3 -->
<g id="edge2" class="edge">
<title>Node2&#45;&gt;Node3</title>
<path fill="none" stroke="#63b8ff" d="M178.3,-205.2C186.31,-206.46 194.99,-207.82 203.64,-209.18"/>
<polygon fill="#63b8ff" stroke="#63b8ff" points="203.32,-212.67 213.74,-210.77 204.41,-205.76 203.32,-212.67"/>
</g>
<!-- Node43 -->
<g id="node50" class="node">
<title>Node43</title>
<g id="a_node50"><a xlink:href="destroy__token_8c.html#ad1a471ee7b1ccb035d769be1152a370c" target="_top" xlink:title=" ">
<polygon fill="white" stroke="#666666" points="307,-191 221,-191 221,-172 307,-172 307,-191"/>
<text text-anchor="middle" x="264" y="-179" font-family="Helvetica,sans-Serif" font-size="10.00">token_destroy</text>
</a>
</g>
</g>
<!-- Node2&#45;&gt;Node43 -->
<g id="edge76" class="edge">
<title>Node2&#45;&gt;Node43</title>
<path fill="none" stroke="#63b8ff" d="M178.3,-194.1C188.54,-192.58 199.88,-190.89 210.84,-189.26"/>
<polygon fill="#63b8ff" stroke="#63b8ff" points="211.39,-192.72 220.77,-187.78 210.36,-185.79 211.39,-192.72"/>
</g>
<!-- Node4 -->
<g id="node4" class="node">
<title>Node4</title>
<g id="a_node4"><a xlink:href="create__token_8c.html#a15bcfc92177012893c626ce7d2d6bb6b" target="_top" xlink:title=" ">
<polygon fill="white" stroke="#666666" points="771.5,-376 691.5,-376 691.5,-357 771.5,-357 771.5,-376"/>
<text text-anchor="middle" x="731.5" y="-364" font-family="Helvetica,sans-Serif" font-size="10.00">create_token</text>
</a>
</g>
</g>
<!-- Node3&#45;&gt;Node4 -->
<g id="edge3" class="edge">
<title>Node3&#45;&gt;Node4</title>
<path fill="none" stroke="#63b8ff" d="M265.53,-228.34C268.01,-264.48 281.46,-391.26 350,-459.5 403.69,-512.95 436.3,-502.88 511,-515.5 565.78,-524.75 587.32,-542.27 636,-515.5 686.86,-487.53 714.2,-419.33 724.98,-385.78"/>
<polygon fill="#63b8ff" stroke="#63b8ff" points="728.33,-386.79 727.9,-376.2 721.64,-384.74 728.33,-386.79"/>
</g>
<!-- Node5 -->
<g id="node5" class="node">
<title>Node5</title>
<g id="a_node5"><a xlink:href="lexer__next__token_8c.html#add2e1acaa9518ecf20b6670ad91a5c65" target="_top" xlink:title=" ">
<polygon fill="white" stroke="#666666" points="463.5,-450 361.5,-450 361.5,-431 463.5,-431 463.5,-450"/>
<text text-anchor="middle" x="412.5" y="-438" font-family="Helvetica,sans-Serif" font-size="10.00">get_logical_token</text>
</a>
</g>
</g>
<!-- Node3&#45;&gt;Node5 -->
<g id="edge4" class="edge">
<title>Node3&#45;&gt;Node5</title>
<path fill="none" stroke="#63b8ff" d="M271.29,-228.04C293.74,-262.05 370.09,-377.75 399.66,-422.56"/>
<polygon fill="#63b8ff" stroke="#63b8ff" points="396.8,-424.58 405.23,-431 402.64,-420.72 396.8,-424.58"/>
</g>
<!-- Node9 -->
<g id="node9" class="node">
<title>Node9</title>
<g id="a_node9"><a xlink:href="lexer__next__token_8c.html#abcee8a7ba5ea6ca80c0bd7e3dd8d9a32" target="_top" xlink:title=" ">
<polygon fill="white" stroke="#666666" points="473.5,-321 351.5,-321 351.5,-302 473.5,-302 473.5,-321"/>
<text text-anchor="middle" x="412.5" y="-309" font-family="Helvetica,sans-Serif" font-size="10.00">get_redirection_token</text>
</a>
</g>
</g>
<!-- Node3&#45;&gt;Node9 -->
<g id="edge11" class="edge">
<title>Node3&#45;&gt;Node9</title>
<path fill="none" stroke="#63b8ff" d="M280.13,-228.1C305.57,-244.25 357.12,-276.98 387.53,-296.28"/>
<polygon fill="#63b8ff" stroke="#63b8ff" points="385.92,-299.41 396.24,-301.81 389.67,-293.5 385.92,-299.41"/>
</g>
<!-- Node14 -->
<g id="node14" class="node">
<title>Node14</title>
<g id="a_node14"><a xlink:href="lexer__newline_8c.html#a9f60bf18297b9c705fa6cdff027c79fc" target="_top" xlink:title=" ">
<polygon fill="white" stroke="#666666" points="615.5,-247 531.5,-247 531.5,-228 615.5,-228 615.5,-247"/>
<text text-anchor="middle" x="573.5" y="-235" font-family="Helvetica,sans-Serif" font-size="10.00">lexer_newline</text>
</a>
</g>
</g>
<!-- Node3&#45;&gt;Node14 -->
<g id="edge20" class="edge">
<title>Node3&#45;&gt;Node14</title>
<path fill="none" stroke="#63b8ff" d="M314.06,-221.53C370.73,-225.03 463.53,-230.77 521.15,-234.33"/>
<polygon fill="#63b8ff" stroke="#63b8ff" points="521.29,-237.84 531.48,-234.97 521.72,-230.86 521.29,-237.84"/>
</g>
<!-- Node15 -->
<g id="node15" class="node">
<title>Node15</title>
<g id="a_node15"><a xlink:href="lexer__parenthesis_8c.html#a2b13eaa0fee255bea85bd4279f369795" target="_top" xlink:title=" ">
<polygon fill="white" stroke="#666666" points="464,-209 361,-209 361,-190 464,-190 464,-209"/>
<text text-anchor="middle" x="412.5" y="-197" font-family="Helvetica,sans-Serif" font-size="10.00">lexer_parenthesis</text>
</a>
</g>
</g>
<!-- Node3&#45;&gt;Node15 -->
<g id="edge22" class="edge">
<title>Node3&#45;&gt;Node15</title>
<path fill="none" stroke="#63b8ff" d="M314.19,-212.12C325.94,-210.6 338.63,-208.95 350.83,-207.37"/>
<polygon fill="#63b8ff" stroke="#63b8ff" points="351.47,-210.81 360.94,-206.06 350.57,-203.87 351.47,-210.81"/>
</g>
<!-- Node16 -->
<g id="node16" class="node">
<title>Node16</title>
<g id="a_node16"><a xlink:href="lexer__semicolon_8c.html#a1612109b245d9780427946e4e33b01b7" target="_top" xlink:title=" ">
<polygon fill="white" stroke="#666666" points="460.5,-582 364.5,-582 364.5,-563 460.5,-563 460.5,-582"/>
<text text-anchor="middle" x="412.5" y="-570" font-family="Helvetica,sans-Serif" font-size="10.00">lexer_semicolon</text>
</a>
</g>
</g>
<!-- Node3&#45;&gt;Node16 -->
<g id="edge24" class="edge">
<title>Node3&#45;&gt;Node16</title>
<path fill="none" stroke="#63b8ff" d="M264.53,-228.03C262.94,-271.05 262.08,-449.34 350,-548.5 353.43,-552.37 357.56,-555.62 362.03,-558.35"/>
<polygon fill="#63b8ff" stroke="#63b8ff" points="360.49,-561.49 370.98,-562.98 363.71,-555.27 360.49,-561.49"/>
</g>
<!-- Node17 -->
<g id="node17" class="node">
<title>Node17</title>
<g id="a_node17"><a xlink:href="lexer__word_8c.html#ac2600a9ba16009c4d8c114a118c54955" target="_top" xlink:title=" ">
<polygon fill="white" stroke="#666666" points="447.5,-172 377.5,-172 377.5,-153 447.5,-153 447.5,-172"/>
<text text-anchor="middle" x="412.5" y="-160" font-family="Helvetica,sans-Serif" font-size="10.00">lexer_word</text>
</a>
</g>
</g>
<!-- Node3&#45;&gt;Node17 -->
<g id="edge26" class="edge">
<title>Node3&#45;&gt;Node17</title>
<path fill="none" stroke="#63b8ff" d="M292.99,-208.95C299.93,-206.38 307.29,-203.49 314,-200.5 330.53,-193.14 333.29,-188.42 350,-181.5 355.56,-179.2 361.49,-177.03 367.41,-175.03"/>
<polygon fill="#63b8ff" stroke="#63b8ff" points="368.83,-178.25 377.26,-171.84 366.67,-171.59 368.83,-178.25"/>
</g>
<!-- Node137 -->
<g id="node47" class="node">
<title>Node137</title>
<g id="a_node47"><a xlink:href="lexer__next__token_8c.html#acbf7d728a3a47bb6afba90556ceed465" target="_top" xlink:title=" ">
<polygon fill="white" stroke="#666666" points="451.5,-135 373.5,-135 373.5,-116 451.5,-116 451.5,-135"/>
<text text-anchor="middle" x="412.5" y="-123" font-family="Helvetica,sans-Serif" font-size="10.00">return_token</text>
</a>
</g>
</g>
<!-- Node3&#45;&gt;Node137 -->
<g id="edge73" class="edge">
<title>Node3&#45;&gt;Node137</title>
<path fill="none" stroke="#63b8ff" d="M299.73,-208.98C304.81,-206.7 309.76,-203.9 314,-200.5 337.09,-181.99 326.44,-162.4 350,-144.5 354.18,-141.33 358.89,-138.68 363.8,-136.47"/>
<polygon fill="#63b8ff" stroke="#63b8ff" points="365.34,-139.63 373.4,-132.74 362.81,-133.1 365.34,-139.63"/>
</g>
<!-- Node138 -->
<g id="node48" class="node">
<title>Node138</title>
<g id="a_node48"><a xlink:href="lexer__next__token_8c.html#a7f0a2dd2373821667a4d5381e7711aa0" target="_top" xlink:title=" ">
<polygon fill="white" stroke="#666666" points="457,-98 368,-98 368,-79 457,-79 457,-98"/>
<text text-anchor="middle" x="412.5" y="-86" font-family="Helvetica,sans-Serif" font-size="10.00">skip_comment</text>
</a>
</g>
</g>
<!-- Node3&#45;&gt;Node138 -->
<g id="edge74" class="edge">
<title>Node3&#45;&gt;Node138</title>
<path fill="none" stroke="#63b8ff" d="M301.86,-208.97C306.31,-206.71 310.51,-203.93 314,-200.5 345.61,-169.43 317.59,-137.73 350,-107.5 352.61,-105.06 355.53,-102.94 358.64,-101.09"/>
<polygon fill="#63b8ff" stroke="#63b8ff" points="360.39,-104.13 367.8,-96.56 357.29,-97.85 360.39,-104.13"/>
</g>
<!-- Node139 -->
<g id="node49" class="node">
<title>Node139</title>
<g id="a_node49"><a xlink:href="lexer__next__token_8c.html#a5b2052471d98cef2998e1367f9bf8f6d" target="_top" xlink:title=" ">
<polygon fill="white" stroke="#666666" points="475,-61 350,-61 350,-42 475,-42 475,-61"/>
<text text-anchor="middle" x="412.5" y="-49" font-family="Helvetica,sans-Serif" font-size="10.00">skip_spaces_and_tabs</text>
</a>
</g>
</g>
<!-- Node3&#45;&gt;Node139 -->
<g id="edge75" class="edge">
<title>Node3&#45;&gt;Node139</title>
<path fill="none" stroke="#63b8ff" d="M303.16,-208.77C307.19,-206.55 310.93,-203.84 314,-200.5 354.87,-156.05 307.66,-112.55 350,-69.5 350.94,-68.54 351.94,-67.63 352.97,-66.77"/>
<polygon fill="#63b8ff" stroke="#63b8ff" points="355.18,-69.5 361.59,-61.06 351.32,-63.67 355.18,-69.5"/>
</g>
<!-- Node6 -->
<g id="node6" class="node">
<title>Node6</title>
<g id="a_node6"><a xlink:href="lexer__logical__and_8c.html#a59e5031d54357d65c6873edc67de2a47" target="_top" xlink:title=" ">
<polygon fill="white" stroke="#666666" points="624,-432 523,-432 523,-413 624,-413 624,-432"/>
<text text-anchor="middle" x="573.5" y="-420" font-family="Helvetica,sans-Serif" font-size="10.00">lexer_logical_and</text>
</a>
</g>
</g>
<!-- Node5&#45;&gt;Node6 -->
<g id="edge5" class="edge">
<title>Node5&#45;&gt;Node6</title>
<path fill="none" stroke="#63b8ff" d="M463.81,-434.8C479.26,-433.06 496.41,-431.11 512.45,-429.3"/>
<polygon fill="#63b8ff" stroke="#63b8ff" points="513.25,-432.73 522.79,-428.13 512.46,-425.77 513.25,-432.73"/>
</g>
<!-- Node7 -->
<g id="node7" class="node">
<title>Node7</title>
<g id="a_node7"><a xlink:href="lexer__logical__or_8c.html#ac3851eaea27bd5774b126b888bdddf93" target="_top" xlink:title=" ">
<polygon fill="white" stroke="#666666" points="620,-506 527,-506 527,-487 620,-487 620,-506"/>
<text text-anchor="middle" x="573.5" y="-494" font-family="Helvetica,sans-Serif" font-size="10.00">lexer_logical_or</text>
</a>
</g>
</g>
<!-- Node5&#45;&gt;Node7 -->
<g id="edge7" class="edge">
<title>Node5&#45;&gt;Node7</title>
<path fill="none" stroke="#63b8ff" d="M436.54,-450.13C456.16,-458.18 485.2,-469.72 511,-478.5 516.53,-480.38 522.38,-482.25 528.19,-484.03"/>
<polygon fill="#63b8ff" stroke="#63b8ff" points="527.27,-487.41 537.86,-486.93 529.28,-480.71 527.27,-487.41"/>
</g>
<!-- Node8 -->
<g id="node8" class="node">
<title>Node8</title>
<g id="a_node8"><a xlink:href="lexer__pipe_8c.html#a693816e38802a086de64c09cb7cebeb7" target="_top" xlink:title=" ">
<polygon fill="white" stroke="#666666" points="607,-469 540,-469 540,-450 607,-450 607,-469"/>
<text text-anchor="middle" x="573.5" y="-457" font-family="Helvetica,sans-Serif" font-size="10.00">lexer_pipe</text>
</a>
</g>
</g>
<!-- Node5&#45;&gt;Node8 -->
<g id="edge9" class="edge">
<title>Node5&#45;&gt;Node8</title>
<path fill="none" stroke="#63b8ff" d="M463.81,-446.51C484.88,-449.03 509.13,-451.93 529.37,-454.35"/>
<polygon fill="#63b8ff" stroke="#63b8ff" points="529.21,-457.85 539.56,-455.56 530.04,-450.9 529.21,-457.85"/>
</g>
<!-- Node6&#45;&gt;Node4 -->
<g id="edge6" class="edge">
<title>Node6&#45;&gt;Node4</title>
<path fill="none" stroke="#63b8ff" d="M609.17,-413C617.97,-410.41 627.38,-407.49 636,-404.5 657.39,-397.09 681.01,-387.59 699.29,-379.94"/>
<polygon fill="#63b8ff" stroke="#63b8ff" points="700.73,-383.13 708.58,-376.02 698.01,-376.69 700.73,-383.13"/>
</g>
<!-- Node7&#45;&gt;Node4 -->
<g id="edge8" class="edge">
<title>Node7&#45;&gt;Node4</title>
<path fill="none" stroke="#63b8ff" d="M618.9,-486.93C624.9,-484.67 630.78,-481.9 636,-478.5 673.64,-453.98 704.31,-410.01 719.72,-385.08"/>
<polygon fill="#63b8ff" stroke="#63b8ff" points="722.88,-386.62 725.03,-376.25 716.88,-383.01 722.88,-386.62"/>
</g>
<!-- Node8&#45;&gt;Node4 -->
<g id="edge10" class="edge">
<title>Node8&#45;&gt;Node4</title>
<path fill="none" stroke="#63b8ff" d="M607.01,-452.51C616.64,-449.78 627.01,-446.16 636,-441.5 666,-425.97 695.71,-400.23 713.59,-383.32"/>
<polygon fill="#63b8ff" stroke="#63b8ff" points="716.16,-385.7 720.93,-376.24 711.3,-380.66 716.16,-385.7"/>
</g>
<!-- Node10 -->
<g id="node10" class="node">
<title>Node10</title>
<g id="a_node10"><a xlink:href="lexer__heredoc_8c.html#a9db043b0e8df9ad1155a65a8fcf67c11" target="_top" xlink:title=" ">
<polygon fill="white" stroke="#666666" points="616,-321 531,-321 531,-302 616,-302 616,-321"/>
<text text-anchor="middle" x="573.5" y="-309" font-family="Helvetica,sans-Serif" font-size="10.00">lexer_heredoc</text>
</a>
</g>
</g>
<!-- Node9&#45;&gt;Node10 -->
<g id="edge12" class="edge">
<title>Node9&#45;&gt;Node10</title>
<path fill="none" stroke="#63b8ff" d="M473.61,-311.5C489.04,-311.5 505.52,-311.5 520.5,-311.5"/>
<polygon fill="#63b8ff" stroke="#63b8ff" points="520.61,-315 530.61,-311.5 520.61,-308 520.61,-315"/>
</g>
<!-- Node11 -->
<g id="node11" class="node">
<title>Node11</title>
<g id="a_node11"><a xlink:href="lexer__redirect__append_8c.html#a09beefbfaf132dbe04add1370a6fb2e3" target="_top" xlink:title=" ">
<polygon fill="white" stroke="#666666" points="636,-284 511,-284 511,-265 636,-265 636,-284"/>
<text text-anchor="middle" x="573.5" y="-272" font-family="Helvetica,sans-Serif" font-size="10.00">lexer_redirect_append</text>
</a>
</g>
</g>
<!-- Node9&#45;&gt;Node11 -->
<g id="edge14" class="edge">
<title>Node9&#45;&gt;Node11</title>
<path fill="none" stroke="#63b8ff" d="M454.45,-301.97C474.86,-297.22 499.75,-291.43 521.4,-286.39"/>
<polygon fill="#63b8ff" stroke="#63b8ff" points="522.47,-289.74 531.42,-284.06 520.88,-282.92 522.47,-289.74"/>
</g>
<!-- Node12 -->
<g id="node12" class="node">
<title>Node12</title>
<g id="a_node12"><a xlink:href="lexer__redirect__in_8c.html#ac723d9668329d99b35003ed2423889e5" target="_top" xlink:title=" ">
<polygon fill="white" stroke="#666666" points="622.5,-395 524.5,-395 524.5,-376 622.5,-376 622.5,-395"/>
<text text-anchor="middle" x="573.5" y="-383" font-family="Helvetica,sans-Serif" font-size="10.00">lexer_redirect_in</text>
</a>
</g>
</g>
<!-- Node9&#45;&gt;Node12 -->
<g id="edge16" class="edge">
<title>Node9&#45;&gt;Node12</title>
<path fill="none" stroke="#63b8ff" d="M427.8,-321.17C446.33,-333.34 479.94,-354.25 511,-367.5 515.44,-369.39 520.13,-371.16 524.87,-372.79"/>
<polygon fill="#63b8ff" stroke="#63b8ff" points="524.01,-376.19 534.6,-375.94 526.17,-369.53 524.01,-376.19"/>
</g>
<!-- Node13 -->
<g id="node13" class="node">
<title>Node13</title>
<g id="a_node13"><a xlink:href="lexer__redirect__out_8c.html#a70e2216639c96030b3861405ae3497c6" target="_top" xlink:title=" ">
<polygon fill="white" stroke="#666666" points="625.5,-358 521.5,-358 521.5,-339 625.5,-339 625.5,-358"/>
<text text-anchor="middle" x="573.5" y="-346" font-family="Helvetica,sans-Serif" font-size="10.00">lexer_redirect_out</text>
</a>
</g>
</g>
<!-- Node9&#45;&gt;Node13 -->
<g id="edge18" class="edge">
<title>Node9&#45;&gt;Node13</title>
<path fill="none" stroke="#63b8ff" d="M454.45,-321.03C474.86,-325.78 499.75,-331.57 521.4,-336.61"/>
<polygon fill="#63b8ff" stroke="#63b8ff" points="520.88,-340.08 531.42,-338.94 522.47,-333.26 520.88,-340.08"/>
</g>
<!-- Node10&#45;&gt;Node4 -->
<g id="edge13" class="edge">
<title>Node10&#45;&gt;Node4</title>
<path fill="none" stroke="#63b8ff" d="M606.86,-321.07C616.3,-323.98 626.6,-327.26 636,-330.5 656.45,-337.55 679.1,-346.15 697.1,-353.17"/>
<polygon fill="#63b8ff" stroke="#63b8ff" points="695.99,-356.5 706.57,-356.9 698.55,-349.98 695.99,-356.5"/>
</g>
<!-- Node11&#45;&gt;Node4 -->
<g id="edge15" class="edge">
<title>Node11&#45;&gt;Node4</title>
<path fill="none" stroke="#63b8ff" d="M613.07,-284.09C620.87,-286.67 628.86,-289.79 636,-293.5 665.52,-308.82 695.15,-333.61 713.17,-349.98"/>
<polygon fill="#63b8ff" stroke="#63b8ff" points="710.87,-352.62 720.58,-356.85 715.62,-347.48 710.87,-352.62"/>
</g>
<!-- Node12&#45;&gt;Node4 -->
<g id="edge17" class="edge">
<title>Node12&#45;&gt;Node4</title>
<path fill="none" stroke="#63b8ff" d="M622.58,-379.64C641.24,-377.37 662.59,-374.77 681.34,-372.49"/>
<polygon fill="#63b8ff" stroke="#63b8ff" points="681.96,-375.94 691.47,-371.25 681.12,-368.99 681.96,-375.94"/>
</g>
<!-- Node13&#45;&gt;Node4 -->
<g id="edge19" class="edge">
<title>Node13&#45;&gt;Node4</title>
<path fill="none" stroke="#63b8ff" d="M625.58,-354.39C643.41,-356.45 663.37,-358.75 681.06,-360.8"/>
<polygon fill="#63b8ff" stroke="#63b8ff" points="680.85,-364.29 691.18,-361.96 681.65,-357.34 680.85,-364.29"/>
</g>
<!-- Node14&#45;&gt;Node4 -->
<g id="edge21" class="edge">
<title>Node14&#45;&gt;Node4</title>
<path fill="none" stroke="#63b8ff" d="M615.65,-246.68C622.76,-249.23 629.83,-252.46 636,-256.5 673.17,-280.87 704.02,-323.95 719.59,-348.34"/>
<polygon fill="#63b8ff" stroke="#63b8ff" points="716.7,-350.33 724.96,-356.98 722.65,-346.63 716.7,-350.33"/>
</g>
<!-- Node15&#45;&gt;Node4 -->
<g id="edge23" class="edge">
<title>Node15&#45;&gt;Node4</title>
<path fill="none" stroke="#63b8ff" d="M464.22,-192.01C512.03,-187.58 583.92,-187.96 636,-219.5 684.73,-249.01 712.82,-314.32 724.32,-347.03"/>
<polygon fill="#63b8ff" stroke="#63b8ff" points="721.1,-348.41 727.6,-356.78 727.73,-346.18 721.1,-348.41"/>
</g>
<!-- Node16&#45;&gt;Node4 -->
<g id="edge25" class="edge">
<title>Node16&#45;&gt;Node4</title>
<path fill="none" stroke="#63b8ff" d="M460.9,-579.58C509.21,-584.2 584.2,-583.91 636,-548.5 693.25,-509.36 718.09,-424.43 726.69,-386.04"/>
<polygon fill="#63b8ff" stroke="#63b8ff" points="730.15,-386.62 728.78,-376.12 723.3,-385.18 730.15,-386.62"/>
</g>
<!-- Node17&#45;&gt;Node4 -->
<g id="edge27" class="edge">
<title>Node17&#45;&gt;Node4</title>
<path fill="none" stroke="#63b8ff" d="M447.74,-156.69C494.53,-150.68 579.13,-146.9 636,-185.5 693.13,-224.28 718.03,-308.82 726.67,-347.05"/>
<polygon fill="#63b8ff" stroke="#63b8ff" points="723.27,-347.87 728.77,-356.92 730.12,-346.41 723.27,-347.87"/>
</g>
<!-- Node18 -->
<g id="node18" class="node">
<title>Node18</title>
<g id="a_node18"><a xlink:href="lexer__expand__alias_8c.html#a782a761cdb9088ea2b14b7a97eb85377" target="_top" xlink:title=" ">
<polygon fill="white" stroke="#666666" points="628.5,-95 518.5,-95 518.5,-76 628.5,-76 628.5,-95"/>
<text text-anchor="middle" x="573.5" y="-83" font-family="Helvetica,sans-Serif" font-size="10.00">lexer_expand_alias</text>
</a>
</g>
</g>
<!-- Node17&#45;&gt;Node18 -->
<g id="edge28" class="edge">
<title>Node17&#45;&gt;Node18</title>
<path fill="none" stroke="#63b8ff" d="M447.59,-155.7C456.86,-153.02 466.64,-149.38 475,-144.5 494.28,-133.26 492.23,-121.57 511,-109.5 517.3,-105.45 524.38,-101.9 531.45,-98.87"/>
<polygon fill="#63b8ff" stroke="#63b8ff" points="533.01,-102.01 540.99,-95.05 530.4,-95.52 533.01,-102.01"/>
</g>
<!-- Node20 -->
<g id="node20" class="node">
<title>Node20</title>
<g id="a_node20"><a xlink:href="lexer__word_8c.html#a17ec284a75275629329e3d5699a635d7" target="_top" xlink:title=" ">
<polygon fill="white" stroke="#666666" points="780,-133 683,-133 683,-114 780,-114 780,-133"/>
<text text-anchor="middle" x="731.5" y="-121" font-family="Helvetica,sans-Serif" font-size="10.00">lexer_read_word</text>
</a>
</g>
</g>
<!-- Node17&#45;&gt;Node20 -->
<g id="edge72" class="edge">
<title>Node17&#45;&gt;Node20</title>
<path fill="none" stroke="#63b8ff" d="M447.74,-156.86C466.41,-153.88 489.94,-150.27 511,-147.5 565.83,-140.29 628.57,-133.58 672.89,-129.1"/>
<polygon fill="#63b8ff" stroke="#63b8ff" points="673.3,-132.58 682.9,-128.1 672.6,-125.62 673.3,-132.58"/>
</g>
<!-- Node19 -->
<g id="node19" class="node">
<title>Node19</title>
<g id="a_node19"><a xlink:href="get__variable_8c.html#a569170390f0edf013bf89c26ef55ea8c" target="_top" xlink:title=" ">
<polygon fill="white" stroke="#666666" points="1653.5,-133 1576.5,-133 1576.5,-114 1653.5,-114 1653.5,-133"/>
<text text-anchor="middle" x="1615" y="-121" font-family="Helvetica,sans-Serif" font-size="10.00">get_variable</text>
</a>
</g>
</g>
<!-- Node18&#45;&gt;Node19 -->
<g id="edge29" class="edge">
<title>Node18&#45;&gt;Node19</title>
<path fill="none" stroke="#63b8ff" d="M622.73,-75.96C683.93,-64.7 792.86,-47.5 887,-47.5 887,-47.5 887,-47.5 1241.5,-47.5 1365.74,-47.5 1401.15,-35.3 1520,-71.5 1546.56,-79.59 1574.01,-95.85 1592.34,-108.05"/>
<polygon fill="#63b8ff" stroke="#63b8ff" points="1590.57,-111.08 1600.8,-113.82 1594.51,-105.29 1590.57,-111.08"/>
</g>
<!-- Node18&#45;&gt;Node20 -->
<g id="edge30" class="edge">
<title>Node18&#45;&gt;Node20</title>
<path fill="none" stroke="#63b8ff" d="M613.87,-95.09C634.45,-100.1 659.84,-106.29 681.67,-111.61"/>
<polygon fill="#63b8ff" stroke="#63b8ff" points="680.87,-115.01 691.42,-113.98 682.53,-108.21 680.87,-115.01"/>
</g>
<!-- Node135 -->
<g id="node45" class="node">
<title>Node135</title>
<g id="a_node45"><a xlink:href="lexer__expand__alias_8c.html#a98f32d0d302fe57a01c46b72c25132a1" target="_top" xlink:title=" ">
<polygon fill="white" stroke="#666666" points="929,-95 847,-95 847,-76 929,-76 929,-95"/>
<text text-anchor="middle" x="888" y="-83" font-family="Helvetica,sans-Serif" font-size="10.00">replace_word</text>
</a>
</g>
</g>
<!-- Node18&#45;&gt;Node135 -->
<g id="edge69" class="edge">
<title>Node18&#45;&gt;Node135</title>
<path fill="none" stroke="#63b8ff" d="M628.58,-85.5C687.12,-85.5 779.75,-85.5 836.75,-85.5"/>
<polygon fill="#63b8ff" stroke="#63b8ff" points="836.97,-89 846.97,-85.5 836.97,-82 836.97,-89"/>
</g>
<!-- Node136 -->
<g id="node46" class="node">
<title>Node136</title>
<g id="a_node46"><a xlink:href="lexer__expand__alias_8c.html#ae7957e63e1f19d95a69563aaab318ad4" target="_top" xlink:title=" ">
<polygon fill="white" stroke="#666666" points="791,-19 672,-19 672,0 791,0 791,-19"/>
<text text-anchor="middle" x="731.5" y="-7" font-family="Helvetica,sans-Serif" font-size="10.00">should_expand_alias</text>
</a>
</g>
</g>
<!-- Node18&#45;&gt;Node136 -->
<g id="edge71" class="edge">
<title>Node18&#45;&gt;Node136</title>
<path fill="none" stroke="#63b8ff" d="M591.15,-75.96C610.35,-65.11 643.01,-47.14 672,-33.5 679.7,-29.88 688.1,-26.25 696.06,-22.95"/>
<polygon fill="#63b8ff" stroke="#63b8ff" points="697.55,-26.13 705.5,-19.11 694.91,-19.64 697.55,-26.13"/>
</g>
<!-- Node21 -->
<g id="node21" class="node">
<title>Node21</title>
<g id="a_node21"><a xlink:href="lexer__word_8c.html#a730574257743b09386cadd2ccbfe4d13" target="_top" xlink:title=" ">
<polygon fill="white" stroke="#666666" points="949,-389 827,-389 827,-370 949,-370 949,-389"/>
<text text-anchor="middle" x="888" y="-377" font-family="Helvetica,sans-Serif" font-size="10.00">handle_current_token</text>
</a>
</g>
</g>
<!-- Node20&#45;&gt;Node21 -->
<g id="edge31" class="edge">
<title>Node20&#45;&gt;Node21</title>
<path fill="none" stroke="#63b8ff" d="M738.37,-133.22C761.36,-171.32 845.54,-310.8 875.95,-361.19"/>
<polygon fill="#63b8ff" stroke="#63b8ff" points="872.96,-363.01 881.13,-369.77 878.96,-359.4 872.96,-363.01"/>
</g>
<!-- Node126 -->
<g id="node37" class="node">
<title>Node126</title>
<g id="a_node37"><a xlink:href="lexer__is__word__separator_8c.html#abccfc6fc0cdbd040fc9a7dcbfd207090" target="_top" xlink:title=" ">
<polygon fill="white" stroke="#666666" points="1501.5,-152 1366.5,-152 1366.5,-133 1501.5,-133 1501.5,-152"/>
<text text-anchor="middle" x="1434" y="-140" font-family="Helvetica,sans-Serif" font-size="10.00">lexer_is_word_separator</text>
</a>
</g>
</g>
<!-- Node20&#45;&gt;Node126 -->
<g id="edge68" class="edge">
<title>Node20&#45;&gt;Node126</title>
<path fill="none" stroke="#63b8ff" d="M780.1,-124.79C899.18,-128.02 1210.85,-136.47 1356.25,-140.42"/>
<polygon fill="#63b8ff" stroke="#63b8ff" points="1356.33,-143.92 1366.42,-140.69 1356.52,-136.92 1356.33,-143.92"/>
</g>
<!-- Node22 -->
<g id="node22" class="node">
<title>Node22</title>
<g id="a_node22"><a xlink:href="lexer__word_8c.html#acd8f2a3c47fa56f87c2792ccefd2ee3e" target="_top" xlink:title=" ">
<polygon fill="white" stroke="#666666" points="1119.5,-445 998.5,-445 998.5,-426 1119.5,-426 1119.5,-445"/>
<text text-anchor="middle" x="1059" y="-433" font-family="Helvetica,sans-Serif" font-size="10.00">handle_double_quote</text>
</a>
</g>
</g>
<!-- Node21&#45;&gt;Node22 -->
<g id="edge32" class="edge">
<title>Node21&#45;&gt;Node22</title>
<path fill="none" stroke="#63b8ff" d="M910.81,-389.11C930.07,-397.36 959.05,-409.21 985,-417.5 991.52,-419.58 998.42,-421.57 1005.29,-423.41"/>
<polygon fill="#63b8ff" stroke="#63b8ff" points="1004.71,-426.87 1015.27,-425.99 1006.46,-420.09 1004.71,-426.87"/>
</g>
<!-- Node23 -->
<g id="node23" class="node">
<title>Node23</title>
<g id="a_node23"><a xlink:href="lexer__word_8c.html#a733339142f4677a066646a12a7e5bec4" target="_top" xlink:title=" ">
<polygon fill="white" stroke="#666666" points="1129.5,-408 988.5,-408 988.5,-389 1129.5,-389 1129.5,-408"/>
<text text-anchor="middle" x="1059" y="-396" font-family="Helvetica,sans-Serif" font-size="10.00">handle_escape_sequence</text>
</a>
</g>
</g>
<!-- Node21&#45;&gt;Node23 -->
<g id="edge33" class="edge">
<title>Node21&#45;&gt;Node23</title>
<path fill="none" stroke="#63b8ff" d="M949.06,-386.25C958.49,-387.31 968.37,-388.42 978.17,-389.53"/>
<polygon fill="#63b8ff" stroke="#63b8ff" points="978,-393.03 988.33,-390.67 978.78,-386.07 978,-393.03"/>
</g>
<!-- Node27 -->
<g id="node27" class="node">
<title>Node27</title>
<g id="a_node27"><a xlink:href="lexer__word_8c.html#a3ae03e49183787e7cf32c90ffdef7351" target="_top" xlink:title=" ">
<polygon fill="white" stroke="#666666" points="1117.5,-371 1000.5,-371 1000.5,-352 1117.5,-352 1117.5,-371"/>
<text text-anchor="middle" x="1059" y="-359" font-family="Helvetica,sans-Serif" font-size="10.00">handle_single_quote</text>
</a>
</g>
</g>
<!-- Node21&#45;&gt;Node27 -->
<g id="edge37" class="edge">
<title>Node21&#45;&gt;Node27</title>
<path fill="none" stroke="#63b8ff" d="M949.06,-373.1C962.36,-371.69 976.56,-370.17 990.15,-368.73"/>
<polygon fill="#63b8ff" stroke="#63b8ff" points="990.83,-372.17 1000.4,-367.63 990.09,-365.21 990.83,-372.17"/>
</g>
<!-- Node28 -->
<g id="node28" class="node">
<title>Node28</title>
<g id="a_node28"><a xlink:href="lexer__utils_8c.html#a2ba6f7e43ecbf713c666ab062eac534c" target="_top" xlink:title=" ">
<polygon fill="white" stroke="#666666" points="1133,-309 985,-309 985,-290 1133,-290 1133,-309"/>
<text text-anchor="middle" x="1059" y="-297" font-family="Helvetica,sans-Serif" font-size="10.00">lexer_append_current_char</text>
</a>
</g>
</g>
<!-- Node21&#45;&gt;Node28 -->
<g id="edge39" class="edge">
<title>Node21&#45;&gt;Node28</title>
<path fill="none" stroke="#63b8ff" d="M909.39,-369.85C939.03,-355.82 994.21,-329.7 1028.35,-313.53"/>
<polygon fill="#63b8ff" stroke="#63b8ff" points="1030.26,-316.5 1037.81,-309.06 1027.27,-310.17 1030.26,-316.5"/>
</g>
<!-- Node29 -->
<g id="node29" class="node">
<title>Node29</title>
<g id="a_node29"><a xlink:href="lexer__expand__command__substitution_8c.html#aad26825e6ecc7617687abd601366b15d" target="_top" xlink:title=" ">
<polygon fill="white" stroke="#666666" points="1127,-639.5 991,-639.5 991,-609.5 1127,-609.5 1127,-639.5"/>
<text text-anchor="start" x="999" y="-627.5" font-family="Helvetica,sans-Serif" font-size="10.00">lexer_expand_command</text>
<text text-anchor="middle" x="1059" y="-616.5" font-family="Helvetica,sans-Serif" font-size="10.00">_substitution</text>
</a>
</g>
</g>
<!-- Node21&#45;&gt;Node29 -->
<g id="edge41" class="edge">
<title>Node21&#45;&gt;Node29</title>
<path fill="none" stroke="#63b8ff" d="M895.63,-389.1C920.09,-424.56 1005.76,-548.76 1041.81,-601.03"/>
<polygon fill="#63b8ff" stroke="#63b8ff" points="1038.99,-603.11 1047.55,-609.35 1044.75,-599.13 1038.99,-603.11"/>
</g>
<!-- Node124 -->
<g id="node34" class="node">
<title>Node124</title>
<g id="a_node34"><a xlink:href="lexer__expand__tilde_8c.html#ae3c478a10a2764ee7c7f94b42f28ecaf" target="_top" xlink:title=" ">
<polygon fill="white" stroke="#666666" points="1113.5,-228 1004.5,-228 1004.5,-209 1113.5,-209 1113.5,-228"/>
<text text-anchor="middle" x="1059" y="-216" font-family="Helvetica,sans-Serif" font-size="10.00">lexer_expand_tilde</text>
</a>
</g>
</g>
<!-- Node21&#45;&gt;Node124 -->
<g id="edge49" class="edge">
<title>Node21&#45;&gt;Node124</title>
<path fill="none" stroke="#63b8ff" d="M898.01,-369.78C914.72,-351.86 951.83,-312.64 985,-281.5 1002.55,-265.03 1023.41,-247.18 1038.33,-234.71"/>
<polygon fill="#63b8ff" stroke="#63b8ff" points="1040.91,-237.12 1046.36,-228.03 1036.43,-231.73 1040.91,-237.12"/>
</g>
<!-- Node127 -->
<g id="node38" class="node">
<title>Node127</title>
<g id="a_node38"><a xlink:href="lexer__expand__variable_8c.html#a01ad90eb8460a612626bb33c9e15cd52" target="_top" xlink:title=" ">
<polygon fill="white" stroke="#666666" points="1122.5,-484 995.5,-484 995.5,-465 1122.5,-465 1122.5,-484"/>
<text text-anchor="middle" x="1059" y="-472" font-family="Helvetica,sans-Serif" font-size="10.00">lexer_expand_variable</text>
</a>
</g>
</g>
<!-- Node21&#45;&gt;Node127 -->
<g id="edge55" class="edge">
<title>Node21&#45;&gt;Node127</title>
<path fill="none" stroke="#63b8ff" d="M898.46,-389.04C914.72,-404.91 949.65,-436.75 985,-454.5 990.55,-457.29 996.54,-459.72 1002.61,-461.85"/>
<polygon fill="#63b8ff" stroke="#63b8ff" points="1001.59,-465.2 1012.18,-464.94 1003.74,-458.54 1001.59,-465.2"/>
</g>
<!-- Node24 -->
<g id="node24" class="node">
<title>Node24</title>
<g id="a_node24"><a xlink:href="lexer__utils_8c.html#abf1c1b3b6033c8f9c8d1b11cc9e14f75" target="_top" xlink:title=" ">
<polygon fill="white" stroke="#666666" points="1484,-447 1384,-447 1384,-428 1484,-428 1484,-447"/>
<text text-anchor="middle" x="1434" y="-435" font-family="Helvetica,sans-Serif" font-size="10.00">lexer_append_str</text>
</a>
</g>
</g>
<!-- Node23&#45;&gt;Node24 -->
<g id="edge34" class="edge">
<title>Node23&#45;&gt;Node24</title>
<path fill="none" stroke="#63b8ff" d="M1129.65,-403.09C1180.31,-406.73 1250.51,-412.37 1312,-419.5 1332.21,-421.84 1354.24,-424.95 1373.9,-427.93"/>
<polygon fill="#63b8ff" stroke="#63b8ff" points="1373.52,-431.41 1383.94,-429.47 1374.58,-424.49 1373.52,-431.41"/>
</g>
<!-- Node25 -->
<g id="node25" class="node">
<title>Node25</title>
<g id="a_node25"><a xlink:href="strings_8h.html#a5e1589f073ac32d227dbc6020c376dab" target="_top" xlink:title=" ">
<polygon fill="white" stroke="#666666" points="1665.5,-447 1564.5,-447 1564.5,-428 1665.5,-428 1665.5,-447"/>
<text text-anchor="middle" x="1615" y="-435" font-family="Helvetica,sans-Serif" font-size="10.00">append_to_buffer</text>
</a>
</g>
</g>
<!-- Node24&#45;&gt;Node25 -->
<g id="edge35" class="edge">
<title>Node24&#45;&gt;Node25</title>
<path fill="none" stroke="#63b8ff" d="M1484.39,-437.5C1506.01,-437.5 1531.58,-437.5 1554.27,-437.5"/>
<polygon fill="#63b8ff" stroke="#63b8ff" points="1554.46,-441 1564.46,-437.5 1554.46,-434 1554.46,-441"/>
</g>
<!-- Node26 -->
<g id="node26" class="node">
<title>Node26</title>
<g id="a_node26"><a xlink:href="lexer__utils_8c.html#a84e8d5514cfe03a20152ad26f170211f" target="_top" xlink:title=" ">
<polygon fill="white" stroke="#666666" points="1674,-558 1556,-558 1556,-539 1674,-539 1674,-558"/>
<text text-anchor="middle" x="1615" y="-546" font-family="Helvetica,sans-Serif" font-size="10.00">lexer_set_alloc_error</text>
</a>
</g>
</g>
<!-- Node24&#45;&gt;Node26 -->
<g id="edge36" class="edge">
<title>Node24&#45;&gt;Node26</title>
<path fill="none" stroke="#63b8ff" d="M1450.57,-447.16C1481.86,-466.56 1552.54,-510.39 1589.87,-533.53"/>
<polygon fill="#63b8ff" stroke="#63b8ff" points="1588.25,-536.65 1598.59,-538.95 1591.94,-530.7 1588.25,-536.65"/>
</g>
<!-- Node27&#45;&gt;Node24 -->
<g id="edge38" class="edge">
<title>Node27&#45;&gt;Node24</title>
<path fill="none" stroke="#63b8ff" d="M1117.68,-368.87C1169,-375.91 1245.95,-387.63 1312,-402.5 1339.63,-408.72 1370.27,-417.6 1393.8,-424.86"/>
<polygon fill="#63b8ff" stroke="#63b8ff" points="1392.83,-428.23 1403.42,-427.86 1394.92,-421.55 1392.83,-428.23"/>
</g>
<!-- Node28&#45;&gt;Node24 -->
<g id="edge40" class="edge">
<title>Node28&#45;&gt;Node24</title>
<path fill="none" stroke="#63b8ff" d="M1093.3,-289.99C1143.39,-277.56 1239.95,-261.08 1312,-294.5 1367.64,-320.31 1406.97,-385.7 1423.82,-418.34"/>
<polygon fill="#63b8ff" stroke="#63b8ff" points="1420.9,-420.32 1428.5,-427.7 1427.16,-417.19 1420.9,-420.32"/>
</g>
<!-- Node29&#45;&gt;Node26 -->
<g id="edge48" class="edge">
<title>Node29&#45;&gt;Node26</title>
<path fill="none" stroke="#63b8ff" d="M1127.28,-628.89C1218.15,-632.91 1384.35,-633.53 1520,-596.5 1545.86,-589.44 1572.86,-574.78 1591.25,-563.5"/>
<polygon fill="#63b8ff" stroke="#63b8ff" points="1593.19,-566.42 1599.79,-558.13 1589.46,-560.49 1593.19,-566.42"/>
</g>
<!-- Node30 -->
<g id="node30" class="node">
<title>Node30</title>
<g id="a_node30"><a xlink:href="lexer__expand__command__substitution_8c.html#ad31353a5e4ff94d4ffc515367ef29625" target="_top" xlink:title=" ">
<polygon fill="white" stroke="#666666" points="1312,-672 1169,-672 1169,-653 1312,-653 1312,-672"/>
<text text-anchor="middle" x="1240.5" y="-660" font-family="Helvetica,sans-Serif" font-size="10.00">append_command_output</text>
</a>
</g>
</g>
<!-- Node29&#45;&gt;Node30 -->
<g id="edge42" class="edge">
<title>Node29&#45;&gt;Node30</title>
<path fill="none" stroke="#63b8ff" d="M1127.09,-638.7C1146.08,-642.72 1166.52,-647.05 1184.69,-650.9"/>
<polygon fill="#63b8ff" stroke="#63b8ff" points="1184.02,-654.33 1194.53,-652.98 1185.47,-647.48 1184.02,-654.33"/>
</g>
<!-- Node30&#45;&gt;Node24 -->
<g id="edge46" class="edge">
<title>Node30&#45;&gt;Node24</title>
<path fill="none" stroke="#63b8ff" d="M1249.05,-652.73C1266.21,-630.61 1309.63,-575.17 1348,-530.5 1371.34,-503.33 1399.6,-472.86 1416.94,-454.44"/>
<polygon fill="#63b8ff" stroke="#63b8ff" points="1419.55,-456.77 1423.87,-447.1 1414.46,-451.97 1419.55,-456.77"/>
</g>
<!-- Node30&#45;&gt;Node26 -->
<g id="edge47" class="edge">
<title>Node30&#45;&gt;Node26</title>
<path fill="none" stroke="#63b8ff" d="M1312.26,-669.05C1370.58,-671.54 1454.12,-668.3 1520,-638.5 1555.3,-622.53 1585.49,-587.57 1601.58,-566.22"/>
<polygon fill="#63b8ff" stroke="#63b8ff" points="1604.51,-568.15 1607.58,-558.01 1598.85,-564.02 1604.51,-568.15"/>
</g>
<!-- Node31 -->
<g id="node31" class="node">
<title>Node31</title>
<g id="a_node31"><a xlink:href="execute__command__substitution_8c.html#a44d633c45c6a1c7a82b2fc4f1f3a1b85" target="_top" xlink:title=" ">
<polygon fill="#fff0f0" stroke="red" points="1520,-710 1348,-710 1348,-691 1520,-691 1520,-710"/>
<text text-anchor="middle" x="1434" y="-698" font-family="Helvetica,sans-Serif" font-size="10.00">execute_command_substitution</text>
</a>
</g>
</g>
<!-- Node30&#45;&gt;Node31 -->
<g id="edge43" class="edge">
<title>Node30&#45;&gt;Node31</title>
<path fill="none" stroke="#63b8ff" d="M1289.82,-672.09C1315.66,-677.22 1347.67,-683.57 1374.86,-688.96"/>
<polygon fill="#63b8ff" stroke="#63b8ff" points="1374.53,-692.47 1385.02,-690.98 1375.9,-685.6 1374.53,-692.47"/>
</g>
<!-- Node32 -->
<g id="node32" class="node">
<title>Node32</title>
<g id="a_node32"><a xlink:href="execute__command__substitution_8c.html#a075d95090572b6eefee6062c788e021f" target="_top" xlink:title=" ">
<polygon fill="white" stroke="#666666" points="1666.5,-691 1563.5,-691 1563.5,-672 1666.5,-672 1666.5,-691"/>
<text text-anchor="middle" x="1615" y="-679" font-family="Helvetica,sans-Serif" font-size="10.00">handle_fork_error</text>
</a>
</g>
</g>
<!-- Node31&#45;&gt;Node32 -->
<g id="edge44" class="edge">
<title>Node31&#45;&gt;Node32</title>
<path fill="none" stroke="#63b8ff" d="M1520.04,-691.47C1531.25,-690.28 1542.56,-689.08 1553.25,-687.95"/>
<polygon fill="#63b8ff" stroke="#63b8ff" points="1553.72,-691.42 1563.29,-686.88 1552.98,-684.46 1553.72,-691.42"/>
</g>
<!-- Node33 -->
<g id="node33" class="node">
<title>Node33</title>
<g id="a_node33"><a xlink:href="execute__command__substitution_8c.html#af0e085937d4d6fbc3feb274895606e50" target="_top" xlink:title=" ">
<polygon fill="white" stroke="#666666" points="1667,-728 1563,-728 1563,-709 1667,-709 1667,-728"/>
<text text-anchor="middle" x="1615" y="-716" font-family="Helvetica,sans-Serif" font-size="10.00">handle_pipe_error</text>
</a>
</g>
</g>
<!-- Node31&#45;&gt;Node33 -->
<g id="edge45" class="edge">
<title>Node31&#45;&gt;Node33</title>
<path fill="none" stroke="#63b8ff" d="M1520.04,-709.05C1531,-710.15 1542.05,-711.27 1552.53,-712.32"/>
<polygon fill="#63b8ff" stroke="#63b8ff" points="1552.5,-715.83 1562.8,-713.35 1553.2,-708.87 1552.5,-715.83"/>
</g>
<!-- Node124&#45;&gt;Node24 -->
<g id="edge52" class="edge">
<title>Node124&#45;&gt;Node24</title>
<path fill="none" stroke="#63b8ff" d="M1113.73,-224.96C1177.66,-233.44 1279.83,-249.71 1312,-270.5 1369.75,-307.81 1408.95,-383.12 1424.93,-418.42"/>
<polygon fill="#63b8ff" stroke="#63b8ff" points="1421.75,-419.89 1428.98,-427.63 1428.16,-417.07 1421.75,-419.89"/>
</g>
<!-- Node55 -->
<g id="node35" class="node">
<title>Node55</title>
<g id="a_node35"><a xlink:href="get__variable__value_8c.html#a2edd9900f19af236aa05385a789be3d6" target="_top" xlink:title=" ">
<polygon fill="white" stroke="#666666" points="1489,-209 1379,-209 1379,-190 1489,-190 1489,-209"/>
<text text-anchor="middle" x="1434" y="-197" font-family="Helvetica,sans-Serif" font-size="10.00">get_variable_value</text>
</a>
</g>
</g>
<!-- Node124&#45;&gt;Node55 -->
<g id="edge50" class="edge">
<title>Node124&#45;&gt;Node55</title>
<path fill="none" stroke="#63b8ff" d="M1113.84,-215.76C1181.24,-212.32 1296.56,-206.45 1368.57,-202.78"/>
<polygon fill="#63b8ff" stroke="#63b8ff" points="1369.07,-206.26 1378.87,-202.26 1368.71,-199.27 1369.07,-206.26"/>
</g>
<!-- Node125 -->
<g id="node36" class="node">
<title>Node125</title>
<g id="a_node36"><a xlink:href="lexer__expand__tilde_8c.html#aa4231a41b1e79447d6a70db7b075f937" target="_top" xlink:title=" ">
<polygon fill="white" stroke="#666666" points="1299,-171 1182,-171 1182,-152 1299,-152 1299,-171"/>
<text text-anchor="middle" x="1240.5" y="-159" font-family="Helvetica,sans-Serif" font-size="10.00">should_expand_tilde</text>
</a>
</g>
</g>
<!-- Node124&#45;&gt;Node125 -->
<g id="edge53" class="edge">
<title>Node124&#45;&gt;Node125</title>
<path fill="none" stroke="#63b8ff" d="M1090.04,-208.96C1120.07,-199.42 1166.42,-184.71 1199.54,-174.19"/>
<polygon fill="#63b8ff" stroke="#63b8ff" points="1200.89,-177.43 1209.36,-171.07 1198.77,-170.76 1200.89,-177.43"/>
</g>
<!-- Node55&#45;&gt;Node19 -->
<g id="edge51" class="edge">
<title>Node55&#45;&gt;Node19</title>
<path fill="none" stroke="#63b8ff" d="M1457.67,-189.87C1489.14,-176.51 1546.23,-152.27 1582.02,-137.08"/>
<polygon fill="#63b8ff" stroke="#63b8ff" points="1583.68,-140.18 1591.51,-133.05 1580.94,-133.73 1583.68,-140.18"/>
</g>
<!-- Node125&#45;&gt;Node126 -->
<g id="edge54" class="edge">
<title>Node125&#45;&gt;Node126</title>
<path fill="none" stroke="#63b8ff" d="M1299.22,-155.77C1317.14,-154 1337.19,-152.01 1356.19,-150.12"/>
<polygon fill="#63b8ff" stroke="#63b8ff" points="1356.72,-153.59 1366.33,-149.12 1356.03,-146.62 1356.72,-153.59"/>
</g>
<!-- Node127&#45;&gt;Node26 -->
<g id="edge67" class="edge">
<title>Node127&#45;&gt;Node26</title>
<path fill="none" stroke="#63b8ff" d="M1067.13,-484.03C1082.86,-504.15 1122.79,-550.46 1169,-567.5 1309.2,-619.18 1491.29,-582.02 1572.15,-560.69"/>
<polygon fill="#63b8ff" stroke="#63b8ff" points="1573.21,-564.02 1581.96,-558.04 1571.39,-557.27 1573.21,-564.02"/>
</g>
<!-- Node128 -->
<g id="node39" class="node">
<title>Node128</title>
<g id="a_node39"><a xlink:href="lexer__expand__variable_8c.html#abe77b7e35b276965b72648d12abae283" target="_top" xlink:title=" ">
<polygon fill="white" stroke="#666666" points="1283.5,-484 1197.5,-484 1197.5,-465 1283.5,-465 1283.5,-484"/>
<text text-anchor="middle" x="1240.5" y="-472" font-family="Helvetica,sans-Serif" font-size="10.00">append_dollar</text>
</a>
</g>
</g>
<!-- Node127&#45;&gt;Node128 -->
<g id="edge56" class="edge">
<title>Node127&#45;&gt;Node128</title>
<path fill="none" stroke="#63b8ff" d="M1122.53,-474.5C1143.64,-474.5 1166.97,-474.5 1187.2,-474.5"/>
<polygon fill="#63b8ff" stroke="#63b8ff" points="1187.47,-478 1197.47,-474.5 1187.47,-471 1187.47,-478"/>
</g>
<!-- Node129 -->
<g id="node40" class="node">
<title>Node129</title>
<g id="a_node40"><a xlink:href="lexer__expand__variable_8c.html#ab47d31838e3255a1321d85e937919d4e" target="_top" xlink:title=" ">
<polygon fill="white" stroke="#666666" points="1296,-521 1185,-521 1185,-502 1296,-502 1296,-521"/>
<text text-anchor="middle" x="1240.5" y="-509" font-family="Helvetica,sans-Serif" font-size="10.00">append_last_status</text>
</a>
</g>
</g>
<!-- Node127&#45;&gt;Node129 -->
<g id="edge58" class="edge">
<title>Node127&#45;&gt;Node129</title>
<path fill="none" stroke="#63b8ff" d="M1106.23,-484.03C1129.69,-488.86 1158.39,-494.78 1183.14,-499.88"/>
<polygon fill="#63b8ff" stroke="#63b8ff" points="1182.62,-503.35 1193.12,-501.94 1184.03,-496.49 1182.62,-503.35"/>
</g>
<!-- Node130 -->
<g id="node41" class="node">
<title>Node130</title>
<g id="a_node41"><a xlink:href="lexer__expand__variable_8c.html#a9954e7e26e9570a3c41eed4e16bf6791" target="_top" xlink:title=" ">
<polygon fill="white" stroke="#666666" points="1305.5,-447 1175.5,-447 1175.5,-428 1305.5,-428 1305.5,-447"/>
<text text-anchor="middle" x="1240.5" y="-435" font-family="Helvetica,sans-Serif" font-size="10.00">append_variable_value</text>
</a>
</g>
</g>
<!-- Node127&#45;&gt;Node130 -->
<g id="edge61" class="edge">
<title>Node127&#45;&gt;Node130</title>
<path fill="none" stroke="#63b8ff" d="M1106.23,-464.97C1129.69,-460.14 1158.39,-454.22 1183.14,-449.12"/>
<polygon fill="#63b8ff" stroke="#63b8ff" points="1184.03,-452.51 1193.12,-447.06 1182.62,-445.65 1184.03,-452.51"/>
</g>
<!-- Node131 -->
<g id="node42" class="node">
<title>Node131</title>
<g id="a_node42"><a xlink:href="lexer__expand__variable_8c.html#a1d07a8c171e69a5c58a385a75520e6c0" target="_top" xlink:title=" ">
<polygon fill="white" stroke="#666666" points="1298.5,-333.5 1182.5,-333.5 1182.5,-303.5 1298.5,-303.5 1298.5,-333.5"/>
<text text-anchor="start" x="1190.5" y="-321.5" font-family="Helvetica,sans-Serif" font-size="10.00">get_correct_variable</text>
<text text-anchor="middle" x="1240.5" y="-310.5" font-family="Helvetica,sans-Serif" font-size="10.00">_value</text>
</a>
</g>
</g>
<!-- Node127&#45;&gt;Node131 -->
<g id="edge63" class="edge">
<title>Node127&#45;&gt;Node131</title>
<path fill="none" stroke="#63b8ff" d="M1111.31,-464.96C1118.94,-462.28 1126.44,-458.87 1133,-454.5 1155.69,-439.41 1199.85,-377.19 1223.55,-342.37"/>
<polygon fill="#63b8ff" stroke="#63b8ff" points="1226.68,-343.99 1229.38,-333.75 1220.88,-340.07 1226.68,-343.99"/>
</g>
<!-- Node132 -->
<g id="node43" class="node">
<title>Node132</title>
<g id="a_node43"><a xlink:href="lexer__expand__variable_8c.html#a3674c7faac945bf9ec05a9dc00c08896" target="_top" xlink:title=" ">
<polygon fill="white" stroke="#666666" points="1306,-558 1175,-558 1175,-539 1306,-539 1306,-558"/>
<text text-anchor="middle" x="1240.5" y="-546" font-family="Helvetica,sans-Serif" font-size="10.00">get_variable_name_len</text>
</a>
</g>
</g>
<!-- Node127&#45;&gt;Node132 -->
<g id="edge65" class="edge">
<title>Node127&#45;&gt;Node132</title>
<path fill="none" stroke="#63b8ff" d="M1075.73,-484.02C1096.47,-496.22 1134.38,-517.38 1169,-530.5 1174.45,-532.57 1180.22,-534.47 1186.03,-536.21"/>
<polygon fill="#63b8ff" stroke="#63b8ff" points="1185.2,-539.61 1195.77,-538.97 1187.11,-532.87 1185.2,-539.61"/>
</g>
<!-- Node128&#45;&gt;Node24 -->
<g id="edge57" class="edge">
<title>Node128&#45;&gt;Node24</title>
<path fill="none" stroke="#63b8ff" d="M1283.53,-466.38C1310.02,-461.26 1344.63,-454.58 1373.87,-448.93"/>
<polygon fill="#63b8ff" stroke="#63b8ff" points="1374.81,-452.31 1383.96,-446.97 1373.48,-445.43 1374.81,-452.31"/>
</g>
<!-- Node129&#45;&gt;Node24 -->
<g id="edge59" class="edge">
<title>Node129&#45;&gt;Node24</title>
<path fill="none" stroke="#63b8ff" d="M1284.01,-501.99C1293.33,-499.53 1303.07,-496.67 1312,-493.5 1345.31,-481.65 1381.94,-464.01 1406.07,-451.7"/>
<polygon fill="#63b8ff" stroke="#63b8ff" points="1407.7,-454.8 1414.99,-447.11 1404.5,-448.58 1407.7,-454.8"/>
</g>
<!-- Node129&#45;&gt;Node26 -->
<g id="edge60" class="edge">
<title>Node129&#45;&gt;Node26</title>
<path fill="none" stroke="#63b8ff" d="M1296.12,-513.27C1352.42,-515.56 1442.62,-520.49 1520,-530.5 1533.13,-532.2 1547.2,-534.58 1560.34,-537.06"/>
<polygon fill="#63b8ff" stroke="#63b8ff" points="1559.7,-540.5 1570.18,-538.97 1561.03,-533.63 1559.7,-540.5"/>
</g>
<!-- Node130&#45;&gt;Node24 -->
<g id="edge62" class="edge">
<title>Node130&#45;&gt;Node24</title>
<path fill="none" stroke="#63b8ff" d="M1305.53,-437.5C1327.59,-437.5 1352.18,-437.5 1373.83,-437.5"/>
<polygon fill="#63b8ff" stroke="#63b8ff" points="1373.88,-441 1383.88,-437.5 1373.88,-434 1373.88,-441"/>
</g>
<!-- Node131&#45;&gt;Node55 -->
<g id="edge64" class="edge">
<title>Node131&#45;&gt;Node55</title>
<path fill="none" stroke="#63b8ff" d="M1265.75,-303.43C1302.59,-280.54 1372.22,-237.27 1408.94,-214.45"/>
<polygon fill="#63b8ff" stroke="#63b8ff" points="1410.88,-217.37 1417.53,-209.12 1407.18,-211.42 1410.88,-217.37"/>
</g>
<!-- Node133 -->
<g id="node44" class="node">
<title>Node133</title>
<g id="a_node44"><a xlink:href="lexer__expand__variable_8c.html#a5067193ac632b7565fd8b9ad405a525f" target="_top" xlink:title=" ">
<polygon fill="#fff0f0" stroke="red" points="1496.5,-558 1371.5,-558 1371.5,-539 1496.5,-539 1496.5,-558"/>
<text text-anchor="middle" x="1434" y="-546" font-family="Helvetica,sans-Serif" font-size="10.00">is_valid_variable_char</text>
</a>
</g>
</g>
<!-- Node132&#45;&gt;Node133 -->
<g id="edge66" class="edge">
<title>Node132&#45;&gt;Node133</title>
<path fill="none" stroke="#63b8ff" d="M1306.07,-548.5C1323.76,-548.5 1343.04,-548.5 1361.12,-548.5"/>
<polygon fill="#63b8ff" stroke="#63b8ff" points="1361.31,-552 1371.31,-548.5 1361.31,-545 1361.31,-552"/>
</g>
<!-- Node135&#45;&gt;Node26 -->
<g id="edge70" class="edge">
<title>Node135&#45;&gt;Node26</title>
<path fill="none" stroke="#63b8ff" d="M929.27,-81.6C1054.77,-70.38 1435.45,-43.78 1520,-124.5 1573.67,-175.75 1531.58,-386.42 1556,-456.5 1565.79,-484.59 1585.49,-512.95 1599.2,-530.61"/>
<polygon fill="#63b8ff" stroke="#63b8ff" points="1596.77,-533.17 1605.74,-538.81 1602.24,-528.81 1596.77,-533.17"/>
</g>
</g>
</svg>
