<?xml version="1.0" encoding="UTF-8" standalone="no"?>
<!DOCTYPE svg PUBLIC "-//W3C//DTD SVG 1.1//EN"
 "http://www.w3.org/Graphics/SVG/1.1/DTD/svg11.dtd">
<!-- Generated by graphviz version 2.43.0 (0)
 -->
<!-- Title: parse_redirection_token Pages: 1 -->
<svg width="1643pt" height="1108pt"
 viewBox="0.00 0.00 1643.00 1108.00" xmlns="http://www.w3.org/2000/svg" xmlns:xlink="http://www.w3.org/1999/xlink">
<g id="graph0" class="graph" transform="scale(1 1) rotate(0) translate(4 1104)">
<title>parse_redirection_token</title>
<!-- Node1 -->
<g id="node1" class="node">
<title>Node1</title>
<g id="a_node1"><a xlink:title=" ">
<polygon fill="#999999" stroke="#666666" points="134,-745 0,-745 0,-726 134,-726 134,-745"/>
<text text-anchor="middle" x="67" y="-733" font-family="Helvetica,sans-Serif" font-size="10.00">parse_redirection_token</text>
</a>
</g>
</g>
<!-- Node2 -->
<g id="node2" class="node">
<title>Node2</title>
<g id="a_node2"><a xlink:href="list_8h.html#a18e592f6f160bc93dbb7e5d788a6f2e1" target="_top" xlink:title=" ">
<polygon fill="white" stroke="#666666" points="284,-782 170,-782 170,-763 284,-763 284,-782"/>
<text text-anchor="middle" x="227" y="-770" font-family="Helvetica,sans-Serif" font-size="10.00">my_add_to_list_end</text>
</a>
</g>
</g>
<!-- Node1&#45;&gt;Node2 -->
<g id="edge1" class="edge">
<title>Node1&#45;&gt;Node2</title>
<path fill="none" stroke="#63b8ff" d="M108.69,-745.03C128.97,-749.78 153.71,-755.57 175.22,-760.61"/>
<polygon fill="#63b8ff" stroke="#63b8ff" points="174.64,-764.07 185.17,-762.94 176.24,-757.25 174.64,-764.07"/>
</g>
<!-- Node3 -->
<g id="node3" class="node">
<title>Node3</title>
<g id="a_node3"><a xlink:href="parser__next_8c.html#ad25986b565a767c6ad7d0b0b8846fca6" target="_top" xlink:title=" ">
<polygon fill="white" stroke="#666666" points="264,-745 190,-745 190,-726 264,-726 264,-745"/>
<text text-anchor="middle" x="227" y="-733" font-family="Helvetica,sans-Serif" font-size="10.00">parser_next</text>
</a>
</g>
</g>
<!-- Node1&#45;&gt;Node3 -->
<g id="edge2" class="edge">
<title>Node1&#45;&gt;Node3</title>
<path fill="none" stroke="#63b8ff" d="M134.09,-735.5C149.47,-735.5 165.52,-735.5 179.82,-735.5"/>
<polygon fill="#63b8ff" stroke="#63b8ff" points="179.89,-739 189.89,-735.5 179.89,-732 179.89,-739"/>
</g>
<!-- Node83 -->
<g id="node50" class="node">
<title>Node83</title>
<g id="a_node50"><a xlink:href="parser__set__error_8c.html#adcfabdb026b94fdbe4b6cbf5cb16522a" target="_top" xlink:title=" ">
<polygon fill="white" stroke="#666666" points="275,-708 179,-708 179,-689 275,-689 275,-708"/>
<text text-anchor="middle" x="227" y="-696" font-family="Helvetica,sans-Serif" font-size="10.00">parser_set_error</text>
</a>
</g>
</g>
<!-- Node1&#45;&gt;Node83 -->
<g id="edge74" class="edge">
<title>Node1&#45;&gt;Node83</title>
<path fill="none" stroke="#63b8ff" d="M108.69,-725.97C128.97,-721.22 153.71,-715.43 175.22,-710.39"/>
<polygon fill="#63b8ff" stroke="#63b8ff" points="176.24,-713.75 185.17,-708.06 174.64,-706.93 176.24,-713.75"/>
</g>
<!-- Node4 -->
<g id="node4" class="node">
<title>Node4</title>
<g id="a_node4"><a xlink:href="lexer__next__token_8c.html#a3def5432329709fb4df861d90672c510" target="_top" xlink:title=" ">
<polygon fill="white" stroke="#666666" points="420,-764 320,-764 320,-745 420,-745 420,-764"/>
<text text-anchor="middle" x="370" y="-752" font-family="Helvetica,sans-Serif" font-size="10.00">lexer_next_token</text>
</a>
</g>
</g>
<!-- Node3&#45;&gt;Node4 -->
<g id="edge3" class="edge">
<title>Node3&#45;&gt;Node4</title>
<path fill="none" stroke="#63b8ff" d="M264.31,-740.39C278.17,-742.26 294.35,-744.44 309.79,-746.52"/>
<polygon fill="#63b8ff" stroke="#63b8ff" points="309.41,-750 319.79,-747.87 310.35,-743.06 309.41,-750"/>
</g>
<!-- Node118 -->
<g id="node49" class="node">
<title>Node118</title>
<g id="a_node49"><a xlink:href="destroy__token_8c.html#ad1a471ee7b1ccb035d769be1152a370c" target="_top" xlink:title=" ">
<polygon fill="white" stroke="#666666" points="413,-727 327,-727 327,-708 413,-708 413,-727"/>
<text text-anchor="middle" x="370" y="-715" font-family="Helvetica,sans-Serif" font-size="10.00">token_destroy</text>
</a>
</g>
</g>
<!-- Node3&#45;&gt;Node118 -->
<g id="edge73" class="edge">
<title>Node3&#45;&gt;Node118</title>
<path fill="none" stroke="#63b8ff" d="M264.31,-730.86C280.27,-728.83 299.32,-726.4 316.76,-724.17"/>
<polygon fill="#63b8ff" stroke="#63b8ff" points="317.34,-727.62 326.81,-722.89 316.45,-720.68 317.34,-727.62"/>
</g>
<!-- Node5 -->
<g id="node5" class="node">
<title>Node5</title>
<g id="a_node5"><a xlink:href="create__token_8c.html#a15bcfc92177012893c626ce7d2d6bb6b" target="_top" xlink:title=" ">
<polygon fill="white" stroke="#666666" points="892,-895 812,-895 812,-876 892,-876 892,-895"/>
<text text-anchor="middle" x="852" y="-883" font-family="Helvetica,sans-Serif" font-size="10.00">create_token</text>
</a>
</g>
</g>
<!-- Node4&#45;&gt;Node5 -->
<g id="edge4" class="edge">
<title>Node4&#45;&gt;Node5</title>
<path fill="none" stroke="#63b8ff" d="M371.83,-764.09C375.27,-798.19 391.5,-914.87 456,-977.5 510.35,-1030.28 542.3,-1020.88 617,-1033.5 671.78,-1042.75 692.42,-1058.56 742,-1033.5 795.97,-1006.22 829.76,-938.24 843.68,-904.75"/>
<polygon fill="#63b8ff" stroke="#63b8ff" points="847.04,-905.78 847.5,-895.19 840.54,-903.18 847.04,-905.78"/>
</g>
<!-- Node6 -->
<g id="node6" class="node">
<title>Node6</title>
<g id="a_node6"><a xlink:href="lexer__next__token_8c.html#add2e1acaa9518ecf20b6670ad91a5c65" target="_top" xlink:title=" ">
<polygon fill="white" stroke="#666666" points="569.5,-968 467.5,-968 467.5,-949 569.5,-949 569.5,-968"/>
<text text-anchor="middle" x="518.5" y="-956" font-family="Helvetica,sans-Serif" font-size="10.00">get_logical_token</text>
</a>
</g>
</g>
<!-- Node4&#45;&gt;Node6 -->
<g id="edge5" class="edge">
<title>Node4&#45;&gt;Node6</title>
<path fill="none" stroke="#63b8ff" d="M377.87,-764.07C400.74,-795.92 474.57,-898.72 504.61,-940.55"/>
<polygon fill="#63b8ff" stroke="#63b8ff" points="501.8,-942.64 510.47,-948.72 507.48,-938.55 501.8,-942.64"/>
</g>
<!-- Node10 -->
<g id="node10" class="node">
<title>Node10</title>
<g id="a_node10"><a xlink:href="lexer__next__token_8c.html#abcee8a7ba5ea6ca80c0bd7e3dd8d9a32" target="_top" xlink:title=" ">
<polygon fill="white" stroke="#666666" points="579.5,-839 457.5,-839 457.5,-820 579.5,-820 579.5,-839"/>
<text text-anchor="middle" x="518.5" y="-827" font-family="Helvetica,sans-Serif" font-size="10.00">get_redirection_token</text>
</a>
</g>
</g>
<!-- Node4&#45;&gt;Node10 -->
<g id="edge12" class="edge">
<title>Node4&#45;&gt;Node10</title>
<path fill="none" stroke="#63b8ff" d="M389.85,-764.15C415.13,-777.09 460.19,-800.16 489.45,-815.14"/>
<polygon fill="#63b8ff" stroke="#63b8ff" points="488.22,-818.44 498.72,-819.89 491.41,-812.21 488.22,-818.44"/>
</g>
<!-- Node15 -->
<g id="node15" class="node">
<title>Node15</title>
<g id="a_node15"><a xlink:href="lexer__newline_8c.html#a9f60bf18297b9c705fa6cdff027c79fc" target="_top" xlink:title=" ">
<polygon fill="white" stroke="#666666" points="560.5,-764 476.5,-764 476.5,-745 560.5,-745 560.5,-764"/>
<text text-anchor="middle" x="518.5" y="-752" font-family="Helvetica,sans-Serif" font-size="10.00">lexer_newline</text>
</a>
</g>
</g>
<!-- Node4&#45;&gt;Node15 -->
<g id="edge21" class="edge">
<title>Node4&#45;&gt;Node15</title>
<path fill="none" stroke="#63b8ff" d="M420.19,-754.5C435.05,-754.5 451.39,-754.5 466.37,-754.5"/>
<polygon fill="#63b8ff" stroke="#63b8ff" points="466.49,-758 476.49,-754.5 466.49,-751 466.49,-758"/>
</g>
<!-- Node16 -->
<g id="node16" class="node">
<title>Node16</title>
<g id="a_node16"><a xlink:href="lexer__parenthesis_8c.html#a2b13eaa0fee255bea85bd4279f369795" target="_top" xlink:title=" ">
<polygon fill="white" stroke="#666666" points="570,-727 467,-727 467,-708 570,-708 570,-727"/>
<text text-anchor="middle" x="518.5" y="-715" font-family="Helvetica,sans-Serif" font-size="10.00">lexer_parenthesis</text>
</a>
</g>
</g>
<!-- Node4&#45;&gt;Node16 -->
<g id="edge23" class="edge">
<title>Node4&#45;&gt;Node16</title>
<path fill="none" stroke="#63b8ff" d="M408.73,-744.97C427.37,-740.26 450.05,-734.53 469.88,-729.53"/>
<polygon fill="#63b8ff" stroke="#63b8ff" points="470.81,-732.9 479.65,-727.06 469.09,-726.12 470.81,-732.9"/>
</g>
<!-- Node17 -->
<g id="node17" class="node">
<title>Node17</title>
<g id="a_node17"><a xlink:href="lexer__semicolon_8c.html#a1612109b245d9780427946e4e33b01b7" target="_top" xlink:title=" ">
<polygon fill="white" stroke="#666666" points="566.5,-1100 470.5,-1100 470.5,-1081 566.5,-1081 566.5,-1100"/>
<text text-anchor="middle" x="518.5" y="-1088" font-family="Helvetica,sans-Serif" font-size="10.00">lexer_semicolon</text>
</a>
</g>
</g>
<!-- Node4&#45;&gt;Node17 -->
<g id="edge25" class="edge">
<title>Node4&#45;&gt;Node17</title>
<path fill="none" stroke="#63b8ff" d="M370.7,-764.08C369.92,-805.75 372.29,-973.41 456,-1066.5 459.46,-1070.34 463.6,-1073.58 468.09,-1076.3"/>
<polygon fill="#63b8ff" stroke="#63b8ff" points="466.55,-1079.44 477.04,-1080.92 469.76,-1073.22 466.55,-1079.44"/>
</g>
<!-- Node18 -->
<g id="node18" class="node">
<title>Node18</title>
<g id="a_node18"><a xlink:href="lexer__word_8c.html#ac2600a9ba16009c4d8c114a118c54955" target="_top" xlink:title=" ">
<polygon fill="white" stroke="#666666" points="553.5,-689 483.5,-689 483.5,-670 553.5,-670 553.5,-689"/>
<text text-anchor="middle" x="518.5" y="-677" font-family="Helvetica,sans-Serif" font-size="10.00">lexer_word</text>
</a>
</g>
</g>
<!-- Node4&#45;&gt;Node18 -->
<g id="edge27" class="edge">
<title>Node4&#45;&gt;Node18</title>
<path fill="none" stroke="#63b8ff" d="M403.36,-744.96C409.12,-742.61 414.91,-739.81 420,-736.5 439.25,-724.01 436.52,-711.62 456,-699.5 461.44,-696.11 467.52,-693.24 473.67,-690.82"/>
<polygon fill="#63b8ff" stroke="#63b8ff" points="475.07,-694.04 483.32,-687.39 472.73,-687.44 475.07,-694.04"/>
</g>
<!-- Node131 -->
<g id="node47" class="node">
<title>Node131</title>
<g id="a_node47"><a xlink:href="lexer__next__token_8c.html#a7f0a2dd2373821667a4d5381e7711aa0" target="_top" xlink:title=" ">
<polygon fill="white" stroke="#666666" points="563,-652 474,-652 474,-633 563,-633 563,-652"/>
<text text-anchor="middle" x="518.5" y="-640" font-family="Helvetica,sans-Serif" font-size="10.00">skip_comment</text>
</a>
</g>
</g>
<!-- Node4&#45;&gt;Node131 -->
<g id="edge71" class="edge">
<title>Node4&#45;&gt;Node131</title>
<path fill="none" stroke="#63b8ff" d="M407.11,-744.96C411.79,-742.69 416.24,-739.91 420,-736.5 447.36,-711.63 428,-685.64 456,-661.5 458.66,-659.2 461.6,-657.19 464.7,-655.41"/>
<polygon fill="#63b8ff" stroke="#63b8ff" points="466.31,-658.52 473.8,-651.03 463.27,-652.22 466.31,-658.52"/>
</g>
<!-- Node132 -->
<g id="node48" class="node">
<title>Node132</title>
<g id="a_node48"><a xlink:href="lexer__next__token_8c.html#a5b2052471d98cef2998e1367f9bf8f6d" target="_top" xlink:title=" ">
<polygon fill="white" stroke="#666666" points="581,-615 456,-615 456,-596 581,-596 581,-615"/>
<text text-anchor="middle" x="518.5" y="-603" font-family="Helvetica,sans-Serif" font-size="10.00">skip_spaces_and_tabs</text>
</a>
</g>
</g>
<!-- Node4&#45;&gt;Node132 -->
<g id="edge72" class="edge">
<title>Node4&#45;&gt;Node132</title>
<path fill="none" stroke="#63b8ff" d="M408.54,-744.9C412.78,-742.66 416.74,-739.9 420,-736.5 456.21,-698.78 418.82,-661.26 456,-624.5 457.46,-623.06 459.03,-621.72 460.68,-620.49"/>
<polygon fill="#63b8ff" stroke="#63b8ff" points="462.79,-623.3 469.53,-615.13 459.17,-617.31 462.79,-623.3"/>
</g>
<!-- Node7 -->
<g id="node7" class="node">
<title>Node7</title>
<g id="a_node7"><a xlink:href="lexer__logical__and_8c.html#a59e5031d54357d65c6873edc67de2a47" target="_top" xlink:title=" ">
<polygon fill="white" stroke="#666666" points="730,-950 629,-950 629,-931 730,-931 730,-950"/>
<text text-anchor="middle" x="679.5" y="-938" font-family="Helvetica,sans-Serif" font-size="10.00">lexer_logical_and</text>
</a>
</g>
</g>
<!-- Node6&#45;&gt;Node7 -->
<g id="edge6" class="edge">
<title>Node6&#45;&gt;Node7</title>
<path fill="none" stroke="#63b8ff" d="M569.81,-952.8C585.26,-951.06 602.41,-949.11 618.45,-947.3"/>
<polygon fill="#63b8ff" stroke="#63b8ff" points="619.25,-950.73 628.79,-946.13 618.46,-943.77 619.25,-950.73"/>
</g>
<!-- Node8 -->
<g id="node8" class="node">
<title>Node8</title>
<g id="a_node8"><a xlink:href="lexer__logical__or_8c.html#ac3851eaea27bd5774b126b888bdddf93" target="_top" xlink:title=" ">
<polygon fill="white" stroke="#666666" points="726,-1024 633,-1024 633,-1005 726,-1005 726,-1024"/>
<text text-anchor="middle" x="679.5" y="-1012" font-family="Helvetica,sans-Serif" font-size="10.00">lexer_logical_or</text>
</a>
</g>
</g>
<!-- Node6&#45;&gt;Node8 -->
<g id="edge8" class="edge">
<title>Node6&#45;&gt;Node8</title>
<path fill="none" stroke="#63b8ff" d="M542.54,-968.13C562.16,-976.18 591.2,-987.72 617,-996.5 622.53,-998.38 628.38,-1000.25 634.19,-1002.03"/>
<polygon fill="#63b8ff" stroke="#63b8ff" points="633.27,-1005.41 643.86,-1004.93 635.28,-998.71 633.27,-1005.41"/>
</g>
<!-- Node9 -->
<g id="node9" class="node">
<title>Node9</title>
<g id="a_node9"><a xlink:href="lexer__pipe_8c.html#a693816e38802a086de64c09cb7cebeb7" target="_top" xlink:title=" ">
<polygon fill="white" stroke="#666666" points="713,-987 646,-987 646,-968 713,-968 713,-987"/>
<text text-anchor="middle" x="679.5" y="-975" font-family="Helvetica,sans-Serif" font-size="10.00">lexer_pipe</text>
</a>
</g>
</g>
<!-- Node6&#45;&gt;Node9 -->
<g id="edge10" class="edge">
<title>Node6&#45;&gt;Node9</title>
<path fill="none" stroke="#63b8ff" d="M569.81,-964.51C590.88,-967.03 615.13,-969.93 635.37,-972.35"/>
<polygon fill="#63b8ff" stroke="#63b8ff" points="635.21,-975.85 645.56,-973.56 636.04,-968.9 635.21,-975.85"/>
</g>
<!-- Node7&#45;&gt;Node5 -->
<g id="edge7" class="edge">
<title>Node7&#45;&gt;Node5</title>
<path fill="none" stroke="#63b8ff" d="M714.09,-930.95C723.17,-928.29 732.98,-925.35 742,-922.5 766.18,-914.86 793.17,-905.7 814.25,-898.41"/>
<polygon fill="#63b8ff" stroke="#63b8ff" points="815.48,-901.69 823.78,-895.1 813.19,-895.07 815.48,-901.69"/>
</g>
<!-- Node8&#45;&gt;Node5 -->
<g id="edge9" class="edge">
<title>Node8&#45;&gt;Node5</title>
<path fill="none" stroke="#63b8ff" d="M723.7,-1004.92C730.07,-1002.65 736.37,-999.87 742,-996.5 783.27,-971.78 819.88,-927.72 838.33,-903.2"/>
<polygon fill="#63b8ff" stroke="#63b8ff" points="841.17,-905.25 844.29,-895.13 835.54,-901.1 841.17,-905.25"/>
</g>
<!-- Node9&#45;&gt;Node5 -->
<g id="edge11" class="edge">
<title>Node9&#45;&gt;Node5</title>
<path fill="none" stroke="#63b8ff" d="M713.12,-970C722.65,-967.26 732.94,-963.77 742,-959.5 775.82,-943.55 810.9,-917.8 831.83,-901.26"/>
<polygon fill="#63b8ff" stroke="#63b8ff" points="834.03,-903.99 839.64,-895 829.65,-898.53 834.03,-903.99"/>
</g>
<!-- Node11 -->
<g id="node11" class="node">
<title>Node11</title>
<g id="a_node11"><a xlink:href="lexer__heredoc_8c.html#a9db043b0e8df9ad1155a65a8fcf67c11" target="_top" xlink:title=" ">
<polygon fill="white" stroke="#666666" points="722,-839 637,-839 637,-820 722,-820 722,-839"/>
<text text-anchor="middle" x="679.5" y="-827" font-family="Helvetica,sans-Serif" font-size="10.00">lexer_heredoc</text>
</a>
</g>
</g>
<!-- Node10&#45;&gt;Node11 -->
<g id="edge13" class="edge">
<title>Node10&#45;&gt;Node11</title>
<path fill="none" stroke="#63b8ff" d="M579.61,-829.5C595.04,-829.5 611.52,-829.5 626.5,-829.5"/>
<polygon fill="#63b8ff" stroke="#63b8ff" points="626.61,-833 636.61,-829.5 626.61,-826 626.61,-833"/>
</g>
<!-- Node12 -->
<g id="node12" class="node">
<title>Node12</title>
<g id="a_node12"><a xlink:href="lexer__redirect__append_8c.html#a09beefbfaf132dbe04add1370a6fb2e3" target="_top" xlink:title=" ">
<polygon fill="white" stroke="#666666" points="742,-802 617,-802 617,-783 742,-783 742,-802"/>
<text text-anchor="middle" x="679.5" y="-790" font-family="Helvetica,sans-Serif" font-size="10.00">lexer_redirect_append</text>
</a>
</g>
</g>
<!-- Node10&#45;&gt;Node12 -->
<g id="edge15" class="edge">
<title>Node10&#45;&gt;Node12</title>
<path fill="none" stroke="#63b8ff" d="M560.45,-819.97C580.86,-815.22 605.75,-809.43 627.4,-804.39"/>
<polygon fill="#63b8ff" stroke="#63b8ff" points="628.47,-807.74 637.42,-802.06 626.88,-800.92 628.47,-807.74"/>
</g>
<!-- Node13 -->
<g id="node13" class="node">
<title>Node13</title>
<g id="a_node13"><a xlink:href="lexer__redirect__in_8c.html#ac723d9668329d99b35003ed2423889e5" target="_top" xlink:title=" ">
<polygon fill="white" stroke="#666666" points="728.5,-913 630.5,-913 630.5,-894 728.5,-894 728.5,-913"/>
<text text-anchor="middle" x="679.5" y="-901" font-family="Helvetica,sans-Serif" font-size="10.00">lexer_redirect_in</text>
</a>
</g>
</g>
<!-- Node10&#45;&gt;Node13 -->
<g id="edge17" class="edge">
<title>Node10&#45;&gt;Node13</title>
<path fill="none" stroke="#63b8ff" d="M533.8,-839.17C552.33,-851.34 585.94,-872.25 617,-885.5 621.44,-887.39 626.13,-889.16 630.87,-890.79"/>
<polygon fill="#63b8ff" stroke="#63b8ff" points="630.01,-894.19 640.6,-893.94 632.17,-887.53 630.01,-894.19"/>
</g>
<!-- Node14 -->
<g id="node14" class="node">
<title>Node14</title>
<g id="a_node14"><a xlink:href="lexer__redirect__out_8c.html#a70e2216639c96030b3861405ae3497c6" target="_top" xlink:title=" ">
<polygon fill="white" stroke="#666666" points="731.5,-876 627.5,-876 627.5,-857 731.5,-857 731.5,-876"/>
<text text-anchor="middle" x="679.5" y="-864" font-family="Helvetica,sans-Serif" font-size="10.00">lexer_redirect_out</text>
</a>
</g>
</g>
<!-- Node10&#45;&gt;Node14 -->
<g id="edge19" class="edge">
<title>Node10&#45;&gt;Node14</title>
<path fill="none" stroke="#63b8ff" d="M560.45,-839.03C580.86,-843.78 605.75,-849.57 627.4,-854.61"/>
<polygon fill="#63b8ff" stroke="#63b8ff" points="626.88,-858.08 637.42,-856.94 628.47,-851.26 626.88,-858.08"/>
</g>
<!-- Node11&#45;&gt;Node5 -->
<g id="edge14" class="edge">
<title>Node11&#45;&gt;Node5</title>
<path fill="none" stroke="#63b8ff" d="M712.16,-839.1C721.76,-842.06 732.33,-845.36 742,-848.5 765.96,-856.27 792.75,-865.35 813.77,-872.58"/>
<polygon fill="#63b8ff" stroke="#63b8ff" points="812.7,-875.91 823.29,-875.86 814.98,-869.29 812.7,-875.91"/>
</g>
<!-- Node12&#45;&gt;Node5 -->
<g id="edge16" class="edge">
<title>Node12&#45;&gt;Node5</title>
<path fill="none" stroke="#63b8ff" d="M717.6,-802.01C725.82,-804.65 734.35,-807.82 742,-811.5 775.52,-827.61 810.43,-853.11 831.44,-869.57"/>
<polygon fill="#63b8ff" stroke="#63b8ff" points="829.29,-872.33 839.3,-875.81 833.65,-866.85 829.29,-872.33"/>
</g>
<!-- Node13&#45;&gt;Node5 -->
<g id="edge18" class="edge">
<title>Node13&#45;&gt;Node5</title>
<path fill="none" stroke="#63b8ff" d="M728.9,-898.39C751.7,-895.98 778.85,-893.12 801.75,-890.7"/>
<polygon fill="#63b8ff" stroke="#63b8ff" points="802.36,-894.15 811.94,-889.62 801.63,-887.19 802.36,-894.15"/>
</g>
<!-- Node14&#45;&gt;Node5 -->
<g id="edge20" class="edge">
<title>Node14&#45;&gt;Node5</title>
<path fill="none" stroke="#63b8ff" d="M731.66,-872.2C753.84,-874.67 779.72,-877.56 801.69,-880.01"/>
<polygon fill="#63b8ff" stroke="#63b8ff" points="801.48,-883.5 811.81,-881.13 802.26,-876.55 801.48,-883.5"/>
</g>
<!-- Node15&#45;&gt;Node5 -->
<g id="edge22" class="edge">
<title>Node15&#45;&gt;Node5</title>
<path fill="none" stroke="#63b8ff" d="M560.67,-749.99C607.07,-746.72 683.63,-746.87 742,-774.5 785.92,-795.29 821.94,-841.68 839.47,-867.42"/>
<polygon fill="#63b8ff" stroke="#63b8ff" points="836.64,-869.48 845.08,-875.88 842.48,-865.61 836.64,-869.48"/>
</g>
<!-- Node16&#45;&gt;Node5 -->
<g id="edge24" class="edge">
<title>Node16&#45;&gt;Node5</title>
<path fill="none" stroke="#63b8ff" d="M570.21,-712.93C617.69,-711.02 689.05,-714.41 742,-744.5 792.27,-773.07 827.23,-835.06 842.45,-866.46"/>
<polygon fill="#63b8ff" stroke="#63b8ff" points="839.43,-868.27 846.84,-875.84 845.77,-865.3 839.43,-868.27"/>
</g>
<!-- Node17&#45;&gt;Node5 -->
<g id="edge26" class="edge">
<title>Node17&#45;&gt;Node5</title>
<path fill="none" stroke="#63b8ff" d="M566.9,-1096.94C614.86,-1100.97 689.27,-1100.16 742,-1066.5 802.22,-1028.06 833.9,-943.34 845.61,-905.01"/>
<polygon fill="#63b8ff" stroke="#63b8ff" points="849.06,-905.69 848.5,-895.11 842.34,-903.72 849.06,-905.69"/>
</g>
<!-- Node18&#45;&gt;Node5 -->
<g id="edge28" class="edge">
<title>Node18&#45;&gt;Node5</title>
<path fill="none" stroke="#63b8ff" d="M553.84,-675.35C600.38,-671.52 684.27,-671.15 742,-708.5 800.74,-746.5 833.02,-828.45 845.23,-866"/>
<polygon fill="#63b8ff" stroke="#63b8ff" points="841.95,-867.23 848.27,-875.73 848.63,-865.14 841.95,-867.23"/>
</g>
<!-- Node19 -->
<g id="node19" class="node">
<title>Node19</title>
<g id="a_node19"><a xlink:href="lexer__word_8c.html#a730574257743b09386cadd2ccbfe4d13" target="_top" xlink:title=" ">
<polygon fill="white" stroke="#666666" points="740.5,-339 618.5,-339 618.5,-320 740.5,-320 740.5,-339"/>
<text text-anchor="middle" x="679.5" y="-327" font-family="Helvetica,sans-Serif" font-size="10.00">handle_current_token</text>
</a>
</g>
</g>
<!-- Node18&#45;&gt;Node19 -->
<g id="edge29" class="edge">
<title>Node18&#45;&gt;Node19</title>
<path fill="none" stroke="#63b8ff" d="M553.65,-675.79C563.56,-673.19 573.68,-668.81 581,-661.5 670.26,-572.32 678.68,-406 678.83,-349.14"/>
<polygon fill="#63b8ff" stroke="#63b8ff" points="682.33,-348.99 678.77,-339.01 675.33,-349.04 682.33,-348.99"/>
</g>
<!-- Node122 -->
<g id="node39" class="node">
<title>Node122</title>
<g id="a_node39"><a xlink:href="lexer__is__word__separator_8c.html#abccfc6fc0cdbd040fc9a7dcbfd207090" target="_top" xlink:title=" ">
<polygon fill="white" stroke="#666666" points="1294.5,-631 1159.5,-631 1159.5,-612 1294.5,-612 1294.5,-631"/>
<text text-anchor="middle" x="1227" y="-619" font-family="Helvetica,sans-Serif" font-size="10.00">lexer_is_word_separator</text>
</a>
</g>
</g>
<!-- Node18&#45;&gt;Node122 -->
<g id="edge70" class="edge">
<title>Node18&#45;&gt;Node122</title>
<path fill="none" stroke="#63b8ff" d="M553.77,-675.79C572.45,-673.81 595.99,-671.41 617,-669.5 808.22,-652.16 1033.54,-635.34 1149.11,-626.98"/>
<polygon fill="#63b8ff" stroke="#63b8ff" points="1149.55,-630.45 1159.27,-626.24 1149.04,-623.47 1149.55,-630.45"/>
</g>
<!-- Node20 -->
<g id="node20" class="node">
<title>Node20</title>
<g id="a_node20"><a xlink:href="lexer__word_8c.html#acd8f2a3c47fa56f87c2792ccefd2ee3e" target="_top" xlink:title=" ">
<polygon fill="white" stroke="#666666" points="912.5,-404 791.5,-404 791.5,-385 912.5,-385 912.5,-404"/>
<text text-anchor="middle" x="852" y="-392" font-family="Helvetica,sans-Serif" font-size="10.00">handle_double_quote</text>
</a>
</g>
</g>
<!-- Node19&#45;&gt;Node20 -->
<g id="edge30" class="edge">
<title>Node19&#45;&gt;Node20</title>
<path fill="none" stroke="#63b8ff" d="M697.64,-339.11C716.76,-349.51 748.83,-366 778,-376.5 783.8,-378.59 789.95,-380.52 796.12,-382.28"/>
<polygon fill="#63b8ff" stroke="#63b8ff" points="795.21,-385.66 805.78,-384.9 797.05,-378.9 795.21,-385.66"/>
</g>
<!-- Node21 -->
<g id="node21" class="node">
<title>Node21</title>
<g id="a_node21"><a xlink:href="lexer__word_8c.html#a733339142f4677a066646a12a7e5bec4" target="_top" xlink:title=" ">
<polygon fill="white" stroke="#666666" points="1104,-302 963,-302 963,-283 1104,-283 1104,-302"/>
<text text-anchor="middle" x="1033.5" y="-290" font-family="Helvetica,sans-Serif" font-size="10.00">handle_escape_sequence</text>
</a>
</g>
</g>
<!-- Node19&#45;&gt;Node21 -->
<g id="edge31" class="edge">
<title>Node19&#45;&gt;Node21</title>
<path fill="none" stroke="#63b8ff" d="M740.61,-323.18C799.14,-317.03 888.44,-307.64 952.85,-300.87"/>
<polygon fill="#63b8ff" stroke="#63b8ff" points="953.39,-304.34 962.97,-299.81 952.66,-297.37 953.39,-304.34"/>
</g>
<!-- Node25 -->
<g id="node25" class="node">
<title>Node25</title>
<g id="a_node25"><a xlink:href="lexer__word_8c.html#a3ae03e49183787e7cf32c90ffdef7351" target="_top" xlink:title=" ">
<polygon fill="white" stroke="#666666" points="910.5,-268 793.5,-268 793.5,-249 910.5,-249 910.5,-268"/>
<text text-anchor="middle" x="852" y="-256" font-family="Helvetica,sans-Serif" font-size="10.00">handle_single_quote</text>
</a>
</g>
</g>
<!-- Node19&#45;&gt;Node25 -->
<g id="edge35" class="edge">
<title>Node19&#45;&gt;Node25</title>
<path fill="none" stroke="#63b8ff" d="M702.11,-319.98C721.82,-311.35 751.77,-298.36 778,-287.5 790.63,-282.27 804.55,-276.7 816.83,-271.84"/>
<polygon fill="#63b8ff" stroke="#63b8ff" points="818.24,-275.05 826.26,-268.12 815.68,-268.53 818.24,-275.05"/>
</g>
<!-- Node26 -->
<g id="node26" class="node">
<title>Node26</title>
<g id="a_node26"><a xlink:href="lexer__utils_8c.html#a2ba6f7e43ecbf713c666ab062eac534c" target="_top" xlink:title=" ">
<polygon fill="white" stroke="#666666" points="926,-210 778,-210 778,-191 926,-191 926,-210"/>
<text text-anchor="middle" x="852" y="-198" font-family="Helvetica,sans-Serif" font-size="10.00">lexer_append_current_char</text>
</a>
</g>
</g>
<!-- Node19&#45;&gt;Node26 -->
<g id="edge37" class="edge">
<title>Node19&#45;&gt;Node26</title>
<path fill="none" stroke="#63b8ff" d="M689.54,-319.85C706.03,-302.58 742.57,-265.82 778,-240.5 791.56,-230.8 807.73,-221.72 821.4,-214.67"/>
<polygon fill="#63b8ff" stroke="#63b8ff" points="823.04,-217.76 830.4,-210.13 819.89,-211.51 823.04,-217.76"/>
</g>
<!-- Node27 -->
<g id="node27" class="node">
<title>Node27</title>
<g id="a_node27"><a xlink:href="lexer__expand__command__substitution_8c.html#aad26825e6ecc7617687abd601366b15d" target="_top" xlink:title=" ">
<polygon fill="white" stroke="#666666" points="920,-155.5 784,-155.5 784,-125.5 920,-125.5 920,-155.5"/>
<text text-anchor="start" x="792" y="-143.5" font-family="Helvetica,sans-Serif" font-size="10.00">lexer_expand_command</text>
<text text-anchor="middle" x="852" y="-132.5" font-family="Helvetica,sans-Serif" font-size="10.00">_substitution</text>
</a>
</g>
</g>
<!-- Node19&#45;&gt;Node27 -->
<g id="edge39" class="edge">
<title>Node19&#45;&gt;Node27</title>
<path fill="none" stroke="#63b8ff" d="M684.9,-319.71C696.75,-294.21 731.62,-224.71 778,-181.5 786.64,-173.45 797.14,-166.39 807.46,-160.49"/>
<polygon fill="#63b8ff" stroke="#63b8ff" points="809.31,-163.46 816.42,-155.61 805.97,-157.31 809.31,-163.46"/>
</g>
<!-- Node120 -->
<g id="node35" class="node">
<title>Node120</title>
<g id="a_node35"><a xlink:href="lexer__expand__tilde_8c.html#ae3c478a10a2764ee7c7f94b42f28ecaf" target="_top" xlink:title=" ">
<polygon fill="white" stroke="#666666" points="906.5,-555 797.5,-555 797.5,-536 906.5,-536 906.5,-555"/>
<text text-anchor="middle" x="852" y="-543" font-family="Helvetica,sans-Serif" font-size="10.00">lexer_expand_tilde</text>
</a>
</g>
</g>
<!-- Node19&#45;&gt;Node120 -->
<g id="edge51" class="edge">
<title>Node19&#45;&gt;Node120</title>
<path fill="none" stroke="#63b8ff" d="M688.05,-339.06C714.33,-372.36 802.16,-483.63 836.79,-527.5"/>
<polygon fill="#63b8ff" stroke="#63b8ff" points="834.21,-529.88 843.15,-535.56 839.7,-525.54 834.21,-529.88"/>
</g>
<!-- Node123 -->
<g id="node40" class="node">
<title>Node123</title>
<g id="a_node40"><a xlink:href="lexer__expand__variable_8c.html#a01ad90eb8460a612626bb33c9e15cd52" target="_top" xlink:title=" ">
<polygon fill="white" stroke="#666666" points="915.5,-367 788.5,-367 788.5,-348 915.5,-348 915.5,-367"/>
<text text-anchor="middle" x="852" y="-355" font-family="Helvetica,sans-Serif" font-size="10.00">lexer_expand_variable</text>
</a>
</g>
</g>
<!-- Node19&#45;&gt;Node123 -->
<g id="edge57" class="edge">
<title>Node19&#45;&gt;Node123</title>
<path fill="none" stroke="#63b8ff" d="M738.7,-339.06C752.97,-341.4 768.36,-343.93 783.04,-346.34"/>
<polygon fill="#63b8ff" stroke="#63b8ff" points="782.63,-349.82 793.06,-347.99 783.76,-342.91 782.63,-349.82"/>
</g>
<!-- Node22 -->
<g id="node22" class="node">
<title>Node22</title>
<g id="a_node22"><a xlink:href="lexer__utils_8c.html#abf1c1b3b6033c8f9c8d1b11cc9e14f75" target="_top" xlink:title=" ">
<polygon fill="white" stroke="#666666" points="1277,-293 1177,-293 1177,-274 1277,-274 1277,-293"/>
<text text-anchor="middle" x="1227" y="-281" font-family="Helvetica,sans-Serif" font-size="10.00">lexer_append_str</text>
</a>
</g>
</g>
<!-- Node21&#45;&gt;Node22 -->
<g id="edge32" class="edge">
<title>Node21&#45;&gt;Node22</title>
<path fill="none" stroke="#63b8ff" d="M1104.18,-289.23C1124.67,-288.26 1146.88,-287.22 1166.66,-286.29"/>
<polygon fill="#63b8ff" stroke="#63b8ff" points="1166.94,-289.78 1176.76,-285.81 1166.61,-282.79 1166.94,-289.78"/>
</g>
<!-- Node23 -->
<g id="node23" class="node">
<title>Node23</title>
<g id="a_node23"><a xlink:href="strings_8h.html#a5e1589f073ac32d227dbc6020c376dab" target="_top" xlink:title=" ">
<polygon fill="white" stroke="#666666" points="1635,-216 1534,-216 1534,-197 1635,-197 1635,-216"/>
<text text-anchor="middle" x="1584.5" y="-204" font-family="Helvetica,sans-Serif" font-size="10.00">append_to_buffer</text>
</a>
</g>
</g>
<!-- Node22&#45;&gt;Node23 -->
<g id="edge33" class="edge">
<title>Node22&#45;&gt;Node23</title>
<path fill="none" stroke="#63b8ff" d="M1277.25,-277.03C1331.74,-269.34 1421.91,-255.05 1498,-235.5 1515.06,-231.12 1533.62,-224.99 1549.07,-219.5"/>
<polygon fill="#63b8ff" stroke="#63b8ff" points="1550.52,-222.7 1558.73,-216.01 1548.14,-216.12 1550.52,-222.7"/>
</g>
<!-- Node24 -->
<g id="node24" class="node">
<title>Node24</title>
<g id="a_node24"><a xlink:href="lexer__utils_8c.html#a84e8d5514cfe03a20152ad26f170211f" target="_top" xlink:title=" ">
<polygon fill="white" stroke="#666666" points="1482.5,-226 1364.5,-226 1364.5,-207 1482.5,-207 1482.5,-226"/>
<text text-anchor="middle" x="1423.5" y="-214" font-family="Helvetica,sans-Serif" font-size="10.00">lexer_set_alloc_error</text>
</a>
</g>
</g>
<!-- Node22&#45;&gt;Node24 -->
<g id="edge34" class="edge">
<title>Node22&#45;&gt;Node24</title>
<path fill="none" stroke="#63b8ff" d="M1255.87,-273.9C1289.81,-262.21 1347.28,-242.41 1385.06,-229.4"/>
<polygon fill="#63b8ff" stroke="#63b8ff" points="1386.37,-232.65 1394.68,-226.08 1384.09,-226.03 1386.37,-232.65"/>
</g>
<!-- Node25&#45;&gt;Node22 -->
<g id="edge36" class="edge">
<title>Node25&#45;&gt;Node22</title>
<path fill="none" stroke="#63b8ff" d="M910.56,-261.98C961.65,-265.1 1038.31,-269.9 1105,-274.5 1125.13,-275.89 1147.14,-277.5 1166.8,-278.97"/>
<polygon fill="#63b8ff" stroke="#63b8ff" points="1166.62,-282.46 1176.85,-279.72 1167.14,-275.48 1166.62,-282.46"/>
</g>
<!-- Node26&#45;&gt;Node22 -->
<g id="edge38" class="edge">
<title>Node26&#45;&gt;Node22</title>
<path fill="none" stroke="#63b8ff" d="M895.79,-210.02C964.32,-225.27 1098.56,-255.14 1173.04,-271.71"/>
<polygon fill="#63b8ff" stroke="#63b8ff" points="1172.62,-275.21 1183.14,-273.96 1174.14,-268.37 1172.62,-275.21"/>
</g>
<!-- Node27&#45;&gt;Node24 -->
<g id="edge50" class="edge">
<title>Node27&#45;&gt;Node24</title>
<path fill="none" stroke="#63b8ff" d="M920,-149.44C1029.21,-164.01 1244.39,-192.73 1354.34,-207.4"/>
<polygon fill="#63b8ff" stroke="#63b8ff" points="1353.95,-210.88 1364.32,-208.74 1354.87,-203.94 1353.95,-210.88"/>
</g>
<!-- Node28 -->
<g id="node28" class="node">
<title>Node28</title>
<g id="a_node28"><a xlink:href="lexer__expand__command__substitution_8c.html#ad31353a5e4ff94d4ffc515367ef29625" target="_top" xlink:title=" ">
<polygon fill="white" stroke="#666666" points="1105,-112 962,-112 962,-93 1105,-93 1105,-112"/>
<text text-anchor="middle" x="1033.5" y="-100" font-family="Helvetica,sans-Serif" font-size="10.00">append_command_output</text>
</a>
</g>
</g>
<!-- Node27&#45;&gt;Node28 -->
<g id="edge40" class="edge">
<title>Node27&#45;&gt;Node28</title>
<path fill="none" stroke="#63b8ff" d="M920.09,-126.3C939.08,-122.28 959.52,-117.95 977.69,-114.1"/>
<polygon fill="#63b8ff" stroke="#63b8ff" points="978.47,-117.52 987.53,-112.02 977.02,-110.67 978.47,-117.52"/>
</g>
<!-- Node28&#45;&gt;Node22 -->
<g id="edge48" class="edge">
<title>Node28&#45;&gt;Node22</title>
<path fill="none" stroke="#63b8ff" d="M1046.15,-112.4C1060.28,-124.48 1084.71,-145.63 1105,-164.5 1143.02,-199.86 1186.03,-242.93 1209.15,-266.34"/>
<polygon fill="#63b8ff" stroke="#63b8ff" points="1206.94,-269.08 1216.45,-273.75 1211.93,-264.17 1206.94,-269.08"/>
</g>
<!-- Node28&#45;&gt;Node24 -->
<g id="edge49" class="edge">
<title>Node28&#45;&gt;Node24</title>
<path fill="none" stroke="#63b8ff" d="M1105.26,-93.13C1164.54,-88.74 1249.42,-90.8 1313,-126.5 1336.56,-139.73 1328.74,-157.62 1349,-175.5 1361.28,-186.34 1376.91,-195.55 1390.59,-202.48"/>
<polygon fill="#63b8ff" stroke="#63b8ff" points="1389.16,-205.67 1399.68,-206.9 1392.22,-199.38 1389.16,-205.67"/>
</g>
<!-- Node29 -->
<g id="node29" class="node">
<title>Node29</title>
<g id="a_node29"><a xlink:href="execute__command__substitution_8c.html#a44d633c45c6a1c7a82b2fc4f1f3a1b85" target="_top" xlink:title=" ">
<polygon fill="#fff0f0" stroke="red" points="1313,-74 1141,-74 1141,-55 1313,-55 1313,-74"/>
<text text-anchor="middle" x="1227" y="-62" font-family="Helvetica,sans-Serif" font-size="10.00">execute_command_substitution</text>
</a>
</g>
</g>
<!-- Node28&#45;&gt;Node29 -->
<g id="edge41" class="edge">
<title>Node28&#45;&gt;Node29</title>
<path fill="none" stroke="#63b8ff" d="M1082.82,-92.91C1108.66,-87.78 1140.67,-81.43 1167.86,-76.04"/>
<polygon fill="#63b8ff" stroke="#63b8ff" points="1168.9,-79.4 1178.02,-74.02 1167.53,-72.53 1168.9,-79.4"/>
</g>
<!-- Node30 -->
<g id="node30" class="node">
<title>Node30</title>
<g id="a_node30"><a xlink:href="execute__command__substitution_8c.html#a075d95090572b6eefee6062c788e021f" target="_top" xlink:title=" ">
<polygon fill="white" stroke="#666666" points="1475,-93 1372,-93 1372,-74 1475,-74 1475,-93"/>
<text text-anchor="middle" x="1423.5" y="-81" font-family="Helvetica,sans-Serif" font-size="10.00">handle_fork_error</text>
</a>
</g>
</g>
<!-- Node29&#45;&gt;Node30 -->
<g id="edge42" class="edge">
<title>Node29&#45;&gt;Node30</title>
<path fill="none" stroke="#63b8ff" d="M1313.03,-72.81C1329.31,-74.4 1346.05,-76.03 1361.39,-77.53"/>
<polygon fill="#63b8ff" stroke="#63b8ff" points="1361.48,-81.06 1371.77,-78.54 1362.16,-74.09 1361.48,-81.06"/>
</g>
<!-- Node31 -->
<g id="node31" class="node">
<title>Node31</title>
<g id="a_node31"><a xlink:href="execute__command__substitution_8c.html#af0e085937d4d6fbc3feb274895606e50" target="_top" xlink:title=" ">
<polygon fill="white" stroke="#666666" points="1475.5,-56 1371.5,-56 1371.5,-37 1475.5,-37 1475.5,-56"/>
<text text-anchor="middle" x="1423.5" y="-44" font-family="Helvetica,sans-Serif" font-size="10.00">handle_pipe_error</text>
</a>
</g>
</g>
<!-- Node29&#45;&gt;Node31 -->
<g id="edge43" class="edge">
<title>Node29&#45;&gt;Node31</title>
<path fill="none" stroke="#63b8ff" d="M1313.03,-56.63C1329.22,-55.13 1345.88,-53.59 1361.16,-52.18"/>
<polygon fill="#63b8ff" stroke="#63b8ff" points="1361.86,-55.63 1371.49,-51.22 1361.21,-48.66 1361.86,-55.63"/>
</g>
<!-- Node32 -->
<g id="node32" class="node">
<title>Node32</title>
<g id="a_node32"><a xlink:href="execute__command__substitution_8c.html#aebaa8b3d8f96bd07e2efb13393b1fa13" target="_top" xlink:title=" ">
<polygon fill="white" stroke="#666666" points="1474,-130 1373,-130 1373,-111 1474,-111 1474,-130"/>
<text text-anchor="middle" x="1423.5" y="-118" font-family="Helvetica,sans-Serif" font-size="10.00">read_pipe_output</text>
</a>
</g>
</g>
<!-- Node29&#45;&gt;Node32 -->
<g id="edge44" class="edge">
<title>Node29&#45;&gt;Node32</title>
<path fill="none" stroke="#63b8ff" d="M1264.15,-74.1C1279.32,-78.28 1297.09,-83.39 1313,-88.5 1329.2,-93.7 1332.75,-96.48 1349,-101.5 1356.7,-103.88 1364.91,-106.21 1372.96,-108.37"/>
<polygon fill="#63b8ff" stroke="#63b8ff" points="1372.08,-111.76 1382.64,-110.92 1373.86,-104.99 1372.08,-111.76"/>
</g>
<!-- Node33 -->
<g id="node33" class="node">
<title>Node33</title>
<g id="a_node33"><a xlink:href="execute__command__substitution_8c.html#a49d3b6ea9dfddcfae1e4193b46064722" target="_top" xlink:title=" ">
<polygon fill="white" stroke="#666666" points="1486.5,-19 1360.5,-19 1360.5,0 1486.5,0 1486.5,-19"/>
<text text-anchor="middle" x="1423.5" y="-7" font-family="Helvetica,sans-Serif" font-size="10.00">remove_end_newlines</text>
</a>
</g>
</g>
<!-- Node29&#45;&gt;Node33 -->
<g id="edge46" class="edge">
<title>Node29&#45;&gt;Node33</title>
<path fill="none" stroke="#63b8ff" d="M1257.7,-54.91C1282.11,-47.14 1317.65,-36.12 1349,-27.5 1356.31,-25.49 1364.06,-23.47 1371.68,-21.55"/>
<polygon fill="#63b8ff" stroke="#63b8ff" points="1372.71,-24.9 1381.57,-19.09 1371.02,-18.11 1372.71,-24.9"/>
</g>
<!-- Node34 -->
<g id="node34" class="node">
<title>Node34</title>
<g id="a_node34"><a xlink:href="execute__command__substitution_8c.html#a230d3e2be0c3d7360a8cf2a810878cf2" target="_top" xlink:title=" ">
<polygon fill="#fff0f0" stroke="red" points="1498,-167 1349,-167 1349,-148 1498,-148 1498,-167"/>
<text text-anchor="middle" x="1423.5" y="-155" font-family="Helvetica,sans-Serif" font-size="10.00">run_command_substitution</text>
</a>
</g>
</g>
<!-- Node29&#45;&gt;Node34 -->
<g id="edge47" class="edge">
<title>Node29&#45;&gt;Node34</title>
<path fill="none" stroke="#63b8ff" d="M1282.6,-74.06C1293.28,-77.5 1303.96,-82.17 1313,-88.5 1335.43,-104.21 1326.4,-123.04 1349,-138.5 1351.92,-140.49 1355.03,-142.28 1358.26,-143.88"/>
<polygon fill="#63b8ff" stroke="#63b8ff" points="1357.07,-147.18 1367.64,-147.9 1359.83,-140.74 1357.07,-147.18"/>
</g>
<!-- Node32&#45;&gt;Node23 -->
<g id="edge45" class="edge">
<title>Node32&#45;&gt;Node23</title>
<path fill="none" stroke="#63b8ff" d="M1474.17,-129.55C1482.34,-131.91 1490.57,-134.86 1498,-138.5 1524.39,-151.44 1550.16,-173.64 1566.4,-189.14"/>
<polygon fill="#63b8ff" stroke="#63b8ff" points="1564.37,-192.06 1573.97,-196.55 1569.27,-187.05 1564.37,-192.06"/>
</g>
<!-- Node120&#45;&gt;Node22 -->
<g id="edge54" class="edge">
<title>Node120&#45;&gt;Node22</title>
<path fill="none" stroke="#63b8ff" d="M906.6,-543.46C971.21,-539.99 1074.89,-530.86 1105,-507.5 1137.41,-482.35 1122.25,-458.99 1141,-422.5 1164.03,-377.69 1196.16,-327.94 1213.58,-301.82"/>
<polygon fill="#63b8ff" stroke="#63b8ff" points="1216.62,-303.57 1219.29,-293.32 1210.81,-299.67 1216.62,-303.57"/>
</g>
<!-- Node49 -->
<g id="node36" class="node">
<title>Node49</title>
<g id="a_node36"><a xlink:href="get__variable__value_8c.html#a2edd9900f19af236aa05385a789be3d6" target="_top" xlink:title=" ">
<polygon fill="white" stroke="#666666" points="1282,-533 1172,-533 1172,-514 1282,-514 1282,-533"/>
<text text-anchor="middle" x="1227" y="-521" font-family="Helvetica,sans-Serif" font-size="10.00">get_variable_value</text>
</a>
</g>
</g>
<!-- Node120&#45;&gt;Node49 -->
<g id="edge52" class="edge">
<title>Node120&#45;&gt;Node49</title>
<path fill="none" stroke="#63b8ff" d="M906.68,-546.29C957.76,-546.61 1036.74,-545.95 1105,-540.5 1123.56,-539.02 1143.61,-536.55 1161.95,-533.96"/>
<polygon fill="#63b8ff" stroke="#63b8ff" points="1162.55,-537.41 1171.94,-532.5 1161.54,-530.48 1162.55,-537.41"/>
</g>
<!-- Node121 -->
<g id="node38" class="node">
<title>Node121</title>
<g id="a_node38"><a xlink:href="lexer__expand__tilde_8c.html#aa4231a41b1e79447d6a70db7b075f937" target="_top" xlink:title=" ">
<polygon fill="white" stroke="#666666" points="1092,-612 975,-612 975,-593 1092,-593 1092,-612"/>
<text text-anchor="middle" x="1033.5" y="-600" font-family="Helvetica,sans-Serif" font-size="10.00">should_expand_tilde</text>
</a>
</g>
</g>
<!-- Node120&#45;&gt;Node121 -->
<g id="edge55" class="edge">
<title>Node120&#45;&gt;Node121</title>
<path fill="none" stroke="#63b8ff" d="M883.04,-555.04C913.07,-564.58 959.42,-579.29 992.54,-589.81"/>
<polygon fill="#63b8ff" stroke="#63b8ff" points="991.77,-593.24 1002.36,-592.93 993.89,-586.57 991.77,-593.24"/>
</g>
<!-- Node50 -->
<g id="node37" class="node">
<title>Node50</title>
<g id="a_node37"><a xlink:href="get__variable_8c.html#a569170390f0edf013bf89c26ef55ea8c" target="_top" xlink:title=" ">
<polygon fill="white" stroke="#666666" points="1462,-533 1385,-533 1385,-514 1462,-514 1462,-533"/>
<text text-anchor="middle" x="1423.5" y="-521" font-family="Helvetica,sans-Serif" font-size="10.00">get_variable</text>
</a>
</g>
</g>
<!-- Node49&#45;&gt;Node50 -->
<g id="edge53" class="edge">
<title>Node49&#45;&gt;Node50</title>
<path fill="none" stroke="#63b8ff" d="M1282.18,-523.5C1311.18,-523.5 1346.59,-523.5 1374.58,-523.5"/>
<polygon fill="#63b8ff" stroke="#63b8ff" points="1374.92,-527 1384.92,-523.5 1374.92,-520 1374.92,-527"/>
</g>
<!-- Node121&#45;&gt;Node122 -->
<g id="edge56" class="edge">
<title>Node121&#45;&gt;Node122</title>
<path fill="none" stroke="#63b8ff" d="M1092.22,-608.23C1110.14,-610 1130.19,-611.99 1149.19,-613.88"/>
<polygon fill="#63b8ff" stroke="#63b8ff" points="1149.03,-617.38 1159.33,-614.88 1149.72,-610.41 1149.03,-617.38"/>
</g>
<!-- Node123&#45;&gt;Node24 -->
<g id="edge69" class="edge">
<title>Node123&#45;&gt;Node24</title>
<path fill="none" stroke="#63b8ff" d="M862.11,-347.77C879.55,-329.83 919.73,-291.78 962,-274.5 1093.39,-220.79 1261.99,-213.54 1354.39,-214.23"/>
<polygon fill="#63b8ff" stroke="#63b8ff" points="1354.41,-217.73 1364.45,-214.34 1354.49,-210.73 1354.41,-217.73"/>
</g>
<!-- Node124 -->
<g id="node41" class="node">
<title>Node124</title>
<g id="a_node41"><a xlink:href="lexer__expand__variable_8c.html#abe77b7e35b276965b72648d12abae283" target="_top" xlink:title=" ">
<polygon fill="white" stroke="#666666" points="1076.5,-339 990.5,-339 990.5,-320 1076.5,-320 1076.5,-339"/>
<text text-anchor="middle" x="1033.5" y="-327" font-family="Helvetica,sans-Serif" font-size="10.00">append_dollar</text>
</a>
</g>
</g>
<!-- Node123&#45;&gt;Node124 -->
<g id="edge58" class="edge">
<title>Node123&#45;&gt;Node124</title>
<path fill="none" stroke="#63b8ff" d="M914.02,-347.98C935.59,-344.62 959.64,-340.86 980.41,-337.63"/>
<polygon fill="#63b8ff" stroke="#63b8ff" points="980.97,-341.08 990.31,-336.08 979.89,-334.16 980.97,-341.08"/>
</g>
<!-- Node125 -->
<g id="node42" class="node">
<title>Node125</title>
<g id="a_node42"><a xlink:href="lexer__expand__variable_8c.html#ab47d31838e3255a1321d85e937919d4e" target="_top" xlink:title=" ">
<polygon fill="white" stroke="#666666" points="1089,-413 978,-413 978,-394 1089,-394 1089,-413"/>
<text text-anchor="middle" x="1033.5" y="-401" font-family="Helvetica,sans-Serif" font-size="10.00">append_last_status</text>
</a>
</g>
</g>
<!-- Node123&#45;&gt;Node125 -->
<g id="edge60" class="edge">
<title>Node123&#45;&gt;Node125</title>
<path fill="none" stroke="#63b8ff" d="M890.08,-367.04C911.16,-372.46 938.06,-379.37 962,-385.5 969.57,-387.44 977.6,-389.49 985.43,-391.49"/>
<polygon fill="#63b8ff" stroke="#63b8ff" points="984.62,-394.9 995.18,-393.98 986.35,-388.12 984.62,-394.9"/>
</g>
<!-- Node126 -->
<g id="node43" class="node">
<title>Node126</title>
<g id="a_node43"><a xlink:href="lexer__expand__variable_8c.html#a9954e7e26e9570a3c41eed4e16bf6791" target="_top" xlink:title=" ">
<polygon fill="white" stroke="#666666" points="1098.5,-376 968.5,-376 968.5,-357 1098.5,-357 1098.5,-376"/>
<text text-anchor="middle" x="1033.5" y="-364" font-family="Helvetica,sans-Serif" font-size="10.00">append_variable_value</text>
</a>
</g>
</g>
<!-- Node123&#45;&gt;Node126 -->
<g id="edge63" class="edge">
<title>Node123&#45;&gt;Node126</title>
<path fill="none" stroke="#63b8ff" d="M915.53,-360.64C929.29,-361.33 943.99,-362.06 958.16,-362.77"/>
<polygon fill="#63b8ff" stroke="#63b8ff" points="958.21,-366.28 968.37,-363.28 958.56,-359.29 958.21,-366.28"/>
</g>
<!-- Node127 -->
<g id="node44" class="node">
<title>Node127</title>
<g id="a_node44"><a xlink:href="lexer__expand__variable_8c.html#a1d07a8c171e69a5c58a385a75520e6c0" target="_top" xlink:title=" ">
<polygon fill="white" stroke="#666666" points="1091.5,-498.5 975.5,-498.5 975.5,-468.5 1091.5,-468.5 1091.5,-498.5"/>
<text text-anchor="start" x="983.5" y="-486.5" font-family="Helvetica,sans-Serif" font-size="10.00">get_correct_variable</text>
<text text-anchor="middle" x="1033.5" y="-475.5" font-family="Helvetica,sans-Serif" font-size="10.00">_value</text>
</a>
</g>
</g>
<!-- Node123&#45;&gt;Node127 -->
<g id="edge65" class="edge">
<title>Node123&#45;&gt;Node127</title>
<path fill="none" stroke="#63b8ff" d="M910.9,-367.13C916.37,-369.59 921.52,-372.67 926,-376.5 956.54,-402.65 932.44,-432.24 962,-459.5 963.5,-460.88 965.08,-462.18 966.72,-463.41"/>
<polygon fill="#63b8ff" stroke="#63b8ff" points="965.12,-466.54 975.44,-468.94 968.87,-460.63 965.12,-466.54"/>
</g>
<!-- Node128 -->
<g id="node45" class="node">
<title>Node128</title>
<g id="a_node45"><a xlink:href="lexer__expand__variable_8c.html#a3674c7faac945bf9ec05a9dc00c08896" target="_top" xlink:title=" ">
<polygon fill="white" stroke="#666666" points="1099,-450 968,-450 968,-431 1099,-431 1099,-450"/>
<text text-anchor="middle" x="1033.5" y="-438" font-family="Helvetica,sans-Serif" font-size="10.00">get_variable_name_len</text>
</a>
</g>
</g>
<!-- Node123&#45;&gt;Node128 -->
<g id="edge67" class="edge">
<title>Node123&#45;&gt;Node128</title>
<path fill="none" stroke="#63b8ff" d="M906.58,-367.07C913.42,-369.53 920.09,-372.62 926,-376.5 947.71,-390.74 940.26,-408.31 962,-422.5 964.56,-424.17 967.27,-425.69 970.07,-427.07"/>
<polygon fill="#63b8ff" stroke="#63b8ff" points="968.72,-430.29 979.29,-431 971.47,-423.86 968.72,-430.29"/>
</g>
<!-- Node124&#45;&gt;Node22 -->
<g id="edge59" class="edge">
<title>Node124&#45;&gt;Node22</title>
<path fill="none" stroke="#63b8ff" d="M1074.18,-319.97C1103.84,-312.85 1144.57,-303.06 1176.38,-295.42"/>
<polygon fill="#63b8ff" stroke="#63b8ff" points="1177.47,-298.76 1186.37,-293.02 1175.83,-291.95 1177.47,-298.76"/>
</g>
<!-- Node125&#45;&gt;Node22 -->
<g id="edge61" class="edge">
<title>Node125&#45;&gt;Node22</title>
<path fill="none" stroke="#63b8ff" d="M1084.59,-393.99C1091.66,-391.72 1098.67,-388.93 1105,-385.5 1124.09,-375.17 1124.57,-366.68 1141,-352.5 1162.57,-333.89 1188.02,-313.42 1205.41,-299.65"/>
<polygon fill="#63b8ff" stroke="#63b8ff" points="1208.02,-302.04 1213.71,-293.1 1203.69,-296.55 1208.02,-302.04"/>
</g>
<!-- Node125&#45;&gt;Node24 -->
<g id="edge62" class="edge">
<title>Node125&#45;&gt;Node24</title>
<path fill="none" stroke="#63b8ff" d="M1075.77,-393.92C1085.43,-391.41 1095.63,-388.55 1105,-385.5 1199.64,-354.68 1226.76,-352.19 1313,-302.5 1348.13,-282.26 1384.23,-251.62 1404.95,-232.9"/>
<polygon fill="#63b8ff" stroke="#63b8ff" points="1407.34,-235.46 1412.35,-226.13 1402.61,-230.3 1407.34,-235.46"/>
</g>
<!-- Node126&#45;&gt;Node22 -->
<g id="edge64" class="edge">
<title>Node126&#45;&gt;Node22</title>
<path fill="none" stroke="#63b8ff" d="M1078.65,-356.99C1087.5,-354.59 1096.64,-351.76 1105,-348.5 1140.31,-334.75 1178.4,-313.02 1202.22,-298.52"/>
<polygon fill="#63b8ff" stroke="#63b8ff" points="1204.24,-301.39 1210.91,-293.17 1200.56,-295.43 1204.24,-301.39"/>
</g>
<!-- Node127&#45;&gt;Node49 -->
<g id="edge66" class="edge">
<title>Node127&#45;&gt;Node49</title>
<path fill="none" stroke="#63b8ff" d="M1091.7,-495.45C1116.59,-500.65 1145.66,-506.72 1170.37,-511.88"/>
<polygon fill="#63b8ff" stroke="#63b8ff" points="1169.82,-515.34 1180.32,-513.96 1171.25,-508.49 1169.82,-515.34"/>
</g>
<!-- Node129 -->
<g id="node46" class="node">
<title>Node129</title>
<g id="a_node46"><a xlink:href="lexer__expand__variable_8c.html#a5067193ac632b7565fd8b9ad405a525f" target="_top" xlink:title=" ">
<polygon fill="#fff0f0" stroke="red" points="1289.5,-450 1164.5,-450 1164.5,-431 1289.5,-431 1289.5,-450"/>
<text text-anchor="middle" x="1227" y="-438" font-family="Helvetica,sans-Serif" font-size="10.00">is_valid_variable_char</text>
</a>
</g>
</g>
<!-- Node128&#45;&gt;Node129 -->
<g id="edge68" class="edge">
<title>Node128&#45;&gt;Node129</title>
<path fill="none" stroke="#63b8ff" d="M1099.07,-440.5C1116.76,-440.5 1136.04,-440.5 1154.12,-440.5"/>
<polygon fill="#63b8ff" stroke="#63b8ff" points="1154.31,-444 1164.31,-440.5 1154.31,-437 1154.31,-444"/>
</g>
</g>
</svg>
