<?xml version="1.0" encoding="UTF-8" standalone="no"?>
<!DOCTYPE svg PUBLIC "-//W3C//DTD SVG 1.1//EN"
 "http://www.w3.org/Graphics/SVG/1.1/DTD/svg11.dtd">
<!-- Generated by graphviz version 2.43.0 (0)
 -->
<!-- Title: free_redirs_and_argv Pages: 1 -->
<svg width="280pt" height="101pt"
 viewBox="0.00 0.00 280.00 101.00" xmlns="http://www.w3.org/2000/svg" xmlns:xlink="http://www.w3.org/1999/xlink">
<g id="graph0" class="graph" transform="scale(1 1) rotate(0) translate(4 97)">
<title>free_redirs_and_argv</title>
<!-- Node1 -->
<g id="node1" class="node">
<title>Node1</title>
<g id="a_node1"><a xlink:title=" ">
<polygon fill="#999999" stroke="#666666" points="119,-56 0,-56 0,-37 119,-37 119,-56"/>
<text text-anchor="middle" x="59.5" y="-44" font-family="Helvetica,sans-Serif" font-size="10.00">free_redirs_and_argv</text>
</a>
</g>
</g>
<!-- Node2 -->
<g id="node2" class="node">
<title>Node2</title>
<g id="a_node2"><a xlink:href="parse__command_8c.html#a7dbef10d59c414dc5337f293697588b4" target="_top" xlink:title=" ">
<polygon fill="white" stroke="#666666" points="259,-93 168,-93 168,-74 259,-74 259,-93"/>
<text text-anchor="middle" x="213.5" y="-81" font-family="Helvetica,sans-Serif" font-size="10.00">free_redir_data</text>
</a>
</g>
</g>
<!-- Node1&#45;&gt;Node2 -->
<g id="edge1" class="edge">
<title>Node1&#45;&gt;Node2</title>
<path fill="none" stroke="#63b8ff" d="M99.64,-56.03C119.07,-60.76 142.74,-66.52 163.37,-71.54"/>
<polygon fill="#63b8ff" stroke="#63b8ff" points="162.68,-74.98 173.22,-73.94 164.34,-68.17 162.68,-74.98"/>
</g>
<!-- Node3 -->
<g id="node3" class="node">
<title>Node3</title>
<g id="a_node3"><a xlink:href="list_8h.html#a68908a98f87b64d0b0fa9ac090a70cad" target="_top" xlink:title=" ">
<polygon fill="white" stroke="#666666" points="252,-56 175,-56 175,-37 252,-37 252,-56"/>
<text text-anchor="middle" x="213.5" y="-44" font-family="Helvetica,sans-Serif" font-size="10.00">my_free_list</text>
</a>
</g>
</g>
<!-- Node1&#45;&gt;Node3 -->
<g id="edge2" class="edge">
<title>Node1&#45;&gt;Node3</title>
<path fill="none" stroke="#63b8ff" d="M119.27,-46.5C134.33,-46.5 150.34,-46.5 164.76,-46.5"/>
<polygon fill="#63b8ff" stroke="#63b8ff" points="164.95,-50 174.95,-46.5 164.95,-43 164.95,-50"/>
</g>
<!-- Node4 -->
<g id="node4" class="node">
<title>Node4</title>
<g id="a_node4"><a xlink:href="misc_8h.html#a1180cae2875b1fdcd58c9f9175a82c12" target="_top" xlink:title=" ">
<polygon fill="white" stroke="#666666" points="272,-19 155,-19 155,0 272,0 272,-19"/>
<text text-anchor="middle" x="213.5" y="-7" font-family="Helvetica,sans-Serif" font-size="10.00">my_free_word_array</text>
</a>
</g>
</g>
<!-- Node1&#45;&gt;Node4 -->
<g id="edge3" class="edge">
<title>Node1&#45;&gt;Node4</title>
<path fill="none" stroke="#63b8ff" d="M99.64,-36.97C119.07,-32.24 142.74,-26.48 163.37,-21.46"/>
<polygon fill="#63b8ff" stroke="#63b8ff" points="164.34,-24.83 173.22,-19.06 162.68,-18.02 164.34,-24.83"/>
</g>
</g>
</svg>
