<?xml version="1.0" encoding="UTF-8" standalone="no"?>
<!DOCTYPE svg PUBLIC "-//W3C//DTD SVG 1.1//EN"
 "http://www.w3.org/Graphics/SVG/1.1/DTD/svg11.dtd">
<!-- Generated by graphviz version 2.43.0 (0)
 -->
<!-- Title: include/parser.h Pages: 1 -->
<svg width="2023pt" height="93pt"
 viewBox="0.00 0.00 2023.00 93.00" xmlns="http://www.w3.org/2000/svg" xmlns:xlink="http://www.w3.org/1999/xlink">
<g id="graph0" class="graph" transform="scale(1 1) rotate(0) translate(4 89)">
<title>include/parser.h</title>
<!-- Node1 -->
<g id="node1" class="node">
<title>Node1</title>
<g id="a_node1"><a xlink:title=" ">
<polygon fill="#999999" stroke="#666666" points="1095.5,-85 1001.5,-85 1001.5,-66 1095.5,-66 1095.5,-85"/>
<text text-anchor="middle" x="1048.5" y="-73" font-family="Helvetica,sans-Serif" font-size="10.00">include/parser.h</text>
</a>
</g>
</g>
<!-- Node2 -->
<g id="node2" class="node">
<title>Node2</title>
<g id="a_node2"><a xlink:href="parser__destroy_8c.html" target="_top" xlink:title=" ">
<polygon fill="white" stroke="#666666" points="147,-24.5 0,-24.5 0,-5.5 147,-5.5 147,-24.5"/>
<text text-anchor="middle" x="73.5" y="-12.5" font-family="Helvetica,sans-Serif" font-size="10.00">src/parser/parser_destroy.c</text>
</a>
</g>
</g>
<!-- Node1&#45;&gt;Node2 -->
<g id="edge1" class="edge">
<title>Node1&#45;&gt;Node2</title>
<path fill="none" stroke="#63b8ff" d="M991.24,-73.97C849.38,-72.14 470.42,-64.19 156.5,-30 144.01,-28.64 130.54,-26.61 118.16,-24.52"/>
<polygon fill="#63b8ff" stroke="#63b8ff" points="991.4,-77.47 1001.44,-74.09 991.48,-70.47 991.4,-77.47"/>
</g>
<!-- Node3 -->
<g id="node3" class="node">
<title>Node3</title>
<g id="a_node3"><a xlink:href="parser__init_8c.html" target="_top" xlink:title=" ">
<polygon fill="white" stroke="#666666" points="293.5,-24.5 165.5,-24.5 165.5,-5.5 293.5,-5.5 293.5,-24.5"/>
<text text-anchor="middle" x="229.5" y="-12.5" font-family="Helvetica,sans-Serif" font-size="10.00">src/parser/parser_init.c</text>
</a>
</g>
</g>
<!-- Node1&#45;&gt;Node3 -->
<g id="edge2" class="edge">
<title>Node1&#45;&gt;Node3</title>
<path fill="none" stroke="#63b8ff" d="M991.03,-73.61C865.57,-71.12 557.95,-61.98 302.5,-30 291.62,-28.64 279.91,-26.64 269.13,-24.57"/>
<polygon fill="#63b8ff" stroke="#63b8ff" points="991.11,-77.11 1001.17,-73.81 991.24,-70.12 991.11,-77.11"/>
</g>
<!-- Node4 -->
<g id="node4" class="node">
<title>Node4</title>
<g id="a_node4"><a xlink:href="parser__next_8c.html" target="_top" xlink:title=" ">
<polygon fill="white" stroke="#666666" points="445.5,-24.5 311.5,-24.5 311.5,-5.5 445.5,-5.5 445.5,-24.5"/>
<text text-anchor="middle" x="378.5" y="-12.5" font-family="Helvetica,sans-Serif" font-size="10.00">src/parser/parser_next.c</text>
</a>
</g>
</g>
<!-- Node1&#45;&gt;Node4 -->
<g id="edge3" class="edge">
<title>Node1&#45;&gt;Node4</title>
<path fill="none" stroke="#63b8ff" d="M991.18,-72.25C884.96,-67.64 650.53,-55.32 454.5,-30 443.32,-28.56 431.3,-26.55 420.19,-24.51"/>
<polygon fill="#63b8ff" stroke="#63b8ff" points="991.21,-75.76 1001.35,-72.69 991.51,-68.77 991.21,-75.76"/>
</g>
<!-- Node5 -->
<g id="node5" class="node">
<title>Node5</title>
<g id="a_node5"><a xlink:href="parser__parse_8c.html" target="_top" xlink:title=" ">
<polygon fill="white" stroke="#666666" points="603,-24.5 464,-24.5 464,-5.5 603,-5.5 603,-24.5"/>
<text text-anchor="middle" x="533.5" y="-12.5" font-family="Helvetica,sans-Serif" font-size="10.00">src/parser/parser_parse.c</text>
</a>
</g>
</g>
<!-- Node1&#45;&gt;Node5 -->
<g id="edge4" class="edge">
<title>Node1&#45;&gt;Node5</title>
<path fill="none" stroke="#63b8ff" d="M991.42,-70.08C907.82,-63.3 747.25,-49.07 611.5,-30 600.46,-28.45 588.6,-26.48 577.54,-24.51"/>
<polygon fill="#63b8ff" stroke="#63b8ff" points="991.22,-73.58 1001.47,-70.89 991.79,-66.6 991.22,-73.58"/>
</g>
<!-- Node6 -->
<g id="node6" class="node">
<title>Node6</title>
<g id="a_node6"><a xlink:href="parser__set__error_8c.html" target="_top" xlink:title=" ">
<polygon fill="white" stroke="#666666" points="740,-30 621,-30 621,0 740,0 740,-30"/>
<text text-anchor="start" x="629" y="-18" font-family="Helvetica,sans-Serif" font-size="10.00">src/parser/parser_set</text>
<text text-anchor="middle" x="680.5" y="-7" font-family="Helvetica,sans-Serif" font-size="10.00">_error.c</text>
</a>
</g>
</g>
<!-- Node1&#45;&gt;Node6 -->
<g id="edge5" class="edge">
<title>Node1&#45;&gt;Node6</title>
<path fill="none" stroke="#63b8ff" d="M991.23,-66.97C930.75,-58.8 832.68,-44.9 748.5,-30 745.77,-29.52 742.98,-29.01 740.17,-28.48"/>
<polygon fill="#63b8ff" stroke="#63b8ff" points="990.97,-70.47 1001.34,-68.33 991.9,-63.53 990.97,-70.47"/>
</g>
<!-- Node7 -->
<g id="node7" class="node">
<title>Node7</title>
<g id="a_node7"><a xlink:href="parser__utils_8c.html" target="_top" xlink:title=" ">
<polygon fill="white" stroke="#666666" points="891,-24.5 758,-24.5 758,-5.5 891,-5.5 891,-24.5"/>
<text text-anchor="middle" x="824.5" y="-12.5" font-family="Helvetica,sans-Serif" font-size="10.00">src/parser/parser_utils.c</text>
</a>
</g>
</g>
<!-- Node1&#45;&gt;Node7 -->
<g id="edge6" class="edge">
<title>Node1&#45;&gt;Node7</title>
<path fill="none" stroke="#63b8ff" d="M1005.98,-63.4C962.67,-52.08 896.45,-34.79 857.11,-24.52"/>
<polygon fill="#63b8ff" stroke="#63b8ff" points="1005.37,-66.85 1015.93,-65.99 1007.14,-60.08 1005.37,-66.85"/>
</g>
<!-- Node8 -->
<g id="node8" class="node">
<title>Node8</title>
<g id="a_node8"><a xlink:href="parse__command_8c.html" target="_top" xlink:title=" ">
<polygon fill="white" stroke="#666666" points="1039.5,-30 909.5,-30 909.5,0 1039.5,0 1039.5,-30"/>
<text text-anchor="start" x="917.5" y="-18" font-family="Helvetica,sans-Serif" font-size="10.00">src/parser/tokens/parse</text>
<text text-anchor="middle" x="974.5" y="-7" font-family="Helvetica,sans-Serif" font-size="10.00">_command.c</text>
</a>
</g>
</g>
<!-- Node1&#45;&gt;Node8 -->
<g id="edge7" class="edge">
<title>Node1&#45;&gt;Node8</title>
<path fill="none" stroke="#63b8ff" d="M1029.53,-59.5C1018.08,-50.45 1003.59,-39 992.35,-30.11"/>
<polygon fill="#63b8ff" stroke="#63b8ff" points="1027.57,-62.41 1037.58,-65.87 1031.91,-56.92 1027.57,-62.41"/>
</g>
<!-- Node9 -->
<g id="node9" class="node">
<title>Node9</title>
<g id="a_node9"><a xlink:href="parse__logical__operator_8c.html" target="_top" xlink:title=" ">
<polygon fill="white" stroke="#666666" points="1187.5,-30 1057.5,-30 1057.5,0 1187.5,0 1187.5,-30"/>
<text text-anchor="start" x="1065.5" y="-18" font-family="Helvetica,sans-Serif" font-size="10.00">src/parser/tokens/parse</text>
<text text-anchor="middle" x="1122.5" y="-7" font-family="Helvetica,sans-Serif" font-size="10.00">_logical_operator.c</text>
</a>
</g>
</g>
<!-- Node1&#45;&gt;Node9 -->
<g id="edge8" class="edge">
<title>Node1&#45;&gt;Node9</title>
<path fill="none" stroke="#63b8ff" d="M1067.47,-59.5C1078.92,-50.45 1093.41,-39 1104.65,-30.11"/>
<polygon fill="#63b8ff" stroke="#63b8ff" points="1065.09,-56.92 1059.42,-65.87 1069.43,-62.41 1065.09,-56.92"/>
</g>
<!-- Node10 -->
<g id="node10" class="node">
<title>Node10</title>
<g id="a_node10"><a xlink:href="parse__repeat_8c.html" target="_top" xlink:title=" ">
<polygon fill="white" stroke="#666666" points="1335.5,-30 1205.5,-30 1205.5,0 1335.5,0 1335.5,-30"/>
<text text-anchor="start" x="1213.5" y="-18" font-family="Helvetica,sans-Serif" font-size="10.00">src/parser/tokens/parse</text>
<text text-anchor="middle" x="1270.5" y="-7" font-family="Helvetica,sans-Serif" font-size="10.00">_repeat.c</text>
</a>
</g>
</g>
<!-- Node1&#45;&gt;Node10 -->
<g id="edge9" class="edge">
<title>Node1&#45;&gt;Node10</title>
<path fill="none" stroke="#63b8ff" d="M1090.46,-63.44C1126.37,-53.98 1178.27,-40.3 1217.13,-30.06"/>
<polygon fill="#63b8ff" stroke="#63b8ff" points="1089.56,-60.06 1080.78,-65.99 1091.34,-66.83 1089.56,-60.06"/>
</g>
<!-- Node11 -->
<g id="node11" class="node">
<title>Node11</title>
<g id="a_node11"><a xlink:href="parse__sequence_8c.html" target="_top" xlink:title=" ">
<polygon fill="white" stroke="#666666" points="1483.5,-30 1353.5,-30 1353.5,0 1483.5,0 1483.5,-30"/>
<text text-anchor="start" x="1361.5" y="-18" font-family="Helvetica,sans-Serif" font-size="10.00">src/parser/tokens/parse</text>
<text text-anchor="middle" x="1418.5" y="-7" font-family="Helvetica,sans-Serif" font-size="10.00">_sequence.c</text>
</a>
</g>
</g>
<!-- Node1&#45;&gt;Node11 -->
<g id="edge10" class="edge">
<title>Node1&#45;&gt;Node11</title>
<path fill="none" stroke="#63b8ff" d="M1105.74,-66.55C1165.43,-58.1 1261.68,-44.05 1344.5,-30 1347.34,-29.52 1350.23,-29.02 1353.15,-28.5"/>
<polygon fill="#63b8ff" stroke="#63b8ff" points="1105.16,-63.09 1095.75,-67.96 1106.14,-70.03 1105.16,-63.09"/>
</g>
<!-- Node12 -->
<g id="node12" class="node">
<title>Node12</title>
<g id="a_node12"><a xlink:href="parse__sequence__start_8c.html" target="_top" xlink:title=" ">
<polygon fill="white" stroke="#666666" points="1631.5,-30 1501.5,-30 1501.5,0 1631.5,0 1631.5,-30"/>
<text text-anchor="start" x="1509.5" y="-18" font-family="Helvetica,sans-Serif" font-size="10.00">src/parser/tokens/parse</text>
<text text-anchor="middle" x="1566.5" y="-7" font-family="Helvetica,sans-Serif" font-size="10.00">_sequence_start.c</text>
</a>
</g>
</g>
<!-- Node1&#45;&gt;Node12 -->
<g id="edge11" class="edge">
<title>Node1&#45;&gt;Node12</title>
<path fill="none" stroke="#63b8ff" d="M1105.84,-70.36C1190.63,-63.87 1354.31,-49.96 1492.5,-30 1495.35,-29.59 1498.25,-29.14 1501.18,-28.68"/>
<polygon fill="#63b8ff" stroke="#63b8ff" points="1105.36,-66.88 1095.65,-71.13 1105.89,-73.86 1105.36,-66.88"/>
</g>
<!-- Node13 -->
<g id="node13" class="node">
<title>Node13</title>
<g id="a_node13"><a xlink:href="parse__subshell_8c.html" target="_top" xlink:title=" ">
<polygon fill="white" stroke="#666666" points="1779.5,-30 1649.5,-30 1649.5,0 1779.5,0 1779.5,-30"/>
<text text-anchor="start" x="1657.5" y="-18" font-family="Helvetica,sans-Serif" font-size="10.00">src/parser/tokens/parse</text>
<text text-anchor="middle" x="1714.5" y="-7" font-family="Helvetica,sans-Serif" font-size="10.00">_subshell.c</text>
</a>
</g>
</g>
<!-- Node1&#45;&gt;Node13 -->
<g id="edge12" class="edge">
<title>Node1&#45;&gt;Node13</title>
<path fill="none" stroke="#63b8ff" d="M1106.05,-72.32C1212.11,-67.82 1445.44,-55.7 1640.5,-30 1643.35,-29.62 1646.26,-29.21 1649.19,-28.77"/>
<polygon fill="#63b8ff" stroke="#63b8ff" points="1105.72,-68.83 1095.88,-72.74 1106.02,-75.82 1105.72,-68.83"/>
</g>
<!-- Node14 -->
<g id="node14" class="node">
<title>Node14</title>
<g id="a_node14"><a xlink:href="parser__globbing_8c.html" target="_top" xlink:title=" ">
<polygon fill="white" stroke="#666666" points="1931.5,-30 1797.5,-30 1797.5,0 1931.5,0 1931.5,-30"/>
<text text-anchor="start" x="1805.5" y="-18" font-family="Helvetica,sans-Serif" font-size="10.00">src/parser/tokens/parser</text>
<text text-anchor="middle" x="1864.5" y="-7" font-family="Helvetica,sans-Serif" font-size="10.00">_globbing.c</text>
</a>
</g>
</g>
<!-- Node1&#45;&gt;Node14 -->
<g id="edge13" class="edge">
<title>Node1&#45;&gt;Node14</title>
<path fill="none" stroke="#63b8ff" d="M1105.95,-73.43C1230.65,-70.59 1535.3,-60.82 1788.5,-30 1791.43,-29.64 1794.42,-29.24 1797.43,-28.81"/>
<polygon fill="#63b8ff" stroke="#63b8ff" points="1105.78,-69.93 1095.86,-73.65 1105.94,-76.93 1105.78,-69.93"/>
</g>
<!-- Node15 -->
<g id="node15" class="node">
<title>Node15</title>
<g id="a_node15"><a xlink:href="shell_8c.html" target="_top" xlink:title=" ">
<polygon fill="white" stroke="#666666" points="2015,-24.5 1950,-24.5 1950,-5.5 2015,-5.5 2015,-24.5"/>
<text text-anchor="middle" x="1982.5" y="-12.5" font-family="Helvetica,sans-Serif" font-size="10.00">src/shell.c</text>
</a>
</g>
</g>
<!-- Node1&#45;&gt;Node15 -->
<g id="edge14" class="edge">
<title>Node1&#45;&gt;Node15</title>
<path fill="none" stroke="#63b8ff" d="M1105.55,-73.68C1275.96,-70.9 1779.41,-60.28 1940.5,-30 1947.15,-28.75 1954.19,-26.71 1960.57,-24.56"/>
<polygon fill="#63b8ff" stroke="#63b8ff" points="1105.47,-70.18 1095.53,-73.84 1105.58,-77.18 1105.47,-70.18"/>
</g>
</g>
</svg>
