<?xml version="1.0" encoding="UTF-8" standalone="no"?>
<!DOCTYPE svg PUBLIC "-//W3C//DTD SVG 1.1//EN"
 "http://www.w3.org/Graphics/SVG/1.1/DTD/svg11.dtd">
<!-- Generated by graphviz version 2.43.0 (0)
 -->
<!-- Title: parse_redirection_token Pages: 1 -->
<svg width="1436pt" height="736pt"
 viewBox="0.00 0.00 1436.00 736.12" xmlns="http://www.w3.org/2000/svg" xmlns:xlink="http://www.w3.org/1999/xlink">
<g id="graph0" class="graph" transform="scale(1 1) rotate(0) translate(4 732.12)">
<title>parse_redirection_token</title>
<!-- Node1 -->
<g id="node1" class="node">
<title>Node1</title>
<g id="a_node1"><a xlink:title=" ">
<polygon fill="#999999" stroke="#666666" points="134,-429.12 0,-429.12 0,-410.12 134,-410.12 134,-429.12"/>
<text text-anchor="middle" x="67" y="-417.12" font-family="Helvetica,sans-Serif" font-size="10.00">parse_redirection_token</text>
</a>
</g>
</g>
<!-- Node2 -->
<g id="node2" class="node">
<title>Node2</title>
<g id="a_node2"><a xlink:href="list_8h.html#a18e592f6f160bc93dbb7e5d788a6f2e1" target="_top" xlink:title=" ">
<polygon fill="white" stroke="#666666" points="284,-466.12 170,-466.12 170,-447.12 284,-447.12 284,-466.12"/>
<text text-anchor="middle" x="227" y="-454.12" font-family="Helvetica,sans-Serif" font-size="10.00">my_add_to_list_end</text>
</a>
</g>
</g>
<!-- Node1&#45;&gt;Node2 -->
<g id="edge1" class="edge">
<title>Node1&#45;&gt;Node2</title>
<path fill="none" stroke="#63b8ff" d="M108.69,-429.15C128.97,-433.9 153.71,-439.69 175.22,-444.73"/>
<polygon fill="#63b8ff" stroke="#63b8ff" points="174.64,-448.19 185.17,-447.06 176.24,-441.37 174.64,-448.19"/>
</g>
<!-- Node3 -->
<g id="node3" class="node">
<title>Node3</title>
<g id="a_node3"><a xlink:href="parser__next_8c.html#ad25986b565a767c6ad7d0b0b8846fca6" target="_top" xlink:title=" ">
<polygon fill="white" stroke="#666666" points="264,-429.12 190,-429.12 190,-410.12 264,-410.12 264,-429.12"/>
<text text-anchor="middle" x="227" y="-417.12" font-family="Helvetica,sans-Serif" font-size="10.00">parser_next</text>
</a>
</g>
</g>
<!-- Node1&#45;&gt;Node3 -->
<g id="edge2" class="edge">
<title>Node1&#45;&gt;Node3</title>
<path fill="none" stroke="#63b8ff" d="M134.09,-419.62C149.47,-419.62 165.52,-419.62 179.82,-419.62"/>
<polygon fill="#63b8ff" stroke="#63b8ff" points="179.89,-423.12 189.89,-419.62 179.89,-416.12 179.89,-423.12"/>
</g>
<!-- Node43 -->
<g id="node43" class="node">
<title>Node43</title>
<g id="a_node43"><a xlink:href="parser__set__error_8c.html#adcfabdb026b94fdbe4b6cbf5cb16522a" target="_top" xlink:title=" ">
<polygon fill="white" stroke="#666666" points="275,-392.12 179,-392.12 179,-373.12 275,-373.12 275,-392.12"/>
<text text-anchor="middle" x="227" y="-380.12" font-family="Helvetica,sans-Serif" font-size="10.00">parser_set_error</text>
</a>
</g>
</g>
<!-- Node1&#45;&gt;Node43 -->
<g id="edge63" class="edge">
<title>Node1&#45;&gt;Node43</title>
<path fill="none" stroke="#63b8ff" d="M108.69,-410.09C128.97,-405.34 153.71,-399.55 175.22,-394.51"/>
<polygon fill="#63b8ff" stroke="#63b8ff" points="176.24,-397.87 185.17,-392.18 174.64,-391.05 176.24,-397.87"/>
</g>
<!-- Node4 -->
<g id="node4" class="node">
<title>Node4</title>
<g id="a_node4"><a xlink:href="lexer__next__token_8c.html#a3def5432329709fb4df861d90672c510" target="_top" xlink:title=" ">
<polygon fill="white" stroke="#666666" points="420,-448.12 320,-448.12 320,-429.12 420,-429.12 420,-448.12"/>
<text text-anchor="middle" x="370" y="-436.12" font-family="Helvetica,sans-Serif" font-size="10.00">lexer_next_token</text>
</a>
</g>
</g>
<!-- Node3&#45;&gt;Node4 -->
<g id="edge3" class="edge">
<title>Node3&#45;&gt;Node4</title>
<path fill="none" stroke="#63b8ff" d="M264.31,-424.51C278.17,-426.38 294.35,-428.56 309.79,-430.64"/>
<polygon fill="#63b8ff" stroke="#63b8ff" points="309.41,-434.12 319.79,-431.99 310.35,-427.18 309.41,-434.12"/>
</g>
<!-- Node42 -->
<g id="node42" class="node">
<title>Node42</title>
<g id="a_node42"><a xlink:href="destroy__token_8c.html#ad1a471ee7b1ccb035d769be1152a370c" target="_top" xlink:title=" ">
<polygon fill="white" stroke="#666666" points="413,-411.12 327,-411.12 327,-392.12 413,-392.12 413,-411.12"/>
<text text-anchor="middle" x="370" y="-399.12" font-family="Helvetica,sans-Serif" font-size="10.00">token_destroy</text>
</a>
</g>
</g>
<!-- Node3&#45;&gt;Node42 -->
<g id="edge62" class="edge">
<title>Node3&#45;&gt;Node42</title>
<path fill="none" stroke="#63b8ff" d="M264.31,-414.98C280.27,-412.95 299.32,-410.51 316.76,-408.29"/>
<polygon fill="#63b8ff" stroke="#63b8ff" points="317.34,-411.74 326.81,-407 316.45,-404.8 317.34,-411.74"/>
</g>
<!-- Node5 -->
<g id="node5" class="node">
<title>Node5</title>
<g id="a_node5"><a xlink:href="create__token_8c.html#a15bcfc92177012893c626ce7d2d6bb6b" target="_top" xlink:title=" ">
<polygon fill="white" stroke="#666666" points="892,-509.12 812,-509.12 812,-490.12 892,-490.12 892,-509.12"/>
<text text-anchor="middle" x="852" y="-497.12" font-family="Helvetica,sans-Serif" font-size="10.00">create_token</text>
</a>
</g>
</g>
<!-- Node4&#45;&gt;Node5 -->
<g id="edge4" class="edge">
<title>Node4&#45;&gt;Node5</title>
<path fill="none" stroke="#63b8ff" d="M374.73,-448.34C384.41,-472.31 412.65,-534.75 456,-568.62 515.7,-615.26 542.3,-612 617,-624.62 671.78,-633.87 691.43,-647.62 742,-624.62 790.3,-602.65 825.54,-547.54 841.5,-518.39"/>
<polygon fill="#63b8ff" stroke="#63b8ff" points="844.75,-519.73 846.33,-509.25 838.56,-516.46 844.75,-519.73"/>
</g>
<!-- Node6 -->
<g id="node6" class="node">
<title>Node6</title>
<g id="a_node6"><a xlink:href="lexer__next__token_8c.html#add2e1acaa9518ecf20b6670ad91a5c65" target="_top" xlink:title=" ">
<polygon fill="white" stroke="#666666" points="569.5,-559.12 467.5,-559.12 467.5,-540.12 569.5,-540.12 569.5,-559.12"/>
<text text-anchor="middle" x="518.5" y="-547.12" font-family="Helvetica,sans-Serif" font-size="10.00">get_logical_token</text>
</a>
</g>
</g>
<!-- Node4&#45;&gt;Node6 -->
<g id="edge5" class="edge">
<title>Node4&#45;&gt;Node6</title>
<path fill="none" stroke="#63b8ff" d="M383.74,-448.28C408.96,-467.38 465.45,-510.18 496.34,-533.58"/>
<polygon fill="#63b8ff" stroke="#63b8ff" points="494.6,-536.66 504.68,-539.91 498.82,-531.08 494.6,-536.66"/>
</g>
<!-- Node10 -->
<g id="node10" class="node">
<title>Node10</title>
<g id="a_node10"><a xlink:href="lexer__next__token_8c.html#abcee8a7ba5ea6ca80c0bd7e3dd8d9a32" target="_top" xlink:title=" ">
<polygon fill="white" stroke="#666666" points="579.5,-448.12 457.5,-448.12 457.5,-429.12 579.5,-429.12 579.5,-448.12"/>
<text text-anchor="middle" x="518.5" y="-436.12" font-family="Helvetica,sans-Serif" font-size="10.00">get_redirection_token</text>
</a>
</g>
</g>
<!-- Node4&#45;&gt;Node10 -->
<g id="edge12" class="edge">
<title>Node4&#45;&gt;Node10</title>
<path fill="none" stroke="#63b8ff" d="M420.19,-438.62C428.83,-438.62 437.96,-438.62 447.05,-438.62"/>
<polygon fill="#63b8ff" stroke="#63b8ff" points="447.24,-442.12 457.24,-438.62 447.24,-435.12 447.24,-442.12"/>
</g>
<!-- Node15 -->
<g id="node15" class="node">
<title>Node15</title>
<g id="a_node15"><a xlink:href="lexer__newline_8c.html#a9f60bf18297b9c705fa6cdff027c79fc" target="_top" xlink:title=" ">
<polygon fill="white" stroke="#666666" points="560.5,-401.12 476.5,-401.12 476.5,-382.12 560.5,-382.12 560.5,-401.12"/>
<text text-anchor="middle" x="518.5" y="-389.12" font-family="Helvetica,sans-Serif" font-size="10.00">lexer_newline</text>
</a>
</g>
</g>
<!-- Node4&#45;&gt;Node15 -->
<g id="edge21" class="edge">
<title>Node4&#45;&gt;Node15</title>
<path fill="none" stroke="#63b8ff" d="M400.65,-429.11C422.91,-421.96 453.63,-412.11 477.98,-404.3"/>
<polygon fill="#63b8ff" stroke="#63b8ff" points="479.19,-407.58 487.65,-401.2 477.06,-400.92 479.19,-407.58"/>
</g>
<!-- Node16 -->
<g id="node16" class="node">
<title>Node16</title>
<g id="a_node16"><a xlink:href="lexer__parenthesis_8c.html#a2b13eaa0fee255bea85bd4279f369795" target="_top" xlink:title=" ">
<polygon fill="white" stroke="#666666" points="570,-728.12 467,-728.12 467,-709.12 570,-709.12 570,-728.12"/>
<text text-anchor="middle" x="518.5" y="-716.12" font-family="Helvetica,sans-Serif" font-size="10.00">lexer_parenthesis</text>
</a>
</g>
</g>
<!-- Node4&#45;&gt;Node16 -->
<g id="edge23" class="edge">
<title>Node4&#45;&gt;Node16</title>
<path fill="none" stroke="#63b8ff" d="M371.09,-448.36C372,-486.51 380.54,-627.31 456,-700.62 457.1,-701.68 458.25,-702.69 459.46,-703.63"/>
<polygon fill="#63b8ff" stroke="#63b8ff" points="457.72,-706.67 468.05,-709.05 461.46,-700.75 457.72,-706.67"/>
</g>
<!-- Node17 -->
<g id="node17" class="node">
<title>Node17</title>
<g id="a_node17"><a xlink:href="lexer__semicolon_8c.html#a1612109b245d9780427946e4e33b01b7" target="_top" xlink:title=" ">
<polygon fill="white" stroke="#666666" points="566.5,-691.12 470.5,-691.12 470.5,-672.12 566.5,-672.12 566.5,-691.12"/>
<text text-anchor="middle" x="518.5" y="-679.12" font-family="Helvetica,sans-Serif" font-size="10.00">lexer_semicolon</text>
</a>
</g>
</g>
<!-- Node4&#45;&gt;Node17 -->
<g id="edge25" class="edge">
<title>Node4&#45;&gt;Node17</title>
<path fill="none" stroke="#63b8ff" d="M372.02,-448.42C376.04,-482.23 393.77,-595.27 456,-657.62 459.9,-661.52 464.5,-664.81 469.41,-667.57"/>
<polygon fill="#63b8ff" stroke="#63b8ff" points="467.97,-670.76 478.49,-671.99 471.03,-664.46 467.97,-670.76"/>
</g>
<!-- Node18 -->
<g id="node18" class="node">
<title>Node18</title>
<g id="a_node18"><a xlink:href="lexer__word_8c.html#ac2600a9ba16009c4d8c114a118c54955" target="_top" xlink:title=" ">
<polygon fill="white" stroke="#666666" points="553.5,-345.12 483.5,-345.12 483.5,-326.12 553.5,-326.12 553.5,-345.12"/>
<text text-anchor="middle" x="518.5" y="-333.12" font-family="Helvetica,sans-Serif" font-size="10.00">lexer_word</text>
</a>
</g>
</g>
<!-- Node4&#45;&gt;Node18 -->
<g id="edge27" class="edge">
<title>Node4&#45;&gt;Node18</title>
<path fill="none" stroke="#63b8ff" d="M404.97,-429.01C410.27,-426.72 415.48,-423.95 420,-420.62 441.19,-405.02 436.49,-391.27 456,-373.62 465.96,-364.61 478.34,-356.49 489.38,-350.09"/>
<polygon fill="#63b8ff" stroke="#63b8ff" points="491.23,-353.07 498.25,-345.14 487.82,-346.96 491.23,-353.07"/>
</g>
<!-- Node40 -->
<g id="node40" class="node">
<title>Node40</title>
<g id="a_node40"><a xlink:href="lexer__next__token_8c.html#a7f0a2dd2373821667a4d5381e7711aa0" target="_top" xlink:title=" ">
<polygon fill="white" stroke="#666666" points="563,-308.12 474,-308.12 474,-289.12 563,-289.12 563,-308.12"/>
<text text-anchor="middle" x="518.5" y="-296.12" font-family="Helvetica,sans-Serif" font-size="10.00">skip_comment</text>
</a>
</g>
</g>
<!-- Node4&#45;&gt;Node40 -->
<g id="edge60" class="edge">
<title>Node4&#45;&gt;Node40</title>
<path fill="none" stroke="#63b8ff" d="M408.47,-428.95C412.72,-426.72 416.7,-423.98 420,-420.62 454.26,-385.71 420.58,-350.36 456,-316.62 458.62,-314.13 461.56,-311.98 464.7,-310.12"/>
<polygon fill="#63b8ff" stroke="#63b8ff" points="466.51,-313.14 473.99,-305.64 463.47,-306.83 466.51,-313.14"/>
</g>
<!-- Node41 -->
<g id="node41" class="node">
<title>Node41</title>
<g id="a_node41"><a xlink:href="lexer__next__token_8c.html#a5b2052471d98cef2998e1367f9bf8f6d" target="_top" xlink:title=" ">
<polygon fill="white" stroke="#666666" points="581,-271.12 456,-271.12 456,-252.12 581,-252.12 581,-271.12"/>
<text text-anchor="middle" x="518.5" y="-259.12" font-family="Helvetica,sans-Serif" font-size="10.00">skip_spaces_and_tabs</text>
</a>
</g>
</g>
<!-- Node4&#45;&gt;Node41 -->
<g id="edge61" class="edge">
<title>Node4&#45;&gt;Node41</title>
<path fill="none" stroke="#63b8ff" d="M409.22,-428.94C413.24,-426.72 416.96,-423.98 420,-420.62 463.34,-372.61 411.07,-326.14 456,-279.62 456.93,-278.65 457.92,-277.73 458.94,-276.87"/>
<polygon fill="#63b8ff" stroke="#63b8ff" points="461.16,-279.59 467.52,-271.12 457.27,-273.78 461.16,-279.59"/>
</g>
<!-- Node7 -->
<g id="node7" class="node">
<title>Node7</title>
<g id="a_node7"><a xlink:href="lexer__logical__and_8c.html#a59e5031d54357d65c6873edc67de2a47" target="_top" xlink:title=" ">
<polygon fill="white" stroke="#666666" points="730,-578.12 629,-578.12 629,-559.12 730,-559.12 730,-578.12"/>
<text text-anchor="middle" x="679.5" y="-566.12" font-family="Helvetica,sans-Serif" font-size="10.00">lexer_logical_and</text>
</a>
</g>
</g>
<!-- Node6&#45;&gt;Node7 -->
<g id="edge6" class="edge">
<title>Node6&#45;&gt;Node7</title>
<path fill="none" stroke="#63b8ff" d="M569.81,-555.63C585.26,-557.48 602.41,-559.53 618.45,-561.44"/>
<polygon fill="#63b8ff" stroke="#63b8ff" points="618.45,-564.97 628.79,-562.68 619.28,-558.02 618.45,-564.97"/>
</g>
<!-- Node8 -->
<g id="node8" class="node">
<title>Node8</title>
<g id="a_node8"><a xlink:href="lexer__logical__or_8c.html#ac3851eaea27bd5774b126b888bdddf93" target="_top" xlink:title=" ">
<polygon fill="white" stroke="#666666" points="726,-541.12 633,-541.12 633,-522.12 726,-522.12 726,-541.12"/>
<text text-anchor="middle" x="679.5" y="-529.12" font-family="Helvetica,sans-Serif" font-size="10.00">lexer_logical_or</text>
</a>
</g>
</g>
<!-- Node6&#45;&gt;Node8 -->
<g id="edge8" class="edge">
<title>Node6&#45;&gt;Node8</title>
<path fill="none" stroke="#63b8ff" d="M569.81,-543.92C586.69,-542.01 605.62,-539.87 622.88,-537.92"/>
<polygon fill="#63b8ff" stroke="#63b8ff" points="623.29,-541.39 632.83,-536.79 622.5,-534.44 623.29,-541.39"/>
</g>
<!-- Node9 -->
<g id="node9" class="node">
<title>Node9</title>
<g id="a_node9"><a xlink:href="lexer__pipe_8c.html#a693816e38802a086de64c09cb7cebeb7" target="_top" xlink:title=" ">
<polygon fill="white" stroke="#666666" points="713,-615.12 646,-615.12 646,-596.12 713,-596.12 713,-615.12"/>
<text text-anchor="middle" x="679.5" y="-603.12" font-family="Helvetica,sans-Serif" font-size="10.00">lexer_pipe</text>
</a>
</g>
</g>
<!-- Node6&#45;&gt;Node9 -->
<g id="edge10" class="edge">
<title>Node6&#45;&gt;Node9</title>
<path fill="none" stroke="#63b8ff" d="M542.54,-559.25C562.16,-567.3 591.2,-578.84 617,-587.62 623.08,-589.69 629.55,-591.74 635.92,-593.68"/>
<polygon fill="#63b8ff" stroke="#63b8ff" points="635.2,-597.12 645.78,-596.61 637.19,-590.41 635.2,-597.12"/>
</g>
<!-- Node7&#45;&gt;Node5 -->
<g id="edge7" class="edge">
<title>Node7&#45;&gt;Node5</title>
<path fill="none" stroke="#63b8ff" d="M716.58,-559.06C725,-556.55 733.88,-553.69 742,-550.62 770.6,-539.81 802.12,-524.7 823.88,-513.73"/>
<polygon fill="#63b8ff" stroke="#63b8ff" points="825.53,-516.81 832.85,-509.16 822.36,-510.58 825.53,-516.81"/>
</g>
<!-- Node8&#45;&gt;Node5 -->
<g id="edge9" class="edge">
<title>Node8&#45;&gt;Node5</title>
<path fill="none" stroke="#63b8ff" d="M726.19,-523.04C749.58,-518.65 778.08,-513.31 801.93,-508.83"/>
<polygon fill="#63b8ff" stroke="#63b8ff" points="802.66,-512.25 811.84,-506.97 801.37,-505.37 802.66,-512.25"/>
</g>
<!-- Node9&#45;&gt;Node5 -->
<g id="edge11" class="edge">
<title>Node9&#45;&gt;Node5</title>
<path fill="none" stroke="#63b8ff" d="M713.03,-598.67C722.67,-595.94 733.03,-592.31 742,-587.62 778.53,-568.51 814.47,-536.13 834.59,-516.43"/>
<polygon fill="#63b8ff" stroke="#63b8ff" points="837.11,-518.85 841.73,-509.31 832.17,-513.89 837.11,-518.85"/>
</g>
<!-- Node11 -->
<g id="node11" class="node">
<title>Node11</title>
<g id="a_node11"><a xlink:href="lexer__heredoc_8c.html#a9db043b0e8df9ad1155a65a8fcf67c11" target="_top" xlink:title=" ">
<polygon fill="white" stroke="#666666" points="722,-504.12 637,-504.12 637,-485.12 722,-485.12 722,-504.12"/>
<text text-anchor="middle" x="679.5" y="-492.12" font-family="Helvetica,sans-Serif" font-size="10.00">lexer_heredoc</text>
</a>
</g>
</g>
<!-- Node10&#45;&gt;Node11 -->
<g id="edge13" class="edge">
<title>Node10&#45;&gt;Node11</title>
<path fill="none" stroke="#63b8ff" d="M542.54,-448.25C562.16,-456.3 591.2,-467.84 617,-476.62 622.53,-478.5 628.38,-480.37 634.19,-482.15"/>
<polygon fill="#63b8ff" stroke="#63b8ff" points="633.27,-485.53 643.86,-485.05 635.28,-478.83 633.27,-485.53"/>
</g>
<!-- Node12 -->
<g id="node12" class="node">
<title>Node12</title>
<g id="a_node12"><a xlink:href="lexer__redirect__append_8c.html#a09beefbfaf132dbe04add1370a6fb2e3" target="_top" xlink:title=" ">
<polygon fill="white" stroke="#666666" points="742,-467.12 617,-467.12 617,-448.12 742,-448.12 742,-467.12"/>
<text text-anchor="middle" x="679.5" y="-455.12" font-family="Helvetica,sans-Serif" font-size="10.00">lexer_redirect_append</text>
</a>
</g>
</g>
<!-- Node10&#45;&gt;Node12 -->
<g id="edge15" class="edge">
<title>Node10&#45;&gt;Node12</title>
<path fill="none" stroke="#63b8ff" d="M579.61,-445.8C588.49,-446.86 597.72,-447.97 606.81,-449.05"/>
<polygon fill="#63b8ff" stroke="#63b8ff" points="606.64,-452.56 616.98,-450.27 607.47,-445.61 606.64,-452.56"/>
</g>
<!-- Node13 -->
<g id="node13" class="node">
<title>Node13</title>
<g id="a_node13"><a xlink:href="lexer__redirect__in_8c.html#ac723d9668329d99b35003ed2423889e5" target="_top" xlink:title=" ">
<polygon fill="white" stroke="#666666" points="728.5,-430.12 630.5,-430.12 630.5,-411.12 728.5,-411.12 728.5,-430.12"/>
<text text-anchor="middle" x="679.5" y="-418.12" font-family="Helvetica,sans-Serif" font-size="10.00">lexer_redirect_in</text>
</a>
</g>
</g>
<!-- Node10&#45;&gt;Node13 -->
<g id="edge17" class="edge">
<title>Node10&#45;&gt;Node13</title>
<path fill="none" stroke="#63b8ff" d="M579.61,-431.81C593,-430.3 607.16,-428.69 620.46,-427.19"/>
<polygon fill="#63b8ff" stroke="#63b8ff" points="620.89,-430.66 630.44,-426.06 620.11,-423.71 620.89,-430.66"/>
</g>
<!-- Node14 -->
<g id="node14" class="node">
<title>Node14</title>
<g id="a_node14"><a xlink:href="lexer__redirect__out_8c.html#a70e2216639c96030b3861405ae3497c6" target="_top" xlink:title=" ">
<polygon fill="white" stroke="#666666" points="731.5,-393.12 627.5,-393.12 627.5,-374.12 731.5,-374.12 731.5,-393.12"/>
<text text-anchor="middle" x="679.5" y="-381.12" font-family="Helvetica,sans-Serif" font-size="10.00">lexer_redirect_out</text>
</a>
</g>
</g>
<!-- Node10&#45;&gt;Node14 -->
<g id="edge19" class="edge">
<title>Node10&#45;&gt;Node14</title>
<path fill="none" stroke="#63b8ff" d="M544.21,-429.07C563.85,-421.59 592.05,-411.07 617,-402.62 623.4,-400.45 630.21,-398.25 636.87,-396.14"/>
<polygon fill="#63b8ff" stroke="#63b8ff" points="637.97,-399.47 646.47,-393.15 635.89,-392.79 637.97,-399.47"/>
</g>
<!-- Node11&#45;&gt;Node5 -->
<g id="edge14" class="edge">
<title>Node11&#45;&gt;Node5</title>
<path fill="none" stroke="#63b8ff" d="M722.21,-495.84C746.21,-496.55 776.51,-497.43 801.68,-498.17"/>
<polygon fill="#63b8ff" stroke="#63b8ff" points="801.67,-501.67 811.77,-498.47 801.88,-494.68 801.67,-501.67"/>
</g>
<!-- Node12&#45;&gt;Node5 -->
<g id="edge16" class="edge">
<title>Node12&#45;&gt;Node5</title>
<path fill="none" stroke="#63b8ff" d="M719.19,-467.15C743.84,-473.22 775.99,-481.14 802.37,-487.64"/>
<polygon fill="#63b8ff" stroke="#63b8ff" points="801.62,-491.06 812.17,-490.05 803.3,-484.26 801.62,-491.06"/>
</g>
<!-- Node13&#45;&gt;Node5 -->
<g id="edge18" class="edge">
<title>Node13&#45;&gt;Node5</title>
<path fill="none" stroke="#63b8ff" d="M718.71,-430.18C726.61,-432.78 734.73,-435.91 742,-439.62 759.82,-448.7 760.78,-456.44 778,-466.62 790.31,-473.9 804.5,-480.65 817.08,-486.13"/>
<polygon fill="#63b8ff" stroke="#63b8ff" points="815.76,-489.37 826.33,-490.05 818.49,-482.92 815.76,-489.37"/>
</g>
<!-- Node14&#45;&gt;Node5 -->
<g id="edge20" class="edge">
<title>Node14&#45;&gt;Node5</title>
<path fill="none" stroke="#63b8ff" d="M725.86,-393.23C731.65,-395.68 737.22,-398.76 742,-402.62 767.4,-423.12 753.93,-444.58 778,-466.62 786.89,-474.76 798.12,-481.16 809.09,-486.08"/>
<polygon fill="#63b8ff" stroke="#63b8ff" points="808.02,-489.43 818.6,-490.03 810.7,-482.96 808.02,-489.43"/>
</g>
<!-- Node15&#45;&gt;Node5 -->
<g id="edge22" class="edge">
<title>Node15&#45;&gt;Node5</title>
<path fill="none" stroke="#63b8ff" d="M537.66,-382C578.39,-361.88 678.43,-320.79 742,-365.62 780.95,-393.08 745.72,-431.57 778,-466.62 785.65,-474.92 795.78,-481.28 806.06,-486.08"/>
<polygon fill="#63b8ff" stroke="#63b8ff" points="804.9,-489.39 815.47,-490.08 807.63,-482.95 804.9,-489.39"/>
</g>
<!-- Node16&#45;&gt;Node5 -->
<g id="edge24" class="edge">
<title>Node16&#45;&gt;Node5</title>
<path fill="none" stroke="#63b8ff" d="M570.33,-723.31C618.56,-725.16 691.03,-720.97 742,-686.62 802.96,-645.54 834.4,-558.06 845.84,-519.07"/>
<polygon fill="#63b8ff" stroke="#63b8ff" points="849.21,-520.01 848.55,-509.44 842.47,-518.12 849.21,-520.01"/>
</g>
<!-- Node17&#45;&gt;Node5 -->
<g id="edge26" class="edge">
<title>Node17&#45;&gt;Node5</title>
<path fill="none" stroke="#63b8ff" d="M566.92,-687.41C614.57,-690.86 688.42,-689.53 742,-657.62 796.75,-625.01 830.52,-552.96 844.11,-518.59"/>
<polygon fill="#63b8ff" stroke="#63b8ff" points="847.39,-519.8 847.68,-509.21 840.85,-517.31 847.39,-519.8"/>
</g>
<!-- Node18&#45;&gt;Node5 -->
<g id="edge28" class="edge">
<title>Node18&#45;&gt;Node5</title>
<path fill="none" stroke="#63b8ff" d="M550.58,-326.04C597.39,-313.7 686.38,-298.57 742,-341.62 787.72,-377 740.17,-422.9 778,-466.62 785.25,-474.99 795.05,-481.35 805.11,-486.14"/>
<polygon fill="#63b8ff" stroke="#63b8ff" points="803.79,-489.38 814.37,-490.1 806.55,-482.94 803.79,-489.38"/>
</g>
<!-- Node19 -->
<g id="node19" class="node">
<title>Node19</title>
<g id="a_node19"><a xlink:href="lexer__word_8c.html#a730574257743b09386cadd2ccbfe4d13" target="_top" xlink:title=" ">
<polygon fill="white" stroke="#666666" points="740.5,-279.12 618.5,-279.12 618.5,-260.12 740.5,-260.12 740.5,-279.12"/>
<text text-anchor="middle" x="679.5" y="-267.12" font-family="Helvetica,sans-Serif" font-size="10.00">handle_current_token</text>
</a>
</g>
</g>
<!-- Node18&#45;&gt;Node19 -->
<g id="edge29" class="edge">
<title>Node18&#45;&gt;Node19</title>
<path fill="none" stroke="#63b8ff" d="M553.63,-326.86C562.71,-324.05 572.38,-320.61 581,-316.62 598.23,-308.63 600.07,-302.22 617,-293.62 624.71,-289.7 633.22,-286 641.39,-282.74"/>
<polygon fill="#63b8ff" stroke="#63b8ff" points="642.68,-286 650.75,-279.13 640.16,-279.47 642.68,-286"/>
</g>
<!-- Node31 -->
<g id="node31" class="node">
<title>Node31</title>
<g id="a_node31"><a xlink:href="lexer__is__word__separator_8c.html#abccfc6fc0cdbd040fc9a7dcbfd207090" target="_top" xlink:title=" ">
<polygon fill="white" stroke="#666666" points="1274,-22.12 1139,-22.12 1139,-3.12 1274,-3.12 1274,-22.12"/>
<text text-anchor="middle" x="1206.5" y="-10.12" font-family="Helvetica,sans-Serif" font-size="10.00">lexer_is_word_separator</text>
</a>
</g>
</g>
<!-- Node18&#45;&gt;Node31 -->
<g id="edge59" class="edge">
<title>Node18&#45;&gt;Node31</title>
<path fill="none" stroke="#63b8ff" d="M553.72,-330.04C563.3,-327.22 573.21,-322.99 581,-316.62 606.86,-295.47 595.92,-276.55 617,-250.62 734.5,-106.07 781.56,-58.89 962,-12.62 1016.48,1.35 1080.09,0.8 1128.64,-2.95"/>
<polygon fill="#63b8ff" stroke="#63b8ff" points="1128.5,-6.45 1138.76,-3.8 1129.09,0.52 1128.5,-6.45"/>
</g>
<!-- Node20 -->
<g id="node20" class="node">
<title>Node20</title>
<g id="a_node20"><a xlink:href="lexer__word_8c.html#acd8f2a3c47fa56f87c2792ccefd2ee3e" target="_top" xlink:title=" ">
<polygon fill="white" stroke="#666666" points="912.5,-242.12 791.5,-242.12 791.5,-223.12 912.5,-223.12 912.5,-242.12"/>
<text text-anchor="middle" x="852" y="-230.12" font-family="Helvetica,sans-Serif" font-size="10.00">handle_double_quote</text>
</a>
</g>
</g>
<!-- Node19&#45;&gt;Node20 -->
<g id="edge30" class="edge">
<title>Node19&#45;&gt;Node20</title>
<path fill="none" stroke="#63b8ff" d="M724.41,-260.09C746.6,-255.28 773.71,-249.39 797.15,-244.3"/>
<polygon fill="#63b8ff" stroke="#63b8ff" points="797.91,-247.72 806.94,-242.18 796.43,-240.88 797.91,-247.72"/>
</g>
<!-- Node21 -->
<g id="node21" class="node">
<title>Node21</title>
<g id="a_node21"><a xlink:href="lexer__word_8c.html#a733339142f4677a066646a12a7e5bec4" target="_top" xlink:title=" ">
<polygon fill="white" stroke="#666666" points="1103,-467.12 962,-467.12 962,-448.12 1103,-448.12 1103,-467.12"/>
<text text-anchor="middle" x="1032.5" y="-455.12" font-family="Helvetica,sans-Serif" font-size="10.00">handle_escape_sequence</text>
</a>
</g>
</g>
<!-- Node19&#45;&gt;Node21 -->
<g id="edge31" class="edge">
<title>Node19&#45;&gt;Node21</title>
<path fill="none" stroke="#63b8ff" d="M702.24,-279.2C715.39,-285.98 731.58,-296.26 742,-309.62 772.33,-348.52 740.4,-382.68 778,-414.62 825.64,-455.09 897.01,-464.15 951.9,-464.06"/>
<polygon fill="#63b8ff" stroke="#63b8ff" points="951.99,-467.56 961.95,-463.94 951.91,-460.56 951.99,-467.56"/>
</g>
<!-- Node25 -->
<g id="node25" class="node">
<title>Node25</title>
<g id="a_node25"><a xlink:href="lexer__word_8c.html#a3ae03e49183787e7cf32c90ffdef7351" target="_top" xlink:title=" ">
<polygon fill="white" stroke="#666666" points="910.5,-405.12 793.5,-405.12 793.5,-386.12 910.5,-386.12 910.5,-405.12"/>
<text text-anchor="middle" x="852" y="-393.12" font-family="Helvetica,sans-Serif" font-size="10.00">handle_single_quote</text>
</a>
</g>
</g>
<!-- Node19&#45;&gt;Node25 -->
<g id="edge35" class="edge">
<title>Node19&#45;&gt;Node25</title>
<path fill="none" stroke="#63b8ff" d="M714.42,-279.16C723.89,-282.78 733.81,-287.53 742,-293.62 762.83,-309.11 759.55,-321.35 778,-339.62 793.46,-354.93 813.15,-369.81 828.18,-380.38"/>
<polygon fill="#63b8ff" stroke="#63b8ff" points="826.2,-383.27 836.42,-386.07 830.18,-377.51 826.2,-383.27"/>
</g>
<!-- Node26 -->
<g id="node26" class="node">
<title>Node26</title>
<g id="a_node26"><a xlink:href="lexer__utils_8c.html#a2ba6f7e43ecbf713c666ab062eac534c" target="_top" xlink:title=" ">
<polygon fill="white" stroke="#666666" points="926,-331.12 778,-331.12 778,-312.12 926,-312.12 926,-331.12"/>
<text text-anchor="middle" x="852" y="-319.12" font-family="Helvetica,sans-Serif" font-size="10.00">lexer_append_current_char</text>
</a>
</g>
</g>
<!-- Node19&#45;&gt;Node26 -->
<g id="edge37" class="edge">
<title>Node19&#45;&gt;Node26</title>
<path fill="none" stroke="#63b8ff" d="M711.77,-279.16C739.33,-287.56 779.66,-299.86 809.83,-309.06"/>
<polygon fill="#63b8ff" stroke="#63b8ff" points="809.05,-312.48 819.64,-312.05 811.09,-305.79 809.05,-312.48"/>
</g>
<!-- Node27 -->
<g id="node27" class="node">
<title>Node27</title>
<g id="a_node27"><a xlink:href="lexer__expand__tilde_8c.html#ae3c478a10a2764ee7c7f94b42f28ecaf" target="_top" xlink:title=" ">
<polygon fill="white" stroke="#666666" points="906.5,-142.12 797.5,-142.12 797.5,-123.12 906.5,-123.12 906.5,-142.12"/>
<text text-anchor="middle" x="852" y="-130.12" font-family="Helvetica,sans-Serif" font-size="10.00">lexer_expand_tilde</text>
</a>
</g>
</g>
<!-- Node19&#45;&gt;Node27 -->
<g id="edge39" class="edge">
<title>Node19&#45;&gt;Node27</title>
<path fill="none" stroke="#63b8ff" d="M692.49,-259.99C721.4,-236.75 795.21,-177.45 830.97,-148.71"/>
<polygon fill="#63b8ff" stroke="#63b8ff" points="833.19,-151.42 838.8,-142.43 828.81,-145.96 833.19,-151.42"/>
</g>
<!-- Node32 -->
<g id="node32" class="node">
<title>Node32</title>
<g id="a_node32"><a xlink:href="lexer__expand__variable_8c.html#a01ad90eb8460a612626bb33c9e15cd52" target="_top" xlink:title=" ">
<polygon fill="white" stroke="#666666" points="915.5,-279.12 788.5,-279.12 788.5,-260.12 915.5,-260.12 915.5,-279.12"/>
<text text-anchor="middle" x="852" y="-267.12" font-family="Helvetica,sans-Serif" font-size="10.00">lexer_expand_variable</text>
</a>
</g>
</g>
<!-- Node19&#45;&gt;Node32 -->
<g id="edge45" class="edge">
<title>Node19&#45;&gt;Node32</title>
<path fill="none" stroke="#63b8ff" d="M740.61,-269.62C752.67,-269.62 765.47,-269.62 777.91,-269.62"/>
<polygon fill="#63b8ff" stroke="#63b8ff" points="778.26,-273.12 788.26,-269.62 778.26,-266.12 778.26,-273.12"/>
</g>
<!-- Node22 -->
<g id="node22" class="node">
<title>Node22</title>
<g id="a_node22"><a xlink:href="lexer__utils_8c.html#abf1c1b3b6033c8f9c8d1b11cc9e14f75" target="_top" xlink:title=" ">
<polygon fill="white" stroke="#666666" points="1256.5,-335.12 1156.5,-335.12 1156.5,-316.12 1256.5,-316.12 1256.5,-335.12"/>
<text text-anchor="middle" x="1206.5" y="-323.12" font-family="Helvetica,sans-Serif" font-size="10.00">lexer_append_str</text>
</a>
</g>
</g>
<!-- Node21&#45;&gt;Node22 -->
<g id="edge32" class="edge">
<title>Node21&#45;&gt;Node22</title>
<path fill="none" stroke="#63b8ff" d="M1071.81,-448.03C1082.39,-444.44 1093.55,-439.7 1103,-433.62 1141.35,-408.93 1175.53,-366.96 1193.07,-343.27"/>
<polygon fill="#63b8ff" stroke="#63b8ff" points="1195.92,-345.31 1198.95,-335.16 1190.25,-341.2 1195.92,-345.31"/>
</g>
<!-- Node23 -->
<g id="node23" class="node">
<title>Node23</title>
<g id="a_node23"><a xlink:href="strings_8h.html#a5e1589f073ac32d227dbc6020c376dab" target="_top" xlink:title=" ">
<polygon fill="white" stroke="#666666" points="1419.5,-335.12 1318.5,-335.12 1318.5,-316.12 1419.5,-316.12 1419.5,-335.12"/>
<text text-anchor="middle" x="1369" y="-323.12" font-family="Helvetica,sans-Serif" font-size="10.00">append_to_buffer</text>
</a>
</g>
</g>
<!-- Node22&#45;&gt;Node23 -->
<g id="edge33" class="edge">
<title>Node22&#45;&gt;Node23</title>
<path fill="none" stroke="#63b8ff" d="M1256.53,-325.62C1272.79,-325.62 1291.08,-325.62 1308.06,-325.62"/>
<polygon fill="#63b8ff" stroke="#63b8ff" points="1308.44,-329.12 1318.44,-325.62 1308.44,-322.12 1308.44,-329.12"/>
</g>
<!-- Node24 -->
<g id="node24" class="node">
<title>Node24</title>
<g id="a_node24"><a xlink:href="lexer__utils_8c.html#a84e8d5514cfe03a20152ad26f170211f" target="_top" xlink:title=" ">
<polygon fill="white" stroke="#666666" points="1428,-279.12 1310,-279.12 1310,-260.12 1428,-260.12 1428,-279.12"/>
<text text-anchor="middle" x="1369" y="-267.12" font-family="Helvetica,sans-Serif" font-size="10.00">lexer_set_alloc_error</text>
</a>
</g>
</g>
<!-- Node22&#45;&gt;Node24 -->
<g id="edge34" class="edge">
<title>Node22&#45;&gt;Node24</title>
<path fill="none" stroke="#63b8ff" d="M1235.09,-315.99C1261.66,-306.72 1302.03,-292.64 1331.3,-282.42"/>
<polygon fill="#63b8ff" stroke="#63b8ff" points="1332.48,-285.72 1340.77,-279.12 1330.17,-279.11 1332.48,-285.72"/>
</g>
<!-- Node25&#45;&gt;Node22 -->
<g id="edge36" class="edge">
<title>Node25&#45;&gt;Node22</title>
<path fill="none" stroke="#63b8ff" d="M910.51,-399.09C961.95,-400.58 1038.89,-398.79 1103,-380.62 1132.82,-372.17 1163.73,-354.08 1183.7,-340.95"/>
<polygon fill="#63b8ff" stroke="#63b8ff" points="1185.73,-343.8 1192.07,-335.31 1181.82,-338 1185.73,-343.8"/>
</g>
<!-- Node26&#45;&gt;Node22 -->
<g id="edge38" class="edge">
<title>Node26&#45;&gt;Node22</title>
<path fill="none" stroke="#63b8ff" d="M872.09,-331.22C893.39,-341.34 929.18,-356.65 962,-362.62 1023.66,-373.83 1041.27,-373.42 1103,-362.62 1128.62,-358.14 1156.29,-347.79 1176.42,-339.18"/>
<polygon fill="#63b8ff" stroke="#63b8ff" points="1177.9,-342.35 1185.65,-335.12 1175.08,-335.94 1177.9,-342.35"/>
</g>
<!-- Node27&#45;&gt;Node22 -->
<g id="edge42" class="edge">
<title>Node27&#45;&gt;Node22</title>
<path fill="none" stroke="#63b8ff" d="M877.21,-142.23C922.77,-160.7 1023.79,-203.53 1103,-250.62 1133.38,-268.68 1165.9,-293.52 1185.97,-309.58"/>
<polygon fill="#63b8ff" stroke="#63b8ff" points="1184.03,-312.52 1194.01,-316.08 1188.43,-307.07 1184.03,-312.52"/>
</g>
<!-- Node28 -->
<g id="node28" class="node">
<title>Node28</title>
<g id="a_node28"><a xlink:href="get__variable__value_8c.html#a2edd9900f19af236aa05385a789be3d6" target="_top" xlink:title=" ">
<polygon fill="white" stroke="#666666" points="1261.5,-101.12 1151.5,-101.12 1151.5,-82.12 1261.5,-82.12 1261.5,-101.12"/>
<text text-anchor="middle" x="1206.5" y="-89.12" font-family="Helvetica,sans-Serif" font-size="10.00">get_variable_value</text>
</a>
</g>
</g>
<!-- Node27&#45;&gt;Node28 -->
<g id="edge40" class="edge">
<title>Node27&#45;&gt;Node28</title>
<path fill="none" stroke="#63b8ff" d="M870.48,-123.11C891.49,-112.26 928.14,-95.19 962,-88.62 1021.86,-76.99 1091.57,-79.42 1141.02,-83.76"/>
<polygon fill="#63b8ff" stroke="#63b8ff" points="1140.98,-87.27 1151.26,-84.7 1141.62,-80.3 1140.98,-87.27"/>
</g>
<!-- Node30 -->
<g id="node30" class="node">
<title>Node30</title>
<g id="a_node30"><a xlink:href="lexer__expand__tilde_8c.html#aa4231a41b1e79447d6a70db7b075f937" target="_top" xlink:title=" ">
<polygon fill="white" stroke="#666666" points="1091,-41.12 974,-41.12 974,-22.12 1091,-22.12 1091,-41.12"/>
<text text-anchor="middle" x="1032.5" y="-29.12" font-family="Helvetica,sans-Serif" font-size="10.00">should_expand_tilde</text>
</a>
</g>
</g>
<!-- Node27&#45;&gt;Node30 -->
<g id="edge43" class="edge">
<title>Node27&#45;&gt;Node30</title>
<path fill="none" stroke="#63b8ff" d="M864.39,-122.91C883.49,-107.02 923.65,-75.28 962,-55.62 970.26,-51.38 979.43,-47.62 988.33,-44.4"/>
<polygon fill="#63b8ff" stroke="#63b8ff" points="989.52,-47.69 997.83,-41.12 987.24,-41.08 989.52,-47.69"/>
</g>
<!-- Node29 -->
<g id="node29" class="node">
<title>Node29</title>
<g id="a_node29"><a xlink:href="get__variable_8c.html#a569170390f0edf013bf89c26ef55ea8c" target="_top" xlink:title=" ">
<polygon fill="white" stroke="#666666" points="1407.5,-101.12 1330.5,-101.12 1330.5,-82.12 1407.5,-82.12 1407.5,-101.12"/>
<text text-anchor="middle" x="1369" y="-89.12" font-family="Helvetica,sans-Serif" font-size="10.00">get_variable</text>
</a>
</g>
</g>
<!-- Node28&#45;&gt;Node29 -->
<g id="edge41" class="edge">
<title>Node28&#45;&gt;Node29</title>
<path fill="none" stroke="#63b8ff" d="M1261.84,-91.62C1280.78,-91.62 1301.88,-91.62 1320.25,-91.62"/>
<polygon fill="#63b8ff" stroke="#63b8ff" points="1320.42,-95.12 1330.42,-91.62 1320.42,-88.12 1320.42,-95.12"/>
</g>
<!-- Node30&#45;&gt;Node31 -->
<g id="edge44" class="edge">
<title>Node30&#45;&gt;Node31</title>
<path fill="none" stroke="#63b8ff" d="M1091.25,-25.24C1103.34,-23.9 1116.27,-22.48 1128.92,-21.08"/>
<polygon fill="#63b8ff" stroke="#63b8ff" points="1129.43,-24.54 1138.99,-19.97 1128.67,-17.59 1129.43,-24.54"/>
</g>
<!-- Node32&#45;&gt;Node24 -->
<g id="edge58" class="edge">
<title>Node32&#45;&gt;Node24</title>
<path fill="none" stroke="#63b8ff" d="M897.32,-260.11C917.02,-256.34 940.57,-252.47 962,-250.62 1080.49,-240.37 1218.94,-251.85 1299.71,-260.89"/>
<polygon fill="#63b8ff" stroke="#63b8ff" points="1299.42,-264.38 1309.75,-262.04 1300.21,-257.43 1299.42,-264.38"/>
</g>
<!-- Node33 -->
<g id="node33" class="node">
<title>Node33</title>
<g id="a_node33"><a xlink:href="lexer__expand__variable_8c.html#abe77b7e35b276965b72648d12abae283" target="_top" xlink:title=" ">
<polygon fill="white" stroke="#666666" points="1075.5,-316.12 989.5,-316.12 989.5,-297.12 1075.5,-297.12 1075.5,-316.12"/>
<text text-anchor="middle" x="1032.5" y="-304.12" font-family="Helvetica,sans-Serif" font-size="10.00">append_dollar</text>
</a>
</g>
</g>
<!-- Node32&#45;&gt;Node33 -->
<g id="edge46" class="edge">
<title>Node32&#45;&gt;Node33</title>
<path fill="none" stroke="#63b8ff" d="M898.97,-279.15C923.59,-284.25 954.01,-290.56 979.49,-295.84"/>
<polygon fill="#63b8ff" stroke="#63b8ff" points="978.85,-299.28 989.36,-297.88 980.28,-292.43 978.85,-299.28"/>
</g>
<!-- Node34 -->
<g id="node34" class="node">
<title>Node34</title>
<g id="a_node34"><a xlink:href="lexer__expand__variable_8c.html#ab47d31838e3255a1321d85e937919d4e" target="_top" xlink:title=" ">
<polygon fill="white" stroke="#666666" points="1088,-279.12 977,-279.12 977,-260.12 1088,-260.12 1088,-279.12"/>
<text text-anchor="middle" x="1032.5" y="-267.12" font-family="Helvetica,sans-Serif" font-size="10.00">append_last_status</text>
</a>
</g>
</g>
<!-- Node32&#45;&gt;Node34 -->
<g id="edge48" class="edge">
<title>Node32&#45;&gt;Node34</title>
<path fill="none" stroke="#63b8ff" d="M915.68,-269.62C932.24,-269.62 950.13,-269.62 966.79,-269.62"/>
<polygon fill="#63b8ff" stroke="#63b8ff" points="966.98,-273.12 976.98,-269.62 966.98,-266.12 966.98,-273.12"/>
</g>
<!-- Node35 -->
<g id="node35" class="node">
<title>Node35</title>
<g id="a_node35"><a xlink:href="lexer__expand__variable_8c.html#a9954e7e26e9570a3c41eed4e16bf6791" target="_top" xlink:title=" ">
<polygon fill="white" stroke="#666666" points="1097.5,-353.12 967.5,-353.12 967.5,-334.12 1097.5,-334.12 1097.5,-353.12"/>
<text text-anchor="middle" x="1032.5" y="-341.12" font-family="Helvetica,sans-Serif" font-size="10.00">append_variable_value</text>
</a>
</g>
</g>
<!-- Node32&#45;&gt;Node35 -->
<g id="edge51" class="edge">
<title>Node32&#45;&gt;Node35</title>
<path fill="none" stroke="#63b8ff" d="M876.04,-279.16C890.58,-285.4 909.65,-293.97 926,-302.62 942.58,-311.39 944.79,-317.18 962,-324.62 967.44,-326.97 973.25,-329.1 979.11,-331.02"/>
<polygon fill="#63b8ff" stroke="#63b8ff" points="978.36,-334.45 988.95,-334.03 980.41,-327.75 978.36,-334.45"/>
</g>
<!-- Node36 -->
<g id="node36" class="node">
<title>Node36</title>
<g id="a_node36"><a xlink:href="lexer__expand__variable_8c.html#a1d07a8c171e69a5c58a385a75520e6c0" target="_top" xlink:title=" ">
<polygon fill="white" stroke="#666666" points="1090.5,-127.62 974.5,-127.62 974.5,-97.62 1090.5,-97.62 1090.5,-127.62"/>
<text text-anchor="start" x="982.5" y="-115.62" font-family="Helvetica,sans-Serif" font-size="10.00">get_correct_variable</text>
<text text-anchor="middle" x="1032.5" y="-104.62" font-family="Helvetica,sans-Serif" font-size="10.00">_value</text>
</a>
</g>
</g>
<!-- Node32&#45;&gt;Node36 -->
<g id="edge53" class="edge">
<title>Node32&#45;&gt;Node36</title>
<path fill="none" stroke="#63b8ff" d="M912.03,-260.1C917.15,-257.61 921.92,-254.5 926,-250.62 964.52,-214.02 924.93,-174.69 962,-136.62 963.22,-135.36 964.52,-134.17 965.87,-133.04"/>
<polygon fill="#63b8ff" stroke="#63b8ff" points="967.98,-135.83 974.17,-127.23 963.97,-130.1 967.98,-135.83"/>
</g>
<!-- Node37 -->
<g id="node37" class="node">
<title>Node37</title>
<g id="a_node37"><a xlink:href="lexer__expand__variable_8c.html#a3674c7faac945bf9ec05a9dc00c08896" target="_top" xlink:title=" ">
<polygon fill="white" stroke="#666666" points="1098,-165.12 967,-165.12 967,-146.12 1098,-146.12 1098,-165.12"/>
<text text-anchor="middle" x="1032.5" y="-153.12" font-family="Helvetica,sans-Serif" font-size="10.00">get_variable_name_len</text>
</a>
</g>
</g>
<!-- Node32&#45;&gt;Node37 -->
<g id="edge55" class="edge">
<title>Node32&#45;&gt;Node37</title>
<path fill="none" stroke="#63b8ff" d="M909.94,-260.03C915.71,-257.56 921.21,-254.48 926,-250.62 953.55,-228.42 935.33,-202.87 962,-179.62 966.74,-175.49 972.22,-172.06 977.99,-169.22"/>
<polygon fill="#63b8ff" stroke="#63b8ff" points="979.44,-172.4 987.22,-165.21 976.66,-165.98 979.44,-172.4"/>
</g>
<!-- Node33&#45;&gt;Node22 -->
<g id="edge47" class="edge">
<title>Node33&#45;&gt;Node22</title>
<path fill="none" stroke="#63b8ff" d="M1075.58,-311.27C1096.8,-313.61 1122.91,-316.5 1146.13,-319.06"/>
<polygon fill="#63b8ff" stroke="#63b8ff" points="1145.91,-322.56 1156.23,-320.18 1146.68,-315.6 1145.91,-322.56"/>
</g>
<!-- Node34&#45;&gt;Node22 -->
<g id="edge49" class="edge">
<title>Node34&#45;&gt;Node22</title>
<path fill="none" stroke="#63b8ff" d="M1073.39,-279.21C1083.13,-281.75 1093.49,-284.63 1103,-287.62 1126.39,-294.96 1152.27,-304.57 1172.18,-312.29"/>
<polygon fill="#63b8ff" stroke="#63b8ff" points="1171.13,-315.63 1181.71,-316.02 1173.68,-309.12 1171.13,-315.63"/>
</g>
<!-- Node34&#45;&gt;Node24 -->
<g id="edge50" class="edge">
<title>Node34&#45;&gt;Node24</title>
<path fill="none" stroke="#63b8ff" d="M1088.36,-269.62C1146.12,-269.62 1237.18,-269.62 1299.59,-269.62"/>
<polygon fill="#63b8ff" stroke="#63b8ff" points="1299.74,-273.12 1309.74,-269.62 1299.74,-266.12 1299.74,-273.12"/>
</g>
<!-- Node35&#45;&gt;Node22 -->
<g id="edge52" class="edge">
<title>Node35&#45;&gt;Node22</title>
<path fill="none" stroke="#63b8ff" d="M1097.55,-336.92C1113.53,-335.24 1130.6,-333.46 1146.33,-331.81"/>
<polygon fill="#63b8ff" stroke="#63b8ff" points="1146.87,-335.27 1156.46,-330.75 1146.15,-328.31 1146.87,-335.27"/>
</g>
<!-- Node36&#45;&gt;Node28 -->
<g id="edge54" class="edge">
<title>Node36&#45;&gt;Node28</title>
<path fill="none" stroke="#63b8ff" d="M1090.77,-105.63C1106.96,-103.65 1124.68,-101.49 1141.25,-99.46"/>
<polygon fill="#63b8ff" stroke="#63b8ff" points="1141.89,-102.91 1151.39,-98.23 1141.04,-95.96 1141.89,-102.91"/>
</g>
<!-- Node38 -->
<g id="node38" class="node">
<title>Node38</title>
<g id="a_node38"><a xlink:href="lexer__expand__variable_8c.html#a5067193ac632b7565fd8b9ad405a525f" target="_top" xlink:title=" ">
<polygon fill="white" stroke="#666666" points="1269,-165.12 1144,-165.12 1144,-146.12 1269,-146.12 1269,-165.12"/>
<text text-anchor="middle" x="1206.5" y="-153.12" font-family="Helvetica,sans-Serif" font-size="10.00">is_valid_variable_char</text>
</a>
</g>
</g>
<!-- Node37&#45;&gt;Node38 -->
<g id="edge56" class="edge">
<title>Node37&#45;&gt;Node38</title>
<path fill="none" stroke="#63b8ff" d="M1098.04,-155.62C1109.61,-155.62 1121.74,-155.62 1133.51,-155.62"/>
<polygon fill="#63b8ff" stroke="#63b8ff" points="1133.74,-159.12 1143.74,-155.62 1133.74,-152.12 1133.74,-159.12"/>
</g>
<!-- Node39 -->
<g id="node39" class="node">
<title>Node39</title>
<g id="a_node39"><a xlink:href="strings_8h.html#adfd4fc057d3b7ad39c6867928cc44175" target="_top" xlink:title=" ">
<polygon fill="white" stroke="#666666" points="1410.5,-165.12 1327.5,-165.12 1327.5,-146.12 1410.5,-146.12 1410.5,-165.12"/>
<text text-anchor="middle" x="1369" y="-153.12" font-family="Helvetica,sans-Serif" font-size="10.00">my_isnumber</text>
</a>
</g>
</g>
<!-- Node38&#45;&gt;Node39 -->
<g id="edge57" class="edge">
<title>Node38&#45;&gt;Node39</title>
<path fill="none" stroke="#63b8ff" d="M1269.09,-155.62C1284.9,-155.62 1301.72,-155.62 1316.93,-155.62"/>
<polygon fill="#63b8ff" stroke="#63b8ff" points="1317.16,-159.12 1327.16,-155.62 1317.16,-152.12 1317.16,-159.12"/>
</g>
</g>
</svg>
