<?xml version="1.0" encoding="UTF-8" standalone="no"?>
<!DOCTYPE svg PUBLIC "-//W3C//DTD SVG 1.1//EN"
 "http://www.w3.org/Graphics/SVG/1.1/DTD/svg11.dtd">
<!-- Generated by graphviz version 2.43.0 (0)
 -->
<!-- Title: parse_redirection_token Pages: 1 -->
<svg width="1788pt" height="692pt"
 viewBox="0.00 0.00 1788.00 692.03" xmlns="http://www.w3.org/2000/svg" xmlns:xlink="http://www.w3.org/1999/xlink">
<g id="graph0" class="graph" transform="scale(1 1) rotate(0) translate(4 688.03)">
<title>parse_redirection_token</title>
<!-- Node1 -->
<g id="node1" class="node">
<title>Node1</title>
<g id="a_node1"><a xlink:title=" ">
<polygon fill="#999999" stroke="#666666" points="134,-256.03 0,-256.03 0,-237.03 134,-237.03 134,-256.03"/>
<text text-anchor="middle" x="67" y="-244.03" font-family="Helvetica,sans-Serif" font-size="10.00">parse_redirection_token</text>
</a>
</g>
</g>
<!-- Node2 -->
<g id="node2" class="node">
<title>Node2</title>
<g id="a_node2"><a xlink:href="list_8h.html#a18e592f6f160bc93dbb7e5d788a6f2e1" target="_top" xlink:title=" ">
<polygon fill="white" stroke="#666666" points="284,-293.03 170,-293.03 170,-274.03 284,-274.03 284,-293.03"/>
<text text-anchor="middle" x="227" y="-281.03" font-family="Helvetica,sans-Serif" font-size="10.00">my_add_to_list_end</text>
</a>
</g>
</g>
<!-- Node1&#45;&gt;Node2 -->
<g id="edge1" class="edge">
<title>Node1&#45;&gt;Node2</title>
<path fill="none" stroke="#63b8ff" d="M108.69,-256.06C128.97,-260.81 153.71,-266.6 175.22,-271.64"/>
<polygon fill="#63b8ff" stroke="#63b8ff" points="174.64,-275.1 185.17,-273.97 176.24,-268.29 174.64,-275.1"/>
</g>
<!-- Node3 -->
<g id="node3" class="node">
<title>Node3</title>
<g id="a_node3"><a xlink:href="parser__next_8c.html#ad25986b565a767c6ad7d0b0b8846fca6" target="_top" xlink:title=" ">
<polygon fill="white" stroke="#666666" points="264,-256.03 190,-256.03 190,-237.03 264,-237.03 264,-256.03"/>
<text text-anchor="middle" x="227" y="-244.03" font-family="Helvetica,sans-Serif" font-size="10.00">parser_next</text>
</a>
</g>
</g>
<!-- Node1&#45;&gt;Node3 -->
<g id="edge2" class="edge">
<title>Node1&#45;&gt;Node3</title>
<path fill="none" stroke="#63b8ff" d="M134.09,-246.53C149.47,-246.53 165.52,-246.53 179.82,-246.53"/>
<polygon fill="#63b8ff" stroke="#63b8ff" points="179.89,-250.03 189.89,-246.53 179.89,-243.03 179.89,-250.03"/>
</g>
<!-- Node89 -->
<g id="node50" class="node">
<title>Node89</title>
<g id="a_node50"><a xlink:href="parser__set__error_8c.html#adcfabdb026b94fdbe4b6cbf5cb16522a" target="_top" xlink:title=" ">
<polygon fill="white" stroke="#666666" points="275,-219.03 179,-219.03 179,-200.03 275,-200.03 275,-219.03"/>
<text text-anchor="middle" x="227" y="-207.03" font-family="Helvetica,sans-Serif" font-size="10.00">parser_set_error</text>
</a>
</g>
</g>
<!-- Node1&#45;&gt;Node89 -->
<g id="edge76" class="edge">
<title>Node1&#45;&gt;Node89</title>
<path fill="none" stroke="#63b8ff" d="M108.69,-237.01C128.97,-232.25 153.71,-226.46 175.22,-221.42"/>
<polygon fill="#63b8ff" stroke="#63b8ff" points="176.24,-224.78 185.17,-219.09 174.64,-217.97 176.24,-224.78"/>
</g>
<!-- Node4 -->
<g id="node4" class="node">
<title>Node4</title>
<g id="a_node4"><a xlink:href="lexer__next__token_8c.html#a3def5432329709fb4df861d90672c510" target="_top" xlink:title=" ">
<polygon fill="white" stroke="#666666" points="420,-275.03 320,-275.03 320,-256.03 420,-256.03 420,-275.03"/>
<text text-anchor="middle" x="370" y="-263.03" font-family="Helvetica,sans-Serif" font-size="10.00">lexer_next_token</text>
</a>
</g>
</g>
<!-- Node3&#45;&gt;Node4 -->
<g id="edge3" class="edge">
<title>Node3&#45;&gt;Node4</title>
<path fill="none" stroke="#63b8ff" d="M264.31,-251.43C278.17,-253.29 294.35,-255.47 309.79,-257.55"/>
<polygon fill="#63b8ff" stroke="#63b8ff" points="309.41,-261.04 319.79,-258.9 310.35,-254.1 309.41,-261.04"/>
</g>
<!-- Node44 -->
<g id="node49" class="node">
<title>Node44</title>
<g id="a_node49"><a xlink:href="destroy__token_8c.html#ad1a471ee7b1ccb035d769be1152a370c" target="_top" xlink:title=" ">
<polygon fill="white" stroke="#666666" points="413,-238.03 327,-238.03 327,-219.03 413,-219.03 413,-238.03"/>
<text text-anchor="middle" x="370" y="-226.03" font-family="Helvetica,sans-Serif" font-size="10.00">token_destroy</text>
</a>
</g>
</g>
<!-- Node3&#45;&gt;Node44 -->
<g id="edge75" class="edge">
<title>Node3&#45;&gt;Node44</title>
<path fill="none" stroke="#63b8ff" d="M264.31,-241.9C280.27,-239.86 299.32,-237.43 316.76,-235.2"/>
<polygon fill="#63b8ff" stroke="#63b8ff" points="317.34,-238.66 326.81,-233.92 316.45,-231.71 317.34,-238.66"/>
</g>
<!-- Node5 -->
<g id="node5" class="node">
<title>Node5</title>
<g id="a_node5"><a xlink:href="create__token_8c.html#a15bcfc92177012893c626ce7d2d6bb6b" target="_top" xlink:title=" ">
<polygon fill="white" stroke="#666666" points="877.5,-368.03 797.5,-368.03 797.5,-349.03 877.5,-349.03 877.5,-368.03"/>
<text text-anchor="middle" x="837.5" y="-356.03" font-family="Helvetica,sans-Serif" font-size="10.00">create_token</text>
</a>
</g>
</g>
<!-- Node4&#45;&gt;Node5 -->
<g id="edge4" class="edge">
<title>Node4&#45;&gt;Node5</title>
<path fill="none" stroke="#63b8ff" d="M373.82,-275.11C382.02,-301.32 408.37,-374.93 456,-414.53 514.26,-462.97 542.3,-457.91 617,-470.53 671.78,-479.79 691.62,-493.94 742,-470.53 783.53,-451.24 813.38,-403.7 827.44,-377.18"/>
<polygon fill="#63b8ff" stroke="#63b8ff" points="830.62,-378.65 832.05,-368.15 824.39,-375.47 830.62,-378.65"/>
</g>
<!-- Node6 -->
<g id="node6" class="node">
<title>Node6</title>
<g id="a_node6"><a xlink:href="lexer__next__token_8c.html#add2e1acaa9518ecf20b6670ad91a5c65" target="_top" xlink:title=" ">
<polygon fill="white" stroke="#666666" points="569.5,-405.03 467.5,-405.03 467.5,-386.03 569.5,-386.03 569.5,-405.03"/>
<text text-anchor="middle" x="518.5" y="-393.03" font-family="Helvetica,sans-Serif" font-size="10.00">get_logical_token</text>
</a>
</g>
</g>
<!-- Node4&#45;&gt;Node6 -->
<g id="edge5" class="edge">
<title>Node4&#45;&gt;Node6</title>
<path fill="none" stroke="#63b8ff" d="M382.01,-275.3C406.95,-297.43 467.97,-351.58 498.89,-379.02"/>
<polygon fill="#63b8ff" stroke="#63b8ff" points="496.96,-381.98 506.76,-386 501.6,-376.75 496.96,-381.98"/>
</g>
<!-- Node10 -->
<g id="node10" class="node">
<title>Node10</title>
<g id="a_node10"><a xlink:href="lexer__next__token_8c.html#abcee8a7ba5ea6ca80c0bd7e3dd8d9a32" target="_top" xlink:title=" ">
<polygon fill="white" stroke="#666666" points="579.5,-294.03 457.5,-294.03 457.5,-275.03 579.5,-275.03 579.5,-294.03"/>
<text text-anchor="middle" x="518.5" y="-282.03" font-family="Helvetica,sans-Serif" font-size="10.00">get_redirection_token</text>
</a>
</g>
</g>
<!-- Node4&#45;&gt;Node10 -->
<g id="edge12" class="edge">
<title>Node4&#45;&gt;Node10</title>
<path fill="none" stroke="#63b8ff" d="M420.19,-271.91C428.83,-273.03 437.96,-274.22 447.05,-275.4"/>
<polygon fill="#63b8ff" stroke="#63b8ff" points="446.88,-278.9 457.24,-276.72 447.78,-271.96 446.88,-278.9"/>
</g>
<!-- Node15 -->
<g id="node15" class="node">
<title>Node15</title>
<g id="a_node15"><a xlink:href="lexer__newline_8c.html#a9f60bf18297b9c705fa6cdff027c79fc" target="_top" xlink:title=" ">
<polygon fill="white" stroke="#666666" points="721.5,-202.03 637.5,-202.03 637.5,-183.03 721.5,-183.03 721.5,-202.03"/>
<text text-anchor="middle" x="679.5" y="-190.03" font-family="Helvetica,sans-Serif" font-size="10.00">lexer_newline</text>
</a>
</g>
</g>
<!-- Node4&#45;&gt;Node15 -->
<g id="edge21" class="edge">
<title>Node4&#45;&gt;Node15</title>
<path fill="none" stroke="#63b8ff" d="M420.17,-260.02C463.23,-254.39 527.18,-244.1 581,-227.53 597.73,-222.38 600.61,-217.68 617,-211.53 622.9,-209.32 629.2,-207.16 635.41,-205.13"/>
<polygon fill="#63b8ff" stroke="#63b8ff" points="636.59,-208.43 645.06,-202.08 634.47,-201.76 636.59,-208.43"/>
</g>
<!-- Node16 -->
<g id="node16" class="node">
<title>Node16</title>
<g id="a_node16"><a xlink:href="lexer__parenthesis_8c.html#a2b13eaa0fee255bea85bd4279f369795" target="_top" xlink:title=" ">
<polygon fill="white" stroke="#666666" points="570,-574.03 467,-574.03 467,-555.03 570,-555.03 570,-574.03"/>
<text text-anchor="middle" x="518.5" y="-562.03" font-family="Helvetica,sans-Serif" font-size="10.00">lexer_parenthesis</text>
</a>
</g>
</g>
<!-- Node4&#45;&gt;Node16 -->
<g id="edge23" class="edge">
<title>Node4&#45;&gt;Node16</title>
<path fill="none" stroke="#63b8ff" d="M370.85,-275.14C370.75,-314.75 375.81,-467.07 456,-546.53 456.96,-547.48 457.96,-548.38 459,-549.23"/>
<polygon fill="#63b8ff" stroke="#63b8ff" points="457.39,-552.36 467.68,-554.88 461.21,-546.49 457.39,-552.36"/>
</g>
<!-- Node17 -->
<g id="node17" class="node">
<title>Node17</title>
<g id="a_node17"><a xlink:href="lexer__semicolon_8c.html#a1612109b245d9780427946e4e33b01b7" target="_top" xlink:title=" ">
<polygon fill="white" stroke="#666666" points="566.5,-537.03 470.5,-537.03 470.5,-518.03 566.5,-518.03 566.5,-537.03"/>
<text text-anchor="middle" x="518.5" y="-525.03" font-family="Helvetica,sans-Serif" font-size="10.00">lexer_semicolon</text>
</a>
</g>
</g>
<!-- Node4&#45;&gt;Node17 -->
<g id="edge25" class="edge">
<title>Node4&#45;&gt;Node17</title>
<path fill="none" stroke="#63b8ff" d="M371.66,-275.17C374.58,-310.58 389.36,-434.92 456,-503.53 459.84,-507.49 464.41,-510.81 469.31,-513.59"/>
<polygon fill="#63b8ff" stroke="#63b8ff" points="467.84,-516.77 478.36,-518.03 470.93,-510.48 467.84,-516.77"/>
</g>
<!-- Node18 -->
<g id="node18" class="node">
<title>Node18</title>
<g id="a_node18"><a xlink:href="lexer__word_8c.html#ac2600a9ba16009c4d8c114a118c54955" target="_top" xlink:title=" ">
<polygon fill="white" stroke="#666666" points="553.5,-218.03 483.5,-218.03 483.5,-199.03 553.5,-199.03 553.5,-218.03"/>
<text text-anchor="middle" x="518.5" y="-206.03" font-family="Helvetica,sans-Serif" font-size="10.00">lexer_word</text>
</a>
</g>
</g>
<!-- Node4&#45;&gt;Node18 -->
<g id="edge27" class="edge">
<title>Node4&#45;&gt;Node18</title>
<path fill="none" stroke="#63b8ff" d="M397.53,-256.02C404.83,-253.34 412.74,-250.38 420,-247.53 436.14,-241.21 439.93,-239.02 456,-232.53 464.82,-228.98 474.38,-225.2 483.28,-221.73"/>
<polygon fill="#63b8ff" stroke="#63b8ff" points="484.56,-224.99 492.61,-218.1 482.02,-218.46 484.56,-224.99"/>
</g>
<!-- Node137 -->
<g id="node46" class="node">
<title>Node137</title>
<g id="a_node46"><a xlink:href="lexer__next__token_8c.html#acbf7d728a3a47bb6afba90556ceed465" target="_top" xlink:title=" ">
<polygon fill="white" stroke="#666666" points="557.5,-181.03 479.5,-181.03 479.5,-162.03 557.5,-162.03 557.5,-181.03"/>
<text text-anchor="middle" x="518.5" y="-169.03" font-family="Helvetica,sans-Serif" font-size="10.00">return_token</text>
</a>
</g>
</g>
<!-- Node4&#45;&gt;Node137 -->
<g id="edge72" class="edge">
<title>Node4&#45;&gt;Node137</title>
<path fill="none" stroke="#63b8ff" d="M406,-255.93C411,-253.66 415.84,-250.89 420,-247.53 443.3,-228.7 432.21,-208.75 456,-190.53 460.16,-187.35 464.87,-184.69 469.77,-182.47"/>
<polygon fill="#63b8ff" stroke="#63b8ff" points="471.32,-185.63 479.36,-178.74 468.78,-179.1 471.32,-185.63"/>
</g>
<!-- Node138 -->
<g id="node47" class="node">
<title>Node138</title>
<g id="a_node47"><a xlink:href="lexer__next__token_8c.html#a7f0a2dd2373821667a4d5381e7711aa0" target="_top" xlink:title=" ">
<polygon fill="white" stroke="#666666" points="563,-144.03 474,-144.03 474,-125.03 563,-125.03 563,-144.03"/>
<text text-anchor="middle" x="518.5" y="-132.03" font-family="Helvetica,sans-Serif" font-size="10.00">skip_comment</text>
</a>
</g>
</g>
<!-- Node4&#45;&gt;Node138 -->
<g id="edge73" class="edge">
<title>Node4&#45;&gt;Node138</title>
<path fill="none" stroke="#63b8ff" d="M407.87,-256.02C412.32,-253.76 416.52,-250.97 420,-247.53 451.85,-216.12 423.34,-184.1 456,-153.53 458.61,-151.09 461.52,-148.96 464.63,-147.11"/>
<polygon fill="#63b8ff" stroke="#63b8ff" points="466.38,-150.15 473.79,-142.57 463.27,-143.88 466.38,-150.15"/>
</g>
<!-- Node139 -->
<g id="node48" class="node">
<title>Node139</title>
<g id="a_node48"><a xlink:href="lexer__next__token_8c.html#a5b2052471d98cef2998e1367f9bf8f6d" target="_top" xlink:title=" ">
<polygon fill="white" stroke="#666666" points="581,-107.03 456,-107.03 456,-88.03 581,-88.03 581,-107.03"/>
<text text-anchor="middle" x="518.5" y="-95.03" font-family="Helvetica,sans-Serif" font-size="10.00">skip_spaces_and_tabs</text>
</a>
</g>
</g>
<!-- Node4&#45;&gt;Node139 -->
<g id="edge74" class="edge">
<title>Node4&#45;&gt;Node139</title>
<path fill="none" stroke="#63b8ff" d="M409.16,-255.81C413.19,-253.59 416.93,-250.87 420,-247.53 460.87,-203.09 413.98,-159.9 456,-116.53 457.4,-115.09 458.91,-113.75 460.5,-112.52"/>
<polygon fill="#63b8ff" stroke="#63b8ff" points="462.45,-115.43 469.07,-107.15 458.74,-109.49 462.45,-115.43"/>
</g>
<!-- Node7 -->
<g id="node7" class="node">
<title>Node7</title>
<g id="a_node7"><a xlink:href="lexer__logical__and_8c.html#a59e5031d54357d65c6873edc67de2a47" target="_top" xlink:title=" ">
<polygon fill="white" stroke="#666666" points="730,-424.03 629,-424.03 629,-405.03 730,-405.03 730,-424.03"/>
<text text-anchor="middle" x="679.5" y="-412.03" font-family="Helvetica,sans-Serif" font-size="10.00">lexer_logical_and</text>
</a>
</g>
</g>
<!-- Node6&#45;&gt;Node7 -->
<g id="edge6" class="edge">
<title>Node6&#45;&gt;Node7</title>
<path fill="none" stroke="#63b8ff" d="M569.81,-401.55C585.26,-403.39 602.41,-405.44 618.45,-407.36"/>
<polygon fill="#63b8ff" stroke="#63b8ff" points="618.45,-410.88 628.79,-408.59 619.28,-403.93 618.45,-410.88"/>
</g>
<!-- Node8 -->
<g id="node8" class="node">
<title>Node8</title>
<g id="a_node8"><a xlink:href="lexer__logical__or_8c.html#ac3851eaea27bd5774b126b888bdddf93" target="_top" xlink:title=" ">
<polygon fill="white" stroke="#666666" points="726,-387.03 633,-387.03 633,-368.03 726,-368.03 726,-387.03"/>
<text text-anchor="middle" x="679.5" y="-375.03" font-family="Helvetica,sans-Serif" font-size="10.00">lexer_logical_or</text>
</a>
</g>
</g>
<!-- Node6&#45;&gt;Node8 -->
<g id="edge8" class="edge">
<title>Node6&#45;&gt;Node8</title>
<path fill="none" stroke="#63b8ff" d="M569.81,-389.84C586.69,-387.93 605.62,-385.78 622.88,-383.83"/>
<polygon fill="#63b8ff" stroke="#63b8ff" points="623.29,-387.31 632.83,-382.7 622.5,-380.35 623.29,-387.31"/>
</g>
<!-- Node9 -->
<g id="node9" class="node">
<title>Node9</title>
<g id="a_node9"><a xlink:href="lexer__pipe_8c.html#a693816e38802a086de64c09cb7cebeb7" target="_top" xlink:title=" ">
<polygon fill="white" stroke="#666666" points="713,-461.03 646,-461.03 646,-442.03 713,-442.03 713,-461.03"/>
<text text-anchor="middle" x="679.5" y="-449.03" font-family="Helvetica,sans-Serif" font-size="10.00">lexer_pipe</text>
</a>
</g>
</g>
<!-- Node6&#45;&gt;Node9 -->
<g id="edge10" class="edge">
<title>Node6&#45;&gt;Node9</title>
<path fill="none" stroke="#63b8ff" d="M542.54,-405.17C562.16,-413.21 591.2,-424.75 617,-433.53 623.08,-435.6 629.55,-437.66 635.92,-439.59"/>
<polygon fill="#63b8ff" stroke="#63b8ff" points="635.2,-443.03 645.78,-442.53 637.19,-436.32 635.2,-443.03"/>
</g>
<!-- Node7&#45;&gt;Node5 -->
<g id="edge7" class="edge">
<title>Node7&#45;&gt;Node5</title>
<path fill="none" stroke="#63b8ff" d="M715.17,-405.03C723.97,-402.44 733.38,-399.52 742,-396.53 763.39,-389.12 787.01,-379.62 805.29,-371.98"/>
<polygon fill="#63b8ff" stroke="#63b8ff" points="806.73,-375.17 814.58,-368.06 804.01,-368.72 806.73,-375.17"/>
</g>
<!-- Node8&#45;&gt;Node5 -->
<g id="edge9" class="edge">
<title>Node8&#45;&gt;Node5</title>
<path fill="none" stroke="#63b8ff" d="M726.04,-371.99C745.26,-369.65 767.69,-366.91 787.29,-364.53"/>
<polygon fill="#63b8ff" stroke="#63b8ff" points="787.75,-368 797.25,-363.31 786.9,-361.05 787.75,-368"/>
</g>
<!-- Node9&#45;&gt;Node5 -->
<g id="edge11" class="edge">
<title>Node9&#45;&gt;Node5</title>
<path fill="none" stroke="#63b8ff" d="M713.01,-444.54C722.64,-441.81 733.01,-438.19 742,-433.53 772,-418 801.71,-392.27 819.59,-375.35"/>
<polygon fill="#63b8ff" stroke="#63b8ff" points="822.16,-377.73 826.93,-368.27 817.3,-372.7 822.16,-377.73"/>
</g>
<!-- Node11 -->
<g id="node11" class="node">
<title>Node11</title>
<g id="a_node11"><a xlink:href="lexer__heredoc_8c.html#a9db043b0e8df9ad1155a65a8fcf67c11" target="_top" xlink:title=" ">
<polygon fill="white" stroke="#666666" points="722,-350.03 637,-350.03 637,-331.03 722,-331.03 722,-350.03"/>
<text text-anchor="middle" x="679.5" y="-338.03" font-family="Helvetica,sans-Serif" font-size="10.00">lexer_heredoc</text>
</a>
</g>
</g>
<!-- Node10&#45;&gt;Node11 -->
<g id="edge13" class="edge">
<title>Node10&#45;&gt;Node11</title>
<path fill="none" stroke="#63b8ff" d="M542.54,-294.17C562.16,-302.21 591.2,-313.75 617,-322.53 622.53,-324.42 628.38,-326.29 634.19,-328.07"/>
<polygon fill="#63b8ff" stroke="#63b8ff" points="633.27,-331.44 643.86,-330.97 635.28,-324.74 633.27,-331.44"/>
</g>
<!-- Node12 -->
<g id="node12" class="node">
<title>Node12</title>
<g id="a_node12"><a xlink:href="lexer__redirect__append_8c.html#a09beefbfaf132dbe04add1370a6fb2e3" target="_top" xlink:title=" ">
<polygon fill="white" stroke="#666666" points="742,-313.03 617,-313.03 617,-294.03 742,-294.03 742,-313.03"/>
<text text-anchor="middle" x="679.5" y="-301.03" font-family="Helvetica,sans-Serif" font-size="10.00">lexer_redirect_append</text>
</a>
</g>
</g>
<!-- Node10&#45;&gt;Node12 -->
<g id="edge15" class="edge">
<title>Node10&#45;&gt;Node12</title>
<path fill="none" stroke="#63b8ff" d="M579.61,-291.72C588.49,-292.78 597.72,-293.88 606.81,-294.97"/>
<polygon fill="#63b8ff" stroke="#63b8ff" points="606.64,-298.47 616.98,-296.18 607.47,-291.52 606.64,-298.47"/>
</g>
<!-- Node13 -->
<g id="node13" class="node">
<title>Node13</title>
<g id="a_node13"><a xlink:href="lexer__redirect__in_8c.html#ac723d9668329d99b35003ed2423889e5" target="_top" xlink:title=" ">
<polygon fill="white" stroke="#666666" points="728.5,-276.03 630.5,-276.03 630.5,-257.03 728.5,-257.03 728.5,-276.03"/>
<text text-anchor="middle" x="679.5" y="-264.03" font-family="Helvetica,sans-Serif" font-size="10.00">lexer_redirect_in</text>
</a>
</g>
</g>
<!-- Node10&#45;&gt;Node13 -->
<g id="edge17" class="edge">
<title>Node10&#45;&gt;Node13</title>
<path fill="none" stroke="#63b8ff" d="M579.61,-277.73C593,-276.21 607.16,-274.61 620.46,-273.1"/>
<polygon fill="#63b8ff" stroke="#63b8ff" points="620.89,-276.58 630.44,-271.97 620.11,-269.62 620.89,-276.58"/>
</g>
<!-- Node14 -->
<g id="node14" class="node">
<title>Node14</title>
<g id="a_node14"><a xlink:href="lexer__redirect__out_8c.html#a70e2216639c96030b3861405ae3497c6" target="_top" xlink:title=" ">
<polygon fill="white" stroke="#666666" points="731.5,-239.03 627.5,-239.03 627.5,-220.03 731.5,-220.03 731.5,-239.03"/>
<text text-anchor="middle" x="679.5" y="-227.03" font-family="Helvetica,sans-Serif" font-size="10.00">lexer_redirect_out</text>
</a>
</g>
</g>
<!-- Node10&#45;&gt;Node14 -->
<g id="edge19" class="edge">
<title>Node10&#45;&gt;Node14</title>
<path fill="none" stroke="#63b8ff" d="M544.21,-274.99C563.85,-267.51 592.05,-256.99 617,-248.53 623.4,-246.37 630.21,-244.16 636.87,-242.06"/>
<polygon fill="#63b8ff" stroke="#63b8ff" points="637.97,-245.38 646.47,-239.07 635.89,-238.7 637.97,-245.38"/>
</g>
<!-- Node11&#45;&gt;Node5 -->
<g id="edge14" class="edge">
<title>Node11&#45;&gt;Node5</title>
<path fill="none" stroke="#63b8ff" d="M722.31,-345.36C742.32,-347.67 766.41,-350.45 787.3,-352.86"/>
<polygon fill="#63b8ff" stroke="#63b8ff" points="786.93,-356.34 797.26,-354.01 787.73,-349.38 786.93,-356.34"/>
</g>
<!-- Node12&#45;&gt;Node5 -->
<g id="edge16" class="edge">
<title>Node12&#45;&gt;Node5</title>
<path fill="none" stroke="#63b8ff" d="M712.86,-313.1C722.3,-316.01 732.6,-319.29 742,-322.53 762.45,-329.58 785.1,-338.18 803.1,-345.21"/>
<polygon fill="#63b8ff" stroke="#63b8ff" points="801.99,-348.53 812.57,-348.93 804.55,-342.02 801.99,-348.53"/>
</g>
<!-- Node13&#45;&gt;Node5 -->
<g id="edge18" class="edge">
<title>Node13&#45;&gt;Node5</title>
<path fill="none" stroke="#63b8ff" d="M719.07,-276.13C726.87,-278.7 734.86,-281.83 742,-285.53 771.52,-300.85 801.15,-325.64 819.17,-342.01"/>
<polygon fill="#63b8ff" stroke="#63b8ff" points="816.87,-344.65 826.58,-348.88 821.62,-339.52 816.87,-344.65"/>
</g>
<!-- Node14&#45;&gt;Node5 -->
<g id="edge20" class="edge">
<title>Node14&#45;&gt;Node5</title>
<path fill="none" stroke="#63b8ff" d="M722.62,-239.07C729.4,-241.56 736.11,-244.67 742,-248.53 779.17,-272.91 810.02,-315.99 825.59,-340.37"/>
<polygon fill="#63b8ff" stroke="#63b8ff" points="822.7,-342.36 830.96,-349.01 828.65,-338.67 822.7,-342.36"/>
</g>
<!-- Node15&#45;&gt;Node5 -->
<g id="edge22" class="edge">
<title>Node15&#45;&gt;Node5</title>
<path fill="none" stroke="#63b8ff" d="M721.82,-200.91C728.98,-203.55 736.04,-207.01 742,-211.53 787.15,-245.83 816.74,-308.38 829.43,-339.67"/>
<polygon fill="#63b8ff" stroke="#63b8ff" points="826.17,-340.96 833.08,-348.99 832.69,-338.41 826.17,-340.96"/>
</g>
<!-- Node16&#45;&gt;Node5 -->
<g id="edge24" class="edge">
<title>Node16&#45;&gt;Node5</title>
<path fill="none" stroke="#63b8ff" d="M570.11,-569.54C618.5,-571.69 691.39,-567.76 742,-532.53 796.46,-494.63 822.52,-414.96 832.05,-378.06"/>
<polygon fill="#63b8ff" stroke="#63b8ff" points="835.51,-378.62 834.48,-368.07 828.71,-376.96 835.51,-378.62"/>
</g>
<!-- Node17&#45;&gt;Node5 -->
<g id="edge26" class="edge">
<title>Node17&#45;&gt;Node5</title>
<path fill="none" stroke="#63b8ff" d="M566.65,-533.59C614.43,-537.31 688.68,-536.25 742,-503.53 790.09,-474.03 818.48,-409.79 830.19,-377.65"/>
<polygon fill="#63b8ff" stroke="#63b8ff" points="833.54,-378.68 833.53,-368.08 826.93,-376.37 833.54,-378.68"/>
</g>
<!-- Node18&#45;&gt;Node5 -->
<g id="edge28" class="edge">
<title>Node18&#45;&gt;Node5</title>
<path fill="none" stroke="#63b8ff" d="M553.6,-199.43C562.59,-196.79 572.23,-193.75 581,-190.53 597.44,-184.51 599.87,-178.17 617,-174.53 671.35,-163 694.58,-145.58 742,-174.53 802.1,-211.23 825.58,-299.68 833.27,-339.06"/>
<polygon fill="#63b8ff" stroke="#63b8ff" points="829.84,-339.77 835.08,-348.98 836.73,-338.52 829.84,-339.77"/>
</g>
<!-- Node19 -->
<g id="node19" class="node">
<title>Node19</title>
<g id="a_node19"><a xlink:href="lexer__expand__alias_8c.html#a782a761cdb9088ea2b14b7a97eb85377" target="_top" xlink:title=" ">
<polygon fill="white" stroke="#666666" points="734.5,-88.03 624.5,-88.03 624.5,-69.03 734.5,-69.03 734.5,-88.03"/>
<text text-anchor="middle" x="679.5" y="-76.03" font-family="Helvetica,sans-Serif" font-size="10.00">lexer_expand_alias</text>
</a>
</g>
</g>
<!-- Node18&#45;&gt;Node19 -->
<g id="edge29" class="edge">
<title>Node18&#45;&gt;Node19</title>
<path fill="none" stroke="#63b8ff" d="M553.52,-204.27C563.32,-201.64 573.4,-197.39 581,-190.53 612.39,-162.24 586.88,-132.17 617,-102.53 620.98,-98.61 625.68,-95.32 630.67,-92.55"/>
<polygon fill="#63b8ff" stroke="#63b8ff" points="632.4,-95.6 639.89,-88.11 629.36,-89.3 632.4,-95.6"/>
</g>
<!-- Node21 -->
<g id="node21" class="node">
<title>Node21</title>
<g id="a_node21"><a xlink:href="lexer__word_8c.html#a17ec284a75275629329e3d5699a635d7" target="_top" xlink:title=" ">
<polygon fill="white" stroke="#666666" points="886,-126.03 789,-126.03 789,-107.03 886,-107.03 886,-126.03"/>
<text text-anchor="middle" x="837.5" y="-114.03" font-family="Helvetica,sans-Serif" font-size="10.00">lexer_read_word</text>
</a>
</g>
</g>
<!-- Node18&#45;&gt;Node21 -->
<g id="edge71" class="edge">
<title>Node18&#45;&gt;Node21</title>
<path fill="none" stroke="#63b8ff" d="M553.55,-202.85C563.02,-200.17 572.92,-196.25 581,-190.53 603.35,-174.72 593.34,-154.33 617,-140.53 666.11,-111.9 731.97,-108.39 778.7,-110.5"/>
<polygon fill="#63b8ff" stroke="#63b8ff" points="778.78,-114.01 788.96,-111.07 779.17,-107.02 778.78,-114.01"/>
</g>
<!-- Node20 -->
<g id="node20" class="node">
<title>Node20</title>
<g id="a_node20"><a xlink:href="get__variable_8c.html#a569170390f0edf013bf89c26ef55ea8c" target="_top" xlink:title=" ">
<polygon fill="white" stroke="#666666" points="1759.5,-88.03 1682.5,-88.03 1682.5,-69.03 1759.5,-69.03 1759.5,-88.03"/>
<text text-anchor="middle" x="1721" y="-76.03" font-family="Helvetica,sans-Serif" font-size="10.00">get_variable</text>
</a>
</g>
</g>
<!-- Node19&#45;&gt;Node20 -->
<g id="edge30" class="edge">
<title>Node19&#45;&gt;Node20</title>
<path fill="none" stroke="#63b8ff" d="M692.88,-68.84C710.6,-55.55 744.75,-32.13 778,-21.53 869.4,7.6 897.07,-2.53 993,-2.53 993,-2.53 993,-2.53 1347.5,-2.53 1472.43,-2.53 1616.26,-44.08 1682.74,-65.74"/>
<polygon fill="#63b8ff" stroke="#63b8ff" points="1681.76,-69.1 1692.36,-68.91 1683.96,-62.45 1681.76,-69.1"/>
</g>
<!-- Node19&#45;&gt;Node21 -->
<g id="edge31" class="edge">
<title>Node19&#45;&gt;Node21</title>
<path fill="none" stroke="#63b8ff" d="M719.87,-88.12C740.45,-93.14 765.84,-99.32 787.67,-104.64"/>
<polygon fill="#63b8ff" stroke="#63b8ff" points="786.87,-108.05 797.42,-107.01 788.53,-101.25 786.87,-108.05"/>
</g>
<!-- Node135 -->
<g id="node44" class="node">
<title>Node135</title>
<g id="a_node44"><a xlink:href="lexer__expand__alias_8c.html#a98f32d0d302fe57a01c46b72c25132a1" target="_top" xlink:title=" ">
<polygon fill="white" stroke="#666666" points="1035,-69.03 953,-69.03 953,-50.03 1035,-50.03 1035,-69.03"/>
<text text-anchor="middle" x="994" y="-57.03" font-family="Helvetica,sans-Serif" font-size="10.00">replace_word</text>
</a>
</g>
</g>
<!-- Node19&#45;&gt;Node135 -->
<g id="edge68" class="edge">
<title>Node19&#45;&gt;Node135</title>
<path fill="none" stroke="#63b8ff" d="M734.58,-75.25C793.12,-71.69 885.75,-66.05 942.75,-62.59"/>
<polygon fill="#63b8ff" stroke="#63b8ff" points="943.2,-66.07 952.97,-61.97 942.77,-59.08 943.2,-66.07"/>
</g>
<!-- Node136 -->
<g id="node45" class="node">
<title>Node136</title>
<g id="a_node45"><a xlink:href="lexer__expand__alias_8c.html#ae7957e63e1f19d95a69563aaab318ad4" target="_top" xlink:title=" ">
<polygon fill="white" stroke="#666666" points="897,-50.03 778,-50.03 778,-31.03 897,-31.03 897,-50.03"/>
<text text-anchor="middle" x="837.5" y="-38.03" font-family="Helvetica,sans-Serif" font-size="10.00">should_expand_alias</text>
</a>
</g>
</g>
<!-- Node19&#45;&gt;Node136 -->
<g id="edge70" class="edge">
<title>Node19&#45;&gt;Node136</title>
<path fill="none" stroke="#63b8ff" d="M719.87,-68.94C740.45,-63.93 765.84,-57.75 787.67,-52.43"/>
<polygon fill="#63b8ff" stroke="#63b8ff" points="788.53,-55.82 797.42,-50.05 786.87,-49.02 788.53,-55.82"/>
</g>
<!-- Node22 -->
<g id="node22" class="node">
<title>Node22</title>
<g id="a_node22"><a xlink:href="lexer__word_8c.html#a730574257743b09386cadd2ccbfe4d13" target="_top" xlink:title=" ">
<polygon fill="white" stroke="#666666" points="1055,-473.03 933,-473.03 933,-454.03 1055,-454.03 1055,-473.03"/>
<text text-anchor="middle" x="994" y="-461.03" font-family="Helvetica,sans-Serif" font-size="10.00">handle_current_token</text>
</a>
</g>
</g>
<!-- Node21&#45;&gt;Node22 -->
<g id="edge32" class="edge">
<title>Node21&#45;&gt;Node22</title>
<path fill="none" stroke="#63b8ff" d="M842.79,-126.18C863.8,-173.35 955.88,-380.17 984.49,-444.42"/>
<polygon fill="#63b8ff" stroke="#63b8ff" points="981.39,-446.06 988.65,-453.77 987.78,-443.21 981.39,-446.06"/>
</g>
<!-- Node126 -->
<g id="node36" class="node">
<title>Node126</title>
<g id="a_node36"><a xlink:href="lexer__is__word__separator_8c.html#abccfc6fc0cdbd040fc9a7dcbfd207090" target="_top" xlink:title=" ">
<polygon fill="white" stroke="#666666" points="1607.5,-126.03 1472.5,-126.03 1472.5,-107.03 1607.5,-107.03 1607.5,-126.03"/>
<text text-anchor="middle" x="1540" y="-114.03" font-family="Helvetica,sans-Serif" font-size="10.00">lexer_is_word_separator</text>
</a>
</g>
</g>
<!-- Node21&#45;&gt;Node126 -->
<g id="edge67" class="edge">
<title>Node21&#45;&gt;Node126</title>
<path fill="none" stroke="#63b8ff" d="M886.1,-116.53C1005.18,-116.53 1316.85,-116.53 1462.25,-116.53"/>
<polygon fill="#63b8ff" stroke="#63b8ff" points="1462.42,-120.03 1472.42,-116.53 1462.42,-113.03 1462.42,-120.03"/>
</g>
<!-- Node23 -->
<g id="node23" class="node">
<title>Node23</title>
<g id="a_node23"><a xlink:href="lexer__word_8c.html#acd8f2a3c47fa56f87c2792ccefd2ee3e" target="_top" xlink:title=" ">
<polygon fill="white" stroke="#666666" points="1225.5,-455.03 1104.5,-455.03 1104.5,-436.03 1225.5,-436.03 1225.5,-455.03"/>
<text text-anchor="middle" x="1165" y="-443.03" font-family="Helvetica,sans-Serif" font-size="10.00">handle_double_quote</text>
</a>
</g>
</g>
<!-- Node22&#45;&gt;Node23 -->
<g id="edge33" class="edge">
<title>Node22&#45;&gt;Node23</title>
<path fill="none" stroke="#63b8ff" d="M1055.06,-457.14C1067.71,-455.79 1081.16,-454.36 1094.14,-452.97"/>
<polygon fill="#63b8ff" stroke="#63b8ff" points="1094.85,-456.42 1104.42,-451.88 1094.1,-449.46 1094.85,-456.42"/>
</g>
<!-- Node24 -->
<g id="node24" class="node">
<title>Node24</title>
<g id="a_node24"><a xlink:href="lexer__word_8c.html#a733339142f4677a066646a12a7e5bec4" target="_top" xlink:title=" ">
<polygon fill="white" stroke="#666666" points="1235.5,-529.03 1094.5,-529.03 1094.5,-510.03 1235.5,-510.03 1235.5,-529.03"/>
<text text-anchor="middle" x="1165" y="-517.03" font-family="Helvetica,sans-Serif" font-size="10.00">handle_escape_sequence</text>
</a>
</g>
</g>
<!-- Node22&#45;&gt;Node24 -->
<g id="edge34" class="edge">
<title>Node22&#45;&gt;Node24</title>
<path fill="none" stroke="#63b8ff" d="M1016.81,-473.15C1036.07,-481.4 1065.05,-493.24 1091,-501.53 1097.52,-503.62 1104.42,-505.6 1111.29,-507.44"/>
<polygon fill="#63b8ff" stroke="#63b8ff" points="1110.71,-510.9 1121.27,-510.02 1112.46,-504.13 1110.71,-510.9"/>
</g>
<!-- Node28 -->
<g id="node28" class="node">
<title>Node28</title>
<g id="a_node28"><a xlink:href="lexer__word_8c.html#a3ae03e49183787e7cf32c90ffdef7351" target="_top" xlink:title=" ">
<polygon fill="white" stroke="#666666" points="1223.5,-492.03 1106.5,-492.03 1106.5,-473.03 1223.5,-473.03 1223.5,-492.03"/>
<text text-anchor="middle" x="1165" y="-480.03" font-family="Helvetica,sans-Serif" font-size="10.00">handle_single_quote</text>
</a>
</g>
</g>
<!-- Node22&#45;&gt;Node28 -->
<g id="edge38" class="edge">
<title>Node22&#45;&gt;Node28</title>
<path fill="none" stroke="#63b8ff" d="M1055.06,-470.29C1068.36,-471.78 1082.56,-473.38 1096.15,-474.91"/>
<polygon fill="#63b8ff" stroke="#63b8ff" points="1096.07,-478.42 1106.4,-476.06 1096.85,-471.46 1096.07,-478.42"/>
</g>
<!-- Node29 -->
<g id="node29" class="node">
<title>Node29</title>
<g id="a_node29"><a xlink:href="lexer__utils_8c.html#a2ba6f7e43ecbf713c666ab062eac534c" target="_top" xlink:title=" ">
<polygon fill="white" stroke="#666666" points="1239,-566.03 1091,-566.03 1091,-547.03 1239,-547.03 1239,-566.03"/>
<text text-anchor="middle" x="1165" y="-554.03" font-family="Helvetica,sans-Serif" font-size="10.00">lexer_append_current_char</text>
</a>
</g>
</g>
<!-- Node22&#45;&gt;Node29 -->
<g id="edge40" class="edge">
<title>Node22&#45;&gt;Node29</title>
<path fill="none" stroke="#63b8ff" d="M1004.41,-473.17C1020.6,-489.19 1055.43,-521.24 1091,-538.53 1095,-540.48 1099.24,-542.23 1103.57,-543.79"/>
<polygon fill="#63b8ff" stroke="#63b8ff" points="1102.56,-547.15 1113.15,-546.94 1104.74,-540.5 1102.56,-547.15"/>
</g>
<!-- Node30 -->
<g id="node30" class="node">
<title>Node30</title>
<g id="a_node30"><a xlink:href="lexer__expand__command__substitution_8c.html#aad26825e6ecc7617687abd601366b15d" target="_top" xlink:title=" ">
<polygon fill="white" stroke="#666666" points="1233,-614.53 1097,-614.53 1097,-584.53 1233,-584.53 1233,-614.53"/>
<text text-anchor="start" x="1105" y="-602.53" font-family="Helvetica,sans-Serif" font-size="10.00">lexer_expand_command</text>
<text text-anchor="middle" x="1165" y="-591.53" font-family="Helvetica,sans-Serif" font-size="10.00">_substitution</text>
</a>
</g>
</g>
<!-- Node22&#45;&gt;Node30 -->
<g id="edge42" class="edge">
<title>Node22&#45;&gt;Node30</title>
<path fill="none" stroke="#63b8ff" d="M1000.66,-473.18C1013.78,-494.71 1048.44,-547.04 1091,-575.53 1093.39,-577.13 1095.9,-578.63 1098.48,-580.04"/>
<polygon fill="#63b8ff" stroke="#63b8ff" points="1097,-583.21 1107.52,-584.47 1100.08,-576.93 1097,-583.21"/>
</g>
<!-- Node124 -->
<g id="node33" class="node">
<title>Node124</title>
<g id="a_node33"><a xlink:href="lexer__expand__tilde_8c.html#ae3c478a10a2764ee7c7f94b42f28ecaf" target="_top" xlink:title=" ">
<polygon fill="white" stroke="#666666" points="1219.5,-202.03 1110.5,-202.03 1110.5,-183.03 1219.5,-183.03 1219.5,-202.03"/>
<text text-anchor="middle" x="1165" y="-190.03" font-family="Helvetica,sans-Serif" font-size="10.00">lexer_expand_tilde</text>
</a>
</g>
</g>
<!-- Node22&#45;&gt;Node124 -->
<g id="edge48" class="edge">
<title>Node22&#45;&gt;Node124</title>
<path fill="none" stroke="#63b8ff" d="M1001.01,-453.89C1025.76,-414.21 1119.93,-263.21 1152.69,-210.68"/>
<polygon fill="#63b8ff" stroke="#63b8ff" points="1155.74,-212.4 1158.06,-202.06 1149.8,-208.7 1155.74,-212.4"/>
</g>
<!-- Node127 -->
<g id="node37" class="node">
<title>Node127</title>
<g id="a_node37"><a xlink:href="lexer__expand__variable_8c.html#a01ad90eb8460a612626bb33c9e15cd52" target="_top" xlink:title=" ">
<polygon fill="white" stroke="#666666" points="1228.5,-382.03 1101.5,-382.03 1101.5,-363.03 1228.5,-363.03 1228.5,-382.03"/>
<text text-anchor="middle" x="1165" y="-370.03" font-family="Helvetica,sans-Serif" font-size="10.00">lexer_expand_variable</text>
</a>
</g>
</g>
<!-- Node22&#45;&gt;Node127 -->
<g id="edge54" class="edge">
<title>Node22&#45;&gt;Node127</title>
<path fill="none" stroke="#63b8ff" d="M1012.77,-453.97C1042.44,-437.99 1102.24,-405.79 1137.09,-387.02"/>
<polygon fill="#63b8ff" stroke="#63b8ff" points="1139.07,-389.93 1146.22,-382.11 1135.75,-383.77 1139.07,-389.93"/>
</g>
<!-- Node25 -->
<g id="node25" class="node">
<title>Node25</title>
<g id="a_node25"><a xlink:href="lexer__utils_8c.html#abf1c1b3b6033c8f9c8d1b11cc9e14f75" target="_top" xlink:title=" ">
<polygon fill="white" stroke="#666666" points="1590,-456.03 1490,-456.03 1490,-437.03 1590,-437.03 1590,-456.03"/>
<text text-anchor="middle" x="1540" y="-444.03" font-family="Helvetica,sans-Serif" font-size="10.00">lexer_append_str</text>
</a>
</g>
</g>
<!-- Node24&#45;&gt;Node25 -->
<g id="edge35" class="edge">
<title>Node24&#45;&gt;Node25</title>
<path fill="none" stroke="#63b8ff" d="M1235.54,-513.02C1286.46,-507.49 1357.02,-498.24 1418,-484.53 1447.14,-477.98 1479.36,-467.71 1503.23,-459.49"/>
<polygon fill="#63b8ff" stroke="#63b8ff" points="1504.62,-462.71 1512.91,-456.12 1502.31,-456.1 1504.62,-462.71"/>
</g>
<!-- Node26 -->
<g id="node26" class="node">
<title>Node26</title>
<g id="a_node26"><a xlink:href="strings_8h.html#a5e1589f073ac32d227dbc6020c376dab" target="_top" xlink:title=" ">
<polygon fill="white" stroke="#666666" points="1771.5,-456.03 1670.5,-456.03 1670.5,-437.03 1771.5,-437.03 1771.5,-456.03"/>
<text text-anchor="middle" x="1721" y="-444.03" font-family="Helvetica,sans-Serif" font-size="10.00">append_to_buffer</text>
</a>
</g>
</g>
<!-- Node25&#45;&gt;Node26 -->
<g id="edge36" class="edge">
<title>Node25&#45;&gt;Node26</title>
<path fill="none" stroke="#63b8ff" d="M1590.39,-446.53C1612.01,-446.53 1637.58,-446.53 1660.27,-446.53"/>
<polygon fill="#63b8ff" stroke="#63b8ff" points="1660.46,-450.03 1670.46,-446.53 1660.46,-443.03 1660.46,-450.03"/>
</g>
<!-- Node27 -->
<g id="node27" class="node">
<title>Node27</title>
<g id="a_node27"><a xlink:href="lexer__utils_8c.html#a84e8d5514cfe03a20152ad26f170211f" target="_top" xlink:title=" ">
<polygon fill="white" stroke="#666666" points="1780,-410.03 1662,-410.03 1662,-391.03 1780,-391.03 1780,-410.03"/>
<text text-anchor="middle" x="1721" y="-398.03" font-family="Helvetica,sans-Serif" font-size="10.00">lexer_set_alloc_error</text>
</a>
</g>
</g>
<!-- Node25&#45;&gt;Node27 -->
<g id="edge37" class="edge">
<title>Node25&#45;&gt;Node27</title>
<path fill="none" stroke="#63b8ff" d="M1578.09,-437C1605.69,-429.91 1643.56,-420.18 1673.23,-412.55"/>
<polygon fill="#63b8ff" stroke="#63b8ff" points="1674.14,-415.93 1682.96,-410.05 1672.4,-409.15 1674.14,-415.93"/>
</g>
<!-- Node28&#45;&gt;Node25 -->
<g id="edge39" class="edge">
<title>Node28&#45;&gt;Node25</title>
<path fill="none" stroke="#63b8ff" d="M1223.68,-480.09C1274.84,-477.59 1351.55,-472.98 1418,-465.53 1438.24,-463.27 1460.28,-460.03 1479.94,-456.88"/>
<polygon fill="#63b8ff" stroke="#63b8ff" points="1480.67,-460.31 1489.97,-455.24 1479.54,-453.4 1480.67,-460.31"/>
</g>
<!-- Node29&#45;&gt;Node25 -->
<g id="edge41" class="edge">
<title>Node29&#45;&gt;Node25</title>
<path fill="none" stroke="#63b8ff" d="M1239.15,-548.7C1290.25,-541.83 1359.52,-529.71 1418,-509.53 1453.58,-497.26 1491.61,-475.95 1515.34,-461.55"/>
<polygon fill="#63b8ff" stroke="#63b8ff" points="1517.32,-464.44 1523.99,-456.22 1513.64,-458.48 1517.32,-464.44"/>
</g>
<!-- Node30&#45;&gt;Node27 -->
<g id="edge47" class="edge">
<title>Node30&#45;&gt;Node27</title>
<path fill="none" stroke="#63b8ff" d="M1233.38,-592.06C1327.67,-579.04 1501.38,-545.49 1626,-465.53 1645.31,-453.14 1643.39,-441.95 1662,-428.53 1669.45,-423.17 1678.08,-418.36 1686.38,-414.31"/>
<polygon fill="#63b8ff" stroke="#63b8ff" points="1687.92,-417.45 1695.52,-410.07 1684.98,-411.1 1687.92,-417.45"/>
</g>
<!-- Node31 -->
<g id="node31" class="node">
<title>Node31</title>
<g id="a_node31"><a xlink:href="lexer__expand__command__substitution_8c.html#ad31353a5e4ff94d4ffc515367ef29625" target="_top" xlink:title=" ">
<polygon fill="white" stroke="#666666" points="1418,-646.03 1275,-646.03 1275,-627.03 1418,-627.03 1418,-646.03"/>
<text text-anchor="middle" x="1346.5" y="-634.03" font-family="Helvetica,sans-Serif" font-size="10.00">append_command_output</text>
</a>
</g>
</g>
<!-- Node30&#45;&gt;Node31 -->
<g id="edge43" class="edge">
<title>Node30&#45;&gt;Node31</title>
<path fill="none" stroke="#63b8ff" d="M1233.09,-613.36C1251.49,-617.16 1271.25,-621.23 1288.98,-624.88"/>
<polygon fill="#63b8ff" stroke="#63b8ff" points="1288.67,-628.39 1299.17,-626.98 1290.08,-621.54 1288.67,-628.39"/>
</g>
<!-- Node31&#45;&gt;Node25 -->
<g id="edge45" class="edge">
<title>Node31&#45;&gt;Node25</title>
<path fill="none" stroke="#63b8ff" d="M1359.27,-626.76C1373.51,-614.8 1398.06,-593.77 1418,-574.53 1457.55,-536.38 1501.19,-488.73 1523.7,-463.71"/>
<polygon fill="#63b8ff" stroke="#63b8ff" points="1526.41,-465.92 1530.48,-456.13 1521.2,-461.24 1526.41,-465.92"/>
</g>
<!-- Node31&#45;&gt;Node27 -->
<g id="edge46" class="edge">
<title>Node31&#45;&gt;Node27</title>
<path fill="none" stroke="#63b8ff" d="M1418.08,-639.77C1490.42,-641.5 1596.39,-639.12 1626,-612.53 1688,-556.85 1611.1,-494.51 1662,-428.53 1666.27,-423 1671.91,-418.5 1678,-414.86"/>
<polygon fill="#63b8ff" stroke="#63b8ff" points="1679.87,-417.83 1687.13,-410.12 1676.64,-411.62 1679.87,-417.83"/>
</g>
<!-- Node32 -->
<g id="node32" class="node">
<title>Node32</title>
<g id="a_node32"><a xlink:href="execute__command__substitution_8c.html#a44d633c45c6a1c7a82b2fc4f1f3a1b85" target="_top" xlink:title=" ">
<polygon fill="#fff0f0" stroke="red" points="1626,-684.03 1454,-684.03 1454,-665.03 1626,-665.03 1626,-684.03"/>
<text text-anchor="middle" x="1540" y="-672.03" font-family="Helvetica,sans-Serif" font-size="10.00">execute_command_substitution</text>
</a>
</g>
</g>
<!-- Node31&#45;&gt;Node32 -->
<g id="edge44" class="edge">
<title>Node31&#45;&gt;Node32</title>
<path fill="none" stroke="#63b8ff" d="M1395.82,-646.12C1421.66,-651.25 1453.67,-657.6 1480.86,-663"/>
<polygon fill="#63b8ff" stroke="#63b8ff" points="1480.53,-666.5 1491.02,-665.01 1481.9,-659.63 1480.53,-666.5"/>
</g>
<!-- Node124&#45;&gt;Node25 -->
<g id="edge51" class="edge">
<title>Node124&#45;&gt;Node25</title>
<path fill="none" stroke="#63b8ff" d="M1219.56,-197.53C1289.09,-204.48 1403.31,-217.68 1418,-230.53 1461.18,-268.33 1425.77,-304.57 1454,-354.53 1471.13,-384.85 1500.08,-413.24 1519.37,-430.24"/>
<polygon fill="#63b8ff" stroke="#63b8ff" points="1517.12,-432.93 1526.98,-436.81 1521.7,-427.63 1517.12,-432.93"/>
</g>
<!-- Node56 -->
<g id="node34" class="node">
<title>Node56</title>
<g id="a_node34"><a xlink:href="get__variable__value_8c.html#a2edd9900f19af236aa05385a789be3d6" target="_top" xlink:title=" ">
<polygon fill="white" stroke="#666666" points="1595,-183.03 1485,-183.03 1485,-164.03 1595,-164.03 1595,-183.03"/>
<text text-anchor="middle" x="1540" y="-171.03" font-family="Helvetica,sans-Serif" font-size="10.00">get_variable_value</text>
</a>
</g>
</g>
<!-- Node124&#45;&gt;Node56 -->
<g id="edge49" class="edge">
<title>Node124&#45;&gt;Node56</title>
<path fill="none" stroke="#63b8ff" d="M1219.84,-189.79C1287.24,-186.36 1402.56,-180.48 1474.57,-176.82"/>
<polygon fill="#63b8ff" stroke="#63b8ff" points="1475.07,-180.29 1484.87,-176.29 1474.71,-173.3 1475.07,-180.29"/>
</g>
<!-- Node125 -->
<g id="node35" class="node">
<title>Node125</title>
<g id="a_node35"><a xlink:href="lexer__expand__tilde_8c.html#aa4231a41b1e79447d6a70db7b075f937" target="_top" xlink:title=" ">
<polygon fill="white" stroke="#666666" points="1405,-145.03 1288,-145.03 1288,-126.03 1405,-126.03 1405,-145.03"/>
<text text-anchor="middle" x="1346.5" y="-133.03" font-family="Helvetica,sans-Serif" font-size="10.00">should_expand_tilde</text>
</a>
</g>
</g>
<!-- Node124&#45;&gt;Node125 -->
<g id="edge52" class="edge">
<title>Node124&#45;&gt;Node125</title>
<path fill="none" stroke="#63b8ff" d="M1196.04,-182.99C1226.07,-173.46 1272.42,-158.74 1305.54,-148.22"/>
<polygon fill="#63b8ff" stroke="#63b8ff" points="1306.89,-151.47 1315.36,-145.11 1304.77,-144.8 1306.89,-151.47"/>
</g>
<!-- Node56&#45;&gt;Node20 -->
<g id="edge50" class="edge">
<title>Node56&#45;&gt;Node20</title>
<path fill="none" stroke="#63b8ff" d="M1564.46,-163.98C1581.74,-156.72 1605.67,-146.19 1626,-135.53 1650.84,-122.51 1678.14,-105.66 1696.88,-93.66"/>
<polygon fill="#63b8ff" stroke="#63b8ff" points="1698.85,-96.56 1705.35,-88.2 1695.05,-90.68 1698.85,-96.56"/>
</g>
<!-- Node125&#45;&gt;Node126 -->
<g id="edge53" class="edge">
<title>Node125&#45;&gt;Node126</title>
<path fill="none" stroke="#63b8ff" d="M1405.22,-129.81C1423.14,-128.03 1443.19,-126.04 1462.19,-124.15"/>
<polygon fill="#63b8ff" stroke="#63b8ff" points="1462.72,-127.62 1472.33,-123.15 1462.03,-120.65 1462.72,-127.62"/>
</g>
<!-- Node127&#45;&gt;Node27 -->
<g id="edge66" class="edge">
<title>Node127&#45;&gt;Node27</title>
<path fill="none" stroke="#63b8ff" d="M1179.63,-362.98C1199.51,-349.71 1238.09,-326.32 1275,-317.53 1426.76,-281.41 1480.09,-262.34 1626,-317.53 1660.41,-330.55 1690.35,-362.55 1706.73,-382.8"/>
<polygon fill="#63b8ff" stroke="#63b8ff" points="1704.16,-385.2 1713.08,-390.92 1709.68,-380.88 1704.16,-385.2"/>
</g>
<!-- Node128 -->
<g id="node38" class="node">
<title>Node128</title>
<g id="a_node38"><a xlink:href="lexer__expand__variable_8c.html#abe77b7e35b276965b72648d12abae283" target="_top" xlink:title=" ">
<polygon fill="white" stroke="#666666" points="1389.5,-456.03 1303.5,-456.03 1303.5,-437.03 1389.5,-437.03 1389.5,-456.03"/>
<text text-anchor="middle" x="1346.5" y="-444.03" font-family="Helvetica,sans-Serif" font-size="10.00">append_dollar</text>
</a>
</g>
</g>
<!-- Node127&#45;&gt;Node128 -->
<g id="edge55" class="edge">
<title>Node127&#45;&gt;Node128</title>
<path fill="none" stroke="#63b8ff" d="M1181.73,-382.05C1202.47,-394.26 1240.38,-415.41 1275,-428.53 1280.89,-430.77 1287.16,-432.81 1293.44,-434.66"/>
<polygon fill="#63b8ff" stroke="#63b8ff" points="1292.69,-438.08 1303.27,-437.4 1294.57,-431.34 1292.69,-438.08"/>
</g>
<!-- Node129 -->
<g id="node39" class="node">
<title>Node129</title>
<g id="a_node39"><a xlink:href="lexer__expand__variable_8c.html#ab47d31838e3255a1321d85e937919d4e" target="_top" xlink:title=" ">
<polygon fill="white" stroke="#666666" points="1402,-382.03 1291,-382.03 1291,-363.03 1402,-363.03 1402,-382.03"/>
<text text-anchor="middle" x="1346.5" y="-370.03" font-family="Helvetica,sans-Serif" font-size="10.00">append_last_status</text>
</a>
</g>
</g>
<!-- Node127&#45;&gt;Node129 -->
<g id="edge57" class="edge">
<title>Node127&#45;&gt;Node129</title>
<path fill="none" stroke="#63b8ff" d="M1228.53,-372.53C1245.37,-372.53 1263.62,-372.53 1280.59,-372.53"/>
<polygon fill="#63b8ff" stroke="#63b8ff" points="1280.97,-376.03 1290.97,-372.53 1280.97,-369.03 1280.97,-376.03"/>
</g>
<!-- Node130 -->
<g id="node40" class="node">
<title>Node130</title>
<g id="a_node40"><a xlink:href="lexer__expand__variable_8c.html#a9954e7e26e9570a3c41eed4e16bf6791" target="_top" xlink:title=" ">
<polygon fill="white" stroke="#666666" points="1411.5,-419.03 1281.5,-419.03 1281.5,-400.03 1411.5,-400.03 1411.5,-419.03"/>
<text text-anchor="middle" x="1346.5" y="-407.03" font-family="Helvetica,sans-Serif" font-size="10.00">append_variable_value</text>
</a>
</g>
</g>
<!-- Node127&#45;&gt;Node130 -->
<g id="edge60" class="edge">
<title>Node127&#45;&gt;Node130</title>
<path fill="none" stroke="#63b8ff" d="M1212.23,-382.06C1235.69,-386.9 1264.39,-392.81 1289.14,-397.92"/>
<polygon fill="#63b8ff" stroke="#63b8ff" points="1288.62,-401.38 1299.12,-399.97 1290.03,-394.53 1288.62,-401.38"/>
</g>
<!-- Node131 -->
<g id="node41" class="node">
<title>Node131</title>
<g id="a_node41"><a xlink:href="lexer__expand__variable_8c.html#a1d07a8c171e69a5c58a385a75520e6c0" target="_top" xlink:title=" ">
<polygon fill="white" stroke="#666666" points="1404.5,-269.53 1288.5,-269.53 1288.5,-239.53 1404.5,-239.53 1404.5,-269.53"/>
<text text-anchor="start" x="1296.5" y="-257.53" font-family="Helvetica,sans-Serif" font-size="10.00">get_correct_variable</text>
<text text-anchor="middle" x="1346.5" y="-246.53" font-family="Helvetica,sans-Serif" font-size="10.00">_value</text>
</a>
</g>
</g>
<!-- Node127&#45;&gt;Node131 -->
<g id="edge62" class="edge">
<title>Node127&#45;&gt;Node131</title>
<path fill="none" stroke="#63b8ff" d="M1175.76,-362.85C1193.97,-345.21 1234.92,-307.42 1275,-283.53 1280.88,-280.03 1287.26,-276.76 1293.71,-273.76"/>
<polygon fill="#63b8ff" stroke="#63b8ff" points="1295.41,-276.84 1303.14,-269.59 1292.58,-270.44 1295.41,-276.84"/>
</g>
<!-- Node132 -->
<g id="node42" class="node">
<title>Node132</title>
<g id="a_node42"><a xlink:href="lexer__expand__variable_8c.html#a3674c7faac945bf9ec05a9dc00c08896" target="_top" xlink:title=" ">
<polygon fill="white" stroke="#666666" points="1412,-345.03 1281,-345.03 1281,-326.03 1412,-326.03 1412,-345.03"/>
<text text-anchor="middle" x="1346.5" y="-333.03" font-family="Helvetica,sans-Serif" font-size="10.00">get_variable_name_len</text>
</a>
</g>
</g>
<!-- Node127&#45;&gt;Node132 -->
<g id="edge64" class="edge">
<title>Node127&#45;&gt;Node132</title>
<path fill="none" stroke="#63b8ff" d="M1212.23,-363.01C1235.69,-358.17 1264.39,-352.25 1289.14,-347.15"/>
<polygon fill="#63b8ff" stroke="#63b8ff" points="1290.03,-350.54 1299.12,-345.09 1288.62,-343.68 1290.03,-350.54"/>
</g>
<!-- Node128&#45;&gt;Node25 -->
<g id="edge56" class="edge">
<title>Node128&#45;&gt;Node25</title>
<path fill="none" stroke="#63b8ff" d="M1389.53,-446.53C1416.02,-446.53 1450.63,-446.53 1479.87,-446.53"/>
<polygon fill="#63b8ff" stroke="#63b8ff" points="1479.96,-450.03 1489.96,-446.53 1479.96,-443.03 1479.96,-450.03"/>
</g>
<!-- Node129&#45;&gt;Node25 -->
<g id="edge58" class="edge">
<title>Node129&#45;&gt;Node25</title>
<path fill="none" stroke="#63b8ff" d="M1387.38,-382.06C1397.47,-384.81 1408.22,-388.02 1418,-391.53 1450.97,-403.38 1487.4,-420.52 1511.58,-432.51"/>
<polygon fill="#63b8ff" stroke="#63b8ff" points="1510.02,-435.64 1520.53,-436.99 1513.15,-429.38 1510.02,-435.64"/>
</g>
<!-- Node129&#45;&gt;Node27 -->
<g id="edge59" class="edge">
<title>Node129&#45;&gt;Node27</title>
<path fill="none" stroke="#63b8ff" d="M1402.06,-376.64C1468.22,-381.61 1579.78,-389.99 1651.61,-395.39"/>
<polygon fill="#63b8ff" stroke="#63b8ff" points="1651.68,-398.91 1661.91,-396.17 1652.21,-391.93 1651.68,-398.91"/>
</g>
<!-- Node130&#45;&gt;Node25 -->
<g id="edge61" class="edge">
<title>Node130&#45;&gt;Node25</title>
<path fill="none" stroke="#63b8ff" d="M1396.82,-419.06C1422.17,-423.96 1453.25,-429.97 1479.88,-435.11"/>
<polygon fill="#63b8ff" stroke="#63b8ff" points="1479.37,-438.58 1489.85,-437.04 1480.7,-431.7 1479.37,-438.58"/>
</g>
<!-- Node131&#45;&gt;Node56 -->
<g id="edge63" class="edge">
<title>Node131&#45;&gt;Node56</title>
<path fill="none" stroke="#63b8ff" d="M1383.07,-239.49C1418.61,-224.46 1472.75,-201.56 1506.98,-187.08"/>
<polygon fill="#63b8ff" stroke="#63b8ff" points="1508.65,-190.17 1516.5,-183.05 1505.93,-183.72 1508.65,-190.17"/>
</g>
<!-- Node133 -->
<g id="node43" class="node">
<title>Node133</title>
<g id="a_node43"><a xlink:href="lexer__expand__variable_8c.html#a5067193ac632b7565fd8b9ad405a525f" target="_top" xlink:title=" ">
<polygon fill="#fff0f0" stroke="red" points="1602.5,-345.03 1477.5,-345.03 1477.5,-326.03 1602.5,-326.03 1602.5,-345.03"/>
<text text-anchor="middle" x="1540" y="-333.03" font-family="Helvetica,sans-Serif" font-size="10.00">is_valid_variable_char</text>
</a>
</g>
</g>
<!-- Node132&#45;&gt;Node133 -->
<g id="edge65" class="edge">
<title>Node132&#45;&gt;Node133</title>
<path fill="none" stroke="#63b8ff" d="M1412.07,-335.53C1429.76,-335.53 1449.04,-335.53 1467.12,-335.53"/>
<polygon fill="#63b8ff" stroke="#63b8ff" points="1467.31,-339.03 1477.31,-335.53 1467.31,-332.03 1467.31,-339.03"/>
</g>
<!-- Node135&#45;&gt;Node27 -->
<g id="edge69" class="edge">
<title>Node135&#45;&gt;Node27</title>
<path fill="none" stroke="#63b8ff" d="M1035.08,-56.32C1159.16,-47.24 1534.15,-26.45 1626,-98.53 1716.14,-169.27 1721.79,-325.33 1720.79,-380.63"/>
<polygon fill="#63b8ff" stroke="#63b8ff" points="1717.29,-380.74 1720.51,-390.83 1724.29,-380.93 1717.29,-380.74"/>
</g>
</g>
</svg>
