<?xml version="1.0" encoding="UTF-8" standalone="no"?>
<!DOCTYPE svg PUBLIC "-//W3C//DTD SVG 1.1//EN"
 "http://www.w3.org/Graphics/SVG/1.1/DTD/svg11.dtd">
<!-- Generated by graphviz version 2.43.0 (0)
 -->
<!-- Title: skip_separators Pages: 1 -->
<!--zoomable 736 -->
<svg id="main" version="1.1" xmlns="http://www.w3.org/2000/svg" xmlns:xlink="http://www.w3.org/1999/xlink" xml:space="preserve" onload="init(evt)">
<style type="text/css"><![CDATA[
.edge:hover path { stroke: red; }
.edge:hover polygon { stroke: red; fill: red; }
]]></style>
<script type="text/javascript"><![CDATA[
var edges = document.getElementsByTagName('g');
if (edges && edges.length) {
  for (var i=0;i<edges.length;i++) {
    if (edges[i].id.substr(0,4)=='edge') {
      edges[i].setAttribute('class','edge');
    }
  }
}
]]></script>
        <defs>
                <circle id="rim" cx="0" cy="0" r="7"/>
                <circle id="rim2" cx="0" cy="0" r="3.5"/>
                <g id="zoomPlus">
                        <use xlink:href="#rim" fill="#404040">
                                <set attributeName="fill" to="#808080" begin="zoomplus.mouseover" end="zoomplus.mouseout"/>
                        </use>
                        <path d="M-4,0h8M0,-4v8" fill="none" stroke="white" stroke-width="1.5" pointer-events="none"/>
                </g>
                <g id="zoomMin">
                        <use xlink:href="#rim" fill="#404040">
                                <set attributeName="fill" to="#808080" begin="zoomminus.mouseover" end="zoomminus.mouseout"/>
                        </use>
                        <path d="M-4,0h8" fill="none" stroke="white" stroke-width="1.5" pointer-events="none"/>
                </g>
                <g id="dirArrow">
                        <path fill="none" stroke="white" stroke-width="1.5" d="M0,-3.0v7 M-2.5,-0.5L0,-3.0L2.5,-0.5"/>
                </g>
               <g id="resetDef">
                       <use xlink:href="#rim2" fill="#404040">
                               <set attributeName="fill" to="#808080" begin="reset.mouseover" end="reset.mouseout"/>
                       </use>
               </g>
        </defs>

<script type="text/javascript">
var viewWidth = 1359;
var viewHeight = 736;
var sectionId = 'dynsection-13';
</script>
<script xlink:href="svgpan.js"/>
<svg id="graph" class="graph">
<g id="viewport">
<title>skip_separators</title>
<!-- Node1 -->
<g id="node1" class="node">
<title>Node1</title>
<g id="a_node1"><a xlink:title=" ">
<polygon fill="#999999" stroke="#666666" points="94,-447.12 0,-447.12 0,-428.12 94,-428.12 94,-447.12"/>
<text text-anchor="middle" x="47" y="-435.12" font-family="Helvetica,sans-Serif" font-size="10.00">skip_separators</text>
</a>
</g>
</g>
<!-- Node2 -->
<g id="node2" class="node">
<title>Node2</title>
<g id="a_node2"><a xlink:href="parser__utils_8c.html#a58d1fcbbbf31e24aab676f2ba794b440" target="_top" xlink:title=" ">
<polygon fill="white" stroke="#666666" points="207,-466.12 130,-466.12 130,-447.12 207,-447.12 207,-466.12"/>
<text text-anchor="middle" x="168.5" y="-454.12" font-family="Helvetica,sans-Serif" font-size="10.00">is_separator</text>
</a>
</g>
</g>
<!-- Node1&#45;&gt;Node2 -->
<g id="edge1" class="edge">
<title>Node1&#45;&gt;Node2</title>
<path fill="none" stroke="#63b8ff" d="M94.2,-444.96C102.61,-446.3 111.39,-447.7 119.83,-449.04"/>
<polygon fill="#63b8ff" stroke="#63b8ff" points="119.5,-452.53 129.92,-450.64 120.6,-445.62 119.5,-452.53"/>
</g>
<!-- Node3 -->
<g id="node3" class="node">
<title>Node3</title>
<g id="a_node3"><a xlink:href="parser__next_8c.html#ad25986b565a767c6ad7d0b0b8846fca6" target="_top" xlink:title=" ">
<polygon fill="white" stroke="#666666" points="205.5,-429.12 131.5,-429.12 131.5,-410.12 205.5,-410.12 205.5,-429.12"/>
<text text-anchor="middle" x="168.5" y="-417.12" font-family="Helvetica,sans-Serif" font-size="10.00">parser_next</text>
</a>
</g>
</g>
<!-- Node1&#45;&gt;Node3 -->
<g id="edge2" class="edge">
<title>Node1&#45;&gt;Node3</title>
<path fill="none" stroke="#63b8ff" d="M94.2,-430.66C103.08,-429.32 112.37,-427.92 121.25,-426.59"/>
<polygon fill="#63b8ff" stroke="#63b8ff" points="122.06,-430 131.43,-425.05 121.02,-423.08 122.06,-430"/>
</g>
<!-- Node4 -->
<g id="node4" class="node">
<title>Node4</title>
<g id="a_node4"><a xlink:href="lexer__next__token_8c.html#a3def5432329709fb4df861d90672c510" target="_top" xlink:title=" ">
<polygon fill="white" stroke="#666666" points="343,-448.12 243,-448.12 243,-429.12 343,-429.12 343,-448.12"/>
<text text-anchor="middle" x="293" y="-436.12" font-family="Helvetica,sans-Serif" font-size="10.00">lexer_next_token</text>
</a>
</g>
</g>
<!-- Node3&#45;&gt;Node4 -->
<g id="edge3" class="edge">
<title>Node3&#45;&gt;Node4</title>
<path fill="none" stroke="#63b8ff" d="M205.59,-425.22C214.09,-426.54 223.37,-427.97 232.6,-429.41"/>
<polygon fill="#63b8ff" stroke="#63b8ff" points="232.13,-432.87 242.55,-430.95 233.2,-425.96 232.13,-432.87"/>
</g>
<!-- Node42 -->
<g id="node42" class="node">
<title>Node42</title>
<g id="a_node42"><a xlink:href="destroy__token_8c.html#ad1a471ee7b1ccb035d769be1152a370c" target="_top" xlink:title=" ">
<polygon fill="white" stroke="#666666" points="336,-411.12 250,-411.12 250,-392.12 336,-392.12 336,-411.12"/>
<text text-anchor="middle" x="293" y="-399.12" font-family="Helvetica,sans-Serif" font-size="10.00">token_destroy</text>
</a>
</g>
</g>
<!-- Node3&#45;&gt;Node42 -->
<g id="edge62" class="edge">
<title>Node3&#45;&gt;Node42</title>
<path fill="none" stroke="#63b8ff" d="M205.59,-414.32C216.29,-412.74 228.23,-410.99 239.73,-409.3"/>
<polygon fill="#63b8ff" stroke="#63b8ff" points="240.31,-412.75 249.69,-407.84 239.29,-405.83 240.31,-412.75"/>
</g>
<!-- Node5 -->
<g id="node5" class="node">
<title>Node5</title>
<g id="a_node5"><a xlink:href="create__token_8c.html#a15bcfc92177012893c626ce7d2d6bb6b" target="_top" xlink:title=" ">
<polygon fill="white" stroke="#666666" points="815,-509.12 735,-509.12 735,-490.12 815,-490.12 815,-509.12"/>
<text text-anchor="middle" x="775" y="-497.12" font-family="Helvetica,sans-Serif" font-size="10.00">create_token</text>
</a>
</g>
</g>
<!-- Node4&#45;&gt;Node5 -->
<g id="edge4" class="edge">
<title>Node4&#45;&gt;Node5</title>
<path fill="none" stroke="#63b8ff" d="M297.73,-448.34C307.41,-472.31 335.65,-534.75 379,-568.62 438.7,-615.26 465.3,-612 540,-624.62 594.78,-633.87 614.43,-647.62 665,-624.62 713.3,-602.65 748.54,-547.54 764.5,-518.39"/>
<polygon fill="#63b8ff" stroke="#63b8ff" points="767.75,-519.73 769.33,-509.25 761.56,-516.46 767.75,-519.73"/>
</g>
<!-- Node6 -->
<g id="node6" class="node">
<title>Node6</title>
<g id="a_node6"><a xlink:href="lexer__next__token_8c.html#add2e1acaa9518ecf20b6670ad91a5c65" target="_top" xlink:title=" ">
<polygon fill="white" stroke="#666666" points="492.5,-559.12 390.5,-559.12 390.5,-540.12 492.5,-540.12 492.5,-559.12"/>
<text text-anchor="middle" x="441.5" y="-547.12" font-family="Helvetica,sans-Serif" font-size="10.00">get_logical_token</text>
</a>
</g>
</g>
<!-- Node4&#45;&gt;Node6 -->
<g id="edge5" class="edge">
<title>Node4&#45;&gt;Node6</title>
<path fill="none" stroke="#63b8ff" d="M306.74,-448.28C331.96,-467.38 388.45,-510.18 419.34,-533.58"/>
<polygon fill="#63b8ff" stroke="#63b8ff" points="417.6,-536.66 427.68,-539.91 421.82,-531.08 417.6,-536.66"/>
</g>
<!-- Node10 -->
<g id="node10" class="node">
<title>Node10</title>
<g id="a_node10"><a xlink:href="lexer__next__token_8c.html#abcee8a7ba5ea6ca80c0bd7e3dd8d9a32" target="_top" xlink:title=" ">
<polygon fill="white" stroke="#666666" points="502.5,-448.12 380.5,-448.12 380.5,-429.12 502.5,-429.12 502.5,-448.12"/>
<text text-anchor="middle" x="441.5" y="-436.12" font-family="Helvetica,sans-Serif" font-size="10.00">get_redirection_token</text>
</a>
</g>
</g>
<!-- Node4&#45;&gt;Node10 -->
<g id="edge12" class="edge">
<title>Node4&#45;&gt;Node10</title>
<path fill="none" stroke="#63b8ff" d="M343.19,-438.62C351.83,-438.62 360.96,-438.62 370.05,-438.62"/>
<polygon fill="#63b8ff" stroke="#63b8ff" points="370.24,-442.12 380.24,-438.62 370.24,-435.12 370.24,-442.12"/>
</g>
<!-- Node15 -->
<g id="node15" class="node">
<title>Node15</title>
<g id="a_node15"><a xlink:href="lexer__newline_8c.html#a9f60bf18297b9c705fa6cdff027c79fc" target="_top" xlink:title=" ">
<polygon fill="white" stroke="#666666" points="483.5,-401.12 399.5,-401.12 399.5,-382.12 483.5,-382.12 483.5,-401.12"/>
<text text-anchor="middle" x="441.5" y="-389.12" font-family="Helvetica,sans-Serif" font-size="10.00">lexer_newline</text>
</a>
</g>
</g>
<!-- Node4&#45;&gt;Node15 -->
<g id="edge21" class="edge">
<title>Node4&#45;&gt;Node15</title>
<path fill="none" stroke="#63b8ff" d="M323.65,-429.11C345.91,-421.96 376.63,-412.11 400.98,-404.3"/>
<polygon fill="#63b8ff" stroke="#63b8ff" points="402.19,-407.58 410.65,-401.2 400.06,-400.92 402.19,-407.58"/>
</g>
<!-- Node16 -->
<g id="node16" class="node">
<title>Node16</title>
<g id="a_node16"><a xlink:href="lexer__parenthesis_8c.html#a2b13eaa0fee255bea85bd4279f369795" target="_top" xlink:title=" ">
<polygon fill="white" stroke="#666666" points="493,-728.12 390,-728.12 390,-709.12 493,-709.12 493,-728.12"/>
<text text-anchor="middle" x="441.5" y="-716.12" font-family="Helvetica,sans-Serif" font-size="10.00">lexer_parenthesis</text>
</a>
</g>
</g>
<!-- Node4&#45;&gt;Node16 -->
<g id="edge23" class="edge">
<title>Node4&#45;&gt;Node16</title>
<path fill="none" stroke="#63b8ff" d="M294.09,-448.36C295,-486.51 303.54,-627.31 379,-700.62 380.1,-701.68 381.25,-702.69 382.46,-703.63"/>
<polygon fill="#63b8ff" stroke="#63b8ff" points="380.72,-706.67 391.05,-709.05 384.46,-700.75 380.72,-706.67"/>
</g>
<!-- Node17 -->
<g id="node17" class="node">
<title>Node17</title>
<g id="a_node17"><a xlink:href="lexer__semicolon_8c.html#a1612109b245d9780427946e4e33b01b7" target="_top" xlink:title=" ">
<polygon fill="white" stroke="#666666" points="489.5,-691.12 393.5,-691.12 393.5,-672.12 489.5,-672.12 489.5,-691.12"/>
<text text-anchor="middle" x="441.5" y="-679.12" font-family="Helvetica,sans-Serif" font-size="10.00">lexer_semicolon</text>
</a>
</g>
</g>
<!-- Node4&#45;&gt;Node17 -->
<g id="edge25" class="edge">
<title>Node4&#45;&gt;Node17</title>
<path fill="none" stroke="#63b8ff" d="M295.02,-448.42C299.04,-482.23 316.77,-595.27 379,-657.62 382.9,-661.52 387.5,-664.81 392.41,-667.57"/>
<polygon fill="#63b8ff" stroke="#63b8ff" points="390.97,-670.76 401.49,-671.99 394.03,-664.46 390.97,-670.76"/>
</g>
<!-- Node18 -->
<g id="node18" class="node">
<title>Node18</title>
<g id="a_node18"><a xlink:href="lexer__word_8c.html#ac2600a9ba16009c4d8c114a118c54955" target="_top" xlink:title=" ">
<polygon fill="white" stroke="#666666" points="476.5,-345.12 406.5,-345.12 406.5,-326.12 476.5,-326.12 476.5,-345.12"/>
<text text-anchor="middle" x="441.5" y="-333.12" font-family="Helvetica,sans-Serif" font-size="10.00">lexer_word</text>
</a>
</g>
</g>
<!-- Node4&#45;&gt;Node18 -->
<g id="edge27" class="edge">
<title>Node4&#45;&gt;Node18</title>
<path fill="none" stroke="#63b8ff" d="M327.97,-429.01C333.27,-426.72 338.48,-423.95 343,-420.62 364.19,-405.02 359.49,-391.27 379,-373.62 388.96,-364.61 401.34,-356.49 412.38,-350.09"/>
<polygon fill="#63b8ff" stroke="#63b8ff" points="414.23,-353.07 421.25,-345.14 410.82,-346.96 414.23,-353.07"/>
</g>
<!-- Node40 -->
<g id="node40" class="node">
<title>Node40</title>
<g id="a_node40"><a xlink:href="lexer__next__token_8c.html#a7f0a2dd2373821667a4d5381e7711aa0" target="_top" xlink:title=" ">
<polygon fill="white" stroke="#666666" points="486,-308.12 397,-308.12 397,-289.12 486,-289.12 486,-308.12"/>
<text text-anchor="middle" x="441.5" y="-296.12" font-family="Helvetica,sans-Serif" font-size="10.00">skip_comment</text>
</a>
</g>
</g>
<!-- Node4&#45;&gt;Node40 -->
<g id="edge60" class="edge">
<title>Node4&#45;&gt;Node40</title>
<path fill="none" stroke="#63b8ff" d="M331.47,-428.95C335.72,-426.72 339.7,-423.98 343,-420.62 377.26,-385.71 343.58,-350.36 379,-316.62 381.62,-314.13 384.56,-311.98 387.7,-310.12"/>
<polygon fill="#63b8ff" stroke="#63b8ff" points="389.51,-313.14 396.99,-305.64 386.47,-306.83 389.51,-313.14"/>
</g>
<!-- Node41 -->
<g id="node41" class="node">
<title>Node41</title>
<g id="a_node41"><a xlink:href="lexer__next__token_8c.html#a5b2052471d98cef2998e1367f9bf8f6d" target="_top" xlink:title=" ">
<polygon fill="white" stroke="#666666" points="504,-271.12 379,-271.12 379,-252.12 504,-252.12 504,-271.12"/>
<text text-anchor="middle" x="441.5" y="-259.12" font-family="Helvetica,sans-Serif" font-size="10.00">skip_spaces_and_tabs</text>
</a>
</g>
</g>
<!-- Node4&#45;&gt;Node41 -->
<g id="edge61" class="edge">
<title>Node4&#45;&gt;Node41</title>
<path fill="none" stroke="#63b8ff" d="M332.22,-428.94C336.24,-426.72 339.96,-423.98 343,-420.62 386.34,-372.61 334.07,-326.14 379,-279.62 379.93,-278.65 380.92,-277.73 381.94,-276.87"/>
<polygon fill="#63b8ff" stroke="#63b8ff" points="384.16,-279.59 390.52,-271.12 380.27,-273.78 384.16,-279.59"/>
</g>
<!-- Node7 -->
<g id="node7" class="node">
<title>Node7</title>
<g id="a_node7"><a xlink:href="lexer__logical__and_8c.html#a59e5031d54357d65c6873edc67de2a47" target="_top" xlink:title=" ">
<polygon fill="white" stroke="#666666" points="653,-578.12 552,-578.12 552,-559.12 653,-559.12 653,-578.12"/>
<text text-anchor="middle" x="602.5" y="-566.12" font-family="Helvetica,sans-Serif" font-size="10.00">lexer_logical_and</text>
</a>
</g>
</g>
<!-- Node6&#45;&gt;Node7 -->
<g id="edge6" class="edge">
<title>Node6&#45;&gt;Node7</title>
<path fill="none" stroke="#63b8ff" d="M492.81,-555.63C508.26,-557.48 525.41,-559.53 541.45,-561.44"/>
<polygon fill="#63b8ff" stroke="#63b8ff" points="541.45,-564.97 551.79,-562.68 542.28,-558.02 541.45,-564.97"/>
</g>
<!-- Node8 -->
<g id="node8" class="node">
<title>Node8</title>
<g id="a_node8"><a xlink:href="lexer__logical__or_8c.html#ac3851eaea27bd5774b126b888bdddf93" target="_top" xlink:title=" ">
<polygon fill="white" stroke="#666666" points="649,-541.12 556,-541.12 556,-522.12 649,-522.12 649,-541.12"/>
<text text-anchor="middle" x="602.5" y="-529.12" font-family="Helvetica,sans-Serif" font-size="10.00">lexer_logical_or</text>
</a>
</g>
</g>
<!-- Node6&#45;&gt;Node8 -->
<g id="edge8" class="edge">
<title>Node6&#45;&gt;Node8</title>
<path fill="none" stroke="#63b8ff" d="M492.81,-543.92C509.69,-542.01 528.62,-539.87 545.88,-537.92"/>
<polygon fill="#63b8ff" stroke="#63b8ff" points="546.29,-541.39 555.83,-536.79 545.5,-534.44 546.29,-541.39"/>
</g>
<!-- Node9 -->
<g id="node9" class="node">
<title>Node9</title>
<g id="a_node9"><a xlink:href="lexer__pipe_8c.html#a693816e38802a086de64c09cb7cebeb7" target="_top" xlink:title=" ">
<polygon fill="white" stroke="#666666" points="636,-615.12 569,-615.12 569,-596.12 636,-596.12 636,-615.12"/>
<text text-anchor="middle" x="602.5" y="-603.12" font-family="Helvetica,sans-Serif" font-size="10.00">lexer_pipe</text>
</a>
</g>
</g>
<!-- Node6&#45;&gt;Node9 -->
<g id="edge10" class="edge">
<title>Node6&#45;&gt;Node9</title>
<path fill="none" stroke="#63b8ff" d="M465.54,-559.25C485.16,-567.3 514.2,-578.84 540,-587.62 546.08,-589.69 552.55,-591.74 558.92,-593.68"/>
<polygon fill="#63b8ff" stroke="#63b8ff" points="558.2,-597.12 568.78,-596.61 560.19,-590.41 558.2,-597.12"/>
</g>
<!-- Node7&#45;&gt;Node5 -->
<g id="edge7" class="edge">
<title>Node7&#45;&gt;Node5</title>
<path fill="none" stroke="#63b8ff" d="M639.58,-559.06C648,-556.55 656.88,-553.69 665,-550.62 693.6,-539.81 725.12,-524.7 746.88,-513.73"/>
<polygon fill="#63b8ff" stroke="#63b8ff" points="748.53,-516.81 755.85,-509.16 745.36,-510.58 748.53,-516.81"/>
</g>
<!-- Node8&#45;&gt;Node5 -->
<g id="edge9" class="edge">
<title>Node8&#45;&gt;Node5</title>
<path fill="none" stroke="#63b8ff" d="M649.19,-523.04C672.58,-518.65 701.08,-513.31 724.93,-508.83"/>
<polygon fill="#63b8ff" stroke="#63b8ff" points="725.66,-512.25 734.84,-506.97 724.37,-505.37 725.66,-512.25"/>
</g>
<!-- Node9&#45;&gt;Node5 -->
<g id="edge11" class="edge">
<title>Node9&#45;&gt;Node5</title>
<path fill="none" stroke="#63b8ff" d="M636.03,-598.67C645.67,-595.94 656.03,-592.31 665,-587.62 701.53,-568.51 737.47,-536.13 757.59,-516.43"/>
<polygon fill="#63b8ff" stroke="#63b8ff" points="760.11,-518.85 764.73,-509.31 755.17,-513.89 760.11,-518.85"/>
</g>
<!-- Node11 -->
<g id="node11" class="node">
<title>Node11</title>
<g id="a_node11"><a xlink:href="lexer__heredoc_8c.html#a9db043b0e8df9ad1155a65a8fcf67c11" target="_top" xlink:title=" ">
<polygon fill="white" stroke="#666666" points="645,-504.12 560,-504.12 560,-485.12 645,-485.12 645,-504.12"/>
<text text-anchor="middle" x="602.5" y="-492.12" font-family="Helvetica,sans-Serif" font-size="10.00">lexer_heredoc</text>
</a>
</g>
</g>
<!-- Node10&#45;&gt;Node11 -->
<g id="edge13" class="edge">
<title>Node10&#45;&gt;Node11</title>
<path fill="none" stroke="#63b8ff" d="M465.54,-448.25C485.16,-456.3 514.2,-467.84 540,-476.62 545.53,-478.5 551.38,-480.37 557.19,-482.15"/>
<polygon fill="#63b8ff" stroke="#63b8ff" points="556.27,-485.53 566.86,-485.05 558.28,-478.83 556.27,-485.53"/>
</g>
<!-- Node12 -->
<g id="node12" class="node">
<title>Node12</title>
<g id="a_node12"><a xlink:href="lexer__redirect__append_8c.html#a09beefbfaf132dbe04add1370a6fb2e3" target="_top" xlink:title=" ">
<polygon fill="white" stroke="#666666" points="665,-467.12 540,-467.12 540,-448.12 665,-448.12 665,-467.12"/>
<text text-anchor="middle" x="602.5" y="-455.12" font-family="Helvetica,sans-Serif" font-size="10.00">lexer_redirect_append</text>
</a>
</g>
</g>
<!-- Node10&#45;&gt;Node12 -->
<g id="edge15" class="edge">
<title>Node10&#45;&gt;Node12</title>
<path fill="none" stroke="#63b8ff" d="M502.61,-445.8C511.49,-446.86 520.72,-447.97 529.81,-449.05"/>
<polygon fill="#63b8ff" stroke="#63b8ff" points="529.64,-452.56 539.98,-450.27 530.47,-445.61 529.64,-452.56"/>
</g>
<!-- Node13 -->
<g id="node13" class="node">
<title>Node13</title>
<g id="a_node13"><a xlink:href="lexer__redirect__in_8c.html#ac723d9668329d99b35003ed2423889e5" target="_top" xlink:title=" ">
<polygon fill="white" stroke="#666666" points="651.5,-430.12 553.5,-430.12 553.5,-411.12 651.5,-411.12 651.5,-430.12"/>
<text text-anchor="middle" x="602.5" y="-418.12" font-family="Helvetica,sans-Serif" font-size="10.00">lexer_redirect_in</text>
</a>
</g>
</g>
<!-- Node10&#45;&gt;Node13 -->
<g id="edge17" class="edge">
<title>Node10&#45;&gt;Node13</title>
<path fill="none" stroke="#63b8ff" d="M502.61,-431.81C516,-430.3 530.16,-428.69 543.46,-427.19"/>
<polygon fill="#63b8ff" stroke="#63b8ff" points="543.89,-430.66 553.44,-426.06 543.11,-423.71 543.89,-430.66"/>
</g>
<!-- Node14 -->
<g id="node14" class="node">
<title>Node14</title>
<g id="a_node14"><a xlink:href="lexer__redirect__out_8c.html#a70e2216639c96030b3861405ae3497c6" target="_top" xlink:title=" ">
<polygon fill="white" stroke="#666666" points="654.5,-393.12 550.5,-393.12 550.5,-374.12 654.5,-374.12 654.5,-393.12"/>
<text text-anchor="middle" x="602.5" y="-381.12" font-family="Helvetica,sans-Serif" font-size="10.00">lexer_redirect_out</text>
</a>
</g>
</g>
<!-- Node10&#45;&gt;Node14 -->
<g id="edge19" class="edge">
<title>Node10&#45;&gt;Node14</title>
<path fill="none" stroke="#63b8ff" d="M467.21,-429.07C486.85,-421.59 515.05,-411.07 540,-402.62 546.4,-400.45 553.21,-398.25 559.87,-396.14"/>
<polygon fill="#63b8ff" stroke="#63b8ff" points="560.97,-399.47 569.47,-393.15 558.89,-392.79 560.97,-399.47"/>
</g>
<!-- Node11&#45;&gt;Node5 -->
<g id="edge14" class="edge">
<title>Node11&#45;&gt;Node5</title>
<path fill="none" stroke="#63b8ff" d="M645.21,-495.84C669.21,-496.55 699.51,-497.43 724.68,-498.17"/>
<polygon fill="#63b8ff" stroke="#63b8ff" points="724.67,-501.67 734.77,-498.47 724.88,-494.68 724.67,-501.67"/>
</g>
<!-- Node12&#45;&gt;Node5 -->
<g id="edge16" class="edge">
<title>Node12&#45;&gt;Node5</title>
<path fill="none" stroke="#63b8ff" d="M642.19,-467.15C666.84,-473.22 698.99,-481.14 725.37,-487.64"/>
<polygon fill="#63b8ff" stroke="#63b8ff" points="724.62,-491.06 735.17,-490.05 726.3,-484.26 724.62,-491.06"/>
</g>
<!-- Node13&#45;&gt;Node5 -->
<g id="edge18" class="edge">
<title>Node13&#45;&gt;Node5</title>
<path fill="none" stroke="#63b8ff" d="M641.71,-430.18C649.61,-432.78 657.73,-435.91 665,-439.62 682.82,-448.7 683.78,-456.44 701,-466.62 713.31,-473.9 727.5,-480.65 740.08,-486.13"/>
<polygon fill="#63b8ff" stroke="#63b8ff" points="738.76,-489.37 749.33,-490.05 741.49,-482.92 738.76,-489.37"/>
</g>
<!-- Node14&#45;&gt;Node5 -->
<g id="edge20" class="edge">
<title>Node14&#45;&gt;Node5</title>
<path fill="none" stroke="#63b8ff" d="M648.86,-393.23C654.65,-395.68 660.22,-398.76 665,-402.62 690.4,-423.12 676.93,-444.58 701,-466.62 709.89,-474.76 721.12,-481.16 732.09,-486.08"/>
<polygon fill="#63b8ff" stroke="#63b8ff" points="731.02,-489.43 741.6,-490.03 733.7,-482.96 731.02,-489.43"/>
</g>
<!-- Node15&#45;&gt;Node5 -->
<g id="edge22" class="edge">
<title>Node15&#45;&gt;Node5</title>
<path fill="none" stroke="#63b8ff" d="M460.66,-382C501.39,-361.88 601.43,-320.79 665,-365.62 703.95,-393.08 668.72,-431.57 701,-466.62 708.65,-474.92 718.78,-481.28 729.06,-486.08"/>
<polygon fill="#63b8ff" stroke="#63b8ff" points="727.9,-489.39 738.47,-490.08 730.63,-482.95 727.9,-489.39"/>
</g>
<!-- Node16&#45;&gt;Node5 -->
<g id="edge24" class="edge">
<title>Node16&#45;&gt;Node5</title>
<path fill="none" stroke="#63b8ff" d="M493.33,-723.31C541.56,-725.16 614.03,-720.97 665,-686.62 725.96,-645.54 757.4,-558.06 768.84,-519.07"/>
<polygon fill="#63b8ff" stroke="#63b8ff" points="772.21,-520.01 771.55,-509.44 765.47,-518.12 772.21,-520.01"/>
</g>
<!-- Node17&#45;&gt;Node5 -->
<g id="edge26" class="edge">
<title>Node17&#45;&gt;Node5</title>
<path fill="none" stroke="#63b8ff" d="M489.92,-687.41C537.57,-690.86 611.42,-689.53 665,-657.62 719.75,-625.01 753.52,-552.96 767.11,-518.59"/>
<polygon fill="#63b8ff" stroke="#63b8ff" points="770.39,-519.8 770.68,-509.21 763.85,-517.31 770.39,-519.8"/>
</g>
<!-- Node18&#45;&gt;Node5 -->
<g id="edge28" class="edge">
<title>Node18&#45;&gt;Node5</title>
<path fill="none" stroke="#63b8ff" d="M473.58,-326.04C520.39,-313.7 609.38,-298.57 665,-341.62 710.72,-377 663.17,-422.9 701,-466.62 708.25,-474.99 718.05,-481.35 728.11,-486.14"/>
<polygon fill="#63b8ff" stroke="#63b8ff" points="726.79,-489.38 737.37,-490.1 729.55,-482.94 726.79,-489.38"/>
</g>
<!-- Node19 -->
<g id="node19" class="node">
<title>Node19</title>
<g id="a_node19"><a xlink:href="lexer__word_8c.html#a730574257743b09386cadd2ccbfe4d13" target="_top" xlink:title=" ">
<polygon fill="white" stroke="#666666" points="663.5,-279.12 541.5,-279.12 541.5,-260.12 663.5,-260.12 663.5,-279.12"/>
<text text-anchor="middle" x="602.5" y="-267.12" font-family="Helvetica,sans-Serif" font-size="10.00">handle_current_token</text>
</a>
</g>
</g>
<!-- Node18&#45;&gt;Node19 -->
<g id="edge29" class="edge">
<title>Node18&#45;&gt;Node19</title>
<path fill="none" stroke="#63b8ff" d="M476.63,-326.86C485.71,-324.05 495.38,-320.61 504,-316.62 521.23,-308.63 523.07,-302.22 540,-293.62 547.71,-289.7 556.22,-286 564.39,-282.74"/>
<polygon fill="#63b8ff" stroke="#63b8ff" points="565.68,-286 573.75,-279.13 563.16,-279.47 565.68,-286"/>
</g>
<!-- Node31 -->
<g id="node31" class="node">
<title>Node31</title>
<g id="a_node31"><a xlink:href="lexer__is__word__separator_8c.html#abccfc6fc0cdbd040fc9a7dcbfd207090" target="_top" xlink:title=" ">
<polygon fill="white" stroke="#666666" points="1197,-22.12 1062,-22.12 1062,-3.12 1197,-3.12 1197,-22.12"/>
<text text-anchor="middle" x="1129.5" y="-10.12" font-family="Helvetica,sans-Serif" font-size="10.00">lexer_is_word_separator</text>
</a>
</g>
</g>
<!-- Node18&#45;&gt;Node31 -->
<g id="edge59" class="edge">
<title>Node18&#45;&gt;Node31</title>
<path fill="none" stroke="#63b8ff" d="M476.72,-330.04C486.3,-327.22 496.21,-322.99 504,-316.62 529.86,-295.47 518.92,-276.55 540,-250.62 657.5,-106.07 704.56,-58.89 885,-12.62 939.48,1.35 1003.09,0.8 1051.64,-2.95"/>
<polygon fill="#63b8ff" stroke="#63b8ff" points="1051.5,-6.45 1061.76,-3.8 1052.09,0.52 1051.5,-6.45"/>
</g>
<!-- Node20 -->
<g id="node20" class="node">
<title>Node20</title>
<g id="a_node20"><a xlink:href="lexer__word_8c.html#acd8f2a3c47fa56f87c2792ccefd2ee3e" target="_top" xlink:title=" ">
<polygon fill="white" stroke="#666666" points="835.5,-242.12 714.5,-242.12 714.5,-223.12 835.5,-223.12 835.5,-242.12"/>
<text text-anchor="middle" x="775" y="-230.12" font-family="Helvetica,sans-Serif" font-size="10.00">handle_double_quote</text>
</a>
</g>
</g>
<!-- Node19&#45;&gt;Node20 -->
<g id="edge30" class="edge">
<title>Node19&#45;&gt;Node20</title>
<path fill="none" stroke="#63b8ff" d="M647.41,-260.09C669.6,-255.28 696.71,-249.39 720.15,-244.3"/>
<polygon fill="#63b8ff" stroke="#63b8ff" points="720.91,-247.72 729.94,-242.18 719.43,-240.88 720.91,-247.72"/>
</g>
<!-- Node21 -->
<g id="node21" class="node">
<title>Node21</title>
<g id="a_node21"><a xlink:href="lexer__word_8c.html#a733339142f4677a066646a12a7e5bec4" target="_top" xlink:title=" ">
<polygon fill="white" stroke="#666666" points="1026,-467.12 885,-467.12 885,-448.12 1026,-448.12 1026,-467.12"/>
<text text-anchor="middle" x="955.5" y="-455.12" font-family="Helvetica,sans-Serif" font-size="10.00">handle_escape_sequence</text>
</a>
</g>
</g>
<!-- Node19&#45;&gt;Node21 -->
<g id="edge31" class="edge">
<title>Node19&#45;&gt;Node21</title>
<path fill="none" stroke="#63b8ff" d="M625.24,-279.2C638.39,-285.98 654.58,-296.26 665,-309.62 695.33,-348.52 663.4,-382.68 701,-414.62 748.64,-455.09 820.01,-464.15 874.9,-464.06"/>
<polygon fill="#63b8ff" stroke="#63b8ff" points="874.99,-467.56 884.95,-463.94 874.91,-460.56 874.99,-467.56"/>
</g>
<!-- Node25 -->
<g id="node25" class="node">
<title>Node25</title>
<g id="a_node25"><a xlink:href="lexer__word_8c.html#a3ae03e49183787e7cf32c90ffdef7351" target="_top" xlink:title=" ">
<polygon fill="white" stroke="#666666" points="833.5,-405.12 716.5,-405.12 716.5,-386.12 833.5,-386.12 833.5,-405.12"/>
<text text-anchor="middle" x="775" y="-393.12" font-family="Helvetica,sans-Serif" font-size="10.00">handle_single_quote</text>
</a>
</g>
</g>
<!-- Node19&#45;&gt;Node25 -->
<g id="edge35" class="edge">
<title>Node19&#45;&gt;Node25</title>
<path fill="none" stroke="#63b8ff" d="M637.42,-279.16C646.89,-282.78 656.81,-287.53 665,-293.62 685.83,-309.11 682.55,-321.35 701,-339.62 716.46,-354.93 736.15,-369.81 751.18,-380.38"/>
<polygon fill="#63b8ff" stroke="#63b8ff" points="749.2,-383.27 759.42,-386.07 753.18,-377.51 749.2,-383.27"/>
</g>
<!-- Node26 -->
<g id="node26" class="node">
<title>Node26</title>
<g id="a_node26"><a xlink:href="lexer__utils_8c.html#a2ba6f7e43ecbf713c666ab062eac534c" target="_top" xlink:title=" ">
<polygon fill="white" stroke="#666666" points="849,-331.12 701,-331.12 701,-312.12 849,-312.12 849,-331.12"/>
<text text-anchor="middle" x="775" y="-319.12" font-family="Helvetica,sans-Serif" font-size="10.00">lexer_append_current_char</text>
</a>
</g>
</g>
<!-- Node19&#45;&gt;Node26 -->
<g id="edge37" class="edge">
<title>Node19&#45;&gt;Node26</title>
<path fill="none" stroke="#63b8ff" d="M634.77,-279.16C662.33,-287.56 702.66,-299.86 732.83,-309.06"/>
<polygon fill="#63b8ff" stroke="#63b8ff" points="732.05,-312.48 742.64,-312.05 734.09,-305.79 732.05,-312.48"/>
</g>
<!-- Node27 -->
<g id="node27" class="node">
<title>Node27</title>
<g id="a_node27"><a xlink:href="lexer__expand__tilde_8c.html#ae3c478a10a2764ee7c7f94b42f28ecaf" target="_top" xlink:title=" ">
<polygon fill="white" stroke="#666666" points="829.5,-142.12 720.5,-142.12 720.5,-123.12 829.5,-123.12 829.5,-142.12"/>
<text text-anchor="middle" x="775" y="-130.12" font-family="Helvetica,sans-Serif" font-size="10.00">lexer_expand_tilde</text>
</a>
</g>
</g>
<!-- Node19&#45;&gt;Node27 -->
<g id="edge39" class="edge">
<title>Node19&#45;&gt;Node27</title>
<path fill="none" stroke="#63b8ff" d="M615.49,-259.99C644.4,-236.75 718.21,-177.45 753.97,-148.71"/>
<polygon fill="#63b8ff" stroke="#63b8ff" points="756.19,-151.42 761.8,-142.43 751.81,-145.96 756.19,-151.42"/>
</g>
<!-- Node32 -->
<g id="node32" class="node">
<title>Node32</title>
<g id="a_node32"><a xlink:href="lexer__expand__variable_8c.html#a01ad90eb8460a612626bb33c9e15cd52" target="_top" xlink:title=" ">
<polygon fill="white" stroke="#666666" points="838.5,-279.12 711.5,-279.12 711.5,-260.12 838.5,-260.12 838.5,-279.12"/>
<text text-anchor="middle" x="775" y="-267.12" font-family="Helvetica,sans-Serif" font-size="10.00">lexer_expand_variable</text>
</a>
</g>
</g>
<!-- Node19&#45;&gt;Node32 -->
<g id="edge45" class="edge">
<title>Node19&#45;&gt;Node32</title>
<path fill="none" stroke="#63b8ff" d="M663.61,-269.62C675.67,-269.62 688.47,-269.62 700.91,-269.62"/>
<polygon fill="#63b8ff" stroke="#63b8ff" points="701.26,-273.12 711.26,-269.62 701.26,-266.12 701.26,-273.12"/>
</g>
<!-- Node22 -->
<g id="node22" class="node">
<title>Node22</title>
<g id="a_node22"><a xlink:href="lexer__utils_8c.html#abf1c1b3b6033c8f9c8d1b11cc9e14f75" target="_top" xlink:title=" ">
<polygon fill="white" stroke="#666666" points="1179.5,-335.12 1079.5,-335.12 1079.5,-316.12 1179.5,-316.12 1179.5,-335.12"/>
<text text-anchor="middle" x="1129.5" y="-323.12" font-family="Helvetica,sans-Serif" font-size="10.00">lexer_append_str</text>
</a>
</g>
</g>
<!-- Node21&#45;&gt;Node22 -->
<g id="edge32" class="edge">
<title>Node21&#45;&gt;Node22</title>
<path fill="none" stroke="#63b8ff" d="M994.81,-448.03C1005.39,-444.44 1016.55,-439.7 1026,-433.62 1064.35,-408.93 1098.53,-366.96 1116.07,-343.27"/>
<polygon fill="#63b8ff" stroke="#63b8ff" points="1118.92,-345.31 1121.95,-335.16 1113.25,-341.2 1118.92,-345.31"/>
</g>
<!-- Node23 -->
<g id="node23" class="node">
<title>Node23</title>
<g id="a_node23"><a xlink:href="strings_8h.html#a5e1589f073ac32d227dbc6020c376dab" target="_top" xlink:title=" ">
<polygon fill="white" stroke="#666666" points="1342.5,-335.12 1241.5,-335.12 1241.5,-316.12 1342.5,-316.12 1342.5,-335.12"/>
<text text-anchor="middle" x="1292" y="-323.12" font-family="Helvetica,sans-Serif" font-size="10.00">append_to_buffer</text>
</a>
</g>
</g>
<!-- Node22&#45;&gt;Node23 -->
<g id="edge33" class="edge">
<title>Node22&#45;&gt;Node23</title>
<path fill="none" stroke="#63b8ff" d="M1179.53,-325.62C1195.79,-325.62 1214.08,-325.62 1231.06,-325.62"/>
<polygon fill="#63b8ff" stroke="#63b8ff" points="1231.44,-329.12 1241.44,-325.62 1231.44,-322.12 1231.44,-329.12"/>
</g>
<!-- Node24 -->
<g id="node24" class="node">
<title>Node24</title>
<g id="a_node24"><a xlink:href="lexer__utils_8c.html#a84e8d5514cfe03a20152ad26f170211f" target="_top" xlink:title=" ">
<polygon fill="white" stroke="#666666" points="1351,-279.12 1233,-279.12 1233,-260.12 1351,-260.12 1351,-279.12"/>
<text text-anchor="middle" x="1292" y="-267.12" font-family="Helvetica,sans-Serif" font-size="10.00">lexer_set_alloc_error</text>
</a>
</g>
</g>
<!-- Node22&#45;&gt;Node24 -->
<g id="edge34" class="edge">
<title>Node22&#45;&gt;Node24</title>
<path fill="none" stroke="#63b8ff" d="M1158.09,-315.99C1184.66,-306.72 1225.03,-292.64 1254.3,-282.42"/>
<polygon fill="#63b8ff" stroke="#63b8ff" points="1255.48,-285.72 1263.77,-279.12 1253.17,-279.11 1255.48,-285.72"/>
</g>
<!-- Node25&#45;&gt;Node22 -->
<g id="edge36" class="edge">
<title>Node25&#45;&gt;Node22</title>
<path fill="none" stroke="#63b8ff" d="M833.51,-399.09C884.95,-400.58 961.89,-398.79 1026,-380.62 1055.82,-372.17 1086.73,-354.08 1106.7,-340.95"/>
<polygon fill="#63b8ff" stroke="#63b8ff" points="1108.73,-343.8 1115.07,-335.31 1104.82,-338 1108.73,-343.8"/>
</g>
<!-- Node26&#45;&gt;Node22 -->
<g id="edge38" class="edge">
<title>Node26&#45;&gt;Node22</title>
<path fill="none" stroke="#63b8ff" d="M795.09,-331.22C816.39,-341.34 852.18,-356.65 885,-362.62 946.66,-373.83 964.27,-373.42 1026,-362.62 1051.62,-358.14 1079.29,-347.79 1099.42,-339.18"/>
<polygon fill="#63b8ff" stroke="#63b8ff" points="1100.9,-342.35 1108.65,-335.12 1098.08,-335.94 1100.9,-342.35"/>
</g>
<!-- Node27&#45;&gt;Node22 -->
<g id="edge42" class="edge">
<title>Node27&#45;&gt;Node22</title>
<path fill="none" stroke="#63b8ff" d="M800.21,-142.23C845.77,-160.7 946.79,-203.53 1026,-250.62 1056.38,-268.68 1088.9,-293.52 1108.97,-309.58"/>
<polygon fill="#63b8ff" stroke="#63b8ff" points="1107.03,-312.52 1117.01,-316.08 1111.43,-307.07 1107.03,-312.52"/>
</g>
<!-- Node28 -->
<g id="node28" class="node">
<title>Node28</title>
<g id="a_node28"><a xlink:href="get__variable__value_8c.html#a2edd9900f19af236aa05385a789be3d6" target="_top" xlink:title=" ">
<polygon fill="white" stroke="#666666" points="1184.5,-101.12 1074.5,-101.12 1074.5,-82.12 1184.5,-82.12 1184.5,-101.12"/>
<text text-anchor="middle" x="1129.5" y="-89.12" font-family="Helvetica,sans-Serif" font-size="10.00">get_variable_value</text>
</a>
</g>
</g>
<!-- Node27&#45;&gt;Node28 -->
<g id="edge40" class="edge">
<title>Node27&#45;&gt;Node28</title>
<path fill="none" stroke="#63b8ff" d="M793.48,-123.11C814.49,-112.26 851.14,-95.19 885,-88.62 944.86,-76.99 1014.57,-79.42 1064.02,-83.76"/>
<polygon fill="#63b8ff" stroke="#63b8ff" points="1063.98,-87.27 1074.26,-84.7 1064.62,-80.3 1063.98,-87.27"/>
</g>
<!-- Node30 -->
<g id="node30" class="node">
<title>Node30</title>
<g id="a_node30"><a xlink:href="lexer__expand__tilde_8c.html#aa4231a41b1e79447d6a70db7b075f937" target="_top" xlink:title=" ">
<polygon fill="white" stroke="#666666" points="1014,-41.12 897,-41.12 897,-22.12 1014,-22.12 1014,-41.12"/>
<text text-anchor="middle" x="955.5" y="-29.12" font-family="Helvetica,sans-Serif" font-size="10.00">should_expand_tilde</text>
</a>
</g>
</g>
<!-- Node27&#45;&gt;Node30 -->
<g id="edge43" class="edge">
<title>Node27&#45;&gt;Node30</title>
<path fill="none" stroke="#63b8ff" d="M787.39,-122.91C806.49,-107.02 846.65,-75.28 885,-55.62 893.26,-51.38 902.43,-47.62 911.33,-44.4"/>
<polygon fill="#63b8ff" stroke="#63b8ff" points="912.52,-47.69 920.83,-41.12 910.24,-41.08 912.52,-47.69"/>
</g>
<!-- Node29 -->
<g id="node29" class="node">
<title>Node29</title>
<g id="a_node29"><a xlink:href="get__variable_8c.html#a569170390f0edf013bf89c26ef55ea8c" target="_top" xlink:title=" ">
<polygon fill="white" stroke="#666666" points="1330.5,-101.12 1253.5,-101.12 1253.5,-82.12 1330.5,-82.12 1330.5,-101.12"/>
<text text-anchor="middle" x="1292" y="-89.12" font-family="Helvetica,sans-Serif" font-size="10.00">get_variable</text>
</a>
</g>
</g>
<!-- Node28&#45;&gt;Node29 -->
<g id="edge41" class="edge">
<title>Node28&#45;&gt;Node29</title>
<path fill="none" stroke="#63b8ff" d="M1184.84,-91.62C1203.78,-91.62 1224.88,-91.62 1243.25,-91.62"/>
<polygon fill="#63b8ff" stroke="#63b8ff" points="1243.42,-95.12 1253.42,-91.62 1243.42,-88.12 1243.42,-95.12"/>
</g>
<!-- Node30&#45;&gt;Node31 -->
<g id="edge44" class="edge">
<title>Node30&#45;&gt;Node31</title>
<path fill="none" stroke="#63b8ff" d="M1014.25,-25.24C1026.34,-23.9 1039.27,-22.48 1051.92,-21.08"/>
<polygon fill="#63b8ff" stroke="#63b8ff" points="1052.43,-24.54 1061.99,-19.97 1051.67,-17.59 1052.43,-24.54"/>
</g>
<!-- Node32&#45;&gt;Node24 -->
<g id="edge58" class="edge">
<title>Node32&#45;&gt;Node24</title>
<path fill="none" stroke="#63b8ff" d="M820.32,-260.11C840.02,-256.34 863.57,-252.47 885,-250.62 1003.49,-240.37 1141.94,-251.85 1222.71,-260.89"/>
<polygon fill="#63b8ff" stroke="#63b8ff" points="1222.42,-264.38 1232.75,-262.04 1223.21,-257.43 1222.42,-264.38"/>
</g>
<!-- Node33 -->
<g id="node33" class="node">
<title>Node33</title>
<g id="a_node33"><a xlink:href="lexer__expand__variable_8c.html#abe77b7e35b276965b72648d12abae283" target="_top" xlink:title=" ">
<polygon fill="white" stroke="#666666" points="998.5,-316.12 912.5,-316.12 912.5,-297.12 998.5,-297.12 998.5,-316.12"/>
<text text-anchor="middle" x="955.5" y="-304.12" font-family="Helvetica,sans-Serif" font-size="10.00">append_dollar</text>
</a>
</g>
</g>
<!-- Node32&#45;&gt;Node33 -->
<g id="edge46" class="edge">
<title>Node32&#45;&gt;Node33</title>
<path fill="none" stroke="#63b8ff" d="M821.97,-279.15C846.59,-284.25 877.01,-290.56 902.49,-295.84"/>
<polygon fill="#63b8ff" stroke="#63b8ff" points="901.85,-299.28 912.36,-297.88 903.28,-292.43 901.85,-299.28"/>
</g>
<!-- Node34 -->
<g id="node34" class="node">
<title>Node34</title>
<g id="a_node34"><a xlink:href="lexer__expand__variable_8c.html#ab47d31838e3255a1321d85e937919d4e" target="_top" xlink:title=" ">
<polygon fill="white" stroke="#666666" points="1011,-279.12 900,-279.12 900,-260.12 1011,-260.12 1011,-279.12"/>
<text text-anchor="middle" x="955.5" y="-267.12" font-family="Helvetica,sans-Serif" font-size="10.00">append_last_status</text>
</a>
</g>
</g>
<!-- Node32&#45;&gt;Node34 -->
<g id="edge48" class="edge">
<title>Node32&#45;&gt;Node34</title>
<path fill="none" stroke="#63b8ff" d="M838.68,-269.62C855.24,-269.62 873.13,-269.62 889.79,-269.62"/>
<polygon fill="#63b8ff" stroke="#63b8ff" points="889.98,-273.12 899.98,-269.62 889.98,-266.12 889.98,-273.12"/>
</g>
<!-- Node35 -->
<g id="node35" class="node">
<title>Node35</title>
<g id="a_node35"><a xlink:href="lexer__expand__variable_8c.html#a9954e7e26e9570a3c41eed4e16bf6791" target="_top" xlink:title=" ">
<polygon fill="white" stroke="#666666" points="1020.5,-353.12 890.5,-353.12 890.5,-334.12 1020.5,-334.12 1020.5,-353.12"/>
<text text-anchor="middle" x="955.5" y="-341.12" font-family="Helvetica,sans-Serif" font-size="10.00">append_variable_value</text>
</a>
</g>
</g>
<!-- Node32&#45;&gt;Node35 -->
<g id="edge51" class="edge">
<title>Node32&#45;&gt;Node35</title>
<path fill="none" stroke="#63b8ff" d="M799.04,-279.16C813.58,-285.4 832.65,-293.97 849,-302.62 865.58,-311.39 867.79,-317.18 885,-324.62 890.44,-326.97 896.25,-329.1 902.11,-331.02"/>
<polygon fill="#63b8ff" stroke="#63b8ff" points="901.36,-334.45 911.95,-334.03 903.41,-327.75 901.36,-334.45"/>
</g>
<!-- Node36 -->
<g id="node36" class="node">
<title>Node36</title>
<g id="a_node36"><a xlink:href="lexer__expand__variable_8c.html#a1d07a8c171e69a5c58a385a75520e6c0" target="_top" xlink:title=" ">
<polygon fill="white" stroke="#666666" points="1013.5,-127.62 897.5,-127.62 897.5,-97.62 1013.5,-97.62 1013.5,-127.62"/>
<text text-anchor="start" x="905.5" y="-115.62" font-family="Helvetica,sans-Serif" font-size="10.00">get_correct_variable</text>
<text text-anchor="middle" x="955.5" y="-104.62" font-family="Helvetica,sans-Serif" font-size="10.00">_value</text>
</a>
</g>
</g>
<!-- Node32&#45;&gt;Node36 -->
<g id="edge53" class="edge">
<title>Node32&#45;&gt;Node36</title>
<path fill="none" stroke="#63b8ff" d="M835.03,-260.1C840.15,-257.61 844.92,-254.5 849,-250.62 887.52,-214.02 847.93,-174.69 885,-136.62 886.22,-135.36 887.52,-134.17 888.87,-133.04"/>
<polygon fill="#63b8ff" stroke="#63b8ff" points="890.98,-135.83 897.17,-127.23 886.97,-130.1 890.98,-135.83"/>
</g>
<!-- Node37 -->
<g id="node37" class="node">
<title>Node37</title>
<g id="a_node37"><a xlink:href="lexer__expand__variable_8c.html#a3674c7faac945bf9ec05a9dc00c08896" target="_top" xlink:title=" ">
<polygon fill="white" stroke="#666666" points="1021,-165.12 890,-165.12 890,-146.12 1021,-146.12 1021,-165.12"/>
<text text-anchor="middle" x="955.5" y="-153.12" font-family="Helvetica,sans-Serif" font-size="10.00">get_variable_name_len</text>
</a>
</g>
</g>
<!-- Node32&#45;&gt;Node37 -->
<g id="edge55" class="edge">
<title>Node32&#45;&gt;Node37</title>
<path fill="none" stroke="#63b8ff" d="M832.94,-260.03C838.71,-257.56 844.21,-254.48 849,-250.62 876.55,-228.42 858.33,-202.87 885,-179.62 889.74,-175.49 895.22,-172.06 900.99,-169.22"/>
<polygon fill="#63b8ff" stroke="#63b8ff" points="902.44,-172.4 910.22,-165.21 899.66,-165.98 902.44,-172.4"/>
</g>
<!-- Node33&#45;&gt;Node22 -->
<g id="edge47" class="edge">
<title>Node33&#45;&gt;Node22</title>
<path fill="none" stroke="#63b8ff" d="M998.58,-311.27C1019.8,-313.61 1045.91,-316.5 1069.13,-319.06"/>
<polygon fill="#63b8ff" stroke="#63b8ff" points="1068.91,-322.56 1079.23,-320.18 1069.68,-315.6 1068.91,-322.56"/>
</g>
<!-- Node34&#45;&gt;Node22 -->
<g id="edge49" class="edge">
<title>Node34&#45;&gt;Node22</title>
<path fill="none" stroke="#63b8ff" d="M996.39,-279.21C1006.13,-281.75 1016.49,-284.63 1026,-287.62 1049.39,-294.96 1075.27,-304.57 1095.18,-312.29"/>
<polygon fill="#63b8ff" stroke="#63b8ff" points="1094.13,-315.63 1104.71,-316.02 1096.68,-309.12 1094.13,-315.63"/>
</g>
<!-- Node34&#45;&gt;Node24 -->
<g id="edge50" class="edge">
<title>Node34&#45;&gt;Node24</title>
<path fill="none" stroke="#63b8ff" d="M1011.36,-269.62C1069.12,-269.62 1160.18,-269.62 1222.59,-269.62"/>
<polygon fill="#63b8ff" stroke="#63b8ff" points="1222.74,-273.12 1232.74,-269.62 1222.74,-266.12 1222.74,-273.12"/>
</g>
<!-- Node35&#45;&gt;Node22 -->
<g id="edge52" class="edge">
<title>Node35&#45;&gt;Node22</title>
<path fill="none" stroke="#63b8ff" d="M1020.55,-336.92C1036.53,-335.24 1053.6,-333.46 1069.33,-331.81"/>
<polygon fill="#63b8ff" stroke="#63b8ff" points="1069.87,-335.27 1079.46,-330.75 1069.15,-328.31 1069.87,-335.27"/>
</g>
<!-- Node36&#45;&gt;Node28 -->
<g id="edge54" class="edge">
<title>Node36&#45;&gt;Node28</title>
<path fill="none" stroke="#63b8ff" d="M1013.77,-105.63C1029.96,-103.65 1047.68,-101.49 1064.25,-99.46"/>
<polygon fill="#63b8ff" stroke="#63b8ff" points="1064.89,-102.91 1074.39,-98.23 1064.04,-95.96 1064.89,-102.91"/>
</g>
<!-- Node38 -->
<g id="node38" class="node">
<title>Node38</title>
<g id="a_node38"><a xlink:href="lexer__expand__variable_8c.html#a5067193ac632b7565fd8b9ad405a525f" target="_top" xlink:title=" ">
<polygon fill="white" stroke="#666666" points="1192,-165.12 1067,-165.12 1067,-146.12 1192,-146.12 1192,-165.12"/>
<text text-anchor="middle" x="1129.5" y="-153.12" font-family="Helvetica,sans-Serif" font-size="10.00">is_valid_variable_char</text>
</a>
</g>
</g>
<!-- Node37&#45;&gt;Node38 -->
<g id="edge56" class="edge">
<title>Node37&#45;&gt;Node38</title>
<path fill="none" stroke="#63b8ff" d="M1021.04,-155.62C1032.61,-155.62 1044.74,-155.62 1056.51,-155.62"/>
<polygon fill="#63b8ff" stroke="#63b8ff" points="1056.74,-159.12 1066.74,-155.62 1056.74,-152.12 1056.74,-159.12"/>
</g>
<!-- Node39 -->
<g id="node39" class="node">
<title>Node39</title>
<g id="a_node39"><a xlink:href="strings_8h.html#adfd4fc057d3b7ad39c6867928cc44175" target="_top" xlink:title=" ">
<polygon fill="white" stroke="#666666" points="1333.5,-165.12 1250.5,-165.12 1250.5,-146.12 1333.5,-146.12 1333.5,-165.12"/>
<text text-anchor="middle" x="1292" y="-153.12" font-family="Helvetica,sans-Serif" font-size="10.00">my_isnumber</text>
</a>
</g>
</g>
<!-- Node38&#45;&gt;Node39 -->
<g id="edge57" class="edge">
<title>Node38&#45;&gt;Node39</title>
<path fill="none" stroke="#63b8ff" d="M1192.09,-155.62C1207.9,-155.62 1224.72,-155.62 1239.93,-155.62"/>
<polygon fill="#63b8ff" stroke="#63b8ff" points="1240.16,-159.12 1250.16,-155.62 1240.16,-152.12 1240.16,-159.12"/>
</g>
</g>
</svg>
        <g id="navigator" transform="translate(0 0)" fill="#404254">
                <rect fill="#f2f5e9" fill-opacity="0.5" stroke="#606060" stroke-width=".5" x="0" y="0" width="60" height="60"/>
                <use id="zoomplus" xlink:href="#zoomPlus" x="17" y="9" onmousedown="handleZoom(evt,'in')"/>
                <use id="zoomminus" xlink:href="#zoomMin" x="42" y="9" onmousedown="handleZoom(evt,'out')"/>
                <use id="reset" xlink:href="#resetDef" x="30" y="36" onmousedown="handleReset()"/>
                <g id="arrowUp" xlink:href="#dirArrow" transform="translate(30 24)" onmousedown="handlePan(0,-1)">
                  <use xlink:href="#rim" fill="#404040">
                        <set attributeName="fill" to="#808080" begin="arrowUp.mouseover" end="arrowUp.mouseout"/>
                  </use>
                  <path fill="none" stroke="white" stroke-width="1.5" d="M0,-3.0v7 M-2.5,-0.5L0,-3.0L2.5,-0.5"/>
                </g>
                <g id="arrowRight" xlink:href="#dirArrow" transform="rotate(90) translate(36 -43)" onmousedown="handlePan(1,0)">
                  <use xlink:href="#rim" fill="#404040">
                        <set attributeName="fill" to="#808080" begin="arrowRight.mouseover" end="arrowRight.mouseout"/>
                  </use>
                  <path fill="none" stroke="white" stroke-width="1.5" d="M0,-3.0v7 M-2.5,-0.5L0,-3.0L2.5,-0.5"/>
                </g>
                <g id="arrowDown" xlink:href="#dirArrow" transform="rotate(180) translate(-30 -48)" onmousedown="handlePan(0,1)">
                  <use xlink:href="#rim" fill="#404040">
                        <set attributeName="fill" to="#808080" begin="arrowDown.mouseover" end="arrowDown.mouseout"/>
                  </use>
                  <path fill="none" stroke="white" stroke-width="1.5" d="M0,-3.0v7 M-2.5,-0.5L0,-3.0L2.5,-0.5"/>
                </g>
                <g id="arrowLeft" xlink:href="#dirArrow" transform="rotate(270) translate(-36 17)" onmousedown="handlePan(-1,0)">
                  <use xlink:href="#rim" fill="#404040">
                        <set attributeName="fill" to="#808080" begin="arrowLeft.mouseover" end="arrowLeft.mouseout"/>
                  </use>
                  <path fill="none" stroke="white" stroke-width="1.5" d="M0,-3.0v7 M-2.5,-0.5L0,-3.0L2.5,-0.5"/>
                </g>
        </g>
        <svg viewBox="0 0 15 15" width="100%" height="30px" preserveAspectRatio="xMaxYMin meet">
         <g id="arrow_out" transform="scale(0.3 0.3)">
          <a xlink:href="parser_8h_aef41660a9d240250899e27f88cd21e2c_cgraph_org.svg" target="_base">
           <rect id="button" ry="5" rx="5" y="6" x="6" height="38" width="38"
                fill="#f2f5e9" fill-opacity="0.5" stroke="#606060" stroke-width="1.0"/>
           <path id="arrow"
             d="M 11.500037,31.436501 C 11.940474,20.09759 22.043105,11.32322 32.158766,21.979434 L 37.068811,17.246167 C 37.068811,17.246167 37.088388,32 37.088388,32 L 22.160133,31.978069 C 22.160133,31.978069 26.997745,27.140456 26.997745,27.140456 C 18.528582,18.264221 13.291696,25.230495 11.500037,31.436501 z"
             style="fill:#404040;"/>
          </a>
         </g>
        </svg>
</svg>
