<?xml version="1.0" encoding="UTF-8" standalone="no"?>
<!DOCTYPE svg PUBLIC "-//W3C//DTD SVG 1.1//EN"
 "http://www.w3.org/Graphics/SVG/1.1/DTD/svg11.dtd">
<!-- Generated by graphviz version 2.43.0 (0)
 -->
<!-- Title: parse_command Pages: 1 -->
<!--zoomable 772 -->
<svg id="main" version="1.1" xmlns="http://www.w3.org/2000/svg" xmlns:xlink="http://www.w3.org/1999/xlink" xml:space="preserve" onload="init(evt)">
<style type="text/css"><![CDATA[
.edge:hover path { stroke: red; }
.edge:hover polygon { stroke: red; fill: red; }
]]></style>
<script type="text/javascript"><![CDATA[
var edges = document.getElementsByTagName('g');
if (edges && edges.length) {
  for (var i=0;i<edges.length;i++) {
    if (edges[i].id.substr(0,4)=='edge') {
      edges[i].setAttribute('class','edge');
    }
  }
}
]]></script>
        <defs>
                <circle id="rim" cx="0" cy="0" r="7"/>
                <circle id="rim2" cx="0" cy="0" r="3.5"/>
                <g id="zoomPlus">
                        <use xlink:href="#rim" fill="#404040">
                                <set attributeName="fill" to="#808080" begin="zoomplus.mouseover" end="zoomplus.mouseout"/>
                        </use>
                        <path d="M-4,0h8M0,-4v8" fill="none" stroke="white" stroke-width="1.5" pointer-events="none"/>
                </g>
                <g id="zoomMin">
                        <use xlink:href="#rim" fill="#404040">
                                <set attributeName="fill" to="#808080" begin="zoomminus.mouseover" end="zoomminus.mouseout"/>
                        </use>
                        <path d="M-4,0h8" fill="none" stroke="white" stroke-width="1.5" pointer-events="none"/>
                </g>
                <g id="dirArrow">
                        <path fill="none" stroke="white" stroke-width="1.5" d="M0,-3.0v7 M-2.5,-0.5L0,-3.0L2.5,-0.5"/>
                </g>
               <g id="resetDef">
                       <use xlink:href="#rim2" fill="#404040">
                               <set attributeName="fill" to="#808080" begin="reset.mouseover" end="reset.mouseout"/>
                       </use>
               </g>
        </defs>

<script type="text/javascript">
var viewWidth = 1538;
var viewHeight = 772;
var sectionId = 'dynsection-2';
</script>
<script xlink:href="svgpan.js"/>
<svg id="graph" class="graph">
<g id="viewport">
<title>parse_command</title>
<!-- Node1 -->
<g id="node1" class="node">
<title>Node1</title>
<g id="a_node1"><a xlink:title=" ">
<polygon fill="#999999" stroke="#666666" points="98,-615 0,-615 0,-596 98,-596 98,-615"/>
<text text-anchor="middle" x="49" y="-603" font-family="Helvetica,sans-Serif" font-size="10.00">parse_command</text>
</a>
</g>
</g>
<!-- Node2 -->
<g id="node2" class="node">
<title>Node2</title>
<g id="a_node2"><a xlink:href="parse__command_8c.html#ae89fa0d22da2bcaee6c11579cafa87c6" target="_top" xlink:title=" ">
<polygon fill="white" stroke="#666666" points="247.5,-727 155.5,-727 155.5,-708 247.5,-708 247.5,-727"/>
<text text-anchor="middle" x="201.5" y="-715" font-family="Helvetica,sans-Serif" font-size="10.00">apply_redirects</text>
</a>
</g>
</g>
<!-- Node1&#45;&gt;Node2 -->
<g id="edge1" class="edge">
<title>Node1&#45;&gt;Node2</title>
<path fill="none" stroke="#63b8ff" d="M55.85,-615.15C67.95,-634.28 97.68,-677.09 134,-699.5 137.66,-701.76 141.61,-703.74 145.69,-705.48"/>
<polygon fill="#63b8ff" stroke="#63b8ff" points="144.79,-708.88 155.38,-709.1 147.24,-702.32 144.79,-708.88"/>
</g>
<!-- Node6 -->
<g id="node6" class="node">
<title>Node6</title>
<g id="a_node6"><a xlink:href="ast__new__cmd_8c.html#adeeaa39d90e239f73b73a02bbdbbe1ab" target="_top" xlink:title=" ">
<polygon fill="white" stroke="#666666" points="243,-653 160,-653 160,-634 243,-634 243,-653"/>
<text text-anchor="middle" x="201.5" y="-641" font-family="Helvetica,sans-Serif" font-size="10.00">ast_new_cmd</text>
</a>
</g>
</g>
<!-- Node1&#45;&gt;Node6 -->
<g id="edge5" class="edge">
<title>Node1&#45;&gt;Node6</title>
<path fill="none" stroke="#63b8ff" d="M87.98,-615.09C107.66,-620.06 131.89,-626.18 152.82,-631.46"/>
<polygon fill="#63b8ff" stroke="#63b8ff" points="152.24,-634.93 162.8,-633.98 153.96,-628.14 152.24,-634.93"/>
</g>
<!-- Node7 -->
<g id="node7" class="node">
<title>Node7</title>
<g id="a_node7"><a xlink:href="parse__command_8c.html#a672046cbfdfec32bb8ed3deec121a5f4" target="_top" xlink:title=" ">
<polygon fill="white" stroke="#666666" points="248,-577 155,-577 155,-558 248,-558 248,-577"/>
<text text-anchor="middle" x="201.5" y="-565" font-family="Helvetica,sans-Serif" font-size="10.00">check_redirects</text>
</a>
</g>
</g>
<!-- Node1&#45;&gt;Node7 -->
<g id="edge6" class="edge">
<title>Node1&#45;&gt;Node7</title>
<path fill="none" stroke="#63b8ff" d="M87.98,-595.91C107.66,-590.94 131.89,-584.82 152.82,-579.54"/>
<polygon fill="#63b8ff" stroke="#63b8ff" points="153.96,-582.86 162.8,-577.02 152.24,-576.07 153.96,-582.86"/>
</g>
<!-- Node9 -->
<g id="node9" class="node">
<title>Node9</title>
<g id="a_node9"><a xlink:href="parser__set__error_8c.html#adcfabdb026b94fdbe4b6cbf5cb16522a" target="_top" xlink:title=" ">
<polygon fill="white" stroke="#666666" points="871.5,-615 775.5,-615 775.5,-596 871.5,-596 871.5,-615"/>
<text text-anchor="middle" x="823.5" y="-603" font-family="Helvetica,sans-Serif" font-size="10.00">parser_set_error</text>
</a>
</g>
</g>
<!-- Node1&#45;&gt;Node9 -->
<g id="edge68" class="edge">
<title>Node1&#45;&gt;Node9</title>
<path fill="none" stroke="#63b8ff" d="M98.13,-605.5C160.91,-605.5 274.17,-605.5 371,-605.5 371,-605.5 371,-605.5 533,-605.5 613.6,-605.5 706.83,-605.5 765.23,-605.5"/>
<polygon fill="#63b8ff" stroke="#63b8ff" points="765.36,-609 775.36,-605.5 765.36,-602 765.36,-609"/>
</g>
<!-- Node10 -->
<g id="node10" class="node">
<title>Node10</title>
<g id="a_node10"><a xlink:href="empty__stdin_8c.html#a4c89df10296f2cc245e3a32065e04e7b" target="_top" xlink:title=" ">
<polygon fill="white" stroke="#666666" points="240,-464 163,-464 163,-445 240,-445 240,-464"/>
<text text-anchor="middle" x="201.5" y="-452" font-family="Helvetica,sans-Serif" font-size="10.00">empty_stdin</text>
</a>
</g>
</g>
<!-- Node1&#45;&gt;Node10 -->
<g id="edge9" class="edge">
<title>Node1&#45;&gt;Node10</title>
<path fill="none" stroke="#63b8ff" d="M53.36,-595.84C62.35,-571.42 89.37,-506.81 134,-473.5 139.62,-469.3 146.15,-466.03 152.87,-463.48"/>
<polygon fill="#63b8ff" stroke="#63b8ff" points="154.35,-466.68 162.77,-460.24 152.17,-460.03 154.35,-466.68"/>
</g>
<!-- Node11 -->
<g id="node11" class="node">
<title>Node11</title>
<g id="a_node11"><a xlink:href="parse__command_8c.html#ac67a0768cb7890fe1566b68252b9240d" target="_top" xlink:title=" ">
<polygon fill="white" stroke="#666666" points="261,-690 142,-690 142,-671 261,-671 261,-690"/>
<text text-anchor="middle" x="201.5" y="-678" font-family="Helvetica,sans-Serif" font-size="10.00">free_redirs_and_argv</text>
</a>
</g>
</g>
<!-- Node1&#45;&gt;Node11 -->
<g id="edge10" class="edge">
<title>Node1&#45;&gt;Node11</title>
<path fill="none" stroke="#63b8ff" d="M61.49,-615.14C77.01,-627.72 105.97,-649.64 134,-662.5 138.15,-664.4 142.54,-666.14 147,-667.72"/>
<polygon fill="#63b8ff" stroke="#63b8ff" points="146.24,-671.15 156.84,-670.91 148.41,-664.49 146.24,-671.15"/>
</g>
<!-- Node13 -->
<g id="node13" class="node">
<title>Node13</title>
<g id="a_node13"><a xlink:href="parse__command_8c.html#a8840f41f4fb4f5cd6b85713c18d2eda3" target="_top" xlink:title=" ">
<polygon fill="white" stroke="#666666" points="269,-501 134,-501 134,-482 269,-482 269,-501"/>
<text text-anchor="middle" x="201.5" y="-489" font-family="Helvetica,sans-Serif" font-size="10.00">parse_command_tokens</text>
</a>
</g>
</g>
<!-- Node1&#45;&gt;Node13 -->
<g id="edge14" class="edge">
<title>Node1&#45;&gt;Node13</title>
<path fill="none" stroke="#63b8ff" d="M62.57,-595.98C88.4,-576.41 147.68,-531.51 179.46,-507.44"/>
<polygon fill="#63b8ff" stroke="#63b8ff" points="181.79,-510.07 187.64,-501.24 177.56,-504.49 181.79,-510.07"/>
</g>
<!-- Node3 -->
<g id="node3" class="node">
<title>Node3</title>
<g id="a_node3"><a xlink:href="ast__new__redirect_8c.html#aae99986c9d10db89d56c310f77b3490d" target="_top" xlink:title=" ">
<polygon fill="white" stroke="#666666" points="422,-764 322,-764 322,-745 422,-745 422,-764"/>
<text text-anchor="middle" x="372" y="-752" font-family="Helvetica,sans-Serif" font-size="10.00">ast_new_redirect</text>
</a>
</g>
</g>
<!-- Node2&#45;&gt;Node3 -->
<g id="edge2" class="edge">
<title>Node2&#45;&gt;Node3</title>
<path fill="none" stroke="#63b8ff" d="M245.89,-727.03C267.72,-731.82 294.38,-737.68 317.47,-742.75"/>
<polygon fill="#63b8ff" stroke="#63b8ff" points="316.94,-746.21 327.46,-744.94 318.44,-739.38 316.94,-746.21"/>
</g>
<!-- Node4 -->
<g id="node4" class="node">
<title>Node4</title>
<g id="a_node4"><a xlink:href="parse__command_8c.html#a7dbef10d59c414dc5337f293697588b4" target="_top" xlink:title=" ">
<polygon fill="white" stroke="#666666" points="417.5,-727 326.5,-727 326.5,-708 417.5,-708 417.5,-727"/>
<text text-anchor="middle" x="372" y="-715" font-family="Helvetica,sans-Serif" font-size="10.00">free_redir_data</text>
</a>
</g>
</g>
<!-- Node2&#45;&gt;Node4 -->
<g id="edge3" class="edge">
<title>Node2&#45;&gt;Node4</title>
<path fill="none" stroke="#63b8ff" d="M247.65,-717.5C268.69,-717.5 293.91,-717.5 316.05,-717.5"/>
<polygon fill="#63b8ff" stroke="#63b8ff" points="316.3,-721 326.3,-717.5 316.3,-714 316.3,-721"/>
</g>
<!-- Node5 -->
<g id="node5" class="node">
<title>Node5</title>
<g id="a_node5"><a xlink:href="list_8h.html#a68908a98f87b64d0b0fa9ac090a70cad" target="_top" xlink:title=" ">
<polygon fill="white" stroke="#666666" points="410.5,-690 333.5,-690 333.5,-671 410.5,-671 410.5,-690"/>
<text text-anchor="middle" x="372" y="-678" font-family="Helvetica,sans-Serif" font-size="10.00">my_free_list</text>
</a>
</g>
</g>
<!-- Node2&#45;&gt;Node5 -->
<g id="edge4" class="edge">
<title>Node2&#45;&gt;Node5</title>
<path fill="none" stroke="#63b8ff" d="M245.89,-707.97C269.72,-702.74 299.3,-696.25 323.71,-690.88"/>
<polygon fill="#63b8ff" stroke="#63b8ff" points="324.46,-694.3 333.48,-688.74 322.96,-687.47 324.46,-694.3"/>
</g>
<!-- Node8 -->
<g id="node8" class="node">
<title>Node8</title>
<g id="a_node8"><a xlink:href="parse__command_8c.html#abc5df8494b113888ca215c412a63e364" target="_top" xlink:title=" ">
<polygon fill="white" stroke="#666666" points="579.5,-577 484.5,-577 484.5,-558 579.5,-558 579.5,-577"/>
<text text-anchor="middle" x="532" y="-565" font-family="Helvetica,sans-Serif" font-size="10.00">redirect_conflict</text>
</a>
</g>
</g>
<!-- Node7&#45;&gt;Node8 -->
<g id="edge7" class="edge">
<title>Node7&#45;&gt;Node8</title>
<path fill="none" stroke="#63b8ff" d="M248.18,-567.5C307.21,-567.5 410,-567.5 474.06,-567.5"/>
<polygon fill="#63b8ff" stroke="#63b8ff" points="474.39,-571 484.39,-567.5 474.39,-564 474.39,-571"/>
</g>
<!-- Node8&#45;&gt;Node9 -->
<g id="edge8" class="edge">
<title>Node8&#45;&gt;Node9</title>
<path fill="none" stroke="#63b8ff" d="M579.59,-573.08C618.49,-577.8 675.39,-584.84 725,-591.5 738.1,-593.26 752.18,-595.23 765.45,-597.13"/>
<polygon fill="#63b8ff" stroke="#63b8ff" points="765.02,-600.6 775.41,-598.56 766.01,-593.67 765.02,-600.6"/>
</g>
<!-- Node11&#45;&gt;Node4 -->
<g id="edge11" class="edge">
<title>Node11&#45;&gt;Node4</title>
<path fill="none" stroke="#63b8ff" d="M245.89,-690.03C267.72,-694.82 294.38,-700.68 317.47,-705.75"/>
<polygon fill="#63b8ff" stroke="#63b8ff" points="316.94,-709.21 327.46,-707.94 318.44,-702.38 316.94,-709.21"/>
</g>
<!-- Node11&#45;&gt;Node5 -->
<g id="edge12" class="edge">
<title>Node11&#45;&gt;Node5</title>
<path fill="none" stroke="#63b8ff" d="M261.43,-680.5C281.71,-680.5 304.13,-680.5 323.39,-680.5"/>
<polygon fill="#63b8ff" stroke="#63b8ff" points="323.43,-684 333.43,-680.5 323.43,-677 323.43,-684"/>
</g>
<!-- Node12 -->
<g id="node12" class="node">
<title>Node12</title>
<g id="a_node12"><a xlink:href="misc_8h.html#a1180cae2875b1fdcd58c9f9175a82c12" target="_top" xlink:title=" ">
<polygon fill="white" stroke="#666666" points="430.5,-653 313.5,-653 313.5,-634 430.5,-634 430.5,-653"/>
<text text-anchor="middle" x="372" y="-641" font-family="Helvetica,sans-Serif" font-size="10.00">my_free_word_array</text>
</a>
</g>
</g>
<!-- Node11&#45;&gt;Node12 -->
<g id="edge13" class="edge">
<title>Node11&#45;&gt;Node12</title>
<path fill="none" stroke="#63b8ff" d="M245.89,-670.97C267.72,-666.18 294.38,-660.32 317.47,-655.25"/>
<polygon fill="#63b8ff" stroke="#63b8ff" points="318.44,-658.62 327.46,-653.06 316.94,-651.79 318.44,-658.62"/>
</g>
<!-- Node14 -->
<g id="node14" class="node">
<title>Node14</title>
<g id="a_node14"><a xlink:href="parse__command_8c.html#a0e3a99ca004123ac0d21254878ed52b9" target="_top" xlink:title=" ">
<polygon fill="white" stroke="#666666" points="422,-427 322,-427 322,-408 422,-408 422,-427"/>
<text text-anchor="middle" x="372" y="-415" font-family="Helvetica,sans-Serif" font-size="10.00">is_redirect_token</text>
</a>
</g>
</g>
<!-- Node13&#45;&gt;Node14 -->
<g id="edge15" class="edge">
<title>Node13&#45;&gt;Node14</title>
<path fill="none" stroke="#63b8ff" d="M250.32,-482C256.83,-479.73 263.25,-476.93 269,-473.5 288.97,-461.57 285.04,-447.45 305,-435.5 307.85,-433.79 310.87,-432.24 313.99,-430.84"/>
<polygon fill="#63b8ff" stroke="#63b8ff" points="315.54,-433.98 323.54,-427.04 312.96,-427.48 315.54,-433.98"/>
</g>
<!-- Node15 -->
<g id="node15" class="node">
<title>Node15</title>
<g id="a_node15"><a xlink:href="parse__command_8c.html#a4266be6fcfc7d05d42f865fa0cf07412" target="_top" xlink:title=" ">
<polygon fill="white" stroke="#666666" points="439,-501 305,-501 305,-482 439,-482 439,-501"/>
<text text-anchor="middle" x="372" y="-489" font-family="Helvetica,sans-Serif" font-size="10.00">parse_redirection_token</text>
</a>
</g>
</g>
<!-- Node13&#45;&gt;Node15 -->
<g id="edge16" class="edge">
<title>Node13&#45;&gt;Node15</title>
<path fill="none" stroke="#63b8ff" d="M269.1,-491.5C277.56,-491.5 286.27,-491.5 294.87,-491.5"/>
<polygon fill="#63b8ff" stroke="#63b8ff" points="294.89,-495 304.89,-491.5 294.89,-488 294.89,-495"/>
</g>
<!-- Node136 -->
<g id="node46" class="node">
<title>Node136</title>
<g id="a_node46"><a xlink:href="parse__command_8c.html#a9e6378c3e784ff75e9265f1dec09190b" target="_top" xlink:title=" ">
<polygon fill="white" stroke="#666666" points="424.5,-464 319.5,-464 319.5,-445 424.5,-445 424.5,-464"/>
<text text-anchor="middle" x="372" y="-452" font-family="Helvetica,sans-Serif" font-size="10.00">parse_word_token</text>
</a>
</g>
</g>
<!-- Node13&#45;&gt;Node136 -->
<g id="edge60" class="edge">
<title>Node13&#45;&gt;Node136</title>
<path fill="none" stroke="#63b8ff" d="M245.89,-481.97C267.72,-477.18 294.38,-471.32 317.47,-466.25"/>
<polygon fill="#63b8ff" stroke="#63b8ff" points="318.44,-469.62 327.46,-464.06 316.94,-462.79 318.44,-469.62"/>
</g>
<!-- Node15&#45;&gt;Node9 -->
<g id="edge59" class="edge">
<title>Node15&#45;&gt;Node9</title>
<path fill="none" stroke="#63b8ff" d="M421.29,-501.05C489.54,-514.96 617.88,-542.64 725,-574.5 741.31,-579.35 744.83,-582.22 761,-587.5 766.69,-589.36 772.71,-591.23 778.66,-593.03"/>
<polygon fill="#63b8ff" stroke="#63b8ff" points="777.97,-596.47 788.55,-595.97 779.96,-589.77 777.97,-596.47"/>
</g>
<!-- Node16 -->
<g id="node16" class="node">
<title>Node16</title>
<g id="a_node16"><a xlink:href="list_8h.html#a18e592f6f160bc93dbb7e5d788a6f2e1" target="_top" xlink:title=" ">
<polygon fill="white" stroke="#666666" points="589,-501 475,-501 475,-482 589,-482 589,-501"/>
<text text-anchor="middle" x="532" y="-489" font-family="Helvetica,sans-Serif" font-size="10.00">my_add_to_list_end</text>
</a>
</g>
</g>
<!-- Node15&#45;&gt;Node16 -->
<g id="edge17" class="edge">
<title>Node15&#45;&gt;Node16</title>
<path fill="none" stroke="#63b8ff" d="M439.09,-491.5C447.51,-491.5 456.12,-491.5 464.55,-491.5"/>
<polygon fill="#63b8ff" stroke="#63b8ff" points="464.7,-495 474.7,-491.5 464.7,-488 464.7,-495"/>
</g>
<!-- Node17 -->
<g id="node17" class="node">
<title>Node17</title>
<g id="a_node17"><a xlink:href="parser__next_8c.html#ad25986b565a767c6ad7d0b0b8846fca6" target="_top" xlink:title=" ">
<polygon fill="white" stroke="#666666" points="569,-464 495,-464 495,-445 569,-445 569,-464"/>
<text text-anchor="middle" x="532" y="-452" font-family="Helvetica,sans-Serif" font-size="10.00">parser_next</text>
</a>
</g>
</g>
<!-- Node15&#45;&gt;Node17 -->
<g id="edge18" class="edge">
<title>Node15&#45;&gt;Node17</title>
<path fill="none" stroke="#63b8ff" d="M413.69,-481.97C435.41,-476.88 462.24,-470.6 484.75,-465.33"/>
<polygon fill="#63b8ff" stroke="#63b8ff" points="485.82,-468.67 494.76,-462.99 484.23,-461.86 485.82,-468.67"/>
</g>
<!-- Node18 -->
<g id="node18" class="node">
<title>Node18</title>
<g id="a_node18"><a xlink:href="lexer__next__token_8c.html#a3def5432329709fb4df861d90672c510" target="_top" xlink:title=" ">
<polygon fill="white" stroke="#666666" points="725,-390 625,-390 625,-371 725,-371 725,-390"/>
<text text-anchor="middle" x="675" y="-378" font-family="Helvetica,sans-Serif" font-size="10.00">lexer_next_token</text>
</a>
</g>
</g>
<!-- Node17&#45;&gt;Node18 -->
<g id="edge19" class="edge">
<title>Node17&#45;&gt;Node18</title>
<path fill="none" stroke="#63b8ff" d="M546.86,-444.88C564.46,-432.95 596.03,-412.47 625,-398.5 628.38,-396.87 631.95,-395.29 635.56,-393.8"/>
<polygon fill="#63b8ff" stroke="#63b8ff" points="637.08,-396.96 645.11,-390.05 634.52,-390.45 637.08,-396.96"/>
</g>
<!-- Node57 -->
<g id="node45" class="node">
<title>Node57</title>
<g id="a_node45"><a xlink:href="destroy__token_8c.html#ad1a471ee7b1ccb035d769be1152a370c" target="_top" xlink:title=" ">
<polygon fill="white" stroke="#666666" points="718,-464 632,-464 632,-445 718,-445 718,-464"/>
<text text-anchor="middle" x="675" y="-452" font-family="Helvetica,sans-Serif" font-size="10.00">token_destroy</text>
</a>
</g>
</g>
<!-- Node17&#45;&gt;Node57 -->
<g id="edge58" class="edge">
<title>Node17&#45;&gt;Node57</title>
<path fill="none" stroke="#63b8ff" d="M569.31,-454.5C585.27,-454.5 604.32,-454.5 621.76,-454.5"/>
<polygon fill="#63b8ff" stroke="#63b8ff" points="621.81,-458 631.81,-454.5 621.81,-451 621.81,-458"/>
</g>
<!-- Node19 -->
<g id="node19" class="node">
<title>Node19</title>
<g id="a_node19"><a xlink:href="create__token_8c.html#a15bcfc92177012893c626ce7d2d6bb6b" target="_top" xlink:title=" ">
<polygon fill="white" stroke="#666666" points="1182.5,-372 1102.5,-372 1102.5,-353 1182.5,-353 1182.5,-372"/>
<text text-anchor="middle" x="1142.5" y="-360" font-family="Helvetica,sans-Serif" font-size="10.00">create_token</text>
</a>
</g>
</g>
<!-- Node18&#45;&gt;Node19 -->
<g id="edge20" class="edge">
<title>Node18&#45;&gt;Node19</title>
<path fill="none" stroke="#63b8ff" d="M712.13,-390.03C716.8,-392.29 721.25,-395.08 725,-398.5 752.59,-423.71 731.87,-451.08 761,-474.5 810.95,-514.65 990.85,-542.38 1047,-511.5 1097.86,-483.53 1125.2,-415.33 1135.98,-381.78"/>
<polygon fill="#63b8ff" stroke="#63b8ff" points="1139.33,-382.79 1138.9,-372.2 1132.64,-380.74 1139.33,-382.79"/>
</g>
<!-- Node20 -->
<g id="node20" class="node">
<title>Node20</title>
<g id="a_node20"><a xlink:href="lexer__next__token_8c.html#add2e1acaa9518ecf20b6670ad91a5c65" target="_top" xlink:title=" ">
<polygon fill="white" stroke="#666666" points="874.5,-465 772.5,-465 772.5,-446 874.5,-446 874.5,-465"/>
<text text-anchor="middle" x="823.5" y="-453" font-family="Helvetica,sans-Serif" font-size="10.00">get_logical_token</text>
</a>
</g>
</g>
<!-- Node18&#45;&gt;Node20 -->
<g id="edge21" class="edge">
<title>Node18&#45;&gt;Node20</title>
<path fill="none" stroke="#63b8ff" d="M708.65,-390.09C714.33,-392.42 720,-395.21 725,-398.5 744.43,-411.29 741.24,-424.22 761,-436.5 764.37,-438.6 768,-440.48 771.73,-442.16"/>
<polygon fill="#63b8ff" stroke="#63b8ff" points="770.6,-445.48 781.18,-445.96 773.21,-438.98 770.6,-445.48"/>
</g>
<!-- Node24 -->
<g id="node24" class="node">
<title>Node24</title>
<g id="a_node24"><a xlink:href="lexer__next__token_8c.html#abcee8a7ba5ea6ca80c0bd7e3dd8d9a32" target="_top" xlink:title=" ">
<polygon fill="white" stroke="#666666" points="884.5,-317 762.5,-317 762.5,-298 884.5,-298 884.5,-317"/>
<text text-anchor="middle" x="823.5" y="-305" font-family="Helvetica,sans-Serif" font-size="10.00">get_redirection_token</text>
</a>
</g>
</g>
<!-- Node18&#45;&gt;Node24 -->
<g id="edge28" class="edge">
<title>Node18&#45;&gt;Node24</title>
<path fill="none" stroke="#63b8ff" d="M688.29,-370.9C704.26,-358.83 733.35,-338.16 761,-325.5 765.09,-323.63 769.43,-321.89 773.83,-320.31"/>
<polygon fill="#63b8ff" stroke="#63b8ff" points="775.13,-323.56 783.49,-317.06 772.9,-316.93 775.13,-323.56"/>
</g>
<!-- Node29 -->
<g id="node29" class="node">
<title>Node29</title>
<g id="a_node29"><a xlink:href="lexer__newline_8c.html#a9f60bf18297b9c705fa6cdff027c79fc" target="_top" xlink:title=" ">
<polygon fill="white" stroke="#666666" points="1026.5,-243 942.5,-243 942.5,-224 1026.5,-224 1026.5,-243"/>
<text text-anchor="middle" x="984.5" y="-231" font-family="Helvetica,sans-Serif" font-size="10.00">lexer_newline</text>
</a>
</g>
</g>
<!-- Node18&#45;&gt;Node29 -->
<g id="edge37" class="edge">
<title>Node18&#45;&gt;Node29</title>
<path fill="none" stroke="#63b8ff" d="M681.96,-370.99C694.28,-352.16 724.49,-310.07 761,-288.5 814.3,-257.01 885,-243.48 932.26,-237.71"/>
<polygon fill="#63b8ff" stroke="#63b8ff" points="932.73,-241.18 942.27,-236.56 931.93,-234.23 932.73,-241.18"/>
</g>
<!-- Node30 -->
<g id="node30" class="node">
<title>Node30</title>
<g id="a_node30"><a xlink:href="lexer__parenthesis_8c.html#a2b13eaa0fee255bea85bd4279f369795" target="_top" xlink:title=" ">
<polygon fill="white" stroke="#666666" points="1036,-206 933,-206 933,-187 1036,-187 1036,-206"/>
<text text-anchor="middle" x="984.5" y="-194" font-family="Helvetica,sans-Serif" font-size="10.00">lexer_parenthesis</text>
</a>
</g>
</g>
<!-- Node18&#45;&gt;Node30 -->
<g id="edge39" class="edge">
<title>Node18&#45;&gt;Node30</title>
<path fill="none" stroke="#63b8ff" d="M683.37,-370.79C693.33,-357.51 711.38,-332.77 725,-310.5 742.84,-281.33 733.65,-263.03 761,-242.5 807.53,-207.57 874.31,-197.62 922.56,-195.46"/>
<polygon fill="#63b8ff" stroke="#63b8ff" points="922.69,-198.96 932.56,-195.11 922.44,-191.96 922.69,-198.96"/>
</g>
<!-- Node31 -->
<g id="node31" class="node">
<title>Node31</title>
<g id="a_node31"><a xlink:href="lexer__semicolon_8c.html#a1612109b245d9780427946e4e33b01b7" target="_top" xlink:title=" ">
<polygon fill="white" stroke="#666666" points="871.5,-578 775.5,-578 775.5,-559 871.5,-559 871.5,-578"/>
<text text-anchor="middle" x="823.5" y="-566" font-family="Helvetica,sans-Serif" font-size="10.00">lexer_semicolon</text>
</a>
</g>
</g>
<!-- Node18&#45;&gt;Node31 -->
<g id="edge41" class="edge">
<title>Node18&#45;&gt;Node31</title>
<path fill="none" stroke="#63b8ff" d="M714.25,-390.15C718.27,-392.38 721.98,-395.12 725,-398.5 769.58,-448.29 716.92,-494.27 761,-544.5 764.28,-548.23 768.21,-551.39 772.47,-554.06"/>
<polygon fill="#63b8ff" stroke="#63b8ff" points="771.13,-557.31 781.61,-558.88 774.4,-551.12 771.13,-557.31"/>
</g>
<!-- Node32 -->
<g id="node32" class="node">
<title>Node32</title>
<g id="a_node32"><a xlink:href="lexer__word_8c.html#ac2600a9ba16009c4d8c114a118c54955" target="_top" xlink:title=" ">
<polygon fill="white" stroke="#666666" points="858.5,-172 788.5,-172 788.5,-153 858.5,-153 858.5,-172"/>
<text text-anchor="middle" x="823.5" y="-160" font-family="Helvetica,sans-Serif" font-size="10.00">lexer_word</text>
</a>
</g>
</g>
<!-- Node18&#45;&gt;Node32 -->
<g id="edge43" class="edge">
<title>Node18&#45;&gt;Node32</title>
<path fill="none" stroke="#63b8ff" d="M684.39,-370.7C695.14,-357.71 713.72,-333.72 725,-310.5 749.15,-260.8 724.9,-233.33 761,-191.5 766.26,-185.4 773.08,-180.5 780.26,-176.58"/>
<polygon fill="#63b8ff" stroke="#63b8ff" points="781.98,-179.64 789.45,-172.13 778.93,-173.34 781.98,-179.64"/>
</g>
<!-- Node133 -->
<g id="node42" class="node">
<title>Node133</title>
<g id="a_node42"><a xlink:href="lexer__next__token_8c.html#acbf7d728a3a47bb6afba90556ceed465" target="_top" xlink:title=" ">
<polygon fill="white" stroke="#666666" points="862.5,-428 784.5,-428 784.5,-409 862.5,-409 862.5,-428"/>
<text text-anchor="middle" x="823.5" y="-416" font-family="Helvetica,sans-Serif" font-size="10.00">return_token</text>
</a>
</g>
</g>
<!-- Node18&#45;&gt;Node133 -->
<g id="edge55" class="edge">
<title>Node18&#45;&gt;Node133</title>
<path fill="none" stroke="#63b8ff" d="M712.97,-390.09C732.13,-395.06 755.71,-401.18 776.09,-406.46"/>
<polygon fill="#63b8ff" stroke="#63b8ff" points="775.24,-409.86 785.8,-408.98 777,-403.08 775.24,-409.86"/>
</g>
<!-- Node134 -->
<g id="node43" class="node">
<title>Node134</title>
<g id="a_node43"><a xlink:href="lexer__next__token_8c.html#a7f0a2dd2373821667a4d5381e7711aa0" target="_top" xlink:title=" ">
<polygon fill="white" stroke="#666666" points="868,-391 779,-391 779,-372 868,-372 868,-391"/>
<text text-anchor="middle" x="823.5" y="-379" font-family="Helvetica,sans-Serif" font-size="10.00">skip_comment</text>
</a>
</g>
</g>
<!-- Node18&#45;&gt;Node134 -->
<g id="edge56" class="edge">
<title>Node18&#45;&gt;Node134</title>
<path fill="none" stroke="#63b8ff" d="M725.19,-380.84C739.1,-380.93 754.32,-381.03 768.5,-381.13"/>
<polygon fill="#63b8ff" stroke="#63b8ff" points="768.58,-384.63 778.61,-381.2 768.63,-377.63 768.58,-384.63"/>
</g>
<!-- Node135 -->
<g id="node44" class="node">
<title>Node135</title>
<g id="a_node44"><a xlink:href="lexer__next__token_8c.html#a5b2052471d98cef2998e1367f9bf8f6d" target="_top" xlink:title=" ">
<polygon fill="white" stroke="#666666" points="886,-354 761,-354 761,-335 886,-335 886,-354"/>
<text text-anchor="middle" x="823.5" y="-342" font-family="Helvetica,sans-Serif" font-size="10.00">skip_spaces_and_tabs</text>
</a>
</g>
</g>
<!-- Node18&#45;&gt;Node135 -->
<g id="edge57" class="edge">
<title>Node18&#45;&gt;Node135</title>
<path fill="none" stroke="#63b8ff" d="M714.87,-370.95C732.99,-366.49 754.74,-361.15 773.93,-356.44"/>
<polygon fill="#63b8ff" stroke="#63b8ff" points="774.82,-359.82 783.7,-354.03 773.15,-353.02 774.82,-359.82"/>
</g>
<!-- Node21 -->
<g id="node21" class="node">
<title>Node21</title>
<g id="a_node21"><a xlink:href="lexer__logical__and_8c.html#a59e5031d54357d65c6873edc67de2a47" target="_top" xlink:title=" ">
<polygon fill="white" stroke="#666666" points="1035,-502 934,-502 934,-483 1035,-483 1035,-502"/>
<text text-anchor="middle" x="984.5" y="-490" font-family="Helvetica,sans-Serif" font-size="10.00">lexer_logical_and</text>
</a>
</g>
</g>
<!-- Node20&#45;&gt;Node21 -->
<g id="edge22" class="edge">
<title>Node20&#45;&gt;Node21</title>
<path fill="none" stroke="#63b8ff" d="M865.45,-465.03C885.86,-469.78 910.75,-475.57 932.4,-480.61"/>
<polygon fill="#63b8ff" stroke="#63b8ff" points="931.88,-484.08 942.42,-482.94 933.47,-477.26 931.88,-484.08"/>
</g>
<!-- Node22 -->
<g id="node22" class="node">
<title>Node22</title>
<g id="a_node22"><a xlink:href="lexer__logical__or_8c.html#ac3851eaea27bd5774b126b888bdddf93" target="_top" xlink:title=" ">
<polygon fill="white" stroke="#666666" points="1031,-465 938,-465 938,-446 1031,-446 1031,-465"/>
<text text-anchor="middle" x="984.5" y="-453" font-family="Helvetica,sans-Serif" font-size="10.00">lexer_logical_or</text>
</a>
</g>
</g>
<!-- Node20&#45;&gt;Node22 -->
<g id="edge24" class="edge">
<title>Node20&#45;&gt;Node22</title>
<path fill="none" stroke="#63b8ff" d="M874.81,-455.5C891.53,-455.5 910.26,-455.5 927.4,-455.5"/>
<polygon fill="#63b8ff" stroke="#63b8ff" points="927.83,-459 937.83,-455.5 927.83,-452 927.83,-459"/>
</g>
<!-- Node23 -->
<g id="node23" class="node">
<title>Node23</title>
<g id="a_node23"><a xlink:href="lexer__pipe_8c.html#a693816e38802a086de64c09cb7cebeb7" target="_top" xlink:title=" ">
<polygon fill="white" stroke="#666666" points="1018,-428 951,-428 951,-409 1018,-409 1018,-428"/>
<text text-anchor="middle" x="984.5" y="-416" font-family="Helvetica,sans-Serif" font-size="10.00">lexer_pipe</text>
</a>
</g>
</g>
<!-- Node20&#45;&gt;Node23 -->
<g id="edge26" class="edge">
<title>Node20&#45;&gt;Node23</title>
<path fill="none" stroke="#63b8ff" d="M865.45,-445.97C888.61,-440.58 917.54,-433.85 940.96,-428.4"/>
<polygon fill="#63b8ff" stroke="#63b8ff" points="942.01,-431.75 950.96,-426.07 940.42,-424.93 942.01,-431.75"/>
</g>
<!-- Node21&#45;&gt;Node19 -->
<g id="edge23" class="edge">
<title>Node21&#45;&gt;Node19</title>
<path fill="none" stroke="#63b8ff" d="M1029.9,-482.93C1035.9,-480.67 1041.78,-477.9 1047,-474.5 1084.64,-449.98 1115.31,-406.01 1130.72,-381.08"/>
<polygon fill="#63b8ff" stroke="#63b8ff" points="1133.88,-382.62 1136.03,-372.25 1127.88,-379.01 1133.88,-382.62"/>
</g>
<!-- Node22&#45;&gt;Node19 -->
<g id="edge25" class="edge">
<title>Node22&#45;&gt;Node19</title>
<path fill="none" stroke="#63b8ff" d="M1024.09,-445.94C1031.89,-443.36 1039.87,-440.23 1047,-436.5 1076.78,-420.92 1106.55,-395.6 1124.5,-378.99"/>
<polygon fill="#63b8ff" stroke="#63b8ff" points="1126.99,-381.45 1131.87,-372.04 1122.19,-376.35 1126.99,-381.45"/>
</g>
<!-- Node23&#45;&gt;Node19 -->
<g id="edge27" class="edge">
<title>Node23&#45;&gt;Node19</title>
<path fill="none" stroke="#63b8ff" d="M1017.88,-408.98C1027.32,-406.08 1037.61,-402.78 1047,-399.5 1067.77,-392.24 1090.76,-383.26 1108.87,-375.96"/>
<polygon fill="#63b8ff" stroke="#63b8ff" points="1110.43,-379.11 1118.38,-372.1 1107.79,-372.62 1110.43,-379.11"/>
</g>
<!-- Node25 -->
<g id="node25" class="node">
<title>Node25</title>
<g id="a_node25"><a xlink:href="lexer__heredoc_8c.html#a9db043b0e8df9ad1155a65a8fcf67c11" target="_top" xlink:title=" ">
<polygon fill="white" stroke="#666666" points="1027,-280 942,-280 942,-261 1027,-261 1027,-280"/>
<text text-anchor="middle" x="984.5" y="-268" font-family="Helvetica,sans-Serif" font-size="10.00">lexer_heredoc</text>
</a>
</g>
</g>
<!-- Node24&#45;&gt;Node25 -->
<g id="edge29" class="edge">
<title>Node24&#45;&gt;Node25</title>
<path fill="none" stroke="#63b8ff" d="M865.45,-297.97C885.86,-293.22 910.75,-287.43 932.4,-282.39"/>
<polygon fill="#63b8ff" stroke="#63b8ff" points="933.47,-285.74 942.42,-280.06 931.88,-278.92 933.47,-285.74"/>
</g>
<!-- Node26 -->
<g id="node26" class="node">
<title>Node26</title>
<g id="a_node26"><a xlink:href="lexer__redirect__append_8c.html#a09beefbfaf132dbe04add1370a6fb2e3" target="_top" xlink:title=" ">
<polygon fill="white" stroke="#666666" points="1047,-391 922,-391 922,-372 1047,-372 1047,-391"/>
<text text-anchor="middle" x="984.5" y="-379" font-family="Helvetica,sans-Serif" font-size="10.00">lexer_redirect_append</text>
</a>
</g>
</g>
<!-- Node24&#45;&gt;Node26 -->
<g id="edge31" class="edge">
<title>Node24&#45;&gt;Node26</title>
<path fill="none" stroke="#63b8ff" d="M867.72,-317.06C874.08,-319.33 880.38,-322.11 886,-325.5 905.66,-337.33 902.43,-350.52 922,-362.5 925.39,-364.57 929.02,-366.44 932.76,-368.11"/>
<polygon fill="#63b8ff" stroke="#63b8ff" points="931.64,-371.43 942.23,-371.89 934.24,-364.93 931.64,-371.43"/>
</g>
<!-- Node27 -->
<g id="node27" class="node">
<title>Node27</title>
<g id="a_node27"><a xlink:href="lexer__redirect__in_8c.html#ac723d9668329d99b35003ed2423889e5" target="_top" xlink:title=" ">
<polygon fill="white" stroke="#666666" points="1033.5,-354 935.5,-354 935.5,-335 1033.5,-335 1033.5,-354"/>
<text text-anchor="middle" x="984.5" y="-342" font-family="Helvetica,sans-Serif" font-size="10.00">lexer_redirect_in</text>
</a>
</g>
</g>
<!-- Node24&#45;&gt;Node27 -->
<g id="edge33" class="edge">
<title>Node24&#45;&gt;Node27</title>
<path fill="none" stroke="#63b8ff" d="M865.45,-317.03C885.86,-321.78 910.75,-327.57 932.4,-332.61"/>
<polygon fill="#63b8ff" stroke="#63b8ff" points="931.88,-336.08 942.42,-334.94 933.47,-329.26 931.88,-336.08"/>
</g>
<!-- Node28 -->
<g id="node28" class="node">
<title>Node28</title>
<g id="a_node28"><a xlink:href="lexer__redirect__out_8c.html#a70e2216639c96030b3861405ae3497c6" target="_top" xlink:title=" ">
<polygon fill="white" stroke="#666666" points="1036.5,-317 932.5,-317 932.5,-298 1036.5,-298 1036.5,-317"/>
<text text-anchor="middle" x="984.5" y="-305" font-family="Helvetica,sans-Serif" font-size="10.00">lexer_redirect_out</text>
</a>
</g>
</g>
<!-- Node24&#45;&gt;Node28 -->
<g id="edge35" class="edge">
<title>Node24&#45;&gt;Node28</title>
<path fill="none" stroke="#63b8ff" d="M884.61,-307.5C896.91,-307.5 909.87,-307.5 922.21,-307.5"/>
<polygon fill="#63b8ff" stroke="#63b8ff" points="922.4,-311 932.4,-307.5 922.4,-304 922.4,-311"/>
</g>
<!-- Node25&#45;&gt;Node19 -->
<g id="edge30" class="edge">
<title>Node25&#45;&gt;Node19</title>
<path fill="none" stroke="#63b8ff" d="M1026.38,-280.09C1033.44,-282.41 1040.57,-285.2 1047,-288.5 1076.9,-303.86 1106.63,-329.24 1124.55,-345.92"/>
<polygon fill="#63b8ff" stroke="#63b8ff" points="1122.24,-348.55 1131.9,-352.9 1127.06,-343.48 1122.24,-348.55"/>
</g>
<!-- Node26&#45;&gt;Node19 -->
<g id="edge32" class="edge">
<title>Node26&#45;&gt;Node19</title>
<path fill="none" stroke="#63b8ff" d="M1047.16,-373.99C1062.1,-372.17 1077.87,-370.25 1092.16,-368.51"/>
<polygon fill="#63b8ff" stroke="#63b8ff" points="1092.76,-371.96 1102.27,-367.28 1091.92,-365.01 1092.76,-371.96"/>
</g>
<!-- Node27&#45;&gt;Node19 -->
<g id="edge34" class="edge">
<title>Node27&#45;&gt;Node19</title>
<path fill="none" stroke="#63b8ff" d="M1033.58,-350.05C1052.24,-352.2 1073.59,-354.66 1092.34,-356.83"/>
<polygon fill="#63b8ff" stroke="#63b8ff" points="1092.13,-360.33 1102.47,-358 1092.93,-353.37 1092.13,-360.33"/>
</g>
<!-- Node28&#45;&gt;Node19 -->
<g id="edge36" class="edge">
<title>Node28&#45;&gt;Node19</title>
<path fill="none" stroke="#63b8ff" d="M1020.15,-317.06C1028.95,-319.65 1038.37,-322.55 1047,-325.5 1068.06,-332.69 1091.34,-341.79 1109.53,-349.17"/>
<polygon fill="#63b8ff" stroke="#63b8ff" points="1108.21,-352.41 1118.79,-352.96 1110.86,-345.93 1108.21,-352.41"/>
</g>
<!-- Node29&#45;&gt;Node19 -->
<g id="edge38" class="edge">
<title>Node29&#45;&gt;Node19</title>
<path fill="none" stroke="#63b8ff" d="M1026.66,-241.93C1033.77,-244.38 1040.84,-247.51 1047,-251.5 1084.5,-275.81 1115.22,-319.39 1130.68,-344.09"/>
<polygon fill="#63b8ff" stroke="#63b8ff" points="1127.82,-346.12 1136.01,-352.84 1133.8,-342.48 1127.82,-346.12"/>
</g>
<!-- Node30&#45;&gt;Node19 -->
<g id="edge40" class="edge">
<title>Node30&#45;&gt;Node19</title>
<path fill="none" stroke="#63b8ff" d="M1031.92,-206.09C1037.29,-208.33 1042.46,-211.1 1047,-214.5 1092.57,-248.69 1121.97,-311.83 1134.52,-343.43"/>
<polygon fill="#63b8ff" stroke="#63b8ff" points="1131.28,-344.77 1138.13,-352.86 1137.82,-342.26 1131.28,-344.77"/>
</g>
<!-- Node31&#45;&gt;Node19 -->
<g id="edge42" class="edge">
<title>Node31&#45;&gt;Node19</title>
<path fill="none" stroke="#63b8ff" d="M871.9,-575.58C920.21,-580.2 995.2,-579.91 1047,-544.5 1104.25,-505.36 1129.09,-420.43 1137.69,-382.04"/>
<polygon fill="#63b8ff" stroke="#63b8ff" points="1141.15,-382.62 1139.78,-372.12 1134.3,-381.18 1141.15,-382.62"/>
</g>
<!-- Node32&#45;&gt;Node19 -->
<g id="edge44" class="edge">
<title>Node32&#45;&gt;Node19</title>
<path fill="none" stroke="#63b8ff" d="M858.64,-155.13C905.33,-147.05 989.79,-139.78 1047,-177.5 1105.77,-216.25 1129.86,-303.46 1137.99,-342.7"/>
<polygon fill="#63b8ff" stroke="#63b8ff" points="1134.57,-343.47 1139.91,-352.63 1141.44,-342.14 1134.57,-343.47"/>
</g>
<!-- Node33 -->
<g id="node33" class="node">
<title>Node33</title>
<g id="a_node33"><a xlink:href="lexer__expand__alias_8c.html#a782a761cdb9088ea2b14b7a97eb85377" target="_top" xlink:title=" ">
<polygon fill="white" stroke="#666666" points="1039.5,-92 929.5,-92 929.5,-73 1039.5,-73 1039.5,-92"/>
<text text-anchor="middle" x="984.5" y="-80" font-family="Helvetica,sans-Serif" font-size="10.00">lexer_expand_alias</text>
</a>
</g>
</g>
<!-- Node32&#45;&gt;Node33 -->
<g id="edge45" class="edge">
<title>Node32&#45;&gt;Node33</title>
<path fill="none" stroke="#63b8ff" d="M858.68,-155.23C867.95,-152.4 877.71,-148.58 886,-143.5 905.57,-131.52 902.88,-119.18 922,-106.5 928.17,-102.41 935.15,-98.85 942.13,-95.82"/>
<polygon fill="#63b8ff" stroke="#63b8ff" points="943.61,-99 951.57,-92.02 940.99,-92.51 943.61,-99"/>
</g>
<!-- Node35 -->
<g id="node35" class="node">
<title>Node35</title>
<g id="a_node35"><a xlink:href="lexer__word_8c.html#a17ec284a75275629329e3d5699a635d7" target="_top" xlink:title=" ">
<polygon fill="white" stroke="#666666" points="1191,-130 1094,-130 1094,-111 1191,-111 1191,-130"/>
<text text-anchor="middle" x="1142.5" y="-118" font-family="Helvetica,sans-Serif" font-size="10.00">lexer_read_word</text>
</a>
</g>
</g>
<!-- Node32&#45;&gt;Node35 -->
<g id="edge54" class="edge">
<title>Node32&#45;&gt;Node35</title>
<path fill="none" stroke="#63b8ff" d="M858.69,-155.55C877.35,-151.92 900.88,-147.6 922,-144.5 976.72,-136.47 1039.47,-129.87 1083.83,-125.64"/>
<polygon fill="#63b8ff" stroke="#63b8ff" points="1084.22,-129.11 1093.84,-124.69 1083.56,-122.15 1084.22,-129.11"/>
</g>
<!-- Node34 -->
<g id="node34" class="node">
<title>Node34</title>
<g id="a_node34"><a xlink:href="get__variable_8c.html#a569170390f0edf013bf89c26ef55ea8c" target="_top" xlink:title=" ">
<polygon fill="white" stroke="#666666" points="1181,-19 1104,-19 1104,0 1181,0 1181,-19"/>
<text text-anchor="middle" x="1142.5" y="-7" font-family="Helvetica,sans-Serif" font-size="10.00">get_variable</text>
</a>
</g>
</g>
<!-- Node33&#45;&gt;Node34 -->
<g id="edge46" class="edge">
<title>Node33&#45;&gt;Node34</title>
<path fill="none" stroke="#63b8ff" d="M1000.18,-72.89C1018.83,-60.99 1052.29,-40.7 1083,-27.5 1087.35,-25.63 1091.95,-23.87 1096.59,-22.23"/>
<polygon fill="#63b8ff" stroke="#63b8ff" points="1097.73,-25.54 1106.1,-19.05 1095.51,-18.9 1097.73,-25.54"/>
</g>
<!-- Node33&#45;&gt;Node35 -->
<g id="edge47" class="edge">
<title>Node33&#45;&gt;Node35</title>
<path fill="none" stroke="#63b8ff" d="M1024.87,-92.09C1045.45,-97.1 1070.84,-103.29 1092.67,-108.61"/>
<polygon fill="#63b8ff" stroke="#63b8ff" points="1091.87,-112.01 1102.42,-110.98 1093.53,-105.21 1091.87,-112.01"/>
</g>
<!-- Node131 -->
<g id="node39" class="node">
<title>Node131</title>
<g id="a_node39"><a xlink:href="lexer__expand__alias_8c.html#a98f32d0d302fe57a01c46b72c25132a1" target="_top" xlink:title=" ">
<polygon fill="white" stroke="#666666" points="1183.5,-93 1101.5,-93 1101.5,-74 1183.5,-74 1183.5,-93"/>
<text text-anchor="middle" x="1142.5" y="-81" font-family="Helvetica,sans-Serif" font-size="10.00">replace_word</text>
</a>
</g>
</g>
<!-- Node33&#45;&gt;Node131 -->
<g id="edge51" class="edge">
<title>Node33&#45;&gt;Node131</title>
<path fill="none" stroke="#63b8ff" d="M1039.62,-82.85C1056.23,-82.95 1074.43,-83.07 1090.79,-83.17"/>
<polygon fill="#63b8ff" stroke="#63b8ff" points="1091.23,-86.68 1101.25,-83.24 1091.27,-79.68 1091.23,-86.68"/>
</g>
<!-- Node132 -->
<g id="node41" class="node">
<title>Node132</title>
<g id="a_node41"><a xlink:href="lexer__expand__alias_8c.html#ae7957e63e1f19d95a69563aaab318ad4" target="_top" xlink:title=" ">
<polygon fill="white" stroke="#666666" points="1202,-56 1083,-56 1083,-37 1202,-37 1202,-56"/>
<text text-anchor="middle" x="1142.5" y="-44" font-family="Helvetica,sans-Serif" font-size="10.00">should_expand_alias</text>
</a>
</g>
</g>
<!-- Node33&#45;&gt;Node132 -->
<g id="edge53" class="edge">
<title>Node33&#45;&gt;Node132</title>
<path fill="none" stroke="#63b8ff" d="M1026.9,-72.95C1046.37,-68.45 1069.77,-63.05 1090.34,-58.31"/>
<polygon fill="#63b8ff" stroke="#63b8ff" points="1091.23,-61.69 1100.18,-56.03 1089.65,-54.87 1091.23,-61.69"/>
</g>
<!-- Node36 -->
<g id="node36" class="node">
<title>Node36</title>
<g id="a_node36"><a xlink:href="lexer__word_8c.html#a730574257743b09386cadd2ccbfe4d13" target="_top" xlink:title=" ">
<polygon fill="#fff0f0" stroke="red" points="1366.5,-130 1244.5,-130 1244.5,-111 1366.5,-111 1366.5,-130"/>
<text text-anchor="middle" x="1305.5" y="-118" font-family="Helvetica,sans-Serif" font-size="10.00">handle_current_token</text>
</a>
</g>
</g>
<!-- Node35&#45;&gt;Node36 -->
<g id="edge48" class="edge">
<title>Node35&#45;&gt;Node36</title>
<path fill="none" stroke="#63b8ff" d="M1191.37,-120.5C1204.72,-120.5 1219.51,-120.5 1233.88,-120.5"/>
<polygon fill="#63b8ff" stroke="#63b8ff" points="1234.24,-124 1244.24,-120.5 1234.24,-117 1234.24,-124"/>
</g>
<!-- Node121 -->
<g id="node38" class="node">
<title>Node121</title>
<g id="a_node38"><a xlink:href="lexer__is__word__separator_8c.html#abccfc6fc0cdbd040fc9a7dcbfd207090" target="_top" xlink:title=" ">
<polygon fill="white" stroke="#666666" points="1373,-167 1238,-167 1238,-148 1373,-148 1373,-167"/>
<text text-anchor="middle" x="1305.5" y="-155" font-family="Helvetica,sans-Serif" font-size="10.00">lexer_is_word_separator</text>
</a>
</g>
</g>
<!-- Node35&#45;&gt;Node121 -->
<g id="edge50" class="edge">
<title>Node35&#45;&gt;Node121</title>
<path fill="none" stroke="#63b8ff" d="M1184.96,-130.03C1205.73,-134.8 1231.06,-140.62 1253.06,-145.68"/>
<polygon fill="#63b8ff" stroke="#63b8ff" points="1252.37,-149.11 1262.9,-147.94 1253.94,-142.29 1252.37,-149.11"/>
</g>
<!-- Node37 -->
<g id="node37" class="node">
<title>Node37</title>
<g id="a_node37"><a xlink:href="lexer__word_8c.html#acd8f2a3c47fa56f87c2792ccefd2ee3e" target="_top" xlink:title=" ">
<polygon fill="white" stroke="#666666" points="1530,-130 1409,-130 1409,-111 1530,-111 1530,-130"/>
<text text-anchor="middle" x="1469.5" y="-118" font-family="Helvetica,sans-Serif" font-size="10.00">handle_double_quote</text>
</a>
</g>
</g>
<!-- Node36&#45;&gt;Node37 -->
<g id="edge49" class="edge">
<title>Node36&#45;&gt;Node37</title>
<path fill="none" stroke="#63b8ff" d="M1366.82,-120.5C1377.25,-120.5 1388.17,-120.5 1398.83,-120.5"/>
<polygon fill="#63b8ff" stroke="#63b8ff" points="1398.94,-124 1408.94,-120.5 1398.94,-117 1398.94,-124"/>
</g>
<!-- Node41 -->
<g id="node40" class="node">
<title>Node41</title>
<g id="a_node40"><a xlink:href="lexer__utils_8c.html#a84e8d5514cfe03a20152ad26f170211f" target="_top" xlink:title=" ">
<polygon fill="white" stroke="#666666" points="1364.5,-93 1246.5,-93 1246.5,-74 1364.5,-74 1364.5,-93"/>
<text text-anchor="middle" x="1305.5" y="-81" font-family="Helvetica,sans-Serif" font-size="10.00">lexer_set_alloc_error</text>
</a>
</g>
</g>
<!-- Node131&#45;&gt;Node41 -->
<g id="edge52" class="edge">
<title>Node131&#45;&gt;Node41</title>
<path fill="none" stroke="#63b8ff" d="M1183.71,-83.5C1199.52,-83.5 1218.11,-83.5 1235.92,-83.5"/>
<polygon fill="#63b8ff" stroke="#63b8ff" points="1236.28,-87 1246.28,-83.5 1236.28,-80 1236.28,-87"/>
</g>
<!-- Node136&#45;&gt;Node17 -->
<g id="edge67" class="edge">
<title>Node136&#45;&gt;Node17</title>
<path fill="none" stroke="#63b8ff" d="M424.74,-454.5C444.02,-454.5 465.78,-454.5 484.56,-454.5"/>
<polygon fill="#63b8ff" stroke="#63b8ff" points="484.66,-458 494.66,-454.5 484.66,-451 484.66,-458"/>
</g>
<!-- Node137 -->
<g id="node47" class="node">
<title>Node137</title>
<g id="a_node47"><a xlink:href="parser__globbing_8c.html#a89bf1b81ac8c9637cbe152bab8467dd7" target="_top" xlink:title=" ">
<polygon fill="white" stroke="#666666" points="569,-367 495,-367 495,-348 569,-348 569,-367"/>
<text text-anchor="middle" x="532" y="-355" font-family="Helvetica,sans-Serif" font-size="10.00">parser_glob</text>
</a>
</g>
</g>
<!-- Node136&#45;&gt;Node137 -->
<g id="edge61" class="edge">
<title>Node136&#45;&gt;Node137</title>
<path fill="none" stroke="#63b8ff" d="M416.29,-444.89C424.08,-442.37 431.96,-439.27 439,-435.5 469.09,-419.38 498.17,-392.16 515.32,-374.51"/>
<polygon fill="#63b8ff" stroke="#63b8ff" points="517.96,-376.81 522.32,-367.15 512.89,-371.98 517.96,-376.81"/>
</g>
<!-- Node138 -->
<g id="node48" class="node">
<title>Node138</title>
<g id="a_node48"><a xlink:href="parser__globbing_8c.html#a0c56750379c92ca65af3924a1358871d" target="_top" xlink:title=" ">
<polygon fill="white" stroke="#666666" points="721.5,-177 628.5,-177 628.5,-158 721.5,-158 721.5,-177"/>
<text text-anchor="middle" x="675" y="-165" font-family="Helvetica,sans-Serif" font-size="10.00">add_glob_paths</text>
</a>
</g>
</g>
<!-- Node137&#45;&gt;Node138 -->
<g id="edge62" class="edge">
<title>Node137&#45;&gt;Node138</title>
<path fill="none" stroke="#63b8ff" d="M540.19,-347.82C562.53,-317.71 631.02,-225.42 660.39,-185.84"/>
<polygon fill="#63b8ff" stroke="#63b8ff" points="663.51,-187.51 666.66,-177.39 657.89,-183.34 663.51,-187.51"/>
</g>
<!-- Node139 -->
<g id="node49" class="node">
<title>Node139</title>
<g id="a_node49"><a xlink:href="parser__globbing_8c.html#a0fc94c1eba37fdbe32c9843dba97659b" target="_top" xlink:title=" ">
<polygon fill="white" stroke="#666666" points="873.5,-135 773.5,-135 773.5,-116 873.5,-116 873.5,-135"/>
<text text-anchor="middle" x="823.5" y="-123" font-family="Helvetica,sans-Serif" font-size="10.00">append_cmd_arg</text>
</a>
</g>
</g>
<!-- Node137&#45;&gt;Node139 -->
<g id="edge64" class="edge">
<title>Node137&#45;&gt;Node139</title>
<path fill="none" stroke="#63b8ff" d="M544.73,-347.92C575.49,-322.62 660.53,-251.4 725,-185.5 742.19,-167.93 740.35,-156.84 761,-143.5 763.45,-141.92 766.05,-140.47 768.73,-139.14"/>
<polygon fill="#63b8ff" stroke="#63b8ff" points="770.32,-142.27 778.12,-135.1 767.55,-135.84 770.32,-142.27"/>
</g>
<!-- Node140 -->
<g id="node50" class="node">
<title>Node140</title>
<g id="a_node50"><a xlink:href="parser__globbing_8c.html#af186620151b6b4726e68024a21185ba7" target="_top" xlink:title=" ">
<polygon fill="white" stroke="#666666" points="720.5,-427 629.5,-427 629.5,-408 720.5,-408 720.5,-427"/>
<text text-anchor="middle" x="675" y="-415" font-family="Helvetica,sans-Serif" font-size="10.00">get_glob_paths</text>
</a>
</g>
</g>
<!-- Node137&#45;&gt;Node140 -->
<g id="edge65" class="edge">
<title>Node137&#45;&gt;Node140</title>
<path fill="none" stroke="#63b8ff" d="M553.7,-367.08C572.26,-375.58 600.3,-388.22 625,-398.5 629.55,-400.4 634.36,-402.34 639.13,-404.22"/>
<polygon fill="#63b8ff" stroke="#63b8ff" points="638.14,-407.59 648.73,-407.97 640.69,-401.07 638.14,-407.59"/>
</g>
<!-- Node138&#45;&gt;Node139 -->
<g id="edge63" class="edge">
<title>Node138&#45;&gt;Node139</title>
<path fill="none" stroke="#63b8ff" d="M709.24,-157.97C730.05,-152 757.08,-144.25 779.51,-137.82"/>
<polygon fill="#63b8ff" stroke="#63b8ff" points="780.49,-141.19 789.14,-135.07 778.56,-134.46 780.49,-141.19"/>
</g>
<!-- Node140&#45;&gt;Node9 -->
<g id="edge66" class="edge">
<title>Node140&#45;&gt;Node9</title>
<path fill="none" stroke="#63b8ff" d="M714.28,-427.12C718.29,-429.36 721.99,-432.11 725,-435.5 771.07,-487.43 713.21,-537.15 761,-587.5 762.65,-589.24 764.46,-590.81 766.38,-592.23"/>
<polygon fill="#63b8ff" stroke="#63b8ff" points="765.08,-595.52 775.47,-597.56 768.62,-589.49 765.08,-595.52"/>
</g>
</g>
</svg>
        <g id="navigator" transform="translate(0 0)" fill="#404254">
                <rect fill="#f2f5e9" fill-opacity="0.5" stroke="#606060" stroke-width=".5" x="0" y="0" width="60" height="60"/>
                <use id="zoomplus" xlink:href="#zoomPlus" x="17" y="9" onmousedown="handleZoom(evt,'in')"/>
                <use id="zoomminus" xlink:href="#zoomMin" x="42" y="9" onmousedown="handleZoom(evt,'out')"/>
                <use id="reset" xlink:href="#resetDef" x="30" y="36" onmousedown="handleReset()"/>
                <g id="arrowUp" xlink:href="#dirArrow" transform="translate(30 24)" onmousedown="handlePan(0,-1)">
                  <use xlink:href="#rim" fill="#404040">
                        <set attributeName="fill" to="#808080" begin="arrowUp.mouseover" end="arrowUp.mouseout"/>
                  </use>
                  <path fill="none" stroke="white" stroke-width="1.5" d="M0,-3.0v7 M-2.5,-0.5L0,-3.0L2.5,-0.5"/>
                </g>
                <g id="arrowRight" xlink:href="#dirArrow" transform="rotate(90) translate(36 -43)" onmousedown="handlePan(1,0)">
                  <use xlink:href="#rim" fill="#404040">
                        <set attributeName="fill" to="#808080" begin="arrowRight.mouseover" end="arrowRight.mouseout"/>
                  </use>
                  <path fill="none" stroke="white" stroke-width="1.5" d="M0,-3.0v7 M-2.5,-0.5L0,-3.0L2.5,-0.5"/>
                </g>
                <g id="arrowDown" xlink:href="#dirArrow" transform="rotate(180) translate(-30 -48)" onmousedown="handlePan(0,1)">
                  <use xlink:href="#rim" fill="#404040">
                        <set attributeName="fill" to="#808080" begin="arrowDown.mouseover" end="arrowDown.mouseout"/>
                  </use>
                  <path fill="none" stroke="white" stroke-width="1.5" d="M0,-3.0v7 M-2.5,-0.5L0,-3.0L2.5,-0.5"/>
                </g>
                <g id="arrowLeft" xlink:href="#dirArrow" transform="rotate(270) translate(-36 17)" onmousedown="handlePan(-1,0)">
                  <use xlink:href="#rim" fill="#404040">
                        <set attributeName="fill" to="#808080" begin="arrowLeft.mouseover" end="arrowLeft.mouseout"/>
                  </use>
                  <path fill="none" stroke="white" stroke-width="1.5" d="M0,-3.0v7 M-2.5,-0.5L0,-3.0L2.5,-0.5"/>
                </g>
        </g>
        <svg viewBox="0 0 15 15" width="100%" height="30px" preserveAspectRatio="xMaxYMin meet">
         <g id="arrow_out" transform="scale(0.3 0.3)">
          <a xlink:href="parser_8h_a44257532dfa27a6e1f69b911a8d06b8c_cgraph_org.svg" target="_base">
           <rect id="button" ry="5" rx="5" y="6" x="6" height="38" width="38"
                fill="#f2f5e9" fill-opacity="0.5" stroke="#606060" stroke-width="1.0"/>
           <path id="arrow"
             d="M 11.500037,31.436501 C 11.940474,20.09759 22.043105,11.32322 32.158766,21.979434 L 37.068811,17.246167 C 37.068811,17.246167 37.088388,32 37.088388,32 L 22.160133,31.978069 C 22.160133,31.978069 26.997745,27.140456 26.997745,27.140456 C 18.528582,18.264221 13.291696,25.230495 11.500037,31.436501 z"
             style="fill:#404040;"/>
          </a>
         </g>
        </svg>
</svg>
