<?xml version="1.0" encoding="UTF-8" standalone="no"?>
<!DOCTYPE svg PUBLIC "-//W3C//DTD SVG 1.1//EN"
 "http://www.w3.org/Graphics/SVG/1.1/DTD/svg11.dtd">
<!-- Generated by graphviz version 2.43.0 (0)
 -->
<!-- Title: src/parser/tokens/parse_command.c Pages: 1 -->
<svg width="574pt" height="313pt"
 viewBox="0.00 0.00 573.50 313.00" xmlns="http://www.w3.org/2000/svg" xmlns:xlink="http://www.w3.org/1999/xlink">
<g id="graph0" class="graph" transform="scale(1 1) rotate(0) translate(4 309)">
<title>src/parser/tokens/parse_command.c</title>
<!-- Node1 -->
<g id="node1" class="node">
<title>Node1</title>
<g id="a_node1"><a xlink:title=" ">
<polygon fill="#999999" stroke="#666666" points="331.5,-305 201.5,-305 201.5,-275 331.5,-275 331.5,-305"/>
<text text-anchor="start" x="209.5" y="-293" font-family="Helvetica,sans-Serif" font-size="10.00">src/parser/tokens/parse</text>
<text text-anchor="middle" x="266.5" y="-282" font-family="Helvetica,sans-Serif" font-size="10.00">_command.c</text>
</a>
</g>
</g>
<!-- Node2 -->
<g id="node2" class="node">
<title>Node2</title>
<g id="a_node2"><a xlink:title=" ">
<polygon fill="#e0e0e0" stroke="#999999" points="53,-239 0,-239 0,-220 53,-220 53,-239"/>
<text text-anchor="middle" x="26.5" y="-227" font-family="Helvetica,sans-Serif" font-size="10.00">stdlib.h</text>
</a>
</g>
</g>
<!-- Node1&#45;&gt;Node2 -->
<g id="edge1" class="edge">
<title>Node1&#45;&gt;Node2</title>
<path fill="none" stroke="#63b8ff" d="M209.01,-274.99C163.7,-263.94 101.87,-248.87 63.08,-239.42"/>
<polygon fill="#63b8ff" stroke="#63b8ff" points="63.8,-235.99 53.26,-237.02 62.14,-242.79 63.8,-235.99"/>
</g>
<!-- Node3 -->
<g id="node3" class="node">
<title>Node3</title>
<g id="a_node3"><a xlink:title=" ">
<polygon fill="#e0e0e0" stroke="#999999" points="124,-239 71,-239 71,-220 124,-220 124,-239"/>
<text text-anchor="middle" x="97.5" y="-227" font-family="Helvetica,sans-Serif" font-size="10.00">string.h</text>
</a>
</g>
</g>
<!-- Node1&#45;&gt;Node3 -->
<g id="edge2" class="edge">
<title>Node1&#45;&gt;Node3</title>
<path fill="none" stroke="#63b8ff" d="M226.02,-274.99C197.32,-265.05 159.22,-251.86 131.97,-242.43"/>
<polygon fill="#63b8ff" stroke="#63b8ff" points="133.05,-239.1 122.46,-239.14 130.76,-245.72 133.05,-239.1"/>
</g>
<!-- Node4 -->
<g id="node4" class="node">
<title>Node4</title>
<g id="a_node4"><a xlink:title=" ">
<polygon fill="#e0e0e0" stroke="#999999" points="198.5,-239 142.5,-239 142.5,-220 198.5,-220 198.5,-239"/>
<text text-anchor="middle" x="170.5" y="-227" font-family="Helvetica,sans-Serif" font-size="10.00">unistd.h</text>
</a>
</g>
</g>
<!-- Node1&#45;&gt;Node4 -->
<g id="edge3" class="edge">
<title>Node1&#45;&gt;Node4</title>
<path fill="none" stroke="#63b8ff" d="M243.26,-274.84C228.1,-265.6 208.39,-253.59 193.31,-244.4"/>
<polygon fill="#63b8ff" stroke="#63b8ff" points="194.96,-241.31 184.6,-239.09 191.32,-247.29 194.96,-241.31"/>
</g>
<!-- Node5 -->
<g id="node5" class="node">
<title>Node5</title>
<g id="a_node5"><a xlink:href="list_8h.html" target="_top" xlink:title=" ">
<polygon fill="white" stroke="#666666" points="295,-74 236,-74 236,-55 295,-55 295,-74"/>
<text text-anchor="middle" x="265.5" y="-62" font-family="Helvetica,sans-Serif" font-size="10.00">my/list.h</text>
</a>
</g>
</g>
<!-- Node1&#45;&gt;Node5 -->
<g id="edge4" class="edge">
<title>Node1&#45;&gt;Node5</title>
<path fill="none" stroke="#63b8ff" d="M259.84,-274.81C246.4,-244.18 218.73,-169.81 236.5,-110 239.48,-99.98 245.5,-90.11 251.29,-82.22"/>
<polygon fill="#63b8ff" stroke="#63b8ff" points="254.13,-84.28 257.56,-74.25 248.63,-79.95 254.13,-84.28"/>
</g>
<!-- Node7 -->
<g id="node7" class="node">
<title>Node7</title>
<g id="a_node7"><a xlink:href="misc_8h.html" target="_top" xlink:title=" ">
<polygon fill="white" stroke="#666666" points="565.5,-239 497.5,-239 497.5,-220 565.5,-220 565.5,-239"/>
<text text-anchor="middle" x="531.5" y="-227" font-family="Helvetica,sans-Serif" font-size="10.00">my/misc.h</text>
</a>
</g>
</g>
<!-- Node1&#45;&gt;Node7 -->
<g id="edge6" class="edge">
<title>Node1&#45;&gt;Node7</title>
<path fill="none" stroke="#63b8ff" d="M329.97,-274.99C378.6,-264.25 444.42,-249.72 487.41,-240.23"/>
<polygon fill="#63b8ff" stroke="#63b8ff" points="488.28,-243.63 497.29,-238.05 486.77,-236.79 488.28,-243.63"/>
</g>
<!-- Node8 -->
<g id="node8" class="node">
<title>Node8</title>
<g id="a_node8"><a xlink:href="ast_8h.html" target="_top" xlink:title=" ">
<polygon fill="white" stroke="#666666" points="336,-184 295,-184 295,-165 336,-165 336,-184"/>
<text text-anchor="middle" x="315.5" y="-172" font-family="Helvetica,sans-Serif" font-size="10.00">ast.h</text>
</a>
</g>
</g>
<!-- Node1&#45;&gt;Node8 -->
<g id="edge7" class="edge">
<title>Node1&#45;&gt;Node8</title>
<path fill="none" stroke="#63b8ff" d="M272.71,-274.63C281.6,-254.03 297.96,-216.12 307.67,-193.63"/>
<polygon fill="#63b8ff" stroke="#63b8ff" points="310.98,-194.8 311.73,-184.23 304.55,-192.02 310.98,-194.8"/>
</g>
<!-- Node9 -->
<g id="node9" class="node">
<title>Node9</title>
<g id="a_node9"><a xlink:href="parser_8h.html" target="_top" xlink:title=" ">
<polygon fill="white" stroke="#666666" points="400.5,-239 344.5,-239 344.5,-220 400.5,-220 400.5,-239"/>
<text text-anchor="middle" x="372.5" y="-227" font-family="Helvetica,sans-Serif" font-size="10.00">parser.h</text>
</a>
</g>
</g>
<!-- Node1&#45;&gt;Node9 -->
<g id="edge9" class="edge">
<title>Node1&#45;&gt;Node9</title>
<path fill="none" stroke="#63b8ff" d="M291.89,-274.99C308.79,-265.66 330.88,-253.47 347.66,-244.21"/>
<polygon fill="#63b8ff" stroke="#63b8ff" points="349.78,-247.04 356.85,-239.14 346.4,-240.91 349.78,-247.04"/>
</g>
<!-- Node12 -->
<g id="node12" class="node">
<title>Node12</title>
<g id="a_node12"><a xlink:href="shell_8h.html" target="_top" xlink:title=" ">
<polygon fill="white" stroke="#666666" points="295,-129 246,-129 246,-110 295,-110 295,-129"/>
<text text-anchor="middle" x="270.5" y="-117" font-family="Helvetica,sans-Serif" font-size="10.00">shell.h</text>
</a>
</g>
</g>
<!-- Node1&#45;&gt;Node12 -->
<g id="edge18" class="edge">
<title>Node1&#45;&gt;Node12</title>
<path fill="none" stroke="#63b8ff" d="M266.83,-274.92C267.55,-244.65 269.25,-173.35 270.05,-139.27"/>
<polygon fill="#63b8ff" stroke="#63b8ff" points="273.55,-139.34 270.29,-129.25 266.56,-139.17 273.55,-139.34"/>
</g>
<!-- Node13 -->
<g id="node13" class="node">
<title>Node13</title>
<g id="a_node13"><a xlink:href="token_8h.html" target="_top" xlink:title=" ">
<polygon fill="white" stroke="#666666" points="533,-129 480,-129 480,-110 533,-110 533,-129"/>
<text text-anchor="middle" x="506.5" y="-117" font-family="Helvetica,sans-Serif" font-size="10.00">token.h</text>
</a>
</g>
</g>
<!-- Node1&#45;&gt;Node13 -->
<g id="edge19" class="edge">
<title>Node1&#45;&gt;Node13</title>
<path fill="none" stroke="#63b8ff" d="M329.85,-274.95C356.06,-267.15 385.8,-255.59 409.5,-239 448.92,-211.41 481.08,-163.61 496.55,-137.96"/>
<polygon fill="#63b8ff" stroke="#63b8ff" points="499.75,-139.41 501.8,-129.01 493.72,-135.86 499.75,-139.41"/>
</g>
<!-- Node6 -->
<g id="node6" class="node">
<title>Node6</title>
<g id="a_node6"><a xlink:title=" ">
<polygon fill="#e0e0e0" stroke="#999999" points="351.5,-19 295.5,-19 295.5,0 351.5,0 351.5,-19"/>
<text text-anchor="middle" x="323.5" y="-7" font-family="Helvetica,sans-Serif" font-size="10.00">stddef.h</text>
</a>
</g>
</g>
<!-- Node5&#45;&gt;Node6 -->
<g id="edge5" class="edge">
<title>Node5&#45;&gt;Node6</title>
<path fill="none" stroke="#63b8ff" d="M274.82,-54.98C283.31,-47.23 296.06,-35.58 306.38,-26.14"/>
<polygon fill="#63b8ff" stroke="#63b8ff" points="308.99,-28.5 314.01,-19.17 304.27,-23.33 308.99,-28.5"/>
</g>
<!-- Node8&#45;&gt;Node6 -->
<g id="edge8" class="edge">
<title>Node8&#45;&gt;Node6</title>
<path fill="none" stroke="#63b8ff" d="M315.93,-164.74C317.18,-139.31 320.82,-65.08 322.56,-29.69"/>
<polygon fill="#63b8ff" stroke="#63b8ff" points="326.07,-29.47 323.07,-19.31 319.08,-29.12 326.07,-29.47"/>
</g>
<!-- Node9&#45;&gt;Node8 -->
<g id="edge10" class="edge">
<title>Node9&#45;&gt;Node8</title>
<path fill="none" stroke="#63b8ff" d="M363.34,-219.98C355,-212.23 342.47,-200.58 332.32,-191.14"/>
<polygon fill="#63b8ff" stroke="#63b8ff" points="334.53,-188.42 324.82,-184.17 329.76,-193.54 334.53,-188.42"/>
</g>
<!-- Node10 -->
<g id="node10" class="node">
<title>Node10</title>
<g id="a_node10"><a xlink:href="lexer_8h.html" target="_top" xlink:title=" ">
<polygon fill="white" stroke="#666666" points="403,-184 354,-184 354,-165 403,-165 403,-184"/>
<text text-anchor="middle" x="378.5" y="-172" font-family="Helvetica,sans-Serif" font-size="10.00">lexer.h</text>
</a>
</g>
</g>
<!-- Node9&#45;&gt;Node10 -->
<g id="edge11" class="edge">
<title>Node9&#45;&gt;Node10</title>
<path fill="none" stroke="#63b8ff" d="M373.49,-219.75C374.28,-212.8 375.4,-202.85 376.39,-194.13"/>
<polygon fill="#63b8ff" stroke="#63b8ff" points="379.88,-194.42 377.53,-184.09 372.92,-193.63 379.88,-194.42"/>
</g>
<!-- Node9&#45;&gt;Node13 -->
<g id="edge17" class="edge">
<title>Node9&#45;&gt;Node13</title>
<path fill="none" stroke="#63b8ff" d="M383.47,-219.66C406.35,-201.22 459.42,-158.45 487.8,-135.57"/>
<polygon fill="#63b8ff" stroke="#63b8ff" points="490.17,-138.16 495.76,-129.16 485.77,-132.71 490.17,-138.16"/>
</g>
<!-- Node10&#45;&gt;Node6 -->
<g id="edge12" class="edge">
<title>Node10&#45;&gt;Node6</title>
<path fill="none" stroke="#63b8ff" d="M375.54,-164.74C366.93,-139.2 341.7,-64.43 329.82,-29.23"/>
<polygon fill="#63b8ff" stroke="#63b8ff" points="332.99,-27.66 326.47,-19.31 326.35,-29.9 332.99,-27.66"/>
</g>
<!-- Node11 -->
<g id="node11" class="node">
<title>Node11</title>
<g id="a_node11"><a xlink:title=" ">
<polygon fill="#e0e0e0" stroke="#999999" points="461.5,-129 389.5,-129 389.5,-110 461.5,-110 461.5,-129"/>
<text text-anchor="middle" x="425.5" y="-117" font-family="Helvetica,sans-Serif" font-size="10.00">sys/types.h</text>
</a>
</g>
</g>
<!-- Node10&#45;&gt;Node11 -->
<g id="edge13" class="edge">
<title>Node10&#45;&gt;Node11</title>
<path fill="none" stroke="#63b8ff" d="M386.26,-164.75C392.97,-157.18 402.84,-146.05 411.01,-136.84"/>
<polygon fill="#63b8ff" stroke="#63b8ff" points="413.87,-138.89 417.88,-129.09 408.63,-134.25 413.87,-138.89"/>
</g>
<!-- Node10&#45;&gt;Node12 -->
<g id="edge14" class="edge">
<title>Node10&#45;&gt;Node12</title>
<path fill="none" stroke="#63b8ff" d="M361.15,-164.98C343.93,-156.54 317.3,-143.47 297.35,-133.68"/>
<polygon fill="#63b8ff" stroke="#63b8ff" points="298.69,-130.43 288.17,-129.17 295.6,-136.72 298.69,-130.43"/>
</g>
<!-- Node10&#45;&gt;Node13 -->
<g id="edge16" class="edge">
<title>Node10&#45;&gt;Node13</title>
<path fill="none" stroke="#63b8ff" d="M399.07,-164.98C419.93,-156.34 452.47,-142.87 476.27,-133.02"/>
<polygon fill="#63b8ff" stroke="#63b8ff" points="477.66,-136.23 485.56,-129.17 474.98,-129.76 477.66,-136.23"/>
</g>
<!-- Node12&#45;&gt;Node5 -->
<g id="edge15" class="edge">
<title>Node12&#45;&gt;Node5</title>
<path fill="none" stroke="#63b8ff" d="M269.67,-109.75C269.02,-102.8 268.08,-92.85 267.26,-84.13"/>
<polygon fill="#63b8ff" stroke="#63b8ff" points="270.73,-83.72 266.31,-74.09 263.77,-84.37 270.73,-83.72"/>
</g>
</g>
</svg>
