<?xml version="1.0" encoding="UTF-8" standalone="no"?>
<!DOCTYPE svg PUBLIC "-//W3C//DTD SVG 1.1//EN"
 "http://www.w3.org/Graphics/SVG/1.1/DTD/svg11.dtd">
<!-- Generated by graphviz version 2.43.0 (0)
 -->
<!-- Title: prepare_parser Pages: 1 -->
<svg width="1487pt" height="736pt"
 viewBox="0.00 0.00 1487.00 736.12" xmlns="http://www.w3.org/2000/svg" xmlns:xlink="http://www.w3.org/1999/xlink">
<g id="graph0" class="graph" transform="scale(1 1) rotate(0) translate(4 732.12)">
<title>prepare_parser</title>
<!-- Node1 -->
<g id="node1" class="node">
<title>Node1</title>
<g id="a_node1"><a xlink:title=" ">
<polygon fill="#999999" stroke="#666666" points="90,-465.12 0,-465.12 0,-446.12 90,-446.12 90,-465.12"/>
<text text-anchor="middle" x="45" y="-453.12" font-family="Helvetica,sans-Serif" font-size="10.00">prepare_parser</text>
</a>
</g>
</g>
<!-- Node2 -->
<g id="node2" class="node">
<title>Node2</title>
<g id="a_node2"><a xlink:href="parser__set__error_8c.html#adcfabdb026b94fdbe4b6cbf5cb16522a" target="_top" xlink:title=" ">
<polygon fill="white" stroke="#666666" points="222,-484.12 126,-484.12 126,-465.12 222,-465.12 222,-484.12"/>
<text text-anchor="middle" x="174" y="-472.12" font-family="Helvetica,sans-Serif" font-size="10.00">parser_set_error</text>
</a>
</g>
</g>
<!-- Node1&#45;&gt;Node2 -->
<g id="edge1" class="edge">
<title>Node1&#45;&gt;Node2</title>
<path fill="none" stroke="#63b8ff" d="M90.06,-462.21C98.4,-463.46 107.24,-464.78 115.92,-466.08"/>
<polygon fill="#63b8ff" stroke="#63b8ff" points="115.58,-469.57 125.99,-467.59 116.62,-462.64 115.58,-469.57"/>
</g>
<!-- Node3 -->
<g id="node3" class="node">
<title>Node3</title>
<g id="a_node3"><a xlink:href="parser__utils_8c.html#aef41660a9d240250899e27f88cd21e2c" target="_top" xlink:title=" ">
<polygon fill="white" stroke="#666666" points="221,-447.12 127,-447.12 127,-428.12 221,-428.12 221,-447.12"/>
<text text-anchor="middle" x="174" y="-435.12" font-family="Helvetica,sans-Serif" font-size="10.00">skip_separators</text>
</a>
</g>
</g>
<!-- Node1&#45;&gt;Node3 -->
<g id="edge2" class="edge">
<title>Node1&#45;&gt;Node3</title>
<path fill="none" stroke="#63b8ff" d="M90.06,-449.37C98.7,-448.15 107.87,-446.85 116.85,-445.58"/>
<polygon fill="#63b8ff" stroke="#63b8ff" points="117.45,-449.03 126.86,-444.16 116.46,-442.1 117.45,-449.03"/>
</g>
<!-- Node4 -->
<g id="node4" class="node">
<title>Node4</title>
<g id="a_node4"><a xlink:href="parser__utils_8c.html#a58d1fcbbbf31e24aab676f2ba794b440" target="_top" xlink:title=" ">
<polygon fill="white" stroke="#666666" points="335,-466.12 258,-466.12 258,-447.12 335,-447.12 335,-466.12"/>
<text text-anchor="middle" x="296.5" y="-454.12" font-family="Helvetica,sans-Serif" font-size="10.00">is_separator</text>
</a>
</g>
</g>
<!-- Node3&#45;&gt;Node4 -->
<g id="edge3" class="edge">
<title>Node3&#45;&gt;Node4</title>
<path fill="none" stroke="#63b8ff" d="M221.24,-444.91C229.93,-446.28 239.02,-447.71 247.75,-449.09"/>
<polygon fill="#63b8ff" stroke="#63b8ff" points="247.35,-452.57 257.78,-450.67 248.44,-445.66 247.35,-452.57"/>
</g>
<!-- Node5 -->
<g id="node5" class="node">
<title>Node5</title>
<g id="a_node5"><a xlink:href="parser__next_8c.html#ad25986b565a767c6ad7d0b0b8846fca6" target="_top" xlink:title=" ">
<polygon fill="white" stroke="#666666" points="333.5,-429.12 259.5,-429.12 259.5,-410.12 333.5,-410.12 333.5,-429.12"/>
<text text-anchor="middle" x="296.5" y="-417.12" font-family="Helvetica,sans-Serif" font-size="10.00">parser_next</text>
</a>
</g>
</g>
<!-- Node3&#45;&gt;Node5 -->
<g id="edge4" class="edge">
<title>Node3&#45;&gt;Node5</title>
<path fill="none" stroke="#63b8ff" d="M221.24,-430.71C230.41,-429.34 240.03,-427.91 249.19,-426.54"/>
<polygon fill="#63b8ff" stroke="#63b8ff" points="249.92,-429.97 259.29,-425.03 248.89,-423.04 249.92,-429.97"/>
</g>
<!-- Node6 -->
<g id="node6" class="node">
<title>Node6</title>
<g id="a_node6"><a xlink:href="lexer__next__token_8c.html#a3def5432329709fb4df861d90672c510" target="_top" xlink:title=" ">
<polygon fill="white" stroke="#666666" points="471,-448.12 371,-448.12 371,-429.12 471,-429.12 471,-448.12"/>
<text text-anchor="middle" x="421" y="-436.12" font-family="Helvetica,sans-Serif" font-size="10.00">lexer_next_token</text>
</a>
</g>
</g>
<!-- Node5&#45;&gt;Node6 -->
<g id="edge5" class="edge">
<title>Node5&#45;&gt;Node6</title>
<path fill="none" stroke="#63b8ff" d="M333.59,-425.22C342.09,-426.54 351.37,-427.97 360.6,-429.41"/>
<polygon fill="#63b8ff" stroke="#63b8ff" points="360.13,-432.87 370.55,-430.95 361.2,-425.96 360.13,-432.87"/>
</g>
<!-- Node44 -->
<g id="node44" class="node">
<title>Node44</title>
<g id="a_node44"><a xlink:href="destroy__token_8c.html#ad1a471ee7b1ccb035d769be1152a370c" target="_top" xlink:title=" ">
<polygon fill="white" stroke="#666666" points="464,-411.12 378,-411.12 378,-392.12 464,-392.12 464,-411.12"/>
<text text-anchor="middle" x="421" y="-399.12" font-family="Helvetica,sans-Serif" font-size="10.00">token_destroy</text>
</a>
</g>
</g>
<!-- Node5&#45;&gt;Node44 -->
<g id="edge64" class="edge">
<title>Node5&#45;&gt;Node44</title>
<path fill="none" stroke="#63b8ff" d="M333.59,-414.32C344.29,-412.74 356.23,-410.99 367.73,-409.3"/>
<polygon fill="#63b8ff" stroke="#63b8ff" points="368.31,-412.75 377.69,-407.84 367.29,-405.83 368.31,-412.75"/>
</g>
<!-- Node7 -->
<g id="node7" class="node">
<title>Node7</title>
<g id="a_node7"><a xlink:href="create__token_8c.html#a15bcfc92177012893c626ce7d2d6bb6b" target="_top" xlink:title=" ">
<polygon fill="white" stroke="#666666" points="943,-509.12 863,-509.12 863,-490.12 943,-490.12 943,-509.12"/>
<text text-anchor="middle" x="903" y="-497.12" font-family="Helvetica,sans-Serif" font-size="10.00">create_token</text>
</a>
</g>
</g>
<!-- Node6&#45;&gt;Node7 -->
<g id="edge6" class="edge">
<title>Node6&#45;&gt;Node7</title>
<path fill="none" stroke="#63b8ff" d="M425.73,-448.34C435.41,-472.31 463.65,-534.75 507,-568.62 566.7,-615.26 593.3,-612 668,-624.62 722.78,-633.87 742.43,-647.62 793,-624.62 841.3,-602.65 876.54,-547.54 892.5,-518.39"/>
<polygon fill="#63b8ff" stroke="#63b8ff" points="895.75,-519.73 897.33,-509.25 889.56,-516.46 895.75,-519.73"/>
</g>
<!-- Node8 -->
<g id="node8" class="node">
<title>Node8</title>
<g id="a_node8"><a xlink:href="lexer__next__token_8c.html#add2e1acaa9518ecf20b6670ad91a5c65" target="_top" xlink:title=" ">
<polygon fill="white" stroke="#666666" points="620.5,-559.12 518.5,-559.12 518.5,-540.12 620.5,-540.12 620.5,-559.12"/>
<text text-anchor="middle" x="569.5" y="-547.12" font-family="Helvetica,sans-Serif" font-size="10.00">get_logical_token</text>
</a>
</g>
</g>
<!-- Node6&#45;&gt;Node8 -->
<g id="edge7" class="edge">
<title>Node6&#45;&gt;Node8</title>
<path fill="none" stroke="#63b8ff" d="M434.74,-448.28C459.96,-467.38 516.45,-510.18 547.34,-533.58"/>
<polygon fill="#63b8ff" stroke="#63b8ff" points="545.6,-536.66 555.68,-539.91 549.82,-531.08 545.6,-536.66"/>
</g>
<!-- Node12 -->
<g id="node12" class="node">
<title>Node12</title>
<g id="a_node12"><a xlink:href="lexer__next__token_8c.html#abcee8a7ba5ea6ca80c0bd7e3dd8d9a32" target="_top" xlink:title=" ">
<polygon fill="white" stroke="#666666" points="630.5,-448.12 508.5,-448.12 508.5,-429.12 630.5,-429.12 630.5,-448.12"/>
<text text-anchor="middle" x="569.5" y="-436.12" font-family="Helvetica,sans-Serif" font-size="10.00">get_redirection_token</text>
</a>
</g>
</g>
<!-- Node6&#45;&gt;Node12 -->
<g id="edge14" class="edge">
<title>Node6&#45;&gt;Node12</title>
<path fill="none" stroke="#63b8ff" d="M471.19,-438.62C479.83,-438.62 488.96,-438.62 498.05,-438.62"/>
<polygon fill="#63b8ff" stroke="#63b8ff" points="498.24,-442.12 508.24,-438.62 498.24,-435.12 498.24,-442.12"/>
</g>
<!-- Node17 -->
<g id="node17" class="node">
<title>Node17</title>
<g id="a_node17"><a xlink:href="lexer__newline_8c.html#a9f60bf18297b9c705fa6cdff027c79fc" target="_top" xlink:title=" ">
<polygon fill="white" stroke="#666666" points="611.5,-401.12 527.5,-401.12 527.5,-382.12 611.5,-382.12 611.5,-401.12"/>
<text text-anchor="middle" x="569.5" y="-389.12" font-family="Helvetica,sans-Serif" font-size="10.00">lexer_newline</text>
</a>
</g>
</g>
<!-- Node6&#45;&gt;Node17 -->
<g id="edge23" class="edge">
<title>Node6&#45;&gt;Node17</title>
<path fill="none" stroke="#63b8ff" d="M451.65,-429.11C473.91,-421.96 504.63,-412.11 528.98,-404.3"/>
<polygon fill="#63b8ff" stroke="#63b8ff" points="530.19,-407.58 538.65,-401.2 528.06,-400.92 530.19,-407.58"/>
</g>
<!-- Node18 -->
<g id="node18" class="node">
<title>Node18</title>
<g id="a_node18"><a xlink:href="lexer__parenthesis_8c.html#a2b13eaa0fee255bea85bd4279f369795" target="_top" xlink:title=" ">
<polygon fill="white" stroke="#666666" points="621,-728.12 518,-728.12 518,-709.12 621,-709.12 621,-728.12"/>
<text text-anchor="middle" x="569.5" y="-716.12" font-family="Helvetica,sans-Serif" font-size="10.00">lexer_parenthesis</text>
</a>
</g>
</g>
<!-- Node6&#45;&gt;Node18 -->
<g id="edge25" class="edge">
<title>Node6&#45;&gt;Node18</title>
<path fill="none" stroke="#63b8ff" d="M422.09,-448.36C423,-486.51 431.54,-627.31 507,-700.62 508.1,-701.68 509.25,-702.69 510.46,-703.63"/>
<polygon fill="#63b8ff" stroke="#63b8ff" points="508.72,-706.67 519.05,-709.05 512.46,-700.75 508.72,-706.67"/>
</g>
<!-- Node19 -->
<g id="node19" class="node">
<title>Node19</title>
<g id="a_node19"><a xlink:href="lexer__semicolon_8c.html#a1612109b245d9780427946e4e33b01b7" target="_top" xlink:title=" ">
<polygon fill="white" stroke="#666666" points="617.5,-691.12 521.5,-691.12 521.5,-672.12 617.5,-672.12 617.5,-691.12"/>
<text text-anchor="middle" x="569.5" y="-679.12" font-family="Helvetica,sans-Serif" font-size="10.00">lexer_semicolon</text>
</a>
</g>
</g>
<!-- Node6&#45;&gt;Node19 -->
<g id="edge27" class="edge">
<title>Node6&#45;&gt;Node19</title>
<path fill="none" stroke="#63b8ff" d="M423.02,-448.42C427.04,-482.23 444.77,-595.27 507,-657.62 510.9,-661.52 515.5,-664.81 520.41,-667.57"/>
<polygon fill="#63b8ff" stroke="#63b8ff" points="518.97,-670.76 529.49,-671.99 522.03,-664.46 518.97,-670.76"/>
</g>
<!-- Node20 -->
<g id="node20" class="node">
<title>Node20</title>
<g id="a_node20"><a xlink:href="lexer__word_8c.html#ac2600a9ba16009c4d8c114a118c54955" target="_top" xlink:title=" ">
<polygon fill="white" stroke="#666666" points="604.5,-345.12 534.5,-345.12 534.5,-326.12 604.5,-326.12 604.5,-345.12"/>
<text text-anchor="middle" x="569.5" y="-333.12" font-family="Helvetica,sans-Serif" font-size="10.00">lexer_word</text>
</a>
</g>
</g>
<!-- Node6&#45;&gt;Node20 -->
<g id="edge29" class="edge">
<title>Node6&#45;&gt;Node20</title>
<path fill="none" stroke="#63b8ff" d="M455.97,-429.01C461.27,-426.72 466.48,-423.95 471,-420.62 492.19,-405.02 487.49,-391.27 507,-373.62 516.96,-364.61 529.34,-356.49 540.38,-350.09"/>
<polygon fill="#63b8ff" stroke="#63b8ff" points="542.23,-353.07 549.25,-345.14 538.82,-346.96 542.23,-353.07"/>
</g>
<!-- Node42 -->
<g id="node42" class="node">
<title>Node42</title>
<g id="a_node42"><a xlink:href="lexer__next__token_8c.html#a7f0a2dd2373821667a4d5381e7711aa0" target="_top" xlink:title=" ">
<polygon fill="white" stroke="#666666" points="614,-308.12 525,-308.12 525,-289.12 614,-289.12 614,-308.12"/>
<text text-anchor="middle" x="569.5" y="-296.12" font-family="Helvetica,sans-Serif" font-size="10.00">skip_comment</text>
</a>
</g>
</g>
<!-- Node6&#45;&gt;Node42 -->
<g id="edge62" class="edge">
<title>Node6&#45;&gt;Node42</title>
<path fill="none" stroke="#63b8ff" d="M459.47,-428.95C463.72,-426.72 467.7,-423.98 471,-420.62 505.26,-385.71 471.58,-350.36 507,-316.62 509.62,-314.13 512.56,-311.98 515.7,-310.12"/>
<polygon fill="#63b8ff" stroke="#63b8ff" points="517.51,-313.14 524.99,-305.64 514.47,-306.83 517.51,-313.14"/>
</g>
<!-- Node43 -->
<g id="node43" class="node">
<title>Node43</title>
<g id="a_node43"><a xlink:href="lexer__next__token_8c.html#a5b2052471d98cef2998e1367f9bf8f6d" target="_top" xlink:title=" ">
<polygon fill="white" stroke="#666666" points="632,-271.12 507,-271.12 507,-252.12 632,-252.12 632,-271.12"/>
<text text-anchor="middle" x="569.5" y="-259.12" font-family="Helvetica,sans-Serif" font-size="10.00">skip_spaces_and_tabs</text>
</a>
</g>
</g>
<!-- Node6&#45;&gt;Node43 -->
<g id="edge63" class="edge">
<title>Node6&#45;&gt;Node43</title>
<path fill="none" stroke="#63b8ff" d="M460.22,-428.94C464.24,-426.72 467.96,-423.98 471,-420.62 514.34,-372.61 462.07,-326.14 507,-279.62 507.93,-278.65 508.92,-277.73 509.94,-276.87"/>
<polygon fill="#63b8ff" stroke="#63b8ff" points="512.16,-279.59 518.52,-271.12 508.27,-273.78 512.16,-279.59"/>
</g>
<!-- Node9 -->
<g id="node9" class="node">
<title>Node9</title>
<g id="a_node9"><a xlink:href="lexer__logical__and_8c.html#a59e5031d54357d65c6873edc67de2a47" target="_top" xlink:title=" ">
<polygon fill="white" stroke="#666666" points="781,-578.12 680,-578.12 680,-559.12 781,-559.12 781,-578.12"/>
<text text-anchor="middle" x="730.5" y="-566.12" font-family="Helvetica,sans-Serif" font-size="10.00">lexer_logical_and</text>
</a>
</g>
</g>
<!-- Node8&#45;&gt;Node9 -->
<g id="edge8" class="edge">
<title>Node8&#45;&gt;Node9</title>
<path fill="none" stroke="#63b8ff" d="M620.81,-555.63C636.26,-557.48 653.41,-559.53 669.45,-561.44"/>
<polygon fill="#63b8ff" stroke="#63b8ff" points="669.45,-564.97 679.79,-562.68 670.28,-558.02 669.45,-564.97"/>
</g>
<!-- Node10 -->
<g id="node10" class="node">
<title>Node10</title>
<g id="a_node10"><a xlink:href="lexer__logical__or_8c.html#ac3851eaea27bd5774b126b888bdddf93" target="_top" xlink:title=" ">
<polygon fill="white" stroke="#666666" points="777,-541.12 684,-541.12 684,-522.12 777,-522.12 777,-541.12"/>
<text text-anchor="middle" x="730.5" y="-529.12" font-family="Helvetica,sans-Serif" font-size="10.00">lexer_logical_or</text>
</a>
</g>
</g>
<!-- Node8&#45;&gt;Node10 -->
<g id="edge10" class="edge">
<title>Node8&#45;&gt;Node10</title>
<path fill="none" stroke="#63b8ff" d="M620.81,-543.92C637.69,-542.01 656.62,-539.87 673.88,-537.92"/>
<polygon fill="#63b8ff" stroke="#63b8ff" points="674.29,-541.39 683.83,-536.79 673.5,-534.44 674.29,-541.39"/>
</g>
<!-- Node11 -->
<g id="node11" class="node">
<title>Node11</title>
<g id="a_node11"><a xlink:href="lexer__pipe_8c.html#a693816e38802a086de64c09cb7cebeb7" target="_top" xlink:title=" ">
<polygon fill="white" stroke="#666666" points="764,-615.12 697,-615.12 697,-596.12 764,-596.12 764,-615.12"/>
<text text-anchor="middle" x="730.5" y="-603.12" font-family="Helvetica,sans-Serif" font-size="10.00">lexer_pipe</text>
</a>
</g>
</g>
<!-- Node8&#45;&gt;Node11 -->
<g id="edge12" class="edge">
<title>Node8&#45;&gt;Node11</title>
<path fill="none" stroke="#63b8ff" d="M593.54,-559.25C613.16,-567.3 642.2,-578.84 668,-587.62 674.08,-589.69 680.55,-591.74 686.92,-593.68"/>
<polygon fill="#63b8ff" stroke="#63b8ff" points="686.2,-597.12 696.78,-596.61 688.19,-590.41 686.2,-597.12"/>
</g>
<!-- Node9&#45;&gt;Node7 -->
<g id="edge9" class="edge">
<title>Node9&#45;&gt;Node7</title>
<path fill="none" stroke="#63b8ff" d="M767.58,-559.06C776,-556.55 784.88,-553.69 793,-550.62 821.6,-539.81 853.12,-524.7 874.88,-513.73"/>
<polygon fill="#63b8ff" stroke="#63b8ff" points="876.53,-516.81 883.85,-509.16 873.36,-510.58 876.53,-516.81"/>
</g>
<!-- Node10&#45;&gt;Node7 -->
<g id="edge11" class="edge">
<title>Node10&#45;&gt;Node7</title>
<path fill="none" stroke="#63b8ff" d="M777.19,-523.04C800.58,-518.65 829.08,-513.31 852.93,-508.83"/>
<polygon fill="#63b8ff" stroke="#63b8ff" points="853.66,-512.25 862.84,-506.97 852.37,-505.37 853.66,-512.25"/>
</g>
<!-- Node11&#45;&gt;Node7 -->
<g id="edge13" class="edge">
<title>Node11&#45;&gt;Node7</title>
<path fill="none" stroke="#63b8ff" d="M764.03,-598.67C773.67,-595.94 784.03,-592.31 793,-587.62 829.53,-568.51 865.47,-536.13 885.59,-516.43"/>
<polygon fill="#63b8ff" stroke="#63b8ff" points="888.11,-518.85 892.73,-509.31 883.17,-513.89 888.11,-518.85"/>
</g>
<!-- Node13 -->
<g id="node13" class="node">
<title>Node13</title>
<g id="a_node13"><a xlink:href="lexer__heredoc_8c.html#a9db043b0e8df9ad1155a65a8fcf67c11" target="_top" xlink:title=" ">
<polygon fill="white" stroke="#666666" points="773,-504.12 688,-504.12 688,-485.12 773,-485.12 773,-504.12"/>
<text text-anchor="middle" x="730.5" y="-492.12" font-family="Helvetica,sans-Serif" font-size="10.00">lexer_heredoc</text>
</a>
</g>
</g>
<!-- Node12&#45;&gt;Node13 -->
<g id="edge15" class="edge">
<title>Node12&#45;&gt;Node13</title>
<path fill="none" stroke="#63b8ff" d="M593.54,-448.25C613.16,-456.3 642.2,-467.84 668,-476.62 673.53,-478.5 679.38,-480.37 685.19,-482.15"/>
<polygon fill="#63b8ff" stroke="#63b8ff" points="684.27,-485.53 694.86,-485.05 686.28,-478.83 684.27,-485.53"/>
</g>
<!-- Node14 -->
<g id="node14" class="node">
<title>Node14</title>
<g id="a_node14"><a xlink:href="lexer__redirect__append_8c.html#a09beefbfaf132dbe04add1370a6fb2e3" target="_top" xlink:title=" ">
<polygon fill="white" stroke="#666666" points="793,-467.12 668,-467.12 668,-448.12 793,-448.12 793,-467.12"/>
<text text-anchor="middle" x="730.5" y="-455.12" font-family="Helvetica,sans-Serif" font-size="10.00">lexer_redirect_append</text>
</a>
</g>
</g>
<!-- Node12&#45;&gt;Node14 -->
<g id="edge17" class="edge">
<title>Node12&#45;&gt;Node14</title>
<path fill="none" stroke="#63b8ff" d="M630.61,-445.8C639.49,-446.86 648.72,-447.97 657.81,-449.05"/>
<polygon fill="#63b8ff" stroke="#63b8ff" points="657.64,-452.56 667.98,-450.27 658.47,-445.61 657.64,-452.56"/>
</g>
<!-- Node15 -->
<g id="node15" class="node">
<title>Node15</title>
<g id="a_node15"><a xlink:href="lexer__redirect__in_8c.html#ac723d9668329d99b35003ed2423889e5" target="_top" xlink:title=" ">
<polygon fill="white" stroke="#666666" points="779.5,-430.12 681.5,-430.12 681.5,-411.12 779.5,-411.12 779.5,-430.12"/>
<text text-anchor="middle" x="730.5" y="-418.12" font-family="Helvetica,sans-Serif" font-size="10.00">lexer_redirect_in</text>
</a>
</g>
</g>
<!-- Node12&#45;&gt;Node15 -->
<g id="edge19" class="edge">
<title>Node12&#45;&gt;Node15</title>
<path fill="none" stroke="#63b8ff" d="M630.61,-431.81C644,-430.3 658.16,-428.69 671.46,-427.19"/>
<polygon fill="#63b8ff" stroke="#63b8ff" points="671.89,-430.66 681.44,-426.06 671.11,-423.71 671.89,-430.66"/>
</g>
<!-- Node16 -->
<g id="node16" class="node">
<title>Node16</title>
<g id="a_node16"><a xlink:href="lexer__redirect__out_8c.html#a70e2216639c96030b3861405ae3497c6" target="_top" xlink:title=" ">
<polygon fill="white" stroke="#666666" points="782.5,-393.12 678.5,-393.12 678.5,-374.12 782.5,-374.12 782.5,-393.12"/>
<text text-anchor="middle" x="730.5" y="-381.12" font-family="Helvetica,sans-Serif" font-size="10.00">lexer_redirect_out</text>
</a>
</g>
</g>
<!-- Node12&#45;&gt;Node16 -->
<g id="edge21" class="edge">
<title>Node12&#45;&gt;Node16</title>
<path fill="none" stroke="#63b8ff" d="M595.21,-429.07C614.85,-421.59 643.05,-411.07 668,-402.62 674.4,-400.45 681.21,-398.25 687.87,-396.14"/>
<polygon fill="#63b8ff" stroke="#63b8ff" points="688.97,-399.47 697.47,-393.15 686.89,-392.79 688.97,-399.47"/>
</g>
<!-- Node13&#45;&gt;Node7 -->
<g id="edge16" class="edge">
<title>Node13&#45;&gt;Node7</title>
<path fill="none" stroke="#63b8ff" d="M773.21,-495.84C797.21,-496.55 827.51,-497.43 852.68,-498.17"/>
<polygon fill="#63b8ff" stroke="#63b8ff" points="852.67,-501.67 862.77,-498.47 852.88,-494.68 852.67,-501.67"/>
</g>
<!-- Node14&#45;&gt;Node7 -->
<g id="edge18" class="edge">
<title>Node14&#45;&gt;Node7</title>
<path fill="none" stroke="#63b8ff" d="M770.19,-467.15C794.84,-473.22 826.99,-481.14 853.37,-487.64"/>
<polygon fill="#63b8ff" stroke="#63b8ff" points="852.62,-491.06 863.17,-490.05 854.3,-484.26 852.62,-491.06"/>
</g>
<!-- Node15&#45;&gt;Node7 -->
<g id="edge20" class="edge">
<title>Node15&#45;&gt;Node7</title>
<path fill="none" stroke="#63b8ff" d="M769.71,-430.18C777.61,-432.78 785.73,-435.91 793,-439.62 810.82,-448.7 811.78,-456.44 829,-466.62 841.31,-473.9 855.5,-480.65 868.08,-486.13"/>
<polygon fill="#63b8ff" stroke="#63b8ff" points="866.76,-489.37 877.33,-490.05 869.49,-482.92 866.76,-489.37"/>
</g>
<!-- Node16&#45;&gt;Node7 -->
<g id="edge22" class="edge">
<title>Node16&#45;&gt;Node7</title>
<path fill="none" stroke="#63b8ff" d="M776.86,-393.23C782.65,-395.68 788.22,-398.76 793,-402.62 818.4,-423.12 804.93,-444.58 829,-466.62 837.89,-474.76 849.12,-481.16 860.09,-486.08"/>
<polygon fill="#63b8ff" stroke="#63b8ff" points="859.02,-489.43 869.6,-490.03 861.7,-482.96 859.02,-489.43"/>
</g>
<!-- Node17&#45;&gt;Node7 -->
<g id="edge24" class="edge">
<title>Node17&#45;&gt;Node7</title>
<path fill="none" stroke="#63b8ff" d="M588.66,-382C629.39,-361.88 729.43,-320.79 793,-365.62 831.95,-393.08 796.72,-431.57 829,-466.62 836.65,-474.92 846.78,-481.28 857.06,-486.08"/>
<polygon fill="#63b8ff" stroke="#63b8ff" points="855.9,-489.39 866.47,-490.08 858.63,-482.95 855.9,-489.39"/>
</g>
<!-- Node18&#45;&gt;Node7 -->
<g id="edge26" class="edge">
<title>Node18&#45;&gt;Node7</title>
<path fill="none" stroke="#63b8ff" d="M621.33,-723.31C669.56,-725.16 742.03,-720.97 793,-686.62 853.96,-645.54 885.4,-558.06 896.84,-519.07"/>
<polygon fill="#63b8ff" stroke="#63b8ff" points="900.21,-520.01 899.55,-509.44 893.47,-518.12 900.21,-520.01"/>
</g>
<!-- Node19&#45;&gt;Node7 -->
<g id="edge28" class="edge">
<title>Node19&#45;&gt;Node7</title>
<path fill="none" stroke="#63b8ff" d="M617.92,-687.41C665.57,-690.86 739.42,-689.53 793,-657.62 847.75,-625.01 881.52,-552.96 895.11,-518.59"/>
<polygon fill="#63b8ff" stroke="#63b8ff" points="898.39,-519.8 898.68,-509.21 891.85,-517.31 898.39,-519.8"/>
</g>
<!-- Node20&#45;&gt;Node7 -->
<g id="edge30" class="edge">
<title>Node20&#45;&gt;Node7</title>
<path fill="none" stroke="#63b8ff" d="M601.58,-326.04C648.39,-313.7 737.38,-298.57 793,-341.62 838.72,-377 791.17,-422.9 829,-466.62 836.25,-474.99 846.05,-481.35 856.11,-486.14"/>
<polygon fill="#63b8ff" stroke="#63b8ff" points="854.79,-489.38 865.37,-490.1 857.55,-482.94 854.79,-489.38"/>
</g>
<!-- Node21 -->
<g id="node21" class="node">
<title>Node21</title>
<g id="a_node21"><a xlink:href="lexer__word_8c.html#a730574257743b09386cadd2ccbfe4d13" target="_top" xlink:title=" ">
<polygon fill="white" stroke="#666666" points="791.5,-279.12 669.5,-279.12 669.5,-260.12 791.5,-260.12 791.5,-279.12"/>
<text text-anchor="middle" x="730.5" y="-267.12" font-family="Helvetica,sans-Serif" font-size="10.00">handle_current_token</text>
</a>
</g>
</g>
<!-- Node20&#45;&gt;Node21 -->
<g id="edge31" class="edge">
<title>Node20&#45;&gt;Node21</title>
<path fill="none" stroke="#63b8ff" d="M604.63,-326.86C613.71,-324.05 623.38,-320.61 632,-316.62 649.23,-308.63 651.07,-302.22 668,-293.62 675.71,-289.7 684.22,-286 692.39,-282.74"/>
<polygon fill="#63b8ff" stroke="#63b8ff" points="693.68,-286 701.75,-279.13 691.16,-279.47 693.68,-286"/>
</g>
<!-- Node33 -->
<g id="node33" class="node">
<title>Node33</title>
<g id="a_node33"><a xlink:href="lexer__is__word__separator_8c.html#abccfc6fc0cdbd040fc9a7dcbfd207090" target="_top" xlink:title=" ">
<polygon fill="white" stroke="#666666" points="1325,-22.12 1190,-22.12 1190,-3.12 1325,-3.12 1325,-22.12"/>
<text text-anchor="middle" x="1257.5" y="-10.12" font-family="Helvetica,sans-Serif" font-size="10.00">lexer_is_word_separator</text>
</a>
</g>
</g>
<!-- Node20&#45;&gt;Node33 -->
<g id="edge61" class="edge">
<title>Node20&#45;&gt;Node33</title>
<path fill="none" stroke="#63b8ff" d="M604.72,-330.04C614.3,-327.22 624.21,-322.99 632,-316.62 657.86,-295.47 646.92,-276.55 668,-250.62 785.5,-106.07 832.56,-58.89 1013,-12.62 1067.48,1.35 1131.09,0.8 1179.64,-2.95"/>
<polygon fill="#63b8ff" stroke="#63b8ff" points="1179.5,-6.45 1189.76,-3.8 1180.09,0.52 1179.5,-6.45"/>
</g>
<!-- Node22 -->
<g id="node22" class="node">
<title>Node22</title>
<g id="a_node22"><a xlink:href="lexer__word_8c.html#acd8f2a3c47fa56f87c2792ccefd2ee3e" target="_top" xlink:title=" ">
<polygon fill="white" stroke="#666666" points="963.5,-242.12 842.5,-242.12 842.5,-223.12 963.5,-223.12 963.5,-242.12"/>
<text text-anchor="middle" x="903" y="-230.12" font-family="Helvetica,sans-Serif" font-size="10.00">handle_double_quote</text>
</a>
</g>
</g>
<!-- Node21&#45;&gt;Node22 -->
<g id="edge32" class="edge">
<title>Node21&#45;&gt;Node22</title>
<path fill="none" stroke="#63b8ff" d="M775.41,-260.09C797.6,-255.28 824.71,-249.39 848.15,-244.3"/>
<polygon fill="#63b8ff" stroke="#63b8ff" points="848.91,-247.72 857.94,-242.18 847.43,-240.88 848.91,-247.72"/>
</g>
<!-- Node23 -->
<g id="node23" class="node">
<title>Node23</title>
<g id="a_node23"><a xlink:href="lexer__word_8c.html#a733339142f4677a066646a12a7e5bec4" target="_top" xlink:title=" ">
<polygon fill="white" stroke="#666666" points="1154,-467.12 1013,-467.12 1013,-448.12 1154,-448.12 1154,-467.12"/>
<text text-anchor="middle" x="1083.5" y="-455.12" font-family="Helvetica,sans-Serif" font-size="10.00">handle_escape_sequence</text>
</a>
</g>
</g>
<!-- Node21&#45;&gt;Node23 -->
<g id="edge33" class="edge">
<title>Node21&#45;&gt;Node23</title>
<path fill="none" stroke="#63b8ff" d="M753.24,-279.2C766.39,-285.98 782.58,-296.26 793,-309.62 823.33,-348.52 791.4,-382.68 829,-414.62 876.64,-455.09 948.01,-464.15 1002.9,-464.06"/>
<polygon fill="#63b8ff" stroke="#63b8ff" points="1002.99,-467.56 1012.95,-463.94 1002.91,-460.56 1002.99,-467.56"/>
</g>
<!-- Node27 -->
<g id="node27" class="node">
<title>Node27</title>
<g id="a_node27"><a xlink:href="lexer__word_8c.html#a3ae03e49183787e7cf32c90ffdef7351" target="_top" xlink:title=" ">
<polygon fill="white" stroke="#666666" points="961.5,-405.12 844.5,-405.12 844.5,-386.12 961.5,-386.12 961.5,-405.12"/>
<text text-anchor="middle" x="903" y="-393.12" font-family="Helvetica,sans-Serif" font-size="10.00">handle_single_quote</text>
</a>
</g>
</g>
<!-- Node21&#45;&gt;Node27 -->
<g id="edge37" class="edge">
<title>Node21&#45;&gt;Node27</title>
<path fill="none" stroke="#63b8ff" d="M765.42,-279.16C774.89,-282.78 784.81,-287.53 793,-293.62 813.83,-309.11 810.55,-321.35 829,-339.62 844.46,-354.93 864.15,-369.81 879.18,-380.38"/>
<polygon fill="#63b8ff" stroke="#63b8ff" points="877.2,-383.27 887.42,-386.07 881.18,-377.51 877.2,-383.27"/>
</g>
<!-- Node28 -->
<g id="node28" class="node">
<title>Node28</title>
<g id="a_node28"><a xlink:href="lexer__utils_8c.html#a2ba6f7e43ecbf713c666ab062eac534c" target="_top" xlink:title=" ">
<polygon fill="white" stroke="#666666" points="977,-331.12 829,-331.12 829,-312.12 977,-312.12 977,-331.12"/>
<text text-anchor="middle" x="903" y="-319.12" font-family="Helvetica,sans-Serif" font-size="10.00">lexer_append_current_char</text>
</a>
</g>
</g>
<!-- Node21&#45;&gt;Node28 -->
<g id="edge39" class="edge">
<title>Node21&#45;&gt;Node28</title>
<path fill="none" stroke="#63b8ff" d="M762.77,-279.16C790.33,-287.56 830.66,-299.86 860.83,-309.06"/>
<polygon fill="#63b8ff" stroke="#63b8ff" points="860.05,-312.48 870.64,-312.05 862.09,-305.79 860.05,-312.48"/>
</g>
<!-- Node29 -->
<g id="node29" class="node">
<title>Node29</title>
<g id="a_node29"><a xlink:href="lexer__expand__tilde_8c.html#ae3c478a10a2764ee7c7f94b42f28ecaf" target="_top" xlink:title=" ">
<polygon fill="white" stroke="#666666" points="957.5,-142.12 848.5,-142.12 848.5,-123.12 957.5,-123.12 957.5,-142.12"/>
<text text-anchor="middle" x="903" y="-130.12" font-family="Helvetica,sans-Serif" font-size="10.00">lexer_expand_tilde</text>
</a>
</g>
</g>
<!-- Node21&#45;&gt;Node29 -->
<g id="edge41" class="edge">
<title>Node21&#45;&gt;Node29</title>
<path fill="none" stroke="#63b8ff" d="M743.49,-259.99C772.4,-236.75 846.21,-177.45 881.97,-148.71"/>
<polygon fill="#63b8ff" stroke="#63b8ff" points="884.19,-151.42 889.8,-142.43 879.81,-145.96 884.19,-151.42"/>
</g>
<!-- Node34 -->
<g id="node34" class="node">
<title>Node34</title>
<g id="a_node34"><a xlink:href="lexer__expand__variable_8c.html#a01ad90eb8460a612626bb33c9e15cd52" target="_top" xlink:title=" ">
<polygon fill="white" stroke="#666666" points="966.5,-279.12 839.5,-279.12 839.5,-260.12 966.5,-260.12 966.5,-279.12"/>
<text text-anchor="middle" x="903" y="-267.12" font-family="Helvetica,sans-Serif" font-size="10.00">lexer_expand_variable</text>
</a>
</g>
</g>
<!-- Node21&#45;&gt;Node34 -->
<g id="edge47" class="edge">
<title>Node21&#45;&gt;Node34</title>
<path fill="none" stroke="#63b8ff" d="M791.61,-269.62C803.67,-269.62 816.47,-269.62 828.91,-269.62"/>
<polygon fill="#63b8ff" stroke="#63b8ff" points="829.26,-273.12 839.26,-269.62 829.26,-266.12 829.26,-273.12"/>
</g>
<!-- Node24 -->
<g id="node24" class="node">
<title>Node24</title>
<g id="a_node24"><a xlink:href="lexer__utils_8c.html#abf1c1b3b6033c8f9c8d1b11cc9e14f75" target="_top" xlink:title=" ">
<polygon fill="white" stroke="#666666" points="1307.5,-335.12 1207.5,-335.12 1207.5,-316.12 1307.5,-316.12 1307.5,-335.12"/>
<text text-anchor="middle" x="1257.5" y="-323.12" font-family="Helvetica,sans-Serif" font-size="10.00">lexer_append_str</text>
</a>
</g>
</g>
<!-- Node23&#45;&gt;Node24 -->
<g id="edge34" class="edge">
<title>Node23&#45;&gt;Node24</title>
<path fill="none" stroke="#63b8ff" d="M1122.81,-448.03C1133.39,-444.44 1144.55,-439.7 1154,-433.62 1192.35,-408.93 1226.53,-366.96 1244.07,-343.27"/>
<polygon fill="#63b8ff" stroke="#63b8ff" points="1246.92,-345.31 1249.95,-335.16 1241.25,-341.2 1246.92,-345.31"/>
</g>
<!-- Node25 -->
<g id="node25" class="node">
<title>Node25</title>
<g id="a_node25"><a xlink:href="strings_8h.html#a5e1589f073ac32d227dbc6020c376dab" target="_top" xlink:title=" ">
<polygon fill="white" stroke="#666666" points="1470.5,-335.12 1369.5,-335.12 1369.5,-316.12 1470.5,-316.12 1470.5,-335.12"/>
<text text-anchor="middle" x="1420" y="-323.12" font-family="Helvetica,sans-Serif" font-size="10.00">append_to_buffer</text>
</a>
</g>
</g>
<!-- Node24&#45;&gt;Node25 -->
<g id="edge35" class="edge">
<title>Node24&#45;&gt;Node25</title>
<path fill="none" stroke="#63b8ff" d="M1307.53,-325.62C1323.79,-325.62 1342.08,-325.62 1359.06,-325.62"/>
<polygon fill="#63b8ff" stroke="#63b8ff" points="1359.44,-329.12 1369.44,-325.62 1359.44,-322.12 1359.44,-329.12"/>
</g>
<!-- Node26 -->
<g id="node26" class="node">
<title>Node26</title>
<g id="a_node26"><a xlink:href="lexer__utils_8c.html#a84e8d5514cfe03a20152ad26f170211f" target="_top" xlink:title=" ">
<polygon fill="white" stroke="#666666" points="1479,-279.12 1361,-279.12 1361,-260.12 1479,-260.12 1479,-279.12"/>
<text text-anchor="middle" x="1420" y="-267.12" font-family="Helvetica,sans-Serif" font-size="10.00">lexer_set_alloc_error</text>
</a>
</g>
</g>
<!-- Node24&#45;&gt;Node26 -->
<g id="edge36" class="edge">
<title>Node24&#45;&gt;Node26</title>
<path fill="none" stroke="#63b8ff" d="M1286.09,-315.99C1312.66,-306.72 1353.03,-292.64 1382.3,-282.42"/>
<polygon fill="#63b8ff" stroke="#63b8ff" points="1383.48,-285.72 1391.77,-279.12 1381.17,-279.11 1383.48,-285.72"/>
</g>
<!-- Node27&#45;&gt;Node24 -->
<g id="edge38" class="edge">
<title>Node27&#45;&gt;Node24</title>
<path fill="none" stroke="#63b8ff" d="M961.51,-399.09C1012.95,-400.58 1089.89,-398.79 1154,-380.62 1183.82,-372.17 1214.73,-354.08 1234.7,-340.95"/>
<polygon fill="#63b8ff" stroke="#63b8ff" points="1236.73,-343.8 1243.07,-335.31 1232.82,-338 1236.73,-343.8"/>
</g>
<!-- Node28&#45;&gt;Node24 -->
<g id="edge40" class="edge">
<title>Node28&#45;&gt;Node24</title>
<path fill="none" stroke="#63b8ff" d="M923.09,-331.22C944.39,-341.34 980.18,-356.65 1013,-362.62 1074.66,-373.83 1092.27,-373.42 1154,-362.62 1179.62,-358.14 1207.29,-347.79 1227.42,-339.18"/>
<polygon fill="#63b8ff" stroke="#63b8ff" points="1228.9,-342.35 1236.65,-335.12 1226.08,-335.94 1228.9,-342.35"/>
</g>
<!-- Node29&#45;&gt;Node24 -->
<g id="edge44" class="edge">
<title>Node29&#45;&gt;Node24</title>
<path fill="none" stroke="#63b8ff" d="M928.21,-142.23C973.77,-160.7 1074.79,-203.53 1154,-250.62 1184.38,-268.68 1216.9,-293.52 1236.97,-309.58"/>
<polygon fill="#63b8ff" stroke="#63b8ff" points="1235.03,-312.52 1245.01,-316.08 1239.43,-307.07 1235.03,-312.52"/>
</g>
<!-- Node30 -->
<g id="node30" class="node">
<title>Node30</title>
<g id="a_node30"><a xlink:href="get__variable__value_8c.html#a2edd9900f19af236aa05385a789be3d6" target="_top" xlink:title=" ">
<polygon fill="white" stroke="#666666" points="1312.5,-101.12 1202.5,-101.12 1202.5,-82.12 1312.5,-82.12 1312.5,-101.12"/>
<text text-anchor="middle" x="1257.5" y="-89.12" font-family="Helvetica,sans-Serif" font-size="10.00">get_variable_value</text>
</a>
</g>
</g>
<!-- Node29&#45;&gt;Node30 -->
<g id="edge42" class="edge">
<title>Node29&#45;&gt;Node30</title>
<path fill="none" stroke="#63b8ff" d="M921.48,-123.11C942.49,-112.26 979.14,-95.19 1013,-88.62 1072.86,-76.99 1142.57,-79.42 1192.02,-83.76"/>
<polygon fill="#63b8ff" stroke="#63b8ff" points="1191.98,-87.27 1202.26,-84.7 1192.62,-80.3 1191.98,-87.27"/>
</g>
<!-- Node32 -->
<g id="node32" class="node">
<title>Node32</title>
<g id="a_node32"><a xlink:href="lexer__expand__tilde_8c.html#aa4231a41b1e79447d6a70db7b075f937" target="_top" xlink:title=" ">
<polygon fill="white" stroke="#666666" points="1142,-41.12 1025,-41.12 1025,-22.12 1142,-22.12 1142,-41.12"/>
<text text-anchor="middle" x="1083.5" y="-29.12" font-family="Helvetica,sans-Serif" font-size="10.00">should_expand_tilde</text>
</a>
</g>
</g>
<!-- Node29&#45;&gt;Node32 -->
<g id="edge45" class="edge">
<title>Node29&#45;&gt;Node32</title>
<path fill="none" stroke="#63b8ff" d="M915.39,-122.91C934.49,-107.02 974.65,-75.28 1013,-55.62 1021.26,-51.38 1030.43,-47.62 1039.33,-44.4"/>
<polygon fill="#63b8ff" stroke="#63b8ff" points="1040.52,-47.69 1048.83,-41.12 1038.24,-41.08 1040.52,-47.69"/>
</g>
<!-- Node31 -->
<g id="node31" class="node">
<title>Node31</title>
<g id="a_node31"><a xlink:href="get__variable_8c.html#a569170390f0edf013bf89c26ef55ea8c" target="_top" xlink:title=" ">
<polygon fill="white" stroke="#666666" points="1458.5,-101.12 1381.5,-101.12 1381.5,-82.12 1458.5,-82.12 1458.5,-101.12"/>
<text text-anchor="middle" x="1420" y="-89.12" font-family="Helvetica,sans-Serif" font-size="10.00">get_variable</text>
</a>
</g>
</g>
<!-- Node30&#45;&gt;Node31 -->
<g id="edge43" class="edge">
<title>Node30&#45;&gt;Node31</title>
<path fill="none" stroke="#63b8ff" d="M1312.84,-91.62C1331.78,-91.62 1352.88,-91.62 1371.25,-91.62"/>
<polygon fill="#63b8ff" stroke="#63b8ff" points="1371.42,-95.12 1381.42,-91.62 1371.42,-88.12 1371.42,-95.12"/>
</g>
<!-- Node32&#45;&gt;Node33 -->
<g id="edge46" class="edge">
<title>Node32&#45;&gt;Node33</title>
<path fill="none" stroke="#63b8ff" d="M1142.25,-25.24C1154.34,-23.9 1167.27,-22.48 1179.92,-21.08"/>
<polygon fill="#63b8ff" stroke="#63b8ff" points="1180.43,-24.54 1189.99,-19.97 1179.67,-17.59 1180.43,-24.54"/>
</g>
<!-- Node34&#45;&gt;Node26 -->
<g id="edge60" class="edge">
<title>Node34&#45;&gt;Node26</title>
<path fill="none" stroke="#63b8ff" d="M948.32,-260.11C968.02,-256.34 991.57,-252.47 1013,-250.62 1131.49,-240.37 1269.94,-251.85 1350.71,-260.89"/>
<polygon fill="#63b8ff" stroke="#63b8ff" points="1350.42,-264.38 1360.75,-262.04 1351.21,-257.43 1350.42,-264.38"/>
</g>
<!-- Node35 -->
<g id="node35" class="node">
<title>Node35</title>
<g id="a_node35"><a xlink:href="lexer__expand__variable_8c.html#abe77b7e35b276965b72648d12abae283" target="_top" xlink:title=" ">
<polygon fill="white" stroke="#666666" points="1126.5,-316.12 1040.5,-316.12 1040.5,-297.12 1126.5,-297.12 1126.5,-316.12"/>
<text text-anchor="middle" x="1083.5" y="-304.12" font-family="Helvetica,sans-Serif" font-size="10.00">append_dollar</text>
</a>
</g>
</g>
<!-- Node34&#45;&gt;Node35 -->
<g id="edge48" class="edge">
<title>Node34&#45;&gt;Node35</title>
<path fill="none" stroke="#63b8ff" d="M949.97,-279.15C974.59,-284.25 1005.01,-290.56 1030.49,-295.84"/>
<polygon fill="#63b8ff" stroke="#63b8ff" points="1029.85,-299.28 1040.36,-297.88 1031.28,-292.43 1029.85,-299.28"/>
</g>
<!-- Node36 -->
<g id="node36" class="node">
<title>Node36</title>
<g id="a_node36"><a xlink:href="lexer__expand__variable_8c.html#ab47d31838e3255a1321d85e937919d4e" target="_top" xlink:title=" ">
<polygon fill="white" stroke="#666666" points="1139,-279.12 1028,-279.12 1028,-260.12 1139,-260.12 1139,-279.12"/>
<text text-anchor="middle" x="1083.5" y="-267.12" font-family="Helvetica,sans-Serif" font-size="10.00">append_last_status</text>
</a>
</g>
</g>
<!-- Node34&#45;&gt;Node36 -->
<g id="edge50" class="edge">
<title>Node34&#45;&gt;Node36</title>
<path fill="none" stroke="#63b8ff" d="M966.68,-269.62C983.24,-269.62 1001.13,-269.62 1017.79,-269.62"/>
<polygon fill="#63b8ff" stroke="#63b8ff" points="1017.98,-273.12 1027.98,-269.62 1017.98,-266.12 1017.98,-273.12"/>
</g>
<!-- Node37 -->
<g id="node37" class="node">
<title>Node37</title>
<g id="a_node37"><a xlink:href="lexer__expand__variable_8c.html#a9954e7e26e9570a3c41eed4e16bf6791" target="_top" xlink:title=" ">
<polygon fill="white" stroke="#666666" points="1148.5,-353.12 1018.5,-353.12 1018.5,-334.12 1148.5,-334.12 1148.5,-353.12"/>
<text text-anchor="middle" x="1083.5" y="-341.12" font-family="Helvetica,sans-Serif" font-size="10.00">append_variable_value</text>
</a>
</g>
</g>
<!-- Node34&#45;&gt;Node37 -->
<g id="edge53" class="edge">
<title>Node34&#45;&gt;Node37</title>
<path fill="none" stroke="#63b8ff" d="M927.04,-279.16C941.58,-285.4 960.65,-293.97 977,-302.62 993.58,-311.39 995.79,-317.18 1013,-324.62 1018.44,-326.97 1024.25,-329.1 1030.11,-331.02"/>
<polygon fill="#63b8ff" stroke="#63b8ff" points="1029.36,-334.45 1039.95,-334.03 1031.41,-327.75 1029.36,-334.45"/>
</g>
<!-- Node38 -->
<g id="node38" class="node">
<title>Node38</title>
<g id="a_node38"><a xlink:href="lexer__expand__variable_8c.html#a1d07a8c171e69a5c58a385a75520e6c0" target="_top" xlink:title=" ">
<polygon fill="white" stroke="#666666" points="1141.5,-127.62 1025.5,-127.62 1025.5,-97.62 1141.5,-97.62 1141.5,-127.62"/>
<text text-anchor="start" x="1033.5" y="-115.62" font-family="Helvetica,sans-Serif" font-size="10.00">get_correct_variable</text>
<text text-anchor="middle" x="1083.5" y="-104.62" font-family="Helvetica,sans-Serif" font-size="10.00">_value</text>
</a>
</g>
</g>
<!-- Node34&#45;&gt;Node38 -->
<g id="edge55" class="edge">
<title>Node34&#45;&gt;Node38</title>
<path fill="none" stroke="#63b8ff" d="M963.03,-260.1C968.15,-257.61 972.92,-254.5 977,-250.62 1015.52,-214.02 975.93,-174.69 1013,-136.62 1014.22,-135.36 1015.52,-134.17 1016.87,-133.04"/>
<polygon fill="#63b8ff" stroke="#63b8ff" points="1018.98,-135.83 1025.17,-127.23 1014.97,-130.1 1018.98,-135.83"/>
</g>
<!-- Node39 -->
<g id="node39" class="node">
<title>Node39</title>
<g id="a_node39"><a xlink:href="lexer__expand__variable_8c.html#a3674c7faac945bf9ec05a9dc00c08896" target="_top" xlink:title=" ">
<polygon fill="white" stroke="#666666" points="1149,-165.12 1018,-165.12 1018,-146.12 1149,-146.12 1149,-165.12"/>
<text text-anchor="middle" x="1083.5" y="-153.12" font-family="Helvetica,sans-Serif" font-size="10.00">get_variable_name_len</text>
</a>
</g>
</g>
<!-- Node34&#45;&gt;Node39 -->
<g id="edge57" class="edge">
<title>Node34&#45;&gt;Node39</title>
<path fill="none" stroke="#63b8ff" d="M960.94,-260.03C966.71,-257.56 972.21,-254.48 977,-250.62 1004.55,-228.42 986.33,-202.87 1013,-179.62 1017.74,-175.49 1023.22,-172.06 1028.99,-169.22"/>
<polygon fill="#63b8ff" stroke="#63b8ff" points="1030.44,-172.4 1038.22,-165.21 1027.66,-165.98 1030.44,-172.4"/>
</g>
<!-- Node35&#45;&gt;Node24 -->
<g id="edge49" class="edge">
<title>Node35&#45;&gt;Node24</title>
<path fill="none" stroke="#63b8ff" d="M1126.58,-311.27C1147.8,-313.61 1173.91,-316.5 1197.13,-319.06"/>
<polygon fill="#63b8ff" stroke="#63b8ff" points="1196.91,-322.56 1207.23,-320.18 1197.68,-315.6 1196.91,-322.56"/>
</g>
<!-- Node36&#45;&gt;Node24 -->
<g id="edge51" class="edge">
<title>Node36&#45;&gt;Node24</title>
<path fill="none" stroke="#63b8ff" d="M1124.39,-279.21C1134.13,-281.75 1144.49,-284.63 1154,-287.62 1177.39,-294.96 1203.27,-304.57 1223.18,-312.29"/>
<polygon fill="#63b8ff" stroke="#63b8ff" points="1222.13,-315.63 1232.71,-316.02 1224.68,-309.12 1222.13,-315.63"/>
</g>
<!-- Node36&#45;&gt;Node26 -->
<g id="edge52" class="edge">
<title>Node36&#45;&gt;Node26</title>
<path fill="none" stroke="#63b8ff" d="M1139.36,-269.62C1197.12,-269.62 1288.18,-269.62 1350.59,-269.62"/>
<polygon fill="#63b8ff" stroke="#63b8ff" points="1350.74,-273.12 1360.74,-269.62 1350.74,-266.12 1350.74,-273.12"/>
</g>
<!-- Node37&#45;&gt;Node24 -->
<g id="edge54" class="edge">
<title>Node37&#45;&gt;Node24</title>
<path fill="none" stroke="#63b8ff" d="M1148.55,-336.92C1164.53,-335.24 1181.6,-333.46 1197.33,-331.81"/>
<polygon fill="#63b8ff" stroke="#63b8ff" points="1197.87,-335.27 1207.46,-330.75 1197.15,-328.31 1197.87,-335.27"/>
</g>
<!-- Node38&#45;&gt;Node30 -->
<g id="edge56" class="edge">
<title>Node38&#45;&gt;Node30</title>
<path fill="none" stroke="#63b8ff" d="M1141.77,-105.63C1157.96,-103.65 1175.68,-101.49 1192.25,-99.46"/>
<polygon fill="#63b8ff" stroke="#63b8ff" points="1192.89,-102.91 1202.39,-98.23 1192.04,-95.96 1192.89,-102.91"/>
</g>
<!-- Node40 -->
<g id="node40" class="node">
<title>Node40</title>
<g id="a_node40"><a xlink:href="lexer__expand__variable_8c.html#a5067193ac632b7565fd8b9ad405a525f" target="_top" xlink:title=" ">
<polygon fill="white" stroke="#666666" points="1320,-165.12 1195,-165.12 1195,-146.12 1320,-146.12 1320,-165.12"/>
<text text-anchor="middle" x="1257.5" y="-153.12" font-family="Helvetica,sans-Serif" font-size="10.00">is_valid_variable_char</text>
</a>
</g>
</g>
<!-- Node39&#45;&gt;Node40 -->
<g id="edge58" class="edge">
<title>Node39&#45;&gt;Node40</title>
<path fill="none" stroke="#63b8ff" d="M1149.04,-155.62C1160.61,-155.62 1172.74,-155.62 1184.51,-155.62"/>
<polygon fill="#63b8ff" stroke="#63b8ff" points="1184.74,-159.12 1194.74,-155.62 1184.74,-152.12 1184.74,-159.12"/>
</g>
<!-- Node41 -->
<g id="node41" class="node">
<title>Node41</title>
<g id="a_node41"><a xlink:href="strings_8h.html#adfd4fc057d3b7ad39c6867928cc44175" target="_top" xlink:title=" ">
<polygon fill="white" stroke="#666666" points="1461.5,-165.12 1378.5,-165.12 1378.5,-146.12 1461.5,-146.12 1461.5,-165.12"/>
<text text-anchor="middle" x="1420" y="-153.12" font-family="Helvetica,sans-Serif" font-size="10.00">my_isnumber</text>
</a>
</g>
</g>
<!-- Node40&#45;&gt;Node41 -->
<g id="edge59" class="edge">
<title>Node40&#45;&gt;Node41</title>
<path fill="none" stroke="#63b8ff" d="M1320.09,-155.62C1335.9,-155.62 1352.72,-155.62 1367.93,-155.62"/>
<polygon fill="#63b8ff" stroke="#63b8ff" points="1368.16,-159.12 1378.16,-155.62 1368.16,-152.12 1368.16,-159.12"/>
</g>
</g>
</svg>
