<?xml version="1.0" encoding="UTF-8" standalone="no"?>
<!DOCTYPE svg PUBLIC "-//W3C//DTD SVG 1.1//EN"
 "http://www.w3.org/Graphics/SVG/1.1/DTD/svg11.dtd">
<!-- Generated by graphviz version 2.43.0 (0)
 -->
<!-- Title: src/parser/tokens/parser_globbing.c Pages: 1 -->
<svg width="394pt" height="313pt"
 viewBox="0.00 0.00 394.00 313.00" xmlns="http://www.w3.org/2000/svg" xmlns:xlink="http://www.w3.org/1999/xlink">
<g id="graph0" class="graph" transform="scale(1 1) rotate(0) translate(4 309)">
<title>src/parser/tokens/parser_globbing.c</title>
<!-- Node1 -->
<g id="node1" class="node">
<title>Node1</title>
<g id="a_node1"><a xlink:title=" ">
<polygon fill="#999999" stroke="#666666" points="193.5,-305 59.5,-305 59.5,-275 193.5,-275 193.5,-305"/>
<text text-anchor="start" x="67.5" y="-293" font-family="Helvetica,sans-Serif" font-size="10.00">src/parser/tokens/parser</text>
<text text-anchor="middle" x="126.5" y="-282" font-family="Helvetica,sans-Serif" font-size="10.00">_globbing.c</text>
</a>
</g>
</g>
<!-- Node2 -->
<g id="node2" class="node">
<title>Node2</title>
<g id="a_node2"><a xlink:title=" ">
<polygon fill="#e0e0e0" stroke="#999999" points="47,-239 0,-239 0,-220 47,-220 47,-239"/>
<text text-anchor="middle" x="23.5" y="-227" font-family="Helvetica,sans-Serif" font-size="10.00">glob.h</text>
</a>
</g>
</g>
<!-- Node1&#45;&gt;Node2 -->
<g id="edge1" class="edge">
<title>Node1&#45;&gt;Node2</title>
<path fill="none" stroke="#63b8ff" d="M101.83,-274.99C85.41,-265.66 63.95,-253.47 47.64,-244.21"/>
<polygon fill="#63b8ff" stroke="#63b8ff" points="49.13,-241.03 38.71,-239.14 45.68,-247.12 49.13,-241.03"/>
</g>
<!-- Node3 -->
<g id="node3" class="node">
<title>Node3</title>
<g id="a_node3"><a xlink:title=" ">
<polygon fill="#e0e0e0" stroke="#999999" points="118,-239 65,-239 65,-220 118,-220 118,-239"/>
<text text-anchor="middle" x="91.5" y="-227" font-family="Helvetica,sans-Serif" font-size="10.00">stdlib.h</text>
</a>
</g>
</g>
<!-- Node1&#45;&gt;Node3 -->
<g id="edge2" class="edge">
<title>Node1&#45;&gt;Node3</title>
<path fill="none" stroke="#63b8ff" d="M118.03,-274.84C113.21,-266.78 107.13,-256.62 102,-248.06"/>
<polygon fill="#63b8ff" stroke="#63b8ff" points="104.88,-246.05 96.74,-239.27 98.88,-249.64 104.88,-246.05"/>
</g>
<!-- Node4 -->
<g id="node4" class="node">
<title>Node4</title>
<g id="a_node4"><a xlink:title=" ">
<polygon fill="#e0e0e0" stroke="#999999" points="189,-239 136,-239 136,-220 189,-220 189,-239"/>
<text text-anchor="middle" x="162.5" y="-227" font-family="Helvetica,sans-Serif" font-size="10.00">string.h</text>
</a>
</g>
</g>
<!-- Node1&#45;&gt;Node4 -->
<g id="edge3" class="edge">
<title>Node1&#45;&gt;Node4</title>
<path fill="none" stroke="#63b8ff" d="M135.21,-274.84C140.17,-266.78 146.43,-256.62 151.7,-248.06"/>
<polygon fill="#63b8ff" stroke="#63b8ff" points="154.85,-249.62 157.11,-239.27 148.88,-245.95 154.85,-249.62"/>
</g>
<!-- Node5 -->
<g id="node5" class="node">
<title>Node5</title>
<g id="a_node5"><a xlink:href="parser_8h.html" target="_top" xlink:title=" ">
<polygon fill="white" stroke="#666666" points="263.5,-239 207.5,-239 207.5,-220 263.5,-220 263.5,-239"/>
<text text-anchor="middle" x="235.5" y="-227" font-family="Helvetica,sans-Serif" font-size="10.00">parser.h</text>
</a>
</g>
</g>
<!-- Node1&#45;&gt;Node5 -->
<g id="edge4" class="edge">
<title>Node1&#45;&gt;Node5</title>
<path fill="none" stroke="#63b8ff" d="M152.61,-274.99C170.14,-265.58 193.12,-253.24 210.44,-243.95"/>
<polygon fill="#63b8ff" stroke="#63b8ff" points="212.25,-246.95 219.4,-239.14 208.94,-240.78 212.25,-246.95"/>
</g>
<!-- Node6 -->
<g id="node6" class="node">
<title>Node6</title>
<g id="a_node6"><a xlink:href="ast_8h.html" target="_top" xlink:title=" ">
<polygon fill="white" stroke="#666666" points="119,-74 78,-74 78,-55 119,-55 119,-74"/>
<text text-anchor="middle" x="98.5" y="-62" font-family="Helvetica,sans-Serif" font-size="10.00">ast.h</text>
</a>
</g>
</g>
<!-- Node5&#45;&gt;Node6 -->
<g id="edge5" class="edge">
<title>Node5&#45;&gt;Node6</title>
<path fill="none" stroke="#63b8ff" d="M228.13,-219.74C206.21,-193.65 141.09,-116.17 112.37,-82"/>
<polygon fill="#63b8ff" stroke="#63b8ff" points="115.02,-79.71 105.9,-74.31 109.66,-84.21 115.02,-79.71"/>
</g>
<!-- Node8 -->
<g id="node8" class="node">
<title>Node8</title>
<g id="a_node8"><a xlink:href="lexer_8h.html" target="_top" xlink:title=" ">
<polygon fill="white" stroke="#666666" points="260,-184 211,-184 211,-165 260,-165 260,-184"/>
<text text-anchor="middle" x="235.5" y="-172" font-family="Helvetica,sans-Serif" font-size="10.00">lexer.h</text>
</a>
</g>
</g>
<!-- Node5&#45;&gt;Node8 -->
<g id="edge7" class="edge">
<title>Node5&#45;&gt;Node8</title>
<path fill="none" stroke="#63b8ff" d="M235.5,-219.75C235.5,-212.8 235.5,-202.85 235.5,-194.13"/>
<polygon fill="#63b8ff" stroke="#63b8ff" points="239,-194.09 235.5,-184.09 232,-194.09 239,-194.09"/>
</g>
<!-- Node12 -->
<g id="node12" class="node">
<title>Node12</title>
<g id="a_node12"><a xlink:href="token_8h.html" target="_top" xlink:title=" ">
<polygon fill="white" stroke="#666666" points="386,-129 333,-129 333,-110 386,-110 386,-129"/>
<text text-anchor="middle" x="359.5" y="-117" font-family="Helvetica,sans-Serif" font-size="10.00">token.h</text>
</a>
</g>
</g>
<!-- Node5&#45;&gt;Node12 -->
<g id="edge14" class="edge">
<title>Node5&#45;&gt;Node12</title>
<path fill="none" stroke="#63b8ff" d="M245.65,-219.66C266.73,-201.3 315.51,-158.81 341.86,-135.87"/>
<polygon fill="#63b8ff" stroke="#63b8ff" points="344.32,-138.37 349.56,-129.16 339.72,-133.09 344.32,-138.37"/>
</g>
<!-- Node7 -->
<g id="node7" class="node">
<title>Node7</title>
<g id="a_node7"><a xlink:title=" ">
<polygon fill="#e0e0e0" stroke="#999999" points="175.5,-19 119.5,-19 119.5,0 175.5,0 175.5,-19"/>
<text text-anchor="middle" x="147.5" y="-7" font-family="Helvetica,sans-Serif" font-size="10.00">stddef.h</text>
</a>
</g>
</g>
<!-- Node6&#45;&gt;Node7 -->
<g id="edge6" class="edge">
<title>Node6&#45;&gt;Node7</title>
<path fill="none" stroke="#63b8ff" d="M106.59,-54.75C113.66,-47.11 124.09,-35.82 132.65,-26.56"/>
<polygon fill="#63b8ff" stroke="#63b8ff" points="135.34,-28.81 139.56,-19.09 130.2,-24.06 135.34,-28.81"/>
</g>
<!-- Node8&#45;&gt;Node7 -->
<g id="edge8" class="edge">
<title>Node8&#45;&gt;Node7</title>
<path fill="none" stroke="#63b8ff" d="M213.22,-164.97C197.59,-157.79 177.57,-145.95 166.5,-129 146.54,-98.43 145,-54.18 146.02,-29.31"/>
<polygon fill="#63b8ff" stroke="#63b8ff" points="149.53,-29.27 146.63,-19.08 142.54,-28.85 149.53,-29.27"/>
</g>
<!-- Node9 -->
<g id="node9" class="node">
<title>Node9</title>
<g id="a_node9"><a xlink:title=" ">
<polygon fill="#e0e0e0" stroke="#999999" points="247.5,-129 175.5,-129 175.5,-110 247.5,-110 247.5,-129"/>
<text text-anchor="middle" x="211.5" y="-117" font-family="Helvetica,sans-Serif" font-size="10.00">sys/types.h</text>
</a>
</g>
</g>
<!-- Node8&#45;&gt;Node9 -->
<g id="edge9" class="edge">
<title>Node8&#45;&gt;Node9</title>
<path fill="none" stroke="#63b8ff" d="M231.54,-164.75C228.29,-157.57 223.58,-147.18 219.55,-138.27"/>
<polygon fill="#63b8ff" stroke="#63b8ff" points="222.7,-136.75 215.39,-129.09 216.33,-139.64 222.7,-136.75"/>
</g>
<!-- Node10 -->
<g id="node10" class="node">
<title>Node10</title>
<g id="a_node10"><a xlink:href="shell_8h.html" target="_top" xlink:title=" ">
<polygon fill="white" stroke="#666666" points="315,-129 266,-129 266,-110 315,-110 315,-129"/>
<text text-anchor="middle" x="290.5" y="-117" font-family="Helvetica,sans-Serif" font-size="10.00">shell.h</text>
</a>
</g>
</g>
<!-- Node8&#45;&gt;Node10 -->
<g id="edge10" class="edge">
<title>Node8&#45;&gt;Node10</title>
<path fill="none" stroke="#63b8ff" d="M244.58,-164.75C252.59,-157.03 264.46,-145.6 274.12,-136.28"/>
<polygon fill="#63b8ff" stroke="#63b8ff" points="276.81,-138.55 281.59,-129.09 271.96,-133.51 276.81,-138.55"/>
</g>
<!-- Node8&#45;&gt;Node12 -->
<g id="edge13" class="edge">
<title>Node8&#45;&gt;Node12</title>
<path fill="none" stroke="#63b8ff" d="M255.42,-164.98C275.55,-156.38 306.88,-142.99 329.91,-133.15"/>
<polygon fill="#63b8ff" stroke="#63b8ff" points="331.4,-136.32 339.21,-129.17 328.64,-129.88 331.4,-136.32"/>
</g>
<!-- Node11 -->
<g id="node11" class="node">
<title>Node11</title>
<g id="a_node11"><a xlink:href="list_8h.html" target="_top" xlink:title=" ">
<polygon fill="white" stroke="#666666" points="277,-74 218,-74 218,-55 277,-55 277,-74"/>
<text text-anchor="middle" x="247.5" y="-62" font-family="Helvetica,sans-Serif" font-size="10.00">my/list.h</text>
</a>
</g>
</g>
<!-- Node10&#45;&gt;Node11 -->
<g id="edge11" class="edge">
<title>Node10&#45;&gt;Node11</title>
<path fill="none" stroke="#63b8ff" d="M283.4,-109.75C277.33,-102.26 268.41,-91.28 260.99,-82.13"/>
<polygon fill="#63b8ff" stroke="#63b8ff" points="263.49,-79.65 254.47,-74.09 258.05,-84.06 263.49,-79.65"/>
</g>
<!-- Node11&#45;&gt;Node7 -->
<g id="edge12" class="edge">
<title>Node11&#45;&gt;Node7</title>
<path fill="none" stroke="#63b8ff" d="M231.43,-54.98C215.64,-46.61 191.28,-33.7 172.87,-23.95"/>
<polygon fill="#63b8ff" stroke="#63b8ff" points="174.33,-20.76 163.86,-19.17 171.06,-26.95 174.33,-20.76"/>
</g>
</g>
</svg>
