<?xml version="1.0" encoding="UTF-8" standalone="no"?>
<!DOCTYPE svg PUBLIC "-//W3C//DTD SVG 1.1//EN"
 "http://www.w3.org/Graphics/SVG/1.1/DTD/svg11.dtd">
<!-- Generated by graphviz version 2.43.0 (0)
 -->
<!-- Title: src/parser/tokens/parse_sequence_start.c Pages: 1 -->
<svg width="275pt" height="313pt"
 viewBox="0.00 0.00 274.50 313.00" xmlns="http://www.w3.org/2000/svg" xmlns:xlink="http://www.w3.org/1999/xlink">
<g id="graph0" class="graph" transform="scale(1 1) rotate(0) translate(4 309)">
<title>src/parser/tokens/parse_sequence_start.c</title>
<!-- Node1 -->
<g id="node1" class="node">
<title>Node1</title>
<g id="a_node1"><a xlink:title=" ">
<polygon fill="#999999" stroke="#666666" points="186,-305 56,-305 56,-275 186,-275 186,-305"/>
<text text-anchor="start" x="64" y="-293" font-family="Helvetica,sans-Serif" font-size="10.00">src/parser/tokens/parse</text>
<text text-anchor="middle" x="121" y="-282" font-family="Helvetica,sans-Serif" font-size="10.00">_sequence_start.c</text>
</a>
</g>
</g>
<!-- Node2 -->
<g id="node2" class="node">
<title>Node2</title>
<g id="a_node2"><a xlink:title=" ">
<polygon fill="#e0e0e0" stroke="#999999" points="64.5,-239 11.5,-239 11.5,-220 64.5,-220 64.5,-239"/>
<text text-anchor="middle" x="38" y="-227" font-family="Helvetica,sans-Serif" font-size="10.00">string.h</text>
</a>
</g>
</g>
<!-- Node1&#45;&gt;Node2 -->
<g id="edge1" class="edge">
<title>Node1&#45;&gt;Node2</title>
<path fill="none" stroke="#63b8ff" d="M100.91,-274.84C88.12,-265.83 71.6,-254.18 58.7,-245.09"/>
<polygon fill="#63b8ff" stroke="#63b8ff" points="60.63,-242.17 50.44,-239.27 56.59,-247.89 60.63,-242.17"/>
</g>
<!-- Node3 -->
<g id="node3" class="node">
<title>Node3</title>
<g id="a_node3"><a xlink:href="ast_8h.html" target="_top" xlink:title=" ">
<polygon fill="white" stroke="#666666" points="106.5,-184 65.5,-184 65.5,-165 106.5,-165 106.5,-184"/>
<text text-anchor="middle" x="86" y="-172" font-family="Helvetica,sans-Serif" font-size="10.00">ast.h</text>
</a>
</g>
</g>
<!-- Node1&#45;&gt;Node3 -->
<g id="edge2" class="edge">
<title>Node1&#45;&gt;Node3</title>
<path fill="none" stroke="#63b8ff" d="M116.57,-274.63C110.24,-254.12 98.63,-216.47 91.68,-193.93"/>
<polygon fill="#63b8ff" stroke="#63b8ff" points="94.98,-192.75 88.69,-184.23 88.29,-194.82 94.98,-192.75"/>
</g>
<!-- Node5 -->
<g id="node5" class="node">
<title>Node5</title>
<g id="a_node5"><a xlink:href="parser_8h.html" target="_top" xlink:title=" ">
<polygon fill="white" stroke="#666666" points="177,-239 121,-239 121,-220 177,-220 177,-239"/>
<text text-anchor="middle" x="149" y="-227" font-family="Helvetica,sans-Serif" font-size="10.00">parser.h</text>
</a>
</g>
</g>
<!-- Node1&#45;&gt;Node5 -->
<g id="edge4" class="edge">
<title>Node1&#45;&gt;Node5</title>
<path fill="none" stroke="#63b8ff" d="M127.78,-274.84C131.59,-266.87 136.39,-256.84 140.46,-248.33"/>
<polygon fill="#63b8ff" stroke="#63b8ff" points="143.64,-249.8 144.8,-239.27 137.33,-246.77 143.64,-249.8"/>
</g>
<!-- Node10 -->
<g id="node10" class="node">
<title>Node10</title>
<g id="a_node10"><a xlink:href="token_8h.html" target="_top" xlink:title=" ">
<polygon fill="white" stroke="#666666" points="266.5,-129 213.5,-129 213.5,-110 266.5,-110 266.5,-129"/>
<text text-anchor="middle" x="240" y="-117" font-family="Helvetica,sans-Serif" font-size="10.00">token.h</text>
</a>
</g>
</g>
<!-- Node1&#45;&gt;Node10 -->
<g id="edge14" class="edge">
<title>Node1&#45;&gt;Node10</title>
<path fill="none" stroke="#63b8ff" d="M144.68,-274.91C158.16,-265.96 174.58,-253.38 186,-239 210.76,-207.84 227,-163.5 234.73,-138.84"/>
<polygon fill="#63b8ff" stroke="#63b8ff" points="238.16,-139.6 237.69,-129.01 231.46,-137.58 238.16,-139.6"/>
</g>
<!-- Node4 -->
<g id="node4" class="node">
<title>Node4</title>
<g id="a_node4"><a xlink:title=" ">
<polygon fill="#e0e0e0" stroke="#999999" points="56,-19 0,-19 0,0 56,0 56,-19"/>
<text text-anchor="middle" x="28" y="-7" font-family="Helvetica,sans-Serif" font-size="10.00">stddef.h</text>
</a>
</g>
</g>
<!-- Node3&#45;&gt;Node4 -->
<g id="edge3" class="edge">
<title>Node3&#45;&gt;Node4</title>
<path fill="none" stroke="#63b8ff" d="M65.39,-167.09C48.22,-160.54 24.88,-148.51 14,-129 -3.75,-97.16 9.51,-53.11 19.54,-28.67"/>
<polygon fill="#63b8ff" stroke="#63b8ff" points="22.88,-29.78 23.67,-19.21 16.46,-26.98 22.88,-29.78"/>
</g>
<!-- Node5&#45;&gt;Node3 -->
<g id="edge5" class="edge">
<title>Node5&#45;&gt;Node3</title>
<path fill="none" stroke="#63b8ff" d="M138.88,-219.98C129.56,-212.15 115.53,-200.34 104.26,-190.86"/>
<polygon fill="#63b8ff" stroke="#63b8ff" points="106.21,-187.93 96.31,-184.17 101.71,-193.29 106.21,-187.93"/>
</g>
<!-- Node6 -->
<g id="node6" class="node">
<title>Node6</title>
<g id="a_node6"><a xlink:href="lexer_8h.html" target="_top" xlink:title=" ">
<polygon fill="white" stroke="#666666" points="173.5,-184 124.5,-184 124.5,-165 173.5,-165 173.5,-184"/>
<text text-anchor="middle" x="149" y="-172" font-family="Helvetica,sans-Serif" font-size="10.00">lexer.h</text>
</a>
</g>
</g>
<!-- Node5&#45;&gt;Node6 -->
<g id="edge6" class="edge">
<title>Node5&#45;&gt;Node6</title>
<path fill="none" stroke="#63b8ff" d="M149,-219.75C149,-212.8 149,-202.85 149,-194.13"/>
<polygon fill="#63b8ff" stroke="#63b8ff" points="152.5,-194.09 149,-184.09 145.5,-194.09 152.5,-194.09"/>
</g>
<!-- Node5&#45;&gt;Node10 -->
<g id="edge13" class="edge">
<title>Node5&#45;&gt;Node10</title>
<path fill="none" stroke="#63b8ff" d="M156.45,-219.66C171.65,-201.61 206.48,-160.28 226.03,-137.08"/>
<polygon fill="#63b8ff" stroke="#63b8ff" points="228.94,-139.06 232.7,-129.16 223.58,-134.55 228.94,-139.06"/>
</g>
<!-- Node6&#45;&gt;Node4 -->
<g id="edge7" class="edge">
<title>Node6&#45;&gt;Node4</title>
<path fill="none" stroke="#63b8ff" d="M124.17,-165.73C97.28,-156.8 56.88,-141.75 47,-129 24.42,-99.86 23.98,-54.41 25.86,-29.1"/>
<polygon fill="#63b8ff" stroke="#63b8ff" points="29.35,-29.31 26.81,-19.02 22.38,-28.65 29.35,-29.31"/>
</g>
<!-- Node7 -->
<g id="node7" class="node">
<title>Node7</title>
<g id="a_node7"><a xlink:title=" ">
<polygon fill="#e0e0e0" stroke="#999999" points="128,-129 56,-129 56,-110 128,-110 128,-129"/>
<text text-anchor="middle" x="92" y="-117" font-family="Helvetica,sans-Serif" font-size="10.00">sys/types.h</text>
</a>
</g>
</g>
<!-- Node6&#45;&gt;Node7 -->
<g id="edge8" class="edge">
<title>Node6&#45;&gt;Node7</title>
<path fill="none" stroke="#63b8ff" d="M139.84,-164.98C131.5,-157.23 118.97,-145.58 108.82,-136.14"/>
<polygon fill="#63b8ff" stroke="#63b8ff" points="111.03,-133.42 101.32,-129.17 106.26,-138.54 111.03,-133.42"/>
</g>
<!-- Node8 -->
<g id="node8" class="node">
<title>Node8</title>
<g id="a_node8"><a xlink:href="shell_8h.html" target="_top" xlink:title=" ">
<polygon fill="white" stroke="#666666" points="195.5,-129 146.5,-129 146.5,-110 195.5,-110 195.5,-129"/>
<text text-anchor="middle" x="171" y="-117" font-family="Helvetica,sans-Serif" font-size="10.00">shell.h</text>
</a>
</g>
</g>
<!-- Node6&#45;&gt;Node8 -->
<g id="edge9" class="edge">
<title>Node6&#45;&gt;Node8</title>
<path fill="none" stroke="#63b8ff" d="M152.63,-164.75C155.58,-157.65 159.83,-147.4 163.51,-138.56"/>
<polygon fill="#63b8ff" stroke="#63b8ff" points="166.83,-139.67 167.43,-129.09 160.37,-136.98 166.83,-139.67"/>
</g>
<!-- Node6&#45;&gt;Node10 -->
<g id="edge12" class="edge">
<title>Node6&#45;&gt;Node10</title>
<path fill="none" stroke="#63b8ff" d="M163.62,-164.98C177.86,-156.69 199.75,-143.94 216.45,-134.22"/>
<polygon fill="#63b8ff" stroke="#63b8ff" points="218.23,-137.23 225.11,-129.17 214.71,-131.18 218.23,-137.23"/>
</g>
<!-- Node9 -->
<g id="node9" class="node">
<title>Node9</title>
<g id="a_node9"><a xlink:href="list_8h.html" target="_top" xlink:title=" ">
<polygon fill="white" stroke="#666666" points="157.5,-74 98.5,-74 98.5,-55 157.5,-55 157.5,-74"/>
<text text-anchor="middle" x="128" y="-62" font-family="Helvetica,sans-Serif" font-size="10.00">my/list.h</text>
</a>
</g>
</g>
<!-- Node8&#45;&gt;Node9 -->
<g id="edge10" class="edge">
<title>Node8&#45;&gt;Node9</title>
<path fill="none" stroke="#63b8ff" d="M163.9,-109.75C157.83,-102.26 148.91,-91.28 141.49,-82.13"/>
<polygon fill="#63b8ff" stroke="#63b8ff" points="143.99,-79.65 134.97,-74.09 138.55,-84.06 143.99,-79.65"/>
</g>
<!-- Node9&#45;&gt;Node4 -->
<g id="edge11" class="edge">
<title>Node9&#45;&gt;Node4</title>
<path fill="none" stroke="#63b8ff" d="M111.93,-54.98C96.14,-46.61 71.78,-33.7 53.37,-23.95"/>
<polygon fill="#63b8ff" stroke="#63b8ff" points="54.83,-20.76 44.36,-19.17 51.56,-26.95 54.83,-20.76"/>
</g>
</g>
</svg>
