<?xml version="1.0" encoding="UTF-8" standalone="no"?>
<!DOCTYPE svg PUBLIC "-//W3C//DTD SVG 1.1//EN"
 "http://www.w3.org/Graphics/SVG/1.1/DTD/svg11.dtd">
<!-- Generated by graphviz version 2.43.0 (0)
 -->
<!-- Title: parse_command_tokens Pages: 1 -->
<svg width="1922pt" height="905pt"
 viewBox="0.00 0.00 1922.00 904.91" xmlns="http://www.w3.org/2000/svg" xmlns:xlink="http://www.w3.org/1999/xlink">
<g id="graph0" class="graph" transform="scale(1 1) rotate(0) translate(4 900.91)">
<title>parse_command_tokens</title>
<!-- Node1 -->
<g id="node1" class="node">
<title>Node1</title>
<g id="a_node1"><a xlink:title=" ">
<polygon fill="#999999" stroke="#666666" points="135,-435.91 0,-435.91 0,-416.91 135,-416.91 135,-435.91"/>
<text text-anchor="middle" x="67.5" y="-423.91" font-family="Helvetica,sans-Serif" font-size="10.00">parse_command_tokens</text>
</a>
</g>
</g>
<!-- Node2 -->
<g id="node2" class="node">
<title>Node2</title>
<g id="a_node2"><a xlink:href="parse__command_8c.html#a0e3a99ca004123ac0d21254878ed52b9" target="_top" xlink:title=" ">
<polygon fill="white" stroke="#666666" points="288,-472.91 188,-472.91 188,-453.91 288,-453.91 288,-472.91"/>
<text text-anchor="middle" x="238" y="-460.91" font-family="Helvetica,sans-Serif" font-size="10.00">is_redirect_token</text>
</a>
</g>
</g>
<!-- Node1&#45;&gt;Node2 -->
<g id="edge1" class="edge">
<title>Node1&#45;&gt;Node2</title>
<path fill="none" stroke="#63b8ff" d="M111.89,-435.94C133.72,-440.73 160.38,-446.58 183.47,-451.65"/>
<polygon fill="#63b8ff" stroke="#63b8ff" points="182.94,-455.12 193.46,-453.85 184.44,-448.28 182.94,-455.12"/>
</g>
<!-- Node3 -->
<g id="node3" class="node">
<title>Node3</title>
<g id="a_node3"><a xlink:href="parse__command_8c.html#a4266be6fcfc7d05d42f865fa0cf07412" target="_top" xlink:title=" ">
<polygon fill="white" stroke="#666666" points="305,-435.91 171,-435.91 171,-416.91 305,-416.91 305,-435.91"/>
<text text-anchor="middle" x="238" y="-423.91" font-family="Helvetica,sans-Serif" font-size="10.00">parse_redirection_token</text>
</a>
</g>
</g>
<!-- Node1&#45;&gt;Node3 -->
<g id="edge2" class="edge">
<title>Node1&#45;&gt;Node3</title>
<path fill="none" stroke="#63b8ff" d="M135.1,-426.41C143.56,-426.41 152.27,-426.41 160.87,-426.41"/>
<polygon fill="#63b8ff" stroke="#63b8ff" points="160.89,-429.91 170.89,-426.41 160.89,-422.91 160.89,-429.91"/>
</g>
<!-- Node135 -->
<g id="node46" class="node">
<title>Node135</title>
<g id="a_node46"><a xlink:href="parse__command_8c.html#a9e6378c3e784ff75e9265f1dec09190b" target="_top" xlink:title=" ">
<polygon fill="white" stroke="#666666" points="290.5,-398.91 185.5,-398.91 185.5,-379.91 290.5,-379.91 290.5,-398.91"/>
<text text-anchor="middle" x="238" y="-386.91" font-family="Helvetica,sans-Serif" font-size="10.00">parse_word_token</text>
</a>
</g>
</g>
<!-- Node1&#45;&gt;Node135 -->
<g id="edge68" class="edge">
<title>Node1&#45;&gt;Node135</title>
<path fill="none" stroke="#63b8ff" d="M111.89,-416.88C133.72,-412.09 160.38,-406.23 183.47,-401.16"/>
<polygon fill="#63b8ff" stroke="#63b8ff" points="184.44,-404.53 193.46,-398.97 182.94,-397.69 184.44,-404.53"/>
</g>
<!-- Node4 -->
<g id="node4" class="node">
<title>Node4</title>
<g id="a_node4"><a xlink:href="list_8h.html#a18e592f6f160bc93dbb7e5d788a6f2e1" target="_top" xlink:title=" ">
<polygon fill="white" stroke="#666666" points="455,-474.91 341,-474.91 341,-455.91 455,-455.91 455,-474.91"/>
<text text-anchor="middle" x="398" y="-462.91" font-family="Helvetica,sans-Serif" font-size="10.00">my_add_to_list_end</text>
</a>
</g>
</g>
<!-- Node3&#45;&gt;Node4 -->
<g id="edge3" class="edge">
<title>Node3&#45;&gt;Node4</title>
<path fill="none" stroke="#63b8ff" d="M277.65,-435.95C299.06,-441.23 325.87,-447.85 348.65,-453.47"/>
<polygon fill="#63b8ff" stroke="#63b8ff" points="347.93,-456.9 358.47,-455.9 349.6,-450.1 347.93,-456.9"/>
</g>
<!-- Node5 -->
<g id="node5" class="node">
<title>Node5</title>
<g id="a_node5"><a xlink:href="parser__next_8c.html#ad25986b565a767c6ad7d0b0b8846fca6" target="_top" xlink:title=" ">
<polygon fill="white" stroke="#666666" points="435,-398.91 361,-398.91 361,-379.91 435,-379.91 435,-398.91"/>
<text text-anchor="middle" x="398" y="-386.91" font-family="Helvetica,sans-Serif" font-size="10.00">parser_next</text>
</a>
</g>
</g>
<!-- Node3&#45;&gt;Node5 -->
<g id="edge4" class="edge">
<title>Node3&#45;&gt;Node5</title>
<path fill="none" stroke="#63b8ff" d="M279.69,-416.88C301.41,-411.79 328.24,-405.51 350.75,-400.24"/>
<polygon fill="#63b8ff" stroke="#63b8ff" points="351.82,-403.58 360.76,-397.89 350.23,-396.77 351.82,-403.58"/>
</g>
<!-- Node91 -->
<g id="node45" class="node">
<title>Node91</title>
<g id="a_node45"><a xlink:href="parser__set__error_8c.html#adcfabdb026b94fdbe4b6cbf5cb16522a" target="_top" xlink:title=" ">
<polygon fill="white" stroke="#666666" points="737.5,-361.91 641.5,-361.91 641.5,-342.91 737.5,-342.91 737.5,-361.91"/>
<text text-anchor="middle" x="689.5" y="-349.91" font-family="Helvetica,sans-Serif" font-size="10.00">parser_set_error</text>
</a>
</g>
</g>
<!-- Node3&#45;&gt;Node91 -->
<g id="edge67" class="edge">
<title>Node3&#45;&gt;Node91</title>
<path fill="none" stroke="#63b8ff" d="M295.69,-435.93C367.9,-445.35 494.85,-452.71 591,-408.41 612.13,-398.67 607.15,-382.54 627,-370.41 629.67,-368.78 632.49,-367.29 635.4,-365.93"/>
<polygon fill="#63b8ff" stroke="#63b8ff" points="637,-369.06 644.92,-362.02 634.34,-362.58 637,-369.06"/>
</g>
<!-- Node6 -->
<g id="node6" class="node">
<title>Node6</title>
<g id="a_node6"><a xlink:href="lexer__next__token_8c.html#a3def5432329709fb4df861d90672c510" target="_top" xlink:title=" ">
<polygon fill="white" stroke="#666666" points="591,-579.91 491,-579.91 491,-560.91 591,-560.91 591,-579.91"/>
<text text-anchor="middle" x="541" y="-567.91" font-family="Helvetica,sans-Serif" font-size="10.00">lexer_next_token</text>
</a>
</g>
</g>
<!-- Node5&#45;&gt;Node6 -->
<g id="edge5" class="edge">
<title>Node5&#45;&gt;Node6</title>
<path fill="none" stroke="#63b8ff" d="M409.44,-399.21C421.1,-410.38 440.28,-429.43 455,-447.41 483.9,-482.69 513.16,-527.47 528.68,-552.1"/>
<polygon fill="#63b8ff" stroke="#63b8ff" points="525.83,-554.15 534.1,-560.77 531.77,-550.44 525.83,-554.15"/>
</g>
<!-- Node46 -->
<g id="node44" class="node">
<title>Node46</title>
<g id="a_node44"><a xlink:href="destroy__token_8c.html#ad1a471ee7b1ccb035d769be1152a370c" target="_top" xlink:title=" ">
<polygon fill="white" stroke="#666666" points="584,-398.91 498,-398.91 498,-379.91 584,-379.91 584,-398.91"/>
<text text-anchor="middle" x="541" y="-386.91" font-family="Helvetica,sans-Serif" font-size="10.00">token_destroy</text>
</a>
</g>
</g>
<!-- Node5&#45;&gt;Node46 -->
<g id="edge66" class="edge">
<title>Node5&#45;&gt;Node46</title>
<path fill="none" stroke="#63b8ff" d="M435.31,-389.41C451.27,-389.41 470.32,-389.41 487.76,-389.41"/>
<polygon fill="#63b8ff" stroke="#63b8ff" points="487.81,-392.91 497.81,-389.41 487.81,-385.91 487.81,-392.91"/>
</g>
<!-- Node7 -->
<g id="node7" class="node">
<title>Node7</title>
<g id="a_node7"><a xlink:href="create__token_8c.html#a15bcfc92177012893c626ce7d2d6bb6b" target="_top" xlink:title=" ">
<polygon fill="white" stroke="#666666" points="1048.5,-616.91 968.5,-616.91 968.5,-597.91 1048.5,-597.91 1048.5,-616.91"/>
<text text-anchor="middle" x="1008.5" y="-604.91" font-family="Helvetica,sans-Serif" font-size="10.00">create_token</text>
</a>
</g>
</g>
<!-- Node6&#45;&gt;Node7 -->
<g id="edge6" class="edge">
<title>Node6&#45;&gt;Node7</title>
<path fill="none" stroke="#63b8ff" d="M545.73,-580.13C555.41,-604.1 583.65,-666.54 627,-700.41 686.7,-747.05 713.3,-743.79 788,-756.41 842.78,-765.66 864.32,-783.18 913,-756.41 963.86,-728.44 991.2,-660.24 1001.98,-626.69"/>
<polygon fill="#63b8ff" stroke="#63b8ff" points="1005.33,-627.7 1004.9,-617.11 998.64,-625.65 1005.33,-627.7"/>
</g>
<!-- Node8 -->
<g id="node8" class="node">
<title>Node8</title>
<g id="a_node8"><a xlink:href="lexer__next__token_8c.html#add2e1acaa9518ecf20b6670ad91a5c65" target="_top" xlink:title=" ">
<polygon fill="white" stroke="#666666" points="740.5,-690.91 638.5,-690.91 638.5,-671.91 740.5,-671.91 740.5,-690.91"/>
<text text-anchor="middle" x="689.5" y="-678.91" font-family="Helvetica,sans-Serif" font-size="10.00">get_logical_token</text>
</a>
</g>
</g>
<!-- Node6&#45;&gt;Node8 -->
<g id="edge7" class="edge">
<title>Node6&#45;&gt;Node8</title>
<path fill="none" stroke="#63b8ff" d="M554.74,-580.06C579.96,-599.17 636.45,-641.97 667.34,-665.37"/>
<polygon fill="#63b8ff" stroke="#63b8ff" points="665.6,-668.45 675.68,-671.69 669.82,-662.87 665.6,-668.45"/>
</g>
<!-- Node12 -->
<g id="node12" class="node">
<title>Node12</title>
<g id="a_node12"><a xlink:href="lexer__next__token_8c.html#abcee8a7ba5ea6ca80c0bd7e3dd8d9a32" target="_top" xlink:title=" ">
<polygon fill="white" stroke="#666666" points="750.5,-579.91 628.5,-579.91 628.5,-560.91 750.5,-560.91 750.5,-579.91"/>
<text text-anchor="middle" x="689.5" y="-567.91" font-family="Helvetica,sans-Serif" font-size="10.00">get_redirection_token</text>
</a>
</g>
</g>
<!-- Node6&#45;&gt;Node12 -->
<g id="edge14" class="edge">
<title>Node6&#45;&gt;Node12</title>
<path fill="none" stroke="#63b8ff" d="M591.19,-570.41C599.83,-570.41 608.96,-570.41 618.05,-570.41"/>
<polygon fill="#63b8ff" stroke="#63b8ff" points="618.24,-573.91 628.24,-570.41 618.24,-566.91 618.24,-573.91"/>
</g>
<!-- Node17 -->
<g id="node17" class="node">
<title>Node17</title>
<g id="a_node17"><a xlink:href="lexer__newline_8c.html#a9f60bf18297b9c705fa6cdff027c79fc" target="_top" xlink:title=" ">
<polygon fill="white" stroke="#666666" points="892.5,-487.91 808.5,-487.91 808.5,-468.91 892.5,-468.91 892.5,-487.91"/>
<text text-anchor="middle" x="850.5" y="-475.91" font-family="Helvetica,sans-Serif" font-size="10.00">lexer_newline</text>
</a>
</g>
</g>
<!-- Node6&#45;&gt;Node17 -->
<g id="edge23" class="edge">
<title>Node6&#45;&gt;Node17</title>
<path fill="none" stroke="#63b8ff" d="M574.04,-560.82C629.99,-544.08 745.48,-509.53 807.66,-490.92"/>
<polygon fill="#63b8ff" stroke="#63b8ff" points="808.96,-494.19 817.53,-487.97 806.95,-487.48 808.96,-494.19"/>
</g>
<!-- Node18 -->
<g id="node18" class="node">
<title>Node18</title>
<g id="a_node18"><a xlink:href="lexer__parenthesis_8c.html#a2b13eaa0fee255bea85bd4279f369795" target="_top" xlink:title=" ">
<polygon fill="white" stroke="#666666" points="902,-450.91 799,-450.91 799,-431.91 902,-431.91 902,-450.91"/>
<text text-anchor="middle" x="850.5" y="-438.91" font-family="Helvetica,sans-Serif" font-size="10.00">lexer_parenthesis</text>
</a>
</g>
</g>
<!-- Node6&#45;&gt;Node18 -->
<g id="edge25" class="edge">
<title>Node6&#45;&gt;Node18</title>
<path fill="none" stroke="#63b8ff" d="M551.56,-560.73C566.41,-546.22 596.5,-518.88 627,-503.41 678.64,-477.2 742.82,-460.83 788.96,-451.54"/>
<polygon fill="#63b8ff" stroke="#63b8ff" points="789.67,-454.97 798.81,-449.61 788.32,-448.1 789.67,-454.97"/>
</g>
<!-- Node19 -->
<g id="node19" class="node">
<title>Node19</title>
<g id="a_node19"><a xlink:href="lexer__semicolon_8c.html#a1612109b245d9780427946e4e33b01b7" target="_top" xlink:title=" ">
<polygon fill="white" stroke="#666666" points="737.5,-822.91 641.5,-822.91 641.5,-803.91 737.5,-803.91 737.5,-822.91"/>
<text text-anchor="middle" x="689.5" y="-810.91" font-family="Helvetica,sans-Serif" font-size="10.00">lexer_semicolon</text>
</a>
</g>
</g>
<!-- Node6&#45;&gt;Node19 -->
<g id="edge27" class="edge">
<title>Node6&#45;&gt;Node19</title>
<path fill="none" stroke="#63b8ff" d="M543.02,-580.21C547.04,-614.01 564.77,-727.06 627,-789.41 630.9,-793.31 635.5,-796.6 640.41,-799.36"/>
<polygon fill="#63b8ff" stroke="#63b8ff" points="638.97,-802.54 649.49,-803.78 642.03,-796.25 638.97,-802.54"/>
</g>
<!-- Node20 -->
<g id="node20" class="node">
<title>Node20</title>
<g id="a_node20"><a xlink:href="lexer__word_8c.html#ac2600a9ba16009c4d8c114a118c54955" target="_top" xlink:title=" ">
<polygon fill="white" stroke="#666666" points="724.5,-435.91 654.5,-435.91 654.5,-416.91 724.5,-416.91 724.5,-435.91"/>
<text text-anchor="middle" x="689.5" y="-423.91" font-family="Helvetica,sans-Serif" font-size="10.00">lexer_word</text>
</a>
</g>
</g>
<!-- Node6&#45;&gt;Node20 -->
<g id="edge29" class="edge">
<title>Node6&#45;&gt;Node20</title>
<path fill="none" stroke="#63b8ff" d="M548.46,-560.81C561.69,-541.61 593.44,-497.71 627,-467.41 637.82,-457.64 651.15,-448.46 662.63,-441.28"/>
<polygon fill="#63b8ff" stroke="#63b8ff" points="664.63,-444.16 671.36,-435.97 661,-438.18 664.63,-444.16"/>
</g>
<!-- Node132 -->
<g id="node41" class="node">
<title>Node132</title>
<g id="a_node41"><a xlink:href="lexer__next__token_8c.html#acbf7d728a3a47bb6afba90556ceed465" target="_top" xlink:title=" ">
<polygon fill="white" stroke="#666666" points="728.5,-398.91 650.5,-398.91 650.5,-379.91 728.5,-379.91 728.5,-398.91"/>
<text text-anchor="middle" x="689.5" y="-386.91" font-family="Helvetica,sans-Serif" font-size="10.00">return_token</text>
</a>
</g>
</g>
<!-- Node6&#45;&gt;Node132 -->
<g id="edge63" class="edge">
<title>Node6&#45;&gt;Node132</title>
<path fill="none" stroke="#63b8ff" d="M544.28,-560.73C551.37,-532.74 575.71,-451.05 627,-408.41 631.08,-405.01 635.77,-402.22 640.7,-399.93"/>
<polygon fill="#63b8ff" stroke="#63b8ff" points="642.36,-403.04 650.37,-396.11 639.78,-396.53 642.36,-403.04"/>
</g>
<!-- Node133 -->
<g id="node42" class="node">
<title>Node133</title>
<g id="a_node42"><a xlink:href="lexer__next__token_8c.html#a7f0a2dd2373821667a4d5381e7711aa0" target="_top" xlink:title=" ">
<polygon fill="white" stroke="#666666" points="734,-896.91 645,-896.91 645,-877.91 734,-877.91 734,-896.91"/>
<text text-anchor="middle" x="689.5" y="-884.91" font-family="Helvetica,sans-Serif" font-size="10.00">skip_comment</text>
</a>
</g>
</g>
<!-- Node6&#45;&gt;Node133 -->
<g id="edge64" class="edge">
<title>Node6&#45;&gt;Node133</title>
<path fill="none" stroke="#63b8ff" d="M541.64,-580.05C540.66,-621.23 542.42,-784.17 627,-869.41 629.55,-871.97 632.44,-874.18 635.54,-876.07"/>
<polygon fill="#63b8ff" stroke="#63b8ff" points="634.24,-879.33 644.76,-880.62 637.34,-873.06 634.24,-879.33"/>
</g>
<!-- Node134 -->
<g id="node43" class="node">
<title>Node134</title>
<g id="a_node43"><a xlink:href="lexer__next__token_8c.html#a5b2052471d98cef2998e1367f9bf8f6d" target="_top" xlink:title=" ">
<polygon fill="white" stroke="#666666" points="752,-859.91 627,-859.91 627,-840.91 752,-840.91 752,-859.91"/>
<text text-anchor="middle" x="689.5" y="-847.91" font-family="Helvetica,sans-Serif" font-size="10.00">skip_spaces_and_tabs</text>
</a>
</g>
</g>
<!-- Node6&#45;&gt;Node134 -->
<g id="edge65" class="edge">
<title>Node6&#45;&gt;Node134</title>
<path fill="none" stroke="#63b8ff" d="M542.09,-580.15C543,-618.3 551.54,-759.1 627,-832.41 628.1,-833.47 629.25,-834.48 630.46,-835.42"/>
<polygon fill="#63b8ff" stroke="#63b8ff" points="628.72,-838.46 639.05,-840.84 632.46,-832.54 628.72,-838.46"/>
</g>
<!-- Node9 -->
<g id="node9" class="node">
<title>Node9</title>
<g id="a_node9"><a xlink:href="lexer__logical__and_8c.html#a59e5031d54357d65c6873edc67de2a47" target="_top" xlink:title=" ">
<polygon fill="white" stroke="#666666" points="901,-709.91 800,-709.91 800,-690.91 901,-690.91 901,-709.91"/>
<text text-anchor="middle" x="850.5" y="-697.91" font-family="Helvetica,sans-Serif" font-size="10.00">lexer_logical_and</text>
</a>
</g>
</g>
<!-- Node8&#45;&gt;Node9 -->
<g id="edge8" class="edge">
<title>Node8&#45;&gt;Node9</title>
<path fill="none" stroke="#63b8ff" d="M740.81,-687.42C756.26,-689.27 773.41,-691.32 789.45,-693.23"/>
<polygon fill="#63b8ff" stroke="#63b8ff" points="789.45,-696.76 799.79,-694.47 790.28,-689.81 789.45,-696.76"/>
</g>
<!-- Node10 -->
<g id="node10" class="node">
<title>Node10</title>
<g id="a_node10"><a xlink:href="lexer__logical__or_8c.html#ac3851eaea27bd5774b126b888bdddf93" target="_top" xlink:title=" ">
<polygon fill="white" stroke="#666666" points="897,-672.91 804,-672.91 804,-653.91 897,-653.91 897,-672.91"/>
<text text-anchor="middle" x="850.5" y="-660.91" font-family="Helvetica,sans-Serif" font-size="10.00">lexer_logical_or</text>
</a>
</g>
</g>
<!-- Node8&#45;&gt;Node10 -->
<g id="edge10" class="edge">
<title>Node8&#45;&gt;Node10</title>
<path fill="none" stroke="#63b8ff" d="M740.81,-675.71C757.69,-673.8 776.62,-671.66 793.88,-669.7"/>
<polygon fill="#63b8ff" stroke="#63b8ff" points="794.29,-673.18 803.83,-668.58 793.5,-666.23 794.29,-673.18"/>
</g>
<!-- Node11 -->
<g id="node11" class="node">
<title>Node11</title>
<g id="a_node11"><a xlink:href="lexer__pipe_8c.html#a693816e38802a086de64c09cb7cebeb7" target="_top" xlink:title=" ">
<polygon fill="white" stroke="#666666" points="884,-746.91 817,-746.91 817,-727.91 884,-727.91 884,-746.91"/>
<text text-anchor="middle" x="850.5" y="-734.91" font-family="Helvetica,sans-Serif" font-size="10.00">lexer_pipe</text>
</a>
</g>
</g>
<!-- Node8&#45;&gt;Node11 -->
<g id="edge12" class="edge">
<title>Node8&#45;&gt;Node11</title>
<path fill="none" stroke="#63b8ff" d="M713.54,-691.04C733.16,-699.09 762.2,-710.62 788,-719.41 794.08,-721.48 800.55,-723.53 806.92,-725.47"/>
<polygon fill="#63b8ff" stroke="#63b8ff" points="806.2,-728.9 816.78,-728.4 808.19,-722.2 806.2,-728.9"/>
</g>
<!-- Node9&#45;&gt;Node7 -->
<g id="edge9" class="edge">
<title>Node9&#45;&gt;Node7</title>
<path fill="none" stroke="#63b8ff" d="M892.4,-690.85C899.45,-688.53 906.58,-685.73 913,-682.41 943,-666.87 972.71,-641.14 990.59,-624.23"/>
<polygon fill="#63b8ff" stroke="#63b8ff" points="993.16,-626.61 997.93,-617.15 988.3,-621.57 993.16,-626.61"/>
</g>
<!-- Node10&#45;&gt;Node7 -->
<g id="edge11" class="edge">
<title>Node10&#45;&gt;Node7</title>
<path fill="none" stroke="#63b8ff" d="M886.17,-653.9C894.97,-651.31 904.38,-648.39 913,-645.41 934.39,-638 958.01,-628.5 976.29,-620.85"/>
<polygon fill="#63b8ff" stroke="#63b8ff" points="977.73,-624.04 985.58,-616.93 975.01,-617.59 977.73,-624.04"/>
</g>
<!-- Node11&#45;&gt;Node7 -->
<g id="edge13" class="edge">
<title>Node11&#45;&gt;Node7</title>
<path fill="none" stroke="#63b8ff" d="M884,-731.68C893.84,-728.97 904.33,-725.05 913,-719.41 950.64,-694.89 981.31,-650.92 996.72,-625.99"/>
<polygon fill="#63b8ff" stroke="#63b8ff" points="999.88,-627.53 1002.03,-617.15 993.88,-623.92 999.88,-627.53"/>
</g>
<!-- Node13 -->
<g id="node13" class="node">
<title>Node13</title>
<g id="a_node13"><a xlink:href="lexer__heredoc_8c.html#a9db043b0e8df9ad1155a65a8fcf67c11" target="_top" xlink:title=" ">
<polygon fill="white" stroke="#666666" points="893,-635.91 808,-635.91 808,-616.91 893,-616.91 893,-635.91"/>
<text text-anchor="middle" x="850.5" y="-623.91" font-family="Helvetica,sans-Serif" font-size="10.00">lexer_heredoc</text>
</a>
</g>
</g>
<!-- Node12&#45;&gt;Node13 -->
<g id="edge15" class="edge">
<title>Node12&#45;&gt;Node13</title>
<path fill="none" stroke="#63b8ff" d="M713.54,-580.04C733.16,-588.09 762.2,-599.62 788,-608.41 793.53,-610.29 799.38,-612.16 805.19,-613.94"/>
<polygon fill="#63b8ff" stroke="#63b8ff" points="804.27,-617.32 814.86,-616.84 806.28,-610.61 804.27,-617.32"/>
</g>
<!-- Node14 -->
<g id="node14" class="node">
<title>Node14</title>
<g id="a_node14"><a xlink:href="lexer__redirect__append_8c.html#a09beefbfaf132dbe04add1370a6fb2e3" target="_top" xlink:title=" ">
<polygon fill="white" stroke="#666666" points="913,-598.91 788,-598.91 788,-579.91 913,-579.91 913,-598.91"/>
<text text-anchor="middle" x="850.5" y="-586.91" font-family="Helvetica,sans-Serif" font-size="10.00">lexer_redirect_append</text>
</a>
</g>
</g>
<!-- Node12&#45;&gt;Node14 -->
<g id="edge17" class="edge">
<title>Node12&#45;&gt;Node14</title>
<path fill="none" stroke="#63b8ff" d="M750.61,-577.59C759.49,-578.65 768.72,-579.75 777.81,-580.84"/>
<polygon fill="#63b8ff" stroke="#63b8ff" points="777.64,-584.35 787.98,-582.06 778.47,-577.39 777.64,-584.35"/>
</g>
<!-- Node15 -->
<g id="node15" class="node">
<title>Node15</title>
<g id="a_node15"><a xlink:href="lexer__redirect__in_8c.html#ac723d9668329d99b35003ed2423889e5" target="_top" xlink:title=" ">
<polygon fill="white" stroke="#666666" points="899.5,-561.91 801.5,-561.91 801.5,-542.91 899.5,-542.91 899.5,-561.91"/>
<text text-anchor="middle" x="850.5" y="-549.91" font-family="Helvetica,sans-Serif" font-size="10.00">lexer_redirect_in</text>
</a>
</g>
</g>
<!-- Node12&#45;&gt;Node15 -->
<g id="edge19" class="edge">
<title>Node12&#45;&gt;Node15</title>
<path fill="none" stroke="#63b8ff" d="M750.61,-563.6C764,-562.09 778.16,-560.48 791.46,-558.98"/>
<polygon fill="#63b8ff" stroke="#63b8ff" points="791.89,-562.45 801.44,-557.85 791.11,-555.5 791.89,-562.45"/>
</g>
<!-- Node16 -->
<g id="node16" class="node">
<title>Node16</title>
<g id="a_node16"><a xlink:href="lexer__redirect__out_8c.html#a70e2216639c96030b3861405ae3497c6" target="_top" xlink:title=" ">
<polygon fill="white" stroke="#666666" points="902.5,-524.91 798.5,-524.91 798.5,-505.91 902.5,-505.91 902.5,-524.91"/>
<text text-anchor="middle" x="850.5" y="-512.91" font-family="Helvetica,sans-Serif" font-size="10.00">lexer_redirect_out</text>
</a>
</g>
</g>
<!-- Node12&#45;&gt;Node16 -->
<g id="edge21" class="edge">
<title>Node12&#45;&gt;Node16</title>
<path fill="none" stroke="#63b8ff" d="M715.21,-560.86C734.85,-553.38 763.05,-542.86 788,-534.41 794.4,-532.24 801.21,-530.04 807.87,-527.93"/>
<polygon fill="#63b8ff" stroke="#63b8ff" points="808.97,-531.26 817.47,-524.94 806.89,-524.58 808.97,-531.26"/>
</g>
<!-- Node13&#45;&gt;Node7 -->
<g id="edge16" class="edge">
<title>Node13&#45;&gt;Node7</title>
<path fill="none" stroke="#63b8ff" d="M893.31,-621.32C913.32,-618.88 937.41,-615.94 958.3,-613.4"/>
<polygon fill="#63b8ff" stroke="#63b8ff" points="958.76,-616.87 968.26,-612.19 957.91,-609.92 958.76,-616.87"/>
</g>
<!-- Node14&#45;&gt;Node7 -->
<g id="edge18" class="edge">
<title>Node14&#45;&gt;Node7</title>
<path fill="none" stroke="#63b8ff" d="M913.16,-596.52C928.1,-598.25 943.87,-600.07 958.16,-601.71"/>
<polygon fill="#63b8ff" stroke="#63b8ff" points="957.93,-605.21 968.27,-602.88 958.73,-598.26 957.93,-605.21"/>
</g>
<!-- Node15&#45;&gt;Node7 -->
<g id="edge20" class="edge">
<title>Node15&#45;&gt;Node7</title>
<path fill="none" stroke="#63b8ff" d="M883.86,-561.98C893.3,-564.88 903.6,-568.17 913,-571.41 933.45,-578.45 956.1,-587.05 974.1,-594.08"/>
<polygon fill="#63b8ff" stroke="#63b8ff" points="972.99,-597.41 983.57,-597.8 975.55,-590.89 972.99,-597.41"/>
</g>
<!-- Node16&#45;&gt;Node7 -->
<g id="edge22" class="edge">
<title>Node16&#45;&gt;Node7</title>
<path fill="none" stroke="#63b8ff" d="M890.07,-525C897.87,-527.58 905.86,-530.7 913,-534.41 942.52,-549.73 972.15,-574.52 990.17,-590.89"/>
<polygon fill="#63b8ff" stroke="#63b8ff" points="987.87,-593.53 997.58,-597.75 992.62,-588.39 987.87,-593.53"/>
</g>
<!-- Node17&#45;&gt;Node7 -->
<g id="edge24" class="edge">
<title>Node17&#45;&gt;Node7</title>
<path fill="none" stroke="#63b8ff" d="M892.65,-487.59C899.76,-490.14 906.83,-493.36 913,-497.41 950.17,-521.78 981.02,-564.86 996.59,-589.25"/>
<polygon fill="#63b8ff" stroke="#63b8ff" points="993.7,-591.24 1001.96,-597.88 999.65,-587.54 993.7,-591.24"/>
</g>
<!-- Node18&#45;&gt;Node7 -->
<g id="edge26" class="edge">
<title>Node18&#45;&gt;Node7</title>
<path fill="none" stroke="#63b8ff" d="M896.02,-451.02C902.06,-453.48 907.93,-456.56 913,-460.41 958.15,-494.7 987.74,-557.26 1000.43,-588.54"/>
<polygon fill="#63b8ff" stroke="#63b8ff" points="997.17,-589.83 1004.08,-597.87 1003.69,-587.28 997.17,-589.83"/>
</g>
<!-- Node19&#45;&gt;Node7 -->
<g id="edge28" class="edge">
<title>Node19&#45;&gt;Node7</title>
<path fill="none" stroke="#63b8ff" d="M737.9,-820.49C786.21,-825.1 861.2,-824.82 913,-789.41 970.25,-750.27 995.09,-665.33 1003.69,-626.94"/>
<polygon fill="#63b8ff" stroke="#63b8ff" points="1007.15,-627.53 1005.78,-617.02 1000.3,-626.09 1007.15,-627.53"/>
</g>
<!-- Node20&#45;&gt;Node7 -->
<g id="edge30" class="edge">
<title>Node20&#45;&gt;Node7</title>
<path fill="none" stroke="#63b8ff" d="M719.74,-416.83C764.89,-403.93 852.66,-386.57 913,-423.41 973.1,-460.11 996.58,-548.55 1004.27,-587.93"/>
<polygon fill="#63b8ff" stroke="#63b8ff" points="1000.84,-588.64 1006.08,-597.86 1007.73,-587.39 1000.84,-588.64"/>
</g>
<!-- Node21 -->
<g id="node21" class="node">
<title>Node21</title>
<g id="a_node21"><a xlink:href="lexer__expand__alias_8c.html#a782a761cdb9088ea2b14b7a97eb85377" target="_top" xlink:title=" ">
<polygon fill="white" stroke="#666666" points="905.5,-374.91 795.5,-374.91 795.5,-355.91 905.5,-355.91 905.5,-374.91"/>
<text text-anchor="middle" x="850.5" y="-362.91" font-family="Helvetica,sans-Serif" font-size="10.00">lexer_expand_alias</text>
</a>
</g>
</g>
<!-- Node20&#45;&gt;Node21 -->
<g id="edge31" class="edge">
<title>Node20&#45;&gt;Node21</title>
<path fill="none" stroke="#63b8ff" d="M724.75,-417.7C733.74,-415.06 743.34,-411.92 752,-408.41 768.77,-401.61 771.55,-396.93 788,-389.41 796.25,-385.63 805.29,-381.9 813.83,-378.54"/>
<polygon fill="#63b8ff" stroke="#63b8ff" points="815.12,-381.79 823.19,-374.92 812.6,-375.26 815.12,-381.79"/>
</g>
<!-- Node23 -->
<g id="node23" class="node">
<title>Node23</title>
<g id="a_node23"><a xlink:href="lexer__word_8c.html#a17ec284a75275629329e3d5699a635d7" target="_top" xlink:title=" ">
<polygon fill="white" stroke="#666666" points="1057,-336.91 960,-336.91 960,-317.91 1057,-317.91 1057,-336.91"/>
<text text-anchor="middle" x="1008.5" y="-324.91" font-family="Helvetica,sans-Serif" font-size="10.00">lexer_read_word</text>
</a>
</g>
</g>
<!-- Node20&#45;&gt;Node23 -->
<g id="edge62" class="edge">
<title>Node20&#45;&gt;Node23</title>
<path fill="none" stroke="#63b8ff" d="M724.6,-421.31C734.18,-418.64 744.12,-414.58 752,-408.41 777.08,-388.75 761.1,-363.48 788,-346.41 836.14,-315.85 902.64,-314.44 949.79,-318.59"/>
<polygon fill="#63b8ff" stroke="#63b8ff" points="949.55,-322.08 959.85,-319.58 950.24,-315.12 949.55,-322.08"/>
</g>
<!-- Node22 -->
<g id="node22" class="node">
<title>Node22</title>
<g id="a_node22"><a xlink:href="get__variable_8c.html#a569170390f0edf013bf89c26ef55ea8c" target="_top" xlink:title=" ">
<polygon fill="white" stroke="#666666" points="1731,-373.91 1654,-373.91 1654,-354.91 1731,-354.91 1731,-373.91"/>
<text text-anchor="middle" x="1692.5" y="-361.91" font-family="Helvetica,sans-Serif" font-size="10.00">get_variable</text>
</a>
</g>
</g>
<!-- Node21&#45;&gt;Node22 -->
<g id="edge32" class="edge">
<title>Node21&#45;&gt;Node22</title>
<path fill="none" stroke="#63b8ff" d="M901.08,-374.94C962.53,-385.9 1070.58,-402.41 1164,-402.41 1164,-402.41 1164,-402.41 1337,-402.41 1447.39,-402.41 1576.02,-383.97 1643.9,-372.78"/>
<polygon fill="#63b8ff" stroke="#63b8ff" points="1644.58,-376.21 1653.87,-371.11 1643.43,-369.31 1644.58,-376.21"/>
</g>
<!-- Node21&#45;&gt;Node23 -->
<g id="edge33" class="edge">
<title>Node21&#45;&gt;Node23</title>
<path fill="none" stroke="#63b8ff" d="M890.87,-355.82C911.45,-350.8 936.84,-344.62 958.67,-339.3"/>
<polygon fill="#63b8ff" stroke="#63b8ff" points="959.53,-342.7 968.42,-336.93 957.87,-335.89 959.53,-342.7"/>
</g>
<!-- Node130 -->
<g id="node39" class="node">
<title>Node130</title>
<g id="a_node39"><a xlink:href="lexer__expand__alias_8c.html#a98f32d0d302fe57a01c46b72c25132a1" target="_top" xlink:title=" ">
<polygon fill="white" stroke="#666666" points="1206,-449.91 1124,-449.91 1124,-430.91 1206,-430.91 1206,-449.91"/>
<text text-anchor="middle" x="1165" y="-437.91" font-family="Helvetica,sans-Serif" font-size="10.00">replace_word</text>
</a>
</g>
</g>
<!-- Node21&#45;&gt;Node130 -->
<g id="edge59" class="edge">
<title>Node21&#45;&gt;Node130</title>
<path fill="none" stroke="#63b8ff" d="M880.71,-374.96C891.18,-378.86 902.88,-383.78 913,-389.41 930.48,-399.13 930.41,-409.04 949,-416.41 1002.45,-437.59 1068.85,-442.02 1113.6,-442.16"/>
<polygon fill="#63b8ff" stroke="#63b8ff" points="1113.67,-445.66 1123.65,-442.12 1113.64,-438.66 1113.67,-445.66"/>
</g>
<!-- Node131 -->
<g id="node40" class="node">
<title>Node131</title>
<g id="a_node40"><a xlink:href="lexer__expand__alias_8c.html#ae7957e63e1f19d95a69563aaab318ad4" target="_top" xlink:title=" ">
<polygon fill="white" stroke="#666666" points="1068,-373.91 949,-373.91 949,-354.91 1068,-354.91 1068,-373.91"/>
<text text-anchor="middle" x="1008.5" y="-361.91" font-family="Helvetica,sans-Serif" font-size="10.00">should_expand_alias</text>
</a>
</g>
</g>
<!-- Node21&#45;&gt;Node131 -->
<g id="edge61" class="edge">
<title>Node21&#45;&gt;Node131</title>
<path fill="none" stroke="#63b8ff" d="M905.62,-365.06C916.34,-364.99 927.71,-364.92 938.83,-364.85"/>
<polygon fill="#63b8ff" stroke="#63b8ff" points="938.97,-368.35 948.95,-364.78 938.93,-361.35 938.97,-368.35"/>
</g>
<!-- Node24 -->
<g id="node24" class="node">
<title>Node24</title>
<g id="a_node24"><a xlink:href="lexer__word_8c.html#a730574257743b09386cadd2ccbfe4d13" target="_top" xlink:title=" ">
<polygon fill="white" stroke="#666666" points="1226,-166.91 1104,-166.91 1104,-147.91 1226,-147.91 1226,-166.91"/>
<text text-anchor="middle" x="1165" y="-154.91" font-family="Helvetica,sans-Serif" font-size="10.00">handle_current_token</text>
</a>
</g>
</g>
<!-- Node23&#45;&gt;Node24 -->
<g id="edge34" class="edge">
<title>Node23&#45;&gt;Node24</title>
<path fill="none" stroke="#63b8ff" d="M1018.25,-317.78C1043.42,-290.08 1116.29,-209.9 1148.44,-174.52"/>
<polygon fill="#63b8ff" stroke="#63b8ff" points="1151.21,-176.68 1155.35,-166.93 1146.03,-171.98 1151.21,-176.68"/>
</g>
<!-- Node121 -->
<g id="node36" class="node">
<title>Node121</title>
<g id="a_node36"><a xlink:href="lexer__is__word__separator_8c.html#abccfc6fc0cdbd040fc9a7dcbfd207090" target="_top" xlink:title=" ">
<polygon fill="white" stroke="#666666" points="1760,-317.91 1625,-317.91 1625,-298.91 1760,-298.91 1760,-317.91"/>
<text text-anchor="middle" x="1692.5" y="-305.91" font-family="Helvetica,sans-Serif" font-size="10.00">lexer_is_word_separator</text>
</a>
</g>
</g>
<!-- Node23&#45;&gt;Node121 -->
<g id="edge58" class="edge">
<title>Node23&#45;&gt;Node121</title>
<path fill="none" stroke="#63b8ff" d="M1057.27,-335.12C1156.94,-349.84 1394.03,-377.65 1589,-344.41 1614.25,-340.1 1641.55,-330.24 1661.62,-321.92"/>
<polygon fill="#63b8ff" stroke="#63b8ff" points="1663.02,-325.13 1670.85,-317.99 1660.28,-318.69 1663.02,-325.13"/>
</g>
<!-- Node25 -->
<g id="node25" class="node">
<title>Node25</title>
<g id="a_node25"><a xlink:href="lexer__word_8c.html#acd8f2a3c47fa56f87c2792ccefd2ee3e" target="_top" xlink:title=" ">
<polygon fill="white" stroke="#666666" points="1396.5,-185.91 1275.5,-185.91 1275.5,-166.91 1396.5,-166.91 1396.5,-185.91"/>
<text text-anchor="middle" x="1336" y="-173.91" font-family="Helvetica,sans-Serif" font-size="10.00">handle_double_quote</text>
</a>
</g>
</g>
<!-- Node24&#45;&gt;Node25 -->
<g id="edge35" class="edge">
<title>Node24&#45;&gt;Node25</title>
<path fill="none" stroke="#63b8ff" d="M1226.06,-164.16C1238.71,-165.58 1252.16,-167.09 1265.14,-168.55"/>
<polygon fill="#63b8ff" stroke="#63b8ff" points="1265.09,-172.07 1275.42,-169.71 1265.87,-165.11 1265.09,-172.07"/>
</g>
<!-- Node26 -->
<g id="node26" class="node">
<title>Node26</title>
<g id="a_node26"><a xlink:href="lexer__word_8c.html#a733339142f4677a066646a12a7e5bec4" target="_top" xlink:title=" ">
<polygon fill="white" stroke="#666666" points="1588,-71.91 1447,-71.91 1447,-52.91 1588,-52.91 1588,-71.91"/>
<text text-anchor="middle" x="1517.5" y="-59.91" font-family="Helvetica,sans-Serif" font-size="10.00">handle_escape_sequence</text>
</a>
</g>
</g>
<!-- Node24&#45;&gt;Node26 -->
<g id="edge36" class="edge">
<title>Node24&#45;&gt;Node26</title>
<path fill="none" stroke="#63b8ff" d="M1174.35,-147.79C1189.72,-130.84 1224.37,-96.09 1262,-81.41 1317.62,-59.7 1385.21,-55.58 1436.75,-56.55"/>
<polygon fill="#63b8ff" stroke="#63b8ff" points="1436.75,-60.05 1446.84,-56.81 1436.93,-53.05 1436.75,-60.05"/>
</g>
<!-- Node30 -->
<g id="node29" class="node">
<title>Node30</title>
<g id="a_node29"><a xlink:href="lexer__word_8c.html#a3ae03e49183787e7cf32c90ffdef7351" target="_top" xlink:title=" ">
<polygon fill="white" stroke="#666666" points="1576,-147.91 1459,-147.91 1459,-128.91 1576,-128.91 1576,-147.91"/>
<text text-anchor="middle" x="1517.5" y="-135.91" font-family="Helvetica,sans-Serif" font-size="10.00">handle_single_quote</text>
</a>
</g>
</g>
<!-- Node24&#45;&gt;Node30 -->
<g id="edge39" class="edge">
<title>Node24&#45;&gt;Node30</title>
<path fill="none" stroke="#63b8ff" d="M1226.25,-154.14C1288.12,-150.79 1384.22,-145.58 1448.71,-142.08"/>
<polygon fill="#63b8ff" stroke="#63b8ff" points="1448.98,-145.57 1458.78,-141.54 1448.6,-138.58 1448.98,-145.57"/>
</g>
<!-- Node31 -->
<g id="node30" class="node">
<title>Node31</title>
<g id="a_node30"><a xlink:href="lexer__utils_8c.html#a2ba6f7e43ecbf713c666ab062eac534c" target="_top" xlink:title=" ">
<polygon fill="white" stroke="#666666" points="1410,-109.91 1262,-109.91 1262,-90.91 1410,-90.91 1410,-109.91"/>
<text text-anchor="middle" x="1336" y="-97.91" font-family="Helvetica,sans-Serif" font-size="10.00">lexer_append_current_char</text>
</a>
</g>
</g>
<!-- Node24&#45;&gt;Node31 -->
<g id="edge41" class="edge">
<title>Node24&#45;&gt;Node31</title>
<path fill="none" stroke="#63b8ff" d="M1193.69,-147.78C1212.85,-141.14 1238.95,-132.16 1262,-124.41 1272.94,-120.73 1284.82,-116.8 1295.76,-113.2"/>
<polygon fill="#63b8ff" stroke="#63b8ff" points="1297.08,-116.45 1305.49,-110.01 1294.9,-109.8 1297.08,-116.45"/>
</g>
<!-- Node32 -->
<g id="node31" class="node">
<title>Node32</title>
<g id="a_node31"><a xlink:href="lexer__expand__command__substitution_8c.html#aad26825e6ecc7617687abd601366b15d" target="_top" xlink:title=" ">
<polygon fill="white" stroke="#666666" points="1404,-34.41 1268,-34.41 1268,-4.41 1404,-4.41 1404,-34.41"/>
<text text-anchor="start" x="1276" y="-22.41" font-family="Helvetica,sans-Serif" font-size="10.00">lexer_expand_command</text>
<text text-anchor="middle" x="1336" y="-11.41" font-family="Helvetica,sans-Serif" font-size="10.00">_substitution</text>
</a>
</g>
</g>
<!-- Node24&#45;&gt;Node32 -->
<g id="edge43" class="edge">
<title>Node24&#45;&gt;Node32</title>
<path fill="none" stroke="#63b8ff" d="M1172.06,-147.9C1185.72,-127.14 1220.97,-77.3 1262,-48.41 1266.93,-44.94 1272.33,-41.8 1277.9,-38.99"/>
<polygon fill="#63b8ff" stroke="#63b8ff" points="1279.8,-41.96 1287.37,-34.55 1276.83,-35.62 1279.8,-41.96"/>
</g>
<!-- Node119 -->
<g id="node33" class="node">
<title>Node119</title>
<g id="a_node33"><a xlink:href="lexer__expand__tilde_8c.html#ae3c478a10a2764ee7c7f94b42f28ecaf" target="_top" xlink:title=" ">
<polygon fill="white" stroke="#666666" points="1390.5,-279.91 1281.5,-279.91 1281.5,-260.91 1390.5,-260.91 1390.5,-279.91"/>
<text text-anchor="middle" x="1336" y="-267.91" font-family="Helvetica,sans-Serif" font-size="10.00">lexer_expand_tilde</text>
</a>
</g>
</g>
<!-- Node24&#45;&gt;Node119 -->
<g id="edge48" class="edge">
<title>Node24&#45;&gt;Node119</title>
<path fill="none" stroke="#63b8ff" d="M1177.08,-166.93C1194.5,-181.67 1229.66,-210.51 1262,-231.41 1276.02,-240.47 1292.35,-249.34 1306.01,-256.32"/>
<polygon fill="#63b8ff" stroke="#63b8ff" points="1304.47,-259.47 1314.97,-260.84 1307.62,-253.21 1304.47,-259.47"/>
</g>
<!-- Node122 -->
<g id="node37" class="node">
<title>Node122</title>
<g id="a_node37"><a xlink:href="lexer__expand__variable_8c.html#a01ad90eb8460a612626bb33c9e15cd52" target="_top" xlink:title=" ">
<polygon fill="#fff0f0" stroke="red" points="1399.5,-222.91 1272.5,-222.91 1272.5,-203.91 1399.5,-203.91 1399.5,-222.91"/>
<text text-anchor="middle" x="1336" y="-210.91" font-family="Helvetica,sans-Serif" font-size="10.00">lexer_expand_variable</text>
</a>
</g>
</g>
<!-- Node24&#45;&gt;Node122 -->
<g id="edge54" class="edge">
<title>Node24&#45;&gt;Node122</title>
<path fill="none" stroke="#63b8ff" d="M1188.63,-166.96C1207.92,-174.91 1236.49,-186.2 1262,-194.41 1269.45,-196.8 1277.4,-199.12 1285.21,-201.26"/>
<polygon fill="#63b8ff" stroke="#63b8ff" points="1284.42,-204.67 1294.98,-203.86 1286.22,-197.9 1284.42,-204.67"/>
</g>
<!-- Node27 -->
<g id="node27" class="node">
<title>Node27</title>
<g id="a_node27"><a xlink:href="lexer__utils_8c.html#abf1c1b3b6033c8f9c8d1b11cc9e14f75" target="_top" xlink:title=" ">
<polygon fill="#fff0f0" stroke="red" points="1742.5,-128.91 1642.5,-128.91 1642.5,-109.91 1742.5,-109.91 1742.5,-128.91"/>
<text text-anchor="middle" x="1692.5" y="-116.91" font-family="Helvetica,sans-Serif" font-size="10.00">lexer_append_str</text>
</a>
</g>
</g>
<!-- Node26&#45;&gt;Node27 -->
<g id="edge37" class="edge">
<title>Node26&#45;&gt;Node27</title>
<path fill="none" stroke="#63b8ff" d="M1547.46,-71.95C1576.27,-81.44 1620.68,-96.07 1652.57,-106.58"/>
<polygon fill="#63b8ff" stroke="#63b8ff" points="1651.86,-110.03 1662.45,-109.84 1654.05,-103.38 1651.86,-110.03"/>
</g>
<!-- Node29 -->
<g id="node28" class="node">
<title>Node29</title>
<g id="a_node28"><a xlink:href="lexer__utils_8c.html#a84e8d5514cfe03a20152ad26f170211f" target="_top" xlink:title=" ">
<polygon fill="white" stroke="#666666" points="1914,-128.91 1796,-128.91 1796,-109.91 1914,-109.91 1914,-128.91"/>
<text text-anchor="middle" x="1855" y="-116.91" font-family="Helvetica,sans-Serif" font-size="10.00">lexer_set_alloc_error</text>
</a>
</g>
</g>
<!-- Node27&#45;&gt;Node29 -->
<g id="edge38" class="edge">
<title>Node27&#45;&gt;Node29</title>
<path fill="none" stroke="#63b8ff" d="M1742.53,-119.41C1756.1,-119.41 1771.09,-119.41 1785.55,-119.41"/>
<polygon fill="#63b8ff" stroke="#63b8ff" points="1785.97,-122.91 1795.97,-119.41 1785.97,-115.91 1785.97,-122.91"/>
</g>
<!-- Node30&#45;&gt;Node27 -->
<g id="edge40" class="edge">
<title>Node30&#45;&gt;Node27</title>
<path fill="none" stroke="#63b8ff" d="M1576.11,-132.08C1594.1,-130.1 1613.98,-127.92 1632.1,-125.93"/>
<polygon fill="#63b8ff" stroke="#63b8ff" points="1632.69,-129.39 1642.25,-124.82 1631.92,-122.43 1632.69,-129.39"/>
</g>
<!-- Node31&#45;&gt;Node27 -->
<g id="edge42" class="edge">
<title>Node31&#45;&gt;Node27</title>
<path fill="none" stroke="#63b8ff" d="M1410.02,-104.32C1475.74,-107.84 1571.11,-112.96 1632.22,-116.23"/>
<polygon fill="#63b8ff" stroke="#63b8ff" points="1632.29,-119.74 1642.47,-116.78 1632.67,-112.75 1632.29,-119.74"/>
</g>
<!-- Node32&#45;&gt;Node29 -->
<g id="edge47" class="edge">
<title>Node32&#45;&gt;Node29</title>
<path fill="none" stroke="#63b8ff" d="M1404.05,-10.14C1417.89,-8.59 1432.4,-7.22 1446,-6.41 1586.61,1.95 1632.75,11 1760,-49.41 1789.07,-63.21 1818.09,-86.66 1836.03,-102.59"/>
<polygon fill="#63b8ff" stroke="#63b8ff" points="1834.14,-105.6 1843.9,-109.72 1838.84,-100.41 1834.14,-105.6"/>
</g>
<!-- Node33 -->
<g id="node32" class="node">
<title>Node33</title>
<g id="a_node32"><a xlink:href="lexer__expand__command__substitution_8c.html#ad31353a5e4ff94d4ffc515367ef29625" target="_top" xlink:title=" ">
<polygon fill="#fff0f0" stroke="red" points="1589,-34.91 1446,-34.91 1446,-15.91 1589,-15.91 1589,-34.91"/>
<text text-anchor="middle" x="1517.5" y="-22.91" font-family="Helvetica,sans-Serif" font-size="10.00">append_command_output</text>
</a>
</g>
</g>
<!-- Node32&#45;&gt;Node33 -->
<g id="edge44" class="edge">
<title>Node32&#45;&gt;Node33</title>
<path fill="none" stroke="#63b8ff" d="M1404.09,-21.65C1414.43,-22 1425.2,-22.36 1435.8,-22.71"/>
<polygon fill="#63b8ff" stroke="#63b8ff" points="1435.78,-26.21 1445.89,-23.05 1436.01,-19.22 1435.78,-26.21"/>
</g>
<!-- Node33&#45;&gt;Node27 -->
<g id="edge45" class="edge">
<title>Node33&#45;&gt;Node27</title>
<path fill="none" stroke="#63b8ff" d="M1569.01,-34.95C1575.94,-37.21 1582.8,-40 1589,-43.41 1608.28,-54.02 1607.61,-63.91 1625,-77.41 1637.85,-87.38 1653.13,-97.16 1665.81,-104.78"/>
<polygon fill="#63b8ff" stroke="#63b8ff" points="1664.11,-107.84 1674.5,-109.91 1667.67,-101.81 1664.11,-107.84"/>
</g>
<!-- Node33&#45;&gt;Node29 -->
<g id="edge46" class="edge">
<title>Node33&#45;&gt;Node29</title>
<path fill="none" stroke="#63b8ff" d="M1556.61,-34.92C1567.12,-37.6 1578.51,-40.57 1589,-43.41 1668.04,-64.83 1759.8,-91.56 1811.97,-106.94"/>
<polygon fill="#63b8ff" stroke="#63b8ff" points="1811.28,-110.39 1821.86,-109.86 1813.26,-103.67 1811.28,-110.39"/>
</g>
<!-- Node119&#45;&gt;Node27 -->
<g id="edge51" class="edge">
<title>Node119&#45;&gt;Node27</title>
<path fill="none" stroke="#63b8ff" d="M1384.26,-260.86C1436.25,-249.26 1521.4,-226.98 1589,-193.41 1620.68,-177.68 1653.09,-152.43 1672.76,-135.88"/>
<polygon fill="#63b8ff" stroke="#63b8ff" points="1675.29,-138.32 1680.61,-129.16 1670.74,-133 1675.29,-138.32"/>
</g>
<!-- Node58 -->
<g id="node34" class="node">
<title>Node58</title>
<g id="a_node34"><a xlink:href="get__variable__value_8c.html#a2edd9900f19af236aa05385a789be3d6" target="_top" xlink:title=" ">
<polygon fill="white" stroke="#666666" points="1572.5,-335.91 1462.5,-335.91 1462.5,-316.91 1572.5,-316.91 1572.5,-335.91"/>
<text text-anchor="middle" x="1517.5" y="-323.91" font-family="Helvetica,sans-Serif" font-size="10.00">get_variable_value</text>
</a>
</g>
</g>
<!-- Node119&#45;&gt;Node58 -->
<g id="edge49" class="edge">
<title>Node119&#45;&gt;Node58</title>
<path fill="none" stroke="#63b8ff" d="M1363.72,-280.01C1385.69,-287.78 1417.7,-298.8 1446,-307.41 1453.59,-309.72 1461.68,-312.03 1469.58,-314.21"/>
<polygon fill="#63b8ff" stroke="#63b8ff" points="1468.85,-317.64 1479.42,-316.89 1470.69,-310.89 1468.85,-317.64"/>
</g>
<!-- Node120 -->
<g id="node35" class="node">
<title>Node120</title>
<g id="a_node35"><a xlink:href="lexer__expand__tilde_8c.html#aa4231a41b1e79447d6a70db7b075f937" target="_top" xlink:title=" ">
<polygon fill="white" stroke="#666666" points="1576,-298.91 1459,-298.91 1459,-279.91 1576,-279.91 1576,-298.91"/>
<text text-anchor="middle" x="1517.5" y="-286.91" font-family="Helvetica,sans-Serif" font-size="10.00">should_expand_tilde</text>
</a>
</g>
</g>
<!-- Node119&#45;&gt;Node120 -->
<g id="edge52" class="edge">
<title>Node119&#45;&gt;Node120</title>
<path fill="none" stroke="#63b8ff" d="M1390.86,-276.11C1409.06,-278.04 1429.63,-280.21 1448.77,-282.24"/>
<polygon fill="#63b8ff" stroke="#63b8ff" points="1448.62,-285.74 1458.93,-283.31 1449.36,-278.78 1448.62,-285.74"/>
</g>
<!-- Node58&#45;&gt;Node22 -->
<g id="edge50" class="edge">
<title>Node58&#45;&gt;Node22</title>
<path fill="none" stroke="#63b8ff" d="M1562.16,-336C1587.07,-341.47 1618.34,-348.34 1643.89,-353.95"/>
<polygon fill="#63b8ff" stroke="#63b8ff" points="1643.22,-357.39 1653.73,-356.11 1644.72,-350.55 1643.22,-357.39"/>
</g>
<!-- Node120&#45;&gt;Node121 -->
<g id="edge53" class="edge">
<title>Node120&#45;&gt;Node121</title>
<path fill="none" stroke="#63b8ff" d="M1576.11,-295.73C1588.44,-297.09 1601.66,-298.54 1614.58,-299.96"/>
<polygon fill="#63b8ff" stroke="#63b8ff" points="1614.54,-303.48 1624.87,-301.09 1615.31,-296.52 1614.54,-303.48"/>
</g>
<!-- Node122&#45;&gt;Node29 -->
<g id="edge57" class="edge">
<title>Node122&#45;&gt;Node29</title>
<path fill="none" stroke="#63b8ff" d="M1399.56,-211.8C1450.81,-209.67 1525.05,-204.76 1589,-193.41 1671.89,-178.69 1766.26,-149.16 1817,-132.19"/>
<polygon fill="#63b8ff" stroke="#63b8ff" points="1818.2,-135.48 1826.56,-128.97 1815.96,-128.85 1818.2,-135.48"/>
</g>
<!-- Node123 -->
<g id="node38" class="node">
<title>Node123</title>
<g id="a_node38"><a xlink:href="lexer__expand__variable_8c.html#abe77b7e35b276965b72648d12abae283" target="_top" xlink:title=" ">
<polygon fill="white" stroke="#666666" points="1560.5,-184.91 1474.5,-184.91 1474.5,-165.91 1560.5,-165.91 1560.5,-184.91"/>
<text text-anchor="middle" x="1517.5" y="-172.91" font-family="Helvetica,sans-Serif" font-size="10.00">append_dollar</text>
</a>
</g>
</g>
<!-- Node122&#45;&gt;Node123 -->
<g id="edge55" class="edge">
<title>Node122&#45;&gt;Node123</title>
<path fill="none" stroke="#63b8ff" d="M1382.3,-203.82C1407.23,-198.54 1438.3,-191.96 1464.26,-186.47"/>
<polygon fill="#63b8ff" stroke="#63b8ff" points="1465.24,-189.84 1474.3,-184.34 1463.79,-182.99 1465.24,-189.84"/>
</g>
<!-- Node123&#45;&gt;Node27 -->
<g id="edge56" class="edge">
<title>Node123&#45;&gt;Node27</title>
<path fill="none" stroke="#63b8ff" d="M1556.35,-165.83C1566.97,-162.97 1578.48,-159.72 1589,-156.41 1612,-149.17 1637.51,-139.97 1657.33,-132.55"/>
<polygon fill="#63b8ff" stroke="#63b8ff" points="1658.72,-135.76 1666.84,-128.96 1656.25,-129.21 1658.72,-135.76"/>
</g>
<!-- Node130&#45;&gt;Node29 -->
<g id="edge60" class="edge">
<title>Node130&#45;&gt;Node29</title>
<path fill="none" stroke="#63b8ff" d="M1203.98,-449.99C1307.37,-473.61 1597.02,-523.03 1760,-382.41 1835.1,-317.61 1850.2,-188.43 1853.24,-139.14"/>
<polygon fill="#63b8ff" stroke="#63b8ff" points="1856.73,-139.31 1853.75,-129.15 1849.74,-138.96 1856.73,-139.31"/>
</g>
<!-- Node135&#45;&gt;Node5 -->
<g id="edge75" class="edge">
<title>Node135&#45;&gt;Node5</title>
<path fill="none" stroke="#63b8ff" d="M290.74,-389.41C310.02,-389.41 331.78,-389.41 350.56,-389.41"/>
<polygon fill="#63b8ff" stroke="#63b8ff" points="350.66,-392.91 360.66,-389.41 350.66,-385.91 350.66,-392.91"/>
</g>
<!-- Node136 -->
<g id="node47" class="node">
<title>Node136</title>
<g id="a_node47"><a xlink:href="parser__globbing_8c.html#a89bf1b81ac8c9637cbe152bab8467dd7" target="_top" xlink:title=" ">
<polygon fill="white" stroke="#666666" points="435,-342.91 361,-342.91 361,-323.91 435,-323.91 435,-342.91"/>
<text text-anchor="middle" x="398" y="-330.91" font-family="Helvetica,sans-Serif" font-size="10.00">parser_glob</text>
</a>
</g>
</g>
<!-- Node135&#45;&gt;Node136 -->
<g id="edge69" class="edge">
<title>Node135&#45;&gt;Node136</title>
<path fill="none" stroke="#63b8ff" d="M266.16,-379.78C292.21,-370.55 331.71,-356.55 360.5,-346.35"/>
<polygon fill="#63b8ff" stroke="#63b8ff" points="361.94,-349.55 370.19,-342.91 359.6,-342.95 361.94,-349.55"/>
</g>
<!-- Node137 -->
<g id="node48" class="node">
<title>Node137</title>
<g id="a_node48"><a xlink:href="parser__globbing_8c.html#a0c56750379c92ca65af3924a1358871d" target="_top" xlink:title=" ">
<polygon fill="white" stroke="#666666" points="587.5,-285.91 494.5,-285.91 494.5,-266.91 587.5,-266.91 587.5,-285.91"/>
<text text-anchor="middle" x="541" y="-273.91" font-family="Helvetica,sans-Serif" font-size="10.00">add_glob_paths</text>
</a>
</g>
</g>
<!-- Node136&#45;&gt;Node137 -->
<g id="edge70" class="edge">
<title>Node136&#45;&gt;Node137</title>
<path fill="none" stroke="#63b8ff" d="M422.6,-323.87C445.68,-314.54 481.03,-300.25 506.91,-289.78"/>
<polygon fill="#63b8ff" stroke="#63b8ff" points="508.36,-292.97 516.32,-285.98 505.74,-286.48 508.36,-292.97"/>
</g>
<!-- Node138 -->
<g id="node49" class="node">
<title>Node138</title>
<g id="a_node49"><a xlink:href="parser__globbing_8c.html#a0fc94c1eba37fdbe32c9843dba97659b" target="_top" xlink:title=" ">
<polygon fill="white" stroke="#666666" points="739.5,-304.91 639.5,-304.91 639.5,-285.91 739.5,-285.91 739.5,-304.91"/>
<text text-anchor="middle" x="689.5" y="-292.91" font-family="Helvetica,sans-Serif" font-size="10.00">append_cmd_arg</text>
</a>
</g>
</g>
<!-- Node136&#45;&gt;Node138 -->
<g id="edge72" class="edge">
<title>Node136&#45;&gt;Node138</title>
<path fill="none" stroke="#63b8ff" d="M435.08,-328.67C483.7,-322.29 570.85,-310.85 629.18,-303.19"/>
<polygon fill="#63b8ff" stroke="#63b8ff" points="629.91,-306.63 639.36,-301.86 628.99,-299.69 629.91,-306.63"/>
</g>
<!-- Node139 -->
<g id="node50" class="node">
<title>Node139</title>
<g id="a_node50"><a xlink:href="parser__globbing_8c.html#af186620151b6b4726e68024a21185ba7" target="_top" xlink:title=" ">
<polygon fill="white" stroke="#666666" points="586.5,-361.91 495.5,-361.91 495.5,-342.91 586.5,-342.91 586.5,-361.91"/>
<text text-anchor="middle" x="541" y="-349.91" font-family="Helvetica,sans-Serif" font-size="10.00">get_glob_paths</text>
</a>
</g>
</g>
<!-- Node136&#45;&gt;Node139 -->
<g id="edge73" class="edge">
<title>Node136&#45;&gt;Node139</title>
<path fill="none" stroke="#63b8ff" d="M435.31,-338.3C450.45,-340.34 468.36,-342.75 485.04,-345"/>
<polygon fill="#63b8ff" stroke="#63b8ff" points="484.86,-348.51 495.24,-346.38 485.8,-341.57 484.86,-348.51"/>
</g>
<!-- Node137&#45;&gt;Node138 -->
<g id="edge71" class="edge">
<title>Node137&#45;&gt;Node138</title>
<path fill="none" stroke="#63b8ff" d="M587.55,-282.32C600.8,-284.03 615.46,-285.94 629.42,-287.74"/>
<polygon fill="#63b8ff" stroke="#63b8ff" points="629.05,-291.23 639.42,-289.04 629.95,-284.29 629.05,-291.23"/>
</g>
<!-- Node139&#45;&gt;Node91 -->
<g id="edge74" class="edge">
<title>Node139&#45;&gt;Node91</title>
<path fill="none" stroke="#63b8ff" d="M586.75,-352.41C600.83,-352.41 616.58,-352.41 631.4,-352.41"/>
<polygon fill="#63b8ff" stroke="#63b8ff" points="631.49,-355.91 641.49,-352.41 631.49,-348.91 631.49,-355.91"/>
</g>
</g>
</svg>
