<?xml version="1.0" encoding="UTF-8" standalone="no"?>
<!DOCTYPE svg PUBLIC "-//W3C//DTD SVG 1.1//EN"
 "http://www.w3.org/Graphics/SVG/1.1/DTD/svg11.dtd">
<!-- Generated by graphviz version 2.43.0 (0)
 -->
<!-- Title: parser_glob Pages: 1 -->
<svg width="347pt" height="103pt"
 viewBox="0.00 0.00 347.00 103.00" xmlns="http://www.w3.org/2000/svg" xmlns:xlink="http://www.w3.org/1999/xlink">
<g id="graph0" class="graph" transform="scale(1 1) rotate(0) translate(4 99)">
<title>parser_glob</title>
<!-- Node1 -->
<g id="node1" class="node">
<title>Node1</title>
<g id="a_node1"><a xlink:title=" ">
<polygon fill="#999999" stroke="#666666" points="74,-57 0,-57 0,-38 74,-38 74,-57"/>
<text text-anchor="middle" x="37" y="-45" font-family="Helvetica,sans-Serif" font-size="10.00">parser_glob</text>
</a>
</g>
</g>
<!-- Node2 -->
<g id="node2" class="node">
<title>Node2</title>
<g id="a_node2"><a xlink:href="parser__globbing_8c.html#a0c56750379c92ca65af3924a1358871d" target="_top" xlink:title=" ">
<polygon fill="white" stroke="#666666" points="203,-95 110,-95 110,-76 203,-76 203,-95"/>
<text text-anchor="middle" x="156.5" y="-83" font-family="Helvetica,sans-Serif" font-size="10.00">add_glob_paths</text>
</a>
</g>
</g>
<!-- Node1&#45;&gt;Node2 -->
<g id="edge1" class="edge">
<title>Node1&#45;&gt;Node2</title>
<path fill="none" stroke="#63b8ff" d="M67.65,-57.09C82.4,-61.86 100.43,-67.69 116.3,-72.82"/>
<polygon fill="#63b8ff" stroke="#63b8ff" points="115.27,-76.17 125.86,-75.91 117.42,-69.51 115.27,-76.17"/>
</g>
<!-- Node3 -->
<g id="node3" class="node">
<title>Node3</title>
<g id="a_node3"><a xlink:href="parser__globbing_8c.html#a0fc94c1eba37fdbe32c9843dba97659b" target="_top" xlink:title=" ">
<polygon fill="white" stroke="#666666" points="339,-76 239,-76 239,-57 339,-57 339,-76"/>
<text text-anchor="middle" x="289" y="-64" font-family="Helvetica,sans-Serif" font-size="10.00">append_cmd_arg</text>
</a>
</g>
</g>
<!-- Node1&#45;&gt;Node3 -->
<g id="edge3" class="edge">
<title>Node1&#45;&gt;Node3</title>
<path fill="none" stroke="#63b8ff" d="M74.09,-50.24C114.4,-53.31 180.29,-58.31 228.31,-61.96"/>
<polygon fill="#63b8ff" stroke="#63b8ff" points="228.33,-65.48 238.57,-62.74 228.86,-58.5 228.33,-65.48"/>
</g>
<!-- Node4 -->
<g id="node4" class="node">
<title>Node4</title>
<g id="a_node4"><a xlink:href="parser__globbing_8c.html#af186620151b6b4726e68024a21185ba7" target="_top" xlink:title=" ">
<polygon fill="white" stroke="#666666" points="202,-19 111,-19 111,0 202,0 202,-19"/>
<text text-anchor="middle" x="156.5" y="-7" font-family="Helvetica,sans-Serif" font-size="10.00">get_glob_paths</text>
</a>
</g>
</g>
<!-- Node1&#45;&gt;Node4 -->
<g id="edge4" class="edge">
<title>Node1&#45;&gt;Node4</title>
<path fill="none" stroke="#63b8ff" d="M67.65,-37.91C82.4,-33.14 100.43,-27.31 116.3,-22.18"/>
<polygon fill="#63b8ff" stroke="#63b8ff" points="117.42,-25.49 125.86,-19.09 115.27,-18.83 117.42,-25.49"/>
</g>
<!-- Node2&#45;&gt;Node3 -->
<g id="edge2" class="edge">
<title>Node2&#45;&gt;Node3</title>
<path fill="none" stroke="#63b8ff" d="M203.14,-78.85C211.38,-77.65 220.09,-76.39 228.65,-75.14"/>
<polygon fill="#63b8ff" stroke="#63b8ff" points="229.21,-78.6 238.61,-73.69 228.21,-71.67 229.21,-78.6"/>
</g>
<!-- Node5 -->
<g id="node5" class="node">
<title>Node5</title>
<g id="a_node5"><a xlink:href="parser__set__error_8c.html#adcfabdb026b94fdbe4b6cbf5cb16522a" target="_top" xlink:title=" ">
<polygon fill="white" stroke="#666666" points="337,-19 241,-19 241,0 337,0 337,-19"/>
<text text-anchor="middle" x="289" y="-7" font-family="Helvetica,sans-Serif" font-size="10.00">parser_set_error</text>
</a>
</g>
</g>
<!-- Node4&#45;&gt;Node5 -->
<g id="edge5" class="edge">
<title>Node4&#45;&gt;Node5</title>
<path fill="none" stroke="#63b8ff" d="M202.05,-9.5C211.26,-9.5 221.1,-9.5 230.7,-9.5"/>
<polygon fill="#63b8ff" stroke="#63b8ff" points="230.98,-13 240.98,-9.5 230.98,-6 230.98,-13"/>
</g>
</g>
</svg>
