<?xml version="1.0" encoding="UTF-8" standalone="no"?>
<!DOCTYPE svg PUBLIC "-//W3C//DTD SVG 1.1//EN"
 "http://www.w3.org/Graphics/SVG/1.1/DTD/svg11.dtd">
<!-- Generated by graphviz version 2.43.0 (0)
 -->
<!-- Title: skip_separators Pages: 1 -->
<svg width="1888pt" height="634pt"
 viewBox="0.00 0.00 1888.00 633.79" xmlns="http://www.w3.org/2000/svg" xmlns:xlink="http://www.w3.org/1999/xlink">
<g id="graph0" class="graph" transform="scale(1 1) rotate(0) translate(4 629.79)">
<title>skip_separators</title>
<!-- Node1 -->
<g id="node1" class="node">
<title>Node1</title>
<g id="a_node1"><a xlink:title=" ">
<polygon fill="#999999" stroke="#666666" points="94,-330.03 0,-330.03 0,-311.03 94,-311.03 94,-330.03"/>
<text text-anchor="middle" x="47" y="-318.03" font-family="Helvetica,sans-Serif" font-size="10.00">skip_separators</text>
</a>
</g>
</g>
<!-- Node2 -->
<g id="node2" class="node">
<title>Node2</title>
<g id="a_node2"><a xlink:href="parser__utils_8c.html#a58d1fcbbbf31e24aab676f2ba794b440" target="_top" xlink:title=" ">
<polygon fill="white" stroke="#666666" points="207,-349.03 130,-349.03 130,-330.03 207,-330.03 207,-349.03"/>
<text text-anchor="middle" x="168.5" y="-337.03" font-family="Helvetica,sans-Serif" font-size="10.00">is_separator</text>
</a>
</g>
</g>
<!-- Node1&#45;&gt;Node2 -->
<g id="edge1" class="edge">
<title>Node1&#45;&gt;Node2</title>
<path fill="none" stroke="#63b8ff" d="M94.2,-327.88C102.61,-329.22 111.39,-330.61 119.83,-331.96"/>
<polygon fill="#63b8ff" stroke="#63b8ff" points="119.5,-335.45 129.92,-333.56 120.6,-328.53 119.5,-335.45"/>
</g>
<!-- Node3 -->
<g id="node3" class="node">
<title>Node3</title>
<g id="a_node3"><a xlink:href="parser__next_8c.html#ad25986b565a767c6ad7d0b0b8846fca6" target="_top" xlink:title=" ">
<polygon fill="white" stroke="#666666" points="205.5,-312.03 131.5,-312.03 131.5,-293.03 205.5,-293.03 205.5,-312.03"/>
<text text-anchor="middle" x="168.5" y="-300.03" font-family="Helvetica,sans-Serif" font-size="10.00">parser_next</text>
</a>
</g>
</g>
<!-- Node1&#45;&gt;Node3 -->
<g id="edge2" class="edge">
<title>Node1&#45;&gt;Node3</title>
<path fill="none" stroke="#63b8ff" d="M94.2,-313.57C103.08,-312.24 112.37,-310.84 121.25,-309.5"/>
<polygon fill="#63b8ff" stroke="#63b8ff" points="122.06,-312.92 131.43,-307.97 121.02,-306 122.06,-312.92"/>
</g>
<!-- Node4 -->
<g id="node4" class="node">
<title>Node4</title>
<g id="a_node4"><a xlink:href="lexer__next__token_8c.html#a3def5432329709fb4df861d90672c510" target="_top" xlink:title=" ">
<polygon fill="white" stroke="#666666" points="343,-331.03 243,-331.03 243,-312.03 343,-312.03 343,-331.03"/>
<text text-anchor="middle" x="293" y="-319.03" font-family="Helvetica,sans-Serif" font-size="10.00">lexer_next_token</text>
</a>
</g>
</g>
<!-- Node3&#45;&gt;Node4 -->
<g id="edge3" class="edge">
<title>Node3&#45;&gt;Node4</title>
<path fill="none" stroke="#63b8ff" d="M205.59,-308.13C214.09,-309.45 223.37,-310.89 232.6,-312.32"/>
<polygon fill="#63b8ff" stroke="#63b8ff" points="232.13,-315.79 242.55,-313.86 233.2,-308.87 232.13,-315.79"/>
</g>
<!-- Node44 -->
<g id="node50" class="node">
<title>Node44</title>
<g id="a_node50"><a xlink:href="destroy__token_8c.html#ad1a471ee7b1ccb035d769be1152a370c" target="_top" xlink:title=" ">
<polygon fill="white" stroke="#666666" points="336,-294.03 250,-294.03 250,-275.03 336,-275.03 336,-294.03"/>
<text text-anchor="middle" x="293" y="-282.03" font-family="Helvetica,sans-Serif" font-size="10.00">token_destroy</text>
</a>
</g>
</g>
<!-- Node3&#45;&gt;Node44 -->
<g id="edge76" class="edge">
<title>Node3&#45;&gt;Node44</title>
<path fill="none" stroke="#63b8ff" d="M205.59,-297.23C216.29,-295.66 228.23,-293.9 239.73,-292.21"/>
<polygon fill="#63b8ff" stroke="#63b8ff" points="240.31,-295.67 249.69,-290.75 239.29,-288.74 240.31,-295.67"/>
</g>
<!-- Node5 -->
<g id="node5" class="node">
<title>Node5</title>
<g id="a_node5"><a xlink:href="create__token_8c.html#a15bcfc92177012893c626ce7d2d6bb6b" target="_top" xlink:title=" ">
<polygon fill="white" stroke="#666666" points="800.5,-368.03 720.5,-368.03 720.5,-349.03 800.5,-349.03 800.5,-368.03"/>
<text text-anchor="middle" x="760.5" y="-356.03" font-family="Helvetica,sans-Serif" font-size="10.00">create_token</text>
</a>
</g>
</g>
<!-- Node4&#45;&gt;Node5 -->
<g id="edge4" class="edge">
<title>Node4&#45;&gt;Node5</title>
<path fill="none" stroke="#63b8ff" d="M306.37,-331.11C322.41,-343.18 351.59,-364 379,-377.53 446.93,-411.08 465.3,-420.91 540,-433.53 594.78,-442.79 612.54,-451.82 665,-433.53 697.76,-422.11 727.69,-394.08 744.73,-375.7"/>
<polygon fill="#63b8ff" stroke="#63b8ff" points="747.54,-377.81 751.62,-368.04 742.34,-373.14 747.54,-377.81"/>
</g>
<!-- Node6 -->
<g id="node6" class="node">
<title>Node6</title>
<g id="a_node6"><a xlink:href="lexer__next__token_8c.html#add2e1acaa9518ecf20b6670ad91a5c65" target="_top" xlink:title=" ">
<polygon fill="white" stroke="#666666" points="492.5,-368.03 390.5,-368.03 390.5,-349.03 492.5,-349.03 492.5,-368.03"/>
<text text-anchor="middle" x="441.5" y="-356.03" font-family="Helvetica,sans-Serif" font-size="10.00">get_logical_token</text>
</a>
</g>
</g>
<!-- Node4&#45;&gt;Node6 -->
<g id="edge5" class="edge">
<title>Node4&#45;&gt;Node6</title>
<path fill="none" stroke="#63b8ff" d="M331.73,-331.06C350.37,-335.77 373.05,-341.5 392.88,-346.51"/>
<polygon fill="#63b8ff" stroke="#63b8ff" points="392.09,-349.92 402.65,-348.97 393.81,-343.13 392.09,-349.92"/>
</g>
<!-- Node10 -->
<g id="node10" class="node">
<title>Node10</title>
<g id="a_node10"><a xlink:href="lexer__next__token_8c.html#abcee8a7ba5ea6ca80c0bd7e3dd8d9a32" target="_top" xlink:title=" ">
<polygon fill="white" stroke="#666666" points="502.5,-294.03 380.5,-294.03 380.5,-275.03 502.5,-275.03 502.5,-294.03"/>
<text text-anchor="middle" x="441.5" y="-282.03" font-family="Helvetica,sans-Serif" font-size="10.00">get_redirection_token</text>
</a>
</g>
</g>
<!-- Node4&#45;&gt;Node10 -->
<g id="edge12" class="edge">
<title>Node4&#45;&gt;Node10</title>
<path fill="none" stroke="#63b8ff" d="M331.73,-312.01C350.37,-307.3 373.05,-301.57 392.88,-296.56"/>
<polygon fill="#63b8ff" stroke="#63b8ff" points="393.81,-299.94 402.65,-294.09 392.09,-293.15 393.81,-299.94"/>
</g>
<!-- Node15 -->
<g id="node15" class="node">
<title>Node15</title>
<g id="a_node15"><a xlink:href="lexer__newline_8c.html#a9f60bf18297b9c705fa6cdff027c79fc" target="_top" xlink:title=" ">
<polygon fill="white" stroke="#666666" points="644.5,-576.03 560.5,-576.03 560.5,-557.03 644.5,-557.03 644.5,-576.03"/>
<text text-anchor="middle" x="602.5" y="-564.03" font-family="Helvetica,sans-Serif" font-size="10.00">lexer_newline</text>
</a>
</g>
</g>
<!-- Node4&#45;&gt;Node15 -->
<g id="edge21" class="edge">
<title>Node4&#45;&gt;Node15</title>
<path fill="none" stroke="#63b8ff" d="M294.27,-331.29C295.84,-367.03 306.51,-491.47 379,-546.53 427.87,-583.66 501.34,-582.53 550.33,-576.25"/>
<polygon fill="#63b8ff" stroke="#63b8ff" points="550.97,-579.7 560.39,-574.85 550,-572.76 550.97,-579.7"/>
</g>
<!-- Node16 -->
<g id="node16" class="node">
<title>Node16</title>
<g id="a_node16"><a xlink:href="lexer__parenthesis_8c.html#a2b13eaa0fee255bea85bd4279f369795" target="_top" xlink:title=" ">
<polygon fill="white" stroke="#666666" points="493,-537.03 390,-537.03 390,-518.03 493,-518.03 493,-537.03"/>
<text text-anchor="middle" x="441.5" y="-525.03" font-family="Helvetica,sans-Serif" font-size="10.00">lexer_parenthesis</text>
</a>
</g>
</g>
<!-- Node4&#45;&gt;Node16 -->
<g id="edge23" class="edge">
<title>Node4&#45;&gt;Node16</title>
<path fill="none" stroke="#63b8ff" d="M295.51,-331.43C300.81,-362.57 321.41,-459.49 379,-509.53 380.36,-510.71 381.79,-511.81 383.28,-512.84"/>
<polygon fill="#63b8ff" stroke="#63b8ff" points="381.92,-516.1 392.35,-517.99 385.38,-510.01 381.92,-516.1"/>
</g>
<!-- Node17 -->
<g id="node17" class="node">
<title>Node17</title>
<g id="a_node17"><a xlink:href="lexer__semicolon_8c.html#a1612109b245d9780427946e4e33b01b7" target="_top" xlink:title=" ">
<polygon fill="white" stroke="#666666" points="489.5,-500.03 393.5,-500.03 393.5,-481.03 489.5,-481.03 489.5,-500.03"/>
<text text-anchor="middle" x="441.5" y="-488.03" font-family="Helvetica,sans-Serif" font-size="10.00">lexer_semicolon</text>
</a>
</g>
</g>
<!-- Node4&#45;&gt;Node17 -->
<g id="edge25" class="edge">
<title>Node4&#45;&gt;Node17</title>
<path fill="none" stroke="#63b8ff" d="M297.1,-331.13C305.83,-356.72 333.05,-427.33 379,-466.53 383.64,-470.49 389,-473.84 394.59,-476.66"/>
<polygon fill="#63b8ff" stroke="#63b8ff" points="393.56,-480.03 404.12,-480.93 396.42,-473.64 393.56,-480.03"/>
</g>
<!-- Node18 -->
<g id="node18" class="node">
<title>Node18</title>
<g id="a_node18"><a xlink:href="lexer__word_8c.html#ac2600a9ba16009c4d8c114a118c54955" target="_top" xlink:title=" ">
<polygon fill="white" stroke="#666666" points="476.5,-257.03 406.5,-257.03 406.5,-238.03 476.5,-238.03 476.5,-257.03"/>
<text text-anchor="middle" x="441.5" y="-245.03" font-family="Helvetica,sans-Serif" font-size="10.00">lexer_word</text>
</a>
</g>
</g>
<!-- Node4&#45;&gt;Node18 -->
<g id="edge27" class="edge">
<title>Node4&#45;&gt;Node18</title>
<path fill="none" stroke="#63b8ff" d="M326.36,-311.99C332.12,-309.65 337.91,-306.84 343,-303.53 362.25,-291.04 359.43,-278.51 379,-266.53 384.44,-263.2 390.51,-260.41 396.67,-258.09"/>
<polygon fill="#63b8ff" stroke="#63b8ff" points="397.98,-261.34 406.32,-254.8 395.73,-254.71 397.98,-261.34"/>
</g>
<!-- Node138 -->
<g id="node47" class="node">
<title>Node138</title>
<g id="a_node47"><a xlink:href="lexer__next__token_8c.html#acbf7d728a3a47bb6afba90556ceed465" target="_top" xlink:title=" ">
<polygon fill="white" stroke="#666666" points="480.5,-220.03 402.5,-220.03 402.5,-201.03 480.5,-201.03 480.5,-220.03"/>
<text text-anchor="middle" x="441.5" y="-208.03" font-family="Helvetica,sans-Serif" font-size="10.00">return_token</text>
</a>
</g>
</g>
<!-- Node4&#45;&gt;Node138 -->
<g id="edge73" class="edge">
<title>Node4&#45;&gt;Node138</title>
<path fill="none" stroke="#63b8ff" d="M330.1,-311.97C334.77,-309.71 339.24,-306.94 343,-303.53 370.13,-279.01 351.24,-253.34 379,-229.53 383.03,-226.08 387.69,-223.25 392.59,-220.93"/>
<polygon fill="#63b8ff" stroke="#63b8ff" points="394.25,-224.04 402.25,-217.09 391.66,-217.54 394.25,-224.04"/>
</g>
<!-- Node139 -->
<g id="node48" class="node">
<title>Node139</title>
<g id="a_node48"><a xlink:href="lexer__next__token_8c.html#a7f0a2dd2373821667a4d5381e7711aa0" target="_top" xlink:title=" ">
<polygon fill="white" stroke="#666666" points="486,-183.03 397,-183.03 397,-164.03 486,-164.03 486,-183.03"/>
<text text-anchor="middle" x="441.5" y="-171.03" font-family="Helvetica,sans-Serif" font-size="10.00">skip_comment</text>
</a>
</g>
</g>
<!-- Node4&#45;&gt;Node139 -->
<g id="edge74" class="edge">
<title>Node4&#45;&gt;Node139</title>
<path fill="none" stroke="#63b8ff" d="M331.53,-311.93C335.77,-309.69 339.73,-306.93 343,-303.53 378.96,-266.16 342.07,-228.95 379,-192.53 381.66,-189.91 384.68,-187.64 387.92,-185.69"/>
<polygon fill="#63b8ff" stroke="#63b8ff" points="389.5,-188.81 396.89,-181.22 386.38,-182.55 389.5,-188.81"/>
</g>
<!-- Node140 -->
<g id="node49" class="node">
<title>Node140</title>
<g id="a_node49"><a xlink:href="lexer__next__token_8c.html#a5b2052471d98cef2998e1367f9bf8f6d" target="_top" xlink:title=" ">
<polygon fill="white" stroke="#666666" points="504,-146.03 379,-146.03 379,-127.03 504,-127.03 504,-146.03"/>
<text text-anchor="middle" x="441.5" y="-134.03" font-family="Helvetica,sans-Serif" font-size="10.00">skip_spaces_and_tabs</text>
</a>
</g>
</g>
<!-- Node4&#45;&gt;Node140 -->
<g id="edge75" class="edge">
<title>Node4&#45;&gt;Node140</title>
<path fill="none" stroke="#63b8ff" d="M332.26,-311.89C336.27,-309.66 339.98,-306.91 343,-303.53 388.08,-253.03 332.61,-204.84 379,-155.53 380.38,-154.07 381.87,-152.72 383.44,-151.47"/>
<polygon fill="#63b8ff" stroke="#63b8ff" points="385.4,-154.37 391.95,-146.04 381.64,-148.46 385.4,-154.37"/>
</g>
<!-- Node7 -->
<g id="node7" class="node">
<title>Node7</title>
<g id="a_node7"><a xlink:href="lexer__logical__and_8c.html#a59e5031d54357d65c6873edc67de2a47" target="_top" xlink:title=" ">
<polygon fill="white" stroke="#666666" points="653,-424.03 552,-424.03 552,-405.03 653,-405.03 653,-424.03"/>
<text text-anchor="middle" x="602.5" y="-412.03" font-family="Helvetica,sans-Serif" font-size="10.00">lexer_logical_and</text>
</a>
</g>
</g>
<!-- Node6&#45;&gt;Node7 -->
<g id="edge6" class="edge">
<title>Node6&#45;&gt;Node7</title>
<path fill="none" stroke="#63b8ff" d="M465.54,-368.17C485.16,-376.21 514.2,-387.75 540,-396.53 545.53,-398.42 551.38,-400.29 557.19,-402.07"/>
<polygon fill="#63b8ff" stroke="#63b8ff" points="556.27,-405.44 566.86,-404.97 558.28,-398.74 556.27,-405.44"/>
</g>
<!-- Node8 -->
<g id="node8" class="node">
<title>Node8</title>
<g id="a_node8"><a xlink:href="lexer__logical__or_8c.html#ac3851eaea27bd5774b126b888bdddf93" target="_top" xlink:title=" ">
<polygon fill="white" stroke="#666666" points="649,-387.03 556,-387.03 556,-368.03 649,-368.03 649,-387.03"/>
<text text-anchor="middle" x="602.5" y="-375.03" font-family="Helvetica,sans-Serif" font-size="10.00">lexer_logical_or</text>
</a>
</g>
</g>
<!-- Node6&#45;&gt;Node8 -->
<g id="edge8" class="edge">
<title>Node6&#45;&gt;Node8</title>
<path fill="none" stroke="#63b8ff" d="M492.81,-364.55C509.69,-366.56 528.62,-368.82 545.88,-370.89"/>
<polygon fill="#63b8ff" stroke="#63b8ff" points="545.49,-374.36 555.83,-372.08 546.32,-367.41 545.49,-374.36"/>
</g>
<!-- Node9 -->
<g id="node9" class="node">
<title>Node9</title>
<g id="a_node9"><a xlink:href="lexer__pipe_8c.html#a693816e38802a086de64c09cb7cebeb7" target="_top" xlink:title=" ">
<polygon fill="white" stroke="#666666" points="636,-350.03 569,-350.03 569,-331.03 636,-331.03 636,-350.03"/>
<text text-anchor="middle" x="602.5" y="-338.03" font-family="Helvetica,sans-Serif" font-size="10.00">lexer_pipe</text>
</a>
</g>
</g>
<!-- Node6&#45;&gt;Node9 -->
<g id="edge10" class="edge">
<title>Node6&#45;&gt;Node9</title>
<path fill="none" stroke="#63b8ff" d="M492.81,-352.84C513.88,-350.45 538.13,-347.71 558.37,-345.42"/>
<polygon fill="#63b8ff" stroke="#63b8ff" points="559.01,-348.87 568.56,-344.26 558.22,-341.91 559.01,-348.87"/>
</g>
<!-- Node7&#45;&gt;Node5 -->
<g id="edge7" class="edge">
<title>Node7&#45;&gt;Node5</title>
<path fill="none" stroke="#63b8ff" d="M638.17,-405.03C646.97,-402.44 656.38,-399.52 665,-396.53 686.39,-389.12 710.01,-379.62 728.29,-371.98"/>
<polygon fill="#63b8ff" stroke="#63b8ff" points="729.73,-375.17 737.58,-368.06 727.01,-368.72 729.73,-375.17"/>
</g>
<!-- Node8&#45;&gt;Node5 -->
<g id="edge9" class="edge">
<title>Node8&#45;&gt;Node5</title>
<path fill="none" stroke="#63b8ff" d="M649.04,-371.99C668.26,-369.65 690.69,-366.91 710.29,-364.53"/>
<polygon fill="#63b8ff" stroke="#63b8ff" points="710.75,-368 720.25,-363.31 709.9,-361.05 710.75,-368"/>
</g>
<!-- Node9&#45;&gt;Node5 -->
<g id="edge11" class="edge">
<title>Node9&#45;&gt;Node5</title>
<path fill="none" stroke="#63b8ff" d="M636.2,-344.31C657.7,-346.79 686.23,-350.08 710.42,-352.87"/>
<polygon fill="#63b8ff" stroke="#63b8ff" points="710.16,-356.36 720.5,-354.03 710.96,-349.41 710.16,-356.36"/>
</g>
<!-- Node11 -->
<g id="node11" class="node">
<title>Node11</title>
<g id="a_node11"><a xlink:href="lexer__heredoc_8c.html#a9db043b0e8df9ad1155a65a8fcf67c11" target="_top" xlink:title=" ">
<polygon fill="white" stroke="#666666" points="645,-239.03 560,-239.03 560,-220.03 645,-220.03 645,-239.03"/>
<text text-anchor="middle" x="602.5" y="-227.03" font-family="Helvetica,sans-Serif" font-size="10.00">lexer_heredoc</text>
</a>
</g>
</g>
<!-- Node10&#45;&gt;Node11 -->
<g id="edge13" class="edge">
<title>Node10&#45;&gt;Node11</title>
<path fill="none" stroke="#63b8ff" d="M478.96,-275.03C487.29,-272.54 496.03,-269.66 504,-266.53 520.65,-260 523.4,-255.2 540,-248.53 545.51,-246.32 551.39,-244.21 557.24,-242.25"/>
<polygon fill="#63b8ff" stroke="#63b8ff" points="558.55,-245.5 567,-239.1 556.4,-238.84 558.55,-245.5"/>
</g>
<!-- Node12 -->
<g id="node12" class="node">
<title>Node12</title>
<g id="a_node12"><a xlink:href="lexer__redirect__append_8c.html#a09beefbfaf132dbe04add1370a6fb2e3" target="_top" xlink:title=" ">
<polygon fill="white" stroke="#666666" points="665,-202.03 540,-202.03 540,-183.03 665,-183.03 665,-202.03"/>
<text text-anchor="middle" x="602.5" y="-190.03" font-family="Helvetica,sans-Serif" font-size="10.00">lexer_redirect_append</text>
</a>
</g>
</g>
<!-- Node10&#45;&gt;Node12 -->
<g id="edge15" class="edge">
<title>Node10&#45;&gt;Node12</title>
<path fill="none" stroke="#63b8ff" d="M488.57,-275.02C494.06,-272.77 499.35,-269.98 504,-266.53 527.47,-249.13 516.66,-229.11 540,-211.53 542.51,-209.65 545.21,-207.94 548.02,-206.41"/>
<polygon fill="#63b8ff" stroke="#63b8ff" points="549.76,-209.46 557.33,-202.05 546.79,-203.12 549.76,-209.46"/>
</g>
<!-- Node13 -->
<g id="node13" class="node">
<title>Node13</title>
<g id="a_node13"><a xlink:href="lexer__redirect__in_8c.html#ac723d9668329d99b35003ed2423889e5" target="_top" xlink:title=" ">
<polygon fill="white" stroke="#666666" points="651.5,-313.03 553.5,-313.03 553.5,-294.03 651.5,-294.03 651.5,-313.03"/>
<text text-anchor="middle" x="602.5" y="-301.03" font-family="Helvetica,sans-Serif" font-size="10.00">lexer_redirect_in</text>
</a>
</g>
</g>
<!-- Node10&#45;&gt;Node13 -->
<g id="edge17" class="edge">
<title>Node10&#45;&gt;Node13</title>
<path fill="none" stroke="#63b8ff" d="M502.61,-291.72C516,-293.32 530.16,-295.01 543.46,-296.6"/>
<polygon fill="#63b8ff" stroke="#63b8ff" points="543.09,-300.08 553.44,-297.79 543.92,-293.13 543.09,-300.08"/>
</g>
<!-- Node14 -->
<g id="node14" class="node">
<title>Node14</title>
<g id="a_node14"><a xlink:href="lexer__redirect__out_8c.html#a70e2216639c96030b3861405ae3497c6" target="_top" xlink:title=" ">
<polygon fill="white" stroke="#666666" points="654.5,-276.03 550.5,-276.03 550.5,-257.03 654.5,-257.03 654.5,-276.03"/>
<text text-anchor="middle" x="602.5" y="-264.03" font-family="Helvetica,sans-Serif" font-size="10.00">lexer_redirect_out</text>
</a>
</g>
</g>
<!-- Node10&#45;&gt;Node14 -->
<g id="edge19" class="edge">
<title>Node10&#45;&gt;Node14</title>
<path fill="none" stroke="#63b8ff" d="M502.61,-277.73C514.91,-276.34 527.87,-274.87 540.21,-273.47"/>
<polygon fill="#63b8ff" stroke="#63b8ff" points="540.85,-276.92 550.4,-272.32 540.07,-269.97 540.85,-276.92"/>
</g>
<!-- Node11&#45;&gt;Node5 -->
<g id="edge14" class="edge">
<title>Node11&#45;&gt;Node5</title>
<path fill="none" stroke="#63b8ff" d="M645.3,-238.95C652.18,-241.46 659.02,-244.61 665,-248.53 702.17,-272.91 733.02,-315.99 748.59,-340.37"/>
<polygon fill="#63b8ff" stroke="#63b8ff" points="745.7,-342.36 753.96,-349.01 751.65,-338.67 745.7,-342.36"/>
</g>
<!-- Node12&#45;&gt;Node5 -->
<g id="edge16" class="edge">
<title>Node12&#45;&gt;Node5</title>
<path fill="none" stroke="#63b8ff" d="M648.02,-202.14C654.06,-204.6 659.93,-207.68 665,-211.53 710.15,-245.83 739.74,-308.38 752.43,-339.67"/>
<polygon fill="#63b8ff" stroke="#63b8ff" points="749.17,-340.96 756.08,-348.99 755.69,-338.41 749.17,-340.96"/>
</g>
<!-- Node13&#45;&gt;Node5 -->
<g id="edge18" class="edge">
<title>Node13&#45;&gt;Node5</title>
<path fill="none" stroke="#63b8ff" d="M635.86,-313.1C645.3,-316.01 655.6,-319.29 665,-322.53 685.45,-329.58 708.1,-338.18 726.1,-345.21"/>
<polygon fill="#63b8ff" stroke="#63b8ff" points="724.99,-348.53 735.57,-348.93 727.55,-342.02 724.99,-348.53"/>
</g>
<!-- Node14&#45;&gt;Node5 -->
<g id="edge20" class="edge">
<title>Node14&#45;&gt;Node5</title>
<path fill="none" stroke="#63b8ff" d="M642.07,-276.13C649.87,-278.7 657.86,-281.83 665,-285.53 694.52,-300.85 724.15,-325.64 742.17,-342.01"/>
<polygon fill="#63b8ff" stroke="#63b8ff" points="739.87,-344.65 749.58,-348.88 744.62,-339.52 739.87,-344.65"/>
</g>
<!-- Node15&#45;&gt;Node5 -->
<g id="edge22" class="edge">
<title>Node15&#45;&gt;Node5</title>
<path fill="none" stroke="#63b8ff" d="M640.76,-556.94C649.42,-553.44 658.11,-548.75 665,-542.53 716.22,-496.31 743.78,-415.83 754.35,-378.55"/>
<polygon fill="#63b8ff" stroke="#63b8ff" points="757.85,-379.02 757.09,-368.45 751.1,-377.19 757.85,-379.02"/>
</g>
<!-- Node16&#45;&gt;Node5 -->
<g id="edge24" class="edge">
<title>Node16&#45;&gt;Node5</title>
<path fill="none" stroke="#63b8ff" d="M493.22,-531.05C541.02,-531.95 612.91,-526.86 665,-494.53 710.24,-466.46 739.47,-407.85 752.19,-377.56"/>
<polygon fill="#63b8ff" stroke="#63b8ff" points="755.5,-378.71 756,-368.12 749.01,-376.09 755.5,-378.71"/>
</g>
<!-- Node17&#45;&gt;Node5 -->
<g id="edge26" class="edge">
<title>Node17&#45;&gt;Node5</title>
<path fill="none" stroke="#63b8ff" d="M489.64,-495.04C536.73,-497.43 609.85,-495.22 665,-466.53 704.22,-446.13 734.47,-402.12 749.35,-377.04"/>
<polygon fill="#63b8ff" stroke="#63b8ff" points="752.5,-378.56 754.44,-368.15 746.43,-375.08 752.5,-378.56"/>
</g>
<!-- Node18&#45;&gt;Node5 -->
<g id="edge28" class="edge">
<title>Node18&#45;&gt;Node5</title>
<path fill="none" stroke="#63b8ff" d="M476.71,-242.08C486.19,-239.4 496.05,-235.43 504,-229.53 527.47,-212.13 514.3,-188.43 540,-174.53 588.87,-148.11 617.58,-145.58 665,-174.53 725.1,-211.23 748.58,-299.68 756.27,-339.06"/>
<polygon fill="#63b8ff" stroke="#63b8ff" points="752.84,-339.77 758.08,-348.98 759.73,-338.52 752.84,-339.77"/>
</g>
<!-- Node19 -->
<g id="node19" class="node">
<title>Node19</title>
<g id="a_node19"><a xlink:href="lexer__expand__alias_8c.html#a782a761cdb9088ea2b14b7a97eb85377" target="_top" xlink:title=" ">
<polygon fill="white" stroke="#666666" points="657.5,-88.03 547.5,-88.03 547.5,-69.03 657.5,-69.03 657.5,-88.03"/>
<text text-anchor="middle" x="602.5" y="-76.03" font-family="Helvetica,sans-Serif" font-size="10.00">lexer_expand_alias</text>
</a>
</g>
</g>
<!-- Node18&#45;&gt;Node19 -->
<g id="edge29" class="edge">
<title>Node18&#45;&gt;Node19</title>
<path fill="none" stroke="#63b8ff" d="M476.69,-243.87C486.61,-241.27 496.72,-236.88 504,-229.53 545.31,-187.87 500.55,-145.96 540,-102.53 543.48,-98.71 547.63,-95.49 552.13,-92.77"/>
<polygon fill="#63b8ff" stroke="#63b8ff" points="553.8,-95.85 561.09,-88.16 550.6,-89.62 553.8,-95.85"/>
</g>
<!-- Node21 -->
<g id="node21" class="node">
<title>Node21</title>
<g id="a_node21"><a xlink:href="lexer__word_8c.html#a17ec284a75275629329e3d5699a635d7" target="_top" xlink:title=" ">
<polygon fill="white" stroke="#666666" points="809,-126.03 712,-126.03 712,-107.03 809,-107.03 809,-126.03"/>
<text text-anchor="middle" x="760.5" y="-114.03" font-family="Helvetica,sans-Serif" font-size="10.00">lexer_read_word</text>
</a>
</g>
</g>
<!-- Node18&#45;&gt;Node21 -->
<g id="edge72" class="edge">
<title>Node18&#45;&gt;Node21</title>
<path fill="none" stroke="#63b8ff" d="M476.7,-243.02C486.39,-240.38 496.36,-236.18 504,-229.53 533.41,-203.93 508.93,-173.09 540,-149.53 586.06,-114.62 653.5,-109.29 701.45,-110.86"/>
<polygon fill="#63b8ff" stroke="#63b8ff" points="701.54,-114.37 711.68,-111.31 701.84,-107.38 701.54,-114.37"/>
</g>
<!-- Node20 -->
<g id="node20" class="node">
<title>Node20</title>
<g id="a_node20"><a xlink:href="get__variable_8c.html#a569170390f0edf013bf89c26ef55ea8c" target="_top" xlink:title=" ">
<polygon fill="white" stroke="#666666" points="1859.5,-50.03 1782.5,-50.03 1782.5,-31.03 1859.5,-31.03 1859.5,-50.03"/>
<text text-anchor="middle" x="1821" y="-38.03" font-family="Helvetica,sans-Serif" font-size="10.00">get_variable</text>
</a>
</g>
</g>
<!-- Node19&#45;&gt;Node20 -->
<g id="edge30" class="edge">
<title>Node19&#45;&gt;Node20</title>
<path fill="none" stroke="#63b8ff" d="M615.88,-68.84C633.6,-55.55 667.75,-32.13 701,-21.53 792.4,7.6 820.07,-2.53 916,-2.53 916,-2.53 916,-2.53 1447.5,-2.53 1564.76,-2.53 1701.71,-21.4 1772.39,-32.55"/>
<polygon fill="#63b8ff" stroke="#63b8ff" points="1771.9,-36.01 1782.32,-34.13 1773,-29.1 1771.9,-36.01"/>
</g>
<!-- Node19&#45;&gt;Node21 -->
<g id="edge31" class="edge">
<title>Node19&#45;&gt;Node21</title>
<path fill="none" stroke="#63b8ff" d="M642.87,-88.12C663.45,-93.14 688.84,-99.32 710.67,-104.64"/>
<polygon fill="#63b8ff" stroke="#63b8ff" points="709.87,-108.05 720.42,-107.01 711.53,-101.25 709.87,-108.05"/>
</g>
<!-- Node136 -->
<g id="node45" class="node">
<title>Node136</title>
<g id="a_node45"><a xlink:href="lexer__expand__alias_8c.html#a98f32d0d302fe57a01c46b72c25132a1" target="_top" xlink:title=" ">
<polygon fill="white" stroke="#666666" points="958,-69.03 876,-69.03 876,-50.03 958,-50.03 958,-69.03"/>
<text text-anchor="middle" x="917" y="-57.03" font-family="Helvetica,sans-Serif" font-size="10.00">replace_word</text>
</a>
</g>
</g>
<!-- Node19&#45;&gt;Node136 -->
<g id="edge69" class="edge">
<title>Node19&#45;&gt;Node136</title>
<path fill="none" stroke="#63b8ff" d="M657.58,-75.25C716.12,-71.69 808.75,-66.05 865.75,-62.59"/>
<polygon fill="#63b8ff" stroke="#63b8ff" points="866.2,-66.07 875.97,-61.97 865.77,-59.08 866.2,-66.07"/>
</g>
<!-- Node137 -->
<g id="node46" class="node">
<title>Node137</title>
<g id="a_node46"><a xlink:href="lexer__expand__alias_8c.html#ae7957e63e1f19d95a69563aaab318ad4" target="_top" xlink:title=" ">
<polygon fill="white" stroke="#666666" points="820,-50.03 701,-50.03 701,-31.03 820,-31.03 820,-50.03"/>
<text text-anchor="middle" x="760.5" y="-38.03" font-family="Helvetica,sans-Serif" font-size="10.00">should_expand_alias</text>
</a>
</g>
</g>
<!-- Node19&#45;&gt;Node137 -->
<g id="edge71" class="edge">
<title>Node19&#45;&gt;Node137</title>
<path fill="none" stroke="#63b8ff" d="M642.87,-68.94C663.45,-63.93 688.84,-57.75 710.67,-52.43"/>
<polygon fill="#63b8ff" stroke="#63b8ff" points="711.53,-55.82 720.42,-50.05 709.87,-49.02 711.53,-55.82"/>
</g>
<!-- Node22 -->
<g id="node22" class="node">
<title>Node22</title>
<g id="a_node22"><a xlink:href="lexer__word_8c.html#a730574257743b09386cadd2ccbfe4d13" target="_top" xlink:title=" ">
<polygon fill="white" stroke="#666666" points="978,-297.03 856,-297.03 856,-278.03 978,-278.03 978,-297.03"/>
<text text-anchor="middle" x="917" y="-285.03" font-family="Helvetica,sans-Serif" font-size="10.00">handle_current_token</text>
</a>
</g>
</g>
<!-- Node21&#45;&gt;Node22 -->
<g id="edge32" class="edge">
<title>Node21&#45;&gt;Node22</title>
<path fill="none" stroke="#63b8ff" d="M770.25,-126.22C795.42,-154.08 868.29,-234.73 900.44,-270.32"/>
<polygon fill="#63b8ff" stroke="#63b8ff" points="898.05,-272.88 907.35,-277.96 903.24,-268.19 898.05,-272.88"/>
</g>
<!-- Node126 -->
<g id="node36" class="node">
<title>Node126</title>
<g id="a_node36"><a xlink:href="lexer__is__word__separator_8c.html#abccfc6fc0cdbd040fc9a7dcbfd207090" target="_top" xlink:title=" ">
<polygon fill="white" stroke="#666666" points="1514,-145.03 1379,-145.03 1379,-126.03 1514,-126.03 1514,-145.03"/>
<text text-anchor="middle" x="1446.5" y="-133.03" font-family="Helvetica,sans-Serif" font-size="10.00">lexer_is_word_separator</text>
</a>
</g>
</g>
<!-- Node21&#45;&gt;Node126 -->
<g id="edge68" class="edge">
<title>Node21&#45;&gt;Node126</title>
<path fill="none" stroke="#63b8ff" d="M809.05,-117.85C925.58,-121.09 1226.2,-129.44 1368.56,-133.4"/>
<polygon fill="#63b8ff" stroke="#63b8ff" points="1368.86,-136.91 1378.95,-133.68 1369.05,-129.91 1368.86,-136.91"/>
</g>
<!-- Node23 -->
<g id="node23" class="node">
<title>Node23</title>
<g id="a_node23"><a xlink:href="lexer__word_8c.html#acd8f2a3c47fa56f87c2792ccefd2ee3e" target="_top" xlink:title=" ">
<polygon fill="white" stroke="#666666" points="1148.5,-497.03 1027.5,-497.03 1027.5,-478.03 1148.5,-478.03 1148.5,-497.03"/>
<text text-anchor="middle" x="1088" y="-485.03" font-family="Helvetica,sans-Serif" font-size="10.00">handle_double_quote</text>
</a>
</g>
</g>
<!-- Node22&#45;&gt;Node23 -->
<g id="edge33" class="edge">
<title>Node22&#45;&gt;Node23</title>
<path fill="none" stroke="#63b8ff" d="M920.51,-297.16C928.68,-326.6 957.31,-416.31 1014,-463.53 1018.98,-467.68 1024.69,-471.12 1030.69,-473.96"/>
<polygon fill="#63b8ff" stroke="#63b8ff" points="1029.7,-477.34 1040.27,-477.97 1032.4,-470.89 1029.7,-477.34"/>
</g>
<!-- Node24 -->
<g id="node24" class="node">
<title>Node24</title>
<g id="a_node24"><a xlink:href="lexer__word_8c.html#a733339142f4677a066646a12a7e5bec4" target="_top" xlink:title=" ">
<polygon fill="white" stroke="#666666" points="1339,-278.03 1198,-278.03 1198,-259.03 1339,-259.03 1339,-278.03"/>
<text text-anchor="middle" x="1268.5" y="-266.03" font-family="Helvetica,sans-Serif" font-size="10.00">handle_escape_sequence</text>
</a>
</g>
</g>
<!-- Node22&#45;&gt;Node24 -->
<g id="edge34" class="edge">
<title>Node22&#45;&gt;Node24</title>
<path fill="none" stroke="#63b8ff" d="M978.08,-284.27C1035.97,-281.12 1123.93,-276.34 1187.68,-272.87"/>
<polygon fill="#63b8ff" stroke="#63b8ff" points="1187.9,-276.37 1197.7,-272.33 1187.52,-269.38 1187.9,-276.37"/>
</g>
<!-- Node28 -->
<g id="node28" class="node">
<title>Node28</title>
<g id="a_node28"><a xlink:href="lexer__word_8c.html#a3ae03e49183787e7cf32c90ffdef7351" target="_top" xlink:title=" ">
<polygon fill="white" stroke="#666666" points="1146.5,-240.03 1029.5,-240.03 1029.5,-221.03 1146.5,-221.03 1146.5,-240.03"/>
<text text-anchor="middle" x="1088" y="-228.03" font-family="Helvetica,sans-Serif" font-size="10.00">handle_single_quote</text>
</a>
</g>
</g>
<!-- Node22&#45;&gt;Node28 -->
<g id="edge38" class="edge">
<title>Node22&#45;&gt;Node28</title>
<path fill="none" stroke="#63b8ff" d="M945.69,-277.9C964.85,-271.27 990.95,-262.28 1014,-254.53 1024.94,-250.86 1036.82,-246.92 1047.76,-243.33"/>
<polygon fill="#63b8ff" stroke="#63b8ff" points="1049.08,-246.58 1057.49,-240.14 1046.9,-239.93 1049.08,-246.58"/>
</g>
<!-- Node29 -->
<g id="node29" class="node">
<title>Node29</title>
<g id="a_node29"><a xlink:href="lexer__utils_8c.html#a2ba6f7e43ecbf713c666ab062eac534c" target="_top" xlink:title=" ">
<polygon fill="white" stroke="#666666" points="1162,-316.03 1014,-316.03 1014,-297.03 1162,-297.03 1162,-316.03"/>
<text text-anchor="middle" x="1088" y="-304.03" font-family="Helvetica,sans-Serif" font-size="10.00">lexer_append_current_char</text>
</a>
</g>
</g>
<!-- Node22&#45;&gt;Node29 -->
<g id="edge40" class="edge">
<title>Node22&#45;&gt;Node29</title>
<path fill="none" stroke="#63b8ff" d="M978.06,-294.29C986.38,-295.22 995.04,-296.2 1003.69,-297.17"/>
<polygon fill="#63b8ff" stroke="#63b8ff" points="1003.49,-300.67 1013.81,-298.31 1004.27,-293.71 1003.49,-300.67"/>
</g>
<!-- Node30 -->
<g id="node30" class="node">
<title>Node30</title>
<g id="a_node30"><a xlink:href="lexer__expand__command__substitution_8c.html#aad26825e6ecc7617687abd601366b15d" target="_top" xlink:title=" ">
<polygon fill="white" stroke="#666666" points="1336.5,-595.53 1200.5,-595.53 1200.5,-565.53 1336.5,-565.53 1336.5,-595.53"/>
<text text-anchor="start" x="1208.5" y="-583.53" font-family="Helvetica,sans-Serif" font-size="10.00">lexer_expand_command</text>
<text text-anchor="middle" x="1268.5" y="-572.53" font-family="Helvetica,sans-Serif" font-size="10.00">_substitution</text>
</a>
</g>
</g>
<!-- Node22&#45;&gt;Node30 -->
<g id="edge42" class="edge">
<title>Node22&#45;&gt;Node30</title>
<path fill="none" stroke="#63b8ff" d="M921.66,-297.3C931.93,-323.3 963.57,-394.64 1014,-430.53 1069.42,-469.98 1107.9,-428.3 1162,-469.53 1187.34,-488.85 1176.48,-508.03 1198,-531.53 1207.77,-542.21 1220.25,-551.89 1231.93,-559.78"/>
<polygon fill="#63b8ff" stroke="#63b8ff" points="1230.35,-562.93 1240.64,-565.44 1234.17,-557.06 1230.35,-562.93"/>
</g>
<!-- Node124 -->
<g id="node33" class="node">
<title>Node124</title>
<g id="a_node33"><a xlink:href="lexer__expand__tilde_8c.html#ae3c478a10a2764ee7c7f94b42f28ecaf" target="_top" xlink:title=" ">
<polygon fill="white" stroke="#666666" points="1142.5,-183.03 1033.5,-183.03 1033.5,-164.03 1142.5,-164.03 1142.5,-183.03"/>
<text text-anchor="middle" x="1088" y="-171.03" font-family="Helvetica,sans-Serif" font-size="10.00">lexer_expand_tilde</text>
</a>
</g>
</g>
<!-- Node22&#45;&gt;Node124 -->
<g id="edge48" class="edge">
<title>Node22&#45;&gt;Node124</title>
<path fill="none" stroke="#63b8ff" d="M929.05,-277.87C946.44,-262.9 981.56,-233.65 1014,-212.53 1027.99,-203.43 1044.32,-194.55 1057.98,-187.58"/>
<polygon fill="#63b8ff" stroke="#63b8ff" points="1059.59,-190.69 1066.95,-183.07 1056.45,-184.43 1059.59,-190.69"/>
</g>
<!-- Node127 -->
<g id="node37" class="node">
<title>Node127</title>
<g id="a_node37"><a xlink:href="lexer__expand__variable_8c.html#a01ad90eb8460a612626bb33c9e15cd52" target="_top" xlink:title=" ">
<polygon fill="white" stroke="#666666" points="1151.5,-421.03 1024.5,-421.03 1024.5,-402.03 1151.5,-402.03 1151.5,-421.03"/>
<text text-anchor="middle" x="1088" y="-409.03" font-family="Helvetica,sans-Serif" font-size="10.00">lexer_expand_variable</text>
</a>
</g>
</g>
<!-- Node22&#45;&gt;Node127 -->
<g id="edge54" class="edge">
<title>Node22&#45;&gt;Node127</title>
<path fill="none" stroke="#63b8ff" d="M930.98,-297.06C959.91,-318.28 1029.92,-369.65 1065.49,-395.75"/>
<polygon fill="#63b8ff" stroke="#63b8ff" points="1063.61,-398.71 1073.74,-401.81 1067.75,-393.07 1063.61,-398.71"/>
</g>
<!-- Node25 -->
<g id="node25" class="node">
<title>Node25</title>
<g id="a_node25"><a xlink:href="lexer__utils_8c.html#abf1c1b3b6033c8f9c8d1b11cc9e14f75" target="_top" xlink:title=" ">
<polygon fill="white" stroke="#666666" points="1690,-402.03 1590,-402.03 1590,-383.03 1690,-383.03 1690,-402.03"/>
<text text-anchor="middle" x="1640" y="-390.03" font-family="Helvetica,sans-Serif" font-size="10.00">lexer_append_str</text>
</a>
</g>
</g>
<!-- Node24&#45;&gt;Node25 -->
<g id="edge35" class="edge">
<title>Node24&#45;&gt;Node25</title>
<path fill="none" stroke="#63b8ff" d="M1339.09,-264.54C1390.42,-264.1 1460.96,-268.85 1518,-292.53 1562.61,-311.05 1603.45,-351.86 1624.35,-375.22"/>
<polygon fill="#63b8ff" stroke="#63b8ff" points="1621.91,-377.74 1631.12,-382.96 1627.18,-373.13 1621.91,-377.74"/>
</g>
<!-- Node26 -->
<g id="node26" class="node">
<title>Node26</title>
<g id="a_node26"><a xlink:href="strings_8h.html#a5e1589f073ac32d227dbc6020c376dab" target="_top" xlink:title=" ">
<polygon fill="white" stroke="#666666" points="1871.5,-402.03 1770.5,-402.03 1770.5,-383.03 1871.5,-383.03 1871.5,-402.03"/>
<text text-anchor="middle" x="1821" y="-390.03" font-family="Helvetica,sans-Serif" font-size="10.00">append_to_buffer</text>
</a>
</g>
</g>
<!-- Node25&#45;&gt;Node26 -->
<g id="edge36" class="edge">
<title>Node25&#45;&gt;Node26</title>
<path fill="none" stroke="#63b8ff" d="M1690.39,-392.53C1712.01,-392.53 1737.58,-392.53 1760.27,-392.53"/>
<polygon fill="#63b8ff" stroke="#63b8ff" points="1760.46,-396.03 1770.46,-392.53 1760.46,-389.03 1760.46,-396.03"/>
</g>
<!-- Node27 -->
<g id="node27" class="node">
<title>Node27</title>
<g id="a_node27"><a xlink:href="lexer__utils_8c.html#a84e8d5514cfe03a20152ad26f170211f" target="_top" xlink:title=" ">
<polygon fill="white" stroke="#666666" points="1880,-497.03 1762,-497.03 1762,-478.03 1880,-478.03 1880,-497.03"/>
<text text-anchor="middle" x="1821" y="-485.03" font-family="Helvetica,sans-Serif" font-size="10.00">lexer_set_alloc_error</text>
</a>
</g>
</g>
<!-- Node25&#45;&gt;Node27 -->
<g id="edge37" class="edge">
<title>Node25&#45;&gt;Node27</title>
<path fill="none" stroke="#63b8ff" d="M1659.15,-402.17C1690.72,-418.92 1755.92,-453.53 1792.88,-473.14"/>
<polygon fill="#63b8ff" stroke="#63b8ff" points="1791.6,-476.42 1802.07,-478.02 1794.88,-470.24 1791.6,-476.42"/>
</g>
<!-- Node28&#45;&gt;Node25 -->
<g id="edge39" class="edge">
<title>Node28&#45;&gt;Node25</title>
<path fill="none" stroke="#63b8ff" d="M1146.55,-221.64C1232.22,-211.14 1396.28,-201.84 1518,-260.53 1570.08,-285.65 1610.35,-343.94 1628.48,-373.95"/>
<polygon fill="#63b8ff" stroke="#63b8ff" points="1625.69,-376.1 1633.77,-382.95 1631.72,-372.55 1625.69,-376.1"/>
</g>
<!-- Node29&#45;&gt;Node25 -->
<g id="edge41" class="edge">
<title>Node29&#45;&gt;Node25</title>
<path fill="none" stroke="#63b8ff" d="M1162.33,-299.75C1249.06,-293.99 1396.92,-291.37 1518,-325.53 1555.95,-336.24 1595,-360.78 1618.12,-377"/>
<polygon fill="#63b8ff" stroke="#63b8ff" points="1616.28,-379.98 1626.45,-382.96 1620.36,-374.29 1616.28,-379.98"/>
</g>
<!-- Node30&#45;&gt;Node27 -->
<g id="edge47" class="edge">
<title>Node30&#45;&gt;Node27</title>
<path fill="none" stroke="#63b8ff" d="M1320.79,-595.55C1408.57,-618.29 1591.17,-652.54 1726,-589.53 1764.52,-571.53 1794.62,-529.84 1809.59,-505.7"/>
<polygon fill="#63b8ff" stroke="#63b8ff" points="1812.6,-507.49 1814.74,-497.11 1806.6,-503.89 1812.6,-507.49"/>
</g>
<!-- Node31 -->
<g id="node31" class="node">
<title>Node31</title>
<g id="a_node31"><a xlink:href="lexer__expand__command__substitution_8c.html#ad31353a5e4ff94d4ffc515367ef29625" target="_top" xlink:title=" ">
<polygon fill="white" stroke="#666666" points="1518,-590.03 1375,-590.03 1375,-571.03 1518,-571.03 1518,-590.03"/>
<text text-anchor="middle" x="1446.5" y="-578.03" font-family="Helvetica,sans-Serif" font-size="10.00">append_command_output</text>
</a>
</g>
</g>
<!-- Node30&#45;&gt;Node31 -->
<g id="edge43" class="edge">
<title>Node30&#45;&gt;Node31</title>
<path fill="none" stroke="#63b8ff" d="M1336.54,-580.53C1345.74,-580.53 1355.27,-580.53 1364.69,-580.53"/>
<polygon fill="#63b8ff" stroke="#63b8ff" points="1364.84,-584.03 1374.84,-580.53 1364.84,-577.03 1364.84,-584.03"/>
</g>
<!-- Node31&#45;&gt;Node25 -->
<g id="edge45" class="edge">
<title>Node31&#45;&gt;Node25</title>
<path fill="none" stroke="#63b8ff" d="M1501.59,-570.99C1507.4,-568.74 1513,-565.96 1518,-562.53 1547.75,-542.14 1604.42,-450.62 1628.14,-410.96"/>
<polygon fill="#63b8ff" stroke="#63b8ff" points="1631.32,-412.45 1633.42,-402.07 1625.31,-408.88 1631.32,-412.45"/>
</g>
<!-- Node31&#45;&gt;Node27 -->
<g id="edge46" class="edge">
<title>Node31&#45;&gt;Node27</title>
<path fill="none" stroke="#63b8ff" d="M1518.11,-587.83C1575.97,-591.13 1658.94,-589.58 1726,-563.53 1758.23,-551.02 1787.91,-523.13 1804.97,-504.84"/>
<polygon fill="#63b8ff" stroke="#63b8ff" points="1807.77,-506.97 1811.89,-497.21 1802.58,-502.27 1807.77,-506.97"/>
</g>
<!-- Node32 -->
<g id="node32" class="node">
<title>Node32</title>
<g id="a_node32"><a xlink:href="execute__command__substitution_8c.html#a44d633c45c6a1c7a82b2fc4f1f3a1b85" target="_top" xlink:title=" ">
<polygon fill="#fff0f0" stroke="red" points="1726,-554.03 1554,-554.03 1554,-535.03 1726,-535.03 1726,-554.03"/>
<text text-anchor="middle" x="1640" y="-542.03" font-family="Helvetica,sans-Serif" font-size="10.00">execute_command_substitution</text>
</a>
</g>
</g>
<!-- Node31&#45;&gt;Node32 -->
<g id="edge44" class="edge">
<title>Node31&#45;&gt;Node32</title>
<path fill="none" stroke="#63b8ff" d="M1498.06,-571.03C1522.62,-566.41 1552.32,-560.83 1578.11,-555.98"/>
<polygon fill="#63b8ff" stroke="#63b8ff" points="1578.97,-559.38 1588.15,-554.09 1577.68,-552.5 1578.97,-559.38"/>
</g>
<!-- Node124&#45;&gt;Node25 -->
<g id="edge51" class="edge">
<title>Node124&#45;&gt;Node25</title>
<path fill="none" stroke="#63b8ff" d="M1142.86,-173.38C1243.57,-173.99 1455.83,-179.76 1518,-216.53 1579.87,-253.13 1617.42,-335.23 1632.01,-372.93"/>
<polygon fill="#63b8ff" stroke="#63b8ff" points="1628.88,-374.56 1635.66,-382.71 1635.44,-372.12 1628.88,-374.56"/>
</g>
<!-- Node56 -->
<g id="node34" class="node">
<title>Node56</title>
<g id="a_node34"><a xlink:href="get__variable__value_8c.html#a2edd9900f19af236aa05385a789be3d6" target="_top" xlink:title=" ">
<polygon fill="white" stroke="#666666" points="1695,-88.03 1585,-88.03 1585,-69.03 1695,-69.03 1695,-88.03"/>
<text text-anchor="middle" x="1640" y="-76.03" font-family="Helvetica,sans-Serif" font-size="10.00">get_variable_value</text>
</a>
</g>
</g>
<!-- Node124&#45;&gt;Node56 -->
<g id="edge49" class="edge">
<title>Node124&#45;&gt;Node56</title>
<path fill="none" stroke="#63b8ff" d="M1112.85,-163.92C1134.67,-155.49 1168.03,-143.52 1198,-136.53 1329.89,-105.79 1488.03,-89.95 1574.57,-83.02"/>
<polygon fill="#63b8ff" stroke="#63b8ff" points="1575.06,-86.49 1584.76,-82.22 1574.51,-79.51 1575.06,-86.49"/>
</g>
<!-- Node125 -->
<g id="node35" class="node">
<title>Node125</title>
<g id="a_node35"><a xlink:href="lexer__expand__tilde_8c.html#aa4231a41b1e79447d6a70db7b075f937" target="_top" xlink:title=" ">
<polygon fill="white" stroke="#666666" points="1327,-164.03 1210,-164.03 1210,-145.03 1327,-145.03 1327,-164.03"/>
<text text-anchor="middle" x="1268.5" y="-152.03" font-family="Helvetica,sans-Serif" font-size="10.00">should_expand_tilde</text>
</a>
</g>
</g>
<!-- Node124&#45;&gt;Node125 -->
<g id="edge52" class="edge">
<title>Node124&#45;&gt;Node125</title>
<path fill="none" stroke="#63b8ff" d="M1142.56,-167.83C1160.57,-165.92 1180.92,-163.75 1199.88,-161.73"/>
<polygon fill="#63b8ff" stroke="#63b8ff" points="1200.37,-165.2 1209.94,-160.66 1199.63,-158.24 1200.37,-165.2"/>
</g>
<!-- Node56&#45;&gt;Node20 -->
<g id="edge50" class="edge">
<title>Node56&#45;&gt;Node20</title>
<path fill="none" stroke="#63b8ff" d="M1686.17,-68.94C1712.53,-63.35 1745.75,-56.3 1772.49,-50.62"/>
<polygon fill="#63b8ff" stroke="#63b8ff" points="1773.35,-54.02 1782.4,-48.52 1771.89,-47.17 1773.35,-54.02"/>
</g>
<!-- Node125&#45;&gt;Node126 -->
<g id="edge53" class="edge">
<title>Node125&#45;&gt;Node126</title>
<path fill="none" stroke="#63b8ff" d="M1327.13,-148.31C1340.44,-146.88 1354.81,-145.32 1368.79,-143.82"/>
<polygon fill="#63b8ff" stroke="#63b8ff" points="1369.31,-147.28 1378.88,-142.73 1368.56,-140.32 1369.31,-147.28"/>
</g>
<!-- Node128 -->
<g id="node38" class="node">
<title>Node128</title>
<g id="a_node38"><a xlink:href="lexer__expand__variable_8c.html#abe77b7e35b276965b72648d12abae283" target="_top" xlink:title=" ">
<polygon fill="white" stroke="#666666" points="1311.5,-402.03 1225.5,-402.03 1225.5,-383.03 1311.5,-383.03 1311.5,-402.03"/>
<text text-anchor="middle" x="1268.5" y="-390.03" font-family="Helvetica,sans-Serif" font-size="10.00">append_dollar</text>
</a>
</g>
</g>
<!-- Node127&#45;&gt;Node128 -->
<g id="edge55" class="edge">
<title>Node127&#45;&gt;Node128</title>
<path fill="none" stroke="#63b8ff" d="M1151.68,-404.86C1172.47,-402.65 1195.37,-400.21 1215.28,-398.09"/>
<polygon fill="#63b8ff" stroke="#63b8ff" points="1215.82,-401.55 1225.4,-397.02 1215.08,-394.59 1215.82,-401.55"/>
</g>
<!-- Node129 -->
<g id="node39" class="node">
<title>Node129</title>
<g id="a_node39"><a xlink:href="lexer__expand__variable_8c.html#ab47d31838e3255a1321d85e937919d4e" target="_top" xlink:title=" ">
<polygon fill="white" stroke="#666666" points="1502,-553.03 1391,-553.03 1391,-534.03 1502,-534.03 1502,-553.03"/>
<text text-anchor="middle" x="1446.5" y="-541.03" font-family="Helvetica,sans-Serif" font-size="10.00">append_last_status</text>
</a>
</g>
</g>
<!-- Node127&#45;&gt;Node129 -->
<g id="edge57" class="edge">
<title>Node127&#45;&gt;Node129</title>
<path fill="none" stroke="#63b8ff" d="M1134.73,-421.1C1144.39,-424.56 1154.05,-429.24 1162,-435.53 1186.07,-454.62 1172.81,-476.96 1198,-494.53 1251.83,-532.09 1327.44,-542.47 1380.89,-544.62"/>
<polygon fill="#63b8ff" stroke="#63b8ff" points="1380.83,-548.12 1390.93,-544.94 1381.05,-541.12 1380.83,-548.12"/>
</g>
<!-- Node130 -->
<g id="node40" class="node">
<title>Node130</title>
<g id="a_node40"><a xlink:href="lexer__expand__variable_8c.html#a07266aa32aac17a8faafbc1736251f75" target="_top" xlink:title=" ">
<polygon fill="white" stroke="#666666" points="1311.5,-440.03 1225.5,-440.03 1225.5,-421.03 1311.5,-421.03 1311.5,-440.03"/>
<text text-anchor="middle" x="1268.5" y="-428.03" font-family="Helvetica,sans-Serif" font-size="10.00">append_name</text>
</a>
</g>
</g>
<!-- Node127&#45;&gt;Node130 -->
<g id="edge60" class="edge">
<title>Node127&#45;&gt;Node130</title>
<path fill="none" stroke="#63b8ff" d="M1151.68,-418.21C1172.47,-420.42 1195.37,-422.86 1215.28,-424.98"/>
<polygon fill="#63b8ff" stroke="#63b8ff" points="1215.08,-428.47 1225.4,-426.05 1215.82,-421.51 1215.08,-428.47"/>
</g>
<!-- Node133 -->
<g id="node43" class="node">
<title>Node133</title>
<g id="a_node43"><a xlink:href="lexer__expand__variable_8c.html#af3a3eadcd608e4dadc010ddf2cb068fb" target="_top" xlink:title=" ">
<polygon fill="white" stroke="#666666" points="1334,-485.03 1203,-485.03 1203,-466.03 1334,-466.03 1334,-485.03"/>
<text text-anchor="middle" x="1268.5" y="-473.03" font-family="Helvetica,sans-Serif" font-size="10.00">get_variable_name_len</text>
</a>
</g>
</g>
<!-- Node127&#45;&gt;Node133 -->
<g id="edge66" class="edge">
<title>Node127&#45;&gt;Node133</title>
<path fill="none" stroke="#63b8ff" d="M1119.31,-421.1C1132.48,-425.36 1148.06,-430.54 1162,-435.53 1178.16,-441.33 1181.96,-443.41 1198,-449.53 1209.06,-453.75 1221.13,-458.29 1232.07,-462.38"/>
<polygon fill="#63b8ff" stroke="#63b8ff" points="1231.13,-465.77 1241.73,-465.98 1233.58,-459.21 1231.13,-465.77"/>
</g>
<!-- Node128&#45;&gt;Node25 -->
<g id="edge56" class="edge">
<title>Node128&#45;&gt;Node25</title>
<path fill="none" stroke="#63b8ff" d="M1311.53,-392.53C1377.28,-392.53 1504.72,-392.53 1579.76,-392.53"/>
<polygon fill="#63b8ff" stroke="#63b8ff" points="1579.99,-396.03 1589.99,-392.53 1579.99,-389.03 1579.99,-396.03"/>
</g>
<!-- Node129&#45;&gt;Node25 -->
<g id="edge58" class="edge">
<title>Node129&#45;&gt;Node25</title>
<path fill="none" stroke="#63b8ff" d="M1499.73,-533.91C1506.12,-531.67 1512.37,-528.92 1518,-525.53 1531.07,-517.68 1594.71,-444.3 1624.08,-410.02"/>
<polygon fill="#63b8ff" stroke="#63b8ff" points="1626.92,-412.09 1630.76,-402.21 1621.6,-407.54 1626.92,-412.09"/>
</g>
<!-- Node129&#45;&gt;Node27 -->
<g id="edge59" class="edge">
<title>Node129&#45;&gt;Node27</title>
<path fill="none" stroke="#63b8ff" d="M1502.21,-534.66C1518.83,-532.01 1537.16,-529.11 1554,-526.53 1621.18,-516.25 1698,-505.04 1751.75,-497.3"/>
<polygon fill="#63b8ff" stroke="#63b8ff" points="1752.45,-500.73 1761.85,-495.84 1751.45,-493.8 1752.45,-500.73"/>
</g>
<!-- Node130&#45;&gt;Node27 -->
<g id="edge65" class="edge">
<title>Node130&#45;&gt;Node27</title>
<path fill="none" stroke="#63b8ff" d="M1311.71,-439.06C1330.95,-442.71 1354.06,-446.76 1375,-449.53 1507.91,-467.14 1664.28,-478.3 1751.79,-483.69"/>
<polygon fill="#63b8ff" stroke="#63b8ff" points="1751.66,-487.18 1761.86,-484.3 1752.09,-480.2 1751.66,-487.18"/>
</g>
<!-- Node131 -->
<g id="node41" class="node">
<title>Node131</title>
<g id="a_node41"><a xlink:href="lexer__expand__variable_8c.html#a9954e7e26e9570a3c41eed4e16bf6791" target="_top" xlink:title=" ">
<polygon fill="white" stroke="#666666" points="1511.5,-440.03 1381.5,-440.03 1381.5,-421.03 1511.5,-421.03 1511.5,-440.03"/>
<text text-anchor="middle" x="1446.5" y="-428.03" font-family="Helvetica,sans-Serif" font-size="10.00">append_variable_value</text>
</a>
</g>
</g>
<!-- Node130&#45;&gt;Node131 -->
<g id="edge61" class="edge">
<title>Node130&#45;&gt;Node131</title>
<path fill="none" stroke="#63b8ff" d="M1311.66,-430.53C1329.49,-430.53 1350.81,-430.53 1371.14,-430.53"/>
<polygon fill="#63b8ff" stroke="#63b8ff" points="1371.33,-434.03 1381.33,-430.53 1371.33,-427.03 1371.33,-434.03"/>
</g>
<!-- Node132 -->
<g id="node42" class="node">
<title>Node132</title>
<g id="a_node42"><a xlink:href="lexer__expand__variable_8c.html#a1d07a8c171e69a5c58a385a75520e6c0" target="_top" xlink:title=" ">
<polygon fill="white" stroke="#666666" points="1504.5,-364.53 1388.5,-364.53 1388.5,-334.53 1504.5,-334.53 1504.5,-364.53"/>
<text text-anchor="start" x="1396.5" y="-352.53" font-family="Helvetica,sans-Serif" font-size="10.00">get_correct_variable</text>
<text text-anchor="middle" x="1446.5" y="-341.53" font-family="Helvetica,sans-Serif" font-size="10.00">_value</text>
</a>
</g>
</g>
<!-- Node130&#45;&gt;Node132 -->
<g id="edge63" class="edge">
<title>Node130&#45;&gt;Node132</title>
<path fill="none" stroke="#63b8ff" d="M1311.26,-421.02C1320.55,-418.38 1330.23,-415.21 1339,-411.53 1365.81,-400.29 1394.17,-383.51 1414.87,-370.25"/>
<polygon fill="#63b8ff" stroke="#63b8ff" points="1417.06,-373 1423.53,-364.62 1413.24,-367.13 1417.06,-373"/>
</g>
<!-- Node131&#45;&gt;Node25 -->
<g id="edge62" class="edge">
<title>Node131&#45;&gt;Node25</title>
<path fill="none" stroke="#63b8ff" d="M1495.82,-420.94C1521.66,-415.82 1553.67,-409.47 1580.86,-404.07"/>
<polygon fill="#63b8ff" stroke="#63b8ff" points="1581.9,-407.43 1591.02,-402.05 1580.53,-400.57 1581.9,-407.43"/>
</g>
<!-- Node132&#45;&gt;Node56 -->
<g id="edge64" class="edge">
<title>Node132&#45;&gt;Node56</title>
<path fill="none" stroke="#63b8ff" d="M1458.34,-334.19C1491.42,-287.39 1590.89,-146.61 1626.31,-96.49"/>
<polygon fill="#63b8ff" stroke="#63b8ff" points="1629.23,-98.42 1632.15,-88.23 1623.52,-94.38 1629.23,-98.42"/>
</g>
<!-- Node134 -->
<g id="node44" class="node">
<title>Node134</title>
<g id="a_node44"><a xlink:href="lexer__expand__variable_8c.html#a5067193ac632b7565fd8b9ad405a525f" target="_top" xlink:title=" ">
<polygon fill="#fff0f0" stroke="red" points="1509,-516.03 1384,-516.03 1384,-497.03 1509,-497.03 1509,-516.03"/>
<text text-anchor="middle" x="1446.5" y="-504.03" font-family="Helvetica,sans-Serif" font-size="10.00">is_valid_variable_char</text>
</a>
</g>
</g>
<!-- Node133&#45;&gt;Node134 -->
<g id="edge67" class="edge">
<title>Node133&#45;&gt;Node134</title>
<path fill="none" stroke="#63b8ff" d="M1323.74,-485.09C1341.98,-488.3 1362.49,-491.91 1381.41,-495.25"/>
<polygon fill="#63b8ff" stroke="#63b8ff" points="1380.98,-498.72 1391.44,-497.01 1382.2,-491.83 1380.98,-498.72"/>
</g>
<!-- Node136&#45;&gt;Node27 -->
<g id="edge70" class="edge">
<title>Node136&#45;&gt;Node27</title>
<path fill="none" stroke="#63b8ff" d="M958.06,-55.94C1022.98,-50.43 1155.23,-40.53 1267.5,-40.53 1267.5,-40.53 1267.5,-40.53 1447.5,-40.53 1509.55,-40.53 1681.46,-17.33 1726,-60.53 1782.28,-115.12 1733.13,-338.63 1762,-411.53 1771.07,-434.45 1789.14,-456.35 1802.71,-470.71"/>
<polygon fill="#63b8ff" stroke="#63b8ff" points="1800.21,-473.16 1809.7,-477.86 1805.21,-468.26 1800.21,-473.16"/>
</g>
</g>
</svg>
