<?xml version="1.0" encoding="UTF-8" standalone="no"?>
<!DOCTYPE svg PUBLIC "-//W3C//DTD SVG 1.1//EN"
 "http://www.w3.org/Graphics/SVG/1.1/DTD/svg11.dtd">
<!-- Generated by graphviz version 2.43.0 (0)
 -->
<!-- Title: parse_redirection_token Pages: 1 -->
<svg width="1965pt" height="665pt"
 viewBox="0.00 0.00 1965.00 664.54" xmlns="http://www.w3.org/2000/svg" xmlns:xlink="http://www.w3.org/1999/xlink">
<g id="graph0" class="graph" transform="scale(1 1) rotate(0) translate(4 660.54)">
<title>parse_redirection_token</title>
<!-- Node1 -->
<g id="node1" class="node">
<title>Node1</title>
<g id="a_node1"><a xlink:title=" ">
<polygon fill="#999999" stroke="#666666" points="134,-209 0,-209 0,-190 134,-190 134,-209"/>
<text text-anchor="middle" x="67" y="-197" font-family="Helvetica,sans-Serif" font-size="10.00">parse_redirection_token</text>
</a>
</g>
</g>
<!-- Node2 -->
<g id="node2" class="node">
<title>Node2</title>
<g id="a_node2"><a xlink:href="list_8h.html#a18e592f6f160bc93dbb7e5d788a6f2e1" target="_top" xlink:title=" ">
<polygon fill="white" stroke="#666666" points="284,-246 170,-246 170,-227 284,-227 284,-246"/>
<text text-anchor="middle" x="227" y="-234" font-family="Helvetica,sans-Serif" font-size="10.00">my_add_to_list_end</text>
</a>
</g>
</g>
<!-- Node1&#45;&gt;Node2 -->
<g id="edge1" class="edge">
<title>Node1&#45;&gt;Node2</title>
<path fill="none" stroke="#63b8ff" d="M108.69,-209.03C128.97,-213.78 153.71,-219.57 175.22,-224.61"/>
<polygon fill="#63b8ff" stroke="#63b8ff" points="174.64,-228.07 185.17,-226.94 176.24,-221.25 174.64,-228.07"/>
</g>
<!-- Node3 -->
<g id="node3" class="node">
<title>Node3</title>
<g id="a_node3"><a xlink:href="parser__next_8c.html#ad25986b565a767c6ad7d0b0b8846fca6" target="_top" xlink:title=" ">
<polygon fill="white" stroke="#666666" points="264,-209 190,-209 190,-190 264,-190 264,-209"/>
<text text-anchor="middle" x="227" y="-197" font-family="Helvetica,sans-Serif" font-size="10.00">parser_next</text>
</a>
</g>
</g>
<!-- Node1&#45;&gt;Node3 -->
<g id="edge2" class="edge">
<title>Node1&#45;&gt;Node3</title>
<path fill="none" stroke="#63b8ff" d="M134.09,-199.5C149.47,-199.5 165.52,-199.5 179.82,-199.5"/>
<polygon fill="#63b8ff" stroke="#63b8ff" points="179.89,-203 189.89,-199.5 179.89,-196 179.89,-203"/>
</g>
<!-- Node89 -->
<g id="node50" class="node">
<title>Node89</title>
<g id="a_node50"><a xlink:href="parser__set__error_8c.html#adcfabdb026b94fdbe4b6cbf5cb16522a" target="_top" xlink:title=" ">
<polygon fill="white" stroke="#666666" points="275,-172 179,-172 179,-153 275,-153 275,-172"/>
<text text-anchor="middle" x="227" y="-160" font-family="Helvetica,sans-Serif" font-size="10.00">parser_set_error</text>
</a>
</g>
</g>
<!-- Node1&#45;&gt;Node89 -->
<g id="edge76" class="edge">
<title>Node1&#45;&gt;Node89</title>
<path fill="none" stroke="#63b8ff" d="M108.69,-189.97C128.97,-185.22 153.71,-179.43 175.22,-174.39"/>
<polygon fill="#63b8ff" stroke="#63b8ff" points="176.24,-177.75 185.17,-172.06 174.64,-170.93 176.24,-177.75"/>
</g>
<!-- Node4 -->
<g id="node4" class="node">
<title>Node4</title>
<g id="a_node4"><a xlink:href="lexer__next__token_8c.html#a3def5432329709fb4df861d90672c510" target="_top" xlink:title=" ">
<polygon fill="white" stroke="#666666" points="420,-228 320,-228 320,-209 420,-209 420,-228"/>
<text text-anchor="middle" x="370" y="-216" font-family="Helvetica,sans-Serif" font-size="10.00">lexer_next_token</text>
</a>
</g>
</g>
<!-- Node3&#45;&gt;Node4 -->
<g id="edge3" class="edge">
<title>Node3&#45;&gt;Node4</title>
<path fill="none" stroke="#63b8ff" d="M264.31,-204.39C278.17,-206.26 294.35,-208.44 309.79,-210.52"/>
<polygon fill="#63b8ff" stroke="#63b8ff" points="309.41,-214 319.79,-211.87 310.35,-207.06 309.41,-214"/>
</g>
<!-- Node44 -->
<g id="node49" class="node">
<title>Node44</title>
<g id="a_node49"><a xlink:href="destroy__token_8c.html#ad1a471ee7b1ccb035d769be1152a370c" target="_top" xlink:title=" ">
<polygon fill="white" stroke="#666666" points="413,-191 327,-191 327,-172 413,-172 413,-191"/>
<text text-anchor="middle" x="370" y="-179" font-family="Helvetica,sans-Serif" font-size="10.00">token_destroy</text>
</a>
</g>
</g>
<!-- Node3&#45;&gt;Node44 -->
<g id="edge75" class="edge">
<title>Node3&#45;&gt;Node44</title>
<path fill="none" stroke="#63b8ff" d="M264.31,-194.86C280.27,-192.83 299.32,-190.4 316.76,-188.17"/>
<polygon fill="#63b8ff" stroke="#63b8ff" points="317.34,-191.62 326.81,-186.89 316.45,-184.68 317.34,-191.62"/>
</g>
<!-- Node5 -->
<g id="node5" class="node">
<title>Node5</title>
<g id="a_node5"><a xlink:href="create__token_8c.html#a15bcfc92177012893c626ce7d2d6bb6b" target="_top" xlink:title=" ">
<polygon fill="white" stroke="#666666" points="877.5,-376 797.5,-376 797.5,-357 877.5,-357 877.5,-376"/>
<text text-anchor="middle" x="837.5" y="-364" font-family="Helvetica,sans-Serif" font-size="10.00">create_token</text>
</a>
</g>
</g>
<!-- Node4&#45;&gt;Node5 -->
<g id="edge4" class="edge">
<title>Node4&#45;&gt;Node5</title>
<path fill="none" stroke="#63b8ff" d="M371.53,-228.34C374.01,-264.48 387.46,-391.26 456,-459.5 509.69,-512.95 542.3,-502.88 617,-515.5 671.78,-524.75 693.32,-542.27 742,-515.5 792.86,-487.53 820.2,-419.33 830.98,-385.78"/>
<polygon fill="#63b8ff" stroke="#63b8ff" points="834.33,-386.79 833.9,-376.2 827.64,-384.74 834.33,-386.79"/>
</g>
<!-- Node6 -->
<g id="node6" class="node">
<title>Node6</title>
<g id="a_node6"><a xlink:href="lexer__next__token_8c.html#add2e1acaa9518ecf20b6670ad91a5c65" target="_top" xlink:title=" ">
<polygon fill="white" stroke="#666666" points="569.5,-450 467.5,-450 467.5,-431 569.5,-431 569.5,-450"/>
<text text-anchor="middle" x="518.5" y="-438" font-family="Helvetica,sans-Serif" font-size="10.00">get_logical_token</text>
</a>
</g>
</g>
<!-- Node4&#45;&gt;Node6 -->
<g id="edge5" class="edge">
<title>Node4&#45;&gt;Node6</title>
<path fill="none" stroke="#63b8ff" d="M377.29,-228.04C399.74,-262.05 476.09,-377.75 505.66,-422.56"/>
<polygon fill="#63b8ff" stroke="#63b8ff" points="502.8,-424.58 511.23,-431 508.64,-420.72 502.8,-424.58"/>
</g>
<!-- Node10 -->
<g id="node10" class="node">
<title>Node10</title>
<g id="a_node10"><a xlink:href="lexer__next__token_8c.html#abcee8a7ba5ea6ca80c0bd7e3dd8d9a32" target="_top" xlink:title=" ">
<polygon fill="white" stroke="#666666" points="579.5,-321 457.5,-321 457.5,-302 579.5,-302 579.5,-321"/>
<text text-anchor="middle" x="518.5" y="-309" font-family="Helvetica,sans-Serif" font-size="10.00">get_redirection_token</text>
</a>
</g>
</g>
<!-- Node4&#45;&gt;Node10 -->
<g id="edge12" class="edge">
<title>Node4&#45;&gt;Node10</title>
<path fill="none" stroke="#63b8ff" d="M386.13,-228.1C411.57,-244.25 463.12,-276.98 493.53,-296.28"/>
<polygon fill="#63b8ff" stroke="#63b8ff" points="491.92,-299.41 502.24,-301.81 495.67,-293.5 491.92,-299.41"/>
</g>
<!-- Node15 -->
<g id="node15" class="node">
<title>Node15</title>
<g id="a_node15"><a xlink:href="lexer__newline_8c.html#a9f60bf18297b9c705fa6cdff027c79fc" target="_top" xlink:title=" ">
<polygon fill="white" stroke="#666666" points="721.5,-247 637.5,-247 637.5,-228 721.5,-228 721.5,-247"/>
<text text-anchor="middle" x="679.5" y="-235" font-family="Helvetica,sans-Serif" font-size="10.00">lexer_newline</text>
</a>
</g>
</g>
<!-- Node4&#45;&gt;Node15 -->
<g id="edge21" class="edge">
<title>Node4&#45;&gt;Node15</title>
<path fill="none" stroke="#63b8ff" d="M420.06,-221.53C476.73,-225.03 569.53,-230.77 627.15,-234.33"/>
<polygon fill="#63b8ff" stroke="#63b8ff" points="627.29,-237.84 637.48,-234.97 627.72,-230.86 627.29,-237.84"/>
</g>
<!-- Node16 -->
<g id="node16" class="node">
<title>Node16</title>
<g id="a_node16"><a xlink:href="lexer__parenthesis_8c.html#a2b13eaa0fee255bea85bd4279f369795" target="_top" xlink:title=" ">
<polygon fill="white" stroke="#666666" points="570,-209 467,-209 467,-190 570,-190 570,-209"/>
<text text-anchor="middle" x="518.5" y="-197" font-family="Helvetica,sans-Serif" font-size="10.00">lexer_parenthesis</text>
</a>
</g>
</g>
<!-- Node4&#45;&gt;Node16 -->
<g id="edge23" class="edge">
<title>Node4&#45;&gt;Node16</title>
<path fill="none" stroke="#63b8ff" d="M420.19,-212.12C431.94,-210.6 444.63,-208.95 456.83,-207.37"/>
<polygon fill="#63b8ff" stroke="#63b8ff" points="457.47,-210.81 466.94,-206.06 456.57,-203.87 457.47,-210.81"/>
</g>
<!-- Node17 -->
<g id="node17" class="node">
<title>Node17</title>
<g id="a_node17"><a xlink:href="lexer__semicolon_8c.html#a1612109b245d9780427946e4e33b01b7" target="_top" xlink:title=" ">
<polygon fill="white" stroke="#666666" points="566.5,-582 470.5,-582 470.5,-563 566.5,-563 566.5,-582"/>
<text text-anchor="middle" x="518.5" y="-570" font-family="Helvetica,sans-Serif" font-size="10.00">lexer_semicolon</text>
</a>
</g>
</g>
<!-- Node4&#45;&gt;Node17 -->
<g id="edge25" class="edge">
<title>Node4&#45;&gt;Node17</title>
<path fill="none" stroke="#63b8ff" d="M370.53,-228.03C368.94,-271.05 368.08,-449.34 456,-548.5 459.43,-552.37 463.56,-555.62 468.03,-558.35"/>
<polygon fill="#63b8ff" stroke="#63b8ff" points="466.49,-561.49 476.98,-562.98 469.71,-555.27 466.49,-561.49"/>
</g>
<!-- Node18 -->
<g id="node18" class="node">
<title>Node18</title>
<g id="a_node18"><a xlink:href="lexer__word_8c.html#ac2600a9ba16009c4d8c114a118c54955" target="_top" xlink:title=" ">
<polygon fill="white" stroke="#666666" points="553.5,-172 483.5,-172 483.5,-153 553.5,-153 553.5,-172"/>
<text text-anchor="middle" x="518.5" y="-160" font-family="Helvetica,sans-Serif" font-size="10.00">lexer_word</text>
</a>
</g>
</g>
<!-- Node4&#45;&gt;Node18 -->
<g id="edge27" class="edge">
<title>Node4&#45;&gt;Node18</title>
<path fill="none" stroke="#63b8ff" d="M398.99,-208.95C405.93,-206.38 413.29,-203.49 420,-200.5 436.53,-193.14 439.29,-188.42 456,-181.5 461.56,-179.2 467.49,-177.03 473.41,-175.03"/>
<polygon fill="#63b8ff" stroke="#63b8ff" points="474.83,-178.25 483.26,-171.84 472.67,-171.59 474.83,-178.25"/>
</g>
<!-- Node138 -->
<g id="node46" class="node">
<title>Node138</title>
<g id="a_node46"><a xlink:href="lexer__next__token_8c.html#acbf7d728a3a47bb6afba90556ceed465" target="_top" xlink:title=" ">
<polygon fill="white" stroke="#666666" points="557.5,-135 479.5,-135 479.5,-116 557.5,-116 557.5,-135"/>
<text text-anchor="middle" x="518.5" y="-123" font-family="Helvetica,sans-Serif" font-size="10.00">return_token</text>
</a>
</g>
</g>
<!-- Node4&#45;&gt;Node138 -->
<g id="edge72" class="edge">
<title>Node4&#45;&gt;Node138</title>
<path fill="none" stroke="#63b8ff" d="M405.73,-208.98C410.81,-206.7 415.76,-203.9 420,-200.5 443.09,-181.99 432.44,-162.4 456,-144.5 460.18,-141.33 464.89,-138.68 469.8,-136.47"/>
<polygon fill="#63b8ff" stroke="#63b8ff" points="471.34,-139.63 479.4,-132.74 468.81,-133.1 471.34,-139.63"/>
</g>
<!-- Node139 -->
<g id="node47" class="node">
<title>Node139</title>
<g id="a_node47"><a xlink:href="lexer__next__token_8c.html#a7f0a2dd2373821667a4d5381e7711aa0" target="_top" xlink:title=" ">
<polygon fill="white" stroke="#666666" points="563,-98 474,-98 474,-79 563,-79 563,-98"/>
<text text-anchor="middle" x="518.5" y="-86" font-family="Helvetica,sans-Serif" font-size="10.00">skip_comment</text>
</a>
</g>
</g>
<!-- Node4&#45;&gt;Node139 -->
<g id="edge73" class="edge">
<title>Node4&#45;&gt;Node139</title>
<path fill="none" stroke="#63b8ff" d="M407.86,-208.97C412.31,-206.71 416.51,-203.93 420,-200.5 451.61,-169.43 423.59,-137.73 456,-107.5 458.61,-105.06 461.53,-102.94 464.64,-101.09"/>
<polygon fill="#63b8ff" stroke="#63b8ff" points="466.39,-104.13 473.8,-96.56 463.29,-97.85 466.39,-104.13"/>
</g>
<!-- Node140 -->
<g id="node48" class="node">
<title>Node140</title>
<g id="a_node48"><a xlink:href="lexer__next__token_8c.html#a5b2052471d98cef2998e1367f9bf8f6d" target="_top" xlink:title=" ">
<polygon fill="white" stroke="#666666" points="581,-61 456,-61 456,-42 581,-42 581,-61"/>
<text text-anchor="middle" x="518.5" y="-49" font-family="Helvetica,sans-Serif" font-size="10.00">skip_spaces_and_tabs</text>
</a>
</g>
</g>
<!-- Node4&#45;&gt;Node140 -->
<g id="edge74" class="edge">
<title>Node4&#45;&gt;Node140</title>
<path fill="none" stroke="#63b8ff" d="M409.16,-208.77C413.19,-206.55 416.93,-203.84 420,-200.5 460.87,-156.05 413.66,-112.55 456,-69.5 456.94,-68.54 457.94,-67.63 458.97,-66.77"/>
<polygon fill="#63b8ff" stroke="#63b8ff" points="461.18,-69.5 467.59,-61.06 457.32,-63.67 461.18,-69.5"/>
</g>
<!-- Node7 -->
<g id="node7" class="node">
<title>Node7</title>
<g id="a_node7"><a xlink:href="lexer__logical__and_8c.html#a59e5031d54357d65c6873edc67de2a47" target="_top" xlink:title=" ">
<polygon fill="white" stroke="#666666" points="730,-432 629,-432 629,-413 730,-413 730,-432"/>
<text text-anchor="middle" x="679.5" y="-420" font-family="Helvetica,sans-Serif" font-size="10.00">lexer_logical_and</text>
</a>
</g>
</g>
<!-- Node6&#45;&gt;Node7 -->
<g id="edge6" class="edge">
<title>Node6&#45;&gt;Node7</title>
<path fill="none" stroke="#63b8ff" d="M569.81,-434.8C585.26,-433.06 602.41,-431.11 618.45,-429.3"/>
<polygon fill="#63b8ff" stroke="#63b8ff" points="619.25,-432.73 628.79,-428.13 618.46,-425.77 619.25,-432.73"/>
</g>
<!-- Node8 -->
<g id="node8" class="node">
<title>Node8</title>
<g id="a_node8"><a xlink:href="lexer__logical__or_8c.html#ac3851eaea27bd5774b126b888bdddf93" target="_top" xlink:title=" ">
<polygon fill="white" stroke="#666666" points="726,-506 633,-506 633,-487 726,-487 726,-506"/>
<text text-anchor="middle" x="679.5" y="-494" font-family="Helvetica,sans-Serif" font-size="10.00">lexer_logical_or</text>
</a>
</g>
</g>
<!-- Node6&#45;&gt;Node8 -->
<g id="edge8" class="edge">
<title>Node6&#45;&gt;Node8</title>
<path fill="none" stroke="#63b8ff" d="M542.54,-450.13C562.16,-458.18 591.2,-469.72 617,-478.5 622.53,-480.38 628.38,-482.25 634.19,-484.03"/>
<polygon fill="#63b8ff" stroke="#63b8ff" points="633.27,-487.41 643.86,-486.93 635.28,-480.71 633.27,-487.41"/>
</g>
<!-- Node9 -->
<g id="node9" class="node">
<title>Node9</title>
<g id="a_node9"><a xlink:href="lexer__pipe_8c.html#a693816e38802a086de64c09cb7cebeb7" target="_top" xlink:title=" ">
<polygon fill="white" stroke="#666666" points="713,-469 646,-469 646,-450 713,-450 713,-469"/>
<text text-anchor="middle" x="679.5" y="-457" font-family="Helvetica,sans-Serif" font-size="10.00">lexer_pipe</text>
</a>
</g>
</g>
<!-- Node6&#45;&gt;Node9 -->
<g id="edge10" class="edge">
<title>Node6&#45;&gt;Node9</title>
<path fill="none" stroke="#63b8ff" d="M569.81,-446.51C590.88,-449.03 615.13,-451.93 635.37,-454.35"/>
<polygon fill="#63b8ff" stroke="#63b8ff" points="635.21,-457.85 645.56,-455.56 636.04,-450.9 635.21,-457.85"/>
</g>
<!-- Node7&#45;&gt;Node5 -->
<g id="edge7" class="edge">
<title>Node7&#45;&gt;Node5</title>
<path fill="none" stroke="#63b8ff" d="M715.17,-413C723.97,-410.41 733.38,-407.49 742,-404.5 763.39,-397.09 787.01,-387.59 805.29,-379.94"/>
<polygon fill="#63b8ff" stroke="#63b8ff" points="806.73,-383.13 814.58,-376.02 804.01,-376.69 806.73,-383.13"/>
</g>
<!-- Node8&#45;&gt;Node5 -->
<g id="edge9" class="edge">
<title>Node8&#45;&gt;Node5</title>
<path fill="none" stroke="#63b8ff" d="M724.9,-486.93C730.9,-484.67 736.78,-481.9 742,-478.5 779.64,-453.98 810.31,-410.01 825.72,-385.08"/>
<polygon fill="#63b8ff" stroke="#63b8ff" points="828.88,-386.62 831.03,-376.25 822.88,-383.01 828.88,-386.62"/>
</g>
<!-- Node9&#45;&gt;Node5 -->
<g id="edge11" class="edge">
<title>Node9&#45;&gt;Node5</title>
<path fill="none" stroke="#63b8ff" d="M713.01,-452.51C722.64,-449.78 733.01,-446.16 742,-441.5 772,-425.97 801.71,-400.23 819.59,-383.32"/>
<polygon fill="#63b8ff" stroke="#63b8ff" points="822.16,-385.7 826.93,-376.24 817.3,-380.66 822.16,-385.7"/>
</g>
<!-- Node11 -->
<g id="node11" class="node">
<title>Node11</title>
<g id="a_node11"><a xlink:href="lexer__heredoc_8c.html#a9db043b0e8df9ad1155a65a8fcf67c11" target="_top" xlink:title=" ">
<polygon fill="white" stroke="#666666" points="722,-321 637,-321 637,-302 722,-302 722,-321"/>
<text text-anchor="middle" x="679.5" y="-309" font-family="Helvetica,sans-Serif" font-size="10.00">lexer_heredoc</text>
</a>
</g>
</g>
<!-- Node10&#45;&gt;Node11 -->
<g id="edge13" class="edge">
<title>Node10&#45;&gt;Node11</title>
<path fill="none" stroke="#63b8ff" d="M579.61,-311.5C595.04,-311.5 611.52,-311.5 626.5,-311.5"/>
<polygon fill="#63b8ff" stroke="#63b8ff" points="626.61,-315 636.61,-311.5 626.61,-308 626.61,-315"/>
</g>
<!-- Node12 -->
<g id="node12" class="node">
<title>Node12</title>
<g id="a_node12"><a xlink:href="lexer__redirect__append_8c.html#a09beefbfaf132dbe04add1370a6fb2e3" target="_top" xlink:title=" ">
<polygon fill="white" stroke="#666666" points="742,-284 617,-284 617,-265 742,-265 742,-284"/>
<text text-anchor="middle" x="679.5" y="-272" font-family="Helvetica,sans-Serif" font-size="10.00">lexer_redirect_append</text>
</a>
</g>
</g>
<!-- Node10&#45;&gt;Node12 -->
<g id="edge15" class="edge">
<title>Node10&#45;&gt;Node12</title>
<path fill="none" stroke="#63b8ff" d="M560.45,-301.97C580.86,-297.22 605.75,-291.43 627.4,-286.39"/>
<polygon fill="#63b8ff" stroke="#63b8ff" points="628.47,-289.74 637.42,-284.06 626.88,-282.92 628.47,-289.74"/>
</g>
<!-- Node13 -->
<g id="node13" class="node">
<title>Node13</title>
<g id="a_node13"><a xlink:href="lexer__redirect__in_8c.html#ac723d9668329d99b35003ed2423889e5" target="_top" xlink:title=" ">
<polygon fill="white" stroke="#666666" points="728.5,-395 630.5,-395 630.5,-376 728.5,-376 728.5,-395"/>
<text text-anchor="middle" x="679.5" y="-383" font-family="Helvetica,sans-Serif" font-size="10.00">lexer_redirect_in</text>
</a>
</g>
</g>
<!-- Node10&#45;&gt;Node13 -->
<g id="edge17" class="edge">
<title>Node10&#45;&gt;Node13</title>
<path fill="none" stroke="#63b8ff" d="M533.8,-321.17C552.33,-333.34 585.94,-354.25 617,-367.5 621.44,-369.39 626.13,-371.16 630.87,-372.79"/>
<polygon fill="#63b8ff" stroke="#63b8ff" points="630.01,-376.19 640.6,-375.94 632.17,-369.53 630.01,-376.19"/>
</g>
<!-- Node14 -->
<g id="node14" class="node">
<title>Node14</title>
<g id="a_node14"><a xlink:href="lexer__redirect__out_8c.html#a70e2216639c96030b3861405ae3497c6" target="_top" xlink:title=" ">
<polygon fill="white" stroke="#666666" points="731.5,-358 627.5,-358 627.5,-339 731.5,-339 731.5,-358"/>
<text text-anchor="middle" x="679.5" y="-346" font-family="Helvetica,sans-Serif" font-size="10.00">lexer_redirect_out</text>
</a>
</g>
</g>
<!-- Node10&#45;&gt;Node14 -->
<g id="edge19" class="edge">
<title>Node10&#45;&gt;Node14</title>
<path fill="none" stroke="#63b8ff" d="M560.45,-321.03C580.86,-325.78 605.75,-331.57 627.4,-336.61"/>
<polygon fill="#63b8ff" stroke="#63b8ff" points="626.88,-340.08 637.42,-338.94 628.47,-333.26 626.88,-340.08"/>
</g>
<!-- Node11&#45;&gt;Node5 -->
<g id="edge14" class="edge">
<title>Node11&#45;&gt;Node5</title>
<path fill="none" stroke="#63b8ff" d="M712.86,-321.07C722.3,-323.98 732.6,-327.26 742,-330.5 762.45,-337.55 785.1,-346.15 803.1,-353.17"/>
<polygon fill="#63b8ff" stroke="#63b8ff" points="801.99,-356.5 812.57,-356.9 804.55,-349.98 801.99,-356.5"/>
</g>
<!-- Node12&#45;&gt;Node5 -->
<g id="edge16" class="edge">
<title>Node12&#45;&gt;Node5</title>
<path fill="none" stroke="#63b8ff" d="M719.07,-284.09C726.87,-286.67 734.86,-289.79 742,-293.5 771.52,-308.82 801.15,-333.61 819.17,-349.98"/>
<polygon fill="#63b8ff" stroke="#63b8ff" points="816.87,-352.62 826.58,-356.85 821.62,-347.48 816.87,-352.62"/>
</g>
<!-- Node13&#45;&gt;Node5 -->
<g id="edge18" class="edge">
<title>Node13&#45;&gt;Node5</title>
<path fill="none" stroke="#63b8ff" d="M728.58,-379.64C747.24,-377.37 768.59,-374.77 787.34,-372.49"/>
<polygon fill="#63b8ff" stroke="#63b8ff" points="787.96,-375.94 797.47,-371.25 787.12,-368.99 787.96,-375.94"/>
</g>
<!-- Node14&#45;&gt;Node5 -->
<g id="edge20" class="edge">
<title>Node14&#45;&gt;Node5</title>
<path fill="none" stroke="#63b8ff" d="M731.58,-354.39C749.41,-356.45 769.37,-358.75 787.06,-360.8"/>
<polygon fill="#63b8ff" stroke="#63b8ff" points="786.85,-364.29 797.18,-361.96 787.65,-357.34 786.85,-364.29"/>
</g>
<!-- Node15&#45;&gt;Node5 -->
<g id="edge22" class="edge">
<title>Node15&#45;&gt;Node5</title>
<path fill="none" stroke="#63b8ff" d="M721.65,-246.68C728.76,-249.23 735.83,-252.46 742,-256.5 779.17,-280.87 810.02,-323.95 825.59,-348.34"/>
<polygon fill="#63b8ff" stroke="#63b8ff" points="822.7,-350.33 830.96,-356.98 828.65,-346.63 822.7,-350.33"/>
</g>
<!-- Node16&#45;&gt;Node5 -->
<g id="edge24" class="edge">
<title>Node16&#45;&gt;Node5</title>
<path fill="none" stroke="#63b8ff" d="M570.22,-192.01C618.03,-187.58 689.92,-187.96 742,-219.5 790.73,-249.01 818.82,-314.32 830.32,-347.03"/>
<polygon fill="#63b8ff" stroke="#63b8ff" points="827.1,-348.41 833.6,-356.78 833.73,-346.18 827.1,-348.41"/>
</g>
<!-- Node17&#45;&gt;Node5 -->
<g id="edge26" class="edge">
<title>Node17&#45;&gt;Node5</title>
<path fill="none" stroke="#63b8ff" d="M566.9,-579.58C615.21,-584.2 690.2,-583.91 742,-548.5 799.25,-509.36 824.09,-424.43 832.69,-386.04"/>
<polygon fill="#63b8ff" stroke="#63b8ff" points="836.15,-386.62 834.78,-376.12 829.3,-385.18 836.15,-386.62"/>
</g>
<!-- Node18&#45;&gt;Node5 -->
<g id="edge28" class="edge">
<title>Node18&#45;&gt;Node5</title>
<path fill="none" stroke="#63b8ff" d="M553.74,-156.69C600.53,-150.68 685.13,-146.9 742,-185.5 799.13,-224.28 824.03,-308.82 832.67,-347.05"/>
<polygon fill="#63b8ff" stroke="#63b8ff" points="829.27,-347.87 834.77,-356.92 836.12,-346.41 829.27,-347.87"/>
</g>
<!-- Node19 -->
<g id="node19" class="node">
<title>Node19</title>
<g id="a_node19"><a xlink:href="lexer__expand__alias_8c.html#a782a761cdb9088ea2b14b7a97eb85377" target="_top" xlink:title=" ">
<polygon fill="white" stroke="#666666" points="734.5,-95 624.5,-95 624.5,-76 734.5,-76 734.5,-95"/>
<text text-anchor="middle" x="679.5" y="-83" font-family="Helvetica,sans-Serif" font-size="10.00">lexer_expand_alias</text>
</a>
</g>
</g>
<!-- Node18&#45;&gt;Node19 -->
<g id="edge29" class="edge">
<title>Node18&#45;&gt;Node19</title>
<path fill="none" stroke="#63b8ff" d="M553.59,-155.7C562.86,-153.02 572.64,-149.38 581,-144.5 600.28,-133.26 598.23,-121.57 617,-109.5 623.3,-105.45 630.38,-101.9 637.45,-98.87"/>
<polygon fill="#63b8ff" stroke="#63b8ff" points="639.01,-102.01 646.99,-95.05 636.4,-95.52 639.01,-102.01"/>
</g>
<!-- Node21 -->
<g id="node21" class="node">
<title>Node21</title>
<g id="a_node21"><a xlink:href="lexer__word_8c.html#a17ec284a75275629329e3d5699a635d7" target="_top" xlink:title=" ">
<polygon fill="white" stroke="#666666" points="886,-133 789,-133 789,-114 886,-114 886,-133"/>
<text text-anchor="middle" x="837.5" y="-121" font-family="Helvetica,sans-Serif" font-size="10.00">lexer_read_word</text>
</a>
</g>
</g>
<!-- Node18&#45;&gt;Node21 -->
<g id="edge71" class="edge">
<title>Node18&#45;&gt;Node21</title>
<path fill="none" stroke="#63b8ff" d="M553.74,-156.86C572.41,-153.88 595.94,-150.27 617,-147.5 671.83,-140.29 734.57,-133.58 778.89,-129.1"/>
<polygon fill="#63b8ff" stroke="#63b8ff" points="779.3,-132.58 788.9,-128.1 778.6,-125.62 779.3,-132.58"/>
</g>
<!-- Node20 -->
<g id="node20" class="node">
<title>Node20</title>
<g id="a_node20"><a xlink:href="get__variable_8c.html#a569170390f0edf013bf89c26ef55ea8c" target="_top" xlink:title=" ">
<polygon fill="white" stroke="#666666" points="1936.5,-133 1859.5,-133 1859.5,-114 1936.5,-114 1936.5,-133"/>
<text text-anchor="middle" x="1898" y="-121" font-family="Helvetica,sans-Serif" font-size="10.00">get_variable</text>
</a>
</g>
</g>
<!-- Node19&#45;&gt;Node20 -->
<g id="edge30" class="edge">
<title>Node19&#45;&gt;Node20</title>
<path fill="none" stroke="#63b8ff" d="M728.73,-75.96C789.93,-64.7 898.86,-47.5 993,-47.5 993,-47.5 993,-47.5 1524.5,-47.5 1649.31,-47.5 1682.56,-50.76 1803,-83.5 1826.21,-89.81 1851.21,-100.66 1869.59,-109.47"/>
<polygon fill="#63b8ff" stroke="#63b8ff" points="1868.29,-112.73 1878.81,-113.98 1871.37,-106.44 1868.29,-112.73"/>
</g>
<!-- Node19&#45;&gt;Node21 -->
<g id="edge31" class="edge">
<title>Node19&#45;&gt;Node21</title>
<path fill="none" stroke="#63b8ff" d="M719.87,-95.09C740.45,-100.1 765.84,-106.29 787.67,-111.61"/>
<polygon fill="#63b8ff" stroke="#63b8ff" points="786.87,-115.01 797.42,-113.98 788.53,-108.21 786.87,-115.01"/>
</g>
<!-- Node136 -->
<g id="node44" class="node">
<title>Node136</title>
<g id="a_node44"><a xlink:href="lexer__expand__alias_8c.html#a98f32d0d302fe57a01c46b72c25132a1" target="_top" xlink:title=" ">
<polygon fill="white" stroke="#666666" points="1035,-95 953,-95 953,-76 1035,-76 1035,-95"/>
<text text-anchor="middle" x="994" y="-83" font-family="Helvetica,sans-Serif" font-size="10.00">replace_word</text>
</a>
</g>
</g>
<!-- Node19&#45;&gt;Node136 -->
<g id="edge68" class="edge">
<title>Node19&#45;&gt;Node136</title>
<path fill="none" stroke="#63b8ff" d="M734.58,-85.5C793.12,-85.5 885.75,-85.5 942.75,-85.5"/>
<polygon fill="#63b8ff" stroke="#63b8ff" points="942.97,-89 952.97,-85.5 942.97,-82 942.97,-89"/>
</g>
<!-- Node137 -->
<g id="node45" class="node">
<title>Node137</title>
<g id="a_node45"><a xlink:href="lexer__expand__alias_8c.html#ae7957e63e1f19d95a69563aaab318ad4" target="_top" xlink:title=" ">
<polygon fill="white" stroke="#666666" points="897,-19 778,-19 778,0 897,0 897,-19"/>
<text text-anchor="middle" x="837.5" y="-7" font-family="Helvetica,sans-Serif" font-size="10.00">should_expand_alias</text>
</a>
</g>
</g>
<!-- Node19&#45;&gt;Node137 -->
<g id="edge70" class="edge">
<title>Node19&#45;&gt;Node137</title>
<path fill="none" stroke="#63b8ff" d="M697.15,-75.96C716.35,-65.11 749.01,-47.14 778,-33.5 785.7,-29.88 794.1,-26.25 802.06,-22.95"/>
<polygon fill="#63b8ff" stroke="#63b8ff" points="803.55,-26.13 811.5,-19.11 800.91,-19.64 803.55,-26.13"/>
</g>
<!-- Node22 -->
<g id="node22" class="node">
<title>Node22</title>
<g id="a_node22"><a xlink:href="lexer__word_8c.html#a730574257743b09386cadd2ccbfe4d13" target="_top" xlink:title=" ">
<polygon fill="white" stroke="#666666" points="1055,-342 933,-342 933,-323 1055,-323 1055,-342"/>
<text text-anchor="middle" x="994" y="-330" font-family="Helvetica,sans-Serif" font-size="10.00">handle_current_token</text>
</a>
</g>
</g>
<!-- Node21&#45;&gt;Node22 -->
<g id="edge32" class="edge">
<title>Node21&#45;&gt;Node22</title>
<path fill="none" stroke="#63b8ff" d="M845.54,-133.02C869.52,-165.46 948.26,-271.98 979.78,-314.62"/>
<polygon fill="#63b8ff" stroke="#63b8ff" points="977.16,-316.96 985.92,-322.92 982.79,-312.8 977.16,-316.96"/>
</g>
<!-- Node126 -->
<g id="node36" class="node">
<title>Node126</title>
<g id="a_node36"><a xlink:href="lexer__is__word__separator_8c.html#abccfc6fc0cdbd040fc9a7dcbfd207090" target="_top" xlink:title=" ">
<polygon fill="white" stroke="#666666" points="1591,-152 1456,-152 1456,-133 1591,-133 1591,-152"/>
<text text-anchor="middle" x="1523.5" y="-140" font-family="Helvetica,sans-Serif" font-size="10.00">lexer_is_word_separator</text>
</a>
</g>
</g>
<!-- Node21&#45;&gt;Node126 -->
<g id="edge67" class="edge">
<title>Node21&#45;&gt;Node126</title>
<path fill="none" stroke="#63b8ff" d="M886.05,-124.82C1002.58,-128.06 1303.2,-136.41 1445.56,-140.36"/>
<polygon fill="#63b8ff" stroke="#63b8ff" points="1445.86,-143.87 1455.95,-140.65 1446.05,-136.87 1445.86,-143.87"/>
</g>
<!-- Node23 -->
<g id="node23" class="node">
<title>Node23</title>
<g id="a_node23"><a xlink:href="lexer__word_8c.html#acd8f2a3c47fa56f87c2792ccefd2ee3e" target="_top" xlink:title=" ">
<polygon fill="white" stroke="#666666" points="1225.5,-500 1104.5,-500 1104.5,-481 1225.5,-481 1225.5,-500"/>
<text text-anchor="middle" x="1165" y="-488" font-family="Helvetica,sans-Serif" font-size="10.00">handle_double_quote</text>
</a>
</g>
</g>
<!-- Node22&#45;&gt;Node23 -->
<g id="edge33" class="edge">
<title>Node22&#45;&gt;Node23</title>
<path fill="none" stroke="#63b8ff" d="M998.69,-342.11C1009.03,-367.67 1040.85,-437.77 1091,-472.5 1093.24,-474.05 1095.59,-475.47 1098.03,-476.76"/>
<polygon fill="#63b8ff" stroke="#63b8ff" points="1096.64,-479.97 1107.19,-480.94 1099.54,-473.6 1096.64,-479.97"/>
</g>
<!-- Node24 -->
<g id="node24" class="node">
<title>Node24</title>
<g id="a_node24"><a xlink:href="lexer__word_8c.html#a733339142f4677a066646a12a7e5bec4" target="_top" xlink:title=" ">
<polygon fill="white" stroke="#666666" points="1416,-323 1275,-323 1275,-304 1416,-304 1416,-323"/>
<text text-anchor="middle" x="1345.5" y="-311" font-family="Helvetica,sans-Serif" font-size="10.00">handle_escape_sequence</text>
</a>
</g>
</g>
<!-- Node22&#45;&gt;Node24 -->
<g id="edge34" class="edge">
<title>Node22&#45;&gt;Node24</title>
<path fill="none" stroke="#63b8ff" d="M1055.08,-329.23C1112.97,-326.09 1200.93,-321.3 1264.68,-317.84"/>
<polygon fill="#63b8ff" stroke="#63b8ff" points="1264.9,-321.33 1274.7,-317.29 1264.52,-314.34 1264.9,-321.33"/>
</g>
<!-- Node28 -->
<g id="node28" class="node">
<title>Node28</title>
<g id="a_node28"><a xlink:href="lexer__word_8c.html#a3ae03e49183787e7cf32c90ffdef7351" target="_top" xlink:title=" ">
<polygon fill="white" stroke="#666666" points="1223.5,-285 1106.5,-285 1106.5,-266 1223.5,-266 1223.5,-285"/>
<text text-anchor="middle" x="1165" y="-273" font-family="Helvetica,sans-Serif" font-size="10.00">handle_single_quote</text>
</a>
</g>
</g>
<!-- Node22&#45;&gt;Node28 -->
<g id="edge38" class="edge">
<title>Node22&#45;&gt;Node28</title>
<path fill="none" stroke="#63b8ff" d="M1022.69,-322.87C1041.85,-316.24 1067.95,-307.25 1091,-299.5 1101.94,-295.82 1113.82,-291.89 1124.76,-288.29"/>
<polygon fill="#63b8ff" stroke="#63b8ff" points="1126.08,-291.54 1134.49,-285.1 1123.9,-284.89 1126.08,-291.54"/>
</g>
<!-- Node29 -->
<g id="node29" class="node">
<title>Node29</title>
<g id="a_node29"><a xlink:href="lexer__utils_8c.html#a2ba6f7e43ecbf713c666ab062eac534c" target="_top" xlink:title=" ">
<polygon fill="white" stroke="#666666" points="1239,-361 1091,-361 1091,-342 1239,-342 1239,-361"/>
<text text-anchor="middle" x="1165" y="-349" font-family="Helvetica,sans-Serif" font-size="10.00">lexer_append_current_char</text>
</a>
</g>
</g>
<!-- Node22&#45;&gt;Node29 -->
<g id="edge40" class="edge">
<title>Node22&#45;&gt;Node29</title>
<path fill="none" stroke="#63b8ff" d="M1055.06,-339.25C1063.38,-340.19 1072.04,-341.16 1080.69,-342.13"/>
<polygon fill="#63b8ff" stroke="#63b8ff" points="1080.49,-345.63 1090.81,-343.27 1081.27,-338.68 1080.49,-345.63"/>
</g>
<!-- Node30 -->
<g id="node30" class="node">
<title>Node30</title>
<g id="a_node30"><a xlink:href="lexer__expand__command__substitution_8c.html#aad26825e6ecc7617687abd601366b15d" target="_top" xlink:title=" ">
<polygon fill="white" stroke="#666666" points="1413.5,-606.5 1277.5,-606.5 1277.5,-576.5 1413.5,-576.5 1413.5,-606.5"/>
<text text-anchor="start" x="1285.5" y="-594.5" font-family="Helvetica,sans-Serif" font-size="10.00">lexer_expand_command</text>
<text text-anchor="middle" x="1345.5" y="-583.5" font-family="Helvetica,sans-Serif" font-size="10.00">_substitution</text>
</a>
</g>
</g>
<!-- Node22&#45;&gt;Node30 -->
<g id="edge42" class="edge">
<title>Node22&#45;&gt;Node30</title>
<path fill="none" stroke="#63b8ff" d="M997.48,-342.19C1005.57,-371.83 1034,-462.14 1091,-509.5 1141.15,-551.18 1212.94,-571.82 1267.33,-581.95"/>
<polygon fill="#63b8ff" stroke="#63b8ff" points="1266.82,-585.42 1277.28,-583.73 1268.05,-578.53 1266.82,-585.42"/>
</g>
<!-- Node124 -->
<g id="node33" class="node">
<title>Node124</title>
<g id="a_node33"><a xlink:href="lexer__expand__tilde_8c.html#ae3c478a10a2764ee7c7f94b42f28ecaf" target="_top" xlink:title=" ">
<polygon fill="white" stroke="#666666" points="1219.5,-228 1110.5,-228 1110.5,-209 1219.5,-209 1219.5,-228"/>
<text text-anchor="middle" x="1165" y="-216" font-family="Helvetica,sans-Serif" font-size="10.00">lexer_expand_tilde</text>
</a>
</g>
</g>
<!-- Node22&#45;&gt;Node124 -->
<g id="edge48" class="edge">
<title>Node22&#45;&gt;Node124</title>
<path fill="none" stroke="#63b8ff" d="M1006.05,-322.83C1023.44,-307.87 1058.56,-278.61 1091,-257.5 1104.99,-248.39 1121.32,-239.52 1134.98,-232.54"/>
<polygon fill="#63b8ff" stroke="#63b8ff" points="1136.59,-235.65 1143.95,-228.04 1133.45,-229.4 1136.59,-235.65"/>
</g>
<!-- Node127 -->
<g id="node37" class="node">
<title>Node127</title>
<g id="a_node37"><a xlink:href="lexer__expand__variable_8c.html#a01ad90eb8460a612626bb33c9e15cd52" target="_top" xlink:title=" ">
<polygon fill="white" stroke="#666666" points="1228.5,-463 1101.5,-463 1101.5,-444 1228.5,-444 1228.5,-463"/>
<text text-anchor="middle" x="1165" y="-451" font-family="Helvetica,sans-Serif" font-size="10.00">lexer_expand_variable</text>
</a>
</g>
</g>
<!-- Node22&#45;&gt;Node127 -->
<g id="edge54" class="edge">
<title>Node22&#45;&gt;Node127</title>
<path fill="none" stroke="#63b8ff" d="M1008.54,-342.2C1037.72,-363.08 1106.7,-412.48 1142.15,-437.85"/>
<polygon fill="#63b8ff" stroke="#63b8ff" points="1140.22,-440.78 1150.39,-443.76 1144.3,-435.09 1140.22,-440.78"/>
</g>
<!-- Node25 -->
<g id="node25" class="node">
<title>Node25</title>
<g id="a_node25"><a xlink:href="lexer__utils_8c.html#abf1c1b3b6033c8f9c8d1b11cc9e14f75" target="_top" xlink:title=" ">
<polygon fill="white" stroke="#666666" points="1767,-447 1667,-447 1667,-428 1767,-428 1767,-447"/>
<text text-anchor="middle" x="1717" y="-435" font-family="Helvetica,sans-Serif" font-size="10.00">lexer_append_str</text>
</a>
</g>
</g>
<!-- Node24&#45;&gt;Node25 -->
<g id="edge35" class="edge">
<title>Node24&#45;&gt;Node25</title>
<path fill="none" stroke="#63b8ff" d="M1416.09,-309.51C1467.42,-309.07 1537.96,-313.82 1595,-337.5 1639.61,-356.02 1680.45,-396.83 1701.35,-420.18"/>
<polygon fill="#63b8ff" stroke="#63b8ff" points="1698.91,-422.7 1708.12,-427.93 1704.18,-418.1 1698.91,-422.7"/>
</g>
<!-- Node26 -->
<g id="node26" class="node">
<title>Node26</title>
<g id="a_node26"><a xlink:href="strings_8h.html#a5e1589f073ac32d227dbc6020c376dab" target="_top" xlink:title=" ">
<polygon fill="white" stroke="#666666" points="1948.5,-447 1847.5,-447 1847.5,-428 1948.5,-428 1948.5,-447"/>
<text text-anchor="middle" x="1898" y="-435" font-family="Helvetica,sans-Serif" font-size="10.00">append_to_buffer</text>
</a>
</g>
</g>
<!-- Node25&#45;&gt;Node26 -->
<g id="edge36" class="edge">
<title>Node25&#45;&gt;Node26</title>
<path fill="none" stroke="#63b8ff" d="M1767.39,-437.5C1789.01,-437.5 1814.58,-437.5 1837.27,-437.5"/>
<polygon fill="#63b8ff" stroke="#63b8ff" points="1837.46,-441 1847.46,-437.5 1837.46,-434 1837.46,-441"/>
</g>
<!-- Node27 -->
<g id="node27" class="node">
<title>Node27</title>
<g id="a_node27"><a xlink:href="lexer__utils_8c.html#a84e8d5514cfe03a20152ad26f170211f" target="_top" xlink:title=" ">
<polygon fill="white" stroke="#666666" points="1957,-541 1839,-541 1839,-522 1957,-522 1957,-541"/>
<text text-anchor="middle" x="1898" y="-529" font-family="Helvetica,sans-Serif" font-size="10.00">lexer_set_alloc_error</text>
</a>
</g>
</g>
<!-- Node25&#45;&gt;Node27 -->
<g id="edge37" class="edge">
<title>Node25&#45;&gt;Node27</title>
<path fill="none" stroke="#63b8ff" d="M1736.15,-447.03C1767.64,-463.57 1832.58,-497.67 1869.59,-517.11"/>
<polygon fill="#63b8ff" stroke="#63b8ff" points="1868.32,-520.39 1878.8,-521.94 1871.58,-514.2 1868.32,-520.39"/>
</g>
<!-- Node28&#45;&gt;Node25 -->
<g id="edge39" class="edge">
<title>Node28&#45;&gt;Node25</title>
<path fill="none" stroke="#63b8ff" d="M1223.55,-266.6C1309.22,-256.11 1473.28,-246.8 1595,-305.5 1647.08,-330.61 1687.35,-388.9 1705.48,-418.91"/>
<polygon fill="#63b8ff" stroke="#63b8ff" points="1702.69,-421.06 1710.77,-427.92 1708.72,-417.52 1702.69,-421.06"/>
</g>
<!-- Node29&#45;&gt;Node25 -->
<g id="edge41" class="edge">
<title>Node29&#45;&gt;Node25</title>
<path fill="none" stroke="#63b8ff" d="M1239.33,-344.71C1326.06,-338.96 1473.92,-336.34 1595,-370.5 1632.95,-381.21 1672,-405.74 1695.12,-421.96"/>
<polygon fill="#63b8ff" stroke="#63b8ff" points="1693.28,-424.95 1703.45,-427.93 1697.36,-419.26 1693.28,-424.95"/>
</g>
<!-- Node30&#45;&gt;Node27 -->
<g id="edge47" class="edge">
<title>Node30&#45;&gt;Node27</title>
<path fill="none" stroke="#63b8ff" d="M1386.01,-606.55C1467.65,-635.16 1659.31,-689.35 1803,-628.5 1840.77,-612.51 1870.81,-573.09 1886.05,-549.72"/>
<polygon fill="#63b8ff" stroke="#63b8ff" points="1889.12,-551.41 1891.49,-541.08 1883.2,-547.68 1889.12,-551.41"/>
</g>
<!-- Node31 -->
<g id="node31" class="node">
<title>Node31</title>
<g id="a_node31"><a xlink:href="lexer__expand__command__substitution_8c.html#ad31353a5e4ff94d4ffc515367ef29625" target="_top" xlink:title=" ">
<polygon fill="white" stroke="#666666" points="1595,-599 1452,-599 1452,-580 1595,-580 1595,-599"/>
<text text-anchor="middle" x="1523.5" y="-587" font-family="Helvetica,sans-Serif" font-size="10.00">append_command_output</text>
</a>
</g>
</g>
<!-- Node30&#45;&gt;Node31 -->
<g id="edge43" class="edge">
<title>Node30&#45;&gt;Node31</title>
<path fill="none" stroke="#63b8ff" d="M1413.54,-590.74C1422.74,-590.63 1432.27,-590.53 1441.69,-590.42"/>
<polygon fill="#63b8ff" stroke="#63b8ff" points="1441.88,-593.92 1451.84,-590.3 1441.8,-586.92 1441.88,-593.92"/>
</g>
<!-- Node31&#45;&gt;Node25 -->
<g id="edge45" class="edge">
<title>Node31&#45;&gt;Node25</title>
<path fill="none" stroke="#63b8ff" d="M1571.92,-579.96C1579.95,-577.27 1587.96,-573.84 1595,-569.5 1643.73,-539.44 1684.98,-484.31 1704.28,-455.74"/>
<polygon fill="#63b8ff" stroke="#63b8ff" points="1707.37,-457.42 1709.97,-447.15 1701.53,-453.56 1707.37,-457.42"/>
</g>
<!-- Node31&#45;&gt;Node27 -->
<g id="edge46" class="edge">
<title>Node31&#45;&gt;Node27</title>
<path fill="none" stroke="#63b8ff" d="M1554.83,-599.06C1607.18,-613.93 1717.12,-637.87 1803,-607.5 1835.92,-595.86 1865.75,-567.25 1882.61,-548.64"/>
<polygon fill="#63b8ff" stroke="#63b8ff" points="1885.24,-550.95 1889.21,-541.13 1879.98,-546.33 1885.24,-550.95"/>
</g>
<!-- Node32 -->
<g id="node32" class="node">
<title>Node32</title>
<g id="a_node32"><a xlink:href="execute__command__substitution_8c.html#a44d633c45c6a1c7a82b2fc4f1f3a1b85" target="_top" xlink:title=" ">
<polygon fill="#fff0f0" stroke="red" points="1803,-598 1631,-598 1631,-579 1803,-579 1803,-598"/>
<text text-anchor="middle" x="1717" y="-586" font-family="Helvetica,sans-Serif" font-size="10.00">execute_command_substitution</text>
</a>
</g>
</g>
<!-- Node31&#45;&gt;Node32 -->
<g id="edge44" class="edge">
<title>Node31&#45;&gt;Node32</title>
<path fill="none" stroke="#63b8ff" d="M1595.26,-589.13C1603.61,-589.09 1612.23,-589.04 1620.84,-589"/>
<polygon fill="#63b8ff" stroke="#63b8ff" points="1620.95,-592.5 1630.93,-588.94 1620.92,-585.5 1620.95,-592.5"/>
</g>
<!-- Node124&#45;&gt;Node25 -->
<g id="edge51" class="edge">
<title>Node124&#45;&gt;Node25</title>
<path fill="none" stroke="#63b8ff" d="M1219.62,-221.35C1327.53,-227.46 1563.35,-242.78 1595,-261.5 1656.87,-298.1 1694.42,-380.2 1709.01,-417.9"/>
<polygon fill="#63b8ff" stroke="#63b8ff" points="1705.88,-419.53 1712.66,-427.68 1712.44,-417.08 1705.88,-419.53"/>
</g>
<!-- Node56 -->
<g id="node34" class="node">
<title>Node56</title>
<g id="a_node34"><a xlink:href="get__variable__value_8c.html#a2edd9900f19af236aa05385a789be3d6" target="_top" xlink:title=" ">
<polygon fill="white" stroke="#666666" points="1772,-209 1662,-209 1662,-190 1772,-190 1772,-209"/>
<text text-anchor="middle" x="1717" y="-197" font-family="Helvetica,sans-Serif" font-size="10.00">get_variable_value</text>
</a>
</g>
</g>
<!-- Node124&#45;&gt;Node56 -->
<g id="edge49" class="edge">
<title>Node124&#45;&gt;Node56</title>
<path fill="none" stroke="#63b8ff" d="M1219.74,-216.64C1321.47,-213.13 1541.79,-205.52 1651.38,-201.73"/>
<polygon fill="#63b8ff" stroke="#63b8ff" points="1651.76,-205.22 1661.64,-201.38 1651.52,-198.23 1651.76,-205.22"/>
</g>
<!-- Node125 -->
<g id="node35" class="node">
<title>Node125</title>
<g id="a_node35"><a xlink:href="lexer__expand__tilde_8c.html#aa4231a41b1e79447d6a70db7b075f937" target="_top" xlink:title=" ">
<polygon fill="white" stroke="#666666" points="1404,-171 1287,-171 1287,-152 1404,-152 1404,-171"/>
<text text-anchor="middle" x="1345.5" y="-159" font-family="Helvetica,sans-Serif" font-size="10.00">should_expand_tilde</text>
</a>
</g>
</g>
<!-- Node124&#45;&gt;Node125 -->
<g id="edge52" class="edge">
<title>Node124&#45;&gt;Node125</title>
<path fill="none" stroke="#63b8ff" d="M1195.88,-208.96C1225.74,-199.42 1271.83,-184.71 1304.76,-174.19"/>
<polygon fill="#63b8ff" stroke="#63b8ff" points="1306.06,-177.45 1314.53,-171.07 1303.93,-170.78 1306.06,-177.45"/>
</g>
<!-- Node56&#45;&gt;Node20 -->
<g id="edge50" class="edge">
<title>Node56&#45;&gt;Node20</title>
<path fill="none" stroke="#63b8ff" d="M1740.67,-189.87C1772.14,-176.51 1829.23,-152.27 1865.02,-137.08"/>
<polygon fill="#63b8ff" stroke="#63b8ff" points="1866.68,-140.18 1874.51,-133.05 1863.94,-133.73 1866.68,-140.18"/>
</g>
<!-- Node125&#45;&gt;Node126 -->
<g id="edge53" class="edge">
<title>Node125&#45;&gt;Node126</title>
<path fill="none" stroke="#63b8ff" d="M1404.13,-155.28C1417.44,-153.84 1431.81,-152.29 1445.79,-150.78"/>
<polygon fill="#63b8ff" stroke="#63b8ff" points="1446.31,-154.25 1455.88,-149.69 1445.56,-147.29 1446.31,-154.25"/>
</g>
<!-- Node128 -->
<g id="node38" class="node">
<title>Node128</title>
<g id="a_node38"><a xlink:href="lexer__expand__variable_8c.html#abe77b7e35b276965b72648d12abae283" target="_top" xlink:title=" ">
<polygon fill="white" stroke="#666666" points="1566.5,-447 1480.5,-447 1480.5,-428 1566.5,-428 1566.5,-447"/>
<text text-anchor="middle" x="1523.5" y="-435" font-family="Helvetica,sans-Serif" font-size="10.00">append_dollar</text>
</a>
</g>
</g>
<!-- Node127&#45;&gt;Node128 -->
<g id="edge55" class="edge">
<title>Node127&#45;&gt;Node128</title>
<path fill="none" stroke="#63b8ff" d="M1228.51,-450.69C1297.08,-447.62 1405.91,-442.73 1470.16,-439.85"/>
<polygon fill="#63b8ff" stroke="#63b8ff" points="1470.62,-443.33 1480.46,-439.39 1470.31,-436.34 1470.62,-443.33"/>
</g>
<!-- Node129 -->
<g id="node39" class="node">
<title>Node129</title>
<g id="a_node39"><a xlink:href="lexer__expand__variable_8c.html#ab47d31838e3255a1321d85e937919d4e" target="_top" xlink:title=" ">
<polygon fill="white" stroke="#666666" points="1579,-560 1468,-560 1468,-541 1579,-541 1579,-560"/>
<text text-anchor="middle" x="1523.5" y="-548" font-family="Helvetica,sans-Serif" font-size="10.00">append_last_status</text>
</a>
</g>
</g>
<!-- Node127&#45;&gt;Node129 -->
<g id="edge57" class="edge">
<title>Node127&#45;&gt;Node129</title>
<path fill="none" stroke="#63b8ff" d="M1209.37,-463.03C1219.25,-465.68 1229.6,-468.85 1239,-472.5 1255.87,-479.04 1258.07,-485.13 1275,-491.5 1309.61,-504.52 1404.82,-525.75 1466.55,-538.88"/>
<polygon fill="#63b8ff" stroke="#63b8ff" points="1466.03,-542.34 1476.53,-540.99 1467.48,-535.49 1466.03,-542.34"/>
</g>
<!-- Node130 -->
<g id="node40" class="node">
<title>Node130</title>
<g id="a_node40"><a xlink:href="lexer__expand__variable_8c.html#a07266aa32aac17a8faafbc1736251f75" target="_top" xlink:title=" ">
<polygon fill="white" stroke="#666666" points="1388.5,-482 1302.5,-482 1302.5,-463 1388.5,-463 1388.5,-482"/>
<text text-anchor="middle" x="1345.5" y="-470" font-family="Helvetica,sans-Serif" font-size="10.00">append_name</text>
</a>
</g>
</g>
<!-- Node127&#45;&gt;Node130 -->
<g id="edge60" class="edge">
<title>Node127&#45;&gt;Node130</title>
<path fill="none" stroke="#63b8ff" d="M1228.68,-460.17C1249.47,-462.38 1272.37,-464.82 1292.28,-466.94"/>
<polygon fill="#63b8ff" stroke="#63b8ff" points="1292.08,-470.44 1302.4,-468.02 1292.82,-463.48 1292.08,-470.44"/>
</g>
<!-- Node133 -->
<g id="node43" class="node">
<title>Node133</title>
<g id="a_node43"><a xlink:href="lexer__expand__variable_8c.html#af3a3eadcd608e4dadc010ddf2cb068fb" target="_top" xlink:title=" ">
<polygon fill="#fff0f0" stroke="red" points="1411,-558 1280,-558 1280,-539 1411,-539 1411,-558"/>
<text text-anchor="middle" x="1345.5" y="-546" font-family="Helvetica,sans-Serif" font-size="10.00">get_variable_name_len</text>
</a>
</g>
</g>
<!-- Node127&#45;&gt;Node133 -->
<g id="edge66" class="edge">
<title>Node127&#45;&gt;Node133</title>
<path fill="none" stroke="#63b8ff" d="M1220.55,-463.04C1227.09,-465.5 1233.42,-468.6 1239,-472.5 1262.04,-488.6 1252.6,-507.51 1275,-524.5 1280.54,-528.7 1286.86,-532.2 1293.38,-535.1"/>
<polygon fill="#63b8ff" stroke="#63b8ff" points="1292.43,-538.49 1303.02,-538.95 1295.03,-531.99 1292.43,-538.49"/>
</g>
<!-- Node128&#45;&gt;Node25 -->
<g id="edge56" class="edge">
<title>Node128&#45;&gt;Node25</title>
<path fill="none" stroke="#63b8ff" d="M1566.53,-437.5C1593.02,-437.5 1627.63,-437.5 1656.87,-437.5"/>
<polygon fill="#63b8ff" stroke="#63b8ff" points="1656.96,-441 1666.96,-437.5 1656.96,-434 1656.96,-441"/>
</g>
<!-- Node129&#45;&gt;Node25 -->
<g id="edge58" class="edge">
<title>Node129&#45;&gt;Node25</title>
<path fill="none" stroke="#63b8ff" d="M1540.83,-540.87C1574.32,-521.1 1651,-475.85 1690.87,-452.33"/>
<polygon fill="#63b8ff" stroke="#63b8ff" points="1692.88,-455.21 1699.71,-447.11 1689.32,-449.18 1692.88,-455.21"/>
</g>
<!-- Node129&#45;&gt;Node27 -->
<g id="edge59" class="edge">
<title>Node129&#45;&gt;Node27</title>
<path fill="none" stroke="#63b8ff" d="M1579.06,-547.72C1645.22,-544.34 1756.78,-538.65 1828.61,-534.99"/>
<polygon fill="#63b8ff" stroke="#63b8ff" points="1829.11,-538.47 1838.91,-534.46 1828.75,-531.48 1829.11,-538.47"/>
</g>
<!-- Node130&#45;&gt;Node27 -->
<g id="edge65" class="edge">
<title>Node130&#45;&gt;Node27</title>
<path fill="none" stroke="#63b8ff" d="M1388.67,-482.01C1407.9,-486.06 1431.01,-490.52 1452,-493.5 1584.74,-512.32 1741.17,-523.05 1828.74,-528.04"/>
<polygon fill="#63b8ff" stroke="#63b8ff" points="1828.63,-531.54 1838.81,-528.6 1829.02,-524.55 1828.63,-531.54"/>
</g>
<!-- Node131 -->
<g id="node41" class="node">
<title>Node131</title>
<g id="a_node41"><a xlink:href="lexer__expand__variable_8c.html#a9954e7e26e9570a3c41eed4e16bf6791" target="_top" xlink:title=" ">
<polygon fill="white" stroke="#666666" points="1588.5,-484 1458.5,-484 1458.5,-465 1588.5,-465 1588.5,-484"/>
<text text-anchor="middle" x="1523.5" y="-472" font-family="Helvetica,sans-Serif" font-size="10.00">append_variable_value</text>
</a>
</g>
</g>
<!-- Node130&#45;&gt;Node131 -->
<g id="edge61" class="edge">
<title>Node130&#45;&gt;Node131</title>
<path fill="none" stroke="#63b8ff" d="M1388.66,-472.98C1406.49,-473.18 1427.81,-473.42 1448.14,-473.65"/>
<polygon fill="#63b8ff" stroke="#63b8ff" points="1448.29,-477.16 1458.33,-473.77 1448.37,-470.16 1448.29,-477.16"/>
</g>
<!-- Node132 -->
<g id="node42" class="node">
<title>Node132</title>
<g id="a_node42"><a xlink:href="lexer__expand__variable_8c.html#a1d07a8c171e69a5c58a385a75520e6c0" target="_top" xlink:title=" ">
<polygon fill="white" stroke="#666666" points="1581.5,-409.5 1465.5,-409.5 1465.5,-379.5 1581.5,-379.5 1581.5,-409.5"/>
<text text-anchor="start" x="1473.5" y="-397.5" font-family="Helvetica,sans-Serif" font-size="10.00">get_correct_variable</text>
<text text-anchor="middle" x="1523.5" y="-386.5" font-family="Helvetica,sans-Serif" font-size="10.00">_value</text>
</a>
</g>
</g>
<!-- Node130&#45;&gt;Node132 -->
<g id="edge63" class="edge">
<title>Node130&#45;&gt;Node132</title>
<path fill="none" stroke="#63b8ff" d="M1364.1,-462.81C1384.79,-451.61 1420.33,-433.01 1452,-419.5 1457.08,-417.33 1462.41,-415.2 1467.78,-413.14"/>
<polygon fill="#63b8ff" stroke="#63b8ff" points="1469.28,-416.32 1477.42,-409.54 1466.83,-409.76 1469.28,-416.32"/>
</g>
<!-- Node131&#45;&gt;Node25 -->
<g id="edge62" class="edge">
<title>Node131&#45;&gt;Node25</title>
<path fill="none" stroke="#63b8ff" d="M1573.82,-464.97C1599.17,-460.07 1630.25,-454.07 1656.88,-448.92"/>
<polygon fill="#63b8ff" stroke="#63b8ff" points="1657.7,-452.33 1666.85,-447 1656.37,-445.46 1657.7,-452.33"/>
</g>
<!-- Node132&#45;&gt;Node56 -->
<g id="edge64" class="edge">
<title>Node132&#45;&gt;Node56</title>
<path fill="none" stroke="#63b8ff" d="M1539.53,-379.2C1574.76,-343.32 1662.48,-254 1699.31,-216.5"/>
<polygon fill="#63b8ff" stroke="#63b8ff" points="1701.85,-218.91 1706.36,-209.32 1696.85,-214 1701.85,-218.91"/>
</g>
<!-- Node136&#45;&gt;Node27 -->
<g id="edge69" class="edge">
<title>Node136&#45;&gt;Node27</title>
<path fill="none" stroke="#63b8ff" d="M1035.1,-85.5C1100.07,-85.5 1232.4,-85.5 1344.5,-85.5 1344.5,-85.5 1344.5,-85.5 1524.5,-85.5 1655.43,-85.5 1720.22,-80.07 1803,-181.5 1880.94,-277 1791.66,-342.69 1839,-456.5 1848.3,-478.86 1866.07,-500.29 1879.5,-514.47"/>
<polygon fill="#63b8ff" stroke="#63b8ff" points="1877.31,-517.24 1886.81,-521.94 1882.31,-512.35 1877.31,-517.24"/>
</g>
</g>
</svg>
