<?xml version="1.0" encoding="UTF-8" standalone="no"?>
<!DOCTYPE svg PUBLIC "-//W3C//DTD SVG 1.1//EN"
 "http://www.w3.org/Graphics/SVG/1.1/DTD/svg11.dtd">
<!-- Generated by graphviz version 2.43.0 (0)
 -->
<!-- Title: parser_init Pages: 1 -->
<!--zoomable 736 -->
<svg id="main" version="1.1" xmlns="http://www.w3.org/2000/svg" xmlns:xlink="http://www.w3.org/1999/xlink" xml:space="preserve" onload="init(evt)">
<style type="text/css"><![CDATA[
.edge:hover path { stroke: red; }
.edge:hover polygon { stroke: red; fill: red; }
]]></style>
<script type="text/javascript"><![CDATA[
var edges = document.getElementsByTagName('g');
if (edges && edges.length) {
  for (var i=0;i<edges.length;i++) {
    if (edges[i].id.substr(0,4)=='edge') {
      edges[i].setAttribute('class','edge');
    }
  }
}
]]></script>
        <defs>
                <circle id="rim" cx="0" cy="0" r="7"/>
                <circle id="rim2" cx="0" cy="0" r="3.5"/>
                <g id="zoomPlus">
                        <use xlink:href="#rim" fill="#404040">
                                <set attributeName="fill" to="#808080" begin="zoomplus.mouseover" end="zoomplus.mouseout"/>
                        </use>
                        <path d="M-4,0h8M0,-4v8" fill="none" stroke="white" stroke-width="1.5" pointer-events="none"/>
                </g>
                <g id="zoomMin">
                        <use xlink:href="#rim" fill="#404040">
                                <set attributeName="fill" to="#808080" begin="zoomminus.mouseover" end="zoomminus.mouseout"/>
                        </use>
                        <path d="M-4,0h8" fill="none" stroke="white" stroke-width="1.5" pointer-events="none"/>
                </g>
                <g id="dirArrow">
                        <path fill="none" stroke="white" stroke-width="1.5" d="M0,-3.0v7 M-2.5,-0.5L0,-3.0L2.5,-0.5"/>
                </g>
               <g id="resetDef">
                       <use xlink:href="#rim2" fill="#404040">
                               <set attributeName="fill" to="#808080" begin="reset.mouseover" end="reset.mouseout"/>
                       </use>
               </g>
        </defs>

<script type="text/javascript">
var viewWidth = 1330;
var viewHeight = 736;
var sectionId = 'dynsection-10';
</script>
<script xlink:href="svgpan.js"/>
<svg id="graph" class="graph">
<g id="viewport">
<title>parser_init</title>
<!-- Node1 -->
<g id="node1" class="node">
<title>Node1</title>
<g id="a_node1"><a xlink:title=" ">
<polygon fill="#999999" stroke="#666666" points="68,-429.12 0,-429.12 0,-410.12 68,-410.12 68,-429.12"/>
<text text-anchor="middle" x="34" y="-417.12" font-family="Helvetica,sans-Serif" font-size="10.00">parser_init</text>
</a>
</g>
</g>
<!-- Node2 -->
<g id="node2" class="node">
<title>Node2</title>
<g id="a_node2"><a xlink:href="parser__next_8c.html#ad25986b565a767c6ad7d0b0b8846fca6" target="_top" xlink:title=" ">
<polygon fill="white" stroke="#666666" points="178,-429.12 104,-429.12 104,-410.12 178,-410.12 178,-429.12"/>
<text text-anchor="middle" x="141" y="-417.12" font-family="Helvetica,sans-Serif" font-size="10.00">parser_next</text>
</a>
</g>
</g>
<!-- Node1&#45;&gt;Node2 -->
<g id="edge1" class="edge">
<title>Node1&#45;&gt;Node2</title>
<path fill="none" stroke="#63b8ff" d="M68.22,-419.62C76.25,-419.62 84.98,-419.62 93.5,-419.62"/>
<polygon fill="#63b8ff" stroke="#63b8ff" points="93.72,-423.12 103.72,-419.62 93.72,-416.12 93.72,-423.12"/>
</g>
<!-- Node3 -->
<g id="node3" class="node">
<title>Node3</title>
<g id="a_node3"><a xlink:href="lexer__next__token_8c.html#a3def5432329709fb4df861d90672c510" target="_top" xlink:title=" ">
<polygon fill="white" stroke="#666666" points="314,-448.12 214,-448.12 214,-429.12 314,-429.12 314,-448.12"/>
<text text-anchor="middle" x="264" y="-436.12" font-family="Helvetica,sans-Serif" font-size="10.00">lexer_next_token</text>
</a>
</g>
</g>
<!-- Node2&#45;&gt;Node3 -->
<g id="edge2" class="edge">
<title>Node2&#45;&gt;Node3</title>
<path fill="none" stroke="#63b8ff" d="M178.3,-425.32C186.31,-426.58 194.99,-427.94 203.64,-429.3"/>
<polygon fill="#63b8ff" stroke="#63b8ff" points="203.32,-432.79 213.74,-430.88 204.41,-425.88 203.32,-432.79"/>
</g>
<!-- Node41 -->
<g id="node41" class="node">
<title>Node41</title>
<g id="a_node41"><a xlink:href="destroy__token_8c.html#ad1a471ee7b1ccb035d769be1152a370c" target="_top" xlink:title=" ">
<polygon fill="white" stroke="#666666" points="307,-411.12 221,-411.12 221,-392.12 307,-392.12 307,-411.12"/>
<text text-anchor="middle" x="264" y="-399.12" font-family="Helvetica,sans-Serif" font-size="10.00">token_destroy</text>
</a>
</g>
</g>
<!-- Node2&#45;&gt;Node41 -->
<g id="edge61" class="edge">
<title>Node2&#45;&gt;Node41</title>
<path fill="none" stroke="#63b8ff" d="M178.3,-414.22C188.54,-412.7 199.88,-411.01 210.84,-409.38"/>
<polygon fill="#63b8ff" stroke="#63b8ff" points="211.39,-412.84 220.77,-407.9 210.36,-405.91 211.39,-412.84"/>
</g>
<!-- Node4 -->
<g id="node4" class="node">
<title>Node4</title>
<g id="a_node4"><a xlink:href="create__token_8c.html#a15bcfc92177012893c626ce7d2d6bb6b" target="_top" xlink:title=" ">
<polygon fill="white" stroke="#666666" points="786,-509.12 706,-509.12 706,-490.12 786,-490.12 786,-509.12"/>
<text text-anchor="middle" x="746" y="-497.12" font-family="Helvetica,sans-Serif" font-size="10.00">create_token</text>
</a>
</g>
</g>
<!-- Node3&#45;&gt;Node4 -->
<g id="edge3" class="edge">
<title>Node3&#45;&gt;Node4</title>
<path fill="none" stroke="#63b8ff" d="M268.73,-448.34C278.41,-472.31 306.65,-534.75 350,-568.62 409.7,-615.26 436.3,-612 511,-624.62 565.78,-633.87 585.43,-647.62 636,-624.62 684.3,-602.65 719.54,-547.54 735.5,-518.39"/>
<polygon fill="#63b8ff" stroke="#63b8ff" points="738.75,-519.73 740.33,-509.25 732.56,-516.46 738.75,-519.73"/>
</g>
<!-- Node5 -->
<g id="node5" class="node">
<title>Node5</title>
<g id="a_node5"><a xlink:href="lexer__next__token_8c.html#add2e1acaa9518ecf20b6670ad91a5c65" target="_top" xlink:title=" ">
<polygon fill="white" stroke="#666666" points="463.5,-559.12 361.5,-559.12 361.5,-540.12 463.5,-540.12 463.5,-559.12"/>
<text text-anchor="middle" x="412.5" y="-547.12" font-family="Helvetica,sans-Serif" font-size="10.00">get_logical_token</text>
</a>
</g>
</g>
<!-- Node3&#45;&gt;Node5 -->
<g id="edge4" class="edge">
<title>Node3&#45;&gt;Node5</title>
<path fill="none" stroke="#63b8ff" d="M277.74,-448.28C302.96,-467.38 359.45,-510.18 390.34,-533.58"/>
<polygon fill="#63b8ff" stroke="#63b8ff" points="388.6,-536.66 398.68,-539.91 392.82,-531.08 388.6,-536.66"/>
</g>
<!-- Node9 -->
<g id="node9" class="node">
<title>Node9</title>
<g id="a_node9"><a xlink:href="lexer__next__token_8c.html#abcee8a7ba5ea6ca80c0bd7e3dd8d9a32" target="_top" xlink:title=" ">
<polygon fill="white" stroke="#666666" points="473.5,-448.12 351.5,-448.12 351.5,-429.12 473.5,-429.12 473.5,-448.12"/>
<text text-anchor="middle" x="412.5" y="-436.12" font-family="Helvetica,sans-Serif" font-size="10.00">get_redirection_token</text>
</a>
</g>
</g>
<!-- Node3&#45;&gt;Node9 -->
<g id="edge11" class="edge">
<title>Node3&#45;&gt;Node9</title>
<path fill="none" stroke="#63b8ff" d="M314.19,-438.62C322.83,-438.62 331.96,-438.62 341.05,-438.62"/>
<polygon fill="#63b8ff" stroke="#63b8ff" points="341.24,-442.12 351.24,-438.62 341.24,-435.12 341.24,-442.12"/>
</g>
<!-- Node14 -->
<g id="node14" class="node">
<title>Node14</title>
<g id="a_node14"><a xlink:href="lexer__newline_8c.html#a9f60bf18297b9c705fa6cdff027c79fc" target="_top" xlink:title=" ">
<polygon fill="white" stroke="#666666" points="454.5,-401.12 370.5,-401.12 370.5,-382.12 454.5,-382.12 454.5,-401.12"/>
<text text-anchor="middle" x="412.5" y="-389.12" font-family="Helvetica,sans-Serif" font-size="10.00">lexer_newline</text>
</a>
</g>
</g>
<!-- Node3&#45;&gt;Node14 -->
<g id="edge20" class="edge">
<title>Node3&#45;&gt;Node14</title>
<path fill="none" stroke="#63b8ff" d="M294.65,-429.11C316.91,-421.96 347.63,-412.11 371.98,-404.3"/>
<polygon fill="#63b8ff" stroke="#63b8ff" points="373.19,-407.58 381.65,-401.2 371.06,-400.92 373.19,-407.58"/>
</g>
<!-- Node15 -->
<g id="node15" class="node">
<title>Node15</title>
<g id="a_node15"><a xlink:href="lexer__parenthesis_8c.html#a2b13eaa0fee255bea85bd4279f369795" target="_top" xlink:title=" ">
<polygon fill="white" stroke="#666666" points="464,-728.12 361,-728.12 361,-709.12 464,-709.12 464,-728.12"/>
<text text-anchor="middle" x="412.5" y="-716.12" font-family="Helvetica,sans-Serif" font-size="10.00">lexer_parenthesis</text>
</a>
</g>
</g>
<!-- Node3&#45;&gt;Node15 -->
<g id="edge22" class="edge">
<title>Node3&#45;&gt;Node15</title>
<path fill="none" stroke="#63b8ff" d="M265.09,-448.36C266,-486.51 274.54,-627.31 350,-700.62 351.1,-701.68 352.25,-702.69 353.46,-703.63"/>
<polygon fill="#63b8ff" stroke="#63b8ff" points="351.72,-706.67 362.05,-709.05 355.46,-700.75 351.72,-706.67"/>
</g>
<!-- Node16 -->
<g id="node16" class="node">
<title>Node16</title>
<g id="a_node16"><a xlink:href="lexer__semicolon_8c.html#a1612109b245d9780427946e4e33b01b7" target="_top" xlink:title=" ">
<polygon fill="white" stroke="#666666" points="460.5,-691.12 364.5,-691.12 364.5,-672.12 460.5,-672.12 460.5,-691.12"/>
<text text-anchor="middle" x="412.5" y="-679.12" font-family="Helvetica,sans-Serif" font-size="10.00">lexer_semicolon</text>
</a>
</g>
</g>
<!-- Node3&#45;&gt;Node16 -->
<g id="edge24" class="edge">
<title>Node3&#45;&gt;Node16</title>
<path fill="none" stroke="#63b8ff" d="M266.02,-448.42C270.04,-482.23 287.77,-595.27 350,-657.62 353.9,-661.52 358.5,-664.81 363.41,-667.57"/>
<polygon fill="#63b8ff" stroke="#63b8ff" points="361.97,-670.76 372.49,-671.99 365.03,-664.46 361.97,-670.76"/>
</g>
<!-- Node17 -->
<g id="node17" class="node">
<title>Node17</title>
<g id="a_node17"><a xlink:href="lexer__word_8c.html#ac2600a9ba16009c4d8c114a118c54955" target="_top" xlink:title=" ">
<polygon fill="white" stroke="#666666" points="447.5,-345.12 377.5,-345.12 377.5,-326.12 447.5,-326.12 447.5,-345.12"/>
<text text-anchor="middle" x="412.5" y="-333.12" font-family="Helvetica,sans-Serif" font-size="10.00">lexer_word</text>
</a>
</g>
</g>
<!-- Node3&#45;&gt;Node17 -->
<g id="edge26" class="edge">
<title>Node3&#45;&gt;Node17</title>
<path fill="none" stroke="#63b8ff" d="M298.97,-429.01C304.27,-426.72 309.48,-423.95 314,-420.62 335.19,-405.02 330.49,-391.27 350,-373.62 359.96,-364.61 372.34,-356.49 383.38,-350.09"/>
<polygon fill="#63b8ff" stroke="#63b8ff" points="385.23,-353.07 392.25,-345.14 381.82,-346.96 385.23,-353.07"/>
</g>
<!-- Node39 -->
<g id="node39" class="node">
<title>Node39</title>
<g id="a_node39"><a xlink:href="lexer__next__token_8c.html#a7f0a2dd2373821667a4d5381e7711aa0" target="_top" xlink:title=" ">
<polygon fill="white" stroke="#666666" points="457,-308.12 368,-308.12 368,-289.12 457,-289.12 457,-308.12"/>
<text text-anchor="middle" x="412.5" y="-296.12" font-family="Helvetica,sans-Serif" font-size="10.00">skip_comment</text>
</a>
</g>
</g>
<!-- Node3&#45;&gt;Node39 -->
<g id="edge59" class="edge">
<title>Node3&#45;&gt;Node39</title>
<path fill="none" stroke="#63b8ff" d="M302.47,-428.95C306.72,-426.72 310.7,-423.98 314,-420.62 348.26,-385.71 314.58,-350.36 350,-316.62 352.62,-314.13 355.56,-311.98 358.7,-310.12"/>
<polygon fill="#63b8ff" stroke="#63b8ff" points="360.51,-313.14 367.99,-305.64 357.47,-306.83 360.51,-313.14"/>
</g>
<!-- Node40 -->
<g id="node40" class="node">
<title>Node40</title>
<g id="a_node40"><a xlink:href="lexer__next__token_8c.html#a5b2052471d98cef2998e1367f9bf8f6d" target="_top" xlink:title=" ">
<polygon fill="white" stroke="#666666" points="475,-271.12 350,-271.12 350,-252.12 475,-252.12 475,-271.12"/>
<text text-anchor="middle" x="412.5" y="-259.12" font-family="Helvetica,sans-Serif" font-size="10.00">skip_spaces_and_tabs</text>
</a>
</g>
</g>
<!-- Node3&#45;&gt;Node40 -->
<g id="edge60" class="edge">
<title>Node3&#45;&gt;Node40</title>
<path fill="none" stroke="#63b8ff" d="M303.22,-428.94C307.24,-426.72 310.96,-423.98 314,-420.62 357.34,-372.61 305.07,-326.14 350,-279.62 350.93,-278.65 351.92,-277.73 352.94,-276.87"/>
<polygon fill="#63b8ff" stroke="#63b8ff" points="355.16,-279.59 361.52,-271.12 351.27,-273.78 355.16,-279.59"/>
</g>
<!-- Node6 -->
<g id="node6" class="node">
<title>Node6</title>
<g id="a_node6"><a xlink:href="lexer__logical__and_8c.html#a59e5031d54357d65c6873edc67de2a47" target="_top" xlink:title=" ">
<polygon fill="white" stroke="#666666" points="624,-578.12 523,-578.12 523,-559.12 624,-559.12 624,-578.12"/>
<text text-anchor="middle" x="573.5" y="-566.12" font-family="Helvetica,sans-Serif" font-size="10.00">lexer_logical_and</text>
</a>
</g>
</g>
<!-- Node5&#45;&gt;Node6 -->
<g id="edge5" class="edge">
<title>Node5&#45;&gt;Node6</title>
<path fill="none" stroke="#63b8ff" d="M463.81,-555.63C479.26,-557.48 496.41,-559.53 512.45,-561.44"/>
<polygon fill="#63b8ff" stroke="#63b8ff" points="512.45,-564.97 522.79,-562.68 513.28,-558.02 512.45,-564.97"/>
</g>
<!-- Node7 -->
<g id="node7" class="node">
<title>Node7</title>
<g id="a_node7"><a xlink:href="lexer__logical__or_8c.html#ac3851eaea27bd5774b126b888bdddf93" target="_top" xlink:title=" ">
<polygon fill="white" stroke="#666666" points="620,-541.12 527,-541.12 527,-522.12 620,-522.12 620,-541.12"/>
<text text-anchor="middle" x="573.5" y="-529.12" font-family="Helvetica,sans-Serif" font-size="10.00">lexer_logical_or</text>
</a>
</g>
</g>
<!-- Node5&#45;&gt;Node7 -->
<g id="edge7" class="edge">
<title>Node5&#45;&gt;Node7</title>
<path fill="none" stroke="#63b8ff" d="M463.81,-543.92C480.69,-542.01 499.62,-539.87 516.88,-537.92"/>
<polygon fill="#63b8ff" stroke="#63b8ff" points="517.29,-541.39 526.83,-536.79 516.5,-534.44 517.29,-541.39"/>
</g>
<!-- Node8 -->
<g id="node8" class="node">
<title>Node8</title>
<g id="a_node8"><a xlink:href="lexer__pipe_8c.html#a693816e38802a086de64c09cb7cebeb7" target="_top" xlink:title=" ">
<polygon fill="white" stroke="#666666" points="607,-615.12 540,-615.12 540,-596.12 607,-596.12 607,-615.12"/>
<text text-anchor="middle" x="573.5" y="-603.12" font-family="Helvetica,sans-Serif" font-size="10.00">lexer_pipe</text>
</a>
</g>
</g>
<!-- Node5&#45;&gt;Node8 -->
<g id="edge9" class="edge">
<title>Node5&#45;&gt;Node8</title>
<path fill="none" stroke="#63b8ff" d="M436.54,-559.25C456.16,-567.3 485.2,-578.84 511,-587.62 517.08,-589.69 523.55,-591.74 529.92,-593.68"/>
<polygon fill="#63b8ff" stroke="#63b8ff" points="529.2,-597.12 539.78,-596.61 531.19,-590.41 529.2,-597.12"/>
</g>
<!-- Node6&#45;&gt;Node4 -->
<g id="edge6" class="edge">
<title>Node6&#45;&gt;Node4</title>
<path fill="none" stroke="#63b8ff" d="M610.58,-559.06C619,-556.55 627.88,-553.69 636,-550.62 664.6,-539.81 696.12,-524.7 717.88,-513.73"/>
<polygon fill="#63b8ff" stroke="#63b8ff" points="719.53,-516.81 726.85,-509.16 716.36,-510.58 719.53,-516.81"/>
</g>
<!-- Node7&#45;&gt;Node4 -->
<g id="edge8" class="edge">
<title>Node7&#45;&gt;Node4</title>
<path fill="none" stroke="#63b8ff" d="M620.19,-523.04C643.58,-518.65 672.08,-513.31 695.93,-508.83"/>
<polygon fill="#63b8ff" stroke="#63b8ff" points="696.66,-512.25 705.84,-506.97 695.37,-505.37 696.66,-512.25"/>
</g>
<!-- Node8&#45;&gt;Node4 -->
<g id="edge10" class="edge">
<title>Node8&#45;&gt;Node4</title>
<path fill="none" stroke="#63b8ff" d="M607.03,-598.67C616.67,-595.94 627.03,-592.31 636,-587.62 672.53,-568.51 708.47,-536.13 728.59,-516.43"/>
<polygon fill="#63b8ff" stroke="#63b8ff" points="731.11,-518.85 735.73,-509.31 726.17,-513.89 731.11,-518.85"/>
</g>
<!-- Node10 -->
<g id="node10" class="node">
<title>Node10</title>
<g id="a_node10"><a xlink:href="lexer__heredoc_8c.html#a9db043b0e8df9ad1155a65a8fcf67c11" target="_top" xlink:title=" ">
<polygon fill="white" stroke="#666666" points="616,-504.12 531,-504.12 531,-485.12 616,-485.12 616,-504.12"/>
<text text-anchor="middle" x="573.5" y="-492.12" font-family="Helvetica,sans-Serif" font-size="10.00">lexer_heredoc</text>
</a>
</g>
</g>
<!-- Node9&#45;&gt;Node10 -->
<g id="edge12" class="edge">
<title>Node9&#45;&gt;Node10</title>
<path fill="none" stroke="#63b8ff" d="M436.54,-448.25C456.16,-456.3 485.2,-467.84 511,-476.62 516.53,-478.5 522.38,-480.37 528.19,-482.15"/>
<polygon fill="#63b8ff" stroke="#63b8ff" points="527.27,-485.53 537.86,-485.05 529.28,-478.83 527.27,-485.53"/>
</g>
<!-- Node11 -->
<g id="node11" class="node">
<title>Node11</title>
<g id="a_node11"><a xlink:href="lexer__redirect__append_8c.html#a09beefbfaf132dbe04add1370a6fb2e3" target="_top" xlink:title=" ">
<polygon fill="white" stroke="#666666" points="636,-467.12 511,-467.12 511,-448.12 636,-448.12 636,-467.12"/>
<text text-anchor="middle" x="573.5" y="-455.12" font-family="Helvetica,sans-Serif" font-size="10.00">lexer_redirect_append</text>
</a>
</g>
</g>
<!-- Node9&#45;&gt;Node11 -->
<g id="edge14" class="edge">
<title>Node9&#45;&gt;Node11</title>
<path fill="none" stroke="#63b8ff" d="M473.61,-445.8C482.49,-446.86 491.72,-447.97 500.81,-449.05"/>
<polygon fill="#63b8ff" stroke="#63b8ff" points="500.64,-452.56 510.98,-450.27 501.47,-445.61 500.64,-452.56"/>
</g>
<!-- Node12 -->
<g id="node12" class="node">
<title>Node12</title>
<g id="a_node12"><a xlink:href="lexer__redirect__in_8c.html#ac723d9668329d99b35003ed2423889e5" target="_top" xlink:title=" ">
<polygon fill="white" stroke="#666666" points="622.5,-430.12 524.5,-430.12 524.5,-411.12 622.5,-411.12 622.5,-430.12"/>
<text text-anchor="middle" x="573.5" y="-418.12" font-family="Helvetica,sans-Serif" font-size="10.00">lexer_redirect_in</text>
</a>
</g>
</g>
<!-- Node9&#45;&gt;Node12 -->
<g id="edge16" class="edge">
<title>Node9&#45;&gt;Node12</title>
<path fill="none" stroke="#63b8ff" d="M473.61,-431.81C487,-430.3 501.16,-428.69 514.46,-427.19"/>
<polygon fill="#63b8ff" stroke="#63b8ff" points="514.89,-430.66 524.44,-426.06 514.11,-423.71 514.89,-430.66"/>
</g>
<!-- Node13 -->
<g id="node13" class="node">
<title>Node13</title>
<g id="a_node13"><a xlink:href="lexer__redirect__out_8c.html#a70e2216639c96030b3861405ae3497c6" target="_top" xlink:title=" ">
<polygon fill="white" stroke="#666666" points="625.5,-393.12 521.5,-393.12 521.5,-374.12 625.5,-374.12 625.5,-393.12"/>
<text text-anchor="middle" x="573.5" y="-381.12" font-family="Helvetica,sans-Serif" font-size="10.00">lexer_redirect_out</text>
</a>
</g>
</g>
<!-- Node9&#45;&gt;Node13 -->
<g id="edge18" class="edge">
<title>Node9&#45;&gt;Node13</title>
<path fill="none" stroke="#63b8ff" d="M438.21,-429.07C457.85,-421.59 486.05,-411.07 511,-402.62 517.4,-400.45 524.21,-398.25 530.87,-396.14"/>
<polygon fill="#63b8ff" stroke="#63b8ff" points="531.97,-399.47 540.47,-393.15 529.89,-392.79 531.97,-399.47"/>
</g>
<!-- Node10&#45;&gt;Node4 -->
<g id="edge13" class="edge">
<title>Node10&#45;&gt;Node4</title>
<path fill="none" stroke="#63b8ff" d="M616.21,-495.84C640.21,-496.55 670.51,-497.43 695.68,-498.17"/>
<polygon fill="#63b8ff" stroke="#63b8ff" points="695.67,-501.67 705.77,-498.47 695.88,-494.68 695.67,-501.67"/>
</g>
<!-- Node11&#45;&gt;Node4 -->
<g id="edge15" class="edge">
<title>Node11&#45;&gt;Node4</title>
<path fill="none" stroke="#63b8ff" d="M613.19,-467.15C637.84,-473.22 669.99,-481.14 696.37,-487.64"/>
<polygon fill="#63b8ff" stroke="#63b8ff" points="695.62,-491.06 706.17,-490.05 697.3,-484.26 695.62,-491.06"/>
</g>
<!-- Node12&#45;&gt;Node4 -->
<g id="edge17" class="edge">
<title>Node12&#45;&gt;Node4</title>
<path fill="none" stroke="#63b8ff" d="M612.71,-430.18C620.61,-432.78 628.73,-435.91 636,-439.62 653.82,-448.7 654.78,-456.44 672,-466.62 684.31,-473.9 698.5,-480.65 711.08,-486.13"/>
<polygon fill="#63b8ff" stroke="#63b8ff" points="709.76,-489.37 720.33,-490.05 712.49,-482.92 709.76,-489.37"/>
</g>
<!-- Node13&#45;&gt;Node4 -->
<g id="edge19" class="edge">
<title>Node13&#45;&gt;Node4</title>
<path fill="none" stroke="#63b8ff" d="M619.86,-393.23C625.65,-395.68 631.22,-398.76 636,-402.62 661.4,-423.12 647.93,-444.58 672,-466.62 680.89,-474.76 692.12,-481.16 703.09,-486.08"/>
<polygon fill="#63b8ff" stroke="#63b8ff" points="702.02,-489.43 712.6,-490.03 704.7,-482.96 702.02,-489.43"/>
</g>
<!-- Node14&#45;&gt;Node4 -->
<g id="edge21" class="edge">
<title>Node14&#45;&gt;Node4</title>
<path fill="none" stroke="#63b8ff" d="M431.66,-382C472.39,-361.88 572.43,-320.79 636,-365.62 674.95,-393.08 639.72,-431.57 672,-466.62 679.65,-474.92 689.78,-481.28 700.06,-486.08"/>
<polygon fill="#63b8ff" stroke="#63b8ff" points="698.9,-489.39 709.47,-490.08 701.63,-482.95 698.9,-489.39"/>
</g>
<!-- Node15&#45;&gt;Node4 -->
<g id="edge23" class="edge">
<title>Node15&#45;&gt;Node4</title>
<path fill="none" stroke="#63b8ff" d="M464.33,-723.31C512.56,-725.16 585.03,-720.97 636,-686.62 696.96,-645.54 728.4,-558.06 739.84,-519.07"/>
<polygon fill="#63b8ff" stroke="#63b8ff" points="743.21,-520.01 742.55,-509.44 736.47,-518.12 743.21,-520.01"/>
</g>
<!-- Node16&#45;&gt;Node4 -->
<g id="edge25" class="edge">
<title>Node16&#45;&gt;Node4</title>
<path fill="none" stroke="#63b8ff" d="M460.92,-687.41C508.57,-690.86 582.42,-689.53 636,-657.62 690.75,-625.01 724.52,-552.96 738.11,-518.59"/>
<polygon fill="#63b8ff" stroke="#63b8ff" points="741.39,-519.8 741.68,-509.21 734.85,-517.31 741.39,-519.8"/>
</g>
<!-- Node17&#45;&gt;Node4 -->
<g id="edge27" class="edge">
<title>Node17&#45;&gt;Node4</title>
<path fill="none" stroke="#63b8ff" d="M444.58,-326.04C491.39,-313.7 580.38,-298.57 636,-341.62 681.72,-377 634.17,-422.9 672,-466.62 679.25,-474.99 689.05,-481.35 699.11,-486.14"/>
<polygon fill="#63b8ff" stroke="#63b8ff" points="697.79,-489.38 708.37,-490.1 700.55,-482.94 697.79,-489.38"/>
</g>
<!-- Node18 -->
<g id="node18" class="node">
<title>Node18</title>
<g id="a_node18"><a xlink:href="lexer__word_8c.html#a730574257743b09386cadd2ccbfe4d13" target="_top" xlink:title=" ">
<polygon fill="white" stroke="#666666" points="634.5,-279.12 512.5,-279.12 512.5,-260.12 634.5,-260.12 634.5,-279.12"/>
<text text-anchor="middle" x="573.5" y="-267.12" font-family="Helvetica,sans-Serif" font-size="10.00">handle_current_token</text>
</a>
</g>
</g>
<!-- Node17&#45;&gt;Node18 -->
<g id="edge28" class="edge">
<title>Node17&#45;&gt;Node18</title>
<path fill="none" stroke="#63b8ff" d="M447.63,-326.86C456.71,-324.05 466.38,-320.61 475,-316.62 492.23,-308.63 494.07,-302.22 511,-293.62 518.71,-289.7 527.22,-286 535.39,-282.74"/>
<polygon fill="#63b8ff" stroke="#63b8ff" points="536.68,-286 544.75,-279.13 534.16,-279.47 536.68,-286"/>
</g>
<!-- Node30 -->
<g id="node30" class="node">
<title>Node30</title>
<g id="a_node30"><a xlink:href="lexer__is__word__separator_8c.html#abccfc6fc0cdbd040fc9a7dcbfd207090" target="_top" xlink:title=" ">
<polygon fill="white" stroke="#666666" points="1168,-22.12 1033,-22.12 1033,-3.12 1168,-3.12 1168,-22.12"/>
<text text-anchor="middle" x="1100.5" y="-10.12" font-family="Helvetica,sans-Serif" font-size="10.00">lexer_is_word_separator</text>
</a>
</g>
</g>
<!-- Node17&#45;&gt;Node30 -->
<g id="edge58" class="edge">
<title>Node17&#45;&gt;Node30</title>
<path fill="none" stroke="#63b8ff" d="M447.72,-330.04C457.3,-327.22 467.21,-322.99 475,-316.62 500.86,-295.47 489.92,-276.55 511,-250.62 628.5,-106.07 675.56,-58.89 856,-12.62 910.48,1.35 974.09,0.8 1022.64,-2.95"/>
<polygon fill="#63b8ff" stroke="#63b8ff" points="1022.5,-6.45 1032.76,-3.8 1023.09,0.52 1022.5,-6.45"/>
</g>
<!-- Node19 -->
<g id="node19" class="node">
<title>Node19</title>
<g id="a_node19"><a xlink:href="lexer__word_8c.html#acd8f2a3c47fa56f87c2792ccefd2ee3e" target="_top" xlink:title=" ">
<polygon fill="white" stroke="#666666" points="806.5,-242.12 685.5,-242.12 685.5,-223.12 806.5,-223.12 806.5,-242.12"/>
<text text-anchor="middle" x="746" y="-230.12" font-family="Helvetica,sans-Serif" font-size="10.00">handle_double_quote</text>
</a>
</g>
</g>
<!-- Node18&#45;&gt;Node19 -->
<g id="edge29" class="edge">
<title>Node18&#45;&gt;Node19</title>
<path fill="none" stroke="#63b8ff" d="M618.41,-260.09C640.6,-255.28 667.71,-249.39 691.15,-244.3"/>
<polygon fill="#63b8ff" stroke="#63b8ff" points="691.91,-247.72 700.94,-242.18 690.43,-240.88 691.91,-247.72"/>
</g>
<!-- Node20 -->
<g id="node20" class="node">
<title>Node20</title>
<g id="a_node20"><a xlink:href="lexer__word_8c.html#a733339142f4677a066646a12a7e5bec4" target="_top" xlink:title=" ">
<polygon fill="white" stroke="#666666" points="997,-467.12 856,-467.12 856,-448.12 997,-448.12 997,-467.12"/>
<text text-anchor="middle" x="926.5" y="-455.12" font-family="Helvetica,sans-Serif" font-size="10.00">handle_escape_sequence</text>
</a>
</g>
</g>
<!-- Node18&#45;&gt;Node20 -->
<g id="edge30" class="edge">
<title>Node18&#45;&gt;Node20</title>
<path fill="none" stroke="#63b8ff" d="M596.24,-279.2C609.39,-285.98 625.58,-296.26 636,-309.62 666.33,-348.52 634.4,-382.68 672,-414.62 719.64,-455.09 791.01,-464.15 845.9,-464.06"/>
<polygon fill="#63b8ff" stroke="#63b8ff" points="845.99,-467.56 855.95,-463.94 845.91,-460.56 845.99,-467.56"/>
</g>
<!-- Node24 -->
<g id="node24" class="node">
<title>Node24</title>
<g id="a_node24"><a xlink:href="lexer__word_8c.html#a3ae03e49183787e7cf32c90ffdef7351" target="_top" xlink:title=" ">
<polygon fill="white" stroke="#666666" points="804.5,-405.12 687.5,-405.12 687.5,-386.12 804.5,-386.12 804.5,-405.12"/>
<text text-anchor="middle" x="746" y="-393.12" font-family="Helvetica,sans-Serif" font-size="10.00">handle_single_quote</text>
</a>
</g>
</g>
<!-- Node18&#45;&gt;Node24 -->
<g id="edge34" class="edge">
<title>Node18&#45;&gt;Node24</title>
<path fill="none" stroke="#63b8ff" d="M608.42,-279.16C617.89,-282.78 627.81,-287.53 636,-293.62 656.83,-309.11 653.55,-321.35 672,-339.62 687.46,-354.93 707.15,-369.81 722.18,-380.38"/>
<polygon fill="#63b8ff" stroke="#63b8ff" points="720.2,-383.27 730.42,-386.07 724.18,-377.51 720.2,-383.27"/>
</g>
<!-- Node25 -->
<g id="node25" class="node">
<title>Node25</title>
<g id="a_node25"><a xlink:href="lexer__utils_8c.html#a2ba6f7e43ecbf713c666ab062eac534c" target="_top" xlink:title=" ">
<polygon fill="white" stroke="#666666" points="820,-331.12 672,-331.12 672,-312.12 820,-312.12 820,-331.12"/>
<text text-anchor="middle" x="746" y="-319.12" font-family="Helvetica,sans-Serif" font-size="10.00">lexer_append_current_char</text>
</a>
</g>
</g>
<!-- Node18&#45;&gt;Node25 -->
<g id="edge36" class="edge">
<title>Node18&#45;&gt;Node25</title>
<path fill="none" stroke="#63b8ff" d="M605.77,-279.16C633.33,-287.56 673.66,-299.86 703.83,-309.06"/>
<polygon fill="#63b8ff" stroke="#63b8ff" points="703.05,-312.48 713.64,-312.05 705.09,-305.79 703.05,-312.48"/>
</g>
<!-- Node26 -->
<g id="node26" class="node">
<title>Node26</title>
<g id="a_node26"><a xlink:href="lexer__expand__tilde_8c.html#ae3c478a10a2764ee7c7f94b42f28ecaf" target="_top" xlink:title=" ">
<polygon fill="white" stroke="#666666" points="800.5,-142.12 691.5,-142.12 691.5,-123.12 800.5,-123.12 800.5,-142.12"/>
<text text-anchor="middle" x="746" y="-130.12" font-family="Helvetica,sans-Serif" font-size="10.00">lexer_expand_tilde</text>
</a>
</g>
</g>
<!-- Node18&#45;&gt;Node26 -->
<g id="edge38" class="edge">
<title>Node18&#45;&gt;Node26</title>
<path fill="none" stroke="#63b8ff" d="M586.49,-259.99C615.4,-236.75 689.21,-177.45 724.97,-148.71"/>
<polygon fill="#63b8ff" stroke="#63b8ff" points="727.19,-151.42 732.8,-142.43 722.81,-145.96 727.19,-151.42"/>
</g>
<!-- Node31 -->
<g id="node31" class="node">
<title>Node31</title>
<g id="a_node31"><a xlink:href="lexer__expand__variable_8c.html#a01ad90eb8460a612626bb33c9e15cd52" target="_top" xlink:title=" ">
<polygon fill="white" stroke="#666666" points="809.5,-279.12 682.5,-279.12 682.5,-260.12 809.5,-260.12 809.5,-279.12"/>
<text text-anchor="middle" x="746" y="-267.12" font-family="Helvetica,sans-Serif" font-size="10.00">lexer_expand_variable</text>
</a>
</g>
</g>
<!-- Node18&#45;&gt;Node31 -->
<g id="edge44" class="edge">
<title>Node18&#45;&gt;Node31</title>
<path fill="none" stroke="#63b8ff" d="M634.61,-269.62C646.67,-269.62 659.47,-269.62 671.91,-269.62"/>
<polygon fill="#63b8ff" stroke="#63b8ff" points="672.26,-273.12 682.26,-269.62 672.26,-266.12 672.26,-273.12"/>
</g>
<!-- Node21 -->
<g id="node21" class="node">
<title>Node21</title>
<g id="a_node21"><a xlink:href="lexer__utils_8c.html#abf1c1b3b6033c8f9c8d1b11cc9e14f75" target="_top" xlink:title=" ">
<polygon fill="white" stroke="#666666" points="1150.5,-335.12 1050.5,-335.12 1050.5,-316.12 1150.5,-316.12 1150.5,-335.12"/>
<text text-anchor="middle" x="1100.5" y="-323.12" font-family="Helvetica,sans-Serif" font-size="10.00">lexer_append_str</text>
</a>
</g>
</g>
<!-- Node20&#45;&gt;Node21 -->
<g id="edge31" class="edge">
<title>Node20&#45;&gt;Node21</title>
<path fill="none" stroke="#63b8ff" d="M965.81,-448.03C976.39,-444.44 987.55,-439.7 997,-433.62 1035.35,-408.93 1069.53,-366.96 1087.07,-343.27"/>
<polygon fill="#63b8ff" stroke="#63b8ff" points="1089.92,-345.31 1092.95,-335.16 1084.25,-341.2 1089.92,-345.31"/>
</g>
<!-- Node22 -->
<g id="node22" class="node">
<title>Node22</title>
<g id="a_node22"><a xlink:href="strings_8h.html#a5e1589f073ac32d227dbc6020c376dab" target="_top" xlink:title=" ">
<polygon fill="white" stroke="#666666" points="1313.5,-335.12 1212.5,-335.12 1212.5,-316.12 1313.5,-316.12 1313.5,-335.12"/>
<text text-anchor="middle" x="1263" y="-323.12" font-family="Helvetica,sans-Serif" font-size="10.00">append_to_buffer</text>
</a>
</g>
</g>
<!-- Node21&#45;&gt;Node22 -->
<g id="edge32" class="edge">
<title>Node21&#45;&gt;Node22</title>
<path fill="none" stroke="#63b8ff" d="M1150.53,-325.62C1166.79,-325.62 1185.08,-325.62 1202.06,-325.62"/>
<polygon fill="#63b8ff" stroke="#63b8ff" points="1202.44,-329.12 1212.44,-325.62 1202.44,-322.12 1202.44,-329.12"/>
</g>
<!-- Node23 -->
<g id="node23" class="node">
<title>Node23</title>
<g id="a_node23"><a xlink:href="lexer__utils_8c.html#a84e8d5514cfe03a20152ad26f170211f" target="_top" xlink:title=" ">
<polygon fill="white" stroke="#666666" points="1322,-279.12 1204,-279.12 1204,-260.12 1322,-260.12 1322,-279.12"/>
<text text-anchor="middle" x="1263" y="-267.12" font-family="Helvetica,sans-Serif" font-size="10.00">lexer_set_alloc_error</text>
</a>
</g>
</g>
<!-- Node21&#45;&gt;Node23 -->
<g id="edge33" class="edge">
<title>Node21&#45;&gt;Node23</title>
<path fill="none" stroke="#63b8ff" d="M1129.09,-315.99C1155.66,-306.72 1196.03,-292.64 1225.3,-282.42"/>
<polygon fill="#63b8ff" stroke="#63b8ff" points="1226.48,-285.72 1234.77,-279.12 1224.17,-279.11 1226.48,-285.72"/>
</g>
<!-- Node24&#45;&gt;Node21 -->
<g id="edge35" class="edge">
<title>Node24&#45;&gt;Node21</title>
<path fill="none" stroke="#63b8ff" d="M804.51,-399.09C855.95,-400.58 932.89,-398.79 997,-380.62 1026.82,-372.17 1057.73,-354.08 1077.7,-340.95"/>
<polygon fill="#63b8ff" stroke="#63b8ff" points="1079.73,-343.8 1086.07,-335.31 1075.82,-338 1079.73,-343.8"/>
</g>
<!-- Node25&#45;&gt;Node21 -->
<g id="edge37" class="edge">
<title>Node25&#45;&gt;Node21</title>
<path fill="none" stroke="#63b8ff" d="M766.09,-331.22C787.39,-341.34 823.18,-356.65 856,-362.62 917.66,-373.83 935.27,-373.42 997,-362.62 1022.62,-358.14 1050.29,-347.79 1070.42,-339.18"/>
<polygon fill="#63b8ff" stroke="#63b8ff" points="1071.9,-342.35 1079.65,-335.12 1069.08,-335.94 1071.9,-342.35"/>
</g>
<!-- Node26&#45;&gt;Node21 -->
<g id="edge41" class="edge">
<title>Node26&#45;&gt;Node21</title>
<path fill="none" stroke="#63b8ff" d="M771.21,-142.23C816.77,-160.7 917.79,-203.53 997,-250.62 1027.38,-268.68 1059.9,-293.52 1079.97,-309.58"/>
<polygon fill="#63b8ff" stroke="#63b8ff" points="1078.03,-312.52 1088.01,-316.08 1082.43,-307.07 1078.03,-312.52"/>
</g>
<!-- Node27 -->
<g id="node27" class="node">
<title>Node27</title>
<g id="a_node27"><a xlink:href="get__variable__value_8c.html#a2edd9900f19af236aa05385a789be3d6" target="_top" xlink:title=" ">
<polygon fill="white" stroke="#666666" points="1155.5,-101.12 1045.5,-101.12 1045.5,-82.12 1155.5,-82.12 1155.5,-101.12"/>
<text text-anchor="middle" x="1100.5" y="-89.12" font-family="Helvetica,sans-Serif" font-size="10.00">get_variable_value</text>
</a>
</g>
</g>
<!-- Node26&#45;&gt;Node27 -->
<g id="edge39" class="edge">
<title>Node26&#45;&gt;Node27</title>
<path fill="none" stroke="#63b8ff" d="M764.48,-123.11C785.49,-112.26 822.14,-95.19 856,-88.62 915.86,-76.99 985.57,-79.42 1035.02,-83.76"/>
<polygon fill="#63b8ff" stroke="#63b8ff" points="1034.98,-87.27 1045.26,-84.7 1035.62,-80.3 1034.98,-87.27"/>
</g>
<!-- Node29 -->
<g id="node29" class="node">
<title>Node29</title>
<g id="a_node29"><a xlink:href="lexer__expand__tilde_8c.html#aa4231a41b1e79447d6a70db7b075f937" target="_top" xlink:title=" ">
<polygon fill="white" stroke="#666666" points="985,-41.12 868,-41.12 868,-22.12 985,-22.12 985,-41.12"/>
<text text-anchor="middle" x="926.5" y="-29.12" font-family="Helvetica,sans-Serif" font-size="10.00">should_expand_tilde</text>
</a>
</g>
</g>
<!-- Node26&#45;&gt;Node29 -->
<g id="edge42" class="edge">
<title>Node26&#45;&gt;Node29</title>
<path fill="none" stroke="#63b8ff" d="M758.39,-122.91C777.49,-107.02 817.65,-75.28 856,-55.62 864.26,-51.38 873.43,-47.62 882.33,-44.4"/>
<polygon fill="#63b8ff" stroke="#63b8ff" points="883.52,-47.69 891.83,-41.12 881.24,-41.08 883.52,-47.69"/>
</g>
<!-- Node28 -->
<g id="node28" class="node">
<title>Node28</title>
<g id="a_node28"><a xlink:href="get__variable_8c.html#a569170390f0edf013bf89c26ef55ea8c" target="_top" xlink:title=" ">
<polygon fill="white" stroke="#666666" points="1301.5,-101.12 1224.5,-101.12 1224.5,-82.12 1301.5,-82.12 1301.5,-101.12"/>
<text text-anchor="middle" x="1263" y="-89.12" font-family="Helvetica,sans-Serif" font-size="10.00">get_variable</text>
</a>
</g>
</g>
<!-- Node27&#45;&gt;Node28 -->
<g id="edge40" class="edge">
<title>Node27&#45;&gt;Node28</title>
<path fill="none" stroke="#63b8ff" d="M1155.84,-91.62C1174.78,-91.62 1195.88,-91.62 1214.25,-91.62"/>
<polygon fill="#63b8ff" stroke="#63b8ff" points="1214.42,-95.12 1224.42,-91.62 1214.42,-88.12 1214.42,-95.12"/>
</g>
<!-- Node29&#45;&gt;Node30 -->
<g id="edge43" class="edge">
<title>Node29&#45;&gt;Node30</title>
<path fill="none" stroke="#63b8ff" d="M985.25,-25.24C997.34,-23.9 1010.27,-22.48 1022.92,-21.08"/>
<polygon fill="#63b8ff" stroke="#63b8ff" points="1023.43,-24.54 1032.99,-19.97 1022.67,-17.59 1023.43,-24.54"/>
</g>
<!-- Node31&#45;&gt;Node23 -->
<g id="edge57" class="edge">
<title>Node31&#45;&gt;Node23</title>
<path fill="none" stroke="#63b8ff" d="M791.32,-260.11C811.02,-256.34 834.57,-252.47 856,-250.62 974.49,-240.37 1112.94,-251.85 1193.71,-260.89"/>
<polygon fill="#63b8ff" stroke="#63b8ff" points="1193.42,-264.38 1203.75,-262.04 1194.21,-257.43 1193.42,-264.38"/>
</g>
<!-- Node32 -->
<g id="node32" class="node">
<title>Node32</title>
<g id="a_node32"><a xlink:href="lexer__expand__variable_8c.html#abe77b7e35b276965b72648d12abae283" target="_top" xlink:title=" ">
<polygon fill="white" stroke="#666666" points="969.5,-316.12 883.5,-316.12 883.5,-297.12 969.5,-297.12 969.5,-316.12"/>
<text text-anchor="middle" x="926.5" y="-304.12" font-family="Helvetica,sans-Serif" font-size="10.00">append_dollar</text>
</a>
</g>
</g>
<!-- Node31&#45;&gt;Node32 -->
<g id="edge45" class="edge">
<title>Node31&#45;&gt;Node32</title>
<path fill="none" stroke="#63b8ff" d="M792.97,-279.15C817.59,-284.25 848.01,-290.56 873.49,-295.84"/>
<polygon fill="#63b8ff" stroke="#63b8ff" points="872.85,-299.28 883.36,-297.88 874.28,-292.43 872.85,-299.28"/>
</g>
<!-- Node33 -->
<g id="node33" class="node">
<title>Node33</title>
<g id="a_node33"><a xlink:href="lexer__expand__variable_8c.html#ab47d31838e3255a1321d85e937919d4e" target="_top" xlink:title=" ">
<polygon fill="white" stroke="#666666" points="982,-279.12 871,-279.12 871,-260.12 982,-260.12 982,-279.12"/>
<text text-anchor="middle" x="926.5" y="-267.12" font-family="Helvetica,sans-Serif" font-size="10.00">append_last_status</text>
</a>
</g>
</g>
<!-- Node31&#45;&gt;Node33 -->
<g id="edge47" class="edge">
<title>Node31&#45;&gt;Node33</title>
<path fill="none" stroke="#63b8ff" d="M809.68,-269.62C826.24,-269.62 844.13,-269.62 860.79,-269.62"/>
<polygon fill="#63b8ff" stroke="#63b8ff" points="860.98,-273.12 870.98,-269.62 860.98,-266.12 860.98,-273.12"/>
</g>
<!-- Node34 -->
<g id="node34" class="node">
<title>Node34</title>
<g id="a_node34"><a xlink:href="lexer__expand__variable_8c.html#a9954e7e26e9570a3c41eed4e16bf6791" target="_top" xlink:title=" ">
<polygon fill="white" stroke="#666666" points="991.5,-353.12 861.5,-353.12 861.5,-334.12 991.5,-334.12 991.5,-353.12"/>
<text text-anchor="middle" x="926.5" y="-341.12" font-family="Helvetica,sans-Serif" font-size="10.00">append_variable_value</text>
</a>
</g>
</g>
<!-- Node31&#45;&gt;Node34 -->
<g id="edge50" class="edge">
<title>Node31&#45;&gt;Node34</title>
<path fill="none" stroke="#63b8ff" d="M770.04,-279.16C784.58,-285.4 803.65,-293.97 820,-302.62 836.58,-311.39 838.79,-317.18 856,-324.62 861.44,-326.97 867.25,-329.1 873.11,-331.02"/>
<polygon fill="#63b8ff" stroke="#63b8ff" points="872.36,-334.45 882.95,-334.03 874.41,-327.75 872.36,-334.45"/>
</g>
<!-- Node35 -->
<g id="node35" class="node">
<title>Node35</title>
<g id="a_node35"><a xlink:href="lexer__expand__variable_8c.html#a1d07a8c171e69a5c58a385a75520e6c0" target="_top" xlink:title=" ">
<polygon fill="white" stroke="#666666" points="984.5,-127.62 868.5,-127.62 868.5,-97.62 984.5,-97.62 984.5,-127.62"/>
<text text-anchor="start" x="876.5" y="-115.62" font-family="Helvetica,sans-Serif" font-size="10.00">get_correct_variable</text>
<text text-anchor="middle" x="926.5" y="-104.62" font-family="Helvetica,sans-Serif" font-size="10.00">_value</text>
</a>
</g>
</g>
<!-- Node31&#45;&gt;Node35 -->
<g id="edge52" class="edge">
<title>Node31&#45;&gt;Node35</title>
<path fill="none" stroke="#63b8ff" d="M806.03,-260.1C811.15,-257.61 815.92,-254.5 820,-250.62 858.52,-214.02 818.93,-174.69 856,-136.62 857.22,-135.36 858.52,-134.17 859.87,-133.04"/>
<polygon fill="#63b8ff" stroke="#63b8ff" points="861.98,-135.83 868.17,-127.23 857.97,-130.1 861.98,-135.83"/>
</g>
<!-- Node36 -->
<g id="node36" class="node">
<title>Node36</title>
<g id="a_node36"><a xlink:href="lexer__expand__variable_8c.html#a3674c7faac945bf9ec05a9dc00c08896" target="_top" xlink:title=" ">
<polygon fill="white" stroke="#666666" points="992,-165.12 861,-165.12 861,-146.12 992,-146.12 992,-165.12"/>
<text text-anchor="middle" x="926.5" y="-153.12" font-family="Helvetica,sans-Serif" font-size="10.00">get_variable_name_len</text>
</a>
</g>
</g>
<!-- Node31&#45;&gt;Node36 -->
<g id="edge54" class="edge">
<title>Node31&#45;&gt;Node36</title>
<path fill="none" stroke="#63b8ff" d="M803.94,-260.03C809.71,-257.56 815.21,-254.48 820,-250.62 847.55,-228.42 829.33,-202.87 856,-179.62 860.74,-175.49 866.22,-172.06 871.99,-169.22"/>
<polygon fill="#63b8ff" stroke="#63b8ff" points="873.44,-172.4 881.22,-165.21 870.66,-165.98 873.44,-172.4"/>
</g>
<!-- Node32&#45;&gt;Node21 -->
<g id="edge46" class="edge">
<title>Node32&#45;&gt;Node21</title>
<path fill="none" stroke="#63b8ff" d="M969.58,-311.27C990.8,-313.61 1016.91,-316.5 1040.13,-319.06"/>
<polygon fill="#63b8ff" stroke="#63b8ff" points="1039.91,-322.56 1050.23,-320.18 1040.68,-315.6 1039.91,-322.56"/>
</g>
<!-- Node33&#45;&gt;Node21 -->
<g id="edge48" class="edge">
<title>Node33&#45;&gt;Node21</title>
<path fill="none" stroke="#63b8ff" d="M967.39,-279.21C977.13,-281.75 987.49,-284.63 997,-287.62 1020.39,-294.96 1046.27,-304.57 1066.18,-312.29"/>
<polygon fill="#63b8ff" stroke="#63b8ff" points="1065.13,-315.63 1075.71,-316.02 1067.68,-309.12 1065.13,-315.63"/>
</g>
<!-- Node33&#45;&gt;Node23 -->
<g id="edge49" class="edge">
<title>Node33&#45;&gt;Node23</title>
<path fill="none" stroke="#63b8ff" d="M982.36,-269.62C1040.12,-269.62 1131.18,-269.62 1193.59,-269.62"/>
<polygon fill="#63b8ff" stroke="#63b8ff" points="1193.74,-273.12 1203.74,-269.62 1193.74,-266.12 1193.74,-273.12"/>
</g>
<!-- Node34&#45;&gt;Node21 -->
<g id="edge51" class="edge">
<title>Node34&#45;&gt;Node21</title>
<path fill="none" stroke="#63b8ff" d="M991.55,-336.92C1007.53,-335.24 1024.6,-333.46 1040.33,-331.81"/>
<polygon fill="#63b8ff" stroke="#63b8ff" points="1040.87,-335.27 1050.46,-330.75 1040.15,-328.31 1040.87,-335.27"/>
</g>
<!-- Node35&#45;&gt;Node27 -->
<g id="edge53" class="edge">
<title>Node35&#45;&gt;Node27</title>
<path fill="none" stroke="#63b8ff" d="M984.77,-105.63C1000.96,-103.65 1018.68,-101.49 1035.25,-99.46"/>
<polygon fill="#63b8ff" stroke="#63b8ff" points="1035.89,-102.91 1045.39,-98.23 1035.04,-95.96 1035.89,-102.91"/>
</g>
<!-- Node37 -->
<g id="node37" class="node">
<title>Node37</title>
<g id="a_node37"><a xlink:href="lexer__expand__variable_8c.html#a5067193ac632b7565fd8b9ad405a525f" target="_top" xlink:title=" ">
<polygon fill="white" stroke="#666666" points="1163,-165.12 1038,-165.12 1038,-146.12 1163,-146.12 1163,-165.12"/>
<text text-anchor="middle" x="1100.5" y="-153.12" font-family="Helvetica,sans-Serif" font-size="10.00">is_valid_variable_char</text>
</a>
</g>
</g>
<!-- Node36&#45;&gt;Node37 -->
<g id="edge55" class="edge">
<title>Node36&#45;&gt;Node37</title>
<path fill="none" stroke="#63b8ff" d="M992.04,-155.62C1003.61,-155.62 1015.74,-155.62 1027.51,-155.62"/>
<polygon fill="#63b8ff" stroke="#63b8ff" points="1027.74,-159.12 1037.74,-155.62 1027.74,-152.12 1027.74,-159.12"/>
</g>
<!-- Node38 -->
<g id="node38" class="node">
<title>Node38</title>
<g id="a_node38"><a xlink:href="strings_8h.html#adfd4fc057d3b7ad39c6867928cc44175" target="_top" xlink:title=" ">
<polygon fill="white" stroke="#666666" points="1304.5,-165.12 1221.5,-165.12 1221.5,-146.12 1304.5,-146.12 1304.5,-165.12"/>
<text text-anchor="middle" x="1263" y="-153.12" font-family="Helvetica,sans-Serif" font-size="10.00">my_isnumber</text>
</a>
</g>
</g>
<!-- Node37&#45;&gt;Node38 -->
<g id="edge56" class="edge">
<title>Node37&#45;&gt;Node38</title>
<path fill="none" stroke="#63b8ff" d="M1163.09,-155.62C1178.9,-155.62 1195.72,-155.62 1210.93,-155.62"/>
<polygon fill="#63b8ff" stroke="#63b8ff" points="1211.16,-159.12 1221.16,-155.62 1211.16,-152.12 1211.16,-159.12"/>
</g>
</g>
</svg>
        <g id="navigator" transform="translate(0 0)" fill="#404254">
                <rect fill="#f2f5e9" fill-opacity="0.5" stroke="#606060" stroke-width=".5" x="0" y="0" width="60" height="60"/>
                <use id="zoomplus" xlink:href="#zoomPlus" x="17" y="9" onmousedown="handleZoom(evt,'in')"/>
                <use id="zoomminus" xlink:href="#zoomMin" x="42" y="9" onmousedown="handleZoom(evt,'out')"/>
                <use id="reset" xlink:href="#resetDef" x="30" y="36" onmousedown="handleReset()"/>
                <g id="arrowUp" xlink:href="#dirArrow" transform="translate(30 24)" onmousedown="handlePan(0,-1)">
                  <use xlink:href="#rim" fill="#404040">
                        <set attributeName="fill" to="#808080" begin="arrowUp.mouseover" end="arrowUp.mouseout"/>
                  </use>
                  <path fill="none" stroke="white" stroke-width="1.5" d="M0,-3.0v7 M-2.5,-0.5L0,-3.0L2.5,-0.5"/>
                </g>
                <g id="arrowRight" xlink:href="#dirArrow" transform="rotate(90) translate(36 -43)" onmousedown="handlePan(1,0)">
                  <use xlink:href="#rim" fill="#404040">
                        <set attributeName="fill" to="#808080" begin="arrowRight.mouseover" end="arrowRight.mouseout"/>
                  </use>
                  <path fill="none" stroke="white" stroke-width="1.5" d="M0,-3.0v7 M-2.5,-0.5L0,-3.0L2.5,-0.5"/>
                </g>
                <g id="arrowDown" xlink:href="#dirArrow" transform="rotate(180) translate(-30 -48)" onmousedown="handlePan(0,1)">
                  <use xlink:href="#rim" fill="#404040">
                        <set attributeName="fill" to="#808080" begin="arrowDown.mouseover" end="arrowDown.mouseout"/>
                  </use>
                  <path fill="none" stroke="white" stroke-width="1.5" d="M0,-3.0v7 M-2.5,-0.5L0,-3.0L2.5,-0.5"/>
                </g>
                <g id="arrowLeft" xlink:href="#dirArrow" transform="rotate(270) translate(-36 17)" onmousedown="handlePan(-1,0)">
                  <use xlink:href="#rim" fill="#404040">
                        <set attributeName="fill" to="#808080" begin="arrowLeft.mouseover" end="arrowLeft.mouseout"/>
                  </use>
                  <path fill="none" stroke="white" stroke-width="1.5" d="M0,-3.0v7 M-2.5,-0.5L0,-3.0L2.5,-0.5"/>
                </g>
        </g>
        <svg viewBox="0 0 15 15" width="100%" height="30px" preserveAspectRatio="xMaxYMin meet">
         <g id="arrow_out" transform="scale(0.3 0.3)">
          <a xlink:href="parser_8h_a7a5dc445fa057a393d0b94590acea2f1_cgraph_org.svg" target="_base">
           <rect id="button" ry="5" rx="5" y="6" x="6" height="38" width="38"
                fill="#f2f5e9" fill-opacity="0.5" stroke="#606060" stroke-width="1.0"/>
           <path id="arrow"
             d="M 11.500037,31.436501 C 11.940474,20.09759 22.043105,11.32322 32.158766,21.979434 L 37.068811,17.246167 C 37.068811,17.246167 37.088388,32 37.088388,32 L 22.160133,31.978069 C 22.160133,31.978069 26.997745,27.140456 26.997745,27.140456 C 18.528582,18.264221 13.291696,25.230495 11.500037,31.436501 z"
             style="fill:#404040;"/>
          </a>
         </g>
        </svg>
</svg>
