<?xml version="1.0" encoding="UTF-8" standalone="no"?>
<!DOCTYPE svg PUBLIC "-//W3C//DTD SVG 1.1//EN"
 "http://www.w3.org/Graphics/SVG/1.1/DTD/svg11.dtd">
<!-- Generated by graphviz version 2.43.0 (0)
 -->
<!-- Title: src/parser/tokens/parse_repeat.c Pages: 1 -->
<svg width="405pt" height="313pt"
 viewBox="0.00 0.00 405.00 313.00" xmlns="http://www.w3.org/2000/svg" xmlns:xlink="http://www.w3.org/1999/xlink">
<g id="graph0" class="graph" transform="scale(1 1) rotate(0) translate(4 309)">
<title>src/parser/tokens/parse_repeat.c</title>
<!-- Node1 -->
<g id="node1" class="node">
<title>Node1</title>
<g id="a_node1"><a xlink:title=" ">
<polygon fill="#999999" stroke="#666666" points="236.5,-305 106.5,-305 106.5,-275 236.5,-275 236.5,-305"/>
<text text-anchor="start" x="114.5" y="-293" font-family="Helvetica,sans-Serif" font-size="10.00">src/parser/tokens/parse</text>
<text text-anchor="middle" x="171.5" y="-282" font-family="Helvetica,sans-Serif" font-size="10.00">_repeat.c</text>
</a>
</g>
</g>
<!-- Node2 -->
<g id="node2" class="node">
<title>Node2</title>
<g id="a_node2"><a xlink:title=" ">
<polygon fill="#e0e0e0" stroke="#999999" points="53,-239 0,-239 0,-220 53,-220 53,-239"/>
<text text-anchor="middle" x="26.5" y="-227" font-family="Helvetica,sans-Serif" font-size="10.00">stdlib.h</text>
</a>
</g>
</g>
<!-- Node1&#45;&gt;Node2 -->
<g id="edge1" class="edge">
<title>Node1&#45;&gt;Node2</title>
<path fill="none" stroke="#63b8ff" d="M136.77,-274.99C112.58,-265.23 80.6,-252.33 57.31,-242.93"/>
<polygon fill="#63b8ff" stroke="#63b8ff" points="58.5,-239.63 47.91,-239.14 55.88,-246.13 58.5,-239.63"/>
</g>
<!-- Node3 -->
<g id="node3" class="node">
<title>Node3</title>
<g id="a_node3"><a xlink:title=" ">
<polygon fill="#e0e0e0" stroke="#999999" points="124,-239 71,-239 71,-220 124,-220 124,-239"/>
<text text-anchor="middle" x="97.5" y="-227" font-family="Helvetica,sans-Serif" font-size="10.00">string.h</text>
</a>
</g>
</g>
<!-- Node1&#45;&gt;Node3 -->
<g id="edge2" class="edge">
<title>Node1&#45;&gt;Node3</title>
<path fill="none" stroke="#63b8ff" d="M153.59,-274.84C142.41,-266 128.02,-254.63 116.62,-245.62"/>
<polygon fill="#63b8ff" stroke="#63b8ff" points="118.6,-242.72 108.59,-239.27 114.26,-248.21 118.6,-242.72"/>
</g>
<!-- Node4 -->
<g id="node4" class="node">
<title>Node4</title>
<g id="a_node4"><a xlink:href="strings_8h.html" target="_top" xlink:title=" ">
<polygon fill="white" stroke="#666666" points="223,-184 146,-184 146,-165 223,-165 223,-184"/>
<text text-anchor="middle" x="184.5" y="-172" font-family="Helvetica,sans-Serif" font-size="10.00">my/strings.h</text>
</a>
</g>
</g>
<!-- Node1&#45;&gt;Node4 -->
<g id="edge3" class="edge">
<title>Node1&#45;&gt;Node4</title>
<path fill="none" stroke="#63b8ff" d="M173.15,-274.63C175.48,-254.21 179.77,-216.81 182.35,-194.24"/>
<polygon fill="#63b8ff" stroke="#63b8ff" points="185.84,-194.56 183.5,-184.23 178.88,-193.77 185.84,-194.56"/>
</g>
<!-- Node7 -->
<g id="node7" class="node">
<title>Node7</title>
<g id="a_node7"><a xlink:href="ast_8h.html" target="_top" xlink:title=" ">
<polygon fill="white" stroke="#666666" points="128,-184 87,-184 87,-165 128,-165 128,-184"/>
<text text-anchor="middle" x="107.5" y="-172" font-family="Helvetica,sans-Serif" font-size="10.00">ast.h</text>
</a>
</g>
</g>
<!-- Node1&#45;&gt;Node7 -->
<g id="edge6" class="edge">
<title>Node1&#45;&gt;Node7</title>
<path fill="none" stroke="#63b8ff" d="M163.39,-274.63C151.67,-253.84 130.02,-215.44 117.38,-193.02"/>
<polygon fill="#63b8ff" stroke="#63b8ff" points="120.38,-191.22 112.42,-184.23 114.29,-194.66 120.38,-191.22"/>
</g>
<!-- Node8 -->
<g id="node8" class="node">
<title>Node8</title>
<g id="a_node8"><a xlink:href="parser_8h.html" target="_top" xlink:title=" ">
<polygon fill="white" stroke="#666666" points="281.5,-239 225.5,-239 225.5,-220 281.5,-220 281.5,-239"/>
<text text-anchor="middle" x="253.5" y="-227" font-family="Helvetica,sans-Serif" font-size="10.00">parser.h</text>
</a>
</g>
</g>
<!-- Node1&#45;&gt;Node8 -->
<g id="edge8" class="edge">
<title>Node1&#45;&gt;Node8</title>
<path fill="none" stroke="#63b8ff" d="M191.35,-274.84C203.98,-265.83 220.3,-254.18 233.05,-245.09"/>
<polygon fill="#63b8ff" stroke="#63b8ff" points="235.1,-247.92 241.21,-239.27 231.04,-242.22 235.1,-247.92"/>
</g>
<!-- Node12 -->
<g id="node12" class="node">
<title>Node12</title>
<g id="a_node12"><a xlink:href="token_8h.html" target="_top" xlink:title=" ">
<polygon fill="white" stroke="#666666" points="397,-129 344,-129 344,-110 397,-110 397,-129"/>
<text text-anchor="middle" x="370.5" y="-117" font-family="Helvetica,sans-Serif" font-size="10.00">token.h</text>
</a>
</g>
</g>
<!-- Node1&#45;&gt;Node12 -->
<g id="edge18" class="edge">
<title>Node1&#45;&gt;Node12</title>
<path fill="none" stroke="#63b8ff" d="M222.2,-274.98C244.77,-267 270.67,-255.28 290.5,-239 324.9,-210.76 350.36,-163.95 362.52,-138.43"/>
<polygon fill="#63b8ff" stroke="#63b8ff" points="365.77,-139.75 366.78,-129.2 359.41,-136.82 365.77,-139.75"/>
</g>
<!-- Node5 -->
<g id="node5" class="node">
<title>Node5</title>
<g id="a_node5"><a xlink:title=" ">
<polygon fill="#e0e0e0" stroke="#999999" points="212.5,-19 156.5,-19 156.5,0 212.5,0 212.5,-19"/>
<text text-anchor="middle" x="184.5" y="-7" font-family="Helvetica,sans-Serif" font-size="10.00">stddef.h</text>
</a>
</g>
</g>
<!-- Node4&#45;&gt;Node5 -->
<g id="edge4" class="edge">
<title>Node4&#45;&gt;Node5</title>
<path fill="none" stroke="#63b8ff" d="M171.01,-164.75C160.21,-156.87 145.85,-144.21 139.5,-129 124.46,-92.99 151.86,-50 170.11,-26.99"/>
<polygon fill="#63b8ff" stroke="#63b8ff" points="172.87,-29.14 176.55,-19.2 167.48,-24.68 172.87,-29.14"/>
</g>
<!-- Node6 -->
<g id="node6" class="node">
<title>Node6</title>
<g id="a_node6"><a xlink:title=" ">
<polygon fill="#e0e0e0" stroke="#999999" points="220.5,-129 148.5,-129 148.5,-110 220.5,-110 220.5,-129"/>
<text text-anchor="middle" x="184.5" y="-117" font-family="Helvetica,sans-Serif" font-size="10.00">sys/types.h</text>
</a>
</g>
</g>
<!-- Node4&#45;&gt;Node6 -->
<g id="edge5" class="edge">
<title>Node4&#45;&gt;Node6</title>
<path fill="none" stroke="#63b8ff" d="M184.5,-164.75C184.5,-157.8 184.5,-147.85 184.5,-139.13"/>
<polygon fill="#63b8ff" stroke="#63b8ff" points="188,-139.09 184.5,-129.09 181,-139.09 188,-139.09"/>
</g>
<!-- Node7&#45;&gt;Node5 -->
<g id="edge7" class="edge">
<title>Node7&#45;&gt;Node5</title>
<path fill="none" stroke="#63b8ff" d="M108.16,-164.86C110.05,-144.43 116.82,-92.09 138.5,-55 145.11,-43.69 155.39,-33.36 164.56,-25.5"/>
<polygon fill="#63b8ff" stroke="#63b8ff" points="166.97,-28.05 172.52,-19.03 162.56,-22.62 166.97,-28.05"/>
</g>
<!-- Node8&#45;&gt;Node7 -->
<g id="edge9" class="edge">
<title>Node8&#45;&gt;Node7</title>
<path fill="none" stroke="#63b8ff" d="M230.04,-219.98C204.92,-210.86 164.96,-196.36 137.55,-186.41"/>
<polygon fill="#63b8ff" stroke="#63b8ff" points="138.66,-183.09 128.07,-182.97 136.27,-189.67 138.66,-183.09"/>
</g>
<!-- Node9 -->
<g id="node9" class="node">
<title>Node9</title>
<g id="a_node9"><a xlink:href="lexer_8h.html" target="_top" xlink:title=" ">
<polygon fill="white" stroke="#666666" points="290,-184 241,-184 241,-165 290,-165 290,-184"/>
<text text-anchor="middle" x="265.5" y="-172" font-family="Helvetica,sans-Serif" font-size="10.00">lexer.h</text>
</a>
</g>
</g>
<!-- Node8&#45;&gt;Node9 -->
<g id="edge10" class="edge">
<title>Node8&#45;&gt;Node9</title>
<path fill="none" stroke="#63b8ff" d="M255.48,-219.75C257.07,-212.72 259.36,-202.62 261.35,-193.84"/>
<polygon fill="#63b8ff" stroke="#63b8ff" points="264.76,-194.62 263.56,-184.09 257.93,-193.07 264.76,-194.62"/>
</g>
<!-- Node8&#45;&gt;Node12 -->
<g id="edge17" class="edge">
<title>Node8&#45;&gt;Node12</title>
<path fill="none" stroke="#63b8ff" d="M263.07,-219.66C282.88,-201.38 328.6,-159.18 353.53,-136.17"/>
<polygon fill="#63b8ff" stroke="#63b8ff" points="356.15,-138.51 361.12,-129.16 351.4,-133.37 356.15,-138.51"/>
</g>
<!-- Node9&#45;&gt;Node5 -->
<g id="edge11" class="edge">
<title>Node9&#45;&gt;Node5</title>
<path fill="none" stroke="#63b8ff" d="M261.15,-164.74C248.34,-138.98 210.65,-63.13 193.36,-28.33"/>
<polygon fill="#63b8ff" stroke="#63b8ff" points="196.46,-26.7 188.88,-19.31 190.19,-29.82 196.46,-26.7"/>
</g>
<!-- Node9&#45;&gt;Node6 -->
<g id="edge12" class="edge">
<title>Node9&#45;&gt;Node6</title>
<path fill="none" stroke="#63b8ff" d="M252.49,-164.98C240.04,-156.84 221.04,-144.41 206.29,-134.76"/>
<polygon fill="#63b8ff" stroke="#63b8ff" points="208.04,-131.72 197.75,-129.17 204.2,-137.57 208.04,-131.72"/>
</g>
<!-- Node10 -->
<g id="node10" class="node">
<title>Node10</title>
<g id="a_node10"><a xlink:href="shell_8h.html" target="_top" xlink:title=" ">
<polygon fill="white" stroke="#666666" points="326,-129 277,-129 277,-110 326,-110 326,-129"/>
<text text-anchor="middle" x="301.5" y="-117" font-family="Helvetica,sans-Serif" font-size="10.00">shell.h</text>
</a>
</g>
</g>
<!-- Node9&#45;&gt;Node10 -->
<g id="edge13" class="edge">
<title>Node9&#45;&gt;Node10</title>
<path fill="none" stroke="#63b8ff" d="M271.44,-164.75C276.48,-157.34 283.84,-146.5 290.01,-137.41"/>
<polygon fill="#63b8ff" stroke="#63b8ff" points="292.94,-139.33 295.67,-129.09 287.15,-135.39 292.94,-139.33"/>
</g>
<!-- Node9&#45;&gt;Node12 -->
<g id="edge16" class="edge">
<title>Node9&#45;&gt;Node12</title>
<path fill="none" stroke="#63b8ff" d="M282.37,-164.98C299.11,-156.54 325,-143.47 344.39,-133.68"/>
<polygon fill="#63b8ff" stroke="#63b8ff" points="345.97,-136.8 353.32,-129.17 342.82,-130.55 345.97,-136.8"/>
</g>
<!-- Node11 -->
<g id="node11" class="node">
<title>Node11</title>
<g id="a_node11"><a xlink:href="list_8h.html" target="_top" xlink:title=" ">
<polygon fill="white" stroke="#666666" points="336,-74 277,-74 277,-55 336,-55 336,-74"/>
<text text-anchor="middle" x="306.5" y="-62" font-family="Helvetica,sans-Serif" font-size="10.00">my/list.h</text>
</a>
</g>
</g>
<!-- Node10&#45;&gt;Node11 -->
<g id="edge14" class="edge">
<title>Node10&#45;&gt;Node11</title>
<path fill="none" stroke="#63b8ff" d="M302.33,-109.75C302.98,-102.8 303.92,-92.85 304.74,-84.13"/>
<polygon fill="#63b8ff" stroke="#63b8ff" points="308.23,-84.37 305.69,-74.09 301.27,-83.72 308.23,-84.37"/>
</g>
<!-- Node11&#45;&gt;Node5 -->
<g id="edge15" class="edge">
<title>Node11&#45;&gt;Node5</title>
<path fill="none" stroke="#63b8ff" d="M286.9,-54.98C267.18,-46.42 236.55,-33.11 213.92,-23.28"/>
<polygon fill="#63b8ff" stroke="#63b8ff" points="215.02,-19.94 204.46,-19.17 212.24,-26.37 215.02,-19.94"/>
</g>
</g>
</svg>
