<?xml version="1.0" encoding="UTF-8" standalone="no"?>
<!DOCTYPE svg PUBLIC "-//W3C//DTD SVG 1.1//EN"
 "http://www.w3.org/Graphics/SVG/1.1/DTD/svg11.dtd">
<!-- Generated by graphviz version 2.43.0 (0)
 -->
<!-- Title: execute_precmd Pages: 1 -->
<svg width="1532pt" height="760pt"
 viewBox="0.00 0.00 1532.00 760.15" xmlns="http://www.w3.org/2000/svg" xmlns:xlink="http://www.w3.org/1999/xlink">
<g id="graph0" class="graph" transform="scale(1 1) rotate(0) translate(4 756.15)">
<title>execute_precmd</title>
<!-- Node1 -->
<g id="node1" class="node">
<title>Node1</title>
<g id="a_node1"><a xlink:title=" ">
<polygon fill="#999999" stroke="#666666" points="97,-180.5 0,-180.5 0,-161.5 97,-161.5 97,-180.5"/>
<text text-anchor="middle" x="48.5" y="-168.5" font-family="Helvetica,sans-Serif" font-size="10.00">execute_precmd</text>
</a>
</g>
</g>
<!-- Node2 -->
<g id="node2" class="node">
<title>Node2</title>
<g id="a_node2"><a xlink:href="shell_8c.html#afb5215a1775326d8976fd015f7832392" target="_top" xlink:title=" ">
<polygon fill="white" stroke="#666666" points="213,-180.5 133,-180.5 133,-161.5 213,-161.5 213,-180.5"/>
<text text-anchor="middle" x="173" y="-168.5" font-family="Helvetica,sans-Serif" font-size="10.00">handle_input</text>
</a>
</g>
</g>
<!-- Node1&#45;&gt;Node2 -->
<g id="edge1" class="edge">
<title>Node1&#45;&gt;Node2</title>
<path fill="none" stroke="#63b8ff" d="M97.21,-171C105.62,-171 114.38,-171 122.83,-171"/>
<polygon fill="#63b8ff" stroke="#63b8ff" points="122.92,-174.5 132.92,-171 122.92,-167.5 122.92,-174.5"/>
</g>
<!-- Node3 -->
<g id="node3" class="node">
<title>Node3</title>
<g id="a_node3"><a xlink:href="ast__destroy_8c.html#a04c67d7ab492f6e1e7bc44dc70faa057" target="_top" xlink:title=" ">
<polygon fill="white" stroke="#666666" points="950,-199.5 876,-199.5 876,-180.5 950,-180.5 950,-199.5"/>
<text text-anchor="middle" x="913" y="-187.5" font-family="Helvetica,sans-Serif" font-size="10.00">ast_destroy</text>
</a>
</g>
</g>
<!-- Node2&#45;&gt;Node3 -->
<g id="edge2" class="edge">
<title>Node2&#45;&gt;Node3</title>
<path fill="none" stroke="#63b8ff" d="M201.94,-180.54C252.02,-196.77 360.67,-228 455,-228 455,-228 455,-228 611,-228 701.68,-228 806.53,-210.81 865.47,-199.56"/>
<polygon fill="#63b8ff" stroke="#63b8ff" points="866.43,-202.94 875.58,-197.6 865.1,-196.06 866.43,-202.94"/>
</g>
<!-- Node5 -->
<g id="node5" class="node">
<title>Node5</title>
<g id="a_node5"><a xlink:href="shell_8c.html#a74405478dadd73c0a4d1e5f3e8d2e3ef" target="_top" xlink:title=" ">
<polygon fill="white" stroke="#666666" points="362,-720 249,-720 249,-690 362,-690 362,-720"/>
<text text-anchor="start" x="257" y="-708" font-family="Helvetica,sans-Serif" font-size="10.00">destroy_parser_and</text>
<text text-anchor="middle" x="305.5" y="-697" font-family="Helvetica,sans-Serif" font-size="10.00">_lexer</text>
</a>
</g>
</g>
<!-- Node2&#45;&gt;Node5 -->
<g id="edge5" class="edge">
<title>Node2&#45;&gt;Node5</title>
<path fill="none" stroke="#63b8ff" d="M176.38,-180.72C191.54,-242.79 274.92,-583.97 298.37,-679.9"/>
<polygon fill="#63b8ff" stroke="#63b8ff" points="295.03,-680.99 300.8,-689.87 301.83,-679.32 295.03,-680.99"/>
</g>
<!-- Node9 -->
<g id="node9" class="node">
<title>Node9</title>
<g id="a_node9"><a xlink:href="execute__ast_8c.html#ad26a20a665ab7fdeb714ed53c1afd104" target="_top" xlink:title=" ">
<polygon fill="white" stroke="#666666" points="343,-425.5 268,-425.5 268,-406.5 343,-406.5 343,-425.5"/>
<text text-anchor="middle" x="305.5" y="-413.5" font-family="Helvetica,sans-Serif" font-size="10.00">execute_ast</text>
</a>
</g>
</g>
<!-- Node2&#45;&gt;Node9 -->
<g id="edge9" class="edge">
<title>Node2&#45;&gt;Node9</title>
<path fill="none" stroke="#63b8ff" d="M179.12,-180.6C198.65,-217.27 268.71,-348.82 294.71,-397.61"/>
<polygon fill="#63b8ff" stroke="#63b8ff" points="291.63,-399.28 299.42,-406.46 297.81,-395.99 291.63,-399.28"/>
</g>
<!-- Node43 -->
<g id="node33" class="node">
<title>Node43</title>
<g id="a_node33"><a xlink:href="shell_8c.html#a6e35892cfa82c5f227b10f37abc529e9" target="_top" xlink:title=" ">
<polygon fill="white" stroke="#666666" points="351,-180.5 260,-180.5 260,-161.5 351,-161.5 351,-180.5"/>
<text text-anchor="middle" x="305.5" y="-168.5" font-family="Helvetica,sans-Serif" font-size="10.00">handle_parsing</text>
</a>
</g>
</g>
<!-- Node2&#45;&gt;Node43 -->
<g id="edge45" class="edge">
<title>Node2&#45;&gt;Node43</title>
<path fill="none" stroke="#63b8ff" d="M213.15,-171C224.65,-171 237.44,-171 249.72,-171"/>
<polygon fill="#63b8ff" stroke="#63b8ff" points="249.88,-174.5 259.88,-171 249.88,-167.5 249.88,-174.5"/>
</g>
<!-- Node138 -->
<g id="node48" class="node">
<title>Node138</title>
<g id="a_node48"><a xlink:href="shell_8c.html#a1ce512725ee0371f8bf608a3ece0c152" target="_top" xlink:title=" ">
<polygon fill="white" stroke="#666666" points="670,-124.5 550,-124.5 550,-105.5 670,-105.5 670,-124.5"/>
<text text-anchor="middle" x="610" y="-112.5" font-family="Helvetica,sans-Serif" font-size="10.00">show_error_message</text>
</a>
</g>
</g>
<!-- Node2&#45;&gt;Node138 -->
<g id="edge72" class="edge">
<title>Node2&#45;&gt;Node138</title>
<path fill="none" stroke="#63b8ff" d="M207.77,-161.47C220.6,-158.1 235.4,-154.53 249,-152 349.08,-133.36 466.69,-123.49 539.55,-118.76"/>
<polygon fill="#63b8ff" stroke="#63b8ff" points="540.21,-122.23 549.96,-118.1 539.76,-115.24 540.21,-122.23"/>
</g>
<!-- Node139 -->
<g id="node49" class="node">
<title>Node139</title>
<g id="a_node49"><a xlink:href="lexer__init_8c.html#aee55447f2c8b083ed2614fa4f439f9cc" target="_top" xlink:title=" ">
<polygon fill="white" stroke="#666666" points="336.5,-86.5 274.5,-86.5 274.5,-67.5 336.5,-67.5 336.5,-86.5"/>
<text text-anchor="middle" x="305.5" y="-74.5" font-family="Helvetica,sans-Serif" font-size="10.00">lexer_init</text>
</a>
</g>
</g>
<!-- Node2&#45;&gt;Node139 -->
<g id="edge69" class="edge">
<title>Node2&#45;&gt;Node139</title>
<path fill="none" stroke="#63b8ff" d="M182.38,-161.28C195.41,-146.64 221.88,-118.75 249,-101 254.84,-97.18 261.4,-93.72 267.9,-90.7"/>
<polygon fill="#63b8ff" stroke="#63b8ff" points="269.53,-93.8 277.29,-86.59 266.73,-87.39 269.53,-93.8"/>
</g>
<!-- Node140 -->
<g id="node50" class="node">
<title>Node140</title>
<g id="a_node50"><a xlink:href="parser__init_8c.html#a7a5dc445fa057a393d0b94590acea2f1" target="_top" xlink:title=" ">
<polygon fill="white" stroke="#666666" points="947,-19.5 879,-19.5 879,-0.5 947,-0.5 947,-19.5"/>
<text text-anchor="middle" x="913" y="-7.5" font-family="Helvetica,sans-Serif" font-size="10.00">parser_init</text>
</a>
</g>
</g>
<!-- Node2&#45;&gt;Node140 -->
<g id="edge70" class="edge">
<title>Node2&#45;&gt;Node140</title>
<path fill="none" stroke="#63b8ff" d="M177.6,-161.45C186.33,-139.64 210.75,-85.87 249,-58 325.88,-1.99 359.88,0 455,0 455,0 455,0 611,0 702.74,0 810.13,-4.7 868.61,-7.65"/>
<polygon fill="#63b8ff" stroke="#63b8ff" points="868.44,-11.15 878.61,-8.17 868.8,-4.16 868.44,-11.15"/>
</g>
<!-- Node3&#45;&gt;Node3 -->
<g id="edge3" class="edge">
<title>Node3&#45;&gt;Node3</title>
<path fill="none" stroke="#63b8ff" d="M891.11,-199.58C880.47,-208.23 887.76,-217.5 913,-217.5 929.17,-217.5 937.97,-213.7 939.41,-208.69"/>
<polygon fill="#63b8ff" stroke="#63b8ff" points="942.47,-206.98 934.89,-199.58 936.2,-210.1 942.47,-206.98"/>
</g>
<!-- Node4 -->
<g id="node4" class="node">
<title>Node4</title>
<g id="a_node4"><a xlink:href="misc_8h.html#a1180cae2875b1fdcd58c9f9175a82c12" target="_top" xlink:title=" ">
<polygon fill="white" stroke="#666666" points="1114,-199.5 997,-199.5 997,-180.5 1114,-180.5 1114,-199.5"/>
<text text-anchor="middle" x="1055.5" y="-187.5" font-family="Helvetica,sans-Serif" font-size="10.00">my_free_word_array</text>
</a>
</g>
</g>
<!-- Node3&#45;&gt;Node4 -->
<g id="edge4" class="edge">
<title>Node3&#45;&gt;Node4</title>
<path fill="none" stroke="#63b8ff" d="M950.18,-190C961.41,-190 974.17,-190 986.82,-190"/>
<polygon fill="#63b8ff" stroke="#63b8ff" points="986.91,-193.5 996.91,-190 986.91,-186.5 986.91,-193.5"/>
</g>
<!-- Node6 -->
<g id="node6" class="node">
<title>Node6</title>
<g id="a_node6"><a xlink:href="lexer__init_8c.html#a592247dc9c102c884630b41389a1b38b" target="_top" xlink:title=" ">
<polygon fill="white" stroke="#666666" points="497.5,-714.5 414.5,-714.5 414.5,-695.5 497.5,-695.5 497.5,-714.5"/>
<text text-anchor="middle" x="456" y="-702.5" font-family="Helvetica,sans-Serif" font-size="10.00">lexer_destroy</text>
</a>
</g>
</g>
<!-- Node5&#45;&gt;Node6 -->
<g id="edge6" class="edge">
<title>Node5&#45;&gt;Node6</title>
<path fill="none" stroke="#63b8ff" d="M362.22,-705C375.99,-705 390.67,-705 404.2,-705"/>
<polygon fill="#63b8ff" stroke="#63b8ff" points="404.28,-708.5 414.28,-705 404.28,-701.5 404.28,-708.5"/>
</g>
<!-- Node7 -->
<g id="node7" class="node">
<title>Node7</title>
<g id="a_node7"><a xlink:href="parser__destroy_8c.html#ae2656460a6fc6b6cd65624312fe0c943" target="_top" xlink:title=" ">
<polygon fill="white" stroke="#666666" points="1100,-498.5 1011,-498.5 1011,-479.5 1100,-479.5 1100,-498.5"/>
<text text-anchor="middle" x="1055.5" y="-486.5" font-family="Helvetica,sans-Serif" font-size="10.00">parser_destroy</text>
</a>
</g>
</g>
<!-- Node5&#45;&gt;Node7 -->
<g id="edge7" class="edge">
<title>Node5&#45;&gt;Node7</title>
<path fill="none" stroke="#63b8ff" d="M362.13,-718.91C422.51,-732.77 521.97,-752 609,-752 609,-752 609,-752 768.5,-752 857.6,-752 893.71,-754.4 961,-696 1019.65,-645.09 1043.4,-550 1051.23,-508.84"/>
<polygon fill="#63b8ff" stroke="#63b8ff" points="1054.68,-509.41 1053,-498.95 1047.79,-508.18 1054.68,-509.41"/>
</g>
<!-- Node8 -->
<g id="node8" class="node">
<title>Node8</title>
<g id="a_node8"><a xlink:href="destroy__token_8c.html#ad1a471ee7b1ccb035d769be1152a370c" target="_top" xlink:title=" ">
<polygon fill="white" stroke="#666666" points="1243,-198.5 1157,-198.5 1157,-179.5 1243,-179.5 1243,-198.5"/>
<text text-anchor="middle" x="1200" y="-186.5" font-family="Helvetica,sans-Serif" font-size="10.00">token_destroy</text>
</a>
</g>
</g>
<!-- Node7&#45;&gt;Node8 -->
<g id="edge8" class="edge">
<title>Node7&#45;&gt;Node8</title>
<path fill="none" stroke="#63b8ff" d="M1061.08,-479.36C1081.3,-436.78 1162.8,-265.2 1190.07,-207.81"/>
<polygon fill="#63b8ff" stroke="#63b8ff" points="1193.24,-209.29 1194.37,-198.76 1186.91,-206.29 1193.24,-209.29"/>
</g>
<!-- Node10 -->
<g id="node10" class="node">
<title>Node10</title>
<g id="a_node10"><a xlink:href="execute__cmd_8c.html#a94ea9cc5a046ce96e36764bf0e4fa2c0" target="_top" xlink:title=" ">
<polygon fill="white" stroke="#666666" points="496.5,-668.5 415.5,-668.5 415.5,-649.5 496.5,-649.5 496.5,-668.5"/>
<text text-anchor="middle" x="456" y="-656.5" font-family="Helvetica,sans-Serif" font-size="10.00">execute_cmd</text>
</a>
</g>
</g>
<!-- Node9&#45;&gt;Node10 -->
<g id="edge10" class="edge">
<title>Node9&#45;&gt;Node10</title>
<path fill="none" stroke="#63b8ff" d="M308.98,-425.81C317.2,-456.85 346.04,-554.56 398,-618 406.3,-628.14 417.69,-636.99 428.1,-643.85"/>
<polygon fill="#63b8ff" stroke="#63b8ff" points="426.56,-647.02 436.89,-649.35 430.27,-641.08 426.56,-647.02"/>
</g>
<!-- Node25 -->
<g id="node17" class="node">
<title>Node25</title>
<g id="a_node17"><a xlink:href="execute__logical__and_8c.html#a4f940752faf9f9a258c49810b21efe47" target="_top" xlink:title=" ">
<polygon fill="white" stroke="#666666" points="514,-462.5 398,-462.5 398,-443.5 514,-443.5 514,-462.5"/>
<text text-anchor="middle" x="456" y="-450.5" font-family="Helvetica,sans-Serif" font-size="10.00">execute_logical_and</text>
</a>
</g>
</g>
<!-- Node9&#45;&gt;Node25 -->
<g id="edge18" class="edge">
<title>Node9&#45;&gt;Node25</title>
<path fill="none" stroke="#63b8ff" d="M343.21,-419.23C368.65,-424.33 402.06,-432.8 425.71,-440.2"/>
<polygon fill="#63b8ff" stroke="#63b8ff" points="424.92,-443.63 435.51,-443.41 427.1,-436.97 424.92,-443.63"/>
</g>
<!-- Node26 -->
<g id="node18" class="node">
<title>Node26</title>
<g id="a_node18"><a xlink:href="execute__logical__or_8c.html#a7e732d7c30b07010fa55850051007dcc" target="_top" xlink:title=" ">
<polygon fill="white" stroke="#666666" points="509.5,-425.5 402.5,-425.5 402.5,-406.5 509.5,-406.5 509.5,-425.5"/>
<text text-anchor="middle" x="456" y="-413.5" font-family="Helvetica,sans-Serif" font-size="10.00">execute_logical_or</text>
</a>
</g>
</g>
<!-- Node9&#45;&gt;Node26 -->
<g id="edge20" class="edge">
<title>Node9&#45;&gt;Node26</title>
<path fill="none" stroke="#63b8ff" d="M343.21,-410.08C358,-409.36 375.5,-409.11 392.2,-409.32"/>
<polygon fill="#63b8ff" stroke="#63b8ff" points="392.4,-412.83 402.46,-409.51 392.53,-405.83 392.4,-412.83"/>
</g>
<!-- Node27 -->
<g id="node19" class="node">
<title>Node27</title>
<g id="a_node19"><a xlink:href="execute__pipe_8c.html#a5f3546dc2c7cf06c982afba41e722164" target="_top" xlink:title=" ">
<polygon fill="white" stroke="#666666" points="496.5,-575.5 415.5,-575.5 415.5,-556.5 496.5,-556.5 496.5,-575.5"/>
<text text-anchor="middle" x="456" y="-563.5" font-family="Helvetica,sans-Serif" font-size="10.00">execute_pipe</text>
</a>
</g>
</g>
<!-- Node9&#45;&gt;Node27 -->
<g id="edge22" class="edge">
<title>Node9&#45;&gt;Node27</title>
<path fill="none" stroke="#63b8ff" d="M311.11,-425.58C322.66,-448.65 355,-507.89 398,-542 402.97,-545.94 408.68,-549.34 414.52,-552.24"/>
<polygon fill="#63b8ff" stroke="#63b8ff" points="413.18,-555.47 423.73,-556.39 416.05,-549.09 413.18,-555.47"/>
</g>
<!-- Node32 -->
<g id="node26" class="node">
<title>Node32</title>
<g id="a_node26"><a xlink:href="execute__redirect_8c.html#a1004307aba80117ddd99f009e52fb155" target="_top" xlink:title=" ">
<polygon fill="white" stroke="#666666" points="505,-388.5 407,-388.5 407,-369.5 505,-369.5 505,-388.5"/>
<text text-anchor="middle" x="456" y="-376.5" font-family="Helvetica,sans-Serif" font-size="10.00">execute_redirect</text>
</a>
</g>
</g>
<!-- Node9&#45;&gt;Node32 -->
<g id="edge33" class="edge">
<title>Node9&#45;&gt;Node32</title>
<path fill="none" stroke="#63b8ff" d="M343.21,-406.85C362.4,-402.07 386.13,-396.16 406.78,-391.01"/>
<polygon fill="#63b8ff" stroke="#63b8ff" points="407.79,-394.37 416.64,-388.56 406.09,-387.58 407.79,-394.37"/>
</g>
<!-- Node40 -->
<g id="node30" class="node">
<title>Node40</title>
<g id="a_node30"><a xlink:href="execute__repeat_8c.html#a00d48683c54b50130b4a402e6e97fa97" target="_top" xlink:title=" ">
<polygon fill="white" stroke="#666666" points="502,-312.5 410,-312.5 410,-293.5 502,-293.5 502,-312.5"/>
<text text-anchor="middle" x="456" y="-300.5" font-family="Helvetica,sans-Serif" font-size="10.00">execute_repeat</text>
</a>
</g>
</g>
<!-- Node9&#45;&gt;Node40 -->
<g id="edge38" class="edge">
<title>Node9&#45;&gt;Node40</title>
<path fill="none" stroke="#63b8ff" d="M310.89,-406.3C323.19,-386.3 359.57,-343.45 398,-318 398.94,-317.38 399.9,-316.77 400.87,-316.17"/>
<polygon fill="#63b8ff" stroke="#63b8ff" points="402.95,-319.02 409.98,-311.09 399.54,-312.9 402.95,-319.02"/>
</g>
<!-- Node41 -->
<g id="node31" class="node">
<title>Node41</title>
<g id="a_node31"><a xlink:href="execute__sequence_8c.html#aad2caa5bf50b0752dd8272da477ec231" target="_top" xlink:title=" ">
<polygon fill="white" stroke="#666666" points="509.5,-275.5 402.5,-275.5 402.5,-256.5 509.5,-256.5 509.5,-275.5"/>
<text text-anchor="middle" x="456" y="-263.5" font-family="Helvetica,sans-Serif" font-size="10.00">execute_sequence</text>
</a>
</g>
</g>
<!-- Node9&#45;&gt;Node41 -->
<g id="edge40" class="edge">
<title>Node9&#45;&gt;Node41</title>
<path fill="none" stroke="#63b8ff" d="M308.95,-406.36C317.25,-381.52 346.23,-317.94 394.24,-278.41"/>
<polygon fill="#63b8ff" stroke="#63b8ff" points="396.69,-280.94 402.43,-272.04 392.39,-275.41 396.69,-280.94"/>
</g>
<!-- Node42 -->
<g id="node32" class="node">
<title>Node42</title>
<g id="a_node32"><a xlink:href="execute__subshell_8c.html#a40a27866de012b013a337f794a858d70" target="_top" xlink:title=" ">
<polygon fill="white" stroke="#666666" points="506.5,-499.5 405.5,-499.5 405.5,-480.5 506.5,-480.5 506.5,-499.5"/>
<text text-anchor="middle" x="456" y="-487.5" font-family="Helvetica,sans-Serif" font-size="10.00">execute_subshell</text>
</a>
</g>
</g>
<!-- Node9&#45;&gt;Node42 -->
<g id="edge42" class="edge">
<title>Node9&#45;&gt;Node42</title>
<path fill="none" stroke="#63b8ff" d="M330.84,-425.66C348.77,-436.23 374.1,-452.11 398,-463 409.45,-468.22 422.84,-472.53 433.76,-476.58"/>
<polygon fill="#63b8ff" stroke="#63b8ff" points="432.75,-479.95 443.34,-480.41 435.35,-473.45 432.75,-479.95"/>
</g>
<!-- Node11 -->
<g id="node11" class="node">
<title>Node11</title>
<g id="a_node11"><a xlink:href="execute__cmd_8c.html#a0cfd2364134e68efdd39533e00b4b0d9" target="_top" xlink:title=" ">
<polygon fill="white" stroke="#666666" points="669.5,-649.5 550.5,-649.5 550.5,-630.5 669.5,-630.5 669.5,-649.5"/>
<text text-anchor="middle" x="610" y="-637.5" font-family="Helvetica,sans-Serif" font-size="10.00">execute_local_binary</text>
</a>
</g>
</g>
<!-- Node10&#45;&gt;Node11 -->
<g id="edge11" class="edge">
<title>Node10&#45;&gt;Node11</title>
<path fill="none" stroke="#63b8ff" d="M496.54,-654.06C509.9,-652.39 525.24,-650.47 540.2,-648.6"/>
<polygon fill="#63b8ff" stroke="#63b8ff" points="540.98,-652.03 550.47,-647.32 540.11,-645.08 540.98,-652.03"/>
</g>
<!-- Node19 -->
<g id="node13" class="node">
<title>Node19</title>
<g id="a_node13"><a xlink:href="execute__cmd_8c.html#a460126af28ab29df4340554fae9fc57a" target="_top" xlink:title=" ">
<polygon fill="white" stroke="#666666" points="669,-686.5 551,-686.5 551,-667.5 669,-667.5 669,-686.5"/>
<text text-anchor="middle" x="610" y="-674.5" font-family="Helvetica,sans-Serif" font-size="10.00">execute_path_binary</text>
</a>
</g>
</g>
<!-- Node10&#45;&gt;Node19 -->
<g id="edge13" class="edge">
<title>Node10&#45;&gt;Node19</title>
<path fill="none" stroke="#63b8ff" d="M496.54,-663.68C509.98,-665.27 525.4,-667.1 540.44,-668.88"/>
<polygon fill="#63b8ff" stroke="#63b8ff" points="540.42,-672.4 550.76,-670.1 541.24,-665.45 540.42,-672.4"/>
</g>
<!-- Node24 -->
<g id="node16" class="node">
<title>Node24</title>
<g id="a_node16"><a xlink:href="strings_8h.html#a36f055c4e56c8a784629908d0c5b91e5" target="_top" xlink:title=" ">
<polygon fill="white" stroke="#666666" points="662,-723.5 558,-723.5 558,-704.5 662,-704.5 662,-723.5"/>
<text text-anchor="middle" x="610" y="-711.5" font-family="Helvetica,sans-Serif" font-size="10.00">my_is_char_in_str</text>
</a>
</g>
</g>
<!-- Node10&#45;&gt;Node24 -->
<g id="edge17" class="edge">
<title>Node10&#45;&gt;Node24</title>
<path fill="none" stroke="#63b8ff" d="M479.73,-668.65C498.44,-676.45 525.73,-687.49 550,-696 555.24,-697.84 560.78,-699.67 566.28,-701.43"/>
<polygon fill="#63b8ff" stroke="#63b8ff" points="565.49,-704.84 576.08,-704.48 567.57,-698.16 565.49,-704.84"/>
</g>
<!-- Node12 -->
<g id="node12" class="node">
<title>Node12</title>
<g id="a_node12"><a xlink:href="execute__cmd_8c.html#a018afe6a043051ebc2e3dd9412587990" target="_top" xlink:title=" ">
<polygon fill="#fff0f0" stroke="red" points="958.5,-686.5 867.5,-686.5 867.5,-667.5 958.5,-667.5 958.5,-686.5"/>
<text text-anchor="middle" x="913" y="-674.5" font-family="Helvetica,sans-Serif" font-size="10.00">execute_binary</text>
</a>
</g>
</g>
<!-- Node11&#45;&gt;Node12 -->
<g id="edge12" class="edge">
<title>Node11&#45;&gt;Node12</title>
<path fill="none" stroke="#63b8ff" d="M669.53,-643.08C713.56,-645.89 775.29,-650.87 829,-659 840.05,-660.67 851.83,-662.93 862.95,-665.29"/>
<polygon fill="#63b8ff" stroke="#63b8ff" points="862.41,-668.75 872.92,-667.46 863.9,-661.91 862.41,-668.75"/>
</g>
<!-- Node20 -->
<g id="node14" class="node">
<title>Node20</title>
<g id="a_node14"><a xlink:href="get__variable__value_8c.html#a2edd9900f19af236aa05385a789be3d6" target="_top" xlink:title=" ">
<polygon fill="#fff0f0" stroke="red" points="822.5,-686.5 712.5,-686.5 712.5,-667.5 822.5,-667.5 822.5,-686.5"/>
<text text-anchor="middle" x="767.5" y="-674.5" font-family="Helvetica,sans-Serif" font-size="10.00">get_variable_value</text>
</a>
</g>
</g>
<!-- Node19&#45;&gt;Node20 -->
<g id="edge14" class="edge">
<title>Node19&#45;&gt;Node20</title>
<path fill="none" stroke="#63b8ff" d="M669.34,-677C680.06,-677 691.29,-677 702.16,-677"/>
<polygon fill="#63b8ff" stroke="#63b8ff" points="702.45,-680.5 712.45,-677 702.45,-673.5 702.45,-680.5"/>
</g>
<!-- Node22 -->
<g id="node15" class="node">
<title>Node22</title>
<g id="a_node15"><a xlink:href="execute__cmd_8c.html#aee9e13edede9df28fac066f30e7ae7ed" target="_top" xlink:title=" ">
<polygon fill="#fff0f0" stroke="red" points="809.5,-723.5 725.5,-723.5 725.5,-704.5 809.5,-704.5 809.5,-723.5"/>
<text text-anchor="middle" x="767.5" y="-711.5" font-family="Helvetica,sans-Serif" font-size="10.00">try_command</text>
</a>
</g>
</g>
<!-- Node19&#45;&gt;Node22 -->
<g id="edge15" class="edge">
<title>Node19&#45;&gt;Node22</title>
<path fill="none" stroke="#63b8ff" d="M651.05,-686.53C671.01,-691.28 695.35,-697.07 716.53,-702.11"/>
<polygon fill="#63b8ff" stroke="#63b8ff" points="715.78,-705.53 726.32,-704.44 717.4,-698.72 715.78,-705.53"/>
</g>
<!-- Node22&#45;&gt;Node12 -->
<g id="edge16" class="edge">
<title>Node22&#45;&gt;Node12</title>
<path fill="none" stroke="#63b8ff" d="M805.45,-704.47C823.56,-699.8 845.56,-694.13 864.86,-689.15"/>
<polygon fill="#63b8ff" stroke="#63b8ff" points="865.86,-692.51 874.67,-686.62 864.11,-685.73 865.86,-692.51"/>
</g>
<!-- Node25&#45;&gt;Node9 -->
<g id="edge19" class="edge">
<title>Node25&#45;&gt;Node9</title>
<path fill="none" stroke="#63b8ff" d="M397.77,-445.33C376.54,-440.45 353.34,-434.3 335.64,-428.75"/>
<polygon fill="#63b8ff" stroke="#63b8ff" points="336.51,-425.35 325.91,-425.57 334.33,-432.01 336.51,-425.35"/>
</g>
<!-- Node26&#45;&gt;Node9 -->
<g id="edge21" class="edge">
<title>Node26&#45;&gt;Node9</title>
<path fill="none" stroke="#63b8ff" d="M402.46,-422.49C386.55,-422.88 369.17,-422.83 353.63,-422.33"/>
<polygon fill="#63b8ff" stroke="#63b8ff" points="353.34,-418.82 343.21,-421.92 353.06,-425.81 353.34,-418.82"/>
</g>
<!-- Node28 -->
<g id="node20" class="node">
<title>Node28</title>
<g id="a_node20"><a xlink:href="execute__pipe_8c.html#a723ff799f939872d17f109a82342294e" target="_top" xlink:title=" ">
<polygon fill="white" stroke="#666666" points="798.5,-574.5 736.5,-574.5 736.5,-555.5 798.5,-555.5 798.5,-574.5"/>
<text text-anchor="middle" x="767.5" y="-562.5" font-family="Helvetica,sans-Serif" font-size="10.00">close_fds</text>
</a>
</g>
</g>
<!-- Node27&#45;&gt;Node28 -->
<g id="edge23" class="edge">
<title>Node27&#45;&gt;Node28</title>
<path fill="none" stroke="#63b8ff" d="M496.51,-565.87C555.7,-565.68 666.77,-565.32 726.34,-565.13"/>
<polygon fill="#63b8ff" stroke="#63b8ff" points="726.5,-568.63 736.49,-565.1 726.48,-561.63 726.5,-568.63"/>
</g>
<!-- Node29 -->
<g id="node21" class="node">
<title>Node29</title>
<g id="a_node21"><a xlink:href="execute__pipe_8c.html#ac529ffc2370b0133613ef8a81e58ed85" target="_top" xlink:title=" ">
<polygon fill="white" stroke="#666666" points="661,-612.5 559,-612.5 559,-593.5 661,-593.5 661,-612.5"/>
<text text-anchor="middle" x="610" y="-600.5" font-family="Helvetica,sans-Serif" font-size="10.00">execute_pipe_left</text>
</a>
</g>
</g>
<!-- Node27&#45;&gt;Node29 -->
<g id="edge24" class="edge">
<title>Node27&#45;&gt;Node29</title>
<path fill="none" stroke="#63b8ff" d="M496.14,-575.53C515.57,-580.26 539.24,-586.02 559.87,-591.04"/>
<polygon fill="#63b8ff" stroke="#63b8ff" points="559.18,-594.48 569.72,-593.44 560.84,-587.67 559.18,-594.48"/>
</g>
<!-- Node30 -->
<g id="node22" class="node">
<title>Node30</title>
<g id="a_node22"><a xlink:href="execute__pipe_8c.html#a9ed6eabb8a9f7049f91265a5f45e30c8" target="_top" xlink:title=" ">
<polygon fill="white" stroke="#666666" points="664.5,-536.5 555.5,-536.5 555.5,-517.5 664.5,-517.5 664.5,-536.5"/>
<text text-anchor="middle" x="610" y="-524.5" font-family="Helvetica,sans-Serif" font-size="10.00">execute_pipe_right</text>
</a>
</g>
</g>
<!-- Node27&#45;&gt;Node30 -->
<g id="edge27" class="edge">
<title>Node27&#45;&gt;Node30</title>
<path fill="none" stroke="#63b8ff" d="M494.18,-556.46C514.69,-551.2 540.34,-544.62 562.2,-539.01"/>
<polygon fill="#63b8ff" stroke="#63b8ff" points="563.12,-542.39 571.94,-536.51 561.38,-535.6 563.12,-542.39"/>
</g>
<!-- Node17 -->
<g id="node24" class="node">
<title>Node17</title>
<g id="a_node24"><a xlink:href="wait__for__subprocess_8c.html#a1242d78540fd0ddef3d98a9f294cb0d4" target="_top" xlink:title=" ">
<polygon fill="white" stroke="#666666" points="668,-499.5 552,-499.5 552,-480.5 668,-480.5 668,-499.5"/>
<text text-anchor="middle" x="610" y="-487.5" font-family="Helvetica,sans-Serif" font-size="10.00">wait_for_subprocess</text>
</a>
</g>
</g>
<!-- Node27&#45;&gt;Node17 -->
<g id="edge31" class="edge">
<title>Node27&#45;&gt;Node17</title>
<path fill="none" stroke="#63b8ff" d="M470.3,-556.44C487.86,-544.15 520.06,-522.76 550,-509 554.71,-506.84 559.73,-504.82 564.78,-502.96"/>
<polygon fill="#63b8ff" stroke="#63b8ff" points="566.17,-506.18 574.47,-499.6 563.87,-499.57 566.17,-506.18"/>
</g>
<!-- Node29&#45;&gt;Node9 -->
<g id="edge26" class="edge">
<title>Node29&#45;&gt;Node9</title>
<path fill="none" stroke="#63b8ff" d="M558.65,-611.38C512.97,-616.23 445.67,-616.22 398,-585 344.38,-549.88 319.7,-472.29 310.73,-435.75"/>
<polygon fill="#63b8ff" stroke="#63b8ff" points="314.1,-434.78 308.44,-425.83 307.28,-436.36 314.1,-434.78"/>
</g>
<!-- Node29&#45;&gt;Node28 -->
<g id="edge25" class="edge">
<title>Node29&#45;&gt;Node28</title>
<path fill="none" stroke="#63b8ff" d="M650.24,-593.41C673.44,-587.74 702.76,-580.58 726.15,-574.86"/>
<polygon fill="#63b8ff" stroke="#63b8ff" points="727.22,-578.2 736.1,-572.43 725.56,-571.4 727.22,-578.2"/>
</g>
<!-- Node30&#45;&gt;Node9 -->
<g id="edge29" class="edge">
<title>Node30&#45;&gt;Node9</title>
<path fill="none" stroke="#63b8ff" d="M555.21,-532.41C510.92,-534.57 447.58,-532.3 398,-509 362.66,-492.39 333.43,-455.99 318.1,-433.97"/>
<polygon fill="#63b8ff" stroke="#63b8ff" points="320.9,-431.86 312.41,-425.52 315.09,-435.77 320.9,-431.86"/>
</g>
<!-- Node30&#45;&gt;Node28 -->
<g id="edge28" class="edge">
<title>Node30&#45;&gt;Node28</title>
<path fill="none" stroke="#63b8ff" d="M650.24,-536.59C673.44,-542.26 702.76,-549.42 726.15,-555.14"/>
<polygon fill="#63b8ff" stroke="#63b8ff" points="725.56,-558.6 736.1,-557.57 727.22,-551.8 725.56,-558.6"/>
</g>
<!-- Node31 -->
<g id="node23" class="node">
<title>Node31</title>
<g id="a_node23"><a xlink:href="execute__pipe_8c.html#ac3d3a124b262676fa0679720f99a7f83" target="_top" xlink:title=" ">
<polygon fill="white" stroke="#666666" points="807.5,-536.5 727.5,-536.5 727.5,-517.5 807.5,-517.5 807.5,-536.5"/>
<text text-anchor="middle" x="767.5" y="-524.5" font-family="Helvetica,sans-Serif" font-size="10.00">restore_stdin</text>
</a>
</g>
</g>
<!-- Node30&#45;&gt;Node31 -->
<g id="edge30" class="edge">
<title>Node30&#45;&gt;Node31</title>
<path fill="none" stroke="#63b8ff" d="M664.51,-527C681.54,-527 700.29,-527 717.01,-527"/>
<polygon fill="#63b8ff" stroke="#63b8ff" points="717.13,-530.5 727.13,-527 717.13,-523.5 717.13,-530.5"/>
</g>
<!-- Node18 -->
<g id="node25" class="node">
<title>Node18</title>
<g id="a_node25"><a xlink:href="wait__for__subprocess_8c.html#a885766ba6ba593b7cf27b917dd52b1a6" target="_top" xlink:title=" ">
<polygon fill="white" stroke="#666666" points="829,-499.5 706,-499.5 706,-480.5 829,-480.5 829,-499.5"/>
<text text-anchor="middle" x="767.5" y="-487.5" font-family="Helvetica,sans-Serif" font-size="10.00">print_signal_message</text>
</a>
</g>
</g>
<!-- Node17&#45;&gt;Node18 -->
<g id="edge32" class="edge">
<title>Node17&#45;&gt;Node18</title>
<path fill="none" stroke="#63b8ff" d="M668.02,-490C677.06,-490 686.5,-490 695.81,-490"/>
<polygon fill="#63b8ff" stroke="#63b8ff" points="695.83,-493.5 705.83,-490 695.83,-486.5 695.83,-493.5"/>
</g>
<!-- Node33 -->
<g id="node27" class="node">
<title>Node33</title>
<g id="a_node27"><a xlink:href="execute__redirect_8c.html#a5aa0f008806cc0e8a7ba252d61b7001f" target="_top" xlink:title=" ">
<polygon fill="white" stroke="#666666" points="663.5,-369.5 556.5,-369.5 556.5,-350.5 663.5,-350.5 663.5,-369.5"/>
<text text-anchor="middle" x="610" y="-357.5" font-family="Helvetica,sans-Serif" font-size="10.00">redirect_execution</text>
</a>
</g>
</g>
<!-- Node32&#45;&gt;Node33 -->
<g id="edge34" class="edge">
<title>Node32&#45;&gt;Node33</title>
<path fill="none" stroke="#63b8ff" d="M505.09,-372.99C518.25,-371.34 532.71,-369.54 546.54,-367.81"/>
<polygon fill="#63b8ff" stroke="#63b8ff" points="546.99,-371.28 556.48,-366.57 546.12,-364.33 546.99,-371.28"/>
</g>
<!-- Node33&#45;&gt;Node9 -->
<g id="edge35" class="edge">
<title>Node33&#45;&gt;Node9</title>
<path fill="none" stroke="#63b8ff" d="M556.34,-352.62C512.99,-348.35 450.38,-346.33 398,-361 370.79,-368.62 343.55,-386.66 325.95,-400.02"/>
<polygon fill="#63b8ff" stroke="#63b8ff" points="323.4,-397.57 317.68,-406.49 327.71,-403.08 323.4,-397.57"/>
</g>
<!-- Node34 -->
<g id="node28" class="node">
<title>Node34</title>
<g id="a_node28"><a xlink:href="execute__redirect_8c.html#a1b8f325fc375581f81ae47a54e09cf0e" target="_top" xlink:title=" ">
<polygon fill="white" stroke="#666666" points="800.5,-388.5 734.5,-388.5 734.5,-369.5 800.5,-369.5 800.5,-388.5"/>
<text text-anchor="middle" x="767.5" y="-376.5" font-family="Helvetica,sans-Serif" font-size="10.00">restore_fd</text>
</a>
</g>
</g>
<!-- Node33&#45;&gt;Node34 -->
<g id="edge36" class="edge">
<title>Node33&#45;&gt;Node34</title>
<path fill="none" stroke="#63b8ff" d="M663.65,-366.43C683.42,-368.85 705.62,-371.56 724.32,-373.85"/>
<polygon fill="#63b8ff" stroke="#63b8ff" points="723.96,-377.33 734.32,-375.07 724.81,-370.38 723.96,-377.33"/>
</g>
<!-- Node35 -->
<g id="node29" class="node">
<title>Node35</title>
<g id="a_node29"><a xlink:href="execute__redirect_8c.html#a6cb002bd51f2009eaacc66d388c5f9a7" target="_top" xlink:title=" ">
<polygon fill="#fff0f0" stroke="red" points="818,-351.5 717,-351.5 717,-332.5 818,-332.5 818,-351.5"/>
<text text-anchor="middle" x="767.5" y="-339.5" font-family="Helvetica,sans-Serif" font-size="10.00">setup_redirection</text>
</a>
</g>
</g>
<!-- Node33&#45;&gt;Node35 -->
<g id="edge37" class="edge">
<title>Node33&#45;&gt;Node35</title>
<path fill="none" stroke="#63b8ff" d="M663.65,-353.91C677.47,-352.31 692.48,-350.57 706.66,-348.93"/>
<polygon fill="#63b8ff" stroke="#63b8ff" points="707.27,-352.38 716.8,-347.75 706.46,-345.43 707.27,-352.38"/>
</g>
<!-- Node40&#45;&gt;Node9 -->
<g id="edge39" class="edge">
<title>Node40&#45;&gt;Node9</title>
<path fill="none" stroke="#63b8ff" d="M444.33,-312.71C432.42,-318.99 412.86,-326.16 398,-336 370.6,-354.15 344.24,-381.13 326.91,-398.88"/>
<polygon fill="#63b8ff" stroke="#63b8ff" points="324.12,-396.73 319.61,-406.32 329.12,-401.63 324.12,-396.73"/>
</g>
<!-- Node41&#45;&gt;Node9 -->
<g id="edge41" class="edge">
<title>Node41&#45;&gt;Node9</title>
<path fill="none" stroke="#63b8ff" d="M438.72,-275.63C426.56,-279.55 410.03,-284.13 398,-293 359.82,-321.15 331.98,-370.17 317.59,-397.26"/>
<polygon fill="#63b8ff" stroke="#63b8ff" points="314.47,-395.69 312.91,-406.17 320.66,-398.94 314.47,-395.69"/>
</g>
<!-- Node42&#45;&gt;Node9 -->
<g id="edge43" class="edge">
<title>Node42&#45;&gt;Node9</title>
<path fill="none" stroke="#63b8ff" d="M405.29,-484.1C402.8,-483.11 400.36,-482.08 398,-481 369.16,-467.86 338.24,-447.45 320.74,-432.59"/>
<polygon fill="#63b8ff" stroke="#63b8ff" points="323.04,-429.96 313.29,-425.8 318.32,-435.13 323.04,-429.96"/>
</g>
<!-- Node42&#45;&gt;Node17 -->
<g id="edge44" class="edge">
<title>Node42&#45;&gt;Node17</title>
<path fill="none" stroke="#63b8ff" d="M506.77,-490C517.95,-490 530,-490 541.76,-490"/>
<polygon fill="#63b8ff" stroke="#63b8ff" points="542,-493.5 552,-490 542,-486.5 542,-493.5"/>
</g>
<!-- Node44 -->
<g id="node34" class="node">
<title>Node44</title>
<g id="a_node34"><a xlink:href="empty__stdin_8c.html#a4c89df10296f2cc245e3a32065e04e7b" target="_top" xlink:title=" ">
<polygon fill="white" stroke="#666666" points="494.5,-199.5 417.5,-199.5 417.5,-180.5 494.5,-180.5 494.5,-199.5"/>
<text text-anchor="middle" x="456" y="-187.5" font-family="Helvetica,sans-Serif" font-size="10.00">empty_stdin</text>
</a>
</g>
</g>
<!-- Node43&#45;&gt;Node44 -->
<g id="edge46" class="edge">
<title>Node43&#45;&gt;Node44</title>
<path fill="none" stroke="#63b8ff" d="M351.05,-176.7C368.85,-178.98 389.37,-181.6 407.45,-183.92"/>
<polygon fill="#63b8ff" stroke="#63b8ff" points="407.13,-187.4 417.49,-185.2 408.02,-180.46 407.13,-187.4"/>
</g>
<!-- Node45 -->
<g id="node35" class="node">
<title>Node45</title>
<g id="a_node35"><a xlink:href="shell_8c.html#a2c9bd51744387dc73763281019d78622" target="_top" xlink:title=" ">
<polygon fill="white" stroke="#666666" points="488,-162.5 424,-162.5 424,-143.5 488,-143.5 488,-162.5"/>
<text text-anchor="middle" x="456" y="-150.5" font-family="Helvetica,sans-Serif" font-size="10.00">parse_ast</text>
</a>
</g>
</g>
<!-- Node43&#45;&gt;Node45 -->
<g id="edge47" class="edge">
<title>Node43&#45;&gt;Node45</title>
<path fill="none" stroke="#63b8ff" d="M351.05,-165.6C370.9,-163.19 394.13,-160.38 413.59,-158.02"/>
<polygon fill="#63b8ff" stroke="#63b8ff" points="414.17,-161.48 423.67,-156.8 413.33,-154.53 414.17,-161.48"/>
</g>
<!-- Node46 -->
<g id="node36" class="node">
<title>Node46</title>
<g id="a_node36"><a xlink:href="parser__parse_8c.html#ab56c1f0e36fe941facfe258418c2cc72" target="_top" xlink:title=" ">
<polygon fill="white" stroke="#666666" points="650,-161.5 570,-161.5 570,-142.5 650,-142.5 650,-161.5"/>
<text text-anchor="middle" x="610" y="-149.5" font-family="Helvetica,sans-Serif" font-size="10.00">parser_parse</text>
</a>
</g>
</g>
<!-- Node45&#45;&gt;Node46 -->
<g id="edge48" class="edge">
<title>Node45&#45;&gt;Node46</title>
<path fill="none" stroke="#63b8ff" d="M488.13,-152.8C508.71,-152.66 536.12,-152.48 559.64,-152.32"/>
<polygon fill="#63b8ff" stroke="#63b8ff" points="559.82,-155.82 569.79,-152.26 559.77,-148.82 559.82,-155.82"/>
</g>
<!-- Node45&#45;&gt;Node138 -->
<g id="edge68" class="edge">
<title>Node45&#45;&gt;Node138</title>
<path fill="none" stroke="#63b8ff" d="M488.13,-145.22C509.1,-139.97 537.18,-132.95 561,-127"/>
<polygon fill="#63b8ff" stroke="#63b8ff" points="562.06,-130.34 570.91,-124.52 560.36,-123.55 562.06,-130.34"/>
</g>
<!-- Node46&#45;&gt;Node3 -->
<g id="edge49" class="edge">
<title>Node46&#45;&gt;Node3</title>
<path fill="none" stroke="#63b8ff" d="M650.15,-160.24C667.24,-163.63 687.55,-167.36 706,-170 760.6,-177.81 823.78,-183.44 865.63,-186.7"/>
<polygon fill="#63b8ff" stroke="#63b8ff" points="865.55,-190.21 875.79,-187.48 866.08,-183.23 865.55,-190.21"/>
</g>
<!-- Node47 -->
<g id="node37" class="node">
<title>Node47</title>
<g id="a_node37"><a xlink:href="parse__sequence_8c.html#a1b3273ce0047a9f5b34da07c8ba9eb3e" target="_top" xlink:title=" ">
<polygon fill="#fff0f0" stroke="red" points="815,-161.5 720,-161.5 720,-142.5 815,-142.5 815,-161.5"/>
<text text-anchor="middle" x="767.5" y="-149.5" font-family="Helvetica,sans-Serif" font-size="10.00">parse_sequence</text>
</a>
</g>
</g>
<!-- Node46&#45;&gt;Node47 -->
<g id="edge50" class="edge">
<title>Node46&#45;&gt;Node47</title>
<path fill="none" stroke="#63b8ff" d="M650.24,-152C668.24,-152 689.94,-152 709.68,-152"/>
<polygon fill="#63b8ff" stroke="#63b8ff" points="709.8,-155.5 719.8,-152 709.8,-148.5 709.8,-155.5"/>
</g>
<!-- Node136 -->
<g id="node38" class="node">
<title>Node136</title>
<g id="a_node38"><a xlink:href="parser__utils_8c.html#aef41660a9d240250899e27f88cd21e2c" target="_top" xlink:title=" ">
<polygon fill="#fff0f0" stroke="red" points="960,-123.5 866,-123.5 866,-104.5 960,-104.5 960,-123.5"/>
<text text-anchor="middle" x="913" y="-111.5" font-family="Helvetica,sans-Serif" font-size="10.00">skip_separators</text>
</a>
</g>
</g>
<!-- Node46&#45;&gt;Node136 -->
<g id="edge67" class="edge">
<title>Node46&#45;&gt;Node136</title>
<path fill="none" stroke="#63b8ff" d="M650.13,-143.21C667.21,-139.62 687.53,-135.69 706,-133 756.29,-125.67 813.93,-120.64 855.42,-117.6"/>
<polygon fill="#63b8ff" stroke="#63b8ff" points="855.88,-121.08 865.61,-116.88 855.39,-114.1 855.88,-121.08"/>
</g>
<!-- Node54 -->
<g id="node46" class="node">
<title>Node54</title>
<g id="a_node46"><a xlink:href="parser__set__error_8c.html#adcfabdb026b94fdbe4b6cbf5cb16522a" target="_top" xlink:title=" ">
<polygon fill="white" stroke="#666666" points="961,-75.5 865,-75.5 865,-56.5 961,-56.5 961,-75.5"/>
<text text-anchor="middle" x="913" y="-63.5" font-family="Helvetica,sans-Serif" font-size="10.00">parser_set_error</text>
</a>
</g>
</g>
<!-- Node46&#45;&gt;Node54 -->
<g id="edge63" class="edge">
<title>Node46&#45;&gt;Node54</title>
<path fill="none" stroke="#63b8ff" d="M650.21,-144.35C657.36,-141.64 664.34,-137.97 670,-133 698.1,-108.36 674.42,-76.99 706,-57 758.34,-23.88 834.03,-39.64 877.6,-53.34"/>
<polygon fill="#63b8ff" stroke="#63b8ff" points="876.58,-56.69 887.17,-56.48 878.76,-50.03 876.58,-56.69"/>
</g>
<!-- Node137 -->
<g id="node47" class="node">
<title>Node137</title>
<g id="a_node47"><a xlink:href="parser__parse_8c.html#ade740e98de82dc19569de5885d2950d1" target="_top" xlink:title=" ">
<polygon fill="white" stroke="#666666" points="812.5,-85.5 722.5,-85.5 722.5,-66.5 812.5,-66.5 812.5,-85.5"/>
<text text-anchor="middle" x="767.5" y="-73.5" font-family="Helvetica,sans-Serif" font-size="10.00">prepare_parser</text>
</a>
</g>
</g>
<!-- Node46&#45;&gt;Node137 -->
<g id="edge64" class="edge">
<title>Node46&#45;&gt;Node137</title>
<path fill="none" stroke="#63b8ff" d="M648.87,-142.48C656.13,-139.92 663.49,-136.79 670,-133 688.76,-122.09 687.61,-111.53 706,-100 712.39,-96 719.55,-92.45 726.65,-89.4"/>
<polygon fill="#63b8ff" stroke="#63b8ff" points="728.26,-92.52 736.22,-85.54 725.64,-86.03 728.26,-92.52"/>
</g>
<!-- Node47&#45;&gt;Node3 -->
<g id="edge51" class="edge">
<title>Node47&#45;&gt;Node3</title>
<path fill="none" stroke="#63b8ff" d="M804.71,-161.59C823.32,-166.52 846.2,-172.57 866.04,-177.83"/>
<polygon fill="#63b8ff" stroke="#63b8ff" points="865.24,-181.24 875.8,-180.41 867.03,-174.47 865.24,-181.24"/>
</g>
<!-- Node47&#45;&gt;Node136 -->
<g id="edge52" class="edge">
<title>Node47&#45;&gt;Node136</title>
<path fill="none" stroke="#63b8ff" d="M804.71,-142.41C823.32,-137.48 846.2,-131.43 866.04,-126.17"/>
<polygon fill="#63b8ff" stroke="#63b8ff" points="867.03,-129.53 875.8,-123.59 865.24,-122.76 867.03,-129.53"/>
</g>
<!-- Node70 -->
<g id="node39" class="node">
<title>Node70</title>
<g id="a_node39"><a xlink:href="parser__next_8c.html#ad25986b565a767c6ad7d0b0b8846fca6" target="_top" xlink:title=" ">
<polygon fill="white" stroke="#666666" points="1092.5,-123.5 1018.5,-123.5 1018.5,-104.5 1092.5,-104.5 1092.5,-123.5"/>
<text text-anchor="middle" x="1055.5" y="-111.5" font-family="Helvetica,sans-Serif" font-size="10.00">parser_next</text>
</a>
</g>
</g>
<!-- Node136&#45;&gt;Node70 -->
<g id="edge53" class="edge">
<title>Node136&#45;&gt;Node70</title>
<path fill="none" stroke="#63b8ff" d="M960,-114C975.35,-114 992.46,-114 1007.85,-114"/>
<polygon fill="#63b8ff" stroke="#63b8ff" points="1008.19,-117.5 1018.19,-114 1008.19,-110.5 1008.19,-117.5"/>
</g>
<!-- Node70&#45;&gt;Node8 -->
<g id="edge62" class="edge">
<title>Node70&#45;&gt;Node8</title>
<path fill="none" stroke="#63b8ff" d="M1074.84,-123.65C1099.42,-136.59 1143.26,-159.66 1171.72,-174.64"/>
<polygon fill="#63b8ff" stroke="#63b8ff" points="1170.25,-177.83 1180.73,-179.39 1173.51,-171.63 1170.25,-177.83"/>
</g>
<!-- Node71 -->
<g id="node40" class="node">
<title>Node71</title>
<g id="a_node40"><a xlink:href="lexer__next__token_8c.html#a3def5432329709fb4df861d90672c510" target="_top" xlink:title=" ">
<polygon fill="#fff0f0" stroke="red" points="1250,-123.5 1150,-123.5 1150,-104.5 1250,-104.5 1250,-123.5"/>
<text text-anchor="middle" x="1200" y="-111.5" font-family="Helvetica,sans-Serif" font-size="10.00">lexer_next_token</text>
</a>
</g>
</g>
<!-- Node70&#45;&gt;Node71 -->
<g id="edge54" class="edge">
<title>Node70&#45;&gt;Node71</title>
<path fill="none" stroke="#63b8ff" d="M1092.83,-114C1107.03,-114 1123.7,-114 1139.56,-114"/>
<polygon fill="#63b8ff" stroke="#63b8ff" points="1139.83,-117.5 1149.83,-114 1139.83,-110.5 1139.83,-117.5"/>
</g>
<!-- Node72 -->
<g id="node41" class="node">
<title>Node72</title>
<g id="a_node41"><a xlink:href="create__token_8c.html#a15bcfc92177012893c626ce7d2d6bb6b" target="_top" xlink:title=" ">
<polygon fill="white" stroke="#666666" points="1524,-85.5 1444,-85.5 1444,-66.5 1524,-66.5 1524,-85.5"/>
<text text-anchor="middle" x="1484" y="-73.5" font-family="Helvetica,sans-Serif" font-size="10.00">create_token</text>
</a>
</g>
</g>
<!-- Node71&#45;&gt;Node72 -->
<g id="edge55" class="edge">
<title>Node71&#45;&gt;Node72</title>
<path fill="none" stroke="#63b8ff" d="M1238.89,-104.48C1253.53,-101.07 1270.47,-97.47 1286,-95 1336.1,-87.02 1393.94,-81.92 1433.93,-79.04"/>
<polygon fill="#63b8ff" stroke="#63b8ff" points="1434.21,-82.53 1443.95,-78.34 1433.72,-75.54 1434.21,-82.53"/>
</g>
<!-- Node73 -->
<g id="node42" class="node">
<title>Node73</title>
<g id="a_node42"><a xlink:href="lexer__next__token_8c.html#add2e1acaa9518ecf20b6670ad91a5c65" target="_top" xlink:title=" ">
<polygon fill="#fff0f0" stroke="red" points="1398,-160.5 1296,-160.5 1296,-141.5 1398,-141.5 1398,-160.5"/>
<text text-anchor="middle" x="1347" y="-148.5" font-family="Helvetica,sans-Serif" font-size="10.00">get_logical_token</text>
</a>
</g>
</g>
<!-- Node71&#45;&gt;Node73 -->
<g id="edge56" class="edge">
<title>Node71&#45;&gt;Node73</title>
<path fill="none" stroke="#63b8ff" d="M1238.34,-123.53C1256.71,-128.21 1279.04,-133.91 1298.6,-138.9"/>
<polygon fill="#63b8ff" stroke="#63b8ff" points="1297.98,-142.36 1308.53,-141.44 1299.71,-135.58 1297.98,-142.36"/>
</g>
<!-- Node77 -->
<g id="node43" class="node">
<title>Node77</title>
<g id="a_node43"><a xlink:href="lexer__next__token_8c.html#abcee8a7ba5ea6ca80c0bd7e3dd8d9a32" target="_top" xlink:title=" ">
<polygon fill="#fff0f0" stroke="red" points="1408,-123.5 1286,-123.5 1286,-104.5 1408,-104.5 1408,-123.5"/>
<text text-anchor="middle" x="1347" y="-111.5" font-family="Helvetica,sans-Serif" font-size="10.00">get_redirection_token</text>
</a>
</g>
</g>
<!-- Node71&#45;&gt;Node77 -->
<g id="edge57" class="edge">
<title>Node71&#45;&gt;Node77</title>
<path fill="none" stroke="#63b8ff" d="M1250.09,-114C1258.36,-114 1267.08,-114 1275.76,-114"/>
<polygon fill="#63b8ff" stroke="#63b8ff" points="1275.9,-117.5 1285.9,-114 1275.9,-110.5 1275.9,-117.5"/>
</g>
<!-- Node82 -->
<g id="node44" class="node">
<title>Node82</title>
<g id="a_node44"><a xlink:href="lexer__newline_8c.html#a9f60bf18297b9c705fa6cdff027c79fc" target="_top" xlink:title=" ">
<polygon fill="white" stroke="#666666" points="1389,-47.5 1305,-47.5 1305,-28.5 1389,-28.5 1389,-47.5"/>
<text text-anchor="middle" x="1347" y="-35.5" font-family="Helvetica,sans-Serif" font-size="10.00">lexer_newline</text>
</a>
</g>
</g>
<!-- Node71&#45;&gt;Node82 -->
<g id="edge58" class="edge">
<title>Node71&#45;&gt;Node82</title>
<path fill="none" stroke="#63b8ff" d="M1215.02,-104.41C1231.53,-93.35 1260.02,-75.03 1286,-62 1293.56,-58.21 1301.87,-54.57 1309.83,-51.32"/>
<polygon fill="#63b8ff" stroke="#63b8ff" points="1311.28,-54.51 1319.29,-47.57 1308.71,-48 1311.28,-54.51"/>
</g>
<!-- Node83 -->
<g id="node45" class="node">
<title>Node83</title>
<g id="a_node45"><a xlink:href="lexer__parenthesis_8c.html#a2b13eaa0fee255bea85bd4279f369795" target="_top" xlink:title=" ">
<polygon fill="white" stroke="#666666" points="1398.5,-197.5 1295.5,-197.5 1295.5,-178.5 1398.5,-178.5 1398.5,-197.5"/>
<text text-anchor="middle" x="1347" y="-185.5" font-family="Helvetica,sans-Serif" font-size="10.00">lexer_parenthesis</text>
</a>
</g>
</g>
<!-- Node71&#45;&gt;Node83 -->
<g id="edge60" class="edge">
<title>Node71&#45;&gt;Node83</title>
<path fill="none" stroke="#63b8ff" d="M1213.34,-123.51C1229.35,-135.48 1258.49,-156.03 1286,-169 1290.7,-171.21 1295.72,-173.26 1300.78,-175.13"/>
<polygon fill="#63b8ff" stroke="#63b8ff" points="1299.9,-178.53 1310.5,-178.49 1302.19,-171.91 1299.9,-178.53"/>
</g>
<!-- Node82&#45;&gt;Node72 -->
<g id="edge59" class="edge">
<title>Node82&#45;&gt;Node72</title>
<path fill="none" stroke="#63b8ff" d="M1382.07,-47.59C1399.41,-52.47 1420.7,-58.46 1439.25,-63.68"/>
<polygon fill="#63b8ff" stroke="#63b8ff" points="1438.37,-67.07 1448.94,-66.41 1440.27,-60.34 1438.37,-67.07"/>
</g>
<!-- Node83&#45;&gt;Node72 -->
<g id="edge61" class="edge">
<title>Node83&#45;&gt;Node72</title>
<path fill="none" stroke="#63b8ff" d="M1389.51,-178.39C1396,-175.91 1402.41,-172.82 1408,-169 1436.68,-149.4 1459.94,-115.64 1472.59,-94.64"/>
<polygon fill="#63b8ff" stroke="#63b8ff" points="1475.77,-96.13 1477.78,-85.73 1469.72,-92.61 1475.77,-96.13"/>
</g>
<!-- Node137&#45;&gt;Node136 -->
<g id="edge66" class="edge">
<title>Node137&#45;&gt;Node136</title>
<path fill="none" stroke="#63b8ff" d="M804.71,-85.59C823.32,-90.52 846.2,-96.57 866.04,-101.83"/>
<polygon fill="#63b8ff" stroke="#63b8ff" points="865.24,-105.24 875.8,-104.41 867.03,-98.47 865.24,-105.24"/>
</g>
<!-- Node137&#45;&gt;Node54 -->
<g id="edge65" class="edge">
<title>Node137&#45;&gt;Node54</title>
<path fill="none" stroke="#63b8ff" d="M812.73,-72.92C826.05,-71.99 840.86,-70.96 854.89,-69.98"/>
<polygon fill="#63b8ff" stroke="#63b8ff" points="855.2,-73.47 864.93,-69.28 854.72,-66.48 855.2,-73.47"/>
</g>
<!-- Node140&#45;&gt;Node70 -->
<g id="edge71" class="edge">
<title>Node140&#45;&gt;Node70</title>
<path fill="none" stroke="#63b8ff" d="M926.97,-19.6C951.22,-37.55 1003.67,-76.38 1033.2,-98.23"/>
<polygon fill="#63b8ff" stroke="#63b8ff" points="1031.45,-101.29 1041.57,-104.43 1035.61,-95.66 1031.45,-101.29"/>
</g>
</g>
</svg>
