<?xml version="1.0" encoding="UTF-8" standalone="no"?>
<!DOCTYPE svg PUBLIC "-//W3C//DTD SVG 1.1//EN"
 "http://www.w3.org/Graphics/SVG/1.1/DTD/svg11.dtd">
<!-- Generated by graphviz version 2.43.0 (0)
 -->
<!-- Title: show_prompt Pages: 1 -->
<svg width="540pt" height="64pt"
 viewBox="0.00 0.00 540.00 64.00" xmlns="http://www.w3.org/2000/svg" xmlns:xlink="http://www.w3.org/1999/xlink">
<g id="graph0" class="graph" transform="scale(1 1) rotate(0) translate(4 60)">
<title>show_prompt</title>
<!-- Node1 -->
<g id="node1" class="node">
<title>Node1</title>
<g id="a_node1"><a xlink:title=" ">
<polygon fill="#999999" stroke="#666666" points="83,-38 0,-38 0,-19 83,-19 83,-38"/>
<text text-anchor="middle" x="41.5" y="-26" font-family="Helvetica,sans-Serif" font-size="10.00">show_prompt</text>
</a>
</g>
</g>
<!-- Node2 -->
<g id="node2" class="node">
<title>Node2</title>
<g id="a_node2"><a xlink:href="read__input_8c.html#a6a144d0d5270ba0d210fcb5f39d7fc63" target="_top" xlink:title=" ">
<polygon fill="white" stroke="#666666" points="419,-56 306,-56 306,-37 419,-37 419,-56"/>
<text text-anchor="middle" x="362.5" y="-44" font-family="Helvetica,sans-Serif" font-size="10.00">print_prompt_prefix</text>
</a>
</g>
</g>
<!-- Node1&#45;&gt;Node2 -->
<g id="edge1" class="edge">
<title>Node1&#45;&gt;Node2</title>
<path fill="none" stroke="#63b8ff" d="M83.23,-30.8C136.77,-33.82 231.5,-39.16 295.38,-42.77"/>
<polygon fill="#63b8ff" stroke="#63b8ff" points="295.57,-46.29 305.75,-43.35 295.96,-39.3 295.57,-46.29"/>
</g>
<!-- Node3 -->
<g id="node3" class="node">
<title>Node3</title>
<g id="a_node3"><a xlink:href="read__input_8c.html#a95fff78135b5c85ed0ff754f303e28f7" target="_top" xlink:title=" ">
<polygon fill="white" stroke="#666666" points="270,-19 119,-19 119,0 270,0 270,-19"/>
<text text-anchor="middle" x="194.5" y="-7" font-family="Helvetica,sans-Serif" font-size="10.00">show_prompt_with_curr_dir</text>
</a>
</g>
</g>
<!-- Node1&#45;&gt;Node3 -->
<g id="edge2" class="edge">
<title>Node1&#45;&gt;Node3</title>
<path fill="none" stroke="#63b8ff" d="M83.36,-23.36C91.36,-22.35 100.02,-21.26 108.84,-20.15"/>
<polygon fill="#63b8ff" stroke="#63b8ff" points="109.37,-23.61 118.86,-18.89 108.5,-16.67 109.37,-23.61"/>
</g>
<!-- Node3&#45;&gt;Node2 -->
<g id="edge5" class="edge">
<title>Node3&#45;&gt;Node2</title>
<path fill="none" stroke="#63b8ff" d="M238.25,-19.03C259.76,-23.82 286.02,-29.68 308.77,-34.75"/>
<polygon fill="#63b8ff" stroke="#63b8ff" points="308.09,-38.18 318.61,-36.94 309.61,-31.35 308.09,-38.18"/>
</g>
<!-- Node4 -->
<g id="node4" class="node">
<title>Node4</title>
<g id="a_node4"><a xlink:href="get__variable__value_8c.html#a2edd9900f19af236aa05385a789be3d6" target="_top" xlink:title=" ">
<polygon fill="white" stroke="#666666" points="417.5,-19 307.5,-19 307.5,0 417.5,0 417.5,-19"/>
<text text-anchor="middle" x="362.5" y="-7" font-family="Helvetica,sans-Serif" font-size="10.00">get_variable_value</text>
</a>
</g>
</g>
<!-- Node3&#45;&gt;Node4 -->
<g id="edge3" class="edge">
<title>Node3&#45;&gt;Node4</title>
<path fill="none" stroke="#63b8ff" d="M270.24,-9.5C279.15,-9.5 288.19,-9.5 296.93,-9.5"/>
<polygon fill="#63b8ff" stroke="#63b8ff" points="297.04,-13 307.04,-9.5 297.04,-6 297.04,-13"/>
</g>
<!-- Node5 -->
<g id="node5" class="node">
<title>Node5</title>
<g id="a_node5"><a xlink:href="get__variable_8c.html#a569170390f0edf013bf89c26ef55ea8c" target="_top" xlink:title=" ">
<polygon fill="white" stroke="#666666" points="532,-19 455,-19 455,0 532,0 532,-19"/>
<text text-anchor="middle" x="493.5" y="-7" font-family="Helvetica,sans-Serif" font-size="10.00">get_variable</text>
</a>
</g>
</g>
<!-- Node4&#45;&gt;Node5 -->
<g id="edge4" class="edge">
<title>Node4&#45;&gt;Node5</title>
<path fill="none" stroke="#63b8ff" d="M417.83,-9.5C426.74,-9.5 435.92,-9.5 444.65,-9.5"/>
<polygon fill="#63b8ff" stroke="#63b8ff" points="444.66,-13 454.66,-9.5 444.66,-6 444.66,-13"/>
</g>
</g>
</svg>
