<?xml version="1.0" encoding="UTF-8" standalone="no"?>
<!DOCTYPE svg PUBLIC "-//W3C//DTD SVG 1.1//EN"
 "http://www.w3.org/Graphics/SVG/1.1/DTD/svg11.dtd">
<!-- Generated by graphviz version 2.43.0 (0)
 -->
<!-- Title: show_prompt Pages: 1 -->
<svg width="1580pt" height="768pt"
 viewBox="0.00 0.00 1580.00 768.43" xmlns="http://www.w3.org/2000/svg" xmlns:xlink="http://www.w3.org/1999/xlink">
<g id="graph0" class="graph" transform="scale(1 1) rotate(0) translate(4 764.43)">
<title>show_prompt</title>
<!-- Node1 -->
<g id="node1" class="node">
<title>Node1</title>
<g id="a_node1"><a xlink:title=" ">
<polygon fill="#999999" stroke="#666666" points="83,-66.5 0,-66.5 0,-47.5 83,-47.5 83,-66.5"/>
<text text-anchor="middle" x="41.5" y="-54.5" font-family="Helvetica,sans-Serif" font-size="10.00">show_prompt</text>
</a>
</g>
</g>
<!-- Node2 -->
<g id="node2" class="node">
<title>Node2</title>
<g id="a_node2"><a xlink:href="read__input_8c.html#a06d0ee3bb45a86c56f9a8fcf208b182f" target="_top" xlink:title=" ">
<polygon fill="white" stroke="#666666" points="243,-179.5 146,-179.5 146,-160.5 243,-160.5 243,-179.5"/>
<text text-anchor="middle" x="194.5" y="-167.5" font-family="Helvetica,sans-Serif" font-size="10.00">execute_precmd</text>
</a>
</g>
</g>
<!-- Node1&#45;&gt;Node2 -->
<g id="edge1" class="edge">
<title>Node1&#45;&gt;Node2</title>
<path fill="none" stroke="#63b8ff" d="M55.37,-66.63C81.45,-86.15 140.72,-130.5 172.48,-154.27"/>
<polygon fill="#63b8ff" stroke="#63b8ff" points="170.55,-157.2 180.66,-160.39 174.75,-151.6 170.55,-157.2"/>
</g>
<!-- Node21 -->
<g id="node15" class="node">
<title>Node21</title>
<g id="a_node15"><a xlink:href="get__variable__value_8c.html#a2edd9900f19af236aa05385a789be3d6" target="_top" xlink:title=" ">
<polygon fill="white" stroke="#666666" points="1028.5,-85.5 918.5,-85.5 918.5,-66.5 1028.5,-66.5 1028.5,-85.5"/>
<text text-anchor="middle" x="973.5" y="-73.5" font-family="Helvetica,sans-Serif" font-size="10.00">get_variable_value</text>
</a>
</g>
</g>
<!-- Node1&#45;&gt;Node21 -->
<g id="edge69" class="edge">
<title>Node1&#45;&gt;Node21</title>
<path fill="none" stroke="#63b8ff" d="M74.31,-47.46C131.32,-31.23 254.89,0 361.5,0 361.5,0 361.5,0 663,0 766.87,0 884.83,-40.87 940.37,-62.67"/>
<polygon fill="#63b8ff" stroke="#63b8ff" points="939.09,-65.93 949.68,-66.37 941.68,-59.42 939.09,-65.93"/>
</g>
<!-- Node142 -->
<g id="node49" class="node">
<title>Node142</title>
<g id="a_node49"><a xlink:href="read__input_8c.html#a6a144d0d5270ba0d210fcb5f39d7fc63" target="_top" xlink:title=" ">
<polygon fill="white" stroke="#666666" points="419,-47.5 306,-47.5 306,-28.5 419,-28.5 419,-47.5"/>
<text text-anchor="middle" x="362.5" y="-35.5" font-family="Helvetica,sans-Serif" font-size="10.00">print_prompt_prefix</text>
</a>
</g>
</g>
<!-- Node1&#45;&gt;Node142 -->
<g id="edge70" class="edge">
<title>Node1&#45;&gt;Node142</title>
<path fill="none" stroke="#63b8ff" d="M83.23,-54.57C136.77,-51.39 231.5,-45.74 295.38,-41.94"/>
<polygon fill="#63b8ff" stroke="#63b8ff" points="295.98,-45.41 305.75,-41.32 295.56,-38.42 295.98,-45.41"/>
</g>
<!-- Node143 -->
<g id="node50" class="node">
<title>Node143</title>
<g id="a_node50"><a xlink:href="read__input_8c.html#a95fff78135b5c85ed0ff754f303e28f7" target="_top" xlink:title=" ">
<polygon fill="white" stroke="#666666" points="270,-85.5 119,-85.5 119,-66.5 270,-66.5 270,-85.5"/>
<text text-anchor="middle" x="194.5" y="-73.5" font-family="Helvetica,sans-Serif" font-size="10.00">show_prompt_with_curr_dir</text>
</a>
</g>
</g>
<!-- Node1&#45;&gt;Node143 -->
<g id="edge71" class="edge">
<title>Node1&#45;&gt;Node143</title>
<path fill="none" stroke="#63b8ff" d="M83.36,-62.14C91.36,-63.15 100.02,-64.24 108.84,-65.35"/>
<polygon fill="#63b8ff" stroke="#63b8ff" points="108.5,-68.83 118.86,-66.61 109.37,-61.89 108.5,-68.83"/>
</g>
<!-- Node3 -->
<g id="node3" class="node">
<title>Node3</title>
<g id="a_node3"><a xlink:href="shell_8c.html#afb5215a1775326d8976fd015f7832392" target="_top" xlink:title=" ">
<polygon fill="white" stroke="#666666" points="402.5,-349.5 322.5,-349.5 322.5,-330.5 402.5,-330.5 402.5,-349.5"/>
<text text-anchor="middle" x="362.5" y="-337.5" font-family="Helvetica,sans-Serif" font-size="10.00">handle_input</text>
</a>
</g>
</g>
<!-- Node2&#45;&gt;Node3 -->
<g id="edge2" class="edge">
<title>Node2&#45;&gt;Node3</title>
<path fill="none" stroke="#63b8ff" d="M204.9,-179.63C231.95,-207.33 310.24,-287.51 344.79,-322.88"/>
<polygon fill="#63b8ff" stroke="#63b8ff" points="342.71,-325.77 352.2,-330.48 347.72,-320.88 342.71,-325.77"/>
</g>
<!-- Node4 -->
<g id="node4" class="node">
<title>Node4</title>
<g id="a_node4"><a xlink:href="ast__destroy_8c.html#a04c67d7ab492f6e1e7bc44dc70faa057" target="_top" xlink:title=" ">
<polygon fill="white" stroke="#666666" points="1156,-161.5 1082,-161.5 1082,-142.5 1156,-142.5 1156,-161.5"/>
<text text-anchor="middle" x="1119" y="-149.5" font-family="Helvetica,sans-Serif" font-size="10.00">ast_destroy</text>
</a>
</g>
</g>
<!-- Node3&#45;&gt;Node4 -->
<g id="edge3" class="edge">
<title>Node3&#45;&gt;Node4</title>
<path fill="none" stroke="#63b8ff" d="M365.44,-330.47C372.05,-300.52 396.64,-207.52 455,-162 529.12,-104.18 566.99,-114 661,-114 661,-114 661,-114 817,-114 907.68,-114 1012.53,-131.19 1071.47,-142.44"/>
<polygon fill="#63b8ff" stroke="#63b8ff" points="1071.1,-145.94 1081.58,-144.4 1072.43,-139.06 1071.1,-145.94"/>
</g>
<!-- Node6 -->
<g id="node6" class="node">
<title>Node6</title>
<g id="a_node6"><a xlink:href="shell_8c.html#a74405478dadd73c0a4d1e5f3e8d2e3ef" target="_top" xlink:title=" ">
<polygon fill="white" stroke="#666666" points="568,-685 455,-685 455,-655 568,-655 568,-685"/>
<text text-anchor="start" x="463" y="-673" font-family="Helvetica,sans-Serif" font-size="10.00">destroy_parser_and</text>
<text text-anchor="middle" x="511.5" y="-662" font-family="Helvetica,sans-Serif" font-size="10.00">_lexer</text>
</a>
</g>
</g>
<!-- Node3&#45;&gt;Node6 -->
<g id="edge6" class="edge">
<title>Node3&#45;&gt;Node6</title>
<path fill="none" stroke="#63b8ff" d="M365.73,-349.93C373.97,-385.49 404.82,-509.09 455,-600 464.43,-617.09 478.01,-634.3 489.37,-647.38"/>
<polygon fill="#63b8ff" stroke="#63b8ff" points="486.84,-649.8 496.1,-654.95 492.07,-645.15 486.84,-649.8"/>
</g>
<!-- Node10 -->
<g id="node10" class="node">
<title>Node10</title>
<g id="a_node10"><a xlink:href="execute__ast_8c.html#ad26a20a665ab7fdeb714ed53c1afd104" target="_top" xlink:title=" ">
<polygon fill="white" stroke="#666666" points="549,-461.5 474,-461.5 474,-442.5 549,-442.5 549,-461.5"/>
<text text-anchor="middle" x="511.5" y="-449.5" font-family="Helvetica,sans-Serif" font-size="10.00">execute_ast</text>
</a>
</g>
</g>
<!-- Node3&#45;&gt;Node10 -->
<g id="edge10" class="edge">
<title>Node3&#45;&gt;Node10</title>
<path fill="none" stroke="#63b8ff" d="M376.03,-349.55C401.42,-368.89 459.12,-412.85 490.04,-436.41"/>
<polygon fill="#63b8ff" stroke="#63b8ff" points="487.92,-439.2 498,-442.48 492.17,-433.63 487.92,-439.2"/>
</g>
<!-- Node44 -->
<g id="node35" class="node">
<title>Node44</title>
<g id="a_node35"><a xlink:href="shell_8c.html#a6e35892cfa82c5f227b10f37abc529e9" target="_top" xlink:title=" ">
<polygon fill="white" stroke="#666666" points="557,-237.5 466,-237.5 466,-218.5 557,-218.5 557,-237.5"/>
<text text-anchor="middle" x="511.5" y="-225.5" font-family="Helvetica,sans-Serif" font-size="10.00">handle_parsing</text>
</a>
</g>
</g>
<!-- Node3&#45;&gt;Node44 -->
<g id="edge47" class="edge">
<title>Node3&#45;&gt;Node44</title>
<path fill="none" stroke="#63b8ff" d="M376.03,-330.45C401.42,-311.11 459.12,-267.15 490.04,-243.59"/>
<polygon fill="#63b8ff" stroke="#63b8ff" points="492.17,-246.37 498,-237.52 487.92,-240.8 492.17,-246.37"/>
</g>
<!-- Node139 -->
<g id="node46" class="node">
<title>Node139</title>
<g id="a_node46"><a xlink:href="shell_8c.html#a1ce512725ee0371f8bf608a3ece0c152" target="_top" xlink:title=" ">
<polygon fill="white" stroke="#666666" points="876,-181.5 756,-181.5 756,-162.5 876,-162.5 876,-181.5"/>
<text text-anchor="middle" x="816" y="-169.5" font-family="Helvetica,sans-Serif" font-size="10.00">show_error_message</text>
</a>
</g>
</g>
<!-- Node3&#45;&gt;Node139 -->
<g id="edge68" class="edge">
<title>Node3&#45;&gt;Node139</title>
<path fill="none" stroke="#63b8ff" d="M367.37,-330.31C377.65,-305.84 408.14,-241.22 455,-209 542.95,-148.54 672.7,-152.03 750.04,-161.22"/>
<polygon fill="#63b8ff" stroke="#63b8ff" points="749.77,-164.71 760.13,-162.48 750.65,-157.76 749.77,-164.71"/>
</g>
<!-- Node140 -->
<g id="node47" class="node">
<title>Node140</title>
<g id="a_node47"><a xlink:href="lexer__init_8c.html#aee55447f2c8b083ed2614fa4f439f9cc" target="_top" xlink:title=" ">
<polygon fill="white" stroke="#666666" points="542.5,-722.5 480.5,-722.5 480.5,-703.5 542.5,-703.5 542.5,-722.5"/>
<text text-anchor="middle" x="511.5" y="-710.5" font-family="Helvetica,sans-Serif" font-size="10.00">lexer_init</text>
</a>
</g>
</g>
<!-- Node3&#45;&gt;Node140 -->
<g id="edge65" class="edge">
<title>Node3&#45;&gt;Node140</title>
<path fill="none" stroke="#63b8ff" d="M364.73,-349.54C371.52,-400.54 405.73,-640.78 455,-694 459.36,-698.71 464.93,-702.25 470.86,-704.91"/>
<polygon fill="#63b8ff" stroke="#63b8ff" points="469.75,-708.23 480.34,-708.42 472.18,-701.67 469.75,-708.23"/>
</g>
<!-- Node141 -->
<g id="node48" class="node">
<title>Node141</title>
<g id="a_node48"><a xlink:href="parser__init_8c.html#a7a5dc445fa057a393d0b94590acea2f1" target="_top" xlink:title=" ">
<polygon fill="white" stroke="#666666" points="545.5,-590.5 477.5,-590.5 477.5,-571.5 545.5,-571.5 545.5,-590.5"/>
<text text-anchor="middle" x="511.5" y="-578.5" font-family="Helvetica,sans-Serif" font-size="10.00">parser_init</text>
</a>
</g>
</g>
<!-- Node3&#45;&gt;Node141 -->
<g id="edge66" class="edge">
<title>Node3&#45;&gt;Node141</title>
<path fill="none" stroke="#63b8ff" d="M369.44,-349.75C391.66,-386.16 470,-514.6 499.32,-562.66"/>
<polygon fill="#63b8ff" stroke="#63b8ff" points="496.45,-564.68 504.64,-571.4 502.42,-561.04 496.45,-564.68"/>
</g>
<!-- Node4&#45;&gt;Node4 -->
<g id="edge4" class="edge">
<title>Node4&#45;&gt;Node4</title>
<path fill="none" stroke="#63b8ff" d="M1097.11,-161.58C1086.47,-170.23 1093.76,-179.5 1119,-179.5 1135.17,-179.5 1143.97,-175.7 1145.41,-170.69"/>
<polygon fill="#63b8ff" stroke="#63b8ff" points="1148.47,-168.98 1140.89,-161.58 1142.2,-172.1 1148.47,-168.98"/>
</g>
<!-- Node5 -->
<g id="node5" class="node">
<title>Node5</title>
<g id="a_node5"><a xlink:href="misc_8h.html#a1180cae2875b1fdcd58c9f9175a82c12" target="_top" xlink:title=" ">
<polygon fill="white" stroke="#666666" points="1320,-161.5 1203,-161.5 1203,-142.5 1320,-142.5 1320,-161.5"/>
<text text-anchor="middle" x="1261.5" y="-149.5" font-family="Helvetica,sans-Serif" font-size="10.00">my_free_word_array</text>
</a>
</g>
</g>
<!-- Node4&#45;&gt;Node5 -->
<g id="edge5" class="edge">
<title>Node4&#45;&gt;Node5</title>
<path fill="none" stroke="#63b8ff" d="M1156.18,-152C1167.41,-152 1180.17,-152 1192.82,-152"/>
<polygon fill="#63b8ff" stroke="#63b8ff" points="1192.91,-155.5 1202.91,-152 1192.91,-148.5 1192.91,-155.5"/>
</g>
<!-- Node7 -->
<g id="node7" class="node">
<title>Node7</title>
<g id="a_node7"><a xlink:href="lexer__init_8c.html#a592247dc9c102c884630b41389a1b38b" target="_top" xlink:title=" ">
<polygon fill="white" stroke="#666666" points="703.5,-725.5 620.5,-725.5 620.5,-706.5 703.5,-706.5 703.5,-725.5"/>
<text text-anchor="middle" x="662" y="-713.5" font-family="Helvetica,sans-Serif" font-size="10.00">lexer_destroy</text>
</a>
</g>
</g>
<!-- Node6&#45;&gt;Node7 -->
<g id="edge7" class="edge">
<title>Node6&#45;&gt;Node7</title>
<path fill="none" stroke="#63b8ff" d="M561.12,-685.06C580.25,-690.99 601.97,-697.71 620.25,-703.38"/>
<polygon fill="#63b8ff" stroke="#63b8ff" points="619.43,-706.79 630.02,-706.4 621.5,-700.1 619.43,-706.79"/>
</g>
<!-- Node8 -->
<g id="node8" class="node">
<title>Node8</title>
<g id="a_node8"><a xlink:href="parser__destroy_8c.html#ae2656460a6fc6b6cd65624312fe0c943" target="_top" xlink:title=" ">
<polygon fill="white" stroke="#666666" points="1306,-743.5 1217,-743.5 1217,-724.5 1306,-724.5 1306,-743.5"/>
<text text-anchor="middle" x="1261.5" y="-731.5" font-family="Helvetica,sans-Serif" font-size="10.00">parser_destroy</text>
</a>
</g>
</g>
<!-- Node6&#45;&gt;Node8 -->
<g id="edge8" class="edge">
<title>Node6&#45;&gt;Node8</title>
<path fill="none" stroke="#63b8ff" d="M551.57,-685.1C557.3,-688.01 562.96,-691.32 568,-695 587.32,-709.1 582.61,-724.3 604,-735 688.21,-777.13 720.84,-754 815,-754 815,-754 815,-754 974.5,-754 1055.56,-754 1149.24,-745.91 1206.67,-740.02"/>
<polygon fill="#63b8ff" stroke="#63b8ff" points="1207.37,-743.46 1216.96,-738.94 1206.65,-736.5 1207.37,-743.46"/>
</g>
<!-- Node9 -->
<g id="node9" class="node">
<title>Node9</title>
<g id="a_node9"><a xlink:href="destroy__token_8c.html#ad1a471ee7b1ccb035d769be1152a370c" target="_top" xlink:title=" ">
<polygon fill="white" stroke="#666666" points="1449,-724.5 1363,-724.5 1363,-705.5 1449,-705.5 1449,-724.5"/>
<text text-anchor="middle" x="1406" y="-712.5" font-family="Helvetica,sans-Serif" font-size="10.00">token_destroy</text>
</a>
</g>
</g>
<!-- Node8&#45;&gt;Node9 -->
<g id="edge9" class="edge">
<title>Node8&#45;&gt;Node9</title>
<path fill="none" stroke="#63b8ff" d="M1306.03,-728.2C1320.66,-726.25 1337.14,-724.05 1352.39,-722.01"/>
<polygon fill="#63b8ff" stroke="#63b8ff" points="1353.27,-725.43 1362.72,-720.64 1352.34,-718.49 1353.27,-725.43"/>
</g>
<!-- Node11 -->
<g id="node11" class="node">
<title>Node11</title>
<g id="a_node11"><a xlink:href="execute__cmd_8c.html#a94ea9cc5a046ce96e36764bf0e4fa2c0" target="_top" xlink:title=" ">
<polygon fill="white" stroke="#666666" points="702.5,-348.5 621.5,-348.5 621.5,-329.5 702.5,-329.5 702.5,-348.5"/>
<text text-anchor="middle" x="662" y="-336.5" font-family="Helvetica,sans-Serif" font-size="10.00">execute_cmd</text>
</a>
</g>
</g>
<!-- Node10&#45;&gt;Node11 -->
<g id="edge11" class="edge">
<title>Node10&#45;&gt;Node11</title>
<path fill="none" stroke="#63b8ff" d="M519.15,-442.4C532.82,-423.33 566.05,-380.53 604,-357 606.65,-355.36 609.46,-353.85 612.36,-352.48"/>
<polygon fill="#63b8ff" stroke="#63b8ff" points="613.96,-355.6 621.83,-348.5 611.26,-349.14 613.96,-355.6"/>
</g>
<!-- Node26 -->
<g id="node19" class="node">
<title>Node26</title>
<g id="a_node19"><a xlink:href="execute__logical__and_8c.html#a4f940752faf9f9a258c49810b21efe47" target="_top" xlink:title=" ">
<polygon fill="white" stroke="#666666" points="720,-311.5 604,-311.5 604,-292.5 720,-292.5 720,-311.5"/>
<text text-anchor="middle" x="662" y="-299.5" font-family="Helvetica,sans-Serif" font-size="10.00">execute_logical_and</text>
</a>
</g>
</g>
<!-- Node10&#45;&gt;Node26 -->
<g id="edge20" class="edge">
<title>Node10&#45;&gt;Node26</title>
<path fill="none" stroke="#63b8ff" d="M514.95,-442.36C523.21,-417.63 551.99,-354.46 596.13,-317.23"/>
<polygon fill="#63b8ff" stroke="#63b8ff" points="598.57,-319.76 604.25,-310.82 594.23,-314.27 598.57,-319.76"/>
</g>
<!-- Node27 -->
<g id="node20" class="node">
<title>Node27</title>
<g id="a_node20"><a xlink:href="execute__logical__or_8c.html#a7e732d7c30b07010fa55850051007dcc" target="_top" xlink:title=" ">
<polygon fill="white" stroke="#666666" points="715.5,-274.5 608.5,-274.5 608.5,-255.5 715.5,-255.5 715.5,-274.5"/>
<text text-anchor="middle" x="662" y="-262.5" font-family="Helvetica,sans-Serif" font-size="10.00">execute_logical_or</text>
</a>
</g>
</g>
<!-- Node10&#45;&gt;Node27 -->
<g id="edge22" class="edge">
<title>Node10&#45;&gt;Node27</title>
<path fill="none" stroke="#63b8ff" d="M514.06,-442.4C520.23,-413.26 545.13,-328.46 600.62,-277.49"/>
<polygon fill="#63b8ff" stroke="#63b8ff" points="603.02,-280.04 608.28,-270.84 598.43,-274.75 603.02,-280.04"/>
</g>
<!-- Node28 -->
<g id="node21" class="node">
<title>Node28</title>
<g id="a_node21"><a xlink:href="execute__pipe_8c.html#a5f3546dc2c7cf06c982afba41e722164" target="_top" xlink:title=" ">
<polygon fill="white" stroke="#666666" points="702.5,-611.5 621.5,-611.5 621.5,-592.5 702.5,-592.5 702.5,-611.5"/>
<text text-anchor="middle" x="662" y="-599.5" font-family="Helvetica,sans-Serif" font-size="10.00">execute_pipe</text>
</a>
</g>
</g>
<!-- Node10&#45;&gt;Node28 -->
<g id="edge24" class="edge">
<title>Node10&#45;&gt;Node28</title>
<path fill="none" stroke="#63b8ff" d="M517.11,-461.58C528.66,-484.65 561,-543.89 604,-578 608.97,-581.94 614.68,-585.34 620.52,-588.24"/>
<polygon fill="#63b8ff" stroke="#63b8ff" points="619.18,-591.47 629.73,-592.39 622.05,-585.09 619.18,-591.47"/>
</g>
<!-- Node33 -->
<g id="node28" class="node">
<title>Node33</title>
<g id="a_node28"><a xlink:href="execute__redirect_8c.html#a1004307aba80117ddd99f009e52fb155" target="_top" xlink:title=" ">
<polygon fill="white" stroke="#666666" points="711,-385.5 613,-385.5 613,-366.5 711,-366.5 711,-385.5"/>
<text text-anchor="middle" x="662" y="-373.5" font-family="Helvetica,sans-Serif" font-size="10.00">execute_redirect</text>
</a>
</g>
</g>
<!-- Node10&#45;&gt;Node33 -->
<g id="edge35" class="edge">
<title>Node10&#45;&gt;Node33</title>
<path fill="none" stroke="#63b8ff" d="M528.06,-442.4C546.03,-431.5 576.63,-413.48 604,-400 611.38,-396.36 619.45,-392.75 627.14,-389.48"/>
<polygon fill="#63b8ff" stroke="#63b8ff" points="628.71,-392.62 636.59,-385.54 626.01,-386.16 628.71,-392.62"/>
</g>
<!-- Node41 -->
<g id="node32" class="node">
<title>Node41</title>
<g id="a_node32"><a xlink:href="execute__repeat_8c.html#a00d48683c54b50130b4a402e6e97fa97" target="_top" xlink:title=" ">
<polygon fill="white" stroke="#666666" points="708,-535.5 616,-535.5 616,-516.5 708,-516.5 708,-535.5"/>
<text text-anchor="middle" x="662" y="-523.5" font-family="Helvetica,sans-Serif" font-size="10.00">execute_repeat</text>
</a>
</g>
</g>
<!-- Node10&#45;&gt;Node41 -->
<g id="edge40" class="edge">
<title>Node10&#45;&gt;Node41</title>
<path fill="none" stroke="#63b8ff" d="M536.84,-461.66C554.77,-472.23 580.1,-488.11 604,-499 615.45,-504.22 628.84,-508.53 639.76,-512.58"/>
<polygon fill="#63b8ff" stroke="#63b8ff" points="638.75,-515.95 649.34,-516.41 641.35,-509.45 638.75,-515.95"/>
</g>
<!-- Node42 -->
<g id="node33" class="node">
<title>Node42</title>
<g id="a_node33"><a xlink:href="execute__sequence_8c.html#aad2caa5bf50b0752dd8272da477ec231" target="_top" xlink:title=" ">
<polygon fill="white" stroke="#666666" points="715.5,-498.5 608.5,-498.5 608.5,-479.5 715.5,-479.5 715.5,-498.5"/>
<text text-anchor="middle" x="662" y="-486.5" font-family="Helvetica,sans-Serif" font-size="10.00">execute_sequence</text>
</a>
</g>
</g>
<!-- Node10&#45;&gt;Node42 -->
<g id="edge42" class="edge">
<title>Node10&#45;&gt;Node42</title>
<path fill="none" stroke="#63b8ff" d="M549.21,-455.23C574.65,-460.33 608.06,-468.8 631.71,-476.2"/>
<polygon fill="#63b8ff" stroke="#63b8ff" points="630.92,-479.63 641.51,-479.41 633.1,-472.97 630.92,-479.63"/>
</g>
<!-- Node43 -->
<g id="node34" class="node">
<title>Node43</title>
<g id="a_node34"><a xlink:href="execute__subshell_8c.html#a40a27866de012b013a337f794a858d70" target="_top" xlink:title=" ">
<polygon fill="white" stroke="#666666" points="712.5,-461.5 611.5,-461.5 611.5,-442.5 712.5,-442.5 712.5,-461.5"/>
<text text-anchor="middle" x="662" y="-449.5" font-family="Helvetica,sans-Serif" font-size="10.00">execute_subshell</text>
</a>
</g>
</g>
<!-- Node10&#45;&gt;Node43 -->
<g id="edge44" class="edge">
<title>Node10&#45;&gt;Node43</title>
<path fill="none" stroke="#63b8ff" d="M549.21,-446.08C564.86,-445.32 583.53,-445.08 601.09,-445.36"/>
<polygon fill="#63b8ff" stroke="#63b8ff" points="601.2,-448.87 611.27,-445.59 601.35,-441.87 601.2,-448.87"/>
</g>
<!-- Node12 -->
<g id="node12" class="node">
<title>Node12</title>
<g id="a_node12"><a xlink:href="execute__cmd_8c.html#a0cfd2364134e68efdd39533e00b4b0d9" target="_top" xlink:title=" ">
<polygon fill="white" stroke="#666666" points="875.5,-387.5 756.5,-387.5 756.5,-368.5 875.5,-368.5 875.5,-387.5"/>
<text text-anchor="middle" x="816" y="-375.5" font-family="Helvetica,sans-Serif" font-size="10.00">execute_local_binary</text>
</a>
</g>
</g>
<!-- Node11&#45;&gt;Node12 -->
<g id="edge12" class="edge">
<title>Node11&#45;&gt;Node12</title>
<path fill="none" stroke="#63b8ff" d="M700.18,-348.54C720.69,-353.8 746.34,-360.38 768.2,-365.99"/>
<polygon fill="#63b8ff" stroke="#63b8ff" points="767.38,-369.4 777.94,-368.49 769.12,-362.61 767.38,-369.4"/>
</g>
<!-- Node20 -->
<g id="node14" class="node">
<title>Node20</title>
<g id="a_node14"><a xlink:href="execute__cmd_8c.html#a460126af28ab29df4340554fae9fc57a" target="_top" xlink:title=" ">
<polygon fill="white" stroke="#666666" points="875,-312.5 757,-312.5 757,-293.5 875,-293.5 875,-312.5"/>
<text text-anchor="middle" x="816" y="-300.5" font-family="Helvetica,sans-Serif" font-size="10.00">execute_path_binary</text>
</a>
</g>
</g>
<!-- Node11&#45;&gt;Node20 -->
<g id="edge14" class="edge">
<title>Node11&#45;&gt;Node20</title>
<path fill="none" stroke="#63b8ff" d="M702.54,-329.64C721.58,-325.13 744.62,-319.67 764.87,-314.87"/>
<polygon fill="#63b8ff" stroke="#63b8ff" points="765.94,-318.22 774.87,-312.51 764.33,-311.4 765.94,-318.22"/>
</g>
<!-- Node25 -->
<g id="node18" class="node">
<title>Node25</title>
<g id="a_node18"><a xlink:href="strings_8h.html#a36f055c4e56c8a784629908d0c5b91e5" target="_top" xlink:title=" ">
<polygon fill="white" stroke="#666666" points="868,-349.5 764,-349.5 764,-330.5 868,-330.5 868,-349.5"/>
<text text-anchor="middle" x="816" y="-337.5" font-family="Helvetica,sans-Serif" font-size="10.00">my_is_char_in_str</text>
</a>
</g>
</g>
<!-- Node11&#45;&gt;Node25 -->
<g id="edge19" class="edge">
<title>Node11&#45;&gt;Node25</title>
<path fill="none" stroke="#63b8ff" d="M702.54,-339.26C718.2,-339.36 736.57,-339.48 753.87,-339.6"/>
<polygon fill="#63b8ff" stroke="#63b8ff" points="753.88,-343.1 763.9,-339.66 753.93,-336.1 753.88,-343.1"/>
</g>
<!-- Node13 -->
<g id="node13" class="node">
<title>Node13</title>
<g id="a_node13"><a xlink:href="execute__cmd_8c.html#a018afe6a043051ebc2e3dd9412587990" target="_top" xlink:title=" ">
<polygon fill="#fff0f0" stroke="red" points="1164.5,-369.5 1073.5,-369.5 1073.5,-350.5 1164.5,-350.5 1164.5,-369.5"/>
<text text-anchor="middle" x="1119" y="-357.5" font-family="Helvetica,sans-Serif" font-size="10.00">execute_binary</text>
</a>
</g>
</g>
<!-- Node12&#45;&gt;Node13 -->
<g id="edge13" class="edge">
<title>Node12&#45;&gt;Node13</title>
<path fill="none" stroke="#63b8ff" d="M875.75,-374.49C929.96,-371.24 1009.86,-366.47 1062.89,-363.3"/>
<polygon fill="#63b8ff" stroke="#63b8ff" points="1063.34,-366.77 1073.12,-362.68 1062.93,-359.79 1063.34,-366.77"/>
</g>
<!-- Node20&#45;&gt;Node21 -->
<g id="edge15" class="edge">
<title>Node20&#45;&gt;Node21</title>
<path fill="none" stroke="#63b8ff" d="M828.84,-293.36C841.5,-282.66 861.69,-264.46 876,-246 915.03,-195.66 948.7,-127.76 963.89,-95.1"/>
<polygon fill="#63b8ff" stroke="#63b8ff" points="967.17,-96.35 968.16,-85.8 960.8,-93.43 967.17,-96.35"/>
</g>
<!-- Node23 -->
<g id="node17" class="node">
<title>Node23</title>
<g id="a_node17"><a xlink:href="execute__cmd_8c.html#aee9e13edede9df28fac066f30e7ae7ed" target="_top" xlink:title=" ">
<polygon fill="#fff0f0" stroke="red" points="1015.5,-350.5 931.5,-350.5 931.5,-331.5 1015.5,-331.5 1015.5,-350.5"/>
<text text-anchor="middle" x="973.5" y="-338.5" font-family="Helvetica,sans-Serif" font-size="10.00">try_command</text>
</a>
</g>
</g>
<!-- Node20&#45;&gt;Node23 -->
<g id="edge17" class="edge">
<title>Node20&#45;&gt;Node23</title>
<path fill="none" stroke="#63b8ff" d="M856.24,-312.59C876.76,-317.6 902.07,-323.79 923.83,-329.11"/>
<polygon fill="#63b8ff" stroke="#63b8ff" points="923,-332.51 933.54,-331.48 924.66,-325.71 923,-332.51"/>
</g>
<!-- Node22 -->
<g id="node16" class="node">
<title>Node22</title>
<g id="a_node16"><a xlink:href="get__variable_8c.html#a569170390f0edf013bf89c26ef55ea8c" target="_top" xlink:title=" ">
<polygon fill="white" stroke="#666666" points="1157.5,-85.5 1080.5,-85.5 1080.5,-66.5 1157.5,-66.5 1157.5,-85.5"/>
<text text-anchor="middle" x="1119" y="-73.5" font-family="Helvetica,sans-Serif" font-size="10.00">get_variable</text>
</a>
</g>
</g>
<!-- Node21&#45;&gt;Node22 -->
<g id="edge16" class="edge">
<title>Node21&#45;&gt;Node22</title>
<path fill="none" stroke="#63b8ff" d="M1028.75,-76C1042.28,-76 1056.69,-76 1069.9,-76"/>
<polygon fill="#63b8ff" stroke="#63b8ff" points="1070.19,-79.5 1080.19,-76 1070.19,-72.5 1070.19,-79.5"/>
</g>
<!-- Node23&#45;&gt;Node13 -->
<g id="edge18" class="edge">
<title>Node23&#45;&gt;Node13</title>
<path fill="none" stroke="#63b8ff" d="M1015.62,-346.44C1030.43,-348.41 1047.39,-350.65 1063.18,-352.74"/>
<polygon fill="#63b8ff" stroke="#63b8ff" points="1062.98,-356.25 1073.36,-354.09 1063.9,-349.31 1062.98,-356.25"/>
</g>
<!-- Node26&#45;&gt;Node10 -->
<g id="edge21" class="edge">
<title>Node26&#45;&gt;Node10</title>
<path fill="none" stroke="#63b8ff" d="M644.72,-311.63C632.56,-315.55 616.03,-320.13 604,-329 565.82,-357.15 537.98,-406.17 523.59,-433.26"/>
<polygon fill="#63b8ff" stroke="#63b8ff" points="520.47,-431.69 518.91,-442.17 526.66,-434.94 520.47,-431.69"/>
</g>
<!-- Node27&#45;&gt;Node10 -->
<g id="edge23" class="edge">
<title>Node27&#45;&gt;Node10</title>
<path fill="none" stroke="#63b8ff" d="M643.4,-274.57C631.2,-278.23 615.2,-282.75 604,-292 557.57,-330.34 531.13,-398.61 519.57,-432.41"/>
<polygon fill="#63b8ff" stroke="#63b8ff" points="516.19,-431.49 516.33,-442.08 522.82,-433.71 516.19,-431.49"/>
</g>
<!-- Node29 -->
<g id="node22" class="node">
<title>Node29</title>
<g id="a_node22"><a xlink:href="execute__pipe_8c.html#a723ff799f939872d17f109a82342294e" target="_top" xlink:title=" ">
<polygon fill="white" stroke="#666666" points="1004.5,-611.5 942.5,-611.5 942.5,-592.5 1004.5,-592.5 1004.5,-611.5"/>
<text text-anchor="middle" x="973.5" y="-599.5" font-family="Helvetica,sans-Serif" font-size="10.00">close_fds</text>
</a>
</g>
</g>
<!-- Node28&#45;&gt;Node29 -->
<g id="edge25" class="edge">
<title>Node28&#45;&gt;Node29</title>
<path fill="none" stroke="#63b8ff" d="M702.51,-602C761.7,-602 872.77,-602 932.34,-602"/>
<polygon fill="#63b8ff" stroke="#63b8ff" points="932.49,-605.5 942.49,-602 932.49,-598.5 932.49,-605.5"/>
</g>
<!-- Node30 -->
<g id="node23" class="node">
<title>Node30</title>
<g id="a_node23"><a xlink:href="execute__pipe_8c.html#ac529ffc2370b0133613ef8a81e58ed85" target="_top" xlink:title=" ">
<polygon fill="white" stroke="#666666" points="867,-649.5 765,-649.5 765,-630.5 867,-630.5 867,-649.5"/>
<text text-anchor="middle" x="816" y="-637.5" font-family="Helvetica,sans-Serif" font-size="10.00">execute_pipe_left</text>
</a>
</g>
</g>
<!-- Node28&#45;&gt;Node30 -->
<g id="edge26" class="edge">
<title>Node28&#45;&gt;Node30</title>
<path fill="none" stroke="#63b8ff" d="M701.36,-611.59C721.32,-616.58 745.93,-622.73 767.13,-628.03"/>
<polygon fill="#63b8ff" stroke="#63b8ff" points="766.37,-631.45 776.92,-630.48 768.07,-624.66 766.37,-631.45"/>
</g>
<!-- Node31 -->
<g id="node24" class="node">
<title>Node31</title>
<g id="a_node24"><a xlink:href="execute__pipe_8c.html#a9ed6eabb8a9f7049f91265a5f45e30c8" target="_top" xlink:title=" ">
<polygon fill="white" stroke="#666666" points="870.5,-573.5 761.5,-573.5 761.5,-554.5 870.5,-554.5 870.5,-573.5"/>
<text text-anchor="middle" x="816" y="-561.5" font-family="Helvetica,sans-Serif" font-size="10.00">execute_pipe_right</text>
</a>
</g>
</g>
<!-- Node28&#45;&gt;Node31 -->
<g id="edge29" class="edge">
<title>Node28&#45;&gt;Node31</title>
<path fill="none" stroke="#63b8ff" d="M701.36,-592.41C721.32,-587.42 745.93,-581.27 767.13,-575.97"/>
<polygon fill="#63b8ff" stroke="#63b8ff" points="768.07,-579.34 776.92,-573.52 766.37,-572.55 768.07,-579.34"/>
</g>
<!-- Node18 -->
<g id="node26" class="node">
<title>Node18</title>
<g id="a_node26"><a xlink:href="wait__for__subprocess_8c.html#a1242d78540fd0ddef3d98a9f294cb0d4" target="_top" xlink:title=" ">
<polygon fill="white" stroke="#666666" points="874,-518.5 758,-518.5 758,-499.5 874,-499.5 874,-518.5"/>
<text text-anchor="middle" x="816" y="-506.5" font-family="Helvetica,sans-Serif" font-size="10.00">wait_for_subprocess</text>
</a>
</g>
</g>
<!-- Node28&#45;&gt;Node18 -->
<g id="edge33" class="edge">
<title>Node28&#45;&gt;Node18</title>
<path fill="none" stroke="#63b8ff" d="M678.69,-592.4C705.2,-576.18 759.04,-543.24 790.54,-523.97"/>
<polygon fill="#63b8ff" stroke="#63b8ff" points="792.46,-526.89 799.16,-518.69 788.81,-520.92 792.46,-526.89"/>
</g>
<!-- Node30&#45;&gt;Node10 -->
<g id="edge28" class="edge">
<title>Node30&#45;&gt;Node10</title>
<path fill="none" stroke="#63b8ff" d="M764.62,-648.1C718.92,-652.7 651.62,-652.35 604,-621 596.97,-616.37 544.16,-514.01 522.12,-470.88"/>
<polygon fill="#63b8ff" stroke="#63b8ff" points="525.11,-469.05 517.45,-461.74 518.88,-472.23 525.11,-469.05"/>
</g>
<!-- Node30&#45;&gt;Node29 -->
<g id="edge27" class="edge">
<title>Node30&#45;&gt;Node29</title>
<path fill="none" stroke="#63b8ff" d="M856.24,-630.41C879.44,-624.74 908.76,-617.58 932.15,-611.86"/>
<polygon fill="#63b8ff" stroke="#63b8ff" points="933.22,-615.2 942.1,-609.43 931.56,-608.4 933.22,-615.2"/>
</g>
<!-- Node31&#45;&gt;Node10 -->
<g id="edge31" class="edge">
<title>Node31&#45;&gt;Node10</title>
<path fill="none" stroke="#63b8ff" d="M761.2,-569.09C716.89,-571.02 653.54,-568.43 604,-545 568.7,-528.31 539.46,-491.93 524.11,-469.95"/>
<polygon fill="#63b8ff" stroke="#63b8ff" points="526.91,-467.83 518.41,-461.5 521.11,-471.75 526.91,-467.83"/>
</g>
<!-- Node31&#45;&gt;Node29 -->
<g id="edge30" class="edge">
<title>Node31&#45;&gt;Node29</title>
<path fill="none" stroke="#63b8ff" d="M856.24,-573.59C879.44,-579.26 908.76,-586.42 932.15,-592.14"/>
<polygon fill="#63b8ff" stroke="#63b8ff" points="931.56,-595.6 942.1,-594.57 933.22,-588.8 931.56,-595.6"/>
</g>
<!-- Node32 -->
<g id="node25" class="node">
<title>Node32</title>
<g id="a_node25"><a xlink:href="execute__pipe_8c.html#ac3d3a124b262676fa0679720f99a7f83" target="_top" xlink:title=" ">
<polygon fill="white" stroke="#666666" points="1013.5,-573.5 933.5,-573.5 933.5,-554.5 1013.5,-554.5 1013.5,-573.5"/>
<text text-anchor="middle" x="973.5" y="-561.5" font-family="Helvetica,sans-Serif" font-size="10.00">restore_stdin</text>
</a>
</g>
</g>
<!-- Node31&#45;&gt;Node32 -->
<g id="edge32" class="edge">
<title>Node31&#45;&gt;Node32</title>
<path fill="none" stroke="#63b8ff" d="M870.51,-564C887.54,-564 906.29,-564 923.01,-564"/>
<polygon fill="#63b8ff" stroke="#63b8ff" points="923.13,-567.5 933.13,-564 923.13,-560.5 923.13,-567.5"/>
</g>
<!-- Node19 -->
<g id="node27" class="node">
<title>Node19</title>
<g id="a_node27"><a xlink:href="wait__for__subprocess_8c.html#a885766ba6ba593b7cf27b917dd52b1a6" target="_top" xlink:title=" ">
<polygon fill="white" stroke="#666666" points="1035,-518.5 912,-518.5 912,-499.5 1035,-499.5 1035,-518.5"/>
<text text-anchor="middle" x="973.5" y="-506.5" font-family="Helvetica,sans-Serif" font-size="10.00">print_signal_message</text>
</a>
</g>
</g>
<!-- Node18&#45;&gt;Node19 -->
<g id="edge34" class="edge">
<title>Node18&#45;&gt;Node19</title>
<path fill="none" stroke="#63b8ff" d="M874.02,-509C883.06,-509 892.5,-509 901.81,-509"/>
<polygon fill="#63b8ff" stroke="#63b8ff" points="901.83,-512.5 911.83,-509 901.83,-505.5 901.83,-512.5"/>
</g>
<!-- Node34 -->
<g id="node29" class="node">
<title>Node34</title>
<g id="a_node29"><a xlink:href="execute__redirect_8c.html#a5aa0f008806cc0e8a7ba252d61b7001f" target="_top" xlink:title=" ">
<polygon fill="white" stroke="#666666" points="869.5,-424.5 762.5,-424.5 762.5,-405.5 869.5,-405.5 869.5,-424.5"/>
<text text-anchor="middle" x="816" y="-412.5" font-family="Helvetica,sans-Serif" font-size="10.00">redirect_execution</text>
</a>
</g>
</g>
<!-- Node33&#45;&gt;Node34 -->
<g id="edge36" class="edge">
<title>Node33&#45;&gt;Node34</title>
<path fill="none" stroke="#63b8ff" d="M700.18,-385.54C720.69,-390.8 746.34,-397.38 768.2,-402.99"/>
<polygon fill="#63b8ff" stroke="#63b8ff" points="767.38,-406.4 777.94,-405.49 769.12,-399.61 767.38,-406.4"/>
</g>
<!-- Node34&#45;&gt;Node10 -->
<g id="edge37" class="edge">
<title>Node34&#45;&gt;Node10</title>
<path fill="none" stroke="#63b8ff" d="M762.36,-418.21C719.57,-421.18 657.7,-426.32 604,-434 589.43,-436.08 573.66,-438.96 559.39,-441.8"/>
<polygon fill="#63b8ff" stroke="#63b8ff" points="558.4,-438.43 549.3,-443.85 559.8,-445.29 558.4,-438.43"/>
</g>
<!-- Node35 -->
<g id="node30" class="node">
<title>Node35</title>
<g id="a_node30"><a xlink:href="execute__redirect_8c.html#a1b8f325fc375581f81ae47a54e09cf0e" target="_top" xlink:title=" ">
<polygon fill="white" stroke="#666666" points="1006.5,-426.5 940.5,-426.5 940.5,-407.5 1006.5,-407.5 1006.5,-426.5"/>
<text text-anchor="middle" x="973.5" y="-414.5" font-family="Helvetica,sans-Serif" font-size="10.00">restore_fd</text>
</a>
</g>
</g>
<!-- Node34&#45;&gt;Node35 -->
<g id="edge38" class="edge">
<title>Node34&#45;&gt;Node35</title>
<path fill="none" stroke="#63b8ff" d="M869.65,-415.68C889.33,-415.93 911.42,-416.21 930.06,-416.45"/>
<polygon fill="#63b8ff" stroke="#63b8ff" points="930.27,-419.96 940.32,-416.59 930.36,-412.96 930.27,-419.96"/>
</g>
<!-- Node36 -->
<g id="node31" class="node">
<title>Node36</title>
<g id="a_node31"><a xlink:href="execute__redirect_8c.html#a6cb002bd51f2009eaacc66d388c5f9a7" target="_top" xlink:title=" ">
<polygon fill="#fff0f0" stroke="red" points="1024,-463.5 923,-463.5 923,-444.5 1024,-444.5 1024,-463.5"/>
<text text-anchor="middle" x="973.5" y="-451.5" font-family="Helvetica,sans-Serif" font-size="10.00">setup_redirection</text>
</a>
</g>
</g>
<!-- Node34&#45;&gt;Node36 -->
<g id="edge39" class="edge">
<title>Node34&#45;&gt;Node36</title>
<path fill="none" stroke="#63b8ff" d="M855.04,-424.54C876.01,-429.8 902.26,-436.38 924.62,-441.99"/>
<polygon fill="#63b8ff" stroke="#63b8ff" points="924.03,-445.45 934.58,-444.49 925.74,-438.66 924.03,-445.45"/>
</g>
<!-- Node41&#45;&gt;Node10 -->
<g id="edge41" class="edge">
<title>Node41&#45;&gt;Node10</title>
<path fill="none" stroke="#63b8ff" d="M615.81,-521.82C611.77,-520.34 607.78,-518.72 604,-517 575.16,-503.86 544.24,-483.45 526.74,-468.59"/>
<polygon fill="#63b8ff" stroke="#63b8ff" points="529.04,-465.96 519.29,-461.8 524.32,-471.13 529.04,-465.96"/>
</g>
<!-- Node42&#45;&gt;Node10 -->
<g id="edge43" class="edge">
<title>Node42&#45;&gt;Node10</title>
<path fill="none" stroke="#63b8ff" d="M608.34,-482.37C585.85,-477.32 560.47,-470.66 541.48,-464.7"/>
<polygon fill="#63b8ff" stroke="#63b8ff" points="542.51,-461.35 531.91,-461.57 540.33,-468.01 542.51,-461.35"/>
</g>
<!-- Node43&#45;&gt;Node10 -->
<g id="edge45" class="edge">
<title>Node43&#45;&gt;Node10</title>
<path fill="none" stroke="#63b8ff" d="M611.27,-458.41C594.47,-458.89 575.77,-458.86 559.21,-458.32"/>
<polygon fill="#63b8ff" stroke="#63b8ff" points="559.34,-454.82 549.21,-457.92 559.06,-461.82 559.34,-454.82"/>
</g>
<!-- Node43&#45;&gt;Node18 -->
<g id="edge46" class="edge">
<title>Node43&#45;&gt;Node18</title>
<path fill="none" stroke="#63b8ff" d="M692.7,-461.53C701.52,-464.46 711.18,-467.77 720,-471 741.07,-478.72 764.47,-488.07 782.78,-495.56"/>
<polygon fill="#63b8ff" stroke="#63b8ff" points="781.53,-498.84 792.11,-499.41 784.19,-492.36 781.53,-498.84"/>
</g>
<!-- Node45 -->
<g id="node36" class="node">
<title>Node45</title>
<g id="a_node36"><a xlink:href="empty__stdin_8c.html#a4c89df10296f2cc245e3a32065e04e7b" target="_top" xlink:title=" ">
<polygon fill="white" stroke="#666666" points="700.5,-200.5 623.5,-200.5 623.5,-181.5 700.5,-181.5 700.5,-200.5"/>
<text text-anchor="middle" x="662" y="-188.5" font-family="Helvetica,sans-Serif" font-size="10.00">empty_stdin</text>
</a>
</g>
</g>
<!-- Node44&#45;&gt;Node45 -->
<g id="edge48" class="edge">
<title>Node44&#45;&gt;Node45</title>
<path fill="none" stroke="#63b8ff" d="M550.74,-218.47C569.86,-213.71 593.17,-207.9 613.43,-202.85"/>
<polygon fill="#63b8ff" stroke="#63b8ff" points="614.54,-206.18 623.4,-200.37 612.85,-199.39 614.54,-206.18"/>
</g>
<!-- Node46 -->
<g id="node37" class="node">
<title>Node46</title>
<g id="a_node37"><a xlink:href="shell_8c.html#a2c9bd51744387dc73763281019d78622" target="_top" xlink:title=" ">
<polygon fill="white" stroke="#666666" points="694,-237.5 630,-237.5 630,-218.5 694,-218.5 694,-237.5"/>
<text text-anchor="middle" x="662" y="-225.5" font-family="Helvetica,sans-Serif" font-size="10.00">parse_ast</text>
</a>
</g>
</g>
<!-- Node44&#45;&gt;Node46 -->
<g id="edge49" class="edge">
<title>Node44&#45;&gt;Node46</title>
<path fill="none" stroke="#63b8ff" d="M557.05,-228C576.9,-228 600.13,-228 619.59,-228"/>
<polygon fill="#63b8ff" stroke="#63b8ff" points="619.67,-231.5 629.67,-228 619.67,-224.5 619.67,-231.5"/>
</g>
<!-- Node47 -->
<g id="node38" class="node">
<title>Node47</title>
<g id="a_node38"><a xlink:href="parser__parse_8c.html#ab56c1f0e36fe941facfe258418c2cc72" target="_top" xlink:title=" ">
<polygon fill="white" stroke="#666666" points="856,-237.5 776,-237.5 776,-218.5 856,-218.5 856,-237.5"/>
<text text-anchor="middle" x="816" y="-225.5" font-family="Helvetica,sans-Serif" font-size="10.00">parser_parse</text>
</a>
</g>
</g>
<!-- Node46&#45;&gt;Node47 -->
<g id="edge50" class="edge">
<title>Node46&#45;&gt;Node47</title>
<path fill="none" stroke="#63b8ff" d="M694.13,-228C714.71,-228 742.12,-228 765.64,-228"/>
<polygon fill="#63b8ff" stroke="#63b8ff" points="765.79,-231.5 775.79,-228 765.79,-224.5 765.79,-231.5"/>
</g>
<!-- Node46&#45;&gt;Node139 -->
<g id="edge64" class="edge">
<title>Node46&#45;&gt;Node139</title>
<path fill="none" stroke="#63b8ff" d="M692.68,-218.42C701.5,-215.48 711.17,-212.19 720,-209 740.74,-201.51 763.8,-192.54 782,-185.32"/>
<polygon fill="#63b8ff" stroke="#63b8ff" points="783.32,-188.56 791.31,-181.6 780.72,-182.06 783.32,-188.56"/>
</g>
<!-- Node47&#45;&gt;Node4 -->
<g id="edge51" class="edge">
<title>Node47&#45;&gt;Node4</title>
<path fill="none" stroke="#63b8ff" d="M847.68,-218.47C866.23,-212.83 890.39,-205.7 912,-200 966.62,-185.6 1029.97,-171.18 1071.85,-161.95"/>
<polygon fill="#63b8ff" stroke="#63b8ff" points="1072.73,-165.34 1081.75,-159.78 1071.23,-158.51 1072.73,-165.34"/>
</g>
<!-- Node48 -->
<g id="node39" class="node">
<title>Node48</title>
<g id="a_node39"><a xlink:href="parse__sequence_8c.html#a1b3273ce0047a9f5b34da07c8ba9eb3e" target="_top" xlink:title=" ">
<polygon fill="#fff0f0" stroke="red" points="1021,-237.5 926,-237.5 926,-218.5 1021,-218.5 1021,-237.5"/>
<text text-anchor="middle" x="973.5" y="-225.5" font-family="Helvetica,sans-Serif" font-size="10.00">parse_sequence</text>
</a>
</g>
</g>
<!-- Node47&#45;&gt;Node48 -->
<g id="edge52" class="edge">
<title>Node47&#45;&gt;Node48</title>
<path fill="none" stroke="#63b8ff" d="M856.24,-228C874.24,-228 895.94,-228 915.68,-228"/>
<polygon fill="#63b8ff" stroke="#63b8ff" points="915.8,-231.5 925.8,-228 915.8,-224.5 915.8,-231.5"/>
</g>
<!-- Node137 -->
<g id="node40" class="node">
<title>Node137</title>
<g id="a_node40"><a xlink:href="parser__utils_8c.html#aef41660a9d240250899e27f88cd21e2c" target="_top" xlink:title=" ">
<polygon fill="#fff0f0" stroke="red" points="1166,-293.5 1072,-293.5 1072,-274.5 1166,-274.5 1166,-293.5"/>
<text text-anchor="middle" x="1119" y="-281.5" font-family="Helvetica,sans-Serif" font-size="10.00">skip_separators</text>
</a>
</g>
</g>
<!-- Node47&#45;&gt;Node137 -->
<g id="edge63" class="edge">
<title>Node47&#45;&gt;Node137</title>
<path fill="none" stroke="#63b8ff" d="M828.68,-237.51C845.75,-250.74 879.08,-274.07 912,-283 961.27,-296.36 1019.63,-295.13 1061.64,-291.43"/>
<polygon fill="#63b8ff" stroke="#63b8ff" points="1062.06,-294.91 1071.68,-290.47 1061.39,-287.94 1062.06,-294.91"/>
</g>
<!-- Node55 -->
<g id="node44" class="node">
<title>Node55</title>
<g id="a_node44"><a xlink:href="parser__set__error_8c.html#adcfabdb026b94fdbe4b6cbf5cb16522a" target="_top" xlink:title=" ">
<polygon fill="white" stroke="#666666" points="1167,-246.5 1071,-246.5 1071,-227.5 1167,-227.5 1167,-246.5"/>
<text text-anchor="middle" x="1119" y="-234.5" font-family="Helvetica,sans-Serif" font-size="10.00">parser_set_error</text>
</a>
</g>
</g>
<!-- Node47&#45;&gt;Node55 -->
<g id="edge59" class="edge">
<title>Node47&#45;&gt;Node55</title>
<path fill="none" stroke="#63b8ff" d="M855.57,-218.49C872.73,-214.73 893.25,-210.86 912,-209 966.4,-203.61 981.06,-200.15 1035,-209 1052.48,-211.87 1071.24,-217.92 1086.49,-223.67"/>
<polygon fill="#63b8ff" stroke="#63b8ff" points="1085.37,-226.99 1095.96,-227.37 1087.92,-220.47 1085.37,-226.99"/>
</g>
<!-- Node138 -->
<g id="node45" class="node">
<title>Node138</title>
<g id="a_node45"><a xlink:href="parser__parse_8c.html#ade740e98de82dc19569de5885d2950d1" target="_top" xlink:title=" ">
<polygon fill="white" stroke="#666666" points="1018.5,-274.5 928.5,-274.5 928.5,-255.5 1018.5,-255.5 1018.5,-274.5"/>
<text text-anchor="middle" x="973.5" y="-262.5" font-family="Helvetica,sans-Serif" font-size="10.00">prepare_parser</text>
</a>
</g>
</g>
<!-- Node47&#45;&gt;Node138 -->
<g id="edge60" class="edge">
<title>Node47&#45;&gt;Node138</title>
<path fill="none" stroke="#63b8ff" d="M856.24,-237.34C876.36,-242.12 901.07,-248 922.54,-253.11"/>
<polygon fill="#63b8ff" stroke="#63b8ff" points="921.92,-256.56 932.46,-255.47 923.54,-249.75 921.92,-256.56"/>
</g>
<!-- Node48&#45;&gt;Node4 -->
<g id="edge53" class="edge">
<title>Node48&#45;&gt;Node4</title>
<path fill="none" stroke="#63b8ff" d="M992.67,-218.37C1017.47,-205.24 1062.11,-181.6 1090.88,-166.36"/>
<polygon fill="#63b8ff" stroke="#63b8ff" points="1092.77,-169.32 1099.97,-161.55 1089.5,-163.13 1092.77,-169.32"/>
</g>
<!-- Node48&#45;&gt;Node137 -->
<g id="edge54" class="edge">
<title>Node48&#45;&gt;Node137</title>
<path fill="none" stroke="#63b8ff" d="M1009.65,-237.55C1018.03,-240.08 1026.9,-242.96 1035,-246 1053.68,-253.01 1074.05,-262.32 1089.94,-269.96"/>
<polygon fill="#63b8ff" stroke="#63b8ff" points="1088.68,-273.24 1099.2,-274.47 1091.74,-266.95 1088.68,-273.24"/>
</g>
<!-- Node71 -->
<g id="node41" class="node">
<title>Node71</title>
<g id="a_node41"><a xlink:href="parser__next_8c.html#ad25986b565a767c6ad7d0b0b8846fca6" target="_top" xlink:title=" ">
<polygon fill="white" stroke="#666666" points="1298.5,-687.5 1224.5,-687.5 1224.5,-668.5 1298.5,-668.5 1298.5,-687.5"/>
<text text-anchor="middle" x="1261.5" y="-675.5" font-family="Helvetica,sans-Serif" font-size="10.00">parser_next</text>
</a>
</g>
</g>
<!-- Node137&#45;&gt;Node71 -->
<g id="edge55" class="edge">
<title>Node137&#45;&gt;Node71</title>
<path fill="none" stroke="#63b8ff" d="M1130.08,-293.56C1140.73,-304.2 1157.28,-322.34 1167,-341 1225.13,-452.63 1250.43,-604.44 1257.95,-658.17"/>
<polygon fill="#63b8ff" stroke="#63b8ff" points="1254.52,-658.91 1259.32,-668.35 1261.45,-657.98 1254.52,-658.91"/>
</g>
<!-- Node71&#45;&gt;Node9 -->
<g id="edge58" class="edge">
<title>Node71&#45;&gt;Node9</title>
<path fill="none" stroke="#63b8ff" d="M1298.83,-687.43C1316.94,-692.14 1339.06,-697.88 1358.41,-702.9"/>
<polygon fill="#63b8ff" stroke="#63b8ff" points="1357.68,-706.33 1368.24,-705.46 1359.44,-699.56 1357.68,-706.33"/>
</g>
<!-- Node72 -->
<g id="node42" class="node">
<title>Node72</title>
<g id="a_node42"><a xlink:href="lexer__next__token_8c.html#a3def5432329709fb4df861d90672c510" target="_top" xlink:title=" ">
<polygon fill="#fff0f0" stroke="red" points="1456,-687.5 1356,-687.5 1356,-668.5 1456,-668.5 1456,-687.5"/>
<text text-anchor="middle" x="1406" y="-675.5" font-family="Helvetica,sans-Serif" font-size="10.00">lexer_next_token</text>
</a>
</g>
</g>
<!-- Node71&#45;&gt;Node72 -->
<g id="edge56" class="edge">
<title>Node71&#45;&gt;Node72</title>
<path fill="none" stroke="#63b8ff" d="M1298.83,-678C1313.03,-678 1329.7,-678 1345.56,-678"/>
<polygon fill="#63b8ff" stroke="#63b8ff" points="1345.83,-681.5 1355.83,-678 1345.83,-674.5 1345.83,-681.5"/>
</g>
<!-- Node73 -->
<g id="node43" class="node">
<title>Node73</title>
<g id="a_node43"><a xlink:href="create__token_8c.html#a15bcfc92177012893c626ce7d2d6bb6b" target="_top" xlink:title=" ">
<polygon fill="white" stroke="#666666" points="1572,-687.5 1492,-687.5 1492,-668.5 1572,-668.5 1572,-687.5"/>
<text text-anchor="middle" x="1532" y="-675.5" font-family="Helvetica,sans-Serif" font-size="10.00">create_token</text>
</a>
</g>
</g>
<!-- Node72&#45;&gt;Node73 -->
<g id="edge57" class="edge">
<title>Node72&#45;&gt;Node73</title>
<path fill="none" stroke="#63b8ff" d="M1456.01,-678C1464.48,-678 1473.29,-678 1481.76,-678"/>
<polygon fill="#63b8ff" stroke="#63b8ff" points="1481.89,-681.5 1491.89,-678 1481.89,-674.5 1481.89,-681.5"/>
</g>
<!-- Node138&#45;&gt;Node137 -->
<g id="edge62" class="edge">
<title>Node138&#45;&gt;Node137</title>
<path fill="none" stroke="#63b8ff" d="M1018.73,-270.86C1032.24,-272.65 1047.3,-274.64 1061.52,-276.52"/>
<polygon fill="#63b8ff" stroke="#63b8ff" points="1061.31,-280.02 1071.69,-277.87 1062.23,-273.09 1061.31,-280.02"/>
</g>
<!-- Node138&#45;&gt;Node55 -->
<g id="edge61" class="edge">
<title>Node138&#45;&gt;Node55</title>
<path fill="none" stroke="#63b8ff" d="M1018.73,-256.37C1032.05,-253.77 1046.86,-250.88 1060.89,-248.14"/>
<polygon fill="#63b8ff" stroke="#63b8ff" points="1061.79,-251.53 1070.93,-246.18 1060.45,-244.66 1061.79,-251.53"/>
</g>
<!-- Node141&#45;&gt;Node71 -->
<g id="edge67" class="edge">
<title>Node141&#45;&gt;Node71</title>
<path fill="none" stroke="#63b8ff" d="M522.14,-590.84C537.77,-606.12 570.29,-635.23 604,-649 691.63,-684.8 720.34,-678 815,-678 815,-678 815,-678 974.5,-678 1059.11,-678 1157.79,-678 1214.33,-678"/>
<polygon fill="#63b8ff" stroke="#63b8ff" points="1214.38,-681.5 1224.38,-678 1214.38,-674.5 1214.38,-681.5"/>
</g>
<!-- Node143&#45;&gt;Node21 -->
<g id="edge72" class="edge">
<title>Node143&#45;&gt;Node21</title>
<path fill="none" stroke="#63b8ff" d="M270.28,-76C334.11,-76 428.33,-76 510.5,-76 510.5,-76 510.5,-76 663,-76 747.75,-76 845.55,-76 908.15,-76"/>
<polygon fill="#63b8ff" stroke="#63b8ff" points="908.27,-79.5 918.27,-76 908.27,-72.5 908.27,-79.5"/>
</g>
<!-- Node143&#45;&gt;Node142 -->
<g id="edge73" class="edge">
<title>Node143&#45;&gt;Node142</title>
<path fill="none" stroke="#63b8ff" d="M237.39,-66.41C259.39,-61.37 286.55,-55.16 309.85,-49.82"/>
<polygon fill="#63b8ff" stroke="#63b8ff" points="310.95,-53.16 319.91,-47.52 309.38,-46.34 310.95,-53.16"/>
</g>
</g>
</svg>
