<?xml version="1.0" encoding="UTF-8" standalone="no"?>
<!DOCTYPE svg PUBLIC "-//W3C//DTD SVG 1.1//EN"
 "http://www.w3.org/Graphics/SVG/1.1/DTD/svg11.dtd">
<!-- Generated by graphviz version 2.43.0 (0)
 -->
<!-- Title: set_variable Pages: 1 -->
<svg width="261pt" height="175pt"
 viewBox="0.00 0.00 261.00 175.00" xmlns="http://www.w3.org/2000/svg" xmlns:xlink="http://www.w3.org/1999/xlink">
<g id="graph0" class="graph" transform="scale(1 1) rotate(0) translate(4 171)">
<title>set_variable</title>
<!-- Node1 -->
<g id="node1" class="node">
<title>Node1</title>
<g id="a_node1"><a xlink:title=" ">
<polygon fill="#999999" stroke="#666666" points="77,-93 0,-93 0,-74 77,-74 77,-93"/>
<text text-anchor="middle" x="38.5" y="-81" font-family="Helvetica,sans-Serif" font-size="10.00">set_variable</text>
</a>
</g>
</g>
<!-- Node2 -->
<g id="node2" class="node">
<title>Node2</title>
<g id="a_node2"><a xlink:href="set__variable_8c.html#adebd93167a76f58c737bb4ee682da191" target="_top" xlink:title=" ">
<polygon fill="white" stroke="#666666" points="211,-167 155,-167 155,-148 211,-148 211,-167"/>
<text text-anchor="middle" x="183" y="-155" font-family="Helvetica,sans-Serif" font-size="10.00">fill_data</text>
</a>
</g>
</g>
<!-- Node1&#45;&gt;Node2 -->
<g id="edge1" class="edge">
<title>Node1&#45;&gt;Node2</title>
<path fill="none" stroke="#63b8ff" d="M49.57,-93.29C62.97,-105.8 87.9,-127.28 113,-139.5 122.95,-144.35 134.37,-148 145.02,-150.71"/>
<polygon fill="#63b8ff" stroke="#63b8ff" points="144.38,-154.16 154.92,-153.02 145.97,-147.34 144.38,-154.16"/>
</g>
<!-- Node3 -->
<g id="node3" class="node">
<title>Node3</title>
<g id="a_node3"><a xlink:href="free__variable_8c.html#a6cfba30b5c98d6fa7663b6bc29fe01cc" target="_top" xlink:title=" ">
<polygon fill="white" stroke="#666666" points="223.5,-130 142.5,-130 142.5,-111 223.5,-111 223.5,-130"/>
<text text-anchor="middle" x="183" y="-118" font-family="Helvetica,sans-Serif" font-size="10.00">free_variable</text>
</a>
</g>
</g>
<!-- Node1&#45;&gt;Node3 -->
<g id="edge2" class="edge">
<title>Node1&#45;&gt;Node3</title>
<path fill="none" stroke="#63b8ff" d="M76.2,-93.03C94.17,-97.7 116.02,-103.37 135.19,-108.35"/>
<polygon fill="#63b8ff" stroke="#63b8ff" points="134.37,-111.75 144.93,-110.88 136.13,-104.97 134.37,-111.75"/>
</g>
<!-- Node4 -->
<g id="node4" class="node">
<title>Node4</title>
<g id="a_node4"><a xlink:href="get__variable_8c.html#a569170390f0edf013bf89c26ef55ea8c" target="_top" xlink:title=" ">
<polygon fill="white" stroke="#666666" points="221.5,-93 144.5,-93 144.5,-74 221.5,-74 221.5,-93"/>
<text text-anchor="middle" x="183" y="-81" font-family="Helvetica,sans-Serif" font-size="10.00">get_variable</text>
</a>
</g>
</g>
<!-- Node1&#45;&gt;Node4 -->
<g id="edge3" class="edge">
<title>Node1&#45;&gt;Node4</title>
<path fill="none" stroke="#63b8ff" d="M77.31,-83.5C94.63,-83.5 115.34,-83.5 133.76,-83.5"/>
<polygon fill="#63b8ff" stroke="#63b8ff" points="134.01,-87 144.01,-83.5 134.01,-80 134.01,-87"/>
</g>
<!-- Node5 -->
<g id="node5" class="node">
<title>Node5</title>
<g id="a_node5"><a xlink:href="list_8h.html#a56c2e407458d3d071ab549938bc5a7c1" target="_top" xlink:title=" ">
<polygon fill="white" stroke="#666666" points="228.5,-56 137.5,-56 137.5,-37 228.5,-37 228.5,-56"/>
<text text-anchor="middle" x="183" y="-44" font-family="Helvetica,sans-Serif" font-size="10.00">my_add_to_list</text>
</a>
</g>
</g>
<!-- Node1&#45;&gt;Node5 -->
<g id="edge4" class="edge">
<title>Node1&#45;&gt;Node5</title>
<path fill="none" stroke="#63b8ff" d="M76.2,-73.97C94.17,-69.3 116.02,-63.63 135.19,-58.65"/>
<polygon fill="#63b8ff" stroke="#63b8ff" points="136.13,-62.03 144.93,-56.12 134.37,-55.25 136.13,-62.03"/>
</g>
<!-- Node6 -->
<g id="node6" class="node">
<title>Node6</title>
<g id="a_node6"><a xlink:href="set__variable_8c.html#a9423ce83dff6e167d4168b47e91086f6" target="_top" xlink:title=" ">
<polygon fill="white" stroke="#666666" points="253,-19 113,-19 113,0 253,0 253,-19"/>
<text text-anchor="middle" x="183" y="-7" font-family="Helvetica,sans-Serif" font-size="10.00">update_existing_variable</text>
</a>
</g>
</g>
<!-- Node1&#45;&gt;Node6 -->
<g id="edge5" class="edge">
<title>Node1&#45;&gt;Node6</title>
<path fill="none" stroke="#63b8ff" d="M49.63,-73.94C63.09,-61.72 88.1,-40.7 113,-28.5 117.69,-26.2 122.7,-24.15 127.8,-22.31"/>
<polygon fill="#63b8ff" stroke="#63b8ff" points="129.26,-25.52 137.66,-19.07 127.07,-18.87 129.26,-25.52"/>
</g>
</g>
</svg>
