<?xml version="1.0" encoding="UTF-8" standalone="no"?>
<!DOCTYPE svg PUBLIC "-//W3C//DTD SVG 1.1//EN"
 "http://www.w3.org/Graphics/SVG/1.1/DTD/svg11.dtd">
<!-- Generated by graphviz version 2.43.0 (0)
 -->
<!-- Title: src/variables/set_variable.c Pages: 1 -->
<svg width="238pt" height="192pt"
 viewBox="0.00 0.00 238.00 192.00" xmlns="http://www.w3.org/2000/svg" xmlns:xlink="http://www.w3.org/1999/xlink">
<g id="graph0" class="graph" transform="scale(1 1) rotate(0) translate(4 188)">
<title>src/variables/set_variable.c</title>
<!-- Node1 -->
<g id="node1" class="node">
<title>Node1</title>
<g id="a_node1"><a xlink:title=" ">
<polygon fill="#999999" stroke="#666666" points="199.5,-184 49.5,-184 49.5,-165 199.5,-165 199.5,-184"/>
<text text-anchor="middle" x="124.5" y="-172" font-family="Helvetica,sans-Serif" font-size="10.00">src/variables/set_variable.c</text>
</a>
</g>
</g>
<!-- Node2 -->
<g id="node2" class="node">
<title>Node2</title>
<g id="a_node2"><a xlink:title=" ">
<polygon fill="#e0e0e0" stroke="#999999" points="53,-129 0,-129 0,-110 53,-110 53,-129"/>
<text text-anchor="middle" x="26.5" y="-117" font-family="Helvetica,sans-Serif" font-size="10.00">stdlib.h</text>
</a>
</g>
</g>
<!-- Node1&#45;&gt;Node2 -->
<g id="edge1" class="edge">
<title>Node1&#45;&gt;Node2</title>
<path fill="none" stroke="#63b8ff" d="M108.75,-164.98C93.27,-156.61 69.41,-143.7 51.36,-133.95"/>
<polygon fill="#63b8ff" stroke="#63b8ff" points="52.99,-130.85 42.53,-129.17 49.66,-137.01 52.99,-130.85"/>
</g>
<!-- Node3 -->
<g id="node3" class="node">
<title>Node3</title>
<g id="a_node3"><a xlink:title=" ">
<polygon fill="#e0e0e0" stroke="#999999" points="124,-129 71,-129 71,-110 124,-110 124,-129"/>
<text text-anchor="middle" x="97.5" y="-117" font-family="Helvetica,sans-Serif" font-size="10.00">string.h</text>
</a>
</g>
</g>
<!-- Node1&#45;&gt;Node3 -->
<g id="edge2" class="edge">
<title>Node1&#45;&gt;Node3</title>
<path fill="none" stroke="#63b8ff" d="M120.04,-164.75C116.38,-157.57 111.09,-147.18 106.55,-138.27"/>
<polygon fill="#63b8ff" stroke="#63b8ff" points="109.53,-136.41 101.88,-129.09 103.3,-139.59 109.53,-136.41"/>
</g>
<!-- Node4 -->
<g id="node4" class="node">
<title>Node4</title>
<g id="a_node4"><a xlink:href="list_8h.html" target="_top" xlink:title=" ">
<polygon fill="white" stroke="#666666" points="208,-74 149,-74 149,-55 208,-55 208,-74"/>
<text text-anchor="middle" x="178.5" y="-62" font-family="Helvetica,sans-Serif" font-size="10.00">my/list.h</text>
</a>
</g>
</g>
<!-- Node1&#45;&gt;Node4 -->
<g id="edge3" class="edge">
<title>Node1&#45;&gt;Node4</title>
<path fill="none" stroke="#63b8ff" d="M128.92,-164.66C137.78,-146.93 157.89,-106.73 169.59,-83.32"/>
<polygon fill="#63b8ff" stroke="#63b8ff" points="172.83,-84.67 174.17,-74.16 166.57,-81.54 172.83,-84.67"/>
</g>
<!-- Node6 -->
<g id="node6" class="node">
<title>Node6</title>
<g id="a_node6"><a xlink:href="shell_8h.html" target="_top" xlink:title=" ">
<polygon fill="white" stroke="#666666" points="230,-129 181,-129 181,-110 230,-110 230,-129"/>
<text text-anchor="middle" x="205.5" y="-117" font-family="Helvetica,sans-Serif" font-size="10.00">shell.h</text>
</a>
</g>
</g>
<!-- Node1&#45;&gt;Node6 -->
<g id="edge5" class="edge">
<title>Node1&#45;&gt;Node6</title>
<path fill="none" stroke="#63b8ff" d="M137.51,-164.98C149.96,-156.84 168.96,-144.41 183.71,-134.76"/>
<polygon fill="#63b8ff" stroke="#63b8ff" points="185.8,-137.57 192.25,-129.17 181.96,-131.72 185.8,-137.57"/>
</g>
<!-- Node5 -->
<g id="node5" class="node">
<title>Node5</title>
<g id="a_node5"><a xlink:title=" ">
<polygon fill="#e0e0e0" stroke="#999999" points="206.5,-19 150.5,-19 150.5,0 206.5,0 206.5,-19"/>
<text text-anchor="middle" x="178.5" y="-7" font-family="Helvetica,sans-Serif" font-size="10.00">stddef.h</text>
</a>
</g>
</g>
<!-- Node4&#45;&gt;Node5 -->
<g id="edge4" class="edge">
<title>Node4&#45;&gt;Node5</title>
<path fill="none" stroke="#63b8ff" d="M178.5,-54.75C178.5,-47.8 178.5,-37.85 178.5,-29.13"/>
<polygon fill="#63b8ff" stroke="#63b8ff" points="182,-29.09 178.5,-19.09 175,-29.09 182,-29.09"/>
</g>
<!-- Node6&#45;&gt;Node4 -->
<g id="edge6" class="edge">
<title>Node6&#45;&gt;Node4</title>
<path fill="none" stroke="#63b8ff" d="M201.04,-109.75C197.38,-102.57 192.09,-92.18 187.55,-83.27"/>
<polygon fill="#63b8ff" stroke="#63b8ff" points="190.53,-81.41 182.88,-74.09 184.3,-84.59 190.53,-81.41"/>
</g>
</g>
</svg>
