<?xml version="1.0" encoding="UTF-8" standalone="no"?>
<!DOCTYPE svg PUBLIC "-//W3C//DTD SVG 1.1//EN"
 "http://www.w3.org/Graphics/SVG/1.1/DTD/svg11.dtd">
<!-- Generated by graphviz version 2.43.0 (0)
 -->
<!-- Title: print_variables Pages: 1 -->
<svg width="237pt" height="64pt"
 viewBox="0.00 0.00 237.00 64.00" xmlns="http://www.w3.org/2000/svg" xmlns:xlink="http://www.w3.org/1999/xlink">
<g id="graph0" class="graph" transform="scale(1 1) rotate(0) translate(4 60)">
<title>print_variables</title>
<!-- Node1 -->
<g id="node1" class="node">
<title>Node1</title>
<g id="a_node1"><a xlink:title=" ">
<polygon fill="#999999" stroke="#666666" points="89,-37 0,-37 0,-18 89,-18 89,-37"/>
<text text-anchor="middle" x="44.5" y="-25" font-family="Helvetica,sans-Serif" font-size="10.00">print_variables</text>
</a>
</g>
</g>
<!-- Node2 -->
<g id="node2" class="node">
<title>Node2</title>
<g id="a_node2"><a xlink:href="set_8c.html#a770ef0787b2aefb1b2f2382ccf987dfc" target="_top" xlink:title=" ">
<polygon fill="white" stroke="#666666" points="229,-56 125,-56 125,-37 229,-37 229,-56"/>
<text text-anchor="middle" x="177" y="-44" font-family="Helvetica,sans-Serif" font-size="10.00">compare_variable</text>
</a>
</g>
</g>
<!-- Node1&#45;&gt;Node2 -->
<g id="edge1" class="edge">
<title>Node1&#45;&gt;Node2</title>
<path fill="none" stroke="#63b8ff" d="M89.32,-33.88C97.51,-35.07 106.22,-36.34 114.83,-37.59"/>
<polygon fill="#63b8ff" stroke="#63b8ff" points="114.45,-41.08 124.85,-39.05 115.46,-34.15 114.45,-41.08"/>
</g>
<!-- Node3 -->
<g id="node3" class="node">
<title>Node3</title>
<g id="a_node3"><a xlink:href="list_8h.html#af1ee79b1370855f2ed03327c00b80dad" target="_top" xlink:title=" ">
<polygon fill="white" stroke="#666666" points="215.5,-19 138.5,-19 138.5,0 215.5,0 215.5,-19"/>
<text text-anchor="middle" x="177" y="-7" font-family="Helvetica,sans-Serif" font-size="10.00">my_sort_list</text>
</a>
</g>
</g>
<!-- Node1&#45;&gt;Node3 -->
<g id="edge2" class="edge">
<title>Node1&#45;&gt;Node3</title>
<path fill="none" stroke="#63b8ff" d="M89.32,-21.46C101.82,-19.73 115.51,-17.84 128.23,-16.09"/>
<polygon fill="#63b8ff" stroke="#63b8ff" points="128.76,-19.55 138.19,-14.71 127.81,-12.61 128.76,-19.55"/>
</g>
</g>
</svg>
