<?xml version="1.0" encoding="UTF-8" standalone="no"?>
<!DOCTYPE svg PUBLIC "-//W3C//DTD SVG 1.1//EN"
 "http://www.w3.org/Graphics/SVG/1.1/DTD/svg11.dtd">
<!-- Generated by graphviz version 2.43.0 (0)
 -->
<!-- Title: set_single_var Pages: 1 -->
<svg width="394pt" height="212pt"
 viewBox="0.00 0.00 394.00 212.00" xmlns="http://www.w3.org/2000/svg" xmlns:xlink="http://www.w3.org/1999/xlink">
<g id="graph0" class="graph" transform="scale(1 1) rotate(0) translate(4 208)">
<title>set_single_var</title>
<!-- Node1 -->
<g id="node1" class="node">
<title>Node1</title>
<g id="a_node1"><a xlink:title=" ">
<polygon fill="#999999" stroke="#666666" points="87,-129 0,-129 0,-110 87,-110 87,-129"/>
<text text-anchor="middle" x="43.5" y="-117" font-family="Helvetica,sans-Serif" font-size="10.00">set_single_var</text>
</a>
</g>
</g>
<!-- Node2 -->
<g id="node2" class="node">
<title>Node2</title>
<g id="a_node2"><a xlink:href="set_8c.html#a77842871e8edab4e2678cd8292233275" target="_top" xlink:title=" ">
<polygon fill="white" stroke="#666666" points="210,-176 123,-176 123,-157 210,-157 210,-176"/>
<text text-anchor="middle" x="166.5" y="-164" font-family="Helvetica,sans-Serif" font-size="10.00">is_valid_name</text>
</a>
</g>
</g>
<!-- Node1&#45;&gt;Node2 -->
<g id="edge1" class="edge">
<title>Node1&#45;&gt;Node2</title>
<path fill="none" stroke="#63b8ff" d="M68.99,-129.01C86.83,-135.94 111.24,-145.42 131.04,-153.12"/>
<polygon fill="#63b8ff" stroke="#63b8ff" points="130.05,-156.48 140.63,-156.84 132.58,-149.96 130.05,-156.48"/>
</g>
<!-- Node4 -->
<g id="node4" class="node">
<title>Node4</title>
<g id="a_node4"><a xlink:href="set__variable_8c.html#a47afbd80fec3464fe83979a24adb4290" target="_top" xlink:title=" ">
<polygon fill="white" stroke="#666666" points="205,-111 128,-111 128,-92 205,-92 205,-111"/>
<text text-anchor="middle" x="166.5" y="-99" font-family="Helvetica,sans-Serif" font-size="10.00">set_variable</text>
</a>
</g>
</g>
<!-- Node1&#45;&gt;Node4 -->
<g id="edge3" class="edge">
<title>Node1&#45;&gt;Node4</title>
<path fill="none" stroke="#63b8ff" d="M87.16,-113.15C97.06,-111.68 107.66,-110.1 117.76,-108.6"/>
<polygon fill="#63b8ff" stroke="#63b8ff" points="118.28,-112.06 127.65,-107.13 117.25,-105.14 118.28,-112.06"/>
</g>
<!-- Node3 -->
<g id="node3" class="node">
<title>Node3</title>
<g id="a_node3"><a xlink:href="strings_8h.html#adfd4fc057d3b7ad39c6867928cc44175" target="_top" xlink:title=" ">
<polygon fill="white" stroke="#666666" points="357.5,-204 274.5,-204 274.5,-185 357.5,-185 357.5,-204"/>
<text text-anchor="middle" x="316" y="-192" font-family="Helvetica,sans-Serif" font-size="10.00">my_isnumber</text>
</a>
</g>
</g>
<!-- Node2&#45;&gt;Node3 -->
<g id="edge2" class="edge">
<title>Node2&#45;&gt;Node3</title>
<path fill="none" stroke="#63b8ff" d="M210.16,-174.6C227.09,-177.81 246.69,-181.53 264.33,-184.88"/>
<polygon fill="#63b8ff" stroke="#63b8ff" points="263.98,-188.38 274.46,-186.8 265.29,-181.5 263.98,-188.38"/>
</g>
<!-- Node5 -->
<g id="node5" class="node">
<title>Node5</title>
<g id="a_node5"><a xlink:href="set__variable_8c.html#adebd93167a76f58c737bb4ee682da191" target="_top" xlink:title=" ">
<polygon fill="white" stroke="#666666" points="344,-167 288,-167 288,-148 344,-148 344,-167"/>
<text text-anchor="middle" x="316" y="-155" font-family="Helvetica,sans-Serif" font-size="10.00">fill_data</text>
</a>
</g>
</g>
<!-- Node4&#45;&gt;Node5 -->
<g id="edge4" class="edge">
<title>Node4&#45;&gt;Node5</title>
<path fill="none" stroke="#63b8ff" d="M184.84,-111.11C200.47,-119.48 224.26,-131.49 246,-139.5 256.21,-143.26 267.55,-146.56 278.03,-149.28"/>
<polygon fill="#63b8ff" stroke="#63b8ff" points="277.2,-152.68 287.75,-151.69 278.89,-145.88 277.2,-152.68"/>
</g>
<!-- Node6 -->
<g id="node6" class="node">
<title>Node6</title>
<g id="a_node6"><a xlink:href="free__variable_8c.html#a6cfba30b5c98d6fa7663b6bc29fe01cc" target="_top" xlink:title=" ">
<polygon fill="white" stroke="#666666" points="356.5,-130 275.5,-130 275.5,-111 356.5,-111 356.5,-130"/>
<text text-anchor="middle" x="316" y="-118" font-family="Helvetica,sans-Serif" font-size="10.00">free_variable</text>
</a>
</g>
</g>
<!-- Node4&#45;&gt;Node6 -->
<g id="edge5" class="edge">
<title>Node4&#45;&gt;Node6</title>
<path fill="none" stroke="#63b8ff" d="M205.1,-106.34C223.42,-108.7 245.69,-111.57 265.38,-114.11"/>
<polygon fill="#63b8ff" stroke="#63b8ff" points="265.04,-117.59 275.4,-115.4 265.93,-110.65 265.04,-117.59"/>
</g>
<!-- Node7 -->
<g id="node7" class="node">
<title>Node7</title>
<g id="a_node7"><a xlink:href="get__variable_8c.html#a569170390f0edf013bf89c26ef55ea8c" target="_top" xlink:title=" ">
<polygon fill="white" stroke="#666666" points="354.5,-93 277.5,-93 277.5,-74 354.5,-74 354.5,-93"/>
<text text-anchor="middle" x="316" y="-81" font-family="Helvetica,sans-Serif" font-size="10.00">get_variable</text>
</a>
</g>
</g>
<!-- Node4&#45;&gt;Node7 -->
<g id="edge6" class="edge">
<title>Node4&#45;&gt;Node7</title>
<path fill="none" stroke="#63b8ff" d="M205.1,-96.91C224.09,-94.59 247.32,-91.76 267.52,-89.29"/>
<polygon fill="#63b8ff" stroke="#63b8ff" points="267.96,-92.77 277.47,-88.08 267.12,-85.82 267.96,-92.77"/>
</g>
<!-- Node8 -->
<g id="node8" class="node">
<title>Node8</title>
<g id="a_node8"><a xlink:href="list_8h.html#a56c2e407458d3d071ab549938bc5a7c1" target="_top" xlink:title=" ">
<polygon fill="white" stroke="#666666" points="361.5,-56 270.5,-56 270.5,-37 361.5,-37 361.5,-56"/>
<text text-anchor="middle" x="316" y="-44" font-family="Helvetica,sans-Serif" font-size="10.00">my_add_to_list</text>
</a>
</g>
</g>
<!-- Node4&#45;&gt;Node8 -->
<g id="edge7" class="edge">
<title>Node4&#45;&gt;Node8</title>
<path fill="none" stroke="#63b8ff" d="M186.18,-91.9C201.86,-84.09 225.01,-73.15 246,-65.5 252.43,-63.16 259.29,-60.94 266.1,-58.91"/>
<polygon fill="#63b8ff" stroke="#63b8ff" points="267.33,-62.2 275.97,-56.07 265.39,-55.47 267.33,-62.2"/>
</g>
<!-- Node9 -->
<g id="node9" class="node">
<title>Node9</title>
<g id="a_node9"><a xlink:href="set__variable_8c.html#a9423ce83dff6e167d4168b47e91086f6" target="_top" xlink:title=" ">
<polygon fill="white" stroke="#666666" points="386,-19 246,-19 246,0 386,0 386,-19"/>
<text text-anchor="middle" x="316" y="-7" font-family="Helvetica,sans-Serif" font-size="10.00">update_existing_variable</text>
</a>
</g>
</g>
<!-- Node4&#45;&gt;Node9 -->
<g id="edge8" class="edge">
<title>Node4&#45;&gt;Node9</title>
<path fill="none" stroke="#63b8ff" d="M175.12,-91.89C188.03,-76.26 215.77,-45.37 246,-28.5 249.95,-26.3 254.18,-24.33 258.51,-22.59"/>
<polygon fill="#63b8ff" stroke="#63b8ff" points="259.92,-25.8 268.14,-19.11 257.54,-19.22 259.92,-25.8"/>
</g>
</g>
</svg>
