<?xml version="1.0" encoding="UTF-8" standalone="no"?>
<!DOCTYPE svg PUBLIC "-//W3C//DTD SVG 1.1//EN"
 "http://www.w3.org/Graphics/SVG/1.1/DTD/svg11.dtd">
<!-- Generated by graphviz version 2.43.0 (0)
 -->
<!-- Title: src/builtins/set.c Pages: 1 -->
<svg width="540pt" height="247pt"
 viewBox="0.00 0.00 539.50 247.00" xmlns="http://www.w3.org/2000/svg" xmlns:xlink="http://www.w3.org/1999/xlink">
<g id="graph0" class="graph" transform="scale(1 1) rotate(0) translate(4 243)">
<title>src/builtins/set.c</title>
<!-- Node1 -->
<g id="node1" class="node">
<title>Node1</title>
<g id="a_node1"><a xlink:title=" ">
<polygon fill="#999999" stroke="#666666" points="288.5,-239 192.5,-239 192.5,-220 288.5,-220 288.5,-239"/>
<text text-anchor="middle" x="240.5" y="-227" font-family="Helvetica,sans-Serif" font-size="10.00">src/builtins/set.c</text>
</a>
</g>
</g>
<!-- Node2 -->
<g id="node2" class="node">
<title>Node2</title>
<g id="a_node2"><a xlink:title=" ">
<polygon fill="#e0e0e0" stroke="#999999" points="53,-184 0,-184 0,-165 53,-165 53,-184"/>
<text text-anchor="middle" x="26.5" y="-172" font-family="Helvetica,sans-Serif" font-size="10.00">ctype.h</text>
</a>
</g>
</g>
<!-- Node1&#45;&gt;Node2 -->
<g id="edge1" class="edge">
<title>Node1&#45;&gt;Node2</title>
<path fill="none" stroke="#63b8ff" d="M206.12,-219.98C166.88,-210.27 102.98,-194.44 62.91,-184.52"/>
<polygon fill="#63b8ff" stroke="#63b8ff" points="63.57,-181.08 53.02,-182.07 61.89,-187.87 63.57,-181.08"/>
</g>
<!-- Node3 -->
<g id="node3" class="node">
<title>Node3</title>
<g id="a_node3"><a xlink:title=" ">
<polygon fill="#e0e0e0" stroke="#999999" points="121.5,-184 71.5,-184 71.5,-165 121.5,-165 121.5,-184"/>
<text text-anchor="middle" x="96.5" y="-172" font-family="Helvetica,sans-Serif" font-size="10.00">stdio.h</text>
</a>
</g>
</g>
<!-- Node1&#45;&gt;Node3 -->
<g id="edge2" class="edge">
<title>Node1&#45;&gt;Node3</title>
<path fill="none" stroke="#63b8ff" d="M217.36,-219.98C193.68,-211.27 156.63,-197.63 129.79,-187.75"/>
<polygon fill="#63b8ff" stroke="#63b8ff" points="130.65,-184.34 120.06,-184.17 128.23,-190.91 130.65,-184.34"/>
</g>
<!-- Node4 -->
<g id="node4" class="node">
<title>Node4</title>
<g id="a_node4"><a xlink:title=" ">
<polygon fill="#e0e0e0" stroke="#999999" points="193,-184 140,-184 140,-165 193,-165 193,-184"/>
<text text-anchor="middle" x="166.5" y="-172" font-family="Helvetica,sans-Serif" font-size="10.00">string.h</text>
</a>
</g>
</g>
<!-- Node1&#45;&gt;Node4 -->
<g id="edge3" class="edge">
<title>Node1&#45;&gt;Node4</title>
<path fill="none" stroke="#63b8ff" d="M228.61,-219.98C217.35,-211.92 200.21,-199.65 186.79,-190.03"/>
<polygon fill="#63b8ff" stroke="#63b8ff" points="188.77,-187.15 178.61,-184.17 184.7,-192.84 188.77,-187.15"/>
</g>
<!-- Node5 -->
<g id="node5" class="node">
<title>Node5</title>
<g id="a_node5"><a xlink:href="list_8h.html" target="_top" xlink:title=" ">
<polygon fill="white" stroke="#666666" points="307,-74 248,-74 248,-55 307,-55 307,-74"/>
<text text-anchor="middle" x="277.5" y="-62" font-family="Helvetica,sans-Serif" font-size="10.00">my/list.h</text>
</a>
</g>
</g>
<!-- Node1&#45;&gt;Node5 -->
<g id="edge4" class="edge">
<title>Node1&#45;&gt;Node5</title>
<path fill="none" stroke="#63b8ff" d="M239.09,-219.85C236.17,-199.84 230.86,-149.06 244.5,-110 248.13,-99.6 255.12,-89.59 261.74,-81.71"/>
<polygon fill="#63b8ff" stroke="#63b8ff" points="264.51,-83.86 268.59,-74.08 259.31,-79.18 264.51,-83.86"/>
</g>
<!-- Node7 -->
<g id="node7" class="node">
<title>Node7</title>
<g id="a_node7"><a xlink:href="misc_8h.html" target="_top" xlink:title=" ">
<polygon fill="white" stroke="#666666" points="531.5,-184 463.5,-184 463.5,-165 531.5,-165 531.5,-184"/>
<text text-anchor="middle" x="497.5" y="-172" font-family="Helvetica,sans-Serif" font-size="10.00">my/misc.h</text>
</a>
</g>
</g>
<!-- Node1&#45;&gt;Node7 -->
<g id="edge6" class="edge">
<title>Node1&#45;&gt;Node7</title>
<path fill="none" stroke="#63b8ff" d="M281.79,-219.98C328.82,-210.29 405.35,-194.5 453.48,-184.58"/>
<polygon fill="#63b8ff" stroke="#63b8ff" points="454.21,-188 463.3,-182.55 452.8,-181.14 454.21,-188"/>
</g>
<!-- Node8 -->
<g id="node8" class="node">
<title>Node8</title>
<g id="a_node8"><a xlink:href="strings_8h.html" target="_top" xlink:title=" ">
<polygon fill="white" stroke="#666666" points="445,-184 368,-184 368,-165 445,-165 445,-184"/>
<text text-anchor="middle" x="406.5" y="-172" font-family="Helvetica,sans-Serif" font-size="10.00">my/strings.h</text>
</a>
</g>
</g>
<!-- Node1&#45;&gt;Node8 -->
<g id="edge7" class="edge">
<title>Node1&#45;&gt;Node8</title>
<path fill="none" stroke="#63b8ff" d="M267.17,-219.98C295.04,-211.09 338.95,-197.07 370.02,-187.15"/>
<polygon fill="#63b8ff" stroke="#63b8ff" points="371.16,-190.46 379.62,-184.08 369.03,-183.79 371.16,-190.46"/>
</g>
<!-- Node10 -->
<g id="node10" class="node">
<title>Node10</title>
<g id="a_node10"><a xlink:href="builtins_8h.html" target="_top" xlink:title=" ">
<polygon fill="white" stroke="#666666" points="349.5,-184 287.5,-184 287.5,-165 349.5,-165 349.5,-184"/>
<text text-anchor="middle" x="318.5" y="-172" font-family="Helvetica,sans-Serif" font-size="10.00">builtins.h</text>
</a>
</g>
</g>
<!-- Node1&#45;&gt;Node10 -->
<g id="edge10" class="edge">
<title>Node1&#45;&gt;Node10</title>
<path fill="none" stroke="#63b8ff" d="M253.03,-219.98C264.9,-211.92 282.96,-199.65 297.11,-190.03"/>
<polygon fill="#63b8ff" stroke="#63b8ff" points="299.44,-192.69 305.74,-184.17 295.5,-186.9 299.44,-192.69"/>
</g>
<!-- Node11 -->
<g id="node11" class="node">
<title>Node11</title>
<g id="a_node11"><a xlink:href="shell_8h.html" target="_top" xlink:title=" ">
<polygon fill="white" stroke="#666666" points="302,-129 253,-129 253,-110 302,-110 302,-129"/>
<text text-anchor="middle" x="277.5" y="-117" font-family="Helvetica,sans-Serif" font-size="10.00">shell.h</text>
</a>
</g>
</g>
<!-- Node1&#45;&gt;Node11 -->
<g id="edge13" class="edge">
<title>Node1&#45;&gt;Node11</title>
<path fill="none" stroke="#63b8ff" d="M243.53,-219.66C249.57,-202.01 263.25,-162.09 271.29,-138.64"/>
<polygon fill="#63b8ff" stroke="#63b8ff" points="274.6,-139.75 274.53,-129.16 267.98,-137.48 274.6,-139.75"/>
</g>
<!-- Node6 -->
<g id="node6" class="node">
<title>Node6</title>
<g id="a_node6"><a xlink:title=" ">
<polygon fill="#e0e0e0" stroke="#999999" points="334.5,-19 278.5,-19 278.5,0 334.5,0 334.5,-19"/>
<text text-anchor="middle" x="306.5" y="-7" font-family="Helvetica,sans-Serif" font-size="10.00">stddef.h</text>
</a>
</g>
</g>
<!-- Node5&#45;&gt;Node6 -->
<g id="edge5" class="edge">
<title>Node5&#45;&gt;Node6</title>
<path fill="none" stroke="#63b8ff" d="M282.29,-54.75C286.26,-47.49 292.03,-36.95 296.93,-27.98"/>
<polygon fill="#63b8ff" stroke="#63b8ff" points="300.07,-29.54 301.8,-19.09 293.93,-26.18 300.07,-29.54"/>
</g>
<!-- Node8&#45;&gt;Node6 -->
<g id="edge8" class="edge">
<title>Node8&#45;&gt;Node6</title>
<path fill="none" stroke="#63b8ff" d="M395.78,-164.85C385.91,-156.48 371.36,-143.02 361.5,-129 338.65,-96.5 321.32,-52.99 312.65,-28.76"/>
<polygon fill="#63b8ff" stroke="#63b8ff" points="315.88,-27.39 309.29,-19.09 309.27,-29.69 315.88,-27.39"/>
</g>
<!-- Node9 -->
<g id="node9" class="node">
<title>Node9</title>
<g id="a_node9"><a xlink:title=" ">
<polygon fill="#e0e0e0" stroke="#999999" points="442.5,-129 370.5,-129 370.5,-110 442.5,-110 442.5,-129"/>
<text text-anchor="middle" x="406.5" y="-117" font-family="Helvetica,sans-Serif" font-size="10.00">sys/types.h</text>
</a>
</g>
</g>
<!-- Node8&#45;&gt;Node9 -->
<g id="edge9" class="edge">
<title>Node8&#45;&gt;Node9</title>
<path fill="none" stroke="#63b8ff" d="M406.5,-164.75C406.5,-157.8 406.5,-147.85 406.5,-139.13"/>
<polygon fill="#63b8ff" stroke="#63b8ff" points="410,-139.09 406.5,-129.09 403,-139.09 410,-139.09"/>
</g>
<!-- Node10&#45;&gt;Node11 -->
<g id="edge11" class="edge">
<title>Node10&#45;&gt;Node11</title>
<path fill="none" stroke="#63b8ff" d="M311.73,-164.75C305.94,-157.26 297.44,-146.28 290.36,-137.13"/>
<polygon fill="#63b8ff" stroke="#63b8ff" points="293.03,-134.86 284.14,-129.09 287.49,-139.14 293.03,-134.86"/>
</g>
<!-- Node11&#45;&gt;Node5 -->
<g id="edge12" class="edge">
<title>Node11&#45;&gt;Node5</title>
<path fill="none" stroke="#63b8ff" d="M277.5,-109.75C277.5,-102.8 277.5,-92.85 277.5,-84.13"/>
<polygon fill="#63b8ff" stroke="#63b8ff" points="281,-84.09 277.5,-74.09 274,-84.09 281,-84.09"/>
</g>
</g>
</svg>
