<?xml version="1.0" encoding="UTF-8" standalone="no"?>
<!DOCTYPE svg PUBLIC "-//W3C//DTD SVG 1.1//EN"
 "http://www.w3.org/Graphics/SVG/1.1/DTD/svg11.dtd">
<!-- Generated by graphviz version 2.43.0 (0)
 -->
<!-- Title: src/builtins/setenv.c Pages: 1 -->
<svg width="412pt" height="247pt"
 viewBox="0.00 0.00 412.00 247.00" xmlns="http://www.w3.org/2000/svg" xmlns:xlink="http://www.w3.org/1999/xlink">
<g id="graph0" class="graph" transform="scale(1 1) rotate(0) translate(4 243)">
<title>src/builtins/setenv.c</title>
<!-- Node1 -->
<g id="node1" class="node">
<title>Node1</title>
<g id="a_node1"><a xlink:title=" ">
<polygon fill="#999999" stroke="#666666" points="275,-239 162,-239 162,-220 275,-220 275,-239"/>
<text text-anchor="middle" x="218.5" y="-227" font-family="Helvetica,sans-Serif" font-size="10.00">src/builtins/setenv.c</text>
</a>
</g>
</g>
<!-- Node2 -->
<g id="node2" class="node">
<title>Node2</title>
<g id="a_node2"><a xlink:title=" ">
<polygon fill="#e0e0e0" stroke="#999999" points="53,-184 0,-184 0,-165 53,-165 53,-184"/>
<text text-anchor="middle" x="26.5" y="-172" font-family="Helvetica,sans-Serif" font-size="10.00">ctype.h</text>
</a>
</g>
</g>
<!-- Node1&#45;&gt;Node2 -->
<g id="edge1" class="edge">
<title>Node1&#45;&gt;Node2</title>
<path fill="none" stroke="#63b8ff" d="M187.65,-219.98C153.64,-210.6 98.98,-195.51 62.9,-185.55"/>
<polygon fill="#63b8ff" stroke="#63b8ff" points="63.82,-182.17 53.25,-182.88 61.95,-188.92 63.82,-182.17"/>
</g>
<!-- Node3 -->
<g id="node3" class="node">
<title>Node3</title>
<g id="a_node3"><a xlink:title=" ">
<polygon fill="#e0e0e0" stroke="#999999" points="121.5,-184 71.5,-184 71.5,-165 121.5,-165 121.5,-184"/>
<text text-anchor="middle" x="96.5" y="-172" font-family="Helvetica,sans-Serif" font-size="10.00">stdio.h</text>
</a>
</g>
</g>
<!-- Node1&#45;&gt;Node3 -->
<g id="edge2" class="edge">
<title>Node1&#45;&gt;Node3</title>
<path fill="none" stroke="#63b8ff" d="M198.9,-219.98C179.18,-211.42 148.55,-198.11 125.92,-188.28"/>
<polygon fill="#63b8ff" stroke="#63b8ff" points="127.02,-184.94 116.46,-184.17 124.24,-191.37 127.02,-184.94"/>
</g>
<!-- Node4 -->
<g id="node4" class="node">
<title>Node4</title>
<g id="a_node4"><a xlink:href="misc_8h.html" target="_top" xlink:title=" ">
<polygon fill="white" stroke="#666666" points="207.5,-184 139.5,-184 139.5,-165 207.5,-165 207.5,-184"/>
<text text-anchor="middle" x="173.5" y="-172" font-family="Helvetica,sans-Serif" font-size="10.00">my/misc.h</text>
</a>
</g>
</g>
<!-- Node1&#45;&gt;Node4 -->
<g id="edge3" class="edge">
<title>Node1&#45;&gt;Node4</title>
<path fill="none" stroke="#63b8ff" d="M211.07,-219.75C204.65,-212.18 195.19,-201.05 187.38,-191.84"/>
<polygon fill="#63b8ff" stroke="#63b8ff" points="189.93,-189.45 180.79,-184.09 184.6,-193.98 189.93,-189.45"/>
</g>
<!-- Node5 -->
<g id="node5" class="node">
<title>Node5</title>
<g id="a_node5"><a xlink:href="strings_8h.html" target="_top" xlink:title=" ">
<polygon fill="white" stroke="#666666" points="303,-184 226,-184 226,-165 303,-165 303,-184"/>
<text text-anchor="middle" x="264.5" y="-172" font-family="Helvetica,sans-Serif" font-size="10.00">my/strings.h</text>
</a>
</g>
</g>
<!-- Node1&#45;&gt;Node5 -->
<g id="edge4" class="edge">
<title>Node1&#45;&gt;Node5</title>
<path fill="none" stroke="#63b8ff" d="M226.1,-219.75C232.66,-212.18 242.32,-201.05 250.31,-191.84"/>
<polygon fill="#63b8ff" stroke="#63b8ff" points="253.13,-193.94 257.05,-184.09 247.85,-189.35 253.13,-193.94"/>
</g>
<!-- Node8 -->
<g id="node8" class="node">
<title>Node8</title>
<g id="a_node8"><a xlink:href="builtins_8h.html" target="_top" xlink:title=" ">
<polygon fill="white" stroke="#666666" points="383.5,-184 321.5,-184 321.5,-165 383.5,-165 383.5,-184"/>
<text text-anchor="middle" x="352.5" y="-172" font-family="Helvetica,sans-Serif" font-size="10.00">builtins.h</text>
</a>
</g>
</g>
<!-- Node1&#45;&gt;Node8 -->
<g id="edge7" class="edge">
<title>Node1&#45;&gt;Node8</title>
<path fill="none" stroke="#63b8ff" d="M240.03,-219.98C261.97,-211.3 296.24,-197.75 321.19,-187.88"/>
<polygon fill="#63b8ff" stroke="#63b8ff" points="322.57,-191.1 330.58,-184.17 319.99,-184.59 322.57,-191.1"/>
</g>
<!-- Node9 -->
<g id="node9" class="node">
<title>Node9</title>
<g id="a_node9"><a xlink:href="shell_8h.html" target="_top" xlink:title=" ">
<polygon fill="white" stroke="#666666" points="404,-129 355,-129 355,-110 404,-110 404,-129"/>
<text text-anchor="middle" x="379.5" y="-117" font-family="Helvetica,sans-Serif" font-size="10.00">shell.h</text>
</a>
</g>
</g>
<!-- Node1&#45;&gt;Node9 -->
<g id="edge11" class="edge">
<title>Node1&#45;&gt;Node9</title>
<path fill="none" stroke="#63b8ff" d="M275.02,-221.57C320.12,-214.74 378.06,-202.59 392.5,-184 402.61,-170.98 396.9,-152.08 390.16,-138.28"/>
<polygon fill="#63b8ff" stroke="#63b8ff" points="393.13,-136.41 385.28,-129.3 386.97,-139.75 393.13,-136.41"/>
</g>
<!-- Node6 -->
<g id="node6" class="node">
<title>Node6</title>
<g id="a_node6"><a xlink:title=" ">
<polygon fill="#e0e0e0" stroke="#999999" points="293.5,-19 237.5,-19 237.5,0 293.5,0 293.5,-19"/>
<text text-anchor="middle" x="265.5" y="-7" font-family="Helvetica,sans-Serif" font-size="10.00">stddef.h</text>
</a>
</g>
</g>
<!-- Node5&#45;&gt;Node6 -->
<g id="edge5" class="edge">
<title>Node5&#45;&gt;Node6</title>
<path fill="none" stroke="#63b8ff" d="M262.18,-164.71C259.96,-155.79 256.76,-141.55 255.5,-129 251.97,-93.69 257.68,-52.38 261.82,-29.04"/>
<polygon fill="#63b8ff" stroke="#63b8ff" points="265.28,-29.61 263.68,-19.13 258.4,-28.32 265.28,-29.61"/>
</g>
<!-- Node7 -->
<g id="node7" class="node">
<title>Node7</title>
<g id="a_node7"><a xlink:title=" ">
<polygon fill="#e0e0e0" stroke="#999999" points="336.5,-129 264.5,-129 264.5,-110 336.5,-110 336.5,-129"/>
<text text-anchor="middle" x="300.5" y="-117" font-family="Helvetica,sans-Serif" font-size="10.00">sys/types.h</text>
</a>
</g>
</g>
<!-- Node5&#45;&gt;Node7 -->
<g id="edge6" class="edge">
<title>Node5&#45;&gt;Node7</title>
<path fill="none" stroke="#63b8ff" d="M270.44,-164.75C275.48,-157.34 282.84,-146.5 289.01,-137.41"/>
<polygon fill="#63b8ff" stroke="#63b8ff" points="291.94,-139.33 294.67,-129.09 286.15,-135.39 291.94,-139.33"/>
</g>
<!-- Node8&#45;&gt;Node9 -->
<g id="edge8" class="edge">
<title>Node8&#45;&gt;Node9</title>
<path fill="none" stroke="#63b8ff" d="M356.96,-164.75C360.62,-157.57 365.91,-147.18 370.45,-138.27"/>
<polygon fill="#63b8ff" stroke="#63b8ff" points="373.7,-139.59 375.12,-129.09 367.47,-136.41 373.7,-139.59"/>
</g>
<!-- Node10 -->
<g id="node10" class="node">
<title>Node10</title>
<g id="a_node10"><a xlink:href="list_8h.html" target="_top" xlink:title=" ">
<polygon fill="white" stroke="#666666" points="366,-74 307,-74 307,-55 366,-55 366,-74"/>
<text text-anchor="middle" x="336.5" y="-62" font-family="Helvetica,sans-Serif" font-size="10.00">my/list.h</text>
</a>
</g>
</g>
<!-- Node9&#45;&gt;Node10 -->
<g id="edge9" class="edge">
<title>Node9&#45;&gt;Node10</title>
<path fill="none" stroke="#63b8ff" d="M372.4,-109.75C366.33,-102.26 357.41,-91.28 349.99,-82.13"/>
<polygon fill="#63b8ff" stroke="#63b8ff" points="352.49,-79.65 343.47,-74.09 347.05,-84.06 352.49,-79.65"/>
</g>
<!-- Node10&#45;&gt;Node6 -->
<g id="edge10" class="edge">
<title>Node10&#45;&gt;Node6</title>
<path fill="none" stroke="#63b8ff" d="M325.09,-54.98C314.39,-47 298.16,-34.88 285.34,-25.31"/>
<polygon fill="#63b8ff" stroke="#63b8ff" points="287.22,-22.35 277.11,-19.17 283.03,-27.96 287.22,-22.35"/>
</g>
</g>
</svg>
