<?xml version="1.0" encoding="UTF-8" standalone="no"?>
<!DOCTYPE svg PUBLIC "-//W3C//DTD SVG 1.1//EN"
 "http://www.w3.org/Graphics/SVG/1.1/DTD/svg11.dtd">
<!-- Generated by graphviz version 2.43.0 (0)
 -->
<!-- Title: set_empty_variable Pages: 1 -->
<svg width="410pt" height="175pt"
 viewBox="0.00 0.00 410.00 175.00" xmlns="http://www.w3.org/2000/svg" xmlns:xlink="http://www.w3.org/1999/xlink">
<g id="graph0" class="graph" transform="scale(1 1) rotate(0) translate(4 171)">
<title>set_empty_variable</title>
<!-- Node1 -->
<g id="node1" class="node">
<title>Node1</title>
<g id="a_node1"><a xlink:title=" ">
<polygon fill="#999999" stroke="#666666" points="113,-93 0,-93 0,-74 113,-74 113,-93"/>
<text text-anchor="middle" x="56.5" y="-81" font-family="Helvetica,sans-Serif" font-size="10.00">set_empty_variable</text>
</a>
</g>
</g>
<!-- Node2 -->
<g id="node2" class="node">
<title>Node2</title>
<g id="a_node2"><a xlink:href="set__variable_8c.html#a47afbd80fec3464fe83979a24adb4290" target="_top" xlink:title=" ">
<polygon fill="white" stroke="#666666" points="226,-93 149,-93 149,-74 226,-74 226,-93"/>
<text text-anchor="middle" x="187.5" y="-81" font-family="Helvetica,sans-Serif" font-size="10.00">set_variable</text>
</a>
</g>
</g>
<!-- Node1&#45;&gt;Node2 -->
<g id="edge1" class="edge">
<title>Node1&#45;&gt;Node2</title>
<path fill="none" stroke="#63b8ff" d="M113.33,-83.5C121.76,-83.5 130.39,-83.5 138.62,-83.5"/>
<polygon fill="#63b8ff" stroke="#63b8ff" points="138.81,-87 148.81,-83.5 138.81,-80 138.81,-87"/>
</g>
<!-- Node3 -->
<g id="node3" class="node">
<title>Node3</title>
<g id="a_node3"><a xlink:href="set__variable_8c.html#adebd93167a76f58c737bb4ee682da191" target="_top" xlink:title=" ">
<polygon fill="white" stroke="#666666" points="360,-167 304,-167 304,-148 360,-148 360,-167"/>
<text text-anchor="middle" x="332" y="-155" font-family="Helvetica,sans-Serif" font-size="10.00">fill_data</text>
</a>
</g>
</g>
<!-- Node2&#45;&gt;Node3 -->
<g id="edge2" class="edge">
<title>Node2&#45;&gt;Node3</title>
<path fill="none" stroke="#63b8ff" d="M198.57,-93.29C211.97,-105.8 236.9,-127.28 262,-139.5 271.95,-144.35 283.37,-148 294.02,-150.71"/>
<polygon fill="#63b8ff" stroke="#63b8ff" points="293.38,-154.16 303.92,-153.02 294.97,-147.34 293.38,-154.16"/>
</g>
<!-- Node4 -->
<g id="node4" class="node">
<title>Node4</title>
<g id="a_node4"><a xlink:href="free__variable_8c.html#a6cfba30b5c98d6fa7663b6bc29fe01cc" target="_top" xlink:title=" ">
<polygon fill="white" stroke="#666666" points="372.5,-130 291.5,-130 291.5,-111 372.5,-111 372.5,-130"/>
<text text-anchor="middle" x="332" y="-118" font-family="Helvetica,sans-Serif" font-size="10.00">free_variable</text>
</a>
</g>
</g>
<!-- Node2&#45;&gt;Node4 -->
<g id="edge3" class="edge">
<title>Node2&#45;&gt;Node4</title>
<path fill="none" stroke="#63b8ff" d="M225.2,-93.03C243.17,-97.7 265.02,-103.37 284.19,-108.35"/>
<polygon fill="#63b8ff" stroke="#63b8ff" points="283.37,-111.75 293.93,-110.88 285.13,-104.97 283.37,-111.75"/>
</g>
<!-- Node5 -->
<g id="node5" class="node">
<title>Node5</title>
<g id="a_node5"><a xlink:href="get__variable_8c.html#a569170390f0edf013bf89c26ef55ea8c" target="_top" xlink:title=" ">
<polygon fill="white" stroke="#666666" points="370.5,-93 293.5,-93 293.5,-74 370.5,-74 370.5,-93"/>
<text text-anchor="middle" x="332" y="-81" font-family="Helvetica,sans-Serif" font-size="10.00">get_variable</text>
</a>
</g>
</g>
<!-- Node2&#45;&gt;Node5 -->
<g id="edge4" class="edge">
<title>Node2&#45;&gt;Node5</title>
<path fill="none" stroke="#63b8ff" d="M226.31,-83.5C243.63,-83.5 264.34,-83.5 282.76,-83.5"/>
<polygon fill="#63b8ff" stroke="#63b8ff" points="283.01,-87 293.01,-83.5 283.01,-80 283.01,-87"/>
</g>
<!-- Node6 -->
<g id="node6" class="node">
<title>Node6</title>
<g id="a_node6"><a xlink:href="list_8h.html#a56c2e407458d3d071ab549938bc5a7c1" target="_top" xlink:title=" ">
<polygon fill="white" stroke="#666666" points="377.5,-56 286.5,-56 286.5,-37 377.5,-37 377.5,-56"/>
<text text-anchor="middle" x="332" y="-44" font-family="Helvetica,sans-Serif" font-size="10.00">my_add_to_list</text>
</a>
</g>
</g>
<!-- Node2&#45;&gt;Node6 -->
<g id="edge5" class="edge">
<title>Node2&#45;&gt;Node6</title>
<path fill="none" stroke="#63b8ff" d="M225.2,-73.97C243.17,-69.3 265.02,-63.63 284.19,-58.65"/>
<polygon fill="#63b8ff" stroke="#63b8ff" points="285.13,-62.03 293.93,-56.12 283.37,-55.25 285.13,-62.03"/>
</g>
<!-- Node7 -->
<g id="node7" class="node">
<title>Node7</title>
<g id="a_node7"><a xlink:href="set__variable_8c.html#a9423ce83dff6e167d4168b47e91086f6" target="_top" xlink:title=" ">
<polygon fill="white" stroke="#666666" points="402,-19 262,-19 262,0 402,0 402,-19"/>
<text text-anchor="middle" x="332" y="-7" font-family="Helvetica,sans-Serif" font-size="10.00">update_existing_variable</text>
</a>
</g>
</g>
<!-- Node2&#45;&gt;Node7 -->
<g id="edge6" class="edge">
<title>Node2&#45;&gt;Node7</title>
<path fill="none" stroke="#63b8ff" d="M198.63,-73.94C212.09,-61.72 237.1,-40.7 262,-28.5 266.69,-26.2 271.7,-24.15 276.8,-22.31"/>
<polygon fill="#63b8ff" stroke="#63b8ff" points="278.26,-25.52 286.66,-19.07 276.07,-18.87 278.26,-25.52"/>
</g>
</g>
</svg>
