<?xml version="1.0" encoding="UTF-8" standalone="no"?>
<!DOCTYPE svg PUBLIC "-//W3C//DTD SVG 1.1//EN"
 "http://www.w3.org/Graphics/SVG/1.1/DTD/svg11.dtd">
<!-- Generated by graphviz version 2.43.0 (0)
 -->
<!-- Title: read_input Pages: 1 -->
<svg width="678pt" height="158pt"
 viewBox="0.00 0.00 678.00 158.00" xmlns="http://www.w3.org/2000/svg" xmlns:xlink="http://www.w3.org/1999/xlink">
<g id="graph0" class="graph" transform="scale(1 1) rotate(0) translate(4 154)">
<title>read_input</title>
<!-- Node1 -->
<g id="node1" class="node">
<title>Node1</title>
<g id="a_node1"><a xlink:title=" ">
<polygon fill="#999999" stroke="#666666" points="68,-94 0,-94 0,-75 68,-75 68,-94"/>
<text text-anchor="middle" x="34" y="-82" font-family="Helvetica,sans-Serif" font-size="10.00">read_input</text>
</a>
</g>
</g>
<!-- Node2 -->
<g id="node2" class="node">
<title>Node2</title>
<g id="a_node2"><a xlink:href="strings_8h.html#a5e1589f073ac32d227dbc6020c376dab" target="_top" xlink:title=" ">
<polygon fill="white" stroke="#666666" points="213,-150 112,-150 112,-131 213,-131 213,-150"/>
<text text-anchor="middle" x="162.5" y="-138" font-family="Helvetica,sans-Serif" font-size="10.00">append_to_buffer</text>
</a>
</g>
</g>
<!-- Node1&#45;&gt;Node2 -->
<g id="edge1" class="edge">
<title>Node1&#45;&gt;Node2</title>
<path fill="none" stroke="#63b8ff" d="M50.18,-94.02C63.87,-102.32 84.76,-114.29 104,-122.5 108.23,-124.3 112.7,-126.02 117.2,-127.62"/>
<polygon fill="#63b8ff" stroke="#63b8ff" points="116.44,-131.06 127.04,-130.95 118.68,-124.43 116.44,-131.06"/>
</g>
<!-- Node3 -->
<g id="node3" class="node">
<title>Node3</title>
<g id="a_node3"><a xlink:href="read__input_8c.html#ab8f53813e21230b48d9ccdc4032c6bee" target="_top" xlink:title=" ">
<polygon fill="white" stroke="#666666" points="220.5,-113 104.5,-113 104.5,-94 220.5,-94 220.5,-113"/>
<text text-anchor="middle" x="162.5" y="-101" font-family="Helvetica,sans-Serif" font-size="10.00">handle_continuation</text>
</a>
</g>
</g>
<!-- Node1&#45;&gt;Node3 -->
<g id="edge2" class="edge">
<title>Node1&#45;&gt;Node3</title>
<path fill="none" stroke="#63b8ff" d="M68.24,-89.49C76.21,-90.69 85.02,-92.01 93.94,-93.35"/>
<polygon fill="#63b8ff" stroke="#63b8ff" points="93.62,-96.84 104.03,-94.87 94.66,-89.92 93.62,-96.84"/>
</g>
<!-- Node5 -->
<g id="node5" class="node">
<title>Node5</title>
<g id="a_node5"><a xlink:href="read__input_8c.html#a3282822bc1e8642066f4f88116a7a6cc" target="_top" xlink:title=" ">
<polygon fill="white" stroke="#666666" points="221,-76 104,-76 104,-57 221,-57 221,-76"/>
<text text-anchor="middle" x="162.5" y="-64" font-family="Helvetica,sans-Serif" font-size="10.00">handle_getline_error</text>
</a>
</g>
</g>
<!-- Node1&#45;&gt;Node5 -->
<g id="edge4" class="edge">
<title>Node1&#45;&gt;Node5</title>
<path fill="none" stroke="#63b8ff" d="M68.24,-79.77C76.11,-78.65 84.79,-77.42 93.59,-76.16"/>
<polygon fill="#63b8ff" stroke="#63b8ff" points="94.13,-79.62 103.54,-74.75 93.14,-72.69 94.13,-79.62"/>
</g>
<!-- Node6 -->
<g id="node6" class="node">
<title>Node6</title>
<g id="a_node6"><a xlink:href="read__input_8c.html#a274fec2b4095d4827436685c0b6b4afa" target="_top" xlink:title=" ">
<polygon fill="white" stroke="#666666" points="204,-39 121,-39 121,-20 204,-20 204,-39"/>
<text text-anchor="middle" x="162.5" y="-27" font-family="Helvetica,sans-Serif" font-size="10.00">show_prompt</text>
</a>
</g>
</g>
<!-- Node1&#45;&gt;Node6 -->
<g id="edge5" class="edge">
<title>Node1&#45;&gt;Node6</title>
<path fill="none" stroke="#63b8ff" d="M51.37,-75C65.12,-67.25 85.46,-56.34 104,-48.5 109.08,-46.35 114.5,-44.28 119.9,-42.36"/>
<polygon fill="#63b8ff" stroke="#63b8ff" points="121.21,-45.61 129.53,-39.05 118.93,-38.99 121.21,-45.61"/>
</g>
<!-- Node4 -->
<g id="node4" class="node">
<title>Node4</title>
<g id="a_node4"><a xlink:href="read__input_8c.html#ab1d0f5b306ce10bb8fff68a7a4aaf428" target="_top" xlink:title=" ">
<polygon fill="white" stroke="#666666" points="380.5,-113 284.5,-113 284.5,-94 380.5,-94 380.5,-113"/>
<text text-anchor="middle" x="332.5" y="-101" font-family="Helvetica,sans-Serif" font-size="10.00">should_continue</text>
</a>
</g>
</g>
<!-- Node3&#45;&gt;Node4 -->
<g id="edge3" class="edge">
<title>Node3&#45;&gt;Node4</title>
<path fill="none" stroke="#63b8ff" d="M220.85,-103.5C238.01,-103.5 256.82,-103.5 273.99,-103.5"/>
<polygon fill="#63b8ff" stroke="#63b8ff" points="274.44,-107 284.44,-103.5 274.44,-100 274.44,-107"/>
</g>
<!-- Node7 -->
<g id="node7" class="node">
<title>Node7</title>
<g id="a_node7"><a xlink:href="read__input_8c.html#a6a144d0d5270ba0d210fcb5f39d7fc63" target="_top" xlink:title=" ">
<polygon fill="white" stroke="#666666" points="557,-56 444,-56 444,-37 557,-37 557,-56"/>
<text text-anchor="middle" x="500.5" y="-44" font-family="Helvetica,sans-Serif" font-size="10.00">print_prompt_prefix</text>
</a>
</g>
</g>
<!-- Node6&#45;&gt;Node7 -->
<g id="edge6" class="edge">
<title>Node6&#45;&gt;Node7</title>
<path fill="none" stroke="#63b8ff" d="M204.03,-31.55C260.97,-34.43 365.32,-39.71 433.54,-43.16"/>
<polygon fill="#63b8ff" stroke="#63b8ff" points="433.58,-46.67 443.74,-43.68 433.93,-39.68 433.58,-46.67"/>
</g>
<!-- Node8 -->
<g id="node8" class="node">
<title>Node8</title>
<g id="a_node8"><a xlink:href="read__input_8c.html#a95fff78135b5c85ed0ff754f303e28f7" target="_top" xlink:title=" ">
<polygon fill="white" stroke="#666666" points="408,-19 257,-19 257,0 408,0 408,-19"/>
<text text-anchor="middle" x="332.5" y="-7" font-family="Helvetica,sans-Serif" font-size="10.00">show_prompt_with_curr_dir</text>
</a>
</g>
</g>
<!-- Node6&#45;&gt;Node8 -->
<g id="edge7" class="edge">
<title>Node6&#45;&gt;Node8</title>
<path fill="none" stroke="#63b8ff" d="M204.17,-24.66C217.03,-23.13 231.76,-21.37 246.52,-19.62"/>
<polygon fill="#63b8ff" stroke="#63b8ff" points="247.22,-23.06 256.73,-18.4 246.39,-16.11 247.22,-23.06"/>
</g>
<!-- Node8&#45;&gt;Node7 -->
<g id="edge10" class="edge">
<title>Node8&#45;&gt;Node7</title>
<path fill="none" stroke="#63b8ff" d="M376.25,-19.03C397.76,-23.82 424.02,-29.68 446.77,-34.75"/>
<polygon fill="#63b8ff" stroke="#63b8ff" points="446.09,-38.18 456.61,-36.94 447.61,-31.35 446.09,-38.18"/>
</g>
<!-- Node9 -->
<g id="node9" class="node">
<title>Node9</title>
<g id="a_node9"><a xlink:href="get__variable__value_8c.html#a2edd9900f19af236aa05385a789be3d6" target="_top" xlink:title=" ">
<polygon fill="white" stroke="#666666" points="555.5,-19 445.5,-19 445.5,0 555.5,0 555.5,-19"/>
<text text-anchor="middle" x="500.5" y="-7" font-family="Helvetica,sans-Serif" font-size="10.00">get_variable_value</text>
</a>
</g>
</g>
<!-- Node8&#45;&gt;Node9 -->
<g id="edge8" class="edge">
<title>Node8&#45;&gt;Node9</title>
<path fill="none" stroke="#63b8ff" d="M408.24,-9.5C417.15,-9.5 426.19,-9.5 434.93,-9.5"/>
<polygon fill="#63b8ff" stroke="#63b8ff" points="435.04,-13 445.04,-9.5 435.04,-6 435.04,-13"/>
</g>
<!-- Node10 -->
<g id="node10" class="node">
<title>Node10</title>
<g id="a_node10"><a xlink:href="get__variable_8c.html#a569170390f0edf013bf89c26ef55ea8c" target="_top" xlink:title=" ">
<polygon fill="white" stroke="#666666" points="670,-19 593,-19 593,0 670,0 670,-19"/>
<text text-anchor="middle" x="631.5" y="-7" font-family="Helvetica,sans-Serif" font-size="10.00">get_variable</text>
</a>
</g>
</g>
<!-- Node9&#45;&gt;Node10 -->
<g id="edge9" class="edge">
<title>Node9&#45;&gt;Node10</title>
<path fill="none" stroke="#63b8ff" d="M555.83,-9.5C564.74,-9.5 573.92,-9.5 582.65,-9.5"/>
<polygon fill="#63b8ff" stroke="#63b8ff" points="582.66,-13 592.66,-9.5 582.66,-6 582.66,-13"/>
</g>
</g>
</svg>
