<?xml version="1.0" encoding="UTF-8" standalone="no"?>
<!DOCTYPE svg PUBLIC "-//W3C//DTD SVG 1.1//EN"
 "http://www.w3.org/Graphics/SVG/1.1/DTD/svg11.dtd">
<!-- Generated by graphviz version 2.43.0 (0)
 -->
<!-- Title: shell_run Pages: 1 -->
<!--zoomable 988 -->
<svg id="main" version="1.1" xmlns="http://www.w3.org/2000/svg" xmlns:xlink="http://www.w3.org/1999/xlink" xml:space="preserve" onload="init(evt)">
<style type="text/css"><![CDATA[
.edge:hover path { stroke: red; }
.edge:hover polygon { stroke: red; fill: red; }
]]></style>
<script type="text/javascript"><![CDATA[
var edges = document.getElementsByTagName('g');
if (edges && edges.length) {
  for (var i=0;i<edges.length;i++) {
    if (edges[i].id.substr(0,4)=='edge') {
      edges[i].setAttribute('class','edge');
    }
  }
}
]]></script>
        <defs>
                <circle id="rim" cx="0" cy="0" r="7"/>
                <circle id="rim2" cx="0" cy="0" r="3.5"/>
                <g id="zoomPlus">
                        <use xlink:href="#rim" fill="#404040">
                                <set attributeName="fill" to="#808080" begin="zoomplus.mouseover" end="zoomplus.mouseout"/>
                        </use>
                        <path d="M-4,0h8M0,-4v8" fill="none" stroke="white" stroke-width="1.5" pointer-events="none"/>
                </g>
                <g id="zoomMin">
                        <use xlink:href="#rim" fill="#404040">
                                <set attributeName="fill" to="#808080" begin="zoomminus.mouseover" end="zoomminus.mouseout"/>
                        </use>
                        <path d="M-4,0h8" fill="none" stroke="white" stroke-width="1.5" pointer-events="none"/>
                </g>
                <g id="dirArrow">
                        <path fill="none" stroke="white" stroke-width="1.5" d="M0,-3.0v7 M-2.5,-0.5L0,-3.0L2.5,-0.5"/>
                </g>
               <g id="resetDef">
                       <use xlink:href="#rim2" fill="#404040">
                               <set attributeName="fill" to="#808080" begin="reset.mouseover" end="reset.mouseout"/>
                       </use>
               </g>
        </defs>

<script type="text/javascript">
var viewWidth = 827;
var viewHeight = 988;
var sectionId = 'dynsection-8';
</script>
<script xlink:href="svgpan.js"/>
<svg id="graph" class="graph">
<g id="viewport">
<title>shell_run</title>
<!-- Node1 -->
<g id="node1" class="node">
<title>Node1</title>
<g id="a_node1"><a xlink:title=" ">
<polygon fill="#999999" stroke="#666666" points="61,-587 0,-587 0,-568 61,-568 61,-587"/>
<text text-anchor="middle" x="30.5" y="-575" font-family="Helvetica,sans-Serif" font-size="10.00">shell_run</text>
</a>
</g>
</g>
<!-- Node2 -->
<g id="node2" class="node">
<title>Node2</title>
<g id="a_node2"><a xlink:href="shell_8c.html#afb5215a1775326d8976fd015f7832392" target="_top" xlink:title=" ">
<polygon fill="white" stroke="#666666" points="177,-323 97,-323 97,-304 177,-304 177,-323"/>
<text text-anchor="middle" x="137" y="-311" font-family="Helvetica,sans-Serif" font-size="10.00">handle_input</text>
</a>
</g>
</g>
<!-- Node1&#45;&gt;Node2 -->
<g id="edge1" class="edge">
<title>Node1&#45;&gt;Node2</title>
<path fill="none" stroke="#63b8ff" d="M35.34,-567.79C50.71,-528.98 107.88,-384.54 128.51,-332.41"/>
<polygon fill="#63b8ff" stroke="#63b8ff" points="131.81,-333.61 132.23,-323.02 125.3,-331.03 131.81,-333.61"/>
</g>
<!-- Node141 -->
<g id="node33" class="node">
<title>Node141</title>
<g id="a_node33"><a xlink:href="shell_8c.html#a983eddd5d67b74ffafb49f66b1b5e17f" target="_top" xlink:title=" ">
<polygon fill="white" stroke="#666666" points="167.5,-849 106.5,-849 106.5,-830 167.5,-830 167.5,-849"/>
<text text-anchor="middle" x="137" y="-837" font-family="Helvetica,sans-Serif" font-size="10.00">init_shell</text>
</a>
</g>
</g>
<!-- Node1&#45;&gt;Node141 -->
<g id="edge45" class="edge">
<title>Node1&#45;&gt;Node141</title>
<path fill="none" stroke="#63b8ff" d="M35.34,-587.14C50.67,-625.57 107.62,-768.36 128.37,-820.38"/>
<polygon fill="#63b8ff" stroke="#63b8ff" points="125.17,-821.79 132.12,-829.78 131.67,-819.19 125.17,-821.79"/>
</g>
<!-- Node151 -->
<g id="node42" class="node">
<title>Node151</title>
<g id="a_node42"><a xlink:href="read__input_8c.html#a2fe39fff6bf08a12813712b31615a1fb" target="_top" xlink:title=" ">
<polygon fill="white" stroke="#666666" points="171,-93 103,-93 103,-74 171,-74 171,-93"/>
<text text-anchor="middle" x="137" y="-81" font-family="Helvetica,sans-Serif" font-size="10.00">read_input</text>
</a>
</g>
</g>
<!-- Node1&#45;&gt;Node151 -->
<g id="edge57" class="edge">
<title>Node1&#45;&gt;Node151</title>
<path fill="none" stroke="#63b8ff" d="M33.59,-567.63C46.38,-507.18 114.17,-186.71 131.8,-103.34"/>
<polygon fill="#63b8ff" stroke="#63b8ff" points="135.26,-103.9 133.91,-93.39 128.41,-102.45 135.26,-103.9"/>
</g>
<!-- Node158 -->
<g id="node50" class="node">
<title>Node158</title>
<g id="a_node50"><a xlink:href="shell_8c.html#a352d0fde24e5d22d7e92d3fcb05dab19" target="_top" xlink:title=" ">
<polygon fill="white" stroke="#666666" points="482.5,-944 400.5,-944 400.5,-925 482.5,-925 482.5,-944"/>
<text text-anchor="middle" x="441.5" y="-932" font-family="Helvetica,sans-Serif" font-size="10.00">shell_destroy</text>
</a>
</g>
</g>
<!-- Node1&#45;&gt;Node158 -->
<g id="edge67" class="edge">
<title>Node1&#45;&gt;Node158</title>
<path fill="none" stroke="#63b8ff" d="M32.5,-587.01C37.34,-631.23 59.58,-816.36 97,-858.5 170.99,-941.81 313.95,-944.98 390.02,-939.92"/>
<polygon fill="#63b8ff" stroke="#63b8ff" points="390.58,-943.39 400.29,-939.16 390.06,-936.41 390.58,-943.39"/>
</g>
<!-- Node3 -->
<g id="node3" class="node">
<title>Node3</title>
<g id="a_node3"><a xlink:href="ast__destroy_8c.html#a04c67d7ab492f6e1e7bc44dc70faa057" target="_top" xlink:title=" ">
<polygon fill="white" stroke="#666666" points="308.5,-167 234.5,-167 234.5,-148 308.5,-148 308.5,-167"/>
<text text-anchor="middle" x="271.5" y="-155" font-family="Helvetica,sans-Serif" font-size="10.00">ast_destroy</text>
</a>
</g>
</g>
<!-- Node2&#45;&gt;Node3 -->
<g id="edge2" class="edge">
<title>Node2&#45;&gt;Node3</title>
<path fill="none" stroke="#63b8ff" d="M142.26,-303.89C152.19,-282.31 178.63,-229.2 213,-194.5 221.57,-185.85 232.51,-178.19 242.54,-172.11"/>
<polygon fill="#63b8ff" stroke="#63b8ff" points="244.49,-175.03 251.4,-167 240.99,-168.97 244.49,-175.03"/>
</g>
<!-- Node5 -->
<g id="node5" class="node">
<title>Node5</title>
<g id="a_node5"><a xlink:href="shell_8c.html#a74405478dadd73c0a4d1e5f3e8d2e3ef" target="_top" xlink:title=" ">
<polygon fill="white" stroke="#666666" points="328,-307.5 215,-307.5 215,-277.5 328,-277.5 328,-307.5"/>
<text text-anchor="start" x="223" y="-295.5" font-family="Helvetica,sans-Serif" font-size="10.00">destroy_parser_and</text>
<text text-anchor="middle" x="271.5" y="-284.5" font-family="Helvetica,sans-Serif" font-size="10.00">_lexer</text>
</a>
</g>
</g>
<!-- Node2&#45;&gt;Node5 -->
<g id="edge5" class="edge">
<title>Node2&#45;&gt;Node5</title>
<path fill="none" stroke="#63b8ff" d="M177.04,-307.31C185.67,-305.94 195.05,-304.46 204.42,-302.97"/>
<polygon fill="#63b8ff" stroke="#63b8ff" points="205.23,-306.39 214.56,-301.37 204.14,-299.47 205.23,-306.39"/>
</g>
<!-- Node9 -->
<g id="node9" class="node">
<title>Node9</title>
<g id="a_node9"><a xlink:href="execute__ast_8c.html#ad26a20a665ab7fdeb714ed53c1afd104" target="_top" xlink:title=" ">
<polygon fill="white" stroke="#666666" points="309,-605 234,-605 234,-586 309,-586 309,-605"/>
<text text-anchor="middle" x="271.5" y="-593" font-family="Helvetica,sans-Serif" font-size="10.00">execute_ast</text>
</a>
</g>
</g>
<!-- Node2&#45;&gt;Node9 -->
<g id="edge9" class="edge">
<title>Node2&#45;&gt;Node9</title>
<path fill="none" stroke="#63b8ff" d="M142.56,-323.21C161.71,-363.97 235.83,-521.71 261.6,-576.57"/>
<polygon fill="#63b8ff" stroke="#63b8ff" points="258.54,-578.27 265.96,-585.83 264.87,-575.29 258.54,-578.27"/>
</g>
<!-- Node43 -->
<g id="node26" class="node">
<title>Node43</title>
<g id="a_node26"><a xlink:href="shell_8c.html#a6e35892cfa82c5f227b10f37abc529e9" target="_top" xlink:title=" ">
<polygon fill="white" stroke="#666666" points="317,-383 226,-383 226,-364 317,-364 317,-383"/>
<text text-anchor="middle" x="271.5" y="-371" font-family="Helvetica,sans-Serif" font-size="10.00">handle_parsing</text>
</a>
</g>
</g>
<!-- Node2&#45;&gt;Node43 -->
<g id="edge36" class="edge">
<title>Node2&#45;&gt;Node43</title>
<path fill="none" stroke="#63b8ff" d="M157.3,-323.1C172.37,-330.52 193.89,-340.93 213,-349.5 220.86,-353.02 229.39,-356.68 237.42,-360.04"/>
<polygon fill="#63b8ff" stroke="#63b8ff" points="236.3,-363.37 246.88,-363.97 238.99,-356.9 236.3,-363.37"/>
</g>
<!-- Node138 -->
<g id="node29" class="node">
<title>Node138</title>
<g id="a_node29"><a xlink:href="shell_8c.html#a1ce512725ee0371f8bf608a3ece0c152" target="_top" xlink:title=" ">
<polygon fill="white" stroke="#666666" points="673,-364 553,-364 553,-345 673,-345 673,-364"/>
<text text-anchor="middle" x="613" y="-352" font-family="Helvetica,sans-Serif" font-size="10.00">show_error_message</text>
</a>
</g>
</g>
<!-- Node2&#45;&gt;Node138 -->
<g id="edge44" class="edge">
<title>Node2&#45;&gt;Node138</title>
<path fill="none" stroke="#63b8ff" d="M177.19,-316.89C257.5,-323.84 441.66,-339.77 542.64,-348.5"/>
<polygon fill="#63b8ff" stroke="#63b8ff" points="542.47,-352 552.74,-349.37 543.08,-345.03 542.47,-352"/>
</g>
<!-- Node139 -->
<g id="node30" class="node">
<title>Node139</title>
<g id="a_node30"><a xlink:href="lexer__init_8c.html#aee55447f2c8b083ed2614fa4f439f9cc" target="_top" xlink:title=" ">
<polygon fill="white" stroke="#666666" points="302.5,-222 240.5,-222 240.5,-203 302.5,-203 302.5,-222"/>
<text text-anchor="middle" x="271.5" y="-210" font-family="Helvetica,sans-Serif" font-size="10.00">lexer_init</text>
</a>
</g>
</g>
<!-- Node2&#45;&gt;Node139 -->
<g id="edge40" class="edge">
<title>Node2&#45;&gt;Node139</title>
<path fill="none" stroke="#63b8ff" d="M144.25,-303.93C155.82,-286.94 182.23,-251.42 213,-231.5 218.39,-228.01 224.47,-225.11 230.62,-222.71"/>
<polygon fill="#63b8ff" stroke="#63b8ff" points="231.96,-225.95 240.23,-219.34 229.64,-219.34 231.96,-225.95"/>
</g>
<!-- Node140 -->
<g id="node31" class="node">
<title>Node140</title>
<g id="a_node31"><a xlink:href="parser__init_8c.html#a7a5dc445fa057a393d0b94590acea2f1" target="_top" xlink:title=" ">
<polygon fill="white" stroke="#666666" points="305.5,-259 237.5,-259 237.5,-240 305.5,-240 305.5,-259"/>
<text text-anchor="middle" x="271.5" y="-247" font-family="Helvetica,sans-Serif" font-size="10.00">parser_init</text>
</a>
</g>
</g>
<!-- Node2&#45;&gt;Node140 -->
<g id="edge41" class="edge">
<title>Node2&#45;&gt;Node140</title>
<path fill="none" stroke="#63b8ff" d="M151.86,-303.9C166.54,-294.05 190.64,-278.75 213,-268.5 217.72,-266.34 222.75,-264.3 227.81,-262.43"/>
<polygon fill="#63b8ff" stroke="#63b8ff" points="229.21,-265.64 237.48,-259.02 226.88,-259.04 229.21,-265.64"/>
</g>
<!-- Node3&#45;&gt;Node3 -->
<g id="edge3" class="edge">
<title>Node3&#45;&gt;Node3</title>
<path fill="none" stroke="#63b8ff" d="M250.85,-167.08C240.8,-175.73 247.68,-185 271.5,-185 286.76,-185 295.07,-181.2 296.43,-176.19"/>
<polygon fill="#63b8ff" stroke="#63b8ff" points="299.57,-174.65 292.15,-167.08 293.23,-177.62 299.57,-174.65"/>
</g>
<!-- Node4 -->
<g id="node4" class="node">
<title>Node4</title>
<g id="a_node4"><a xlink:href="misc_8h.html#a1180cae2875b1fdcd58c9f9175a82c12" target="_top" xlink:title=" ">
<polygon fill="white" stroke="#666666" points="500,-168 383,-168 383,-149 500,-149 500,-168"/>
<text text-anchor="middle" x="441.5" y="-156" font-family="Helvetica,sans-Serif" font-size="10.00">my_free_word_array</text>
</a>
</g>
</g>
<!-- Node3&#45;&gt;Node4 -->
<g id="edge4" class="edge">
<title>Node3&#45;&gt;Node4</title>
<path fill="none" stroke="#63b8ff" d="M308.54,-157.71C327.18,-157.83 350.57,-157.96 372.45,-158.09"/>
<polygon fill="#63b8ff" stroke="#63b8ff" points="372.69,-161.6 382.71,-158.16 372.73,-154.6 372.69,-161.6"/>
</g>
<!-- Node6 -->
<g id="node6" class="node">
<title>Node6</title>
<g id="a_node6"><a xlink:href="lexer__init_8c.html#a592247dc9c102c884630b41389a1b38b" target="_top" xlink:title=" ">
<polygon fill="white" stroke="#666666" points="483,-307 400,-307 400,-288 483,-288 483,-307"/>
<text text-anchor="middle" x="441.5" y="-295" font-family="Helvetica,sans-Serif" font-size="10.00">lexer_destroy</text>
</a>
</g>
</g>
<!-- Node5&#45;&gt;Node6 -->
<g id="edge6" class="edge">
<title>Node5&#45;&gt;Node6</title>
<path fill="none" stroke="#63b8ff" d="M328.44,-294.16C348.26,-294.75 370.44,-295.41 389.8,-295.99"/>
<polygon fill="#63b8ff" stroke="#63b8ff" points="389.84,-299.49 399.94,-296.29 390.05,-292.5 389.84,-299.49"/>
</g>
<!-- Node7 -->
<g id="node7" class="node">
<title>Node7</title>
<g id="a_node7"><a xlink:href="parser__destroy_8c.html#ae2656460a6fc6b6cd65624312fe0c943" target="_top" xlink:title=" ">
<polygon fill="white" stroke="#666666" points="486,-270 397,-270 397,-251 486,-251 486,-270"/>
<text text-anchor="middle" x="441.5" y="-258" font-family="Helvetica,sans-Serif" font-size="10.00">parser_destroy</text>
</a>
</g>
</g>
<!-- Node5&#45;&gt;Node7 -->
<g id="edge7" class="edge">
<title>Node5&#45;&gt;Node7</title>
<path fill="none" stroke="#63b8ff" d="M328.44,-281.84C347.21,-278.27 368.08,-274.29 386.68,-270.75"/>
<polygon fill="#63b8ff" stroke="#63b8ff" points="387.58,-274.14 396.75,-268.83 386.27,-267.27 387.58,-274.14"/>
</g>
<!-- Node8 -->
<g id="node8" class="node">
<title>Node8</title>
<g id="a_node8"><a xlink:href="destroy__token_8c.html#ad1a471ee7b1ccb035d769be1152a370c" target="_top" xlink:title=" ">
<polygon fill="white" stroke="#666666" points="656,-252 570,-252 570,-233 656,-233 656,-252"/>
<text text-anchor="middle" x="613" y="-240" font-family="Helvetica,sans-Serif" font-size="10.00">token_destroy</text>
</a>
</g>
</g>
<!-- Node7&#45;&gt;Node8 -->
<g id="edge8" class="edge">
<title>Node7&#45;&gt;Node8</title>
<path fill="none" stroke="#63b8ff" d="M486.15,-255.86C508.62,-253.48 536.18,-250.55 559.78,-248.05"/>
<polygon fill="#63b8ff" stroke="#63b8ff" points="560.39,-251.5 569.96,-246.96 559.65,-244.54 560.39,-251.5"/>
</g>
<!-- Node10 -->
<g id="node10" class="node">
<title>Node10</title>
<g id="a_node10"><a xlink:href="execute__cmd_8c.html#a94ea9cc5a046ce96e36764bf0e4fa2c0" target="_top" xlink:title=" ">
<polygon fill="white" stroke="#666666" points="482,-568 401,-568 401,-549 482,-549 482,-568"/>
<text text-anchor="middle" x="441.5" y="-556" font-family="Helvetica,sans-Serif" font-size="10.00">execute_cmd</text>
</a>
</g>
</g>
<!-- Node9&#45;&gt;Node10 -->
<g id="edge10" class="edge">
<title>Node9&#45;&gt;Node10</title>
<path fill="none" stroke="#63b8ff" d="M309.37,-587.38C333.24,-582.12 364.63,-575.21 390.71,-569.47"/>
<polygon fill="#63b8ff" stroke="#63b8ff" points="391.77,-572.82 400.79,-567.25 390.27,-565.98 391.77,-572.82"/>
</g>
<!-- Node25 -->
<g id="node15" class="node">
<title>Node25</title>
<g id="a_node15"><a xlink:href="execute__logical__and_8c.html#a4f940752faf9f9a258c49810b21efe47" target="_top" xlink:title=" ">
<polygon fill="white" stroke="#666666" points="499.5,-718 383.5,-718 383.5,-699 499.5,-699 499.5,-718"/>
<text text-anchor="middle" x="441.5" y="-706" font-family="Helvetica,sans-Serif" font-size="10.00">execute_logical_and</text>
</a>
</g>
</g>
<!-- Node9&#45;&gt;Node25 -->
<g id="edge15" class="edge">
<title>Node9&#45;&gt;Node25</title>
<path fill="none" stroke="#63b8ff" d="M285.1,-605.03C301.69,-622.01 332.67,-655.69 366,-675.5 381.38,-684.64 400.64,-690.72 415.72,-695.7"/>
<polygon fill="#63b8ff" stroke="#63b8ff" points="414.8,-699.09 425.4,-699 417.06,-692.46 414.8,-699.09"/>
</g>
<!-- Node26 -->
<g id="node16" class="node">
<title>Node26</title>
<g id="a_node16"><a xlink:href="execute__logical__or_8c.html#a7e732d7c30b07010fa55850051007dcc" target="_top" xlink:title=" ">
<polygon fill="white" stroke="#666666" points="495,-605 388,-605 388,-586 495,-586 495,-605"/>
<text text-anchor="middle" x="441.5" y="-593" font-family="Helvetica,sans-Serif" font-size="10.00">execute_logical_or</text>
</a>
</g>
</g>
<!-- Node9&#45;&gt;Node26 -->
<g id="edge17" class="edge">
<title>Node9&#45;&gt;Node26</title>
<path fill="none" stroke="#63b8ff" d="M309.37,-589.8C329.39,-588.8 354.7,-588.51 377.73,-588.95"/>
<polygon fill="#63b8ff" stroke="#63b8ff" points="377.7,-592.45 387.78,-589.18 377.87,-585.45 377.7,-592.45"/>
</g>
<!-- Node27 -->
<g id="node17" class="node">
<title>Node27</title>
<g id="a_node17"><a xlink:href="execute__pipe_8c.html#a5f3546dc2c7cf06c982afba41e722164" target="_top" xlink:title=" ">
<polygon fill="white" stroke="#666666" points="482,-755 401,-755 401,-736 482,-736 482,-755"/>
<text text-anchor="middle" x="441.5" y="-743" font-family="Helvetica,sans-Serif" font-size="10.00">execute_pipe</text>
</a>
</g>
</g>
<!-- Node9&#45;&gt;Node27 -->
<g id="edge19" class="edge">
<title>Node9&#45;&gt;Node27</title>
<path fill="none" stroke="#63b8ff" d="M276.48,-605.28C287.06,-629.98 318.35,-695.19 366,-727.5 373.44,-732.55 382.15,-736.18 390.93,-738.8"/>
<polygon fill="#63b8ff" stroke="#63b8ff" points="390.25,-742.24 400.81,-741.35 392,-735.46 390.25,-742.24"/>
</g>
<!-- Node32 -->
<g id="node22" class="node">
<title>Node32</title>
<g id="a_node22"><a xlink:href="execute__redirect_8c.html#a1004307aba80117ddd99f009e52fb155" target="_top" xlink:title=" ">
<polygon fill="#fff0f0" stroke="red" points="490.5,-531 392.5,-531 392.5,-512 490.5,-512 490.5,-531"/>
<text text-anchor="middle" x="441.5" y="-519" font-family="Helvetica,sans-Serif" font-size="10.00">execute_redirect</text>
</a>
</g>
</g>
<!-- Node9&#45;&gt;Node32 -->
<g id="edge28" class="edge">
<title>Node9&#45;&gt;Node32</title>
<path fill="none" stroke="#63b8ff" d="M286.11,-585.82C303.77,-573.66 335.87,-552.91 366,-540.5 371.91,-538.06 378.22,-535.88 384.57,-533.93"/>
<polygon fill="#63b8ff" stroke="#63b8ff" points="385.89,-537.19 394.53,-531.06 383.95,-530.46 385.89,-537.19"/>
</g>
<!-- Node40 -->
<g id="node23" class="node">
<title>Node40</title>
<g id="a_node23"><a xlink:href="execute__repeat_8c.html#a00d48683c54b50130b4a402e6e97fa97" target="_top" xlink:title=" ">
<polygon fill="white" stroke="#666666" points="487.5,-494 395.5,-494 395.5,-475 487.5,-475 487.5,-494"/>
<text text-anchor="middle" x="441.5" y="-482" font-family="Helvetica,sans-Serif" font-size="10.00">execute_repeat</text>
</a>
</g>
</g>
<!-- Node9&#45;&gt;Node40 -->
<g id="edge29" class="edge">
<title>Node9&#45;&gt;Node40</title>
<path fill="none" stroke="#63b8ff" d="M276.44,-585.9C288.11,-564.85 324.34,-517.99 366,-494.5 372.01,-491.11 378.64,-488.31 385.39,-486.08"/>
<polygon fill="#63b8ff" stroke="#63b8ff" points="386.66,-489.36 395.3,-483.22 384.72,-482.63 386.66,-489.36"/>
</g>
<!-- Node41 -->
<g id="node24" class="node">
<title>Node41</title>
<g id="a_node24"><a xlink:href="execute__sequence_8c.html#aad2caa5bf50b0752dd8272da477ec231" target="_top" xlink:title=" ">
<polygon fill="white" stroke="#666666" points="495,-457 388,-457 388,-438 495,-438 495,-457"/>
<text text-anchor="middle" x="441.5" y="-445" font-family="Helvetica,sans-Serif" font-size="10.00">execute_sequence</text>
</a>
</g>
</g>
<!-- Node9&#45;&gt;Node41 -->
<g id="edge31" class="edge">
<title>Node9&#45;&gt;Node41</title>
<path fill="none" stroke="#63b8ff" d="M275.01,-585.9C283.99,-559.83 316.58,-491.07 366,-457.5 369.77,-454.94 373.85,-452.73 378.1,-450.83"/>
<polygon fill="#63b8ff" stroke="#63b8ff" points="379.54,-454.03 387.62,-447.19 377.03,-447.5 379.54,-454.03"/>
</g>
<!-- Node42 -->
<g id="node25" class="node">
<title>Node42</title>
<g id="a_node25"><a xlink:href="execute__subshell_8c.html#a40a27866de012b013a337f794a858d70" target="_top" xlink:title=" ">
<polygon fill="white" stroke="#666666" points="492,-642 391,-642 391,-623 492,-623 492,-642"/>
<text text-anchor="middle" x="441.5" y="-630" font-family="Helvetica,sans-Serif" font-size="10.00">execute_subshell</text>
</a>
</g>
</g>
<!-- Node9&#45;&gt;Node42 -->
<g id="edge33" class="edge">
<title>Node9&#45;&gt;Node42</title>
<path fill="none" stroke="#63b8ff" d="M309.37,-597.92C339.13,-602.99 380.57,-612.21 408.85,-620.11"/>
<polygon fill="#63b8ff" stroke="#63b8ff" points="408.04,-623.53 418.62,-622.96 410,-616.8 408.04,-623.53"/>
</g>
<!-- Node11 -->
<g id="node11" class="node">
<title>Node11</title>
<g id="a_node11"><a xlink:href="execute__cmd_8c.html#a0cfd2364134e68efdd39533e00b4b0d9" target="_top" xlink:title=" ">
<polygon fill="#fff0f0" stroke="red" points="672.5,-531 553.5,-531 553.5,-512 672.5,-512 672.5,-531"/>
<text text-anchor="middle" x="613" y="-519" font-family="Helvetica,sans-Serif" font-size="10.00">execute_local_binary</text>
</a>
</g>
</g>
<!-- Node10&#45;&gt;Node11 -->
<g id="edge11" class="edge">
<title>Node10&#45;&gt;Node11</title>
<path fill="none" stroke="#63b8ff" d="M482.24,-549.83C504.94,-544.87 533.72,-538.59 558.4,-533.2"/>
<polygon fill="#63b8ff" stroke="#63b8ff" points="559.32,-536.58 568.34,-531.03 557.83,-529.74 559.32,-536.58"/>
</g>
<!-- Node19 -->
<g id="node12" class="node">
<title>Node19</title>
<g id="a_node12"><a xlink:href="execute__cmd_8c.html#a460126af28ab29df4340554fae9fc57a" target="_top" xlink:title=" ">
<polygon fill="#fff0f0" stroke="red" points="672,-605 554,-605 554,-586 672,-586 672,-605"/>
<text text-anchor="middle" x="613" y="-593" font-family="Helvetica,sans-Serif" font-size="10.00">execute_path_binary</text>
</a>
</g>
</g>
<!-- Node10&#45;&gt;Node19 -->
<g id="edge12" class="edge">
<title>Node10&#45;&gt;Node19</title>
<path fill="none" stroke="#63b8ff" d="M482.24,-567.17C504.94,-572.13 533.72,-578.41 558.4,-583.8"/>
<polygon fill="#63b8ff" stroke="#63b8ff" points="557.83,-587.26 568.34,-585.97 559.32,-580.42 557.83,-587.26"/>
</g>
<!-- Node24 -->
<g id="node14" class="node">
<title>Node24</title>
<g id="a_node14"><a xlink:href="strings_8h.html#a36f055c4e56c8a784629908d0c5b91e5" target="_top" xlink:title=" ">
<polygon fill="white" stroke="#666666" points="665,-568 561,-568 561,-549 665,-549 665,-568"/>
<text text-anchor="middle" x="613" y="-556" font-family="Helvetica,sans-Serif" font-size="10.00">my_is_char_in_str</text>
</a>
</g>
</g>
<!-- Node10&#45;&gt;Node24 -->
<g id="edge14" class="edge">
<title>Node10&#45;&gt;Node24</title>
<path fill="none" stroke="#63b8ff" d="M482.24,-558.5C502.61,-558.5 527.85,-558.5 550.65,-558.5"/>
<polygon fill="#63b8ff" stroke="#63b8ff" points="550.93,-562 560.93,-558.5 550.93,-555 550.93,-562"/>
</g>
<!-- Node20 -->
<g id="node13" class="node">
<title>Node20</title>
<g id="a_node13"><a xlink:href="get__variable__value_8c.html#a2edd9900f19af236aa05385a789be3d6" target="_top" xlink:title=" ">
<polygon fill="#fff0f0" stroke="red" points="819,-605 709,-605 709,-586 819,-586 819,-605"/>
<text text-anchor="middle" x="764" y="-593" font-family="Helvetica,sans-Serif" font-size="10.00">get_variable_value</text>
</a>
</g>
</g>
<!-- Node19&#45;&gt;Node20 -->
<g id="edge13" class="edge">
<title>Node19&#45;&gt;Node20</title>
<path fill="none" stroke="#63b8ff" d="M672.03,-595.5C680.73,-595.5 689.73,-595.5 698.55,-595.5"/>
<polygon fill="#63b8ff" stroke="#63b8ff" points="698.78,-599 708.78,-595.5 698.78,-592 698.78,-599"/>
</g>
<!-- Node25&#45;&gt;Node9 -->
<g id="edge16" class="edge">
<title>Node25&#45;&gt;Node9</title>
<path fill="none" stroke="#63b8ff" d="M383.2,-701.94C377.22,-699.51 371.37,-696.69 366,-693.5 330.77,-672.56 298.16,-636.12 282.4,-613.73"/>
<polygon fill="#63b8ff" stroke="#63b8ff" points="285.14,-611.52 276.73,-605.08 279.29,-615.36 285.14,-611.52"/>
</g>
<!-- Node26&#45;&gt;Node9 -->
<g id="edge18" class="edge">
<title>Node26&#45;&gt;Node9</title>
<path fill="none" stroke="#63b8ff" d="M387.78,-601.82C365.89,-602.45 340.69,-602.39 319.45,-601.63"/>
<polygon fill="#63b8ff" stroke="#63b8ff" points="319.51,-598.13 309.37,-601.2 319.21,-605.12 319.51,-598.13"/>
</g>
<!-- Node28 -->
<g id="node18" class="node">
<title>Node28</title>
<g id="a_node18"><a xlink:href="execute__pipe_8c.html#a723ff799f939872d17f109a82342294e" target="_top" xlink:title=" ">
<polygon fill="white" stroke="#666666" points="795,-755 733,-755 733,-736 795,-736 795,-755"/>
<text text-anchor="middle" x="764" y="-743" font-family="Helvetica,sans-Serif" font-size="10.00">close_fds</text>
</a>
</g>
</g>
<!-- Node27&#45;&gt;Node28 -->
<g id="edge20" class="edge">
<title>Node27&#45;&gt;Node28</title>
<path fill="none" stroke="#63b8ff" d="M482.12,-745.5C543.55,-745.5 661.11,-745.5 722.86,-745.5"/>
<polygon fill="#63b8ff" stroke="#63b8ff" points="722.99,-749 732.99,-745.5 722.99,-742 722.99,-749"/>
</g>
<!-- Node29 -->
<g id="node19" class="node">
<title>Node29</title>
<g id="a_node19"><a xlink:href="execute__pipe_8c.html#ac529ffc2370b0133613ef8a81e58ed85" target="_top" xlink:title=" ">
<polygon fill="white" stroke="#666666" points="664,-717 562,-717 562,-698 664,-698 664,-717"/>
<text text-anchor="middle" x="613" y="-705" font-family="Helvetica,sans-Serif" font-size="10.00">execute_pipe_left</text>
</a>
</g>
</g>
<!-- Node27&#45;&gt;Node29 -->
<g id="edge21" class="edge">
<title>Node27&#45;&gt;Node29</title>
<path fill="none" stroke="#63b8ff" d="M482.24,-736.59C505.29,-731.42 534.59,-724.85 559.52,-719.27"/>
<polygon fill="#63b8ff" stroke="#63b8ff" points="560.55,-722.62 569.55,-717.02 559.02,-715.79 560.55,-722.62"/>
</g>
<!-- Node30 -->
<g id="node20" class="node">
<title>Node30</title>
<g id="a_node20"><a xlink:href="execute__pipe_8c.html#a9ed6eabb8a9f7049f91265a5f45e30c8" target="_top" xlink:title=" ">
<polygon fill="#fff0f0" stroke="red" points="667.5,-793 558.5,-793 558.5,-774 667.5,-774 667.5,-793"/>
<text text-anchor="middle" x="613" y="-781" font-family="Helvetica,sans-Serif" font-size="10.00">execute_pipe_right</text>
</a>
</g>
</g>
<!-- Node27&#45;&gt;Node30 -->
<g id="edge24" class="edge">
<title>Node27&#45;&gt;Node30</title>
<path fill="none" stroke="#63b8ff" d="M482.24,-754.41C505.29,-759.58 534.59,-766.15 559.52,-771.73"/>
<polygon fill="#63b8ff" stroke="#63b8ff" points="559.02,-775.21 569.55,-773.98 560.55,-768.38 559.02,-775.21"/>
</g>
<!-- Node17 -->
<g id="node21" class="node">
<title>Node17</title>
<g id="a_node21"><a xlink:href="wait__for__subprocess_8c.html#a1242d78540fd0ddef3d98a9f294cb0d4" target="_top" xlink:title=" ">
<polygon fill="#fff0f0" stroke="red" points="671,-661 555,-661 555,-642 671,-642 671,-661"/>
<text text-anchor="middle" x="613" y="-649" font-family="Helvetica,sans-Serif" font-size="10.00">wait_for_subprocess</text>
</a>
</g>
</g>
<!-- Node27&#45;&gt;Node17 -->
<g id="edge27" class="edge">
<title>Node27&#45;&gt;Node17</title>
<path fill="none" stroke="#63b8ff" d="M482.01,-740.35C493.8,-737.68 506.41,-733.63 517,-727.5 537.13,-715.84 535.09,-704.35 553,-689.5 563.16,-681.08 575.28,-672.98 585.88,-666.44"/>
<polygon fill="#63b8ff" stroke="#63b8ff" points="587.96,-669.28 594.72,-661.13 584.35,-663.28 587.96,-669.28"/>
</g>
<!-- Node29&#45;&gt;Node9 -->
<g id="edge23" class="edge">
<title>Node29&#45;&gt;Node9</title>
<path fill="none" stroke="#63b8ff" d="M561.75,-698.01C500.57,-686.11 401.06,-665.57 366,-651.5 339.59,-640.9 311.94,-623.43 293.63,-610.82"/>
<polygon fill="#63b8ff" stroke="#63b8ff" points="295.63,-607.94 285.43,-605.07 291.61,-613.67 295.63,-607.94"/>
</g>
<!-- Node29&#45;&gt;Node28 -->
<g id="edge22" class="edge">
<title>Node29&#45;&gt;Node28</title>
<path fill="none" stroke="#63b8ff" d="M651.6,-717.09C673.43,-722.66 700.91,-729.67 723.12,-735.33"/>
<polygon fill="#63b8ff" stroke="#63b8ff" points="722.36,-738.75 732.91,-737.83 724.09,-731.96 722.36,-738.75"/>
</g>
<!-- Node30&#45;&gt;Node9 -->
<g id="edge26" class="edge">
<title>Node30&#45;&gt;Node9</title>
<path fill="none" stroke="#63b8ff" d="M558.98,-793.06C505.85,-799.7 423.83,-801.67 366,-764.5 311.81,-729.67 286.29,-651.93 276.94,-615.31"/>
<polygon fill="#63b8ff" stroke="#63b8ff" points="280.28,-614.26 274.54,-605.35 273.48,-615.9 280.28,-614.26"/>
</g>
<!-- Node30&#45;&gt;Node28 -->
<g id="edge25" class="edge">
<title>Node30&#45;&gt;Node28</title>
<path fill="none" stroke="#63b8ff" d="M651.6,-773.91C673.43,-768.34 700.91,-761.33 723.12,-755.67"/>
<polygon fill="#63b8ff" stroke="#63b8ff" points="724.09,-759.04 732.91,-753.17 722.36,-752.25 724.09,-759.04"/>
</g>
<!-- Node40&#45;&gt;Node9 -->
<g id="edge30" class="edge">
<title>Node40&#45;&gt;Node9</title>
<path fill="none" stroke="#63b8ff" d="M420.46,-494.04C404.82,-498.09 382.97,-502.93 366,-512.5 335.63,-529.63 308.14,-559.18 290.95,-578.24"/>
<polygon fill="#63b8ff" stroke="#63b8ff" points="288.32,-575.93 284.23,-585.7 293.52,-580.61 288.32,-575.93"/>
</g>
<!-- Node41&#45;&gt;Node9 -->
<g id="edge32" class="edge">
<title>Node41&#45;&gt;Node9</title>
<path fill="none" stroke="#63b8ff" d="M416.64,-457.04C401.1,-460.58 381.02,-465.3 366,-475.5 327.08,-501.94 298.6,-550.2 283.87,-576.97"/>
<polygon fill="#63b8ff" stroke="#63b8ff" points="280.78,-575.32 279.07,-585.78 286.93,-578.67 280.78,-575.32"/>
</g>
<!-- Node42&#45;&gt;Node9 -->
<g id="edge34" class="edge">
<title>Node42&#45;&gt;Node9</title>
<path fill="none" stroke="#63b8ff" d="M390.97,-627.81C362.95,-622.55 328.73,-614.75 304.29,-607.93"/>
<polygon fill="#63b8ff" stroke="#63b8ff" points="305.04,-604.5 294.46,-605.07 303.09,-611.22 305.04,-604.5"/>
</g>
<!-- Node42&#45;&gt;Node17 -->
<g id="edge35" class="edge">
<title>Node42&#45;&gt;Node17</title>
<path fill="none" stroke="#63b8ff" d="M492.44,-638.1C508.85,-639.94 527.36,-642.01 544.83,-643.97"/>
<polygon fill="#63b8ff" stroke="#63b8ff" points="544.65,-647.47 554.98,-645.11 545.43,-640.52 544.65,-647.47"/>
</g>
<!-- Node44 -->
<g id="node27" class="node">
<title>Node44</title>
<g id="a_node27"><a xlink:href="empty__stdin_8c.html#a4c89df10296f2cc245e3a32065e04e7b" target="_top" xlink:title=" ">
<polygon fill="white" stroke="#666666" points="480,-420 403,-420 403,-401 480,-401 480,-420"/>
<text text-anchor="middle" x="441.5" y="-408" font-family="Helvetica,sans-Serif" font-size="10.00">empty_stdin</text>
</a>
</g>
</g>
<!-- Node43&#45;&gt;Node44 -->
<g id="edge37" class="edge">
<title>Node43&#45;&gt;Node44</title>
<path fill="none" stroke="#63b8ff" d="M315.76,-383.03C339.33,-388.22 368.54,-394.65 392.76,-399.99"/>
<polygon fill="#63b8ff" stroke="#63b8ff" points="392.29,-403.47 402.81,-402.2 393.8,-396.63 392.29,-403.47"/>
</g>
<!-- Node45 -->
<g id="node28" class="node">
<title>Node45</title>
<g id="a_node28"><a xlink:href="shell_8c.html#a2c9bd51744387dc73763281019d78622" target="_top" xlink:title=" ">
<polygon fill="#fff0f0" stroke="red" points="473.5,-383 409.5,-383 409.5,-364 473.5,-364 473.5,-383"/>
<text text-anchor="middle" x="441.5" y="-371" font-family="Helvetica,sans-Serif" font-size="10.00">parse_ast</text>
</a>
</g>
</g>
<!-- Node43&#45;&gt;Node45 -->
<g id="edge38" class="edge">
<title>Node43&#45;&gt;Node45</title>
<path fill="none" stroke="#63b8ff" d="M317.08,-373.5C342.51,-373.5 374.18,-373.5 399.07,-373.5"/>
<polygon fill="#63b8ff" stroke="#63b8ff" points="399.28,-377 409.28,-373.5 399.28,-370 399.28,-377"/>
</g>
<!-- Node45&#45;&gt;Node138 -->
<g id="edge39" class="edge">
<title>Node45&#45;&gt;Node138</title>
<path fill="none" stroke="#63b8ff" d="M473.59,-370.02C492.99,-367.84 518.77,-364.95 542.81,-362.26"/>
<polygon fill="#63b8ff" stroke="#63b8ff" points="543.44,-365.71 552.98,-361.12 542.66,-358.75 543.44,-365.71"/>
</g>
<!-- Node70 -->
<g id="node32" class="node">
<title>Node70</title>
<g id="a_node32"><a xlink:href="parser__next_8c.html#ad25986b565a767c6ad7d0b0b8846fca6" target="_top" xlink:title=" ">
<polygon fill="#fff0f0" stroke="red" points="478.5,-233 404.5,-233 404.5,-214 478.5,-214 478.5,-233"/>
<text text-anchor="middle" x="441.5" y="-221" font-family="Helvetica,sans-Serif" font-size="10.00">parser_next</text>
</a>
</g>
</g>
<!-- Node140&#45;&gt;Node70 -->
<g id="edge42" class="edge">
<title>Node140&#45;&gt;Node70</title>
<path fill="none" stroke="#63b8ff" d="M305.69,-244.36C331.07,-240.44 366.36,-234.97 394.47,-230.62"/>
<polygon fill="#63b8ff" stroke="#63b8ff" points="395.12,-234.06 404.47,-229.08 394.05,-227.15 395.12,-234.06"/>
</g>
<!-- Node70&#45;&gt;Node8 -->
<g id="edge43" class="edge">
<title>Node70&#45;&gt;Node8</title>
<path fill="none" stroke="#63b8ff" d="M478.86,-227.58C502.39,-230.21 533.41,-233.69 559.58,-236.62"/>
<polygon fill="#63b8ff" stroke="#63b8ff" points="559.39,-240.12 569.72,-237.76 560.17,-233.17 559.39,-240.12"/>
</g>
<!-- Node142 -->
<g id="node34" class="node">
<title>Node142</title>
<g id="a_node34"><a xlink:href="env__to__list_8c.html#a11c46ed192ca0ad8a479ed9a317f135e" target="_top" xlink:title=" ">
<polygon fill="white" stroke="#666666" points="476.5,-906 406.5,-906 406.5,-887 476.5,-887 476.5,-906"/>
<text text-anchor="middle" x="441.5" y="-894" font-family="Helvetica,sans-Serif" font-size="10.00">env_to_list</text>
</a>
</g>
</g>
<!-- Node141&#45;&gt;Node142 -->
<g id="edge46" class="edge">
<title>Node141&#45;&gt;Node142</title>
<path fill="none" stroke="#63b8ff" d="M152.53,-849.01C167.15,-858.05 190.67,-871.17 213,-877.5 274.86,-895.03 349.68,-897.97 396.19,-897.78"/>
<polygon fill="#63b8ff" stroke="#63b8ff" points="396.27,-901.28 406.24,-897.68 396.21,-894.28 396.27,-901.28"/>
</g>
<!-- Node146 -->
<g id="node39" class="node">
<title>Node146</title>
<g id="a_node39"><a xlink:href="shell_8c.html#a2f3ef7bd282a23f9a3c63eadf5b60657" target="_top" xlink:title=" ">
<polygon fill="white" stroke="#666666" points="312.5,-868 230.5,-868 230.5,-849 312.5,-849 312.5,-868"/>
<text text-anchor="middle" x="271.5" y="-856" font-family="Helvetica,sans-Serif" font-size="10.00">handle_sigint</text>
</a>
</g>
</g>
<!-- Node141&#45;&gt;Node146 -->
<g id="edge51" class="edge">
<title>Node141&#45;&gt;Node146</title>
<path fill="none" stroke="#63b8ff" d="M167.74,-843.76C183.17,-845.98 202.45,-848.74 220.13,-851.28"/>
<polygon fill="#63b8ff" stroke="#63b8ff" points="219.92,-854.78 230.31,-852.74 220.91,-847.85 219.92,-854.78"/>
</g>
<!-- Node147 -->
<g id="node40" class="node">
<title>Node147</title>
<g id="a_node40"><a xlink:href="shell_8c.html#ad4e9c36df0b2cc333b20e6b743722899" target="_top" xlink:title=" ">
<polygon fill="white" stroke="#666666" points="313,-831 230,-831 230,-812 313,-812 313,-831"/>
<text text-anchor="middle" x="271.5" y="-819" font-family="Helvetica,sans-Serif" font-size="10.00">init_variables</text>
</a>
</g>
</g>
<!-- Node141&#45;&gt;Node147 -->
<g id="edge52" class="edge">
<title>Node141&#45;&gt;Node147</title>
<path fill="none" stroke="#63b8ff" d="M167.74,-835.46C183.04,-833.38 202.13,-830.79 219.69,-828.4"/>
<polygon fill="#63b8ff" stroke="#63b8ff" points="220.37,-831.84 229.81,-827.03 219.43,-824.91 220.37,-831.84"/>
</g>
<!-- Node143 -->
<g id="node35" class="node">
<title>Node143</title>
<g id="a_node35"><a xlink:href="free__variable_8c.html#a6cfba30b5c98d6fa7663b6bc29fe01cc" target="_top" xlink:title=" ">
<polygon fill="white" stroke="#666666" points="653.5,-906 572.5,-906 572.5,-887 653.5,-887 653.5,-906"/>
<text text-anchor="middle" x="613" y="-894" font-family="Helvetica,sans-Serif" font-size="10.00">free_variable</text>
</a>
</g>
</g>
<!-- Node142&#45;&gt;Node143 -->
<g id="edge47" class="edge">
<title>Node142&#45;&gt;Node143</title>
<path fill="none" stroke="#63b8ff" d="M476.8,-896.5C501.33,-896.5 534.73,-896.5 562.2,-896.5"/>
<polygon fill="#63b8ff" stroke="#63b8ff" points="562.4,-900 572.4,-896.5 562.4,-893 562.4,-900"/>
</g>
<!-- Node144 -->
<g id="node36" class="node">
<title>Node144</title>
<g id="a_node36"><a xlink:href="list_8h.html#a56c2e407458d3d071ab549938bc5a7c1" target="_top" xlink:title=" ">
<polygon fill="white" stroke="#666666" points="658.5,-869 567.5,-869 567.5,-850 658.5,-850 658.5,-869"/>
<text text-anchor="middle" x="613" y="-857" font-family="Helvetica,sans-Serif" font-size="10.00">my_add_to_list</text>
</a>
</g>
</g>
<!-- Node142&#45;&gt;Node144 -->
<g id="edge48" class="edge">
<title>Node142&#45;&gt;Node144</title>
<path fill="none" stroke="#63b8ff" d="M476.8,-889.01C500.22,-883.9 531.71,-877.03 558.42,-871.2"/>
<polygon fill="#63b8ff" stroke="#63b8ff" points="559.36,-874.57 568.39,-869.02 557.87,-867.73 559.36,-874.57"/>
</g>
<!-- Node61 -->
<g id="node37" class="node">
<title>Node61</title>
<g id="a_node37"><a xlink:href="list_8h.html#a68908a98f87b64d0b0fa9ac090a70cad" target="_top" xlink:title=" ">
<polygon fill="white" stroke="#666666" points="651.5,-980 574.5,-980 574.5,-961 651.5,-961 651.5,-980"/>
<text text-anchor="middle" x="613" y="-968" font-family="Helvetica,sans-Serif" font-size="10.00">my_free_list</text>
</a>
</g>
</g>
<!-- Node142&#45;&gt;Node61 -->
<g id="edge49" class="edge">
<title>Node142&#45;&gt;Node61</title>
<path fill="none" stroke="#63b8ff" d="M476.6,-901.74C489.82,-904.75 504.71,-909.4 517,-916.5 536.59,-927.82 533.6,-940.85 553,-952.5 556.67,-954.7 560.63,-956.65 564.7,-958.38"/>
<polygon fill="#63b8ff" stroke="#63b8ff" points="563.72,-961.75 574.31,-962.02 566.19,-955.21 563.72,-961.75"/>
</g>
<!-- Node145 -->
<g id="node38" class="node">
<title>Node145</title>
<g id="a_node38"><a xlink:href="strings_8h.html#a27d061f38fee80ecc582a343015ebc5c" target="_top" xlink:title=" ">
<polygon fill="white" stroke="#666666" points="653,-943 573,-943 573,-924 653,-924 653,-943"/>
<text text-anchor="middle" x="613" y="-931" font-family="Helvetica,sans-Serif" font-size="10.00">my_getindex</text>
</a>
</g>
</g>
<!-- Node142&#45;&gt;Node145 -->
<g id="edge50" class="edge">
<title>Node142&#45;&gt;Node145</title>
<path fill="none" stroke="#63b8ff" d="M476.8,-903.99C501.53,-909.39 535.26,-916.75 562.85,-922.77"/>
<polygon fill="#63b8ff" stroke="#63b8ff" points="562.19,-926.21 572.7,-924.92 563.68,-919.37 562.19,-926.21"/>
</g>
<!-- Node147&#45;&gt;Node20 -->
<g id="edge53" class="edge">
<title>Node147&#45;&gt;Node20</title>
<path fill="none" stroke="#63b8ff" d="M313.05,-824.82C402.96,-831.37 615.64,-842.09 673,-802.5 681.36,-796.73 735.17,-664.63 755.36,-614.53"/>
<polygon fill="#63b8ff" stroke="#63b8ff" points="758.65,-615.74 759.13,-605.16 752.15,-613.13 758.65,-615.74"/>
</g>
<!-- Node148 -->
<g id="node41" class="node">
<title>Node148</title>
<g id="a_node41"><a xlink:href="set__variable_8c.html#a47afbd80fec3464fe83979a24adb4290" target="_top" xlink:title=" ">
<polygon fill="#fff0f0" stroke="red" points="480,-869 403,-869 403,-850 480,-850 480,-869"/>
<text text-anchor="middle" x="441.5" y="-857" font-family="Helvetica,sans-Serif" font-size="10.00">set_variable</text>
</a>
</g>
</g>
<!-- Node147&#45;&gt;Node148 -->
<g id="edge54" class="edge">
<title>Node147&#45;&gt;Node148</title>
<path fill="none" stroke="#63b8ff" d="M313.17,-830.7C337.15,-836.12 367.62,-843.02 392.75,-848.7"/>
<polygon fill="#63b8ff" stroke="#63b8ff" points="392.27,-852.18 402.79,-850.97 393.81,-845.35 392.27,-852.18"/>
</g>
<!-- Node148&#45;&gt;Node143 -->
<g id="edge55" class="edge">
<title>Node148&#45;&gt;Node143</title>
<path fill="none" stroke="#63b8ff" d="M480.12,-867.71C504.42,-873.02 536.3,-879.98 562.63,-885.72"/>
<polygon fill="#63b8ff" stroke="#63b8ff" points="561.91,-889.15 572.42,-887.86 563.4,-882.31 561.91,-889.15"/>
</g>
<!-- Node148&#45;&gt;Node144 -->
<g id="edge56" class="edge">
<title>Node148&#45;&gt;Node144</title>
<path fill="none" stroke="#63b8ff" d="M480.12,-859.5C502.75,-859.5 531.95,-859.5 557.12,-859.5"/>
<polygon fill="#63b8ff" stroke="#63b8ff" points="557.27,-863 567.27,-859.5 557.27,-856 557.27,-863"/>
</g>
<!-- Node92 -->
<g id="node43" class="node">
<title>Node92</title>
<g id="a_node43"><a xlink:href="strings_8h.html#a5e1589f073ac32d227dbc6020c376dab" target="_top" xlink:title=" ">
<polygon fill="white" stroke="#666666" points="322,-19 221,-19 221,0 322,0 322,-19"/>
<text text-anchor="middle" x="271.5" y="-7" font-family="Helvetica,sans-Serif" font-size="10.00">append_to_buffer</text>
</a>
</g>
</g>
<!-- Node151&#45;&gt;Node92 -->
<g id="edge58" class="edge">
<title>Node151&#45;&gt;Node92</title>
<path fill="none" stroke="#63b8ff" d="M148.41,-73.9C162.22,-61.61 187.82,-40.37 213,-27.5 216.51,-25.7 220.24,-24.05 224.04,-22.53"/>
<polygon fill="#63b8ff" stroke="#63b8ff" points="225.39,-25.76 233.57,-19.03 222.97,-19.19 225.39,-25.76"/>
</g>
<!-- Node152 -->
<g id="node44" class="node">
<title>Node152</title>
<g id="a_node44"><a xlink:href="read__input_8c.html#ab8f53813e21230b48d9ccdc4032c6bee" target="_top" xlink:title=" ">
<polygon fill="white" stroke="#666666" points="329.5,-130 213.5,-130 213.5,-111 329.5,-111 329.5,-130"/>
<text text-anchor="middle" x="271.5" y="-118" font-family="Helvetica,sans-Serif" font-size="10.00">handle_continuation</text>
</a>
</g>
</g>
<!-- Node151&#45;&gt;Node152 -->
<g id="edge59" class="edge">
<title>Node151&#45;&gt;Node152</title>
<path fill="none" stroke="#63b8ff" d="M171.09,-92.74C187.91,-97.44 208.56,-103.2 226.68,-108.26"/>
<polygon fill="#63b8ff" stroke="#63b8ff" points="225.87,-111.67 236.45,-110.99 227.76,-104.93 225.87,-111.67"/>
</g>
<!-- Node154 -->
<g id="node46" class="node">
<title>Node154</title>
<g id="a_node46"><a xlink:href="read__input_8c.html#a3282822bc1e8642066f4f88116a7a6cc" target="_top" xlink:title=" ">
<polygon fill="white" stroke="#666666" points="330,-56 213,-56 213,-37 330,-37 330,-56"/>
<text text-anchor="middle" x="271.5" y="-44" font-family="Helvetica,sans-Serif" font-size="10.00">handle_getline_error</text>
</a>
</g>
</g>
<!-- Node151&#45;&gt;Node154 -->
<g id="edge61" class="edge">
<title>Node151&#45;&gt;Node154</title>
<path fill="none" stroke="#63b8ff" d="M171.09,-74.26C187.91,-69.56 208.56,-63.8 226.68,-58.74"/>
<polygon fill="#63b8ff" stroke="#63b8ff" points="227.76,-62.07 236.45,-56.01 225.87,-55.33 227.76,-62.07"/>
</g>
<!-- Node155 -->
<g id="node47" class="node">
<title>Node155</title>
<g id="a_node47"><a xlink:href="read__input_8c.html#a274fec2b4095d4827436685c0b6b4afa" target="_top" xlink:title=" ">
<polygon fill="white" stroke="#666666" points="313,-93 230,-93 230,-74 313,-74 313,-93"/>
<text text-anchor="middle" x="271.5" y="-81" font-family="Helvetica,sans-Serif" font-size="10.00">show_prompt</text>
</a>
</g>
</g>
<!-- Node151&#45;&gt;Node155 -->
<g id="edge62" class="edge">
<title>Node151&#45;&gt;Node155</title>
<path fill="none" stroke="#63b8ff" d="M171.09,-83.5C185.68,-83.5 203.16,-83.5 219.36,-83.5"/>
<polygon fill="#63b8ff" stroke="#63b8ff" points="219.78,-87 229.78,-83.5 219.78,-80 219.78,-87"/>
</g>
<!-- Node153 -->
<g id="node45" class="node">
<title>Node153</title>
<g id="a_node45"><a xlink:href="read__input_8c.html#ab1d0f5b306ce10bb8fff68a7a4aaf428" target="_top" xlink:title=" ">
<polygon fill="white" stroke="#666666" points="489.5,-131 393.5,-131 393.5,-112 489.5,-112 489.5,-131"/>
<text text-anchor="middle" x="441.5" y="-119" font-family="Helvetica,sans-Serif" font-size="10.00">should_continue</text>
</a>
</g>
</g>
<!-- Node152&#45;&gt;Node153 -->
<g id="edge60" class="edge">
<title>Node152&#45;&gt;Node153</title>
<path fill="none" stroke="#63b8ff" d="M329.85,-120.84C347.01,-120.94 365.82,-121.06 382.99,-121.16"/>
<polygon fill="#63b8ff" stroke="#63b8ff" points="383.42,-124.66 393.44,-121.22 383.46,-117.66 383.42,-124.66"/>
</g>
<!-- Node156 -->
<g id="node48" class="node">
<title>Node156</title>
<g id="a_node48"><a xlink:href="read__input_8c.html#a6a144d0d5270ba0d210fcb5f39d7fc63" target="_top" xlink:title=" ">
<polygon fill="white" stroke="#666666" points="669.5,-93 556.5,-93 556.5,-74 669.5,-74 669.5,-93"/>
<text text-anchor="middle" x="613" y="-81" font-family="Helvetica,sans-Serif" font-size="10.00">print_prompt_prefix</text>
</a>
</g>
</g>
<!-- Node155&#45;&gt;Node156 -->
<g id="edge63" class="edge">
<title>Node155&#45;&gt;Node156</title>
<path fill="none" stroke="#63b8ff" d="M313.11,-83.5C370.79,-83.5 477.06,-83.5 546.11,-83.5"/>
<polygon fill="#63b8ff" stroke="#63b8ff" points="546.43,-87 556.43,-83.5 546.43,-80 546.43,-87"/>
</g>
<!-- Node157 -->
<g id="node49" class="node">
<title>Node157</title>
<g id="a_node49"><a xlink:href="read__input_8c.html#a95fff78135b5c85ed0ff754f303e28f7" target="_top" xlink:title=" ">
<polygon fill="white" stroke="#666666" points="517,-55 366,-55 366,-36 517,-36 517,-55"/>
<text text-anchor="middle" x="441.5" y="-43" font-family="Helvetica,sans-Serif" font-size="10.00">show_prompt_with_curr_dir</text>
</a>
</g>
</g>
<!-- Node155&#45;&gt;Node157 -->
<g id="edge64" class="edge">
<title>Node155&#45;&gt;Node157</title>
<path fill="none" stroke="#63b8ff" d="M313.17,-74.3C335.87,-69.17 364.39,-62.72 388.68,-57.22"/>
<polygon fill="#63b8ff" stroke="#63b8ff" points="389.47,-60.63 398.45,-55.01 387.93,-53.8 389.47,-60.63"/>
</g>
<!-- Node157&#45;&gt;Node20 -->
<g id="edge65" class="edge">
<title>Node157&#45;&gt;Node20</title>
<path fill="none" stroke="#63b8ff" d="M480.28,-35.99C531,-25.7 620.79,-16.58 673,-64.5 749.97,-135.14 761.14,-487.07 762.74,-575.38"/>
<polygon fill="#63b8ff" stroke="#63b8ff" points="759.24,-575.68 762.9,-585.63 766.24,-575.57 759.24,-575.68"/>
</g>
<!-- Node157&#45;&gt;Node156 -->
<g id="edge66" class="edge">
<title>Node157&#45;&gt;Node156</title>
<path fill="none" stroke="#63b8ff" d="M485.27,-55.09C507.84,-60.15 535.72,-66.4 559.58,-71.75"/>
<polygon fill="#63b8ff" stroke="#63b8ff" points="559.01,-75.21 569.54,-73.98 560.54,-68.38 559.01,-75.21"/>
</g>
<!-- Node158&#45;&gt;Node143 -->
<g id="edge68" class="edge">
<title>Node158&#45;&gt;Node143</title>
<path fill="none" stroke="#63b8ff" d="M482.67,-925.49C506.61,-920.13 537.18,-913.27 562.59,-907.58"/>
<polygon fill="#63b8ff" stroke="#63b8ff" points="563.42,-910.98 572.41,-905.38 561.89,-904.15 563.42,-910.98"/>
</g>
<!-- Node158&#45;&gt;Node61 -->
<g id="edge69" class="edge">
<title>Node158&#45;&gt;Node61</title>
<path fill="none" stroke="#63b8ff" d="M482.67,-943.03C507.21,-948.24 538.73,-954.94 564.51,-960.41"/>
<polygon fill="#63b8ff" stroke="#63b8ff" points="563.93,-963.87 574.44,-962.52 565.39,-957.02 563.93,-963.87"/>
</g>
</g>
</svg>
        <g id="navigator" transform="translate(0 0)" fill="#404254">
                <rect fill="#f2f5e9" fill-opacity="0.5" stroke="#606060" stroke-width=".5" x="0" y="0" width="60" height="60"/>
                <use id="zoomplus" xlink:href="#zoomPlus" x="17" y="9" onmousedown="handleZoom(evt,'in')"/>
                <use id="zoomminus" xlink:href="#zoomMin" x="42" y="9" onmousedown="handleZoom(evt,'out')"/>
                <use id="reset" xlink:href="#resetDef" x="30" y="36" onmousedown="handleReset()"/>
                <g id="arrowUp" xlink:href="#dirArrow" transform="translate(30 24)" onmousedown="handlePan(0,-1)">
                  <use xlink:href="#rim" fill="#404040">
                        <set attributeName="fill" to="#808080" begin="arrowUp.mouseover" end="arrowUp.mouseout"/>
                  </use>
                  <path fill="none" stroke="white" stroke-width="1.5" d="M0,-3.0v7 M-2.5,-0.5L0,-3.0L2.5,-0.5"/>
                </g>
                <g id="arrowRight" xlink:href="#dirArrow" transform="rotate(90) translate(36 -43)" onmousedown="handlePan(1,0)">
                  <use xlink:href="#rim" fill="#404040">
                        <set attributeName="fill" to="#808080" begin="arrowRight.mouseover" end="arrowRight.mouseout"/>
                  </use>
                  <path fill="none" stroke="white" stroke-width="1.5" d="M0,-3.0v7 M-2.5,-0.5L0,-3.0L2.5,-0.5"/>
                </g>
                <g id="arrowDown" xlink:href="#dirArrow" transform="rotate(180) translate(-30 -48)" onmousedown="handlePan(0,1)">
                  <use xlink:href="#rim" fill="#404040">
                        <set attributeName="fill" to="#808080" begin="arrowDown.mouseover" end="arrowDown.mouseout"/>
                  </use>
                  <path fill="none" stroke="white" stroke-width="1.5" d="M0,-3.0v7 M-2.5,-0.5L0,-3.0L2.5,-0.5"/>
                </g>
                <g id="arrowLeft" xlink:href="#dirArrow" transform="rotate(270) translate(-36 17)" onmousedown="handlePan(-1,0)">
                  <use xlink:href="#rim" fill="#404040">
                        <set attributeName="fill" to="#808080" begin="arrowLeft.mouseover" end="arrowLeft.mouseout"/>
                  </use>
                  <path fill="none" stroke="white" stroke-width="1.5" d="M0,-3.0v7 M-2.5,-0.5L0,-3.0L2.5,-0.5"/>
                </g>
        </g>
        <svg viewBox="0 0 15 15" width="100%" height="30px" preserveAspectRatio="xMaxYMin meet">
         <g id="arrow_out" transform="scale(0.3 0.3)">
          <a xlink:href="shell_8h_ad0c642810cef7d35602fd99eaec9e3de_cgraph_org.svg" target="_base">
           <rect id="button" ry="5" rx="5" y="6" x="6" height="38" width="38"
                fill="#f2f5e9" fill-opacity="0.5" stroke="#606060" stroke-width="1.0"/>
           <path id="arrow"
             d="M 11.500037,31.436501 C 11.940474,20.09759 22.043105,11.32322 32.158766,21.979434 L 37.068811,17.246167 C 37.068811,17.246167 37.088388,32 37.088388,32 L 22.160133,31.978069 C 22.160133,31.978069 26.997745,27.140456 26.997745,27.140456 C 18.528582,18.264221 13.291696,25.230495 11.500037,31.436501 z"
             style="fill:#404040;"/>
          </a>
         </g>
        </svg>
</svg>
