<?xml version="1.0" encoding="UTF-8" standalone="no"?>
<!DOCTYPE svg PUBLIC "-//W3C//DTD SVG 1.1//EN"
 "http://www.w3.org/Graphics/SVG/1.1/DTD/svg11.dtd">
<!-- Generated by graphviz version 2.43.0 (0)
 -->
<!-- Title: src/shell.c Pages: 1 -->
<svg width="785pt" height="302pt"
 viewBox="0.00 0.00 784.50 302.00" xmlns="http://www.w3.org/2000/svg" xmlns:xlink="http://www.w3.org/1999/xlink">
<g id="graph0" class="graph" transform="scale(1 1) rotate(0) translate(4 298)">
<title>src/shell.c</title>
<!-- Node1 -->
<g id="node1" class="node">
<title>Node1</title>
<g id="a_node1"><a xlink:title=" ">
<polygon fill="#999999" stroke="#666666" points="439,-294 374,-294 374,-275 439,-275 439,-294"/>
<text text-anchor="middle" x="406.5" y="-282" font-family="Helvetica,sans-Serif" font-size="10.00">src/shell.c</text>
</a>
</g>
</g>
<!-- Node2 -->
<g id="node2" class="node">
<title>Node2</title>
<g id="a_node2"><a xlink:title=" ">
<polygon fill="#e0e0e0" stroke="#999999" points="55,-239 0,-239 0,-220 55,-220 55,-239"/>
<text text-anchor="middle" x="27.5" y="-227" font-family="Helvetica,sans-Serif" font-size="10.00">signal.h</text>
</a>
</g>
</g>
<!-- Node1&#45;&gt;Node2 -->
<g id="edge1" class="edge">
<title>Node1&#45;&gt;Node2</title>
<path fill="none" stroke="#63b8ff" d="M373.8,-280.31C314.41,-274.28 184.71,-260.06 65.36,-238.99"/>
<polygon fill="#63b8ff" stroke="#63b8ff" points="65.78,-235.51 55.32,-237.19 64.55,-242.4 65.78,-235.51"/>
</g>
<!-- Node3 -->
<g id="node3" class="node">
<title>Node3</title>
<g id="a_node3"><a xlink:title=" ">
<polygon fill="#e0e0e0" stroke="#999999" points="123.5,-239 73.5,-239 73.5,-220 123.5,-220 123.5,-239"/>
<text text-anchor="middle" x="98.5" y="-227" font-family="Helvetica,sans-Serif" font-size="10.00">stdio.h</text>
</a>
</g>
</g>
<!-- Node1&#45;&gt;Node3 -->
<g id="edge2" class="edge">
<title>Node1&#45;&gt;Node3</title>
<path fill="none" stroke="#63b8ff" d="M373.86,-279.1C324.1,-272.21 226.11,-257.85 133.51,-239.06"/>
<polygon fill="#63b8ff" stroke="#63b8ff" points="134.2,-235.63 123.7,-237.05 132.79,-242.49 134.2,-235.63"/>
</g>
<!-- Node4 -->
<g id="node4" class="node">
<title>Node4</title>
<g id="a_node4"><a xlink:title=" ">
<polygon fill="#e0e0e0" stroke="#999999" points="195,-239 142,-239 142,-220 195,-220 195,-239"/>
<text text-anchor="middle" x="168.5" y="-227" font-family="Helvetica,sans-Serif" font-size="10.00">stdlib.h</text>
</a>
</g>
</g>
<!-- Node1&#45;&gt;Node4 -->
<g id="edge3" class="edge">
<title>Node1&#45;&gt;Node4</title>
<path fill="none" stroke="#63b8ff" d="M373.75,-276.56C335.54,-268.41 270.22,-254.31 205.24,-239.37"/>
<polygon fill="#63b8ff" stroke="#63b8ff" points="205.77,-235.9 195.24,-237.06 204.2,-242.72 205.77,-235.9"/>
</g>
<!-- Node5 -->
<g id="node5" class="node">
<title>Node5</title>
<g id="a_node5"><a xlink:title=" ">
<polygon fill="#e0e0e0" stroke="#999999" points="266,-239 213,-239 213,-220 266,-220 266,-239"/>
<text text-anchor="middle" x="239.5" y="-227" font-family="Helvetica,sans-Serif" font-size="10.00">string.h</text>
</a>
</g>
</g>
<!-- Node1&#45;&gt;Node5 -->
<g id="edge4" class="edge">
<title>Node1&#45;&gt;Node5</title>
<path fill="none" stroke="#63b8ff" d="M379.67,-274.98C351.55,-266.06 307.19,-251.98 275.92,-242.06"/>
<polygon fill="#63b8ff" stroke="#63b8ff" points="276.86,-238.68 266.26,-238.99 274.74,-245.36 276.86,-238.68"/>
</g>
<!-- Node6 -->
<g id="node6" class="node">
<title>Node6</title>
<g id="a_node6"><a xlink:title=" ">
<polygon fill="#e0e0e0" stroke="#999999" points="340.5,-239 284.5,-239 284.5,-220 340.5,-220 340.5,-239"/>
<text text-anchor="middle" x="312.5" y="-227" font-family="Helvetica,sans-Serif" font-size="10.00">unistd.h</text>
</a>
</g>
</g>
<!-- Node1&#45;&gt;Node6 -->
<g id="edge5" class="edge">
<title>Node1&#45;&gt;Node6</title>
<path fill="none" stroke="#63b8ff" d="M391.4,-274.98C376.68,-266.69 354.08,-253.94 336.83,-244.22"/>
<polygon fill="#63b8ff" stroke="#63b8ff" points="338.31,-241.03 327.88,-239.17 334.87,-247.13 338.31,-241.03"/>
</g>
<!-- Node7 -->
<g id="node7" class="node">
<title>Node7</title>
<g id="a_node7"><a xlink:href="list_8h.html" target="_top" xlink:title=" ">
<polygon fill="white" stroke="#666666" points="460,-74 401,-74 401,-55 460,-55 460,-74"/>
<text text-anchor="middle" x="430.5" y="-62" font-family="Helvetica,sans-Serif" font-size="10.00">my/list.h</text>
</a>
</g>
</g>
<!-- Node1&#45;&gt;Node7 -->
<g id="edge6" class="edge">
<title>Node1&#45;&gt;Node7</title>
<path fill="none" stroke="#63b8ff" d="M407.04,-274.8C408.66,-249.37 413.96,-172.95 422.5,-110 423.65,-101.54 425.26,-92.24 426.74,-84.34"/>
<polygon fill="#63b8ff" stroke="#63b8ff" points="430.22,-84.81 428.68,-74.33 423.34,-83.48 430.22,-84.81"/>
</g>
<!-- Node9 -->
<g id="node9" class="node">
<title>Node9</title>
<g id="a_node9"><a xlink:href="misc_8h.html" target="_top" xlink:title=" ">
<polygon fill="white" stroke="#666666" points="776.5,-239 708.5,-239 708.5,-220 776.5,-220 776.5,-239"/>
<text text-anchor="middle" x="742.5" y="-227" font-family="Helvetica,sans-Serif" font-size="10.00">my/misc.h</text>
</a>
</g>
</g>
<!-- Node1&#45;&gt;Node9 -->
<g id="edge8" class="edge">
<title>Node1&#45;&gt;Node9</title>
<path fill="none" stroke="#63b8ff" d="M439.36,-278.66C492.88,-270.73 602.16,-254.31 694.5,-239 695.77,-238.79 697.05,-238.57 698.35,-238.36"/>
<polygon fill="#63b8ff" stroke="#63b8ff" points="699.16,-241.77 708.43,-236.63 697.98,-234.87 699.16,-241.77"/>
</g>
<!-- Node10 -->
<g id="node10" class="node">
<title>Node10</title>
<g id="a_node10"><a xlink:href="ast_8h.html" target="_top" xlink:title=" ">
<polygon fill="white" stroke="#666666" points="701,-184 660,-184 660,-165 701,-165 701,-184"/>
<text text-anchor="middle" x="680.5" y="-172" font-family="Helvetica,sans-Serif" font-size="10.00">ast.h</text>
</a>
</g>
</g>
<!-- Node1&#45;&gt;Node10 -->
<g id="edge9" class="edge">
<title>Node1&#45;&gt;Node10</title>
<path fill="none" stroke="#63b8ff" d="M439.34,-281.97C500.61,-278.47 629.08,-267.8 661.5,-239 673.99,-227.9 678.42,-208.97 679.92,-194.66"/>
<polygon fill="#63b8ff" stroke="#63b8ff" points="683.43,-194.61 680.59,-184.41 676.45,-194.16 683.43,-194.61"/>
</g>
<!-- Node11 -->
<g id="node11" class="node">
<title>Node11</title>
<g id="a_node11"><a xlink:href="env_8h.html" target="_top" xlink:title=" ">
<polygon fill="white" stroke="#666666" points="378,-184 335,-184 335,-165 378,-165 378,-184"/>
<text text-anchor="middle" x="356.5" y="-172" font-family="Helvetica,sans-Serif" font-size="10.00">env.h</text>
</a>
</g>
</g>
<!-- Node1&#45;&gt;Node11 -->
<g id="edge11" class="edge">
<title>Node1&#45;&gt;Node11</title>
<path fill="none" stroke="#63b8ff" d="M402.41,-274.66C394.2,-256.93 375.59,-216.73 364.75,-193.32"/>
<polygon fill="#63b8ff" stroke="#63b8ff" points="367.89,-191.76 360.51,-184.16 361.53,-194.7 367.89,-191.76"/>
</g>
<!-- Node12 -->
<g id="node12" class="node">
<title>Node12</title>
<g id="a_node12"><a xlink:href="executer_8h.html" target="_top" xlink:title=" ">
<polygon fill="white" stroke="#666666" points="540,-239 473,-239 473,-220 540,-220 540,-239"/>
<text text-anchor="middle" x="506.5" y="-227" font-family="Helvetica,sans-Serif" font-size="10.00">executer.h</text>
</a>
</g>
</g>
<!-- Node1&#45;&gt;Node12 -->
<g id="edge13" class="edge">
<title>Node1&#45;&gt;Node12</title>
<path fill="none" stroke="#63b8ff" d="M422.57,-274.98C438.36,-266.61 462.72,-253.7 481.13,-243.95"/>
<polygon fill="#63b8ff" stroke="#63b8ff" points="482.94,-246.95 490.14,-239.17 479.67,-240.76 482.94,-246.95"/>
</g>
<!-- Node13 -->
<g id="node13" class="node">
<title>Node13</title>
<g id="a_node13"><a xlink:href="shell_8h.html" target="_top" xlink:title=" ">
<polygon fill="white" stroke="#666666" points="481,-129 432,-129 432,-110 481,-110 481,-129"/>
<text text-anchor="middle" x="456.5" y="-117" font-family="Helvetica,sans-Serif" font-size="10.00">shell.h</text>
</a>
</g>
</g>
<!-- Node1&#45;&gt;Node13 -->
<g id="edge27" class="edge">
<title>Node1&#45;&gt;Node13</title>
<path fill="none" stroke="#63b8ff" d="M409.21,-274.98C412.05,-266.03 416.62,-251.53 420.5,-239 431.47,-203.53 444.02,-162.01 451.02,-138.72"/>
<polygon fill="#63b8ff" stroke="#63b8ff" points="454.38,-139.72 453.91,-129.13 447.68,-137.7 454.38,-139.72"/>
</g>
<!-- Node15 -->
<g id="node15" class="node">
<title>Node15</title>
<g id="a_node15"><a xlink:href="lexer_8h.html" target="_top" xlink:title=" ">
<polygon fill="white" stroke="#666666" points="602,-184 553,-184 553,-165 602,-165 602,-184"/>
<text text-anchor="middle" x="577.5" y="-172" font-family="Helvetica,sans-Serif" font-size="10.00">lexer.h</text>
</a>
</g>
</g>
<!-- Node1&#45;&gt;Node15 -->
<g id="edge18" class="edge">
<title>Node1&#45;&gt;Node15</title>
<path fill="none" stroke="#63b8ff" d="M439.24,-280.84C470.68,-276.7 517.8,-266.09 548.5,-239 561.69,-227.36 569.25,-208.5 573.32,-194.35"/>
<polygon fill="#63b8ff" stroke="#63b8ff" points="576.82,-194.8 575.88,-184.24 570.03,-193.08 576.82,-194.8"/>
</g>
<!-- Node17 -->
<g id="node17" class="node">
<title>Node17</title>
<g id="a_node17"><a xlink:href="parser_8h.html" target="_top" xlink:title=" ">
<polygon fill="white" stroke="#666666" points="652.5,-239 596.5,-239 596.5,-220 652.5,-220 652.5,-239"/>
<text text-anchor="middle" x="624.5" y="-227" font-family="Helvetica,sans-Serif" font-size="10.00">parser.h</text>
</a>
</g>
</g>
<!-- Node1&#45;&gt;Node17 -->
<g id="edge23" class="edge">
<title>Node1&#45;&gt;Node17</title>
<path fill="none" stroke="#63b8ff" d="M439.14,-275.57C478.64,-265.96 545.03,-249.82 586.72,-239.69"/>
<polygon fill="#63b8ff" stroke="#63b8ff" points="587.61,-243.07 596.5,-237.31 585.95,-236.27 587.61,-243.07"/>
</g>
<!-- Node8 -->
<g id="node8" class="node">
<title>Node8</title>
<g id="a_node8"><a xlink:title=" ">
<polygon fill="#e0e0e0" stroke="#999999" points="627.5,-19 571.5,-19 571.5,0 627.5,0 627.5,-19"/>
<text text-anchor="middle" x="599.5" y="-7" font-family="Helvetica,sans-Serif" font-size="10.00">stddef.h</text>
</a>
</g>
</g>
<!-- Node7&#45;&gt;Node8 -->
<g id="edge7" class="edge">
<title>Node7&#45;&gt;Node8</title>
<path fill="none" stroke="#63b8ff" d="M457.65,-54.98C486.03,-46.09 530.73,-32.07 562.36,-22.15"/>
<polygon fill="#63b8ff" stroke="#63b8ff" points="563.64,-25.41 572.13,-19.08 561.55,-18.73 563.64,-25.41"/>
</g>
<!-- Node10&#45;&gt;Node8 -->
<g id="edge10" class="edge">
<title>Node10&#45;&gt;Node8</title>
<path fill="none" stroke="#63b8ff" d="M684.54,-164.98C689.87,-152.51 697.77,-128.73 690.5,-110 676.44,-73.78 642.36,-42.7 620.13,-25.32"/>
<polygon fill="#63b8ff" stroke="#63b8ff" points="622.06,-22.4 611.98,-19.15 617.84,-27.98 622.06,-22.4"/>
</g>
<!-- Node11&#45;&gt;Node7 -->
<g id="edge12" class="edge">
<title>Node11&#45;&gt;Node7</title>
<path fill="none" stroke="#63b8ff" d="M360.1,-164.87C365.56,-152.26 376.65,-128.31 389.5,-110 396.65,-99.81 405.97,-89.52 413.91,-81.4"/>
<polygon fill="#63b8ff" stroke="#63b8ff" points="416.64,-83.63 421.27,-74.1 411.7,-78.66 416.64,-83.63"/>
</g>
<!-- Node12&#45;&gt;Node10 -->
<g id="edge14" class="edge">
<title>Node12&#45;&gt;Node10</title>
<path fill="none" stroke="#63b8ff" d="M534.46,-219.98C566.1,-210.35 617.46,-194.7 650.08,-184.76"/>
<polygon fill="#63b8ff" stroke="#63b8ff" points="651.42,-188.02 659.97,-181.75 649.38,-181.32 651.42,-188.02"/>
</g>
<!-- Node12&#45;&gt;Node13 -->
<g id="edge15" class="edge">
<title>Node12&#45;&gt;Node13</title>
<path fill="none" stroke="#63b8ff" d="M502.41,-219.66C494.2,-201.93 475.59,-161.73 464.75,-138.32"/>
<polygon fill="#63b8ff" stroke="#63b8ff" points="467.89,-136.76 460.51,-129.16 461.53,-139.7 467.89,-136.76"/>
</g>
<!-- Node14 -->
<g id="node14" class="node">
<title>Node14</title>
<g id="a_node14"><a xlink:title=" ">
<polygon fill="#e0e0e0" stroke="#999999" points="571.5,-129 499.5,-129 499.5,-110 571.5,-110 571.5,-129"/>
<text text-anchor="middle" x="535.5" y="-117" font-family="Helvetica,sans-Serif" font-size="10.00">sys/types.h</text>
</a>
</g>
</g>
<!-- Node12&#45;&gt;Node14 -->
<g id="edge17" class="edge">
<title>Node12&#45;&gt;Node14</title>
<path fill="none" stroke="#63b8ff" d="M508.87,-219.66C513.59,-202.09 524.24,-162.45 530.54,-138.95"/>
<polygon fill="#63b8ff" stroke="#63b8ff" points="533.96,-139.72 533.18,-129.16 527.2,-137.91 533.96,-139.72"/>
</g>
<!-- Node13&#45;&gt;Node7 -->
<g id="edge16" class="edge">
<title>Node13&#45;&gt;Node7</title>
<path fill="none" stroke="#63b8ff" d="M452.21,-109.75C448.69,-102.57 443.59,-92.18 439.22,-83.27"/>
<polygon fill="#63b8ff" stroke="#63b8ff" points="442.26,-81.53 434.71,-74.09 435.98,-84.61 442.26,-81.53"/>
</g>
<!-- Node15&#45;&gt;Node8 -->
<g id="edge19" class="edge">
<title>Node15&#45;&gt;Node8</title>
<path fill="none" stroke="#63b8ff" d="M578.68,-164.74C582.13,-139.2 592.22,-64.43 596.97,-29.23"/>
<polygon fill="#63b8ff" stroke="#63b8ff" points="600.44,-29.69 598.31,-19.31 593.51,-28.75 600.44,-29.69"/>
</g>
<!-- Node15&#45;&gt;Node13 -->
<g id="edge21" class="edge">
<title>Node15&#45;&gt;Node13</title>
<path fill="none" stroke="#63b8ff" d="M558.06,-164.98C538.51,-156.42 508.12,-143.11 485.68,-133.28"/>
<polygon fill="#63b8ff" stroke="#63b8ff" points="486.86,-129.98 476.29,-129.17 484.05,-136.39 486.86,-129.98"/>
</g>
<!-- Node15&#45;&gt;Node14 -->
<g id="edge20" class="edge">
<title>Node15&#45;&gt;Node14</title>
<path fill="none" stroke="#63b8ff" d="M570.56,-164.75C564.63,-157.26 555.93,-146.28 548.68,-137.13"/>
<polygon fill="#63b8ff" stroke="#63b8ff" points="551.26,-134.75 542.31,-129.09 545.77,-139.1 551.26,-134.75"/>
</g>
<!-- Node16 -->
<g id="node16" class="node">
<title>Node16</title>
<g id="a_node16"><a xlink:href="token_8h.html" target="_top" xlink:title=" ">
<polygon fill="white" stroke="#666666" points="681,-129 628,-129 628,-110 681,-110 681,-129"/>
<text text-anchor="middle" x="654.5" y="-117" font-family="Helvetica,sans-Serif" font-size="10.00">token.h</text>
</a>
</g>
</g>
<!-- Node15&#45;&gt;Node16 -->
<g id="edge22" class="edge">
<title>Node15&#45;&gt;Node16</title>
<path fill="none" stroke="#63b8ff" d="M589.87,-164.98C601.59,-156.92 619.42,-144.65 633.39,-135.03"/>
<polygon fill="#63b8ff" stroke="#63b8ff" points="635.65,-137.72 641.9,-129.17 631.68,-131.96 635.65,-137.72"/>
</g>
<!-- Node17&#45;&gt;Node10 -->
<g id="edge24" class="edge">
<title>Node17&#45;&gt;Node10</title>
<path fill="none" stroke="#63b8ff" d="M633.5,-219.98C641.69,-212.23 654.01,-200.58 663.97,-191.14"/>
<polygon fill="#63b8ff" stroke="#63b8ff" points="666.48,-193.59 671.34,-184.17 661.67,-188.5 666.48,-193.59"/>
</g>
<!-- Node17&#45;&gt;Node15 -->
<g id="edge25" class="edge">
<title>Node17&#45;&gt;Node15</title>
<path fill="none" stroke="#63b8ff" d="M616.74,-219.75C610.03,-212.18 600.16,-201.05 591.99,-191.84"/>
<polygon fill="#63b8ff" stroke="#63b8ff" points="594.37,-189.25 585.12,-184.09 589.13,-193.89 594.37,-189.25"/>
</g>
<!-- Node17&#45;&gt;Node16 -->
<g id="edge26" class="edge">
<title>Node17&#45;&gt;Node16</title>
<path fill="none" stroke="#63b8ff" d="M626.96,-219.66C631.84,-202.09 642.85,-162.45 649.37,-138.95"/>
<polygon fill="#63b8ff" stroke="#63b8ff" points="652.79,-139.73 652.09,-129.16 646.05,-137.86 652.79,-139.73"/>
</g>
</g>
</svg>
