<?xml version="1.0" encoding="UTF-8" standalone="no"?>
<!DOCTYPE svg PUBLIC "-//W3C//DTD SVG 1.1//EN"
 "http://www.w3.org/Graphics/SVG/1.1/DTD/svg11.dtd">
<!-- Generated by graphviz version 2.43.0 (0)
 -->
<!-- Title: shell_run Pages: 1 -->
<svg width="1266pt" height="925pt"
 viewBox="0.00 0.00 1266.00 925.00" xmlns="http://www.w3.org/2000/svg" xmlns:xlink="http://www.w3.org/1999/xlink">
<g id="graph0" class="graph" transform="scale(1 1) rotate(0) translate(4 921)">
<title>shell_run</title>
<!-- Node1 -->
<g id="node1" class="node">
<title>Node1</title>
<g id="a_node1"><a xlink:title=" ">
<polygon fill="#999999" stroke="#666666" points="61,-628 0,-628 0,-609 61,-609 61,-628"/>
<text text-anchor="middle" x="30.5" y="-616" font-family="Helvetica,sans-Serif" font-size="10.00">shell_run</text>
</a>
</g>
</g>
<!-- Node2 -->
<g id="node2" class="node">
<title>Node2</title>
<g id="a_node2"><a xlink:href="shell_8c.html#afb5215a1775326d8976fd015f7832392" target="_top" xlink:title=" ">
<polygon fill="white" stroke="#666666" points="637.5,-339 557.5,-339 557.5,-320 637.5,-320 637.5,-339"/>
<text text-anchor="middle" x="597.5" y="-327" font-family="Helvetica,sans-Serif" font-size="10.00">handle_input</text>
</a>
</g>
</g>
<!-- Node1&#45;&gt;Node2 -->
<g id="edge1" class="edge">
<title>Node1&#45;&gt;Node2</title>
<path fill="none" stroke="#63b8ff" d="M50.3,-608.88C133.59,-566.28 469.64,-394.39 568.82,-343.66"/>
<polygon fill="#63b8ff" stroke="#63b8ff" points="570.61,-346.67 577.92,-339.01 567.42,-340.44 570.61,-346.67"/>
</g>
<!-- Node141 -->
<g id="node32" class="node">
<title>Node141</title>
<g id="a_node32"><a xlink:href="shell_8c.html#a983eddd5d67b74ffafb49f66b1b5e17f" target="_top" xlink:title=" ">
<polygon fill="white" stroke="#666666" points="161.5,-754 100.5,-754 100.5,-735 161.5,-735 161.5,-754"/>
<text text-anchor="middle" x="131" y="-742" font-family="Helvetica,sans-Serif" font-size="10.00">init_shell</text>
</a>
</g>
</g>
<!-- Node1&#45;&gt;Node141 -->
<g id="edge43" class="edge">
<title>Node1&#45;&gt;Node141</title>
<path fill="none" stroke="#63b8ff" d="M39.23,-628.39C55.77,-649.55 94.82,-699.49 115.9,-726.47"/>
<polygon fill="#63b8ff" stroke="#63b8ff" points="113.39,-728.94 122.31,-734.66 118.91,-724.62 113.39,-728.94"/>
</g>
<!-- Node151 -->
<g id="node41" class="node">
<title>Node151</title>
<g id="a_node41"><a xlink:href="read__input_8c.html#a68810824934adf0e714171083b86a740" target="_top" xlink:title=" ">
<polygon fill="white" stroke="#666666" points="165,-161 97,-161 97,-142 165,-142 165,-161"/>
<text text-anchor="middle" x="131" y="-149" font-family="Helvetica,sans-Serif" font-size="10.00">read_input</text>
</a>
</g>
</g>
<!-- Node1&#45;&gt;Node151 -->
<g id="edge55" class="edge">
<title>Node1&#45;&gt;Node151</title>
<path fill="none" stroke="#63b8ff" d="M33.56,-608.75C45.78,-550.82 108.84,-251.81 125.8,-171.42"/>
<polygon fill="#63b8ff" stroke="#63b8ff" points="129.31,-171.71 127.95,-161.2 122.47,-170.26 129.31,-171.71"/>
</g>
<!-- Node159 -->
<g id="node50" class="node">
<title>Node159</title>
<g id="a_node50"><a xlink:href="shell_8c.html#a352d0fde24e5d22d7e92d3fcb05dab19" target="_top" xlink:title=" ">
<polygon fill="white" stroke="#666666" points="470.5,-880 388.5,-880 388.5,-861 470.5,-861 470.5,-880"/>
<text text-anchor="middle" x="429.5" y="-868" font-family="Helvetica,sans-Serif" font-size="10.00">shell_destroy</text>
</a>
</g>
</g>
<!-- Node1&#45;&gt;Node159 -->
<g id="edge68" class="edge">
<title>Node1&#45;&gt;Node159</title>
<path fill="none" stroke="#63b8ff" d="M33.43,-628.31C38.93,-653.83 56.93,-723.1 97,-763.5 173.52,-840.64 305.91,-862.21 378.06,-868.21"/>
<polygon fill="#63b8ff" stroke="#63b8ff" points="378.02,-871.72 388.26,-868.99 378.55,-864.74 378.02,-871.72"/>
</g>
<!-- Node3 -->
<g id="node3" class="node">
<title>Node3</title>
<g id="a_node3"><a xlink:href="ast__destroy_8c.html#a04c67d7ab492f6e1e7bc44dc70faa057" target="_top" xlink:title=" ">
<polygon fill="white" stroke="#666666" points="783.5,-105 709.5,-105 709.5,-86 783.5,-86 783.5,-105"/>
<text text-anchor="middle" x="746.5" y="-93" font-family="Helvetica,sans-Serif" font-size="10.00">ast_destroy</text>
</a>
</g>
</g>
<!-- Node2&#45;&gt;Node3 -->
<g id="edge2" class="edge">
<title>Node2&#45;&gt;Node3</title>
<path fill="none" stroke="#63b8ff" d="M601.6,-319.7C611.21,-290.39 642.69,-201.73 690,-141.5 699.15,-129.85 711.7,-119.14 722.56,-110.99"/>
<polygon fill="#63b8ff" stroke="#63b8ff" points="724.74,-113.73 730.8,-105.04 720.64,-108.06 724.74,-113.73"/>
</g>
<!-- Node5 -->
<g id="node5" class="node">
<title>Node5</title>
<g id="a_node5"><a xlink:href="shell_8c.html#a74405478dadd73c0a4d1e5f3e8d2e3ef" target="_top" xlink:title=" ">
<polygon fill="white" stroke="#666666" points="803,-660.5 690,-660.5 690,-630.5 803,-630.5 803,-660.5"/>
<text text-anchor="start" x="698" y="-648.5" font-family="Helvetica,sans-Serif" font-size="10.00">destroy_parser_and</text>
<text text-anchor="middle" x="746.5" y="-637.5" font-family="Helvetica,sans-Serif" font-size="10.00">_lexer</text>
</a>
</g>
</g>
<!-- Node2&#45;&gt;Node5 -->
<g id="edge5" class="edge">
<title>Node2&#45;&gt;Node5</title>
<path fill="none" stroke="#63b8ff" d="M601.14,-339.05C610.5,-372.19 644.03,-484.86 690,-569.5 700.23,-588.34 714.56,-607.84 726.09,-622.37"/>
<polygon fill="#63b8ff" stroke="#63b8ff" points="723.5,-624.73 732.51,-630.31 728.95,-620.33 723.5,-624.73"/>
</g>
<!-- Node9 -->
<g id="node9" class="node">
<title>Node9</title>
<g id="a_node9"><a xlink:href="execute__ast_8c.html#ad26a20a665ab7fdeb714ed53c1afd104" target="_top" xlink:title=" ">
<polygon fill="white" stroke="#666666" points="784,-452 709,-452 709,-433 784,-433 784,-452"/>
<text text-anchor="middle" x="746.5" y="-440" font-family="Helvetica,sans-Serif" font-size="10.00">execute_ast</text>
</a>
</g>
</g>
<!-- Node2&#45;&gt;Node9 -->
<g id="edge9" class="edge">
<title>Node2&#45;&gt;Node9</title>
<path fill="none" stroke="#63b8ff" d="M611.03,-339.13C636.42,-358.65 694.12,-403 725.04,-426.77"/>
<polygon fill="#63b8ff" stroke="#63b8ff" points="722.94,-429.57 733,-432.89 727.2,-424.02 722.94,-429.57"/>
</g>
<!-- Node43 -->
<g id="node25" class="node">
<title>Node43</title>
<g id="a_node25"><a xlink:href="shell_8c.html#a6e35892cfa82c5f227b10f37abc529e9" target="_top" xlink:title=" ">
<polygon fill="white" stroke="#666666" points="792,-169 701,-169 701,-150 792,-150 792,-169"/>
<text text-anchor="middle" x="746.5" y="-157" font-family="Helvetica,sans-Serif" font-size="10.00">handle_parsing</text>
</a>
</g>
</g>
<!-- Node2&#45;&gt;Node43 -->
<g id="edge34" class="edge">
<title>Node2&#45;&gt;Node43</title>
<path fill="none" stroke="#63b8ff" d="M602.11,-319.93C612.19,-294.4 643.02,-223.84 690,-183.5 694.54,-179.6 699.81,-176.25 705.26,-173.39"/>
<polygon fill="#63b8ff" stroke="#63b8ff" points="706.95,-176.47 714.51,-169.04 703.97,-170.13 706.95,-176.47"/>
</g>
<!-- Node138 -->
<g id="node28" class="node">
<title>Node138</title>
<g id="a_node28"><a xlink:href="shell_8c.html#a1ce512725ee0371f8bf608a3ece0c152" target="_top" xlink:title=" ">
<polygon fill="white" stroke="#666666" points="1112,-169 992,-169 992,-150 1112,-150 1112,-169"/>
<text text-anchor="middle" x="1052" y="-157" font-family="Helvetica,sans-Serif" font-size="10.00">show_error_message</text>
</a>
</g>
</g>
<!-- Node2&#45;&gt;Node138 -->
<g id="edge42" class="edge">
<title>Node2&#45;&gt;Node138</title>
<path fill="none" stroke="#63b8ff" d="M620.19,-319.99C662.12,-301.75 757.34,-260.94 839,-230.5 898.09,-208.47 967.57,-185.81 1010.45,-172.18"/>
<polygon fill="#63b8ff" stroke="#63b8ff" points="1011.75,-175.44 1020.23,-169.09 1009.64,-168.77 1011.75,-175.44"/>
</g>
<!-- Node139 -->
<g id="node29" class="node">
<title>Node139</title>
<g id="a_node29"><a xlink:href="lexer__init_8c.html#aee55447f2c8b083ed2614fa4f439f9cc" target="_top" xlink:title=" ">
<polygon fill="white" stroke="#666666" points="777.5,-339 715.5,-339 715.5,-320 777.5,-320 777.5,-339"/>
<text text-anchor="middle" x="746.5" y="-327" font-family="Helvetica,sans-Serif" font-size="10.00">lexer_init</text>
</a>
</g>
</g>
<!-- Node2&#45;&gt;Node139 -->
<g id="edge38" class="edge">
<title>Node2&#45;&gt;Node139</title>
<path fill="none" stroke="#63b8ff" d="M637.51,-329.5C658.32,-329.5 683.9,-329.5 704.94,-329.5"/>
<polygon fill="#63b8ff" stroke="#63b8ff" points="705.17,-333 715.17,-329.5 705.17,-326 705.17,-333"/>
</g>
<!-- Node140 -->
<g id="node30" class="node">
<title>Node140</title>
<g id="a_node30"><a xlink:href="parser__init_8c.html#a7a5dc445fa057a393d0b94590acea2f1" target="_top" xlink:title=" ">
<polygon fill="white" stroke="#666666" points="780.5,-560 712.5,-560 712.5,-541 780.5,-541 780.5,-560"/>
<text text-anchor="middle" x="746.5" y="-548" font-family="Helvetica,sans-Serif" font-size="10.00">parser_init</text>
</a>
</g>
</g>
<!-- Node2&#45;&gt;Node140 -->
<g id="edge39" class="edge">
<title>Node2&#45;&gt;Node140</title>
<path fill="none" stroke="#63b8ff" d="M605.01,-339.28C627.73,-373.44 703.77,-487.76 733.47,-532.42"/>
<polygon fill="#63b8ff" stroke="#63b8ff" points="730.62,-534.44 739.07,-540.83 736.44,-530.57 730.62,-534.44"/>
</g>
<!-- Node3&#45;&gt;Node3 -->
<g id="edge3" class="edge">
<title>Node3&#45;&gt;Node3</title>
<path fill="none" stroke="#63b8ff" d="M723.69,-105.08C712.59,-113.73 720.2,-123 746.5,-123 763.35,-123 772.53,-119.2 774.03,-114.19"/>
<polygon fill="#63b8ff" stroke="#63b8ff" points="777.02,-112.35 769.31,-105.08 770.8,-115.57 777.02,-112.35"/>
</g>
<!-- Node4 -->
<g id="node4" class="node">
<title>Node4</title>
<g id="a_node4"><a xlink:href="misc_8h.html#a1180cae2875b1fdcd58c9f9175a82c12" target="_top" xlink:title=" ">
<polygon fill="white" stroke="#666666" points="956,-95 839,-95 839,-76 956,-76 956,-95"/>
<text text-anchor="middle" x="897.5" y="-83" font-family="Helvetica,sans-Serif" font-size="10.00">my_free_word_array</text>
</a>
</g>
</g>
<!-- Node3&#45;&gt;Node4 -->
<g id="edge4" class="edge">
<title>Node3&#45;&gt;Node4</title>
<path fill="none" stroke="#63b8ff" d="M783.57,-93.08C797.2,-92.16 813.21,-91.09 828.8,-90.04"/>
<polygon fill="#63b8ff" stroke="#63b8ff" points="829.23,-93.52 838.97,-89.36 828.76,-86.54 829.23,-93.52"/>
</g>
<!-- Node6 -->
<g id="node6" class="node">
<title>Node6</title>
<g id="a_node6"><a xlink:href="lexer__init_8c.html#a592247dc9c102c884630b41389a1b38b" target="_top" xlink:title=" ">
<polygon fill="white" stroke="#666666" points="939,-655 856,-655 856,-636 939,-636 939,-655"/>
<text text-anchor="middle" x="897.5" y="-643" font-family="Helvetica,sans-Serif" font-size="10.00">lexer_destroy</text>
</a>
</g>
</g>
<!-- Node5&#45;&gt;Node6 -->
<g id="edge6" class="edge">
<title>Node5&#45;&gt;Node6</title>
<path fill="none" stroke="#63b8ff" d="M803.41,-645.5C817.22,-645.5 831.96,-645.5 845.53,-645.5"/>
<polygon fill="#63b8ff" stroke="#63b8ff" points="845.64,-649 855.64,-645.5 845.64,-642 845.64,-649"/>
</g>
<!-- Node7 -->
<g id="node7" class="node">
<title>Node7</title>
<g id="a_node7"><a xlink:href="parser__destroy_8c.html#ae2656460a6fc6b6cd65624312fe0c943" target="_top" xlink:title=" ">
<polygon fill="white" stroke="#666666" points="942,-692 853,-692 853,-673 942,-673 942,-692"/>
<text text-anchor="middle" x="897.5" y="-680" font-family="Helvetica,sans-Serif" font-size="10.00">parser_destroy</text>
</a>
</g>
</g>
<!-- Node5&#45;&gt;Node7 -->
<g id="edge7" class="edge">
<title>Node5&#45;&gt;Node7</title>
<path fill="none" stroke="#63b8ff" d="M803.41,-659.38C818.02,-663.01 833.66,-666.9 847.87,-670.42"/>
<polygon fill="#63b8ff" stroke="#63b8ff" points="847.38,-673.91 857.93,-672.92 849.06,-667.11 847.38,-673.91"/>
</g>
<!-- Node8 -->
<g id="node8" class="node">
<title>Node8</title>
<g id="a_node8"><a xlink:href="destroy__token_8c.html#ad1a471ee7b1ccb035d769be1152a370c" target="_top" xlink:title=" ">
<polygon fill="white" stroke="#666666" points="1095,-655 1009,-655 1009,-636 1095,-636 1095,-655"/>
<text text-anchor="middle" x="1052" y="-643" font-family="Helvetica,sans-Serif" font-size="10.00">token_destroy</text>
</a>
</g>
</g>
<!-- Node7&#45;&gt;Node8 -->
<g id="edge8" class="edge">
<title>Node7&#45;&gt;Node8</title>
<path fill="none" stroke="#63b8ff" d="M937.77,-672.97C957.26,-668.24 981.01,-662.48 1001.71,-657.46"/>
<polygon fill="#63b8ff" stroke="#63b8ff" points="1002.7,-660.82 1011.6,-655.06 1001.05,-654.02 1002.7,-660.82"/>
</g>
<!-- Node10 -->
<g id="node10" class="node">
<title>Node10</title>
<g id="a_node10"><a xlink:href="execute__cmd_8c.html#a94ea9cc5a046ce96e36764bf0e4fa2c0" target="_top" xlink:title=" ">
<polygon fill="white" stroke="#666666" points="938,-396 857,-396 857,-377 938,-377 938,-396"/>
<text text-anchor="middle" x="897.5" y="-384" font-family="Helvetica,sans-Serif" font-size="10.00">execute_cmd</text>
</a>
</g>
</g>
<!-- Node9&#45;&gt;Node10 -->
<g id="edge10" class="edge">
<title>Node9&#45;&gt;Node10</title>
<path fill="none" stroke="#63b8ff" d="M769.9,-432.97C788.33,-425.24 815.19,-414.24 839,-405.5 844.63,-403.43 850.6,-401.35 856.49,-399.35"/>
<polygon fill="#63b8ff" stroke="#63b8ff" points="857.86,-402.58 866.23,-396.09 855.64,-395.94 857.86,-402.58"/>
</g>
<!-- Node25 -->
<g id="node15" class="node">
<title>Node25</title>
<g id="a_node15"><a xlink:href="execute__logical__and_8c.html#a4f940752faf9f9a258c49810b21efe47" target="_top" xlink:title=" ">
<polygon fill="white" stroke="#666666" points="955.5,-470 839.5,-470 839.5,-451 955.5,-451 955.5,-470"/>
<text text-anchor="middle" x="897.5" y="-458" font-family="Helvetica,sans-Serif" font-size="10.00">execute_logical_and</text>
</a>
</g>
</g>
<!-- Node9&#45;&gt;Node25 -->
<g id="edge15" class="edge">
<title>Node9&#45;&gt;Node25</title>
<path fill="none" stroke="#63b8ff" d="M784.33,-441.03C805.61,-442.57 832.45,-445.74 854.54,-449.29"/>
<polygon fill="#63b8ff" stroke="#63b8ff" points="854.19,-452.78 864.64,-451 855.36,-445.88 854.19,-452.78"/>
</g>
<!-- Node26 -->
<g id="node16" class="node">
<title>Node26</title>
<g id="a_node16"><a xlink:href="execute__logical__or_8c.html#a7e732d7c30b07010fa55850051007dcc" target="_top" xlink:title=" ">
<polygon fill="white" stroke="#666666" points="951,-433 844,-433 844,-414 951,-414 951,-433"/>
<text text-anchor="middle" x="897.5" y="-421" font-family="Helvetica,sans-Serif" font-size="10.00">execute_logical_or</text>
</a>
</g>
</g>
<!-- Node9&#45;&gt;Node26 -->
<g id="edge17" class="edge">
<title>Node9&#45;&gt;Node26</title>
<path fill="none" stroke="#63b8ff" d="M778.37,-432.97C794.41,-429.96 814.62,-427.02 833.76,-424.83"/>
<polygon fill="#63b8ff" stroke="#63b8ff" points="834.39,-428.28 843.95,-423.72 833.63,-421.32 834.39,-428.28"/>
</g>
<!-- Node27 -->
<g id="node17" class="node">
<title>Node27</title>
<g id="a_node17"><a xlink:href="execute__pipe_8c.html#a5f3546dc2c7cf06c982afba41e722164" target="_top" xlink:title=" ">
<polygon fill="#fff0f0" stroke="red" points="938,-320 857,-320 857,-301 938,-301 938,-320"/>
<text text-anchor="middle" x="897.5" y="-308" font-family="Helvetica,sans-Serif" font-size="10.00">execute_pipe</text>
</a>
</g>
</g>
<!-- Node9&#45;&gt;Node27 -->
<g id="edge19" class="edge">
<title>Node9&#45;&gt;Node27</title>
<path fill="none" stroke="#63b8ff" d="M753.41,-432.81C766.47,-412.13 799.73,-363.23 839,-334.5 844.45,-330.51 850.67,-327.04 856.96,-324.07"/>
<polygon fill="#63b8ff" stroke="#63b8ff" points="858.35,-327.27 866.13,-320.07 855.56,-320.86 858.35,-327.27"/>
</g>
<!-- Node32 -->
<g id="node21" class="node">
<title>Node32</title>
<g id="a_node21"><a xlink:href="execute__redirect_8c.html#a1004307aba80117ddd99f009e52fb155" target="_top" xlink:title=" ">
<polygon fill="#fff0f0" stroke="red" points="946.5,-283 848.5,-283 848.5,-264 946.5,-264 946.5,-283"/>
<text text-anchor="middle" x="897.5" y="-271" font-family="Helvetica,sans-Serif" font-size="10.00">execute_redirect</text>
</a>
</g>
</g>
<!-- Node9&#45;&gt;Node32 -->
<g id="edge27" class="edge">
<title>Node9&#45;&gt;Node32</title>
<path fill="none" stroke="#63b8ff" d="M753.3,-432.58C772.41,-399.93 832.58,-297.6 839,-292.5 841.28,-290.69 843.73,-289.05 846.3,-287.57"/>
<polygon fill="#63b8ff" stroke="#63b8ff" points="847.97,-290.65 855.38,-283.08 844.87,-284.37 847.97,-290.65"/>
</g>
<!-- Node40 -->
<g id="node22" class="node">
<title>Node40</title>
<g id="a_node22"><a xlink:href="execute__repeat_8c.html#a00d48683c54b50130b4a402e6e97fa97" target="_top" xlink:title=" ">
<polygon fill="white" stroke="#666666" points="943.5,-581 851.5,-581 851.5,-562 943.5,-562 943.5,-581"/>
<text text-anchor="middle" x="897.5" y="-569" font-family="Helvetica,sans-Serif" font-size="10.00">execute_repeat</text>
</a>
</g>
</g>
<!-- Node9&#45;&gt;Node40 -->
<g id="edge28" class="edge">
<title>Node9&#45;&gt;Node40</title>
<path fill="none" stroke="#63b8ff" d="M756.1,-452.16C770.29,-472.72 800.88,-518.84 839,-544.5 848.73,-551.05 860.97,-555.32 871.66,-558.8"/>
<polygon fill="#63b8ff" stroke="#63b8ff" points="870.7,-562.17 881.29,-561.95 872.87,-555.51 870.7,-562.17"/>
</g>
<!-- Node41 -->
<g id="node23" class="node">
<title>Node41</title>
<g id="a_node23"><a xlink:href="execute__sequence_8c.html#aad2caa5bf50b0752dd8272da477ec231" target="_top" xlink:title=" ">
<polygon fill="white" stroke="#666666" points="951,-544 844,-544 844,-525 951,-525 951,-544"/>
<text text-anchor="middle" x="897.5" y="-532" font-family="Helvetica,sans-Serif" font-size="10.00">execute_sequence</text>
</a>
</g>
</g>
<!-- Node9&#45;&gt;Node41 -->
<g id="edge30" class="edge">
<title>Node9&#45;&gt;Node41</title>
<path fill="none" stroke="#63b8ff" d="M763.65,-452.06C780.93,-466.39 809.82,-491.87 839,-507.5 849.9,-513.34 863,-517.62 873.93,-521.43"/>
<polygon fill="#63b8ff" stroke="#63b8ff" points="873.02,-524.82 883.62,-524.97 875.43,-518.25 873.02,-524.82"/>
</g>
<!-- Node42 -->
<g id="node24" class="node">
<title>Node42</title>
<g id="a_node24"><a xlink:href="execute__subshell_8c.html#a40a27866de012b013a337f794a858d70" target="_top" xlink:title=" ">
<polygon fill="#fff0f0" stroke="red" points="948,-507 847,-507 847,-488 948,-488 948,-507"/>
<text text-anchor="middle" x="897.5" y="-495" font-family="Helvetica,sans-Serif" font-size="10.00">execute_subshell</text>
</a>
</g>
</g>
<!-- Node9&#45;&gt;Node42 -->
<g id="edge32" class="edge">
<title>Node9&#45;&gt;Node42</title>
<path fill="none" stroke="#63b8ff" d="M784.19,-449.9C800.81,-456 820.77,-463.97 839,-470.5 851.37,-474.93 865.43,-479.34 876.56,-483.75"/>
<polygon fill="#63b8ff" stroke="#63b8ff" points="875.25,-487 885.82,-487.8 878.06,-480.59 875.25,-487"/>
</g>
<!-- Node11 -->
<g id="node11" class="node">
<title>Node11</title>
<g id="a_node11"><a xlink:href="execute__cmd_8c.html#a0cfd2364134e68efdd39533e00b4b0d9" target="_top" xlink:title=" ">
<polygon fill="#fff0f0" stroke="red" points="1111.5,-395 992.5,-395 992.5,-376 1111.5,-376 1111.5,-395"/>
<text text-anchor="middle" x="1052" y="-383" font-family="Helvetica,sans-Serif" font-size="10.00">execute_local_binary</text>
</a>
</g>
</g>
<!-- Node10&#45;&gt;Node11 -->
<g id="edge11" class="edge">
<title>Node10&#45;&gt;Node11</title>
<path fill="none" stroke="#63b8ff" d="M938.17,-386.24C951.58,-386.15 966.96,-386.05 981.97,-385.95"/>
<polygon fill="#63b8ff" stroke="#63b8ff" points="982.3,-389.45 992.28,-385.89 982.25,-382.45 982.3,-389.45"/>
</g>
<!-- Node19 -->
<g id="node12" class="node">
<title>Node19</title>
<g id="a_node12"><a xlink:href="execute__cmd_8c.html#a460126af28ab29df4340554fae9fc57a" target="_top" xlink:title=" ">
<polygon fill="#fff0f0" stroke="red" points="1111,-525 993,-525 993,-506 1111,-506 1111,-525"/>
<text text-anchor="middle" x="1052" y="-513" font-family="Helvetica,sans-Serif" font-size="10.00">execute_path_binary</text>
</a>
</g>
</g>
<!-- Node10&#45;&gt;Node19 -->
<g id="edge12" class="edge">
<title>Node10&#45;&gt;Node19</title>
<path fill="none" stroke="#63b8ff" d="M937.27,-396.11C943.81,-398.61 950.32,-401.7 956,-405.5 965.88,-412.1 1012.67,-468.56 1036.69,-497.92"/>
<polygon fill="#63b8ff" stroke="#63b8ff" points="1034.05,-500.22 1043.08,-505.75 1039.47,-495.79 1034.05,-500.22"/>
</g>
<!-- Node24 -->
<g id="node14" class="node">
<title>Node24</title>
<g id="a_node14"><a xlink:href="strings_8h.html#a36f055c4e56c8a784629908d0c5b91e5" target="_top" xlink:title=" ">
<polygon fill="white" stroke="#666666" points="1104,-432 1000,-432 1000,-413 1104,-413 1104,-432"/>
<text text-anchor="middle" x="1052" y="-420" font-family="Helvetica,sans-Serif" font-size="10.00">my_is_char_in_str</text>
</a>
</g>
</g>
<!-- Node10&#45;&gt;Node24 -->
<g id="edge14" class="edge">
<title>Node10&#45;&gt;Node24</title>
<path fill="none" stroke="#63b8ff" d="M938.17,-395.86C957.36,-400.39 980.6,-405.88 1000.98,-410.69"/>
<polygon fill="#63b8ff" stroke="#63b8ff" points="1000.2,-414.1 1010.73,-412.99 1001.81,-407.29 1000.2,-414.1"/>
</g>
<!-- Node20 -->
<g id="node13" class="node">
<title>Node20</title>
<g id="a_node13"><a xlink:href="get__variable__value_8c.html#a2edd9900f19af236aa05385a789be3d6" target="_top" xlink:title=" ">
<polygon fill="#fff0f0" stroke="red" points="1258,-627 1148,-627 1148,-608 1258,-608 1258,-627"/>
<text text-anchor="middle" x="1203" y="-615" font-family="Helvetica,sans-Serif" font-size="10.00">get_variable_value</text>
</a>
</g>
</g>
<!-- Node19&#45;&gt;Node20 -->
<g id="edge13" class="edge">
<title>Node19&#45;&gt;Node20</title>
<path fill="none" stroke="#63b8ff" d="M1067.02,-525.1C1092.86,-542.79 1148.23,-580.69 1179.43,-602.05"/>
<polygon fill="#63b8ff" stroke="#63b8ff" points="1177.68,-605.09 1187.91,-607.86 1181.64,-599.32 1177.68,-605.09"/>
</g>
<!-- Node25&#45;&gt;Node9 -->
<g id="edge16" class="edge">
<title>Node25&#45;&gt;Node9</title>
<path fill="none" stroke="#63b8ff" d="M839.34,-460.18C822.84,-458.51 805.14,-456.22 789.73,-453.75"/>
<polygon fill="#63b8ff" stroke="#63b8ff" points="789.91,-450.23 779.46,-452.02 788.74,-457.14 789.91,-450.23"/>
</g>
<!-- Node26&#45;&gt;Node9 -->
<g id="edge18" class="edge">
<title>Node26&#45;&gt;Node9</title>
<path fill="none" stroke="#63b8ff" d="M865.62,-433.03C845.04,-436.9 817.59,-440.64 794.34,-442.85"/>
<polygon fill="#63b8ff" stroke="#63b8ff" points="793.99,-439.36 784.33,-443.72 794.6,-446.34 793.99,-439.36"/>
</g>
<!-- Node28 -->
<g id="node18" class="node">
<title>Node28</title>
<g id="a_node18"><a xlink:href="execute__pipe_8c.html#a723ff799f939872d17f109a82342294e" target="_top" xlink:title=" ">
<polygon fill="white" stroke="#666666" points="1234,-320 1172,-320 1172,-301 1234,-301 1234,-320"/>
<text text-anchor="middle" x="1203" y="-308" font-family="Helvetica,sans-Serif" font-size="10.00">close_fds</text>
</a>
</g>
</g>
<!-- Node27&#45;&gt;Node28 -->
<g id="edge20" class="edge">
<title>Node27&#45;&gt;Node28</title>
<path fill="none" stroke="#63b8ff" d="M938.18,-310.5C996.11,-310.5 1103.28,-310.5 1161.62,-310.5"/>
<polygon fill="#63b8ff" stroke="#63b8ff" points="1161.92,-314 1171.92,-310.5 1161.92,-307 1161.92,-314"/>
</g>
<!-- Node29 -->
<g id="node19" class="node">
<title>Node29</title>
<g id="a_node19"><a xlink:href="execute__pipe_8c.html#ac529ffc2370b0133613ef8a81e58ed85" target="_top" xlink:title=" ">
<polygon fill="white" stroke="#666666" points="1103,-282 1001,-282 1001,-263 1103,-263 1103,-282"/>
<text text-anchor="middle" x="1052" y="-270" font-family="Helvetica,sans-Serif" font-size="10.00">execute_pipe_left</text>
</a>
</g>
</g>
<!-- Node27&#45;&gt;Node29 -->
<g id="edge21" class="edge">
<title>Node27&#45;&gt;Node29</title>
<path fill="none" stroke="#63b8ff" d="M936.98,-300.91C957.02,-295.92 981.7,-289.77 1002.98,-284.47"/>
<polygon fill="#63b8ff" stroke="#63b8ff" points="1003.94,-287.83 1012.79,-282.02 1002.24,-281.04 1003.94,-287.83"/>
</g>
<!-- Node30 -->
<g id="node20" class="node">
<title>Node30</title>
<g id="a_node20"><a xlink:href="execute__pipe_8c.html#a9ed6eabb8a9f7049f91265a5f45e30c8" target="_top" xlink:title=" ">
<polygon fill="#fff0f0" stroke="red" points="1106.5,-358 997.5,-358 997.5,-339 1106.5,-339 1106.5,-358"/>
<text text-anchor="middle" x="1052" y="-346" font-family="Helvetica,sans-Serif" font-size="10.00">execute_pipe_right</text>
</a>
</g>
</g>
<!-- Node27&#45;&gt;Node30 -->
<g id="edge24" class="edge">
<title>Node27&#45;&gt;Node30</title>
<path fill="none" stroke="#63b8ff" d="M936.98,-320.09C957.02,-325.08 981.7,-331.23 1002.98,-336.53"/>
<polygon fill="#63b8ff" stroke="#63b8ff" points="1002.24,-339.96 1012.79,-338.98 1003.94,-333.17 1002.24,-339.96"/>
</g>
<!-- Node29&#45;&gt;Node9 -->
<g id="edge23" class="edge">
<title>Node29&#45;&gt;Node9</title>
<path fill="none" stroke="#63b8ff" d="M1030.43,-263C989.84,-245.81 898.24,-214.91 839,-255.5 802.44,-280.55 822.33,-308.62 803,-348.5 789.77,-375.8 771.38,-405.72 759.46,-424.3"/>
<polygon fill="#63b8ff" stroke="#63b8ff" points="756.38,-422.62 753.88,-432.91 762.25,-426.43 756.38,-422.62"/>
</g>
<!-- Node29&#45;&gt;Node28 -->
<g id="edge22" class="edge">
<title>Node29&#45;&gt;Node28</title>
<path fill="none" stroke="#63b8ff" d="M1090.6,-282.09C1112.43,-287.66 1139.91,-294.67 1162.12,-300.33"/>
<polygon fill="#63b8ff" stroke="#63b8ff" points="1161.36,-303.75 1171.91,-302.83 1163.09,-296.96 1161.36,-303.75"/>
</g>
<!-- Node30&#45;&gt;Node9 -->
<g id="edge26" class="edge">
<title>Node30&#45;&gt;Node9</title>
<path fill="none" stroke="#63b8ff" d="M997.14,-345.16C953.03,-344.37 889.84,-347.78 839,-368.5 807.99,-381.14 779.18,-407.93 762.47,-425.57"/>
<polygon fill="#63b8ff" stroke="#63b8ff" points="759.87,-423.22 755.67,-432.94 765.02,-427.96 759.87,-423.22"/>
</g>
<!-- Node30&#45;&gt;Node28 -->
<g id="edge25" class="edge">
<title>Node30&#45;&gt;Node28</title>
<path fill="none" stroke="#63b8ff" d="M1090.6,-338.91C1112.43,-333.34 1139.91,-326.33 1162.12,-320.67"/>
<polygon fill="#63b8ff" stroke="#63b8ff" points="1163.09,-324.04 1171.91,-318.17 1161.36,-317.25 1163.09,-324.04"/>
</g>
<!-- Node40&#45;&gt;Node9 -->
<g id="edge29" class="edge">
<title>Node40&#45;&gt;Node9</title>
<path fill="none" stroke="#63b8ff" d="M851.37,-569.15C847.02,-567.29 842.82,-565.07 839,-562.5 799.87,-536.16 768.67,-488.27 755,-461.35"/>
<polygon fill="#63b8ff" stroke="#63b8ff" points="758.09,-459.68 750.64,-452.15 751.76,-462.68 758.09,-459.68"/>
</g>
<!-- Node41&#45;&gt;Node9 -->
<g id="edge31" class="edge">
<title>Node41&#45;&gt;Node9</title>
<path fill="none" stroke="#63b8ff" d="M843.83,-527.92C842.18,-527.15 840.57,-526.34 839,-525.5 806.98,-508.35 775.31,-479.34 758.94,-460.19"/>
<polygon fill="#63b8ff" stroke="#63b8ff" points="761.52,-457.81 752.55,-452.16 756.04,-462.17 761.52,-457.81"/>
</g>
<!-- Node42&#45;&gt;Node9 -->
<g id="edge33" class="edge">
<title>Node42&#45;&gt;Node9</title>
<path fill="none" stroke="#63b8ff" d="M846.86,-491.23C844.19,-490.33 841.56,-489.42 839,-488.5 813.29,-479.3 784.13,-467.21 765.78,-457.23"/>
<polygon fill="#63b8ff" stroke="#63b8ff" points="767.41,-454.13 757.02,-452.08 763.87,-460.17 767.41,-454.13"/>
</g>
<!-- Node44 -->
<g id="node26" class="node">
<title>Node44</title>
<g id="a_node26"><a xlink:href="empty__stdin_8c.html#a4c89df10296f2cc245e3a32065e04e7b" target="_top" xlink:title=" ">
<polygon fill="white" stroke="#666666" points="936,-169 859,-169 859,-150 936,-150 936,-169"/>
<text text-anchor="middle" x="897.5" y="-157" font-family="Helvetica,sans-Serif" font-size="10.00">empty_stdin</text>
</a>
</g>
</g>
<!-- Node43&#45;&gt;Node44 -->
<g id="edge35" class="edge">
<title>Node43&#45;&gt;Node44</title>
<path fill="none" stroke="#63b8ff" d="M792.2,-159.5C810.06,-159.5 830.65,-159.5 848.79,-159.5"/>
<polygon fill="#63b8ff" stroke="#63b8ff" points="848.86,-163 858.86,-159.5 848.86,-156 848.86,-163"/>
</g>
<!-- Node45 -->
<g id="node27" class="node">
<title>Node45</title>
<g id="a_node27"><a xlink:href="shell_8c.html#a2c9bd51744387dc73763281019d78622" target="_top" xlink:title=" ">
<polygon fill="#fff0f0" stroke="red" points="929.5,-132 865.5,-132 865.5,-113 929.5,-113 929.5,-132"/>
<text text-anchor="middle" x="897.5" y="-120" font-family="Helvetica,sans-Serif" font-size="10.00">parse_ast</text>
</a>
</g>
</g>
<!-- Node43&#45;&gt;Node45 -->
<g id="edge36" class="edge">
<title>Node43&#45;&gt;Node45</title>
<path fill="none" stroke="#63b8ff" d="M785.87,-149.97C807.16,-144.69 833.64,-138.11 855.36,-132.72"/>
<polygon fill="#63b8ff" stroke="#63b8ff" points="856.42,-136.06 865.28,-130.25 854.73,-129.27 856.42,-136.06"/>
</g>
<!-- Node45&#45;&gt;Node138 -->
<g id="edge37" class="edge">
<title>Node45&#45;&gt;Node138</title>
<path fill="none" stroke="#63b8ff" d="M929.73,-130.08C950.47,-135.11 978.13,-141.82 1001.8,-147.56"/>
<polygon fill="#63b8ff" stroke="#63b8ff" points="1001.12,-151 1011.67,-149.96 1002.77,-144.2 1001.12,-151"/>
</g>
<!-- Node70 -->
<g id="node31" class="node">
<title>Node70</title>
<g id="a_node31"><a xlink:href="parser__next_8c.html#ad25986b565a767c6ad7d0b0b8846fca6" target="_top" xlink:title=" ">
<polygon fill="#fff0f0" stroke="red" points="934.5,-618 860.5,-618 860.5,-599 934.5,-599 934.5,-618"/>
<text text-anchor="middle" x="897.5" y="-606" font-family="Helvetica,sans-Serif" font-size="10.00">parser_next</text>
</a>
</g>
</g>
<!-- Node140&#45;&gt;Node70 -->
<g id="edge40" class="edge">
<title>Node140&#45;&gt;Node70</title>
<path fill="none" stroke="#63b8ff" d="M767.59,-560.04C785.96,-568.57 813.99,-581.15 839,-590.5 843.84,-592.31 848.95,-594.09 854.04,-595.78"/>
<polygon fill="#63b8ff" stroke="#63b8ff" points="853.16,-599.18 863.75,-598.93 855.32,-592.52 853.16,-599.18"/>
</g>
<!-- Node70&#45;&gt;Node8 -->
<g id="edge41" class="edge">
<title>Node70&#45;&gt;Node8</title>
<path fill="none" stroke="#63b8ff" d="M934.64,-617.27C954.73,-622.14 980.01,-628.28 1001.87,-633.58"/>
<polygon fill="#63b8ff" stroke="#63b8ff" points="1001.1,-636.99 1011.64,-635.95 1002.75,-630.19 1001.1,-636.99"/>
</g>
<!-- Node142 -->
<g id="node33" class="node">
<title>Node142</title>
<g id="a_node33"><a xlink:href="env__to__list_8c.html#a11c46ed192ca0ad8a479ed9a317f135e" target="_top" xlink:title=" ">
<polygon fill="white" stroke="#666666" points="464.5,-843 394.5,-843 394.5,-824 464.5,-824 464.5,-843"/>
<text text-anchor="middle" x="429.5" y="-831" font-family="Helvetica,sans-Serif" font-size="10.00">env_to_list</text>
</a>
</g>
</g>
<!-- Node141&#45;&gt;Node142 -->
<g id="edge44" class="edge">
<title>Node141&#45;&gt;Node142</title>
<path fill="none" stroke="#63b8ff" d="M147.06,-754.11C160.68,-762.41 181.52,-774.2 201,-781.5 262.55,-804.56 337.45,-819.28 384.07,-826.96"/>
<polygon fill="#63b8ff" stroke="#63b8ff" points="383.71,-830.45 394.14,-828.59 384.82,-823.54 383.71,-830.45"/>
</g>
<!-- Node146 -->
<g id="node38" class="node">
<title>Node146</title>
<g id="a_node38"><a xlink:href="shell_8c.html#a2f3ef7bd282a23f9a3c63eadf5b60657" target="_top" xlink:title=" ">
<polygon fill="white" stroke="#666666" points="300.5,-735 218.5,-735 218.5,-716 300.5,-716 300.5,-735"/>
<text text-anchor="middle" x="259.5" y="-723" font-family="Helvetica,sans-Serif" font-size="10.00">handle_sigint</text>
</a>
</g>
</g>
<!-- Node141&#45;&gt;Node146 -->
<g id="edge49" class="edge">
<title>Node141&#45;&gt;Node146</title>
<path fill="none" stroke="#63b8ff" d="M161.66,-740.05C175.56,-737.96 192.5,-735.41 208.31,-733.04"/>
<polygon fill="#63b8ff" stroke="#63b8ff" points="209.12,-736.46 218.49,-731.51 208.08,-729.53 209.12,-736.46"/>
</g>
<!-- Node147 -->
<g id="node39" class="node">
<title>Node147</title>
<g id="a_node39"><a xlink:href="shell_8c.html#ad4e9c36df0b2cc333b20e6b743722899" target="_top" xlink:title=" ">
<polygon fill="white" stroke="#666666" points="301,-772 218,-772 218,-753 301,-753 301,-772"/>
<text text-anchor="middle" x="259.5" y="-760" font-family="Helvetica,sans-Serif" font-size="10.00">init_variables</text>
</a>
</g>
</g>
<!-- Node141&#45;&gt;Node147 -->
<g id="edge50" class="edge">
<title>Node141&#45;&gt;Node147</title>
<path fill="none" stroke="#63b8ff" d="M161.66,-748.72C175.32,-750.66 191.92,-753.03 207.49,-755.24"/>
<polygon fill="#63b8ff" stroke="#63b8ff" points="207.14,-758.73 217.54,-756.67 208.13,-751.8 207.14,-758.73"/>
</g>
<!-- Node143 -->
<g id="node34" class="node">
<title>Node143</title>
<g id="a_node34"><a xlink:href="free__variable_8c.html#a6cfba30b5c98d6fa7663b6bc29fe01cc" target="_top" xlink:title=" ">
<polygon fill="white" stroke="#666666" points="638,-843 557,-843 557,-824 638,-824 638,-843"/>
<text text-anchor="middle" x="597.5" y="-831" font-family="Helvetica,sans-Serif" font-size="10.00">free_variable</text>
</a>
</g>
</g>
<!-- Node142&#45;&gt;Node143 -->
<g id="edge45" class="edge">
<title>Node142&#45;&gt;Node143</title>
<path fill="none" stroke="#63b8ff" d="M464.9,-833.5C488.54,-833.5 520.3,-833.5 546.7,-833.5"/>
<polygon fill="#63b8ff" stroke="#63b8ff" points="546.9,-837 556.9,-833.5 546.9,-830 546.9,-837"/>
</g>
<!-- Node144 -->
<g id="node35" class="node">
<title>Node144</title>
<g id="a_node35"><a xlink:href="list_8h.html#a56c2e407458d3d071ab549938bc5a7c1" target="_top" xlink:title=" ">
<polygon fill="white" stroke="#666666" points="643,-806 552,-806 552,-787 643,-787 643,-806"/>
<text text-anchor="middle" x="597.5" y="-794" font-family="Helvetica,sans-Serif" font-size="10.00">my_add_to_list</text>
</a>
</g>
</g>
<!-- Node142&#45;&gt;Node144 -->
<g id="edge46" class="edge">
<title>Node142&#45;&gt;Node144</title>
<path fill="none" stroke="#63b8ff" d="M464.9,-825.83C487.62,-820.77 517.84,-814.03 543.59,-808.29"/>
<polygon fill="#63b8ff" stroke="#63b8ff" points="544.58,-811.66 553.58,-806.07 543.06,-804.83 544.58,-811.66"/>
</g>
<!-- Node61 -->
<g id="node36" class="node">
<title>Node61</title>
<g id="a_node36"><a xlink:href="list_8h.html#a68908a98f87b64d0b0fa9ac090a70cad" target="_top" xlink:title=" ">
<polygon fill="white" stroke="#666666" points="636,-917 559,-917 559,-898 636,-898 636,-917"/>
<text text-anchor="middle" x="597.5" y="-905" font-family="Helvetica,sans-Serif" font-size="10.00">my_free_list</text>
</a>
</g>
</g>
<!-- Node142&#45;&gt;Node61 -->
<g id="edge47" class="edge">
<title>Node142&#45;&gt;Node61</title>
<path fill="none" stroke="#63b8ff" d="M464.64,-838.13C477.87,-840.94 492.75,-845.42 505,-852.5 524.86,-863.99 521.52,-877.38 541,-889.5 543.75,-891.21 546.68,-892.78 549.71,-894.21"/>
<polygon fill="#63b8ff" stroke="#63b8ff" points="548.39,-897.45 558.96,-898.09 551.1,-890.99 548.39,-897.45"/>
</g>
<!-- Node145 -->
<g id="node37" class="node">
<title>Node145</title>
<g id="a_node37"><a xlink:href="strings_8h.html#a27d061f38fee80ecc582a343015ebc5c" target="_top" xlink:title=" ">
<polygon fill="white" stroke="#666666" points="637.5,-880 557.5,-880 557.5,-861 637.5,-861 637.5,-880"/>
<text text-anchor="middle" x="597.5" y="-868" font-family="Helvetica,sans-Serif" font-size="10.00">my_getindex</text>
</a>
</g>
</g>
<!-- Node142&#45;&gt;Node145 -->
<g id="edge48" class="edge">
<title>Node142&#45;&gt;Node145</title>
<path fill="none" stroke="#63b8ff" d="M464.9,-841.17C488.81,-846.5 521.04,-853.68 547.61,-859.6"/>
<polygon fill="#63b8ff" stroke="#63b8ff" points="546.97,-863.05 557.5,-861.81 548.5,-856.21 546.97,-863.05"/>
</g>
<!-- Node147&#45;&gt;Node20 -->
<g id="edge51" class="edge">
<title>Node147&#45;&gt;Node20</title>
<path fill="none" stroke="#63b8ff" d="M301.1,-761.7C364.26,-760.54 489.89,-758.5 596.5,-758.5 596.5,-758.5 596.5,-758.5 898.5,-758.5 993.99,-758.5 1028.83,-781.41 1112,-734.5 1152.18,-711.84 1180.35,-663.2 1193.54,-636.32"/>
<polygon fill="#63b8ff" stroke="#63b8ff" points="1196.75,-637.72 1197.85,-627.18 1190.42,-634.73 1196.75,-637.72"/>
</g>
<!-- Node148 -->
<g id="node40" class="node">
<title>Node148</title>
<g id="a_node40"><a xlink:href="set__variable_8c.html#a47afbd80fec3464fe83979a24adb4290" target="_top" xlink:title=" ">
<polygon fill="#fff0f0" stroke="red" points="468,-806 391,-806 391,-787 468,-787 468,-806"/>
<text text-anchor="middle" x="429.5" y="-794" font-family="Helvetica,sans-Serif" font-size="10.00">set_variable</text>
</a>
</g>
</g>
<!-- Node147&#45;&gt;Node148 -->
<g id="edge52" class="edge">
<title>Node147&#45;&gt;Node148</title>
<path fill="none" stroke="#63b8ff" d="M301.17,-770.73C325.15,-775.58 355.62,-781.75 380.75,-786.84"/>
<polygon fill="#63b8ff" stroke="#63b8ff" points="380.3,-790.32 390.79,-788.87 381.69,-783.45 380.3,-790.32"/>
</g>
<!-- Node148&#45;&gt;Node143 -->
<g id="edge53" class="edge">
<title>Node148&#45;&gt;Node143</title>
<path fill="none" stroke="#63b8ff" d="M468.17,-804.9C491.56,-810.11 521.88,-816.87 547.18,-822.51"/>
<polygon fill="#63b8ff" stroke="#63b8ff" points="546.44,-825.93 556.96,-824.69 547.96,-819.09 546.44,-825.93"/>
</g>
<!-- Node148&#45;&gt;Node144 -->
<g id="edge54" class="edge">
<title>Node148&#45;&gt;Node144</title>
<path fill="none" stroke="#63b8ff" d="M468.17,-796.5C489.93,-796.5 517.69,-796.5 541.82,-796.5"/>
<polygon fill="#63b8ff" stroke="#63b8ff" points="541.91,-800 551.91,-796.5 541.91,-793 541.91,-800"/>
</g>
<!-- Node92 -->
<g id="node42" class="node">
<title>Node92</title>
<g id="a_node42"><a xlink:href="strings_8h.html#a5e1589f073ac32d227dbc6020c376dab" target="_top" xlink:title=" ">
<polygon fill="white" stroke="#666666" points="310,-124 209,-124 209,-105 310,-105 310,-124"/>
<text text-anchor="middle" x="259.5" y="-112" font-family="Helvetica,sans-Serif" font-size="10.00">append_to_buffer</text>
</a>
</g>
</g>
<!-- Node151&#45;&gt;Node92 -->
<g id="edge56" class="edge">
<title>Node151&#45;&gt;Node92</title>
<path fill="none" stroke="#63b8ff" d="M164.58,-141.97C180.1,-137.43 198.87,-131.94 215.53,-127.07"/>
<polygon fill="#63b8ff" stroke="#63b8ff" points="216.98,-130.29 225.59,-124.12 215.01,-123.57 216.98,-130.29"/>
</g>
<!-- Node152 -->
<g id="node43" class="node">
<title>Node152</title>
<g id="a_node43"><a xlink:href="read__input_8c.html#ab8f53813e21230b48d9ccdc4032c6bee" target="_top" xlink:title=" ">
<polygon fill="white" stroke="#666666" points="317.5,-161 201.5,-161 201.5,-142 317.5,-142 317.5,-161"/>
<text text-anchor="middle" x="259.5" y="-149" font-family="Helvetica,sans-Serif" font-size="10.00">handle_continuation</text>
</a>
</g>
</g>
<!-- Node151&#45;&gt;Node152 -->
<g id="edge57" class="edge">
<title>Node151&#45;&gt;Node152</title>
<path fill="none" stroke="#63b8ff" d="M165.24,-151.5C173.21,-151.5 182.02,-151.5 190.94,-151.5"/>
<polygon fill="#63b8ff" stroke="#63b8ff" points="191.03,-155 201.03,-151.5 191.03,-148 191.03,-155"/>
</g>
<!-- Node154 -->
<g id="node45" class="node">
<title>Node154</title>
<g id="a_node45"><a xlink:href="read__input_8c.html#a3282822bc1e8642066f4f88116a7a6cc" target="_top" xlink:title=" ">
<polygon fill="white" stroke="#666666" points="318,-87 201,-87 201,-68 318,-68 318,-87"/>
<text text-anchor="middle" x="259.5" y="-75" font-family="Helvetica,sans-Serif" font-size="10.00">handle_getline_error</text>
</a>
</g>
</g>
<!-- Node151&#45;&gt;Node154 -->
<g id="edge59" class="edge">
<title>Node151&#45;&gt;Node154</title>
<path fill="none" stroke="#63b8ff" d="M141.42,-141.85C153.97,-129.5 177.35,-108.19 201,-95.5 204.28,-93.74 207.76,-92.12 211.32,-90.64"/>
<polygon fill="#63b8ff" stroke="#63b8ff" points="212.74,-93.84 220.85,-87.03 210.26,-87.3 212.74,-93.84"/>
</g>
<!-- Node155 -->
<g id="node46" class="node">
<title>Node155</title>
<g id="a_node46"><a xlink:href="read__input_8c.html#a9b0be933113dce6cb33ad0e4dbc89018" target="_top" xlink:title=" ">
<polygon fill="white" stroke="#666666" points="301,-198 218,-198 218,-179 301,-179 301,-198"/>
<text text-anchor="middle" x="259.5" y="-186" font-family="Helvetica,sans-Serif" font-size="10.00">show_prompt</text>
</a>
</g>
</g>
<!-- Node151&#45;&gt;Node155 -->
<g id="edge60" class="edge">
<title>Node151&#45;&gt;Node155</title>
<path fill="none" stroke="#63b8ff" d="M164.58,-161.03C180.1,-165.57 198.87,-171.06 215.53,-175.93"/>
<polygon fill="#63b8ff" stroke="#63b8ff" points="215.01,-179.43 225.59,-178.88 216.98,-172.71 215.01,-179.43"/>
</g>
<!-- Node153 -->
<g id="node44" class="node">
<title>Node153</title>
<g id="a_node44"><a xlink:href="read__input_8c.html#ab1d0f5b306ce10bb8fff68a7a4aaf428" target="_top" xlink:title=" ">
<polygon fill="white" stroke="#666666" points="477.5,-66 381.5,-66 381.5,-47 477.5,-47 477.5,-66"/>
<text text-anchor="middle" x="429.5" y="-54" font-family="Helvetica,sans-Serif" font-size="10.00">should_continue</text>
</a>
</g>
</g>
<!-- Node152&#45;&gt;Node153 -->
<g id="edge58" class="edge">
<title>Node152&#45;&gt;Node153</title>
<path fill="none" stroke="#63b8ff" d="M302.64,-141.98C308.09,-139.72 313.38,-136.93 318,-133.5 340.86,-116.52 331.21,-97.57 354,-80.5 359.76,-76.19 366.32,-72.63 373.11,-69.71"/>
<polygon fill="#63b8ff" stroke="#63b8ff" points="374.38,-72.96 382.45,-66.09 371.86,-66.44 374.38,-72.96"/>
</g>
<!-- Node155&#45;&gt;Node20 -->
<g id="edge63" class="edge">
<title>Node155&#45;&gt;Node20</title>
<path fill="none" stroke="#63b8ff" d="M261.67,-198.19C270.96,-270.29 339.24,-720.5 596.5,-720.5 596.5,-720.5 596.5,-720.5 898.5,-720.5 1007.23,-720.5 1126.8,-660.49 1177.31,-632.08"/>
<polygon fill="#63b8ff" stroke="#63b8ff" points="1179.25,-635 1186.2,-627.01 1175.78,-628.93 1179.25,-635"/>
</g>
<!-- Node156 -->
<g id="node47" class="node">
<title>Node156</title>
<g id="a_node47"><a xlink:href="read__input_8c.html#a06d0ee3bb45a86c56f9a8fcf208b182f" target="_top" xlink:title=" ">
<polygon fill="white" stroke="#666666" points="478,-254 381,-254 381,-235 478,-235 478,-254"/>
<text text-anchor="middle" x="429.5" y="-242" font-family="Helvetica,sans-Serif" font-size="10.00">execute_precmd</text>
</a>
</g>
</g>
<!-- Node155&#45;&gt;Node156 -->
<g id="edge61" class="edge">
<title>Node155&#45;&gt;Node156</title>
<path fill="none" stroke="#63b8ff" d="M289.38,-198.13C317.32,-207.44 359.81,-221.6 390.49,-231.83"/>
<polygon fill="#63b8ff" stroke="#63b8ff" points="389.4,-235.16 400,-235 391.62,-228.52 389.4,-235.16"/>
</g>
<!-- Node157 -->
<g id="node48" class="node">
<title>Node157</title>
<g id="a_node48"><a xlink:href="read__input_8c.html#a6a144d0d5270ba0d210fcb5f39d7fc63" target="_top" xlink:title=" ">
<polygon fill="white" stroke="#666666" points="654,-19 541,-19 541,0 654,0 654,-19"/>
<text text-anchor="middle" x="597.5" y="-7" font-family="Helvetica,sans-Serif" font-size="10.00">print_prompt_prefix</text>
</a>
</g>
</g>
<!-- Node155&#45;&gt;Node157 -->
<g id="edge64" class="edge">
<title>Node155&#45;&gt;Node157</title>
<path fill="none" stroke="#63b8ff" d="M301.23,-179.69C307.2,-177.32 313.01,-174.31 318,-170.5 341.53,-152.56 330.08,-131.91 354,-114.5 410.13,-73.64 445.98,-111.06 505,-74.5 525.61,-61.73 521.39,-47.77 541,-33.5 546.29,-29.65 552.3,-26.25 558.36,-23.31"/>
<polygon fill="#63b8ff" stroke="#63b8ff" points="560.13,-26.35 567.82,-19.07 557.27,-19.96 560.13,-26.35"/>
</g>
<!-- Node158 -->
<g id="node49" class="node">
<title>Node158</title>
<g id="a_node49"><a xlink:href="read__input_8c.html#a95fff78135b5c85ed0ff754f303e28f7" target="_top" xlink:title=" ">
<polygon fill="white" stroke="#666666" points="505,-142 354,-142 354,-123 505,-123 505,-142"/>
<text text-anchor="middle" x="429.5" y="-130" font-family="Helvetica,sans-Serif" font-size="10.00">show_prompt_with_curr_dir</text>
</a>
</g>
</g>
<!-- Node155&#45;&gt;Node158 -->
<g id="edge65" class="edge">
<title>Node155&#45;&gt;Node158</title>
<path fill="none" stroke="#63b8ff" d="M291.59,-178.94C300.16,-176.26 309.45,-173.31 318,-170.5 342.63,-162.41 370.19,-152.93 391.64,-145.46"/>
<polygon fill="#63b8ff" stroke="#63b8ff" points="393.04,-148.68 401.32,-142.08 390.73,-142.07 393.04,-148.68"/>
</g>
<!-- Node156&#45;&gt;Node2 -->
<g id="edge62" class="edge">
<title>Node156&#45;&gt;Node2</title>
<path fill="none" stroke="#63b8ff" d="M449.22,-254.09C478.44,-269.05 535.04,-298.03 568.93,-315.38"/>
<polygon fill="#63b8ff" stroke="#63b8ff" points="567.35,-318.51 577.85,-319.95 570.54,-312.28 567.35,-318.51"/>
</g>
<!-- Node158&#45;&gt;Node20 -->
<g id="edge66" class="edge">
<title>Node158&#45;&gt;Node20</title>
<path fill="none" stroke="#63b8ff" d="M461.99,-123C535.97,-100.82 716.79,-47.5 745.5,-47.5 745.5,-47.5 745.5,-47.5 898.5,-47.5 958.97,-47.5 1089.17,-111.76 1112,-141.5 1112.9,-142.67 1181.38,-507.54 1198.27,-597.59"/>
<polygon fill="#63b8ff" stroke="#63b8ff" points="1194.86,-598.4 1200.14,-607.59 1201.74,-597.11 1194.86,-598.4"/>
</g>
<!-- Node158&#45;&gt;Node157 -->
<g id="edge67" class="edge">
<title>Node158&#45;&gt;Node157</title>
<path fill="none" stroke="#63b8ff" d="M479.6,-122.95C488.76,-119.51 497.73,-114.84 505,-108.5 532.86,-84.19 514.35,-59.13 541,-33.5 545.02,-29.63 549.76,-26.34 554.75,-23.55"/>
<polygon fill="#63b8ff" stroke="#63b8ff" points="556.48,-26.6 563.9,-19.04 553.39,-20.32 556.48,-26.6"/>
</g>
<!-- Node159&#45;&gt;Node143 -->
<g id="edge69" class="edge">
<title>Node159&#45;&gt;Node143</title>
<path fill="none" stroke="#63b8ff" d="M470.68,-861.54C493.71,-856.41 522.78,-849.93 547.18,-844.49"/>
<polygon fill="#63b8ff" stroke="#63b8ff" points="547.97,-847.9 556.97,-842.31 546.45,-841.07 547.97,-847.9"/>
</g>
<!-- Node159&#45;&gt;Node61 -->
<g id="edge70" class="edge">
<title>Node159&#45;&gt;Node61</title>
<path fill="none" stroke="#63b8ff" d="M470.68,-879.46C494.3,-884.72 524.28,-891.4 549.05,-896.92"/>
<polygon fill="#63b8ff" stroke="#63b8ff" points="548.44,-900.37 558.96,-899.13 549.96,-893.54 548.44,-900.37"/>
</g>
</g>
</svg>
