<?xml version="1.0" encoding="UTF-8" standalone="no"?>
<!DOCTYPE svg PUBLIC "-//W3C//DTD SVG 1.1//EN"
 "http://www.w3.org/Graphics/SVG/1.1/DTD/svg11.dtd">
<!-- Generated by graphviz version 2.43.0 (0)
 -->
<!-- Title: init_shell Pages: 1 -->
<!--zoomable 249 -->
<svg id="main" version="1.1" xmlns="http://www.w3.org/2000/svg" xmlns:xlink="http://www.w3.org/1999/xlink" xml:space="preserve" onload="init(evt)">
<style type="text/css"><![CDATA[
.edge:hover path { stroke: red; }
.edge:hover polygon { stroke: red; fill: red; }
]]></style>
<script type="text/javascript"><![CDATA[
var edges = document.getElementsByTagName('g');
if (edges && edges.length) {
  for (var i=0;i<edges.length;i++) {
    if (edges[i].id.substr(0,4)=='edge') {
      edges[i].setAttribute('class','edge');
    }
  }
}
]]></script>
        <defs>
                <circle id="rim" cx="0" cy="0" r="7"/>
                <circle id="rim2" cx="0" cy="0" r="3.5"/>
                <g id="zoomPlus">
                        <use xlink:href="#rim" fill="#404040">
                                <set attributeName="fill" to="#808080" begin="zoomplus.mouseover" end="zoomplus.mouseout"/>
                        </use>
                        <path d="M-4,0h8M0,-4v8" fill="none" stroke="white" stroke-width="1.5" pointer-events="none"/>
                </g>
                <g id="zoomMin">
                        <use xlink:href="#rim" fill="#404040">
                                <set attributeName="fill" to="#808080" begin="zoomminus.mouseover" end="zoomminus.mouseout"/>
                        </use>
                        <path d="M-4,0h8" fill="none" stroke="white" stroke-width="1.5" pointer-events="none"/>
                </g>
                <g id="dirArrow">
                        <path fill="none" stroke="white" stroke-width="1.5" d="M0,-3.0v7 M-2.5,-0.5L0,-3.0L2.5,-0.5"/>
                </g>
               <g id="resetDef">
                       <use xlink:href="#rim2" fill="#404040">
                               <set attributeName="fill" to="#808080" begin="reset.mouseover" end="reset.mouseout"/>
                       </use>
               </g>
        </defs>

<script type="text/javascript">
var viewWidth = 510;
var viewHeight = 249;
var sectionId = 'dynsection-4';
</script>
<script xlink:href="svgpan.js"/>
<svg id="graph" class="graph">
<g id="viewport">
<title>init_shell</title>
<!-- Node1 -->
<g id="node1" class="node">
<title>Node1</title>
<g id="a_node1"><a xlink:title=" ">
<polygon fill="#999999" stroke="#666666" points="61,-93 0,-93 0,-74 61,-74 61,-93"/>
<text text-anchor="middle" x="30.5" y="-81" font-family="Helvetica,sans-Serif" font-size="10.00">init_shell</text>
</a>
</g>
</g>
<!-- Node2 -->
<g id="node2" class="node">
<title>Node2</title>
<g id="a_node2"><a xlink:href="env__to__list_8c.html#a11c46ed192ca0ad8a479ed9a317f135e" target="_top" xlink:title=" ">
<polygon fill="white" stroke="#666666" points="306,-167 236,-167 236,-148 306,-148 306,-167"/>
<text text-anchor="middle" x="271" y="-155" font-family="Helvetica,sans-Serif" font-size="10.00">env_to_list</text>
</a>
</g>
</g>
<!-- Node1&#45;&gt;Node2 -->
<g id="edge1" class="edge">
<title>Node1&#45;&gt;Node2</title>
<path fill="none" stroke="#63b8ff" d="M61.22,-92.72C103.66,-105.89 181.74,-130.11 229.45,-144.92"/>
<polygon fill="#63b8ff" stroke="#63b8ff" points="228.56,-148.31 239.14,-147.93 230.63,-141.62 228.56,-148.31"/>
</g>
<!-- Node7 -->
<g id="node7" class="node">
<title>Node7</title>
<g id="a_node7"><a xlink:href="shell_8c.html#a2f3ef7bd282a23f9a3c63eadf5b60657" target="_top" xlink:title=" ">
<polygon fill="white" stroke="#666666" points="179.5,-56 97.5,-56 97.5,-37 179.5,-37 179.5,-56"/>
<text text-anchor="middle" x="138.5" y="-44" font-family="Helvetica,sans-Serif" font-size="10.00">handle_sigint</text>
</a>
</g>
</g>
<!-- Node1&#45;&gt;Node7 -->
<g id="edge6" class="edge">
<title>Node1&#45;&gt;Node7</title>
<path fill="none" stroke="#63b8ff" d="M58.8,-73.97C71.43,-69.56 86.64,-64.25 100.31,-59.48"/>
<polygon fill="#63b8ff" stroke="#63b8ff" points="101.64,-62.72 109.93,-56.12 99.33,-56.12 101.64,-62.72"/>
</g>
<!-- Node8 -->
<g id="node8" class="node">
<title>Node8</title>
<g id="a_node8"><a xlink:href="shell_8c.html#ad4e9c36df0b2cc333b20e6b743722899" target="_top" xlink:title=" ">
<polygon fill="white" stroke="#666666" points="180,-93 97,-93 97,-74 180,-74 180,-93"/>
<text text-anchor="middle" x="138.5" y="-81" font-family="Helvetica,sans-Serif" font-size="10.00">init_variables</text>
</a>
</g>
</g>
<!-- Node1&#45;&gt;Node8 -->
<g id="edge7" class="edge">
<title>Node1&#45;&gt;Node8</title>
<path fill="none" stroke="#63b8ff" d="M61.03,-83.5C68.95,-83.5 77.76,-83.5 86.49,-83.5"/>
<polygon fill="#63b8ff" stroke="#63b8ff" points="86.65,-87 96.65,-83.5 86.65,-80 86.65,-87"/>
</g>
<!-- Node3 -->
<g id="node3" class="node">
<title>Node3</title>
<g id="a_node3"><a xlink:href="free__variable_8c.html#a6cfba30b5c98d6fa7663b6bc29fe01cc" target="_top" xlink:title=" ">
<polygon fill="white" stroke="#666666" points="472.5,-130 391.5,-130 391.5,-111 472.5,-111 472.5,-130"/>
<text text-anchor="middle" x="432" y="-118" font-family="Helvetica,sans-Serif" font-size="10.00">free_variable</text>
</a>
</g>
</g>
<!-- Node2&#45;&gt;Node3 -->
<g id="edge2" class="edge">
<title>Node2&#45;&gt;Node3</title>
<path fill="none" stroke="#63b8ff" d="M306.11,-149.56C328.08,-144.45 357.02,-137.72 381.5,-132.02"/>
<polygon fill="#63b8ff" stroke="#63b8ff" points="382.39,-135.41 391.34,-129.73 380.8,-128.59 382.39,-135.41"/>
</g>
<!-- Node4 -->
<g id="node4" class="node">
<title>Node4</title>
<g id="a_node4"><a xlink:href="list_8h.html#a56c2e407458d3d071ab549938bc5a7c1" target="_top" xlink:title=" ">
<polygon fill="white" stroke="#666666" points="477.5,-167 386.5,-167 386.5,-148 477.5,-148 477.5,-167"/>
<text text-anchor="middle" x="432" y="-155" font-family="Helvetica,sans-Serif" font-size="10.00">my_add_to_list</text>
</a>
</g>
</g>
<!-- Node2&#45;&gt;Node4 -->
<g id="edge3" class="edge">
<title>Node2&#45;&gt;Node4</title>
<path fill="none" stroke="#63b8ff" d="M306.11,-157.5C326.54,-157.5 352.98,-157.5 376.27,-157.5"/>
<polygon fill="#63b8ff" stroke="#63b8ff" points="376.37,-161 386.37,-157.5 376.37,-154 376.37,-161"/>
</g>
<!-- Node5 -->
<g id="node5" class="node">
<title>Node5</title>
<g id="a_node5"><a xlink:href="list_8h.html#a68908a98f87b64d0b0fa9ac090a70cad" target="_top" xlink:title=" ">
<polygon fill="white" stroke="#666666" points="470.5,-204 393.5,-204 393.5,-185 470.5,-185 470.5,-204"/>
<text text-anchor="middle" x="432" y="-192" font-family="Helvetica,sans-Serif" font-size="10.00">my_free_list</text>
</a>
</g>
</g>
<!-- Node2&#45;&gt;Node5 -->
<g id="edge4" class="edge">
<title>Node2&#45;&gt;Node5</title>
<path fill="none" stroke="#63b8ff" d="M306.11,-165.44C328.65,-170.68 358.5,-177.63 383.37,-183.42"/>
<polygon fill="#63b8ff" stroke="#63b8ff" points="382.8,-186.88 393.33,-185.73 384.38,-180.06 382.8,-186.88"/>
</g>
<!-- Node6 -->
<g id="node6" class="node">
<title>Node6</title>
<g id="a_node6"><a xlink:href="strings_8h.html#a27d061f38fee80ecc582a343015ebc5c" target="_top" xlink:title=" ">
<polygon fill="white" stroke="#666666" points="472,-241 392,-241 392,-222 472,-222 472,-241"/>
<text text-anchor="middle" x="432" y="-229" font-family="Helvetica,sans-Serif" font-size="10.00">my_getindex</text>
</a>
</g>
</g>
<!-- Node2&#45;&gt;Node6 -->
<g id="edge5" class="edge">
<title>Node2&#45;&gt;Node6</title>
<path fill="none" stroke="#63b8ff" d="M284.73,-167.16C301.58,-179.53 332.58,-200.86 362,-213.5 368.34,-216.23 375.2,-218.62 382.04,-220.69"/>
<polygon fill="#63b8ff" stroke="#63b8ff" points="381.42,-224.15 391.99,-223.51 383.32,-217.42 381.42,-224.15"/>
</g>
<!-- Node9 -->
<g id="node9" class="node">
<title>Node9</title>
<g id="a_node9"><a xlink:href="get__variable__value_8c.html#a2edd9900f19af236aa05385a789be3d6" target="_top" xlink:title=" ">
<polygon fill="white" stroke="#666666" points="326,-38 216,-38 216,-19 326,-19 326,-38"/>
<text text-anchor="middle" x="271" y="-26" font-family="Helvetica,sans-Serif" font-size="10.00">get_variable_value</text>
</a>
</g>
</g>
<!-- Node8&#45;&gt;Node9 -->
<g id="edge8" class="edge">
<title>Node8&#45;&gt;Node9</title>
<path fill="none" stroke="#63b8ff" d="M162.23,-73.92C183.06,-65.14 214.13,-52.05 237.57,-42.17"/>
<polygon fill="#63b8ff" stroke="#63b8ff" points="239.24,-45.26 247.09,-38.16 236.52,-38.81 239.24,-45.26"/>
</g>
<!-- Node11 -->
<g id="node11" class="node">
<title>Node11</title>
<g id="a_node11"><a xlink:href="set__variable_8c.html#a47afbd80fec3464fe83979a24adb4290" target="_top" xlink:title=" ">
<polygon fill="white" stroke="#666666" points="309.5,-93 232.5,-93 232.5,-74 309.5,-74 309.5,-93"/>
<text text-anchor="middle" x="271" y="-81" font-family="Helvetica,sans-Serif" font-size="10.00">set_variable</text>
</a>
</g>
</g>
<!-- Node8&#45;&gt;Node11 -->
<g id="edge10" class="edge">
<title>Node8&#45;&gt;Node11</title>
<path fill="none" stroke="#63b8ff" d="M180.08,-83.5C193.31,-83.5 208.14,-83.5 221.87,-83.5"/>
<polygon fill="#63b8ff" stroke="#63b8ff" points="222.12,-87 232.12,-83.5 222.12,-80 222.12,-87"/>
</g>
<!-- Node10 -->
<g id="node10" class="node">
<title>Node10</title>
<g id="a_node10"><a xlink:href="get__variable_8c.html#a569170390f0edf013bf89c26ef55ea8c" target="_top" xlink:title=" ">
<polygon fill="white" stroke="#666666" points="470.5,-19 393.5,-19 393.5,0 470.5,0 470.5,-19"/>
<text text-anchor="middle" x="432" y="-7" font-family="Helvetica,sans-Serif" font-size="10.00">get_variable</text>
</a>
</g>
</g>
<!-- Node9&#45;&gt;Node10 -->
<g id="edge9" class="edge">
<title>Node9&#45;&gt;Node10</title>
<path fill="none" stroke="#63b8ff" d="M326.27,-22.01C344.86,-19.79 365.5,-17.33 383.51,-15.18"/>
<polygon fill="#63b8ff" stroke="#63b8ff" points="383.98,-18.64 393.49,-13.98 383.15,-11.69 383.98,-18.64"/>
</g>
<!-- Node11&#45;&gt;Node3 -->
<g id="edge12" class="edge">
<title>Node11&#45;&gt;Node3</title>
<path fill="none" stroke="#63b8ff" d="M309.68,-92.27C331.12,-97.26 358.23,-103.57 381.38,-108.95"/>
<polygon fill="#63b8ff" stroke="#63b8ff" points="380.84,-112.42 391.37,-111.28 382.42,-105.6 380.84,-112.42"/>
</g>
<!-- Node11&#45;&gt;Node4 -->
<g id="edge14" class="edge">
<title>Node11&#45;&gt;Node4</title>
<path fill="none" stroke="#63b8ff" d="M284.73,-93.16C301.58,-105.53 332.58,-126.86 362,-139.5 366.64,-141.5 371.56,-143.31 376.55,-144.96"/>
<polygon fill="#63b8ff" stroke="#63b8ff" points="375.58,-148.32 386.17,-147.91 377.63,-141.63 375.58,-148.32"/>
</g>
<!-- Node11&#45;&gt;Node10 -->
<g id="edge13" class="edge">
<title>Node11&#45;&gt;Node10</title>
<path fill="none" stroke="#63b8ff" d="M286.36,-73.83C307.62,-59.63 346.61,-34.11 362,-27.5 368.8,-24.58 376.19,-22.04 383.53,-19.86"/>
<polygon fill="#63b8ff" stroke="#63b8ff" points="384.73,-23.16 393.43,-17.12 382.86,-16.41 384.73,-23.16"/>
</g>
<!-- Node12 -->
<g id="node12" class="node">
<title>Node12</title>
<g id="a_node12"><a xlink:href="set__variable_8c.html#adebd93167a76f58c737bb4ee682da191" target="_top" xlink:title=" ">
<polygon fill="white" stroke="#666666" points="460,-56 404,-56 404,-37 460,-37 460,-56"/>
<text text-anchor="middle" x="432" y="-44" font-family="Helvetica,sans-Serif" font-size="10.00">fill_data</text>
</a>
</g>
</g>
<!-- Node11&#45;&gt;Node12 -->
<g id="edge11" class="edge">
<title>Node11&#45;&gt;Node12</title>
<path fill="none" stroke="#63b8ff" d="M309.68,-74.73C335.02,-68.83 368.29,-61.09 393.58,-55.21"/>
<polygon fill="#63b8ff" stroke="#63b8ff" points="394.59,-58.57 403.54,-52.89 393.01,-51.75 394.59,-58.57"/>
</g>
<!-- Node13 -->
<g id="node13" class="node">
<title>Node13</title>
<g id="a_node13"><a xlink:href="set__variable_8c.html#a9423ce83dff6e167d4168b47e91086f6" target="_top" xlink:title=" ">
<polygon fill="white" stroke="#666666" points="502,-93 362,-93 362,-74 502,-74 502,-93"/>
<text text-anchor="middle" x="432" y="-81" font-family="Helvetica,sans-Serif" font-size="10.00">update_existing_variable</text>
</a>
</g>
</g>
<!-- Node11&#45;&gt;Node13 -->
<g id="edge15" class="edge">
<title>Node11&#45;&gt;Node13</title>
<path fill="none" stroke="#63b8ff" d="M309.68,-83.5C322.37,-83.5 337.04,-83.5 351.7,-83.5"/>
<polygon fill="#63b8ff" stroke="#63b8ff" points="351.82,-87 361.82,-83.5 351.82,-80 351.82,-87"/>
</g>
</g>
</svg>
        <g id="navigator" transform="translate(0 0)" fill="#404254">
                <rect fill="#f2f5e9" fill-opacity="0.5" stroke="#606060" stroke-width=".5" x="0" y="0" width="60" height="60"/>
                <use id="zoomplus" xlink:href="#zoomPlus" x="17" y="9" onmousedown="handleZoom(evt,'in')"/>
                <use id="zoomminus" xlink:href="#zoomMin" x="42" y="9" onmousedown="handleZoom(evt,'out')"/>
                <use id="reset" xlink:href="#resetDef" x="30" y="36" onmousedown="handleReset()"/>
                <g id="arrowUp" xlink:href="#dirArrow" transform="translate(30 24)" onmousedown="handlePan(0,-1)">
                  <use xlink:href="#rim" fill="#404040">
                        <set attributeName="fill" to="#808080" begin="arrowUp.mouseover" end="arrowUp.mouseout"/>
                  </use>
                  <path fill="none" stroke="white" stroke-width="1.5" d="M0,-3.0v7 M-2.5,-0.5L0,-3.0L2.5,-0.5"/>
                </g>
                <g id="arrowRight" xlink:href="#dirArrow" transform="rotate(90) translate(36 -43)" onmousedown="handlePan(1,0)">
                  <use xlink:href="#rim" fill="#404040">
                        <set attributeName="fill" to="#808080" begin="arrowRight.mouseover" end="arrowRight.mouseout"/>
                  </use>
                  <path fill="none" stroke="white" stroke-width="1.5" d="M0,-3.0v7 M-2.5,-0.5L0,-3.0L2.5,-0.5"/>
                </g>
                <g id="arrowDown" xlink:href="#dirArrow" transform="rotate(180) translate(-30 -48)" onmousedown="handlePan(0,1)">
                  <use xlink:href="#rim" fill="#404040">
                        <set attributeName="fill" to="#808080" begin="arrowDown.mouseover" end="arrowDown.mouseout"/>
                  </use>
                  <path fill="none" stroke="white" stroke-width="1.5" d="M0,-3.0v7 M-2.5,-0.5L0,-3.0L2.5,-0.5"/>
                </g>
                <g id="arrowLeft" xlink:href="#dirArrow" transform="rotate(270) translate(-36 17)" onmousedown="handlePan(-1,0)">
                  <use xlink:href="#rim" fill="#404040">
                        <set attributeName="fill" to="#808080" begin="arrowLeft.mouseover" end="arrowLeft.mouseout"/>
                  </use>
                  <path fill="none" stroke="white" stroke-width="1.5" d="M0,-3.0v7 M-2.5,-0.5L0,-3.0L2.5,-0.5"/>
                </g>
        </g>
        <svg viewBox="0 0 15 15" width="100%" height="30px" preserveAspectRatio="xMaxYMin meet">
         <g id="arrow_out" transform="scale(0.3 0.3)">
          <a xlink:href="shell_8c_a983eddd5d67b74ffafb49f66b1b5e17f_cgraph_org.svg" target="_base">
           <rect id="button" ry="5" rx="5" y="6" x="6" height="38" width="38"
                fill="#f2f5e9" fill-opacity="0.5" stroke="#606060" stroke-width="1.0"/>
           <path id="arrow"
             d="M 11.500037,31.436501 C 11.940474,20.09759 22.043105,11.32322 32.158766,21.979434 L 37.068811,17.246167 C 37.068811,17.246167 37.088388,32 37.088388,32 L 22.160133,31.978069 C 22.160133,31.978069 26.997745,27.140456 26.997745,27.140456 C 18.528582,18.264221 13.291696,25.230495 11.500037,31.436501 z"
             style="fill:#404040;"/>
          </a>
         </g>
        </svg>
</svg>
