<?xml version="1.0" encoding="UTF-8" standalone="no"?>
<!DOCTYPE svg PUBLIC "-//W3C//DTD SVG 1.1//EN"
 "http://www.w3.org/Graphics/SVG/1.1/DTD/svg11.dtd">
<!-- Generated by graphviz version 2.43.0 (0)
 -->
<!-- Title: init_variables Pages: 1 -->
<svg width="413pt" height="175pt"
 viewBox="0.00 0.00 413.00 175.00" xmlns="http://www.w3.org/2000/svg" xmlns:xlink="http://www.w3.org/1999/xlink">
<g id="graph0" class="graph" transform="scale(1 1) rotate(0) translate(4 171)">
<title>init_variables</title>
<!-- Node1 -->
<g id="node1" class="node">
<title>Node1</title>
<g id="a_node1"><a xlink:title=" ">
<polygon fill="#999999" stroke="#666666" points="83,-129 0,-129 0,-110 83,-110 83,-129"/>
<text text-anchor="middle" x="41.5" y="-117" font-family="Helvetica,sans-Serif" font-size="10.00">init_variables</text>
</a>
</g>
</g>
<!-- Node2 -->
<g id="node2" class="node">
<title>Node2</title>
<g id="a_node2"><a xlink:href="get__variable__value_8c.html#a2edd9900f19af236aa05385a789be3d6" target="_top" xlink:title=" ">
<polygon fill="white" stroke="#666666" points="229,-157 119,-157 119,-138 229,-138 229,-157"/>
<text text-anchor="middle" x="174" y="-145" font-family="Helvetica,sans-Serif" font-size="10.00">get_variable_value</text>
</a>
</g>
</g>
<!-- Node1&#45;&gt;Node2 -->
<g id="edge1" class="edge">
<title>Node1&#45;&gt;Node2</title>
<path fill="none" stroke="#63b8ff" d="M83.08,-128.21C94.3,-130.61 106.66,-133.27 118.54,-135.81"/>
<polygon fill="#63b8ff" stroke="#63b8ff" points="117.85,-139.25 128.36,-137.92 119.32,-132.4 117.85,-139.25"/>
</g>
<!-- Node4 -->
<g id="node4" class="node">
<title>Node4</title>
<g id="a_node4"><a xlink:href="set__variable_8c.html#a47afbd80fec3464fe83979a24adb4290" target="_top" xlink:title=" ">
<polygon fill="white" stroke="#666666" points="212.5,-111 135.5,-111 135.5,-92 212.5,-92 212.5,-111"/>
<text text-anchor="middle" x="174" y="-99" font-family="Helvetica,sans-Serif" font-size="10.00">set_variable</text>
</a>
</g>
</g>
<!-- Node1&#45;&gt;Node4 -->
<g id="edge3" class="edge">
<title>Node1&#45;&gt;Node4</title>
<path fill="none" stroke="#63b8ff" d="M83.08,-113.9C96.31,-112.08 111.14,-110.03 124.87,-108.14"/>
<polygon fill="#63b8ff" stroke="#63b8ff" points="125.69,-111.56 135.12,-106.72 124.74,-104.62 125.69,-111.56"/>
</g>
<!-- Node3 -->
<g id="node3" class="node">
<title>Node3</title>
<g id="a_node3"><a xlink:href="get__variable_8c.html#a569170390f0edf013bf89c26ef55ea8c" target="_top" xlink:title=" ">
<polygon fill="white" stroke="#666666" points="373.5,-167 296.5,-167 296.5,-148 373.5,-148 373.5,-167"/>
<text text-anchor="middle" x="335" y="-155" font-family="Helvetica,sans-Serif" font-size="10.00">get_variable</text>
</a>
</g>
</g>
<!-- Node2&#45;&gt;Node3 -->
<g id="edge2" class="edge">
<title>Node2&#45;&gt;Node3</title>
<path fill="none" stroke="#63b8ff" d="M229.27,-150.91C247.86,-152.08 268.5,-153.38 286.51,-154.51"/>
<polygon fill="#63b8ff" stroke="#63b8ff" points="286.29,-158.01 296.49,-155.14 286.73,-151.02 286.29,-158.01"/>
</g>
<!-- Node4&#45;&gt;Node3 -->
<g id="edge6" class="edge">
<title>Node4&#45;&gt;Node3</title>
<path fill="none" stroke="#63b8ff" d="M195.41,-111.11C213.44,-119.37 240.59,-131.21 265,-139.5 271.93,-141.85 279.34,-144.08 286.64,-146.11"/>
<polygon fill="#63b8ff" stroke="#63b8ff" points="285.9,-149.54 296.47,-148.76 287.72,-142.78 285.9,-149.54"/>
</g>
<!-- Node5 -->
<g id="node5" class="node">
<title>Node5</title>
<g id="a_node5"><a xlink:href="set__variable_8c.html#adebd93167a76f58c737bb4ee682da191" target="_top" xlink:title=" ">
<polygon fill="white" stroke="#666666" points="363,-130 307,-130 307,-111 363,-111 363,-130"/>
<text text-anchor="middle" x="335" y="-118" font-family="Helvetica,sans-Serif" font-size="10.00">fill_data</text>
</a>
</g>
</g>
<!-- Node4&#45;&gt;Node5 -->
<g id="edge4" class="edge">
<title>Node4&#45;&gt;Node5</title>
<path fill="none" stroke="#63b8ff" d="M212.68,-106C238.02,-109.03 271.29,-113.01 296.58,-116.03"/>
<polygon fill="#63b8ff" stroke="#63b8ff" points="296.19,-119.51 306.54,-117.22 297.03,-112.56 296.19,-119.51"/>
</g>
<!-- Node6 -->
<g id="node6" class="node">
<title>Node6</title>
<g id="a_node6"><a xlink:href="free__variable_8c.html#a6cfba30b5c98d6fa7663b6bc29fe01cc" target="_top" xlink:title=" ">
<polygon fill="white" stroke="#666666" points="375.5,-93 294.5,-93 294.5,-74 375.5,-74 375.5,-93"/>
<text text-anchor="middle" x="335" y="-81" font-family="Helvetica,sans-Serif" font-size="10.00">free_variable</text>
</a>
</g>
</g>
<!-- Node4&#45;&gt;Node6 -->
<g id="edge5" class="edge">
<title>Node4&#45;&gt;Node6</title>
<path fill="none" stroke="#63b8ff" d="M212.68,-97.23C234.12,-94.81 261.23,-91.74 284.38,-89.12"/>
<polygon fill="#63b8ff" stroke="#63b8ff" points="284.83,-92.59 294.37,-87.99 284.04,-85.63 284.83,-92.59"/>
</g>
<!-- Node7 -->
<g id="node7" class="node">
<title>Node7</title>
<g id="a_node7"><a xlink:href="list_8h.html#a56c2e407458d3d071ab549938bc5a7c1" target="_top" xlink:title=" ">
<polygon fill="white" stroke="#666666" points="380.5,-56 289.5,-56 289.5,-37 380.5,-37 380.5,-56"/>
<text text-anchor="middle" x="335" y="-44" font-family="Helvetica,sans-Serif" font-size="10.00">my_add_to_list</text>
</a>
</g>
</g>
<!-- Node4&#45;&gt;Node7 -->
<g id="edge7" class="edge">
<title>Node4&#45;&gt;Node7</title>
<path fill="none" stroke="#63b8ff" d="M196.94,-91.93C215,-84.23 241.39,-73.44 265,-65.5 271.88,-63.18 279.22,-60.94 286.44,-58.84"/>
<polygon fill="#63b8ff" stroke="#63b8ff" points="287.49,-62.18 296.17,-56.1 285.59,-55.45 287.49,-62.18"/>
</g>
<!-- Node8 -->
<g id="node8" class="node">
<title>Node8</title>
<g id="a_node8"><a xlink:href="set__variable_8c.html#a9423ce83dff6e167d4168b47e91086f6" target="_top" xlink:title=" ">
<polygon fill="white" stroke="#666666" points="405,-19 265,-19 265,0 405,0 405,-19"/>
<text text-anchor="middle" x="335" y="-7" font-family="Helvetica,sans-Serif" font-size="10.00">update_existing_variable</text>
</a>
</g>
</g>
<!-- Node4&#45;&gt;Node8 -->
<g id="edge8" class="edge">
<title>Node4&#45;&gt;Node8</title>
<path fill="none" stroke="#63b8ff" d="M184.04,-91.95C199.29,-76.4 231.72,-45.62 265,-28.5 269.51,-26.18 274.34,-24.12 279.27,-22.29"/>
<polygon fill="#63b8ff" stroke="#63b8ff" points="280.46,-25.58 288.81,-19.05 278.22,-18.95 280.46,-25.58"/>
</g>
</g>
</svg>
