<?xml version="1.0" encoding="UTF-8" standalone="no"?>
<!DOCTYPE svg PUBLIC "-//W3C//DTD SVG 1.1//EN"
 "http://www.w3.org/Graphics/SVG/1.1/DTD/svg11.dtd">
<!-- Generated by graphviz version 2.43.0 (0)
 -->
<!-- Title: include/shell.h Pages: 1 -->
<svg width="4329pt" height="225pt"
 viewBox="0.00 0.00 4329.00 225.00" xmlns="http://www.w3.org/2000/svg" xmlns:xlink="http://www.w3.org/1999/xlink">
<g id="graph0" class="graph" transform="scale(1 1) rotate(0) translate(4 221)">
<title>include/shell.h</title>
<!-- Node1 -->
<g id="node1" class="node">
<title>Node1</title>
<g id="a_node1"><a xlink:title=" ">
<polygon fill="#999999" stroke="#666666" points="2346,-217 2259,-217 2259,-198 2346,-198 2346,-217"/>
<text text-anchor="middle" x="2302.5" y="-205" font-family="Helvetica,sans-Serif" font-size="10.00">include/shell.h</text>
</a>
</g>
</g>
<!-- Node2 -->
<g id="node2" class="node">
<title>Node2</title>
<g id="a_node2"><a xlink:href="builtins_8h.html" target="_top" xlink:title=" ">
<polygon fill="white" stroke="#666666" points="356.5,-156.5 256.5,-156.5 256.5,-137.5 356.5,-137.5 356.5,-156.5"/>
<text text-anchor="middle" x="306.5" y="-144.5" font-family="Helvetica,sans-Serif" font-size="10.00">include/builtins.h</text>
</a>
</g>
</g>
<!-- Node1&#45;&gt;Node2 -->
<g id="edge1" class="edge">
<title>Node1&#45;&gt;Node2</title>
<path fill="none" stroke="#63b8ff" d="M2248.68,-206.59C1976.66,-206.83 751.35,-205.46 373.5,-162 362.99,-160.79 351.69,-158.73 341.42,-156.56"/>
<polygon fill="#63b8ff" stroke="#63b8ff" points="2248.7,-210.09 2258.69,-206.58 2248.69,-203.09 2248.7,-210.09"/>
</g>
<!-- Node3 -->
<g id="node3" class="node">
<title>Node3</title>
<g id="a_node3"><a xlink:href="builtins_8c.html" target="_top" xlink:title=" ">
<polygon fill="white" stroke="#666666" points="117,-90.5 0,-90.5 0,-71.5 117,-71.5 117,-90.5"/>
<text text-anchor="middle" x="58.5" y="-78.5" font-family="Helvetica,sans-Serif" font-size="10.00">src/builtins/builtins.c</text>
</a>
</g>
</g>
<!-- Node1&#45;&gt;Node3 -->
<g id="edge40" class="edge">
<title>Node1&#45;&gt;Node3</title>
<path fill="none" stroke="#63b8ff" d="M2248.44,-206.05C1930.24,-203.33 311.95,-188.22 210.5,-162 153.91,-147.38 94.87,-108.25 70.31,-90.71"/>
<polygon fill="#63b8ff" stroke="#63b8ff" points="2248.74,-209.55 2258.77,-206.14 2248.8,-202.55 2248.74,-209.55"/>
</g>
<!-- Node4 -->
<g id="node4" class="node">
<title>Node4</title>
<g id="a_node4"><a xlink:href="set_8c.html" target="_top" xlink:title=" ">
<polygon fill="white" stroke="#666666" points="231.5,-90.5 135.5,-90.5 135.5,-71.5 231.5,-71.5 231.5,-90.5"/>
<text text-anchor="middle" x="183.5" y="-78.5" font-family="Helvetica,sans-Serif" font-size="10.00">src/builtins/set.c</text>
</a>
</g>
</g>
<!-- Node1&#45;&gt;Node4 -->
<g id="edge44" class="edge">
<title>Node1&#45;&gt;Node4</title>
<path fill="none" stroke="#63b8ff" d="M2248.67,-206.62C1933.66,-207.15 339.74,-207.57 247.5,-162 216.24,-146.56 195.33,-107.87 187.25,-90.58"/>
<polygon fill="#63b8ff" stroke="#63b8ff" points="2248.91,-210.12 2258.91,-206.6 2248.9,-203.12 2248.91,-210.12"/>
</g>
<!-- Node5 -->
<g id="node5" class="node">
<title>Node5</title>
<g id="a_node5"><a xlink:href="setenv_8c.html" target="_top" xlink:title=" ">
<polygon fill="white" stroke="#666666" points="363,-90.5 250,-90.5 250,-71.5 363,-71.5 363,-90.5"/>
<text text-anchor="middle" x="306.5" y="-78.5" font-family="Helvetica,sans-Serif" font-size="10.00">src/builtins/setenv.c</text>
</a>
</g>
</g>
<!-- Node1&#45;&gt;Node5 -->
<g id="edge45" class="edge">
<title>Node1&#45;&gt;Node5</title>
<path fill="none" stroke="#63b8ff" d="M2248.53,-206.6C1999.29,-206.8 958.01,-205.02 635.5,-162 521.3,-146.77 389.11,-107.96 333.43,-90.61"/>
<polygon fill="#63b8ff" stroke="#63b8ff" points="2248.78,-210.1 2258.78,-206.59 2248.77,-203.1 2248.78,-210.1"/>
</g>
<!-- Node6 -->
<g id="node6" class="node">
<title>Node6</title>
<g id="a_node6"><a xlink:href="execute__cmd_8c.html" target="_top" xlink:title=" ">
<polygon fill="white" stroke="#666666" points="498,-96 381,-96 381,-66 498,-66 498,-96"/>
<text text-anchor="start" x="389" y="-84" font-family="Helvetica,sans-Serif" font-size="10.00">src/executer/execute</text>
<text text-anchor="middle" x="439.5" y="-73" font-family="Helvetica,sans-Serif" font-size="10.00">_cmd.c</text>
</a>
</g>
</g>
<!-- Node1&#45;&gt;Node6 -->
<g id="edge51" class="edge">
<title>Node1&#45;&gt;Node6</title>
<path fill="none" stroke="#63b8ff" d="M2248.56,-206.28C2014.65,-205.12 1086.79,-198.26 797.5,-162 685.49,-147.96 556.97,-115.01 488.49,-96.07"/>
<polygon fill="#63b8ff" stroke="#63b8ff" points="2248.84,-209.78 2258.85,-206.33 2248.87,-202.78 2248.84,-209.78"/>
</g>
<!-- Node7 -->
<g id="node7" class="node">
<title>Node7</title>
<g id="a_node7"><a xlink:href="executer_8h.html" target="_top" xlink:title=" ">
<polygon fill="white" stroke="#666666" points="1414,-156.5 1309,-156.5 1309,-137.5 1414,-137.5 1414,-156.5"/>
<text text-anchor="middle" x="1361.5" y="-144.5" font-family="Helvetica,sans-Serif" font-size="10.00">include/executer.h</text>
</a>
</g>
</g>
<!-- Node1&#45;&gt;Node7 -->
<g id="edge6" class="edge">
<title>Node1&#45;&gt;Node7</title>
<path fill="none" stroke="#63b8ff" d="M2248.59,-205.32C2114.76,-202.03 1756.67,-191.01 1459.5,-162 1444.7,-160.56 1428.72,-158.49 1414.04,-156.39"/>
<polygon fill="#63b8ff" stroke="#63b8ff" points="2248.88,-208.83 2258.96,-205.57 2249.05,-201.83 2248.88,-208.83"/>
</g>
<!-- Node8 -->
<g id="node8" class="node">
<title>Node8</title>
<g id="a_node8"><a xlink:href="execute__ast_8c.html" target="_top" xlink:title=" ">
<polygon fill="white" stroke="#666666" points="633,-96 516,-96 516,-66 633,-66 633,-96"/>
<text text-anchor="start" x="524" y="-84" font-family="Helvetica,sans-Serif" font-size="10.00">src/executer/execute</text>
<text text-anchor="middle" x="574.5" y="-73" font-family="Helvetica,sans-Serif" font-size="10.00">_ast.c</text>
</a>
</g>
</g>
<!-- Node1&#45;&gt;Node8 -->
<g id="edge50" class="edge">
<title>Node1&#45;&gt;Node8</title>
<path fill="none" stroke="#63b8ff" d="M2248.56,-205.83C2032.92,-202.98 1232.36,-190.64 980.5,-162 854.16,-147.63 708.44,-114.89 630.53,-96.05"/>
<polygon fill="#63b8ff" stroke="#63b8ff" points="2248.63,-209.33 2258.68,-205.96 2248.73,-202.33 2248.63,-209.33"/>
</g>
<!-- Node9 -->
<g id="node9" class="node">
<title>Node9</title>
<g id="a_node9"><a xlink:href="execute__command__substitution_8c.html" target="_top" xlink:title=" ">
<polygon fill="white" stroke="#666666" points="793.5,-96 651.5,-96 651.5,-66 793.5,-66 793.5,-96"/>
<text text-anchor="start" x="659.5" y="-84" font-family="Helvetica,sans-Serif" font-size="10.00">src/executer/execute</text>
<text text-anchor="middle" x="722.5" y="-73" font-family="Helvetica,sans-Serif" font-size="10.00">_command_substitution.c</text>
</a>
</g>
</g>
<!-- Node1&#45;&gt;Node9 -->
<g id="edge52" class="edge">
<title>Node1&#45;&gt;Node9</title>
<path fill="none" stroke="#63b8ff" d="M2248.9,-205.97C2046.48,-203.72 1328.65,-193.66 1102.5,-162 1047.2,-154.26 1035.04,-143.98 980.5,-132 917.56,-118.17 845.53,-104.38 793.6,-94.8"/>
<polygon fill="#63b8ff" stroke="#63b8ff" points="2248.94,-209.47 2258.98,-206.08 2249.02,-202.47 2248.94,-209.47"/>
</g>
<!-- Node10 -->
<g id="node10" class="node">
<title>Node10</title>
<g id="a_node10"><a xlink:href="execute__logical__and_8c.html" target="_top" xlink:title=" ">
<polygon fill="white" stroke="#666666" points="929,-96 812,-96 812,-66 929,-66 929,-96"/>
<text text-anchor="start" x="820" y="-84" font-family="Helvetica,sans-Serif" font-size="10.00">src/executer/execute</text>
<text text-anchor="middle" x="870.5" y="-73" font-family="Helvetica,sans-Serif" font-size="10.00">_logical_and.c</text>
</a>
</g>
</g>
<!-- Node1&#45;&gt;Node10 -->
<g id="edge53" class="edge">
<title>Node1&#45;&gt;Node10</title>
<path fill="none" stroke="#63b8ff" d="M2248.52,-206.63C2054.09,-206.72 1390.05,-203.91 1182.5,-162 1145.28,-154.48 1138.94,-142.7 1102.5,-132 1094.12,-129.54 995.13,-108.42 929.19,-94.43"/>
<polygon fill="#63b8ff" stroke="#63b8ff" points="2248.78,-210.13 2258.77,-206.62 2248.77,-203.13 2248.78,-210.13"/>
</g>
<!-- Node11 -->
<g id="node11" class="node">
<title>Node11</title>
<g id="a_node11"><a xlink:href="execute__logical__or_8c.html" target="_top" xlink:title=" ">
<polygon fill="white" stroke="#666666" points="1064,-96 947,-96 947,-66 1064,-66 1064,-96"/>
<text text-anchor="start" x="955" y="-84" font-family="Helvetica,sans-Serif" font-size="10.00">src/executer/execute</text>
<text text-anchor="middle" x="1005.5" y="-73" font-family="Helvetica,sans-Serif" font-size="10.00">_logical_or.c</text>
</a>
</g>
</g>
<!-- Node1&#45;&gt;Node11 -->
<g id="edge54" class="edge">
<title>Node1&#45;&gt;Node11</title>
<path fill="none" stroke="#63b8ff" d="M2248.72,-205.59C2046.62,-201.97 1339.17,-187.58 1241.5,-162 1213.04,-154.55 1209.9,-142.72 1182.5,-132 1143.99,-116.94 1099.15,-104.32 1064.23,-95.53"/>
<polygon fill="#63b8ff" stroke="#63b8ff" points="2248.74,-209.09 2258.8,-205.76 2248.86,-202.09 2248.74,-209.09"/>
</g>
<!-- Node12 -->
<g id="node12" class="node">
<title>Node12</title>
<g id="a_node12"><a xlink:href="execute__pipe_8c.html" target="_top" xlink:title=" ">
<polygon fill="white" stroke="#666666" points="1199,-96 1082,-96 1082,-66 1199,-66 1199,-96"/>
<text text-anchor="start" x="1090" y="-84" font-family="Helvetica,sans-Serif" font-size="10.00">src/executer/execute</text>
<text text-anchor="middle" x="1140.5" y="-73" font-family="Helvetica,sans-Serif" font-size="10.00">_pipe.c</text>
</a>
</g>
</g>
<!-- Node1&#45;&gt;Node12 -->
<g id="edge55" class="edge">
<title>Node1&#45;&gt;Node12</title>
<path fill="none" stroke="#63b8ff" d="M2248.76,-205.47C2053.93,-201.54 1391.27,-186.5 1299.5,-162 1271.46,-154.52 1267.39,-145.11 1241.5,-132 1217.23,-119.72 1189.54,-106.03 1169.3,-96.09"/>
<polygon fill="#63b8ff" stroke="#63b8ff" points="2248.7,-208.97 2258.76,-205.67 2248.84,-201.97 2248.7,-208.97"/>
</g>
<!-- Node13 -->
<g id="node13" class="node">
<title>Node13</title>
<g id="a_node13"><a xlink:href="execute__redirect_8c.html" target="_top" xlink:title=" ">
<polygon fill="white" stroke="#666666" points="1510,-96 1393,-96 1393,-66 1510,-66 1510,-96"/>
<text text-anchor="start" x="1401" y="-84" font-family="Helvetica,sans-Serif" font-size="10.00">src/executer/execute</text>
<text text-anchor="middle" x="1451.5" y="-73" font-family="Helvetica,sans-Serif" font-size="10.00">_redirect.c</text>
</a>
</g>
</g>
<!-- Node1&#45;&gt;Node13 -->
<g id="edge56" class="edge">
<title>Node1&#45;&gt;Node13</title>
<path fill="none" stroke="#63b8ff" d="M2248.72,-206.56C2143.71,-205.79 1904.44,-199.62 1707.5,-162 1627,-146.62 1536.19,-114.58 1487.29,-96.05"/>
<polygon fill="#63b8ff" stroke="#63b8ff" points="2248.73,-210.06 2258.75,-206.62 2248.77,-203.06 2248.73,-210.06"/>
</g>
<!-- Node14 -->
<g id="node14" class="node">
<title>Node14</title>
<g id="a_node14"><a xlink:href="execute__repeat_8c.html" target="_top" xlink:title=" ">
<polygon fill="white" stroke="#666666" points="1645,-96 1528,-96 1528,-66 1645,-66 1645,-96"/>
<text text-anchor="start" x="1536" y="-84" font-family="Helvetica,sans-Serif" font-size="10.00">src/executer/execute</text>
<text text-anchor="middle" x="1586.5" y="-73" font-family="Helvetica,sans-Serif" font-size="10.00">_repeat.c</text>
</a>
</g>
</g>
<!-- Node1&#45;&gt;Node14 -->
<g id="edge57" class="edge">
<title>Node1&#45;&gt;Node14</title>
<path fill="none" stroke="#63b8ff" d="M2248.74,-206.06C2157.54,-204.33 1967.17,-196.48 1810.5,-162 1739.72,-146.42 1660.71,-114.61 1618.02,-96.14"/>
<polygon fill="#63b8ff" stroke="#63b8ff" points="2248.77,-209.56 2258.83,-206.23 2248.89,-202.56 2248.77,-209.56"/>
</g>
<!-- Node15 -->
<g id="node15" class="node">
<title>Node15</title>
<g id="a_node15"><a xlink:href="execute__sequence_8c.html" target="_top" xlink:title=" ">
<polygon fill="white" stroke="#666666" points="1780,-96 1663,-96 1663,-66 1780,-66 1780,-96"/>
<text text-anchor="start" x="1671" y="-84" font-family="Helvetica,sans-Serif" font-size="10.00">src/executer/execute</text>
<text text-anchor="middle" x="1721.5" y="-73" font-family="Helvetica,sans-Serif" font-size="10.00">_sequence.c</text>
</a>
</g>
</g>
<!-- Node1&#45;&gt;Node15 -->
<g id="edge58" class="edge">
<title>Node1&#45;&gt;Node15</title>
<path fill="none" stroke="#63b8ff" d="M2248.47,-206.42C2168.52,-205.03 2014.68,-197.44 1889.5,-162 1834.79,-146.51 1775.9,-114.51 1744.44,-96.02"/>
<polygon fill="#63b8ff" stroke="#63b8ff" points="2248.73,-209.93 2258.78,-206.57 2248.84,-202.93 2248.73,-209.93"/>
</g>
<!-- Node16 -->
<g id="node16" class="node">
<title>Node16</title>
<g id="a_node16"><a xlink:href="execute__subshell_8c.html" target="_top" xlink:title=" ">
<polygon fill="white" stroke="#666666" points="1915,-96 1798,-96 1798,-66 1915,-66 1915,-96"/>
<text text-anchor="start" x="1806" y="-84" font-family="Helvetica,sans-Serif" font-size="10.00">src/executer/execute</text>
<text text-anchor="middle" x="1856.5" y="-73" font-family="Helvetica,sans-Serif" font-size="10.00">_subshell.c</text>
</a>
</g>
</g>
<!-- Node1&#45;&gt;Node16 -->
<g id="edge59" class="edge">
<title>Node1&#45;&gt;Node16</title>
<path fill="none" stroke="#63b8ff" d="M2248.46,-204.66C2158.83,-200.84 1983.89,-189.97 1929.5,-162 1900.07,-146.87 1876.6,-114.73 1864.81,-96.12"/>
<polygon fill="#63b8ff" stroke="#63b8ff" points="2248.55,-208.16 2258.69,-205.08 2248.84,-201.17 2248.55,-208.16"/>
</g>
<!-- Node19 -->
<g id="node19" class="node">
<title>Node19</title>
<g id="a_node19"><a xlink:href="shell_8c.html" target="_top" xlink:title=" ">
<polygon fill="white" stroke="#666666" points="2426,-24.5 2361,-24.5 2361,-5.5 2426,-5.5 2426,-24.5"/>
<text text-anchor="middle" x="2393.5" y="-12.5" font-family="Helvetica,sans-Serif" font-size="10.00">src/shell.c</text>
</a>
</g>
</g>
<!-- Node1&#45;&gt;Node19 -->
<g id="edge66" class="edge">
<title>Node1&#45;&gt;Node19</title>
<path fill="none" stroke="#63b8ff" d="M2248.55,-202.96C2132.76,-193.47 1877.55,-161.37 1962.5,-66 1988.93,-36.33 2264.59,-21.6 2360.68,-17.34"/>
<polygon fill="#63b8ff" stroke="#63b8ff" points="2248.4,-206.46 2258.64,-203.76 2248.95,-199.48 2248.4,-206.46"/>
</g>
<!-- Node20 -->
<g id="node20" class="node">
<title>Node20</title>
<g id="a_node20"><a xlink:href="lexer_8h.html" target="_top" xlink:title=" ">
<polygon fill="#fff0f0" stroke="red" points="2418,-156.5 2331,-156.5 2331,-137.5 2418,-137.5 2418,-156.5"/>
<text text-anchor="middle" x="2374.5" y="-144.5" font-family="Helvetica,sans-Serif" font-size="10.00">include/lexer.h</text>
</a>
</g>
</g>
<!-- Node1&#45;&gt;Node20 -->
<g id="edge20" class="edge">
<title>Node1&#45;&gt;Node20</title>
<path fill="none" stroke="#63b8ff" d="M2320.92,-191.54C2334.51,-180.49 2352.54,-165.84 2363.83,-156.67"/>
<polygon fill="#63b8ff" stroke="#63b8ff" points="2318.68,-188.85 2313.12,-197.87 2323.09,-194.28 2318.68,-188.85"/>
</g>
<!-- Node28 -->
<g id="node22" class="node">
<title>Node28</title>
<g id="a_node22"><a xlink:href="parse__command_8c.html" target="_top" xlink:title=" ">
<polygon fill="white" stroke="#666666" points="3699.5,-30 3569.5,-30 3569.5,0 3699.5,0 3699.5,-30"/>
<text text-anchor="start" x="3577.5" y="-18" font-family="Helvetica,sans-Serif" font-size="10.00">src/parser/tokens/parse</text>
<text text-anchor="middle" x="3634.5" y="-7" font-family="Helvetica,sans-Serif" font-size="10.00">_command.c</text>
</a>
</g>
</g>
<!-- Node1&#45;&gt;Node28 -->
<g id="edge64" class="edge">
<title>Node1&#45;&gt;Node28</title>
<path fill="none" stroke="#63b8ff" d="M2356.16,-196.65C2388.08,-189.56 2428.79,-178.35 2462.5,-162 2482.82,-152.15 2482.11,-139.24 2503.5,-132 2592.92,-101.73 4136.45,-163.46 4202.5,-96 4274.21,-22.75 3863.24,-15.58 3699.55,-15.58"/>
<polygon fill="#63b8ff" stroke="#63b8ff" points="2355.17,-193.28 2346.13,-198.8 2356.64,-200.12 2355.17,-193.28"/>
</g>
<!-- Node35 -->
<g id="node23" class="node">
<title>Node35</title>
<g id="a_node23"><a xlink:href="lexer__expand__tilde_8c.html" target="_top" xlink:title=" ">
<polygon fill="white" stroke="#666666" points="2257.5,-96 2131.5,-96 2131.5,-66 2257.5,-66 2257.5,-96"/>
<text text-anchor="start" x="2139.5" y="-84" font-family="Helvetica,sans-Serif" font-size="10.00">src/lexer/lexer_expand</text>
<text text-anchor="middle" x="2194.5" y="-73" font-family="Helvetica,sans-Serif" font-size="10.00">_tilde.c</text>
</a>
</g>
</g>
<!-- Node1&#45;&gt;Node35 -->
<g id="edge60" class="edge">
<title>Node1&#45;&gt;Node35</title>
<path fill="none" stroke="#63b8ff" d="M2288.38,-190.22C2267.05,-165.63 2226.97,-119.43 2206.78,-96.16"/>
<polygon fill="#63b8ff" stroke="#63b8ff" points="2285.88,-192.68 2295.08,-197.94 2291.17,-188.1 2285.88,-192.68"/>
</g>
<!-- Node36 -->
<g id="node24" class="node">
<title>Node36</title>
<g id="a_node24"><a xlink:href="lexer__expand__variable_8c.html" target="_top" xlink:title=" ">
<polygon fill="white" stroke="#666666" points="2401.5,-96 2275.5,-96 2275.5,-66 2401.5,-66 2401.5,-96"/>
<text text-anchor="start" x="2283.5" y="-84" font-family="Helvetica,sans-Serif" font-size="10.00">src/lexer/lexer_expand</text>
<text text-anchor="middle" x="2338.5" y="-73" font-family="Helvetica,sans-Serif" font-size="10.00">_variable.c</text>
</a>
</g>
</g>
<!-- Node1&#45;&gt;Node36 -->
<g id="edge61" class="edge">
<title>Node1&#45;&gt;Node36</title>
<path fill="none" stroke="#63b8ff" d="M2307.3,-187.64C2311.21,-172.54 2316.96,-150.84 2322.5,-132 2326.05,-119.93 2330.42,-106.35 2333.7,-96.39"/>
<polygon fill="#63b8ff" stroke="#63b8ff" points="2303.8,-187.19 2304.71,-197.75 2310.58,-188.93 2303.8,-187.19"/>
</g>
<!-- Node37 -->
<g id="node25" class="node">
<title>Node37</title>
<g id="a_node25"><a xlink:href="lexer__init_8c.html" target="_top" xlink:title=" ">
<polygon fill="white" stroke="#666666" points="4193.5,-90.5 4079.5,-90.5 4079.5,-71.5 4193.5,-71.5 4193.5,-90.5"/>
<text text-anchor="middle" x="4136.5" y="-78.5" font-family="Helvetica,sans-Serif" font-size="10.00">src/lexer/lexer_init.c</text>
</a>
</g>
</g>
<!-- Node1&#45;&gt;Node37 -->
<g id="edge62" class="edge">
<title>Node1&#45;&gt;Node37</title>
<path fill="none" stroke="#63b8ff" d="M2343.39,-194.98C2368.37,-187.21 2400.59,-175.86 2427.5,-162 2448.22,-151.33 2448.35,-139.24 2470.5,-132 2639.53,-76.77 3893.87,-116.54 4070.5,-96 4080.86,-94.8 4091.99,-92.74 4102.1,-90.56"/>
<polygon fill="#63b8ff" stroke="#63b8ff" points="2342.05,-191.73 2333.5,-197.99 2344.09,-198.43 2342.05,-191.73"/>
</g>
<!-- Node51 -->
<g id="node37" class="node">
<title>Node51</title>
<g id="a_node37"><a xlink:href="cd_8c.html" target="_top" xlink:title=" ">
<polygon fill="white" stroke="#666666" points="2604.5,-156.5 2512.5,-156.5 2512.5,-137.5 2604.5,-137.5 2604.5,-156.5"/>
<text text-anchor="middle" x="2558.5" y="-144.5" font-family="Helvetica,sans-Serif" font-size="10.00">src/builtins/cd.c</text>
</a>
</g>
</g>
<!-- Node1&#45;&gt;Node51 -->
<g id="edge41" class="edge">
<title>Node1&#45;&gt;Node51</title>
<path fill="none" stroke="#63b8ff" d="M2350.39,-195.71C2390.09,-186.75 2447.98,-173.63 2498.5,-162 2506.11,-160.25 2514.26,-158.36 2522.02,-156.55"/>
<polygon fill="#63b8ff" stroke="#63b8ff" points="2349.44,-192.34 2340.46,-197.95 2350.98,-199.17 2349.44,-192.34"/>
</g>
<!-- Node52 -->
<g id="node38" class="node">
<title>Node52</title>
<g id="a_node38"><a xlink:href="env_8c.html" target="_top" xlink:title=" ">
<polygon fill="white" stroke="#666666" points="2720.5,-156.5 2622.5,-156.5 2622.5,-137.5 2720.5,-137.5 2720.5,-156.5"/>
<text text-anchor="middle" x="2671.5" y="-144.5" font-family="Helvetica,sans-Serif" font-size="10.00">src/builtins/env.c</text>
</a>
</g>
</g>
<!-- Node1&#45;&gt;Node52 -->
<g id="edge42" class="edge">
<title>Node1&#45;&gt;Node52</title>
<path fill="none" stroke="#63b8ff" d="M2356.22,-200.38C2418.41,-192.94 2523.81,-179.2 2613.5,-162 2621.64,-160.44 2630.35,-158.49 2638.49,-156.54"/>
<polygon fill="#63b8ff" stroke="#63b8ff" points="2355.76,-196.91 2346.24,-201.57 2356.58,-203.86 2355.76,-196.91"/>
</g>
<!-- Node53 -->
<g id="node39" class="node">
<title>Node53</title>
<g id="a_node39"><a xlink:href="exit_8c.html" target="_top" xlink:title=" ">
<polygon fill="white" stroke="#666666" points="2838.5,-156.5 2738.5,-156.5 2738.5,-137.5 2838.5,-137.5 2838.5,-156.5"/>
<text text-anchor="middle" x="2788.5" y="-144.5" font-family="Helvetica,sans-Serif" font-size="10.00">src/builtins/exit.c</text>
</a>
</g>
</g>
<!-- Node1&#45;&gt;Node53 -->
<g id="edge43" class="edge">
<title>Node1&#45;&gt;Node53</title>
<path fill="none" stroke="#63b8ff" d="M2356.07,-203.15C2437.26,-197.56 2596.14,-184.67 2729.5,-162 2738.11,-160.54 2747.34,-158.55 2755.89,-156.53"/>
<polygon fill="#63b8ff" stroke="#63b8ff" points="2355.83,-199.66 2346.09,-203.82 2356.3,-206.64 2355.83,-199.66"/>
</g>
<!-- Node54 -->
<g id="node40" class="node">
<title>Node54</title>
<g id="a_node40"><a xlink:href="unset_8c.html" target="_top" xlink:title=" ">
<polygon fill="white" stroke="#666666" points="2964.5,-156.5 2856.5,-156.5 2856.5,-137.5 2964.5,-137.5 2964.5,-156.5"/>
<text text-anchor="middle" x="2910.5" y="-144.5" font-family="Helvetica,sans-Serif" font-size="10.00">src/builtins/unset.c</text>
</a>
</g>
</g>
<!-- Node1&#45;&gt;Node54 -->
<g id="edge46" class="edge">
<title>Node1&#45;&gt;Node54</title>
<path fill="none" stroke="#63b8ff" d="M2356.44,-204.55C2454.62,-200.46 2668.86,-189.01 2847.5,-162 2856.81,-160.59 2866.79,-158.6 2876,-156.56"/>
<polygon fill="#63b8ff" stroke="#63b8ff" points="2356.03,-201.06 2346.18,-204.97 2356.32,-208.06 2356.03,-201.06"/>
</g>
<!-- Node55 -->
<g id="node41" class="node">
<title>Node55</title>
<g id="a_node41"><a xlink:href="unsetenv_8c.html" target="_top" xlink:title=" ">
<polygon fill="white" stroke="#666666" points="3108,-156.5 2983,-156.5 2983,-137.5 3108,-137.5 3108,-156.5"/>
<text text-anchor="middle" x="3045.5" y="-144.5" font-family="Helvetica,sans-Serif" font-size="10.00">src/builtins/unsetenv.c</text>
</a>
</g>
</g>
<!-- Node1&#45;&gt;Node55 -->
<g id="edge47" class="edge">
<title>Node1&#45;&gt;Node55</title>
<path fill="none" stroke="#63b8ff" d="M2356.48,-205.22C2470.75,-202.01 2745.31,-191.63 2973.5,-162 2984.23,-160.61 2995.78,-158.59 3006.41,-156.53"/>
<polygon fill="#63b8ff" stroke="#63b8ff" points="2356.16,-201.73 2346.25,-205.5 2356.35,-208.73 2356.16,-201.73"/>
</g>
<!-- Node56 -->
<g id="node42" class="node">
<title>Node56</title>
<g id="a_node42"><a xlink:href="env__to__list_8c.html" target="_top" xlink:title=" ">
<polygon fill="white" stroke="#666666" points="3242.5,-156.5 3126.5,-156.5 3126.5,-137.5 3242.5,-137.5 3242.5,-156.5"/>
<text text-anchor="middle" x="3184.5" y="-144.5" font-family="Helvetica,sans-Serif" font-size="10.00">src/env/env_to_list.c</text>
</a>
</g>
</g>
<!-- Node1&#45;&gt;Node56 -->
<g id="edge48" class="edge">
<title>Node1&#45;&gt;Node56</title>
<path fill="none" stroke="#63b8ff" d="M2356.15,-206.37C2486.92,-205.45 2832.28,-199.37 3117.5,-162 3127.63,-160.67 3138.52,-158.66 3148.51,-156.57"/>
<polygon fill="#63b8ff" stroke="#63b8ff" points="2355.98,-202.87 2346.01,-206.44 2356.03,-209.87 2355.98,-202.87"/>
</g>
<!-- Node57 -->
<g id="node43" class="node">
<title>Node57</title>
<g id="a_node43"><a xlink:href="env__to__word__array_8c.html" target="_top" xlink:title=" ">
<polygon fill="white" stroke="#666666" points="3378,-162 3261,-162 3261,-132 3378,-132 3378,-162"/>
<text text-anchor="start" x="3269" y="-150" font-family="Helvetica,sans-Serif" font-size="10.00">src/env/env_to_word</text>
<text text-anchor="middle" x="3319.5" y="-139" font-family="Helvetica,sans-Serif" font-size="10.00">_array.c</text>
</a>
</g>
</g>
<!-- Node1&#45;&gt;Node57 -->
<g id="edge49" class="edge">
<title>Node1&#45;&gt;Node57</title>
<path fill="none" stroke="#63b8ff" d="M2356.63,-206.91C2502.04,-207.38 2913.03,-204.51 3251.5,-162 3254.61,-161.61 3257.79,-161.15 3260.99,-160.65"/>
<polygon fill="#63b8ff" stroke="#63b8ff" points="2356.23,-203.41 2346.22,-206.87 2356.21,-210.41 2356.23,-203.41"/>
</g>
<!-- Node58 -->
<g id="node44" class="node">
<title>Node58</title>
<g id="a_node44"><a xlink:href="main_8c.html" target="_top" xlink:title=" ">
<polygon fill="white" stroke="#666666" points="3463,-156.5 3396,-156.5 3396,-137.5 3463,-137.5 3463,-156.5"/>
<text text-anchor="middle" x="3429.5" y="-144.5" font-family="Helvetica,sans-Serif" font-size="10.00">src/main.c</text>
</a>
</g>
</g>
<!-- Node1&#45;&gt;Node58 -->
<g id="edge63" class="edge">
<title>Node1&#45;&gt;Node58</title>
<path fill="none" stroke="#63b8ff" d="M2356.02,-206.29C2545.84,-205.22 3186.18,-198.92 3387.5,-162 3394.15,-160.78 3401.19,-158.74 3407.57,-156.6"/>
<polygon fill="#63b8ff" stroke="#63b8ff" points="2355.99,-202.79 2346.01,-206.34 2356.03,-209.79 2355.99,-202.79"/>
</g>
<!-- Node59 -->
<g id="node45" class="node">
<title>Node59</title>
<g id="a_node45"><a xlink:href="read__input_8c.html" target="_top" xlink:title=" ">
<polygon fill="white" stroke="#666666" points="3575.5,-156.5 3481.5,-156.5 3481.5,-137.5 3575.5,-137.5 3575.5,-156.5"/>
<text text-anchor="middle" x="3528.5" y="-144.5" font-family="Helvetica,sans-Serif" font-size="10.00">src/read_input.c</text>
</a>
</g>
</g>
<!-- Node1&#45;&gt;Node59 -->
<g id="edge65" class="edge">
<title>Node1&#45;&gt;Node59</title>
<path fill="none" stroke="#63b8ff" d="M2356.4,-205.93C2555.97,-203.59 3252.68,-193.31 3472.5,-162 3481.23,-160.76 3490.58,-158.71 3499.08,-156.57"/>
<polygon fill="#63b8ff" stroke="#63b8ff" points="2356.13,-202.43 2346.17,-206.05 2356.21,-209.43 2356.13,-202.43"/>
</g>
<!-- Node60 -->
<g id="node46" class="node">
<title>Node60</title>
<g id="a_node46"><a xlink:href="free__variable_8c.html" target="_top" xlink:title=" ">
<polygon fill="white" stroke="#666666" points="3695,-162 3594,-162 3594,-132 3695,-132 3695,-162"/>
<text text-anchor="start" x="3602" y="-150" font-family="Helvetica,sans-Serif" font-size="10.00">src/variables/free</text>
<text text-anchor="middle" x="3644.5" y="-139" font-family="Helvetica,sans-Serif" font-size="10.00">_variable.c</text>
</a>
</g>
</g>
<!-- Node1&#45;&gt;Node60 -->
<g id="edge67" class="edge">
<title>Node1&#45;&gt;Node60</title>
<path fill="none" stroke="#63b8ff" d="M2356.56,-206.02C2568.3,-203.94 3341.48,-194.26 3584.5,-162 3587.58,-161.59 3590.72,-161.1 3593.89,-160.54"/>
<polygon fill="#63b8ff" stroke="#63b8ff" points="2356.29,-202.53 2346.32,-206.12 2356.36,-209.53 2356.29,-202.53"/>
</g>
<!-- Node61 -->
<g id="node47" class="node">
<title>Node61</title>
<g id="a_node47"><a xlink:href="get__variable_8c.html" target="_top" xlink:title=" ">
<polygon fill="white" stroke="#666666" points="3864,-156.5 3713,-156.5 3713,-137.5 3864,-137.5 3864,-156.5"/>
<text text-anchor="middle" x="3788.5" y="-144.5" font-family="Helvetica,sans-Serif" font-size="10.00">src/variables/get_variable.c</text>
</a>
</g>
</g>
<!-- Node1&#45;&gt;Node61 -->
<g id="edge68" class="edge">
<title>Node1&#45;&gt;Node61</title>
<path fill="none" stroke="#63b8ff" d="M2356.33,-205.75C2579.85,-202.5 3435.67,-188.55 3704.5,-162 3717.45,-160.72 3731.42,-158.67 3744.18,-156.52"/>
<polygon fill="#63b8ff" stroke="#63b8ff" points="2356.12,-202.26 2346.17,-205.9 2356.22,-209.25 2356.12,-202.26"/>
</g>
<!-- Node62 -->
<g id="node48" class="node">
<title>Node62</title>
<g id="a_node48"><a xlink:href="get__variable__value_8c.html" target="_top" xlink:title=" ">
<polygon fill="white" stroke="#666666" points="4025,-162 3882,-162 3882,-132 4025,-132 4025,-162"/>
<text text-anchor="start" x="3890" y="-150" font-family="Helvetica,sans-Serif" font-size="10.00">src/variables/get_variable</text>
<text text-anchor="middle" x="3953.5" y="-139" font-family="Helvetica,sans-Serif" font-size="10.00">_value.c</text>
</a>
</g>
</g>
<!-- Node1&#45;&gt;Node62 -->
<g id="edge69" class="edge">
<title>Node1&#45;&gt;Node62</title>
<path fill="none" stroke="#63b8ff" d="M2356.4,-206.02C2596.45,-203.74 3569.73,-192.72 3873.5,-162 3876.17,-161.73 3878.88,-161.42 3881.61,-161.09"/>
<polygon fill="#63b8ff" stroke="#63b8ff" points="2356.15,-202.53 2346.19,-206.12 2356.22,-209.52 2356.15,-202.53"/>
</g>
<!-- Node63 -->
<g id="node49" class="node">
<title>Node63</title>
<g id="a_node49"><a xlink:href="set__variable_8c.html" target="_top" xlink:title=" ">
<polygon fill="white" stroke="#666666" points="4193.5,-156.5 4043.5,-156.5 4043.5,-137.5 4193.5,-137.5 4193.5,-156.5"/>
<text text-anchor="middle" x="4118.5" y="-144.5" font-family="Helvetica,sans-Serif" font-size="10.00">src/variables/set_variable.c</text>
</a>
</g>
</g>
<!-- Node1&#45;&gt;Node63 -->
<g id="edge70" class="edge">
<title>Node1&#45;&gt;Node63</title>
<path fill="none" stroke="#63b8ff" d="M2356.44,-206.13C2611.37,-204.22 3697.08,-194.29 4034.5,-162 4047.45,-160.76 4061.42,-158.72 4074.19,-156.57"/>
<polygon fill="#63b8ff" stroke="#63b8ff" points="2356.3,-202.63 2346.32,-206.2 2356.35,-209.63 2356.3,-202.63"/>
</g>
<!-- Node64 -->
<g id="node50" class="node">
<title>Node64</title>
<g id="a_node50"><a xlink:href="unset__variable_8c.html" target="_top" xlink:title=" ">
<polygon fill="white" stroke="#666666" points="4321,-162 4212,-162 4212,-132 4321,-132 4321,-162"/>
<text text-anchor="start" x="4220" y="-150" font-family="Helvetica,sans-Serif" font-size="10.00">src/variables/unset</text>
<text text-anchor="middle" x="4266.5" y="-139" font-family="Helvetica,sans-Serif" font-size="10.00">_variable.c</text>
</a>
</g>
</g>
<!-- Node1&#45;&gt;Node64 -->
<g id="edge71" class="edge">
<title>Node1&#45;&gt;Node64</title>
<path fill="none" stroke="#63b8ff" d="M2356.36,-206.63C2626,-207.09 3830.93,-206.57 4202.5,-162 4205.55,-161.63 4208.67,-161.19 4211.81,-160.69"/>
<polygon fill="#63b8ff" stroke="#63b8ff" points="2356.07,-203.13 2346.06,-206.62 2356.05,-210.13 2356.07,-203.13"/>
</g>
<!-- Node2&#45;&gt;Node3 -->
<g id="edge2" class="edge">
<title>Node2&#45;&gt;Node3</title>
<path fill="none" stroke="#63b8ff" d="M263.35,-134.86C214.43,-122.24 135.75,-101.94 91.49,-90.51"/>
<polygon fill="#63b8ff" stroke="#63b8ff" points="262.75,-138.33 273.31,-137.44 264.5,-131.55 262.75,-138.33"/>
</g>
<!-- Node2&#45;&gt;Node4 -->
<g id="edge3" class="edge">
<title>Node2&#45;&gt;Node4</title>
<path fill="none" stroke="#63b8ff" d="M280.93,-132.69C256.7,-120.09 221.01,-101.51 200.22,-90.7"/>
<polygon fill="#63b8ff" stroke="#63b8ff" points="279.43,-135.86 289.91,-137.37 282.66,-129.65 279.43,-135.86"/>
</g>
<!-- Node2&#45;&gt;Node5 -->
<g id="edge4" class="edge">
<title>Node2&#45;&gt;Node5</title>
<path fill="none" stroke="#63b8ff" d="M306.5,-127.08C306.5,-115.13 306.5,-100.22 306.5,-90.91"/>
<polygon fill="#63b8ff" stroke="#63b8ff" points="303,-127.37 306.5,-137.37 310,-127.37 303,-127.37"/>
</g>
<!-- Node2&#45;&gt;Node6 -->
<g id="edge5" class="edge">
<title>Node2&#45;&gt;Node6</title>
<path fill="none" stroke="#63b8ff" d="M333.66,-132.93C355.91,-122.22 387.34,-107.1 410.17,-96.12"/>
<polygon fill="#63b8ff" stroke="#63b8ff" points="331.93,-129.88 324.44,-137.37 334.97,-136.19 331.93,-129.88"/>
</g>
<!-- Node7&#45;&gt;Node6 -->
<g id="edge8" class="edge">
<title>Node7&#45;&gt;Node6</title>
<path fill="none" stroke="#63b8ff" d="M1298.45,-145.49C1156.43,-143.65 800.92,-135.15 506.5,-96 503.79,-95.64 501.03,-95.23 498.24,-94.79"/>
<polygon fill="#63b8ff" stroke="#63b8ff" points="1298.66,-148.99 1308.71,-145.62 1298.75,-141.99 1298.66,-148.99"/>
</g>
<!-- Node7&#45;&gt;Node8 -->
<g id="edge7" class="edge">
<title>Node7&#45;&gt;Node8</title>
<path fill="none" stroke="#63b8ff" d="M1298.76,-144.45C1173.48,-140.75 883.66,-129.06 642.5,-96 639.4,-95.57 636.22,-95.09 633.02,-94.57"/>
<polygon fill="#63b8ff" stroke="#63b8ff" points="1298.83,-147.96 1308.93,-144.75 1299.03,-140.96 1298.83,-147.96"/>
</g>
<!-- Node7&#45;&gt;Node9 -->
<g id="edge9" class="edge">
<title>Node7&#45;&gt;Node9</title>
<path fill="none" stroke="#63b8ff" d="M1298.65,-142.11C1194.99,-135.3 981.81,-119.67 802.5,-96 799.56,-95.61 796.57,-95.19 793.55,-94.75"/>
<polygon fill="#63b8ff" stroke="#63b8ff" points="1298.73,-145.62 1308.93,-142.78 1299.18,-138.63 1298.73,-145.62"/>
</g>
<!-- Node7&#45;&gt;Node10 -->
<g id="edge10" class="edge">
<title>Node7&#45;&gt;Node10</title>
<path fill="none" stroke="#63b8ff" d="M1298.72,-140.35C1215.74,-132.48 1065.13,-116.82 937.5,-96 934.8,-95.56 932.05,-95.09 929.27,-94.59"/>
<polygon fill="#63b8ff" stroke="#63b8ff" points="1298.46,-143.84 1308.74,-141.29 1299.11,-136.87 1298.46,-143.84"/>
</g>
<!-- Node7&#45;&gt;Node11 -->
<g id="edge11" class="edge">
<title>Node7&#45;&gt;Node11</title>
<path fill="none" stroke="#63b8ff" d="M1298.72,-135.78C1240.1,-126.09 1150.23,-110.84 1072.5,-96 1069.82,-95.49 1067.07,-94.95 1064.3,-94.41"/>
<polygon fill="#63b8ff" stroke="#63b8ff" points="1298.49,-139.29 1308.93,-137.47 1299.63,-132.39 1298.49,-139.29"/>
</g>
<!-- Node7&#45;&gt;Node12 -->
<g id="edge12" class="edge">
<title>Node7&#45;&gt;Node12</title>
<path fill="none" stroke="#63b8ff" d="M1321.73,-134.48C1284.59,-123.73 1229.04,-107.64 1189.24,-96.12"/>
<polygon fill="#63b8ff" stroke="#63b8ff" points="1321.12,-137.95 1331.69,-137.37 1323.06,-131.23 1321.12,-137.95"/>
</g>
<!-- Node7&#45;&gt;Node13 -->
<g id="edge13" class="edge">
<title>Node7&#45;&gt;Node13</title>
<path fill="none" stroke="#63b8ff" d="M1382.15,-131.32C1397.02,-120.74 1416.97,-106.56 1431.65,-96.12"/>
<polygon fill="#63b8ff" stroke="#63b8ff" points="1379.76,-128.72 1373.64,-137.37 1383.82,-134.43 1379.76,-128.72"/>
</g>
<!-- Node7&#45;&gt;Node14 -->
<g id="edge14" class="edge">
<title>Node7&#45;&gt;Node14</title>
<path fill="none" stroke="#63b8ff" d="M1401.5,-134.62C1439.32,-123.86 1496.18,-107.69 1536.87,-96.12"/>
<polygon fill="#63b8ff" stroke="#63b8ff" points="1400.51,-131.27 1391.84,-137.37 1402.42,-138 1400.51,-131.27"/>
</g>
<!-- Node7&#45;&gt;Node15 -->
<g id="edge15" class="edge">
<title>Node7&#45;&gt;Node15</title>
<path fill="none" stroke="#63b8ff" d="M1424.02,-135.92C1483.22,-126.22 1574.55,-110.88 1653.5,-96 1656.58,-95.42 1659.74,-94.81 1662.92,-94.19"/>
<polygon fill="#63b8ff" stroke="#63b8ff" points="1423.38,-132.47 1414.08,-137.54 1424.51,-139.38 1423.38,-132.47"/>
</g>
<!-- Node7&#45;&gt;Node16 -->
<g id="edge16" class="edge">
<title>Node7&#45;&gt;Node16</title>
<path fill="none" stroke="#63b8ff" d="M1424.37,-140.35C1507.86,-132.47 1659.76,-116.75 1788.5,-96 1791.59,-95.5 1794.76,-94.96 1797.95,-94.39"/>
<polygon fill="#63b8ff" stroke="#63b8ff" points="1423.92,-136.88 1414.29,-141.3 1424.58,-143.85 1423.92,-136.88"/>
</g>
<!-- Node17 -->
<g id="node17" class="node">
<title>Node17</title>
<g id="a_node17"><a xlink:href="wait__for__subprocess_8c.html" target="_top" xlink:title=" ">
<polygon fill="white" stroke="#666666" points="1336,-96 1217,-96 1217,-66 1336,-66 1336,-96"/>
<text text-anchor="start" x="1225" y="-84" font-family="Helvetica,sans-Serif" font-size="10.00">src/executer/wait_for</text>
<text text-anchor="middle" x="1276.5" y="-73" font-family="Helvetica,sans-Serif" font-size="10.00">_subprocess.c</text>
</a>
</g>
</g>
<!-- Node7&#45;&gt;Node17 -->
<g id="edge17" class="edge">
<title>Node7&#45;&gt;Node17</title>
<path fill="none" stroke="#63b8ff" d="M1342,-131.32C1327.95,-120.74 1309.12,-106.56 1295.25,-96.12"/>
<polygon fill="#63b8ff" stroke="#63b8ff" points="1339.94,-134.15 1350.04,-137.37 1344.15,-128.56 1339.94,-134.15"/>
</g>
<!-- Node18 -->
<g id="node18" class="node">
<title>Node18</title>
<g id="a_node18"><a xlink:href="lexer__expand__command__substitution_8c.html" target="_top" xlink:title=" ">
<polygon fill="white" stroke="#666666" points="2113.5,-96 1971.5,-96 1971.5,-66 2113.5,-66 2113.5,-96"/>
<text text-anchor="start" x="1979.5" y="-84" font-family="Helvetica,sans-Serif" font-size="10.00">src/lexer/lexer_expand</text>
<text text-anchor="middle" x="2042.5" y="-73" font-family="Helvetica,sans-Serif" font-size="10.00">_command_substitution.c</text>
</a>
</g>
</g>
<!-- Node7&#45;&gt;Node18 -->
<g id="edge18" class="edge">
<title>Node7&#45;&gt;Node18</title>
<path fill="none" stroke="#63b8ff" d="M1424.24,-141C1528.15,-132.6 1742.45,-114.7 1923.5,-96 1939.02,-94.4 1955.66,-92.53 1971.43,-90.7"/>
<polygon fill="#63b8ff" stroke="#63b8ff" points="1423.92,-137.52 1414.24,-141.81 1424.48,-144.49 1423.92,-137.52"/>
</g>
<!-- Node7&#45;&gt;Node19 -->
<g id="edge19" class="edge">
<title>Node7&#45;&gt;Node19</title>
<path fill="none" stroke="#63b8ff" d="M1360.86,-127.26C1361.35,-108.55 1365.36,-80.55 1383.5,-66 1422.49,-34.73 2191.49,-19.53 2360.74,-16.55"/>
<polygon fill="#63b8ff" stroke="#63b8ff" points="1357.36,-127.29 1360.91,-137.27 1364.36,-127.26 1357.36,-127.29"/>
</g>
<!-- Node20&#45;&gt;Node18 -->
<g id="edge24" class="edge">
<title>Node20&#45;&gt;Node18</title>
<path fill="none" stroke="#63b8ff" d="M2320.63,-135.62C2264.33,-124.76 2175.72,-107.68 2113.68,-95.72"/>
<polygon fill="#63b8ff" stroke="#63b8ff" points="2320.27,-139.11 2330.76,-137.57 2321.6,-132.24 2320.27,-139.11"/>
</g>
<!-- Node20&#45;&gt;Node19 -->
<g id="edge39" class="edge">
<title>Node20&#45;&gt;Node19</title>
<path fill="none" stroke="#63b8ff" d="M2416.01,-135.21C2421.53,-134 2427.13,-132.89 2432.5,-132 2475.65,-124.85 2795.02,-128.31 2824.5,-96 2833.49,-86.15 2833.37,-75.96 2824.5,-66 2798.07,-36.33 2522.41,-21.6 2426.32,-17.34"/>
<polygon fill="#63b8ff" stroke="#63b8ff" points="2415.2,-131.81 2406.24,-137.46 2416.77,-138.63 2415.2,-131.81"/>
</g>
<!-- Node21 -->
<g id="node21" class="node">
<title>Node21</title>
<g id="a_node21"><a xlink:href="parser_8h.html" target="_top" xlink:title=" ">
<polygon fill="#fff0f0" stroke="red" points="3095.5,-90.5 3001.5,-90.5 3001.5,-71.5 3095.5,-71.5 3095.5,-90.5"/>
<text text-anchor="middle" x="3048.5" y="-78.5" font-family="Helvetica,sans-Serif" font-size="10.00">include/parser.h</text>
</a>
</g>
</g>
<!-- Node20&#45;&gt;Node21 -->
<g id="edge21" class="edge">
<title>Node20&#45;&gt;Node21</title>
<path fill="none" stroke="#63b8ff" d="M2415.6,-135.16C2421.25,-133.94 2427,-132.83 2432.5,-132 2679.08,-94.6 2746.07,-134.4 2992.5,-96 3001.02,-94.67 3010.13,-92.66 3018.48,-90.57"/>
<polygon fill="#63b8ff" stroke="#63b8ff" points="2414.57,-131.8 2405.61,-137.45 2416.14,-138.62 2414.57,-131.8"/>
</g>
<!-- Node20&#45;&gt;Node35 -->
<g id="edge25" class="edge">
<title>Node20&#45;&gt;Node35</title>
<path fill="none" stroke="#63b8ff" d="M2340.55,-133.93C2310.31,-123.18 2266.06,-107.44 2234.2,-96.12"/>
<polygon fill="#63b8ff" stroke="#63b8ff" points="2339.63,-137.32 2350.22,-137.37 2341.97,-130.72 2339.63,-137.32"/>
</g>
<!-- Node20&#45;&gt;Node36 -->
<g id="edge26" class="edge">
<title>Node20&#45;&gt;Node36</title>
<path fill="none" stroke="#63b8ff" d="M2364.72,-128.61C2359.03,-118.5 2351.95,-105.91 2346.58,-96.36"/>
<polygon fill="#63b8ff" stroke="#63b8ff" points="2361.69,-130.37 2369.64,-137.37 2367.79,-126.94 2361.69,-130.37"/>
</g>
<!-- Node20&#45;&gt;Node37 -->
<g id="edge27" class="edge">
<title>Node20&#45;&gt;Node37</title>
<path fill="none" stroke="#63b8ff" d="M2414.33,-135.2C2420.38,-133.9 2426.58,-132.77 2432.5,-132 3154.59,-38.03 3347.18,-179.92 4070.5,-96 4080.86,-94.8 4091.99,-92.74 4102.1,-90.57"/>
<polygon fill="#63b8ff" stroke="#63b8ff" points="2413.33,-131.84 2404.37,-137.49 2414.9,-138.66 2413.33,-131.84"/>
</g>
<!-- Node38 -->
<g id="node26" class="node">
<title>Node38</title>
<g id="a_node26"><a xlink:href="lexer__next__token_8c.html" target="_top" xlink:title=" ">
<polygon fill="white" stroke="#666666" points="2983.5,-96 2871.5,-96 2871.5,-66 2983.5,-66 2983.5,-96"/>
<text text-anchor="start" x="2879.5" y="-84" font-family="Helvetica,sans-Serif" font-size="10.00">src/lexer/lexer_next</text>
<text text-anchor="middle" x="2927.5" y="-73" font-family="Helvetica,sans-Serif" font-size="10.00">_token.c</text>
</a>
</g>
</g>
<!-- Node20&#45;&gt;Node38 -->
<g id="edge28" class="edge">
<title>Node20&#45;&gt;Node38</title>
<path fill="none" stroke="#63b8ff" d="M2415.81,-135.22C2421.39,-134 2427.07,-132.88 2432.5,-132 2619.62,-101.67 2669.81,-122.63 2857.5,-96 2862.04,-95.36 2866.73,-94.61 2871.43,-93.79"/>
<polygon fill="#63b8ff" stroke="#63b8ff" points="2414.89,-131.84 2405.93,-137.49 2416.46,-138.66 2414.89,-131.84"/>
</g>
<!-- Node39 -->
<g id="node27" class="node">
<title>Node39</title>
<g id="a_node27"><a xlink:href="lexer__utils_8c.html" target="_top" xlink:title=" ">
<polygon fill="white" stroke="#666666" points="3233,-90.5 3114,-90.5 3114,-71.5 3233,-71.5 3233,-90.5"/>
<text text-anchor="middle" x="3173.5" y="-78.5" font-family="Helvetica,sans-Serif" font-size="10.00">src/lexer/lexer_utils.c</text>
</a>
</g>
</g>
<!-- Node20&#45;&gt;Node39 -->
<g id="edge29" class="edge">
<title>Node20&#45;&gt;Node39</title>
<path fill="none" stroke="#63b8ff" d="M2415.39,-135.14C2421.1,-133.92 2426.93,-132.81 2432.5,-132 2728.45,-88.73 2807.81,-133.84 3104.5,-96 3114.93,-94.67 3126.14,-92.65 3136.42,-90.56"/>
<polygon fill="#63b8ff" stroke="#63b8ff" points="2414.26,-131.81 2405.3,-137.46 2415.83,-138.63 2414.26,-131.81"/>
</g>
<!-- Node40 -->
<g id="node28" class="node">
<title>Node40</title>
<g id="a_node28"><a xlink:href="lexer__heredoc_8c.html" target="_top" xlink:title=" ">
<polygon fill="white" stroke="#666666" points="3371.5,-96 3251.5,-96 3251.5,-66 3371.5,-66 3371.5,-96"/>
<text text-anchor="start" x="3259.5" y="-84" font-family="Helvetica,sans-Serif" font-size="10.00">src/lexer/tokens/lexer</text>
<text text-anchor="middle" x="3311.5" y="-73" font-family="Helvetica,sans-Serif" font-size="10.00">_heredoc.c</text>
</a>
</g>
</g>
<!-- Node20&#45;&gt;Node40 -->
<g id="edge30" class="edge">
<title>Node20&#45;&gt;Node40</title>
<path fill="none" stroke="#63b8ff" d="M2414.75,-135.23C2420.67,-133.96 2426.72,-132.82 2432.5,-132 2789.3,-81.49 2884.84,-139.96 3242.5,-96 3245.41,-95.64 3248.38,-95.23 3251.38,-94.77"/>
<polygon fill="#63b8ff" stroke="#63b8ff" points="2413.95,-131.82 2404.99,-137.48 2415.52,-138.65 2413.95,-131.82"/>
</g>
<!-- Node41 -->
<g id="node29" class="node">
<title>Node41</title>
<g id="a_node29"><a xlink:href="lexer__logical__and_8c.html" target="_top" xlink:title=" ">
<polygon fill="white" stroke="#666666" points="3509.5,-96 3389.5,-96 3389.5,-66 3509.5,-66 3509.5,-96"/>
<text text-anchor="start" x="3397.5" y="-84" font-family="Helvetica,sans-Serif" font-size="10.00">src/lexer/tokens/lexer</text>
<text text-anchor="middle" x="3449.5" y="-73" font-family="Helvetica,sans-Serif" font-size="10.00">_logical_and.c</text>
</a>
</g>
</g>
<!-- Node20&#45;&gt;Node41 -->
<g id="edge31" class="edge">
<title>Node20&#45;&gt;Node41</title>
<path fill="none" stroke="#63b8ff" d="M2414.75,-135.2C2420.67,-133.93 2426.72,-132.8 2432.5,-132 2850.16,-74.25 2961.85,-146.09 3380.5,-96 3383.41,-95.65 3386.39,-95.25 3389.38,-94.8"/>
<polygon fill="#63b8ff" stroke="#63b8ff" points="2413.95,-131.79 2404.98,-137.44 2415.51,-138.61 2413.95,-131.79"/>
</g>
<!-- Node42 -->
<g id="node30" class="node">
<title>Node42</title>
<g id="a_node30"><a xlink:href="lexer__logical__or_8c.html" target="_top" xlink:title=" ">
<polygon fill="white" stroke="#666666" points="3647.5,-96 3527.5,-96 3527.5,-66 3647.5,-66 3647.5,-96"/>
<text text-anchor="start" x="3535.5" y="-84" font-family="Helvetica,sans-Serif" font-size="10.00">src/lexer/tokens/lexer</text>
<text text-anchor="middle" x="3587.5" y="-73" font-family="Helvetica,sans-Serif" font-size="10.00">_logical_or.c</text>
</a>
</g>
</g>
<!-- Node20&#45;&gt;Node42 -->
<g id="edge32" class="edge">
<title>Node20&#45;&gt;Node42</title>
<path fill="none" stroke="#63b8ff" d="M2414.54,-135.21C2420.53,-133.93 2426.65,-132.79 2432.5,-132 2911.04,-67.01 3038.85,-152.21 3518.5,-96 3521.41,-95.66 3524.39,-95.26 3527.38,-94.81"/>
<polygon fill="#63b8ff" stroke="#63b8ff" points="2413.64,-131.83 2404.68,-137.48 2415.21,-138.65 2413.64,-131.83"/>
</g>
<!-- Node43 -->
<g id="node31" class="node">
<title>Node43</title>
<g id="a_node31"><a xlink:href="lexer__newline_8c.html" target="_top" xlink:title=" ">
<polygon fill="white" stroke="#666666" points="3785.5,-96 3665.5,-96 3665.5,-66 3785.5,-66 3785.5,-96"/>
<text text-anchor="start" x="3673.5" y="-84" font-family="Helvetica,sans-Serif" font-size="10.00">src/lexer/tokens/lexer</text>
<text text-anchor="middle" x="3725.5" y="-73" font-family="Helvetica,sans-Serif" font-size="10.00">_newline.c</text>
</a>
</g>
</g>
<!-- Node20&#45;&gt;Node43 -->
<g id="edge33" class="edge">
<title>Node20&#45;&gt;Node43</title>
<path fill="none" stroke="#63b8ff" d="M2414.54,-135.19C2420.52,-133.91 2426.65,-132.78 2432.5,-132 2971.92,-59.76 3115.85,-158.34 3656.5,-96 3659.41,-95.66 3662.39,-95.27 3665.39,-94.83"/>
<polygon fill="#63b8ff" stroke="#63b8ff" points="2413.64,-131.81 2404.68,-137.46 2415.21,-138.63 2413.64,-131.81"/>
</g>
<!-- Node44 -->
<g id="node32" class="node">
<title>Node44</title>
<g id="a_node32"><a xlink:href="lexer__parenthesis_8c.html" target="_top" xlink:title=" ">
<polygon fill="white" stroke="#666666" points="3923.5,-96 3803.5,-96 3803.5,-66 3923.5,-66 3923.5,-96"/>
<text text-anchor="start" x="3811.5" y="-84" font-family="Helvetica,sans-Serif" font-size="10.00">src/lexer/tokens/lexer</text>
<text text-anchor="middle" x="3863.5" y="-73" font-family="Helvetica,sans-Serif" font-size="10.00">_parenthesis.c</text>
</a>
</g>
</g>
<!-- Node20&#45;&gt;Node44 -->
<g id="edge34" class="edge">
<title>Node20&#45;&gt;Node44</title>
<path fill="none" stroke="#63b8ff" d="M2414.54,-135.18C2420.52,-133.9 2426.65,-132.78 2432.5,-132 3032.81,-52.52 3192.84,-164.46 3794.5,-96 3797.41,-95.67 3800.39,-95.28 3803.39,-94.84"/>
<polygon fill="#63b8ff" stroke="#63b8ff" points="2413.64,-131.79 2404.68,-137.44 2415.21,-138.62 2413.64,-131.79"/>
</g>
<!-- Node45 -->
<g id="node33" class="node">
<title>Node45</title>
<g id="a_node33"><a xlink:href="lexer__pipe_8c.html" target="_top" xlink:title=" ">
<polygon fill="white" stroke="#666666" points="4061.5,-96 3941.5,-96 3941.5,-66 4061.5,-66 4061.5,-96"/>
<text text-anchor="start" x="3949.5" y="-84" font-family="Helvetica,sans-Serif" font-size="10.00">src/lexer/tokens/lexer</text>
<text text-anchor="middle" x="4001.5" y="-73" font-family="Helvetica,sans-Serif" font-size="10.00">_pipe.c</text>
</a>
</g>
</g>
<!-- Node20&#45;&gt;Node45 -->
<g id="edge35" class="edge">
<title>Node20&#45;&gt;Node45</title>
<path fill="none" stroke="#63b8ff" d="M2414.54,-135.17C2420.52,-133.89 2426.64,-132.77 2432.5,-132 3093.7,-45.27 3269.83,-170.59 3932.5,-96 3935.42,-95.67 3938.39,-95.28 3941.39,-94.85"/>
<polygon fill="#63b8ff" stroke="#63b8ff" points="2413.64,-131.78 2404.67,-137.43 2415.2,-138.6 2413.64,-131.78"/>
</g>
<!-- Node46 -->
<g id="node34" class="node">
<title>Node46</title>
<g id="a_node34"><a xlink:href="lexer__redirect__append_8c.html" target="_top" xlink:title=" ">
<polygon fill="white" stroke="#666666" points="2539.5,-96 2419.5,-96 2419.5,-66 2539.5,-66 2539.5,-96"/>
<text text-anchor="start" x="2427.5" y="-84" font-family="Helvetica,sans-Serif" font-size="10.00">src/lexer/tokens/lexer</text>
<text text-anchor="middle" x="2479.5" y="-73" font-family="Helvetica,sans-Serif" font-size="10.00">_redirect_append.c</text>
</a>
</g>
</g>
<!-- Node20&#45;&gt;Node46 -->
<g id="edge36" class="edge">
<title>Node20&#45;&gt;Node46</title>
<path fill="none" stroke="#63b8ff" d="M2397.61,-131.91C2415.06,-121.28 2438.89,-106.75 2456.34,-96.12"/>
<polygon fill="#63b8ff" stroke="#63b8ff" points="2395.38,-129.18 2388.66,-137.37 2399.02,-135.15 2395.38,-129.18"/>
</g>
<!-- Node47 -->
<g id="node35" class="node">
<title>Node47</title>
<g id="a_node35"><a xlink:href="lexer__redirect__in_8c.html" target="_top" xlink:title=" ">
<polygon fill="white" stroke="#666666" points="2677.5,-96 2557.5,-96 2557.5,-66 2677.5,-66 2677.5,-96"/>
<text text-anchor="start" x="2565.5" y="-84" font-family="Helvetica,sans-Serif" font-size="10.00">src/lexer/tokens/lexer</text>
<text text-anchor="middle" x="2617.5" y="-73" font-family="Helvetica,sans-Serif" font-size="10.00">_redirect_in.c</text>
</a>
</g>
</g>
<!-- Node20&#45;&gt;Node47 -->
<g id="edge37" class="edge">
<title>Node20&#45;&gt;Node47</title>
<path fill="none" stroke="#63b8ff" d="M2416.69,-134.89C2457.63,-124.1 2519.91,-107.7 2564.25,-96.02"/>
<polygon fill="#63b8ff" stroke="#63b8ff" points="2415.8,-131.5 2407.02,-137.44 2417.58,-138.27 2415.8,-131.5"/>
</g>
<!-- Node48 -->
<g id="node36" class="node">
<title>Node48</title>
<g id="a_node36"><a xlink:href="lexer__redirect__out_8c.html" target="_top" xlink:title=" ">
<polygon fill="white" stroke="#666666" points="2815.5,-96 2695.5,-96 2695.5,-66 2815.5,-66 2815.5,-96"/>
<text text-anchor="start" x="2703.5" y="-84" font-family="Helvetica,sans-Serif" font-size="10.00">src/lexer/tokens/lexer</text>
<text text-anchor="middle" x="2755.5" y="-73" font-family="Helvetica,sans-Serif" font-size="10.00">_redirect_out.c</text>
</a>
</g>
</g>
<!-- Node20&#45;&gt;Node48 -->
<g id="edge38" class="edge">
<title>Node20&#45;&gt;Node48</title>
<path fill="none" stroke="#63b8ff" d="M2417.63,-135.1C2422.63,-133.99 2427.67,-132.92 2432.5,-132 2544.49,-110.6 2574.14,-115.34 2686.5,-96 2689.39,-95.5 2692.35,-94.97 2695.33,-94.43"/>
<polygon fill="#63b8ff" stroke="#63b8ff" points="2416.46,-131.78 2407.51,-137.45 2418.04,-138.6 2416.46,-131.78"/>
</g>
<!-- Node21&#45;&gt;Node19 -->
<g id="edge23" class="edge">
<title>Node21&#45;&gt;Node19</title>
<path fill="none" stroke="#63b8ff" d="M3008.23,-69.11C3002.96,-67.93 2997.62,-66.85 2992.5,-66 2778.36,-30.53 2516.76,-19.69 2426.19,-16.87"/>
<polygon fill="#63b8ff" stroke="#63b8ff" points="3007.63,-72.56 3018.17,-71.47 3009.25,-65.75 3007.63,-72.56"/>
</g>
<!-- Node21&#45;&gt;Node28 -->
<g id="edge22" class="edge">
<title>Node21&#45;&gt;Node28</title>
<path fill="none" stroke="#63b8ff" d="M3089.7,-69.13C3094.99,-67.95 3100.36,-66.87 3105.5,-66 3271.27,-37.96 3469.12,-24.51 3569.36,-19.08"/>
<polygon fill="#63b8ff" stroke="#63b8ff" points="3088.63,-65.78 3079.69,-71.47 3090.22,-72.6 3088.63,-65.78"/>
</g>
</g>
</svg>
