<?xml version="1.0" encoding="UTF-8" standalone="no"?>
<!DOCTYPE svg PUBLIC "-//W3C//DTD SVG 1.1//EN"
 "http://www.w3.org/Graphics/SVG/1.1/DTD/svg11.dtd">
<!-- Generated by graphviz version 2.43.0 (0)
 -->
<!-- Title: shell_run Pages: 1 -->
<!--zoomable 937 -->
<svg id="main" version="1.1" xmlns="http://www.w3.org/2000/svg" xmlns:xlink="http://www.w3.org/1999/xlink" xml:space="preserve" onload="init(evt)">
<style type="text/css"><![CDATA[
.edge:hover path { stroke: red; }
.edge:hover polygon { stroke: red; fill: red; }
]]></style>
<script type="text/javascript"><![CDATA[
var edges = document.getElementsByTagName('g');
if (edges && edges.length) {
  for (var i=0;i<edges.length;i++) {
    if (edges[i].id.substr(0,4)=='edge') {
      edges[i].setAttribute('class','edge');
    }
  }
}
]]></script>
        <defs>
                <circle id="rim" cx="0" cy="0" r="7"/>
                <circle id="rim2" cx="0" cy="0" r="3.5"/>
                <g id="zoomPlus">
                        <use xlink:href="#rim" fill="#404040">
                                <set attributeName="fill" to="#808080" begin="zoomplus.mouseover" end="zoomplus.mouseout"/>
                        </use>
                        <path d="M-4,0h8M0,-4v8" fill="none" stroke="white" stroke-width="1.5" pointer-events="none"/>
                </g>
                <g id="zoomMin">
                        <use xlink:href="#rim" fill="#404040">
                                <set attributeName="fill" to="#808080" begin="zoomminus.mouseover" end="zoomminus.mouseout"/>
                        </use>
                        <path d="M-4,0h8" fill="none" stroke="white" stroke-width="1.5" pointer-events="none"/>
                </g>
                <g id="dirArrow">
                        <path fill="none" stroke="white" stroke-width="1.5" d="M0,-3.0v7 M-2.5,-0.5L0,-3.0L2.5,-0.5"/>
                </g>
               <g id="resetDef">
                       <use xlink:href="#rim2" fill="#404040">
                               <set attributeName="fill" to="#808080" begin="reset.mouseover" end="reset.mouseout"/>
                       </use>
               </g>
        </defs>

<script type="text/javascript">
var viewWidth = 980;
var viewHeight = 937;
var sectionId = 'dynsection-7';
</script>
<script xlink:href="svgpan.js"/>
<svg id="graph" class="graph">
<g id="viewport">
<title>shell_run</title>
<!-- Node1 -->
<g id="node1" class="node">
<title>Node1</title>
<g id="a_node1"><a xlink:title=" ">
<polygon fill="#999999" stroke="#666666" points="61,-207 0,-207 0,-188 61,-188 61,-207"/>
<text text-anchor="middle" x="30.5" y="-195" font-family="Helvetica,sans-Serif" font-size="10.00">shell_run</text>
</a>
</g>
</g>
<!-- Node2 -->
<g id="node2" class="node">
<title>Node2</title>
<g id="a_node2"><a xlink:href="shell_8c.html#afb5215a1775326d8976fd015f7832392" target="_top" xlink:title=" ">
<polygon fill="white" stroke="#666666" points="177,-751 97,-751 97,-732 177,-732 177,-751"/>
<text text-anchor="middle" x="137" y="-739" font-family="Helvetica,sans-Serif" font-size="10.00">handle_input</text>
</a>
</g>
</g>
<!-- Node1&#45;&gt;Node2 -->
<g id="edge1" class="edge">
<title>Node1&#45;&gt;Node2</title>
<path fill="none" stroke="#63b8ff" d="M33.4,-207.41C45.81,-271.97 115.16,-633.01 132.21,-721.78"/>
<polygon fill="#63b8ff" stroke="#63b8ff" points="128.82,-722.68 134.14,-731.84 135.69,-721.36 128.82,-722.68"/>
</g>
<!-- Node134 -->
<g id="node33" class="node">
<title>Node134</title>
<g id="a_node33"><a xlink:href="shell_8c.html#a97dcf9b752b6ad482f8da89b8340b5af" target="_top" xlink:title=" ">
<polygon fill="white" stroke="#666666" points="167.5,-226 106.5,-226 106.5,-207 167.5,-207 167.5,-226"/>
<text text-anchor="middle" x="137" y="-214" font-family="Helvetica,sans-Serif" font-size="10.00">init_shell</text>
</a>
</g>
</g>
<!-- Node1&#45;&gt;Node134 -->
<g id="edge47" class="edge">
<title>Node1&#45;&gt;Node134</title>
<path fill="none" stroke="#63b8ff" d="M61.17,-202.89C72.09,-204.88 84.64,-207.16 96.3,-209.28"/>
<polygon fill="#63b8ff" stroke="#63b8ff" points="95.8,-212.75 106.26,-211.09 97.05,-205.86 95.8,-212.75"/>
</g>
<!-- Node144 -->
<g id="node42" class="node">
<title>Node144</title>
<g id="a_node42"><a xlink:href="read__input_8c.html#a2fe39fff6bf08a12813712b31615a1fb" target="_top" xlink:title=" ">
<polygon fill="white" stroke="#666666" points="171,-94 103,-94 103,-75 171,-75 171,-94"/>
<text text-anchor="middle" x="137" y="-82" font-family="Helvetica,sans-Serif" font-size="10.00">read_input</text>
</a>
</g>
</g>
<!-- Node1&#45;&gt;Node144 -->
<g id="edge59" class="edge">
<title>Node1&#45;&gt;Node144</title>
<path fill="none" stroke="#63b8ff" d="M40.41,-187.87C58.15,-168.69 98.08,-125.51 120.31,-101.47"/>
<polygon fill="#63b8ff" stroke="#63b8ff" points="122.89,-103.83 127.11,-94.11 117.75,-99.08 122.89,-103.83"/>
</g>
<!-- Node151 -->
<g id="node50" class="node">
<title>Node151</title>
<g id="a_node50"><a xlink:href="shell_8c.html#a352d0fde24e5d22d7e92d3fcb05dab19" target="_top" xlink:title=" ">
<polygon fill="white" stroke="#666666" points="482.5,-169 400.5,-169 400.5,-150 482.5,-150 482.5,-169"/>
<text text-anchor="middle" x="441.5" y="-157" font-family="Helvetica,sans-Serif" font-size="10.00">shell_destroy</text>
</a>
</g>
</g>
<!-- Node1&#45;&gt;Node151 -->
<g id="edge69" class="edge">
<title>Node1&#45;&gt;Node151</title>
<path fill="none" stroke="#63b8ff" d="M61.24,-194.74C130.66,-188.29 304.01,-172.18 390.2,-164.17"/>
<polygon fill="#63b8ff" stroke="#63b8ff" points="390.64,-167.65 400.27,-163.24 389.99,-160.68 390.64,-167.65"/>
</g>
<!-- Node3 -->
<g id="node3" class="node">
<title>Node3</title>
<g id="a_node3"><a xlink:href="ast__destroy_8c.html#a04c67d7ab492f6e1e7bc44dc70faa057" target="_top" xlink:title=" ">
<polygon fill="white" stroke="#666666" points="801,-902 727,-902 727,-883 801,-883 801,-902"/>
<text text-anchor="middle" x="764" y="-890" font-family="Helvetica,sans-Serif" font-size="10.00">ast_destroy</text>
</a>
</g>
</g>
<!-- Node2&#45;&gt;Node3 -->
<g id="edge2" class="edge">
<title>Node2&#45;&gt;Node3</title>
<path fill="none" stroke="#63b8ff" d="M141.53,-751.15C150.11,-773.17 174.24,-827.35 213,-854.5 369.13,-963.87 615.21,-926.06 716.79,-903.89"/>
<polygon fill="#63b8ff" stroke="#63b8ff" points="717.74,-907.26 726.73,-901.66 716.21,-900.43 717.74,-907.26"/>
</g>
<!-- Node5 -->
<g id="node5" class="node">
<title>Node5</title>
<g id="a_node5"><a xlink:href="execute__ast_8c.html#ad26a20a665ab7fdeb714ed53c1afd104" target="_top" xlink:title=" ">
<polygon fill="white" stroke="#666666" points="309,-545 234,-545 234,-526 309,-526 309,-545"/>
<text text-anchor="middle" x="271.5" y="-533" font-family="Helvetica,sans-Serif" font-size="10.00">execute_ast</text>
</a>
</g>
</g>
<!-- Node2&#45;&gt;Node5 -->
<g id="edge5" class="edge">
<title>Node2&#45;&gt;Node5</title>
<path fill="none" stroke="#63b8ff" d="M144.21,-731.84C164.86,-699.75 231.39,-596.3 258.67,-553.9"/>
<polygon fill="#63b8ff" stroke="#63b8ff" points="261.68,-555.68 264.15,-545.38 255.79,-551.9 261.68,-555.68"/>
</g>
<!-- Node39 -->
<g id="node23" class="node">
<title>Node39</title>
<g id="a_node23"><a xlink:href="shell_8c.html#a6e35892cfa82c5f227b10f37abc529e9" target="_top" xlink:title=" ">
<polygon fill="white" stroke="#666666" points="317,-846 226,-846 226,-827 317,-827 317,-846"/>
<text text-anchor="middle" x="271.5" y="-834" font-family="Helvetica,sans-Serif" font-size="10.00">handle_parsing</text>
</a>
</g>
</g>
<!-- Node2&#45;&gt;Node39 -->
<g id="edge34" class="edge">
<title>Node2&#45;&gt;Node39</title>
<path fill="none" stroke="#63b8ff" d="M146.32,-751.41C159.28,-766.33 185.65,-794.71 213,-812.5 218.97,-816.38 225.67,-819.86 232.34,-822.87"/>
<polygon fill="#63b8ff" stroke="#63b8ff" points="231.41,-826.28 241.98,-826.96 234.14,-819.84 231.41,-826.28"/>
</g>
<!-- Node130 -->
<g id="node27" class="node">
<title>Node130</title>
<g id="a_node27"><a xlink:href="shell_8c.html#a1ce512725ee0371f8bf608a3ece0c152" target="_top" xlink:title=" ">
<polygon fill="white" stroke="#666666" points="673,-827 553,-827 553,-808 673,-808 673,-827"/>
<text text-anchor="middle" x="613" y="-815" font-family="Helvetica,sans-Serif" font-size="10.00">show_error_message</text>
</a>
</g>
</g>
<!-- Node2&#45;&gt;Node130 -->
<g id="edge46" class="edge">
<title>Node2&#45;&gt;Node130</title>
<path fill="none" stroke="#63b8ff" d="M153.14,-751.02C167.84,-759.75 191.08,-772.25 213,-778.5 273.12,-795.65 445.34,-807.93 542.73,-813.74"/>
<polygon fill="#63b8ff" stroke="#63b8ff" points="542.59,-817.24 552.78,-814.33 543,-810.25 542.59,-817.24"/>
</g>
<!-- Node131 -->
<g id="node28" class="node">
<title>Node131</title>
<g id="a_node28"><a xlink:href="lexer__init_8c.html#aee55447f2c8b083ed2614fa4f439f9cc" target="_top" xlink:title=" ">
<polygon fill="white" stroke="#666666" points="302.5,-696 240.5,-696 240.5,-677 302.5,-677 302.5,-696"/>
<text text-anchor="middle" x="271.5" y="-684" font-family="Helvetica,sans-Serif" font-size="10.00">lexer_init</text>
</a>
</g>
</g>
<!-- Node2&#45;&gt;Node131 -->
<g id="edge40" class="edge">
<title>Node2&#45;&gt;Node131</title>
<path fill="none" stroke="#63b8ff" d="M155.53,-731.89C170.51,-723.91 192.78,-712.6 213,-704.5 218.6,-702.26 224.59,-700.11 230.52,-698.14"/>
<polygon fill="#63b8ff" stroke="#63b8ff" points="231.9,-701.37 240.35,-694.98 229.76,-694.7 231.9,-701.37"/>
</g>
<!-- Node132 -->
<g id="node29" class="node">
<title>Node132</title>
<g id="a_node29"><a xlink:href="parser__destroy_8c.html#ae2656460a6fc6b6cd65624312fe0c943" target="_top" xlink:title=" ">
<polygon fill="white" stroke="#666666" points="316,-770 227,-770 227,-751 316,-751 316,-770"/>
<text text-anchor="middle" x="271.5" y="-758" font-family="Helvetica,sans-Serif" font-size="10.00">parser_destroy</text>
</a>
</g>
</g>
<!-- Node2&#45;&gt;Node132 -->
<g id="edge41" class="edge">
<title>Node2&#45;&gt;Node132</title>
<path fill="none" stroke="#63b8ff" d="M177.04,-747.1C189.45,-748.88 203.4,-750.88 216.66,-752.78"/>
<polygon fill="#63b8ff" stroke="#63b8ff" points="216.24,-756.25 226.63,-754.21 217.23,-749.33 216.24,-756.25"/>
</g>
<!-- Node133 -->
<g id="node31" class="node">
<title>Node133</title>
<g id="a_node31"><a xlink:href="parser__init_8c.html#a7a5dc445fa057a393d0b94590acea2f1" target="_top" xlink:title=" ">
<polygon fill="white" stroke="#666666" points="305.5,-733 237.5,-733 237.5,-714 305.5,-714 305.5,-733"/>
<text text-anchor="middle" x="271.5" y="-721" font-family="Helvetica,sans-Serif" font-size="10.00">parser_init</text>
</a>
</g>
</g>
<!-- Node2&#45;&gt;Node133 -->
<g id="edge43" class="edge">
<title>Node2&#45;&gt;Node133</title>
<path fill="none" stroke="#63b8ff" d="M177.04,-736.2C192.69,-734.07 210.8,-731.61 226.89,-729.42"/>
<polygon fill="#63b8ff" stroke="#63b8ff" points="227.68,-732.85 237.12,-728.03 226.74,-725.91 227.68,-732.85"/>
</g>
<!-- Node3&#45;&gt;Node3 -->
<g id="edge3" class="edge">
<title>Node3&#45;&gt;Node3</title>
<path fill="none" stroke="#63b8ff" d="M741.19,-902.08C730.09,-910.73 737.7,-920 764,-920 780.85,-920 790.03,-916.2 791.53,-911.19"/>
<polygon fill="#63b8ff" stroke="#63b8ff" points="794.52,-909.35 786.81,-902.08 788.3,-912.57 794.52,-909.35"/>
</g>
<!-- Node4 -->
<g id="node4" class="node">
<title>Node4</title>
<g id="a_node4"><a xlink:href="misc_8h.html#a1180cae2875b1fdcd58c9f9175a82c12" target="_top" xlink:title=" ">
<polygon fill="white" stroke="#666666" points="972,-902 855,-902 855,-883 972,-883 972,-902"/>
<text text-anchor="middle" x="913.5" y="-890" font-family="Helvetica,sans-Serif" font-size="10.00">my_free_word_array</text>
</a>
</g>
</g>
<!-- Node3&#45;&gt;Node4 -->
<g id="edge4" class="edge">
<title>Node3&#45;&gt;Node4</title>
<path fill="none" stroke="#63b8ff" d="M801.08,-892.5C814.25,-892.5 829.6,-892.5 844.63,-892.5"/>
<polygon fill="#63b8ff" stroke="#63b8ff" points="844.95,-896 854.95,-892.5 844.95,-889 844.95,-896"/>
</g>
<!-- Node6 -->
<g id="node6" class="node">
<title>Node6</title>
<g id="a_node6"><a xlink:href="execute__cmd_8c.html#a94ea9cc5a046ce96e36764bf0e4fa2c0" target="_top" xlink:title=" ">
<polygon fill="white" stroke="#666666" points="482,-695 401,-695 401,-676 482,-676 482,-695"/>
<text text-anchor="middle" x="441.5" y="-683" font-family="Helvetica,sans-Serif" font-size="10.00">execute_cmd</text>
</a>
</g>
</g>
<!-- Node5&#45;&gt;Node6 -->
<g id="edge6" class="edge">
<title>Node5&#45;&gt;Node6</title>
<path fill="none" stroke="#63b8ff" d="M276.53,-545.17C287.21,-569.6 318.73,-634.14 366,-666.5 373.44,-671.59 382.15,-675.32 390.93,-678.05"/>
<polygon fill="#63b8ff" stroke="#63b8ff" points="390.24,-681.49 400.81,-680.73 392.07,-674.74 390.24,-681.49"/>
</g>
<!-- Node21 -->
<g id="node11" class="node">
<title>Node21</title>
<g id="a_node11"><a xlink:href="execute__logical__and_8c.html#a4f940752faf9f9a258c49810b21efe47" target="_top" xlink:title=" ">
<polygon fill="white" stroke="#666666" points="499.5,-582 383.5,-582 383.5,-563 499.5,-563 499.5,-582"/>
<text text-anchor="middle" x="441.5" y="-570" font-family="Helvetica,sans-Serif" font-size="10.00">execute_logical_and</text>
</a>
</g>
</g>
<!-- Node5&#45;&gt;Node21 -->
<g id="edge11" class="edge">
<title>Node5&#45;&gt;Node21</title>
<path fill="none" stroke="#63b8ff" d="M309.37,-537.92C339.13,-542.99 380.57,-552.21 408.85,-560.11"/>
<polygon fill="#63b8ff" stroke="#63b8ff" points="408.04,-563.53 418.62,-562.96 410,-556.8 408.04,-563.53"/>
</g>
<!-- Node22 -->
<g id="node12" class="node">
<title>Node22</title>
<g id="a_node12"><a xlink:href="execute__logical__or_8c.html#a7e732d7c30b07010fa55850051007dcc" target="_top" xlink:title=" ">
<polygon fill="white" stroke="#666666" points="495,-545 388,-545 388,-526 495,-526 495,-545"/>
<text text-anchor="middle" x="441.5" y="-533" font-family="Helvetica,sans-Serif" font-size="10.00">execute_logical_or</text>
</a>
</g>
</g>
<!-- Node5&#45;&gt;Node22 -->
<g id="edge13" class="edge">
<title>Node5&#45;&gt;Node22</title>
<path fill="none" stroke="#63b8ff" d="M309.37,-529.8C329.39,-528.8 354.7,-528.51 377.73,-528.95"/>
<polygon fill="#63b8ff" stroke="#63b8ff" points="377.7,-532.45 387.78,-529.18 377.87,-525.45 377.7,-532.45"/>
</g>
<!-- Node23 -->
<g id="node13" class="node">
<title>Node23</title>
<g id="a_node13"><a xlink:href="execute__pipe_8c.html#a5f3546dc2c7cf06c982afba41e722164" target="_top" xlink:title=" ">
<polygon fill="white" stroke="#666666" points="482,-469 401,-469 401,-450 482,-450 482,-469"/>
<text text-anchor="middle" x="441.5" y="-457" font-family="Helvetica,sans-Serif" font-size="10.00">execute_pipe</text>
</a>
</g>
</g>
<!-- Node5&#45;&gt;Node23 -->
<g id="edge15" class="edge">
<title>Node5&#45;&gt;Node23</title>
<path fill="none" stroke="#63b8ff" d="M287.58,-525.9C305.68,-514.66 337.21,-496 366,-483.5 375.54,-479.36 386.02,-475.55 396.05,-472.25"/>
<polygon fill="#63b8ff" stroke="#63b8ff" points="397.4,-475.49 405.86,-469.11 395.27,-468.82 397.4,-475.49"/>
</g>
<!-- Node28 -->
<g id="node18" class="node">
<title>Node28</title>
<g id="a_node18"><a xlink:href="execute__redirect_8c.html#a1004307aba80117ddd99f009e52fb155" target="_top" xlink:title=" ">
<polygon fill="white" stroke="#666666" points="490.5,-358 392.5,-358 392.5,-339 490.5,-339 490.5,-358"/>
<text text-anchor="middle" x="441.5" y="-346" font-family="Helvetica,sans-Serif" font-size="10.00">execute_redirect</text>
</a>
</g>
</g>
<!-- Node5&#45;&gt;Node28 -->
<g id="edge24" class="edge">
<title>Node5&#45;&gt;Node28</title>
<path fill="none" stroke="#63b8ff" d="M274.94,-525.65C282.7,-496.39 309.73,-409.39 366,-366.5 371,-362.69 376.69,-359.67 382.65,-357.28"/>
<polygon fill="#63b8ff" stroke="#63b8ff" points="383.84,-360.58 392.17,-354.03 381.58,-353.95 383.84,-360.58"/>
</g>
<!-- Node36 -->
<g id="node20" class="node">
<title>Node36</title>
<g id="a_node20"><a xlink:href="execute__repeat_8c.html#a00d48683c54b50130b4a402e6e97fa97" target="_top" xlink:title=" ">
<polygon fill="white" stroke="#666666" points="487.5,-395 395.5,-395 395.5,-376 487.5,-376 487.5,-395"/>
<text text-anchor="middle" x="441.5" y="-383" font-family="Helvetica,sans-Serif" font-size="10.00">execute_repeat</text>
</a>
</g>
</g>
<!-- Node5&#45;&gt;Node36 -->
<g id="edge27" class="edge">
<title>Node5&#45;&gt;Node36</title>
<path fill="none" stroke="#63b8ff" d="M274.96,-525.74C283.75,-499.11 315.79,-428.54 366,-394.5 371.85,-390.54 378.47,-387.44 385.3,-385.11"/>
<polygon fill="#63b8ff" stroke="#63b8ff" points="386.73,-388.34 395.38,-382.22 384.81,-381.61 386.73,-388.34"/>
</g>
<!-- Node37 -->
<g id="node21" class="node">
<title>Node37</title>
<g id="a_node21"><a xlink:href="execute__sequence_8c.html#aad2caa5bf50b0752dd8272da477ec231" target="_top" xlink:title=" ">
<polygon fill="white" stroke="#666666" points="495,-658 388,-658 388,-639 495,-639 495,-658"/>
<text text-anchor="middle" x="441.5" y="-646" font-family="Helvetica,sans-Serif" font-size="10.00">execute_sequence</text>
</a>
</g>
</g>
<!-- Node5&#45;&gt;Node37 -->
<g id="edge29" class="edge">
<title>Node5&#45;&gt;Node37</title>
<path fill="none" stroke="#63b8ff" d="M285.1,-545.03C301.69,-562.01 332.67,-595.69 366,-615.5 381.38,-624.64 400.64,-630.72 415.72,-635.7"/>
<polygon fill="#63b8ff" stroke="#63b8ff" points="414.8,-639.09 425.4,-639 417.06,-632.46 414.8,-639.09"/>
</g>
<!-- Node38 -->
<g id="node22" class="node">
<title>Node38</title>
<g id="a_node22"><a xlink:href="execute__subshell_8c.html#a40a27866de012b013a337f794a858d70" target="_top" xlink:title=" ">
<polygon fill="white" stroke="#666666" points="492,-432 391,-432 391,-413 492,-413 492,-432"/>
<text text-anchor="middle" x="441.5" y="-420" font-family="Helvetica,sans-Serif" font-size="10.00">execute_subshell</text>
</a>
</g>
</g>
<!-- Node5&#45;&gt;Node38 -->
<g id="edge31" class="edge">
<title>Node5&#45;&gt;Node38</title>
<path fill="none" stroke="#63b8ff" d="M276.21,-526C287.54,-504.5 323.51,-455.56 366,-431.5 370.78,-428.8 375.95,-426.5 381.26,-424.58"/>
<polygon fill="#63b8ff" stroke="#63b8ff" points="382.44,-427.87 390.93,-421.53 380.34,-421.2 382.44,-427.87"/>
</g>
<!-- Node7 -->
<g id="node7" class="node">
<title>Node7</title>
<g id="a_node7"><a xlink:href="execute__cmd_8c.html#a0cfd2364134e68efdd39533e00b4b0d9" target="_top" xlink:title=" ">
<polygon fill="#fff0f0" stroke="red" points="672.5,-667 553.5,-667 553.5,-648 672.5,-648 672.5,-667"/>
<text text-anchor="middle" x="613" y="-655" font-family="Helvetica,sans-Serif" font-size="10.00">execute_local_binary</text>
</a>
</g>
</g>
<!-- Node6&#45;&gt;Node7 -->
<g id="edge7" class="edge">
<title>Node6&#45;&gt;Node7</title>
<path fill="none" stroke="#63b8ff" d="M482.24,-678.94C500.74,-675.88 523.27,-672.16 544.33,-668.68"/>
<polygon fill="#63b8ff" stroke="#63b8ff" points="544.91,-672.13 554.21,-667.05 543.77,-665.22 544.91,-672.13"/>
</g>
<!-- Node15 -->
<g id="node8" class="node">
<title>Node15</title>
<g id="a_node8"><a xlink:href="execute__cmd_8c.html#a460126af28ab29df4340554fae9fc57a" target="_top" xlink:title=" ">
<polygon fill="#fff0f0" stroke="red" points="672,-610 554,-610 554,-591 672,-591 672,-610"/>
<text text-anchor="middle" x="613" y="-598" font-family="Helvetica,sans-Serif" font-size="10.00">execute_path_binary</text>
</a>
</g>
</g>
<!-- Node6&#45;&gt;Node15 -->
<g id="edge8" class="edge">
<title>Node6&#45;&gt;Node15</title>
<path fill="none" stroke="#63b8ff" d="M482.24,-678.56C493.8,-675.7 506.21,-671.78 517,-666.5 535.2,-657.59 536.46,-650.22 553,-638.5 564.18,-630.57 576.93,-622.28 587.71,-615.46"/>
<polygon fill="#63b8ff" stroke="#63b8ff" points="589.6,-618.4 596.22,-610.13 585.89,-612.47 589.6,-618.4"/>
</g>
<!-- Node20 -->
<g id="node10" class="node">
<title>Node20</title>
<g id="a_node10"><a xlink:href="strings_8h.html#a36f055c4e56c8a784629908d0c5b91e5" target="_top" xlink:title=" ">
<polygon fill="white" stroke="#666666" points="665,-704 561,-704 561,-685 665,-685 665,-704"/>
<text text-anchor="middle" x="613" y="-692" font-family="Helvetica,sans-Serif" font-size="10.00">my_is_char_in_str</text>
</a>
</g>
</g>
<!-- Node6&#45;&gt;Node20 -->
<g id="edge10" class="edge">
<title>Node6&#45;&gt;Node20</title>
<path fill="none" stroke="#63b8ff" d="M482.24,-687.61C502.61,-688.69 527.85,-690.03 550.65,-691.24"/>
<polygon fill="#63b8ff" stroke="#63b8ff" points="550.76,-694.75 560.93,-691.79 551.13,-687.76 550.76,-694.75"/>
</g>
<!-- Node16 -->
<g id="node9" class="node">
<title>Node16</title>
<g id="a_node9"><a xlink:href="get__variable__value_8c.html#a2edd9900f19af236aa05385a789be3d6" target="_top" xlink:title=" ">
<polygon fill="#fff0f0" stroke="red" points="819,-282 709,-282 709,-263 819,-263 819,-282"/>
<text text-anchor="middle" x="764" y="-270" font-family="Helvetica,sans-Serif" font-size="10.00">get_variable_value</text>
</a>
</g>
</g>
<!-- Node15&#45;&gt;Node16 -->
<g id="edge9" class="edge">
<title>Node15&#45;&gt;Node16</title>
<path fill="none" stroke="#63b8ff" d="M630.49,-590.87C643.73,-582.34 661.9,-568.74 673,-552.5 703.25,-508.23 744.44,-348.13 758.26,-292.06"/>
<polygon fill="#63b8ff" stroke="#63b8ff" points="761.74,-292.57 760.72,-282.03 754.94,-290.91 761.74,-292.57"/>
</g>
<!-- Node21&#45;&gt;Node5 -->
<g id="edge12" class="edge">
<title>Node21&#45;&gt;Node5</title>
<path fill="none" stroke="#63b8ff" d="M383.47,-566.37C356.95,-561.18 326.41,-554.11 304.1,-547.87"/>
<polygon fill="#63b8ff" stroke="#63b8ff" points="305.04,-544.5 294.46,-545.07 303.09,-551.22 305.04,-544.5"/>
</g>
<!-- Node22&#45;&gt;Node5 -->
<g id="edge14" class="edge">
<title>Node22&#45;&gt;Node5</title>
<path fill="none" stroke="#63b8ff" d="M387.78,-541.82C365.89,-542.45 340.69,-542.39 319.45,-541.63"/>
<polygon fill="#63b8ff" stroke="#63b8ff" points="319.51,-538.13 309.37,-541.2 319.21,-545.12 319.51,-538.13"/>
</g>
<!-- Node24 -->
<g id="node14" class="node">
<title>Node24</title>
<g id="a_node14"><a xlink:href="execute__pipe_8c.html#a723ff799f939872d17f109a82342294e" target="_top" xlink:title=" ">
<polygon fill="white" stroke="#666666" points="795,-507 733,-507 733,-488 795,-488 795,-507"/>
<text text-anchor="middle" x="764" y="-495" font-family="Helvetica,sans-Serif" font-size="10.00">close_fds</text>
</a>
</g>
</g>
<!-- Node23&#45;&gt;Node24 -->
<g id="edge16" class="edge">
<title>Node23&#45;&gt;Node24</title>
<path fill="none" stroke="#63b8ff" d="M482.24,-461.25C528.31,-463.64 606.45,-468.77 673,-478.5 689.46,-480.91 707.43,-484.5 722.95,-487.92"/>
<polygon fill="#63b8ff" stroke="#63b8ff" points="722.24,-491.34 732.76,-490.12 723.77,-484.51 722.24,-491.34"/>
</g>
<!-- Node25 -->
<g id="node15" class="node">
<title>Node25</title>
<g id="a_node15"><a xlink:href="execute__pipe_8c.html#ac529ffc2370b0133613ef8a81e58ed85" target="_top" xlink:title=" ">
<polygon fill="white" stroke="#666666" points="664,-507 562,-507 562,-488 664,-488 664,-507"/>
<text text-anchor="middle" x="613" y="-495" font-family="Helvetica,sans-Serif" font-size="10.00">execute_pipe_left</text>
</a>
</g>
</g>
<!-- Node23&#45;&gt;Node25 -->
<g id="edge17" class="edge">
<title>Node23&#45;&gt;Node25</title>
<path fill="none" stroke="#63b8ff" d="M482.24,-468.41C505.29,-473.58 534.59,-480.15 559.52,-485.73"/>
<polygon fill="#63b8ff" stroke="#63b8ff" points="559.02,-489.21 569.55,-487.98 560.55,-482.38 559.02,-489.21"/>
</g>
<!-- Node26 -->
<g id="node16" class="node">
<title>Node26</title>
<g id="a_node16"><a xlink:href="execute__pipe_8c.html#a9ed6eabb8a9f7049f91265a5f45e30c8" target="_top" xlink:title=" ">
<polygon fill="#fff0f0" stroke="red" points="667.5,-544 558.5,-544 558.5,-525 667.5,-525 667.5,-544"/>
<text text-anchor="middle" x="613" y="-532" font-family="Helvetica,sans-Serif" font-size="10.00">execute_pipe_right</text>
</a>
</g>
</g>
<!-- Node23&#45;&gt;Node26 -->
<g id="edge20" class="edge">
<title>Node23&#45;&gt;Node26</title>
<path fill="none" stroke="#63b8ff" d="M459.33,-469.09C480.67,-480.98 518.79,-501.43 553,-515.5 558.22,-517.65 563.79,-519.72 569.33,-521.64"/>
<polygon fill="#63b8ff" stroke="#63b8ff" points="568.62,-525.1 579.21,-524.95 570.84,-518.46 568.62,-525.1"/>
</g>
<!-- Node13 -->
<g id="node17" class="node">
<title>Node13</title>
<g id="a_node17"><a xlink:href="wait__for__subprocess_8c.html#a1242d78540fd0ddef3d98a9f294cb0d4" target="_top" xlink:title=" ">
<polygon fill="#fff0f0" stroke="red" points="671,-431 555,-431 555,-412 671,-412 671,-431"/>
<text text-anchor="middle" x="613" y="-419" font-family="Helvetica,sans-Serif" font-size="10.00">wait_for_subprocess</text>
</a>
</g>
</g>
<!-- Node23&#45;&gt;Node13 -->
<g id="edge23" class="edge">
<title>Node23&#45;&gt;Node13</title>
<path fill="none" stroke="#63b8ff" d="M482.24,-450.59C505.29,-445.42 534.59,-438.85 559.52,-433.27"/>
<polygon fill="#63b8ff" stroke="#63b8ff" points="560.55,-436.62 569.55,-431.02 559.02,-429.79 560.55,-436.62"/>
</g>
<!-- Node25&#45;&gt;Node5 -->
<g id="edge19" class="edge">
<title>Node25&#45;&gt;Node5</title>
<path fill="none" stroke="#63b8ff" d="M561.86,-499.56C512.01,-502.03 433.45,-507.08 366,-516.5 350.67,-518.64 334.08,-521.75 319.18,-524.84"/>
<polygon fill="#63b8ff" stroke="#63b8ff" points="318.24,-521.46 309.18,-526.96 319.69,-528.31 318.24,-521.46"/>
</g>
<!-- Node25&#45;&gt;Node24 -->
<g id="edge18" class="edge">
<title>Node25&#45;&gt;Node24</title>
<path fill="none" stroke="#63b8ff" d="M664.03,-497.5C683.11,-497.5 704.6,-497.5 722.67,-497.5"/>
<polygon fill="#63b8ff" stroke="#63b8ff" points="722.87,-501 732.87,-497.5 722.87,-494 722.87,-501"/>
</g>
<!-- Node26&#45;&gt;Node5 -->
<g id="edge22" class="edge">
<title>Node26&#45;&gt;Node5</title>
<path fill="none" stroke="#63b8ff" d="M600.36,-544.2C583.33,-557.7 550.06,-581.48 517,-590.5 452.25,-608.16 430.75,-608.13 366,-590.5 338.05,-582.89 309.93,-564.57 291.93,-551.15"/>
<polygon fill="#63b8ff" stroke="#63b8ff" points="294.02,-548.34 283.96,-545.03 289.76,-553.9 294.02,-548.34"/>
</g>
<!-- Node26&#45;&gt;Node24 -->
<g id="edge21" class="edge">
<title>Node26&#45;&gt;Node24</title>
<path fill="none" stroke="#63b8ff" d="M652.37,-524.97C673.96,-519.61 700.88,-512.92 722.77,-507.49"/>
<polygon fill="#63b8ff" stroke="#63b8ff" points="723.88,-510.82 732.74,-505.01 722.2,-504.03 723.88,-510.82"/>
</g>
<!-- Node29 -->
<g id="node19" class="node">
<title>Node29</title>
<g id="a_node19"><a xlink:href="execute__redirect_8c.html#a5aa0f008806cc0e8a7ba252d61b7001f" target="_top" xlink:title=" ">
<polygon fill="#fff0f0" stroke="red" points="666.5,-339 559.5,-339 559.5,-320 666.5,-320 666.5,-339"/>
<text text-anchor="middle" x="613" y="-327" font-family="Helvetica,sans-Serif" font-size="10.00">redirect_execution</text>
</a>
</g>
</g>
<!-- Node28&#45;&gt;Node29 -->
<g id="edge25" class="edge">
<title>Node28&#45;&gt;Node29</title>
<path fill="none" stroke="#63b8ff" d="M490.62,-343.11C508.87,-341.06 529.93,-338.7 549.33,-336.52"/>
<polygon fill="#63b8ff" stroke="#63b8ff" points="549.75,-340 559.3,-335.41 548.97,-333.04 549.75,-340"/>
</g>
<!-- Node29&#45;&gt;Node5 -->
<g id="edge26" class="edge">
<title>Node29&#45;&gt;Node5</title>
<path fill="none" stroke="#63b8ff" d="M582.26,-319.96C532.92,-306.08 432.96,-286.36 366,-329.5 300.23,-371.87 280.2,-473.03 274.55,-515.83"/>
<polygon fill="#63b8ff" stroke="#63b8ff" points="271.07,-515.48 273.36,-525.83 278.02,-516.31 271.07,-515.48"/>
</g>
<!-- Node36&#45;&gt;Node5 -->
<g id="edge28" class="edge">
<title>Node36&#45;&gt;Node5</title>
<path fill="none" stroke="#63b8ff" d="M414.53,-395.06C399.31,-398.3 380.32,-402.79 366,-412.5 326.25,-439.45 297.89,-489.29 283.43,-516.74"/>
<polygon fill="#63b8ff" stroke="#63b8ff" points="280.25,-515.26 278.74,-525.75 286.46,-518.5 280.25,-515.26"/>
</g>
<!-- Node37&#45;&gt;Node5 -->
<g id="edge30" class="edge">
<title>Node37&#45;&gt;Node5</title>
<path fill="none" stroke="#63b8ff" d="M387.9,-643.76C380.3,-640.96 372.78,-637.53 366,-633.5 330.77,-612.56 298.16,-576.12 282.4,-553.73"/>
<polygon fill="#63b8ff" stroke="#63b8ff" points="285.14,-551.52 276.73,-545.08 279.29,-555.36 285.14,-551.52"/>
</g>
<!-- Node38&#45;&gt;Node5 -->
<g id="edge32" class="edge">
<title>Node38&#45;&gt;Node5</title>
<path fill="none" stroke="#63b8ff" d="M418.79,-432.03C403.27,-435.73 382.33,-440.26 366,-449.5 334.81,-467.16 307.14,-498.22 290.14,-518.01"/>
<polygon fill="#63b8ff" stroke="#63b8ff" points="287.38,-515.86 283.53,-525.73 292.7,-520.41 287.38,-515.86"/>
</g>
<!-- Node38&#45;&gt;Node13 -->
<g id="edge33" class="edge">
<title>Node38&#45;&gt;Node13</title>
<path fill="none" stroke="#63b8ff" d="M492.44,-422.21C508.85,-422.11 527.36,-422 544.83,-421.9"/>
<polygon fill="#63b8ff" stroke="#63b8ff" points="545,-425.4 554.98,-421.84 544.96,-418.4 545,-425.4"/>
</g>
<!-- Node40 -->
<g id="node24" class="node">
<title>Node40</title>
<g id="a_node24"><a xlink:href="empty__stdin_8c.html#a4c89df10296f2cc245e3a32065e04e7b" target="_top" xlink:title=" ">
<polygon fill="white" stroke="#666666" points="480,-846 403,-846 403,-827 480,-827 480,-846"/>
<text text-anchor="middle" x="441.5" y="-834" font-family="Helvetica,sans-Serif" font-size="10.00">empty_stdin</text>
</a>
</g>
</g>
<!-- Node39&#45;&gt;Node40 -->
<g id="edge35" class="edge">
<title>Node39&#45;&gt;Node40</title>
<path fill="none" stroke="#63b8ff" d="M317.08,-836.5C340.37,-836.5 368.88,-836.5 392.63,-836.5"/>
<polygon fill="#63b8ff" stroke="#63b8ff" points="392.83,-840 402.83,-836.5 392.83,-833 392.83,-840"/>
</g>
<!-- Node41 -->
<g id="node25" class="node">
<title>Node41</title>
<g id="a_node25"><a xlink:href="shell_8c.html#a2c9bd51744387dc73763281019d78622" target="_top" xlink:title=" ">
<polygon fill="white" stroke="#666666" points="473.5,-883 409.5,-883 409.5,-864 473.5,-864 473.5,-883"/>
<text text-anchor="middle" x="441.5" y="-871" font-family="Helvetica,sans-Serif" font-size="10.00">parse_ast</text>
</a>
</g>
</g>
<!-- Node39&#45;&gt;Node41 -->
<g id="edge36" class="edge">
<title>Node39&#45;&gt;Node41</title>
<path fill="none" stroke="#63b8ff" d="M315.76,-846.03C341.48,-851.69 373.93,-858.84 399.28,-864.42"/>
<polygon fill="#63b8ff" stroke="#63b8ff" points="398.8,-867.9 409.32,-866.63 400.3,-861.06 398.8,-867.9"/>
</g>
<!-- Node42 -->
<g id="node26" class="node">
<title>Node42</title>
<g id="a_node26"><a xlink:href="parser__parse_8c.html#ab56c1f0e36fe941facfe258418c2cc72" target="_top" xlink:title=" ">
<polygon fill="#fff0f0" stroke="red" points="653,-883 573,-883 573,-864 653,-864 653,-883"/>
<text text-anchor="middle" x="613" y="-871" font-family="Helvetica,sans-Serif" font-size="10.00">parser_parse</text>
</a>
</g>
</g>
<!-- Node41&#45;&gt;Node42 -->
<g id="edge37" class="edge">
<title>Node41&#45;&gt;Node42</title>
<path fill="none" stroke="#63b8ff" d="M473.59,-873.5C498.44,-873.5 533.76,-873.5 562.5,-873.5"/>
<polygon fill="#63b8ff" stroke="#63b8ff" points="562.75,-877 572.75,-873.5 562.75,-870 562.75,-877"/>
</g>
<!-- Node41&#45;&gt;Node130 -->
<g id="edge39" class="edge">
<title>Node41&#45;&gt;Node130</title>
<path fill="none" stroke="#63b8ff" d="M473.55,-866.48C487.01,-863.2 502.89,-859.03 517,-854.5 538.43,-847.62 562.01,-838.45 580.31,-830.96"/>
<polygon fill="#63b8ff" stroke="#63b8ff" points="581.73,-834.16 589.63,-827.1 579.05,-827.69 581.73,-834.16"/>
</g>
<!-- Node42&#45;&gt;Node3 -->
<g id="edge38" class="edge">
<title>Node42&#45;&gt;Node3</title>
<path fill="none" stroke="#63b8ff" d="M653.15,-878.49C672.69,-880.98 696.47,-884.02 716.89,-886.62"/>
<polygon fill="#63b8ff" stroke="#63b8ff" points="716.56,-890.11 726.92,-887.9 717.45,-883.16 716.56,-890.11"/>
</g>
<!-- Node111 -->
<g id="node30" class="node">
<title>Node111</title>
<g id="a_node30"><a xlink:href="destroy__token_8c.html#ad1a471ee7b1ccb035d769be1152a370c" target="_top" xlink:title=" ">
<polygon fill="white" stroke="#666666" points="656,-751 570,-751 570,-732 656,-732 656,-751"/>
<text text-anchor="middle" x="613" y="-739" font-family="Helvetica,sans-Serif" font-size="10.00">token_destroy</text>
</a>
</g>
</g>
<!-- Node132&#45;&gt;Node111 -->
<g id="edge42" class="edge">
<title>Node132&#45;&gt;Node111</title>
<path fill="none" stroke="#63b8ff" d="M316.19,-758.05C378.49,-754.57 492.7,-748.18 559.51,-744.44"/>
<polygon fill="#63b8ff" stroke="#63b8ff" points="560.02,-747.91 569.81,-743.86 559.63,-740.93 560.02,-747.91"/>
</g>
<!-- Node66 -->
<g id="node32" class="node">
<title>Node66</title>
<g id="a_node32"><a xlink:href="parser__next_8c.html#ad25986b565a767c6ad7d0b0b8846fca6" target="_top" xlink:title=" ">
<polygon fill="#fff0f0" stroke="red" points="478.5,-732 404.5,-732 404.5,-713 478.5,-713 478.5,-732"/>
<text text-anchor="middle" x="441.5" y="-720" font-family="Helvetica,sans-Serif" font-size="10.00">parser_next</text>
</a>
</g>
</g>
<!-- Node133&#45;&gt;Node66 -->
<g id="edge44" class="edge">
<title>Node133&#45;&gt;Node66</title>
<path fill="none" stroke="#63b8ff" d="M305.69,-723.3C330.96,-723.15 366.05,-722.94 394.1,-722.78"/>
<polygon fill="#63b8ff" stroke="#63b8ff" points="394.49,-726.27 404.47,-722.71 394.45,-719.27 394.49,-726.27"/>
</g>
<!-- Node66&#45;&gt;Node111 -->
<g id="edge45" class="edge">
<title>Node66&#45;&gt;Node111</title>
<path fill="none" stroke="#63b8ff" d="M478.86,-726.58C502.39,-729.21 533.41,-732.69 559.58,-735.62"/>
<polygon fill="#63b8ff" stroke="#63b8ff" points="559.39,-739.12 569.72,-736.76 560.17,-732.17 559.39,-739.12"/>
</g>
<!-- Node135 -->
<g id="node34" class="node">
<title>Node135</title>
<g id="a_node34"><a xlink:href="env__to__list_8c.html#a11c46ed192ca0ad8a479ed9a317f135e" target="_top" xlink:title=" ">
<polygon fill="white" stroke="#666666" points="476.5,-207 406.5,-207 406.5,-188 476.5,-188 476.5,-207"/>
<text text-anchor="middle" x="441.5" y="-195" font-family="Helvetica,sans-Serif" font-size="10.00">env_to_list</text>
</a>
</g>
</g>
<!-- Node134&#45;&gt;Node135 -->
<g id="edge48" class="edge">
<title>Node134&#45;&gt;Node135</title>
<path fill="none" stroke="#63b8ff" d="M167.56,-214.64C220.82,-211.3 333.19,-204.24 395.86,-200.3"/>
<polygon fill="#63b8ff" stroke="#63b8ff" points="396.46,-203.77 406.22,-199.65 396.02,-196.79 396.46,-203.77"/>
</g>
<!-- Node139 -->
<g id="node39" class="node">
<title>Node139</title>
<g id="a_node39"><a xlink:href="shell_8c.html#a2f5ec52df28b796cf8cd9edfc2f60913" target="_top" xlink:title=" ">
<polygon fill="white" stroke="#666666" points="312.5,-282 230.5,-282 230.5,-263 312.5,-263 312.5,-282"/>
<text text-anchor="middle" x="271.5" y="-270" font-family="Helvetica,sans-Serif" font-size="10.00">handle_sigint</text>
</a>
</g>
</g>
<!-- Node134&#45;&gt;Node139 -->
<g id="edge53" class="edge">
<title>Node134&#45;&gt;Node139</title>
<path fill="none" stroke="#63b8ff" d="M155.56,-226.03C170.56,-233.96 192.85,-245.25 213,-253.5 218.17,-255.62 223.67,-257.67 229.14,-259.6"/>
<polygon fill="#63b8ff" stroke="#63b8ff" points="228.28,-263.01 238.88,-262.93 230.54,-256.38 228.28,-263.01"/>
</g>
<!-- Node140 -->
<g id="node40" class="node">
<title>Node140</title>
<g id="a_node40"><a xlink:href="shell_8c.html#ac1b8a9f89fea6c5f3626971f15195680" target="_top" xlink:title=" ">
<polygon fill="white" stroke="#666666" points="313,-245 230,-245 230,-226 313,-226 313,-245"/>
<text text-anchor="middle" x="271.5" y="-233" font-family="Helvetica,sans-Serif" font-size="10.00">init_variables</text>
</a>
</g>
</g>
<!-- Node134&#45;&gt;Node140 -->
<g id="edge54" class="edge">
<title>Node134&#45;&gt;Node140</title>
<path fill="none" stroke="#63b8ff" d="M167.74,-220.76C183.04,-222.96 202.13,-225.7 219.69,-228.21"/>
<polygon fill="#63b8ff" stroke="#63b8ff" points="219.42,-231.71 229.81,-229.67 220.41,-224.78 219.42,-231.71"/>
</g>
<!-- Node136 -->
<g id="node35" class="node">
<title>Node136</title>
<g id="a_node35"><a xlink:href="free__variable_8c.html#a6cfba30b5c98d6fa7663b6bc29fe01cc" target="_top" xlink:title=" ">
<polygon fill="white" stroke="#666666" points="653.5,-170 572.5,-170 572.5,-151 653.5,-151 653.5,-170"/>
<text text-anchor="middle" x="613" y="-158" font-family="Helvetica,sans-Serif" font-size="10.00">free_variable</text>
</a>
</g>
</g>
<!-- Node135&#45;&gt;Node136 -->
<g id="edge49" class="edge">
<title>Node135&#45;&gt;Node136</title>
<path fill="none" stroke="#63b8ff" d="M476.8,-190.01C501.44,-184.63 535.03,-177.3 562.56,-171.29"/>
<polygon fill="#63b8ff" stroke="#63b8ff" points="563.38,-174.7 572.4,-169.14 561.88,-167.86 563.38,-174.7"/>
</g>
<!-- Node137 -->
<g id="node36" class="node">
<title>Node137</title>
<g id="a_node36"><a xlink:href="list_8h.html#a56c2e407458d3d071ab549938bc5a7c1" target="_top" xlink:title=" ">
<polygon fill="white" stroke="#666666" points="658.5,-244 567.5,-244 567.5,-225 658.5,-225 658.5,-244"/>
<text text-anchor="middle" x="613" y="-232" font-family="Helvetica,sans-Serif" font-size="10.00">my_add_to_list</text>
</a>
</g>
</g>
<!-- Node135&#45;&gt;Node137 -->
<g id="edge50" class="edge">
<title>Node135&#45;&gt;Node137</title>
<path fill="none" stroke="#63b8ff" d="M476.8,-204.99C500.22,-210.1 531.71,-216.97 558.42,-222.8"/>
<polygon fill="#63b8ff" stroke="#63b8ff" points="557.87,-226.27 568.39,-224.98 559.36,-219.43 557.87,-226.27"/>
</g>
<!-- Node57 -->
<g id="node37" class="node">
<title>Node57</title>
<g id="a_node37"><a xlink:href="list_8h.html#a68908a98f87b64d0b0fa9ac090a70cad" target="_top" xlink:title=" ">
<polygon fill="white" stroke="#666666" points="651.5,-133 574.5,-133 574.5,-114 651.5,-114 651.5,-133"/>
<text text-anchor="middle" x="613" y="-121" font-family="Helvetica,sans-Serif" font-size="10.00">my_free_list</text>
</a>
</g>
</g>
<!-- Node135&#45;&gt;Node57 -->
<g id="edge51" class="edge">
<title>Node135&#45;&gt;Node57</title>
<path fill="none" stroke="#63b8ff" d="M476.6,-192.26C489.82,-189.25 504.71,-184.6 517,-177.5 536.59,-166.18 533.6,-153.15 553,-141.5 556.67,-139.3 560.63,-137.35 564.7,-135.62"/>
<polygon fill="#63b8ff" stroke="#63b8ff" points="566.19,-138.79 574.31,-131.98 563.72,-132.25 566.19,-138.79"/>
</g>
<!-- Node138 -->
<g id="node38" class="node">
<title>Node138</title>
<g id="a_node38"><a xlink:href="strings_8h.html#a27d061f38fee80ecc582a343015ebc5c" target="_top" xlink:title=" ">
<polygon fill="white" stroke="#666666" points="653,-207 573,-207 573,-188 653,-188 653,-207"/>
<text text-anchor="middle" x="613" y="-195" font-family="Helvetica,sans-Serif" font-size="10.00">my_getindex</text>
</a>
</g>
</g>
<!-- Node135&#45;&gt;Node138 -->
<g id="edge52" class="edge">
<title>Node135&#45;&gt;Node138</title>
<path fill="none" stroke="#63b8ff" d="M476.8,-197.5C501.42,-197.5 534.97,-197.5 562.48,-197.5"/>
<polygon fill="#63b8ff" stroke="#63b8ff" points="562.7,-201 572.7,-197.5 562.7,-194 562.7,-201"/>
</g>
<!-- Node140&#45;&gt;Node16 -->
<g id="edge55" class="edge">
<title>Node140&#45;&gt;Node16</title>
<path fill="none" stroke="#63b8ff" d="M313.29,-244.1C329.61,-247.23 348.63,-250.49 366,-252.5 482.78,-266 619.94,-270.39 698.64,-271.82"/>
<polygon fill="#63b8ff" stroke="#63b8ff" points="698.82,-275.32 708.88,-271.99 698.94,-268.32 698.82,-275.32"/>
</g>
<!-- Node141 -->
<g id="node41" class="node">
<title>Node141</title>
<g id="a_node41"><a xlink:href="set__variable_8c.html#a47afbd80fec3464fe83979a24adb4290" target="_top" xlink:title=" ">
<polygon fill="#fff0f0" stroke="red" points="480,-244 403,-244 403,-225 480,-225 480,-244"/>
<text text-anchor="middle" x="441.5" y="-232" font-family="Helvetica,sans-Serif" font-size="10.00">set_variable</text>
</a>
</g>
</g>
<!-- Node140&#45;&gt;Node141 -->
<g id="edge56" class="edge">
<title>Node140&#45;&gt;Node141</title>
<path fill="none" stroke="#63b8ff" d="M313.17,-235.26C337.15,-235.12 367.62,-234.93 392.75,-234.78"/>
<polygon fill="#63b8ff" stroke="#63b8ff" points="392.82,-238.28 402.79,-234.72 392.77,-231.28 392.82,-238.28"/>
</g>
<!-- Node141&#45;&gt;Node136 -->
<g id="edge57" class="edge">
<title>Node141&#45;&gt;Node136</title>
<path fill="none" stroke="#63b8ff" d="M480.05,-229.12C492.38,-226.28 505.79,-221.98 517,-215.5 536.86,-204.01 533.41,-190.45 553,-178.5 556.16,-176.57 559.54,-174.84 563.02,-173.28"/>
<polygon fill="#63b8ff" stroke="#63b8ff" points="564.4,-176.5 572.4,-169.56 561.82,-169.99 564.4,-176.5"/>
</g>
<!-- Node141&#45;&gt;Node137 -->
<g id="edge58" class="edge">
<title>Node141&#45;&gt;Node137</title>
<path fill="none" stroke="#63b8ff" d="M480.12,-234.5C502.75,-234.5 531.95,-234.5 557.12,-234.5"/>
<polygon fill="#63b8ff" stroke="#63b8ff" points="557.27,-238 567.27,-234.5 557.27,-231 557.27,-238"/>
</g>
<!-- Node86 -->
<g id="node43" class="node">
<title>Node86</title>
<g id="a_node43"><a xlink:href="strings_8h.html#a5e1589f073ac32d227dbc6020c376dab" target="_top" xlink:title=" ">
<polygon fill="white" stroke="#666666" points="322,-57 221,-57 221,-38 322,-38 322,-57"/>
<text text-anchor="middle" x="271.5" y="-45" font-family="Helvetica,sans-Serif" font-size="10.00">append_to_buffer</text>
</a>
</g>
</g>
<!-- Node144&#45;&gt;Node86 -->
<g id="edge60" class="edge">
<title>Node144&#45;&gt;Node86</title>
<path fill="none" stroke="#63b8ff" d="M171.09,-75.26C187.91,-70.56 208.56,-64.8 226.68,-59.74"/>
<polygon fill="#63b8ff" stroke="#63b8ff" points="227.76,-63.07 236.45,-57.01 225.87,-56.33 227.76,-63.07"/>
</g>
<!-- Node145 -->
<g id="node44" class="node">
<title>Node145</title>
<g id="a_node44"><a xlink:href="read__input_8c.html#ab8f53813e21230b48d9ccdc4032c6bee" target="_top" xlink:title=" ">
<polygon fill="white" stroke="#666666" points="329.5,-20 213.5,-20 213.5,-1 329.5,-1 329.5,-20"/>
<text text-anchor="middle" x="271.5" y="-8" font-family="Helvetica,sans-Serif" font-size="10.00">handle_continuation</text>
</a>
</g>
</g>
<!-- Node144&#45;&gt;Node145 -->
<g id="edge61" class="edge">
<title>Node144&#45;&gt;Node145</title>
<path fill="none" stroke="#63b8ff" d="M148.41,-74.9C162.22,-62.61 187.82,-41.37 213,-28.5 216.51,-26.7 220.24,-25.05 224.04,-23.53"/>
<polygon fill="#63b8ff" stroke="#63b8ff" points="225.39,-26.76 233.57,-20.03 222.97,-20.19 225.39,-26.76"/>
</g>
<!-- Node147 -->
<g id="node46" class="node">
<title>Node147</title>
<g id="a_node46"><a xlink:href="read__input_8c.html#a3282822bc1e8642066f4f88116a7a6cc" target="_top" xlink:title=" ">
<polygon fill="white" stroke="#666666" points="330,-131 213,-131 213,-112 330,-112 330,-131"/>
<text text-anchor="middle" x="271.5" y="-119" font-family="Helvetica,sans-Serif" font-size="10.00">handle_getline_error</text>
</a>
</g>
</g>
<!-- Node144&#45;&gt;Node147 -->
<g id="edge63" class="edge">
<title>Node144&#45;&gt;Node147</title>
<path fill="none" stroke="#63b8ff" d="M171.09,-93.74C187.91,-98.44 208.56,-104.2 226.68,-109.26"/>
<polygon fill="#63b8ff" stroke="#63b8ff" points="225.87,-112.67 236.45,-111.99 227.76,-105.93 225.87,-112.67"/>
</g>
<!-- Node148 -->
<g id="node47" class="node">
<title>Node148</title>
<g id="a_node47"><a xlink:href="read__input_8c.html#a274fec2b4095d4827436685c0b6b4afa" target="_top" xlink:title=" ">
<polygon fill="white" stroke="#666666" points="313,-94 230,-94 230,-75 313,-75 313,-94"/>
<text text-anchor="middle" x="271.5" y="-82" font-family="Helvetica,sans-Serif" font-size="10.00">show_prompt</text>
</a>
</g>
</g>
<!-- Node144&#45;&gt;Node148 -->
<g id="edge64" class="edge">
<title>Node144&#45;&gt;Node148</title>
<path fill="none" stroke="#63b8ff" d="M171.09,-84.5C185.68,-84.5 203.16,-84.5 219.36,-84.5"/>
<polygon fill="#63b8ff" stroke="#63b8ff" points="219.78,-88 229.78,-84.5 219.78,-81 219.78,-88"/>
</g>
<!-- Node146 -->
<g id="node45" class="node">
<title>Node146</title>
<g id="a_node45"><a xlink:href="read__input_8c.html#ab1d0f5b306ce10bb8fff68a7a4aaf428" target="_top" xlink:title=" ">
<polygon fill="white" stroke="#666666" points="489.5,-19 393.5,-19 393.5,0 489.5,0 489.5,-19"/>
<text text-anchor="middle" x="441.5" y="-7" font-family="Helvetica,sans-Serif" font-size="10.00">should_continue</text>
</a>
</g>
</g>
<!-- Node145&#45;&gt;Node146 -->
<g id="edge62" class="edge">
<title>Node145&#45;&gt;Node146</title>
<path fill="none" stroke="#63b8ff" d="M329.85,-10.16C347.01,-10.06 365.82,-9.94 382.99,-9.84"/>
<polygon fill="#63b8ff" stroke="#63b8ff" points="383.46,-13.34 393.44,-9.78 383.42,-6.34 383.46,-13.34"/>
</g>
<!-- Node149 -->
<g id="node48" class="node">
<title>Node149</title>
<g id="a_node48"><a xlink:href="read__input_8c.html#a6a144d0d5270ba0d210fcb5f39d7fc63" target="_top" xlink:title=" ">
<polygon fill="white" stroke="#666666" points="669.5,-57 556.5,-57 556.5,-38 669.5,-38 669.5,-57"/>
<text text-anchor="middle" x="613" y="-45" font-family="Helvetica,sans-Serif" font-size="10.00">print_prompt_prefix</text>
</a>
</g>
</g>
<!-- Node148&#45;&gt;Node149 -->
<g id="edge65" class="edge">
<title>Node148&#45;&gt;Node149</title>
<path fill="none" stroke="#63b8ff" d="M313.3,-75.61C329.62,-72.32 348.63,-68.83 366,-66.5 426.64,-58.35 496.2,-53.38 545.84,-50.58"/>
<polygon fill="#63b8ff" stroke="#63b8ff" points="546.33,-54.06 556.12,-50.01 545.94,-47.07 546.33,-54.06"/>
</g>
<!-- Node150 -->
<g id="node49" class="node">
<title>Node150</title>
<g id="a_node49"><a xlink:href="read__input_8c.html#a95fff78135b5c85ed0ff754f303e28f7" target="_top" xlink:title=" ">
<polygon fill="white" stroke="#666666" points="517,-95 366,-95 366,-76 517,-76 517,-95"/>
<text text-anchor="middle" x="441.5" y="-83" font-family="Helvetica,sans-Serif" font-size="10.00">show_prompt_with_curr_dir</text>
</a>
</g>
</g>
<!-- Node148&#45;&gt;Node150 -->
<g id="edge66" class="edge">
<title>Node148&#45;&gt;Node150</title>
<path fill="none" stroke="#63b8ff" d="M313.17,-84.74C326.03,-84.82 340.76,-84.91 355.52,-84.99"/>
<polygon fill="#63b8ff" stroke="#63b8ff" points="355.71,-88.5 365.73,-85.05 355.75,-81.5 355.71,-88.5"/>
</g>
<!-- Node150&#45;&gt;Node16 -->
<g id="edge67" class="edge">
<title>Node150&#45;&gt;Node16</title>
<path fill="none" stroke="#63b8ff" d="M498.49,-75.99C548.39,-70.59 621.3,-70.58 673,-104.5 726.15,-139.37 750.22,-216.52 758.91,-252.86"/>
<polygon fill="#63b8ff" stroke="#63b8ff" points="755.53,-253.74 761.14,-262.73 762.35,-252.2 755.53,-253.74"/>
</g>
<!-- Node150&#45;&gt;Node149 -->
<g id="edge68" class="edge">
<title>Node150&#45;&gt;Node149</title>
<path fill="none" stroke="#63b8ff" d="M485.27,-75.91C507.84,-70.85 535.72,-64.6 559.58,-59.25"/>
<polygon fill="#63b8ff" stroke="#63b8ff" points="560.54,-62.62 569.54,-57.02 559.01,-55.79 560.54,-62.62"/>
</g>
<!-- Node151&#45;&gt;Node136 -->
<g id="edge70" class="edge">
<title>Node151&#45;&gt;Node136</title>
<path fill="none" stroke="#63b8ff" d="M482.67,-159.74C506.5,-159.88 536.91,-160.06 562.26,-160.21"/>
<polygon fill="#63b8ff" stroke="#63b8ff" points="562.39,-163.71 572.41,-160.27 562.43,-156.71 562.39,-163.71"/>
</g>
<!-- Node151&#45;&gt;Node57 -->
<g id="edge71" class="edge">
<title>Node151&#45;&gt;Node57</title>
<path fill="none" stroke="#63b8ff" d="M482.67,-150.97C507.21,-145.76 538.73,-139.06 564.51,-133.59"/>
<polygon fill="#63b8ff" stroke="#63b8ff" points="565.39,-136.98 574.44,-131.48 563.93,-130.13 565.39,-136.98"/>
</g>
</g>
</svg>
        <g id="navigator" transform="translate(0 0)" fill="#404254">
                <rect fill="#f2f5e9" fill-opacity="0.5" stroke="#606060" stroke-width=".5" x="0" y="0" width="60" height="60"/>
                <use id="zoomplus" xlink:href="#zoomPlus" x="17" y="9" onmousedown="handleZoom(evt,'in')"/>
                <use id="zoomminus" xlink:href="#zoomMin" x="42" y="9" onmousedown="handleZoom(evt,'out')"/>
                <use id="reset" xlink:href="#resetDef" x="30" y="36" onmousedown="handleReset()"/>
                <g id="arrowUp" xlink:href="#dirArrow" transform="translate(30 24)" onmousedown="handlePan(0,-1)">
                  <use xlink:href="#rim" fill="#404040">
                        <set attributeName="fill" to="#808080" begin="arrowUp.mouseover" end="arrowUp.mouseout"/>
                  </use>
                  <path fill="none" stroke="white" stroke-width="1.5" d="M0,-3.0v7 M-2.5,-0.5L0,-3.0L2.5,-0.5"/>
                </g>
                <g id="arrowRight" xlink:href="#dirArrow" transform="rotate(90) translate(36 -43)" onmousedown="handlePan(1,0)">
                  <use xlink:href="#rim" fill="#404040">
                        <set attributeName="fill" to="#808080" begin="arrowRight.mouseover" end="arrowRight.mouseout"/>
                  </use>
                  <path fill="none" stroke="white" stroke-width="1.5" d="M0,-3.0v7 M-2.5,-0.5L0,-3.0L2.5,-0.5"/>
                </g>
                <g id="arrowDown" xlink:href="#dirArrow" transform="rotate(180) translate(-30 -48)" onmousedown="handlePan(0,1)">
                  <use xlink:href="#rim" fill="#404040">
                        <set attributeName="fill" to="#808080" begin="arrowDown.mouseover" end="arrowDown.mouseout"/>
                  </use>
                  <path fill="none" stroke="white" stroke-width="1.5" d="M0,-3.0v7 M-2.5,-0.5L0,-3.0L2.5,-0.5"/>
                </g>
                <g id="arrowLeft" xlink:href="#dirArrow" transform="rotate(270) translate(-36 17)" onmousedown="handlePan(-1,0)">
                  <use xlink:href="#rim" fill="#404040">
                        <set attributeName="fill" to="#808080" begin="arrowLeft.mouseover" end="arrowLeft.mouseout"/>
                  </use>
                  <path fill="none" stroke="white" stroke-width="1.5" d="M0,-3.0v7 M-2.5,-0.5L0,-3.0L2.5,-0.5"/>
                </g>
        </g>
        <svg viewBox="0 0 15 15" width="100%" height="30px" preserveAspectRatio="xMaxYMin meet">
         <g id="arrow_out" transform="scale(0.3 0.3)">
          <a xlink:href="shell_8c_ad0c642810cef7d35602fd99eaec9e3de_cgraph_org.svg" target="_base">
           <rect id="button" ry="5" rx="5" y="6" x="6" height="38" width="38"
                fill="#f2f5e9" fill-opacity="0.5" stroke="#606060" stroke-width="1.0"/>
           <path id="arrow"
             d="M 11.500037,31.436501 C 11.940474,20.09759 22.043105,11.32322 32.158766,21.979434 L 37.068811,17.246167 C 37.068811,17.246167 37.088388,32 37.088388,32 L 22.160133,31.978069 C 22.160133,31.978069 26.997745,27.140456 26.997745,27.140456 C 18.528582,18.264221 13.291696,25.230495 11.500037,31.436501 z"
             style="fill:#404040;"/>
          </a>
         </g>
        </svg>
</svg>
