<?xml version="1.0" encoding="UTF-8" standalone="no"?>
<!DOCTYPE svg PUBLIC "-//W3C//DTD SVG 1.1//EN"
 "http://www.w3.org/Graphics/SVG/1.1/DTD/svg11.dtd">
<!-- Generated by graphviz version 2.43.0 (0)
 -->
<!-- Title: include/shell.h Pages: 1 -->
<svg width="4528pt" height="225pt"
 viewBox="0.00 0.00 4528.00 225.00" xmlns="http://www.w3.org/2000/svg" xmlns:xlink="http://www.w3.org/1999/xlink">
<g id="graph0" class="graph" transform="scale(1 1) rotate(0) translate(4 221)">
<title>include/shell.h</title>
<!-- Node1 -->
<g id="node1" class="node">
<title>Node1</title>
<g id="a_node1"><a xlink:title=" ">
<polygon fill="#999999" stroke="#666666" points="2373,-217 2286,-217 2286,-198 2373,-198 2373,-217"/>
<text text-anchor="middle" x="2329.5" y="-205" font-family="Helvetica,sans-Serif" font-size="10.00">include/shell.h</text>
</a>
</g>
</g>
<!-- Node2 -->
<g id="node2" class="node">
<title>Node2</title>
<g id="a_node2"><a xlink:href="builtins_8h.html" target="_top" xlink:title=" ">
<polygon fill="white" stroke="#666666" points="356.5,-156.5 256.5,-156.5 256.5,-137.5 356.5,-137.5 356.5,-156.5"/>
<text text-anchor="middle" x="306.5" y="-144.5" font-family="Helvetica,sans-Serif" font-size="10.00">include/builtins.h</text>
</a>
</g>
</g>
<!-- Node1&#45;&gt;Node2 -->
<g id="edge1" class="edge">
<title>Node1&#45;&gt;Node2</title>
<path fill="none" stroke="#63b8ff" d="M2275.82,-206.61C2001.8,-206.96 757.06,-206.06 373.5,-162 362.99,-160.79 351.69,-158.73 341.42,-156.56"/>
<polygon fill="#63b8ff" stroke="#63b8ff" points="2275.91,-210.11 2285.9,-206.59 2275.9,-203.11 2275.91,-210.11"/>
</g>
<!-- Node3 -->
<g id="node3" class="node">
<title>Node3</title>
<g id="a_node3"><a xlink:href="builtins_8c.html" target="_top" xlink:title=" ">
<polygon fill="white" stroke="#666666" points="117,-90.5 0,-90.5 0,-71.5 117,-71.5 117,-90.5"/>
<text text-anchor="middle" x="58.5" y="-78.5" font-family="Helvetica,sans-Serif" font-size="10.00">src/builtins/builtins.c</text>
</a>
</g>
</g>
<!-- Node1&#45;&gt;Node3 -->
<g id="edge40" class="edge">
<title>Node1&#45;&gt;Node3</title>
<path fill="none" stroke="#63b8ff" d="M2275.26,-206.07C1954.19,-203.41 313.32,-188.55 210.5,-162 153.91,-147.38 94.87,-108.25 70.31,-90.72"/>
<polygon fill="#63b8ff" stroke="#63b8ff" points="2275.65,-209.57 2285.68,-206.15 2275.71,-202.57 2275.65,-209.57"/>
</g>
<!-- Node4 -->
<g id="node4" class="node">
<title>Node4</title>
<g id="a_node4"><a xlink:href="set_8c.html" target="_top" xlink:title=" ">
<polygon fill="white" stroke="#666666" points="231.5,-90.5 135.5,-90.5 135.5,-71.5 231.5,-71.5 231.5,-90.5"/>
<text text-anchor="middle" x="183.5" y="-78.5" font-family="Helvetica,sans-Serif" font-size="10.00">src/builtins/set.c</text>
</a>
</g>
</g>
<!-- Node1&#45;&gt;Node4 -->
<g id="edge44" class="edge">
<title>Node1&#45;&gt;Node4</title>
<path fill="none" stroke="#63b8ff" d="M2275.48,-206.63C1957.55,-207.26 341,-208.18 247.5,-162 216.24,-146.56 195.33,-107.87 187.25,-90.58"/>
<polygon fill="#63b8ff" stroke="#63b8ff" points="2275.81,-210.13 2285.8,-206.61 2275.8,-203.13 2275.81,-210.13"/>
</g>
<!-- Node5 -->
<g id="node5" class="node">
<title>Node5</title>
<g id="a_node5"><a xlink:href="setenv_8c.html" target="_top" xlink:title=" ">
<polygon fill="white" stroke="#666666" points="363,-90.5 250,-90.5 250,-71.5 363,-71.5 363,-90.5"/>
<text text-anchor="middle" x="306.5" y="-78.5" font-family="Helvetica,sans-Serif" font-size="10.00">src/builtins/setenv.c</text>
</a>
</g>
</g>
<!-- Node1&#45;&gt;Node5 -->
<g id="edge45" class="edge">
<title>Node1&#45;&gt;Node5</title>
<path fill="none" stroke="#63b8ff" d="M2275.49,-206.62C2023.7,-206.96 963.6,-205.7 635.5,-162 521.29,-146.79 389.11,-107.98 333.43,-90.62"/>
<polygon fill="#63b8ff" stroke="#63b8ff" points="2275.84,-210.12 2285.83,-206.61 2275.83,-203.12 2275.84,-210.12"/>
</g>
<!-- Node6 -->
<g id="node6" class="node">
<title>Node6</title>
<g id="a_node6"><a xlink:href="execute__cmd_8c.html" target="_top" xlink:title=" ">
<polygon fill="white" stroke="#666666" points="498,-96 381,-96 381,-66 498,-66 498,-96"/>
<text text-anchor="start" x="389" y="-84" font-family="Helvetica,sans-Serif" font-size="10.00">src/executer/execute</text>
<text text-anchor="middle" x="439.5" y="-73" font-family="Helvetica,sans-Serif" font-size="10.00">_cmd.c</text>
</a>
</g>
</g>
<!-- Node1&#45;&gt;Node6 -->
<g id="edge51" class="edge">
<title>Node1&#45;&gt;Node6</title>
<path fill="none" stroke="#63b8ff" d="M2275.73,-206.31C2039.52,-205.29 1092.46,-198.9 797.5,-162 685.49,-147.99 556.96,-115.03 488.49,-96.08"/>
<polygon fill="#63b8ff" stroke="#63b8ff" points="2275.78,-209.81 2285.79,-206.36 2275.81,-202.81 2275.78,-209.81"/>
</g>
<!-- Node7 -->
<g id="node7" class="node">
<title>Node7</title>
<g id="a_node7"><a xlink:href="executer_8h.html" target="_top" xlink:title=" ">
<polygon fill="white" stroke="#666666" points="1414,-156.5 1309,-156.5 1309,-137.5 1414,-137.5 1414,-156.5"/>
<text text-anchor="middle" x="1361.5" y="-144.5" font-family="Helvetica,sans-Serif" font-size="10.00">include/executer.h</text>
</a>
</g>
</g>
<!-- Node1&#45;&gt;Node7 -->
<g id="edge6" class="edge">
<title>Node1&#45;&gt;Node7</title>
<path fill="none" stroke="#63b8ff" d="M2275.42,-205.15C2139.65,-201.45 1773.52,-189.53 1469.5,-162 1451.42,-160.36 1431.72,-157.99 1414.14,-155.65"/>
<polygon fill="#63b8ff" stroke="#63b8ff" points="2275.47,-208.65 2285.56,-205.42 2275.66,-201.66 2275.47,-208.65"/>
</g>
<!-- Node8 -->
<g id="node8" class="node">
<title>Node8</title>
<g id="a_node8"><a xlink:href="execute__ast_8c.html" target="_top" xlink:title=" ">
<polygon fill="white" stroke="#666666" points="633,-96 516,-96 516,-66 633,-66 633,-96"/>
<text text-anchor="start" x="524" y="-84" font-family="Helvetica,sans-Serif" font-size="10.00">src/executer/execute</text>
<text text-anchor="middle" x="574.5" y="-73" font-family="Helvetica,sans-Serif" font-size="10.00">_ast.c</text>
</a>
</g>
</g>
<!-- Node1&#45;&gt;Node8 -->
<g id="edge50" class="edge">
<title>Node1&#45;&gt;Node8</title>
<path fill="none" stroke="#63b8ff" d="M2275.56,-205.87C2057.15,-203.15 1237.93,-191.19 980.5,-162 854.15,-147.67 708.43,-114.91 630.53,-96.06"/>
<polygon fill="#63b8ff" stroke="#63b8ff" points="2275.76,-209.38 2285.8,-206 2275.84,-202.38 2275.76,-209.38"/>
</g>
<!-- Node9 -->
<g id="node9" class="node">
<title>Node9</title>
<g id="a_node9"><a xlink:href="execute__command__substitution_8c.html" target="_top" xlink:title=" ">
<polygon fill="white" stroke="#666666" points="793.5,-96 651.5,-96 651.5,-66 793.5,-66 793.5,-96"/>
<text text-anchor="start" x="659.5" y="-84" font-family="Helvetica,sans-Serif" font-size="10.00">src/executer/execute</text>
<text text-anchor="middle" x="722.5" y="-73" font-family="Helvetica,sans-Serif" font-size="10.00">_command_substitution.c</text>
</a>
</g>
</g>
<!-- Node1&#45;&gt;Node9 -->
<g id="edge52" class="edge">
<title>Node1&#45;&gt;Node9</title>
<path fill="none" stroke="#63b8ff" d="M2275.73,-206.01C2070.19,-203.93 1334.13,-194.33 1102.5,-162 1047.2,-154.28 1035.04,-143.98 980.5,-132 917.56,-118.17 845.53,-104.38 793.6,-94.8"/>
<polygon fill="#63b8ff" stroke="#63b8ff" points="2275.93,-209.52 2285.96,-206.12 2276,-202.52 2275.93,-209.52"/>
</g>
<!-- Node10 -->
<g id="node10" class="node">
<title>Node10</title>
<g id="a_node10"><a xlink:href="execute__logical__and_8c.html" target="_top" xlink:title=" ">
<polygon fill="white" stroke="#666666" points="929,-96 812,-96 812,-66 929,-66 929,-96"/>
<text text-anchor="start" x="820" y="-84" font-family="Helvetica,sans-Serif" font-size="10.00">src/executer/execute</text>
<text text-anchor="middle" x="870.5" y="-73" font-family="Helvetica,sans-Serif" font-size="10.00">_logical_and.c</text>
</a>
</g>
</g>
<!-- Node1&#45;&gt;Node10 -->
<g id="edge53" class="edge">
<title>Node1&#45;&gt;Node10</title>
<path fill="none" stroke="#63b8ff" d="M2275.86,-206.68C2078.85,-207.01 1395.66,-204.94 1182.5,-162 1145.27,-154.5 1138.94,-142.7 1102.5,-132 1094.12,-129.54 995.13,-108.42 929.19,-94.43"/>
<polygon fill="#63b8ff" stroke="#63b8ff" points="2275.97,-210.18 2285.96,-206.66 2275.95,-203.18 2275.97,-210.18"/>
</g>
<!-- Node11 -->
<g id="node11" class="node">
<title>Node11</title>
<g id="a_node11"><a xlink:href="execute__logical__or_8c.html" target="_top" xlink:title=" ">
<polygon fill="white" stroke="#666666" points="1064,-96 947,-96 947,-66 1064,-66 1064,-96"/>
<text text-anchor="start" x="955" y="-84" font-family="Helvetica,sans-Serif" font-size="10.00">src/executer/execute</text>
<text text-anchor="middle" x="1005.5" y="-73" font-family="Helvetica,sans-Serif" font-size="10.00">_logical_or.c</text>
</a>
</g>
</g>
<!-- Node1&#45;&gt;Node11 -->
<g id="edge54" class="edge">
<title>Node1&#45;&gt;Node11</title>
<path fill="none" stroke="#63b8ff" d="M2275.74,-205.65C2070.37,-202.2 1341.89,-188.24 1241.5,-162 1213.04,-154.56 1209.9,-142.72 1182.5,-132 1143.99,-116.94 1099.15,-104.32 1064.23,-95.53"/>
<polygon fill="#63b8ff" stroke="#63b8ff" points="2275.91,-209.15 2285.97,-205.82 2276.03,-202.15 2275.91,-209.15"/>
</g>
<!-- Node12 -->
<g id="node12" class="node">
<title>Node12</title>
<g id="a_node12"><a xlink:href="execute__pipe_8c.html" target="_top" xlink:title=" ">
<polygon fill="white" stroke="#666666" points="1199,-96 1082,-96 1082,-66 1199,-66 1199,-96"/>
<text text-anchor="start" x="1090" y="-84" font-family="Helvetica,sans-Serif" font-size="10.00">src/executer/execute</text>
<text text-anchor="middle" x="1140.5" y="-73" font-family="Helvetica,sans-Serif" font-size="10.00">_pipe.c</text>
</a>
</g>
</g>
<!-- Node1&#45;&gt;Node12 -->
<g id="edge55" class="edge">
<title>Node1&#45;&gt;Node12</title>
<path fill="none" stroke="#63b8ff" d="M2275.66,-205.53C2077.31,-201.78 1393.96,-187.16 1299.5,-162 1271.46,-154.53 1267.39,-145.11 1241.5,-132 1217.23,-119.72 1189.54,-106.03 1169.3,-96.09"/>
<polygon fill="#63b8ff" stroke="#63b8ff" points="2275.77,-209.04 2285.84,-205.72 2275.9,-202.04 2275.77,-209.04"/>
</g>
<!-- Node13 -->
<g id="node13" class="node">
<title>Node13</title>
<g id="a_node13"><a xlink:href="execute__redirect_8c.html" target="_top" xlink:title=" ">
<polygon fill="white" stroke="#666666" points="1510,-96 1393,-96 1393,-66 1510,-66 1510,-96"/>
<text text-anchor="start" x="1401" y="-84" font-family="Helvetica,sans-Serif" font-size="10.00">src/executer/execute</text>
<text text-anchor="middle" x="1451.5" y="-73" font-family="Helvetica,sans-Serif" font-size="10.00">_redirect.c</text>
</a>
</g>
</g>
<!-- Node1&#45;&gt;Node13 -->
<g id="edge56" class="edge">
<title>Node1&#45;&gt;Node13</title>
<path fill="none" stroke="#63b8ff" d="M2275.83,-205.68C2173.11,-203.37 1941.94,-194.68 1750.5,-162 1657.54,-146.13 1551.51,-114.42 1494.03,-96.05"/>
<polygon fill="#63b8ff" stroke="#63b8ff" points="2275.88,-209.18 2285.95,-205.89 2276.02,-202.18 2275.88,-209.18"/>
</g>
<!-- Node14 -->
<g id="node14" class="node">
<title>Node14</title>
<g id="a_node14"><a xlink:href="execute__repeat_8c.html" target="_top" xlink:title=" ">
<polygon fill="white" stroke="#666666" points="1645,-96 1528,-96 1528,-66 1645,-66 1645,-96"/>
<text text-anchor="start" x="1536" y="-84" font-family="Helvetica,sans-Serif" font-size="10.00">src/executer/execute</text>
<text text-anchor="middle" x="1586.5" y="-73" font-family="Helvetica,sans-Serif" font-size="10.00">_repeat.c</text>
</a>
</g>
</g>
<!-- Node1&#45;&gt;Node14 -->
<g id="edge57" class="edge">
<title>Node1&#45;&gt;Node14</title>
<path fill="none" stroke="#63b8ff" d="M2275.75,-204.3C2190.04,-200.1 2017.39,-188.86 1873.5,-162 1784.77,-145.44 1683.65,-114.28 1628.26,-96.13"/>
<polygon fill="#63b8ff" stroke="#63b8ff" points="2275.61,-207.79 2285.76,-204.77 2275.94,-200.8 2275.61,-207.79"/>
</g>
<!-- Node15 -->
<g id="node15" class="node">
<title>Node15</title>
<g id="a_node15"><a xlink:href="execute__sequence_8c.html" target="_top" xlink:title=" ">
<polygon fill="white" stroke="#666666" points="1780,-96 1663,-96 1663,-66 1780,-66 1780,-96"/>
<text text-anchor="start" x="1671" y="-84" font-family="Helvetica,sans-Serif" font-size="10.00">src/executer/execute</text>
<text text-anchor="middle" x="1721.5" y="-73" font-family="Helvetica,sans-Serif" font-size="10.00">_sequence.c</text>
</a>
</g>
</g>
<!-- Node1&#45;&gt;Node15 -->
<g id="edge58" class="edge">
<title>Node1&#45;&gt;Node15</title>
<path fill="none" stroke="#63b8ff" d="M2275.8,-202.19C2208.23,-196.15 2088.88,-183.44 1988.5,-162 1906.4,-144.46 1812.94,-113.95 1761.23,-96.11"/>
<polygon fill="#63b8ff" stroke="#63b8ff" points="2275.52,-205.68 2285.79,-203.07 2276.13,-198.71 2275.52,-205.68"/>
</g>
<!-- Node16 -->
<g id="node16" class="node">
<title>Node16</title>
<g id="a_node16"><a xlink:href="execute__subshell_8c.html" target="_top" xlink:title=" ">
<polygon fill="white" stroke="#666666" points="1915,-96 1798,-96 1798,-66 1915,-66 1915,-96"/>
<text text-anchor="start" x="1806" y="-84" font-family="Helvetica,sans-Serif" font-size="10.00">src/executer/execute</text>
<text text-anchor="middle" x="1856.5" y="-73" font-family="Helvetica,sans-Serif" font-size="10.00">_subshell.c</text>
</a>
</g>
</g>
<!-- Node1&#45;&gt;Node16 -->
<g id="edge59" class="edge">
<title>Node1&#45;&gt;Node16</title>
<path fill="none" stroke="#63b8ff" d="M2275.66,-198.84C2226.69,-191.33 2152.63,-178.59 2089.5,-162 2018.35,-143.3 1937.63,-113.61 1892.32,-96.15"/>
<polygon fill="#63b8ff" stroke="#63b8ff" points="2275.31,-202.33 2285.72,-200.37 2276.35,-195.41 2275.31,-202.33"/>
</g>
<!-- Node19 -->
<g id="node19" class="node">
<title>Node19</title>
<g id="a_node19"><a xlink:href="shell_8c.html" target="_top" xlink:title=" ">
<polygon fill="white" stroke="#666666" points="2368,-24.5 2303,-24.5 2303,-5.5 2368,-5.5 2368,-24.5"/>
<text text-anchor="middle" x="2335.5" y="-12.5" font-family="Helvetica,sans-Serif" font-size="10.00">src/shell.c</text>
</a>
</g>
</g>
<!-- Node1&#45;&gt;Node19 -->
<g id="edge66" class="edge">
<title>Node1&#45;&gt;Node19</title>
<path fill="none" stroke="#63b8ff" d="M2282.2,-195.44C2206.59,-175.57 2071.9,-129.85 2122.5,-66 2144.62,-38.09 2248.6,-24.24 2302.66,-18.83"/>
<polygon fill="#63b8ff" stroke="#63b8ff" points="2281.45,-198.86 2292,-197.96 2283.19,-192.08 2281.45,-198.86"/>
</g>
<!-- Node20 -->
<g id="node20" class="node">
<title>Node20</title>
<g id="a_node20"><a xlink:href="lexer_8h.html" target="_top" xlink:title=" ">
<polygon fill="#fff0f0" stroke="red" points="2373,-156.5 2286,-156.5 2286,-137.5 2373,-137.5 2373,-156.5"/>
<text text-anchor="middle" x="2329.5" y="-144.5" font-family="Helvetica,sans-Serif" font-size="10.00">include/lexer.h</text>
</a>
</g>
</g>
<!-- Node1&#45;&gt;Node20 -->
<g id="edge20" class="edge">
<title>Node1&#45;&gt;Node20</title>
<path fill="none" stroke="#63b8ff" d="M2329.5,-187.66C2329.5,-177.24 2329.5,-164.8 2329.5,-156.67"/>
<polygon fill="#63b8ff" stroke="#63b8ff" points="2326,-187.87 2329.5,-197.87 2333,-187.87 2326,-187.87"/>
</g>
<!-- Node28 -->
<g id="node22" class="node">
<title>Node28</title>
<g id="a_node22"><a xlink:href="parse__command_8c.html" target="_top" xlink:title=" ">
<polygon fill="white" stroke="#666666" points="3496.5,-30 3366.5,-30 3366.5,0 3496.5,0 3496.5,-30"/>
<text text-anchor="start" x="3374.5" y="-18" font-family="Helvetica,sans-Serif" font-size="10.00">src/parser/tokens/parse</text>
<text text-anchor="middle" x="3431.5" y="-7" font-family="Helvetica,sans-Serif" font-size="10.00">_command.c</text>
</a>
</g>
</g>
<!-- Node1&#45;&gt;Node28 -->
<g id="edge64" class="edge">
<title>Node1&#45;&gt;Node28</title>
<path fill="none" stroke="#63b8ff" d="M2359.15,-193.63C2377.09,-185.41 2400.16,-174.06 2419.5,-162 2438.06,-150.43 2437.88,-139.29 2458.5,-132 2535.41,-104.79 3869.53,-154.39 3926.5,-96 3935.81,-86.46 3935.44,-75.89 3926.5,-66 3898.19,-34.68 3624.44,-22.04 3496.63,-17.81"/>
<polygon fill="#63b8ff" stroke="#63b8ff" points="2357.45,-190.56 2349.77,-197.86 2360.32,-196.94 2357.45,-190.56"/>
</g>
<!-- Node35 -->
<g id="node23" class="node">
<title>Node35</title>
<g id="a_node23"><a xlink:href="lexer__expand__tilde_8c.html" target="_top" xlink:title=" ">
<polygon fill="white" stroke="#666666" points="2257.5,-96 2131.5,-96 2131.5,-66 2257.5,-66 2257.5,-96"/>
<text text-anchor="start" x="2139.5" y="-84" font-family="Helvetica,sans-Serif" font-size="10.00">src/lexer/lexer_expand</text>
<text text-anchor="middle" x="2194.5" y="-73" font-family="Helvetica,sans-Serif" font-size="10.00">_tilde.c</text>
</a>
</g>
</g>
<!-- Node1&#45;&gt;Node35 -->
<g id="edge60" class="edge">
<title>Node1&#45;&gt;Node35</title>
<path fill="none" stroke="#63b8ff" d="M2307.8,-192.21C2295.79,-183.92 2280.83,-172.97 2268.5,-162 2244.62,-140.74 2220.02,-112.69 2206.06,-96.07"/>
<polygon fill="#63b8ff" stroke="#63b8ff" points="2306.09,-195.27 2316.33,-197.98 2310.01,-189.48 2306.09,-195.27"/>
</g>
<!-- Node36 -->
<g id="node24" class="node">
<title>Node36</title>
<g id="a_node24"><a xlink:href="lexer__expand__variable_8c.html" target="_top" xlink:title=" ">
<polygon fill="white" stroke="#666666" points="2401.5,-96 2275.5,-96 2275.5,-66 2401.5,-66 2401.5,-96"/>
<text text-anchor="start" x="2283.5" y="-84" font-family="Helvetica,sans-Serif" font-size="10.00">src/lexer/lexer_expand</text>
<text text-anchor="middle" x="2338.5" y="-73" font-family="Helvetica,sans-Serif" font-size="10.00">_variable.c</text>
</a>
</g>
</g>
<!-- Node1&#45;&gt;Node36 -->
<g id="edge61" class="edge">
<title>Node1&#45;&gt;Node36</title>
<path fill="none" stroke="#63b8ff" d="M2304.92,-192.29C2294.41,-184.76 2283.25,-174.48 2277.5,-162 2271.92,-149.89 2271.8,-144.05 2277.5,-132 2284.71,-116.78 2299.07,-104.64 2312.05,-96.14"/>
<polygon fill="#63b8ff" stroke="#63b8ff" points="2303.2,-195.35 2313.47,-197.95 2307.07,-189.51 2303.2,-195.35"/>
</g>
<!-- Node37 -->
<g id="node25" class="node">
<title>Node37</title>
<g id="a_node25"><a xlink:href="lexer__init_8c.html" target="_top" xlink:title=" ">
<polygon fill="white" stroke="#666666" points="3917.5,-90.5 3803.5,-90.5 3803.5,-71.5 3917.5,-71.5 3917.5,-90.5"/>
<text text-anchor="middle" x="3860.5" y="-78.5" font-family="Helvetica,sans-Serif" font-size="10.00">src/lexer/lexer_init.c</text>
</a>
</g>
</g>
<!-- Node1&#45;&gt;Node37 -->
<g id="edge62" class="edge">
<title>Node1&#45;&gt;Node37</title>
<path fill="none" stroke="#63b8ff" d="M2347.63,-191.44C2372.88,-170.6 2416.58,-135.19 2425.5,-132 2568.79,-80.81 3643.39,-113.86 3794.5,-96 3804.85,-94.78 3815.98,-92.71 3826.1,-90.54"/>
<polygon fill="#63b8ff" stroke="#63b8ff" points="2345.32,-188.8 2339.85,-197.87 2349.78,-194.2 2345.32,-188.8"/>
</g>
<!-- Node51 -->
<g id="node35" class="node">
<title>Node51</title>
<g id="a_node35"><a xlink:href="builtin__where_8c.html" target="_top" xlink:title=" ">
<polygon fill="white" stroke="#666666" points="2571.5,-162 2467.5,-162 2467.5,-132 2571.5,-132 2571.5,-162"/>
<text text-anchor="start" x="2475.5" y="-150" font-family="Helvetica,sans-Serif" font-size="10.00">src/builtins/builtin</text>
<text text-anchor="middle" x="2519.5" y="-139" font-family="Helvetica,sans-Serif" font-size="10.00">_where.c</text>
</a>
</g>
</g>
<!-- Node1&#45;&gt;Node51 -->
<g id="edge38" class="edge">
<title>Node1&#45;&gt;Node51</title>
<path fill="none" stroke="#63b8ff" d="M2367,-194.95C2397.66,-185.51 2441.13,-172.13 2473.82,-162.06"/>
<polygon fill="#63b8ff" stroke="#63b8ff" points="2365.65,-191.71 2357.13,-197.99 2367.71,-198.4 2365.65,-191.71"/>
</g>
<!-- Node52 -->
<g id="node36" class="node">
<title>Node52</title>
<g id="a_node36"><a xlink:href="builtin__which_8c.html" target="_top" xlink:title=" ">
<polygon fill="white" stroke="#666666" points="2693.5,-162 2589.5,-162 2589.5,-132 2693.5,-132 2693.5,-162"/>
<text text-anchor="start" x="2597.5" y="-150" font-family="Helvetica,sans-Serif" font-size="10.00">src/builtins/builtin</text>
<text text-anchor="middle" x="2641.5" y="-139" font-family="Helvetica,sans-Serif" font-size="10.00">_which.c</text>
</a>
</g>
</g>
<!-- Node1&#45;&gt;Node52 -->
<g id="edge39" class="edge">
<title>Node1&#45;&gt;Node52</title>
<path fill="none" stroke="#63b8ff" d="M2383.28,-197.77C2434.2,-189.31 2512.74,-175.77 2580.5,-162 2583.37,-161.42 2586.32,-160.8 2589.29,-160.16"/>
<polygon fill="#63b8ff" stroke="#63b8ff" points="2382.45,-194.36 2373.16,-199.44 2383.59,-201.26 2382.45,-194.36"/>
</g>
<!-- Node53 -->
<g id="node37" class="node">
<title>Node53</title>
<g id="a_node37"><a xlink:href="cd_8c.html" target="_top" xlink:title=" ">
<polygon fill="white" stroke="#666666" points="2803.5,-156.5 2711.5,-156.5 2711.5,-137.5 2803.5,-137.5 2803.5,-156.5"/>
<text text-anchor="middle" x="2757.5" y="-144.5" font-family="Helvetica,sans-Serif" font-size="10.00">src/builtins/cd.c</text>
</a>
</g>
</g>
<!-- Node1&#45;&gt;Node53 -->
<g id="edge41" class="edge">
<title>Node1&#45;&gt;Node53</title>
<path fill="none" stroke="#63b8ff" d="M2383.43,-202.29C2456.26,-196.1 2589.9,-182.95 2702.5,-162 2710.44,-160.52 2718.94,-158.55 2726.82,-156.56"/>
<polygon fill="#63b8ff" stroke="#63b8ff" points="2382.81,-198.83 2373.14,-203.15 2383.4,-205.81 2382.81,-198.83"/>
</g>
<!-- Node54 -->
<g id="node38" class="node">
<title>Node54</title>
<g id="a_node38"><a xlink:href="env_8c.html" target="_top" xlink:title=" ">
<polygon fill="white" stroke="#666666" points="2919.5,-156.5 2821.5,-156.5 2821.5,-137.5 2919.5,-137.5 2919.5,-156.5"/>
<text text-anchor="middle" x="2870.5" y="-144.5" font-family="Helvetica,sans-Serif" font-size="10.00">src/builtins/env.c</text>
</a>
</g>
</g>
<!-- Node1&#45;&gt;Node54 -->
<g id="edge42" class="edge">
<title>Node1&#45;&gt;Node54</title>
<path fill="none" stroke="#63b8ff" d="M2383.24,-204.1C2472.77,-199.52 2657.87,-187.65 2812.5,-162 2821.08,-160.58 2830.28,-158.58 2838.76,-156.54"/>
<polygon fill="#63b8ff" stroke="#63b8ff" points="2382.88,-200.61 2373.07,-204.61 2383.23,-207.6 2382.88,-200.61"/>
</g>
<!-- Node55 -->
<g id="node39" class="node">
<title>Node55</title>
<g id="a_node39"><a xlink:href="exit_8c.html" target="_top" xlink:title=" ">
<polygon fill="white" stroke="#666666" points="3037.5,-156.5 2937.5,-156.5 2937.5,-137.5 3037.5,-137.5 3037.5,-156.5"/>
<text text-anchor="middle" x="2987.5" y="-144.5" font-family="Helvetica,sans-Serif" font-size="10.00">src/builtins/exit.c</text>
</a>
</g>
</g>
<!-- Node1&#45;&gt;Node55 -->
<g id="edge43" class="edge">
<title>Node1&#45;&gt;Node55</title>
<path fill="none" stroke="#63b8ff" d="M2383.43,-205.36C2488.78,-202.5 2729.04,-192.87 2928.5,-162 2937.34,-160.63 2946.82,-158.63 2955.53,-156.56"/>
<polygon fill="#63b8ff" stroke="#63b8ff" points="2383.27,-201.86 2373.36,-205.62 2383.45,-208.86 2383.27,-201.86"/>
</g>
<!-- Node56 -->
<g id="node40" class="node">
<title>Node56</title>
<g id="a_node40"><a xlink:href="unset_8c.html" target="_top" xlink:title=" ">
<polygon fill="white" stroke="#666666" points="3163.5,-156.5 3055.5,-156.5 3055.5,-137.5 3163.5,-137.5 3163.5,-156.5"/>
<text text-anchor="middle" x="3109.5" y="-144.5" font-family="Helvetica,sans-Serif" font-size="10.00">src/builtins/unset.c</text>
</a>
</g>
</g>
<!-- Node1&#45;&gt;Node56 -->
<g id="edge46" class="edge">
<title>Node1&#45;&gt;Node56</title>
<path fill="none" stroke="#63b8ff" d="M2383.41,-206.03C2503.23,-204.36 2800.51,-196.75 3046.5,-162 3056.04,-160.65 3066.28,-158.63 3075.67,-156.54"/>
<polygon fill="#63b8ff" stroke="#63b8ff" points="2383.34,-202.53 2373.39,-206.16 2383.43,-209.53 2383.34,-202.53"/>
</g>
<!-- Node57 -->
<g id="node41" class="node">
<title>Node57</title>
<g id="a_node41"><a xlink:href="unsetenv_8c.html" target="_top" xlink:title=" ">
<polygon fill="white" stroke="#666666" points="3307,-156.5 3182,-156.5 3182,-137.5 3307,-137.5 3307,-156.5"/>
<text text-anchor="middle" x="3244.5" y="-144.5" font-family="Helvetica,sans-Serif" font-size="10.00">src/builtins/unsetenv.c</text>
</a>
</g>
</g>
<!-- Node1&#45;&gt;Node57 -->
<g id="edge47" class="edge">
<title>Node1&#45;&gt;Node57</title>
<path fill="none" stroke="#63b8ff" d="M2383.51,-206.25C2517.58,-205.07 2876.15,-198.45 3172.5,-162 3183.37,-160.66 3195.06,-158.64 3205.8,-156.55"/>
<polygon fill="#63b8ff" stroke="#63b8ff" points="2383.09,-202.75 2373.12,-206.34 2383.15,-209.75 2383.09,-202.75"/>
</g>
<!-- Node58 -->
<g id="node42" class="node">
<title>Node58</title>
<g id="a_node42"><a xlink:href="env__to__list_8c.html" target="_top" xlink:title=" ">
<polygon fill="white" stroke="#666666" points="3441.5,-156.5 3325.5,-156.5 3325.5,-137.5 3441.5,-137.5 3441.5,-156.5"/>
<text text-anchor="middle" x="3383.5" y="-144.5" font-family="Helvetica,sans-Serif" font-size="10.00">src/env/env_to_list.c</text>
</a>
</g>
</g>
<!-- Node1&#45;&gt;Node58 -->
<g id="edge48" class="edge">
<title>Node1&#45;&gt;Node58</title>
<path fill="none" stroke="#63b8ff" d="M2383.24,-207.1C2532.15,-208.13 2962.52,-206.67 3316.5,-162 3326.76,-160.71 3337.78,-158.67 3347.86,-156.56"/>
<polygon fill="#63b8ff" stroke="#63b8ff" points="2383.03,-203.6 2373,-207.03 2382.98,-210.6 2383.03,-203.6"/>
</g>
<!-- Node59 -->
<g id="node43" class="node">
<title>Node59</title>
<g id="a_node43"><a xlink:href="env__to__word__array_8c.html" target="_top" xlink:title=" ">
<polygon fill="white" stroke="#666666" points="3577,-162 3460,-162 3460,-132 3577,-132 3577,-162"/>
<text text-anchor="start" x="3468" y="-150" font-family="Helvetica,sans-Serif" font-size="10.00">src/env/env_to_word</text>
<text text-anchor="middle" x="3518.5" y="-139" font-family="Helvetica,sans-Serif" font-size="10.00">_array.c</text>
</a>
</g>
</g>
<!-- Node1&#45;&gt;Node59 -->
<g id="edge49" class="edge">
<title>Node1&#45;&gt;Node59</title>
<path fill="none" stroke="#63b8ff" d="M2383.35,-205.53C2577.34,-201.85 3240.13,-187.66 3450.5,-162 3453.61,-161.62 3456.79,-161.17 3459.99,-160.68"/>
<polygon fill="#63b8ff" stroke="#63b8ff" points="2383.05,-202.03 2373.12,-205.72 2383.18,-209.03 2383.05,-202.03"/>
</g>
<!-- Node60 -->
<g id="node44" class="node">
<title>Node60</title>
<g id="a_node44"><a xlink:href="main_8c.html" target="_top" xlink:title=" ">
<polygon fill="white" stroke="#666666" points="3662,-156.5 3595,-156.5 3595,-137.5 3662,-137.5 3662,-156.5"/>
<text text-anchor="middle" x="3628.5" y="-144.5" font-family="Helvetica,sans-Serif" font-size="10.00">src/main.c</text>
</a>
</g>
</g>
<!-- Node1&#45;&gt;Node60 -->
<g id="edge63" class="edge">
<title>Node1&#45;&gt;Node60</title>
<path fill="none" stroke="#63b8ff" d="M2383.31,-206.64C2592.29,-206.86 3350.21,-204.65 3586.5,-162 3593.16,-160.8 3600.2,-158.77 3606.58,-156.62"/>
<polygon fill="#63b8ff" stroke="#63b8ff" points="2383.2,-203.14 2373.2,-206.63 2383.19,-210.14 2383.2,-203.14"/>
</g>
<!-- Node61 -->
<g id="node45" class="node">
<title>Node61</title>
<g id="a_node45"><a xlink:href="read__input_8c.html" target="_top" xlink:title=" ">
<polygon fill="white" stroke="#666666" points="3774.5,-156.5 3680.5,-156.5 3680.5,-137.5 3774.5,-137.5 3774.5,-156.5"/>
<text text-anchor="middle" x="3727.5" y="-144.5" font-family="Helvetica,sans-Serif" font-size="10.00">src/read_input.c</text>
</a>
</g>
</g>
<!-- Node1&#45;&gt;Node61 -->
<g id="edge65" class="edge">
<title>Node1&#45;&gt;Node61</title>
<path fill="none" stroke="#63b8ff" d="M2383.21,-206.24C2600.67,-204.94 3416.25,-197.73 3671.5,-162 3680.33,-160.76 3689.79,-158.69 3698.38,-156.52"/>
<polygon fill="#63b8ff" stroke="#63b8ff" points="2382.99,-202.74 2373.01,-206.3 2383.03,-209.74 2382.99,-202.74"/>
</g>
<!-- Node62 -->
<g id="node46" class="node">
<title>Node62</title>
<g id="a_node46"><a xlink:href="free__variable_8c.html" target="_top" xlink:title=" ">
<polygon fill="white" stroke="#666666" points="3894,-162 3793,-162 3793,-132 3894,-132 3894,-162"/>
<text text-anchor="start" x="3801" y="-150" font-family="Helvetica,sans-Serif" font-size="10.00">src/variables/free</text>
<text text-anchor="middle" x="3843.5" y="-139" font-family="Helvetica,sans-Serif" font-size="10.00">_variable.c</text>
</a>
</g>
</g>
<!-- Node1&#45;&gt;Node62 -->
<g id="edge67" class="edge">
<title>Node1&#45;&gt;Node62</title>
<path fill="none" stroke="#63b8ff" d="M2383.12,-206.28C2611.59,-205.15 3504.81,-198.41 3783.5,-162 3786.58,-161.6 3789.72,-161.11 3792.89,-160.55"/>
<polygon fill="#63b8ff" stroke="#63b8ff" points="2383.05,-202.78 2373.06,-206.33 2383.08,-209.78 2383.05,-202.78"/>
</g>
<!-- Node63 -->
<g id="node47" class="node">
<title>Node63</title>
<g id="a_node47"><a xlink:href="get__variable_8c.html" target="_top" xlink:title=" ">
<polygon fill="white" stroke="#666666" points="4063,-156.5 3912,-156.5 3912,-137.5 4063,-137.5 4063,-156.5"/>
<text text-anchor="middle" x="3987.5" y="-144.5" font-family="Helvetica,sans-Serif" font-size="10.00">src/variables/get_variable.c</text>
</a>
</g>
</g>
<!-- Node1&#45;&gt;Node63 -->
<g id="edge68" class="edge">
<title>Node1&#45;&gt;Node63</title>
<path fill="none" stroke="#63b8ff" d="M2383.5,-205.97C2623.98,-203.44 3599.03,-191.54 3903.5,-162 3916.45,-160.74 3930.42,-158.7 3943.18,-156.55"/>
<polygon fill="#63b8ff" stroke="#63b8ff" points="2383.23,-202.47 2373.26,-206.07 2383.3,-209.47 2383.23,-202.47"/>
</g>
<!-- Node64 -->
<g id="node48" class="node">
<title>Node64</title>
<g id="a_node48"><a xlink:href="get__variable__value_8c.html" target="_top" xlink:title=" ">
<polygon fill="white" stroke="#666666" points="4224,-162 4081,-162 4081,-132 4224,-132 4224,-162"/>
<text text-anchor="start" x="4089" y="-150" font-family="Helvetica,sans-Serif" font-size="10.00">src/variables/get_variable</text>
<text text-anchor="middle" x="4152.5" y="-139" font-family="Helvetica,sans-Serif" font-size="10.00">_value.c</text>
</a>
</g>
</g>
<!-- Node1&#45;&gt;Node64 -->
<g id="edge69" class="edge">
<title>Node1&#45;&gt;Node64</title>
<path fill="none" stroke="#63b8ff" d="M2383.37,-206.2C2639.17,-204.6 3732.89,-195.86 4072.5,-162 4075.17,-161.73 4077.88,-161.43 4080.61,-161.1"/>
<polygon fill="#63b8ff" stroke="#63b8ff" points="2383.2,-202.7 2373.22,-206.26 2383.24,-209.7 2383.2,-202.7"/>
</g>
<!-- Node65 -->
<g id="node49" class="node">
<title>Node65</title>
<g id="a_node49"><a xlink:href="set__variable_8c.html" target="_top" xlink:title=" ">
<polygon fill="white" stroke="#666666" points="4392.5,-156.5 4242.5,-156.5 4242.5,-137.5 4392.5,-137.5 4392.5,-156.5"/>
<text text-anchor="middle" x="4317.5" y="-144.5" font-family="Helvetica,sans-Serif" font-size="10.00">src/variables/set_variable.c</text>
</a>
</g>
</g>
<!-- Node1&#45;&gt;Node65 -->
<g id="edge70" class="edge">
<title>Node1&#45;&gt;Node65</title>
<path fill="none" stroke="#63b8ff" d="M2383.44,-206.27C2653.45,-204.98 3860.14,-197.3 4233.5,-162 4246.6,-160.76 4260.74,-158.69 4273.62,-156.52"/>
<polygon fill="#63b8ff" stroke="#63b8ff" points="2383.1,-202.77 2373.12,-206.32 2383.14,-209.77 2383.1,-202.77"/>
</g>
<!-- Node66 -->
<g id="node50" class="node">
<title>Node66</title>
<g id="a_node50"><a xlink:href="unset__variable_8c.html" target="_top" xlink:title=" ">
<polygon fill="white" stroke="#666666" points="4520,-162 4411,-162 4411,-132 4520,-132 4520,-162"/>
<text text-anchor="start" x="4419" y="-150" font-family="Helvetica,sans-Serif" font-size="10.00">src/variables/unset</text>
<text text-anchor="middle" x="4465.5" y="-139" font-family="Helvetica,sans-Serif" font-size="10.00">_variable.c</text>
</a>
</g>
</g>
<!-- Node1&#45;&gt;Node66 -->
<g id="edge71" class="edge">
<title>Node1&#45;&gt;Node66</title>
<path fill="none" stroke="#63b8ff" d="M2383.15,-206.76C2666.77,-207.89 3993.87,-210.5 4401.5,-162 4404.55,-161.64 4407.67,-161.2 4410.81,-160.69"/>
<polygon fill="#63b8ff" stroke="#63b8ff" points="2383.13,-203.26 2373.11,-206.71 2383.1,-210.26 2383.13,-203.26"/>
</g>
<!-- Node2&#45;&gt;Node3 -->
<g id="edge2" class="edge">
<title>Node2&#45;&gt;Node3</title>
<path fill="none" stroke="#63b8ff" d="M263.35,-134.86C214.43,-122.24 135.75,-101.94 91.49,-90.51"/>
<polygon fill="#63b8ff" stroke="#63b8ff" points="262.75,-138.33 273.31,-137.44 264.5,-131.55 262.75,-138.33"/>
</g>
<!-- Node2&#45;&gt;Node4 -->
<g id="edge3" class="edge">
<title>Node2&#45;&gt;Node4</title>
<path fill="none" stroke="#63b8ff" d="M280.93,-132.69C256.7,-120.09 221.01,-101.51 200.22,-90.7"/>
<polygon fill="#63b8ff" stroke="#63b8ff" points="279.43,-135.86 289.91,-137.37 282.66,-129.65 279.43,-135.86"/>
</g>
<!-- Node2&#45;&gt;Node5 -->
<g id="edge4" class="edge">
<title>Node2&#45;&gt;Node5</title>
<path fill="none" stroke="#63b8ff" d="M306.5,-127.08C306.5,-115.13 306.5,-100.22 306.5,-90.91"/>
<polygon fill="#63b8ff" stroke="#63b8ff" points="303,-127.37 306.5,-137.37 310,-127.37 303,-127.37"/>
</g>
<!-- Node2&#45;&gt;Node6 -->
<g id="edge5" class="edge">
<title>Node2&#45;&gt;Node6</title>
<path fill="none" stroke="#63b8ff" d="M333.66,-132.93C355.91,-122.22 387.34,-107.1 410.17,-96.12"/>
<polygon fill="#63b8ff" stroke="#63b8ff" points="331.93,-129.88 324.44,-137.37 334.97,-136.19 331.93,-129.88"/>
</g>
<!-- Node7&#45;&gt;Node6 -->
<g id="edge8" class="edge">
<title>Node7&#45;&gt;Node6</title>
<path fill="none" stroke="#63b8ff" d="M1298.45,-145.49C1156.43,-143.65 800.92,-135.15 506.5,-96 503.79,-95.64 501.03,-95.23 498.24,-94.79"/>
<polygon fill="#63b8ff" stroke="#63b8ff" points="1298.66,-148.99 1308.71,-145.62 1298.75,-141.99 1298.66,-148.99"/>
</g>
<!-- Node7&#45;&gt;Node8 -->
<g id="edge7" class="edge">
<title>Node7&#45;&gt;Node8</title>
<path fill="none" stroke="#63b8ff" d="M1298.76,-144.45C1173.48,-140.75 883.66,-129.06 642.5,-96 639.4,-95.57 636.22,-95.09 633.02,-94.57"/>
<polygon fill="#63b8ff" stroke="#63b8ff" points="1298.83,-147.96 1308.93,-144.75 1299.03,-140.96 1298.83,-147.96"/>
</g>
<!-- Node7&#45;&gt;Node9 -->
<g id="edge9" class="edge">
<title>Node7&#45;&gt;Node9</title>
<path fill="none" stroke="#63b8ff" d="M1298.65,-142.11C1194.99,-135.3 981.81,-119.67 802.5,-96 799.56,-95.61 796.57,-95.19 793.55,-94.75"/>
<polygon fill="#63b8ff" stroke="#63b8ff" points="1298.73,-145.62 1308.93,-142.78 1299.18,-138.63 1298.73,-145.62"/>
</g>
<!-- Node7&#45;&gt;Node10 -->
<g id="edge10" class="edge">
<title>Node7&#45;&gt;Node10</title>
<path fill="none" stroke="#63b8ff" d="M1298.72,-140.35C1215.74,-132.48 1065.13,-116.82 937.5,-96 934.8,-95.56 932.05,-95.09 929.27,-94.59"/>
<polygon fill="#63b8ff" stroke="#63b8ff" points="1298.46,-143.84 1308.74,-141.29 1299.11,-136.87 1298.46,-143.84"/>
</g>
<!-- Node7&#45;&gt;Node11 -->
<g id="edge11" class="edge">
<title>Node7&#45;&gt;Node11</title>
<path fill="none" stroke="#63b8ff" d="M1298.72,-135.78C1240.1,-126.09 1150.23,-110.84 1072.5,-96 1069.82,-95.49 1067.07,-94.95 1064.3,-94.41"/>
<polygon fill="#63b8ff" stroke="#63b8ff" points="1298.49,-139.29 1308.93,-137.47 1299.63,-132.39 1298.49,-139.29"/>
</g>
<!-- Node7&#45;&gt;Node12 -->
<g id="edge12" class="edge">
<title>Node7&#45;&gt;Node12</title>
<path fill="none" stroke="#63b8ff" d="M1321.73,-134.48C1284.59,-123.73 1229.04,-107.64 1189.24,-96.12"/>
<polygon fill="#63b8ff" stroke="#63b8ff" points="1321.12,-137.95 1331.69,-137.37 1323.06,-131.23 1321.12,-137.95"/>
</g>
<!-- Node7&#45;&gt;Node13 -->
<g id="edge13" class="edge">
<title>Node7&#45;&gt;Node13</title>
<path fill="none" stroke="#63b8ff" d="M1382.15,-131.32C1397.02,-120.74 1416.97,-106.56 1431.65,-96.12"/>
<polygon fill="#63b8ff" stroke="#63b8ff" points="1379.76,-128.72 1373.64,-137.37 1383.82,-134.43 1379.76,-128.72"/>
</g>
<!-- Node7&#45;&gt;Node14 -->
<g id="edge14" class="edge">
<title>Node7&#45;&gt;Node14</title>
<path fill="none" stroke="#63b8ff" d="M1401.5,-134.62C1439.32,-123.86 1496.18,-107.69 1536.87,-96.12"/>
<polygon fill="#63b8ff" stroke="#63b8ff" points="1400.51,-131.27 1391.84,-137.37 1402.42,-138 1400.51,-131.27"/>
</g>
<!-- Node7&#45;&gt;Node15 -->
<g id="edge15" class="edge">
<title>Node7&#45;&gt;Node15</title>
<path fill="none" stroke="#63b8ff" d="M1424.02,-135.92C1483.22,-126.22 1574.55,-110.88 1653.5,-96 1656.58,-95.42 1659.74,-94.81 1662.92,-94.19"/>
<polygon fill="#63b8ff" stroke="#63b8ff" points="1423.38,-132.47 1414.08,-137.54 1424.51,-139.38 1423.38,-132.47"/>
</g>
<!-- Node7&#45;&gt;Node16 -->
<g id="edge16" class="edge">
<title>Node7&#45;&gt;Node16</title>
<path fill="none" stroke="#63b8ff" d="M1424.37,-140.35C1507.86,-132.47 1659.76,-116.75 1788.5,-96 1791.59,-95.5 1794.76,-94.96 1797.95,-94.39"/>
<polygon fill="#63b8ff" stroke="#63b8ff" points="1423.92,-136.88 1414.29,-141.3 1424.58,-143.85 1423.92,-136.88"/>
</g>
<!-- Node17 -->
<g id="node17" class="node">
<title>Node17</title>
<g id="a_node17"><a xlink:href="wait__for__subprocess_8c.html" target="_top" xlink:title=" ">
<polygon fill="white" stroke="#666666" points="1336,-96 1217,-96 1217,-66 1336,-66 1336,-96"/>
<text text-anchor="start" x="1225" y="-84" font-family="Helvetica,sans-Serif" font-size="10.00">src/executer/wait_for</text>
<text text-anchor="middle" x="1276.5" y="-73" font-family="Helvetica,sans-Serif" font-size="10.00">_subprocess.c</text>
</a>
</g>
</g>
<!-- Node7&#45;&gt;Node17 -->
<g id="edge17" class="edge">
<title>Node7&#45;&gt;Node17</title>
<path fill="none" stroke="#63b8ff" d="M1342,-131.32C1327.95,-120.74 1309.12,-106.56 1295.25,-96.12"/>
<polygon fill="#63b8ff" stroke="#63b8ff" points="1339.94,-134.15 1350.04,-137.37 1344.15,-128.56 1339.94,-134.15"/>
</g>
<!-- Node18 -->
<g id="node18" class="node">
<title>Node18</title>
<g id="a_node18"><a xlink:href="lexer__expand__command__substitution_8c.html" target="_top" xlink:title=" ">
<polygon fill="white" stroke="#666666" points="2075.5,-96 1933.5,-96 1933.5,-66 2075.5,-66 2075.5,-96"/>
<text text-anchor="start" x="1941.5" y="-84" font-family="Helvetica,sans-Serif" font-size="10.00">src/lexer/lexer_expand</text>
<text text-anchor="middle" x="2004.5" y="-73" font-family="Helvetica,sans-Serif" font-size="10.00">_command_substitution.c</text>
</a>
</g>
</g>
<!-- Node7&#45;&gt;Node18 -->
<g id="edge18" class="edge">
<title>Node7&#45;&gt;Node18</title>
<path fill="none" stroke="#63b8ff" d="M1424.37,-142.1C1528.46,-135.27 1743.02,-119.58 1923.5,-96 1926.75,-95.57 1930.08,-95.11 1933.43,-94.62"/>
<polygon fill="#63b8ff" stroke="#63b8ff" points="1424.1,-138.61 1414.35,-142.76 1424.55,-145.6 1424.1,-138.61"/>
</g>
<!-- Node7&#45;&gt;Node19 -->
<g id="edge19" class="edge">
<title>Node7&#45;&gt;Node19</title>
<path fill="none" stroke="#63b8ff" d="M1360.87,-127.28C1361.37,-108.57 1365.38,-80.57 1383.5,-66 1420.07,-36.58 2139.53,-20.04 2302.76,-16.65"/>
<polygon fill="#63b8ff" stroke="#63b8ff" points="1357.37,-127.29 1360.91,-137.28 1364.37,-127.26 1357.37,-127.29"/>
</g>
<!-- Node20&#45;&gt;Node18 -->
<g id="edge24" class="edge">
<title>Node20&#45;&gt;Node18</title>
<path fill="none" stroke="#63b8ff" d="M2276.17,-135.5C2221.49,-124.73 2136.14,-107.92 2075.72,-96.02"/>
<polygon fill="#63b8ff" stroke="#63b8ff" points="2275.52,-138.94 2286.01,-137.44 2276.87,-132.07 2275.52,-138.94"/>
</g>
<!-- Node20&#45;&gt;Node19 -->
<g id="edge37" class="edge">
<title>Node20&#45;&gt;Node19</title>
<path fill="none" stroke="#63b8ff" d="M2374.2,-135.13C2378.69,-134.06 2383.18,-133 2387.5,-132 2458.92,-115.4 2502.66,-153.22 2548.5,-96 2598.02,-34.19 2439.31,-20.13 2368.17,-16.93"/>
<polygon fill="#63b8ff" stroke="#63b8ff" points="2373.35,-131.73 2364.44,-137.46 2374.98,-138.54 2373.35,-131.73"/>
</g>
<!-- Node21 -->
<g id="node21" class="node">
<title>Node21</title>
<g id="a_node21"><a xlink:href="parser_8h.html" target="_top" xlink:title=" ">
<polygon fill="#fff0f0" stroke="red" points="2965.5,-90.5 2871.5,-90.5 2871.5,-71.5 2965.5,-71.5 2965.5,-90.5"/>
<text text-anchor="middle" x="2918.5" y="-78.5" font-family="Helvetica,sans-Serif" font-size="10.00">include/parser.h</text>
</a>
</g>
</g>
<!-- Node20&#45;&gt;Node21 -->
<g id="edge21" class="edge">
<title>Node20&#45;&gt;Node21</title>
<path fill="none" stroke="#63b8ff" d="M2370.8,-135.17C2376.39,-133.96 2382.06,-132.86 2387.5,-132 2596.64,-99.05 2653.5,-129.8 2862.5,-96 2871.01,-94.62 2880.12,-92.59 2888.47,-90.5"/>
<polygon fill="#63b8ff" stroke="#63b8ff" points="2369.89,-131.79 2360.92,-137.44 2371.45,-138.61 2369.89,-131.79"/>
</g>
<!-- Node20&#45;&gt;Node35 -->
<g id="edge25" class="edge">
<title>Node20&#45;&gt;Node35</title>
<path fill="none" stroke="#63b8ff" d="M2302.24,-133.08C2279.63,-122.36 2247.55,-107.15 2224.28,-96.12"/>
<polygon fill="#63b8ff" stroke="#63b8ff" points="2300.76,-136.25 2311.29,-137.37 2303.76,-129.92 2300.76,-136.25"/>
</g>
<!-- Node20&#45;&gt;Node36 -->
<g id="edge26" class="edge">
<title>Node20&#45;&gt;Node36</title>
<path fill="none" stroke="#63b8ff" d="M2332.12,-127.35C2333.51,-117.47 2335.19,-105.51 2336.48,-96.36"/>
<polygon fill="#63b8ff" stroke="#63b8ff" points="2328.64,-126.98 2330.71,-137.37 2335.57,-127.95 2328.64,-126.98"/>
</g>
<!-- Node20&#45;&gt;Node37 -->
<g id="edge27" class="edge">
<title>Node20&#45;&gt;Node37</title>
<path fill="none" stroke="#63b8ff" d="M2369.54,-135.17C2375.52,-133.9 2381.64,-132.77 2387.5,-132 3007.66,-50.16 3173.26,-169.21 3794.5,-96 3804.85,-94.78 3815.98,-92.72 3826.1,-90.54"/>
<polygon fill="#63b8ff" stroke="#63b8ff" points="2368.64,-131.79 2359.68,-137.44 2370.2,-138.61 2368.64,-131.79"/>
</g>
<!-- Node38 -->
<g id="node26" class="node">
<title>Node38</title>
<g id="a_node26"><a xlink:href="lexer__next__token_8c.html" target="_top" xlink:title=" ">
<polygon fill="white" stroke="#666666" points="3095.5,-96 2983.5,-96 2983.5,-66 3095.5,-66 3095.5,-96"/>
<text text-anchor="start" x="2991.5" y="-84" font-family="Helvetica,sans-Serif" font-size="10.00">src/lexer/lexer_next</text>
<text text-anchor="middle" x="3039.5" y="-73" font-family="Helvetica,sans-Serif" font-size="10.00">_token.c</text>
</a>
</g>
</g>
<!-- Node20&#45;&gt;Node38 -->
<g id="edge28" class="edge">
<title>Node20&#45;&gt;Node38</title>
<path fill="none" stroke="#63b8ff" d="M2370.59,-135.14C2376.24,-133.92 2381.99,-132.83 2387.5,-132 2645.98,-93.19 2715.56,-131.62 2974.5,-96 2977.36,-95.61 2980.28,-95.16 2983.22,-94.66"/>
<polygon fill="#63b8ff" stroke="#63b8ff" points="2369.57,-131.78 2360.61,-137.43 2371.14,-138.61 2369.57,-131.78"/>
</g>
<!-- Node39 -->
<g id="node27" class="node">
<title>Node39</title>
<g id="a_node27"><a xlink:href="lexer__utils_8c.html" target="_top" xlink:title=" ">
<polygon fill="white" stroke="#666666" points="3233,-90.5 3114,-90.5 3114,-71.5 3233,-71.5 3233,-90.5"/>
<text text-anchor="middle" x="3173.5" y="-78.5" font-family="Helvetica,sans-Serif" font-size="10.00">src/lexer/lexer_utils.c</text>
</a>
</g>
</g>
<!-- Node20&#45;&gt;Node39 -->
<g id="edge29" class="edge">
<title>Node20&#45;&gt;Node39</title>
<path fill="none" stroke="#63b8ff" d="M2370.39,-135.13C2376.1,-133.9 2381.93,-132.81 2387.5,-132 2703.29,-86.37 2787.93,-135.83 3104.5,-96 3115.05,-94.67 3126.4,-92.63 3136.79,-90.51"/>
<polygon fill="#63b8ff" stroke="#63b8ff" points="2369.26,-131.79 2360.3,-137.44 2370.82,-138.62 2369.26,-131.79"/>
</g>
<!-- Node40 -->
<g id="node28" class="node">
<title>Node40</title>
<g id="a_node28"><a xlink:href="lexer__heredoc_8c.html" target="_top" xlink:title=" ">
<polygon fill="white" stroke="#666666" points="3371.5,-96 3251.5,-96 3251.5,-66 3371.5,-66 3371.5,-96"/>
<text text-anchor="start" x="3259.5" y="-84" font-family="Helvetica,sans-Serif" font-size="10.00">src/lexer/tokens/lexer</text>
<text text-anchor="middle" x="3311.5" y="-73" font-family="Helvetica,sans-Serif" font-size="10.00">_heredoc.c</text>
</a>
</g>
</g>
<!-- Node20&#45;&gt;Node40 -->
<g id="edge30" class="edge">
<title>Node20&#45;&gt;Node40</title>
<path fill="none" stroke="#63b8ff" d="M2369.75,-135.22C2375.67,-133.94 2381.72,-132.81 2387.5,-132 2764.14,-79.13 2864.95,-141.96 3242.5,-96 3245.41,-95.65 3248.38,-95.23 3251.38,-94.78"/>
<polygon fill="#63b8ff" stroke="#63b8ff" points="2368.95,-131.81 2359.99,-137.46 2370.52,-138.63 2368.95,-131.81"/>
</g>
<!-- Node41 -->
<g id="node29" class="node">
<title>Node41</title>
<g id="a_node29"><a xlink:href="lexer__logical__and_8c.html" target="_top" xlink:title=" ">
<polygon fill="white" stroke="#666666" points="3509.5,-96 3389.5,-96 3389.5,-66 3509.5,-66 3509.5,-96"/>
<text text-anchor="start" x="3397.5" y="-84" font-family="Helvetica,sans-Serif" font-size="10.00">src/lexer/tokens/lexer</text>
<text text-anchor="middle" x="3449.5" y="-73" font-family="Helvetica,sans-Serif" font-size="10.00">_logical_and.c</text>
</a>
</g>
</g>
<!-- Node20&#45;&gt;Node41 -->
<g id="edge31" class="edge">
<title>Node20&#45;&gt;Node41</title>
<path fill="none" stroke="#63b8ff" d="M2369.75,-135.19C2375.66,-133.92 2381.71,-132.79 2387.5,-132 2825.01,-71.89 2941.96,-148.08 3380.5,-96 3383.41,-95.65 3386.39,-95.25 3389.38,-94.8"/>
<polygon fill="#63b8ff" stroke="#63b8ff" points="2368.95,-131.78 2359.98,-137.43 2370.51,-138.6 2368.95,-131.78"/>
</g>
<!-- Node42 -->
<g id="node30" class="node">
<title>Node42</title>
<g id="a_node30"><a xlink:href="lexer__logical__or_8c.html" target="_top" xlink:title=" ">
<polygon fill="white" stroke="#666666" points="3647.5,-96 3527.5,-96 3527.5,-66 3647.5,-66 3647.5,-96"/>
<text text-anchor="start" x="3535.5" y="-84" font-family="Helvetica,sans-Serif" font-size="10.00">src/lexer/tokens/lexer</text>
<text text-anchor="middle" x="3587.5" y="-73" font-family="Helvetica,sans-Serif" font-size="10.00">_logical_or.c</text>
</a>
</g>
</g>
<!-- Node20&#45;&gt;Node42 -->
<g id="edge32" class="edge">
<title>Node20&#45;&gt;Node42</title>
<path fill="none" stroke="#63b8ff" d="M2369.54,-135.21C2375.52,-133.92 2381.65,-132.79 2387.5,-132 2885.89,-64.64 3018.96,-154.21 3518.5,-96 3521.41,-95.66 3524.39,-95.26 3527.39,-94.82"/>
<polygon fill="#63b8ff" stroke="#63b8ff" points="2368.64,-131.82 2359.68,-137.48 2370.21,-138.65 2368.64,-131.82"/>
</g>
<!-- Node43 -->
<g id="node31" class="node">
<title>Node43</title>
<g id="a_node31"><a xlink:href="lexer__newline_8c.html" target="_top" xlink:title=" ">
<polygon fill="white" stroke="#666666" points="3785.5,-96 3665.5,-96 3665.5,-66 3785.5,-66 3785.5,-96"/>
<text text-anchor="start" x="3673.5" y="-84" font-family="Helvetica,sans-Serif" font-size="10.00">src/lexer/tokens/lexer</text>
<text text-anchor="middle" x="3725.5" y="-73" font-family="Helvetica,sans-Serif" font-size="10.00">_newline.c</text>
</a>
</g>
</g>
<!-- Node20&#45;&gt;Node43 -->
<g id="edge33" class="edge">
<title>Node20&#45;&gt;Node43</title>
<path fill="none" stroke="#63b8ff" d="M2369.54,-135.19C2375.52,-133.91 2381.65,-132.78 2387.5,-132 2946.77,-57.4 3095.95,-160.33 3656.5,-96 3659.41,-95.67 3662.39,-95.27 3665.39,-94.83"/>
<polygon fill="#63b8ff" stroke="#63b8ff" points="2368.64,-131.8 2359.68,-137.46 2370.21,-138.63 2368.64,-131.8"/>
</g>
<!-- Node44 -->
<g id="node32" class="node">
<title>Node44</title>
<g id="a_node32"><a xlink:href="lexer__parenthesis_8c.html" target="_top" xlink:title=" ">
<polygon fill="white" stroke="#666666" points="2539.5,-96 2419.5,-96 2419.5,-66 2539.5,-66 2539.5,-96"/>
<text text-anchor="start" x="2427.5" y="-84" font-family="Helvetica,sans-Serif" font-size="10.00">src/lexer/tokens/lexer</text>
<text text-anchor="middle" x="2479.5" y="-73" font-family="Helvetica,sans-Serif" font-size="10.00">_parenthesis.c</text>
</a>
</g>
</g>
<!-- Node20&#45;&gt;Node44 -->
<g id="edge34" class="edge">
<title>Node20&#45;&gt;Node44</title>
<path fill="none" stroke="#63b8ff" d="M2359.12,-133.36C2384.27,-122.63 2420.33,-107.25 2446.42,-96.12"/>
<polygon fill="#63b8ff" stroke="#63b8ff" points="2357.55,-130.23 2349.73,-137.37 2360.3,-136.66 2357.55,-130.23"/>
</g>
<!-- Node45 -->
<g id="node33" class="node">
<title>Node45</title>
<g id="a_node33"><a xlink:href="lexer__pipe_8c.html" target="_top" xlink:title=" ">
<polygon fill="white" stroke="#666666" points="2715.5,-96 2595.5,-96 2595.5,-66 2715.5,-66 2715.5,-96"/>
<text text-anchor="start" x="2603.5" y="-84" font-family="Helvetica,sans-Serif" font-size="10.00">src/lexer/tokens/lexer</text>
<text text-anchor="middle" x="2655.5" y="-73" font-family="Helvetica,sans-Serif" font-size="10.00">_pipe.c</text>
</a>
</g>
</g>
<!-- Node20&#45;&gt;Node45 -->
<g id="edge35" class="edge">
<title>Node20&#45;&gt;Node45</title>
<path fill="none" stroke="#63b8ff" d="M2373.24,-135.18C2378.04,-134.07 2382.87,-132.99 2387.5,-132 2473.26,-113.71 2495.31,-112.15 2581.5,-96 2586,-95.16 2590.65,-94.28 2595.33,-93.4"/>
<polygon fill="#63b8ff" stroke="#63b8ff" points="2372.41,-131.78 2363.47,-137.48 2374.01,-138.59 2372.41,-131.78"/>
</g>
<!-- Node46 -->
<g id="node34" class="node">
<title>Node46</title>
<g id="a_node34"><a xlink:href="lexer__redirect__append_8c.html" target="_top" xlink:title=" ">
<polygon fill="white" stroke="#666666" points="2853.5,-96 2733.5,-96 2733.5,-66 2853.5,-66 2853.5,-96"/>
<text text-anchor="start" x="2741.5" y="-84" font-family="Helvetica,sans-Serif" font-size="10.00">src/lexer/tokens/lexer</text>
<text text-anchor="middle" x="2793.5" y="-73" font-family="Helvetica,sans-Serif" font-size="10.00">_redirect_append.c</text>
</a>
</g>
</g>
<!-- Node20&#45;&gt;Node46 -->
<g id="edge36" class="edge">
<title>Node20&#45;&gt;Node46</title>
<path fill="none" stroke="#63b8ff" d="M2371.63,-135.15C2376.95,-133.98 2382.34,-132.89 2387.5,-132 2535.92,-106.27 2575.64,-119 2724.5,-96 2727.4,-95.55 2730.36,-95.07 2733.35,-94.55"/>
<polygon fill="#63b8ff" stroke="#63b8ff" points="2370.52,-131.82 2361.56,-137.47 2372.09,-138.64 2370.52,-131.82"/>
</g>
<!-- Node21&#45;&gt;Node19 -->
<g id="edge23" class="edge">
<title>Node21&#45;&gt;Node19</title>
<path fill="none" stroke="#63b8ff" d="M2878.03,-69.12C2872.83,-67.95 2867.56,-66.87 2862.5,-66 2677.03,-34.2 2451.13,-21.28 2368.11,-17.39"/>
<polygon fill="#63b8ff" stroke="#63b8ff" points="2877.33,-72.55 2887.87,-71.46 2878.95,-65.74 2877.33,-72.55"/>
</g>
<!-- Node21&#45;&gt;Node28 -->
<g id="edge22" class="edge">
<title>Node21&#45;&gt;Node28</title>
<path fill="none" stroke="#63b8ff" d="M2959.17,-69.15C2964.31,-67.98 2969.51,-66.89 2974.5,-66 3112.97,-41.23 3277.39,-26.87 3366.4,-20.32"/>
<polygon fill="#63b8ff" stroke="#63b8ff" points="2958.36,-65.74 2949.44,-71.47 2959.98,-72.55 2958.36,-65.74"/>
</g>
</g>
</svg>
