<?xml version="1.0" encoding="UTF-8" standalone="no"?>
<!DOCTYPE svg PUBLIC "-//W3C//DTD SVG 1.1//EN"
 "http://www.w3.org/Graphics/SVG/1.1/DTD/svg11.dtd">
<!-- Generated by graphviz version 2.43.0 (0)
 -->
<!-- Title: include/shell.h Pages: 1 -->
<svg width="95pt" height="137pt"
 viewBox="0.00 0.00 95.00 137.00" xmlns="http://www.w3.org/2000/svg" xmlns:xlink="http://www.w3.org/1999/xlink">
<g id="graph0" class="graph" transform="scale(1 1) rotate(0) translate(4 133)">
<title>include/shell.h</title>
<!-- Node1 -->
<g id="node1" class="node">
<title>Node1</title>
<g id="a_node1"><a xlink:title=" ">
<polygon fill="#999999" stroke="#666666" points="87,-129 0,-129 0,-110 87,-110 87,-129"/>
<text text-anchor="middle" x="43.5" y="-117" font-family="Helvetica,sans-Serif" font-size="10.00">include/shell.h</text>
</a>
</g>
</g>
<!-- Node2 -->
<g id="node2" class="node">
<title>Node2</title>
<g id="a_node2"><a xlink:href="list_8h.html" target="_top" xlink:title=" ">
<polygon fill="white" stroke="#666666" points="73,-74 14,-74 14,-55 73,-55 73,-74"/>
<text text-anchor="middle" x="43.5" y="-62" font-family="Helvetica,sans-Serif" font-size="10.00">my/list.h</text>
</a>
</g>
</g>
<!-- Node1&#45;&gt;Node2 -->
<g id="edge1" class="edge">
<title>Node1&#45;&gt;Node2</title>
<path fill="none" stroke="#63b8ff" d="M43.5,-109.75C43.5,-102.8 43.5,-92.85 43.5,-84.13"/>
<polygon fill="#63b8ff" stroke="#63b8ff" points="47,-84.09 43.5,-74.09 40,-84.09 47,-84.09"/>
</g>
<!-- Node3 -->
<g id="node3" class="node">
<title>Node3</title>
<g id="a_node3"><a xlink:title=" ">
<polygon fill="#e0e0e0" stroke="#999999" points="71.5,-19 15.5,-19 15.5,0 71.5,0 71.5,-19"/>
<text text-anchor="middle" x="43.5" y="-7" font-family="Helvetica,sans-Serif" font-size="10.00">stddef.h</text>
</a>
</g>
</g>
<!-- Node2&#45;&gt;Node3 -->
<g id="edge2" class="edge">
<title>Node2&#45;&gt;Node3</title>
<path fill="none" stroke="#63b8ff" d="M43.5,-54.75C43.5,-47.8 43.5,-37.85 43.5,-29.13"/>
<polygon fill="#63b8ff" stroke="#63b8ff" points="47,-29.09 43.5,-19.09 40,-29.09 47,-29.09"/>
</g>
</g>
</svg>
