<?xml version="1.0" encoding="UTF-8" standalone="no"?>
<!DOCTYPE svg PUBLIC "-//W3C//DTD SVG 1.1//EN"
 "http://www.w3.org/Graphics/SVG/1.1/DTD/svg11.dtd">
<!-- Generated by graphviz version 2.43.0 (0)
 -->
<!-- Title: shell_run Pages: 1 -->
<!--zoomable 972 -->
<svg id="main" version="1.1" xmlns="http://www.w3.org/2000/svg" xmlns:xlink="http://www.w3.org/1999/xlink" xml:space="preserve" onload="init(evt)">
<style type="text/css"><![CDATA[
.edge:hover path { stroke: red; }
.edge:hover polygon { stroke: red; fill: red; }
]]></style>
<script type="text/javascript"><![CDATA[
var edges = document.getElementsByTagName('g');
if (edges && edges.length) {
  for (var i=0;i<edges.length;i++) {
    if (edges[i].id.substr(0,4)=='edge') {
      edges[i].setAttribute('class','edge');
    }
  }
}
]]></script>
        <defs>
                <circle id="rim" cx="0" cy="0" r="7"/>
                <circle id="rim2" cx="0" cy="0" r="3.5"/>
                <g id="zoomPlus">
                        <use xlink:href="#rim" fill="#404040">
                                <set attributeName="fill" to="#808080" begin="zoomplus.mouseover" end="zoomplus.mouseout"/>
                        </use>
                        <path d="M-4,0h8M0,-4v8" fill="none" stroke="white" stroke-width="1.5" pointer-events="none"/>
                </g>
                <g id="zoomMin">
                        <use xlink:href="#rim" fill="#404040">
                                <set attributeName="fill" to="#808080" begin="zoomminus.mouseover" end="zoomminus.mouseout"/>
                        </use>
                        <path d="M-4,0h8" fill="none" stroke="white" stroke-width="1.5" pointer-events="none"/>
                </g>
                <g id="dirArrow">
                        <path fill="none" stroke="white" stroke-width="1.5" d="M0,-3.0v7 M-2.5,-0.5L0,-3.0L2.5,-0.5"/>
                </g>
               <g id="resetDef">
                       <use xlink:href="#rim2" fill="#404040">
                               <set attributeName="fill" to="#808080" begin="reset.mouseover" end="reset.mouseout"/>
                       </use>
               </g>
        </defs>

<script type="text/javascript">
var viewWidth = 1417;
var viewHeight = 972;
var sectionId = 'dynsection-8';
</script>
<script xlink:href="svgpan.js"/>
<svg id="graph" class="graph">
<g id="viewport">
<title>shell_run</title>
<!-- Node1 -->
<g id="node1" class="node">
<title>Node1</title>
<g id="a_node1"><a xlink:title=" ">
<polygon fill="#999999" stroke="#666666" points="61,-722 0,-722 0,-703 61,-703 61,-722"/>
<text text-anchor="middle" x="30.5" y="-710" font-family="Helvetica,sans-Serif" font-size="10.00">shell_run</text>
</a>
</g>
</g>
<!-- Node2 -->
<g id="node2" class="node">
<title>Node2</title>
<g id="a_node2"><a xlink:href="shell_8c.html#afb5215a1775326d8976fd015f7832392" target="_top" xlink:title=" ">
<polygon fill="white" stroke="#666666" points="675.5,-465 595.5,-465 595.5,-446 675.5,-446 675.5,-465"/>
<text text-anchor="middle" x="635.5" y="-453" font-family="Helvetica,sans-Serif" font-size="10.00">handle_input</text>
</a>
</g>
</g>
<!-- Node1&#45;&gt;Node2 -->
<g id="edge1" class="edge">
<title>Node1&#45;&gt;Node2</title>
<path fill="none" stroke="#63b8ff" d="M34.99,-703C43.04,-682.22 64.7,-632.15 97,-601.5 148.63,-552.52 171.68,-550.58 239,-527.5 359.43,-486.22 509.05,-467.21 585.11,-459.69"/>
<polygon fill="#63b8ff" stroke="#63b8ff" points="585.73,-463.15 595.34,-458.71 585.05,-456.18 585.73,-463.15"/>
</g>
<!-- Node141 -->
<g id="node30" class="node">
<title>Node141</title>
<g id="a_node30"><a xlink:href="shell_8c.html#a983eddd5d67b74ffafb49f66b1b5e17f" target="_top" xlink:title=" ">
<polygon fill="white" stroke="#666666" points="180.5,-816 119.5,-816 119.5,-797 180.5,-797 180.5,-816"/>
<text text-anchor="middle" x="150" y="-804" font-family="Helvetica,sans-Serif" font-size="10.00">init_shell</text>
</a>
</g>
</g>
<!-- Node1&#45;&gt;Node141 -->
<g id="edge37" class="edge">
<title>Node1&#45;&gt;Node141</title>
<path fill="none" stroke="#63b8ff" d="M43.63,-722.21C63.88,-738.4 104.74,-771.09 129.2,-790.66"/>
<polygon fill="#63b8ff" stroke="#63b8ff" points="127.11,-793.47 137.11,-796.99 131.49,-788.01 127.11,-793.47"/>
</g>
<!-- Node151 -->
<g id="node39" class="node">
<title>Node151</title>
<g id="a_node39"><a xlink:href="read__input_8c.html#a68810824934adf0e714171083b86a740" target="_top" xlink:title=" ">
<polygon fill="white" stroke="#666666" points="184,-629 116,-629 116,-610 184,-610 184,-629"/>
<text text-anchor="middle" x="150" y="-617" font-family="Helvetica,sans-Serif" font-size="10.00">read_input</text>
</a>
</g>
</g>
<!-- Node1&#45;&gt;Node151 -->
<g id="edge50" class="edge">
<title>Node1&#45;&gt;Node151</title>
<path fill="none" stroke="#63b8ff" d="M43.63,-702.9C63.77,-686.96 104.32,-654.87 128.82,-635.47"/>
<polygon fill="#63b8ff" stroke="#63b8ff" points="131.09,-638.14 136.76,-629.19 126.74,-632.65 131.09,-638.14"/>
</g>
<!-- Node159 -->
<g id="node48" class="node">
<title>Node159</title>
<g id="a_node48"><a xlink:href="shell_8c.html#a352d0fde24e5d22d7e92d3fcb05dab19" target="_top" xlink:title=" ">
<polygon fill="white" stroke="#666666" points="508.5,-923 426.5,-923 426.5,-904 508.5,-904 508.5,-923"/>
<text text-anchor="middle" x="467.5" y="-911" font-family="Helvetica,sans-Serif" font-size="10.00">shell_destroy</text>
</a>
</g>
</g>
<!-- Node1&#45;&gt;Node159 -->
<g id="edge63" class="edge">
<title>Node1&#45;&gt;Node159</title>
<path fill="none" stroke="#63b8ff" d="M34.61,-722.09C42.02,-743.54 62.71,-795.82 97,-825.5 188.49,-904.71 338.68,-915.58 416.4,-915.38"/>
<polygon fill="#63b8ff" stroke="#63b8ff" points="416.45,-918.88 426.42,-915.29 416.39,-911.88 416.45,-918.88"/>
</g>
<!-- Node160 -->
<g id="node49" class="node">
<title>Node160</title>
<g id="a_node49"><a xlink:href="should__exit__if__eof_8c.html#abdbeabfd4b1e040ffa3f495bf7575d39" target="_top" xlink:title=" ">
<polygon fill="white" stroke="#666666" points="203,-722 97,-722 97,-703 203,-703 203,-722"/>
<text text-anchor="middle" x="150" y="-710" font-family="Helvetica,sans-Serif" font-size="10.00">should_exit_if_eof</text>
</a>
</g>
</g>
<!-- Node1&#45;&gt;Node160 -->
<g id="edge66" class="edge">
<title>Node1&#45;&gt;Node160</title>
<path fill="none" stroke="#63b8ff" d="M61.15,-712.5C69.05,-712.5 77.9,-712.5 86.85,-712.5"/>
<polygon fill="#63b8ff" stroke="#63b8ff" points="86.95,-716 96.95,-712.5 86.95,-709 86.95,-716"/>
</g>
<!-- Node3 -->
<g id="node3" class="node">
<title>Node3</title>
<g id="a_node3"><a xlink:href="ast__destroy_8c.html#a04c67d7ab492f6e1e7bc44dc70faa057" target="_top" xlink:title=" ">
<polygon fill="white" stroke="#666666" points="821.5,-539 747.5,-539 747.5,-520 821.5,-520 821.5,-539"/>
<text text-anchor="middle" x="784.5" y="-527" font-family="Helvetica,sans-Serif" font-size="10.00">ast_destroy</text>
</a>
</g>
</g>
<!-- Node2&#45;&gt;Node3 -->
<g id="edge2" class="edge">
<title>Node2&#45;&gt;Node3</title>
<path fill="none" stroke="#63b8ff" d="M649.89,-465.09C667.24,-477.19 698.73,-498.03 728,-511.5 731.88,-513.29 735.99,-514.97 740.15,-516.54"/>
<polygon fill="#63b8ff" stroke="#63b8ff" points="739.25,-519.94 749.85,-519.99 741.6,-513.35 739.25,-519.94"/>
</g>
<!-- Node5 -->
<g id="node5" class="node">
<title>Node5</title>
<g id="a_node5"><a xlink:href="shell_8c.html#a74405478dadd73c0a4d1e5f3e8d2e3ef" target="_top" xlink:title=" ">
<polygon fill="white" stroke="#666666" points="841,-98.5 728,-98.5 728,-68.5 841,-68.5 841,-98.5"/>
<text text-anchor="start" x="736" y="-86.5" font-family="Helvetica,sans-Serif" font-size="10.00">destroy_parser_and</text>
<text text-anchor="middle" x="784.5" y="-75.5" font-family="Helvetica,sans-Serif" font-size="10.00">_lexer</text>
</a>
</g>
</g>
<!-- Node2&#45;&gt;Node5 -->
<g id="edge5" class="edge">
<title>Node2&#45;&gt;Node5</title>
<path fill="none" stroke="#63b8ff" d="M640,-445.71C651.85,-412.69 691.76,-302.39 728,-212.5 742.73,-175.97 760.97,-134.17 772.43,-108.3"/>
<polygon fill="#63b8ff" stroke="#63b8ff" points="775.74,-109.45 776.6,-98.89 769.35,-106.61 775.74,-109.45"/>
</g>
<!-- Node9 -->
<g id="node9" class="node">
<title>Node9</title>
<g id="a_node9"><a xlink:href="execute__ast_8c.html#ad26a20a665ab7fdeb714ed53c1afd104" target="_top" xlink:title=" ">
<polygon fill="white" stroke="#666666" points="822,-241 747,-241 747,-222 822,-222 822,-241"/>
<text text-anchor="middle" x="784.5" y="-229" font-family="Helvetica,sans-Serif" font-size="10.00">execute_ast</text>
</a>
</g>
</g>
<!-- Node2&#45;&gt;Node9 -->
<g id="edge9" class="edge">
<title>Node2&#45;&gt;Node9</title>
<path fill="none" stroke="#63b8ff" d="M642.82,-445.88C665.34,-411.55 741.95,-294.81 771.62,-249.6"/>
<polygon fill="#63b8ff" stroke="#63b8ff" points="774.65,-251.37 777.21,-241.09 768.79,-247.53 774.65,-251.37"/>
</g>
<!-- Node43 -->
<g id="node23" class="node">
<title>Node43</title>
<g id="a_node23"><a xlink:href="shell_8c.html#a6e35892cfa82c5f227b10f37abc529e9" target="_top" xlink:title=" ">
<polygon fill="white" stroke="#666666" points="830,-465 739,-465 739,-446 830,-446 830,-465"/>
<text text-anchor="middle" x="784.5" y="-453" font-family="Helvetica,sans-Serif" font-size="10.00">handle_parsing</text>
</a>
</g>
</g>
<!-- Node2&#45;&gt;Node43 -->
<g id="edge28" class="edge">
<title>Node2&#45;&gt;Node43</title>
<path fill="none" stroke="#63b8ff" d="M675.51,-455.5C691.79,-455.5 710.99,-455.5 728.66,-455.5"/>
<polygon fill="#63b8ff" stroke="#63b8ff" points="728.85,-459 738.85,-455.5 728.85,-452 728.85,-459"/>
</g>
<!-- Node138 -->
<g id="node26" class="node">
<title>Node138</title>
<g id="a_node26"><a xlink:href="shell_8c.html#a1ce512725ee0371f8bf608a3ece0c152" target="_top" xlink:title=" ">
<polygon fill="white" stroke="#666666" points="1150,-465 1030,-465 1030,-446 1150,-446 1150,-465"/>
<text text-anchor="middle" x="1090" y="-453" font-family="Helvetica,sans-Serif" font-size="10.00">show_error_message</text>
</a>
</g>
</g>
<!-- Node2&#45;&gt;Node138 -->
<g id="edge36" class="edge">
<title>Node2&#45;&gt;Node138</title>
<path fill="none" stroke="#63b8ff" d="M673.63,-445.99C690.15,-442.23 709.92,-438.36 728,-436.5 845.6,-424.42 876.35,-424.85 994,-436.5 1009.23,-438.01 1025.64,-440.84 1040.46,-443.88"/>
<polygon fill="#63b8ff" stroke="#63b8ff" points="1039.93,-447.34 1050.43,-445.99 1041.38,-440.49 1039.93,-447.34"/>
</g>
<!-- Node139 -->
<g id="node27" class="node">
<title>Node139</title>
<g id="a_node27"><a xlink:href="lexer__init_8c.html#aee55447f2c8b083ed2614fa4f439f9cc" target="_top" xlink:title=" ">
<polygon fill="white" stroke="#666666" points="815.5,-502 753.5,-502 753.5,-483 815.5,-483 815.5,-502"/>
<text text-anchor="middle" x="784.5" y="-490" font-family="Helvetica,sans-Serif" font-size="10.00">lexer_init</text>
</a>
</g>
</g>
<!-- Node2&#45;&gt;Node139 -->
<g id="edge32" class="edge">
<title>Node2&#45;&gt;Node139</title>
<path fill="none" stroke="#63b8ff" d="M674.36,-465.03C695.51,-470.35 721.85,-476.98 743.36,-482.4"/>
<polygon fill="#63b8ff" stroke="#63b8ff" points="742.62,-485.82 753.18,-484.87 744.33,-479.03 742.62,-485.82"/>
</g>
<!-- Node140 -->
<g id="node28" class="node">
<title>Node140</title>
<g id="a_node28"><a xlink:href="parser__init_8c.html#a7a5dc445fa057a393d0b94590acea2f1" target="_top" xlink:title=" ">
<polygon fill="white" stroke="#666666" points="818.5,-35 750.5,-35 750.5,-16 818.5,-16 818.5,-35"/>
<text text-anchor="middle" x="784.5" y="-23" font-family="Helvetica,sans-Serif" font-size="10.00">parser_init</text>
</a>
</g>
</g>
<!-- Node2&#45;&gt;Node140 -->
<g id="edge33" class="edge">
<title>Node2&#45;&gt;Node140</title>
<path fill="none" stroke="#63b8ff" d="M636.14,-445.79C634.85,-398.46 634.81,-188.91 728,-59.5 733.72,-51.55 741.93,-45.09 750.28,-40.02"/>
<polygon fill="#63b8ff" stroke="#63b8ff" points="752.23,-42.95 759.3,-35.06 748.85,-36.81 752.23,-42.95"/>
</g>
<!-- Node3&#45;&gt;Node3 -->
<g id="edge3" class="edge">
<title>Node3&#45;&gt;Node3</title>
<path fill="none" stroke="#63b8ff" d="M761.69,-539.08C750.59,-547.73 758.2,-557 784.5,-557 801.35,-557 810.53,-553.2 812.03,-548.19"/>
<polygon fill="#63b8ff" stroke="#63b8ff" points="815.02,-546.35 807.31,-539.08 808.8,-549.57 815.02,-546.35"/>
</g>
<!-- Node4 -->
<g id="node4" class="node">
<title>Node4</title>
<g id="a_node4"><a xlink:href="misc_8h.html#a1180cae2875b1fdcd58c9f9175a82c12" target="_top" xlink:title=" ">
<polygon fill="white" stroke="#666666" points="994,-539 877,-539 877,-520 994,-520 994,-539"/>
<text text-anchor="middle" x="935.5" y="-527" font-family="Helvetica,sans-Serif" font-size="10.00">my_free_word_array</text>
</a>
</g>
</g>
<!-- Node3&#45;&gt;Node4 -->
<g id="edge4" class="edge">
<title>Node3&#45;&gt;Node4</title>
<path fill="none" stroke="#63b8ff" d="M821.57,-529.5C835.2,-529.5 851.21,-529.5 866.8,-529.5"/>
<polygon fill="#63b8ff" stroke="#63b8ff" points="866.97,-533 876.97,-529.5 866.97,-526 866.97,-533"/>
</g>
<!-- Node6 -->
<g id="node6" class="node">
<title>Node6</title>
<g id="a_node6"><a xlink:href="lexer__init_8c.html#a592247dc9c102c884630b41389a1b38b" target="_top" xlink:title=" ">
<polygon fill="white" stroke="#666666" points="977,-56 894,-56 894,-37 977,-37 977,-56"/>
<text text-anchor="middle" x="935.5" y="-44" font-family="Helvetica,sans-Serif" font-size="10.00">lexer_destroy</text>
</a>
</g>
</g>
<!-- Node5&#45;&gt;Node6 -->
<g id="edge6" class="edge">
<title>Node5&#45;&gt;Node6</title>
<path fill="none" stroke="#63b8ff" d="M841.41,-69.62C856.02,-65.99 871.66,-62.1 885.87,-58.58"/>
<polygon fill="#63b8ff" stroke="#63b8ff" points="887.06,-61.89 895.93,-56.08 885.38,-55.09 887.06,-61.89"/>
</g>
<!-- Node7 -->
<g id="node7" class="node">
<title>Node7</title>
<g id="a_node7"><a xlink:href="parser__destroy_8c.html#ae2656460a6fc6b6cd65624312fe0c943" target="_top" xlink:title=" ">
<polygon fill="white" stroke="#666666" points="980,-93 891,-93 891,-74 980,-74 980,-93"/>
<text text-anchor="middle" x="935.5" y="-81" font-family="Helvetica,sans-Serif" font-size="10.00">parser_destroy</text>
</a>
</g>
</g>
<!-- Node5&#45;&gt;Node7 -->
<g id="edge7" class="edge">
<title>Node5&#45;&gt;Node7</title>
<path fill="none" stroke="#63b8ff" d="M841.41,-83.5C854.31,-83.5 868,-83.5 880.81,-83.5"/>
<polygon fill="#63b8ff" stroke="#63b8ff" points="880.85,-87 890.85,-83.5 880.85,-80 880.85,-87"/>
</g>
<!-- Node8 -->
<g id="node8" class="node">
<title>Node8</title>
<g id="a_node8"><a xlink:href="destroy__token_8c.html#ad1a471ee7b1ccb035d769be1152a370c" target="_top" xlink:title=" ">
<polygon fill="white" stroke="#666666" points="1133,-56 1047,-56 1047,-37 1133,-37 1133,-56"/>
<text text-anchor="middle" x="1090" y="-44" font-family="Helvetica,sans-Serif" font-size="10.00">token_destroy</text>
</a>
</g>
</g>
<!-- Node7&#45;&gt;Node8 -->
<g id="edge8" class="edge">
<title>Node7&#45;&gt;Node8</title>
<path fill="none" stroke="#63b8ff" d="M975.77,-73.97C995.26,-69.24 1019.01,-63.48 1039.71,-58.46"/>
<polygon fill="#63b8ff" stroke="#63b8ff" points="1040.7,-61.82 1049.6,-56.06 1039.05,-55.02 1040.7,-61.82"/>
</g>
<!-- Node10 -->
<g id="node10" class="node">
<title>Node10</title>
<g id="a_node10"><a xlink:href="execute__cmd_8c.html#a94ea9cc5a046ce96e36764bf0e4fa2c0" target="_top" xlink:title=" ">
<polygon fill="white" stroke="#666666" points="976,-278 895,-278 895,-259 976,-259 976,-278"/>
<text text-anchor="middle" x="935.5" y="-266" font-family="Helvetica,sans-Serif" font-size="10.00">execute_cmd</text>
</a>
</g>
</g>
<!-- Node9&#45;&gt;Node10 -->
<g id="edge10" class="edge">
<title>Node9&#45;&gt;Node10</title>
<path fill="none" stroke="#63b8ff" d="M822.33,-240.65C841.59,-245.43 865.4,-251.34 886.12,-256.49"/>
<polygon fill="#63b8ff" stroke="#63b8ff" points="885.46,-259.93 896.01,-258.94 887.15,-253.14 885.46,-259.93"/>
</g>
<!-- Node25 -->
<g id="node16" class="node">
<title>Node25</title>
<g id="a_node16"><a xlink:href="execute__logical__and_8c.html#a4f940752faf9f9a258c49810b21efe47" target="_top" xlink:title=" ">
<polygon fill="white" stroke="#666666" points="993.5,-167 877.5,-167 877.5,-148 993.5,-148 993.5,-167"/>
<text text-anchor="middle" x="935.5" y="-155" font-family="Helvetica,sans-Serif" font-size="10.00">execute_logical_and</text>
</a>
</g>
</g>
<!-- Node9&#45;&gt;Node25 -->
<g id="edge16" class="edge">
<title>Node9&#45;&gt;Node25</title>
<path fill="none" stroke="#63b8ff" d="M792.29,-221.69C805.72,-208.24 837.06,-186.19 868.12,-170.74"/>
<polygon fill="#63b8ff" stroke="#63b8ff" points="869.76,-173.83 877.29,-166.37 866.75,-167.51 869.76,-173.83"/>
</g>
<!-- Node26 -->
<g id="node17" class="node">
<title>Node26</title>
<g id="a_node17"><a xlink:href="execute__logical__or_8c.html#a7e732d7c30b07010fa55850051007dcc" target="_top" xlink:title=" ">
<polygon fill="white" stroke="#666666" points="989,-130 882,-130 882,-111 989,-111 989,-130"/>
<text text-anchor="middle" x="935.5" y="-118" font-family="Helvetica,sans-Serif" font-size="10.00">execute_logical_or</text>
</a>
</g>
</g>
<!-- Node9&#45;&gt;Node26 -->
<g id="edge18" class="edge">
<title>Node9&#45;&gt;Node26</title>
<path fill="none" stroke="#63b8ff" d="M789.37,-221.94C800.1,-202.34 831.93,-160.21 873.3,-132.27"/>
<polygon fill="#63b8ff" stroke="#63b8ff" points="875.45,-135.04 881.98,-126.7 871.67,-129.15 875.45,-135.04"/>
</g>
<!-- Node27 -->
<g id="node18" class="node">
<title>Node27</title>
<g id="a_node18"><a xlink:href="execute__pipe_8c.html#a5f3546dc2c7cf06c982afba41e722164" target="_top" xlink:title=" ">
<polygon fill="#fff0f0" stroke="red" points="976,-389 895,-389 895,-370 976,-370 976,-389"/>
<text text-anchor="middle" x="935.5" y="-377" font-family="Helvetica,sans-Serif" font-size="10.00">execute_pipe</text>
</a>
</g>
</g>
<!-- Node9&#45;&gt;Node27 -->
<g id="edge20" class="edge">
<title>Node9&#45;&gt;Node27</title>
<path fill="none" stroke="#63b8ff" d="M789.72,-241.18C800.6,-265.06 831.95,-327.21 877,-360.5 879.66,-362.47 882.54,-364.24 885.54,-365.83"/>
<polygon fill="#63b8ff" stroke="#63b8ff" points="884.27,-369.1 894.82,-370.1 887.19,-362.74 884.27,-369.1"/>
</g>
<!-- Node32 -->
<g id="node19" class="node">
<title>Node32</title>
<g id="a_node19"><a xlink:href="execute__redirect_8c.html#a1004307aba80117ddd99f009e52fb155" target="_top" xlink:title=" ">
<polygon fill="#fff0f0" stroke="red" points="984.5,-352 886.5,-352 886.5,-333 984.5,-333 984.5,-352"/>
<text text-anchor="middle" x="935.5" y="-340" font-family="Helvetica,sans-Serif" font-size="10.00">execute_redirect</text>
</a>
</g>
</g>
<!-- Node9&#45;&gt;Node32 -->
<g id="edge21" class="edge">
<title>Node9&#45;&gt;Node32</title>
<path fill="none" stroke="#63b8ff" d="M792.46,-241.03C806.45,-259.54 839.83,-300.52 877,-323.5 880.33,-325.56 883.9,-327.42 887.58,-329.09"/>
<polygon fill="#63b8ff" stroke="#63b8ff" points="886.27,-332.34 896.85,-332.89 888.93,-325.86 886.27,-332.34"/>
</g>
<!-- Node40 -->
<g id="node20" class="node">
<title>Node40</title>
<g id="a_node20"><a xlink:href="execute__repeat_8c.html#a00d48683c54b50130b4a402e6e97fa97" target="_top" xlink:title=" ">
<polygon fill="white" stroke="#666666" points="981.5,-315 889.5,-315 889.5,-296 981.5,-296 981.5,-315"/>
<text text-anchor="middle" x="935.5" y="-303" font-family="Helvetica,sans-Serif" font-size="10.00">execute_repeat</text>
</a>
</g>
</g>
<!-- Node9&#45;&gt;Node40 -->
<g id="edge22" class="edge">
<title>Node9&#45;&gt;Node40</title>
<path fill="none" stroke="#63b8ff" d="M810.69,-241.17C828.62,-251.46 853.58,-266.76 877,-277.5 888.85,-282.94 902.72,-287.57 913.86,-291.92"/>
<polygon fill="#63b8ff" stroke="#63b8ff" points="912.62,-295.19 923.2,-295.85 915.34,-288.74 912.62,-295.19"/>
</g>
<!-- Node41 -->
<g id="node21" class="node">
<title>Node41</title>
<g id="a_node21"><a xlink:href="execute__sequence_8c.html#aad2caa5bf50b0752dd8272da477ec231" target="_top" xlink:title=" ">
<polygon fill="white" stroke="#666666" points="989,-241 882,-241 882,-222 989,-222 989,-241"/>
<text text-anchor="middle" x="935.5" y="-229" font-family="Helvetica,sans-Serif" font-size="10.00">execute_sequence</text>
</a>
</g>
</g>
<!-- Node9&#45;&gt;Node41 -->
<g id="edge24" class="edge">
<title>Node9&#45;&gt;Node41</title>
<path fill="none" stroke="#63b8ff" d="M822.33,-225.58C837.18,-224.86 854.73,-224.61 871.48,-224.82"/>
<polygon fill="#63b8ff" stroke="#63b8ff" points="871.72,-228.33 881.78,-225.01 871.85,-221.33 871.72,-228.33"/>
</g>
<!-- Node42 -->
<g id="node22" class="node">
<title>Node42</title>
<g id="a_node22"><a xlink:href="execute__subshell_8c.html#a40a27866de012b013a337f794a858d70" target="_top" xlink:title=" ">
<polygon fill="#fff0f0" stroke="red" points="986,-204 885,-204 885,-185 986,-185 986,-204"/>
<text text-anchor="middle" x="935.5" y="-192" font-family="Helvetica,sans-Serif" font-size="10.00">execute_subshell</text>
</a>
</g>
</g>
<!-- Node9&#45;&gt;Node42 -->
<g id="edge26" class="edge">
<title>Node9&#45;&gt;Node42</title>
<path fill="none" stroke="#63b8ff" d="M804.98,-221.93C822.81,-215.82 850.13,-208.41 875.1,-202.63"/>
<polygon fill="#63b8ff" stroke="#63b8ff" points="875.9,-206.03 884.89,-200.42 874.36,-199.2 875.9,-206.03"/>
</g>
<!-- Node11 -->
<g id="node11" class="node">
<title>Node11</title>
<g id="a_node11"><a xlink:href="execute__cmd_8c.html#a0cfd2364134e68efdd39533e00b4b0d9" target="_top" xlink:title=" ">
<polygon fill="#fff0f0" stroke="red" points="1149.5,-334 1030.5,-334 1030.5,-315 1149.5,-315 1149.5,-334"/>
<text text-anchor="middle" x="1090" y="-322" font-family="Helvetica,sans-Serif" font-size="10.00">execute_local_binary</text>
</a>
</g>
</g>
<!-- Node10&#45;&gt;Node11 -->
<g id="edge11" class="edge">
<title>Node10&#45;&gt;Node11</title>
<path fill="none" stroke="#63b8ff" d="M970.62,-278.05C978.4,-280.54 986.56,-283.4 994,-286.5 1010.7,-293.45 1013.33,-298.48 1030,-305.5 1035.14,-307.67 1040.63,-309.74 1046.1,-311.66"/>
<polygon fill="#63b8ff" stroke="#63b8ff" points="1045.27,-315.07 1055.86,-314.95 1047.5,-308.44 1045.27,-315.07"/>
</g>
<!-- Node19 -->
<g id="node12" class="node">
<title>Node19</title>
<g id="a_node12"><a xlink:href="execute__cmd_8c.html#a460126af28ab29df4340554fae9fc57a" target="_top" xlink:title=" ">
<polygon fill="#fff0f0" stroke="red" points="1149,-297 1031,-297 1031,-278 1149,-278 1149,-297"/>
<text text-anchor="middle" x="1090" y="-285" font-family="Helvetica,sans-Serif" font-size="10.00">execute_path_binary</text>
</a>
</g>
</g>
<!-- Node10&#45;&gt;Node19 -->
<g id="edge12" class="edge">
<title>Node10&#45;&gt;Node19</title>
<path fill="none" stroke="#63b8ff" d="M976.17,-273.44C989.85,-275.15 1005.59,-277.11 1020.89,-279.01"/>
<polygon fill="#63b8ff" stroke="#63b8ff" points="1020.5,-282.49 1030.86,-280.26 1021.37,-275.55 1020.5,-282.49"/>
</g>
<!-- Node24 -->
<g id="node15" class="node">
<title>Node24</title>
<g id="a_node15"><a xlink:href="strings_8h.html#a36f055c4e56c8a784629908d0c5b91e5" target="_top" xlink:title=" ">
<polygon fill="white" stroke="#666666" points="1142,-260 1038,-260 1038,-241 1142,-241 1142,-260"/>
<text text-anchor="middle" x="1090" y="-248" font-family="Helvetica,sans-Serif" font-size="10.00">my_is_char_in_str</text>
</a>
</g>
</g>
<!-- Node10&#45;&gt;Node24 -->
<g id="edge15" class="edge">
<title>Node10&#45;&gt;Node24</title>
<path fill="none" stroke="#63b8ff" d="M976.17,-263.82C991.88,-261.96 1010.31,-259.79 1027.67,-257.74"/>
<polygon fill="#63b8ff" stroke="#63b8ff" points="1028.22,-261.2 1037.74,-256.55 1027.4,-254.25 1028.22,-261.2"/>
</g>
<!-- Node20 -->
<g id="node13" class="node">
<title>Node20</title>
<g id="a_node13"><a xlink:href="get__variable__value_8c.html#a2edd9900f19af236aa05385a789be3d6" target="_top" xlink:title=" ">
<polygon fill="white" stroke="#666666" points="1296,-702 1186,-702 1186,-683 1296,-683 1296,-702"/>
<text text-anchor="middle" x="1241" y="-690" font-family="Helvetica,sans-Serif" font-size="10.00">get_variable_value</text>
</a>
</g>
</g>
<!-- Node19&#45;&gt;Node20 -->
<g id="edge13" class="edge">
<title>Node19&#45;&gt;Node20</title>
<path fill="none" stroke="#63b8ff" d="M1138.75,-297C1142.93,-299.27 1146.78,-302.06 1150,-305.5 1201.2,-360.28 1230.34,-601.11 1237.97,-672.49"/>
<polygon fill="#63b8ff" stroke="#63b8ff" points="1234.52,-673.19 1239.04,-682.78 1241.49,-672.47 1234.52,-673.19"/>
</g>
<!-- Node21 -->
<g id="node14" class="node">
<title>Node21</title>
<g id="a_node14"><a xlink:href="get__variable_8c.html#a569170390f0edf013bf89c26ef55ea8c" target="_top" xlink:title=" ">
<polygon fill="white" stroke="#666666" points="1409,-759 1332,-759 1332,-740 1409,-740 1409,-759"/>
<text text-anchor="middle" x="1370.5" y="-747" font-family="Helvetica,sans-Serif" font-size="10.00">get_variable</text>
</a>
</g>
</g>
<!-- Node20&#45;&gt;Node21 -->
<g id="edge14" class="edge">
<title>Node20&#45;&gt;Node21</title>
<path fill="none" stroke="#63b8ff" d="M1263.34,-702.04C1284.03,-711.29 1315.61,-725.41 1338.96,-735.85"/>
<polygon fill="#63b8ff" stroke="#63b8ff" points="1337.53,-739.04 1348.09,-739.93 1340.39,-732.65 1337.53,-739.04"/>
</g>
<!-- Node25&#45;&gt;Node9 -->
<g id="edge17" class="edge">
<title>Node25&#45;&gt;Node9</title>
<path fill="none" stroke="#63b8ff" d="M922.74,-167.08C910.89,-172.28 892.24,-177.58 877,-184.5 856.83,-193.66 835.64,-206.4 818.74,-216.51"/>
<polygon fill="#63b8ff" stroke="#63b8ff" points="816.63,-213.7 809.83,-221.82 820.21,-219.71 816.63,-213.7"/>
</g>
<!-- Node26&#45;&gt;Node9 -->
<g id="edge19" class="edge">
<title>Node26&#45;&gt;Node9</title>
<path fill="none" stroke="#63b8ff" d="M920.46,-130.01C908.29,-134.42 890.57,-139.21 877,-147.5 847.54,-165.5 820.72,-195.04 803.84,-214.09"/>
<polygon fill="#63b8ff" stroke="#63b8ff" points="801.03,-211.98 797.03,-221.79 806.27,-216.62 801.03,-211.98"/>
</g>
<!-- Node40&#45;&gt;Node9 -->
<g id="edge23" class="edge">
<title>Node40&#45;&gt;Node9</title>
<path fill="none" stroke="#63b8ff" d="M889.24,-300.57C885.06,-299.01 880.92,-297.3 877,-295.5 848.34,-282.35 817.35,-262.38 799.8,-247.83"/>
<polygon fill="#63b8ff" stroke="#63b8ff" points="802.12,-245.21 792.33,-241.17 797.46,-250.44 802.12,-245.21"/>
</g>
<!-- Node41&#45;&gt;Node9 -->
<g id="edge25" class="edge">
<title>Node41&#45;&gt;Node9</title>
<path fill="none" stroke="#63b8ff" d="M881.78,-237.99C865.66,-238.39 848.05,-238.33 832.34,-237.82"/>
<polygon fill="#63b8ff" stroke="#63b8ff" points="832.46,-234.32 822.33,-237.42 832.18,-241.31 832.46,-234.32"/>
</g>
<!-- Node42&#45;&gt;Node9 -->
<g id="edge27" class="edge">
<title>Node42&#45;&gt;Node9</title>
<path fill="none" stroke="#63b8ff" d="M914.95,-204.09C894.05,-211.25 860.15,-220.19 832.29,-226.2"/>
<polygon fill="#63b8ff" stroke="#63b8ff" points="831.41,-222.81 822.33,-228.27 832.83,-229.66 831.41,-222.81"/>
</g>
<!-- Node44 -->
<g id="node24" class="node">
<title>Node44</title>
<g id="a_node24"><a xlink:href="empty__stdin_8c.html#a4c89df10296f2cc245e3a32065e04e7b" target="_top" xlink:title=" ">
<polygon fill="white" stroke="#666666" points="974,-465 897,-465 897,-446 974,-446 974,-465"/>
<text text-anchor="middle" x="935.5" y="-453" font-family="Helvetica,sans-Serif" font-size="10.00">empty_stdin</text>
</a>
</g>
</g>
<!-- Node43&#45;&gt;Node44 -->
<g id="edge29" class="edge">
<title>Node43&#45;&gt;Node44</title>
<path fill="none" stroke="#63b8ff" d="M830.2,-455.5C848.06,-455.5 868.65,-455.5 886.79,-455.5"/>
<polygon fill="#63b8ff" stroke="#63b8ff" points="886.86,-459 896.86,-455.5 886.86,-452 886.86,-459"/>
</g>
<!-- Node45 -->
<g id="node25" class="node">
<title>Node45</title>
<g id="a_node25"><a xlink:href="shell_8c.html#a2c9bd51744387dc73763281019d78622" target="_top" xlink:title=" ">
<polygon fill="#fff0f0" stroke="red" points="967.5,-502 903.5,-502 903.5,-483 967.5,-483 967.5,-502"/>
<text text-anchor="middle" x="935.5" y="-490" font-family="Helvetica,sans-Serif" font-size="10.00">parse_ast</text>
</a>
</g>
</g>
<!-- Node43&#45;&gt;Node45 -->
<g id="edge30" class="edge">
<title>Node43&#45;&gt;Node45</title>
<path fill="none" stroke="#63b8ff" d="M823.87,-465.03C845.16,-470.31 871.64,-476.89 893.36,-482.28"/>
<polygon fill="#63b8ff" stroke="#63b8ff" points="892.73,-485.73 903.28,-484.75 894.42,-478.94 892.73,-485.73"/>
</g>
<!-- Node45&#45;&gt;Node138 -->
<g id="edge31" class="edge">
<title>Node45&#45;&gt;Node138</title>
<path fill="none" stroke="#63b8ff" d="M967.73,-484.92C988.47,-479.89 1016.13,-473.18 1039.8,-467.44"/>
<polygon fill="#63b8ff" stroke="#63b8ff" points="1040.77,-470.8 1049.67,-465.04 1039.12,-464 1040.77,-470.8"/>
</g>
<!-- Node70 -->
<g id="node29" class="node">
<title>Node70</title>
<g id="a_node29"><a xlink:href="parser__next_8c.html#ad25986b565a767c6ad7d0b0b8846fca6" target="_top" xlink:title=" ">
<polygon fill="#fff0f0" stroke="red" points="972.5,-19 898.5,-19 898.5,0 972.5,0 972.5,-19"/>
<text text-anchor="middle" x="935.5" y="-7" font-family="Helvetica,sans-Serif" font-size="10.00">parser_next</text>
</a>
</g>
</g>
<!-- Node140&#45;&gt;Node70 -->
<g id="edge34" class="edge">
<title>Node140&#45;&gt;Node70</title>
<path fill="none" stroke="#63b8ff" d="M818.57,-21.95C839.09,-19.75 865.76,-16.88 888.34,-14.46"/>
<polygon fill="#63b8ff" stroke="#63b8ff" points="888.83,-17.92 898.4,-13.38 888.08,-10.96 888.83,-17.92"/>
</g>
<!-- Node70&#45;&gt;Node8 -->
<g id="edge35" class="edge">
<title>Node70&#45;&gt;Node8</title>
<path fill="none" stroke="#63b8ff" d="M972.64,-18.27C992.73,-23.14 1018.01,-29.28 1039.87,-34.58"/>
<polygon fill="#63b8ff" stroke="#63b8ff" points="1039.1,-37.99 1049.64,-36.95 1040.75,-31.19 1039.1,-37.99"/>
</g>
<!-- Node142 -->
<g id="node31" class="node">
<title>Node142</title>
<g id="a_node31"><a xlink:href="env__to__list_8c.html#a11c46ed192ca0ad8a479ed9a317f135e" target="_top" xlink:title=" ">
<polygon fill="white" stroke="#666666" points="502.5,-886 432.5,-886 432.5,-867 502.5,-867 502.5,-886"/>
<text text-anchor="middle" x="467.5" y="-874" font-family="Helvetica,sans-Serif" font-size="10.00">env_to_list</text>
</a>
</g>
</g>
<!-- Node141&#45;&gt;Node142 -->
<g id="edge38" class="edge">
<title>Node141&#45;&gt;Node142</title>
<path fill="none" stroke="#63b8ff" d="M180.53,-810.61C220.67,-816.54 294.5,-828.66 356,-845.5 372.41,-849.99 375.71,-853.61 392,-858.5 401.75,-861.43 412.32,-864.21 422.36,-866.68"/>
<polygon fill="#63b8ff" stroke="#63b8ff" points="421.63,-870.1 432.17,-869.03 423.26,-863.3 421.63,-870.1"/>
</g>
<!-- Node146 -->
<g id="node36" class="node">
<title>Node146</title>
<g id="a_node36"><a xlink:href="shell_8c.html#a2f3ef7bd282a23f9a3c63eadf5b60657" target="_top" xlink:title=" ">
<polygon fill="white" stroke="#666666" points="338.5,-873 256.5,-873 256.5,-854 338.5,-854 338.5,-873"/>
<text text-anchor="middle" x="297.5" y="-861" font-family="Helvetica,sans-Serif" font-size="10.00">handle_sigint</text>
</a>
</g>
</g>
<!-- Node141&#45;&gt;Node146 -->
<g id="edge43" class="edge">
<title>Node141&#45;&gt;Node146</title>
<path fill="none" stroke="#63b8ff" d="M175.35,-816.04C199.27,-825.41 235.97,-839.79 262.71,-850.26"/>
<polygon fill="#63b8ff" stroke="#63b8ff" points="261.48,-853.54 272.07,-853.93 264.03,-847.02 261.48,-853.54"/>
</g>
<!-- Node147 -->
<g id="node37" class="node">
<title>Node147</title>
<g id="a_node37"><a xlink:href="shell_8c.html#ad4e9c36df0b2cc333b20e6b743722899" target="_top" xlink:title=" ">
<polygon fill="white" stroke="#666666" points="339,-797 256,-797 256,-778 339,-778 339,-797"/>
<text text-anchor="middle" x="297.5" y="-785" font-family="Helvetica,sans-Serif" font-size="10.00">init_variables</text>
</a>
</g>
</g>
<!-- Node141&#45;&gt;Node147 -->
<g id="edge44" class="edge">
<title>Node141&#45;&gt;Node147</title>
<path fill="none" stroke="#63b8ff" d="M180.8,-802.61C199.53,-800.16 224.18,-796.94 245.92,-794.11"/>
<polygon fill="#63b8ff" stroke="#63b8ff" points="246.52,-797.56 255.99,-792.79 245.62,-790.61 246.52,-797.56"/>
</g>
<!-- Node143 -->
<g id="node32" class="node">
<title>Node143</title>
<g id="a_node32"><a xlink:href="free__variable_8c.html#a6cfba30b5c98d6fa7663b6bc29fe01cc" target="_top" xlink:title=" ">
<polygon fill="white" stroke="#666666" points="676,-890 595,-890 595,-871 676,-871 676,-890"/>
<text text-anchor="middle" x="635.5" y="-878" font-family="Helvetica,sans-Serif" font-size="10.00">free_variable</text>
</a>
</g>
</g>
<!-- Node142&#45;&gt;Node143 -->
<g id="edge39" class="edge">
<title>Node142&#45;&gt;Node143</title>
<path fill="none" stroke="#63b8ff" d="M502.9,-877.33C526.54,-877.9 558.3,-878.66 584.7,-879.3"/>
<polygon fill="#63b8ff" stroke="#63b8ff" points="584.82,-882.8 594.9,-879.55 584.99,-875.81 584.82,-882.8"/>
</g>
<!-- Node144 -->
<g id="node33" class="node">
<title>Node144</title>
<g id="a_node33"><a xlink:href="list_8h.html#a56c2e407458d3d071ab549938bc5a7c1" target="_top" xlink:title=" ">
<polygon fill="white" stroke="#666666" points="681,-853 590,-853 590,-834 681,-834 681,-853"/>
<text text-anchor="middle" x="635.5" y="-841" font-family="Helvetica,sans-Serif" font-size="10.00">my_add_to_list</text>
</a>
</g>
</g>
<!-- Node142&#45;&gt;Node144 -->
<g id="edge40" class="edge">
<title>Node142&#45;&gt;Node144</title>
<path fill="none" stroke="#63b8ff" d="M502.9,-869.66C525.11,-865.25 554.5,-859.4 579.87,-854.36"/>
<polygon fill="#63b8ff" stroke="#63b8ff" points="580.61,-857.78 589.74,-852.4 579.25,-850.92 580.61,-857.78"/>
</g>
<!-- Node61 -->
<g id="node34" class="node">
<title>Node61</title>
<g id="a_node34"><a xlink:href="list_8h.html#a68908a98f87b64d0b0fa9ac090a70cad" target="_top" xlink:title=" ">
<polygon fill="white" stroke="#666666" points="674,-964 597,-964 597,-945 674,-945 674,-964"/>
<text text-anchor="middle" x="635.5" y="-952" font-family="Helvetica,sans-Serif" font-size="10.00">my_free_list</text>
</a>
</g>
</g>
<!-- Node142&#45;&gt;Node61 -->
<g id="edge41" class="edge">
<title>Node142&#45;&gt;Node61</title>
<path fill="none" stroke="#63b8ff" d="M502.83,-880.81C516.09,-883.58 530.94,-888.1 543,-895.5 563.67,-908.17 558.74,-923.17 579,-936.5 581.71,-938.28 584.61,-939.9 587.6,-941.37"/>
<polygon fill="#63b8ff" stroke="#63b8ff" points="586.24,-944.59 596.81,-945.33 589.01,-938.16 586.24,-944.59"/>
</g>
<!-- Node145 -->
<g id="node35" class="node">
<title>Node145</title>
<g id="a_node35"><a xlink:href="strings_8h.html#a27d061f38fee80ecc582a343015ebc5c" target="_top" xlink:title=" ">
<polygon fill="white" stroke="#666666" points="675.5,-927 595.5,-927 595.5,-908 675.5,-908 675.5,-927"/>
<text text-anchor="middle" x="635.5" y="-915" font-family="Helvetica,sans-Serif" font-size="10.00">my_getindex</text>
</a>
</g>
</g>
<!-- Node142&#45;&gt;Node145 -->
<g id="edge42" class="edge">
<title>Node142&#45;&gt;Node145</title>
<path fill="none" stroke="#63b8ff" d="M502.9,-885C526.89,-890.92 559.26,-898.92 585.9,-905.5"/>
<polygon fill="#63b8ff" stroke="#63b8ff" points="585.24,-908.94 595.79,-907.94 586.92,-902.14 585.24,-908.94"/>
</g>
<!-- Node147&#45;&gt;Node20 -->
<g id="edge45" class="edge">
<title>Node147&#45;&gt;Node20</title>
<path fill="none" stroke="#63b8ff" d="M339.05,-783.52C402.16,-777.69 527.71,-767.5 634.5,-767.5 634.5,-767.5 634.5,-767.5 936.5,-767.5 1031.99,-767.5 1059.17,-772.97 1150,-743.5 1175.17,-735.33 1201.17,-719.68 1218.72,-707.86"/>
<polygon fill="#63b8ff" stroke="#63b8ff" points="1220.83,-710.65 1227.07,-702.08 1216.86,-704.89 1220.83,-710.65"/>
</g>
<!-- Node148 -->
<g id="node38" class="node">
<title>Node148</title>
<g id="a_node38"><a xlink:href="set__variable_8c.html#a47afbd80fec3464fe83979a24adb4290" target="_top" xlink:title=" ">
<polygon fill="#fff0f0" stroke="red" points="506,-849 429,-849 429,-830 506,-830 506,-849"/>
<text text-anchor="middle" x="467.5" y="-837" font-family="Helvetica,sans-Serif" font-size="10.00">set_variable</text>
</a>
</g>
</g>
<!-- Node147&#45;&gt;Node148 -->
<g id="edge46" class="edge">
<title>Node147&#45;&gt;Node148</title>
<path fill="none" stroke="#63b8ff" d="M329.31,-797.04C356.46,-805.44 396.2,-817.74 425.93,-826.94"/>
<polygon fill="#63b8ff" stroke="#63b8ff" points="425.01,-830.32 435.6,-829.93 427.08,-823.63 425.01,-830.32"/>
</g>
<!-- Node148&#45;&gt;Node21 -->
<g id="edge48" class="edge">
<title>Node148&#45;&gt;Node21</title>
<path fill="none" stroke="#63b8ff" d="M506.18,-832.78C565.13,-822.87 682.84,-805.5 783.5,-805.5 783.5,-805.5 783.5,-805.5 1091,-805.5 1178.34,-805.5 1278.11,-778.7 1331.32,-762.18"/>
<polygon fill="#63b8ff" stroke="#63b8ff" points="1332.53,-765.47 1341.01,-759.13 1330.42,-758.8 1332.53,-765.47"/>
</g>
<!-- Node148&#45;&gt;Node143 -->
<g id="edge47" class="edge">
<title>Node148&#45;&gt;Node143</title>
<path fill="none" stroke="#63b8ff" d="M506.17,-848.8C529.81,-854.64 560.54,-862.23 586,-868.52"/>
<polygon fill="#63b8ff" stroke="#63b8ff" points="585.28,-871.95 595.83,-870.95 586.96,-865.15 585.28,-871.95"/>
</g>
<!-- Node148&#45;&gt;Node144 -->
<g id="edge49" class="edge">
<title>Node148&#45;&gt;Node144</title>
<path fill="none" stroke="#63b8ff" d="M506.17,-840.41C527.93,-840.93 555.69,-841.6 579.82,-842.18"/>
<polygon fill="#63b8ff" stroke="#63b8ff" points="579.83,-845.68 589.91,-842.43 580,-838.69 579.83,-845.68"/>
</g>
<!-- Node92 -->
<g id="node40" class="node">
<title>Node92</title>
<g id="a_node40"><a xlink:href="strings_8h.html#a5e1589f073ac32d227dbc6020c376dab" target="_top" xlink:title=" ">
<polygon fill="white" stroke="#666666" points="348,-629 247,-629 247,-610 348,-610 348,-629"/>
<text text-anchor="middle" x="297.5" y="-617" font-family="Helvetica,sans-Serif" font-size="10.00">append_to_buffer</text>
</a>
</g>
</g>
<!-- Node151&#45;&gt;Node92 -->
<g id="edge51" class="edge">
<title>Node151&#45;&gt;Node92</title>
<path fill="none" stroke="#63b8ff" d="M184.02,-619.5C199.58,-619.5 218.64,-619.5 236.62,-619.5"/>
<polygon fill="#63b8ff" stroke="#63b8ff" points="236.75,-623 246.75,-619.5 236.75,-616 236.75,-623"/>
</g>
<!-- Node152 -->
<g id="node41" class="node">
<title>Node152</title>
<g id="a_node41"><a xlink:href="read__input_8c.html#ab8f53813e21230b48d9ccdc4032c6bee" target="_top" xlink:title=" ">
<polygon fill="white" stroke="#666666" points="355.5,-666 239.5,-666 239.5,-647 355.5,-647 355.5,-666"/>
<text text-anchor="middle" x="297.5" y="-654" font-family="Helvetica,sans-Serif" font-size="10.00">handle_continuation</text>
</a>
</g>
</g>
<!-- Node151&#45;&gt;Node152 -->
<g id="edge52" class="edge">
<title>Node151&#45;&gt;Node152</title>
<path fill="none" stroke="#63b8ff" d="M184.02,-627.9C203.27,-632.79 227.88,-639.05 249.17,-644.46"/>
<polygon fill="#63b8ff" stroke="#63b8ff" points="248.44,-647.89 259,-646.96 250.17,-641.11 248.44,-647.89"/>
</g>
<!-- Node154 -->
<g id="node43" class="node">
<title>Node154</title>
<g id="a_node43"><a xlink:href="read__input_8c.html#a3282822bc1e8642066f4f88116a7a6cc" target="_top" xlink:title=" ">
<polygon fill="white" stroke="#666666" points="356,-592 239,-592 239,-573 356,-573 356,-592"/>
<text text-anchor="middle" x="297.5" y="-580" font-family="Helvetica,sans-Serif" font-size="10.00">handle_getline_error</text>
</a>
</g>
</g>
<!-- Node151&#45;&gt;Node154 -->
<g id="edge54" class="edge">
<title>Node151&#45;&gt;Node154</title>
<path fill="none" stroke="#63b8ff" d="M184.02,-611.1C203.27,-606.21 227.88,-599.95 249.17,-594.54"/>
<polygon fill="#63b8ff" stroke="#63b8ff" points="250.17,-597.89 259,-592.04 248.44,-591.11 250.17,-597.89"/>
</g>
<!-- Node155 -->
<g id="node44" class="node">
<title>Node155</title>
<g id="a_node44"><a xlink:href="read__input_8c.html#a9b0be933113dce6cb33ad0e4dbc89018" target="_top" xlink:title=" ">
<polygon fill="white" stroke="#666666" points="339,-555 256,-555 256,-536 339,-536 339,-555"/>
<text text-anchor="middle" x="297.5" y="-543" font-family="Helvetica,sans-Serif" font-size="10.00">show_prompt</text>
</a>
</g>
</g>
<!-- Node151&#45;&gt;Node155 -->
<g id="edge55" class="edge">
<title>Node151&#45;&gt;Node155</title>
<path fill="none" stroke="#63b8ff" d="M164.15,-609.87C180.87,-597.97 210.95,-577.67 239,-564.5 243.64,-562.32 248.6,-560.28 253.58,-558.41"/>
<polygon fill="#63b8ff" stroke="#63b8ff" points="254.88,-561.67 263.13,-555.03 252.54,-555.07 254.88,-561.67"/>
</g>
<!-- Node153 -->
<g id="node42" class="node">
<title>Node153</title>
<g id="a_node42"><a xlink:href="read__input_8c.html#ab1d0f5b306ce10bb8fff68a7a4aaf428" target="_top" xlink:title=" ">
<polygon fill="white" stroke="#666666" points="515.5,-701 419.5,-701 419.5,-682 515.5,-682 515.5,-701"/>
<text text-anchor="middle" x="467.5" y="-689" font-family="Helvetica,sans-Serif" font-size="10.00">should_continue</text>
</a>
</g>
</g>
<!-- Node152&#45;&gt;Node153 -->
<g id="edge53" class="edge">
<title>Node152&#45;&gt;Node153</title>
<path fill="none" stroke="#63b8ff" d="M344.41,-666.06C364.87,-670.33 389.16,-675.39 410.67,-679.87"/>
<polygon fill="#63b8ff" stroke="#63b8ff" points="410.15,-683.33 420.65,-681.95 411.57,-676.48 410.15,-683.33"/>
</g>
<!-- Node155&#45;&gt;Node20 -->
<g id="edge58" class="edge">
<title>Node155&#45;&gt;Node20</title>
<path fill="none" stroke="#63b8ff" d="M339.03,-550.29C461.75,-565.07 839.88,-612.48 1150,-671.5 1163.69,-674.11 1178.45,-677.36 1191.98,-680.52"/>
<polygon fill="#63b8ff" stroke="#63b8ff" points="1191.51,-684.01 1202.05,-682.91 1193.13,-677.2 1191.51,-684.01"/>
</g>
<!-- Node156 -->
<g id="node45" class="node">
<title>Node156</title>
<g id="a_node45"><a xlink:href="read__input_8c.html#a06d0ee3bb45a86c56f9a8fcf208b182f" target="_top" xlink:title=" ">
<polygon fill="white" stroke="#666666" points="516,-543 419,-543 419,-524 516,-524 516,-543"/>
<text text-anchor="middle" x="467.5" y="-531" font-family="Helvetica,sans-Serif" font-size="10.00">execute_precmd</text>
</a>
</g>
</g>
<!-- Node155&#45;&gt;Node156 -->
<g id="edge56" class="edge">
<title>Node155&#45;&gt;Node156</title>
<path fill="none" stroke="#63b8ff" d="M339.17,-542.6C359.97,-541.11 385.65,-539.27 408.49,-537.64"/>
<polygon fill="#63b8ff" stroke="#63b8ff" points="409.03,-541.11 418.75,-536.91 408.53,-534.13 409.03,-541.11"/>
</g>
<!-- Node157 -->
<g id="node46" class="node">
<title>Node157</title>
<g id="a_node46"><a xlink:href="read__input_8c.html#a6a144d0d5270ba0d210fcb5f39d7fc63" target="_top" xlink:title=" ">
<polygon fill="white" stroke="#666666" points="692,-635 579,-635 579,-616 692,-616 692,-635"/>
<text text-anchor="middle" x="635.5" y="-623" font-family="Helvetica,sans-Serif" font-size="10.00">print_prompt_prefix</text>
</a>
</g>
</g>
<!-- Node155&#45;&gt;Node157 -->
<g id="edge59" class="edge">
<title>Node155&#45;&gt;Node157</title>
<path fill="none" stroke="#63b8ff" d="M333.96,-555.1C341.44,-557.71 349.14,-560.84 356,-564.5 373.88,-574.04 373.32,-584.64 392,-592.5 448.61,-616.31 518.6,-623.75 568.82,-625.72"/>
<polygon fill="#63b8ff" stroke="#63b8ff" points="568.79,-629.22 578.9,-626.05 569.02,-622.23 568.79,-629.22"/>
</g>
<!-- Node158 -->
<g id="node47" class="node">
<title>Node158</title>
<g id="a_node47"><a xlink:href="read__input_8c.html#a95fff78135b5c85ed0ff754f303e28f7" target="_top" xlink:title=" ">
<polygon fill="white" stroke="#666666" points="543,-664 392,-664 392,-645 543,-645 543,-664"/>
<text text-anchor="middle" x="467.5" y="-652" font-family="Helvetica,sans-Serif" font-size="10.00">show_prompt_with_curr_dir</text>
</a>
</g>
</g>
<!-- Node155&#45;&gt;Node158 -->
<g id="edge60" class="edge">
<title>Node155&#45;&gt;Node158</title>
<path fill="none" stroke="#63b8ff" d="M339.19,-554.63C345.23,-557.16 351.08,-560.39 356,-564.5 381.66,-585.9 366.26,-609.19 392,-630.5 397.01,-634.65 402.76,-638.09 408.79,-640.94"/>
<polygon fill="#63b8ff" stroke="#63b8ff" points="407.85,-644.34 418.43,-644.94 410.54,-637.87 407.85,-644.34"/>
</g>
<!-- Node156&#45;&gt;Node2 -->
<g id="edge57" class="edge">
<title>Node156&#45;&gt;Node2</title>
<path fill="none" stroke="#63b8ff" d="M488.85,-523.94C517.93,-510.27 571.53,-485.09 604.97,-469.38"/>
<polygon fill="#63b8ff" stroke="#63b8ff" points="606.68,-472.44 614.24,-465.02 603.7,-466.11 606.68,-472.44"/>
</g>
<!-- Node158&#45;&gt;Node20 -->
<g id="edge61" class="edge">
<title>Node158&#45;&gt;Node20</title>
<path fill="none" stroke="#63b8ff" d="M543.21,-661.55C606.98,-666.96 701.18,-673.5 783.5,-673.5 783.5,-673.5 783.5,-673.5 936.5,-673.5 1019.1,-673.5 1114.09,-680.6 1175.48,-686.12"/>
<polygon fill="#63b8ff" stroke="#63b8ff" points="1175.51,-689.63 1185.79,-687.06 1176.15,-682.66 1175.51,-689.63"/>
</g>
<!-- Node158&#45;&gt;Node157 -->
<g id="edge62" class="edge">
<title>Node158&#45;&gt;Node157</title>
<path fill="none" stroke="#63b8ff" d="M523.31,-644.92C538.27,-642.31 554.6,-639.46 570.04,-636.76"/>
<polygon fill="#63b8ff" stroke="#63b8ff" points="570.78,-640.19 580.03,-635.02 569.57,-633.29 570.78,-640.19"/>
</g>
<!-- Node159&#45;&gt;Node143 -->
<g id="edge64" class="edge">
<title>Node159&#45;&gt;Node143</title>
<path fill="none" stroke="#63b8ff" d="M508.68,-905.51C531.6,-900.96 560.52,-895.21 584.86,-890.37"/>
<polygon fill="#63b8ff" stroke="#63b8ff" points="585.85,-893.74 594.97,-888.36 584.48,-886.87 585.85,-893.74"/>
</g>
<!-- Node159&#45;&gt;Node61 -->
<g id="edge65" class="edge">
<title>Node159&#45;&gt;Node61</title>
<path fill="none" stroke="#63b8ff" d="M507,-923.01C530.85,-928.9 561.65,-936.51 587,-942.77"/>
<polygon fill="#63b8ff" stroke="#63b8ff" points="586.23,-946.18 596.78,-945.18 587.91,-939.39 586.23,-946.18"/>
</g>
<!-- Node160&#45;&gt;Node20 -->
<g id="edge67" class="edge">
<title>Node160&#45;&gt;Node20</title>
<path fill="none" stroke="#63b8ff" d="M203.21,-715.54C291.84,-720.43 477.43,-729.5 634.5,-729.5 634.5,-729.5 634.5,-729.5 936.5,-729.5 1022.3,-729.5 1120.76,-714.75 1181.68,-703.87"/>
<polygon fill="#63b8ff" stroke="#63b8ff" points="1182.65,-707.25 1191.86,-702.03 1181.4,-700.37 1182.65,-707.25"/>
</g>
<!-- Node128 -->
<g id="node50" class="node">
<title>Node128</title>
<g id="a_node50"><a xlink:href="strings_8h.html#a323aa24048c4eb482546b0ac2ad9f414" target="_top" xlink:title=" ">
<polygon fill="white" stroke="#666666" points="340.5,-703 254.5,-703 254.5,-684 340.5,-684 340.5,-703"/>
<text text-anchor="middle" x="297.5" y="-691" font-family="Helvetica,sans-Serif" font-size="10.00">my_str_isnum</text>
</a>
</g>
</g>
<!-- Node160&#45;&gt;Node128 -->
<g id="edge68" class="edge">
<title>Node160&#45;&gt;Node128</title>
<path fill="none" stroke="#63b8ff" d="M203.12,-705.69C216.5,-703.95 230.91,-702.07 244.3,-700.32"/>
<polygon fill="#63b8ff" stroke="#63b8ff" points="244.84,-703.78 254.3,-699.01 243.93,-696.83 244.84,-703.78"/>
</g>
</g>
</svg>
        <g id="navigator" transform="translate(0 0)" fill="#404254">
                <rect fill="#f2f5e9" fill-opacity="0.5" stroke="#606060" stroke-width=".5" x="0" y="0" width="60" height="60"/>
                <use id="zoomplus" xlink:href="#zoomPlus" x="17" y="9" onmousedown="handleZoom(evt,'in')"/>
                <use id="zoomminus" xlink:href="#zoomMin" x="42" y="9" onmousedown="handleZoom(evt,'out')"/>
                <use id="reset" xlink:href="#resetDef" x="30" y="36" onmousedown="handleReset()"/>
                <g id="arrowUp" xlink:href="#dirArrow" transform="translate(30 24)" onmousedown="handlePan(0,-1)">
                  <use xlink:href="#rim" fill="#404040">
                        <set attributeName="fill" to="#808080" begin="arrowUp.mouseover" end="arrowUp.mouseout"/>
                  </use>
                  <path fill="none" stroke="white" stroke-width="1.5" d="M0,-3.0v7 M-2.5,-0.5L0,-3.0L2.5,-0.5"/>
                </g>
                <g id="arrowRight" xlink:href="#dirArrow" transform="rotate(90) translate(36 -43)" onmousedown="handlePan(1,0)">
                  <use xlink:href="#rim" fill="#404040">
                        <set attributeName="fill" to="#808080" begin="arrowRight.mouseover" end="arrowRight.mouseout"/>
                  </use>
                  <path fill="none" stroke="white" stroke-width="1.5" d="M0,-3.0v7 M-2.5,-0.5L0,-3.0L2.5,-0.5"/>
                </g>
                <g id="arrowDown" xlink:href="#dirArrow" transform="rotate(180) translate(-30 -48)" onmousedown="handlePan(0,1)">
                  <use xlink:href="#rim" fill="#404040">
                        <set attributeName="fill" to="#808080" begin="arrowDown.mouseover" end="arrowDown.mouseout"/>
                  </use>
                  <path fill="none" stroke="white" stroke-width="1.5" d="M0,-3.0v7 M-2.5,-0.5L0,-3.0L2.5,-0.5"/>
                </g>
                <g id="arrowLeft" xlink:href="#dirArrow" transform="rotate(270) translate(-36 17)" onmousedown="handlePan(-1,0)">
                  <use xlink:href="#rim" fill="#404040">
                        <set attributeName="fill" to="#808080" begin="arrowLeft.mouseover" end="arrowLeft.mouseout"/>
                  </use>
                  <path fill="none" stroke="white" stroke-width="1.5" d="M0,-3.0v7 M-2.5,-0.5L0,-3.0L2.5,-0.5"/>
                </g>
        </g>
        <svg viewBox="0 0 15 15" width="100%" height="30px" preserveAspectRatio="xMaxYMin meet">
         <g id="arrow_out" transform="scale(0.3 0.3)">
          <a xlink:href="shell_8h_ad0c642810cef7d35602fd99eaec9e3de_cgraph_org.svg" target="_base">
           <rect id="button" ry="5" rx="5" y="6" x="6" height="38" width="38"
                fill="#f2f5e9" fill-opacity="0.5" stroke="#606060" stroke-width="1.0"/>
           <path id="arrow"
             d="M 11.500037,31.436501 C 11.940474,20.09759 22.043105,11.32322 32.158766,21.979434 L 37.068811,17.246167 C 37.068811,17.246167 37.088388,32 37.088388,32 L 22.160133,31.978069 C 22.160133,31.978069 26.997745,27.140456 26.997745,27.140456 C 18.528582,18.264221 13.291696,25.230495 11.500037,31.436501 z"
             style="fill:#404040;"/>
          </a>
         </g>
        </svg>
</svg>
