<?xml version="1.0" encoding="UTF-8" standalone="no"?>
<!DOCTYPE svg PUBLIC "-//W3C//DTD SVG 1.1//EN"
 "http://www.w3.org/Graphics/SVG/1.1/DTD/svg11.dtd">
<!-- Generated by graphviz version 2.43.0 (0)
 -->
<!-- Title: src/should_exit_if_eof.c Pages: 1 -->
<svg width="300pt" height="203pt"
 viewBox="0.00 0.00 299.50 203.00" xmlns="http://www.w3.org/2000/svg" xmlns:xlink="http://www.w3.org/1999/xlink">
<g id="graph0" class="graph" transform="scale(1 1) rotate(0) translate(4 199)">
<title>src/should_exit_if_eof.c</title>
<!-- Node1 -->
<g id="node1" class="node">
<title>Node1</title>
<g id="a_node1"><a xlink:title=" ">
<polygon fill="#999999" stroke="#666666" points="187,-195 85,-195 85,-165 187,-165 187,-195"/>
<text text-anchor="start" x="93" y="-183" font-family="Helvetica,sans-Serif" font-size="10.00">src/should_exit_if</text>
<text text-anchor="middle" x="136" y="-172" font-family="Helvetica,sans-Serif" font-size="10.00">_eof.c</text>
</a>
</g>
</g>
<!-- Node2 -->
<g id="node2" class="node">
<title>Node2</title>
<g id="a_node2"><a xlink:title=" ">
<polygon fill="#e0e0e0" stroke="#999999" points="50,-129 0,-129 0,-110 50,-110 50,-129"/>
<text text-anchor="middle" x="25" y="-117" font-family="Helvetica,sans-Serif" font-size="10.00">stdio.h</text>
</a>
</g>
</g>
<!-- Node1&#45;&gt;Node2 -->
<g id="edge1" class="edge">
<title>Node1&#45;&gt;Node2</title>
<path fill="none" stroke="#63b8ff" d="M109.41,-164.99C91.55,-155.58 68.16,-143.24 50.52,-133.95"/>
<polygon fill="#63b8ff" stroke="#63b8ff" points="51.87,-130.71 41.39,-129.14 48.61,-136.9 51.87,-130.71"/>
</g>
<!-- Node3 -->
<g id="node3" class="node">
<title>Node3</title>
<g id="a_node3"><a xlink:title=" ">
<polygon fill="#e0e0e0" stroke="#999999" points="121.5,-129 68.5,-129 68.5,-110 121.5,-110 121.5,-129"/>
<text text-anchor="middle" x="95" y="-117" font-family="Helvetica,sans-Serif" font-size="10.00">stdlib.h</text>
</a>
</g>
</g>
<!-- Node1&#45;&gt;Node3 -->
<g id="edge2" class="edge">
<title>Node1&#45;&gt;Node3</title>
<path fill="none" stroke="#63b8ff" d="M126.08,-164.84C120.31,-156.61 113,-146.18 106.92,-137.51"/>
<polygon fill="#63b8ff" stroke="#63b8ff" points="109.75,-135.45 101.14,-129.27 104.02,-139.46 109.75,-135.45"/>
</g>
<!-- Node4 -->
<g id="node4" class="node">
<title>Node4</title>
<g id="a_node4"><a xlink:href="strings_8h.html" target="_top" xlink:title=" ">
<polygon fill="white" stroke="#666666" points="216.5,-129 139.5,-129 139.5,-110 216.5,-110 216.5,-129"/>
<text text-anchor="middle" x="178" y="-117" font-family="Helvetica,sans-Serif" font-size="10.00">my/strings.h</text>
</a>
</g>
</g>
<!-- Node1&#45;&gt;Node4 -->
<g id="edge3" class="edge">
<title>Node1&#45;&gt;Node4</title>
<path fill="none" stroke="#63b8ff" d="M146.17,-164.84C152.08,-156.61 159.56,-146.18 165.79,-137.51"/>
<polygon fill="#63b8ff" stroke="#63b8ff" points="168.72,-139.43 171.71,-129.27 163.03,-135.35 168.72,-139.43"/>
</g>
<!-- Node7 -->
<g id="node7" class="node">
<title>Node7</title>
<g id="a_node7"><a xlink:href="shell_8h.html" target="_top" xlink:title=" ">
<polygon fill="white" stroke="#666666" points="285.5,-129 236.5,-129 236.5,-110 285.5,-110 285.5,-129"/>
<text text-anchor="middle" x="261" y="-117" font-family="Helvetica,sans-Serif" font-size="10.00">shell.h</text>
</a>
</g>
</g>
<!-- Node1&#45;&gt;Node7 -->
<g id="edge6" class="edge">
<title>Node1&#45;&gt;Node7</title>
<path fill="none" stroke="#63b8ff" d="M165.94,-164.99C186.42,-155.4 213.38,-142.79 233.35,-133.44"/>
<polygon fill="#63b8ff" stroke="#63b8ff" points="234.97,-136.55 242.54,-129.14 232,-130.21 234.97,-136.55"/>
</g>
<!-- Node5 -->
<g id="node5" class="node">
<title>Node5</title>
<g id="a_node5"><a xlink:title=" ">
<polygon fill="#e0e0e0" stroke="#999999" points="216,-19 160,-19 160,0 216,0 216,-19"/>
<text text-anchor="middle" x="188" y="-7" font-family="Helvetica,sans-Serif" font-size="10.00">stddef.h</text>
</a>
</g>
</g>
<!-- Node4&#45;&gt;Node5 -->
<g id="edge4" class="edge">
<title>Node4&#45;&gt;Node5</title>
<path fill="none" stroke="#63b8ff" d="M164.28,-109.86C147.58,-98.18 122.82,-76.34 133,-55 139.09,-42.23 150.84,-31.94 161.92,-24.49"/>
<polygon fill="#63b8ff" stroke="#63b8ff" points="163.9,-27.38 170.54,-19.12 160.2,-21.43 163.9,-27.38"/>
</g>
<!-- Node6 -->
<g id="node6" class="node">
<title>Node6</title>
<g id="a_node6"><a xlink:title=" ">
<polygon fill="#e0e0e0" stroke="#999999" points="214,-74 142,-74 142,-55 214,-55 214,-74"/>
<text text-anchor="middle" x="178" y="-62" font-family="Helvetica,sans-Serif" font-size="10.00">sys/types.h</text>
</a>
</g>
</g>
<!-- Node4&#45;&gt;Node6 -->
<g id="edge5" class="edge">
<title>Node4&#45;&gt;Node6</title>
<path fill="none" stroke="#63b8ff" d="M178,-109.75C178,-102.8 178,-92.85 178,-84.13"/>
<polygon fill="#63b8ff" stroke="#63b8ff" points="181.5,-84.09 178,-74.09 174.5,-84.09 181.5,-84.09"/>
</g>
<!-- Node8 -->
<g id="node8" class="node">
<title>Node8</title>
<g id="a_node8"><a xlink:href="list_8h.html" target="_top" xlink:title=" ">
<polygon fill="white" stroke="#666666" points="291.5,-74 232.5,-74 232.5,-55 291.5,-55 291.5,-74"/>
<text text-anchor="middle" x="262" y="-62" font-family="Helvetica,sans-Serif" font-size="10.00">my/list.h</text>
</a>
</g>
</g>
<!-- Node7&#45;&gt;Node8 -->
<g id="edge7" class="edge">
<title>Node7&#45;&gt;Node8</title>
<path fill="none" stroke="#63b8ff" d="M261.17,-109.75C261.3,-102.8 261.48,-92.85 261.65,-84.13"/>
<polygon fill="#63b8ff" stroke="#63b8ff" points="265.15,-84.15 261.84,-74.09 258.15,-84.02 265.15,-84.15"/>
</g>
<!-- Node8&#45;&gt;Node5 -->
<g id="edge8" class="edge">
<title>Node8&#45;&gt;Node5</title>
<path fill="none" stroke="#63b8ff" d="M250.11,-54.98C238.85,-46.92 221.71,-34.65 208.29,-25.03"/>
<polygon fill="#63b8ff" stroke="#63b8ff" points="210.27,-22.15 200.11,-19.17 206.2,-27.84 210.27,-22.15"/>
</g>
</g>
</svg>
