<?xml version="1.0" encoding="UTF-8" standalone="no"?>
<!DOCTYPE svg PUBLIC "-//W3C//DTD SVG 1.1//EN"
 "http://www.w3.org/Graphics/SVG/1.1/DTD/svg11.dtd">
<!-- Generated by graphviz version 2.43.0 (0)
 -->
<!-- Title: should_exit_if_eof Pages: 1 -->
<svg width="373pt" height="64pt"
 viewBox="0.00 0.00 373.00 64.00" xmlns="http://www.w3.org/2000/svg" xmlns:xlink="http://www.w3.org/1999/xlink">
<g id="graph0" class="graph" transform="scale(1 1) rotate(0) translate(4 60)">
<title>should_exit_if_eof</title>
<!-- Node1 -->
<g id="node1" class="node">
<title>Node1</title>
<g id="a_node1"><a xlink:title=" ">
<polygon fill="#999999" stroke="#666666" points="106,-37 0,-37 0,-18 106,-18 106,-37"/>
<text text-anchor="middle" x="53" y="-25" font-family="Helvetica,sans-Serif" font-size="10.00">should_exit_if_eof</text>
</a>
</g>
</g>
<!-- Node2 -->
<g id="node2" class="node">
<title>Node2</title>
<g id="a_node2"><a xlink:href="get__variable__value_8c.html#a2edd9900f19af236aa05385a789be3d6" target="_top" xlink:title=" ">
<polygon fill="white" stroke="#666666" points="252,-56 142,-56 142,-37 252,-37 252,-56"/>
<text text-anchor="middle" x="197" y="-44" font-family="Helvetica,sans-Serif" font-size="10.00">get_variable_value</text>
</a>
</g>
</g>
<!-- Node1&#45;&gt;Node2 -->
<g id="edge1" class="edge">
<title>Node1&#45;&gt;Node2</title>
<path fill="none" stroke="#63b8ff" d="M106.07,-34.47C114.38,-35.58 123.05,-36.74 131.6,-37.88"/>
<polygon fill="#63b8ff" stroke="#63b8ff" points="131.18,-41.36 141.55,-39.21 132.11,-34.42 131.18,-41.36"/>
</g>
<!-- Node4 -->
<g id="node4" class="node">
<title>Node4</title>
<g id="a_node4"><a xlink:href="strings_8h.html#a323aa24048c4eb482546b0ac2ad9f414" target="_top" xlink:title=" ">
<polygon fill="white" stroke="#666666" points="240,-19 154,-19 154,0 240,0 240,-19"/>
<text text-anchor="middle" x="197" y="-7" font-family="Helvetica,sans-Serif" font-size="10.00">my_str_isnum</text>
</a>
</g>
</g>
<!-- Node1&#45;&gt;Node4 -->
<g id="edge3" class="edge">
<title>Node1&#45;&gt;Node4</title>
<path fill="none" stroke="#63b8ff" d="M106.07,-20.9C118.31,-19.35 131.37,-17.69 143.63,-16.14"/>
<polygon fill="#63b8ff" stroke="#63b8ff" points="144.22,-19.59 153.7,-14.86 143.34,-12.65 144.22,-19.59"/>
</g>
<!-- Node3 -->
<g id="node3" class="node">
<title>Node3</title>
<g id="a_node3"><a xlink:href="get__variable_8c.html#a569170390f0edf013bf89c26ef55ea8c" target="_top" xlink:title=" ">
<polygon fill="white" stroke="#666666" points="365,-56 288,-56 288,-37 365,-37 365,-56"/>
<text text-anchor="middle" x="326.5" y="-44" font-family="Helvetica,sans-Serif" font-size="10.00">get_variable</text>
</a>
</g>
</g>
<!-- Node2&#45;&gt;Node3 -->
<g id="edge2" class="edge">
<title>Node2&#45;&gt;Node3</title>
<path fill="none" stroke="#63b8ff" d="M252.07,-46.5C260.66,-46.5 269.49,-46.5 277.91,-46.5"/>
<polygon fill="#63b8ff" stroke="#63b8ff" points="277.95,-50 287.95,-46.5 277.95,-43 277.95,-50"/>
</g>
</g>
</svg>
