<?xml version="1.0" encoding="UTF-8" standalone="no"?>
<!DOCTYPE svg PUBLIC "-//W3C//DTD SVG 1.1//EN"
 "http://www.w3.org/Graphics/SVG/1.1/DTD/svg11.dtd">
<!-- Generated by graphviz version 2.43.0 (0)
 -->
<!-- Title: include/my/strings.h Pages: 1 -->
<svg width="1560pt" height="93pt"
 viewBox="0.00 0.00 1560.00 93.00" xmlns="http://www.w3.org/2000/svg" xmlns:xlink="http://www.w3.org/1999/xlink">
<g id="graph0" class="graph" transform="scale(1 1) rotate(0) translate(4 89)">
<title>include/my/strings.h</title>
<!-- Node1 -->
<g id="node1" class="node">
<title>Node1</title>
<g id="a_node1"><a xlink:title=" ">
<polygon fill="#999999" stroke="#666666" points="803,-85 687,-85 687,-66 803,-66 803,-85"/>
<text text-anchor="middle" x="745" y="-73" font-family="Helvetica,sans-Serif" font-size="10.00">include/my/strings.h</text>
</a>
</g>
</g>
<!-- Node2 -->
<g id="node2" class="node">
<title>Node2</title>
<g id="a_node2"><a xlink:href="alias_8c.html" target="_top" xlink:title=" ">
<polygon fill="white" stroke="#666666" points="96,-30 0,-30 0,0 96,0 96,-30"/>
<text text-anchor="start" x="8" y="-18" font-family="Helvetica,sans-Serif" font-size="10.00">src/builtins/alias</text>
<text text-anchor="middle" x="48" y="-7" font-family="Helvetica,sans-Serif" font-size="10.00">/alias.c</text>
</a>
</g>
</g>
<!-- Node1&#45;&gt;Node2 -->
<g id="edge1" class="edge">
<title>Node1&#45;&gt;Node2</title>
<path fill="none" stroke="#63b8ff" d="M676.54,-73.58C558.97,-71.15 311.43,-62.28 105,-30 102.08,-29.54 99.09,-29.01 96.08,-28.42"/>
<polygon fill="#63b8ff" stroke="#63b8ff" points="676.76,-77.09 686.82,-73.78 676.89,-70.09 676.76,-77.09"/>
</g>
<!-- Node3 -->
<g id="node3" class="node">
<title>Node3</title>
<g id="a_node3"><a xlink:href="exit_8c.html" target="_top" xlink:title=" ">
<polygon fill="white" stroke="#666666" points="214,-24.5 114,-24.5 114,-5.5 214,-5.5 214,-24.5"/>
<text text-anchor="middle" x="164" y="-12.5" font-family="Helvetica,sans-Serif" font-size="10.00">src/builtins/exit.c</text>
</a>
</g>
</g>
<!-- Node1&#45;&gt;Node3 -->
<g id="edge2" class="edge">
<title>Node1&#45;&gt;Node3</title>
<path fill="none" stroke="#63b8ff" d="M676.44,-71.89C576.29,-67.35 384.33,-55.87 223,-30 214.27,-28.6 204.91,-26.61 196.29,-24.57"/>
<polygon fill="#63b8ff" stroke="#63b8ff" points="676.58,-75.4 686.72,-72.35 676.89,-68.41 676.58,-75.4"/>
</g>
<!-- Node4 -->
<g id="node4" class="node">
<title>Node4</title>
<g id="a_node4"><a xlink:href="set_8c.html" target="_top" xlink:title=" ">
<polygon fill="white" stroke="#666666" points="328,-24.5 232,-24.5 232,-5.5 328,-5.5 328,-24.5"/>
<text text-anchor="middle" x="280" y="-12.5" font-family="Helvetica,sans-Serif" font-size="10.00">src/builtins/set.c</text>
</a>
</g>
</g>
<!-- Node1&#45;&gt;Node4 -->
<g id="edge3" class="edge">
<title>Node1&#45;&gt;Node4</title>
<path fill="none" stroke="#63b8ff" d="M676.78,-69.83C595.44,-63.63 455.6,-50.94 337,-30 328.67,-28.53 319.75,-26.54 311.5,-24.52"/>
<polygon fill="#63b8ff" stroke="#63b8ff" points="676.66,-73.33 686.89,-70.59 677.18,-66.35 676.66,-73.33"/>
</g>
<!-- Node5 -->
<g id="node5" class="node">
<title>Node5</title>
<g id="a_node5"><a xlink:href="setenv_8c.html" target="_top" xlink:title=" ">
<polygon fill="white" stroke="#666666" points="459.5,-24.5 346.5,-24.5 346.5,-5.5 459.5,-5.5 459.5,-24.5"/>
<text text-anchor="middle" x="403" y="-12.5" font-family="Helvetica,sans-Serif" font-size="10.00">src/builtins/setenv.c</text>
</a>
</g>
</g>
<!-- Node1&#45;&gt;Node5 -->
<g id="edge4" class="edge">
<title>Node1&#45;&gt;Node5</title>
<path fill="none" stroke="#63b8ff" d="M676.82,-64.46C620.87,-55.99 539.63,-43.18 469,-30 460.13,-28.35 450.63,-26.42 441.67,-24.54"/>
<polygon fill="#63b8ff" stroke="#63b8ff" points="676.56,-67.96 686.97,-65.99 677.6,-61.04 676.56,-67.96"/>
</g>
<!-- Node6 -->
<g id="node6" class="node">
<title>Node6</title>
<g id="a_node6"><a xlink:href="env__to__list_8c.html" target="_top" xlink:title=" ">
<polygon fill="white" stroke="#666666" points="594,-24.5 478,-24.5 478,-5.5 594,-5.5 594,-24.5"/>
<text text-anchor="middle" x="536" y="-12.5" font-family="Helvetica,sans-Serif" font-size="10.00">src/env/env_to_list.c</text>
</a>
</g>
</g>
<!-- Node1&#45;&gt;Node6 -->
<g id="edge5" class="edge">
<title>Node1&#45;&gt;Node6</title>
<path fill="none" stroke="#63b8ff" d="M704.81,-63.25C664.4,-51.94 602.97,-34.75 566.43,-24.52"/>
<polygon fill="#63b8ff" stroke="#63b8ff" points="704.04,-66.67 714.61,-65.99 705.92,-59.93 704.04,-66.67"/>
</g>
<!-- Node7 -->
<g id="node7" class="node">
<title>Node7</title>
<g id="a_node7"><a xlink:href="execute__cmd_8c.html" target="_top" xlink:title=" ">
<polygon fill="white" stroke="#666666" points="729.5,-30 612.5,-30 612.5,0 729.5,0 729.5,-30"/>
<text text-anchor="start" x="620.5" y="-18" font-family="Helvetica,sans-Serif" font-size="10.00">src/executer/execute</text>
<text text-anchor="middle" x="671" y="-7" font-family="Helvetica,sans-Serif" font-size="10.00">_cmd.c</text>
</a>
</g>
</g>
<!-- Node1&#45;&gt;Node7 -->
<g id="edge6" class="edge">
<title>Node1&#45;&gt;Node7</title>
<path fill="none" stroke="#63b8ff" d="M726.03,-59.5C714.58,-50.45 700.09,-39 688.85,-30.11"/>
<polygon fill="#63b8ff" stroke="#63b8ff" points="724.07,-62.41 734.08,-65.87 728.41,-56.92 724.07,-62.41"/>
</g>
<!-- Node8 -->
<g id="node8" class="node">
<title>Node8</title>
<g id="a_node8"><a xlink:href="execute__command__substitution_8c.html" target="_top" xlink:title=" ">
<polygon fill="white" stroke="#666666" points="890,-30 748,-30 748,0 890,0 890,-30"/>
<text text-anchor="start" x="756" y="-18" font-family="Helvetica,sans-Serif" font-size="10.00">src/executer/execute</text>
<text text-anchor="middle" x="819" y="-7" font-family="Helvetica,sans-Serif" font-size="10.00">_command_substitution.c</text>
</a>
</g>
</g>
<!-- Node1&#45;&gt;Node8 -->
<g id="edge7" class="edge">
<title>Node1&#45;&gt;Node8</title>
<path fill="none" stroke="#63b8ff" d="M763.97,-59.5C775.42,-50.45 789.91,-39 801.15,-30.11"/>
<polygon fill="#63b8ff" stroke="#63b8ff" points="761.59,-56.92 755.92,-65.87 765.93,-62.41 761.59,-56.92"/>
</g>
<!-- Node9 -->
<g id="node9" class="node">
<title>Node9</title>
<g id="a_node9"><a xlink:href="lexer__expand__variable_8c.html" target="_top" xlink:title=" ">
<polygon fill="white" stroke="#666666" points="1034,-30 908,-30 908,0 1034,0 1034,-30"/>
<text text-anchor="start" x="916" y="-18" font-family="Helvetica,sans-Serif" font-size="10.00">src/lexer/lexer_expand</text>
<text text-anchor="middle" x="971" y="-7" font-family="Helvetica,sans-Serif" font-size="10.00">_variable.c</text>
</a>
</g>
</g>
<!-- Node1&#45;&gt;Node9 -->
<g id="edge8" class="edge">
<title>Node1&#45;&gt;Node9</title>
<path fill="none" stroke="#63b8ff" d="M787.72,-63.44C824.27,-53.98 877.11,-40.3 916.67,-30.06"/>
<polygon fill="#63b8ff" stroke="#63b8ff" points="786.67,-60.1 777.86,-65.99 788.42,-66.88 786.67,-60.1"/>
</g>
<!-- Node10 -->
<g id="node10" class="node">
<title>Node10</title>
<g id="a_node10"><a xlink:href="lexer__utils_8c.html" target="_top" xlink:title=" ">
<polygon fill="white" stroke="#666666" points="1171.5,-24.5 1052.5,-24.5 1052.5,-5.5 1171.5,-5.5 1171.5,-24.5"/>
<text text-anchor="middle" x="1112" y="-12.5" font-family="Helvetica,sans-Serif" font-size="10.00">src/lexer/lexer_utils.c</text>
</a>
</g>
</g>
<!-- Node1&#45;&gt;Node10 -->
<g id="edge9" class="edge">
<title>Node1&#45;&gt;Node10</title>
<path fill="none" stroke="#63b8ff" d="M813.3,-65.33C873.81,-56.96 964.47,-43.82 1043,-30 1052.27,-28.37 1062.21,-26.45 1071.57,-24.57"/>
<polygon fill="#63b8ff" stroke="#63b8ff" points="812.54,-61.9 803.11,-66.73 813.49,-68.84 812.54,-61.9"/>
</g>
<!-- Node11 -->
<g id="node11" class="node">
<title>Node11</title>
<g id="a_node11"><a xlink:href="parse__repeat_8c.html" target="_top" xlink:title=" ">
<polygon fill="white" stroke="#666666" points="1320,-30 1190,-30 1190,0 1320,0 1320,-30"/>
<text text-anchor="start" x="1198" y="-18" font-family="Helvetica,sans-Serif" font-size="10.00">src/parser/tokens/parse</text>
<text text-anchor="middle" x="1255" y="-7" font-family="Helvetica,sans-Serif" font-size="10.00">_repeat.c</text>
</a>
</g>
</g>
<!-- Node1&#45;&gt;Node11 -->
<g id="edge10" class="edge">
<title>Node1&#45;&gt;Node11</title>
<path fill="none" stroke="#63b8ff" d="M813.18,-69.35C899.18,-62.44 1051.48,-48.83 1181,-30 1183.85,-29.59 1186.75,-29.14 1189.68,-28.67"/>
<polygon fill="#63b8ff" stroke="#63b8ff" points="812.72,-65.88 803.02,-70.16 813.27,-72.86 812.72,-65.88"/>
</g>
<!-- Node12 -->
<g id="node12" class="node">
<title>Node12</title>
<g id="a_node12"><a xlink:href="read__input_8c.html" target="_top" xlink:title=" ">
<polygon fill="white" stroke="#666666" points="1432,-24.5 1338,-24.5 1338,-5.5 1432,-5.5 1432,-24.5"/>
<text text-anchor="middle" x="1385" y="-12.5" font-family="Helvetica,sans-Serif" font-size="10.00">src/read_input.c</text>
</a>
</g>
</g>
<!-- Node1&#45;&gt;Node12 -->
<g id="edge11" class="edge">
<title>Node1&#45;&gt;Node12</title>
<path fill="none" stroke="#63b8ff" d="M813.66,-73.02C923.27,-69.82 1144.25,-59.91 1329,-30 1337.41,-28.64 1346.41,-26.64 1354.68,-24.57"/>
<polygon fill="#63b8ff" stroke="#63b8ff" points="813.3,-69.53 803.41,-73.31 813.5,-76.53 813.3,-69.53"/>
</g>
<!-- Node13 -->
<g id="node13" class="node">
<title>Node13</title>
<g id="a_node13"><a xlink:href="should__exit__if__eof_8c.html" target="_top" xlink:title=" ">
<polygon fill="white" stroke="#666666" points="1552,-30 1450,-30 1450,0 1552,0 1552,-30"/>
<text text-anchor="start" x="1458" y="-18" font-family="Helvetica,sans-Serif" font-size="10.00">src/should_exit_if</text>
<text text-anchor="middle" x="1501" y="-7" font-family="Helvetica,sans-Serif" font-size="10.00">_eof.c</text>
</a>
</g>
</g>
<!-- Node1&#45;&gt;Node13 -->
<g id="edge12" class="edge">
<title>Node1&#45;&gt;Node13</title>
<path fill="none" stroke="#63b8ff" d="M813.28,-73.87C938.42,-71.89 1212.65,-63.7 1441,-30 1443.86,-29.58 1446.78,-29.09 1449.72,-28.55"/>
<polygon fill="#63b8ff" stroke="#63b8ff" points="813.03,-70.37 803.09,-74.02 813.14,-77.37 813.03,-70.37"/>
</g>
</g>
</svg>
