<?xml version="1.0" encoding="UTF-8" standalone="no"?>
<!DOCTYPE svg PUBLIC "-//W3C//DTD SVG 1.1//EN"
 "http://www.w3.org/Graphics/SVG/1.1/DTD/svg11.dtd">
<!-- Generated by graphviz version 2.43.0 (0)
 -->
<!-- Title: include/my/strings.h Pages: 1 -->
<svg width="1326pt" height="93pt"
 viewBox="0.00 0.00 1326.00 93.00" xmlns="http://www.w3.org/2000/svg" xmlns:xlink="http://www.w3.org/1999/xlink">
<g id="graph0" class="graph" transform="scale(1 1) rotate(0) translate(4 89)">
<title>include/my/strings.h</title>
<!-- Node1 -->
<g id="node1" class="node">
<title>Node1</title>
<g id="a_node1"><a xlink:title=" ">
<polygon fill="#999999" stroke="#666666" points="689,-85 573,-85 573,-66 689,-66 689,-85"/>
<text text-anchor="middle" x="631" y="-73" font-family="Helvetica,sans-Serif" font-size="10.00">include/my/strings.h</text>
</a>
</g>
</g>
<!-- Node2 -->
<g id="node2" class="node">
<title>Node2</title>
<g id="a_node2"><a xlink:href="exit_8c.html" target="_top" xlink:title=" ">
<polygon fill="white" stroke="#666666" points="100,-24.5 0,-24.5 0,-5.5 100,-5.5 100,-24.5"/>
<text text-anchor="middle" x="50" y="-12.5" font-family="Helvetica,sans-Serif" font-size="10.00">src/builtins/exit.c</text>
</a>
</g>
</g>
<!-- Node1&#45;&gt;Node2 -->
<g id="edge1" class="edge">
<title>Node1&#45;&gt;Node2</title>
<path fill="none" stroke="#63b8ff" d="M562.44,-71.89C462.29,-67.35 270.33,-55.87 109,-30 100.27,-28.6 90.91,-26.61 82.29,-24.57"/>
<polygon fill="#63b8ff" stroke="#63b8ff" points="562.58,-75.4 572.72,-72.35 562.89,-68.41 562.58,-75.4"/>
</g>
<!-- Node3 -->
<g id="node3" class="node">
<title>Node3</title>
<g id="a_node3"><a xlink:href="set_8c.html" target="_top" xlink:title=" ">
<polygon fill="white" stroke="#666666" points="214,-24.5 118,-24.5 118,-5.5 214,-5.5 214,-24.5"/>
<text text-anchor="middle" x="166" y="-12.5" font-family="Helvetica,sans-Serif" font-size="10.00">src/builtins/set.c</text>
</a>
</g>
</g>
<!-- Node1&#45;&gt;Node3 -->
<g id="edge2" class="edge">
<title>Node1&#45;&gt;Node3</title>
<path fill="none" stroke="#63b8ff" d="M562.78,-69.83C481.44,-63.63 341.6,-50.94 223,-30 214.67,-28.53 205.75,-26.54 197.5,-24.52"/>
<polygon fill="#63b8ff" stroke="#63b8ff" points="562.66,-73.33 572.89,-70.59 563.18,-66.35 562.66,-73.33"/>
</g>
<!-- Node4 -->
<g id="node4" class="node">
<title>Node4</title>
<g id="a_node4"><a xlink:href="setenv_8c.html" target="_top" xlink:title=" ">
<polygon fill="white" stroke="#666666" points="345.5,-24.5 232.5,-24.5 232.5,-5.5 345.5,-5.5 345.5,-24.5"/>
<text text-anchor="middle" x="289" y="-12.5" font-family="Helvetica,sans-Serif" font-size="10.00">src/builtins/setenv.c</text>
</a>
</g>
</g>
<!-- Node1&#45;&gt;Node4 -->
<g id="edge3" class="edge">
<title>Node1&#45;&gt;Node4</title>
<path fill="none" stroke="#63b8ff" d="M562.82,-64.46C506.87,-55.99 425.63,-43.18 355,-30 346.13,-28.35 336.63,-26.42 327.67,-24.54"/>
<polygon fill="#63b8ff" stroke="#63b8ff" points="562.56,-67.96 572.97,-65.99 563.6,-61.04 562.56,-67.96"/>
</g>
<!-- Node5 -->
<g id="node5" class="node">
<title>Node5</title>
<g id="a_node5"><a xlink:href="env__to__list_8c.html" target="_top" xlink:title=" ">
<polygon fill="white" stroke="#666666" points="480,-24.5 364,-24.5 364,-5.5 480,-5.5 480,-24.5"/>
<text text-anchor="middle" x="422" y="-12.5" font-family="Helvetica,sans-Serif" font-size="10.00">src/env/env_to_list.c</text>
</a>
</g>
</g>
<!-- Node1&#45;&gt;Node5 -->
<g id="edge4" class="edge">
<title>Node1&#45;&gt;Node5</title>
<path fill="none" stroke="#63b8ff" d="M590.81,-63.25C550.4,-51.94 488.97,-34.75 452.43,-24.52"/>
<polygon fill="#63b8ff" stroke="#63b8ff" points="590.04,-66.67 600.61,-65.99 591.92,-59.93 590.04,-66.67"/>
</g>
<!-- Node6 -->
<g id="node6" class="node">
<title>Node6</title>
<g id="a_node6"><a xlink:href="execute__cmd_8c.html" target="_top" xlink:title=" ">
<polygon fill="white" stroke="#666666" points="615.5,-30 498.5,-30 498.5,0 615.5,0 615.5,-30"/>
<text text-anchor="start" x="506.5" y="-18" font-family="Helvetica,sans-Serif" font-size="10.00">src/executer/execute</text>
<text text-anchor="middle" x="557" y="-7" font-family="Helvetica,sans-Serif" font-size="10.00">_cmd.c</text>
</a>
</g>
</g>
<!-- Node1&#45;&gt;Node6 -->
<g id="edge5" class="edge">
<title>Node1&#45;&gt;Node6</title>
<path fill="none" stroke="#63b8ff" d="M612.03,-59.5C600.58,-50.45 586.09,-39 574.85,-30.11"/>
<polygon fill="#63b8ff" stroke="#63b8ff" points="610.07,-62.41 620.08,-65.87 614.41,-56.92 610.07,-62.41"/>
</g>
<!-- Node7 -->
<g id="node7" class="node">
<title>Node7</title>
<g id="a_node7"><a xlink:href="execute__command__substitution_8c.html" target="_top" xlink:title=" ">
<polygon fill="white" stroke="#666666" points="776,-30 634,-30 634,0 776,0 776,-30"/>
<text text-anchor="start" x="642" y="-18" font-family="Helvetica,sans-Serif" font-size="10.00">src/executer/execute</text>
<text text-anchor="middle" x="705" y="-7" font-family="Helvetica,sans-Serif" font-size="10.00">_command_substitution.c</text>
</a>
</g>
</g>
<!-- Node1&#45;&gt;Node7 -->
<g id="edge6" class="edge">
<title>Node1&#45;&gt;Node7</title>
<path fill="none" stroke="#63b8ff" d="M649.97,-59.5C661.42,-50.45 675.91,-39 687.15,-30.11"/>
<polygon fill="#63b8ff" stroke="#63b8ff" points="647.59,-56.92 641.92,-65.87 651.93,-62.41 647.59,-56.92"/>
</g>
<!-- Node8 -->
<g id="node8" class="node">
<title>Node8</title>
<g id="a_node8"><a xlink:href="lexer__expand__variable_8c.html" target="_top" xlink:title=" ">
<polygon fill="white" stroke="#666666" points="920,-30 794,-30 794,0 920,0 920,-30"/>
<text text-anchor="start" x="802" y="-18" font-family="Helvetica,sans-Serif" font-size="10.00">src/lexer/lexer_expand</text>
<text text-anchor="middle" x="857" y="-7" font-family="Helvetica,sans-Serif" font-size="10.00">_variable.c</text>
</a>
</g>
</g>
<!-- Node1&#45;&gt;Node8 -->
<g id="edge7" class="edge">
<title>Node1&#45;&gt;Node8</title>
<path fill="none" stroke="#63b8ff" d="M673.72,-63.44C710.27,-53.98 763.11,-40.3 802.67,-30.06"/>
<polygon fill="#63b8ff" stroke="#63b8ff" points="672.67,-60.1 663.86,-65.99 674.42,-66.88 672.67,-60.1"/>
</g>
<!-- Node9 -->
<g id="node9" class="node">
<title>Node9</title>
<g id="a_node9"><a xlink:href="lexer__utils_8c.html" target="_top" xlink:title=" ">
<polygon fill="white" stroke="#666666" points="1057.5,-24.5 938.5,-24.5 938.5,-5.5 1057.5,-5.5 1057.5,-24.5"/>
<text text-anchor="middle" x="998" y="-12.5" font-family="Helvetica,sans-Serif" font-size="10.00">src/lexer/lexer_utils.c</text>
</a>
</g>
</g>
<!-- Node1&#45;&gt;Node9 -->
<g id="edge8" class="edge">
<title>Node1&#45;&gt;Node9</title>
<path fill="none" stroke="#63b8ff" d="M699.3,-65.33C759.81,-56.96 850.47,-43.82 929,-30 938.27,-28.37 948.21,-26.45 957.57,-24.57"/>
<polygon fill="#63b8ff" stroke="#63b8ff" points="698.54,-61.9 689.11,-66.73 699.49,-68.84 698.54,-61.9"/>
</g>
<!-- Node10 -->
<g id="node10" class="node">
<title>Node10</title>
<g id="a_node10"><a xlink:href="parse__repeat_8c.html" target="_top" xlink:title=" ">
<polygon fill="white" stroke="#666666" points="1206,-30 1076,-30 1076,0 1206,0 1206,-30"/>
<text text-anchor="start" x="1084" y="-18" font-family="Helvetica,sans-Serif" font-size="10.00">src/parser/tokens/parse</text>
<text text-anchor="middle" x="1141" y="-7" font-family="Helvetica,sans-Serif" font-size="10.00">_repeat.c</text>
</a>
</g>
</g>
<!-- Node1&#45;&gt;Node10 -->
<g id="edge9" class="edge">
<title>Node1&#45;&gt;Node10</title>
<path fill="none" stroke="#63b8ff" d="M699.18,-69.35C785.18,-62.44 937.48,-48.83 1067,-30 1069.85,-29.59 1072.75,-29.14 1075.68,-28.67"/>
<polygon fill="#63b8ff" stroke="#63b8ff" points="698.72,-65.88 689.02,-70.16 699.27,-72.86 698.72,-65.88"/>
</g>
<!-- Node11 -->
<g id="node11" class="node">
<title>Node11</title>
<g id="a_node11"><a xlink:href="read__input_8c.html" target="_top" xlink:title=" ">
<polygon fill="white" stroke="#666666" points="1318,-24.5 1224,-24.5 1224,-5.5 1318,-5.5 1318,-24.5"/>
<text text-anchor="middle" x="1271" y="-12.5" font-family="Helvetica,sans-Serif" font-size="10.00">src/read_input.c</text>
</a>
</g>
</g>
<!-- Node1&#45;&gt;Node11 -->
<g id="edge10" class="edge">
<title>Node1&#45;&gt;Node11</title>
<path fill="none" stroke="#63b8ff" d="M699.66,-73.02C809.27,-69.82 1030.25,-59.91 1215,-30 1223.41,-28.64 1232.41,-26.64 1240.68,-24.57"/>
<polygon fill="#63b8ff" stroke="#63b8ff" points="699.3,-69.53 689.41,-73.31 699.5,-76.53 699.3,-69.53"/>
</g>
</g>
</svg>
