<?xml version="1.0" encoding="UTF-8" standalone="no"?>
<!DOCTYPE svg PUBLIC "-//W3C//DTD SVG 1.1//EN"
 "http://www.w3.org/Graphics/SVG/1.1/DTD/svg11.dtd">
<!-- Generated by graphviz version 2.43.0 (0)
 -->
<!-- Title: include/my/strings.h Pages: 1 -->
<svg width="1440pt" height="93pt"
 viewBox="0.00 0.00 1440.00 93.00" xmlns="http://www.w3.org/2000/svg" xmlns:xlink="http://www.w3.org/1999/xlink">
<g id="graph0" class="graph" transform="scale(1 1) rotate(0) translate(4 89)">
<title>include/my/strings.h</title>
<!-- Node1 -->
<g id="node1" class="node">
<title>Node1</title>
<g id="a_node1"><a xlink:title=" ">
<polygon fill="#999999" stroke="#666666" points="729,-85 613,-85 613,-66 729,-66 729,-85"/>
<text text-anchor="middle" x="671" y="-73" font-family="Helvetica,sans-Serif" font-size="10.00">include/my/strings.h</text>
</a>
</g>
</g>
<!-- Node2 -->
<g id="node2" class="node">
<title>Node2</title>
<g id="a_node2"><a xlink:href="alias_8c.html" target="_top" xlink:title=" ">
<polygon fill="white" stroke="#666666" points="96,-30 0,-30 0,0 96,0 96,-30"/>
<text text-anchor="start" x="8" y="-18" font-family="Helvetica,sans-Serif" font-size="10.00">src/builtins/alias</text>
<text text-anchor="middle" x="48" y="-7" font-family="Helvetica,sans-Serif" font-size="10.00">/alias.c</text>
</a>
</g>
</g>
<!-- Node1&#45;&gt;Node2 -->
<g id="edge1" class="edge">
<title>Node1&#45;&gt;Node2</title>
<path fill="none" stroke="#63b8ff" d="M602.78,-72.71C496.01,-69.1 283.18,-58.69 105,-30 102.08,-29.53 99.09,-28.99 96.09,-28.39"/>
<polygon fill="#63b8ff" stroke="#63b8ff" points="602.67,-76.21 612.78,-73.04 602.9,-69.21 602.67,-76.21"/>
</g>
<!-- Node3 -->
<g id="node3" class="node">
<title>Node3</title>
<g id="a_node3"><a xlink:href="exit_8c.html" target="_top" xlink:title=" ">
<polygon fill="white" stroke="#666666" points="214,-24.5 114,-24.5 114,-5.5 214,-5.5 214,-24.5"/>
<text text-anchor="middle" x="164" y="-12.5" font-family="Helvetica,sans-Serif" font-size="10.00">src/builtins/exit.c</text>
</a>
</g>
</g>
<!-- Node1&#45;&gt;Node3 -->
<g id="edge2" class="edge">
<title>Node1&#45;&gt;Node3</title>
<path fill="none" stroke="#63b8ff" d="M602.53,-70.56C514.33,-64.83 356.47,-52.36 223,-30 214.38,-28.56 205.15,-26.58 196.61,-24.56"/>
<polygon fill="#63b8ff" stroke="#63b8ff" points="602.48,-74.06 612.68,-71.21 602.92,-67.08 602.48,-74.06"/>
</g>
<!-- Node4 -->
<g id="node4" class="node">
<title>Node4</title>
<g id="a_node4"><a xlink:href="set_8c.html" target="_top" xlink:title=" ">
<polygon fill="white" stroke="#666666" points="328,-24.5 232,-24.5 232,-5.5 328,-5.5 328,-24.5"/>
<text text-anchor="middle" x="280" y="-12.5" font-family="Helvetica,sans-Serif" font-size="10.00">src/builtins/set.c</text>
</a>
</g>
</g>
<!-- Node1&#45;&gt;Node4 -->
<g id="edge3" class="edge">
<title>Node1&#45;&gt;Node4</title>
<path fill="none" stroke="#63b8ff" d="M602.65,-67.59C534.9,-60.22 428.31,-47.24 337,-30 328.89,-28.47 320.2,-26.5 312.12,-24.53"/>
<polygon fill="#63b8ff" stroke="#63b8ff" points="602.45,-71.09 612.77,-68.68 603.2,-64.13 602.45,-71.09"/>
</g>
<!-- Node5 -->
<g id="node5" class="node">
<title>Node5</title>
<g id="a_node5"><a xlink:href="setenv_8c.html" target="_top" xlink:title=" ">
<polygon fill="white" stroke="#666666" points="459.5,-24.5 346.5,-24.5 346.5,-5.5 459.5,-5.5 459.5,-24.5"/>
<text text-anchor="middle" x="403" y="-12.5" font-family="Helvetica,sans-Serif" font-size="10.00">src/builtins/setenv.c</text>
</a>
</g>
</g>
<!-- Node1&#45;&gt;Node5 -->
<g id="edge4" class="edge">
<title>Node1&#45;&gt;Node5</title>
<path fill="none" stroke="#63b8ff" d="M622.08,-63.82C570.32,-52.52 489.67,-34.92 442.02,-24.52"/>
<polygon fill="#63b8ff" stroke="#63b8ff" points="621.51,-67.28 632.03,-65.99 623.01,-60.44 621.51,-67.28"/>
</g>
<!-- Node6 -->
<g id="node6" class="node">
<title>Node6</title>
<g id="a_node6"><a xlink:href="env__to__list_8c.html" target="_top" xlink:title=" ">
<polygon fill="white" stroke="#666666" points="594,-24.5 478,-24.5 478,-5.5 594,-5.5 594,-24.5"/>
<text text-anchor="middle" x="536" y="-12.5" font-family="Helvetica,sans-Serif" font-size="10.00">src/env/env_to_list.c</text>
</a>
</g>
</g>
<!-- Node1&#45;&gt;Node6 -->
<g id="edge5" class="edge">
<title>Node1&#45;&gt;Node6</title>
<path fill="none" stroke="#63b8ff" d="M642,-61.93C615.93,-50.64 578.36,-34.36 555.65,-24.52"/>
<polygon fill="#63b8ff" stroke="#63b8ff" points="640.8,-65.23 651.37,-65.99 643.59,-58.81 640.8,-65.23"/>
</g>
<!-- Node7 -->
<g id="node7" class="node">
<title>Node7</title>
<g id="a_node7"><a xlink:href="execute__cmd_8c.html" target="_top" xlink:title=" ">
<polygon fill="white" stroke="#666666" points="729.5,-30 612.5,-30 612.5,0 729.5,0 729.5,-30"/>
<text text-anchor="start" x="620.5" y="-18" font-family="Helvetica,sans-Serif" font-size="10.00">src/executer/execute</text>
<text text-anchor="middle" x="671" y="-7" font-family="Helvetica,sans-Serif" font-size="10.00">_cmd.c</text>
</a>
</g>
</g>
<!-- Node1&#45;&gt;Node7 -->
<g id="edge6" class="edge">
<title>Node1&#45;&gt;Node7</title>
<path fill="none" stroke="#63b8ff" d="M671,-55.65C671,-47.36 671,-37.78 671,-30.11"/>
<polygon fill="#63b8ff" stroke="#63b8ff" points="667.5,-55.87 671,-65.87 674.5,-55.87 667.5,-55.87"/>
</g>
<!-- Node8 -->
<g id="node8" class="node">
<title>Node8</title>
<g id="a_node8"><a xlink:href="execute__command__substitution_8c.html" target="_top" xlink:title=" ">
<polygon fill="white" stroke="#666666" points="890,-30 748,-30 748,0 890,0 890,-30"/>
<text text-anchor="start" x="756" y="-18" font-family="Helvetica,sans-Serif" font-size="10.00">src/executer/execute</text>
<text text-anchor="middle" x="819" y="-7" font-family="Helvetica,sans-Serif" font-size="10.00">_command_substitution.c</text>
</a>
</g>
</g>
<!-- Node1&#45;&gt;Node8 -->
<g id="edge7" class="edge">
<title>Node1&#45;&gt;Node8</title>
<path fill="none" stroke="#63b8ff" d="M702.1,-62.21C725.86,-52.82 758.62,-39.87 783.42,-30.06"/>
<polygon fill="#63b8ff" stroke="#63b8ff" points="700.53,-59.06 692.52,-65.99 703.11,-65.57 700.53,-59.06"/>
</g>
<!-- Node9 -->
<g id="node9" class="node">
<title>Node9</title>
<g id="a_node9"><a xlink:href="lexer__expand__variable_8c.html" target="_top" xlink:title=" ">
<polygon fill="white" stroke="#666666" points="1034,-30 908,-30 908,0 1034,0 1034,-30"/>
<text text-anchor="start" x="916" y="-18" font-family="Helvetica,sans-Serif" font-size="10.00">src/lexer/lexer_expand</text>
<text text-anchor="middle" x="971" y="-7" font-family="Helvetica,sans-Serif" font-size="10.00">_variable.c</text>
</a>
</g>
</g>
<!-- Node1&#45;&gt;Node9 -->
<g id="edge8" class="edge">
<title>Node1&#45;&gt;Node9</title>
<path fill="none" stroke="#63b8ff" d="M724.54,-64.06C775.95,-54.04 853.6,-38.89 907.97,-28.29"/>
<polygon fill="#63b8ff" stroke="#63b8ff" points="723.77,-60.64 714.62,-65.99 725.11,-67.51 723.77,-60.64"/>
</g>
<!-- Node10 -->
<g id="node10" class="node">
<title>Node10</title>
<g id="a_node10"><a xlink:href="lexer__utils_8c.html" target="_top" xlink:title=" ">
<polygon fill="white" stroke="#666666" points="1171.5,-24.5 1052.5,-24.5 1052.5,-5.5 1171.5,-5.5 1171.5,-24.5"/>
<text text-anchor="middle" x="1112" y="-12.5" font-family="Helvetica,sans-Serif" font-size="10.00">src/lexer/lexer_utils.c</text>
</a>
</g>
</g>
<!-- Node1&#45;&gt;Node10 -->
<g id="edge9" class="edge">
<title>Node1&#45;&gt;Node10</title>
<path fill="none" stroke="#63b8ff" d="M739.42,-68C814.22,-60.49 937.51,-46.98 1043,-30 1052.65,-28.45 1063.01,-26.5 1072.69,-24.55"/>
<polygon fill="#63b8ff" stroke="#63b8ff" points="738.8,-64.54 729.2,-69.01 739.49,-71.51 738.8,-64.54"/>
</g>
<!-- Node11 -->
<g id="node11" class="node">
<title>Node11</title>
<g id="a_node11"><a xlink:href="parse__repeat_8c.html" target="_top" xlink:title=" ">
<polygon fill="white" stroke="#666666" points="1320,-30 1190,-30 1190,0 1320,0 1320,-30"/>
<text text-anchor="start" x="1198" y="-18" font-family="Helvetica,sans-Serif" font-size="10.00">src/parser/tokens/parse</text>
<text text-anchor="middle" x="1255" y="-7" font-family="Helvetica,sans-Serif" font-size="10.00">_repeat.c</text>
</a>
</g>
</g>
<!-- Node1&#45;&gt;Node11 -->
<g id="edge10" class="edge">
<title>Node1&#45;&gt;Node11</title>
<path fill="none" stroke="#63b8ff" d="M739.42,-70.71C837.52,-64.78 1023.68,-51.69 1181,-30 1183.85,-29.61 1186.76,-29.18 1189.69,-28.72"/>
<polygon fill="#63b8ff" stroke="#63b8ff" points="739.11,-67.22 729.34,-71.31 739.53,-74.21 739.11,-67.22"/>
</g>
<!-- Node12 -->
<g id="node12" class="node">
<title>Node12</title>
<g id="a_node12"><a xlink:href="read__input_8c.html" target="_top" xlink:title=" ">
<polygon fill="white" stroke="#666666" points="1432,-24.5 1338,-24.5 1338,-5.5 1432,-5.5 1432,-24.5"/>
<text text-anchor="middle" x="1385" y="-12.5" font-family="Helvetica,sans-Serif" font-size="10.00">src/read_input.c</text>
</a>
</g>
</g>
<!-- Node1&#45;&gt;Node12 -->
<g id="edge11" class="edge">
<title>Node1&#45;&gt;Node12</title>
<path fill="none" stroke="#63b8ff" d="M739.17,-73.86C859.14,-71.86 1115.52,-63.63 1329,-30 1337.51,-28.66 1346.63,-26.64 1354.98,-24.55"/>
<polygon fill="#63b8ff" stroke="#63b8ff" points="738.98,-70.37 729.04,-74.02 739.09,-77.36 738.98,-70.37"/>
</g>
</g>
</svg>
