<?xml version="1.0" encoding="UTF-8" standalone="no"?>
<!DOCTYPE svg PUBLIC "-//W3C//DTD SVG 1.1//EN"
 "http://www.w3.org/Graphics/SVG/1.1/DTD/svg11.dtd">
<!-- Generated by graphviz version 2.43.0 (0)
 -->
<!-- Title: parser Pages: 1 -->
<svg width="158pt" height="247pt"
 viewBox="0.00 0.00 158.00 247.00" xmlns="http://www.w3.org/2000/svg" xmlns:xlink="http://www.w3.org/1999/xlink">
<g id="graph0" class="graph" transform="scale(1 1) rotate(0) translate(4 243)">
<title>parser</title>
<!-- Node1 -->
<g id="node1" class="node">
<title>Node1</title>
<g id="a_node1"><a xlink:title=" ">
<polygon fill="#999999" stroke="#666666" points="86.5,-19 39.5,-19 39.5,0 86.5,0 86.5,-19"/>
<text text-anchor="middle" x="63" y="-7" font-family="Helvetica,sans-Serif" font-size="10.00">parser</text>
</a>
</g>
</g>
<!-- Node2 -->
<g id="node2" class="node">
<title>Node2</title>
<g id="a_node2"><a xlink:href="structlexer.html" target="_top" xlink:title=" ">
<polygon fill="white" stroke="#666666" points="53.5,-85 12.5,-85 12.5,-66 53.5,-66 53.5,-85"/>
<text text-anchor="middle" x="33" y="-73" font-family="Helvetica,sans-Serif" font-size="10.00">lexer</text>
</a>
</g>
</g>
<!-- Node2&#45;&gt;Node1 -->
<g id="edge1" class="edge">
<title>Node2&#45;&gt;Node1</title>
<path fill="none" stroke="#9a32cd" stroke-dasharray="5,2" d="M37.16,-55.77C38.87,-49.63 41.14,-42.87 44,-37 47.08,-30.69 51.63,-24.28 55.51,-19.34"/>
<polygon fill="#9a32cd" stroke="#9a32cd" points="33.67,-55.31 34.67,-65.86 40.47,-56.99 33.67,-55.31"/>
<text text-anchor="middle" x="58" y="-40" font-family="Helvetica,sans-Serif" font-size="10.00"> lexer</text>
</g>
<!-- Node3 -->
<g id="node3" class="node">
<title>Node3</title>
<g id="a_node3"><a xlink:href="structshell.html" target="_top" xlink:title=" ">
<polygon fill="white" stroke="#666666" points="53,-151 13,-151 13,-132 53,-132 53,-151"/>
<text text-anchor="middle" x="33" y="-139" font-family="Helvetica,sans-Serif" font-size="10.00">shell</text>
</a>
</g>
</g>
<!-- Node3&#45;&gt;Node2 -->
<g id="edge2" class="edge">
<title>Node3&#45;&gt;Node2</title>
<path fill="none" stroke="#9a32cd" stroke-dasharray="5,2" d="M33,-121.58C33,-109.63 33,-94.72 33,-85.41"/>
<polygon fill="#9a32cd" stroke="#9a32cd" points="29.5,-121.87 33,-131.87 36.5,-121.87 29.5,-121.87"/>
<text text-anchor="middle" x="46.5" y="-106" font-family="Helvetica,sans-Serif" font-size="10.00"> shell</text>
</g>
<!-- Node4 -->
<g id="node4" class="node">
<title>Node4</title>
<g id="a_node4"><a xlink:href="structlinked__list.html" target="_top" xlink:title=" ">
<polygon fill="white" stroke="#666666" points="66,-239 0,-239 0,-220 66,-220 66,-239"/>
<text text-anchor="middle" x="33" y="-227" font-family="Helvetica,sans-Serif" font-size="10.00">linked_list</text>
</a>
</g>
</g>
<!-- Node4&#45;&gt;Node3 -->
<g id="edge3" class="edge">
<title>Node4&#45;&gt;Node3</title>
<path fill="none" stroke="#9a32cd" stroke-dasharray="5,2" d="M33,-209.91C33,-191.67 33,-164.65 33,-151.03"/>
<polygon fill="#9a32cd" stroke="#9a32cd" points="29.5,-209.94 33,-219.94 36.5,-209.94 29.5,-209.94"/>
<text text-anchor="middle" x="56" y="-194" font-family="Helvetica,sans-Serif" font-size="10.00"> aliases</text>
<text text-anchor="middle" x="56" y="-183" font-family="Helvetica,sans-Serif" font-size="10.00">env</text>
<text text-anchor="middle" x="56" y="-172" font-family="Helvetica,sans-Serif" font-size="10.00">variables</text>
</g>
<!-- Node4&#45;&gt;Node4 -->
<g id="edge4" class="edge">
<title>Node4&#45;&gt;Node4</title>
<path fill="none" stroke="#9a32cd" stroke-dasharray="5,2" d="M76.3,-236.4C80.98,-235.08 84,-232.78 84,-229.5 84,-224.26 76.28,-221.51 66.35,-221.27"/>
<polygon fill="#9a32cd" stroke="#9a32cd" points="75.8,-232.94 66.35,-237.73 76.73,-239.87 75.8,-232.94"/>
<text text-anchor="middle" x="96.5" y="-227" font-family="Helvetica,sans-Serif" font-size="10.00"> next</text>
</g>
<!-- Node5 -->
<g id="node5" class="node">
<title>Node5</title>
<g id="a_node5"><a xlink:href="structtoken.html" target="_top" xlink:title=" ">
<polygon fill="white" stroke="#666666" points="116,-85 72,-85 72,-66 116,-66 116,-85"/>
<text text-anchor="middle" x="94" y="-73" font-family="Helvetica,sans-Serif" font-size="10.00">token</text>
</a>
</g>
</g>
<!-- Node5&#45;&gt;Node1 -->
<g id="edge5" class="edge">
<title>Node5&#45;&gt;Node1</title>
<path fill="none" stroke="#9a32cd" stroke-dasharray="5,2" d="M85.37,-56.68C79.49,-44.55 71.97,-29.01 67.31,-19.41"/>
<polygon fill="#9a32cd" stroke="#9a32cd" points="82.31,-58.39 89.82,-65.87 88.61,-55.34 82.31,-58.39"/>
<text text-anchor="middle" x="115" y="-40" font-family="Helvetica,sans-Serif" font-size="10.00"> current_token</text>
</g>
</g>
</svg>
