<?xml version="1.0" encoding="UTF-8" standalone="no"?>
<!DOCTYPE svg PUBLIC "-//W3C//DTD SVG 1.1//EN"
 "http://www.w3.org/Graphics/SVG/1.1/DTD/svg11.dtd">
<!-- Generated by graphviz version 2.43.0 (0)
 -->
<!-- Title: shell Pages: 1 -->
<svg width="117pt" height="115pt"
 viewBox="0.00 0.00 117.00 115.00" xmlns="http://www.w3.org/2000/svg" xmlns:xlink="http://www.w3.org/1999/xlink">
<g id="graph0" class="graph" transform="scale(1 1) rotate(0) translate(4 111)">
<title>shell</title>
<!-- Node1 -->
<g id="node1" class="node">
<title>Node1</title>
<g id="a_node1"><a xlink:title=" ">
<polygon fill="#999999" stroke="#666666" points="53,-19 13,-19 13,0 53,0 53,-19"/>
<text text-anchor="middle" x="33" y="-7" font-family="Helvetica,sans-Serif" font-size="10.00">shell</text>
</a>
</g>
</g>
<!-- Node2 -->
<g id="node2" class="node">
<title>Node2</title>
<g id="a_node2"><a xlink:href="structlinked__list.html" target="_top" xlink:title=" ">
<polygon fill="white" stroke="#666666" points="66,-107 0,-107 0,-88 66,-88 66,-107"/>
<text text-anchor="middle" x="33" y="-95" font-family="Helvetica,sans-Serif" font-size="10.00">linked_list</text>
</a>
</g>
</g>
<!-- Node2&#45;&gt;Node1 -->
<g id="edge1" class="edge">
<title>Node2&#45;&gt;Node1</title>
<path fill="none" stroke="#9a32cd" stroke-dasharray="5,2" d="M33,-77.91C33,-59.67 33,-32.65 33,-19.03"/>
<polygon fill="#9a32cd" stroke="#9a32cd" points="29.5,-77.94 33,-87.94 36.5,-77.94 29.5,-77.94"/>
<text text-anchor="middle" x="56" y="-62" font-family="Helvetica,sans-Serif" font-size="10.00"> aliases</text>
<text text-anchor="middle" x="56" y="-51" font-family="Helvetica,sans-Serif" font-size="10.00">env</text>
<text text-anchor="middle" x="56" y="-40" font-family="Helvetica,sans-Serif" font-size="10.00">variables</text>
</g>
<!-- Node2&#45;&gt;Node2 -->
<g id="edge2" class="edge">
<title>Node2&#45;&gt;Node2</title>
<path fill="none" stroke="#9a32cd" stroke-dasharray="5,2" d="M76.3,-104.4C80.98,-103.08 84,-100.78 84,-97.5 84,-92.26 76.28,-89.51 66.35,-89.27"/>
<polygon fill="#9a32cd" stroke="#9a32cd" points="75.8,-100.94 66.35,-105.73 76.73,-107.87 75.8,-100.94"/>
<text text-anchor="middle" x="96.5" y="-95" font-family="Helvetica,sans-Serif" font-size="10.00"> next</text>
</g>
</g>
</svg>
