<?xml version="1.0" encoding="UTF-8" standalone="no"?>
<!DOCTYPE svg PUBLIC "-//W3C//DTD SVG 1.1//EN"
 "http://www.w3.org/Graphics/SVG/1.1/DTD/svg11.dtd">
<!-- Generated by graphviz version 2.43.0 (0)
 -->
<!-- Title: ast_repeat_t Pages: 1 -->
<svg width="334pt" height="170pt"
 viewBox="0.00 0.00 333.50 170.00" xmlns="http://www.w3.org/2000/svg" xmlns:xlink="http://www.w3.org/1999/xlink">
<g id="graph0" class="graph" transform="scale(1 1) rotate(0) translate(4 166)">
<title>ast_repeat_t</title>
<!-- Node1 -->
<g id="node1" class="node">
<title>Node1</title>
<g id="a_node1"><a xlink:title=" ">
<polygon fill="#999999" stroke="#666666" points="148,-162 71,-162 71,-143 148,-143 148,-162"/>
<text text-anchor="middle" x="109.5" y="-150" font-family="Helvetica,sans-Serif" font-size="10.00">ast_repeat_t</text>
</a>
</g>
</g>
<!-- Node2 -->
<g id="node2" class="node">
<title>Node2</title>
<g id="a_node2"><a xlink:href="structast__node.html" target="_top" xlink:title=" ">
<polygon fill="white" stroke="#666666" points="188,-96 127,-96 127,-77 188,-77 188,-96"/>
<text text-anchor="middle" x="157.5" y="-84" font-family="Helvetica,sans-Serif" font-size="10.00">ast_node</text>
</a>
</g>
</g>
<!-- Node1&#45;&gt;Node2 -->
<g id="edge5" class="edge">
<title>Node1&#45;&gt;Node2</title>
<path fill="none" stroke="#9a32cd" stroke-dasharray="5,2" d="M97.11,-134.03C94,-127.42 92.54,-120.04 96.5,-114 103.34,-103.57 115.26,-97.23 126.77,-93.37"/>
<polygon fill="#9a32cd" stroke="#9a32cd" points="94.28,-136.12 102.4,-142.92 100.29,-132.54 94.28,-136.12"/>
<text text-anchor="middle" x="114" y="-117" font-family="Helvetica,sans-Serif" font-size="10.00"> repeat</text>
</g>
<!-- Node2&#45;&gt;Node1 -->
<g id="edge1" class="edge">
<title>Node2&#45;&gt;Node1</title>
<path fill="none" stroke="#9a32cd" stroke-dasharray="5,2" d="M148.17,-105.42C144.54,-111.82 140.14,-118.94 135.5,-125 130.56,-131.45 124.19,-137.97 118.99,-142.93"/>
<polygon fill="#9a32cd" stroke="#9a32cd" points="151.48,-106.68 153.17,-96.22 145.32,-103.34 151.48,-106.68"/>
<text text-anchor="middle" x="156.5" y="-117" font-family="Helvetica,sans-Serif" font-size="10.00"> node</text>
</g>
<!-- Node4 -->
<g id="node4" class="node">
<title>Node4</title>
<g id="a_node4"><a xlink:href="structast__binary__t.html" target="_top" xlink:title=" ">
<polygon fill="white" stroke="#666666" points="77,-19 0,-19 0,0 77,0 77,-19"/>
<text text-anchor="middle" x="38.5" y="-7" font-family="Helvetica,sans-Serif" font-size="10.00">ast_binary_t</text>
</a>
</g>
</g>
<!-- Node2&#45;&gt;Node4 -->
<g id="edge4" class="edge">
<title>Node2&#45;&gt;Node4</title>
<path fill="none" stroke="#9a32cd" stroke-dasharray="5,2" d="M116.49,-82.05C85.14,-78.46 45.61,-71.55 35.5,-59 26.39,-47.7 30.88,-29.69 34.8,-19.09"/>
<polygon fill="#9a32cd" stroke="#9a32cd" points="116.45,-85.56 126.76,-83.14 117.19,-78.6 116.45,-85.56"/>
<text text-anchor="middle" x="47" y="-51" font-family="Helvetica,sans-Serif" font-size="10.00"> left</text>
<text text-anchor="middle" x="47" y="-40" font-family="Helvetica,sans-Serif" font-size="10.00">right</text>
</g>
<!-- Node5 -->
<g id="node5" class="node">
<title>Node5</title>
<g id="a_node5"><a xlink:href="structast__subshell__t.html" target="_top" xlink:title=" ">
<polygon fill="white" stroke="#666666" points="182.5,-19 96.5,-19 96.5,0 182.5,0 182.5,-19"/>
<text text-anchor="middle" x="139.5" y="-7" font-family="Helvetica,sans-Serif" font-size="10.00">ast_subshell_t</text>
</a>
</g>
</g>
<!-- Node2&#45;&gt;Node5 -->
<g id="edge7" class="edge">
<title>Node2&#45;&gt;Node5</title>
<path fill="none" stroke="#9a32cd" stroke-dasharray="5,2" d="M136.91,-69.97C133.89,-66.7 131.23,-63.01 129.5,-59 123.79,-45.73 129.88,-28.99 134.74,-19.05"/>
<polygon fill="#9a32cd" stroke="#9a32cd" points="134.57,-72.58 144.29,-76.79 139.32,-67.43 134.57,-72.58"/>
<text text-anchor="middle" x="143.5" y="-45.5" font-family="Helvetica,sans-Serif" font-size="10.00"> node</text>
</g>
<!-- Node6 -->
<g id="node6" class="node">
<title>Node6</title>
<g id="a_node6"><a xlink:href="structast__redirect__t.html" target="_top" xlink:title=" ">
<polygon fill="white" stroke="#666666" points="317,-19 234,-19 234,0 317,0 317,-19"/>
<text text-anchor="middle" x="275.5" y="-7" font-family="Helvetica,sans-Serif" font-size="10.00">ast_redirect_t</text>
</a>
</g>
</g>
<!-- Node2&#45;&gt;Node6 -->
<g id="edge9" class="edge">
<title>Node2&#45;&gt;Node6</title>
<path fill="none" stroke="#9a32cd" stroke-dasharray="5,2" d="M186.52,-72.53C194.77,-68.5 203.64,-63.84 211.5,-59 231.68,-46.56 253.28,-29.26 265.52,-19.03"/>
<polygon fill="#9a32cd" stroke="#9a32cd" points="184.76,-69.49 177.23,-76.93 187.76,-75.81 184.76,-69.49"/>
<text text-anchor="middle" x="255.5" y="-45.5" font-family="Helvetica,sans-Serif" font-size="10.00"> node</text>
</g>
<!-- Node3 -->
<g id="node3" class="node">
<title>Node3</title>
<g id="a_node3"><a xlink:href="structast__cmd__t.html" target="_top" xlink:title=" ">
<polygon fill="white" stroke="#666666" points="242,-162 175,-162 175,-143 242,-143 242,-162"/>
<text text-anchor="middle" x="208.5" y="-150" font-family="Helvetica,sans-Serif" font-size="10.00">ast_cmd_t</text>
</a>
</g>
</g>
<!-- Node3&#45;&gt;Node2 -->
<g id="edge2" class="edge">
<title>Node3&#45;&gt;Node2</title>
<path fill="none" stroke="#9a32cd" stroke-dasharray="5,2" d="M195.17,-134.77C185.38,-122.49 172.48,-106.3 164.6,-96.41"/>
<polygon fill="#9a32cd" stroke="#9a32cd" points="192.65,-137.23 201.62,-142.87 198.13,-132.87 192.65,-137.23"/>
<text text-anchor="middle" x="198" y="-117" font-family="Helvetica,sans-Serif" font-size="10.00"> cmd</text>
</g>
<!-- Node4&#45;&gt;Node2 -->
<g id="edge3" class="edge">
<title>Node4&#45;&gt;Node2</title>
<path fill="none" stroke="#9a32cd" stroke-dasharray="5,2" d="M52.08,-26.71C61.45,-37.07 74.67,-50.16 88.5,-59 100.4,-66.6 114.81,-72.56 127.38,-76.89"/>
<polygon fill="#9a32cd" stroke="#9a32cd" points="54.67,-24.35 45.46,-19.12 49.4,-28.96 54.67,-24.35"/>
<text text-anchor="middle" x="105.5" y="-45.5" font-family="Helvetica,sans-Serif" font-size="10.00"> binary</text>
</g>
<!-- Node5&#45;&gt;Node2 -->
<g id="edge6" class="edge">
<title>Node5&#45;&gt;Node2</title>
<path fill="none" stroke="#9a32cd" stroke-dasharray="5,2" d="M156.1,-27.1C158.31,-30.17 160.24,-33.52 161.5,-37 166.32,-50.35 163.09,-67.07 160.3,-76.98"/>
<polygon fill="#9a32cd" stroke="#9a32cd" points="158.6,-24.64 149.47,-19.28 153.26,-29.17 158.6,-24.64"/>
<text text-anchor="middle" x="185.5" y="-45.5" font-family="Helvetica,sans-Serif" font-size="10.00"> subshell</text>
</g>
<!-- Node6&#45;&gt;Node2 -->
<g id="edge8" class="edge">
<title>Node6&#45;&gt;Node2</title>
<path fill="none" stroke="#9a32cd" stroke-dasharray="5,2" d="M282.7,-28.83C285.31,-38.77 286.2,-50.69 279.5,-59 268.24,-72.96 220.55,-79.95 188.24,-83.14"/>
<polygon fill="#9a32cd" stroke="#9a32cd" points="285.93,-27.47 279.46,-19.08 279.29,-29.68 285.93,-27.47"/>
<text text-anchor="middle" x="305" y="-45.5" font-family="Helvetica,sans-Serif" font-size="10.00"> redirect</text>
</g>
</g>
</svg>
