<?xml version="1.0" encoding="UTF-8" standalone="no"?>
<!DOCTYPE svg PUBLIC "-//W3C//DTD SVG 1.1//EN"
 "http://www.w3.org/Graphics/SVG/1.1/DTD/svg11.dtd">
<!-- Generated by graphviz version 2.43.0 (0)
 -->
<!-- Title: ast_subshell_t Pages: 1 -->
<svg width="325pt" height="170pt"
 viewBox="0.00 0.00 324.50 170.00" xmlns="http://www.w3.org/2000/svg" xmlns:xlink="http://www.w3.org/1999/xlink">
<g id="graph0" class="graph" transform="scale(1 1) rotate(0) translate(4 166)">
<title>ast_subshell_t</title>
<!-- Node1 -->
<g id="node1" class="node">
<title>Node1</title>
<g id="a_node1"><a xlink:title=" ">
<polygon fill="#999999" stroke="#666666" points="145.5,-162 59.5,-162 59.5,-143 145.5,-143 145.5,-162"/>
<text text-anchor="middle" x="102.5" y="-150" font-family="Helvetica,sans-Serif" font-size="10.00">ast_subshell_t</text>
</a>
</g>
</g>
<!-- Node2 -->
<g id="node2" class="node">
<title>Node2</title>
<g id="a_node2"><a xlink:href="structast__node.html" target="_top" xlink:title=" ">
<polygon fill="white" stroke="#666666" points="188,-96 127,-96 127,-77 188,-77 188,-96"/>
<text text-anchor="middle" x="157.5" y="-84" font-family="Helvetica,sans-Serif" font-size="10.00">ast_node</text>
</a>
</g>
</g>
<!-- Node1&#45;&gt;Node2 -->
<g id="edge7" class="edge">
<title>Node1&#45;&gt;Node2</title>
<path fill="none" stroke="#9a32cd" stroke-dasharray="5,2" d="M88.86,-134.5C85.17,-127.77 83.23,-120.19 87.5,-114 96.36,-101.17 112.3,-94.54 126.73,-91.13"/>
<polygon fill="#9a32cd" stroke="#9a32cd" points="86.07,-136.61 94.58,-142.92 91.86,-132.68 86.07,-136.61"/>
<text text-anchor="middle" x="109.5" y="-117" font-family="Helvetica,sans-Serif" font-size="10.00"> subshell</text>
</g>
<!-- Node2&#45;&gt;Node1 -->
<g id="edge1" class="edge">
<title>Node2&#45;&gt;Node1</title>
<path fill="none" stroke="#9a32cd" stroke-dasharray="5,2" d="M148.95,-105.02C145.3,-111.64 140.67,-119.01 135.5,-125 129.64,-131.78 121.87,-138.12 115.34,-142.9"/>
<polygon fill="#9a32cd" stroke="#9a32cd" points="152.08,-106.6 153.58,-96.12 145.86,-103.38 152.08,-106.6"/>
<text text-anchor="middle" x="156.5" y="-117" font-family="Helvetica,sans-Serif" font-size="10.00"> node</text>
</g>
<!-- Node4 -->
<g id="node4" class="node">
<title>Node4</title>
<g id="a_node4"><a xlink:href="structast__binary__t.html" target="_top" xlink:title=" ">
<polygon fill="white" stroke="#666666" points="77,-19 0,-19 0,0 77,0 77,-19"/>
<text text-anchor="middle" x="38.5" y="-7" font-family="Helvetica,sans-Serif" font-size="10.00">ast_binary_t</text>
</a>
</g>
</g>
<!-- Node2&#45;&gt;Node4 -->
<g id="edge4" class="edge">
<title>Node2&#45;&gt;Node4</title>
<path fill="none" stroke="#9a32cd" stroke-dasharray="5,2" d="M116.49,-82.05C85.14,-78.46 45.61,-71.55 35.5,-59 26.39,-47.7 30.88,-29.69 34.8,-19.09"/>
<polygon fill="#9a32cd" stroke="#9a32cd" points="116.45,-85.56 126.76,-83.14 117.19,-78.6 116.45,-85.56"/>
<text text-anchor="middle" x="47" y="-51" font-family="Helvetica,sans-Serif" font-size="10.00"> left</text>
<text text-anchor="middle" x="47" y="-40" font-family="Helvetica,sans-Serif" font-size="10.00">right</text>
</g>
<!-- Node5 -->
<g id="node5" class="node">
<title>Node5</title>
<g id="a_node5"><a xlink:href="structast__repeat__t.html" target="_top" xlink:title=" ">
<polygon fill="white" stroke="#666666" points="176,-19 99,-19 99,0 176,0 176,-19"/>
<text text-anchor="middle" x="137.5" y="-7" font-family="Helvetica,sans-Serif" font-size="10.00">ast_repeat_t</text>
</a>
</g>
</g>
<!-- Node2&#45;&gt;Node5 -->
<g id="edge6" class="edge">
<title>Node2&#45;&gt;Node5</title>
<path fill="none" stroke="#9a32cd" stroke-dasharray="5,2" d="M136.91,-69.97C133.89,-66.7 131.23,-63.01 129.5,-59 123.83,-45.83 129.05,-29.06 133.3,-19.08"/>
<polygon fill="#9a32cd" stroke="#9a32cd" points="134.57,-72.58 144.29,-76.79 139.32,-67.43 134.57,-72.58"/>
<text text-anchor="middle" x="143.5" y="-45.5" font-family="Helvetica,sans-Serif" font-size="10.00"> node</text>
</g>
<!-- Node6 -->
<g id="node6" class="node">
<title>Node6</title>
<g id="a_node6"><a xlink:href="structast__redirect__t.html" target="_top" xlink:title=" ">
<polygon fill="white" stroke="#666666" points="308,-19 225,-19 225,0 308,0 308,-19"/>
<text text-anchor="middle" x="266.5" y="-7" font-family="Helvetica,sans-Serif" font-size="10.00">ast_redirect_t</text>
</a>
</g>
</g>
<!-- Node2&#45;&gt;Node6 -->
<g id="edge9" class="edge">
<title>Node2&#45;&gt;Node6</title>
<path fill="none" stroke="#9a32cd" stroke-dasharray="5,2" d="M181.96,-71.79C188.71,-67.82 195.98,-63.37 202.5,-59 221.96,-45.96 243.44,-29.15 255.91,-19.13"/>
<polygon fill="#9a32cd" stroke="#9a32cd" points="180.09,-68.83 173.19,-76.86 183.6,-74.89 180.09,-68.83"/>
<text text-anchor="middle" x="246.5" y="-45.5" font-family="Helvetica,sans-Serif" font-size="10.00"> node</text>
</g>
<!-- Node3 -->
<g id="node3" class="node">
<title>Node3</title>
<g id="a_node3"><a xlink:href="structast__cmd__t.html" target="_top" xlink:title=" ">
<polygon fill="white" stroke="#666666" points="242,-162 175,-162 175,-143 242,-143 242,-162"/>
<text text-anchor="middle" x="208.5" y="-150" font-family="Helvetica,sans-Serif" font-size="10.00">ast_cmd_t</text>
</a>
</g>
</g>
<!-- Node3&#45;&gt;Node2 -->
<g id="edge2" class="edge">
<title>Node3&#45;&gt;Node2</title>
<path fill="none" stroke="#9a32cd" stroke-dasharray="5,2" d="M199.75,-134.15C196.07,-127.55 191.48,-120.15 186.5,-114 181.18,-107.43 174.21,-101 168.44,-96.13"/>
<polygon fill="#9a32cd" stroke="#9a32cd" points="196.67,-135.8 204.44,-142.99 202.85,-132.52 196.67,-135.8"/>
<text text-anchor="middle" x="206" y="-117" font-family="Helvetica,sans-Serif" font-size="10.00"> cmd</text>
</g>
<!-- Node4&#45;&gt;Node2 -->
<g id="edge3" class="edge">
<title>Node4&#45;&gt;Node2</title>
<path fill="none" stroke="#9a32cd" stroke-dasharray="5,2" d="M52.08,-26.71C61.45,-37.07 74.67,-50.16 88.5,-59 100.4,-66.6 114.81,-72.56 127.38,-76.89"/>
<polygon fill="#9a32cd" stroke="#9a32cd" points="54.67,-24.35 45.46,-19.12 49.4,-28.96 54.67,-24.35"/>
<text text-anchor="middle" x="105.5" y="-45.5" font-family="Helvetica,sans-Serif" font-size="10.00"> binary</text>
</g>
<!-- Node5&#45;&gt;Node2 -->
<g id="edge5" class="edge">
<title>Node5&#45;&gt;Node2</title>
<path fill="none" stroke="#9a32cd" stroke-dasharray="5,2" d="M155.37,-26.64C157.87,-29.81 160.08,-33.31 161.5,-37 166.61,-50.24 163.29,-66.99 160.4,-76.94"/>
<polygon fill="#9a32cd" stroke="#9a32cd" points="157.73,-24.04 148.35,-19.11 152.61,-28.81 157.73,-24.04"/>
<text text-anchor="middle" x="181" y="-45.5" font-family="Helvetica,sans-Serif" font-size="10.00"> repeat</text>
</g>
<!-- Node6&#45;&gt;Node2 -->
<g id="edge8" class="edge">
<title>Node6&#45;&gt;Node2</title>
<path fill="none" stroke="#9a32cd" stroke-dasharray="5,2" d="M273.64,-28.79C276.24,-38.72 277.13,-50.64 270.5,-59 260.39,-71.75 218.07,-78.96 188.19,-82.55"/>
<polygon fill="#9a32cd" stroke="#9a32cd" points="276.89,-27.46 270.42,-19.06 270.24,-29.65 276.89,-27.46"/>
<text text-anchor="middle" x="296" y="-45.5" font-family="Helvetica,sans-Serif" font-size="10.00"> redirect</text>
</g>
</g>
</svg>
