<?xml version="1.0" encoding="UTF-8" standalone="no"?>
<!DOCTYPE svg PUBLIC "-//W3C//DTD SVG 1.1//EN"
 "http://www.w3.org/Graphics/SVG/1.1/DTD/svg11.dtd">
<!-- Generated by graphviz version 2.43.0 (0)
 -->
<!-- Title: ast_node Pages: 1 -->
<svg width="445pt" height="170pt"
 viewBox="0.00 0.00 444.50 170.00" xmlns="http://www.w3.org/2000/svg" xmlns:xlink="http://www.w3.org/1999/xlink">
<g id="graph0" class="graph" transform="scale(1 1) rotate(0) translate(4 166)">
<title>ast_node</title>
<!-- Node1 -->
<g id="node1" class="node">
<title>Node1</title>
<g id="a_node1"><a xlink:title=" ">
<polygon fill="#999999" stroke="#666666" points="244,-96 183,-96 183,-77 244,-77 244,-96"/>
<text text-anchor="middle" x="213.5" y="-84" font-family="Helvetica,sans-Serif" font-size="10.00">ast_node</text>
</a>
</g>
</g>
<!-- Node3 -->
<g id="node3" class="node">
<title>Node3</title>
<g id="a_node3"><a xlink:href="structast__binary__t.html" target="_top" xlink:title=" ">
<polygon fill="white" stroke="#666666" points="77,-19 0,-19 0,0 77,0 77,-19"/>
<text text-anchor="middle" x="38.5" y="-7" font-family="Helvetica,sans-Serif" font-size="10.00">ast_binary_t</text>
</a>
</g>
</g>
<!-- Node1&#45;&gt;Node3 -->
<g id="edge3" class="edge">
<title>Node1&#45;&gt;Node3</title>
<path fill="none" stroke="#9a32cd" stroke-dasharray="5,2" d="M172.79,-85.27C126.34,-84.04 54.6,-78.87 37.5,-59 28.05,-48.02 31.75,-29.9 35.2,-19.19"/>
<polygon fill="#9a32cd" stroke="#9a32cd" points="172.78,-88.77 182.86,-85.49 172.93,-81.77 172.78,-88.77"/>
<text text-anchor="middle" x="49" y="-51" font-family="Helvetica,sans-Serif" font-size="10.00"> left</text>
<text text-anchor="middle" x="49" y="-40" font-family="Helvetica,sans-Serif" font-size="10.00">right</text>
</g>
<!-- Node4 -->
<g id="node4" class="node">
<title>Node4</title>
<g id="a_node4"><a xlink:href="structast__repeat__t.html" target="_top" xlink:title=" ">
<polygon fill="white" stroke="#666666" points="176,-19 99,-19 99,0 176,0 176,-19"/>
<text text-anchor="middle" x="137.5" y="-7" font-family="Helvetica,sans-Serif" font-size="10.00">ast_repeat_t</text>
</a>
</g>
</g>
<!-- Node1&#45;&gt;Node4 -->
<g id="edge5" class="edge">
<title>Node1&#45;&gt;Node4</title>
<path fill="none" stroke="#9a32cd" stroke-dasharray="5,2" d="M172.98,-81.65C158.43,-78.08 143.42,-71.4 134.5,-59 126.13,-47.36 130.2,-29.79 133.88,-19.3"/>
<polygon fill="#9a32cd" stroke="#9a32cd" points="172.41,-85.11 182.91,-83.66 173.8,-78.24 172.41,-85.11"/>
<text text-anchor="middle" x="148.5" y="-45.5" font-family="Helvetica,sans-Serif" font-size="10.00"> node</text>
</g>
<!-- Node5 -->
<g id="node5" class="node">
<title>Node5</title>
<g id="a_node5"><a xlink:href="structast__subshell__t.html" target="_top" xlink:title=" ">
<polygon fill="white" stroke="#666666" points="292.5,-19 206.5,-19 206.5,0 292.5,0 292.5,-19"/>
<text text-anchor="middle" x="249.5" y="-7" font-family="Helvetica,sans-Serif" font-size="10.00">ast_subshell_t</text>
</a>
</g>
</g>
<!-- Node1&#45;&gt;Node5 -->
<g id="edge7" class="edge">
<title>Node1&#45;&gt;Node5</title>
<path fill="none" stroke="#9a32cd" stroke-dasharray="5,2" d="M221.97,-67.86C229.35,-52.47 239.75,-30.82 245.42,-19"/>
<polygon fill="#9a32cd" stroke="#9a32cd" points="218.8,-66.37 217.63,-76.9 225.11,-69.4 218.8,-66.37"/>
<text text-anchor="middle" x="250.5" y="-45.5" font-family="Helvetica,sans-Serif" font-size="10.00"> node</text>
</g>
<!-- Node6 -->
<g id="node6" class="node">
<title>Node6</title>
<g id="a_node6"><a xlink:href="structast__redirect__t.html" target="_top" xlink:title=" ">
<polygon fill="white" stroke="#666666" points="427,-19 344,-19 344,0 427,0 427,-19"/>
<text text-anchor="middle" x="385.5" y="-7" font-family="Helvetica,sans-Serif" font-size="10.00">ast_redirect_t</text>
</a>
</g>
</g>
<!-- Node1&#45;&gt;Node6 -->
<g id="edge9" class="edge">
<title>Node1&#45;&gt;Node6</title>
<path fill="none" stroke="#9a32cd" stroke-dasharray="5,2" d="M254.16,-79.98C275.55,-76.03 301.76,-69.5 323.5,-59 344.91,-48.65 365.86,-29.97 377.08,-19.06"/>
<polygon fill="#9a32cd" stroke="#9a32cd" points="253.35,-76.56 244.09,-81.71 254.54,-83.46 253.35,-76.56"/>
<text text-anchor="middle" x="370.5" y="-45.5" font-family="Helvetica,sans-Serif" font-size="10.00"> node</text>
</g>
<!-- Node2 -->
<g id="node2" class="node">
<title>Node2</title>
<g id="a_node2"><a xlink:href="structast__cmd__t.html" target="_top" xlink:title=" ">
<polygon fill="white" stroke="#666666" points="247,-162 180,-162 180,-143 247,-143 247,-162"/>
<text text-anchor="middle" x="213.5" y="-150" font-family="Helvetica,sans-Serif" font-size="10.00">ast_cmd_t</text>
</a>
</g>
</g>
<!-- Node2&#45;&gt;Node1 -->
<g id="edge1" class="edge">
<title>Node2&#45;&gt;Node1</title>
<path fill="none" stroke="#9a32cd" stroke-dasharray="5,2" d="M213.5,-132.58C213.5,-120.63 213.5,-105.72 213.5,-96.41"/>
<polygon fill="#9a32cd" stroke="#9a32cd" points="210,-132.87 213.5,-142.87 217,-132.87 210,-132.87"/>
<text text-anchor="middle" x="226" y="-117" font-family="Helvetica,sans-Serif" font-size="10.00"> cmd</text>
</g>
<!-- Node3&#45;&gt;Node1 -->
<g id="edge2" class="edge">
<title>Node3&#45;&gt;Node1</title>
<path fill="none" stroke="#9a32cd" stroke-dasharray="5,2" d="M52.34,-26.7C62.4,-37.47 76.95,-51.03 92.5,-59 121.11,-73.67 157.57,-80.24 182.95,-83.17"/>
<polygon fill="#9a32cd" stroke="#9a32cd" points="54.85,-24.27 45.57,-19.16 49.64,-28.94 54.85,-24.27"/>
<text text-anchor="middle" x="109.5" y="-45.5" font-family="Helvetica,sans-Serif" font-size="10.00"> binary</text>
</g>
<!-- Node4&#45;&gt;Node1 -->
<g id="edge4" class="edge">
<title>Node4&#45;&gt;Node1</title>
<path fill="none" stroke="#9a32cd" stroke-dasharray="5,2" d="M153.5,-26.29C169.12,-41.7 192.3,-64.58 204.78,-76.9"/>
<polygon fill="#9a32cd" stroke="#9a32cd" points="155.69,-23.54 146.12,-19 150.78,-28.52 155.69,-23.54"/>
<text text-anchor="middle" x="203" y="-45.5" font-family="Helvetica,sans-Serif" font-size="10.00"> repeat</text>
</g>
<!-- Node5&#45;&gt;Node1 -->
<g id="edge6" class="edge">
<title>Node5&#45;&gt;Node1</title>
<path fill="none" stroke="#9a32cd" stroke-dasharray="5,2" d="M266.1,-27.1C268.31,-30.17 270.24,-33.52 271.5,-37 274.82,-46.2 276.79,-50.77 271.5,-59 265.34,-68.59 254.74,-74.76 244.28,-78.7"/>
<polygon fill="#9a32cd" stroke="#9a32cd" points="268.6,-24.64 259.47,-19.28 263.26,-29.17 268.6,-24.64"/>
<text text-anchor="middle" x="297.5" y="-45.5" font-family="Helvetica,sans-Serif" font-size="10.00"> subshell</text>
</g>
<!-- Node6&#45;&gt;Node1 -->
<g id="edge8" class="edge">
<title>Node6&#45;&gt;Node1</title>
<path fill="none" stroke="#9a32cd" stroke-dasharray="5,2" d="M392.81,-28.68C395.56,-38.74 396.54,-50.83 389.5,-59 371.11,-80.37 289.49,-84.74 244.14,-85.49"/>
<polygon fill="#9a32cd" stroke="#9a32cd" points="396.11,-27.52 389.57,-19.18 389.49,-29.78 396.11,-27.52"/>
<text text-anchor="middle" x="416" y="-45.5" font-family="Helvetica,sans-Serif" font-size="10.00"> redirect</text>
</g>
</g>
</svg>
