<?xml version="1.0" encoding="UTF-8" standalone="no"?>
<!DOCTYPE svg PUBLIC "-//W3C//DTD SVG 1.1//EN"
 "http://www.w3.org/Graphics/SVG/1.1/DTD/svg11.dtd">
<!-- Generated by graphviz version 2.43.0 (0)
 -->
<!-- Title: ast_binary_t Pages: 1 -->
<svg width="335pt" height="170pt"
 viewBox="0.00 0.00 334.50 170.00" xmlns="http://www.w3.org/2000/svg" xmlns:xlink="http://www.w3.org/1999/xlink">
<g id="graph0" class="graph" transform="scale(1 1) rotate(0) translate(4 166)">
<title>ast_binary_t</title>
<!-- Node1 -->
<g id="node1" class="node">
<title>Node1</title>
<g id="a_node1"><a xlink:title=" ">
<polygon fill="#999999" stroke="#666666" points="149,-162 72,-162 72,-143 149,-143 149,-162"/>
<text text-anchor="middle" x="110.5" y="-150" font-family="Helvetica,sans-Serif" font-size="10.00">ast_binary_t</text>
</a>
</g>
</g>
<!-- Node2 -->
<g id="node2" class="node">
<title>Node2</title>
<g id="a_node2"><a xlink:href="structast__node.html" target="_top" xlink:title=" ">
<polygon fill="white" stroke="#666666" points="191,-85 130,-85 130,-66 191,-66 191,-85"/>
<text text-anchor="middle" x="160.5" y="-73" font-family="Helvetica,sans-Serif" font-size="10.00">ast_node</text>
</a>
</g>
</g>
<!-- Node1&#45;&gt;Node2 -->
<g id="edge3" class="edge">
<title>Node1&#45;&gt;Node2</title>
<path fill="none" stroke="#9a32cd" stroke-dasharray="5,2" d="M100.82,-133.74C96.92,-124 94.58,-112.09 100.5,-103 107.15,-92.79 118.72,-86.49 129.94,-82.61"/>
<polygon fill="#9a32cd" stroke="#9a32cd" points="97.72,-135.37 105.17,-142.9 104.05,-132.37 97.72,-135.37"/>
<text text-anchor="middle" x="117.5" y="-111.5" font-family="Helvetica,sans-Serif" font-size="10.00"> binary</text>
</g>
<!-- Node2&#45;&gt;Node1 -->
<g id="edge1" class="edge">
<title>Node2&#45;&gt;Node1</title>
<path fill="none" stroke="#9a32cd" stroke-dasharray="5,2" d="M154.12,-94.89C150.36,-104.36 145.05,-115.81 138.5,-125 133.76,-131.65 127.18,-137.98 121.59,-142.78"/>
<polygon fill="#9a32cd" stroke="#9a32cd" points="157.49,-95.86 157.69,-85.27 150.92,-93.43 157.49,-95.86"/>
<text text-anchor="middle" x="162" y="-117" font-family="Helvetica,sans-Serif" font-size="10.00"> left</text>
<text text-anchor="middle" x="162" y="-106" font-family="Helvetica,sans-Serif" font-size="10.00">right</text>
</g>
<!-- Node4 -->
<g id="node4" class="node">
<title>Node4</title>
<g id="a_node4"><a xlink:href="structast__repeat__t.html" target="_top" xlink:title=" ">
<polygon fill="white" stroke="#666666" points="77,-19 0,-19 0,0 77,0 77,-19"/>
<text text-anchor="middle" x="38.5" y="-7" font-family="Helvetica,sans-Serif" font-size="10.00">ast_repeat_t</text>
</a>
</g>
</g>
<!-- Node2&#45;&gt;Node4 -->
<g id="edge5" class="edge">
<title>Node2&#45;&gt;Node4</title>
<path fill="none" stroke="#9a32cd" stroke-dasharray="5,2" d="M119.82,-70.23C90.27,-66.25 53.74,-59.21 43.5,-48 36.41,-40.24 36.23,-27.53 37.09,-19.09"/>
<polygon fill="#9a32cd" stroke="#9a32cd" points="119.57,-73.72 129.93,-71.51 120.45,-66.78 119.57,-73.72"/>
<text text-anchor="middle" x="57.5" y="-40" font-family="Helvetica,sans-Serif" font-size="10.00"> node</text>
</g>
<!-- Node5 -->
<g id="node5" class="node">
<title>Node5</title>
<g id="a_node5"><a xlink:href="structast__subshell__t.html" target="_top" xlink:title=" ">
<polygon fill="white" stroke="#666666" points="185.5,-19 99.5,-19 99.5,0 185.5,0 185.5,-19"/>
<text text-anchor="middle" x="142.5" y="-7" font-family="Helvetica,sans-Serif" font-size="10.00">ast_subshell_t</text>
</a>
</g>
</g>
<!-- Node2&#45;&gt;Node5 -->
<g id="edge7" class="edge">
<title>Node2&#45;&gt;Node5</title>
<path fill="none" stroke="#9a32cd" stroke-dasharray="5,2" d="M139.91,-58.97C136.89,-55.7 134.23,-52.01 132.5,-48 128.4,-38.47 132.85,-26.83 137.05,-19.08"/>
<polygon fill="#9a32cd" stroke="#9a32cd" points="137.57,-61.58 147.29,-65.79 142.32,-56.43 137.57,-61.58"/>
<text text-anchor="middle" x="146.5" y="-40" font-family="Helvetica,sans-Serif" font-size="10.00"> node</text>
</g>
<!-- Node6 -->
<g id="node6" class="node">
<title>Node6</title>
<g id="a_node6"><a xlink:href="structast__redirect__t.html" target="_top" xlink:title=" ">
<polygon fill="white" stroke="#666666" points="320,-19 237,-19 237,0 320,0 320,-19"/>
<text text-anchor="middle" x="278.5" y="-7" font-family="Helvetica,sans-Serif" font-size="10.00">ast_redirect_t</text>
</a>
</g>
</g>
<!-- Node2&#45;&gt;Node6 -->
<g id="edge9" class="edge">
<title>Node2&#45;&gt;Node6</title>
<path fill="none" stroke="#9a32cd" stroke-dasharray="5,2" d="M187.35,-61.46C195.78,-57.27 205.07,-52.53 213.5,-48 231.17,-38.5 251.1,-26.86 264.18,-19.09"/>
<polygon fill="#9a32cd" stroke="#9a32cd" points="185.72,-58.36 178.3,-65.93 188.82,-64.64 185.72,-58.36"/>
<text text-anchor="middle" x="246.5" y="-40" font-family="Helvetica,sans-Serif" font-size="10.00"> node</text>
</g>
<!-- Node3 -->
<g id="node3" class="node">
<title>Node3</title>
<g id="a_node3"><a xlink:href="structast__cmd__t.html" target="_top" xlink:title=" ">
<polygon fill="white" stroke="#666666" points="240,-162 173,-162 173,-143 240,-143 240,-162"/>
<text text-anchor="middle" x="206.5" y="-150" font-family="Helvetica,sans-Serif" font-size="10.00">ast_cmd_t</text>
</a>
</g>
</g>
<!-- Node3&#45;&gt;Node2 -->
<g id="edge2" class="edge">
<title>Node3&#45;&gt;Node2</title>
<path fill="none" stroke="#9a32cd" stroke-dasharray="5,2" d="M199.82,-133.31C195.98,-123.9 190.69,-112.43 184.5,-103 180.28,-96.57 174.51,-90.15 169.69,-85.24"/>
<polygon fill="#9a32cd" stroke="#9a32cd" points="196.64,-134.79 203.51,-142.85 203.17,-132.26 196.64,-134.79"/>
<text text-anchor="middle" x="208" y="-111.5" font-family="Helvetica,sans-Serif" font-size="10.00"> cmd</text>
</g>
<!-- Node4&#45;&gt;Node2 -->
<g id="edge4" class="edge">
<title>Node4&#45;&gt;Node2</title>
<path fill="none" stroke="#9a32cd" stroke-dasharray="5,2" d="M57.15,-25.42C66.98,-32.84 79.48,-41.57 91.5,-48 104.85,-55.14 120.55,-61.33 133.6,-65.93"/>
<polygon fill="#9a32cd" stroke="#9a32cd" points="59,-22.44 48.95,-19.09 54.72,-27.97 59,-22.44"/>
<text text-anchor="middle" x="109" y="-40" font-family="Helvetica,sans-Serif" font-size="10.00"> repeat</text>
</g>
<!-- Node5&#45;&gt;Node2 -->
<g id="edge6" class="edge">
<title>Node5&#45;&gt;Node2</title>
<path fill="none" stroke="#9a32cd" stroke-dasharray="5,2" d="M159.1,-27.1C161.31,-30.17 163.24,-33.52 164.5,-37 167.92,-46.48 165.78,-58.13 163.53,-65.9"/>
<polygon fill="#9a32cd" stroke="#9a32cd" points="161.6,-24.64 152.47,-19.28 156.26,-29.17 161.6,-24.64"/>
<text text-anchor="middle" x="187.5" y="-40" font-family="Helvetica,sans-Serif" font-size="10.00"> subshell</text>
</g>
<!-- Node6&#45;&gt;Node2 -->
<g id="edge8" class="edge">
<title>Node6&#45;&gt;Node2</title>
<path fill="none" stroke="#9a32cd" stroke-dasharray="5,2" d="M285.59,-28.91C286.91,-35.56 286.76,-42.71 282.5,-48 271.24,-61.96 223.55,-68.95 191.24,-72.14"/>
<polygon fill="#9a32cd" stroke="#9a32cd" points="288.91,-27.8 282.66,-19.24 282.21,-29.82 288.91,-27.8"/>
<text text-anchor="middle" x="306" y="-40" font-family="Helvetica,sans-Serif" font-size="10.00"> redirect</text>
</g>
</g>
</svg>
