<?xml version="1.0" encoding="UTF-8" standalone="no"?>
<!DOCTYPE svg PUBLIC "-//W3C//DTD SVG 1.1//EN"
 "http://www.w3.org/Graphics/SVG/1.1/DTD/svg11.dtd">
<!-- Generated by graphviz version 2.43.0 (0)
 -->
<!-- Title: ast_redirect_t Pages: 1 -->
<svg width="329pt" height="170pt"
 viewBox="0.00 0.00 328.50 170.00" xmlns="http://www.w3.org/2000/svg" xmlns:xlink="http://www.w3.org/1999/xlink">
<g id="graph0" class="graph" transform="scale(1 1) rotate(0) translate(4 166)">
<title>ast_redirect_t</title>
<!-- Node1 -->
<g id="node1" class="node">
<title>Node1</title>
<g id="a_node1"><a xlink:title=" ">
<polygon fill="#999999" stroke="#666666" points="147,-162 64,-162 64,-143 147,-143 147,-162"/>
<text text-anchor="middle" x="105.5" y="-150" font-family="Helvetica,sans-Serif" font-size="10.00">ast_redirect_t</text>
</a>
</g>
</g>
<!-- Node2 -->
<g id="node2" class="node">
<title>Node2</title>
<g id="a_node2"><a xlink:href="structast__node.html" target="_top" xlink:title=" ">
<polygon fill="white" stroke="#666666" points="189,-96 128,-96 128,-77 189,-77 189,-96"/>
<text text-anchor="middle" x="158.5" y="-84" font-family="Helvetica,sans-Serif" font-size="10.00">ast_node</text>
</a>
</g>
</g>
<!-- Node1&#45;&gt;Node2 -->
<g id="edge9" class="edge">
<title>Node1&#45;&gt;Node2</title>
<path fill="none" stroke="#9a32cd" stroke-dasharray="5,2" d="M92.57,-134.47C89.09,-127.74 87.31,-120.16 91.5,-114 99.73,-101.9 114.43,-95.32 127.97,-91.75"/>
<polygon fill="#9a32cd" stroke="#9a32cd" points="89.63,-136.37 97.97,-142.91 95.52,-132.6 89.63,-136.37"/>
<text text-anchor="middle" x="112" y="-117" font-family="Helvetica,sans-Serif" font-size="10.00"> redirect</text>
</g>
<!-- Node2&#45;&gt;Node1 -->
<g id="edge1" class="edge">
<title>Node2&#45;&gt;Node1</title>
<path fill="none" stroke="#9a32cd" stroke-dasharray="5,2" d="M149.86,-104.94C146.19,-111.55 141.58,-118.93 136.5,-125 130.86,-131.73 123.41,-138.16 117.23,-143"/>
<polygon fill="#9a32cd" stroke="#9a32cd" points="152.97,-106.54 154.51,-96.06 146.77,-103.29 152.97,-106.54"/>
<text text-anchor="middle" x="157.5" y="-117" font-family="Helvetica,sans-Serif" font-size="10.00"> node</text>
</g>
<!-- Node4 -->
<g id="node4" class="node">
<title>Node4</title>
<g id="a_node4"><a xlink:href="structast__binary__t.html" target="_top" xlink:title=" ">
<polygon fill="white" stroke="#666666" points="77,-19 0,-19 0,0 77,0 77,-19"/>
<text text-anchor="middle" x="38.5" y="-7" font-family="Helvetica,sans-Serif" font-size="10.00">ast_binary_t</text>
</a>
</g>
</g>
<!-- Node2&#45;&gt;Node4 -->
<g id="edge4" class="edge">
<title>Node2&#45;&gt;Node4</title>
<path fill="none" stroke="#9a32cd" stroke-dasharray="5,2" d="M117.49,-82.05C86.14,-78.46 46.61,-71.55 36.5,-59 27.4,-47.72 31.43,-29.7 35.06,-19.09"/>
<polygon fill="#9a32cd" stroke="#9a32cd" points="117.45,-85.56 127.76,-83.14 118.19,-78.6 117.45,-85.56"/>
<text text-anchor="middle" x="48" y="-51" font-family="Helvetica,sans-Serif" font-size="10.00"> left</text>
<text text-anchor="middle" x="48" y="-40" font-family="Helvetica,sans-Serif" font-size="10.00">right</text>
</g>
<!-- Node5 -->
<g id="node5" class="node">
<title>Node5</title>
<g id="a_node5"><a xlink:href="structast__repeat__t.html" target="_top" xlink:title=" ">
<polygon fill="white" stroke="#666666" points="176,-19 99,-19 99,0 176,0 176,-19"/>
<text text-anchor="middle" x="137.5" y="-7" font-family="Helvetica,sans-Serif" font-size="10.00">ast_repeat_t</text>
</a>
</g>
</g>
<!-- Node2&#45;&gt;Node5 -->
<g id="edge6" class="edge">
<title>Node2&#45;&gt;Node5</title>
<path fill="none" stroke="#9a32cd" stroke-dasharray="5,2" d="M137.91,-69.97C134.89,-66.7 132.23,-63.01 130.5,-59 124.85,-45.87 129.63,-29.09 133.58,-19.1"/>
<polygon fill="#9a32cd" stroke="#9a32cd" points="135.57,-72.58 145.29,-76.79 140.32,-67.43 135.57,-72.58"/>
<text text-anchor="middle" x="144.5" y="-45.5" font-family="Helvetica,sans-Serif" font-size="10.00"> node</text>
</g>
<!-- Node6 -->
<g id="node6" class="node">
<title>Node6</title>
<g id="a_node6"><a xlink:href="structast__subshell__t.html" target="_top" xlink:title=" ">
<polygon fill="white" stroke="#666666" points="310.5,-19 224.5,-19 224.5,0 310.5,0 310.5,-19"/>
<text text-anchor="middle" x="267.5" y="-7" font-family="Helvetica,sans-Serif" font-size="10.00">ast_subshell_t</text>
</a>
</g>
</g>
<!-- Node2&#45;&gt;Node6 -->
<g id="edge8" class="edge">
<title>Node2&#45;&gt;Node6</title>
<path fill="none" stroke="#9a32cd" stroke-dasharray="5,2" d="M182.96,-71.79C189.71,-67.82 196.98,-63.37 203.5,-59 222.96,-45.96 244.44,-29.15 256.91,-19.13"/>
<polygon fill="#9a32cd" stroke="#9a32cd" points="181.09,-68.83 174.19,-76.86 184.6,-74.89 181.09,-68.83"/>
<text text-anchor="middle" x="247.5" y="-45.5" font-family="Helvetica,sans-Serif" font-size="10.00"> node</text>
</g>
<!-- Node3 -->
<g id="node3" class="node">
<title>Node3</title>
<g id="a_node3"><a xlink:href="structast__cmd__t.html" target="_top" xlink:title=" ">
<polygon fill="white" stroke="#666666" points="243,-162 176,-162 176,-143 243,-143 243,-162"/>
<text text-anchor="middle" x="209.5" y="-150" font-family="Helvetica,sans-Serif" font-size="10.00">ast_cmd_t</text>
</a>
</g>
</g>
<!-- Node3&#45;&gt;Node2 -->
<g id="edge2" class="edge">
<title>Node3&#45;&gt;Node2</title>
<path fill="none" stroke="#9a32cd" stroke-dasharray="5,2" d="M200.75,-134.15C197.07,-127.55 192.48,-120.15 187.5,-114 182.18,-107.43 175.21,-101 169.44,-96.13"/>
<polygon fill="#9a32cd" stroke="#9a32cd" points="197.67,-135.8 205.44,-142.99 203.85,-132.52 197.67,-135.8"/>
<text text-anchor="middle" x="207" y="-117" font-family="Helvetica,sans-Serif" font-size="10.00"> cmd</text>
</g>
<!-- Node4&#45;&gt;Node2 -->
<g id="edge3" class="edge">
<title>Node4&#45;&gt;Node2</title>
<path fill="none" stroke="#9a32cd" stroke-dasharray="5,2" d="M52.41,-26.69C61.99,-37.05 75.48,-50.14 89.5,-59 101.54,-66.61 116.11,-72.6 128.76,-76.95"/>
<polygon fill="#9a32cd" stroke="#9a32cd" points="54.91,-24.23 45.63,-19.11 49.69,-28.9 54.91,-24.23"/>
<text text-anchor="middle" x="106.5" y="-45.5" font-family="Helvetica,sans-Serif" font-size="10.00"> binary</text>
</g>
<!-- Node5&#45;&gt;Node2 -->
<g id="edge5" class="edge">
<title>Node5&#45;&gt;Node2</title>
<path fill="none" stroke="#9a32cd" stroke-dasharray="5,2" d="M155.87,-26.27C158.58,-29.52 160.97,-33.14 162.5,-37 167.74,-50.19 164.38,-66.96 161.45,-76.92"/>
<polygon fill="#9a32cd" stroke="#9a32cd" points="158.29,-23.73 148.8,-19.02 153.28,-28.62 158.29,-23.73"/>
<text text-anchor="middle" x="182" y="-45.5" font-family="Helvetica,sans-Serif" font-size="10.00"> repeat</text>
</g>
<!-- Node6&#45;&gt;Node2 -->
<g id="edge7" class="edge">
<title>Node6&#45;&gt;Node2</title>
<path fill="none" stroke="#9a32cd" stroke-dasharray="5,2" d="M274.64,-28.79C277.24,-38.72 278.13,-50.64 271.5,-59 261.39,-71.75 219.07,-78.96 189.19,-82.55"/>
<polygon fill="#9a32cd" stroke="#9a32cd" points="277.89,-27.46 271.42,-19.06 271.24,-29.65 277.89,-27.46"/>
<text text-anchor="middle" x="298.5" y="-45.5" font-family="Helvetica,sans-Serif" font-size="10.00"> subshell</text>
</g>
</g>
</svg>
