<?xml version="1.0" encoding="UTF-8" standalone="no"?>
<!DOCTYPE svg PUBLIC "-//W3C//DTD SVG 1.1//EN"
 "http://www.w3.org/Graphics/SVG/1.1/DTD/svg11.dtd">
<!-- Generated by graphviz version 2.43.0 (0)
 -->
<!-- Title: builtin_t Pages: 1 -->
<svg width="117pt" height="181pt"
 viewBox="0.00 0.00 117.00 181.00" xmlns="http://www.w3.org/2000/svg" xmlns:xlink="http://www.w3.org/1999/xlink">
<g id="graph0" class="graph" transform="scale(1 1) rotate(0) translate(4 177)">
<title>builtin_t</title>
<!-- Node1 -->
<g id="node1" class="node">
<title>Node1</title>
<g id="a_node1"><a xlink:title=" ">
<polygon fill="#999999" stroke="#666666" points="61,-19 5,-19 5,0 61,0 61,-19"/>
<text text-anchor="middle" x="33" y="-7" font-family="Helvetica,sans-Serif" font-size="10.00">builtin_t</text>
</a>
</g>
</g>
<!-- Node2 -->
<g id="node2" class="node">
<title>Node2</title>
<g id="a_node2"><a xlink:href="structshell.html" target="_top" xlink:title=" ">
<polygon fill="white" stroke="#666666" points="53,-85 13,-85 13,-66 53,-66 53,-85"/>
<text text-anchor="middle" x="33" y="-73" font-family="Helvetica,sans-Serif" font-size="10.00">shell</text>
</a>
</g>
</g>
<!-- Node2&#45;&gt;Node1 -->
<g id="edge1" class="edge">
<title>Node2&#45;&gt;Node1</title>
<path fill="none" stroke="#9a32cd" stroke-dasharray="5,2" d="M33,-55.58C33,-43.63 33,-28.72 33,-19.41"/>
<polygon fill="#9a32cd" stroke="#9a32cd" points="29.5,-55.87 33,-65.87 36.5,-55.87 29.5,-55.87"/>
<text text-anchor="middle" x="45.5" y="-40" font-family="Helvetica,sans-Serif" font-size="10.00"> func</text>
</g>
<!-- Node3 -->
<g id="node3" class="node">
<title>Node3</title>
<g id="a_node3"><a xlink:href="structlinked__list.html" target="_top" xlink:title=" ">
<polygon fill="white" stroke="#666666" points="66,-173 0,-173 0,-154 66,-154 66,-173"/>
<text text-anchor="middle" x="33" y="-161" font-family="Helvetica,sans-Serif" font-size="10.00">linked_list</text>
</a>
</g>
</g>
<!-- Node3&#45;&gt;Node2 -->
<g id="edge2" class="edge">
<title>Node3&#45;&gt;Node2</title>
<path fill="none" stroke="#9a32cd" stroke-dasharray="5,2" d="M33,-143.91C33,-125.67 33,-98.65 33,-85.03"/>
<polygon fill="#9a32cd" stroke="#9a32cd" points="29.5,-143.94 33,-153.94 36.5,-143.94 29.5,-143.94"/>
<text text-anchor="middle" x="56" y="-128" font-family="Helvetica,sans-Serif" font-size="10.00"> aliases</text>
<text text-anchor="middle" x="56" y="-117" font-family="Helvetica,sans-Serif" font-size="10.00">env</text>
<text text-anchor="middle" x="56" y="-106" font-family="Helvetica,sans-Serif" font-size="10.00">variables</text>
</g>
<!-- Node3&#45;&gt;Node3 -->
<g id="edge3" class="edge">
<title>Node3&#45;&gt;Node3</title>
<path fill="none" stroke="#9a32cd" stroke-dasharray="5,2" d="M76.3,-170.4C80.98,-169.08 84,-166.78 84,-163.5 84,-158.26 76.28,-155.51 66.35,-155.27"/>
<polygon fill="#9a32cd" stroke="#9a32cd" points="75.8,-166.94 66.35,-171.73 76.73,-173.87 75.8,-166.94"/>
<text text-anchor="middle" x="96.5" y="-161" font-family="Helvetica,sans-Serif" font-size="10.00"> next</text>
</g>
</g>
</svg>
