<?xml version="1.0" encoding="UTF-8" standalone="no"?>
<!DOCTYPE svg PUBLIC "-//W3C//DTD SVG 1.1//EN"
 "http://www.w3.org/Graphics/SVG/1.1/DTD/svg11.dtd">
<!-- Generated by graphviz version 2.43.0 (0)
 -->
<!-- Title: include/token.h Pages: 1 -->
<!--zoomable 214 -->
<svg id="main" version="1.1" xmlns="http://www.w3.org/2000/svg" xmlns:xlink="http://www.w3.org/1999/xlink" xml:space="preserve" onload="init(evt)">
<style type="text/css"><![CDATA[
.edge:hover path { stroke: red; }
.edge:hover polygon { stroke: red; fill: red; }
]]></style>
<script type="text/javascript"><![CDATA[
var edges = document.getElementsByTagName('g');
if (edges && edges.length) {
  for (var i=0;i<edges.length;i++) {
    if (edges[i].id.substr(0,4)=='edge') {
      edges[i].setAttribute('class','edge');
    }
  }
}
]]></script>
        <defs>
                <circle id="rim" cx="0" cy="0" r="7"/>
                <circle id="rim2" cx="0" cy="0" r="3.5"/>
                <g id="zoomPlus">
                        <use xlink:href="#rim" fill="#404040">
                                <set attributeName="fill" to="#808080" begin="zoomplus.mouseover" end="zoomplus.mouseout"/>
                        </use>
                        <path d="M-4,0h8M0,-4v8" fill="none" stroke="white" stroke-width="1.5" pointer-events="none"/>
                </g>
                <g id="zoomMin">
                        <use xlink:href="#rim" fill="#404040">
                                <set attributeName="fill" to="#808080" begin="zoomminus.mouseover" end="zoomminus.mouseout"/>
                        </use>
                        <path d="M-4,0h8" fill="none" stroke="white" stroke-width="1.5" pointer-events="none"/>
                </g>
                <g id="dirArrow">
                        <path fill="none" stroke="white" stroke-width="1.5" d="M0,-3.0v7 M-2.5,-0.5L0,-3.0L2.5,-0.5"/>
                </g>
               <g id="resetDef">
                       <use xlink:href="#rim2" fill="#404040">
                               <set attributeName="fill" to="#808080" begin="reset.mouseover" end="reset.mouseout"/>
                       </use>
               </g>
        </defs>

<script type="text/javascript">
var viewWidth = 3321;
var viewHeight = 214;
var sectionId = 'dynsection-0';
</script>
<script xlink:href="svgpan.js"/>
<svg id="graph" class="graph">
<g id="viewport">
<title>include/token.h</title>
<!-- Node1 -->
<g id="node1" class="node">
<title>Node1</title>
<g id="a_node1"><a xlink:title=" ">
<polygon fill="#999999" stroke="#666666" points="2254.33,-206 2163.33,-206 2163.33,-187 2254.33,-187 2254.33,-206"/>
<text text-anchor="middle" x="2208.83" y="-194" font-family="Helvetica,sans-Serif" font-size="10.00">include/token.h</text>
</a>
</g>
</g>
<!-- Node2 -->
<g id="node2" class="node">
<title>Node2</title>
<g id="a_node2"><a xlink:href="lexer_8h.html" target="_top" xlink:title=" ">
<polygon fill="white" stroke="#666666" points="1388.33,-151 1301.33,-151 1301.33,-132 1388.33,-132 1388.33,-151"/>
<text text-anchor="middle" x="1344.83" y="-139" font-family="Helvetica,sans-Serif" font-size="10.00">include/lexer.h</text>
</a>
</g>
</g>
<!-- Node1&#45;&gt;Node2 -->
<g id="edge1" class="edge">
<title>Node1&#45;&gt;Node2</title>
<path fill="none" stroke="#63b8ff" d="M2153.18,-192.09C1992.93,-182.26 1532.69,-154.02 1388.54,-145.18"/>
<polygon fill="#63b8ff" stroke="#63b8ff" points="2153.1,-195.59 2163.3,-192.71 2153.53,-188.6 2153.1,-195.59"/>
</g>
<!-- Node3 -->
<g id="node3" class="node">
<title>Node3</title>
<g id="a_node3"><a xlink:href="parser_8h.html" target="_top" xlink:title=" ">
<polygon fill="white" stroke="#666666" points="730.83,-90.5 636.83,-90.5 636.83,-71.5 730.83,-71.5 730.83,-90.5"/>
<text text-anchor="middle" x="683.83" y="-78.5" font-family="Helvetica,sans-Serif" font-size="10.00">include/parser.h</text>
</a>
</g>
</g>
<!-- Node1&#45;&gt;Node3 -->
<g id="edge38" class="edge">
<title>Node1&#45;&gt;Node3</title>
<path fill="none" stroke="#63b8ff" d="M2152.63,-194.44C2009.02,-191.38 1617.02,-180.75 1291.83,-151 1228.86,-145.24 1213.68,-138.98 1150.83,-132 968.59,-111.75 920.67,-126.33 739.83,-96 731.43,-94.59 722.44,-92.57 714.17,-90.51"/>
<polygon fill="#63b8ff" stroke="#63b8ff" points="2152.87,-197.95 2162.94,-194.66 2153.01,-190.95 2152.87,-197.95"/>
</g>
<!-- Node4 -->
<g id="node4" class="node">
<title>Node4</title>
<g id="a_node4"><a xlink:href="parser__destroy_8c.html" target="_top" xlink:title=" ">
<polygon fill="white" stroke="#666666" points="219.33,-24.5 72.33,-24.5 72.33,-5.5 219.33,-5.5 219.33,-24.5"/>
<text text-anchor="middle" x="145.83" y="-12.5" font-family="Helvetica,sans-Serif" font-size="10.00">src/parser/parser_destroy.c</text>
</a>
</g>
</g>
<!-- Node1&#45;&gt;Node4 -->
<g id="edge53" class="edge">
<title>Node1&#45;&gt;Node4</title>
<path fill="none" stroke="#63b8ff" d="M2152.78,-195.17C1882.86,-193.43 715.31,-184.09 352.83,-151 198.21,-136.89 108.61,-214.12 7.83,-96 -22.99,-59.87 49.42,-36.24 100.58,-24.59"/>
<polygon fill="#63b8ff" stroke="#63b8ff" points="2153.09,-198.67 2163.11,-195.24 2153.13,-191.67 2153.09,-198.67"/>
</g>
<!-- Node6 -->
<g id="node6" class="node">
<title>Node6</title>
<g id="a_node6"><a xlink:href="parser__next_8c.html" target="_top" xlink:title=" ">
<polygon fill="white" stroke="#666666" points="1411.83,-24.5 1277.83,-24.5 1277.83,-5.5 1411.83,-5.5 1411.83,-24.5"/>
<text text-anchor="middle" x="1344.83" y="-12.5" font-family="Helvetica,sans-Serif" font-size="10.00">src/parser/parser_next.c</text>
</a>
</g>
</g>
<!-- Node1&#45;&gt;Node6 -->
<g id="edge54" class="edge">
<title>Node1&#45;&gt;Node6</title>
<path fill="none" stroke="#63b8ff" d="M2264.94,-191.14C2415.57,-178.41 2812.93,-137.61 2743.83,-66 2737.98,-59.93 1690.21,-26.79 1412,-18.09"/>
<polygon fill="#63b8ff" stroke="#63b8ff" points="2264.2,-187.69 2254.53,-192.01 2264.78,-194.66 2264.2,-187.69"/>
</g>
<!-- Node7 -->
<g id="node7" class="node">
<title>Node7</title>
<g id="a_node7"><a xlink:href="parser__parse_8c.html" target="_top" xlink:title=" ">
<polygon fill="white" stroke="#666666" points="1940.33,-24.5 1801.33,-24.5 1801.33,-5.5 1940.33,-5.5 1940.33,-24.5"/>
<text text-anchor="middle" x="1870.83" y="-12.5" font-family="Helvetica,sans-Serif" font-size="10.00">src/parser/parser_parse.c</text>
</a>
</g>
</g>
<!-- Node1&#45;&gt;Node7 -->
<g id="edge55" class="edge">
<title>Node1&#45;&gt;Node7</title>
<path fill="none" stroke="#63b8ff" d="M2265.02,-195.32C2401.63,-194.32 2742.55,-188.07 2776.83,-151 2802.48,-123.26 2802.8,-93.44 2776.83,-66 2775.04,-64.1 2152.7,-30.94 1940.64,-19.7"/>
<polygon fill="#63b8ff" stroke="#63b8ff" points="2264.74,-191.83 2254.77,-195.39 2264.79,-198.83 2264.74,-191.83"/>
</g>
<!-- Node9 -->
<g id="node9" class="node">
<title>Node9</title>
<g id="a_node9"><a xlink:href="parser__utils_8c.html" target="_top" xlink:title=" ">
<polygon fill="white" stroke="#666666" points="2277.33,-24.5 2144.33,-24.5 2144.33,-5.5 2277.33,-5.5 2277.33,-24.5"/>
<text text-anchor="middle" x="2210.83" y="-12.5" font-family="Helvetica,sans-Serif" font-size="10.00">src/parser/parser_utils.c</text>
</a>
</g>
</g>
<!-- Node1&#45;&gt;Node9 -->
<g id="edge56" class="edge">
<title>Node1&#45;&gt;Node9</title>
<path fill="none" stroke="#63b8ff" d="M2264.73,-195.63C2407.66,-195.36 2777.84,-190.82 2814.83,-151 2947.43,-8.31 2751.9,-60.81 2379.83,-30 2346.09,-27.21 2308.56,-24.1 2277.46,-21.52"/>
<polygon fill="#63b8ff" stroke="#63b8ff" points="2264.43,-192.13 2254.44,-195.64 2264.44,-199.13 2264.43,-192.13"/>
</g>
<!-- Node10 -->
<g id="node10" class="node">
<title>Node10</title>
<g id="a_node10"><a xlink:href="parse__command_8c.html" target="_top" xlink:title=" ">
<polygon fill="white" stroke="#666666" points="2518.83,-30 2388.83,-30 2388.83,0 2518.83,0 2518.83,-30"/>
<text text-anchor="start" x="2396.83" y="-18" font-family="Helvetica,sans-Serif" font-size="10.00">src/parser/tokens/parse</text>
<text text-anchor="middle" x="2453.83" y="-7" font-family="Helvetica,sans-Serif" font-size="10.00">_command.c</text>
</a>
</g>
</g>
<!-- Node1&#45;&gt;Node10 -->
<g id="edge57" class="edge">
<title>Node1&#45;&gt;Node10</title>
<path fill="none" stroke="#63b8ff" d="M2264.76,-194.68C2409.64,-192.13 2789.09,-182.47 2835.83,-151 2858.42,-135.79 2856.67,-122.53 2862.83,-96 2865.85,-83.01 2871.67,-75.98 2862.83,-66 2861.42,-64.4 2634.44,-37.36 2519.27,-23.72"/>
<polygon fill="#63b8ff" stroke="#63b8ff" points="2264.68,-191.18 2254.75,-194.86 2264.8,-198.18 2264.68,-191.18"/>
</g>
<!-- Node12 -->
<g id="node12" class="node">
<title>Node12</title>
<g id="a_node12"><a xlink:href="parse__repeat_8c.html" target="_top" xlink:title=" ">
<polygon fill="white" stroke="#666666" points="2712.83,-30 2582.83,-30 2582.83,0 2712.83,0 2712.83,-30"/>
<text text-anchor="start" x="2590.83" y="-18" font-family="Helvetica,sans-Serif" font-size="10.00">src/parser/tokens/parse</text>
<text text-anchor="middle" x="2647.83" y="-7" font-family="Helvetica,sans-Serif" font-size="10.00">_repeat.c</text>
</a>
</g>
</g>
<!-- Node1&#45;&gt;Node12 -->
<g id="edge58" class="edge">
<title>Node1&#45;&gt;Node12</title>
<path fill="none" stroke="#63b8ff" d="M2264.78,-195.07C2413.53,-193.45 2810.74,-185.86 2857.83,-151 2889.11,-127.85 2903.27,-96.29 2878.83,-66 2868.34,-52.99 2777.56,-36.27 2712.99,-25.85"/>
<polygon fill="#63b8ff" stroke="#63b8ff" points="2264.47,-191.57 2254.51,-195.17 2264.54,-198.57 2264.47,-191.57"/>
</g>
<!-- Node14 -->
<g id="node14" class="node">
<title>Node14</title>
<g id="a_node14"><a xlink:href="parse__sequence__start_8c.html" target="_top" xlink:title=" ">
<polygon fill="white" stroke="#666666" points="2883.83,-30 2753.83,-30 2753.83,0 2883.83,0 2883.83,-30"/>
<text text-anchor="start" x="2761.83" y="-18" font-family="Helvetica,sans-Serif" font-size="10.00">src/parser/tokens/parse</text>
<text text-anchor="middle" x="2818.83" y="-7" font-family="Helvetica,sans-Serif" font-size="10.00">_sequence_start.c</text>
</a>
</g>
</g>
<!-- Node1&#45;&gt;Node14 -->
<g id="edge59" class="edge">
<title>Node1&#45;&gt;Node14</title>
<path fill="none" stroke="#63b8ff" d="M2264.5,-195.33C2416.88,-194.4 2832.68,-188.4 2880.83,-151 2911.33,-127.31 2917.55,-99.77 2898.83,-66 2889.78,-49.67 2872.93,-37.97 2857.02,-30.01"/>
<polygon fill="#63b8ff" stroke="#63b8ff" points="2264.4,-191.83 2254.42,-195.39 2264.44,-198.83 2264.4,-191.83"/>
</g>
<!-- Node15 -->
<g id="node15" class="node">
<title>Node15</title>
<g id="a_node15"><a xlink:href="parse__subshell_8c.html" target="_top" xlink:title=" ">
<polygon fill="white" stroke="#666666" points="3043.83,-30 2913.83,-30 2913.83,0 3043.83,0 3043.83,-30"/>
<text text-anchor="start" x="2921.83" y="-18" font-family="Helvetica,sans-Serif" font-size="10.00">src/parser/tokens/parse</text>
<text text-anchor="middle" x="2978.83" y="-7" font-family="Helvetica,sans-Serif" font-size="10.00">_subshell.c</text>
</a>
</g>
</g>
<!-- Node1&#45;&gt;Node15 -->
<g id="edge60" class="edge">
<title>Node1&#45;&gt;Node15</title>
<path fill="none" stroke="#63b8ff" d="M2264.86,-194.95C2420.37,-192.99 2849.4,-184.58 2902.83,-151 2947.47,-122.95 2968.31,-58.72 2975.62,-30.15"/>
<polygon fill="#63b8ff" stroke="#63b8ff" points="2264.54,-191.45 2254.58,-195.07 2264.63,-198.45 2264.54,-191.45"/>
</g>
<!-- Node18 -->
<g id="node18" class="node">
<title>Node18</title>
<g id="a_node18"><a xlink:href="lexer__expand__alias_8c.html" target="_top" xlink:title=" ">
<polygon fill="white" stroke="#666666" points="142.83,-96 16.83,-96 16.83,-66 142.83,-66 142.83,-96"/>
<text text-anchor="start" x="24.83" y="-84" font-family="Helvetica,sans-Serif" font-size="10.00">src/lexer/lexer_expand</text>
<text text-anchor="middle" x="79.83" y="-73" font-family="Helvetica,sans-Serif" font-size="10.00">_alias.c</text>
</a>
</g>
</g>
<!-- Node1&#45;&gt;Node18 -->
<g id="edge39" class="edge">
<title>Node1&#45;&gt;Node18</title>
<path fill="none" stroke="#63b8ff" d="M2153.05,-194.98C1897.94,-192.47 840.56,-180.46 510.83,-151 379.12,-139.23 226.71,-111.45 143.02,-94.95"/>
<polygon fill="#63b8ff" stroke="#63b8ff" points="2153.16,-198.48 2163.2,-195.08 2153.23,-191.48 2153.16,-198.48"/>
</g>
<!-- Node22 -->
<g id="node22" class="node">
<title>Node22</title>
<g id="a_node22"><a xlink:href="lexer__init_8c.html" target="_top" xlink:title=" ">
<polygon fill="white" stroke="#666666" points="274.83,-90.5 160.83,-90.5 160.83,-71.5 274.83,-71.5 274.83,-90.5"/>
<text text-anchor="middle" x="217.83" y="-78.5" font-family="Helvetica,sans-Serif" font-size="10.00">src/lexer/lexer_init.c</text>
</a>
</g>
</g>
<!-- Node1&#45;&gt;Node22 -->
<g id="edge40" class="edge">
<title>Node1&#45;&gt;Node22</title>
<path fill="none" stroke="#63b8ff" d="M2153.03,-195.87C1955.1,-196.76 1268.28,-196.19 703.83,-151 516.17,-135.98 469.39,-127.78 283.83,-96 274.6,-94.42 264.69,-92.46 255.43,-90.51"/>
<polygon fill="#63b8ff" stroke="#63b8ff" points="2153.2,-199.37 2163.18,-195.82 2153.17,-192.37 2153.2,-199.37"/>
</g>
<!-- Node23 -->
<g id="node23" class="node">
<title>Node23</title>
<g id="a_node23"><a xlink:href="lexer__next__token_8c.html" target="_top" xlink:title=" ">
<polygon fill="white" stroke="#666666" points="404.83,-96 292.83,-96 292.83,-66 404.83,-66 404.83,-96"/>
<text text-anchor="start" x="300.83" y="-84" font-family="Helvetica,sans-Serif" font-size="10.00">src/lexer/lexer_next</text>
<text text-anchor="middle" x="348.83" y="-73" font-family="Helvetica,sans-Serif" font-size="10.00">_token.c</text>
</a>
</g>
</g>
<!-- Node1&#45;&gt;Node23 -->
<g id="edge41" class="edge">
<title>Node1&#45;&gt;Node23</title>
<path fill="none" stroke="#63b8ff" d="M2152.97,-194.67C1979.34,-191.82 1433.73,-180.95 982.83,-151 729.33,-134.16 664.89,-135.04 413.83,-96 410.98,-95.56 408.07,-95.07 405.13,-94.54"/>
<polygon fill="#63b8ff" stroke="#63b8ff" points="2153.08,-198.17 2163.14,-194.83 2153.2,-191.17 2153.08,-198.17"/>
</g>
<!-- Node25 -->
<g id="node25" class="node">
<title>Node25</title>
<g id="a_node25"><a xlink:href="lexer__heredoc_8c.html" target="_top" xlink:title=" ">
<polygon fill="white" stroke="#666666" points="542.83,-96 422.83,-96 422.83,-66 542.83,-66 542.83,-96"/>
<text text-anchor="start" x="430.83" y="-84" font-family="Helvetica,sans-Serif" font-size="10.00">src/lexer/tokens/lexer</text>
<text text-anchor="middle" x="482.83" y="-73" font-family="Helvetica,sans-Serif" font-size="10.00">_heredoc.c</text>
</a>
</g>
</g>
<!-- Node1&#45;&gt;Node25 -->
<g id="edge42" class="edge">
<title>Node1&#45;&gt;Node25</title>
<path fill="none" stroke="#63b8ff" d="M2152.74,-194.53C1994.83,-191.52 1533.15,-180.62 1150.83,-151 1075.92,-145.2 1057.62,-139.32 982.83,-132 789.76,-113.1 739.73,-124.48 547.83,-96 546.24,-95.76 544.62,-95.51 542.99,-95.24"/>
<polygon fill="#63b8ff" stroke="#63b8ff" points="2153.07,-198.04 2163.14,-194.73 2153.2,-191.04 2153.07,-198.04"/>
</g>
<!-- Node26 -->
<g id="node26" class="node">
<title>Node26</title>
<g id="a_node26"><a xlink:href="lexer__logical__and_8c.html" target="_top" xlink:title=" ">
<polygon fill="white" stroke="#666666" points="1492.83,-96 1372.83,-96 1372.83,-66 1492.83,-66 1492.83,-96"/>
<text text-anchor="start" x="1380.83" y="-84" font-family="Helvetica,sans-Serif" font-size="10.00">src/lexer/tokens/lexer</text>
<text text-anchor="middle" x="1432.83" y="-73" font-family="Helvetica,sans-Serif" font-size="10.00">_logical_and.c</text>
</a>
</g>
</g>
<!-- Node1&#45;&gt;Node26 -->
<g id="edge43" class="edge">
<title>Node1&#45;&gt;Node26</title>
<path fill="none" stroke="#63b8ff" d="M2153.35,-189.76C2079.91,-181.96 1946.42,-167.15 1832.83,-151 1685.19,-130.01 1648.49,-123.05 1501.83,-96 1498.95,-95.47 1496,-94.91 1493.02,-94.34"/>
<polygon fill="#63b8ff" stroke="#63b8ff" points="2153,-193.24 2163.31,-190.81 2153.73,-186.28 2153,-193.24"/>
</g>
<!-- Node27 -->
<g id="node27" class="node">
<title>Node27</title>
<g id="a_node27"><a xlink:href="lexer__logical__or_8c.html" target="_top" xlink:title=" ">
<polygon fill="white" stroke="#666666" points="1630.83,-96 1510.83,-96 1510.83,-66 1630.83,-66 1630.83,-96"/>
<text text-anchor="start" x="1518.83" y="-84" font-family="Helvetica,sans-Serif" font-size="10.00">src/lexer/tokens/lexer</text>
<text text-anchor="middle" x="1570.83" y="-73" font-family="Helvetica,sans-Serif" font-size="10.00">_logical_or.c</text>
</a>
</g>
</g>
<!-- Node1&#45;&gt;Node27 -->
<g id="edge44" class="edge">
<title>Node1&#45;&gt;Node27</title>
<path fill="none" stroke="#63b8ff" d="M2153.18,-186.53C2098.94,-177.72 2014.17,-163.79 1940.83,-151 1806.86,-127.64 1773.37,-121.74 1639.83,-96 1636.95,-95.44 1634.01,-94.87 1631.03,-94.29"/>
<polygon fill="#63b8ff" stroke="#63b8ff" points="2152.84,-190.02 2163.27,-188.17 2153.96,-183.11 2152.84,-190.02"/>
</g>
<!-- Node28 -->
<g id="node28" class="node">
<title>Node28</title>
<g id="a_node28"><a xlink:href="lexer__newline_8c.html" target="_top" xlink:title=" ">
<polygon fill="white" stroke="#666666" points="1768.83,-96 1648.83,-96 1648.83,-66 1768.83,-66 1768.83,-96"/>
<text text-anchor="start" x="1656.83" y="-84" font-family="Helvetica,sans-Serif" font-size="10.00">src/lexer/tokens/lexer</text>
<text text-anchor="middle" x="1708.83" y="-73" font-family="Helvetica,sans-Serif" font-size="10.00">_newline.c</text>
</a>
</g>
</g>
<!-- Node1&#45;&gt;Node28 -->
<g id="edge45" class="edge">
<title>Node1&#45;&gt;Node28</title>
<path fill="none" stroke="#63b8ff" d="M2161.45,-184.74C2070.14,-164.02 1869.94,-118.57 1769.22,-95.71"/>
<polygon fill="#63b8ff" stroke="#63b8ff" points="2160.73,-188.17 2171.25,-186.97 2162.28,-181.34 2160.73,-188.17"/>
</g>
<!-- Node29 -->
<g id="node29" class="node">
<title>Node29</title>
<g id="a_node29"><a xlink:href="lexer__parenthesis_8c.html" target="_top" xlink:title=" ">
<polygon fill="white" stroke="#666666" points="1906.83,-96 1786.83,-96 1786.83,-66 1906.83,-66 1906.83,-96"/>
<text text-anchor="start" x="1794.83" y="-84" font-family="Helvetica,sans-Serif" font-size="10.00">src/lexer/tokens/lexer</text>
<text text-anchor="middle" x="1846.83" y="-73" font-family="Helvetica,sans-Serif" font-size="10.00">_parenthesis.c</text>
</a>
</g>
</g>
<!-- Node1&#45;&gt;Node29 -->
<g id="edge46" class="edge">
<title>Node1&#45;&gt;Node29</title>
<path fill="none" stroke="#63b8ff" d="M2171.93,-183.93C2105.07,-162.96 1964.11,-118.77 1891.76,-96.09"/>
<polygon fill="#63b8ff" stroke="#63b8ff" points="2171.04,-187.32 2181.63,-186.97 2173.13,-180.64 2171.04,-187.32"/>
</g>
<!-- Node30 -->
<g id="node30" class="node">
<title>Node30</title>
<g id="a_node30"><a xlink:href="lexer__pipe_8c.html" target="_top" xlink:title=" ">
<polygon fill="white" stroke="#666666" points="2044.83,-96 1924.83,-96 1924.83,-66 2044.83,-66 2044.83,-96"/>
<text text-anchor="start" x="1932.83" y="-84" font-family="Helvetica,sans-Serif" font-size="10.00">src/lexer/tokens/lexer</text>
<text text-anchor="middle" x="1984.83" y="-73" font-family="Helvetica,sans-Serif" font-size="10.00">_pipe.c</text>
</a>
</g>
</g>
<!-- Node1&#45;&gt;Node30 -->
<g id="edge47" class="edge">
<title>Node1&#45;&gt;Node30</title>
<path fill="none" stroke="#63b8ff" d="M2182.87,-182.35C2140.43,-160.84 2056.54,-118.33 2012.82,-96.18"/>
<polygon fill="#63b8ff" stroke="#63b8ff" points="2181.5,-185.57 2192,-186.97 2184.66,-179.33 2181.5,-185.57"/>
</g>
<!-- Node31 -->
<g id="node31" class="node">
<title>Node31</title>
<g id="a_node31"><a xlink:href="lexer__redirect__append_8c.html" target="_top" xlink:title=" ">
<polygon fill="white" stroke="#666666" points="2182.83,-96 2062.83,-96 2062.83,-66 2182.83,-66 2182.83,-96"/>
<text text-anchor="start" x="2070.83" y="-84" font-family="Helvetica,sans-Serif" font-size="10.00">src/lexer/tokens/lexer</text>
<text text-anchor="middle" x="2122.83" y="-73" font-family="Helvetica,sans-Serif" font-size="10.00">_redirect_append.c</text>
</a>
</g>
</g>
<!-- Node1&#45;&gt;Node31 -->
<g id="edge48" class="edge">
<title>Node1&#45;&gt;Node31</title>
<path fill="none" stroke="#63b8ff" d="M2196.17,-178.78C2179.22,-156.42 2149.48,-117.17 2133.58,-96.18"/>
<polygon fill="#63b8ff" stroke="#63b8ff" points="2193.54,-181.11 2202.37,-186.97 2199.12,-176.88 2193.54,-181.11"/>
</g>
<!-- Node32 -->
<g id="node32" class="node">
<title>Node32</title>
<g id="a_node32"><a xlink:href="lexer__redirect__in_8c.html" target="_top" xlink:title=" ">
<polygon fill="white" stroke="#666666" points="2320.83,-96 2200.83,-96 2200.83,-66 2320.83,-66 2320.83,-96"/>
<text text-anchor="start" x="2208.83" y="-84" font-family="Helvetica,sans-Serif" font-size="10.00">src/lexer/tokens/lexer</text>
<text text-anchor="middle" x="2260.83" y="-73" font-family="Helvetica,sans-Serif" font-size="10.00">_redirect_in.c</text>
</a>
</g>
</g>
<!-- Node1&#45;&gt;Node32 -->
<g id="edge49" class="edge">
<title>Node1&#45;&gt;Node32</title>
<path fill="none" stroke="#63b8ff" d="M2217.05,-177.57C2227.37,-155.03 2244.89,-116.8 2254.34,-96.18"/>
<polygon fill="#63b8ff" stroke="#63b8ff" points="2213.73,-176.42 2212.74,-186.97 2220.09,-179.34 2213.73,-176.42"/>
</g>
<!-- Node33 -->
<g id="node33" class="node">
<title>Node33</title>
<g id="a_node33"><a xlink:href="lexer__redirect__out_8c.html" target="_top" xlink:title=" ">
<polygon fill="white" stroke="#666666" points="2458.83,-96 2338.83,-96 2338.83,-66 2458.83,-66 2458.83,-96"/>
<text text-anchor="start" x="2346.83" y="-84" font-family="Helvetica,sans-Serif" font-size="10.00">src/lexer/tokens/lexer</text>
<text text-anchor="middle" x="2398.83" y="-73" font-family="Helvetica,sans-Serif" font-size="10.00">_redirect_out.c</text>
</a>
</g>
</g>
<!-- Node1&#45;&gt;Node33 -->
<g id="edge50" class="edge">
<title>Node1&#45;&gt;Node33</title>
<path fill="none" stroke="#63b8ff" d="M2232,-181.66C2268.35,-159.95 2338.4,-118.1 2375.09,-96.18"/>
<polygon fill="#63b8ff" stroke="#63b8ff" points="2229.9,-178.84 2223.11,-186.97 2233.49,-184.85 2229.9,-178.84"/>
</g>
<!-- Node34 -->
<g id="node34" class="node">
<title>Node34</title>
<g id="a_node34"><a xlink:href="lexer__semicolon_8c.html" target="_top" xlink:title=" ">
<polygon fill="white" stroke="#666666" points="2596.83,-96 2476.83,-96 2476.83,-66 2596.83,-66 2596.83,-96"/>
<text text-anchor="start" x="2484.83" y="-84" font-family="Helvetica,sans-Serif" font-size="10.00">src/lexer/tokens/lexer</text>
<text text-anchor="middle" x="2536.83" y="-73" font-family="Helvetica,sans-Serif" font-size="10.00">_semicolon.c</text>
</a>
</g>
</g>
<!-- Node1&#45;&gt;Node34 -->
<g id="edge51" class="edge">
<title>Node1&#45;&gt;Node34</title>
<path fill="none" stroke="#63b8ff" d="M2243.02,-183.67C2303.9,-162.6 2430.84,-118.68 2496.13,-96.09"/>
<polygon fill="#63b8ff" stroke="#63b8ff" points="2241.79,-180.39 2233.49,-186.97 2244.08,-187.01 2241.79,-180.39"/>
</g>
<!-- Node35 -->
<g id="node35" class="node">
<title>Node35</title>
<g id="a_node35"><a xlink:href="lexer__word_8c.html" target="_top" xlink:title=" ">
<polygon fill="white" stroke="#666666" points="2734.83,-96 2614.83,-96 2614.83,-66 2734.83,-66 2734.83,-96"/>
<text text-anchor="start" x="2622.83" y="-84" font-family="Helvetica,sans-Serif" font-size="10.00">src/lexer/tokens/lexer</text>
<text text-anchor="middle" x="2674.83" y="-73" font-family="Helvetica,sans-Serif" font-size="10.00">_word.c</text>
</a>
</g>
</g>
<!-- Node1&#45;&gt;Node35 -->
<g id="edge52" class="edge">
<title>Node1&#45;&gt;Node35</title>
<path fill="none" stroke="#63b8ff" d="M2253.72,-184.57C2338.68,-163.87 2522.91,-119 2617,-96.09"/>
<polygon fill="#63b8ff" stroke="#63b8ff" points="2252.75,-181.2 2243.86,-186.97 2254.4,-188 2252.75,-181.2"/>
</g>
<!-- Node36 -->
<g id="node36" class="node">
<title>Node36</title>
<g id="a_node36"><a xlink:href="create__token_8c.html" target="_top" xlink:title=" ">
<polygon fill="white" stroke="#666666" points="3154.33,-151 3019.33,-151 3019.33,-132 3154.33,-132 3154.33,-151"/>
<text text-anchor="middle" x="3086.83" y="-139" font-family="Helvetica,sans-Serif" font-size="10.00">src/token/create_token.c</text>
</a>
</g>
</g>
<!-- Node1&#45;&gt;Node36 -->
<g id="edge61" class="edge">
<title>Node1&#45;&gt;Node36</title>
<path fill="none" stroke="#63b8ff" d="M2264.76,-193.29C2394.78,-187.94 2727.43,-173.12 3004.83,-151 3009.54,-150.62 3014.4,-150.2 3019.29,-149.76"/>
<polygon fill="#63b8ff" stroke="#63b8ff" points="2264.5,-189.79 2254.65,-193.7 2264.79,-196.79 2264.5,-189.79"/>
</g>
<!-- Node37 -->
<g id="node37" class="node">
<title>Node37</title>
<g id="a_node37"><a xlink:href="destroy__token_8c.html" target="_top" xlink:title=" ">
<polygon fill="white" stroke="#666666" points="3313.33,-151 3172.33,-151 3172.33,-132 3313.33,-132 3313.33,-151"/>
<text text-anchor="middle" x="3242.83" y="-139" font-family="Helvetica,sans-Serif" font-size="10.00">src/token/destroy_token.c</text>
</a>
</g>
</g>
<!-- Node1&#45;&gt;Node37 -->
<g id="edge62" class="edge">
<title>Node1&#45;&gt;Node37</title>
<path fill="none" stroke="#63b8ff" d="M2264.76,-194.08C2412.07,-190.08 2822.84,-177.27 3163.83,-151 3166.58,-150.79 3169.39,-150.56 3172.22,-150.31"/>
<polygon fill="#63b8ff" stroke="#63b8ff" points="2264.52,-190.58 2254.62,-194.35 2264.71,-197.58 2264.52,-190.58"/>
</g>
<!-- Node2&#45;&gt;Node3 -->
<g id="edge2" class="edge">
<title>Node2&#45;&gt;Node3</title>
<path fill="none" stroke="#63b8ff" d="M1290.85,-135.25C1278.68,-134.12 1265.82,-132.98 1253.83,-132 1025.59,-113.35 966.01,-131.91 739.83,-96 731.32,-94.65 722.21,-92.63 713.86,-90.53"/>
<polygon fill="#63b8ff" stroke="#63b8ff" points="1290.6,-138.74 1300.88,-136.19 1291.25,-131.77 1290.6,-138.74"/>
</g>
<!-- Node5 -->
<g id="node5" class="node">
<title>Node5</title>
<g id="a_node5"><a xlink:href="parser__init_8c.html" target="_top" xlink:title=" ">
<polygon fill="white" stroke="#666666" points="638.83,-24.5 510.83,-24.5 510.83,-5.5 638.83,-5.5 638.83,-24.5"/>
<text text-anchor="middle" x="574.83" y="-12.5" font-family="Helvetica,sans-Serif" font-size="10.00">src/parser/parser_init.c</text>
</a>
</g>
</g>
<!-- Node2&#45;&gt;Node5 -->
<g id="edge35" class="edge">
<title>Node2&#45;&gt;Node5</title>
<path fill="none" stroke="#63b8ff" d="M1290.91,-137.8C1126.56,-129.47 642.17,-104.28 627.83,-96 599.7,-79.75 583.68,-41.84 577.64,-24.69"/>
<polygon fill="#63b8ff" stroke="#63b8ff" points="1291.1,-141.31 1301.27,-138.32 1291.46,-134.32 1291.1,-141.31"/>
</g>
<!-- Node2&#45;&gt;Node6 -->
<g id="edge36" class="edge">
<title>Node2&#45;&gt;Node6</title>
<path fill="none" stroke="#63b8ff" d="M1344.83,-121.74C1344.83,-94.36 1344.83,-44.58 1344.83,-24.62"/>
<polygon fill="#63b8ff" stroke="#63b8ff" points="1341.33,-121.94 1344.83,-131.94 1348.33,-121.94 1341.33,-121.94"/>
</g>
<!-- Node17 -->
<g id="node17" class="node">
<title>Node17</title>
<g id="a_node17"><a xlink:href="shell_8c.html" target="_top" xlink:title=" ">
<polygon fill="white" stroke="#666666" points="492.33,-24.5 427.33,-24.5 427.33,-5.5 492.33,-5.5 492.33,-24.5"/>
<text text-anchor="middle" x="459.83" y="-12.5" font-family="Helvetica,sans-Serif" font-size="10.00">src/shell.c</text>
</a>
</g>
</g>
<!-- Node2&#45;&gt;Node17 -->
<g id="edge37" class="edge">
<title>Node2&#45;&gt;Node17</title>
<path fill="none" stroke="#63b8ff" d="M1290.83,-138.1C1124.26,-130.6 627.61,-107.38 594.83,-96 572.82,-88.36 571.66,-78.25 551.83,-66 526.47,-50.33 495.85,-34.22 477.11,-24.66"/>
<polygon fill="#63b8ff" stroke="#63b8ff" points="1291.17,-141.62 1301.32,-138.57 1291.49,-134.63 1291.17,-141.62"/>
</g>
<!-- Node2&#45;&gt;Node18 -->
<g id="edge17" class="edge">
<title>Node2&#45;&gt;Node18</title>
<path fill="none" stroke="#63b8ff" d="M1291.25,-139.6C1089.71,-136.06 377.24,-121.96 151.83,-96 148.92,-95.66 145.96,-95.28 142.96,-94.85"/>
<polygon fill="#63b8ff" stroke="#63b8ff" points="1291.23,-143.1 1301.29,-139.78 1291.35,-136.11 1291.23,-143.1"/>
</g>
<!-- Node19 -->
<g id="node19" class="node">
<title>Node19</title>
<g id="a_node19"><a xlink:href="lexer__expand__command__substitution_8c.html" target="_top" xlink:title=" ">
<polygon fill="white" stroke="#666666" points="890.83,-96 748.83,-96 748.83,-66 890.83,-66 890.83,-96"/>
<text text-anchor="start" x="756.83" y="-84" font-family="Helvetica,sans-Serif" font-size="10.00">src/lexer/lexer_expand</text>
<text text-anchor="middle" x="819.83" y="-73" font-family="Helvetica,sans-Serif" font-size="10.00">_command_substitution.c</text>
</a>
</g>
</g>
<!-- Node2&#45;&gt;Node19 -->
<g id="edge18" class="edge">
<title>Node2&#45;&gt;Node19</title>
<path fill="none" stroke="#63b8ff" d="M1291.09,-135.35C1181.16,-124.78 937.74,-101.21 899.83,-96 896.9,-95.6 893.91,-95.17 890.89,-94.71"/>
<polygon fill="#63b8ff" stroke="#63b8ff" points="1291.01,-138.86 1301.3,-136.33 1291.68,-131.89 1291.01,-138.86"/>
</g>
<!-- Node20 -->
<g id="node20" class="node">
<title>Node20</title>
<g id="a_node20"><a xlink:href="lexer__expand__tilde_8c.html" target="_top" xlink:title=" ">
<polygon fill="white" stroke="#666666" points="1034.83,-96 908.83,-96 908.83,-66 1034.83,-66 1034.83,-96"/>
<text text-anchor="start" x="916.83" y="-84" font-family="Helvetica,sans-Serif" font-size="10.00">src/lexer/lexer_expand</text>
<text text-anchor="middle" x="971.83" y="-73" font-family="Helvetica,sans-Serif" font-size="10.00">_tilde.c</text>
</a>
</g>
</g>
<!-- Node2&#45;&gt;Node20 -->
<g id="edge19" class="edge">
<title>Node2&#45;&gt;Node20</title>
<path fill="none" stroke="#63b8ff" d="M1291.07,-133.3C1230.76,-125.05 1130.09,-110.75 1043.83,-96 1040.95,-95.51 1038,-94.99 1035.02,-94.45"/>
<polygon fill="#63b8ff" stroke="#63b8ff" points="1290.74,-136.79 1301.12,-134.67 1291.68,-129.85 1290.74,-136.79"/>
</g>
<!-- Node21 -->
<g id="node21" class="node">
<title>Node21</title>
<g id="a_node21"><a xlink:href="lexer__expand__variable_8c.html" target="_top" xlink:title=" ">
<polygon fill="white" stroke="#666666" points="1178.83,-96 1052.83,-96 1052.83,-66 1178.83,-66 1178.83,-96"/>
<text text-anchor="start" x="1060.83" y="-84" font-family="Helvetica,sans-Serif" font-size="10.00">src/lexer/lexer_expand</text>
<text text-anchor="middle" x="1115.83" y="-73" font-family="Helvetica,sans-Serif" font-size="10.00">_variable.c</text>
</a>
</g>
</g>
<!-- Node2&#45;&gt;Node21 -->
<g id="edge20" class="edge">
<title>Node2&#45;&gt;Node21</title>
<path fill="none" stroke="#63b8ff" d="M1301.55,-129.44C1264.51,-119.98 1210.97,-106.3 1170.89,-96.06"/>
<polygon fill="#63b8ff" stroke="#63b8ff" points="1300.98,-132.91 1311.54,-131.99 1302.71,-126.13 1300.98,-132.91"/>
</g>
<!-- Node2&#45;&gt;Node22 -->
<g id="edge21" class="edge">
<title>Node2&#45;&gt;Node22</title>
<path fill="none" stroke="#63b8ff" d="M1291.07,-139.43C1103.96,-135.54 481.87,-120.98 283.83,-96 273.61,-94.71 262.61,-92.65 252.59,-90.51"/>
<polygon fill="#63b8ff" stroke="#63b8ff" points="1291.14,-142.94 1301.21,-139.64 1291.29,-135.94 1291.14,-142.94"/>
</g>
<!-- Node2&#45;&gt;Node23 -->
<g id="edge22" class="edge">
<title>Node2&#45;&gt;Node23</title>
<path fill="none" stroke="#63b8ff" d="M1291.16,-139.1C1119.53,-134.42 585.32,-118.41 413.83,-96 410.97,-95.63 408.05,-95.19 405.11,-94.71"/>
<polygon fill="#63b8ff" stroke="#63b8ff" points="1291.13,-142.6 1301.22,-139.37 1291.32,-135.6 1291.13,-142.6"/>
</g>
<!-- Node24 -->
<g id="node24" class="node">
<title>Node24</title>
<g id="a_node24"><a xlink:href="lexer__utils_8c.html" target="_top" xlink:title=" ">
<polygon fill="white" stroke="#666666" points="1316.33,-90.5 1197.33,-90.5 1197.33,-71.5 1316.33,-71.5 1316.33,-90.5"/>
<text text-anchor="middle" x="1256.83" y="-78.5" font-family="Helvetica,sans-Serif" font-size="10.00">src/lexer/lexer_utils.c</text>
</a>
</g>
</g>
<!-- Node2&#45;&gt;Node24 -->
<g id="edge23" class="edge">
<title>Node2&#45;&gt;Node24</title>
<path fill="none" stroke="#63b8ff" d="M1323.26,-126.16C1306.54,-115.05 1283.93,-100.01 1269.87,-90.67"/>
<polygon fill="#63b8ff" stroke="#63b8ff" points="1321.58,-129.25 1331.85,-131.87 1325.46,-123.42 1321.58,-129.25"/>
</g>
<!-- Node2&#45;&gt;Node25 -->
<g id="edge24" class="edge">
<title>Node2&#45;&gt;Node25</title>
<path fill="none" stroke="#63b8ff" d="M1290.76,-137.86C1124.73,-129.68 629.12,-104.84 556.83,-96 552.29,-95.44 547.61,-94.78 542.91,-94.04"/>
<polygon fill="#63b8ff" stroke="#63b8ff" points="1291.05,-141.38 1301.21,-138.37 1291.4,-134.38 1291.05,-141.38"/>
</g>
<!-- Node2&#45;&gt;Node26 -->
<g id="edge25" class="edge">
<title>Node2&#45;&gt;Node26</title>
<path fill="none" stroke="#63b8ff" d="M1366.21,-126.29C1379.99,-117.13 1397.84,-105.26 1411.6,-96.11"/>
<polygon fill="#63b8ff" stroke="#63b8ff" points="1364.21,-123.42 1357.82,-131.87 1368.08,-129.25 1364.21,-123.42"/>
</g>
<!-- Node2&#45;&gt;Node27 -->
<g id="edge26" class="edge">
<title>Node2&#45;&gt;Node27</title>
<path fill="none" stroke="#63b8ff" d="M1387.55,-129.44C1424.11,-119.98 1476.94,-106.3 1516.5,-96.06"/>
<polygon fill="#63b8ff" stroke="#63b8ff" points="1386.5,-126.1 1377.7,-131.99 1388.25,-132.88 1386.5,-126.1"/>
</g>
<!-- Node2&#45;&gt;Node28 -->
<g id="edge27" class="edge">
<title>Node2&#45;&gt;Node28</title>
<path fill="none" stroke="#63b8ff" d="M1398.67,-133.21C1457.91,-125 1555.87,-110.84 1639.83,-96 1642.72,-95.49 1645.68,-94.95 1648.66,-94.4"/>
<polygon fill="#63b8ff" stroke="#63b8ff" points="1397.86,-129.79 1388.43,-134.62 1398.82,-136.72 1397.86,-129.79"/>
</g>
<!-- Node2&#45;&gt;Node29 -->
<g id="edge28" class="edge">
<title>Node2&#45;&gt;Node29</title>
<path fill="none" stroke="#63b8ff" d="M1398.42,-136.69C1480.44,-130.47 1641.89,-116.73 1777.83,-96 1780.73,-95.56 1783.7,-95.08 1786.69,-94.56"/>
<polygon fill="#63b8ff" stroke="#63b8ff" points="1398.05,-133.21 1388.34,-137.44 1398.57,-140.19 1398.05,-133.21"/>
</g>
<!-- Node2&#45;&gt;Node30 -->
<g id="edge29" class="edge">
<title>Node2&#45;&gt;Node30</title>
<path fill="none" stroke="#63b8ff" d="M1398.36,-138.52C1499.76,-134.27 1726.62,-122.47 1915.83,-96 1918.74,-95.59 1921.71,-95.14 1924.7,-94.65"/>
<polygon fill="#63b8ff" stroke="#63b8ff" points="1398.22,-135.02 1388.37,-138.93 1398.5,-142.01 1398.22,-135.02"/>
</g>
<!-- Node2&#45;&gt;Node31 -->
<g id="edge30" class="edge">
<title>Node2&#45;&gt;Node31</title>
<path fill="none" stroke="#63b8ff" d="M1398.89,-139.64C1517.79,-137.19 1810.82,-128.12 2053.83,-96 2056.74,-95.62 2059.71,-95.18 2062.71,-94.71"/>
<polygon fill="#63b8ff" stroke="#63b8ff" points="1398.53,-136.14 1388.6,-139.84 1398.67,-143.14 1398.53,-136.14"/>
</g>
<!-- Node2&#45;&gt;Node32 -->
<g id="edge31" class="edge">
<title>Node2&#45;&gt;Node32</title>
<path fill="none" stroke="#63b8ff" d="M1398.72,-140.42C1533.14,-139.63 1893.93,-133.84 2191.83,-96 2194.74,-95.63 2197.72,-95.21 2200.71,-94.74"/>
<polygon fill="#63b8ff" stroke="#63b8ff" points="1398.66,-136.92 1388.68,-140.47 1398.69,-143.92 1398.66,-136.92"/>
</g>
<!-- Node2&#45;&gt;Node33 -->
<g id="edge32" class="edge">
<title>Node2&#45;&gt;Node33</title>
<path fill="none" stroke="#63b8ff" d="M1398.97,-140.99C1548.04,-141.71 1976.85,-139.52 2329.83,-96 2332.75,-95.64 2335.72,-95.23 2338.71,-94.77"/>
<polygon fill="#63b8ff" stroke="#63b8ff" points="1398.75,-137.49 1388.73,-140.93 1398.71,-144.49 1398.75,-137.49"/>
</g>
<!-- Node2&#45;&gt;Node34 -->
<g id="edge33" class="edge">
<title>Node2&#45;&gt;Node34</title>
<path fill="none" stroke="#63b8ff" d="M1398.77,-139.51C1593.11,-135.77 2257.05,-121.39 2467.83,-96 2470.75,-95.65 2473.72,-95.24 2476.72,-94.79"/>
<polygon fill="#63b8ff" stroke="#63b8ff" points="1398.46,-136.02 1388.53,-139.71 1398.59,-143.02 1398.46,-136.02"/>
</g>
<!-- Node2&#45;&gt;Node35 -->
<g id="edge34" class="edge">
<title>Node2&#45;&gt;Node35</title>
<path fill="none" stroke="#63b8ff" d="M1398.68,-139.78C1607.86,-136.81 2366.63,-124.29 2605.83,-96 2608.75,-95.66 2611.72,-95.25 2614.72,-94.8"/>
<polygon fill="#63b8ff" stroke="#63b8ff" points="1398.52,-136.28 1388.57,-139.93 1398.61,-143.28 1398.52,-136.28"/>
</g>
<!-- Node3&#45;&gt;Node4 -->
<g id="edge3" class="edge">
<title>Node3&#45;&gt;Node4</title>
<path fill="none" stroke="#63b8ff" d="M626.47,-73.18C527.65,-61.42 325.58,-37.38 217.6,-24.54"/>
<polygon fill="#63b8ff" stroke="#63b8ff" points="626.22,-76.67 636.56,-74.38 627.05,-69.72 626.22,-76.67"/>
</g>
<!-- Node3&#45;&gt;Node5 -->
<g id="edge4" class="edge">
<title>Node3&#45;&gt;Node5</title>
<path fill="none" stroke="#63b8ff" d="M660.31,-66.19C638.86,-53.59 607.83,-35.37 589.65,-24.7"/>
<polygon fill="#63b8ff" stroke="#63b8ff" points="658.74,-69.32 669.13,-71.37 662.28,-63.29 658.74,-69.32"/>
</g>
<!-- Node3&#45;&gt;Node6 -->
<g id="edge5" class="edge">
<title>Node3&#45;&gt;Node6</title>
<path fill="none" stroke="#63b8ff" d="M723.91,-69.1C729.24,-67.91 734.65,-66.83 739.83,-66 957.2,-31.18 1014.78,-51.78 1233.83,-30 1249.39,-28.45 1266.14,-26.49 1281.8,-24.54"/>
<polygon fill="#63b8ff" stroke="#63b8ff" points="722.78,-65.77 713.86,-71.48 724.4,-72.58 722.78,-65.77"/>
</g>
<!-- Node3&#45;&gt;Node7 -->
<g id="edge6" class="edge">
<title>Node3&#45;&gt;Node7</title>
<path fill="none" stroke="#63b8ff" d="M723.1,-69.13C728.68,-67.89 734.38,-66.79 739.83,-66 844.38,-50.78 1571.06,-25.86 1801.14,-18.27"/>
<polygon fill="#63b8ff" stroke="#63b8ff" points="722.18,-65.75 713.26,-71.47 723.79,-72.56 722.18,-65.75"/>
</g>
<!-- Node8 -->
<g id="node8" class="node">
<title>Node8</title>
<g id="a_node8"><a xlink:href="parser__set__error_8c.html" target="_top" xlink:title=" ">
<polygon fill="white" stroke="#666666" points="776.33,-30 657.33,-30 657.33,0 776.33,0 776.33,-30"/>
<text text-anchor="start" x="665.33" y="-18" font-family="Helvetica,sans-Serif" font-size="10.00">src/parser/parser_set</text>
<text text-anchor="middle" x="716.83" y="-7" font-family="Helvetica,sans-Serif" font-size="10.00">_error.c</text>
</a>
</g>
</g>
<!-- Node3&#45;&gt;Node8 -->
<g id="edge7" class="edge">
<title>Node3&#45;&gt;Node8</title>
<path fill="none" stroke="#63b8ff" d="M692.96,-62.3C698.15,-52.24 704.56,-39.81 709.43,-30.36"/>
<polygon fill="#63b8ff" stroke="#63b8ff" points="689.76,-60.88 688.28,-71.37 695.98,-64.08 689.76,-60.88"/>
</g>
<!-- Node3&#45;&gt;Node9 -->
<g id="edge8" class="edge">
<title>Node3&#45;&gt;Node9</title>
<path fill="none" stroke="#63b8ff" d="M722.9,-69.1C728.55,-67.86 734.31,-66.76 739.83,-66 1006.09,-29.19 1680.28,-41.17 1948.83,-30 2015.28,-27.24 2091.15,-23.07 2144.09,-20"/>
<polygon fill="#63b8ff" stroke="#63b8ff" points="721.88,-65.74 712.96,-71.46 723.49,-72.56 721.88,-65.74"/>
</g>
<!-- Node3&#45;&gt;Node10 -->
<g id="edge9" class="edge">
<title>Node3&#45;&gt;Node10</title>
<path fill="none" stroke="#63b8ff" d="M722.71,-69.11C728.41,-67.85 734.25,-66.75 739.83,-66 1080.4,-20.04 1942.67,-48.28 2285.83,-30 2319.74,-28.19 2357.41,-25.15 2388.47,-22.36"/>
<polygon fill="#63b8ff" stroke="#63b8ff" points="721.58,-65.78 712.66,-71.5 723.2,-72.59 721.58,-65.78"/>
</g>
<!-- Node11 -->
<g id="node11" class="node">
<title>Node11</title>
<g id="a_node11"><a xlink:href="parse__logical__operator_8c.html" target="_top" xlink:title=" ">
<polygon fill="white" stroke="#666666" points="924.83,-30 794.83,-30 794.83,0 924.83,0 924.83,-30"/>
<text text-anchor="start" x="802.83" y="-18" font-family="Helvetica,sans-Serif" font-size="10.00">src/parser/tokens/parse</text>
<text text-anchor="middle" x="859.83" y="-7" font-family="Helvetica,sans-Serif" font-size="10.00">_logical_operator.c</text>
</a>
</g>
</g>
<!-- Node3&#45;&gt;Node11 -->
<g id="edge10" class="edge">
<title>Node3&#45;&gt;Node11</title>
<path fill="none" stroke="#63b8ff" d="M717.03,-67.93C746.59,-57.18 789.86,-41.44 821.02,-30.12"/>
<polygon fill="#63b8ff" stroke="#63b8ff" points="715.77,-64.66 707.57,-71.37 718.16,-71.24 715.77,-64.66"/>
</g>
<!-- Node3&#45;&gt;Node12 -->
<g id="edge11" class="edge">
<title>Node3&#45;&gt;Node12</title>
<path fill="none" stroke="#63b8ff" d="M722.71,-69.09C728.41,-67.84 734.25,-66.75 739.83,-66 1133.76,-13.47 2131.34,-57.06 2527.83,-30 2545.62,-28.79 2564.83,-26.83 2582.55,-24.77"/>
<polygon fill="#63b8ff" stroke="#63b8ff" points="721.58,-65.76 712.66,-71.48 723.2,-72.57 721.58,-65.76"/>
</g>
<!-- Node13 -->
<g id="node13" class="node">
<title>Node13</title>
<g id="a_node13"><a xlink:href="parse__sequence_8c.html" target="_top" xlink:title=" ">
<polygon fill="white" stroke="#666666" points="1072.83,-30 942.83,-30 942.83,0 1072.83,0 1072.83,-30"/>
<text text-anchor="start" x="950.83" y="-18" font-family="Helvetica,sans-Serif" font-size="10.00">src/parser/tokens/parse</text>
<text text-anchor="middle" x="1007.83" y="-7" font-family="Helvetica,sans-Serif" font-size="10.00">_sequence.c</text>
</a>
</g>
</g>
<!-- Node3&#45;&gt;Node13 -->
<g id="edge12" class="edge">
<title>Node3&#45;&gt;Node13</title>
<path fill="none" stroke="#63b8ff" d="M726.42,-69.06C730.94,-67.99 735.47,-66.95 739.83,-66 825.52,-47.36 847.64,-46.15 933.83,-30 936.66,-29.47 939.55,-28.93 942.47,-28.38"/>
<polygon fill="#63b8ff" stroke="#63b8ff" points="725.51,-65.68 716.62,-71.44 727.17,-72.48 725.51,-65.68"/>
</g>
<!-- Node3&#45;&gt;Node14 -->
<g id="edge13" class="edge">
<title>Node3&#45;&gt;Node14</title>
<path fill="none" stroke="#63b8ff" d="M722.7,-69.08C728.41,-67.83 734.25,-66.74 739.83,-66 1176.54,-8.21 2282.75,-65.53 2721.83,-30 2732.18,-29.16 2743.1,-27.93 2753.74,-26.54"/>
<polygon fill="#63b8ff" stroke="#63b8ff" points="721.58,-65.75 712.66,-71.47 723.2,-72.56 721.58,-65.75"/>
</g>
<!-- Node3&#45;&gt;Node15 -->
<g id="edge14" class="edge">
<title>Node3&#45;&gt;Node15</title>
<path fill="none" stroke="#63b8ff" d="M722.7,-69.07C728.41,-67.82 734.25,-66.74 739.83,-66 1214.25,-3.57 2416.22,-72.55 2892.83,-30 2899.61,-29.39 2906.67,-28.57 2913.69,-27.62"/>
<polygon fill="#63b8ff" stroke="#63b8ff" points="721.58,-65.74 712.66,-71.46 723.19,-72.55 721.58,-65.74"/>
</g>
<!-- Node16 -->
<g id="node16" class="node">
<title>Node16</title>
<g id="a_node16"><a xlink:href="parser__globbing_8c.html" target="_top" xlink:title=" ">
<polygon fill="white" stroke="#666666" points="1224.83,-30 1090.83,-30 1090.83,0 1224.83,0 1224.83,-30"/>
<text text-anchor="start" x="1098.83" y="-18" font-family="Helvetica,sans-Serif" font-size="10.00">src/parser/tokens/parser</text>
<text text-anchor="middle" x="1157.83" y="-7" font-family="Helvetica,sans-Serif" font-size="10.00">_globbing.c</text>
</a>
</g>
</g>
<!-- Node3&#45;&gt;Node16 -->
<g id="edge15" class="edge">
<title>Node3&#45;&gt;Node16</title>
<path fill="none" stroke="#63b8ff" d="M724.5,-69.13C729.64,-67.96 734.84,-66.88 739.83,-66 890.34,-39.4 930.57,-51.86 1081.83,-30 1084.76,-29.58 1087.74,-29.12 1090.74,-28.65"/>
<polygon fill="#63b8ff" stroke="#63b8ff" points="723.69,-65.72 714.77,-71.44 725.31,-72.53 723.69,-65.72"/>
</g>
<!-- Node3&#45;&gt;Node17 -->
<g id="edge16" class="edge">
<title>Node3&#45;&gt;Node17</title>
<path fill="none" stroke="#63b8ff" d="M640.86,-68.89C603.86,-59.16 549.12,-44.37 501.83,-30 496.24,-28.3 490.27,-26.38 484.64,-24.51"/>
<polygon fill="#63b8ff" stroke="#63b8ff" points="640.24,-72.35 650.8,-71.5 642.02,-65.57 640.24,-72.35"/>
</g>
</g>
</svg>
        <g id="navigator" transform="translate(0 0)" fill="#404254">
                <rect fill="#f2f5e9" fill-opacity="0.5" stroke="#606060" stroke-width=".5" x="0" y="0" width="60" height="60"/>
                <use id="zoomplus" xlink:href="#zoomPlus" x="17" y="9" onmousedown="handleZoom(evt,'in')"/>
                <use id="zoomminus" xlink:href="#zoomMin" x="42" y="9" onmousedown="handleZoom(evt,'out')"/>
                <use id="reset" xlink:href="#resetDef" x="30" y="36" onmousedown="handleReset()"/>
                <g id="arrowUp" xlink:href="#dirArrow" transform="translate(30 24)" onmousedown="handlePan(0,-1)">
                  <use xlink:href="#rim" fill="#404040">
                        <set attributeName="fill" to="#808080" begin="arrowUp.mouseover" end="arrowUp.mouseout"/>
                  </use>
                  <path fill="none" stroke="white" stroke-width="1.5" d="M0,-3.0v7 M-2.5,-0.5L0,-3.0L2.5,-0.5"/>
                </g>
                <g id="arrowRight" xlink:href="#dirArrow" transform="rotate(90) translate(36 -43)" onmousedown="handlePan(1,0)">
                  <use xlink:href="#rim" fill="#404040">
                        <set attributeName="fill" to="#808080" begin="arrowRight.mouseover" end="arrowRight.mouseout"/>
                  </use>
                  <path fill="none" stroke="white" stroke-width="1.5" d="M0,-3.0v7 M-2.5,-0.5L0,-3.0L2.5,-0.5"/>
                </g>
                <g id="arrowDown" xlink:href="#dirArrow" transform="rotate(180) translate(-30 -48)" onmousedown="handlePan(0,1)">
                  <use xlink:href="#rim" fill="#404040">
                        <set attributeName="fill" to="#808080" begin="arrowDown.mouseover" end="arrowDown.mouseout"/>
                  </use>
                  <path fill="none" stroke="white" stroke-width="1.5" d="M0,-3.0v7 M-2.5,-0.5L0,-3.0L2.5,-0.5"/>
                </g>
                <g id="arrowLeft" xlink:href="#dirArrow" transform="rotate(270) translate(-36 17)" onmousedown="handlePan(-1,0)">
                  <use xlink:href="#rim" fill="#404040">
                        <set attributeName="fill" to="#808080" begin="arrowLeft.mouseover" end="arrowLeft.mouseout"/>
                  </use>
                  <path fill="none" stroke="white" stroke-width="1.5" d="M0,-3.0v7 M-2.5,-0.5L0,-3.0L2.5,-0.5"/>
                </g>
        </g>
        <svg viewBox="0 0 15 15" width="100%" height="30px" preserveAspectRatio="xMaxYMin meet">
         <g id="arrow_out" transform="scale(0.3 0.3)">
          <a xlink:href="token_8h__dep__incl_org.svg" target="_base">
           <rect id="button" ry="5" rx="5" y="6" x="6" height="38" width="38"
                fill="#f2f5e9" fill-opacity="0.5" stroke="#606060" stroke-width="1.0"/>
           <path id="arrow"
             d="M 11.500037,31.436501 C 11.940474,20.09759 22.043105,11.32322 32.158766,21.979434 L 37.068811,17.246167 C 37.068811,17.246167 37.088388,32 37.088388,32 L 22.160133,31.978069 C 22.160133,31.978069 26.997745,27.140456 26.997745,27.140456 C 18.528582,18.264221 13.291696,25.230495 11.500037,31.436501 z"
             style="fill:#404040;"/>
          </a>
         </g>
        </svg>
</svg>
