<?xml version="1.0" encoding="UTF-8" standalone="no"?>
<!DOCTYPE svg PUBLIC "-//W3C//DTD SVG 1.1//EN"
 "http://www.w3.org/Graphics/SVG/1.1/DTD/svg11.dtd">
<!-- Generated by graphviz version 2.43.0 (0)
 -->
<!-- Title: include/token.h Pages: 1 -->
<svg width="3594pt" height="214pt"
 viewBox="0.00 0.00 3593.50 214.00" xmlns="http://www.w3.org/2000/svg" xmlns:xlink="http://www.w3.org/1999/xlink">
<g id="graph0" class="graph" transform="scale(1 1) rotate(0) translate(4 210)">
<title>include/token.h</title>
<!-- Node1 -->
<g id="node1" class="node">
<title>Node1</title>
<g id="a_node1"><a xlink:title=" ">
<polygon fill="#999999" stroke="#666666" points="2148,-206 2057,-206 2057,-187 2148,-187 2148,-206"/>
<text text-anchor="middle" x="2102.5" y="-194" font-family="Helvetica,sans-Serif" font-size="10.00">include/token.h</text>
</a>
</g>
</g>
<!-- Node2 -->
<g id="node2" class="node">
<title>Node2</title>
<g id="a_node2"><a xlink:href="lexer_8h.html" target="_top" xlink:title=" ">
<polygon fill="white" stroke="#666666" points="2110,-151 2023,-151 2023,-132 2110,-132 2110,-151"/>
<text text-anchor="middle" x="2066.5" y="-139" font-family="Helvetica,sans-Serif" font-size="10.00">include/lexer.h</text>
</a>
</g>
</g>
<!-- Node1&#45;&gt;Node2 -->
<g id="edge1" class="edge">
<title>Node1&#45;&gt;Node2</title>
<path fill="none" stroke="#63b8ff" d="M2090.88,-178.39C2084.68,-169.27 2077.33,-158.45 2072.33,-151.09"/>
<polygon fill="#63b8ff" stroke="#63b8ff" points="2088.04,-180.44 2096.56,-186.75 2093.83,-176.51 2088.04,-180.44"/>
</g>
<!-- Node3 -->
<g id="node3" class="node">
<title>Node3</title>
<g id="a_node3"><a xlink:href="parser_8h.html" target="_top" xlink:title=" ">
<polygon fill="white" stroke="#666666" points="1029.5,-90.5 935.5,-90.5 935.5,-71.5 1029.5,-71.5 1029.5,-90.5"/>
<text text-anchor="middle" x="982.5" y="-78.5" font-family="Helvetica,sans-Serif" font-size="10.00">include/parser.h</text>
</a>
</g>
</g>
<!-- Node1&#45;&gt;Node3 -->
<g id="edge37" class="edge">
<title>Node1&#45;&gt;Node3</title>
<path fill="none" stroke="#63b8ff" d="M2046.69,-195.7C1841.25,-196.08 1134.23,-194.21 1043.5,-151 1016.07,-137.94 995.76,-106.26 987.1,-90.79"/>
<polygon fill="#63b8ff" stroke="#63b8ff" points="2046.96,-199.2 2056.95,-195.68 2046.94,-192.2 2046.96,-199.2"/>
</g>
<!-- Node4 -->
<g id="node4" class="node">
<title>Node4</title>
<g id="a_node4"><a xlink:href="parser__destroy_8c.html" target="_top" xlink:title=" ">
<polygon fill="white" stroke="#666666" points="147,-24.5 0,-24.5 0,-5.5 147,-5.5 147,-24.5"/>
<text text-anchor="middle" x="73.5" y="-12.5" font-family="Helvetica,sans-Serif" font-size="10.00">src/parser/parser_destroy.c</text>
</a>
</g>
</g>
<!-- Node1&#45;&gt;Node4 -->
<g id="edge50" class="edge">
<title>Node1&#45;&gt;Node4</title>
<path fill="none" stroke="#63b8ff" d="M2046.41,-195.18C1812.58,-193.63 914.56,-185.51 633.5,-151 423.81,-125.25 178.86,-50.07 99.63,-24.57"/>
<polygon fill="#63b8ff" stroke="#63b8ff" points="2046.69,-198.68 2056.71,-195.25 2046.74,-191.68 2046.69,-198.68"/>
</g>
<!-- Node6 -->
<g id="node6" class="node">
<title>Node6</title>
<g id="a_node6"><a xlink:href="parser__next_8c.html" target="_top" xlink:title=" ">
<polygon fill="white" stroke="#666666" points="1785.5,-24.5 1651.5,-24.5 1651.5,-5.5 1785.5,-5.5 1785.5,-24.5"/>
<text text-anchor="middle" x="1718.5" y="-12.5" font-family="Helvetica,sans-Serif" font-size="10.00">src/parser/parser_next.c</text>
</a>
</g>
</g>
<!-- Node1&#45;&gt;Node6 -->
<g id="edge51" class="edge">
<title>Node1&#45;&gt;Node6</title>
<path fill="none" stroke="#63b8ff" d="M2046.61,-194.27C1846.65,-189.28 1175.44,-167.29 1114.5,-96 1037.67,-6.11 1525.18,-44.76 1642.5,-30 1653.68,-28.59 1665.71,-26.6 1676.82,-24.56"/>
<polygon fill="#63b8ff" stroke="#63b8ff" points="2046.8,-197.77 2056.88,-194.52 2046.97,-190.78 2046.8,-197.77"/>
</g>
<!-- Node7 -->
<g id="node7" class="node">
<title>Node7</title>
<g id="a_node7"><a xlink:href="parser__parse_8c.html" target="_top" xlink:title=" ">
<polygon fill="white" stroke="#666666" points="304,-24.5 165,-24.5 165,-5.5 304,-5.5 304,-24.5"/>
<text text-anchor="middle" x="234.5" y="-12.5" font-family="Helvetica,sans-Serif" font-size="10.00">src/parser/parser_parse.c</text>
</a>
</g>
</g>
<!-- Node1&#45;&gt;Node7 -->
<g id="edge52" class="edge">
<title>Node1&#45;&gt;Node7</title>
<path fill="none" stroke="#63b8ff" d="M2046.71,-195.3C1823.79,-194.25 996.58,-187.91 737.5,-151 548.63,-124.09 329.39,-49.83 258.15,-24.55"/>
<polygon fill="#63b8ff" stroke="#63b8ff" points="2046.85,-198.8 2056.86,-195.35 2046.88,-191.8 2046.85,-198.8"/>
</g>
<!-- Node9 -->
<g id="node9" class="node">
<title>Node9</title>
<g id="a_node9"><a xlink:href="parser__utils_8c.html" target="_top" xlink:title=" ">
<polygon fill="white" stroke="#666666" points="455,-24.5 322,-24.5 322,-5.5 455,-5.5 455,-24.5"/>
<text text-anchor="middle" x="388.5" y="-12.5" font-family="Helvetica,sans-Serif" font-size="10.00">src/parser/parser_utils.c</text>
</a>
</g>
</g>
<!-- Node1&#45;&gt;Node9 -->
<g id="edge53" class="edge">
<title>Node1&#45;&gt;Node9</title>
<path fill="none" stroke="#63b8ff" d="M2046.89,-195.49C1833.63,-195.14 1068.1,-191.08 828.5,-151 662.61,-123.25 472.04,-49.86 409.54,-24.65"/>
<polygon fill="#63b8ff" stroke="#63b8ff" points="2046.91,-198.99 2056.91,-195.5 2046.92,-191.99 2046.91,-198.99"/>
</g>
<!-- Node10 -->
<g id="node10" class="node">
<title>Node10</title>
<g id="a_node10"><a xlink:href="parse__command_8c.html" target="_top" xlink:title=" ">
<polygon fill="white" stroke="#666666" points="603.5,-30 473.5,-30 473.5,0 603.5,0 603.5,-30"/>
<text text-anchor="start" x="481.5" y="-18" font-family="Helvetica,sans-Serif" font-size="10.00">src/parser/tokens/parse</text>
<text text-anchor="middle" x="538.5" y="-7" font-family="Helvetica,sans-Serif" font-size="10.00">_command.c</text>
</a>
</g>
</g>
<!-- Node1&#45;&gt;Node10 -->
<g id="edge54" class="edge">
<title>Node1&#45;&gt;Node10</title>
<path fill="none" stroke="#63b8ff" d="M2046.54,-195.74C1841.11,-196.26 1128.93,-194.79 906.5,-151 774.96,-125.1 627.95,-59.12 567.17,-30.08"/>
<polygon fill="#63b8ff" stroke="#63b8ff" points="2046.8,-199.24 2056.79,-195.71 2046.78,-192.24 2046.8,-199.24"/>
</g>
<!-- Node12 -->
<g id="node12" class="node">
<title>Node12</title>
<g id="a_node12"><a xlink:href="parse__repeat_8c.html" target="_top" xlink:title=" ">
<polygon fill="white" stroke="#666666" points="751.5,-30 621.5,-30 621.5,0 751.5,0 751.5,-30"/>
<text text-anchor="start" x="629.5" y="-18" font-family="Helvetica,sans-Serif" font-size="10.00">src/parser/tokens/parse</text>
<text text-anchor="middle" x="686.5" y="-7" font-family="Helvetica,sans-Serif" font-size="10.00">_repeat.c</text>
</a>
</g>
</g>
<!-- Node1&#45;&gt;Node12 -->
<g id="edge55" class="edge">
<title>Node1&#45;&gt;Node12</title>
<path fill="none" stroke="#63b8ff" d="M2046.71,-194.64C1832.92,-191.18 1072.59,-177.11 967.5,-151 864.02,-125.29 753.4,-59.21 707.91,-30.11"/>
<polygon fill="#63b8ff" stroke="#63b8ff" points="2046.72,-198.14 2056.77,-194.8 2046.83,-191.14 2046.72,-198.14"/>
</g>
<!-- Node14 -->
<g id="node14" class="node">
<title>Node14</title>
<g id="a_node14"><a xlink:href="parse__sequence__start_8c.html" target="_top" xlink:title=" ">
<polygon fill="white" stroke="#666666" points="899.5,-30 769.5,-30 769.5,0 899.5,0 899.5,-30"/>
<text text-anchor="start" x="777.5" y="-18" font-family="Helvetica,sans-Serif" font-size="10.00">src/parser/tokens/parse</text>
<text text-anchor="middle" x="834.5" y="-7" font-family="Helvetica,sans-Serif" font-size="10.00">_sequence_start.c</text>
</a>
</g>
</g>
<!-- Node1&#45;&gt;Node14 -->
<g id="edge56" class="edge">
<title>Node1&#45;&gt;Node14</title>
<path fill="none" stroke="#63b8ff" d="M2046.59,-194.87C1838.29,-192.3 1114.29,-181.26 1015.5,-151 941.28,-128.27 873.6,-59.94 846.73,-30.15"/>
<polygon fill="#63b8ff" stroke="#63b8ff" points="2046.65,-198.37 2056.69,-194.99 2046.73,-191.37 2046.65,-198.37"/>
</g>
<!-- Node15 -->
<g id="node15" class="node">
<title>Node15</title>
<g id="a_node15"><a xlink:href="parse__subshell_8c.html" target="_top" xlink:title=" ">
<polygon fill="white" stroke="#666666" points="1633.5,-30 1503.5,-30 1503.5,0 1633.5,0 1633.5,-30"/>
<text text-anchor="start" x="1511.5" y="-18" font-family="Helvetica,sans-Serif" font-size="10.00">src/parser/tokens/parse</text>
<text text-anchor="middle" x="1568.5" y="-7" font-family="Helvetica,sans-Serif" font-size="10.00">_subshell.c</text>
</a>
</g>
</g>
<!-- Node1&#45;&gt;Node15 -->
<g id="edge57" class="edge">
<title>Node1&#45;&gt;Node15</title>
<path fill="none" stroke="#63b8ff" d="M2046.64,-195.67C1877.36,-195.72 1371.96,-192.31 1213.5,-151 1160.22,-137.11 1131.53,-142.78 1102.5,-96 1040.58,3.78 949.98,-106.33 1494.5,-30 1497.35,-29.6 1500.25,-29.17 1503.19,-28.71"/>
<polygon fill="#63b8ff" stroke="#63b8ff" points="2046.83,-199.17 2056.82,-195.66 2046.82,-192.17 2046.83,-199.17"/>
</g>
<!-- Node22 -->
<g id="node22" class="node">
<title>Node22</title>
<g id="a_node22"><a xlink:href="lexer__next__token_8c.html" target="_top" xlink:title=" ">
<polygon fill="white" stroke="#666666" points="1235.5,-96 1123.5,-96 1123.5,-66 1235.5,-66 1235.5,-96"/>
<text text-anchor="start" x="1131.5" y="-84" font-family="Helvetica,sans-Serif" font-size="10.00">src/lexer/lexer_next</text>
<text text-anchor="middle" x="1179.5" y="-73" font-family="Helvetica,sans-Serif" font-size="10.00">_token.c</text>
</a>
</g>
</g>
<!-- Node1&#45;&gt;Node22 -->
<g id="edge38" class="edge">
<title>Node1&#45;&gt;Node22</title>
<path fill="none" stroke="#63b8ff" d="M2046.7,-191.42C1956.08,-184.58 1771.35,-169.66 1615.5,-151 1449.99,-131.19 1408.51,-125.79 1244.5,-96 1241.66,-95.48 1238.76,-94.94 1235.83,-94.37"/>
<polygon fill="#63b8ff" stroke="#63b8ff" points="2046.52,-194.92 2056.75,-192.18 2047.04,-187.94 2046.52,-194.92"/>
</g>
<!-- Node24 -->
<g id="node24" class="node">
<title>Node24</title>
<g id="a_node24"><a xlink:href="lexer__heredoc_8c.html" target="_top" xlink:title=" ">
<polygon fill="white" stroke="#666666" points="1373.5,-96 1253.5,-96 1253.5,-66 1373.5,-66 1373.5,-96"/>
<text text-anchor="start" x="1261.5" y="-84" font-family="Helvetica,sans-Serif" font-size="10.00">src/lexer/tokens/lexer</text>
<text text-anchor="middle" x="1313.5" y="-73" font-family="Helvetica,sans-Serif" font-size="10.00">_heredoc.c</text>
</a>
</g>
</g>
<!-- Node1&#45;&gt;Node24 -->
<g id="edge39" class="edge">
<title>Node1&#45;&gt;Node24</title>
<path fill="none" stroke="#63b8ff" d="M2046.62,-189.06C1925.21,-174.79 1628.36,-138.4 1381.5,-96 1378.89,-95.55 1376.22,-95.08 1373.53,-94.58"/>
<polygon fill="#63b8ff" stroke="#63b8ff" points="2046.45,-192.57 2056.79,-190.25 2047.26,-185.61 2046.45,-192.57"/>
</g>
<!-- Node25 -->
<g id="node25" class="node">
<title>Node25</title>
<g id="a_node25"><a xlink:href="lexer__logical__and_8c.html" target="_top" xlink:title=" ">
<polygon fill="white" stroke="#666666" points="2343.5,-96 2223.5,-96 2223.5,-66 2343.5,-66 2343.5,-96"/>
<text text-anchor="start" x="2231.5" y="-84" font-family="Helvetica,sans-Serif" font-size="10.00">src/lexer/tokens/lexer</text>
<text text-anchor="middle" x="2283.5" y="-73" font-family="Helvetica,sans-Serif" font-size="10.00">_logical_and.c</text>
</a>
</g>
</g>
<!-- Node1&#45;&gt;Node25 -->
<g id="edge40" class="edge">
<title>Node1&#45;&gt;Node25</title>
<path fill="none" stroke="#63b8ff" d="M2115.36,-178.29C2126.54,-164.3 2143.85,-144.84 2162.5,-132 2185.16,-116.41 2213.43,-104.38 2236.94,-96.04"/>
<polygon fill="#63b8ff" stroke="#63b8ff" points="2112.3,-176.52 2108.94,-186.57 2117.83,-180.81 2112.3,-176.52"/>
</g>
<!-- Node26 -->
<g id="node26" class="node">
<title>Node26</title>
<g id="a_node26"><a xlink:href="lexer__logical__or_8c.html" target="_top" xlink:title=" ">
<polygon fill="white" stroke="#666666" points="2481.5,-96 2361.5,-96 2361.5,-66 2481.5,-66 2481.5,-96"/>
<text text-anchor="start" x="2369.5" y="-84" font-family="Helvetica,sans-Serif" font-size="10.00">src/lexer/tokens/lexer</text>
<text text-anchor="middle" x="2421.5" y="-73" font-family="Helvetica,sans-Serif" font-size="10.00">_logical_or.c</text>
</a>
</g>
</g>
<!-- Node1&#45;&gt;Node26 -->
<g id="edge41" class="edge">
<title>Node1&#45;&gt;Node26</title>
<path fill="none" stroke="#63b8ff" d="M2121,-180.64C2139.91,-166.17 2170.66,-144.57 2200.5,-132 2215.3,-125.77 2301.09,-107.15 2361.32,-94.48"/>
<polygon fill="#63b8ff" stroke="#63b8ff" points="2118.69,-178.01 2112.96,-186.92 2122.99,-183.53 2118.69,-178.01"/>
</g>
<!-- Node27 -->
<g id="node27" class="node">
<title>Node27</title>
<g id="a_node27"><a xlink:href="lexer__newline_8c.html" target="_top" xlink:title=" ">
<polygon fill="white" stroke="#666666" points="2619.5,-96 2499.5,-96 2499.5,-66 2619.5,-66 2619.5,-96"/>
<text text-anchor="start" x="2507.5" y="-84" font-family="Helvetica,sans-Serif" font-size="10.00">src/lexer/tokens/lexer</text>
<text text-anchor="middle" x="2559.5" y="-73" font-family="Helvetica,sans-Serif" font-size="10.00">_newline.c</text>
</a>
</g>
</g>
<!-- Node1&#45;&gt;Node27 -->
<g id="edge42" class="edge">
<title>Node1&#45;&gt;Node27</title>
<path fill="none" stroke="#63b8ff" d="M2130.22,-182.5C2169.58,-164.04 2237.09,-132.42 2238.5,-132 2346.93,-99.72 2379.01,-115.26 2490.5,-96 2493.39,-95.5 2496.35,-94.97 2499.33,-94.42"/>
<polygon fill="#63b8ff" stroke="#63b8ff" points="2128.44,-179.46 2120.88,-186.88 2131.42,-185.8 2128.44,-179.46"/>
</g>
<!-- Node28 -->
<g id="node28" class="node">
<title>Node28</title>
<g id="a_node28"><a xlink:href="lexer__parenthesis_8c.html" target="_top" xlink:title=" ">
<polygon fill="white" stroke="#666666" points="2757.5,-96 2637.5,-96 2637.5,-66 2757.5,-66 2757.5,-96"/>
<text text-anchor="start" x="2645.5" y="-84" font-family="Helvetica,sans-Serif" font-size="10.00">src/lexer/tokens/lexer</text>
<text text-anchor="middle" x="2697.5" y="-73" font-family="Helvetica,sans-Serif" font-size="10.00">_parenthesis.c</text>
</a>
</g>
</g>
<!-- Node1&#45;&gt;Node28 -->
<g id="edge43" class="edge">
<title>Node1&#45;&gt;Node28</title>
<path fill="none" stroke="#63b8ff" d="M2140.29,-183.87C2166.88,-175.41 2203.17,-163.33 2234.5,-151 2253.56,-143.5 2256.72,-137.33 2276.5,-132 2428.34,-91.06 2473.03,-119.66 2628.5,-96 2631.4,-95.56 2634.36,-95.08 2637.35,-94.57"/>
<polygon fill="#63b8ff" stroke="#63b8ff" points="2139.09,-180.57 2130.6,-186.92 2141.19,-187.25 2139.09,-180.57"/>
</g>
<!-- Node29 -->
<g id="node29" class="node">
<title>Node29</title>
<g id="a_node29"><a xlink:href="lexer__pipe_8c.html" target="_top" xlink:title=" ">
<polygon fill="white" stroke="#666666" points="2895.5,-96 2775.5,-96 2775.5,-66 2895.5,-66 2895.5,-96"/>
<text text-anchor="start" x="2783.5" y="-84" font-family="Helvetica,sans-Serif" font-size="10.00">src/lexer/tokens/lexer</text>
<text text-anchor="middle" x="2835.5" y="-73" font-family="Helvetica,sans-Serif" font-size="10.00">_pipe.c</text>
</a>
</g>
</g>
<!-- Node1&#45;&gt;Node29 -->
<g id="edge44" class="edge">
<title>Node1&#45;&gt;Node29</title>
<path fill="none" stroke="#63b8ff" d="M2150.46,-184.6C2184.13,-176.49 2230.01,-164.52 2269.5,-151 2290.04,-143.97 2293.41,-137.15 2314.5,-132 2510.27,-84.2 2566.94,-124.09 2766.5,-96 2769.4,-95.59 2772.37,-95.14 2775.36,-94.65"/>
<polygon fill="#63b8ff" stroke="#63b8ff" points="2149.34,-181.27 2140.42,-186.99 2150.96,-188.08 2149.34,-181.27"/>
</g>
<!-- Node30 -->
<g id="node30" class="node">
<title>Node30</title>
<g id="a_node30"><a xlink:href="lexer__redirect__append_8c.html" target="_top" xlink:title=" ">
<polygon fill="white" stroke="#666666" points="3033.5,-96 2913.5,-96 2913.5,-66 3033.5,-66 3033.5,-96"/>
<text text-anchor="start" x="2921.5" y="-84" font-family="Helvetica,sans-Serif" font-size="10.00">src/lexer/tokens/lexer</text>
<text text-anchor="middle" x="2973.5" y="-73" font-family="Helvetica,sans-Serif" font-size="10.00">_redirect_append.c</text>
</a>
</g>
</g>
<!-- Node1&#45;&gt;Node30 -->
<g id="edge45" class="edge">
<title>Node1&#45;&gt;Node30</title>
<path fill="none" stroke="#63b8ff" d="M2157.97,-186.15C2199.39,-178.5 2257.12,-166.45 2306.5,-151 2327.61,-144.39 2330.95,-137.01 2352.5,-132 2591.97,-76.33 2660.81,-128.52 2904.5,-96 2907.41,-95.61 2910.38,-95.17 2913.37,-94.7"/>
<polygon fill="#63b8ff" stroke="#63b8ff" points="2157.28,-182.72 2148.07,-187.95 2158.53,-189.6 2157.28,-182.72"/>
</g>
<!-- Node31 -->
<g id="node31" class="node">
<title>Node31</title>
<g id="a_node31"><a xlink:href="lexer__redirect__in_8c.html" target="_top" xlink:title=" ">
<polygon fill="white" stroke="#666666" points="3171.5,-96 3051.5,-96 3051.5,-66 3171.5,-66 3171.5,-96"/>
<text text-anchor="start" x="3059.5" y="-84" font-family="Helvetica,sans-Serif" font-size="10.00">src/lexer/tokens/lexer</text>
<text text-anchor="middle" x="3111.5" y="-73" font-family="Helvetica,sans-Serif" font-size="10.00">_redirect_in.c</text>
</a>
</g>
</g>
<!-- Node1&#45;&gt;Node31 -->
<g id="edge46" class="edge">
<title>Node1&#45;&gt;Node31</title>
<path fill="none" stroke="#63b8ff" d="M2158.59,-188.41C2207.92,-181.41 2281.34,-169.1 2343.5,-151 2365.13,-144.7 2368.51,-136.91 2390.5,-132 2673.75,-68.76 2754.64,-132.95 3042.5,-96 3045.41,-95.63 3048.38,-95.2 3051.37,-94.73"/>
<polygon fill="#63b8ff" stroke="#63b8ff" points="2157.87,-184.98 2148.45,-189.83 2158.83,-191.91 2157.87,-184.98"/>
</g>
<!-- Node32 -->
<g id="node32" class="node">
<title>Node32</title>
<g id="a_node32"><a xlink:href="lexer__redirect__out_8c.html" target="_top" xlink:title=" ">
<polygon fill="white" stroke="#666666" points="3309.5,-96 3189.5,-96 3189.5,-66 3309.5,-66 3309.5,-96"/>
<text text-anchor="start" x="3197.5" y="-84" font-family="Helvetica,sans-Serif" font-size="10.00">src/lexer/tokens/lexer</text>
<text text-anchor="middle" x="3249.5" y="-73" font-family="Helvetica,sans-Serif" font-size="10.00">_redirect_out.c</text>
</a>
</g>
</g>
<!-- Node1&#45;&gt;Node32 -->
<g id="edge47" class="edge">
<title>Node1&#45;&gt;Node32</title>
<path fill="none" stroke="#63b8ff" d="M2158.34,-190.35C2215.23,-184.23 2305.65,-172.09 2381.5,-151 2403.21,-144.96 2406.49,-136.83 2428.5,-132 2755.33,-60.29 2848.46,-137.39 3180.5,-96 3183.41,-95.64 3186.38,-95.22 3189.38,-94.76"/>
<polygon fill="#63b8ff" stroke="#63b8ff" points="2157.69,-186.89 2148.11,-191.42 2158.42,-193.86 2157.69,-186.89"/>
</g>
<!-- Node33 -->
<g id="node33" class="node">
<title>Node33</title>
<g id="a_node33"><a xlink:href="lexer__semicolon_8c.html" target="_top" xlink:title=" ">
<polygon fill="white" stroke="#666666" points="3447.5,-96 3327.5,-96 3327.5,-66 3447.5,-66 3447.5,-96"/>
<text text-anchor="start" x="3335.5" y="-84" font-family="Helvetica,sans-Serif" font-size="10.00">src/lexer/tokens/lexer</text>
<text text-anchor="middle" x="3387.5" y="-73" font-family="Helvetica,sans-Serif" font-size="10.00">_semicolon.c</text>
</a>
</g>
</g>
<!-- Node1&#45;&gt;Node33 -->
<g id="edge48" class="edge">
<title>Node1&#45;&gt;Node33</title>
<path fill="none" stroke="#63b8ff" d="M2158.35,-191.81C2222.32,-186.63 2329.88,-175.02 2419.5,-151 2441.26,-145.17 2444.48,-136.77 2466.5,-132 2836.92,-51.81 2942.28,-141.82 3318.5,-96 3321.41,-95.65 3324.38,-95.23 3327.38,-94.78"/>
<polygon fill="#63b8ff" stroke="#63b8ff" points="2157.77,-188.34 2148.08,-192.62 2158.32,-195.32 2157.77,-188.34"/>
</g>
<!-- Node34 -->
<g id="node34" class="node">
<title>Node34</title>
<g id="a_node34"><a xlink:href="lexer__word_8c.html" target="_top" xlink:title=" ">
<polygon fill="white" stroke="#666666" points="3585.5,-96 3465.5,-96 3465.5,-66 3585.5,-66 3585.5,-96"/>
<text text-anchor="start" x="3473.5" y="-84" font-family="Helvetica,sans-Serif" font-size="10.00">src/lexer/tokens/lexer</text>
<text text-anchor="middle" x="3525.5" y="-73" font-family="Helvetica,sans-Serif" font-size="10.00">_word.c</text>
</a>
</g>
</g>
<!-- Node1&#45;&gt;Node34 -->
<g id="edge49" class="edge">
<title>Node1&#45;&gt;Node34</title>
<path fill="none" stroke="#63b8ff" d="M2158.29,-193.35C2228.85,-189.52 2353.55,-179.09 2456.5,-151 2477.05,-145.39 2479.72,-136.7 2500.5,-132 2707.85,-85.06 3245.41,-121.22 3456.5,-96 3459.41,-95.65 3462.39,-95.25 3465.38,-94.8"/>
<polygon fill="#63b8ff" stroke="#63b8ff" points="2158.09,-189.85 2148.28,-193.86 2158.45,-196.84 2158.09,-189.85"/>
</g>
<!-- Node35 -->
<g id="node35" class="node">
<title>Node35</title>
<g id="a_node35"><a xlink:href="create__token_8c.html" target="_top" xlink:title=" ">
<polygon fill="white" stroke="#666666" points="2644,-151 2509,-151 2509,-132 2644,-132 2644,-151"/>
<text text-anchor="middle" x="2576.5" y="-139" font-family="Helvetica,sans-Serif" font-size="10.00">src/token/create_token.c</text>
</a>
</g>
</g>
<!-- Node1&#45;&gt;Node35 -->
<g id="edge58" class="edge">
<title>Node1&#45;&gt;Node35</title>
<path fill="none" stroke="#63b8ff" d="M2158.36,-189.25C2245.73,-179.49 2414.42,-160.62 2508.64,-150.09"/>
<polygon fill="#63b8ff" stroke="#63b8ff" points="2157.93,-185.78 2148.38,-190.37 2158.71,-192.74 2157.93,-185.78"/>
</g>
<!-- Node36 -->
<g id="node36" class="node">
<title>Node36</title>
<g id="a_node36"><a xlink:href="destroy__token_8c.html" target="_top" xlink:title=" ">
<polygon fill="white" stroke="#666666" points="2803,-151 2662,-151 2662,-132 2803,-132 2803,-151"/>
<text text-anchor="middle" x="2732.5" y="-139" font-family="Helvetica,sans-Serif" font-size="10.00">src/token/destroy_token.c</text>
</a>
</g>
</g>
<!-- Node1&#45;&gt;Node36 -->
<g id="edge59" class="edge">
<title>Node1&#45;&gt;Node36</title>
<path fill="none" stroke="#63b8ff" d="M2158.39,-191.48C2257.96,-184.21 2472.63,-168.03 2653.5,-151 2656.25,-150.74 2659.05,-150.47 2661.87,-150.19"/>
<polygon fill="#63b8ff" stroke="#63b8ff" points="2157.97,-188 2148.25,-192.22 2158.48,-194.98 2157.97,-188"/>
</g>
<!-- Node2&#45;&gt;Node3 -->
<g id="edge2" class="edge">
<title>Node2&#45;&gt;Node3</title>
<path fill="none" stroke="#63b8ff" d="M2012.38,-139.09C1866.97,-135.05 1455.72,-122.05 1114.5,-96 1086.35,-93.85 1054.92,-90.55 1029.79,-87.7"/>
<polygon fill="#63b8ff" stroke="#63b8ff" points="2012.7,-142.6 2022.79,-139.37 2012.89,-135.6 2012.7,-142.6"/>
</g>
<!-- Node5 -->
<g id="node5" class="node">
<title>Node5</title>
<g id="a_node5"><a xlink:href="parser__init_8c.html" target="_top" xlink:title=" ">
<polygon fill="white" stroke="#666666" points="1931.5,-24.5 1803.5,-24.5 1803.5,-5.5 1931.5,-5.5 1931.5,-24.5"/>
<text text-anchor="middle" x="1867.5" y="-12.5" font-family="Helvetica,sans-Serif" font-size="10.00">src/parser/parser_init.c</text>
</a>
</g>
</g>
<!-- Node2&#45;&gt;Node5 -->
<g id="edge34" class="edge">
<title>Node2&#45;&gt;Node5</title>
<path fill="none" stroke="#63b8ff" d="M2012.55,-137.89C1977.25,-133.55 1932.16,-122.68 1901.5,-96 1879.64,-76.98 1871.45,-41.49 1868.71,-24.93"/>
<polygon fill="#63b8ff" stroke="#63b8ff" points="2012.37,-141.39 2022.69,-138.99 2013.13,-134.43 2012.37,-141.39"/>
</g>
<!-- Node2&#45;&gt;Node6 -->
<g id="edge35" class="edge">
<title>Node2&#45;&gt;Node6</title>
<path fill="none" stroke="#63b8ff" d="M2012.69,-138.77C1861.16,-133.65 1440.61,-117.54 1420.5,-96 1307.67,24.87 1105.8,-122.94 1642.5,-30 1652.41,-28.28 1663.04,-26.37 1673.12,-24.52"/>
<polygon fill="#63b8ff" stroke="#63b8ff" points="2012.58,-142.27 2022.7,-139.11 2012.82,-135.27 2012.58,-142.27"/>
</g>
<!-- Node17 -->
<g id="node17" class="node">
<title>Node17</title>
<g id="a_node17"><a xlink:href="shell_8c.html" target="_top" xlink:title=" ">
<polygon fill="white" stroke="#666666" points="2015,-24.5 1950,-24.5 1950,-5.5 2015,-5.5 2015,-24.5"/>
<text text-anchor="middle" x="1982.5" y="-12.5" font-family="Helvetica,sans-Serif" font-size="10.00">src/shell.c</text>
</a>
</g>
</g>
<!-- Node2&#45;&gt;Node17 -->
<g id="edge36" class="edge">
<title>Node2&#45;&gt;Node17</title>
<path fill="none" stroke="#63b8ff" d="M2012.93,-132.23C1972.89,-124.83 1923.01,-112.58 1910.5,-96 1889.68,-68.41 1936.55,-38.92 1964.15,-24.68"/>
<polygon fill="#63b8ff" stroke="#63b8ff" points="2012.41,-135.69 2022.87,-134.01 2013.64,-128.8 2012.41,-135.69"/>
</g>
<!-- Node18 -->
<g id="node18" class="node">
<title>Node18</title>
<g id="a_node18"><a xlink:href="lexer__expand__command__substitution_8c.html" target="_top" xlink:title=" ">
<polygon fill="white" stroke="#666666" points="2061.5,-96 1919.5,-96 1919.5,-66 2061.5,-66 2061.5,-96"/>
<text text-anchor="start" x="1927.5" y="-84" font-family="Helvetica,sans-Serif" font-size="10.00">src/lexer/lexer_expand</text>
<text text-anchor="middle" x="1990.5" y="-73" font-family="Helvetica,sans-Serif" font-size="10.00">_command_substitution.c</text>
</a>
</g>
</g>
<!-- Node2&#45;&gt;Node18 -->
<g id="edge17" class="edge">
<title>Node2&#45;&gt;Node18</title>
<path fill="none" stroke="#63b8ff" d="M2047.36,-125.77C2035.55,-116.68 2020.49,-105.09 2008.84,-96.11"/>
<polygon fill="#63b8ff" stroke="#63b8ff" points="2045.23,-128.54 2055.29,-131.87 2049.5,-122.99 2045.23,-128.54"/>
</g>
<!-- Node19 -->
<g id="node19" class="node">
<title>Node19</title>
<g id="a_node19"><a xlink:href="lexer__expand__tilde_8c.html" target="_top" xlink:title=" ">
<polygon fill="white" stroke="#666666" points="2205.5,-96 2079.5,-96 2079.5,-66 2205.5,-66 2205.5,-96"/>
<text text-anchor="start" x="2087.5" y="-84" font-family="Helvetica,sans-Serif" font-size="10.00">src/lexer/lexer_expand</text>
<text text-anchor="middle" x="2142.5" y="-73" font-family="Helvetica,sans-Serif" font-size="10.00">_tilde.c</text>
</a>
</g>
</g>
<!-- Node2&#45;&gt;Node19 -->
<g id="edge18" class="edge">
<title>Node2&#45;&gt;Node19</title>
<path fill="none" stroke="#63b8ff" d="M2085.64,-125.77C2097.45,-116.68 2112.51,-105.09 2124.16,-96.11"/>
<polygon fill="#63b8ff" stroke="#63b8ff" points="2083.5,-122.99 2077.71,-131.87 2087.77,-128.54 2083.5,-122.99"/>
</g>
<!-- Node20 -->
<g id="node20" class="node">
<title>Node20</title>
<g id="a_node20"><a xlink:href="lexer__expand__variable_8c.html" target="_top" xlink:title=" ">
<polygon fill="white" stroke="#666666" points="1555.5,-96 1429.5,-96 1429.5,-66 1555.5,-66 1555.5,-96"/>
<text text-anchor="start" x="1437.5" y="-84" font-family="Helvetica,sans-Serif" font-size="10.00">src/lexer/lexer_expand</text>
<text text-anchor="middle" x="1492.5" y="-73" font-family="Helvetica,sans-Serif" font-size="10.00">_variable.c</text>
</a>
</g>
</g>
<!-- Node2&#45;&gt;Node20 -->
<g id="edge19" class="edge">
<title>Node2&#45;&gt;Node20</title>
<path fill="none" stroke="#63b8ff" d="M2012.48,-137.55C1920.28,-132.11 1726.75,-118.9 1564.5,-96 1561.6,-95.59 1558.64,-95.14 1555.65,-94.66"/>
<polygon fill="#63b8ff" stroke="#63b8ff" points="2012.49,-141.06 2022.68,-138.15 2012.9,-134.07 2012.49,-141.06"/>
</g>
<!-- Node21 -->
<g id="node21" class="node">
<title>Node21</title>
<g id="a_node21"><a xlink:href="lexer__init_8c.html" target="_top" xlink:title=" ">
<polygon fill="white" stroke="#666666" points="1687.5,-90.5 1573.5,-90.5 1573.5,-71.5 1687.5,-71.5 1687.5,-90.5"/>
<text text-anchor="middle" x="1630.5" y="-78.5" font-family="Helvetica,sans-Serif" font-size="10.00">src/lexer/lexer_init.c</text>
</a>
</g>
</g>
<!-- Node2&#45;&gt;Node21 -->
<g id="edge20" class="edge">
<title>Node2&#45;&gt;Node21</title>
<path fill="none" stroke="#63b8ff" d="M2012.53,-135.53C1940.29,-128.54 1808.28,-114.54 1696.5,-96 1687.14,-94.45 1677.1,-92.48 1667.74,-90.51"/>
<polygon fill="#63b8ff" stroke="#63b8ff" points="2012.46,-139.04 2022.75,-136.52 2013.13,-132.08 2012.46,-139.04"/>
</g>
<!-- Node2&#45;&gt;Node22 -->
<g id="edge21" class="edge">
<title>Node2&#45;&gt;Node22</title>
<path fill="none" stroke="#63b8ff" d="M2012.37,-140.52C1880.45,-139.93 1532.06,-134.51 1244.5,-96 1241.64,-95.62 1238.72,-95.18 1235.77,-94.69"/>
<polygon fill="#63b8ff" stroke="#63b8ff" points="2012.59,-144.02 2022.61,-140.56 2012.62,-137.02 2012.59,-144.02"/>
</g>
<!-- Node23 -->
<g id="node23" class="node">
<title>Node23</title>
<g id="a_node23"><a xlink:href="lexer__utils_8c.html" target="_top" xlink:title=" ">
<polygon fill="white" stroke="#666666" points="1825,-90.5 1706,-90.5 1706,-71.5 1825,-71.5 1825,-90.5"/>
<text text-anchor="middle" x="1765.5" y="-78.5" font-family="Helvetica,sans-Serif" font-size="10.00">src/lexer/lexer_utils.c</text>
</a>
</g>
</g>
<!-- Node2&#45;&gt;Node23 -->
<g id="edge22" class="edge">
<title>Node2&#45;&gt;Node23</title>
<path fill="none" stroke="#63b8ff" d="M2012.64,-130.03C1954.56,-118.74 1863.18,-100.98 1809.32,-90.52"/>
<polygon fill="#63b8ff" stroke="#63b8ff" points="2012.25,-133.52 2022.73,-131.99 2013.58,-126.65 2012.25,-133.52"/>
</g>
<!-- Node2&#45;&gt;Node24 -->
<g id="edge23" class="edge">
<title>Node2&#45;&gt;Node24</title>
<path fill="none" stroke="#63b8ff" d="M2012.31,-139.18C1896.96,-135.89 1618.77,-125.35 1387.5,-96 1382.96,-95.42 1378.28,-94.74 1373.58,-94"/>
<polygon fill="#63b8ff" stroke="#63b8ff" points="2012.54,-142.69 2022.63,-139.47 2012.73,-135.69 2012.54,-142.69"/>
</g>
<!-- Node2&#45;&gt;Node25 -->
<g id="edge24" class="edge">
<title>Node2&#45;&gt;Node25</title>
<path fill="none" stroke="#63b8ff" d="M2107.97,-129.32C2143.05,-119.86 2193.51,-106.26 2231.33,-96.06"/>
<polygon fill="#63b8ff" stroke="#63b8ff" points="2106.8,-126.01 2098.05,-131.99 2108.62,-132.77 2106.8,-126.01"/>
</g>
<!-- Node2&#45;&gt;Node26 -->
<g id="edge25" class="edge">
<title>Node2&#45;&gt;Node26</title>
<path fill="none" stroke="#63b8ff" d="M2120.18,-132.9C2177.74,-124.57 2271.78,-110.46 2352.5,-96 2355.39,-95.48 2358.34,-94.94 2361.32,-94.38"/>
<polygon fill="#63b8ff" stroke="#63b8ff" points="2119.61,-129.44 2110.21,-134.33 2120.61,-136.37 2119.61,-129.44"/>
</g>
<!-- Node2&#45;&gt;Node27 -->
<g id="edge26" class="edge">
<title>Node2&#45;&gt;Node27</title>
<path fill="none" stroke="#63b8ff" d="M2120.42,-136.5C2201.17,-130.14 2358.17,-116.32 2490.5,-96 2493.4,-95.55 2496.36,-95.07 2499.35,-94.56"/>
<polygon fill="#63b8ff" stroke="#63b8ff" points="2119.71,-133.05 2110.01,-137.31 2120.25,-140.03 2119.71,-133.05"/>
</g>
<!-- Node2&#45;&gt;Node28 -->
<g id="edge27" class="edge">
<title>Node2&#45;&gt;Node28</title>
<path fill="none" stroke="#63b8ff" d="M2120.32,-137.08C2241.2,-129.25 2531.26,-109.66 2628.5,-96 2631.41,-95.59 2634.37,-95.14 2637.36,-94.65"/>
<polygon fill="#63b8ff" stroke="#63b8ff" points="2119.94,-133.59 2110.19,-137.73 2120.39,-140.58 2119.94,-133.59"/>
</g>
<!-- Node2&#45;&gt;Node29 -->
<g id="edge28" class="edge">
<title>Node2&#45;&gt;Node29</title>
<path fill="none" stroke="#63b8ff" d="M2120.25,-138.04C2261.64,-131.41 2641.66,-112.55 2766.5,-96 2769.41,-95.61 2772.38,-95.18 2775.37,-94.7"/>
<polygon fill="#63b8ff" stroke="#63b8ff" points="2119.91,-134.55 2110.09,-138.51 2120.24,-141.54 2119.91,-134.55"/>
</g>
<!-- Node2&#45;&gt;Node30 -->
<g id="edge29" class="edge">
<title>Node2&#45;&gt;Node30</title>
<path fill="none" stroke="#63b8ff" d="M2120.12,-138.69C2280.01,-133.11 2751.77,-115.44 2904.5,-96 2907.41,-95.63 2910.38,-95.21 2913.38,-94.74"/>
<polygon fill="#63b8ff" stroke="#63b8ff" points="2119.92,-135.19 2110.05,-139.04 2120.17,-142.19 2119.92,-135.19"/>
</g>
<!-- Node2&#45;&gt;Node31 -->
<g id="edge30" class="edge">
<title>Node2&#45;&gt;Node31</title>
<path fill="none" stroke="#63b8ff" d="M2120.2,-138.54C2311.19,-131.49 2951.02,-107.3 3042.5,-96 3045.41,-95.64 3048.38,-95.23 3051.38,-94.77"/>
<polygon fill="#63b8ff" stroke="#63b8ff" points="2119.99,-135.04 2110.12,-138.91 2120.24,-142.04 2119.99,-135.04"/>
</g>
<!-- Node2&#45;&gt;Node32 -->
<g id="edge31" class="edge">
<title>Node2&#45;&gt;Node32</title>
<path fill="none" stroke="#63b8ff" d="M2120.37,-138.86C2328.65,-132.43 3074.85,-108.74 3180.5,-96 3183.41,-95.65 3186.39,-95.24 3189.38,-94.79"/>
<polygon fill="#63b8ff" stroke="#63b8ff" points="2120.18,-135.36 2110.29,-139.17 2120.39,-142.36 2120.18,-135.36"/>
</g>
<!-- Node2&#45;&gt;Node33 -->
<g id="edge32" class="edge">
<title>Node2&#45;&gt;Node33</title>
<path fill="none" stroke="#63b8ff" d="M2120.24,-139.11C2344.37,-133.26 3198.57,-110.2 3318.5,-96 3321.41,-95.66 3324.39,-95.25 3327.38,-94.8"/>
<polygon fill="#63b8ff" stroke="#63b8ff" points="2119.96,-135.62 2110.05,-139.38 2120.14,-142.62 2119.96,-135.62"/>
</g>
<!-- Node2&#45;&gt;Node34 -->
<g id="edge33" class="edge">
<title>Node2&#45;&gt;Node34</title>
<path fill="none" stroke="#63b8ff" d="M2120.18,-139.32C2359.39,-133.97 3322.25,-111.66 3456.5,-96 3459.41,-95.66 3462.39,-95.26 3465.38,-94.82"/>
<polygon fill="#63b8ff" stroke="#63b8ff" points="2119.92,-135.82 2110,-139.54 2120.08,-142.82 2119.92,-135.82"/>
</g>
<!-- Node3&#45;&gt;Node4 -->
<g id="edge3" class="edge">
<title>Node3&#45;&gt;Node4</title>
<path fill="none" stroke="#63b8ff" d="M925.16,-78.68C790.46,-75.11 443.43,-63.18 155.5,-30 143.3,-28.59 130.17,-26.58 118.06,-24.51"/>
<polygon fill="#63b8ff" stroke="#63b8ff" points="925.17,-82.18 935.26,-78.94 925.35,-75.18 925.17,-82.18"/>
</g>
<!-- Node3&#45;&gt;Node5 -->
<g id="edge4" class="edge">
<title>Node3&#45;&gt;Node5</title>
<path fill="none" stroke="#63b8ff" d="M1039.8,-73.26C1062.97,-70.7 1089.99,-67.95 1114.5,-66 1416.19,-42.03 1494.07,-66.59 1794.5,-30 1805.52,-28.66 1817.37,-26.64 1828.25,-24.55"/>
<polygon fill="#63b8ff" stroke="#63b8ff" points="1039.34,-69.79 1029.79,-74.37 1040.12,-76.74 1039.34,-69.79"/>
</g>
<!-- Node3&#45;&gt;Node6 -->
<g id="edge5" class="edge">
<title>Node3&#45;&gt;Node6</title>
<path fill="none" stroke="#63b8ff" d="M1039.94,-71.12C1053.54,-69.23 1068.01,-67.38 1081.5,-66 1330.04,-40.49 1394.55,-60.68 1642.5,-30 1653.82,-28.6 1666,-26.59 1677.22,-24.52"/>
<polygon fill="#63b8ff" stroke="#63b8ff" points="1039.15,-67.7 1029.75,-72.57 1040.14,-74.63 1039.15,-67.7"/>
</g>
<!-- Node3&#45;&gt;Node7 -->
<g id="edge6" class="edge">
<title>Node3&#45;&gt;Node7</title>
<path fill="none" stroke="#63b8ff" d="M925.14,-77.72C809.09,-72.65 538.28,-58.61 312.5,-30 301.17,-28.56 288.99,-26.59 277.7,-24.57"/>
<polygon fill="#63b8ff" stroke="#63b8ff" points="925.08,-81.22 935.22,-78.15 925.38,-74.22 925.08,-81.22"/>
</g>
<!-- Node8 -->
<g id="node8" class="node">
<title>Node8</title>
<g id="a_node8"><a xlink:href="parser__set__error_8c.html" target="_top" xlink:title=" ">
<polygon fill="white" stroke="#666666" points="1337,-30 1218,-30 1218,0 1337,0 1337,-30"/>
<text text-anchor="start" x="1226" y="-18" font-family="Helvetica,sans-Serif" font-size="10.00">src/parser/parser_set</text>
<text text-anchor="middle" x="1277.5" y="-7" font-family="Helvetica,sans-Serif" font-size="10.00">_error.c</text>
</a>
</g>
</g>
<!-- Node3&#45;&gt;Node8 -->
<g id="edge7" class="edge">
<title>Node3&#45;&gt;Node8</title>
<path fill="none" stroke="#63b8ff" d="M1029.13,-69.22C1033.98,-68.12 1038.84,-67.03 1043.5,-66 1102.72,-52.88 1170.5,-38.46 1217.82,-28.49"/>
<polygon fill="#63b8ff" stroke="#63b8ff" points="1028.23,-65.84 1019.25,-71.47 1029.78,-72.66 1028.23,-65.84"/>
</g>
<!-- Node3&#45;&gt;Node9 -->
<g id="edge8" class="edge">
<title>Node3&#45;&gt;Node9</title>
<path fill="none" stroke="#63b8ff" d="M925.15,-76.08C829.42,-69.18 631.12,-53.34 464.5,-30 453.74,-28.49 442.18,-26.54 431.4,-24.57"/>
<polygon fill="#63b8ff" stroke="#63b8ff" points="924.98,-79.58 935.2,-76.8 925.48,-72.6 924.98,-79.58"/>
</g>
<!-- Node3&#45;&gt;Node10 -->
<g id="edge9" class="edge">
<title>Node3&#45;&gt;Node10</title>
<path fill="none" stroke="#63b8ff" d="M925.03,-73.19C852.16,-64.33 722.73,-47.86 612.5,-30 609.66,-29.54 606.76,-29.06 603.84,-28.55"/>
<polygon fill="#63b8ff" stroke="#63b8ff" points="925.02,-76.71 935.36,-74.44 925.86,-69.76 925.02,-76.71"/>
</g>
<!-- Node11 -->
<g id="node11" class="node">
<title>Node11</title>
<g id="a_node11"><a xlink:href="parse__logical__operator_8c.html" target="_top" xlink:title=" ">
<polygon fill="white" stroke="#666666" points="1485.5,-30 1355.5,-30 1355.5,0 1485.5,0 1485.5,-30"/>
<text text-anchor="start" x="1363.5" y="-18" font-family="Helvetica,sans-Serif" font-size="10.00">src/parser/tokens/parse</text>
<text text-anchor="middle" x="1420.5" y="-7" font-family="Helvetica,sans-Serif" font-size="10.00">_logical_operator.c</text>
</a>
</g>
</g>
<!-- Node3&#45;&gt;Node11 -->
<g id="edge10" class="edge">
<title>Node3&#45;&gt;Node11</title>
<path fill="none" stroke="#63b8ff" d="M1026.82,-69.25C1032.42,-68.06 1038.08,-66.94 1043.5,-66 1176.68,-42.85 1211.88,-50.41 1345.5,-30 1348.64,-29.52 1351.85,-29.01 1355.1,-28.47"/>
<polygon fill="#63b8ff" stroke="#63b8ff" points="1025.9,-65.86 1016.89,-71.43 1027.41,-72.7 1025.9,-65.86"/>
</g>
<!-- Node3&#45;&gt;Node12 -->
<g id="edge11" class="edge">
<title>Node3&#45;&gt;Node12</title>
<path fill="none" stroke="#63b8ff" d="M932.99,-69.3C883.16,-58.52 806.06,-41.85 751.36,-30.02"/>
<polygon fill="#63b8ff" stroke="#63b8ff" points="932.37,-72.74 942.89,-71.44 933.85,-65.9 932.37,-72.74"/>
</g>
<!-- Node13 -->
<g id="node13" class="node">
<title>Node13</title>
<g id="a_node13"><a xlink:href="parse__sequence_8c.html" target="_top" xlink:title=" ">
<polygon fill="white" stroke="#666666" points="1047.5,-30 917.5,-30 917.5,0 1047.5,0 1047.5,-30"/>
<text text-anchor="start" x="925.5" y="-18" font-family="Helvetica,sans-Serif" font-size="10.00">src/parser/tokens/parse</text>
<text text-anchor="middle" x="982.5" y="-7" font-family="Helvetica,sans-Serif" font-size="10.00">_sequence.c</text>
</a>
</g>
</g>
<!-- Node3&#45;&gt;Node13 -->
<g id="edge12" class="edge">
<title>Node3&#45;&gt;Node13</title>
<path fill="none" stroke="#63b8ff" d="M982.5,-61.35C982.5,-51.47 982.5,-39.51 982.5,-30.36"/>
<polygon fill="#63b8ff" stroke="#63b8ff" points="979,-61.37 982.5,-71.37 986,-61.37 979,-61.37"/>
</g>
<!-- Node3&#45;&gt;Node14 -->
<g id="edge13" class="edge">
<title>Node3&#45;&gt;Node14</title>
<path fill="none" stroke="#63b8ff" d="M953.28,-67.36C928.46,-56.63 892.88,-41.25 867.14,-30.12"/>
<polygon fill="#63b8ff" stroke="#63b8ff" points="951.97,-70.61 962.54,-71.37 954.75,-64.19 951.97,-70.61"/>
</g>
<!-- Node3&#45;&gt;Node15 -->
<g id="edge14" class="edge">
<title>Node3&#45;&gt;Node15</title>
<path fill="none" stroke="#63b8ff" d="M1025.52,-69.3C1031.53,-68.05 1037.65,-66.9 1043.5,-66 1242.24,-35.43 1295.2,-56.73 1494.5,-30 1497.35,-29.62 1500.26,-29.2 1503.19,-28.75"/>
<polygon fill="#63b8ff" stroke="#63b8ff" points="1024.59,-65.92 1015.57,-71.48 1026.09,-72.76 1024.59,-65.92"/>
</g>
<!-- Node16 -->
<g id="node16" class="node">
<title>Node16</title>
<g id="a_node16"><a xlink:href="parser__globbing_8c.html" target="_top" xlink:title=" ">
<polygon fill="white" stroke="#666666" points="1199.5,-30 1065.5,-30 1065.5,0 1199.5,0 1199.5,-30"/>
<text text-anchor="start" x="1073.5" y="-18" font-family="Helvetica,sans-Serif" font-size="10.00">src/parser/tokens/parser</text>
<text text-anchor="middle" x="1132.5" y="-7" font-family="Helvetica,sans-Serif" font-size="10.00">_globbing.c</text>
</a>
</g>
</g>
<!-- Node3&#45;&gt;Node16 -->
<g id="edge15" class="edge">
<title>Node3&#45;&gt;Node16</title>
<path fill="none" stroke="#63b8ff" d="M1012.12,-67.36C1037.27,-56.63 1073.33,-41.25 1099.42,-30.12"/>
<polygon fill="#63b8ff" stroke="#63b8ff" points="1010.55,-64.23 1002.73,-71.37 1013.3,-70.66 1010.55,-64.23"/>
</g>
<!-- Node3&#45;&gt;Node17 -->
<g id="edge16" class="edge">
<title>Node3&#45;&gt;Node17</title>
<path fill="none" stroke="#63b8ff" d="M1039.8,-73.14C1062.96,-70.57 1089.98,-67.83 1114.5,-66 1480.94,-38.61 1579.15,-96.75 1940.5,-30 1947.15,-28.77 1954.19,-26.73 1960.57,-24.59"/>
<polygon fill="#63b8ff" stroke="#63b8ff" points="1039.33,-69.67 1029.78,-74.27 1040.11,-76.63 1039.33,-69.67"/>
</g>
</g>
</svg>
