<?xml version="1.0" encoding="UTF-8" standalone="no"?>
<!DOCTYPE svg PUBLIC "-//W3C//DTD SVG 1.1//EN"
 "http://www.w3.org/Graphics/SVG/1.1/DTD/svg11.dtd">
<!-- Generated by graphviz version 2.43.0 (0)
 -->
<!-- Title: include/token.h Pages: 1 -->
<!--zoomable 214 -->
<svg id="main" version="1.1" xmlns="http://www.w3.org/2000/svg" xmlns:xlink="http://www.w3.org/1999/xlink" xml:space="preserve" onload="init(evt)">
<style type="text/css"><![CDATA[
.edge:hover path { stroke: red; }
.edge:hover polygon { stroke: red; fill: red; }
]]></style>
<script type="text/javascript"><![CDATA[
var edges = document.getElementsByTagName('g');
if (edges && edges.length) {
  for (var i=0;i<edges.length;i++) {
    if (edges[i].id.substr(0,4)=='edge') {
      edges[i].setAttribute('class','edge');
    }
  }
}
]]></script>
        <defs>
                <circle id="rim" cx="0" cy="0" r="7"/>
                <circle id="rim2" cx="0" cy="0" r="3.5"/>
                <g id="zoomPlus">
                        <use xlink:href="#rim" fill="#404040">
                                <set attributeName="fill" to="#808080" begin="zoomplus.mouseover" end="zoomplus.mouseout"/>
                        </use>
                        <path d="M-4,0h8M0,-4v8" fill="none" stroke="white" stroke-width="1.5" pointer-events="none"/>
                </g>
                <g id="zoomMin">
                        <use xlink:href="#rim" fill="#404040">
                                <set attributeName="fill" to="#808080" begin="zoomminus.mouseover" end="zoomminus.mouseout"/>
                        </use>
                        <path d="M-4,0h8" fill="none" stroke="white" stroke-width="1.5" pointer-events="none"/>
                </g>
                <g id="dirArrow">
                        <path fill="none" stroke="white" stroke-width="1.5" d="M0,-3.0v7 M-2.5,-0.5L0,-3.0L2.5,-0.5"/>
                </g>
               <g id="resetDef">
                       <use xlink:href="#rim2" fill="#404040">
                               <set attributeName="fill" to="#808080" begin="reset.mouseover" end="reset.mouseout"/>
                       </use>
               </g>
        </defs>

<script type="text/javascript">
var viewWidth = 3434;
var viewHeight = 214;
var sectionId = 'dynsection-0';
</script>
<script xlink:href="svgpan.js"/>
<svg id="graph" class="graph">
<g id="viewport">
<title>include/token.h</title>
<!-- Node1 -->
<g id="node1" class="node">
<title>Node1</title>
<g id="a_node1"><a xlink:title=" ">
<polygon fill="#999999" stroke="#666666" points="2067,-206 1976,-206 1976,-187 2067,-187 2067,-206"/>
<text text-anchor="middle" x="2021.5" y="-194" font-family="Helvetica,sans-Serif" font-size="10.00">include/token.h</text>
</a>
</g>
</g>
<!-- Node2 -->
<g id="node2" class="node">
<title>Node2</title>
<g id="a_node2"><a xlink:href="lexer_8h.html" target="_top" xlink:title=" ">
<polygon fill="white" stroke="#666666" points="2029,-151 1942,-151 1942,-132 2029,-132 2029,-151"/>
<text text-anchor="middle" x="1985.5" y="-139" font-family="Helvetica,sans-Serif" font-size="10.00">include/lexer.h</text>
</a>
</g>
</g>
<!-- Node1&#45;&gt;Node2 -->
<g id="edge1" class="edge">
<title>Node1&#45;&gt;Node2</title>
<path fill="none" stroke="#63b8ff" d="M2009.88,-178.39C2003.68,-169.27 1996.33,-158.45 1991.33,-151.09"/>
<polygon fill="#63b8ff" stroke="#63b8ff" points="2007.04,-180.44 2015.56,-186.75 2012.83,-176.51 2007.04,-180.44"/>
</g>
<!-- Node3 -->
<g id="node3" class="node">
<title>Node3</title>
<g id="a_node3"><a xlink:href="parser_8h.html" target="_top" xlink:title=" ">
<polygon fill="white" stroke="#666666" points="1029.5,-90.5 935.5,-90.5 935.5,-71.5 1029.5,-71.5 1029.5,-90.5"/>
<text text-anchor="middle" x="982.5" y="-78.5" font-family="Helvetica,sans-Serif" font-size="10.00">include/parser.h</text>
</a>
</g>
</g>
<!-- Node1&#45;&gt;Node3 -->
<g id="edge36" class="edge">
<title>Node1&#45;&gt;Node3</title>
<path fill="none" stroke="#63b8ff" d="M1965.76,-195.49C1770.78,-195.09 1126.63,-190.76 1043.5,-151 1016.09,-137.89 995.77,-106.23 987.11,-90.78"/>
<polygon fill="#63b8ff" stroke="#63b8ff" points="1965.78,-198.99 1975.79,-195.5 1965.8,-191.99 1965.78,-198.99"/>
</g>
<!-- Node4 -->
<g id="node4" class="node">
<title>Node4</title>
<g id="a_node4"><a xlink:href="parser__destroy_8c.html" target="_top" xlink:title=" ">
<polygon fill="white" stroke="#666666" points="147,-24.5 0,-24.5 0,-5.5 147,-5.5 147,-24.5"/>
<text text-anchor="middle" x="73.5" y="-12.5" font-family="Helvetica,sans-Serif" font-size="10.00">src/parser/parser_destroy.c</text>
</a>
</g>
</g>
<!-- Node1&#45;&gt;Node4 -->
<g id="edge49" class="edge">
<title>Node1&#45;&gt;Node4</title>
<path fill="none" stroke="#63b8ff" d="M1965.56,-195.07C1740.15,-193.1 897.89,-183.7 633.5,-151 519.3,-136.88 492.42,-122.74 380.5,-96 279.25,-71.81 160.17,-39.73 104.77,-24.6"/>
<polygon fill="#63b8ff" stroke="#63b8ff" points="1965.8,-198.57 1975.83,-195.15 1965.86,-191.57 1965.8,-198.57"/>
</g>
<!-- Node6 -->
<g id="node6" class="node">
<title>Node6</title>
<g id="a_node6"><a xlink:href="parser__next_8c.html" target="_top" xlink:title=" ">
<polygon fill="white" stroke="#666666" points="1785.5,-24.5 1651.5,-24.5 1651.5,-5.5 1785.5,-5.5 1785.5,-24.5"/>
<text text-anchor="middle" x="1718.5" y="-12.5" font-family="Helvetica,sans-Serif" font-size="10.00">src/parser/parser_next.c</text>
</a>
</g>
</g>
<!-- Node1&#45;&gt;Node6 -->
<g id="edge50" class="edge">
<title>Node1&#45;&gt;Node6</title>
<path fill="none" stroke="#63b8ff" d="M1965.53,-193.71C1776.47,-187.07 1170.18,-160.83 1114.5,-96 1037.46,-6.3 1525.18,-44.76 1642.5,-30 1653.68,-28.59 1665.71,-26.6 1676.82,-24.56"/>
<polygon fill="#63b8ff" stroke="#63b8ff" points="1965.69,-197.21 1975.8,-194.06 1965.93,-190.22 1965.69,-197.21"/>
</g>
<!-- Node7 -->
<g id="node7" class="node">
<title>Node7</title>
<g id="a_node7"><a xlink:href="parser__parse_8c.html" target="_top" xlink:title=" ">
<polygon fill="white" stroke="#666666" points="304,-24.5 165,-24.5 165,-5.5 304,-5.5 304,-24.5"/>
<text text-anchor="middle" x="234.5" y="-12.5" font-family="Helvetica,sans-Serif" font-size="10.00">src/parser/parser_parse.c</text>
</a>
</g>
</g>
<!-- Node1&#45;&gt;Node7 -->
<g id="edge51" class="edge">
<title>Node1&#45;&gt;Node7</title>
<path fill="none" stroke="#63b8ff" d="M1965.86,-195.17C1751.63,-193.64 979.98,-185.8 737.5,-151 548.66,-123.9 329.4,-49.76 258.16,-24.54"/>
<polygon fill="#63b8ff" stroke="#63b8ff" points="1965.91,-198.67 1975.94,-195.24 1965.96,-191.67 1965.91,-198.67"/>
</g>
<!-- Node9 -->
<g id="node9" class="node">
<title>Node9</title>
<g id="a_node9"><a xlink:href="parser__utils_8c.html" target="_top" xlink:title=" ">
<polygon fill="white" stroke="#666666" points="455,-24.5 322,-24.5 322,-5.5 455,-5.5 455,-24.5"/>
<text text-anchor="middle" x="388.5" y="-12.5" font-family="Helvetica,sans-Serif" font-size="10.00">src/parser/parser_utils.c</text>
</a>
</g>
</g>
<!-- Node1&#45;&gt;Node9 -->
<g id="edge52" class="edge">
<title>Node1&#45;&gt;Node9</title>
<path fill="none" stroke="#63b8ff" d="M1965.75,-195.33C1761.09,-194.42 1051.49,-188.57 828.5,-151 662.64,-123.06 472.05,-49.79 409.54,-24.63"/>
<polygon fill="#63b8ff" stroke="#63b8ff" points="1965.95,-198.83 1975.96,-195.38 1965.98,-191.83 1965.95,-198.83"/>
</g>
<!-- Node10 -->
<g id="node10" class="node">
<title>Node10</title>
<g id="a_node10"><a xlink:href="parse__command_8c.html" target="_top" xlink:title=" ">
<polygon fill="white" stroke="#666666" points="603.5,-30 473.5,-30 473.5,0 603.5,0 603.5,-30"/>
<text text-anchor="start" x="481.5" y="-18" font-family="Helvetica,sans-Serif" font-size="10.00">src/parser/tokens/parse</text>
<text text-anchor="middle" x="538.5" y="-7" font-family="Helvetica,sans-Serif" font-size="10.00">_command.c</text>
</a>
</g>
</g>
<!-- Node1&#45;&gt;Node10 -->
<g id="edge53" class="edge">
<title>Node1&#45;&gt;Node10</title>
<path fill="none" stroke="#63b8ff" d="M1965.75,-195.56C1769.68,-195.43 1112.56,-191.86 906.5,-151 775,-124.92 627.96,-59.04 567.18,-30.05"/>
<polygon fill="#63b8ff" stroke="#63b8ff" points="1965.83,-199.06 1975.83,-195.57 1965.83,-192.06 1965.83,-199.06"/>
</g>
<!-- Node12 -->
<g id="node12" class="node">
<title>Node12</title>
<g id="a_node12"><a xlink:href="parse__repeat_8c.html" target="_top" xlink:title=" ">
<polygon fill="white" stroke="#666666" points="751.5,-30 621.5,-30 621.5,0 751.5,0 751.5,-30"/>
<text text-anchor="start" x="629.5" y="-18" font-family="Helvetica,sans-Serif" font-size="10.00">src/parser/tokens/parse</text>
<text text-anchor="middle" x="686.5" y="-7" font-family="Helvetica,sans-Serif" font-size="10.00">_repeat.c</text>
</a>
</g>
</g>
<!-- Node1&#45;&gt;Node12 -->
<g id="edge54" class="edge">
<title>Node1&#45;&gt;Node12</title>
<path fill="none" stroke="#63b8ff" d="M1965.7,-194.46C1761.88,-190.49 1064.43,-175.24 967.5,-151 864.06,-125.14 753.42,-59.13 707.91,-30.09"/>
<polygon fill="#63b8ff" stroke="#63b8ff" points="1965.82,-197.96 1975.88,-194.66 1965.95,-190.97 1965.82,-197.96"/>
</g>
<!-- Node14 -->
<g id="node14" class="node">
<title>Node14</title>
<g id="a_node14"><a xlink:href="parse__sequence__start_8c.html" target="_top" xlink:title=" ">
<polygon fill="white" stroke="#666666" points="899.5,-30 769.5,-30 769.5,0 899.5,0 899.5,-30"/>
<text text-anchor="start" x="777.5" y="-18" font-family="Helvetica,sans-Serif" font-size="10.00">src/parser/tokens/parse</text>
<text text-anchor="middle" x="834.5" y="-7" font-family="Helvetica,sans-Serif" font-size="10.00">_sequence_start.c</text>
</a>
</g>
</g>
<!-- Node1&#45;&gt;Node14 -->
<g id="edge55" class="edge">
<title>Node1&#45;&gt;Node14</title>
<path fill="none" stroke="#63b8ff" d="M1965.53,-194.67C1767.4,-191.51 1106.24,-178.96 1015.5,-151 941.32,-128.15 873.61,-59.89 846.74,-30.13"/>
<polygon fill="#63b8ff" stroke="#63b8ff" points="1965.66,-198.17 1975.72,-194.83 1965.78,-191.17 1965.66,-198.17"/>
</g>
<!-- Node15 -->
<g id="node15" class="node">
<title>Node15</title>
<g id="a_node15"><a xlink:href="parse__subshell_8c.html" target="_top" xlink:title=" ">
<polygon fill="white" stroke="#666666" points="1633.5,-30 1503.5,-30 1503.5,0 1633.5,0 1633.5,-30"/>
<text text-anchor="start" x="1511.5" y="-18" font-family="Helvetica,sans-Serif" font-size="10.00">src/parser/tokens/parse</text>
<text text-anchor="middle" x="1568.5" y="-7" font-family="Helvetica,sans-Serif" font-size="10.00">_subshell.c</text>
</a>
</g>
</g>
<!-- Node1&#45;&gt;Node15 -->
<g id="edge56" class="edge">
<title>Node1&#45;&gt;Node15</title>
<path fill="none" stroke="#63b8ff" d="M1965.46,-195.22C1807.22,-194 1359.32,-187.32 1217.5,-151 1162.62,-136.94 1132.71,-143.93 1102.5,-96 1039.69,3.66 938.33,-107.97 1494.5,-30 1497.35,-29.6 1500.25,-29.17 1503.19,-28.71"/>
<polygon fill="#63b8ff" stroke="#63b8ff" points="1965.87,-198.73 1975.9,-195.3 1965.92,-191.73 1965.87,-198.73"/>
</g>
<!-- Node21 -->
<g id="node21" class="node">
<title>Node21</title>
<g id="a_node21"><a xlink:href="lexer__next__token_8c.html" target="_top" xlink:title=" ">
<polygon fill="white" stroke="#666666" points="1235.5,-96 1123.5,-96 1123.5,-66 1235.5,-66 1235.5,-96"/>
<text text-anchor="start" x="1131.5" y="-84" font-family="Helvetica,sans-Serif" font-size="10.00">src/lexer/lexer_next</text>
<text text-anchor="middle" x="1179.5" y="-73" font-family="Helvetica,sans-Serif" font-size="10.00">_token.c</text>
</a>
</g>
</g>
<!-- Node1&#45;&gt;Node21 -->
<g id="edge37" class="edge">
<title>Node1&#45;&gt;Node21</title>
<path fill="none" stroke="#63b8ff" d="M1965.77,-190.19C1837.77,-177.61 1513.11,-143.42 1244.5,-96 1241.66,-95.5 1238.75,-94.96 1235.82,-94.4"/>
<polygon fill="#63b8ff" stroke="#63b8ff" points="1965.44,-193.68 1975.73,-191.17 1966.12,-186.71 1965.44,-193.68"/>
</g>
<!-- Node23 -->
<g id="node23" class="node">
<title>Node23</title>
<g id="a_node23"><a xlink:href="lexer__heredoc_8c.html" target="_top" xlink:title=" ">
<polygon fill="white" stroke="#666666" points="1373.5,-96 1253.5,-96 1253.5,-66 1373.5,-66 1373.5,-96"/>
<text text-anchor="start" x="1261.5" y="-84" font-family="Helvetica,sans-Serif" font-size="10.00">src/lexer/tokens/lexer</text>
<text text-anchor="middle" x="1313.5" y="-73" font-family="Helvetica,sans-Serif" font-size="10.00">_heredoc.c</text>
</a>
</g>
</g>
<!-- Node1&#45;&gt;Node23 -->
<g id="edge38" class="edge">
<title>Node1&#45;&gt;Node23</title>
<path fill="none" stroke="#63b8ff" d="M1965.66,-186.55C1834.66,-165.55 1508.53,-113.27 1373.5,-91.62"/>
<polygon fill="#63b8ff" stroke="#63b8ff" points="1965.44,-190.06 1975.86,-188.18 1966.54,-183.15 1965.44,-190.06"/>
</g>
<!-- Node24 -->
<g id="node24" class="node">
<title>Node24</title>
<g id="a_node24"><a xlink:href="lexer__logical__and_8c.html" target="_top" xlink:title=" ">
<polygon fill="white" stroke="#666666" points="2183.5,-96 2063.5,-96 2063.5,-66 2183.5,-66 2183.5,-96"/>
<text text-anchor="start" x="2071.5" y="-84" font-family="Helvetica,sans-Serif" font-size="10.00">src/lexer/tokens/lexer</text>
<text text-anchor="middle" x="2123.5" y="-73" font-family="Helvetica,sans-Serif" font-size="10.00">_logical_and.c</text>
</a>
</g>
</g>
<!-- Node1&#45;&gt;Node24 -->
<g id="edge39" class="edge">
<title>Node1&#45;&gt;Node24</title>
<path fill="none" stroke="#63b8ff" d="M2035.99,-179.37C2055.99,-157.12 2091.73,-117.36 2110.76,-96.18"/>
<polygon fill="#63b8ff" stroke="#63b8ff" points="2033.25,-177.19 2029.17,-186.97 2038.45,-181.87 2033.25,-177.19"/>
</g>
<!-- Node25 -->
<g id="node25" class="node">
<title>Node25</title>
<g id="a_node25"><a xlink:href="lexer__logical__or_8c.html" target="_top" xlink:title=" ">
<polygon fill="white" stroke="#666666" points="2321.5,-96 2201.5,-96 2201.5,-66 2321.5,-66 2321.5,-96"/>
<text text-anchor="start" x="2209.5" y="-84" font-family="Helvetica,sans-Serif" font-size="10.00">src/lexer/tokens/lexer</text>
<text text-anchor="middle" x="2261.5" y="-73" font-family="Helvetica,sans-Serif" font-size="10.00">_logical_or.c</text>
</a>
</g>
</g>
<!-- Node1&#45;&gt;Node25 -->
<g id="edge40" class="edge">
<title>Node1&#45;&gt;Node25</title>
<path fill="none" stroke="#63b8ff" d="M2040.96,-180.91C2060.17,-167 2090.76,-146.13 2119.5,-132 2149.41,-117.3 2184.75,-104.84 2212.69,-96.04"/>
<polygon fill="#63b8ff" stroke="#63b8ff" points="2038.73,-178.21 2032.74,-186.95 2042.87,-183.85 2038.73,-178.21"/>
</g>
<!-- Node26 -->
<g id="node26" class="node">
<title>Node26</title>
<g id="a_node26"><a xlink:href="lexer__newline_8c.html" target="_top" xlink:title=" ">
<polygon fill="white" stroke="#666666" points="2459.5,-96 2339.5,-96 2339.5,-66 2459.5,-66 2459.5,-96"/>
<text text-anchor="start" x="2347.5" y="-84" font-family="Helvetica,sans-Serif" font-size="10.00">src/lexer/tokens/lexer</text>
<text text-anchor="middle" x="2399.5" y="-73" font-family="Helvetica,sans-Serif" font-size="10.00">_newline.c</text>
</a>
</g>
</g>
<!-- Node1&#45;&gt;Node26 -->
<g id="edge41" class="edge">
<title>Node1&#45;&gt;Node26</title>
<path fill="none" stroke="#63b8ff" d="M2049.37,-182.66C2068.55,-173.81 2094.6,-161.75 2117.5,-151 2135.32,-142.64 2138.84,-138.26 2157.5,-132 2161.86,-130.54 2268.99,-108.59 2339.23,-94.27"/>
<polygon fill="#63b8ff" stroke="#63b8ff" points="2047.9,-179.49 2040.29,-186.85 2050.83,-185.84 2047.9,-179.49"/>
</g>
<!-- Node27 -->
<g id="node27" class="node">
<title>Node27</title>
<g id="a_node27"><a xlink:href="lexer__parenthesis_8c.html" target="_top" xlink:title=" ">
<polygon fill="white" stroke="#666666" points="2597.5,-96 2477.5,-96 2477.5,-66 2597.5,-66 2597.5,-96"/>
<text text-anchor="start" x="2485.5" y="-84" font-family="Helvetica,sans-Serif" font-size="10.00">src/lexer/tokens/lexer</text>
<text text-anchor="middle" x="2537.5" y="-73" font-family="Helvetica,sans-Serif" font-size="10.00">_parenthesis.c</text>
</a>
</g>
</g>
<!-- Node1&#45;&gt;Node27 -->
<g id="edge42" class="edge">
<title>Node1&#45;&gt;Node27</title>
<path fill="none" stroke="#63b8ff" d="M2057.89,-183.88C2084.11,-175.31 2120.23,-163.08 2151.5,-151 2171.37,-143.32 2174.97,-137.67 2195.5,-132 2313.47,-99.43 2347.79,-116.18 2468.5,-96 2471.39,-95.52 2474.35,-95 2477.33,-94.46"/>
<polygon fill="#63b8ff" stroke="#63b8ff" points="2056.79,-180.56 2048.36,-186.98 2058.95,-187.22 2056.79,-180.56"/>
</g>
<!-- Node28 -->
<g id="node28" class="node">
<title>Node28</title>
<g id="a_node28"><a xlink:href="lexer__pipe_8c.html" target="_top" xlink:title=" ">
<polygon fill="white" stroke="#666666" points="2735.5,-96 2615.5,-96 2615.5,-66 2735.5,-66 2735.5,-96"/>
<text text-anchor="start" x="2623.5" y="-84" font-family="Helvetica,sans-Serif" font-size="10.00">src/lexer/tokens/lexer</text>
<text text-anchor="middle" x="2675.5" y="-73" font-family="Helvetica,sans-Serif" font-size="10.00">_pipe.c</text>
</a>
</g>
</g>
<!-- Node1&#45;&gt;Node28 -->
<g id="edge43" class="edge">
<title>Node1&#45;&gt;Node28</title>
<path fill="none" stroke="#63b8ff" d="M2068.81,-184.55C2102.29,-176.39 2148.06,-164.37 2187.5,-151 2208.45,-143.9 2212.04,-137.34 2233.5,-132 2395.12,-91.77 2441.78,-120.59 2606.5,-96 2609.4,-95.57 2612.37,-95.09 2615.35,-94.59"/>
<polygon fill="#63b8ff" stroke="#63b8ff" points="2067.73,-181.21 2058.83,-186.96 2069.38,-188.02 2067.73,-181.21"/>
</g>
<!-- Node29 -->
<g id="node29" class="node">
<title>Node29</title>
<g id="a_node29"><a xlink:href="lexer__redirect__append_8c.html" target="_top" xlink:title=" ">
<polygon fill="white" stroke="#666666" points="2873.5,-96 2753.5,-96 2753.5,-66 2873.5,-66 2873.5,-96"/>
<text text-anchor="start" x="2761.5" y="-84" font-family="Helvetica,sans-Serif" font-size="10.00">src/lexer/tokens/lexer</text>
<text text-anchor="middle" x="2813.5" y="-73" font-family="Helvetica,sans-Serif" font-size="10.00">_redirect_append.c</text>
</a>
</g>
</g>
<!-- Node1&#45;&gt;Node29 -->
<g id="edge44" class="edge">
<title>Node1&#45;&gt;Node29</title>
<path fill="none" stroke="#63b8ff" d="M2077.06,-185.94C2118.23,-178.22 2175.46,-166.17 2224.5,-151 2246.02,-144.34 2249.56,-137.14 2271.5,-132 2476.78,-83.92 2535.68,-125.02 2744.5,-96 2747.41,-95.6 2750.37,-95.15 2753.36,-94.66"/>
<polygon fill="#63b8ff" stroke="#63b8ff" points="2076.42,-182.5 2067.22,-187.76 2077.69,-189.38 2076.42,-182.5"/>
</g>
<!-- Node30 -->
<g id="node30" class="node">
<title>Node30</title>
<g id="a_node30"><a xlink:href="lexer__redirect__in_8c.html" target="_top" xlink:title=" ">
<polygon fill="white" stroke="#666666" points="3011.5,-96 2891.5,-96 2891.5,-66 3011.5,-66 3011.5,-96"/>
<text text-anchor="start" x="2899.5" y="-84" font-family="Helvetica,sans-Serif" font-size="10.00">src/lexer/tokens/lexer</text>
<text text-anchor="middle" x="2951.5" y="-73" font-family="Helvetica,sans-Serif" font-size="10.00">_redirect_in.c</text>
</a>
</g>
</g>
<!-- Node1&#45;&gt;Node30 -->
<g id="edge45" class="edge">
<title>Node1&#45;&gt;Node30</title>
<path fill="none" stroke="#63b8ff" d="M2077.59,-188.41C2126.92,-181.41 2200.34,-169.1 2262.5,-151 2284.13,-144.7 2287.53,-136.99 2309.5,-132 2558.32,-75.45 2629.53,-129.45 2882.5,-96 2885.41,-95.62 2888.38,-95.18 2891.37,-94.71"/>
<polygon fill="#63b8ff" stroke="#63b8ff" points="2076.87,-184.98 2067.45,-189.83 2077.83,-191.91 2076.87,-184.98"/>
</g>
<!-- Node31 -->
<g id="node31" class="node">
<title>Node31</title>
<g id="a_node31"><a xlink:href="lexer__redirect__out_8c.html" target="_top" xlink:title=" ">
<polygon fill="white" stroke="#666666" points="3149.5,-96 3029.5,-96 3029.5,-66 3149.5,-66 3149.5,-96"/>
<text text-anchor="start" x="3037.5" y="-84" font-family="Helvetica,sans-Serif" font-size="10.00">src/lexer/tokens/lexer</text>
<text text-anchor="middle" x="3089.5" y="-73" font-family="Helvetica,sans-Serif" font-size="10.00">_redirect_out.c</text>
</a>
</g>
</g>
<!-- Node1&#45;&gt;Node31 -->
<g id="edge46" class="edge">
<title>Node1&#45;&gt;Node31</title>
<path fill="none" stroke="#63b8ff" d="M2077.34,-190.35C2134.23,-184.23 2224.65,-172.09 2300.5,-151 2322.21,-144.96 2325.51,-136.89 2347.5,-132 2639.9,-66.98 2723.37,-133.88 3020.5,-96 3023.41,-95.63 3026.38,-95.2 3029.38,-94.74"/>
<polygon fill="#63b8ff" stroke="#63b8ff" points="2076.69,-186.89 2067.11,-191.42 2077.42,-193.86 2076.69,-186.89"/>
</g>
<!-- Node32 -->
<g id="node32" class="node">
<title>Node32</title>
<g id="a_node32"><a xlink:href="lexer__semicolon_8c.html" target="_top" xlink:title=" ">
<polygon fill="white" stroke="#666666" points="3287.5,-96 3167.5,-96 3167.5,-66 3287.5,-66 3287.5,-96"/>
<text text-anchor="start" x="3175.5" y="-84" font-family="Helvetica,sans-Serif" font-size="10.00">src/lexer/tokens/lexer</text>
<text text-anchor="middle" x="3227.5" y="-73" font-family="Helvetica,sans-Serif" font-size="10.00">_semicolon.c</text>
</a>
</g>
</g>
<!-- Node1&#45;&gt;Node32 -->
<g id="edge47" class="edge">
<title>Node1&#45;&gt;Node32</title>
<path fill="none" stroke="#63b8ff" d="M2077.35,-191.81C2141.32,-186.63 2248.88,-175.02 2338.5,-151 2360.26,-145.17 2363.49,-136.81 2385.5,-132 2721.48,-58.5 2817.19,-138.32 3158.5,-96 3161.41,-95.64 3164.38,-95.22 3167.38,-94.76"/>
<polygon fill="#63b8ff" stroke="#63b8ff" points="2076.77,-188.34 2067.08,-192.62 2077.32,-195.32 2076.77,-188.34"/>
</g>
<!-- Node33 -->
<g id="node33" class="node">
<title>Node33</title>
<g id="a_node33"><a xlink:href="lexer__word_8c.html" target="_top" xlink:title=" ">
<polygon fill="white" stroke="#666666" points="3425.5,-96 3305.5,-96 3305.5,-66 3425.5,-66 3425.5,-96"/>
<text text-anchor="start" x="3313.5" y="-84" font-family="Helvetica,sans-Serif" font-size="10.00">src/lexer/tokens/lexer</text>
<text text-anchor="middle" x="3365.5" y="-73" font-family="Helvetica,sans-Serif" font-size="10.00">_word.c</text>
</a>
</g>
</g>
<!-- Node1&#45;&gt;Node33 -->
<g id="edge48" class="edge">
<title>Node1&#45;&gt;Node33</title>
<path fill="none" stroke="#63b8ff" d="M2077.29,-193.35C2147.85,-189.52 2272.55,-179.09 2375.5,-151 2396.05,-145.39 2398.73,-136.74 2419.5,-132 2609.67,-88.61 3102.86,-119.47 3296.5,-96 3299.41,-95.65 3302.38,-95.24 3305.38,-94.78"/>
<polygon fill="#63b8ff" stroke="#63b8ff" points="2077.09,-189.85 2067.28,-193.86 2077.45,-196.84 2077.09,-189.85"/>
</g>
<!-- Node34 -->
<g id="node34" class="node">
<title>Node34</title>
<g id="a_node34"><a xlink:href="create__token_8c.html" target="_top" xlink:title=" ">
<polygon fill="white" stroke="#666666" points="2563,-151 2428,-151 2428,-132 2563,-132 2563,-151"/>
<text text-anchor="middle" x="2495.5" y="-139" font-family="Helvetica,sans-Serif" font-size="10.00">src/token/create_token.c</text>
</a>
</g>
</g>
<!-- Node1&#45;&gt;Node34 -->
<g id="edge57" class="edge">
<title>Node1&#45;&gt;Node34</title>
<path fill="none" stroke="#63b8ff" d="M2077.36,-189.25C2164.73,-179.49 2333.42,-160.62 2427.64,-150.09"/>
<polygon fill="#63b8ff" stroke="#63b8ff" points="2076.93,-185.78 2067.38,-190.37 2077.71,-192.74 2076.93,-185.78"/>
</g>
<!-- Node35 -->
<g id="node35" class="node">
<title>Node35</title>
<g id="a_node35"><a xlink:href="destroy__token_8c.html" target="_top" xlink:title=" ">
<polygon fill="white" stroke="#666666" points="2722,-151 2581,-151 2581,-132 2722,-132 2722,-151"/>
<text text-anchor="middle" x="2651.5" y="-139" font-family="Helvetica,sans-Serif" font-size="10.00">src/token/destroy_token.c</text>
</a>
</g>
</g>
<!-- Node1&#45;&gt;Node35 -->
<g id="edge58" class="edge">
<title>Node1&#45;&gt;Node35</title>
<path fill="none" stroke="#63b8ff" d="M2077.39,-191.48C2176.96,-184.21 2391.63,-168.03 2572.5,-151 2575.25,-150.74 2578.05,-150.47 2580.87,-150.19"/>
<polygon fill="#63b8ff" stroke="#63b8ff" points="2076.97,-188 2067.25,-192.22 2077.48,-194.98 2076.97,-188"/>
</g>
<!-- Node2&#45;&gt;Node3 -->
<g id="edge2" class="edge">
<title>Node2&#45;&gt;Node3</title>
<path fill="none" stroke="#63b8ff" d="M1931.75,-138.78C1795.12,-134.17 1423.44,-120.26 1114.5,-96 1086.36,-93.79 1054.92,-90.49 1029.79,-87.65"/>
<polygon fill="#63b8ff" stroke="#63b8ff" points="1931.83,-142.28 1941.94,-139.12 1932.07,-135.28 1931.83,-142.28"/>
</g>
<!-- Node5 -->
<g id="node5" class="node">
<title>Node5</title>
<g id="a_node5"><a xlink:href="parser__init_8c.html" target="_top" xlink:title=" ">
<polygon fill="white" stroke="#666666" points="1931.5,-24.5 1803.5,-24.5 1803.5,-5.5 1931.5,-5.5 1931.5,-24.5"/>
<text text-anchor="middle" x="1867.5" y="-12.5" font-family="Helvetica,sans-Serif" font-size="10.00">src/parser/parser_init.c</text>
</a>
</g>
</g>
<!-- Node2&#45;&gt;Node5 -->
<g id="edge33" class="edge">
<title>Node2&#45;&gt;Node5</title>
<path fill="none" stroke="#63b8ff" d="M1931.53,-139.71C1808.6,-137.35 1516.09,-128.35 1486.5,-96 1414.6,-17.41 1263.29,-111.87 1794.5,-30 1804.7,-28.43 1815.66,-26.47 1825.9,-24.52"/>
<polygon fill="#63b8ff" stroke="#63b8ff" points="1931.77,-143.21 1941.83,-139.9 1931.9,-136.21 1931.77,-143.21"/>
</g>
<!-- Node2&#45;&gt;Node6 -->
<g id="edge34" class="edge">
<title>Node2&#45;&gt;Node6</title>
<path fill="none" stroke="#63b8ff" d="M1931.74,-140.18C1800.05,-138.85 1469.64,-131.93 1436.5,-96 1331.15,18.23 1195.96,-110.14 1642.5,-30 1652.27,-28.25 1662.74,-26.34 1672.7,-24.51"/>
<polygon fill="#63b8ff" stroke="#63b8ff" points="1931.96,-143.69 1941.99,-140.28 1932.02,-136.69 1931.96,-143.69"/>
</g>
<!-- Node17 -->
<g id="node17" class="node">
<title>Node17</title>
<g id="a_node17"><a xlink:href="shell_8c.html" target="_top" xlink:title=" ">
<polygon fill="white" stroke="#666666" points="2015,-24.5 1950,-24.5 1950,-5.5 2015,-5.5 2015,-24.5"/>
<text text-anchor="middle" x="1982.5" y="-12.5" font-family="Helvetica,sans-Serif" font-size="10.00">src/shell.c</text>
</a>
</g>
</g>
<!-- Node2&#45;&gt;Node17 -->
<g id="edge35" class="edge">
<title>Node2&#45;&gt;Node17</title>
<path fill="none" stroke="#63b8ff" d="M1931.73,-139.61C1810.76,-137.04 1525.4,-127.65 1496.5,-96 1487.51,-86.15 1487.46,-75.8 1496.5,-66 1530.05,-29.61 1892,-39.9 1940.5,-30 1946.98,-28.68 1953.84,-26.66 1960.1,-24.57"/>
<polygon fill="#63b8ff" stroke="#63b8ff" points="1931.81,-143.11 1941.88,-139.81 1931.96,-136.11 1931.81,-143.11"/>
</g>
<!-- Node18 -->
<g id="node18" class="node">
<title>Node18</title>
<g id="a_node18"><a xlink:href="lexer__expand__tilde_8c.html" target="_top" xlink:title=" ">
<polygon fill="white" stroke="#666666" points="1631.5,-96 1505.5,-96 1505.5,-66 1631.5,-66 1631.5,-96"/>
<text text-anchor="start" x="1513.5" y="-84" font-family="Helvetica,sans-Serif" font-size="10.00">src/lexer/lexer_expand</text>
<text text-anchor="middle" x="1568.5" y="-73" font-family="Helvetica,sans-Serif" font-size="10.00">_tilde.c</text>
</a>
</g>
</g>
<!-- Node2&#45;&gt;Node18 -->
<g id="edge17" class="edge">
<title>Node2&#45;&gt;Node18</title>
<path fill="none" stroke="#63b8ff" d="M1931.76,-134.64C1863.76,-126.99 1743.14,-112.58 1640.5,-96 1637.61,-95.53 1634.66,-95.04 1631.68,-94.52"/>
<polygon fill="#63b8ff" stroke="#63b8ff" points="1931.47,-138.13 1941.8,-135.77 1932.25,-131.18 1931.47,-138.13"/>
</g>
<!-- Node19 -->
<g id="node19" class="node">
<title>Node19</title>
<g id="a_node19"><a xlink:href="lexer__expand__variable_8c.html" target="_top" xlink:title=" ">
<polygon fill="white" stroke="#666666" points="1775.5,-96 1649.5,-96 1649.5,-66 1775.5,-66 1775.5,-96"/>
<text text-anchor="start" x="1657.5" y="-84" font-family="Helvetica,sans-Serif" font-size="10.00">src/lexer/lexer_expand</text>
<text text-anchor="middle" x="1712.5" y="-73" font-family="Helvetica,sans-Serif" font-size="10.00">_variable.c</text>
</a>
</g>
</g>
<!-- Node2&#45;&gt;Node19 -->
<g id="edge18" class="edge">
<title>Node2&#45;&gt;Node19</title>
<path fill="none" stroke="#63b8ff" d="M1935.98,-129.89C1890.96,-120.24 1824.31,-105.96 1775.51,-95.5"/>
<polygon fill="#63b8ff" stroke="#63b8ff" points="1935.29,-133.32 1945.8,-131.99 1936.76,-126.48 1935.29,-133.32"/>
</g>
<!-- Node20 -->
<g id="node20" class="node">
<title>Node20</title>
<g id="a_node20"><a xlink:href="lexer__init_8c.html" target="_top" xlink:title=" ">
<polygon fill="white" stroke="#666666" points="1907.5,-90.5 1793.5,-90.5 1793.5,-71.5 1907.5,-71.5 1907.5,-90.5"/>
<text text-anchor="middle" x="1850.5" y="-78.5" font-family="Helvetica,sans-Serif" font-size="10.00">src/lexer/lexer_init.c</text>
</a>
</g>
</g>
<!-- Node2&#45;&gt;Node20 -->
<g id="edge19" class="edge">
<title>Node2&#45;&gt;Node20</title>
<path fill="none" stroke="#63b8ff" d="M1956.5,-127.93C1930.43,-116.64 1892.86,-100.36 1870.15,-90.52"/>
<polygon fill="#63b8ff" stroke="#63b8ff" points="1955.3,-131.23 1965.87,-131.99 1958.09,-124.81 1955.3,-131.23"/>
</g>
<!-- Node2&#45;&gt;Node21 -->
<g id="edge20" class="edge">
<title>Node2&#45;&gt;Node21</title>
<path fill="none" stroke="#63b8ff" d="M1931.6,-140.07C1809.01,-138.47 1500.08,-130.99 1244.5,-96 1241.64,-95.61 1238.72,-95.16 1235.78,-94.67"/>
<polygon fill="#63b8ff" stroke="#63b8ff" points="1931.8,-143.57 1941.84,-140.19 1931.89,-136.57 1931.8,-143.57"/>
</g>
<!-- Node22 -->
<g id="node22" class="node">
<title>Node22</title>
<g id="a_node22"><a xlink:href="lexer__utils_8c.html" target="_top" xlink:title=" ">
<polygon fill="white" stroke="#666666" points="2045,-90.5 1926,-90.5 1926,-71.5 2045,-71.5 2045,-90.5"/>
<text text-anchor="middle" x="1985.5" y="-78.5" font-family="Helvetica,sans-Serif" font-size="10.00">src/lexer/lexer_utils.c</text>
</a>
</g>
</g>
<!-- Node2&#45;&gt;Node22 -->
<g id="edge21" class="edge">
<title>Node2&#45;&gt;Node22</title>
<path fill="none" stroke="#63b8ff" d="M1985.5,-121.66C1985.5,-111.24 1985.5,-98.8 1985.5,-90.67"/>
<polygon fill="#63b8ff" stroke="#63b8ff" points="1982,-121.87 1985.5,-131.87 1989,-121.87 1982,-121.87"/>
</g>
<!-- Node2&#45;&gt;Node23 -->
<g id="edge22" class="edge">
<title>Node2&#45;&gt;Node23</title>
<path fill="none" stroke="#63b8ff" d="M1931.78,-138.53C1826.81,-134.24 1587.29,-122.25 1387.5,-96 1382.96,-95.4 1378.28,-94.71 1373.58,-93.95"/>
<polygon fill="#63b8ff" stroke="#63b8ff" points="1931.68,-142.03 1941.81,-138.94 1931.96,-135.04 1931.68,-142.03"/>
</g>
<!-- Node2&#45;&gt;Node24 -->
<g id="edge23" class="edge">
<title>Node2&#45;&gt;Node24</title>
<path fill="none" stroke="#63b8ff" d="M2014.8,-128.08C2036.92,-118.7 2067.3,-105.82 2090.32,-96.06"/>
<polygon fill="#63b8ff" stroke="#63b8ff" points="2013.41,-124.87 2005.57,-131.99 2016.14,-131.31 2013.41,-124.87"/>
</g>
<!-- Node2&#45;&gt;Node25 -->
<g id="edge24" class="edge">
<title>Node2&#45;&gt;Node25</title>
<path fill="none" stroke="#63b8ff" d="M2035.51,-129.9C2082.16,-120.01 2151.82,-105.25 2201.45,-94.73"/>
<polygon fill="#63b8ff" stroke="#63b8ff" points="2034.69,-126.5 2025.63,-131.99 2036.14,-133.34 2034.69,-126.5"/>
</g>
<!-- Node2&#45;&gt;Node26 -->
<g id="edge25" class="edge">
<title>Node2&#45;&gt;Node26</title>
<path fill="none" stroke="#63b8ff" d="M2039.27,-134.78C2107.28,-127.26 2227.93,-113 2330.5,-96 2333.39,-95.52 2336.35,-95.01 2339.34,-94.47"/>
<polygon fill="#63b8ff" stroke="#63b8ff" points="2038.77,-131.31 2029.22,-135.88 2039.54,-138.27 2038.77,-131.31"/>
</g>
<!-- Node2&#45;&gt;Node27 -->
<g id="edge26" class="edge">
<title>Node2&#45;&gt;Node27</title>
<path fill="none" stroke="#63b8ff" d="M2039.49,-137.44C2129,-131.94 2313.63,-118.78 2468.5,-96 2471.4,-95.57 2474.37,-95.1 2477.36,-94.6"/>
<polygon fill="#63b8ff" stroke="#63b8ff" points="2039.08,-133.96 2029.31,-138.06 2039.51,-140.95 2039.08,-133.96"/>
</g>
<!-- Node2&#45;&gt;Node28 -->
<g id="edge27" class="edge">
<title>Node2&#45;&gt;Node28</title>
<path fill="none" stroke="#63b8ff" d="M2039.41,-137.53C2169.43,-130.23 2497.54,-110.9 2606.5,-96 2609.41,-95.6 2612.37,-95.16 2615.37,-94.67"/>
<polygon fill="#63b8ff" stroke="#63b8ff" points="2039.08,-134.04 2029.29,-138.1 2039.47,-141.03 2039.08,-134.04"/>
</g>
<!-- Node2&#45;&gt;Node29 -->
<g id="edge28" class="edge">
<title>Node2&#45;&gt;Node29</title>
<path fill="none" stroke="#63b8ff" d="M2039.58,-138.33C2189.43,-132.15 2607.89,-113.77 2744.5,-96 2747.41,-95.62 2750.38,-95.19 2753.37,-94.72"/>
<polygon fill="#63b8ff" stroke="#63b8ff" points="2039.11,-134.84 2029.27,-138.75 2039.4,-141.84 2039.11,-134.84"/>
</g>
<!-- Node2&#45;&gt;Node30 -->
<g id="edge29" class="edge">
<title>Node2&#45;&gt;Node30</title>
<path fill="none" stroke="#63b8ff" d="M2039.17,-138.9C2206.58,-133.74 2717.8,-116.67 2882.5,-96 2885.41,-95.63 2888.38,-95.21 2891.38,-94.75"/>
<polygon fill="#63b8ff" stroke="#63b8ff" points="2039,-135.4 2029.11,-139.21 2039.22,-142.4 2039,-135.4"/>
</g>
<!-- Node2&#45;&gt;Node31 -->
<g id="edge30" class="edge">
<title>Node2&#45;&gt;Node31</title>
<path fill="none" stroke="#63b8ff" d="M2039.43,-138.68C2238.16,-131.9 2923,-107.91 3020.5,-96 3023.41,-95.64 3026.38,-95.23 3029.38,-94.78"/>
<polygon fill="#63b8ff" stroke="#63b8ff" points="2039.12,-135.19 2029.24,-139.03 2039.35,-142.18 2039.12,-135.19"/>
</g>
<!-- Node2&#45;&gt;Node32 -->
<g id="edge31" class="edge">
<title>Node2&#45;&gt;Node32</title>
<path fill="none" stroke="#63b8ff" d="M2039.36,-138.97C2254.59,-132.8 3046.76,-109.37 3158.5,-96 3161.41,-95.65 3164.39,-95.25 3167.38,-94.8"/>
<polygon fill="#63b8ff" stroke="#63b8ff" points="2039.15,-135.48 2029.25,-139.26 2039.35,-142.47 2039.15,-135.48"/>
</g>
<!-- Node2&#45;&gt;Node33 -->
<g id="edge32" class="edge">
<title>Node2&#45;&gt;Node33</title>
<path fill="none" stroke="#63b8ff" d="M2039.49,-139.2C2270.61,-133.55 3170.51,-110.82 3296.5,-96 3299.41,-95.66 3302.39,-95.26 3305.38,-94.81"/>
<polygon fill="#63b8ff" stroke="#63b8ff" points="2039.23,-135.7 2029.32,-139.45 2039.4,-142.7 2039.23,-135.7"/>
</g>
<!-- Node3&#45;&gt;Node4 -->
<g id="edge3" class="edge">
<title>Node3&#45;&gt;Node4</title>
<path fill="none" stroke="#63b8ff" d="M925.16,-78.68C790.46,-75.11 443.43,-63.18 155.5,-30 143.3,-28.59 130.17,-26.58 118.06,-24.51"/>
<polygon fill="#63b8ff" stroke="#63b8ff" points="925.17,-82.18 935.26,-78.94 925.35,-75.18 925.17,-82.18"/>
</g>
<!-- Node3&#45;&gt;Node5 -->
<g id="edge4" class="edge">
<title>Node3&#45;&gt;Node5</title>
<path fill="none" stroke="#63b8ff" d="M1039.8,-73.26C1062.97,-70.7 1089.99,-67.95 1114.5,-66 1416.19,-42.03 1494.07,-66.59 1794.5,-30 1805.52,-28.66 1817.37,-26.64 1828.25,-24.55"/>
<polygon fill="#63b8ff" stroke="#63b8ff" points="1039.34,-69.79 1029.79,-74.37 1040.12,-76.74 1039.34,-69.79"/>
</g>
<!-- Node3&#45;&gt;Node6 -->
<g id="edge5" class="edge">
<title>Node3&#45;&gt;Node6</title>
<path fill="none" stroke="#63b8ff" d="M1039.94,-71.12C1053.54,-69.23 1068.01,-67.38 1081.5,-66 1330.04,-40.49 1394.55,-60.68 1642.5,-30 1653.82,-28.6 1666,-26.59 1677.22,-24.52"/>
<polygon fill="#63b8ff" stroke="#63b8ff" points="1039.15,-67.7 1029.75,-72.57 1040.14,-74.63 1039.15,-67.7"/>
</g>
<!-- Node3&#45;&gt;Node7 -->
<g id="edge6" class="edge">
<title>Node3&#45;&gt;Node7</title>
<path fill="none" stroke="#63b8ff" d="M925.14,-77.72C809.09,-72.65 538.28,-58.61 312.5,-30 301.17,-28.56 288.99,-26.59 277.7,-24.57"/>
<polygon fill="#63b8ff" stroke="#63b8ff" points="925.08,-81.22 935.22,-78.15 925.38,-74.22 925.08,-81.22"/>
</g>
<!-- Node8 -->
<g id="node8" class="node">
<title>Node8</title>
<g id="a_node8"><a xlink:href="parser__set__error_8c.html" target="_top" xlink:title=" ">
<polygon fill="white" stroke="#666666" points="1337,-30 1218,-30 1218,0 1337,0 1337,-30"/>
<text text-anchor="start" x="1226" y="-18" font-family="Helvetica,sans-Serif" font-size="10.00">src/parser/parser_set</text>
<text text-anchor="middle" x="1277.5" y="-7" font-family="Helvetica,sans-Serif" font-size="10.00">_error.c</text>
</a>
</g>
</g>
<!-- Node3&#45;&gt;Node8 -->
<g id="edge7" class="edge">
<title>Node3&#45;&gt;Node8</title>
<path fill="none" stroke="#63b8ff" d="M1029.13,-69.22C1033.98,-68.12 1038.84,-67.03 1043.5,-66 1102.72,-52.88 1170.5,-38.46 1217.82,-28.49"/>
<polygon fill="#63b8ff" stroke="#63b8ff" points="1028.23,-65.84 1019.25,-71.47 1029.78,-72.66 1028.23,-65.84"/>
</g>
<!-- Node3&#45;&gt;Node9 -->
<g id="edge8" class="edge">
<title>Node3&#45;&gt;Node9</title>
<path fill="none" stroke="#63b8ff" d="M925.15,-76.08C829.42,-69.18 631.12,-53.34 464.5,-30 453.74,-28.49 442.18,-26.54 431.4,-24.57"/>
<polygon fill="#63b8ff" stroke="#63b8ff" points="924.98,-79.58 935.2,-76.8 925.48,-72.6 924.98,-79.58"/>
</g>
<!-- Node3&#45;&gt;Node10 -->
<g id="edge9" class="edge">
<title>Node3&#45;&gt;Node10</title>
<path fill="none" stroke="#63b8ff" d="M925.03,-73.19C852.16,-64.33 722.73,-47.86 612.5,-30 609.66,-29.54 606.76,-29.06 603.84,-28.55"/>
<polygon fill="#63b8ff" stroke="#63b8ff" points="925.02,-76.71 935.36,-74.44 925.86,-69.76 925.02,-76.71"/>
</g>
<!-- Node11 -->
<g id="node11" class="node">
<title>Node11</title>
<g id="a_node11"><a xlink:href="parse__logical__operator_8c.html" target="_top" xlink:title=" ">
<polygon fill="white" stroke="#666666" points="1485.5,-30 1355.5,-30 1355.5,0 1485.5,0 1485.5,-30"/>
<text text-anchor="start" x="1363.5" y="-18" font-family="Helvetica,sans-Serif" font-size="10.00">src/parser/tokens/parse</text>
<text text-anchor="middle" x="1420.5" y="-7" font-family="Helvetica,sans-Serif" font-size="10.00">_logical_operator.c</text>
</a>
</g>
</g>
<!-- Node3&#45;&gt;Node11 -->
<g id="edge10" class="edge">
<title>Node3&#45;&gt;Node11</title>
<path fill="none" stroke="#63b8ff" d="M1026.82,-69.25C1032.42,-68.06 1038.08,-66.94 1043.5,-66 1176.68,-42.85 1211.88,-50.41 1345.5,-30 1348.64,-29.52 1351.85,-29.01 1355.1,-28.47"/>
<polygon fill="#63b8ff" stroke="#63b8ff" points="1025.9,-65.86 1016.89,-71.43 1027.41,-72.7 1025.9,-65.86"/>
</g>
<!-- Node3&#45;&gt;Node12 -->
<g id="edge11" class="edge">
<title>Node3&#45;&gt;Node12</title>
<path fill="none" stroke="#63b8ff" d="M932.99,-69.3C883.16,-58.52 806.06,-41.85 751.36,-30.02"/>
<polygon fill="#63b8ff" stroke="#63b8ff" points="932.37,-72.74 942.89,-71.44 933.85,-65.9 932.37,-72.74"/>
</g>
<!-- Node13 -->
<g id="node13" class="node">
<title>Node13</title>
<g id="a_node13"><a xlink:href="parse__sequence_8c.html" target="_top" xlink:title=" ">
<polygon fill="white" stroke="#666666" points="1047.5,-30 917.5,-30 917.5,0 1047.5,0 1047.5,-30"/>
<text text-anchor="start" x="925.5" y="-18" font-family="Helvetica,sans-Serif" font-size="10.00">src/parser/tokens/parse</text>
<text text-anchor="middle" x="982.5" y="-7" font-family="Helvetica,sans-Serif" font-size="10.00">_sequence.c</text>
</a>
</g>
</g>
<!-- Node3&#45;&gt;Node13 -->
<g id="edge12" class="edge">
<title>Node3&#45;&gt;Node13</title>
<path fill="none" stroke="#63b8ff" d="M982.5,-61.35C982.5,-51.47 982.5,-39.51 982.5,-30.36"/>
<polygon fill="#63b8ff" stroke="#63b8ff" points="979,-61.37 982.5,-71.37 986,-61.37 979,-61.37"/>
</g>
<!-- Node3&#45;&gt;Node14 -->
<g id="edge13" class="edge">
<title>Node3&#45;&gt;Node14</title>
<path fill="none" stroke="#63b8ff" d="M953.28,-67.36C928.46,-56.63 892.88,-41.25 867.14,-30.12"/>
<polygon fill="#63b8ff" stroke="#63b8ff" points="951.97,-70.61 962.54,-71.37 954.75,-64.19 951.97,-70.61"/>
</g>
<!-- Node3&#45;&gt;Node15 -->
<g id="edge14" class="edge">
<title>Node3&#45;&gt;Node15</title>
<path fill="none" stroke="#63b8ff" d="M1025.52,-69.3C1031.53,-68.05 1037.65,-66.9 1043.5,-66 1242.24,-35.43 1295.2,-56.73 1494.5,-30 1497.35,-29.62 1500.26,-29.2 1503.19,-28.75"/>
<polygon fill="#63b8ff" stroke="#63b8ff" points="1024.59,-65.92 1015.57,-71.48 1026.09,-72.76 1024.59,-65.92"/>
</g>
<!-- Node16 -->
<g id="node16" class="node">
<title>Node16</title>
<g id="a_node16"><a xlink:href="parser__globbing_8c.html" target="_top" xlink:title=" ">
<polygon fill="white" stroke="#666666" points="1199.5,-30 1065.5,-30 1065.5,0 1199.5,0 1199.5,-30"/>
<text text-anchor="start" x="1073.5" y="-18" font-family="Helvetica,sans-Serif" font-size="10.00">src/parser/tokens/parser</text>
<text text-anchor="middle" x="1132.5" y="-7" font-family="Helvetica,sans-Serif" font-size="10.00">_globbing.c</text>
</a>
</g>
</g>
<!-- Node3&#45;&gt;Node16 -->
<g id="edge15" class="edge">
<title>Node3&#45;&gt;Node16</title>
<path fill="none" stroke="#63b8ff" d="M1012.12,-67.36C1037.27,-56.63 1073.33,-41.25 1099.42,-30.12"/>
<polygon fill="#63b8ff" stroke="#63b8ff" points="1010.55,-64.23 1002.73,-71.37 1013.3,-70.66 1010.55,-64.23"/>
</g>
<!-- Node3&#45;&gt;Node17 -->
<g id="edge16" class="edge">
<title>Node3&#45;&gt;Node17</title>
<path fill="none" stroke="#63b8ff" d="M1039.8,-73.14C1062.96,-70.57 1089.98,-67.83 1114.5,-66 1480.94,-38.61 1579.15,-96.75 1940.5,-30 1947.15,-28.77 1954.19,-26.73 1960.57,-24.59"/>
<polygon fill="#63b8ff" stroke="#63b8ff" points="1039.33,-69.67 1029.78,-74.27 1040.11,-76.63 1039.33,-69.67"/>
</g>
</g>
</svg>
        <g id="navigator" transform="translate(0 0)" fill="#404254">
                <rect fill="#f2f5e9" fill-opacity="0.5" stroke="#606060" stroke-width=".5" x="0" y="0" width="60" height="60"/>
                <use id="zoomplus" xlink:href="#zoomPlus" x="17" y="9" onmousedown="handleZoom(evt,'in')"/>
                <use id="zoomminus" xlink:href="#zoomMin" x="42" y="9" onmousedown="handleZoom(evt,'out')"/>
                <use id="reset" xlink:href="#resetDef" x="30" y="36" onmousedown="handleReset()"/>
                <g id="arrowUp" xlink:href="#dirArrow" transform="translate(30 24)" onmousedown="handlePan(0,-1)">
                  <use xlink:href="#rim" fill="#404040">
                        <set attributeName="fill" to="#808080" begin="arrowUp.mouseover" end="arrowUp.mouseout"/>
                  </use>
                  <path fill="none" stroke="white" stroke-width="1.5" d="M0,-3.0v7 M-2.5,-0.5L0,-3.0L2.5,-0.5"/>
                </g>
                <g id="arrowRight" xlink:href="#dirArrow" transform="rotate(90) translate(36 -43)" onmousedown="handlePan(1,0)">
                  <use xlink:href="#rim" fill="#404040">
                        <set attributeName="fill" to="#808080" begin="arrowRight.mouseover" end="arrowRight.mouseout"/>
                  </use>
                  <path fill="none" stroke="white" stroke-width="1.5" d="M0,-3.0v7 M-2.5,-0.5L0,-3.0L2.5,-0.5"/>
                </g>
                <g id="arrowDown" xlink:href="#dirArrow" transform="rotate(180) translate(-30 -48)" onmousedown="handlePan(0,1)">
                  <use xlink:href="#rim" fill="#404040">
                        <set attributeName="fill" to="#808080" begin="arrowDown.mouseover" end="arrowDown.mouseout"/>
                  </use>
                  <path fill="none" stroke="white" stroke-width="1.5" d="M0,-3.0v7 M-2.5,-0.5L0,-3.0L2.5,-0.5"/>
                </g>
                <g id="arrowLeft" xlink:href="#dirArrow" transform="rotate(270) translate(-36 17)" onmousedown="handlePan(-1,0)">
                  <use xlink:href="#rim" fill="#404040">
                        <set attributeName="fill" to="#808080" begin="arrowLeft.mouseover" end="arrowLeft.mouseout"/>
                  </use>
                  <path fill="none" stroke="white" stroke-width="1.5" d="M0,-3.0v7 M-2.5,-0.5L0,-3.0L2.5,-0.5"/>
                </g>
        </g>
        <svg viewBox="0 0 15 15" width="100%" height="30px" preserveAspectRatio="xMaxYMin meet">
         <g id="arrow_out" transform="scale(0.3 0.3)">
          <a xlink:href="token_8h__dep__incl_org.svg" target="_base">
           <rect id="button" ry="5" rx="5" y="6" x="6" height="38" width="38"
                fill="#f2f5e9" fill-opacity="0.5" stroke="#606060" stroke-width="1.0"/>
           <path id="arrow"
             d="M 11.500037,31.436501 C 11.940474,20.09759 22.043105,11.32322 32.158766,21.979434 L 37.068811,17.246167 C 37.068811,17.246167 37.088388,32 37.088388,32 L 22.160133,31.978069 C 22.160133,31.978069 26.997745,27.140456 26.997745,27.140456 C 18.528582,18.264221 13.291696,25.230495 11.500037,31.436501 z"
             style="fill:#404040;"/>
          </a>
         </g>
        </svg>
</svg>
