<?xml version="1.0" encoding="UTF-8" standalone="no"?>
<!DOCTYPE svg PUBLIC "-//W3C//DTD SVG 1.1//EN"
 "http://www.w3.org/Graphics/SVG/1.1/DTD/svg11.dtd">
<!-- Generated by graphviz version 2.43.0 (0)
 -->
<!-- Title: src/builtins/alias/unalias.c Pages: 1 -->
<svg width="252pt" height="258pt"
 viewBox="0.00 0.00 251.50 258.00" xmlns="http://www.w3.org/2000/svg" xmlns:xlink="http://www.w3.org/1999/xlink">
<g id="graph0" class="graph" transform="scale(1 1) rotate(0) translate(4 254)">
<title>src/builtins/alias/unalias.c</title>
<!-- Node1 -->
<g id="node1" class="node">
<title>Node1</title>
<g id="a_node1"><a xlink:title=" ">
<polygon fill="#999999" stroke="#666666" points="191,-250 95,-250 95,-220 191,-220 191,-250"/>
<text text-anchor="start" x="103" y="-238" font-family="Helvetica,sans-Serif" font-size="10.00">src/builtins/alias</text>
<text text-anchor="middle" x="143" y="-227" font-family="Helvetica,sans-Serif" font-size="10.00">/unalias.c</text>
</a>
</g>
</g>
<!-- Node2 -->
<g id="node2" class="node">
<title>Node2</title>
<g id="a_node2"><a xlink:title=" ">
<polygon fill="#e0e0e0" stroke="#999999" points="50,-184 0,-184 0,-165 50,-165 50,-184"/>
<text text-anchor="middle" x="25" y="-172" font-family="Helvetica,sans-Serif" font-size="10.00">stdio.h</text>
</a>
</g>
</g>
<!-- Node1&#45;&gt;Node2 -->
<g id="edge1" class="edge">
<title>Node1&#45;&gt;Node2</title>
<path fill="none" stroke="#63b8ff" d="M114.74,-219.99C95.58,-210.49 70.42,-198.02 51.61,-188.69"/>
<polygon fill="#63b8ff" stroke="#63b8ff" points="52.94,-185.45 42.43,-184.14 49.83,-191.72 52.94,-185.45"/>
</g>
<!-- Node3 -->
<g id="node3" class="node">
<title>Node3</title>
<g id="a_node3"><a xlink:href="misc_8h.html" target="_top" xlink:title=" ">
<polygon fill="white" stroke="#666666" points="136,-184 68,-184 68,-165 136,-165 136,-184"/>
<text text-anchor="middle" x="102" y="-172" font-family="Helvetica,sans-Serif" font-size="10.00">my/misc.h</text>
</a>
</g>
</g>
<!-- Node1&#45;&gt;Node3 -->
<g id="edge2" class="edge">
<title>Node1&#45;&gt;Node3</title>
<path fill="none" stroke="#63b8ff" d="M133.08,-219.84C127.31,-211.61 120,-201.18 113.92,-192.51"/>
<polygon fill="#63b8ff" stroke="#63b8ff" points="116.75,-190.45 108.14,-184.27 111.02,-194.46 116.75,-190.45"/>
</g>
<!-- Node4 -->
<g id="node4" class="node">
<title>Node4</title>
<g id="a_node4"><a xlink:href="builtins_8h.html" target="_top" xlink:title=" ">
<polygon fill="white" stroke="#666666" points="216,-184 154,-184 154,-165 216,-165 216,-184"/>
<text text-anchor="middle" x="185" y="-172" font-family="Helvetica,sans-Serif" font-size="10.00">builtins.h</text>
</a>
</g>
</g>
<!-- Node1&#45;&gt;Node4 -->
<g id="edge3" class="edge">
<title>Node1&#45;&gt;Node4</title>
<path fill="none" stroke="#63b8ff" d="M153.17,-219.84C159.08,-211.61 166.56,-201.18 172.79,-192.51"/>
<polygon fill="#63b8ff" stroke="#63b8ff" points="175.72,-194.43 178.71,-184.27 170.03,-190.35 175.72,-194.43"/>
</g>
<!-- Node5 -->
<g id="node5" class="node">
<title>Node5</title>
<g id="a_node5"><a xlink:href="shell_8h.html" target="_top" xlink:title=" ">
<polygon fill="white" stroke="#666666" points="238.5,-129 189.5,-129 189.5,-110 238.5,-110 238.5,-129"/>
<text text-anchor="middle" x="214" y="-117" font-family="Helvetica,sans-Serif" font-size="10.00">shell.h</text>
</a>
</g>
</g>
<!-- Node1&#45;&gt;Node5 -->
<g id="edge7" class="edge">
<title>Node1&#45;&gt;Node5</title>
<path fill="none" stroke="#63b8ff" d="M182.97,-219.79C199.02,-211.89 215.86,-200.28 225,-184 232.78,-170.14 228.54,-152.12 223.23,-138.81"/>
<polygon fill="#63b8ff" stroke="#63b8ff" points="226.25,-137 218.94,-129.32 219.87,-139.88 226.25,-137"/>
</g>
<!-- Node4&#45;&gt;Node5 -->
<g id="edge4" class="edge">
<title>Node4&#45;&gt;Node5</title>
<path fill="none" stroke="#63b8ff" d="M189.79,-164.75C193.76,-157.49 199.53,-146.95 204.43,-137.98"/>
<polygon fill="#63b8ff" stroke="#63b8ff" points="207.57,-139.54 209.3,-129.09 201.43,-136.18 207.57,-139.54"/>
</g>
<!-- Node6 -->
<g id="node6" class="node">
<title>Node6</title>
<g id="a_node6"><a xlink:href="list_8h.html" target="_top" xlink:title=" ">
<polygon fill="white" stroke="#666666" points="243.5,-74 184.5,-74 184.5,-55 243.5,-55 243.5,-74"/>
<text text-anchor="middle" x="214" y="-62" font-family="Helvetica,sans-Serif" font-size="10.00">my/list.h</text>
</a>
</g>
</g>
<!-- Node5&#45;&gt;Node6 -->
<g id="edge5" class="edge">
<title>Node5&#45;&gt;Node6</title>
<path fill="none" stroke="#63b8ff" d="M214,-109.75C214,-102.8 214,-92.85 214,-84.13"/>
<polygon fill="#63b8ff" stroke="#63b8ff" points="217.5,-84.09 214,-74.09 210.5,-84.09 217.5,-84.09"/>
</g>
<!-- Node7 -->
<g id="node7" class="node">
<title>Node7</title>
<g id="a_node7"><a xlink:title=" ">
<polygon fill="#e0e0e0" stroke="#999999" points="242,-19 186,-19 186,0 242,0 242,-19"/>
<text text-anchor="middle" x="214" y="-7" font-family="Helvetica,sans-Serif" font-size="10.00">stddef.h</text>
</a>
</g>
</g>
<!-- Node6&#45;&gt;Node7 -->
<g id="edge6" class="edge">
<title>Node6&#45;&gt;Node7</title>
<path fill="none" stroke="#63b8ff" d="M214,-54.75C214,-47.8 214,-37.85 214,-29.13"/>
<polygon fill="#63b8ff" stroke="#63b8ff" points="217.5,-29.09 214,-19.09 210.5,-29.09 217.5,-29.09"/>
</g>
</g>
</svg>
