<?xml version="1.0" encoding="UTF-8" standalone="no"?>
<!DOCTYPE svg PUBLIC "-//W3C//DTD SVG 1.1//EN"
 "http://www.w3.org/Graphics/SVG/1.1/DTD/svg11.dtd">
<!-- Generated by graphviz version 2.43.0 (0)
 -->
<!-- Title: src/variables/unset_variable.c Pages: 1 -->
<svg width="167pt" height="203pt"
 viewBox="0.00 0.00 167.00 203.00" xmlns="http://www.w3.org/2000/svg" xmlns:xlink="http://www.w3.org/1999/xlink">
<g id="graph0" class="graph" transform="scale(1 1) rotate(0) translate(4 199)">
<title>src/variables/unset_variable.c</title>
<!-- Node1 -->
<g id="node1" class="node">
<title>Node1</title>
<g id="a_node1"><a xlink:title=" ">
<polygon fill="#999999" stroke="#666666" points="136,-195 27,-195 27,-165 136,-165 136,-195"/>
<text text-anchor="start" x="35" y="-183" font-family="Helvetica,sans-Serif" font-size="10.00">src/variables/unset</text>
<text text-anchor="middle" x="81.5" y="-172" font-family="Helvetica,sans-Serif" font-size="10.00">_variable.c</text>
</a>
</g>
</g>
<!-- Node2 -->
<g id="node2" class="node">
<title>Node2</title>
<g id="a_node2"><a xlink:title=" ">
<polygon fill="#e0e0e0" stroke="#999999" points="53,-129 0,-129 0,-110 53,-110 53,-129"/>
<text text-anchor="middle" x="26.5" y="-117" font-family="Helvetica,sans-Serif" font-size="10.00">string.h</text>
</a>
</g>
</g>
<!-- Node1&#45;&gt;Node2 -->
<g id="edge1" class="edge">
<title>Node1&#45;&gt;Node2</title>
<path fill="none" stroke="#63b8ff" d="M68.19,-164.84C60.2,-156.35 50.02,-145.52 41.72,-136.69"/>
<polygon fill="#63b8ff" stroke="#63b8ff" points="44.14,-134.15 34.74,-129.27 39.04,-138.95 44.14,-134.15"/>
</g>
<!-- Node3 -->
<g id="node3" class="node">
<title>Node3</title>
<g id="a_node3"><a xlink:href="list_8h.html" target="_top" xlink:title=" ">
<polygon fill="white" stroke="#666666" points="137,-74 78,-74 78,-55 137,-55 137,-74"/>
<text text-anchor="middle" x="107.5" y="-62" font-family="Helvetica,sans-Serif" font-size="10.00">my/list.h</text>
</a>
</g>
</g>
<!-- Node1&#45;&gt;Node3 -->
<g id="edge2" class="edge">
<title>Node1&#45;&gt;Node3</title>
<path fill="none" stroke="#63b8ff" d="M84.79,-164.63C89.47,-144.21 98.04,-106.81 103.21,-84.24"/>
<polygon fill="#63b8ff" stroke="#63b8ff" points="106.68,-84.76 105.5,-74.23 99.86,-83.2 106.68,-84.76"/>
</g>
<!-- Node5 -->
<g id="node5" class="node">
<title>Node5</title>
<g id="a_node5"><a xlink:href="shell_8h.html" target="_top" xlink:title=" ">
<polygon fill="white" stroke="#666666" points="159,-129 110,-129 110,-110 159,-110 159,-129"/>
<text text-anchor="middle" x="134.5" y="-117" font-family="Helvetica,sans-Serif" font-size="10.00">shell.h</text>
</a>
</g>
</g>
<!-- Node1&#45;&gt;Node5 -->
<g id="edge4" class="edge">
<title>Node1&#45;&gt;Node5</title>
<path fill="none" stroke="#63b8ff" d="M94.33,-164.84C102.02,-156.35 111.83,-145.52 119.83,-136.69"/>
<polygon fill="#63b8ff" stroke="#63b8ff" points="122.44,-139.03 126.56,-129.27 117.25,-134.33 122.44,-139.03"/>
</g>
<!-- Node4 -->
<g id="node4" class="node">
<title>Node4</title>
<g id="a_node4"><a xlink:title=" ">
<polygon fill="#e0e0e0" stroke="#999999" points="135.5,-19 79.5,-19 79.5,0 135.5,0 135.5,-19"/>
<text text-anchor="middle" x="107.5" y="-7" font-family="Helvetica,sans-Serif" font-size="10.00">stddef.h</text>
</a>
</g>
</g>
<!-- Node3&#45;&gt;Node4 -->
<g id="edge3" class="edge">
<title>Node3&#45;&gt;Node4</title>
<path fill="none" stroke="#63b8ff" d="M107.5,-54.75C107.5,-47.8 107.5,-37.85 107.5,-29.13"/>
<polygon fill="#63b8ff" stroke="#63b8ff" points="111,-29.09 107.5,-19.09 104,-29.09 111,-29.09"/>
</g>
<!-- Node5&#45;&gt;Node3 -->
<g id="edge5" class="edge">
<title>Node5&#45;&gt;Node3</title>
<path fill="none" stroke="#63b8ff" d="M130.04,-109.75C126.38,-102.57 121.09,-92.18 116.55,-83.27"/>
<polygon fill="#63b8ff" stroke="#63b8ff" points="119.53,-81.41 111.88,-74.09 113.3,-84.59 119.53,-81.41"/>
</g>
</g>
</svg>
