<?xml version="1.0" encoding="UTF-8" standalone="no"?>
<!DOCTYPE svg PUBLIC "-//W3C//DTD SVG 1.1//EN"
 "http://www.w3.org/Graphics/SVG/1.1/DTD/svg11.dtd">
<!-- Generated by graphviz version 2.43.0 (0)
 -->
<!-- Title: src/builtins/where.c Pages: 1 -->
<svg width="529pt" height="192pt"
 viewBox="0.00 0.00 529.00 192.00" xmlns="http://www.w3.org/2000/svg" xmlns:xlink="http://www.w3.org/1999/xlink">
<g id="graph0" class="graph" transform="scale(1 1) rotate(0) translate(4 188)">
<title>src/builtins/where.c</title>
<!-- Node1 -->
<g id="node1" class="node">
<title>Node1</title>
<g id="a_node1"><a xlink:title=" ">
<polygon fill="#999999" stroke="#666666" points="289.5,-184 178.5,-184 178.5,-165 289.5,-165 289.5,-184"/>
<text text-anchor="middle" x="234" y="-172" font-family="Helvetica,sans-Serif" font-size="10.00">src/builtins/where.c</text>
</a>
</g>
</g>
<!-- Node2 -->
<g id="node2" class="node">
<title>Node2</title>
<g id="a_node2"><a xlink:href="env_8h.html" target="_top" xlink:title=" ">
<polygon fill="white" stroke="#666666" points="70.5,-129 27.5,-129 27.5,-110 70.5,-110 70.5,-129"/>
<text text-anchor="middle" x="49" y="-117" font-family="Helvetica,sans-Serif" font-size="10.00">env.h</text>
</a>
</g>
</g>
<!-- Node1&#45;&gt;Node2 -->
<g id="edge1" class="edge">
<title>Node1&#45;&gt;Node2</title>
<path fill="none" stroke="#63b8ff" d="M204.28,-164.98C170.4,-155.28 115.25,-139.48 80.61,-129.55"/>
<polygon fill="#63b8ff" stroke="#63b8ff" points="81.14,-126.07 70.56,-126.68 79.21,-132.79 81.14,-126.07"/>
</g>
<!-- Node4 -->
<g id="node4" class="node">
<title>Node4</title>
<g id="a_node4"><a xlink:title=" ">
<polygon fill="#e0e0e0" stroke="#999999" points="56,-19 0,-19 0,0 56,0 56,-19"/>
<text text-anchor="middle" x="28" y="-7" font-family="Helvetica,sans-Serif" font-size="10.00">stddef.h</text>
</a>
</g>
</g>
<!-- Node1&#45;&gt;Node4 -->
<g id="edge7" class="edge">
<title>Node1&#45;&gt;Node4</title>
<path fill="none" stroke="#63b8ff" d="M178.3,-169.78C121.42,-164.68 38.74,-153.24 19,-129 -4.25,-100.44 9.3,-54.1 19.63,-28.65"/>
<polygon fill="#63b8ff" stroke="#63b8ff" points="22.99,-29.71 23.75,-19.14 16.56,-26.93 22.99,-29.71"/>
</g>
<!-- Node5 -->
<g id="node5" class="node">
<title>Node5</title>
<g id="a_node5"><a xlink:href="misc_8h.html" target="_top" xlink:title=" ">
<polygon fill="white" stroke="#666666" points="157,-129 89,-129 89,-110 157,-110 157,-129"/>
<text text-anchor="middle" x="123" y="-117" font-family="Helvetica,sans-Serif" font-size="10.00">my/misc.h</text>
</a>
</g>
</g>
<!-- Node1&#45;&gt;Node5 -->
<g id="edge4" class="edge">
<title>Node1&#45;&gt;Node5</title>
<path fill="none" stroke="#63b8ff" d="M216.17,-164.98C198.39,-156.5 170.85,-143.35 150.32,-133.54"/>
<polygon fill="#63b8ff" stroke="#63b8ff" points="151.69,-130.32 141.16,-129.17 148.67,-136.64 151.69,-130.32"/>
</g>
<!-- Node6 -->
<g id="node6" class="node">
<title>Node6</title>
<g id="a_node6"><a xlink:href="shell_8h.html" target="_top" xlink:title=" ">
<polygon fill="white" stroke="#666666" points="224.5,-129 175.5,-129 175.5,-110 224.5,-110 224.5,-129"/>
<text text-anchor="middle" x="200" y="-117" font-family="Helvetica,sans-Serif" font-size="10.00">shell.h</text>
</a>
</g>
</g>
<!-- Node1&#45;&gt;Node6 -->
<g id="edge5" class="edge">
<title>Node1&#45;&gt;Node6</title>
<path fill="none" stroke="#63b8ff" d="M228.39,-164.75C223.68,-157.42 216.83,-146.73 211.03,-137.7"/>
<polygon fill="#63b8ff" stroke="#63b8ff" points="213.86,-135.62 205.51,-129.09 207.96,-139.4 213.86,-135.62"/>
</g>
<!-- Node7 -->
<g id="node7" class="node">
<title>Node7</title>
<g id="a_node7"><a xlink:title=" ">
<polygon fill="#e0e0e0" stroke="#999999" points="293,-129 243,-129 243,-110 293,-110 293,-129"/>
<text text-anchor="middle" x="268" y="-117" font-family="Helvetica,sans-Serif" font-size="10.00">stdio.h</text>
</a>
</g>
</g>
<!-- Node1&#45;&gt;Node7 -->
<g id="edge8" class="edge">
<title>Node1&#45;&gt;Node7</title>
<path fill="none" stroke="#63b8ff" d="M239.61,-164.75C244.32,-157.42 251.17,-146.73 256.97,-137.7"/>
<polygon fill="#63b8ff" stroke="#63b8ff" points="260.04,-139.4 262.49,-129.09 254.14,-135.62 260.04,-139.4"/>
</g>
<!-- Node8 -->
<g id="node8" class="node">
<title>Node8</title>
<g id="a_node8"><a xlink:title=" ">
<polygon fill="#e0e0e0" stroke="#999999" points="364.5,-129 311.5,-129 311.5,-110 364.5,-110 364.5,-129"/>
<text text-anchor="middle" x="338" y="-117" font-family="Helvetica,sans-Serif" font-size="10.00">string.h</text>
</a>
</g>
</g>
<!-- Node1&#45;&gt;Node8 -->
<g id="edge9" class="edge">
<title>Node1&#45;&gt;Node8</title>
<path fill="none" stroke="#63b8ff" d="M250.71,-164.98C267.21,-156.57 292.7,-143.59 311.88,-133.81"/>
<polygon fill="#63b8ff" stroke="#63b8ff" points="313.67,-136.83 320.99,-129.17 310.49,-130.59 313.67,-136.83"/>
</g>
<!-- Node9 -->
<g id="node9" class="node">
<title>Node9</title>
<g id="a_node9"><a xlink:title=" ">
<polygon fill="#e0e0e0" stroke="#999999" points="447,-129 383,-129 383,-110 447,-110 447,-129"/>
<text text-anchor="middle" x="415" y="-117" font-family="Helvetica,sans-Serif" font-size="10.00">sys/stat.h</text>
</a>
</g>
</g>
<!-- Node1&#45;&gt;Node9 -->
<g id="edge10" class="edge">
<title>Node1&#45;&gt;Node9</title>
<path fill="none" stroke="#63b8ff" d="M263.08,-164.98C293.6,-156.05 341.76,-141.94 375.66,-132.02"/>
<polygon fill="#63b8ff" stroke="#63b8ff" points="377.08,-135.25 385.69,-129.08 375.11,-128.53 377.08,-135.25"/>
</g>
<!-- Node10 -->
<g id="node10" class="node">
<title>Node10</title>
<g id="a_node10"><a xlink:title=" ">
<polygon fill="#e0e0e0" stroke="#999999" points="521,-129 465,-129 465,-110 521,-110 521,-129"/>
<text text-anchor="middle" x="493" y="-117" font-family="Helvetica,sans-Serif" font-size="10.00">unistd.h</text>
</a>
</g>
</g>
<!-- Node1&#45;&gt;Node10 -->
<g id="edge11" class="edge">
<title>Node1&#45;&gt;Node10</title>
<path fill="none" stroke="#63b8ff" d="M278.3,-165C321.06,-156.71 387.88,-143.53 454.86,-129.2"/>
<polygon fill="#63b8ff" stroke="#63b8ff" points="455.69,-132.6 464.74,-127.08 454.22,-125.76 455.69,-132.6"/>
</g>
<!-- Node3 -->
<g id="node3" class="node">
<title>Node3</title>
<g id="a_node3"><a xlink:href="list_8h.html" target="_top" xlink:title=" ">
<polygon fill="white" stroke="#666666" points="86.5,-74 27.5,-74 27.5,-55 86.5,-55 86.5,-74"/>
<text text-anchor="middle" x="57" y="-62" font-family="Helvetica,sans-Serif" font-size="10.00">my/list.h</text>
</a>
</g>
</g>
<!-- Node2&#45;&gt;Node3 -->
<g id="edge2" class="edge">
<title>Node2&#45;&gt;Node3</title>
<path fill="none" stroke="#63b8ff" d="M50.32,-109.75C51.37,-102.8 52.87,-92.85 54.19,-84.13"/>
<polygon fill="#63b8ff" stroke="#63b8ff" points="57.67,-84.5 55.7,-74.09 50.75,-83.45 57.67,-84.5"/>
</g>
<!-- Node3&#45;&gt;Node4 -->
<g id="edge3" class="edge">
<title>Node3&#45;&gt;Node4</title>
<path fill="none" stroke="#63b8ff" d="M52.21,-54.75C48.24,-47.49 42.47,-36.95 37.57,-27.98"/>
<polygon fill="#63b8ff" stroke="#63b8ff" points="40.57,-26.18 32.7,-19.09 34.43,-29.54 40.57,-26.18"/>
</g>
<!-- Node6&#45;&gt;Node3 -->
<g id="edge6" class="edge">
<title>Node6&#45;&gt;Node3</title>
<path fill="none" stroke="#63b8ff" d="M177.02,-109.98C153.5,-101.27 116.71,-87.63 90.06,-77.75"/>
<polygon fill="#63b8ff" stroke="#63b8ff" points="90.99,-74.36 80.39,-74.17 88.55,-80.93 90.99,-74.36"/>
</g>
</g>
</svg>
